<?xml version="1.0" encoding="UTF-8" standalone="no"?>
<!DOCTYPE svg PUBLIC "-//W3C//DTD SVG 1.1//EN"
 "http://www.w3.org/Graphics/SVG/1.1/DTD/svg11.dtd">
<!-- Generated by graphviz version 2.26.3 (20100126.1600)
 -->
<!-- Title: include/actor.hpp Pages: 1 -->
<svg width="1569pt" height="262pt"
 viewBox="0.00 0.00 1569.00 262.00" xmlns="http://www.w3.org/2000/svg" xmlns:xlink="http://www.w3.org/1999/xlink">
<g id="graph1" class="graph" transform="scale(1 1) rotate(0) translate(4 258)">
<title>include/actor.hpp</title>
<polygon fill="white" stroke="white" points="-4,5 -4,-258 1566,-258 1566,5 -4,5"/>
<!-- Node1 -->
<g id="node1" class="node"><title>Node1</title>
<polygon fill="#bfbfbf" stroke="black" points="1153.5,-232.5 1153.5,-253.5 1244.5,-253.5 1244.5,-232.5 1153.5,-232.5"/>
<text text-anchor="middle" x="1199" y="-240.5" font-family="Helvetica,sans-Serif" font-size="10.00">include/actor.hpp</text>
</g>
<!-- Node2 -->
<g id="node3" class="node"><title>Node2</title>
<a xlink:href="actor_8cpp.html" target="_top" xlink:title="src/actor.cpp">
<polygon fill="white" stroke="black" points="1487,-0.5 1487,-21.5 1561,-21.5 1561,-0.5 1487,-0.5"/>
<text text-anchor="middle" x="1524" y="-8.5" font-family="Helvetica,sans-Serif" font-size="10.00">src/actor.cpp</text>
</a>
</g>
<!-- Node1&#45;&gt;Node2 -->
<g id="edge2" class="edge"><title>Node1&#45;&gt;Node2</title>
<path fill="none" stroke="midnightblue" d="M1242.67,-229.256C1291.37,-212.6 1371.03,-181.291 1430,-138 1474.45,-105.372 1507.05,-45.6883 1519,-21.5491"/>
<polygon fill="midnightblue" stroke="midnightblue" points="1241.42,-225.982 1233.06,-232.489 1243.65,-232.617 1241.42,-225.982"/>
</g>
<!-- Node3 -->
<g id="node5" class="node"><title>Node3</title>
<a xlink:href="geometry_8hpp.html" target="_top" xlink:title="include/geometry.hpp">
<polygon fill="white" stroke="black" points="634,-174.5 634,-195.5 744,-195.5 744,-174.5 634,-174.5"/>
<text text-anchor="middle" x="689" y="-182.5" font-family="Helvetica,sans-Serif" font-size="10.00">include/geometry.hpp</text>
</a>
</g>
<!-- Node1&#45;&gt;Node3 -->
<g id="edge4" class="edge"><title>Node1&#45;&gt;Node3</title>
<path fill="none" stroke="midnightblue" d="M1143.27,-236.662C1045.05,-225.492 842.277,-202.431 744.338,-191.293"/>
<polygon fill="midnightblue" stroke="midnightblue" points="1142.96,-240.149 1153.29,-237.802 1143.75,-233.194 1142.96,-240.149"/>
</g>
<!-- Node28 -->
<g id="node73" class="node"><title>Node28</title>
<a xlink:href="world_8hpp.html" target="_top" xlink:title="include/world.hpp">
<polygon fill="white" stroke="black" points="1293,-116.5 1293,-137.5 1385,-137.5 1385,-116.5 1293,-116.5"/>
<text text-anchor="middle" x="1339" y="-124.5" font-family="Helvetica,sans-Serif" font-size="10.00">include/world.hpp</text>
</a>
</g>
<!-- Node1&#45;&gt;Node28 -->
<g id="edge90" class="edge"><title>Node1&#45;&gt;Node28</title>
<path fill="none" stroke="midnightblue" d="M1219.89,-225.693C1249.25,-201.362 1301.86,-157.772 1326.11,-137.679"/>
<polygon fill="midnightblue" stroke="midnightblue" points="1217.39,-223.22 1211.92,-232.295 1221.85,-228.61 1217.39,-223.22"/>
</g>
<!-- Node29 -->
<g id="node77" class="node"><title>Node29</title>
<a xlink:href="light_8hpp.html" target="_top" xlink:title="include/light.hpp">
<polygon fill="white" stroke="black" points="1064.5,-116.5 1064.5,-137.5 1151.5,-137.5 1151.5,-116.5 1064.5,-116.5"/>
<text text-anchor="middle" x="1108" y="-124.5" font-family="Helvetica,sans-Serif" font-size="10.00">include/light.hpp</text>
</a>
</g>
<!-- Node1&#45;&gt;Node29 -->
<g id="edge96" class="edge"><title>Node1&#45;&gt;Node29</title>
<path fill="none" stroke="midnightblue" d="M1184.43,-224.424C1165.17,-199.872 1131.87,-157.427 1116.38,-137.679"/>
<polygon fill="midnightblue" stroke="midnightblue" points="1181.68,-226.587 1190.6,-232.295 1187.18,-222.267 1181.68,-226.587"/>
</g>
<!-- Node4 -->
<g id="node7" class="node"><title>Node4</title>
<a xlink:href="cube_8hpp.html" target="_top" xlink:title="include/cube.hpp">
<polygon fill="white" stroke="black" points="1185,-116.5 1185,-137.5 1275,-137.5 1275,-116.5 1185,-116.5"/>
<text text-anchor="middle" x="1230" y="-124.5" font-family="Helvetica,sans-Serif" font-size="10.00">include/cube.hpp</text>
</a>
</g>
<!-- Node3&#45;&gt;Node4 -->
<g id="edge6" class="edge"><title>Node3&#45;&gt;Node4</title>
<path fill="none" stroke="midnightblue" d="M754.396,-179.648C845.471,-171.927 1015.59,-156.537 1160,-138 1168.05,-136.966 1176.61,-135.734 1184.87,-134.475"/>
<polygon fill="midnightblue" stroke="midnightblue" points="753.894,-176.178 744.224,-180.506 754.483,-183.153 753.894,-176.178"/>
</g>
<!-- Node7 -->
<g id="node14" class="node"><title>Node7</title>
<a xlink:href="geometry_8cpp.html" target="_top" xlink:title="src/geometry.cpp">
<polygon fill="white" stroke="black" points="1377,-0.5 1377,-21.5 1469,-21.5 1469,-0.5 1377,-0.5"/>
<text text-anchor="middle" x="1423" y="-8.5" font-family="Helvetica,sans-Serif" font-size="10.00">src/geometry.cpp</text>
</a>
</g>
<!-- Node3&#45;&gt;Node7 -->
<g id="edge46" class="edge"><title>Node3&#45;&gt;Node7</title>
<path fill="none" stroke="midnightblue" d="M754.52,-182.857C918.062,-177.192 1335.33,-160.687 1394,-138 1432.65,-123.055 1448.99,-117.318 1467,-80 1477.56,-58.1207 1454.38,-34.6842 1437.82,-21.533"/>
<polygon fill="midnightblue" stroke="midnightblue" points="753.995,-179.373 744.121,-183.214 754.236,-186.369 753.995,-179.373"/>
</g>
<!-- Node14 -->
<g id="node28" class="node"><title>Node14</title>
<a xlink:href="sphere_8hpp.html" target="_top" xlink:title="include/sphere.hpp">
<polygon fill="white" stroke="black" points="696,-116.5 696,-137.5 794,-137.5 794,-116.5 696,-116.5"/>
<text text-anchor="middle" x="745" y="-124.5" font-family="Helvetica,sans-Serif" font-size="10.00">include/sphere.hpp</text>
</a>
</g>
<!-- Node3&#45;&gt;Node14 -->
<g id="edge28" class="edge"><title>Node3&#45;&gt;Node14</title>
<path fill="none" stroke="midnightblue" d="M706.265,-167.118C715.612,-157.438 726.839,-145.81 734.794,-137.571"/>
<polygon fill="midnightblue" stroke="midnightblue" points="703.699,-164.737 699.271,-174.362 708.735,-169.599 703.699,-164.737"/>
</g>
<!-- Node17 -->
<g id="node36" class="node"><title>Node17</title>
<a xlink:href="cylinder_8hpp.html" target="_top" xlink:title="include/cylinder.hpp">
<polygon fill="white" stroke="black" points="125.5,-58.5 125.5,-79.5 228.5,-79.5 228.5,-58.5 125.5,-58.5"/>
<text text-anchor="middle" x="177" y="-66.5" font-family="Helvetica,sans-Serif" font-size="10.00">include/cylinder.hpp</text>
</a>
</g>
<!-- Node3&#45;&gt;Node17 -->
<g id="edge38" class="edge"><title>Node3&#45;&gt;Node17</title>
<path fill="none" stroke="midnightblue" d="M623.611,-173.702C573.902,-164.824 503.919,-151.705 443,-138 361.08,-119.57 266.073,-93.8678 214.694,-79.6039"/>
<polygon fill="midnightblue" stroke="midnightblue" points="623.128,-177.171 633.586,-175.475 624.353,-170.279 623.128,-177.171"/>
</g>
<!-- Node19 -->
<g id="node43" class="node"><title>Node19</title>
<a xlink:href="group_8hpp.html" target="_top" xlink:title="include/group.hpp">
<polygon fill="white" stroke="black" points="585.5,-116.5 585.5,-137.5 678.5,-137.5 678.5,-116.5 585.5,-116.5"/>
<text text-anchor="middle" x="632" y="-124.5" font-family="Helvetica,sans-Serif" font-size="10.00">include/group.hpp</text>
</a>
</g>
<!-- Node3&#45;&gt;Node19 -->
<g id="edge48" class="edge"><title>Node3&#45;&gt;Node19</title>
<path fill="none" stroke="midnightblue" d="M671.426,-167.118C661.913,-157.438 650.486,-145.81 642.388,-137.571"/>
<polygon fill="midnightblue" stroke="midnightblue" points="669.04,-169.683 678.545,-174.362 674.032,-164.776 669.04,-169.683"/>
</g>
<!-- Node21 -->
<g id="node50" class="node"><title>Node21</title>
<a xlink:href="line_8hpp.html" target="_top" xlink:title="include/line.hpp">
<polygon fill="white" stroke="black" points="246,-58.5 246,-79.5 330,-79.5 330,-58.5 246,-58.5"/>
<text text-anchor="middle" x="288" y="-66.5" font-family="Helvetica,sans-Serif" font-size="10.00">include/line.hpp</text>
</a>
</g>
<!-- Node3&#45;&gt;Node21 -->
<g id="edge58" class="edge"><title>Node3&#45;&gt;Node21</title>
<path fill="none" stroke="midnightblue" d="M638.546,-171.818C603.75,-162.617 556.473,-149.901 515,-138 446.11,-118.231 365.999,-93.4592 321.746,-79.6181"/>
<polygon fill="midnightblue" stroke="midnightblue" points="637.906,-175.269 648.468,-174.436 639.692,-168.5 637.906,-175.269"/>
</g>
<!-- Node23 -->
<g id="node56" class="node"><title>Node23</title>
<a xlink:href="pyramide_8hpp.html" target="_top" xlink:title="include/pyramide.hpp">
<polygon fill="white" stroke="black" points="347.5,-58.5 347.5,-79.5 456.5,-79.5 456.5,-58.5 347.5,-58.5"/>
<text text-anchor="middle" x="402" y="-66.5" font-family="Helvetica,sans-Serif" font-size="10.00">include/pyramide.hpp</text>
</a>
</g>
<!-- Node3&#45;&gt;Node23 -->
<g id="edge66" class="edge"><title>Node3&#45;&gt;Node23</title>
<path fill="none" stroke="midnightblue" d="M653.19,-170.526C594.593,-146.843 479.6,-100.365 428.065,-79.5352"/>
<polygon fill="midnightblue" stroke="midnightblue" points="652.187,-173.896 662.77,-174.398 654.81,-167.406 652.187,-173.896"/>
</g>
<!-- Node25 -->
<g id="node62" class="node"><title>Node25</title>
<a xlink:href="rectangle_8hpp.html" target="_top" xlink:title="include/rectangle.hpp">
<polygon fill="white" stroke="black" points="-0.5,-58.5 -0.5,-79.5 108.5,-79.5 108.5,-58.5 -0.5,-58.5"/>
<text text-anchor="middle" x="54" y="-66.5" font-family="Helvetica,sans-Serif" font-size="10.00">include/rectangle.hpp</text>
</a>
</g>
<!-- Node3&#45;&gt;Node25 -->
<g id="edge74" class="edge"><title>Node3&#45;&gt;Node25</title>
<path fill="none" stroke="midnightblue" d="M623.543,-177.671C555.247,-169.61 445.195,-155.454 351,-138 258.352,-120.832 150.955,-94.1798 94.111,-79.5321"/>
<polygon fill="midnightblue" stroke="midnightblue" points="623.383,-181.176 633.723,-178.864 624.198,-174.224 623.383,-181.176"/>
</g>
<!-- Node27 -->
<g id="node68" class="node"><title>Node27</title>
<a xlink:href="trigger_8hpp.html" target="_top" xlink:title="include/trigger.hpp">
<polygon fill="white" stroke="black" points="818,-58.5 818,-79.5 914,-79.5 914,-58.5 818,-58.5"/>
<text text-anchor="middle" x="866" y="-66.5" font-family="Helvetica,sans-Serif" font-size="10.00">include/trigger.hpp</text>
</a>
</g>
<!-- Node3&#45;&gt;Node27 -->
<g id="edge82" class="edge"><title>Node3&#45;&gt;Node27</title>
<path fill="none" stroke="midnightblue" d="M735.386,-171.113C757.067,-163.351 782.547,-152.323 803,-138 826.651,-121.437 847.87,-94.5482 858.605,-79.7005"/>
<polygon fill="midnightblue" stroke="midnightblue" points="734.034,-167.877 725.724,-174.45 736.319,-174.494 734.034,-167.877"/>
</g>
<!-- Node5 -->
<g id="node9" class="node"><title>Node5</title>
<a xlink:href="viewport_8hpp.html" target="_top" xlink:title="include/viewport.hpp">
<polygon fill="white" stroke="black" points="1352,-58.5 1352,-79.5 1458,-79.5 1458,-58.5 1352,-58.5"/>
<text text-anchor="middle" x="1405" y="-66.5" font-family="Helvetica,sans-Serif" font-size="10.00">include/viewport.hpp</text>
</a>
</g>
<!-- Node4&#45;&gt;Node5 -->
<g id="edge8" class="edge"><title>Node4&#45;&gt;Node5</title>
<path fill="none" stroke="midnightblue" d="M1271.4,-113.279C1302.58,-102.944 1344.7,-88.9849 1373.25,-79.5231"/>
<polygon fill="midnightblue" stroke="midnightblue" points="1270.08,-110.028 1261.69,-116.497 1272.28,-116.673 1270.08,-110.028"/>
</g>
<!-- Node11 -->
<g id="node22" class="node"><title>Node11</title>
<a xlink:href="cube_8cpp.html" target="_top" xlink:title="src/cube.cpp">
<polygon fill="white" stroke="black" points="1223.5,-58.5 1223.5,-79.5 1296.5,-79.5 1296.5,-58.5 1223.5,-58.5"/>
<text text-anchor="middle" x="1260" y="-66.5" font-family="Helvetica,sans-Serif" font-size="10.00">src/cube.cpp</text>
</a>
</g>
<!-- Node4&#45;&gt;Node11 -->
<g id="edge22" class="edge"><title>Node4&#45;&gt;Node11</title>
<path fill="none" stroke="midnightblue" d="M1240.15,-107.373C1244.96,-98.0682 1250.52,-87.3204 1254.53,-79.5707"/>
<polygon fill="midnightblue" stroke="midnightblue" points="1236.99,-105.872 1235.5,-116.362 1243.21,-109.088 1236.99,-105.872"/>
</g>
<!-- Node12 -->
<g id="node24" class="node"><title>Node12</title>
<a xlink:href="trigger_8cpp.html" target="_top" xlink:title="src/trigger.cpp">
<polygon fill="white" stroke="black" points="866.5,-0.5 866.5,-21.5 945.5,-21.5 945.5,-0.5 866.5,-0.5"/>
<text text-anchor="middle" x="906" y="-8.5" font-family="Helvetica,sans-Serif" font-size="10.00">src/trigger.cpp</text>
</a>
</g>
<!-- Node4&#45;&gt;Node12 -->
<g id="edge24" class="edge"><title>Node4&#45;&gt;Node12</title>
<path fill="none" stroke="midnightblue" d="M1265.54,-112.225C1292.81,-98.8389 1322.98,-78.1771 1305,-58 1258.72,-6.05327 1063.07,-30.3148 994,-22 978.255,-20.1047 960.934,-17.9538 945.855,-16.0599"/>
<polygon fill="midnightblue" stroke="midnightblue" points="1264.05,-109.06 1256.48,-116.474 1267.02,-115.397 1264.05,-109.06"/>
</g>
<!-- Node13 -->
<g id="node26" class="node"><title>Node13</title>
<a xlink:href="world_8cpp.html" target="_top" xlink:title="src/world.cpp">
<polygon fill="white" stroke="black" points="1055.5,-58.5 1055.5,-79.5 1130.5,-79.5 1130.5,-58.5 1055.5,-58.5"/>
<text text-anchor="middle" x="1093" y="-66.5" font-family="Helvetica,sans-Serif" font-size="10.00">src/world.cpp</text>
</a>
</g>
<!-- Node4&#45;&gt;Node13 -->
<g id="edge26" class="edge"><title>Node4&#45;&gt;Node13</title>
<path fill="none" stroke="midnightblue" d="M1195.7,-112.479C1171.58,-102.269 1139.86,-88.8386 1118.09,-79.6212"/>
<polygon fill="midnightblue" stroke="midnightblue" points="1194.62,-115.821 1205.19,-116.497 1197.35,-109.375 1194.62,-115.821"/>
</g>
<!-- Node5&#45;&gt;Node2 -->
<g id="edge10" class="edge"><title>Node5&#45;&gt;Node2</title>
<path fill="none" stroke="midnightblue" d="M1435.63,-54.0693C1456.47,-43.9121 1483.55,-30.7157 1502.21,-21.6212"/>
<polygon fill="midnightblue" stroke="midnightblue" points="1434.01,-50.9691 1426.55,-58.4966 1437.07,-57.2615 1434.01,-50.9691"/>
</g>
<!-- Node6 -->
<g id="node12" class="node"><title>Node6</title>
<a xlink:href="fileloader_8cpp.html" target="_top" xlink:title="src/fileloader.cpp">
<polygon fill="white" stroke="black" points="1268.5,-0.5 1268.5,-21.5 1359.5,-21.5 1359.5,-0.5 1268.5,-0.5"/>
<text text-anchor="middle" x="1314" y="-8.5" font-family="Helvetica,sans-Serif" font-size="10.00">src/fileloader.cpp</text>
</a>
</g>
<!-- Node5&#45;&gt;Node6 -->
<g id="edge12" class="edge"><title>Node5&#45;&gt;Node6</title>
<path fill="none" stroke="midnightblue" d="M1379.62,-52.8215C1363.94,-42.8312 1344.28,-30.2993 1330.58,-21.5707"/>
<polygon fill="midnightblue" stroke="midnightblue" points="1378,-55.9386 1388.31,-58.3619 1381.76,-50.0356 1378,-55.9386"/>
</g>
<!-- Node5&#45;&gt;Node7 -->
<g id="edge14" class="edge"><title>Node5&#45;&gt;Node7</title>
<path fill="none" stroke="midnightblue" d="M1411.27,-48.7838C1414.12,-39.617 1417.37,-29.1572 1419.72,-21.5707"/>
<polygon fill="midnightblue" stroke="midnightblue" points="1407.92,-47.7738 1408.3,-58.3619 1414.61,-49.8487 1407.92,-47.7738"/>
</g>
<!-- Node8 -->
<g id="node16" class="node"><title>Node8</title>
<a xlink:href="light_8cpp.html" target="_top" xlink:title="src/light.cpp">
<polygon fill="white" stroke="black" points="1171,-0.5 1171,-21.5 1241,-21.5 1241,-0.5 1171,-0.5"/>
<text text-anchor="middle" x="1206" y="-8.5" font-family="Helvetica,sans-Serif" font-size="10.00">src/light.cpp</text>
</a>
</g>
<!-- Node5&#45;&gt;Node8 -->
<g id="edge16" class="edge"><title>Node5&#45;&gt;Node8</title>
<path fill="none" stroke="midnightblue" d="M1359.2,-55.6522C1323.26,-45.1759 1273.96,-30.8087 1241.1,-21.2305"/>
<polygon fill="midnightblue" stroke="midnightblue" points="1358.38,-59.0586 1368.96,-58.4966 1360.34,-52.3382 1358.38,-59.0586"/>
</g>
<!-- Node9 -->
<g id="node18" class="node"><title>Node9</title>
<a xlink:href="spotlight_8cpp.html" target="_top" xlink:title="src/spotlight.cpp">
<polygon fill="white" stroke="black" points="1002.5,-0.5 1002.5,-21.5 1091.5,-21.5 1091.5,-0.5 1002.5,-0.5"/>
<text text-anchor="middle" x="1047" y="-8.5" font-family="Helvetica,sans-Serif" font-size="10.00">src/spotlight.cpp</text>
</a>
</g>
<!-- Node5&#45;&gt;Node9 -->
<g id="edge18" class="edge"><title>Node5&#45;&gt;Node9</title>
<path fill="none" stroke="midnightblue" d="M1341.87,-58.63C1340.57,-58.418 1339.28,-58.2078 1338,-58 1250.87,-43.8113 1149.03,-27.404 1091.87,-18.2103"/>
<polygon fill="midnightblue" stroke="midnightblue" points="1341.54,-62.1228 1351.97,-60.2808 1342.67,-55.2144 1341.54,-62.1228"/>
</g>
<!-- Node10 -->
<g id="node20" class="node"><title>Node10</title>
<a xlink:href="viewport_8cpp.html" target="_top" xlink:title="src/viewport.cpp">
<polygon fill="white" stroke="black" points="609.5,-0.5 609.5,-21.5 698.5,-21.5 698.5,-0.5 609.5,-0.5"/>
<text text-anchor="middle" x="654" y="-8.5" font-family="Helvetica,sans-Serif" font-size="10.00">src/viewport.cpp</text>
</a>
</g>
<!-- Node5&#45;&gt;Node10 -->
<g id="edge20" class="edge"><title>Node5&#45;&gt;Node10</title>
<path fill="none" stroke="midnightblue" d="M1341.75,-61.6794C1329.56,-60.3717 1316.89,-59.0828 1305,-58 1077.33,-37.2669 804.184,-20.022 698.641,-13.6442"/>
<polygon fill="midnightblue" stroke="midnightblue" points="1341.52,-65.1754 1351.84,-62.7781 1342.28,-58.2165 1341.52,-65.1754"/>
</g>
<!-- Node14&#45;&gt;Node5 -->
<g id="edge30" class="edge"><title>Node14&#45;&gt;Node5</title>
<path fill="none" stroke="midnightblue" d="M804.227,-122.535C906.461,-114.714 1122.63,-97.6805 1305,-80 1320.21,-78.5253 1336.71,-76.7736 1351.83,-75.1066"/>
<polygon fill="midnightblue" stroke="midnightblue" points="803.807,-119.056 794.103,-123.308 804.34,-126.036 803.807,-119.056"/>
</g>
<!-- Node14&#45;&gt;Node13 -->
<g id="edge36" class="edge"><title>Node14&#45;&gt;Node13</title>
<path fill="none" stroke="midnightblue" d="M804.34,-119.2C865.417,-110.837 963.214,-96.51 1047,-80 1049.74,-79.4603 1052.56,-78.8698 1055.4,-78.2517"/>
<polygon fill="midnightblue" stroke="midnightblue" points="803.556,-115.775 794.119,-120.591 804.499,-122.711 803.556,-115.775"/>
</g>
<!-- Node15 -->
<g id="node31" class="node"><title>Node15</title>
<a xlink:href="mainwindow_8cpp.html" target="_top" xlink:title="src/mainwindow.cpp">
<polygon fill="white" stroke="black" points="458,-0.5 458,-21.5 564,-21.5 564,-0.5 458,-0.5"/>
<text text-anchor="middle" x="511" y="-8.5" font-family="Helvetica,sans-Serif" font-size="10.00">src/mainwindow.cpp</text>
</a>
</g>
<!-- Node14&#45;&gt;Node15 -->
<g id="edge32" class="edge"><title>Node14&#45;&gt;Node15</title>
<path fill="none" stroke="midnightblue" d="M714.38,-111.821C666.171,-87.9222 573.787,-42.1251 532.205,-21.5117"/>
<polygon fill="midnightblue" stroke="midnightblue" points="712.891,-114.989 723.405,-116.295 716,-108.718 712.891,-114.989"/>
</g>
<!-- Node16 -->
<g id="node33" class="node"><title>Node16</title>
<a xlink:href="sphere_8cpp.html" target="_top" xlink:title="src/sphere.cpp">
<polygon fill="white" stroke="black" points="681.5,-58.5 681.5,-79.5 762.5,-79.5 762.5,-58.5 681.5,-58.5"/>
<text text-anchor="middle" x="722" y="-66.5" font-family="Helvetica,sans-Serif" font-size="10.00">src/sphere.cpp</text>
</a>
</g>
<!-- Node14&#45;&gt;Node16 -->
<g id="edge34" class="edge"><title>Node14&#45;&gt;Node16</title>
<path fill="none" stroke="midnightblue" d="M736.983,-106.784C733.348,-97.617 729.2,-87.1572 726.192,-79.5707"/>
<polygon fill="midnightblue" stroke="midnightblue" points="733.842,-108.356 740.781,-116.362 740.349,-105.776 733.842,-108.356"/>
</g>
<!-- Node17&#45;&gt;Node10 -->
<g id="edge44" class="edge"><title>Node17&#45;&gt;Node10</title>
<path fill="none" stroke="midnightblue" d="M238.625,-57.8391C387.329,-36.5908 427.111,-39.718 573,-22 584.834,-20.5628 597.623,-18.8844 609.466,-17.2779"/>
<polygon fill="midnightblue" stroke="midnightblue" points="238.068,-54.383 228.67,-59.2744 239.067,-61.3114 238.068,-54.383"/>
</g>
<!-- Node17&#45;&gt;Node15 -->
<g id="edge42" class="edge"><title>Node17&#45;&gt;Node15</title>
<path fill="none" stroke="midnightblue" d="M238.649,-57.7231C332.768,-41.1664 357.964,-37.805 449,-22 451.908,-21.4951 454.893,-20.9744 457.905,-20.4467"/>
<polygon fill="midnightblue" stroke="midnightblue" points="237.943,-54.2935 228.703,-59.4767 239.159,-61.1872 237.943,-54.2935"/>
</g>
<!-- Node18 -->
<g id="node38" class="node"><title>Node18</title>
<a xlink:href="cylinder_8cpp.html" target="_top" xlink:title="src/cylinder.cpp">
<polygon fill="white" stroke="black" points="134,-0.5 134,-21.5 220,-21.5 220,-0.5 134,-0.5"/>
<text text-anchor="middle" x="177" y="-8.5" font-family="Helvetica,sans-Serif" font-size="10.00">src/cylinder.cpp</text>
</a>
</g>
<!-- Node17&#45;&gt;Node18 -->
<g id="edge40" class="edge"><title>Node17&#45;&gt;Node18</title>
<path fill="none" stroke="midnightblue" d="M177,-48.1906C177,-39.1684 177,-28.9941 177,-21.5707"/>
<polygon fill="midnightblue" stroke="midnightblue" points="173.5,-48.3619 177,-58.3619 180.5,-48.3619 173.5,-48.3619"/>
</g>
<!-- Node19&#45;&gt;Node10 -->
<g id="edge54" class="edge"><title>Node19&#45;&gt;Node10</title>
<path fill="none" stroke="midnightblue" d="M635.896,-106.458C640.598,-81.6635 648.327,-40.9098 651.975,-21.6792"/>
<polygon fill="midnightblue" stroke="midnightblue" points="632.455,-105.818 634.03,-116.295 639.332,-107.122 632.455,-105.818"/>
</g>
<!-- Node19&#45;&gt;Node13 -->
<g id="edge56" class="edge"><title>Node19&#45;&gt;Node13</title>
<path fill="none" stroke="midnightblue" d="M688.889,-115.83C847.816,-92.7837 891.696,-106.211 1047,-80 1049.75,-79.5354 1052.59,-79.0002 1055.43,-78.4213"/>
<polygon fill="midnightblue" stroke="midnightblue" points="688.135,-112.403 678.753,-117.326 689.157,-119.328 688.135,-112.403"/>
</g>
<!-- Node19&#45;&gt;Node15 -->
<g id="edge52" class="edge"><title>Node19&#45;&gt;Node15</title>
<path fill="none" stroke="midnightblue" d="M577.008,-113.711C546.136,-105.017 512.034,-92.9071 503,-80 490.829,-62.6119 499.174,-36.5191 505.579,-21.9092"/>
<polygon fill="midnightblue" stroke="midnightblue" points="576.312,-117.149 586.881,-116.41 578.158,-110.397 576.312,-117.149"/>
</g>
<!-- Node20 -->
<g id="node45" class="node"><title>Node20</title>
<a xlink:href="group_8cpp.html" target="_top" xlink:title="src/group.cpp">
<polygon fill="white" stroke="black" points="512,-58.5 512,-79.5 588,-79.5 588,-58.5 512,-58.5"/>
<text text-anchor="middle" x="550" y="-66.5" font-family="Helvetica,sans-Serif" font-size="10.00">src/group.cpp</text>
</a>
</g>
<!-- Node19&#45;&gt;Node20 -->
<g id="edge50" class="edge"><title>Node19&#45;&gt;Node20</title>
<path fill="none" stroke="midnightblue" d="M608.73,-110.541C594.672,-100.597 577.17,-88.2177 564.945,-79.5707"/>
<polygon fill="midnightblue" stroke="midnightblue" points="606.775,-113.445 616.96,-116.362 610.817,-107.73 606.775,-113.445"/>
</g>
<!-- Node21&#45;&gt;Node10 -->
<g id="edge64" class="edge"><title>Node21&#45;&gt;Node10</title>
<path fill="none" stroke="midnightblue" d="M340.4,-57.8524C405.121,-46.5311 539.178,-27.2588 609.363,-17.2981"/>
<polygon fill="midnightblue" stroke="midnightblue" points="339.487,-54.4603 330.259,-59.6663 340.719,-61.3509 339.487,-54.4603"/>
</g>
<!-- Node21&#45;&gt;Node15 -->
<g id="edge62" class="edge"><title>Node21&#45;&gt;Node15</title>
<path fill="none" stroke="midnightblue" d="M338.196,-55.9447C378.161,-45.5501 433.374,-31.1897 470.541,-21.5231"/>
<polygon fill="midnightblue" stroke="midnightblue" points="337.181,-52.5921 328.384,-58.4966 338.943,-59.3667 337.181,-52.5921"/>
</g>
<!-- Node22 -->
<g id="node52" class="node"><title>Node22</title>
<a xlink:href="line_8cpp.html" target="_top" xlink:title="src/line.cpp">
<polygon fill="white" stroke="black" points="254.5,-0.5 254.5,-21.5 321.5,-21.5 321.5,-0.5 254.5,-0.5"/>
<text text-anchor="middle" x="288" y="-8.5" font-family="Helvetica,sans-Serif" font-size="10.00">src/line.cpp</text>
</a>
</g>
<!-- Node21&#45;&gt;Node22 -->
<g id="edge60" class="edge"><title>Node21&#45;&gt;Node22</title>
<path fill="none" stroke="midnightblue" d="M288,-48.1906C288,-39.1684 288,-28.9941 288,-21.5707"/>
<polygon fill="midnightblue" stroke="midnightblue" points="284.5,-48.3619 288,-58.3619 291.5,-48.3619 284.5,-48.3619"/>
</g>
<!-- Node23&#45;&gt;Node10 -->
<g id="edge72" class="edge"><title>Node23&#45;&gt;Node10</title>
<path fill="none" stroke="midnightblue" d="M457.643,-56.1933C503.19,-45.7103 566.79,-31.0722 609.128,-21.3277"/>
<polygon fill="midnightblue" stroke="midnightblue" points="456.595,-52.8428 447.635,-58.4966 458.166,-59.6644 456.595,-52.8428"/>
</g>
<!-- Node23&#45;&gt;Node15 -->
<g id="edge68" class="edge"><title>Node23&#45;&gt;Node15</title>
<path fill="none" stroke="midnightblue" d="M430.577,-53.794C449.594,-43.6746 474.102,-30.6338 491.039,-21.6212"/>
<polygon fill="midnightblue" stroke="midnightblue" points="428.923,-50.7093 421.739,-58.4966 432.211,-56.8889 428.923,-50.7093"/>
</g>
<!-- Node24 -->
<g id="node59" class="node"><title>Node24</title>
<a xlink:href="pyramide_8cpp.html" target="_top" xlink:title="src/pyramide.cpp">
<polygon fill="white" stroke="black" points="348,-0.5 348,-21.5 440,-21.5 440,-0.5 348,-0.5"/>
<text text-anchor="middle" x="394" y="-8.5" font-family="Helvetica,sans-Serif" font-size="10.00">src/pyramide.cpp</text>
</a>
</g>
<!-- Node23&#45;&gt;Node24 -->
<g id="edge70" class="edge"><title>Node23&#45;&gt;Node24</title>
<path fill="none" stroke="midnightblue" d="M399.13,-48.1906C397.885,-39.1684 396.482,-28.9941 395.458,-21.5707"/>
<polygon fill="midnightblue" stroke="midnightblue" points="395.699,-48.934 400.533,-58.3619 402.633,-47.9774 395.699,-48.934"/>
</g>
<!-- Node25&#45;&gt;Node10 -->
<g id="edge80" class="edge"><title>Node25&#45;&gt;Node10</title>
<path fill="none" stroke="midnightblue" d="M118.623,-57.8857C320.41,-32.8405 374.12,-43.3377 573,-22 584.853,-20.7283 597.648,-19.1068 609.491,-17.5021"/>
<polygon fill="midnightblue" stroke="midnightblue" points="118.075,-54.4269 108.588,-59.1451 118.946,-61.3725 118.075,-54.4269"/>
</g>
<!-- Node25&#45;&gt;Node15 -->
<g id="edge76" class="edge"><title>Node25&#45;&gt;Node15</title>
<path fill="none" stroke="midnightblue" d="M118.895,-57.801C265.726,-37.4697 305.369,-42.5047 449,-22 451.922,-21.5829 454.917,-21.1313 457.938,-20.6573"/>
<polygon fill="midnightblue" stroke="midnightblue" points="118.019,-54.3895 108.601,-59.2433 118.99,-61.3218 118.019,-54.3895"/>
</g>
<!-- Node26 -->
<g id="node65" class="node"><title>Node26</title>
<a xlink:href="rectangle_8cpp.html" target="_top" xlink:title="src/rectangle.cpp">
<polygon fill="white" stroke="black" points="8,-0.5 8,-21.5 100,-21.5 100,-0.5 8,-0.5"/>
<text text-anchor="middle" x="54" y="-8.5" font-family="Helvetica,sans-Serif" font-size="10.00">src/rectangle.cpp</text>
</a>
</g>
<!-- Node25&#45;&gt;Node26 -->
<g id="edge78" class="edge"><title>Node25&#45;&gt;Node26</title>
<path fill="none" stroke="midnightblue" d="M54,-48.1906C54,-39.1684 54,-28.9941 54,-21.5707"/>
<polygon fill="midnightblue" stroke="midnightblue" points="50.5001,-48.3619 54,-58.3619 57.5001,-48.3619 50.5001,-48.3619"/>
</g>
<!-- Node27&#45;&gt;Node10 -->
<g id="edge88" class="edge"><title>Node27&#45;&gt;Node10</title>
<path fill="none" stroke="midnightblue" d="M817.797,-55.8123C779.842,-45.4285 727.647,-31.1487 692.464,-21.5231"/>
<polygon fill="midnightblue" stroke="midnightblue" points="817.039,-59.2336 827.608,-58.4966 818.886,-52.4818 817.039,-59.2336"/>
</g>
<!-- Node27&#45;&gt;Node12 -->
<g id="edge86" class="edge"><title>Node27&#45;&gt;Node12</title>
<path fill="none" stroke="midnightblue" d="M879.132,-49.9591C885.64,-40.522 893.253,-29.4835 898.71,-21.5707"/>
<polygon fill="midnightblue" stroke="midnightblue" points="876.133,-48.1427 873.337,-58.3619 881.895,-52.1168 876.133,-48.1427"/>
</g>
<!-- Node27&#45;&gt;Node15 -->
<g id="edge84" class="edge"><title>Node27&#45;&gt;Node15</title>
<path fill="none" stroke="midnightblue" d="M807.859,-58.6551C806.561,-58.4337 805.273,-58.2151 804,-58 720.309,-43.8644 622.988,-28.4572 564.242,-19.2695"/>
<polygon fill="midnightblue" stroke="midnightblue" points="807.501,-62.1448 817.95,-60.3941 808.69,-55.2465 807.501,-62.1448"/>
</g>
<!-- Node28&#45;&gt;Node5 -->
<g id="edge92" class="edge"><title>Node28&#45;&gt;Node5</title>
<path fill="none" stroke="midnightblue" d="M1358.7,-109.691C1369.84,-99.8996 1383.41,-87.973 1392.97,-79.5707"/>
<polygon fill="midnightblue" stroke="midnightblue" points="1356.31,-107.132 1351.11,-116.362 1360.93,-112.39 1356.31,-107.132"/>
</g>
<!-- Node28&#45;&gt;Node13 -->
<g id="edge94" class="edge"><title>Node28&#45;&gt;Node13</title>
<path fill="none" stroke="midnightblue" d="M1284.51,-114.152C1237.83,-103.148 1171.84,-87.5873 1130.77,-77.9052"/>
<polygon fill="midnightblue" stroke="midnightblue" points="1283.91,-117.608 1294.45,-116.497 1285.52,-110.795 1283.91,-117.608"/>
</g>
<!-- Node29&#45;&gt;Node8 -->
<g id="edge98" class="edge"><title>Node29&#45;&gt;Node8</title>
<path fill="none" stroke="midnightblue" d="M1135.57,-111.004C1147.85,-102.881 1161.81,-92.1571 1172,-80 1187.1,-61.9869 1197.51,-36.1285 1202.54,-21.7262"/>
<polygon fill="midnightblue" stroke="midnightblue" points="1133.57,-108.129 1127,-116.443 1137.32,-114.039 1133.57,-108.129"/>
</g>
<!-- Node29&#45;&gt;Node10 -->
<g id="edge110" class="edge"><title>Node29&#45;&gt;Node10</title>
<path fill="none" stroke="midnightblue" d="M1126.74,-108.356C1139.58,-93.345 1152.11,-72.4397 1139,-58 1124.29,-41.7927 816.263,-21.0659 698.887,-13.7252"/>
<polygon fill="midnightblue" stroke="midnightblue" points="1123.91,-106.269 1119.74,-116.01 1129.07,-110.994 1123.91,-106.269"/>
</g>
<!-- Node29&#45;&gt;Node13 -->
<g id="edge112" class="edge"><title>Node29&#45;&gt;Node13</title>
<path fill="none" stroke="midnightblue" d="M1102.7,-106.488C1100.34,-97.3924 1097.67,-87.0756 1095.73,-79.5707"/>
<polygon fill="midnightblue" stroke="midnightblue" points="1099.36,-107.557 1105.25,-116.362 1106.13,-105.804 1099.36,-107.557"/>
</g>
<!-- Node29&#45;&gt;Node15 -->
<g id="edge100" class="edge"><title>Node29&#45;&gt;Node15</title>
<path fill="none" stroke="midnightblue" d="M1054.28,-124.501C993.281,-120.318 891.527,-109.226 809,-80 790.604,-73.4854 789.32,-64.725 771,-58 733.86,-44.3663 628.72,-27.7661 564.085,-18.3875"/>
<polygon fill="midnightblue" stroke="midnightblue" points="1054.24,-128.005 1064.44,-125.159 1054.69,-121.02 1054.24,-128.005"/>
</g>
<!-- Node30 -->
<g id="node81" class="node"><title>Node30</title>
<a xlink:href="spotlight_8hpp.html" target="_top" xlink:title="include/spotlight.hpp">
<polygon fill="white" stroke="black" points="932,-58.5 932,-79.5 1038,-79.5 1038,-58.5 932,-58.5"/>
<text text-anchor="middle" x="985" y="-66.5" font-family="Helvetica,sans-Serif" font-size="10.00">include/spotlight.hpp</text>
</a>
</g>
<!-- Node29&#45;&gt;Node30 -->
<g id="edge102" class="edge"><title>Node29&#45;&gt;Node30</title>
<path fill="none" stroke="midnightblue" d="M1076.63,-112.206C1055.05,-102.031 1026.9,-88.7567 1007.52,-79.6212"/>
<polygon fill="midnightblue" stroke="midnightblue" points="1075.19,-115.397 1085.73,-116.497 1078.17,-109.066 1075.19,-115.397"/>
</g>
<!-- Node30&#45;&gt;Node9 -->
<g id="edge106" class="edge"><title>Node30&#45;&gt;Node9</title>
<path fill="none" stroke="midnightblue" d="M1003.81,-51.405C1014.22,-41.6683 1026.81,-29.8914 1035.7,-21.5707"/>
<polygon fill="midnightblue" stroke="midnightblue" points="1001.28,-48.9743 996.372,-58.3619 1006.07,-54.0863 1001.28,-48.9743"/>
</g>
<!-- Node30&#45;&gt;Node10 -->
<g id="edge108" class="edge"><title>Node30&#45;&gt;Node10</title>
<path fill="none" stroke="midnightblue" d="M921.853,-57.8011C837.144,-42.8953 750.102,-27.7202 698.747,-18.7814"/>
<polygon fill="midnightblue" stroke="midnightblue" points="921.446,-61.2832 931.902,-59.5699 922.66,-54.3892 921.446,-61.2832"/>
</g>
<!-- Node30&#45;&gt;Node15 -->
<g id="edge104" class="edge"><title>Node30&#45;&gt;Node15</title>
<path fill="none" stroke="midnightblue" d="M921.902,-57.9105C778.786,-37.4617 740.814,-38.3595 601,-22 589.118,-20.6097 576.358,-19.0754 564.29,-17.6051"/>
<polygon fill="midnightblue" stroke="midnightblue" points="921.54,-61.3943 931.936,-59.3543 922.537,-54.4657 921.54,-61.3943"/>
</g>
</g>
</svg>
