<?xml version="1.0" encoding="UTF-8" standalone="no"?>
<!DOCTYPE svg PUBLIC "-//W3C//DTD SVG 1.1//EN"
 "http://www.w3.org/Graphics/SVG/1.1/DTD/svg11.dtd">
<!-- Generated by graphviz version 2.26.3 (20100126.1600)
 -->
<!-- Title: include/actor.hpp Pages: 1 -->
<svg width="378pt" height="88pt"
 viewBox="0.00 0.00 378.00 88.00" xmlns="http://www.w3.org/2000/svg" xmlns:xlink="http://www.w3.org/1999/xlink">
<g id="graph1" class="graph" transform="scale(1 1) rotate(0) translate(4 84)">
<title>include/actor.hpp</title>
<polygon fill="white" stroke="white" points="-4,5 -4,-84 375,-84 375,5 -4,5"/>
<!-- Node1 -->
<g id="node1" class="node"><title>Node1</title>
<polygon fill="#bfbfbf" stroke="black" points="122.5,-58.5 122.5,-79.5 213.5,-79.5 213.5,-58.5 122.5,-58.5"/>
<text text-anchor="middle" x="168" y="-66.5" font-family="Helvetica,sans-Serif" font-size="10.00">include/actor.hpp</text>
</g>
<!-- Node2 -->
<g id="node3" class="node"><title>Node2</title>
<a xlink:href="globals_8hpp.html" target="_top" xlink:title="Definitions globales. ">
<polygon fill="white" stroke="black" points="0,-0.5 0,-21.5 66,-21.5 66,-0.5 0,-0.5"/>
<text text-anchor="middle" x="33" y="-8.5" font-family="Helvetica,sans-Serif" font-size="10.00">globals.hpp</text>
</a>
</g>
<!-- Node1&#45;&gt;Node2 -->
<g id="edge2" class="edge"><title>Node1&#45;&gt;Node2</title>
<path fill="none" stroke="midnightblue" d="M143.553,-58.4966C122.182,-49.3154 90.931,-35.8889 67.1028,-25.6516"/>
<polygon fill="midnightblue" stroke="midnightblue" points="68.2914,-22.3529 57.7218,-21.6212 65.5281,-28.7845 68.2914,-22.3529"/>
</g>
<!-- Node3 -->
<g id="node5" class="node"><title>Node3</title>
<polygon fill="white" stroke="#bfbfbf" points="83.5,-0.5 83.5,-21.5 150.5,-21.5 150.5,-0.5 83.5,-0.5"/>
<text text-anchor="middle" x="117" y="-8.5" font-family="Helvetica,sans-Serif" font-size="10.00">QMatrix4x4</text>
</g>
<!-- Node1&#45;&gt;Node3 -->
<g id="edge4" class="edge"><title>Node1&#45;&gt;Node3</title>
<path fill="none" stroke="midnightblue" d="M158.646,-58.3619C151.457,-50.1861 141.359,-38.7025 132.907,-29.0907"/>
<polygon fill="midnightblue" stroke="midnightblue" points="135.527,-26.7692 126.295,-21.5707 130.27,-31.3916 135.527,-26.7692"/>
</g>
<!-- Node4 -->
<g id="node7" class="node"><title>Node4</title>
<polygon fill="white" stroke="#bfbfbf" points="167.5,-0.5 167.5,-21.5 270.5,-21.5 270.5,-0.5 167.5,-0.5"/>
<text text-anchor="middle" x="219" y="-8.5" font-family="Helvetica,sans-Serif" font-size="10.00">QOpenGLFunctions</text>
</g>
<!-- Node1&#45;&gt;Node4 -->
<g id="edge6" class="edge"><title>Node1&#45;&gt;Node4</title>
<path fill="none" stroke="midnightblue" d="M177.354,-58.3619C184.543,-50.1861 194.641,-38.7025 203.093,-29.0907"/>
<polygon fill="midnightblue" stroke="midnightblue" points="205.73,-31.3916 209.705,-21.5707 200.473,-26.7692 205.73,-31.3916"/>
</g>
<!-- Node5 -->
<g id="node9" class="node"><title>Node5</title>
<polygon fill="white" stroke="#bfbfbf" points="287.5,-0.5 287.5,-21.5 370.5,-21.5 370.5,-0.5 287.5,-0.5"/>
<text text-anchor="middle" x="329" y="-8.5" font-family="Helvetica,sans-Serif" font-size="10.00">QMetaProperty</text>
</g>
<!-- Node1&#45;&gt;Node5 -->
<g id="edge8" class="edge"><title>Node1&#45;&gt;Node5</title>
<path fill="none" stroke="midnightblue" d="M197.156,-58.4966C223.176,-49.1229 261.479,-35.3242 290.104,-25.0122"/>
<polygon fill="midnightblue" stroke="midnightblue" points="291.568,-28.2052 299.789,-21.5231 289.195,-21.6195 291.568,-28.2052"/>
</g>
</g>
</svg>
