<?xml version="1.0" encoding="UTF-8" standalone="no"?>
<!DOCTYPE svg PUBLIC "-//W3C//DTD SVG 1.1//EN"
 "http://www.w3.org/Graphics/SVG/1.1/DTD/svg11.dtd">
<!-- Generated by graphviz version 2.26.3 (20100126.1600)
 -->
<!-- Title: include/actorbuilder.hpp Pages: 1 -->
<svg width="234pt" height="88pt"
 viewBox="0.00 0.00 234.00 88.00" xmlns="http://www.w3.org/2000/svg" xmlns:xlink="http://www.w3.org/1999/xlink">
<g id="graph1" class="graph" transform="scale(1 1) rotate(0) translate(4 84)">
<title>include/actorbuilder.hpp</title>
<polygon fill="white" stroke="white" points="-4,5 -4,-84 231,-84 231,5 -4,5"/>
<!-- Node1 -->
<g id="node1" class="node"><title>Node1</title>
<polygon fill="#bfbfbf" stroke="black" points="52.5,-58.5 52.5,-79.5 171.5,-79.5 171.5,-58.5 52.5,-58.5"/>
<text text-anchor="middle" x="112" y="-66.5" font-family="Helvetica,sans-Serif" font-size="10.00">include/actorbuilder.hpp</text>
</g>
<!-- Node2 -->
<g id="node3" class="node"><title>Node2</title>
<a xlink:href="actorbuilder_8cpp.html" target="_top" xlink:title="src/actorbuilder.cpp">
<polygon fill="white" stroke="black" points="0,-0.5 0,-21.5 102,-21.5 102,-0.5 0,-0.5"/>
<text text-anchor="middle" x="51" y="-8.5" font-family="Helvetica,sans-Serif" font-size="10.00">src/actorbuilder.cpp</text>
</a>
</g>
<!-- Node1&#45;&gt;Node2 -->
<g id="edge2" class="edge"><title>Node1&#45;&gt;Node2</title>
<path fill="none" stroke="midnightblue" d="M93.4949,-51.405C83.2546,-41.6683 70.8685,-29.8914 62.1174,-21.5707"/>
<polygon fill="midnightblue" stroke="midnightblue" points="91.1529,-54.0077 100.812,-58.3619 95.9763,-48.9348 91.1529,-54.0077"/>
</g>
<!-- Node3 -->
<g id="node5" class="node"><title>Node3</title>
<a xlink:href="mainwindow_8cpp.html" target="_top" xlink:title="src/mainwindow.cpp">
<polygon fill="white" stroke="black" points="120,-0.5 120,-21.5 226,-21.5 226,-0.5 120,-0.5"/>
<text text-anchor="middle" x="173" y="-8.5" font-family="Helvetica,sans-Serif" font-size="10.00">src/mainwindow.cpp</text>
</a>
</g>
<!-- Node1&#45;&gt;Node3 -->
<g id="edge4" class="edge"><title>Node1&#45;&gt;Node3</title>
<path fill="none" stroke="midnightblue" d="M130.505,-51.405C140.745,-41.6683 153.131,-29.8914 161.883,-21.5707"/>
<polygon fill="midnightblue" stroke="midnightblue" points="128.024,-48.9348 123.188,-58.3619 132.847,-54.0077 128.024,-48.9348"/>
</g>
</g>
</svg>
