<?xml version="1.0" encoding="UTF-8" standalone="no"?>
<!DOCTYPE svg PUBLIC "-//W3C//DTD SVG 1.1//EN"
 "http://www.w3.org/Graphics/SVG/1.1/DTD/svg11.dtd">
<!-- Generated by graphviz version 2.26.3 (20100126.1600)
 -->
<!-- Title: include/actor.hpp Pages: 1 -->
<svg width="538pt" height="262pt"
 viewBox="0.00 0.00 538.00 262.00" xmlns="http://www.w3.org/2000/svg" xmlns:xlink="http://www.w3.org/1999/xlink">
<g id="graph1" class="graph" transform="scale(1 1) rotate(0) translate(4 258)">
<title>include/actor.hpp</title>
<polygon fill="white" stroke="white" points="-4,5 -4,-258 535,-258 535,5 -4,5"/>
<!-- Node1 -->
<g id="node1" class="node"><title>Node1</title>
<polygon fill="#bfbfbf" stroke="black" points="216.5,-232.5 216.5,-253.5 307.5,-253.5 307.5,-232.5 216.5,-232.5"/>
<text text-anchor="middle" x="262" y="-240.5" font-family="Helvetica,sans-Serif" font-size="10.00">include/actor.hpp</text>
</g>
<!-- Node2 -->
<g id="node3" class="node"><title>Node2</title>
<a xlink:href="actor_8cpp.html" target="_top" xlink:title="src/actor.cpp">
<polygon fill="white" stroke="black" points="170,-174.5 170,-195.5 244,-195.5 244,-174.5 170,-174.5"/>
<text text-anchor="middle" x="207" y="-182.5" font-family="Helvetica,sans-Serif" font-size="10.00">src/actor.cpp</text>
</a>
</g>
<!-- Node1&#45;&gt;Node2 -->
<g id="edge2" class="edge"><title>Node1&#45;&gt;Node2</title>
<path fill="none" stroke="midnightblue" d="M244.77,-224.83C235.645,-215.208 224.76,-203.728 217.024,-195.571"/>
<polygon fill="midnightblue" stroke="midnightblue" points="242.492,-227.514 251.912,-232.362 247.571,-222.697 242.492,-227.514"/>
</g>
<!-- Node3 -->
<g id="node5" class="node"><title>Node3</title>
<a xlink:href="geometry_8hpp.html" target="_top" xlink:title="include/geometry.hpp">
<polygon fill="white" stroke="black" points="262,-174.5 262,-195.5 372,-195.5 372,-174.5 262,-174.5"/>
<text text-anchor="middle" x="317" y="-182.5" font-family="Helvetica,sans-Serif" font-size="10.00">include/geometry.hpp</text>
</a>
</g>
<!-- Node1&#45;&gt;Node3 -->
<g id="edge4" class="edge"><title>Node1&#45;&gt;Node3</title>
<path fill="none" stroke="midnightblue" d="M279.23,-224.83C288.355,-215.208 299.24,-203.728 306.976,-195.571"/>
<polygon fill="midnightblue" stroke="midnightblue" points="276.429,-222.697 272.088,-232.362 281.508,-227.514 276.429,-222.697"/>
</g>
<!-- Node4 -->
<g id="node7" class="node"><title>Node4</title>
<a xlink:href="cube_8hpp.html" target="_top" xlink:title="include/cube.hpp">
<polygon fill="white" stroke="black" points="98,-116.5 98,-137.5 188,-137.5 188,-116.5 98,-116.5"/>
<text text-anchor="middle" x="143" y="-124.5" font-family="Helvetica,sans-Serif" font-size="10.00">include/cube.hpp</text>
</a>
</g>
<!-- Node3&#45;&gt;Node4 -->
<g id="edge6" class="edge"><title>Node3&#45;&gt;Node4</title>
<path fill="none" stroke="midnightblue" d="M275.836,-171.279C244.831,-160.944 202.955,-146.985 174.569,-137.523"/>
<polygon fill="midnightblue" stroke="midnightblue" points="274.896,-174.655 285.49,-174.497 277.11,-168.014 274.896,-174.655"/>
</g>
<!-- Node8 -->
<g id="node15" class="node"><title>Node8</title>
<a xlink:href="geometry_8cpp.html" target="_top" xlink:title="src/geometry.cpp">
<polygon fill="white" stroke="black" points="328,-116.5 328,-137.5 420,-137.5 420,-116.5 328,-116.5"/>
<text text-anchor="middle" x="374" y="-124.5" font-family="Helvetica,sans-Serif" font-size="10.00">src/geometry.cpp</text>
</a>
</g>
<!-- Node3&#45;&gt;Node8 -->
<g id="edge14" class="edge"><title>Node3&#45;&gt;Node8</title>
<path fill="none" stroke="midnightblue" d="M334.574,-167.118C344.087,-157.438 355.514,-145.81 363.612,-137.571"/>
<polygon fill="midnightblue" stroke="midnightblue" points="331.968,-164.776 327.455,-174.362 336.96,-169.683 331.968,-164.776"/>
</g>
<!-- Node9 -->
<g id="node17" class="node"><title>Node9</title>
<a xlink:href="group_8hpp.html" target="_top" xlink:title="include/group.hpp">
<polygon fill="white" stroke="black" points="437.5,-116.5 437.5,-137.5 530.5,-137.5 530.5,-116.5 437.5,-116.5"/>
<text text-anchor="middle" x="484" y="-124.5" font-family="Helvetica,sans-Serif" font-size="10.00">include/group.hpp</text>
</a>
</g>
<!-- Node3&#45;&gt;Node9 -->
<g id="edge16" class="edge"><title>Node3&#45;&gt;Node9</title>
<path fill="none" stroke="midnightblue" d="M356.895,-171.144C386.613,-160.823 426.575,-146.944 453.701,-137.523"/>
<polygon fill="midnightblue" stroke="midnightblue" points="355.541,-167.909 347.242,-174.497 357.837,-174.522 355.541,-167.909"/>
</g>
<!-- Node11 -->
<g id="node21" class="node"><title>Node11</title>
<a xlink:href="sphere_8hpp.html" target="_top" xlink:title="include/sphere.hpp">
<polygon fill="white" stroke="black" points="212,-116.5 212,-137.5 310,-137.5 310,-116.5 212,-116.5"/>
<text text-anchor="middle" x="261" y="-124.5" font-family="Helvetica,sans-Serif" font-size="10.00">include/sphere.hpp</text>
</a>
</g>
<!-- Node3&#45;&gt;Node11 -->
<g id="edge20" class="edge"><title>Node3&#45;&gt;Node11</title>
<path fill="none" stroke="midnightblue" d="M299.735,-167.118C290.388,-157.438 279.161,-145.81 271.206,-137.571"/>
<polygon fill="midnightblue" stroke="midnightblue" points="297.265,-169.599 306.729,-174.362 302.301,-164.737 297.265,-169.599"/>
</g>
<!-- Node5 -->
<g id="node9" class="node"><title>Node5</title>
<a xlink:href="cube_8cpp.html" target="_top" xlink:title="src/cube.cpp">
<polygon fill="white" stroke="black" points="-0.5,-58.5 -0.5,-79.5 72.5,-79.5 72.5,-58.5 -0.5,-58.5"/>
<text text-anchor="middle" x="36" y="-66.5" font-family="Helvetica,sans-Serif" font-size="10.00">src/cube.cpp</text>
</a>
</g>
<!-- Node4&#45;&gt;Node5 -->
<g id="edge8" class="edge"><title>Node4&#45;&gt;Node5</title>
<path fill="none" stroke="midnightblue" d="M114.437,-111.517C95.8073,-101.419 71.9801,-88.5032 55.501,-79.5707"/>
<polygon fill="midnightblue" stroke="midnightblue" points="112.915,-114.673 123.375,-116.362 116.251,-108.519 112.915,-114.673"/>
</g>
<!-- Node6 -->
<g id="node11" class="node"><title>Node6</title>
<a xlink:href="viewport_8hpp.html" target="_top" xlink:title="include/viewport.hpp">
<polygon fill="white" stroke="black" points="90,-58.5 90,-79.5 196,-79.5 196,-58.5 90,-58.5"/>
<text text-anchor="middle" x="143" y="-66.5" font-family="Helvetica,sans-Serif" font-size="10.00">include/viewport.hpp</text>
</a>
</g>
<!-- Node4&#45;&gt;Node6 -->
<g id="edge10" class="edge"><title>Node4&#45;&gt;Node6</title>
<path fill="none" stroke="midnightblue" d="M143,-106.191C143,-97.1684 143,-86.9941 143,-79.5707"/>
<polygon fill="midnightblue" stroke="midnightblue" points="139.5,-106.362 143,-116.362 146.5,-106.362 139.5,-106.362"/>
</g>
<!-- Node7 -->
<g id="node13" class="node"><title>Node7</title>
<a xlink:href="viewport_8cpp.html" target="_top" xlink:title="src/viewport.cpp">
<polygon fill="white" stroke="black" points="98.5,-0.5 98.5,-21.5 187.5,-21.5 187.5,-0.5 98.5,-0.5"/>
<text text-anchor="middle" x="143" y="-8.5" font-family="Helvetica,sans-Serif" font-size="10.00">src/viewport.cpp</text>
</a>
</g>
<!-- Node6&#45;&gt;Node7 -->
<g id="edge12" class="edge"><title>Node6&#45;&gt;Node7</title>
<path fill="none" stroke="midnightblue" d="M143,-48.1906C143,-39.1684 143,-28.9941 143,-21.5707"/>
<polygon fill="midnightblue" stroke="midnightblue" points="139.5,-48.3619 143,-58.3619 146.5,-48.3619 139.5,-48.3619"/>
</g>
<!-- Node10 -->
<g id="node19" class="node"><title>Node10</title>
<a xlink:href="group_8cpp.html" target="_top" xlink:title="src/group.cpp">
<polygon fill="white" stroke="black" points="446,-58.5 446,-79.5 522,-79.5 522,-58.5 446,-58.5"/>
<text text-anchor="middle" x="484" y="-66.5" font-family="Helvetica,sans-Serif" font-size="10.00">src/group.cpp</text>
</a>
</g>
<!-- Node9&#45;&gt;Node10 -->
<g id="edge18" class="edge"><title>Node9&#45;&gt;Node10</title>
<path fill="none" stroke="midnightblue" d="M484,-106.191C484,-97.1684 484,-86.9941 484,-79.5707"/>
<polygon fill="midnightblue" stroke="midnightblue" points="480.5,-106.362 484,-116.362 487.5,-106.362 480.5,-106.362"/>
</g>
<!-- Node11&#45;&gt;Node6 -->
<g id="edge24" class="edge"><title>Node11&#45;&gt;Node6</title>
<path fill="none" stroke="midnightblue" d="M230.624,-112.069C209.959,-101.912 183.111,-88.7157 164.609,-79.6212"/>
<polygon fill="midnightblue" stroke="midnightblue" points="229.113,-115.226 239.631,-116.497 232.201,-108.944 229.113,-115.226"/>
</g>
<!-- Node12 -->
<g id="node23" class="node"><title>Node12</title>
<a xlink:href="mainwindow_8cpp.html" target="_top" xlink:title="src/mainwindow.cpp">
<polygon fill="white" stroke="black" points="214,-58.5 214,-79.5 320,-79.5 320,-58.5 214,-58.5"/>
<text text-anchor="middle" x="267" y="-66.5" font-family="Helvetica,sans-Serif" font-size="10.00">src/mainwindow.cpp</text>
</a>
</g>
<!-- Node11&#45;&gt;Node12 -->
<g id="edge22" class="edge"><title>Node11&#45;&gt;Node12</title>
<path fill="none" stroke="midnightblue" d="M263.153,-106.191C264.086,-97.1684 265.139,-86.9941 265.906,-79.5707"/>
<polygon fill="midnightblue" stroke="midnightblue" points="259.648,-106.055 262.1,-116.362 266.611,-106.775 259.648,-106.055"/>
</g>
<!-- Node13 -->
<g id="node26" class="node"><title>Node13</title>
<a xlink:href="sphere_8cpp.html" target="_top" xlink:title="src/sphere.cpp">
<polygon fill="white" stroke="black" points="337.5,-58.5 337.5,-79.5 418.5,-79.5 418.5,-58.5 337.5,-58.5"/>
<text text-anchor="middle" x="378" y="-66.5" font-family="Helvetica,sans-Serif" font-size="10.00">src/sphere.cpp</text>
</a>
</g>
<!-- Node11&#45;&gt;Node13 -->
<g id="edge26" class="edge"><title>Node11&#45;&gt;Node13</title>
<path fill="none" stroke="midnightblue" d="M291.396,-111.932C311.848,-101.793 338.311,-88.6748 356.574,-79.6212"/>
<polygon fill="midnightblue" stroke="midnightblue" points="289.593,-108.919 282.188,-116.497 292.702,-115.191 289.593,-108.919"/>
</g>
</g>
</svg>
