<?xml version="1.0" encoding="UTF-8" standalone="no"?>
<!DOCTYPE svg PUBLIC "-//W3C//DTD SVG 1.1//EN"
 "http://www.w3.org/Graphics/SVG/1.1/DTD/svg11.dtd">
<!-- Generated by graphviz version 2.26.3 (20100126.1600)
 -->
<!-- Title: include/actorbuilder.hpp Pages: 1 -->
<svg width="334pt" height="88pt"
 viewBox="0.00 0.00 334.00 88.00" xmlns="http://www.w3.org/2000/svg" xmlns:xlink="http://www.w3.org/1999/xlink">
<g id="graph1" class="graph" transform="scale(1 1) rotate(0) translate(4 84)">
<title>include/actorbuilder.hpp</title>
<polygon fill="white" stroke="white" points="-4,5 -4,-84 331,-84 331,5 -4,5"/>
<!-- Node1 -->
<g id="node1" class="node"><title>Node1</title>
<polygon fill="#bfbfbf" stroke="black" points="115.5,-58.5 115.5,-79.5 234.5,-79.5 234.5,-58.5 115.5,-58.5"/>
<text text-anchor="middle" x="175" y="-66.5" font-family="Helvetica,sans-Serif" font-size="10.00">include/actorbuilder.hpp</text>
</g>
<!-- Node2 -->
<g id="node3" class="node"><title>Node2</title>
<polygon fill="white" stroke="#bfbfbf" points="-0.5,-0.5 -0.5,-21.5 52.5,-21.5 52.5,-0.5 -0.5,-0.5"/>
<text text-anchor="middle" x="26" y="-8.5" font-family="Helvetica,sans-Serif" font-size="10.00">QObject</text>
</g>
<!-- Node1&#45;&gt;Node2 -->
<g id="edge2" class="edge"><title>Node1&#45;&gt;Node2</title>
<path fill="none" stroke="midnightblue" d="M148.017,-58.4966C123.892,-49.1057 88.3579,-35.2735 61.8509,-24.9554"/>
<polygon fill="midnightblue" stroke="midnightblue" points="63.1201,-21.6936 52.5315,-21.3277 60.5808,-28.2169 63.1201,-21.6936"/>
</g>
<!-- Node3 -->
<g id="node5" class="node"><title>Node3</title>
<polygon fill="white" stroke="#bfbfbf" points="70,-0.5 70,-21.5 120,-21.5 120,-0.5 70,-0.5"/>
<text text-anchor="middle" x="95" y="-8.5" font-family="Helvetica,sans-Serif" font-size="10.00">QString</text>
</g>
<!-- Node1&#45;&gt;Node3 -->
<g id="edge4" class="edge"><title>Node1&#45;&gt;Node3</title>
<path fill="none" stroke="midnightblue" d="M160.327,-58.3619C148.486,-49.7773 131.615,-37.5459 117.984,-27.6636"/>
<polygon fill="midnightblue" stroke="midnightblue" points="119.731,-24.6067 109.58,-21.5707 115.622,-30.274 119.731,-24.6067"/>
</g>
<!-- Node4 -->
<g id="node7" class="node"><title>Node4</title>
<polygon fill="white" stroke="#bfbfbf" points="138,-0.5 138,-21.5 212,-21.5 212,-0.5 138,-0.5"/>
<text text-anchor="middle" x="175" y="-8.5" font-family="Helvetica,sans-Serif" font-size="10.00">QMetaObject</text>
</g>
<!-- Node1&#45;&gt;Node4 -->
<g id="edge6" class="edge"><title>Node1&#45;&gt;Node4</title>
<path fill="none" stroke="midnightblue" d="M175,-58.3619C175,-50.9219 175,-40.7427 175,-31.7276"/>
<polygon fill="midnightblue" stroke="midnightblue" points="178.5,-31.5706 175,-21.5707 171.5,-31.5707 178.5,-31.5706"/>
</g>
<!-- Node5 -->
<g id="node9" class="node"><title>Node5</title>
<polygon fill="white" stroke="#bfbfbf" points="230,-0.5 230,-21.5 270,-21.5 270,-0.5 230,-0.5"/>
<text text-anchor="middle" x="250" y="-8.5" font-family="Helvetica,sans-Serif" font-size="10.00">QList</text>
</g>
<!-- Node1&#45;&gt;Node5 -->
<g id="edge8" class="edge"><title>Node1&#45;&gt;Node5</title>
<path fill="none" stroke="midnightblue" d="M188.756,-58.3619C199.751,-49.859 215.373,-37.7785 228.086,-27.9466"/>
<polygon fill="midnightblue" stroke="midnightblue" points="230.562,-30.4569 236.331,-21.5707 226.279,-24.9195 230.562,-30.4569"/>
</g>
<!-- Node6 -->
<g id="node11" class="node"><title>Node6</title>
<polygon fill="white" stroke="#bfbfbf" points="288,-0.5 288,-21.5 326,-21.5 326,-0.5 288,-0.5"/>
<text text-anchor="middle" x="307" y="-8.5" font-family="Helvetica,sans-Serif" font-size="10.00">tuple</text>
</g>
<!-- Node1&#45;&gt;Node6 -->
<g id="edge10" class="edge"><title>Node1&#45;&gt;Node6</title>
<path fill="none" stroke="midnightblue" d="M198.904,-58.4966C221.367,-48.6268 254.994,-33.851 278.768,-23.4051"/>
<polygon fill="midnightblue" stroke="midnightblue" points="280.231,-26.5853 287.978,-19.3582 277.415,-20.1767 280.231,-26.5853"/>
</g>
</g>
</svg>
