<?xml version="1.0" encoding="UTF-8" standalone="no"?>
<!DOCTYPE svg PUBLIC "-//W3C//DTD SVG 1.1//EN"
 "http://www.w3.org/Graphics/SVG/1.1/DTD/svg11.dtd">
<!-- Generated by graphviz version 2.26.3 (20100126.1600)
 -->
<!-- Title: include/actor.hpp Pages: 1 -->
<svg width="1443pt" height="262pt"
 viewBox="0.00 0.00 1443.00 262.00" xmlns="http://www.w3.org/2000/svg" xmlns:xlink="http://www.w3.org/1999/xlink">
<g id="graph1" class="graph" transform="scale(1 1) rotate(0) translate(4 258)">
<title>include/actor.hpp</title>
<polygon fill="white" stroke="white" points="-4,5 -4,-258 1440,-258 1440,5 -4,5"/>
<!-- Node1 -->
<g id="node1" class="node"><title>Node1</title>
<polygon fill="#bfbfbf" stroke="black" points="848.5,-232.5 848.5,-253.5 939.5,-253.5 939.5,-232.5 848.5,-232.5"/>
<text text-anchor="middle" x="894" y="-240.5" font-family="Helvetica,sans-Serif" font-size="10.00">include/actor.hpp</text>
</g>
<!-- Node2 -->
<g id="node3" class="node"><title>Node2</title>
<a xlink:href="actor_8cpp.html" target="_top" xlink:title="src/actor.cpp">
<polygon fill="white" stroke="black" points="1361,-0.5 1361,-21.5 1435,-21.5 1435,-0.5 1361,-0.5"/>
<text text-anchor="middle" x="1398" y="-8.5" font-family="Helvetica,sans-Serif" font-size="10.00">src/actor.cpp</text>
</a>
</g>
<!-- Node1&#45;&gt;Node2 -->
<g id="edge2" class="edge"><title>Node1&#45;&gt;Node2</title>
<path fill="none" stroke="midnightblue" d="M949.752,-232.961C1024.52,-218.256 1160.33,-187.148 1268,-138 1310.61,-118.549 1323.48,-113.712 1356,-80 1373.14,-62.2363 1386.56,-36.2844 1393.28,-21.7992"/>
<polygon fill="midnightblue" stroke="midnightblue" points="948.767,-229.587 939.616,-234.927 950.1,-236.458 948.767,-229.587"/>
</g>
<!-- Node3 -->
<g id="node5" class="node"><title>Node3</title>
<a xlink:href="geometry_8hpp.html" target="_top" xlink:title="include/geometry.hpp">
<polygon fill="white" stroke="black" points="762,-174.5 762,-195.5 872,-195.5 872,-174.5 762,-174.5"/>
<text text-anchor="middle" x="817" y="-182.5" font-family="Helvetica,sans-Serif" font-size="10.00">include/geometry.hpp</text>
</a>
</g>
<!-- Node1&#45;&gt;Node3 -->
<g id="edge4" class="edge"><title>Node1&#45;&gt;Node3</title>
<path fill="none" stroke="midnightblue" d="M871.774,-226.259C858.639,-216.364 842.405,-204.136 831.033,-195.571"/>
<polygon fill="midnightblue" stroke="midnightblue" points="869.784,-229.141 879.877,-232.362 873.995,-223.55 869.784,-229.141"/>
</g>
<!-- Node26 -->
<g id="node67" class="node"><title>Node26</title>
<a xlink:href="world_8hpp.html" target="_top" xlink:title="include/world.hpp">
<polygon fill="white" stroke="black" points="997,-116.5 997,-137.5 1089,-137.5 1089,-116.5 997,-116.5"/>
<text text-anchor="middle" x="1043" y="-124.5" font-family="Helvetica,sans-Serif" font-size="10.00">include/world.hpp</text>
</a>
</g>
<!-- Node1&#45;&gt;Node26 -->
<g id="edge82" class="edge"><title>Node1&#45;&gt;Node26</title>
<path fill="none" stroke="midnightblue" d="M915.829,-226.006C947.002,-201.736 1003.36,-157.858 1029.28,-137.679"/>
<polygon fill="midnightblue" stroke="midnightblue" points="913.491,-223.39 907.75,-232.295 917.791,-228.914 913.491,-223.39"/>
</g>
<!-- Node27 -->
<g id="node71" class="node"><title>Node27</title>
<a xlink:href="light_8hpp.html" target="_top" xlink:title="include/light.hpp">
<polygon fill="white" stroke="black" points="666.5,-116.5 666.5,-137.5 753.5,-137.5 753.5,-116.5 666.5,-116.5"/>
<text text-anchor="middle" x="710" y="-124.5" font-family="Helvetica,sans-Serif" font-size="10.00">include/light.hpp</text>
</a>
</g>
<!-- Node1&#45;&gt;Node27 -->
<g id="edge88" class="edge"><title>Node1&#45;&gt;Node27</title>
<path fill="none" stroke="midnightblue" d="M838.264,-233.722C810.427,-226.911 777.544,-215.35 753,-196 733.159,-180.357 720.041,-152.855 713.945,-137.726"/>
<polygon fill="midnightblue" stroke="midnightblue" points="837.736,-237.192 848.266,-236.022 839.305,-230.37 837.736,-237.192"/>
</g>
<!-- Node4 -->
<g id="node7" class="node"><title>Node4</title>
<a xlink:href="cube_8hpp.html" target="_top" xlink:title="include/cube.hpp">
<polygon fill="white" stroke="black" points="1107,-116.5 1107,-137.5 1197,-137.5 1197,-116.5 1107,-116.5"/>
<text text-anchor="middle" x="1152" y="-124.5" font-family="Helvetica,sans-Serif" font-size="10.00">include/cube.hpp</text>
</a>
</g>
<!-- Node3&#45;&gt;Node4 -->
<g id="edge6" class="edge"><title>Node3&#45;&gt;Node4</title>
<path fill="none" stroke="midnightblue" d="M881.981,-174.797C939.008,-165.684 1024.14,-151.696 1098,-138 1100.92,-137.459 1103.92,-136.888 1106.94,-136.302"/>
<polygon fill="midnightblue" stroke="midnightblue" points="881.346,-171.354 872.022,-176.385 882.448,-178.267 881.346,-171.354"/>
</g>
<!-- Node7 -->
<g id="node14" class="node"><title>Node7</title>
<a xlink:href="geometry_8cpp.html" target="_top" xlink:title="src/geometry.cpp">
<polygon fill="white" stroke="black" points="1251,-0.5 1251,-21.5 1343,-21.5 1343,-0.5 1251,-0.5"/>
<text text-anchor="middle" x="1297" y="-8.5" font-family="Helvetica,sans-Serif" font-size="10.00">src/geometry.cpp</text>
</a>
</g>
<!-- Node3&#45;&gt;Node7 -->
<g id="edge46" class="edge"><title>Node3&#45;&gt;Node7</title>
<path fill="none" stroke="midnightblue" d="M882.235,-182.789C960.393,-178.849 1094.73,-167.959 1206,-138 1269.06,-121.022 1305.08,-134.534 1341,-80 1354.52,-59.4744 1329.67,-35.1795 1312.14,-21.5834"/>
<polygon fill="midnightblue" stroke="midnightblue" points="881.875,-179.302 872.054,-183.278 882.211,-186.294 881.875,-179.302"/>
</g>
<!-- Node14 -->
<g id="node28" class="node"><title>Node14</title>
<a xlink:href="sphere_8hpp.html" target="_top" xlink:title="include/sphere.hpp">
<polygon fill="white" stroke="black" points="881,-116.5 881,-137.5 979,-137.5 979,-116.5 881,-116.5"/>
<text text-anchor="middle" x="930" y="-124.5" font-family="Helvetica,sans-Serif" font-size="10.00">include/sphere.hpp</text>
</a>
</g>
<!-- Node3&#45;&gt;Node14 -->
<g id="edge28" class="edge"><title>Node3&#45;&gt;Node14</title>
<path fill="none" stroke="midnightblue" d="M846.625,-169.794C866.341,-159.675 891.748,-146.634 909.307,-137.621"/>
<polygon fill="midnightblue" stroke="midnightblue" points="844.762,-166.816 837.463,-174.497 847.958,-173.044 844.762,-166.816"/>
</g>
<!-- Node17 -->
<g id="node36" class="node"><title>Node17</title>
<a xlink:href="cylinder_8hpp.html" target="_top" xlink:title="include/cylinder.hpp">
<polygon fill="white" stroke="black" points="-0.5,-58.5 -0.5,-79.5 102.5,-79.5 102.5,-58.5 -0.5,-58.5"/>
<text text-anchor="middle" x="51" y="-66.5" font-family="Helvetica,sans-Serif" font-size="10.00">include/cylinder.hpp</text>
</a>
</g>
<!-- Node3&#45;&gt;Node17 -->
<g id="edge38" class="edge"><title>Node3&#45;&gt;Node17</title>
<path fill="none" stroke="midnightblue" d="M751.7,-179.016C670.968,-171.263 529.467,-156.521 409,-138 297.64,-120.879 168.062,-94.2085 99.4377,-79.5452"/>
<polygon fill="midnightblue" stroke="midnightblue" points="751.432,-182.506 761.719,-179.972 752.097,-175.538 751.432,-182.506"/>
</g>
<!-- Node19 -->
<g id="node43" class="node"><title>Node19</title>
<a xlink:href="group_8hpp.html" target="_top" xlink:title="include/group.hpp">
<polygon fill="white" stroke="black" points="770.5,-116.5 770.5,-137.5 863.5,-137.5 863.5,-116.5 770.5,-116.5"/>
<text text-anchor="middle" x="817" y="-124.5" font-family="Helvetica,sans-Serif" font-size="10.00">include/group.hpp</text>
</a>
</g>
<!-- Node3&#45;&gt;Node19 -->
<g id="edge48" class="edge"><title>Node3&#45;&gt;Node19</title>
<path fill="none" stroke="midnightblue" d="M817,-164.191C817,-155.168 817,-144.994 817,-137.571"/>
<polygon fill="midnightblue" stroke="midnightblue" points="813.5,-164.362 817,-174.362 820.5,-164.362 813.5,-164.362"/>
</g>
<!-- Node21 -->
<g id="node50" class="node"><title>Node21</title>
<a xlink:href="line_8hpp.html" target="_top" xlink:title="include/line.hpp">
<polygon fill="white" stroke="black" points="360,-58.5 360,-79.5 444,-79.5 444,-58.5 360,-58.5"/>
<text text-anchor="middle" x="402" y="-66.5" font-family="Helvetica,sans-Serif" font-size="10.00">include/line.hpp</text>
</a>
</g>
<!-- Node3&#45;&gt;Node21 -->
<g id="edge58" class="edge"><title>Node3&#45;&gt;Node21</title>
<path fill="none" stroke="midnightblue" d="M751.938,-172.612C709.518,-164.054 653.118,-151.762 604,-138 540.838,-120.304 468.452,-94.0932 429.792,-79.6015"/>
<polygon fill="midnightblue" stroke="midnightblue" points="751.368,-176.068 761.86,-174.598 752.741,-169.204 751.368,-176.068"/>
</g>
<!-- Node23 -->
<g id="node56" class="node"><title>Node23</title>
<a xlink:href="pyramide_8hpp.html" target="_top" xlink:title="include/pyramide.hpp">
<polygon fill="white" stroke="black" points="119.5,-58.5 119.5,-79.5 228.5,-79.5 228.5,-58.5 119.5,-58.5"/>
<text text-anchor="middle" x="174" y="-66.5" font-family="Helvetica,sans-Serif" font-size="10.00">include/pyramide.hpp</text>
</a>
</g>
<!-- Node3&#45;&gt;Node23 -->
<g id="edge66" class="edge"><title>Node3&#45;&gt;Node23</title>
<path fill="none" stroke="midnightblue" d="M751.661,-174.738C693.84,-165.535 607.208,-151.447 532,-138 423.116,-118.532 296.068,-93.491 226.391,-79.5565"/>
<polygon fill="midnightblue" stroke="midnightblue" points="751.33,-178.229 761.756,-176.342 752.429,-171.316 751.33,-178.229"/>
</g>
<!-- Node25 -->
<g id="node62" class="node"><title>Node25</title>
<a xlink:href="trigger_8hpp.html" target="_top" xlink:title="include/trigger.hpp">
<polygon fill="white" stroke="black" points="462,-58.5 462,-79.5 558,-79.5 558,-58.5 462,-58.5"/>
<text text-anchor="middle" x="510" y="-66.5" font-family="Helvetica,sans-Serif" font-size="10.00">include/trigger.hpp</text>
</a>
</g>
<!-- Node3&#45;&gt;Node25 -->
<g id="edge74" class="edge"><title>Node3&#45;&gt;Node25</title>
<path fill="none" stroke="midnightblue" d="M765.404,-171.842C733.975,-163.313 693.223,-151.332 658,-138 611.07,-120.237 558.285,-94.052 530.176,-79.5825"/>
<polygon fill="midnightblue" stroke="midnightblue" points="764.696,-175.276 775.261,-174.487 766.51,-168.515 764.696,-175.276"/>
</g>
<!-- Node5 -->
<g id="node9" class="node"><title>Node5</title>
<a xlink:href="viewport_8hpp.html" target="_top" xlink:title="include/viewport.hpp">
<polygon fill="white" stroke="black" points="1136,-58.5 1136,-79.5 1242,-79.5 1242,-58.5 1136,-58.5"/>
<text text-anchor="middle" x="1189" y="-66.5" font-family="Helvetica,sans-Serif" font-size="10.00">include/viewport.hpp</text>
</a>
</g>
<!-- Node4&#45;&gt;Node5 -->
<g id="edge8" class="edge"><title>Node4&#45;&gt;Node5</title>
<path fill="none" stroke="midnightblue" d="M1164.33,-107.667C1170.31,-98.2948 1177.26,-87.4019 1182.26,-79.5707"/>
<polygon fill="midnightblue" stroke="midnightblue" points="1161.21,-106.049 1158.79,-116.362 1167.12,-109.814 1161.21,-106.049"/>
</g>
<!-- Node11 -->
<g id="node22" class="node"><title>Node11</title>
<a xlink:href="cube_8cpp.html" target="_top" xlink:title="src/cube.cpp">
<polygon fill="white" stroke="black" points="1259.5,-58.5 1259.5,-79.5 1332.5,-79.5 1332.5,-58.5 1259.5,-58.5"/>
<text text-anchor="middle" x="1296" y="-66.5" font-family="Helvetica,sans-Serif" font-size="10.00">src/cube.cpp</text>
</a>
</g>
<!-- Node4&#45;&gt;Node11 -->
<g id="edge22" class="edge"><title>Node4&#45;&gt;Node11</title>
<path fill="none" stroke="midnightblue" d="M1187.38,-112.751C1212.81,-102.509 1246.54,-88.9206 1269.63,-79.6212"/>
<polygon fill="midnightblue" stroke="midnightblue" points="1186.05,-109.514 1178.08,-116.497 1188.66,-116.007 1186.05,-109.514"/>
</g>
<!-- Node12 -->
<g id="node24" class="node"><title>Node12</title>
<a xlink:href="trigger_8cpp.html" target="_top" xlink:title="src/trigger.cpp">
<polygon fill="white" stroke="black" points="607.5,-0.5 607.5,-21.5 686.5,-21.5 686.5,-0.5 607.5,-0.5"/>
<text text-anchor="middle" x="647" y="-8.5" font-family="Helvetica,sans-Serif" font-size="10.00">src/trigger.cpp</text>
</a>
</g>
<!-- Node4&#45;&gt;Node12 -->
<g id="edge24" class="edge"><title>Node4&#45;&gt;Node12</title>
<path fill="none" stroke="midnightblue" d="M1140.18,-107.646C1129.12,-91.4102 1111.02,-69.1412 1089,-58 1053.5,-40.0371 788.3,-20.5109 686.568,-13.6"/>
<polygon fill="midnightblue" stroke="midnightblue" points="1137.47,-109.9 1145.85,-116.378 1143.34,-106.086 1137.47,-109.9"/>
</g>
<!-- Node13 -->
<g id="node26" class="node"><title>Node13</title>
<a xlink:href="world_8cpp.html" target="_top" xlink:title="src/world.cpp">
<polygon fill="white" stroke="black" points="907.5,-58.5 907.5,-79.5 982.5,-79.5 982.5,-58.5 907.5,-58.5"/>
<text text-anchor="middle" x="945" y="-66.5" font-family="Helvetica,sans-Serif" font-size="10.00">src/world.cpp</text>
</a>
</g>
<!-- Node4&#45;&gt;Node13 -->
<g id="edge26" class="edge"><title>Node4&#45;&gt;Node13</title>
<path fill="none" stroke="midnightblue" d="M1104.46,-113.68C1067.44,-103.307 1016.76,-89.1078 982.556,-79.5231"/>
<polygon fill="midnightblue" stroke="midnightblue" points="1103.94,-117.169 1114.51,-116.497 1105.83,-110.428 1103.94,-117.169"/>
</g>
<!-- Node5&#45;&gt;Node2 -->
<g id="edge10" class="edge"><title>Node5&#45;&gt;Node2</title>
<path fill="none" stroke="midnightblue" d="M1236.58,-55.795C1274.25,-45.342 1326.11,-30.9494 1360.78,-21.3277"/>
<polygon fill="midnightblue" stroke="midnightblue" points="1235.55,-52.45 1226.85,-58.4966 1237.42,-59.195 1235.55,-52.45"/>
</g>
<!-- Node6 -->
<g id="node12" class="node"><title>Node6</title>
<a xlink:href="fileloader_8cpp.html" target="_top" xlink:title="src/fileloader.cpp">
<polygon fill="white" stroke="black" points="1142.5,-0.5 1142.5,-21.5 1233.5,-21.5 1233.5,-0.5 1142.5,-0.5"/>
<text text-anchor="middle" x="1188" y="-8.5" font-family="Helvetica,sans-Serif" font-size="10.00">src/fileloader.cpp</text>
</a>
</g>
<!-- Node5&#45;&gt;Node6 -->
<g id="edge12" class="edge"><title>Node5&#45;&gt;Node6</title>
<path fill="none" stroke="midnightblue" d="M1188.64,-48.1906C1188.49,-39.1684 1188.31,-28.9941 1188.18,-21.5707"/>
<polygon fill="midnightblue" stroke="midnightblue" points="1185.14,-48.4238 1188.82,-58.3619 1192.14,-48.303 1185.14,-48.4238"/>
</g>
<!-- Node5&#45;&gt;Node7 -->
<g id="edge14" class="edge"><title>Node5&#45;&gt;Node7</title>
<path fill="none" stroke="midnightblue" d="M1217.57,-53.6559C1236.38,-43.5561 1260.52,-30.5928 1277.22,-21.6212"/>
<polygon fill="midnightblue" stroke="midnightblue" points="1215.71,-50.6818 1208.56,-58.4966 1219.02,-56.8488 1215.71,-50.6818"/>
</g>
<!-- Node8 -->
<g id="node16" class="node"><title>Node8</title>
<a xlink:href="light_8cpp.html" target="_top" xlink:title="src/light.cpp">
<polygon fill="white" stroke="black" points="1020,-0.5 1020,-21.5 1090,-21.5 1090,-0.5 1020,-0.5"/>
<text text-anchor="middle" x="1055" y="-8.5" font-family="Helvetica,sans-Serif" font-size="10.00">src/light.cpp</text>
</a>
</g>
<!-- Node5&#45;&gt;Node8 -->
<g id="edge16" class="edge"><title>Node5&#45;&gt;Node8</title>
<path fill="none" stroke="midnightblue" d="M1155.45,-54.4794C1131.86,-44.2695 1100.83,-30.8386 1079.54,-21.6212"/>
<polygon fill="midnightblue" stroke="midnightblue" points="1154.17,-57.7364 1164.73,-58.4966 1156.95,-51.3123 1154.17,-57.7364"/>
</g>
<!-- Node9 -->
<g id="node18" class="node"><title>Node9</title>
<a xlink:href="spotlight_8cpp.html" target="_top" xlink:title="src/spotlight.cpp">
<polygon fill="white" stroke="black" points="843.5,-0.5 843.5,-21.5 932.5,-21.5 932.5,-0.5 843.5,-0.5"/>
<text text-anchor="middle" x="888" y="-8.5" font-family="Helvetica,sans-Serif" font-size="10.00">src/spotlight.cpp</text>
</a>
</g>
<!-- Node5&#45;&gt;Node9 -->
<g id="edge18" class="edge"><title>Node5&#45;&gt;Node9</title>
<path fill="none" stroke="midnightblue" d="M1125.76,-56.8147C1067.95,-45.6741 983.881,-29.4753 932.745,-19.622"/>
<polygon fill="midnightblue" stroke="midnightblue" points="1125.4,-60.3089 1135.88,-58.7643 1126.72,-53.4353 1125.4,-60.3089"/>
</g>
<!-- Node10 -->
<g id="node20" class="node"><title>Node10</title>
<a xlink:href="viewport_8cpp.html" target="_top" xlink:title="src/viewport.cpp">
<polygon fill="white" stroke="black" points="483.5,-0.5 483.5,-21.5 572.5,-21.5 572.5,-0.5 483.5,-0.5"/>
<text text-anchor="middle" x="528" y="-8.5" font-family="Helvetica,sans-Serif" font-size="10.00">src/viewport.cpp</text>
</a>
</g>
<!-- Node5&#45;&gt;Node10 -->
<g id="edge20" class="edge"><title>Node5&#45;&gt;Node10</title>
<path fill="none" stroke="midnightblue" d="M1125.75,-61.6915C1113.56,-60.3827 1100.89,-59.0903 1089,-58 871.548,-38.0587 815.959,-46.7361 599,-22 590.449,-21.025 581.349,-19.7765 572.618,-18.4728"/>
<polygon fill="midnightblue" stroke="midnightblue" points="1125.52,-65.1876 1135.84,-62.7906 1126.28,-58.2287 1125.52,-65.1876"/>
</g>
<!-- Node14&#45;&gt;Node5 -->
<g id="edge30" class="edge"><title>Node14&#45;&gt;Node5</title>
<path fill="none" stroke="midnightblue" d="M986.83,-114.274C1033.36,-103.855 1098.39,-89.2921 1142.01,-79.5231"/>
<polygon fill="midnightblue" stroke="midnightblue" points="985.896,-110.896 976.903,-116.497 987.426,-117.727 985.896,-110.896"/>
</g>
<!-- Node14&#45;&gt;Node13 -->
<g id="edge36" class="edge"><title>Node14&#45;&gt;Node13</title>
<path fill="none" stroke="midnightblue" d="M935.305,-106.488C937.657,-97.3924 940.325,-87.0756 942.266,-79.5707"/>
<polygon fill="midnightblue" stroke="midnightblue" points="931.867,-105.804 932.751,-116.362 938.644,-107.557 931.867,-105.804"/>
</g>
<!-- Node15 -->
<g id="node31" class="node"><title>Node15</title>
<a xlink:href="mainwindow_8cpp.html" target="_top" xlink:title="src/mainwindow.cpp">
<polygon fill="white" stroke="black" points="243,-0.5 243,-21.5 349,-21.5 349,-0.5 243,-0.5"/>
<text text-anchor="middle" x="296" y="-8.5" font-family="Helvetica,sans-Serif" font-size="10.00">src/mainwindow.cpp</text>
</a>
</g>
<!-- Node14&#45;&gt;Node15 -->
<g id="edge32" class="edge"><title>Node14&#45;&gt;Node15</title>
<path fill="none" stroke="midnightblue" d="M870.542,-116.067C741.052,-102.83 451.047,-132.519 351,-80 326.314,-67.041 308.93,-37.6333 300.942,-21.7147"/>
<polygon fill="midnightblue" stroke="midnightblue" points="870.367,-119.57 880.703,-117.239 871.17,-112.616 870.367,-119.57"/>
</g>
<!-- Node16 -->
<g id="node33" class="node"><title>Node16</title>
<a xlink:href="sphere_8cpp.html" target="_top" xlink:title="src/sphere.cpp">
<polygon fill="white" stroke="black" points="999.5,-58.5 999.5,-79.5 1080.5,-79.5 1080.5,-58.5 999.5,-58.5"/>
<text text-anchor="middle" x="1040" y="-66.5" font-family="Helvetica,sans-Serif" font-size="10.00">src/sphere.cpp</text>
</a>
</g>
<!-- Node14&#45;&gt;Node16 -->
<g id="edge34" class="edge"><title>Node14&#45;&gt;Node16</title>
<path fill="none" stroke="midnightblue" d="M958.839,-111.794C978.031,-101.675 1002.76,-88.6338 1019.86,-79.6212"/>
<polygon fill="midnightblue" stroke="midnightblue" points="957.133,-108.736 949.92,-116.497 960.398,-114.928 957.133,-108.736"/>
</g>
<!-- Node17&#45;&gt;Node10 -->
<g id="edge44" class="edge"><title>Node17&#45;&gt;Node10</title>
<path fill="none" stroke="midnightblue" d="M112.983,-57.7855C260.068,-36.6923 299.51,-39.2688 444,-22 456.705,-20.4815 470.477,-18.7247 483.122,-17.0669"/>
<polygon fill="midnightblue" stroke="midnightblue" points="112.067,-54.3815 102.671,-59.2775 113.069,-61.3094 112.067,-54.3815"/>
</g>
<!-- Node17&#45;&gt;Node15 -->
<g id="edge42" class="edge"><title>Node17&#45;&gt;Node15</title>
<path fill="none" stroke="midnightblue" d="M105.312,-56.1424C149.284,-45.7328 210.456,-31.2511 251.549,-21.5231"/>
<polygon fill="midnightblue" stroke="midnightblue" points="104.292,-52.787 95.3677,-58.4966 105.905,-59.5988 104.292,-52.787"/>
</g>
<!-- Node18 -->
<g id="node38" class="node"><title>Node18</title>
<a xlink:href="cylinder_8cpp.html" target="_top" xlink:title="src/cylinder.cpp">
<polygon fill="white" stroke="black" points="8,-0.5 8,-21.5 94,-21.5 94,-0.5 8,-0.5"/>
<text text-anchor="middle" x="51" y="-8.5" font-family="Helvetica,sans-Serif" font-size="10.00">src/cylinder.cpp</text>
</a>
</g>
<!-- Node17&#45;&gt;Node18 -->
<g id="edge40" class="edge"><title>Node17&#45;&gt;Node18</title>
<path fill="none" stroke="midnightblue" d="M51,-48.1906C51,-39.1684 51,-28.9941 51,-21.5707"/>
<polygon fill="midnightblue" stroke="midnightblue" points="47.5001,-48.3619 51,-58.3619 54.5001,-48.3619 47.5001,-48.3619"/>
</g>
<!-- Node19&#45;&gt;Node10 -->
<g id="edge54" class="edge"><title>Node19&#45;&gt;Node10</title>
<path fill="none" stroke="midnightblue" d="M795.715,-110.137C775.121,-94.5744 742.484,-71.8419 711,-58 665.808,-38.1311 610.504,-25.3798 572.597,-18.2443"/>
<polygon fill="midnightblue" stroke="midnightblue" points="793.703,-113.005 803.765,-116.322 797.967,-107.454 793.703,-113.005"/>
</g>
<!-- Node19&#45;&gt;Node13 -->
<g id="edge56" class="edge"><title>Node19&#45;&gt;Node13</title>
<path fill="none" stroke="midnightblue" d="M849.346,-112.343C871.841,-102.15 901.309,-88.7977 921.56,-79.6212"/>
<polygon fill="midnightblue" stroke="midnightblue" points="847.844,-109.181 840.18,-116.497 850.733,-115.557 847.844,-109.181"/>
</g>
<!-- Node19&#45;&gt;Node15 -->
<g id="edge52" class="edge"><title>Node19&#45;&gt;Node15</title>
<path fill="none" stroke="midnightblue" d="M760.166,-116.049C647.886,-104.558 393.151,-139.725 318,-80 300.184,-65.8406 296.563,-37.2108 295.971,-21.6509"/>
<polygon fill="midnightblue" stroke="midnightblue" points="759.908,-119.543 770.255,-117.266 760.747,-112.594 759.908,-119.543"/>
</g>
<!-- Node20 -->
<g id="node45" class="node"><title>Node20</title>
<a xlink:href="group_8cpp.html" target="_top" xlink:title="src/group.cpp">
<polygon fill="white" stroke="black" points="814,-58.5 814,-79.5 890,-79.5 890,-58.5 814,-58.5"/>
<text text-anchor="middle" x="852" y="-66.5" font-family="Helvetica,sans-Serif" font-size="10.00">src/group.cpp</text>
</a>
</g>
<!-- Node19&#45;&gt;Node20 -->
<g id="edge50" class="edge"><title>Node19&#45;&gt;Node20</title>
<path fill="none" stroke="midnightblue" d="M828.667,-107.667C834.322,-98.2948 840.895,-87.4019 845.621,-79.5707"/>
<polygon fill="midnightblue" stroke="midnightblue" points="825.59,-105.992 823.42,-116.362 831.583,-109.608 825.59,-105.992"/>
</g>
<!-- Node21&#45;&gt;Node10 -->
<g id="edge64" class="edge"><title>Node21&#45;&gt;Node10</title>
<path fill="none" stroke="midnightblue" d="M434.138,-54.2064C456.243,-44.031 485.08,-30.7567 504.926,-21.6212"/>
<polygon fill="midnightblue" stroke="midnightblue" points="432.438,-51.1358 424.818,-58.4966 435.365,-57.4945 432.438,-51.1358"/>
</g>
<!-- Node21&#45;&gt;Node15 -->
<g id="edge62" class="edge"><title>Node21&#45;&gt;Node15</title>
<path fill="none" stroke="midnightblue" d="M373.704,-53.5175C355.248,-43.4189 331.644,-30.5032 315.319,-21.5707"/>
<polygon fill="midnightblue" stroke="midnightblue" points="372.105,-56.6322 382.558,-58.3619 375.465,-50.4913 372.105,-56.6322"/>
</g>
<!-- Node22 -->
<g id="node52" class="node"><title>Node22</title>
<a xlink:href="line_8cpp.html" target="_top" xlink:title="src/line.cpp">
<polygon fill="white" stroke="black" points="368.5,-0.5 368.5,-21.5 435.5,-21.5 435.5,-0.5 368.5,-0.5"/>
<text text-anchor="middle" x="402" y="-8.5" font-family="Helvetica,sans-Serif" font-size="10.00">src/line.cpp</text>
</a>
</g>
<!-- Node21&#45;&gt;Node22 -->
<g id="edge60" class="edge"><title>Node21&#45;&gt;Node22</title>
<path fill="none" stroke="midnightblue" d="M402,-48.1906C402,-39.1684 402,-28.9941 402,-21.5707"/>
<polygon fill="midnightblue" stroke="midnightblue" points="398.5,-48.3619 402,-58.3619 405.5,-48.3619 398.5,-48.3619"/>
</g>
<!-- Node23&#45;&gt;Node10 -->
<g id="edge72" class="edge"><title>Node23&#45;&gt;Node10</title>
<path fill="none" stroke="midnightblue" d="M238.702,-58.3991C309.694,-46.7677 421.745,-28.4091 483.492,-18.2923"/>
<polygon fill="midnightblue" stroke="midnightblue" points="237.839,-54.9937 228.537,-60.0646 238.971,-61.9016 237.839,-54.9937"/>
</g>
<!-- Node23&#45;&gt;Node15 -->
<g id="edge68" class="edge"><title>Node23&#45;&gt;Node15</title>
<path fill="none" stroke="midnightblue" d="M205.406,-54.0693C226.771,-43.9121 254.529,-30.7157 273.659,-21.6212"/>
<polygon fill="midnightblue" stroke="midnightblue" points="203.622,-51.042 196.093,-58.4966 206.627,-57.364 203.622,-51.042"/>
</g>
<!-- Node24 -->
<g id="node59" class="node"><title>Node24</title>
<a xlink:href="pyramide_8cpp.html" target="_top" xlink:title="src/pyramide.cpp">
<polygon fill="white" stroke="black" points="128,-0.5 128,-21.5 220,-21.5 220,-0.5 128,-0.5"/>
<text text-anchor="middle" x="174" y="-8.5" font-family="Helvetica,sans-Serif" font-size="10.00">src/pyramide.cpp</text>
</a>
</g>
<!-- Node23&#45;&gt;Node24 -->
<g id="edge70" class="edge"><title>Node23&#45;&gt;Node24</title>
<path fill="none" stroke="midnightblue" d="M174,-48.1906C174,-39.1684 174,-28.9941 174,-21.5707"/>
<polygon fill="midnightblue" stroke="midnightblue" points="170.5,-48.3619 174,-58.3619 177.5,-48.3619 170.5,-48.3619"/>
</g>
<!-- Node25&#45;&gt;Node10 -->
<g id="edge80" class="edge"><title>Node25&#45;&gt;Node10</title>
<path fill="none" stroke="midnightblue" d="M516.274,-48.7838C519.119,-39.617 522.365,-29.1572 524.719,-21.5707"/>
<polygon fill="midnightblue" stroke="midnightblue" points="512.923,-47.7738 513.301,-58.3619 519.608,-49.8487 512.923,-47.7738"/>
</g>
<!-- Node25&#45;&gt;Node12 -->
<g id="edge78" class="edge"><title>Node25&#45;&gt;Node12</title>
<path fill="none" stroke="midnightblue" d="M544.299,-54.4794C568.415,-44.2695 600.14,-30.8386 621.912,-21.6212"/>
<polygon fill="midnightblue" stroke="midnightblue" points="542.654,-51.3749 534.81,-58.4966 545.383,-57.821 542.654,-51.3749"/>
</g>
<!-- Node25&#45;&gt;Node15 -->
<g id="edge76" class="edge"><title>Node25&#45;&gt;Node15</title>
<path fill="none" stroke="midnightblue" d="M461.342,-55.8123C423.029,-45.4285 370.342,-31.1487 334.826,-21.5231"/>
<polygon fill="midnightblue" stroke="midnightblue" points="460.679,-59.2588 471.246,-58.4966 462.51,-52.5025 460.679,-59.2588"/>
</g>
<!-- Node26&#45;&gt;Node5 -->
<g id="edge84" class="edge"><title>Node26&#45;&gt;Node5</title>
<path fill="none" stroke="midnightblue" d="M1078.87,-112.751C1104.65,-102.509 1138.86,-88.9206 1162.26,-79.6212"/>
<polygon fill="midnightblue" stroke="midnightblue" points="1077.44,-109.552 1069.44,-116.497 1080.03,-116.057 1077.44,-109.552"/>
</g>
<!-- Node26&#45;&gt;Node13 -->
<g id="edge86" class="edge"><title>Node26&#45;&gt;Node13</title>
<path fill="none" stroke="midnightblue" d="M1016.14,-111.101C999.18,-101.066 977.747,-88.3808 962.861,-79.5707"/>
<polygon fill="midnightblue" stroke="midnightblue" points="1014.64,-114.281 1025.03,-116.362 1018.2,-108.257 1014.64,-114.281"/>
</g>
<!-- Node27&#45;&gt;Node8 -->
<g id="edge90" class="edge"><title>Node27&#45;&gt;Node8</title>
<path fill="none" stroke="midnightblue" d="M728.462,-109.696C746.553,-93.7389 775.618,-70.6656 805,-58 843.224,-41.523 960.702,-23.8285 1020,-15.643"/>
<polygon fill="midnightblue" stroke="midnightblue" points="726.04,-107.167 720.96,-116.464 730.729,-112.364 726.04,-107.167"/>
</g>
<!-- Node27&#45;&gt;Node10 -->
<g id="edge102" class="edge"><title>Node27&#45;&gt;Node10</title>
<path fill="none" stroke="midnightblue" d="M709.494,-106.256C708.017,-90.9795 703.579,-70.7309 691,-58 674.44,-41.2398 614.908,-27.0705 572.588,-18.8004"/>
<polygon fill="midnightblue" stroke="midnightblue" points="706.006,-106.558 710.12,-116.322 712.993,-106.124 706.006,-106.558"/>
</g>
<!-- Node27&#45;&gt;Node13 -->
<g id="edge104" class="edge"><title>Node27&#45;&gt;Node13</title>
<path fill="none" stroke="midnightblue" d="M762.495,-114.044C806.488,-103.186 868.221,-87.9497 907.412,-78.277"/>
<polygon fill="midnightblue" stroke="midnightblue" points="761.427,-110.702 752.557,-116.497 763.104,-117.498 761.427,-110.702"/>
</g>
<!-- Node27&#45;&gt;Node15 -->
<g id="edge92" class="edge"><title>Node27&#45;&gt;Node15</title>
<path fill="none" stroke="midnightblue" d="M656.178,-125.059C546.362,-120.544 304.709,-107.557 280,-80 265.387,-63.7032 278.831,-36.7104 288.379,-21.7746"/>
<polygon fill="midnightblue" stroke="midnightblue" points="656.249,-128.565 666.382,-125.47 656.531,-121.57 656.249,-128.565"/>
</g>
<!-- Node28 -->
<g id="node75" class="node"><title>Node28</title>
<a xlink:href="spotlight_8hpp.html" target="_top" xlink:title="include/spotlight.hpp">
<polygon fill="white" stroke="black" points="576,-58.5 576,-79.5 682,-79.5 682,-58.5 576,-58.5"/>
<text text-anchor="middle" x="629" y="-66.5" font-family="Helvetica,sans-Serif" font-size="10.00">include/spotlight.hpp</text>
</a>
</g>
<!-- Node27&#45;&gt;Node28 -->
<g id="edge94" class="edge"><title>Node27&#45;&gt;Node28</title>
<path fill="none" stroke="midnightblue" d="M686.62,-110.259C672.802,-100.364 655.725,-88.1361 643.762,-79.5707"/>
<polygon fill="midnightblue" stroke="midnightblue" points="684.975,-113.386 695.143,-116.362 689.05,-107.694 684.975,-113.386"/>
</g>
<!-- Node28&#45;&gt;Node9 -->
<g id="edge98" class="edge"><title>Node28&#45;&gt;Node9</title>
<path fill="none" stroke="midnightblue" d="M685.692,-56.3045C733.004,-45.7095 799.523,-30.8134 843.179,-21.0371"/>
<polygon fill="midnightblue" stroke="midnightblue" points="684.896,-52.8959 675.903,-58.4966 686.426,-59.7267 684.896,-52.8959"/>
</g>
<!-- Node28&#45;&gt;Node10 -->
<g id="edge100" class="edge"><title>Node28&#45;&gt;Node10</title>
<path fill="none" stroke="midnightblue" d="M601.798,-53.379C584.248,-43.3011 561.891,-30.4624 546.408,-21.5707"/>
<polygon fill="midnightblue" stroke="midnightblue" points="600.06,-56.4171 610.475,-58.3619 603.546,-50.3468 600.06,-56.4171"/>
</g>
<!-- Node28&#45;&gt;Node15 -->
<g id="edge96" class="edge"><title>Node28&#45;&gt;Node15</title>
<path fill="none" stroke="midnightblue" d="M565.988,-57.8268C484.608,-43.563 401.75,-29.2302 349.232,-20.1695"/>
<polygon fill="midnightblue" stroke="midnightblue" points="565.448,-61.2855 575.903,-59.5656 566.657,-54.3907 565.448,-61.2855"/>
</g>
</g>
</svg>
