<?xml version="1.0" encoding="UTF-8" standalone="no"?>
<!DOCTYPE svg PUBLIC "-//W3C//DTD SVG 1.1//EN"
 "http://www.w3.org/Graphics/SVG/1.1/DTD/svg11.dtd">
<!-- Generated by graphviz version 2.26.3 (20100126.1600)
 -->
<!-- Title: src/actorbuilder.cpp Pages: 1 -->
<svg width="1932pt" height="392pt"
 viewBox="0.00 0.00 1932.00 392.00" xmlns="http://www.w3.org/2000/svg" xmlns:xlink="http://www.w3.org/1999/xlink">
<g id="graph1" class="graph" transform="scale(1 1) rotate(0) translate(4 388)">
<title>src/actorbuilder.cpp</title>
<polygon fill="white" stroke="white" points="-4,5 -4,-388 1929,-388 1929,5 -4,5"/>
<!-- Node1 -->
<g id="node1" class="node"><title>Node1</title>
<polygon fill="#bfbfbf" stroke="black" points="1102,-362.5 1102,-383.5 1204,-383.5 1204,-362.5 1102,-362.5"/>
<text text-anchor="middle" x="1153" y="-370.5" font-family="Helvetica,sans-Serif" font-size="10.00">src/actorbuilder.cpp</text>
</g>
<!-- Node2 -->
<g id="node3" class="node"><title>Node2</title>
<a xlink:href="actorbuilder_8hpp.html" target="_top" xlink:title="actorbuilder.hpp">
<polygon fill="white" stroke="black" points="28,-174.5 28,-195.5 114,-195.5 114,-174.5 28,-174.5"/>
<text text-anchor="middle" x="71" y="-182.5" font-family="Helvetica,sans-Serif" font-size="10.00">actorbuilder.hpp</text>
</a>
</g>
<!-- Node1&#45;&gt;Node2 -->
<g id="edge2" class="edge"><title>Node1&#45;&gt;Node2</title>
<path fill="none" stroke="midnightblue" d="M1101.72,-371.833C923.563,-367.124 333.129,-345.857 163,-268 130.796,-253.262 101.963,-223.152 85.4845,-203.538"/>
<polygon fill="midnightblue" stroke="midnightblue" points="88.0438,-201.138 79.0096,-195.603 82.6204,-205.564 88.0438,-201.138"/>
</g>
<!-- Node8 -->
<g id="node15" class="node"><title>Node8</title>
<a xlink:href="actor_8hpp.html" target="_top" xlink:title="actor.hpp">
<polygon fill="white" stroke="black" points="1049.5,-116.5 1049.5,-137.5 1106.5,-137.5 1106.5,-116.5 1049.5,-116.5"/>
<text text-anchor="middle" x="1078" y="-124.5" font-family="Helvetica,sans-Serif" font-size="10.00">actor.hpp</text>
</a>
</g>
<!-- Node1&#45;&gt;Node8 -->
<g id="edge14" class="edge"><title>Node1&#45;&gt;Node8</title>
<path fill="none" stroke="midnightblue" d="M1155.14,-362.404C1159.54,-338.457 1167.94,-278.623 1153,-232 1141.88,-197.313 1114.63,-164.33 1096.23,-144.88"/>
<polygon fill="midnightblue" stroke="midnightblue" points="1098.67,-142.371 1089.19,-137.642 1093.65,-147.252 1098.67,-142.371"/>
</g>
<!-- Node16 -->
<g id="node32" class="node"><title>Node16</title>
<a xlink:href="viewport_8hpp.html" target="_top" xlink:title="viewport.hpp">
<polygon fill="white" stroke="black" points="636,-304.5 636,-325.5 708,-325.5 708,-304.5 636,-304.5"/>
<text text-anchor="middle" x="672" y="-312.5" font-family="Helvetica,sans-Serif" font-size="10.00">viewport.hpp</text>
</a>
</g>
<!-- Node1&#45;&gt;Node16 -->
<g id="edge32" class="edge"><title>Node1&#45;&gt;Node16</title>
<path fill="none" stroke="midnightblue" d="M1101.98,-366.848C1007.93,-355.507 808.58,-331.469 718.233,-320.575"/>
<polygon fill="midnightblue" stroke="midnightblue" points="718.633,-317.098 708.286,-319.375 717.795,-324.047 718.633,-317.098"/>
</g>
<!-- Node26 -->
<g id="node60" class="node"><title>Node26</title>
<a xlink:href="cube_8hpp.html" target="_top" xlink:title="cube.hpp">
<polygon fill="white" stroke="black" points="1088,-239.5 1088,-260.5 1144,-260.5 1144,-239.5 1088,-239.5"/>
<text text-anchor="middle" x="1116" y="-247.5" font-family="Helvetica,sans-Serif" font-size="10.00">cube.hpp</text>
</a>
</g>
<!-- Node1&#45;&gt;Node26 -->
<g id="edge130" class="edge"><title>Node1&#45;&gt;Node26</title>
<path fill="none" stroke="midnightblue" d="M1149.72,-362.085C1143.53,-341.518 1130.06,-296.735 1122.14,-270.426"/>
<polygon fill="midnightblue" stroke="midnightblue" points="1125.46,-269.283 1119.22,-260.715 1118.75,-271.3 1125.46,-269.283"/>
</g>
<!-- Node34 -->
<g id="node90" class="node"><title>Node34</title>
<a xlink:href="sphere_8hpp.html" target="_top" xlink:title="sphere.hpp">
<polygon fill="white" stroke="black" points="929.5,-239.5 929.5,-260.5 994.5,-260.5 994.5,-239.5 929.5,-239.5"/>
<text text-anchor="middle" x="962" y="-247.5" font-family="Helvetica,sans-Serif" font-size="10.00">sphere.hpp</text>
</a>
</g>
<!-- Node1&#45;&gt;Node34 -->
<g id="edge132" class="edge"><title>Node1&#45;&gt;Node34</title>
<path fill="none" stroke="midnightblue" d="M1101.76,-363.155C1060.99,-354.414 1008.19,-340.765 992,-326 976.267,-311.65 968.669,-287.996 965.076,-270.885"/>
<polygon fill="midnightblue" stroke="midnightblue" points="968.468,-269.968 963.248,-260.748 961.579,-271.21 968.468,-269.968"/>
</g>
<!-- Node36 -->
<g id="node103" class="node"><title>Node36</title>
<a xlink:href="pyramide_8hpp.html" target="_top" xlink:title="pyramide.hpp">
<polygon fill="white" stroke="black" points="1371.5,-304.5 1371.5,-325.5 1446.5,-325.5 1446.5,-304.5 1371.5,-304.5"/>
<text text-anchor="middle" x="1409" y="-312.5" font-family="Helvetica,sans-Serif" font-size="10.00">pyramide.hpp</text>
</a>
</g>
<!-- Node1&#45;&gt;Node36 -->
<g id="edge134" class="edge"><title>Node1&#45;&gt;Node36</title>
<path fill="none" stroke="midnightblue" d="M1201,-362.465C1241.35,-353.563 1300.81,-340.334 1361.25,-326.385"/>
<polygon fill="midnightblue" stroke="midnightblue" points="1362.4,-329.712 1371.35,-324.049 1360.82,-322.892 1362.4,-329.712"/>
</g>
<!-- Node37 -->
<g id="node106" class="node"><title>Node37</title>
<a xlink:href="cylinder_8hpp.html" target="_top" xlink:title="cylinder.hpp">
<polygon fill="white" stroke="black" points="1463.5,-304.5 1463.5,-325.5 1532.5,-325.5 1532.5,-304.5 1463.5,-304.5"/>
<text text-anchor="middle" x="1498" y="-312.5" font-family="Helvetica,sans-Serif" font-size="10.00">cylinder.hpp</text>
</a>
</g>
<!-- Node1&#45;&gt;Node37 -->
<g id="edge138" class="edge"><title>Node1&#45;&gt;Node37</title>
<path fill="none" stroke="midnightblue" d="M1204.03,-366.581C1262.23,-358.92 1360.42,-344.97 1453.47,-326.185"/>
<polygon fill="midnightblue" stroke="midnightblue" points="1454.23,-329.602 1463.33,-324.173 1452.83,-322.744 1454.23,-329.602"/>
</g>
<!-- Node38 -->
<g id="node109" class="node"><title>Node38</title>
<a xlink:href="line_8hpp.html" target="_top" xlink:title="line.hpp">
<polygon fill="white" stroke="black" points="1550,-304.5 1550,-325.5 1600,-325.5 1600,-304.5 1550,-304.5"/>
<text text-anchor="middle" x="1575" y="-312.5" font-family="Helvetica,sans-Serif" font-size="10.00">line.hpp</text>
</a>
</g>
<!-- Node1&#45;&gt;Node38 -->
<g id="edge142" class="edge"><title>Node1&#45;&gt;Node38</title>
<path fill="none" stroke="midnightblue" d="M1204.06,-369.955C1276.86,-364.926 1414.66,-352.86 1540.12,-325.858"/>
<polygon fill="midnightblue" stroke="midnightblue" points="1540.88,-329.275 1549.9,-323.717 1539.38,-322.436 1540.88,-329.275"/>
</g>
<!-- Node39 -->
<g id="node112" class="node"><title>Node39</title>
<a xlink:href="rectangle_8hpp.html" target="_top" xlink:title="rectangle.hpp">
<polygon fill="white" stroke="black" points="1199.5,-304.5 1199.5,-325.5 1274.5,-325.5 1274.5,-304.5 1199.5,-304.5"/>
<text text-anchor="middle" x="1237" y="-312.5" font-family="Helvetica,sans-Serif" font-size="10.00">rectangle.hpp</text>
</a>
</g>
<!-- Node1&#45;&gt;Node39 -->
<g id="edge146" class="edge"><title>Node1&#45;&gt;Node39</title>
<path fill="none" stroke="midnightblue" d="M1168.41,-362.362C1180.96,-353.696 1198.89,-341.313 1213.27,-331.382"/>
<polygon fill="midnightblue" stroke="midnightblue" points="1215.45,-334.133 1221.69,-325.571 1211.47,-328.372 1215.45,-334.133"/>
</g>
<!-- Node40 -->
<g id="node115" class="node"><title>Node40</title>
<a xlink:href="light_8hpp.html" target="_top" xlink:title="light.hpp">
<polygon fill="white" stroke="black" points="977.5,-174.5 977.5,-195.5 1030.5,-195.5 1030.5,-174.5 977.5,-174.5"/>
<text text-anchor="middle" x="1004" y="-182.5" font-family="Helvetica,sans-Serif" font-size="10.00">light.hpp</text>
</a>
</g>
<!-- Node1&#45;&gt;Node40 -->
<g id="edge150" class="edge"><title>Node1&#45;&gt;Node40</title>
<path fill="none" stroke="midnightblue" d="M1101.75,-366.772C1074.89,-360.784 1043.76,-349.038 1025,-326 1010.34,-307.99 1005.89,-240.598 1004.56,-205.915"/>
<polygon fill="midnightblue" stroke="midnightblue" points="1008.05,-205.786 1004.22,-195.907 1001.06,-206.017 1008.05,-205.786"/>
</g>
<!-- Node41 -->
<g id="node119" class="node"><title>Node41</title>
<a xlink:href="spotlight_8hpp.html" target="_top" xlink:title="spotlight.hpp">
<polygon fill="white" stroke="black" points="1034,-304.5 1034,-325.5 1106,-325.5 1106,-304.5 1034,-304.5"/>
<text text-anchor="middle" x="1070" y="-312.5" font-family="Helvetica,sans-Serif" font-size="10.00">spotlight.hpp</text>
</a>
</g>
<!-- Node1&#45;&gt;Node41 -->
<g id="edge156" class="edge"><title>Node1&#45;&gt;Node41</title>
<path fill="none" stroke="midnightblue" d="M1137.78,-362.362C1125.37,-353.696 1107.65,-341.313 1093.44,-331.382"/>
<polygon fill="midnightblue" stroke="midnightblue" points="1095.33,-328.43 1085.13,-325.571 1091.32,-334.168 1095.33,-328.43"/>
</g>
<!-- Node42 -->
<g id="node122" class="node"><title>Node42</title>
<a xlink:href="trigger_8hpp.html" target="_top" xlink:title="trigger.hpp">
<polygon fill="white" stroke="black" points="1292,-304.5 1292,-325.5 1354,-325.5 1354,-304.5 1292,-304.5"/>
<text text-anchor="middle" x="1323" y="-312.5" font-family="Helvetica,sans-Serif" font-size="10.00">trigger.hpp</text>
</a>
</g>
<!-- Node1&#45;&gt;Node42 -->
<g id="edge160" class="edge"><title>Node1&#45;&gt;Node42</title>
<path fill="none" stroke="midnightblue" d="M1183.79,-362.497C1211.38,-353.082 1252.06,-339.204 1282.33,-328.877"/>
<polygon fill="midnightblue" stroke="midnightblue" points="1283.82,-332.065 1292.16,-325.523 1281.56,-325.44 1283.82,-332.065"/>
</g>
<!-- Node3 -->
<g id="node5" class="node"><title>Node3</title>
<polygon fill="white" stroke="#bfbfbf" points="814.5,-0.5 814.5,-21.5 867.5,-21.5 867.5,-0.5 814.5,-0.5"/>
<text text-anchor="middle" x="841" y="-8.5" font-family="Helvetica,sans-Serif" font-size="10.00">QObject</text>
</g>
<!-- Node2&#45;&gt;Node3 -->
<g id="edge4" class="edge"><title>Node2&#45;&gt;Node3</title>
<path fill="none" stroke="midnightblue" d="M76.0583,-174.264C84.0554,-158.595 101.191,-129.828 125,-116 242.822,-47.5693 674.987,-19.721 804.244,-12.8108"/>
<polygon fill="midnightblue" stroke="midnightblue" points="804.61,-16.2965 814.413,-12.2773 804.243,-9.30615 804.61,-16.2965"/>
</g>
<!-- Node4 -->
<g id="node7" class="node"><title>Node4</title>
<polygon fill="white" stroke="#bfbfbf" points="28,-116.5 28,-137.5 78,-137.5 78,-116.5 28,-116.5"/>
<text text-anchor="middle" x="53" y="-124.5" font-family="Helvetica,sans-Serif" font-size="10.00">QString</text>
</g>
<!-- Node2&#45;&gt;Node4 -->
<g id="edge6" class="edge"><title>Node2&#45;&gt;Node4</title>
<path fill="none" stroke="midnightblue" d="M67.6985,-174.362C65.3388,-166.758 62.0912,-156.294 59.2488,-147.135"/>
<polygon fill="midnightblue" stroke="midnightblue" points="62.5873,-146.084 56.2805,-137.571 55.9019,-148.159 62.5873,-146.084"/>
</g>
<!-- Node5 -->
<g id="node9" class="node"><title>Node5</title>
<polygon fill="white" stroke="#bfbfbf" points="134,-116.5 134,-137.5 208,-137.5 208,-116.5 134,-116.5"/>
<text text-anchor="middle" x="171" y="-124.5" font-family="Helvetica,sans-Serif" font-size="10.00">QMetaObject</text>
</g>
<!-- Node2&#45;&gt;Node5 -->
<g id="edge8" class="edge"><title>Node2&#45;&gt;Node5</title>
<path fill="none" stroke="midnightblue" d="M89.3415,-174.362C104.566,-165.532 126.441,-152.844 143.72,-142.822"/>
<polygon fill="midnightblue" stroke="midnightblue" points="145.88,-145.615 152.775,-137.571 142.368,-139.56 145.88,-145.615"/>
</g>
<!-- Node6 -->
<g id="node11" class="node"><title>Node6</title>
<polygon fill="white" stroke="#bfbfbf" points="409,-116.5 409,-137.5 449,-137.5 449,-116.5 409,-116.5"/>
<text text-anchor="middle" x="429" y="-124.5" font-family="Helvetica,sans-Serif" font-size="10.00">QList</text>
</g>
<!-- Node2&#45;&gt;Node6 -->
<g id="edge10" class="edge"><title>Node2&#45;&gt;Node6</title>
<path fill="none" stroke="midnightblue" d="M114.183,-178.004C187.668,-166.099 335.236,-142.191 398.77,-131.898"/>
<polygon fill="midnightblue" stroke="midnightblue" points="399.611,-135.307 408.923,-130.253 398.492,-128.397 399.611,-135.307"/>
</g>
<!-- Node7 -->
<g id="node13" class="node"><title>Node7</title>
<polygon fill="white" stroke="#bfbfbf" points="854,-116.5 854,-137.5 892,-137.5 892,-116.5 854,-116.5"/>
<text text-anchor="middle" x="873" y="-124.5" font-family="Helvetica,sans-Serif" font-size="10.00">tuple</text>
</g>
<!-- Node2&#45;&gt;Node7 -->
<g id="edge12" class="edge"><title>Node2&#45;&gt;Node7</title>
<path fill="none" stroke="midnightblue" d="M114.274,-183.769C228.067,-180.201 544.968,-168.124 807,-138 819.105,-136.608 832.37,-134.511 843.813,-132.519"/>
<polygon fill="midnightblue" stroke="midnightblue" points="844.498,-135.952 853.724,-130.743 843.263,-129.062 844.498,-135.952"/>
</g>
<!-- Node9 -->
<g id="node17" class="node"><title>Node9</title>
<a xlink:href="globals_8hpp.html" target="_top" xlink:title="Definitions globales. ">
<polygon fill="white" stroke="black" points="1070,-58.5 1070,-79.5 1136,-79.5 1136,-58.5 1070,-58.5"/>
<text text-anchor="middle" x="1103" y="-66.5" font-family="Helvetica,sans-Serif" font-size="10.00">globals.hpp</text>
</a>
</g>
<!-- Node8&#45;&gt;Node9 -->
<g id="edge16" class="edge"><title>Node8&#45;&gt;Node9</title>
<path fill="none" stroke="midnightblue" d="M1082.59,-116.362C1085.9,-108.677 1090.47,-98.0686 1094.45,-88.8399"/>
<polygon fill="midnightblue" stroke="midnightblue" points="1097.7,-90.1393 1098.44,-79.5707 1091.27,-87.3685 1097.7,-90.1393"/>
</g>
<!-- Node13 -->
<g id="node26" class="node"><title>Node13</title>
<polygon fill="white" stroke="#bfbfbf" points="885.5,-58.5 885.5,-79.5 952.5,-79.5 952.5,-58.5 885.5,-58.5"/>
<text text-anchor="middle" x="919" y="-66.5" font-family="Helvetica,sans-Serif" font-size="10.00">QMatrix4x4</text>
</g>
<!-- Node8&#45;&gt;Node13 -->
<g id="edge26" class="edge"><title>Node8&#45;&gt;Node13</title>
<path fill="none" stroke="midnightblue" d="M1049.21,-116.497C1023.51,-107.123 985.682,-93.3242 957.413,-83.0122"/>
<polygon fill="midnightblue" stroke="midnightblue" points="958.442,-79.662 947.848,-79.5231 956.043,-86.2381 958.442,-79.662"/>
</g>
<!-- Node14 -->
<g id="node28" class="node"><title>Node14</title>
<polygon fill="white" stroke="#bfbfbf" points="1153.5,-58.5 1153.5,-79.5 1256.5,-79.5 1256.5,-58.5 1153.5,-58.5"/>
<text text-anchor="middle" x="1205" y="-66.5" font-family="Helvetica,sans-Serif" font-size="10.00">QOpenGLFunctions</text>
</g>
<!-- Node8&#45;&gt;Node14 -->
<g id="edge28" class="edge"><title>Node8&#45;&gt;Node14</title>
<path fill="none" stroke="midnightblue" d="M1101,-116.497C1121.01,-107.356 1150.24,-94.0082 1172.62,-83.7883"/>
<polygon fill="midnightblue" stroke="midnightblue" points="1174.1,-86.9592 1181.74,-79.6212 1171.19,-80.5918 1174.1,-86.9592"/>
</g>
<!-- Node15 -->
<g id="node30" class="node"><title>Node15</title>
<polygon fill="white" stroke="#bfbfbf" points="969.5,-58.5 969.5,-79.5 1052.5,-79.5 1052.5,-58.5 969.5,-58.5"/>
<text text-anchor="middle" x="1011" y="-66.5" font-family="Helvetica,sans-Serif" font-size="10.00">QMetaProperty</text>
</g>
<!-- Node8&#45;&gt;Node15 -->
<g id="edge30" class="edge"><title>Node8&#45;&gt;Node15</title>
<path fill="none" stroke="midnightblue" d="M1065.71,-116.362C1055.98,-107.941 1042.2,-96.0105 1030.9,-86.2308"/>
<polygon fill="midnightblue" stroke="midnightblue" points="1033.06,-83.4695 1023.21,-79.5707 1028.48,-88.7619 1033.06,-83.4695"/>
</g>
<!-- Node9&#45;&gt;Node3 -->
<g id="edge18" class="edge"><title>Node9&#45;&gt;Node3</title>
<path fill="none" stroke="midnightblue" d="M1069.56,-60.0958C1066.67,-59.3702 1063.79,-58.6622 1061,-58 996.624,-42.7018 921.103,-27.0676 877.382,-18.2422"/>
<polygon fill="midnightblue" stroke="midnightblue" points="877.996,-14.7957 867.502,-16.2546 876.615,-21.6582 877.996,-14.7957"/>
</g>
<!-- Node10 -->
<g id="node20" class="node"><title>Node10</title>
<polygon fill="white" stroke="#bfbfbf" points="1109.5,-0.5 1109.5,-21.5 1180.5,-21.5 1180.5,-0.5 1109.5,-0.5"/>
<text text-anchor="middle" x="1145" y="-8.5" font-family="Helvetica,sans-Serif" font-size="10.00">QQuaternion</text>
</g>
<!-- Node9&#45;&gt;Node10 -->
<g id="edge20" class="edge"><title>Node9&#45;&gt;Node10</title>
<path fill="none" stroke="midnightblue" d="M1110.7,-58.3619C1116.45,-50.4313 1124.44,-39.3885 1131.27,-29.9606"/>
<polygon fill="midnightblue" stroke="midnightblue" points="1134.32,-31.7229 1137.35,-21.5707 1128.65,-27.6173 1134.32,-31.7229"/>
</g>
<!-- Node11 -->
<g id="node22" class="node"><title>Node11</title>
<polygon fill="white" stroke="#bfbfbf" points="1027.5,-0.5 1027.5,-21.5 1092.5,-21.5 1092.5,-0.5 1027.5,-0.5"/>
<text text-anchor="middle" x="1060" y="-8.5" font-family="Helvetica,sans-Serif" font-size="10.00">QVector3D</text>
</g>
<!-- Node9&#45;&gt;Node11 -->
<g id="edge22" class="edge"><title>Node9&#45;&gt;Node11</title>
<path fill="none" stroke="midnightblue" d="M1095.11,-58.3619C1089.17,-50.3496 1080.88,-39.1605 1073.84,-29.6696"/>
<polygon fill="midnightblue" stroke="midnightblue" points="1076.6,-27.5193 1067.84,-21.5707 1070.98,-31.6883 1076.6,-27.5193"/>
</g>
<!-- Node12 -->
<g id="node24" class="node"><title>Node12</title>
<polygon fill="white" stroke="#bfbfbf" points="597.5,-0.5 597.5,-21.5 646.5,-21.5 646.5,-0.5 597.5,-0.5"/>
<text text-anchor="middle" x="622" y="-8.5" font-family="Helvetica,sans-Serif" font-size="10.00">QtMath</text>
</g>
<!-- Node9&#45;&gt;Node12 -->
<g id="edge24" class="edge"><title>Node9&#45;&gt;Node12</title>
<path fill="none" stroke="midnightblue" d="M1069.63,-59.7793C1066.72,-59.1225 1063.82,-58.5167 1061,-58 912.252,-30.7166 732.031,-17.571 657.2,-12.9768"/>
<polygon fill="midnightblue" stroke="midnightblue" points="657.132,-9.46655 646.94,-12.3604 656.712,-16.4539 657.132,-9.46655"/>
</g>
<!-- Node16&#45;&gt;Node5 -->
<g id="edge48" class="edge"><title>Node16&#45;&gt;Node5</title>
<path fill="none" stroke="midnightblue" d="M635.641,-314.066C528.394,-310.958 218.849,-299.332 187,-268 155.091,-236.61 160.415,-178.754 166.196,-147.811"/>
<polygon fill="midnightblue" stroke="midnightblue" points="169.683,-148.228 168.278,-137.727 162.828,-146.813 169.683,-148.228"/>
</g>
<!-- Node16&#45;&gt;Node12 -->
<g id="edge50" class="edge"><title>Node16&#45;&gt;Node12</title>
<path fill="none" stroke="midnightblue" d="M635.848,-313.401C535.004,-308.667 252.18,-293.438 163,-268 84.8225,-245.701 7.10543e-15,-266.296 0,-185 0,-185 0,-185 0,-127 0,-66.8333 455.574,-24.6884 586.94,-13.7865"/>
<polygon fill="midnightblue" stroke="midnightblue" points="587.553,-17.248 597.233,-12.9414 586.98,-10.2715 587.553,-17.248"/>
</g>
<!-- Node17 -->
<g id="node34" class="node"><title>Node17</title>
<polygon fill="white" stroke="#bfbfbf" points="207.5,-239.5 207.5,-260.5 298.5,-260.5 298.5,-239.5 207.5,-239.5"/>
<text text-anchor="middle" x="253" y="-247.5" font-family="Helvetica,sans-Serif" font-size="10.00">QOpenGLWidget</text>
</g>
<!-- Node16&#45;&gt;Node17 -->
<g id="edge34" class="edge"><title>Node16&#45;&gt;Node17</title>
<path fill="none" stroke="midnightblue" d="M635.846,-312.675C569.831,-307.916 425.647,-295.144 307,-268 301.834,-266.818 296.463,-265.342 291.199,-263.746"/>
<polygon fill="midnightblue" stroke="midnightblue" points="291.883,-260.29 281.292,-260.576 289.749,-266.957 291.883,-260.29"/>
</g>
<!-- Node18 -->
<g id="node36" class="node"><title>Node18</title>
<polygon fill="white" stroke="#bfbfbf" points="315.5,-233 315.5,-267 428.5,-267 428.5,-233 315.5,-233"/>
<text text-anchor="start" x="323.5" y="-254" font-family="Helvetica,sans-Serif" font-size="10.00">QOpenGLFunctions_4</text>
<text text-anchor="middle" x="372" y="-241" font-family="Helvetica,sans-Serif" font-size="10.00">_3_Core</text>
</g>
<!-- Node16&#45;&gt;Node18 -->
<g id="edge36" class="edge"><title>Node16&#45;&gt;Node18</title>
<path fill="none" stroke="midnightblue" d="M635.992,-308.64C591.712,-300.635 514.061,-286.002 438.78,-268.347"/>
<polygon fill="midnightblue" stroke="midnightblue" points="439.195,-264.849 428.657,-265.951 437.582,-271.66 439.195,-264.849"/>
</g>
<!-- Node19 -->
<g id="node38" class="node"><title>Node19</title>
<polygon fill="white" stroke="#bfbfbf" points="445.5,-239.5 445.5,-260.5 586.5,-260.5 586.5,-239.5 445.5,-239.5"/>
<text text-anchor="middle" x="516" y="-247.5" font-family="Helvetica,sans-Serif" font-size="10.00">QOpenGLFramebufferObject</text>
</g>
<!-- Node16&#45;&gt;Node19 -->
<g id="edge38" class="edge"><title>Node16&#45;&gt;Node19</title>
<path fill="none" stroke="midnightblue" d="M646.589,-304.412C620.526,-293.552 579.8,-276.583 550.762,-264.484"/>
<polygon fill="midnightblue" stroke="midnightblue" points="551.977,-261.199 541.4,-260.584 549.285,-267.66 551.977,-261.199"/>
</g>
<!-- Node20 -->
<g id="node40" class="node"><title>Node20</title>
<polygon fill="white" stroke="#bfbfbf" points="603.5,-239.5 603.5,-260.5 658.5,-260.5 658.5,-239.5 603.5,-239.5"/>
<text text-anchor="middle" x="631" y="-247.5" font-family="Helvetica,sans-Serif" font-size="10.00">QPainter</text>
</g>
<!-- Node16&#45;&gt;Node20 -->
<g id="edge40" class="edge"><title>Node16&#45;&gt;Node20</title>
<path fill="none" stroke="midnightblue" d="M665.23,-304.267C659.2,-294.707 650.236,-280.496 642.994,-269.015"/>
<polygon fill="midnightblue" stroke="midnightblue" points="645.94,-267.124 637.644,-260.534 640.019,-270.859 645.94,-267.124"/>
</g>
<!-- Node21 -->
<g id="node42" class="node"><title>Node21</title>
<polygon fill="white" stroke="#bfbfbf" points="675.5,-239.5 675.5,-260.5 752.5,-260.5 752.5,-239.5 675.5,-239.5"/>
<text text-anchor="middle" x="714" y="-247.5" font-family="Helvetica,sans-Serif" font-size="10.00">QWheelEvent</text>
</g>
<!-- Node16&#45;&gt;Node21 -->
<g id="edge42" class="edge"><title>Node16&#45;&gt;Node21</title>
<path fill="none" stroke="midnightblue" d="M678.935,-304.267C685.113,-294.707 694.295,-280.496 701.713,-269.015"/>
<polygon fill="midnightblue" stroke="midnightblue" points="704.706,-270.832 707.194,-260.534 698.827,-267.033 704.706,-270.832"/>
</g>
<!-- Node22 -->
<g id="node44" class="node"><title>Node22</title>
<polygon fill="white" stroke="#bfbfbf" points="769.5,-239.5 769.5,-260.5 836.5,-260.5 836.5,-239.5 769.5,-239.5"/>
<text text-anchor="middle" x="803" y="-247.5" font-family="Helvetica,sans-Serif" font-size="10.00">QKeyEvent</text>
</g>
<!-- Node16&#45;&gt;Node22 -->
<g id="edge44" class="edge"><title>Node16&#45;&gt;Node22</title>
<path fill="none" stroke="midnightblue" d="M693.339,-304.412C714.845,-293.741 748.239,-277.172 772.528,-265.12"/>
<polygon fill="midnightblue" stroke="midnightblue" points="774.268,-268.164 781.67,-260.584 771.157,-261.893 774.268,-268.164"/>
</g>
<!-- Node23 -->
<g id="node46" class="node"><title>Node23</title>
<polygon fill="white" stroke="#bfbfbf" points="947.5,-116.5 947.5,-137.5 994.5,-137.5 994.5,-116.5 947.5,-116.5"/>
<text text-anchor="middle" x="971" y="-124.5" font-family="Helvetica,sans-Serif" font-size="10.00">QColor</text>
</g>
<!-- Node16&#45;&gt;Node23 -->
<g id="edge46" class="edge"><title>Node16&#45;&gt;Node23</title>
<path fill="none" stroke="midnightblue" d="M708.321,-308.954C756.081,-300.511 836.877,-284.374 862,-268 909.716,-236.901 945.168,-177.623 961.323,-146.77"/>
<polygon fill="midnightblue" stroke="midnightblue" points="964.46,-148.323 965.88,-137.824 958.222,-145.145 964.46,-148.323"/>
</g>
<!-- Node24 -->
<g id="node50" class="node"><title>Node24</title>
<a xlink:href="camera_8hpp.html" target="_top" xlink:title="camera.hpp">
<polygon fill="white" stroke="black" points="730,-116.5 730,-137.5 798,-137.5 798,-116.5 730,-116.5"/>
<text text-anchor="middle" x="764" y="-124.5" font-family="Helvetica,sans-Serif" font-size="10.00">camera.hpp</text>
</a>
</g>
<!-- Node16&#45;&gt;Node24 -->
<g id="edge52" class="edge"><title>Node16&#45;&gt;Node24</title>
<path fill="none" stroke="midnightblue" d="M635.625,-314.135C529.882,-311.246 228.185,-300.228 199,-268 188.26,-256.14 188.772,-244.304 199,-232 265.465,-152.045 598.219,-132.682 719.6,-128.247"/>
<polygon fill="midnightblue" stroke="midnightblue" points="719.791,-131.743 729.663,-127.896 719.547,-124.747 719.791,-131.743"/>
</g>
<!-- Node16&#45;&gt;Node26 -->
<g id="edge68" class="edge"><title>Node16&#45;&gt;Node26</title>
<path fill="none" stroke="midnightblue" d="M708.274,-310.054C769.207,-301.699 895.96,-284.124 1003,-268 1027.93,-264.245 1055.91,-259.79 1077.79,-256.251"/>
<polygon fill="midnightblue" stroke="midnightblue" points="1078.38,-259.701 1087.69,-254.645 1077.26,-252.791 1078.38,-259.701"/>
</g>
<!-- Node16&#45;&gt;Node34 -->
<g id="edge112" class="edge"><title>Node16&#45;&gt;Node34</title>
<path fill="none" stroke="midnightblue" d="M708.044,-310.163C756.087,-303.241 843.48,-288.982 916,-268 919.874,-266.879 923.878,-265.562 927.832,-264.16"/>
<polygon fill="midnightblue" stroke="midnightblue" points="929.318,-267.341 937.458,-260.559 926.866,-260.784 929.318,-267.341"/>
</g>
<!-- Node35 -->
<g id="node95" class="node"><title>Node35</title>
<a xlink:href="world_8hpp.html" target="_top" xlink:title="world.hpp">
<polygon fill="white" stroke="black" points="739.5,-174.5 739.5,-195.5 798.5,-195.5 798.5,-174.5 739.5,-174.5"/>
<text text-anchor="middle" x="769" y="-182.5" font-family="Helvetica,sans-Serif" font-size="10.00">world.hpp</text>
</a>
</g>
<!-- Node16&#45;&gt;Node35 -->
<g id="edge120" class="edge"><title>Node16&#45;&gt;Node35</title>
<path fill="none" stroke="midnightblue" d="M708.031,-310.359C753.69,-303.653 828.459,-289.634 845,-268 854.718,-255.289 852.789,-245.976 845,-232 836.884,-217.438 822.19,-206.82 807.87,-199.4"/>
<polygon fill="midnightblue" stroke="midnightblue" points="809.121,-196.119 798.588,-194.977 806.11,-202.438 809.121,-196.119"/>
</g>
<!-- Node24&#45;&gt;Node3 -->
<g id="edge54" class="edge"><title>Node24&#45;&gt;Node3</title>
<path fill="none" stroke="midnightblue" d="M747.889,-116.451C729.226,-102.891 702.754,-78.6349 717,-58 727.313,-43.0625 771.968,-28.6945 804.746,-19.8619"/>
<polygon fill="midnightblue" stroke="midnightblue" points="805.703,-23.2294 814.486,-17.304 803.925,-16.459 805.703,-23.2294"/>
</g>
<!-- Node24&#45;&gt;Node9 -->
<g id="edge60" class="edge"><title>Node24&#45;&gt;Node9</title>
<path fill="none" stroke="midnightblue" d="M798.067,-122.044C861.409,-112.762 995.979,-92.7051 1059.65,-80.0997"/>
<polygon fill="midnightblue" stroke="midnightblue" points="1060.5,-83.4978 1069.6,-78.0669 1059.1,-76.6395 1060.5,-83.4978"/>
</g>
<!-- Node24&#45;&gt;Node11 -->
<g id="edge56" class="edge"><title>Node24&#45;&gt;Node11</title>
<path fill="none" stroke="midnightblue" d="M780.654,-116.453C809.569,-98.1994 866.943,-62.2498 877,-58 923.123,-38.5107 979.308,-25.5526 1017.16,-18.2664"/>
<polygon fill="midnightblue" stroke="midnightblue" points="1018.14,-21.6435 1027.32,-16.361 1016.85,-14.7634 1018.14,-21.6435"/>
</g>
<!-- Node24&#45;&gt;Node12 -->
<g id="edge66" class="edge"><title>Node24&#45;&gt;Node12</title>
<path fill="none" stroke="midnightblue" d="M750.896,-116.295C726.274,-96.1819 672.912,-52.5904 643.147,-28.2752"/>
<polygon fill="midnightblue" stroke="midnightblue" points="645.032,-25.2951 635.073,-21.6792 640.603,-30.7162 645.032,-25.2951"/>
</g>
<!-- Node24&#45;&gt;Node13 -->
<g id="edge58" class="edge"><title>Node24&#45;&gt;Node13</title>
<path fill="none" stroke="midnightblue" d="M792.069,-116.497C817.01,-107.164 853.674,-93.4447 881.192,-83.1475"/>
<polygon fill="midnightblue" stroke="midnightblue" points="882.739,-86.3058 890.878,-79.5231 880.286,-79.7497 882.739,-86.3058"/>
</g>
<!-- Node24&#45;&gt;Node15 -->
<g id="edge62" class="edge"><title>Node24&#45;&gt;Node15</title>
<path fill="none" stroke="midnightblue" d="M798.085,-118.996C839.846,-109.19 911.006,-92.4804 959.464,-81.1015"/>
<polygon fill="midnightblue" stroke="midnightblue" points="960.506,-84.4521 969.441,-78.7587 958.906,-77.6375 960.506,-84.4521"/>
</g>
<!-- Node25 -->
<g id="node57" class="node"><title>Node25</title>
<polygon fill="white" stroke="#bfbfbf" points="726,-58.5 726,-79.5 830,-79.5 830,-58.5 726,-58.5"/>
<text text-anchor="middle" x="778" y="-66.5" font-family="Helvetica,sans-Serif" font-size="10.00">QPropertyAnimation</text>
</g>
<!-- Node24&#45;&gt;Node25 -->
<g id="edge64" class="edge"><title>Node24&#45;&gt;Node25</title>
<path fill="none" stroke="midnightblue" d="M766.568,-116.362C768.383,-108.84 770.875,-98.5187 773.068,-89.4308"/>
<polygon fill="midnightblue" stroke="midnightblue" points="776.504,-90.1127 775.448,-79.5707 769.7,-88.4702 776.504,-90.1127"/>
</g>
<!-- Node26&#45;&gt;Node9 -->
<g id="edge104" class="edge"><title>Node26&#45;&gt;Node9</title>
<path fill="none" stroke="midnightblue" d="M1116.8,-239.171C1118.3,-216.302 1120.88,-161.452 1115,-116 1113.86,-107.173 1111.61,-97.6239 1109.37,-89.4532"/>
<polygon fill="midnightblue" stroke="midnightblue" points="1112.68,-88.301 1106.52,-79.6827 1105.96,-90.2629 1112.68,-88.301"/>
</g>
<!-- Node26&#45;&gt;Node15 -->
<g id="edge108" class="edge"><title>Node26&#45;&gt;Node15</title>
<path fill="none" stroke="midnightblue" d="M1108.89,-239.407C1090.31,-211.737 1041.73,-139.328 1041,-138 1032.32,-122.106 1024.24,-103.188 1018.66,-89.1834"/>
<polygon fill="midnightblue" stroke="midnightblue" points="1021.8,-87.6101 1014.91,-79.5638 1015.28,-90.1522 1021.8,-87.6101"/>
</g>
<!-- Node26&#45;&gt;Node23 -->
<g id="edge106" class="edge"><title>Node26&#45;&gt;Node23</title>
<path fill="none" stroke="midnightblue" d="M1106.32,-239.33C1092.22,-224.06 1064.89,-195.448 1039,-174 1025.62,-162.917 1009.69,-151.805 996.61,-143.171"/>
<polygon fill="midnightblue" stroke="midnightblue" points="998.369,-140.139 988.078,-137.619 994.551,-146.007 998.369,-140.139"/>
</g>
<!-- Node27 -->
<g id="node62" class="node"><title>Node27</title>
<a xlink:href="geometry_8hpp.html" target="_top" xlink:title="geometry.hpp">
<polygon fill="white" stroke="black" points="1337,-174.5 1337,-195.5 1413,-195.5 1413,-174.5 1337,-174.5"/>
<text text-anchor="middle" x="1375" y="-182.5" font-family="Helvetica,sans-Serif" font-size="10.00">geometry.hpp</text>
</a>
</g>
<!-- Node26&#45;&gt;Node27 -->
<g id="edge70" class="edge"><title>Node26&#45;&gt;Node27</title>
<path fill="none" stroke="midnightblue" d="M1144.21,-242.92C1188.06,-231.916 1273.1,-210.574 1326.8,-197.095"/>
<polygon fill="midnightblue" stroke="midnightblue" points="1327.93,-200.421 1336.78,-194.592 1326.23,-193.632 1327.93,-200.421"/>
</g>
<!-- Node33 -->
<g id="node83" class="node"><title>Node33</title>
<polygon fill="white" stroke="#bfbfbf" points="1162,-116.5 1162,-137.5 1206,-137.5 1206,-116.5 1162,-116.5"/>
<text text-anchor="middle" x="1184" y="-124.5" font-family="Helvetica,sans-Serif" font-size="10.00">vector</text>
</g>
<!-- Node26&#45;&gt;Node33 -->
<g id="edge110" class="edge"><title>Node26&#45;&gt;Node33</title>
<path fill="none" stroke="midnightblue" d="M1122.55,-239.341C1129.14,-228.52 1139.52,-211.235 1148,-196 1157.1,-179.66 1166.88,-160.82 1173.95,-146.959"/>
<polygon fill="midnightblue" stroke="midnightblue" points="1177.16,-148.354 1178.57,-137.853 1170.92,-145.188 1177.16,-148.354"/>
</g>
<!-- Node27&#45;&gt;Node3 -->
<g id="edge72" class="edge"><title>Node27&#45;&gt;Node3</title>
<path fill="none" stroke="midnightblue" d="M1367.22,-174.259C1345.14,-143.782 1283.55,-58.8949 1282,-58 1247.28,-38.0049 977.432,-19.451 877.801,-13.2154"/>
<polygon fill="midnightblue" stroke="midnightblue" points="877.805,-9.70899 867.608,-12.5833 877.372,-16.6956 877.805,-9.70899"/>
</g>
<!-- Node27&#45;&gt;Node7 -->
<g id="edge102" class="edge"><title>Node27&#45;&gt;Node7</title>
<path fill="none" stroke="midnightblue" d="M1336.71,-181.622C1260.71,-174.753 1085.52,-158.09 939,-138 926.84,-136.333 913.475,-134.168 901.971,-132.2"/>
<polygon fill="midnightblue" stroke="midnightblue" points="902.47,-128.735 892.018,-130.469 901.27,-135.631 902.47,-128.735"/>
</g>
<!-- Node27&#45;&gt;Node8 -->
<g id="edge88" class="edge"><title>Node27&#45;&gt;Node8</title>
<path fill="none" stroke="midnightblue" d="M1336.78,-177.536C1280,-166.447 1173.93,-145.734 1116.81,-134.578"/>
<polygon fill="midnightblue" stroke="midnightblue" points="1117.22,-131.093 1106.73,-132.611 1115.88,-137.963 1117.22,-131.093"/>
</g>
<!-- Node27&#45;&gt;Node9 -->
<g id="edge86" class="edge"><title>Node27&#45;&gt;Node9</title>
<path fill="none" stroke="midnightblue" d="M1399.43,-174.45C1426.63,-161.282 1464.37,-137.828 1445,-116 1402.35,-67.9307 1226.98,-90.3774 1146.61,-79.8135"/>
<polygon fill="midnightblue" stroke="midnightblue" points="1146.8,-76.3005 1136.38,-78.1816 1145.7,-83.2131 1146.8,-76.3005"/>
</g>
<!-- Node27&#45;&gt;Node11 -->
<g id="edge74" class="edge"><title>Node27&#45;&gt;Node11</title>
<path fill="none" stroke="midnightblue" d="M1413.29,-183.012C1504.18,-177.903 1727,-162.936 1749,-138 1755.47,-130.668 1755.4,-123.394 1749,-116 1655.83,-8.33698 1261,-49.4701 1102.67,-22.0252"/>
<polygon fill="midnightblue" stroke="midnightblue" points="1103.07,-18.538 1092.59,-20.116 1101.76,-25.4158 1103.07,-18.538"/>
</g>
<!-- Node27&#45;&gt;Node14 -->
<g id="edge76" class="edge"><title>Node27&#45;&gt;Node14</title>
<path fill="none" stroke="midnightblue" d="M1413.22,-184.045C1479.71,-181.49 1612.37,-172.133 1641,-138 1647.28,-130.509 1647.53,-123.275 1641,-116 1616.47,-88.6788 1381.29,-75.8438 1266.89,-71.1778"/>
<polygon fill="midnightblue" stroke="midnightblue" points="1267,-67.6796 1256.87,-70.7775 1266.72,-74.674 1267,-67.6796"/>
</g>
<!-- Node27&#45;&gt;Node23 -->
<g id="edge84" class="edge"><title>Node27&#45;&gt;Node23</title>
<path fill="none" stroke="midnightblue" d="M1336.9,-179.842C1274.86,-171.396 1148.15,-153.957 1041,-138 1029.17,-136.238 1016.23,-134.228 1004.72,-132.412"/>
<polygon fill="midnightblue" stroke="midnightblue" points="1005.06,-128.922 994.639,-130.811 1003.97,-135.835 1005.06,-128.922"/>
</g>
<!-- Node28 -->
<g id="node67" class="node"><title>Node28</title>
<polygon fill="white" stroke="#bfbfbf" points="1796,-116.5 1796,-137.5 1924,-137.5 1924,-116.5 1796,-116.5"/>
<text text-anchor="middle" x="1860" y="-124.5" font-family="Helvetica,sans-Serif" font-size="10.00">QOpenGLShaderProgram</text>
</g>
<!-- Node27&#45;&gt;Node28 -->
<g id="edge78" class="edge"><title>Node27&#45;&gt;Node28</title>
<path fill="none" stroke="midnightblue" d="M1413.2,-180.913C1485.33,-173.123 1646.54,-155.37 1782,-138 1783.26,-137.839 1784.53,-137.674 1785.81,-137.508"/>
<polygon fill="midnightblue" stroke="midnightblue" points="1786.29,-140.975 1795.74,-136.192 1785.37,-134.035 1786.29,-140.975"/>
</g>
<!-- Node29 -->
<g id="node69" class="node"><title>Node29</title>
<polygon fill="white" stroke="#bfbfbf" points="1350,-116.5 1350,-137.5 1436,-137.5 1436,-116.5 1350,-116.5"/>
<text text-anchor="middle" x="1393" y="-124.5" font-family="Helvetica,sans-Serif" font-size="10.00">QOpenGLBuffer</text>
</g>
<!-- Node27&#45;&gt;Node29 -->
<g id="edge80" class="edge"><title>Node27&#45;&gt;Node29</title>
<path fill="none" stroke="midnightblue" d="M1378.3,-174.362C1380.66,-166.758 1383.91,-156.294 1386.75,-147.135"/>
<polygon fill="midnightblue" stroke="midnightblue" points="1390.1,-148.159 1389.72,-137.571 1383.41,-146.084 1390.1,-148.159"/>
</g>
<!-- Node30 -->
<g id="node71" class="node"><title>Node30</title>
<polygon fill="white" stroke="#bfbfbf" points="1492,-116.5 1492,-137.5 1632,-137.5 1632,-116.5 1492,-116.5"/>
<text text-anchor="middle" x="1562" y="-124.5" font-family="Helvetica,sans-Serif" font-size="10.00">QOpenGLVertexArrayObject</text>
</g>
<!-- Node27&#45;&gt;Node30 -->
<g id="edge82" class="edge"><title>Node27&#45;&gt;Node30</title>
<path fill="none" stroke="midnightblue" d="M1408.86,-174.497C1439.48,-165 1484.74,-150.962 1518.12,-140.609"/>
<polygon fill="midnightblue" stroke="midnightblue" points="1519.56,-143.828 1528.07,-137.523 1517.48,-137.143 1519.56,-143.828"/>
</g>
<!-- Node31 -->
<g id="node76" class="node"><title>Node31</title>
<a xlink:href="material_8hpp.html" target="_top" xlink:title="material.hpp">
<polygon fill="white" stroke="black" points="1224,-116.5 1224,-137.5 1294,-137.5 1294,-116.5 1224,-116.5"/>
<text text-anchor="middle" x="1259" y="-124.5" font-family="Helvetica,sans-Serif" font-size="10.00">material.hpp</text>
</a>
</g>
<!-- Node27&#45;&gt;Node31 -->
<g id="edge90" class="edge"><title>Node27&#45;&gt;Node31</title>
<path fill="none" stroke="midnightblue" d="M1353.99,-174.497C1335.96,-165.479 1309.73,-152.365 1289.4,-142.201"/>
<polygon fill="midnightblue" stroke="midnightblue" points="1290.75,-138.963 1280.24,-137.621 1287.62,-145.224 1290.75,-138.963"/>
</g>
<!-- Node32 -->
<g id="node81" class="node"><title>Node32</title>
<polygon fill="white" stroke="#bfbfbf" points="1688,-116.5 1688,-137.5 1740,-137.5 1740,-116.5 1688,-116.5"/>
<text text-anchor="middle" x="1714" y="-124.5" font-family="Helvetica,sans-Serif" font-size="10.00">memory</text>
</g>
<!-- Node27&#45;&gt;Node32 -->
<g id="edge98" class="edge"><title>Node27&#45;&gt;Node32</title>
<path fill="none" stroke="midnightblue" d="M1413.01,-180.418C1470.05,-173.229 1581.02,-158.026 1674,-138 1675.27,-137.727 1676.55,-137.438 1677.85,-137.137"/>
<polygon fill="midnightblue" stroke="midnightblue" points="1679,-140.458 1687.85,-134.643 1677.3,-133.666 1679,-140.458"/>
</g>
<!-- Node27&#45;&gt;Node33 -->
<g id="edge100" class="edge"><title>Node27&#45;&gt;Node33</title>
<path fill="none" stroke="midnightblue" d="M1337,-174.475C1306.56,-165.904 1262.58,-153.201 1215.97,-138.209"/>
<polygon fill="midnightblue" stroke="midnightblue" points="1216.89,-134.83 1206.3,-135.079 1214.74,-141.49 1216.89,-134.83"/>
</g>
<!-- Node31&#45;&gt;Node3 -->
<g id="edge92" class="edge"><title>Node31&#45;&gt;Node3</title>
<path fill="none" stroke="midnightblue" d="M1264.2,-116.38C1270.7,-101.381 1279.36,-74.036 1265,-58 1252.1,-43.5942 978.028,-21.4104 877.526,-13.7288"/>
<polygon fill="midnightblue" stroke="midnightblue" points="877.764,-10.2369 867.527,-12.9687 877.233,-17.2167 877.764,-10.2369"/>
</g>
<!-- Node31&#45;&gt;Node9 -->
<g id="edge94" class="edge"><title>Node31&#45;&gt;Node9</title>
<path fill="none" stroke="midnightblue" d="M1230.75,-116.497C1205.54,-107.123 1168.42,-93.3242 1140.69,-83.0122"/>
<polygon fill="midnightblue" stroke="midnightblue" points="1141.9,-79.7274 1131.3,-79.5231 1139.46,-86.2886 1141.9,-79.7274"/>
</g>
<!-- Node31&#45;&gt;Node15 -->
<g id="edge96" class="edge"><title>Node31&#45;&gt;Node15</title>
<path fill="none" stroke="midnightblue" d="M1223.95,-118.175C1220.92,-117.432 1217.91,-116.699 1215,-116 1163.25,-103.572 1103.96,-89.9844 1062.69,-80.6299"/>
<polygon fill="midnightblue" stroke="midnightblue" points="1063.38,-77.1994 1052.86,-78.4054 1061.84,-84.0267 1063.38,-77.1994"/>
</g>
<!-- Node34&#45;&gt;Node15 -->
<g id="edge116" class="edge"><title>Node34&#45;&gt;Node15</title>
<path fill="none" stroke="midnightblue" d="M940.045,-239.493C896.919,-217.451 808.397,-164.405 845,-116 848.595,-111.246 911.898,-94.2331 959.268,-82.0438"/>
<polygon fill="midnightblue" stroke="midnightblue" points="960.289,-85.3953 969.107,-79.5221 958.551,-78.6144 960.289,-85.3953"/>
</g>
<!-- Node34&#45;&gt;Node23 -->
<g id="edge118" class="edge"><title>Node34&#45;&gt;Node23</title>
<path fill="none" stroke="midnightblue" d="M962.799,-239.085C964.297,-218.609 967.551,-174.133 969.48,-147.778"/>
<polygon fill="midnightblue" stroke="midnightblue" points="972.977,-147.944 970.216,-137.715 965.995,-147.433 972.977,-147.944"/>
</g>
<!-- Node34&#45;&gt;Node27 -->
<g id="edge114" class="edge"><title>Node34&#45;&gt;Node27</title>
<path fill="none" stroke="midnightblue" d="M994.753,-244.845C1067.35,-233.419 1242.08,-205.92 1327.02,-192.551"/>
<polygon fill="midnightblue" stroke="midnightblue" points="1327.59,-196.005 1336.92,-190.993 1326.5,-189.09 1327.59,-196.005"/>
</g>
<!-- Node35&#45;&gt;Node3 -->
<g id="edge126" class="edge"><title>Node35&#45;&gt;Node3</title>
<path fill="none" stroke="midnightblue" d="M754.169,-174.308C743.338,-165.709 729.173,-152.672 721,-138 703.471,-106.531 687.201,-87.4102 708,-58 719.39,-41.8946 769.113,-27.4469 804.414,-18.9484"/>
<polygon fill="midnightblue" stroke="midnightblue" points="805.458,-22.2987 814.395,-16.6097 803.861,-15.4833 805.458,-22.2987"/>
</g>
<!-- Node35&#45;&gt;Node6 -->
<g id="edge128" class="edge"><title>Node35&#45;&gt;Node6</title>
<path fill="none" stroke="midnightblue" d="M739.422,-179.954C675.297,-169.015 524.047,-143.214 459.286,-132.166"/>
<polygon fill="midnightblue" stroke="midnightblue" points="459.751,-128.695 449.304,-130.464 458.573,-135.596 459.751,-128.695"/>
</g>
<!-- Node35&#45;&gt;Node8 -->
<g id="edge124" class="edge"><title>Node35&#45;&gt;Node8</title>
<path fill="none" stroke="midnightblue" d="M798.628,-179.439C854.862,-168.883 977.018,-145.955 1039.5,-134.226"/>
<polygon fill="midnightblue" stroke="midnightblue" points="1040.18,-137.66 1049.36,-132.376 1038.89,-130.781 1040.18,-137.66"/>
</g>
<!-- Node35&#45;&gt;Node9 -->
<g id="edge122" class="edge"><title>Node35&#45;&gt;Node9</title>
<path fill="none" stroke="midnightblue" d="M798.711,-176.138C825.875,-167.636 866.892,-153.785 901,-138 918.711,-129.804 921.04,-123.635 939,-116 950.277,-111.206 1015.5,-92.9705 1060.22,-80.6744"/>
<polygon fill="midnightblue" stroke="midnightblue" points="1061.26,-84.0171 1069.98,-77.9948 1059.41,-77.2669 1061.26,-84.0171"/>
</g>
<!-- Node36&#45;&gt;Node27 -->
<g id="edge136" class="edge"><title>Node36&#45;&gt;Node27</title>
<path fill="none" stroke="midnightblue" d="M1406.22,-304.362C1400.59,-282.841 1387.76,-233.807 1380.42,-205.74"/>
<polygon fill="midnightblue" stroke="midnightblue" points="1383.74,-204.574 1377.82,-195.785 1376.97,-206.346 1383.74,-204.574"/>
</g>
<!-- Node37&#45;&gt;Node27 -->
<g id="edge140" class="edge"><title>Node37&#45;&gt;Node27</title>
<path fill="none" stroke="midnightblue" d="M1487.93,-304.362C1466.94,-282.174 1418.28,-230.743 1392.21,-203.194"/>
<polygon fill="midnightblue" stroke="midnightblue" points="1394.62,-200.644 1385.2,-195.785 1389.54,-205.455 1394.62,-200.644"/>
</g>
<!-- Node38&#45;&gt;Node27 -->
<g id="edge144" class="edge"><title>Node38&#45;&gt;Node27</title>
<path fill="none" stroke="midnightblue" d="M1559.3,-304.384C1535.7,-288.469 1489.62,-257.562 1450,-232 1433.79,-221.544 1415.45,-210.044 1400.96,-201.036"/>
<polygon fill="midnightblue" stroke="midnightblue" points="1402.4,-197.81 1392.06,-195.513 1398.71,-203.759 1402.4,-197.81"/>
</g>
<!-- Node39&#45;&gt;Node27 -->
<g id="edge148" class="edge"><title>Node39&#45;&gt;Node27</title>
<path fill="none" stroke="midnightblue" d="M1248.29,-304.362C1271.95,-282.079 1326.91,-230.301 1356.06,-202.841"/>
<polygon fill="midnightblue" stroke="midnightblue" points="1358.67,-205.19 1363.55,-195.785 1353.87,-200.095 1358.67,-205.19"/>
</g>
<!-- Node40&#45;&gt;Node8 -->
<g id="edge154" class="edge"><title>Node40&#45;&gt;Node8</title>
<path fill="none" stroke="midnightblue" d="M1017.57,-174.362C1028.42,-165.859 1043.83,-153.779 1056.38,-143.947"/>
<polygon fill="midnightblue" stroke="midnightblue" points="1058.8,-146.494 1064.51,-137.571 1054.48,-140.985 1058.8,-146.494"/>
</g>
<!-- Node40&#45;&gt;Node23 -->
<g id="edge152" class="edge"><title>Node40&#45;&gt;Node23</title>
<path fill="none" stroke="midnightblue" d="M997.947,-174.362C993.528,-166.595 987.41,-155.843 982.121,-146.546"/>
<polygon fill="midnightblue" stroke="midnightblue" points="985.002,-144.531 977.014,-137.571 978.918,-147.993 985.002,-144.531"/>
</g>
<!-- Node41&#45;&gt;Node40 -->
<g id="edge158" class="edge"><title>Node41&#45;&gt;Node40</title>
<path fill="none" stroke="midnightblue" d="M1066.48,-304.461C1060.94,-288.382 1049.42,-256.962 1036,-232 1030.85,-222.422 1024.21,-212.385 1018.31,-204.057"/>
<polygon fill="midnightblue" stroke="midnightblue" points="1021.02,-201.828 1012.31,-195.793 1015.35,-205.941 1021.02,-201.828"/>
</g>
<!-- Node42&#45;&gt;Node27 -->
<g id="edge162" class="edge"><title>Node42&#45;&gt;Node27</title>
<path fill="none" stroke="midnightblue" d="M1327.26,-304.362C1335.9,-282.746 1355.65,-233.372 1366.85,-205.369"/>
<polygon fill="midnightblue" stroke="midnightblue" points="1370.22,-206.37 1370.69,-195.785 1363.72,-203.77 1370.22,-206.37"/>
</g>
</g>
</svg>
