<?xml version="1.0" encoding="UTF-8" standalone="no"?>
<!DOCTYPE svg PUBLIC "-//W3C//DTD SVG 1.1//EN"
 "http://www.w3.org/Graphics/SVG/1.1/DTD/svg11.dtd">
<!-- Generated by graphviz version 2.26.3 (20100126.1600)
 -->
<!-- Title: src/actor.cpp Pages: 1 -->
<!--zoomable 392 -->
<svg id="main" version="1.1" xmlns="http://www.w3.org/2000/svg" xmlns:xlink="http://www.w3.org/1999/xlink" xml:space="preserve" onload="init(evt)">
<style type="text/css"><![CDATA[
.edge:hover path { stroke: red; }
.edge:hover polygon { stroke: red; fill: red; }
]]></style>
<script type="text/javascript"><![CDATA[
var edges = document.getElementsByTagName('g');
if (edges && edges.length) {
  for (var i=0;i<edges.length;i++) {
    if (edges[i].id.substr(0,4)=='edge') {
      edges[i].setAttribute('class','edge');
    }
  }
}
]]></script>
        <defs>
                <circle id="rim" cx="0" cy="0" r="7"/>
                <circle id="rim2" cx="0" cy="0" r="3.5"/>
                <g id="zoomPlus">
                        <use xlink:href="#rim" fill="#404040">
                                <set attributeName="fill" to="#808080" begin="zoomplus.mouseover" end="zoomplus.mouseout"/>
                        </use>
                        <path d="M-4,0h8M0,-4v8" fill="none" stroke="white" stroke-width="1.5" pointer-events="none"/>
                </g>
                <g id="zoomMin">
                        <use xlink:href="#rim" fill="#404040">
                                <set attributeName="fill" to="#808080" begin="zoomminus.mouseover" end="zoomminus.mouseout"/>
                        </use>
                        <path d="M-4,0h8" fill="none" stroke="white" stroke-width="1.5" pointer-events="none"/>
                </g>
                <g id="dirArrow">
                        <path fill="none" stroke="white" stroke-width="1.5" d="M0,-3.0v7 M-2.5,-0.5L0,-3.0L2.5,-0.5"/>
                </g>
               <g id="resetDef">
                       <use xlink:href="#rim2" fill="#404040">
                               <set attributeName="fill" to="#808080" begin="reset.mouseover" end="reset.mouseout"/>
                       </use>
               </g>
        </defs>

<script type="text/javascript">
var viewWidth = 1405;
var viewHeight = 392;
var sectionId = 'dynsection-0';
</script>
<script xlink:href="svgpan.js"/>
<svg id="graph" class="graph">
<g id="viewport">
<title>src/actor.cpp</title>
<polygon fill="white" stroke="white" points="-4,5 -4,-388 1402.4,-388 1402.4,5 -4,5"/>
<!-- Node1 -->
<g id="node1" class="node"><title>Node1</title>
<polygon fill="#bfbfbf" stroke="black" points="909.398,-362.5 909.398,-383.5 983.398,-383.5 983.398,-362.5 909.398,-362.5"/>
<text text-anchor="middle" x="946.398" y="-370.5" font-family="Helvetica,sans-Serif" font-size="10.00">src/actor.cpp</text>
</g>
<!-- Node2 -->
<g id="node3" class="node"><title>Node2</title>
<a xlink:href="actor_8hpp.html" target="_top" xlink:title="actor.hpp">
<polygon fill="white" stroke="black" points="997.898,-116.5 997.898,-137.5 1054.9,-137.5 1054.9,-116.5 997.898,-116.5"/>
<text text-anchor="middle" x="1026.4" y="-124.5" font-family="Helvetica,sans-Serif" font-size="10.00">actor.hpp</text>
</a>
</g>
<!-- Node1&#45;&gt;Node2 -->
<g id="edge2" class="edge"><title>Node1&#45;&gt;Node2</title>
<path fill="none" stroke="midnightblue" d="M956.059,-362.164C963.681,-353.089 974.054,-339.487 980.398,-326 1008.99,-265.225 1020.45,-185.447 1024.48,-148.055"/>
<polygon fill="midnightblue" stroke="midnightblue" points="1027.99,-148.179 1025.51,-137.879 1021.02,-147.478 1027.99,-148.179"/>
</g>
<!-- Node11 -->
<g id="node21" class="node"><title>Node11</title>
<polygon fill="white" stroke="#bfbfbf" points="921.398,-304.5 921.398,-325.5 971.398,-325.5 971.398,-304.5 921.398,-304.5"/>
<text text-anchor="middle" x="946.398" y="-312.5" font-family="Helvetica,sans-Serif" font-size="10.00">QEvent</text>
</g>
<!-- Node1&#45;&gt;Node11 -->
<g id="edge20" class="edge"><title>Node1&#45;&gt;Node11</title>
<path fill="none" stroke="midnightblue" d="M946.398,-362.362C946.398,-354.922 946.398,-344.743 946.398,-335.728"/>
<polygon fill="midnightblue" stroke="midnightblue" points="949.898,-335.571 946.398,-325.571 942.898,-335.571 949.898,-335.571"/>
</g>
<!-- Node12 -->
<g id="node23" class="node"><title>Node12</title>
<a xlink:href="viewport_8hpp.html" target="_top" xlink:title="viewport.hpp">
<polygon fill="white" stroke="black" points="763.398,-304.5 763.398,-325.5 835.398,-325.5 835.398,-304.5 763.398,-304.5"/>
<text text-anchor="middle" x="799.398" y="-312.5" font-family="Helvetica,sans-Serif" font-size="10.00">viewport.hpp</text>
</a>
</g>
<!-- Node1&#45;&gt;Node12 -->
<g id="edge22" class="edge"><title>Node1&#45;&gt;Node12</title>
<path fill="none" stroke="midnightblue" d="M919.778,-362.497C896.301,-353.234 861.873,-339.65 835.842,-329.379"/>
<polygon fill="midnightblue" stroke="midnightblue" points="836.904,-326.036 826.317,-325.621 834.335,-332.547 836.904,-326.036"/>
</g>
<!-- Node3 -->
<g id="node5" class="node"><title>Node3</title>
<a xlink:href="globals_8hpp.html" target="_top" xlink:title="Definitions globales. ">
<polygon fill="white" stroke="black" points="845.398,-58.5 845.398,-79.5 911.398,-79.5 911.398,-58.5 845.398,-58.5"/>
<text text-anchor="middle" x="878.398" y="-66.5" font-family="Helvetica,sans-Serif" font-size="10.00">globals.hpp</text>
</a>
</g>
<!-- Node2&#45;&gt;Node3 -->
<g id="edge4" class="edge"><title>Node2&#45;&gt;Node3</title>
<path fill="none" stroke="midnightblue" d="M999.596,-116.497C975.96,-107.234 941.298,-93.6499 915.09,-83.3793"/>
<polygon fill="midnightblue" stroke="midnightblue" points="916.088,-80.0113 905.501,-79.6212 913.534,-86.5287 916.088,-80.0113"/>
</g>
<!-- Node8 -->
<g id="node15" class="node"><title>Node8</title>
<polygon fill="white" stroke="#bfbfbf" points="1028.9,-58.5 1028.9,-79.5 1095.9,-79.5 1095.9,-58.5 1028.9,-58.5"/>
<text text-anchor="middle" x="1062.4" y="-66.5" font-family="Helvetica,sans-Serif" font-size="10.00">QMatrix4x4</text>
</g>
<!-- Node2&#45;&gt;Node8 -->
<g id="edge14" class="edge"><title>Node2&#45;&gt;Node8</title>
<path fill="none" stroke="midnightblue" d="M1033,-116.362C1037.87,-108.513 1044.64,-97.6159 1050.45,-88.2527"/>
<polygon fill="midnightblue" stroke="midnightblue" points="1053.54,-89.9129 1055.84,-79.5707 1047.59,-86.2213 1053.54,-89.9129"/>
</g>
<!-- Node9 -->
<g id="node17" class="node"><title>Node9</title>
<polygon fill="white" stroke="#bfbfbf" points="686.898,-58.5 686.898,-79.5 789.898,-79.5 789.898,-58.5 686.898,-58.5"/>
<text text-anchor="middle" x="738.398" y="-66.5" font-family="Helvetica,sans-Serif" font-size="10.00">QOpenGLFunctions</text>
</g>
<!-- Node2&#45;&gt;Node9 -->
<g id="edge16" class="edge"><title>Node2&#45;&gt;Node9</title>
<path fill="none" stroke="midnightblue" d="M997.731,-121.227C951.907,-111.998 861.117,-93.7142 800.064,-81.4188"/>
<polygon fill="midnightblue" stroke="midnightblue" points="800.651,-77.9669 790.157,-79.4237 799.269,-84.8291 800.651,-77.9669"/>
</g>
<!-- Node10 -->
<g id="node19" class="node"><title>Node10</title>
<polygon fill="white" stroke="#bfbfbf" points="928.898,-58.5 928.898,-79.5 1011.9,-79.5 1011.9,-58.5 928.898,-58.5"/>
<text text-anchor="middle" x="970.398" y="-66.5" font-family="Helvetica,sans-Serif" font-size="10.00">QMetaProperty</text>
</g>
<!-- Node2&#45;&gt;Node10 -->
<g id="edge18" class="edge"><title>Node2&#45;&gt;Node10</title>
<path fill="none" stroke="midnightblue" d="M1016.13,-116.362C1008.15,-108.104 996.923,-96.4725 987.587,-86.8029"/>
<polygon fill="midnightblue" stroke="midnightblue" points="990.068,-84.3336 980.604,-79.5707 985.032,-89.1958 990.068,-84.3336"/>
</g>
<!-- Node4 -->
<g id="node7" class="node"><title>Node4</title>
<polygon fill="white" stroke="#bfbfbf" points="851.898,-0.5 851.898,-21.5 904.898,-21.5 904.898,-0.5 851.898,-0.5"/>
<text text-anchor="middle" x="878.398" y="-8.5" font-family="Helvetica,sans-Serif" font-size="10.00">QObject</text>
</g>
<!-- Node3&#45;&gt;Node4 -->
<g id="edge6" class="edge"><title>Node3&#45;&gt;Node4</title>
<path fill="none" stroke="midnightblue" d="M878.398,-58.3619C878.398,-50.9219 878.398,-40.7427 878.398,-31.7276"/>
<polygon fill="midnightblue" stroke="midnightblue" points="881.898,-31.5706 878.398,-21.5707 874.898,-31.5707 881.898,-31.5706"/>
</g>
<!-- Node5 -->
<g id="node9" class="node"><title>Node5</title>
<polygon fill="white" stroke="#bfbfbf" points="921.898,-0.5 921.898,-21.5 992.898,-21.5 992.898,-0.5 921.898,-0.5"/>
<text text-anchor="middle" x="957.398" y="-8.5" font-family="Helvetica,sans-Serif" font-size="10.00">QQuaternion</text>
</g>
<!-- Node3&#45;&gt;Node5 -->
<g id="edge8" class="edge"><title>Node3&#45;&gt;Node5</title>
<path fill="none" stroke="midnightblue" d="M892.888,-58.3619C904.581,-49.7773 921.241,-37.5459 934.701,-27.6636"/>
<polygon fill="midnightblue" stroke="midnightblue" points="937.011,-30.31 943,-21.5707 932.868,-24.6675 937.011,-30.31"/>
</g>
<!-- Node6 -->
<g id="node11" class="node"><title>Node6</title>
<polygon fill="white" stroke="#bfbfbf" points="769.898,-0.5 769.898,-21.5 834.898,-21.5 834.898,-0.5 769.898,-0.5"/>
<text text-anchor="middle" x="802.398" y="-8.5" font-family="Helvetica,sans-Serif" font-size="10.00">QVector3D</text>
</g>
<!-- Node3&#45;&gt;Node6 -->
<g id="edge10" class="edge"><title>Node3&#45;&gt;Node6</title>
<path fill="none" stroke="midnightblue" d="M864.459,-58.3619C853.21,-49.7773 837.182,-37.5459 824.233,-27.6636"/>
<polygon fill="midnightblue" stroke="midnightblue" points="826.322,-24.8551 816.249,-21.5707 822.075,-30.4198 826.322,-24.8551"/>
</g>
<!-- Node7 -->
<g id="node13" class="node"><title>Node7</title>
<polygon fill="white" stroke="#bfbfbf" points="1334.9,-0.5 1334.9,-21.5 1383.9,-21.5 1383.9,-0.5 1334.9,-0.5"/>
<text text-anchor="middle" x="1359.4" y="-8.5" font-family="Helvetica,sans-Serif" font-size="10.00">QtMath</text>
</g>
<!-- Node3&#45;&gt;Node7 -->
<g id="edge12" class="edge"><title>Node3&#45;&gt;Node7</title>
<path fill="none" stroke="midnightblue" d="M911.768,-59.7793C914.674,-59.1225 917.581,-58.5167 920.398,-58 1069.15,-30.7166 1249.37,-17.571 1324.2,-12.9768"/>
<polygon fill="midnightblue" stroke="midnightblue" points="1324.69,-16.4539 1334.46,-12.3604 1324.27,-9.46655 1324.69,-16.4539"/>
</g>
<!-- Node12&#45;&gt;Node7 -->
<g id="edge40" class="edge"><title>Node12&#45;&gt;Node7</title>
<path fill="none" stroke="midnightblue" d="M835.459,-311.034C964.747,-296.338 1397.4,-242.837 1397.4,-185 1397.4,-185 1397.4,-185 1397.4,-127 1397.4,-91.7411 1381.35,-53.3154 1370.11,-30.7323"/>
<polygon fill="midnightblue" stroke="midnightblue" points="1373.2,-29.0901 1365.5,-21.809 1366.98,-32.3005 1373.2,-29.0901"/>
</g>
<!-- Node13 -->
<g id="node25" class="node"><title>Node13</title>
<polygon fill="white" stroke="#bfbfbf" points="90.8981,-239.5 90.8981,-260.5 181.898,-260.5 181.898,-239.5 90.8981,-239.5"/>
<text text-anchor="middle" x="136.398" y="-247.5" font-family="Helvetica,sans-Serif" font-size="10.00">QOpenGLWidget</text>
</g>
<!-- Node12&#45;&gt;Node13 -->
<g id="edge24" class="edge"><title>Node12&#45;&gt;Node13</title>
<path fill="none" stroke="midnightblue" d="M763.394,-313.379C650,-308.093 301.227,-290.395 190.398,-268 184.889,-266.887 179.162,-265.38 173.587,-263.709"/>
<polygon fill="midnightblue" stroke="midnightblue" points="174.385,-260.289 163.794,-260.574 172.251,-266.956 174.385,-260.289"/>
</g>
<!-- Node14 -->
<g id="node27" class="node"><title>Node14</title>
<polygon fill="white" stroke="#bfbfbf" points="198.898,-233 198.898,-267 311.898,-267 311.898,-233 198.898,-233"/>
<text text-anchor="start" x="206.898" y="-254" font-family="Helvetica,sans-Serif" font-size="10.00">QOpenGLFunctions_4</text>
<text text-anchor="middle" x="255.398" y="-241" font-family="Helvetica,sans-Serif" font-size="10.00">_3_Core</text>
</g>
<!-- Node12&#45;&gt;Node14 -->
<g id="edge26" class="edge"><title>Node12&#45;&gt;Node14</title>
<path fill="none" stroke="midnightblue" d="M763.348,-313.585C684.665,-310.045 491.618,-298.894 321.844,-268.104"/>
<polygon fill="midnightblue" stroke="midnightblue" points="322.453,-264.657 311.984,-266.288 321.185,-271.541 322.453,-264.657"/>
</g>
<!-- Node15 -->
<g id="node29" class="node"><title>Node15</title>
<polygon fill="white" stroke="#bfbfbf" points="328.898,-239.5 328.898,-260.5 469.898,-260.5 469.898,-239.5 328.898,-239.5"/>
<text text-anchor="middle" x="399.398" y="-247.5" font-family="Helvetica,sans-Serif" font-size="10.00">QOpenGLFramebufferObject</text>
</g>
<!-- Node12&#45;&gt;Node15 -->
<g id="edge28" class="edge"><title>Node12&#45;&gt;Node15</title>
<path fill="none" stroke="midnightblue" d="M763.14,-310.636C703.509,-303.246 581.101,-287.188 478.398,-268 470.05,-266.44 461.245,-264.615 452.664,-262.736"/>
<polygon fill="midnightblue" stroke="midnightblue" points="453.256,-259.282 442.733,-260.519 451.73,-266.114 453.256,-259.282"/>
</g>
<!-- Node16 -->
<g id="node31" class="node"><title>Node16</title>
<polygon fill="white" stroke="#bfbfbf" points="486.898,-239.5 486.898,-260.5 541.898,-260.5 541.898,-239.5 486.898,-239.5"/>
<text text-anchor="middle" x="514.398" y="-247.5" font-family="Helvetica,sans-Serif" font-size="10.00">QPainter</text>
</g>
<!-- Node12&#45;&gt;Node16 -->
<g id="edge30" class="edge"><title>Node12&#45;&gt;Node16</title>
<path fill="none" stroke="midnightblue" d="M763.142,-311.344C713.946,-305.672 623.769,-292.731 550.398,-268 547.667,-267.079 544.881,-265.988 542.129,-264.805"/>
<polygon fill="midnightblue" stroke="midnightblue" points="543.573,-261.616 533.032,-260.544 540.603,-267.955 543.573,-261.616"/>
</g>
<!-- Node17 -->
<g id="node33" class="node"><title>Node17</title>
<polygon fill="white" stroke="#bfbfbf" points="558.898,-239.5 558.898,-260.5 635.898,-260.5 635.898,-239.5 558.898,-239.5"/>
<text text-anchor="middle" x="597.398" y="-247.5" font-family="Helvetica,sans-Serif" font-size="10.00">QWheelEvent</text>
</g>
<!-- Node12&#45;&gt;Node17 -->
<g id="edge32" class="edge"><title>Node12&#45;&gt;Node17</title>
<path fill="none" stroke="midnightblue" d="M763.147,-304.801C731.585,-295.733 684.7,-281.808 644.398,-268 640.885,-266.796 637.243,-265.496 633.612,-264.165"/>
<polygon fill="midnightblue" stroke="midnightblue" points="634.713,-260.84 624.121,-260.613 632.259,-267.396 634.713,-260.84"/>
</g>
<!-- Node18 -->
<g id="node35" class="node"><title>Node18</title>
<polygon fill="white" stroke="#bfbfbf" points="652.898,-239.5 652.898,-260.5 719.898,-260.5 719.898,-239.5 652.898,-239.5"/>
<text text-anchor="middle" x="686.398" y="-247.5" font-family="Helvetica,sans-Serif" font-size="10.00">QKeyEvent</text>
</g>
<!-- Node12&#45;&gt;Node18 -->
<g id="edge34" class="edge"><title>Node12&#45;&gt;Node18</title>
<path fill="none" stroke="midnightblue" d="M780.991,-304.412C762.687,-293.883 734.398,-277.611 713.522,-265.602"/>
<polygon fill="midnightblue" stroke="midnightblue" points="715.211,-262.536 704.797,-260.584 711.72,-268.604 715.211,-262.536"/>
</g>
<!-- Node19 -->
<g id="node37" class="node"><title>Node19</title>
<polygon fill="white" stroke="#bfbfbf" points="895.898,-116.5 895.898,-137.5 942.898,-137.5 942.898,-116.5 895.898,-116.5"/>
<text text-anchor="middle" x="919.398" y="-124.5" font-family="Helvetica,sans-Serif" font-size="10.00">QColor</text>
</g>
<!-- Node12&#45;&gt;Node19 -->
<g id="edge36" class="edge"><title>Node12&#45;&gt;Node19</title>
<path fill="none" stroke="midnightblue" d="M835.453,-310.597C882.077,-304.076 959.341,-290.178 976.398,-268 1005.99,-229.521 963.681,-173.588 937.48,-145.117"/>
<polygon fill="midnightblue" stroke="midnightblue" points="939.701,-142.372 930.277,-137.531 934.625,-147.193 939.701,-142.372"/>
</g>
<!-- Node20 -->
<g id="node39" class="node"><title>Node20</title>
<polygon fill="white" stroke="#bfbfbf" points="811.398,-239.5 811.398,-260.5 885.398,-260.5 885.398,-239.5 811.398,-239.5"/>
<text text-anchor="middle" x="848.398" y="-247.5" font-family="Helvetica,sans-Serif" font-size="10.00">QMetaObject</text>
</g>
<!-- Node12&#45;&gt;Node20 -->
<g id="edge38" class="edge"><title>Node12&#45;&gt;Node20</title>
<path fill="none" stroke="midnightblue" d="M807.489,-304.267C814.768,-294.612 825.621,-280.215 834.32,-268.675"/>
<polygon fill="midnightblue" stroke="midnightblue" points="837.232,-270.626 840.457,-260.534 831.643,-266.412 837.232,-270.626"/>
</g>
<!-- Node21 -->
<g id="node42" class="node"><title>Node21</title>
<a xlink:href="camera_8hpp.html" target="_top" xlink:title="camera.hpp">
<polygon fill="white" stroke="black" points="1168.4,-116.5 1168.4,-137.5 1236.4,-137.5 1236.4,-116.5 1168.4,-116.5"/>
<text text-anchor="middle" x="1202.4" y="-124.5" font-family="Helvetica,sans-Serif" font-size="10.00">camera.hpp</text>
</a>
</g>
<!-- Node12&#45;&gt;Node21 -->
<g id="edge42" class="edge"><title>Node12&#45;&gt;Node21</title>
<path fill="none" stroke="midnightblue" d="M835.721,-310.365C894.614,-302.465 1008.02,-285.533 1044.4,-268 1106.46,-238.092 1162.32,-176.423 1187.81,-145.513"/>
<polygon fill="midnightblue" stroke="midnightblue" points="1190.59,-147.635 1194.17,-137.663 1185.15,-143.228 1190.59,-147.635"/>
</g>
<!-- Node23 -->
<g id="node52" class="node"><title>Node23</title>
<a xlink:href="cube_8hpp.html" target="_top" xlink:title="cube.hpp">
<polygon fill="white" stroke="black" points="737.398,-239.5 737.398,-260.5 793.398,-260.5 793.398,-239.5 737.398,-239.5"/>
<text text-anchor="middle" x="765.398" y="-247.5" font-family="Helvetica,sans-Serif" font-size="10.00">cube.hpp</text>
</a>
</g>
<!-- Node12&#45;&gt;Node23 -->
<g id="edge58" class="edge"><title>Node12&#45;&gt;Node23</title>
<path fill="none" stroke="midnightblue" d="M793.784,-304.267C788.882,-294.896 781.643,-281.057 775.703,-269.7"/>
<polygon fill="midnightblue" stroke="midnightblue" points="778.644,-267.772 770.908,-260.534 772.442,-271.017 778.644,-267.772"/>
</g>
<!-- Node32 -->
<g id="node83" class="node"><title>Node32</title>
<a xlink:href="sphere_8hpp.html" target="_top" xlink:title="sphere.hpp">
<polygon fill="white" stroke="black" points="902.898,-239.5 902.898,-260.5 967.898,-260.5 967.898,-239.5 902.898,-239.5"/>
<text text-anchor="middle" x="935.398" y="-247.5" font-family="Helvetica,sans-Serif" font-size="10.00">sphere.hpp</text>
</a>
</g>
<!-- Node12&#45;&gt;Node32 -->
<g id="edge102" class="edge"><title>Node12&#45;&gt;Node32</title>
<path fill="none" stroke="midnightblue" d="M821.552,-304.412C843.977,-293.694 878.854,-277.025 904.097,-264.96"/>
<polygon fill="midnightblue" stroke="midnightblue" points="905.741,-268.054 913.254,-260.584 902.722,-261.738 905.741,-268.054"/>
</g>
<!-- Node33 -->
<g id="node88" class="node"><title>Node33</title>
<a xlink:href="world_8hpp.html" target="_top" xlink:title="world.hpp">
<polygon fill="white" stroke="black" points="1060.9,-174.5 1060.9,-195.5 1119.9,-195.5 1119.9,-174.5 1060.9,-174.5"/>
<text text-anchor="middle" x="1090.4" y="-182.5" font-family="Helvetica,sans-Serif" font-size="10.00">world.hpp</text>
</a>
</g>
<!-- Node12&#45;&gt;Node33 -->
<g id="edge110" class="edge"><title>Node12&#45;&gt;Node33</title>
<path fill="none" stroke="midnightblue" d="M835.41,-313.159C879.089,-309.578 953.77,-299.035 1009.4,-268 1037.93,-252.079 1062.84,-222.986 1077.26,-203.821"/>
<polygon fill="midnightblue" stroke="midnightblue" points="1080.22,-205.696 1083.29,-195.554 1074.57,-201.57 1080.22,-205.696"/>
</g>
<!-- Node21&#45;&gt;Node3 -->
<g id="edge50" class="edge"><title>Node21&#45;&gt;Node3</title>
<path fill="none" stroke="midnightblue" d="M1168.2,-117.921C1165.23,-117.233 1162.27,-116.582 1159.4,-116 1057.31,-95.3076 1027.41,-101.242 921.901,-80.1461"/>
<polygon fill="midnightblue" stroke="midnightblue" points="922.29,-76.6537 911.793,-78.0896 920.895,-83.5132 922.29,-76.6537"/>
</g>
<!-- Node21&#45;&gt;Node4 -->
<g id="edge44" class="edge"><title>Node21&#45;&gt;Node4</title>
<path fill="none" stroke="midnightblue" d="M1223.61,-116.466C1248.19,-102.922 1283.07,-78.6814 1264.4,-58 1213.81,-1.95648 1006.41,-35.1449 915.037,-21.7379"/>
<polygon fill="midnightblue" stroke="midnightblue" points="915.46,-18.2587 905.005,-19.9724 914.247,-25.1527 915.46,-18.2587"/>
</g>
<!-- Node21&#45;&gt;Node6 -->
<g id="edge46" class="edge"><title>Node21&#45;&gt;Node6</title>
<path fill="none" stroke="midnightblue" d="M1189.18,-116.499C1166.92,-99.0206 1122.6,-65.1689 1104.4,-58 998.428,-16.255 960.264,-43.6237 844.9,-22.073"/>
<polygon fill="midnightblue" stroke="midnightblue" points="845.47,-18.6182 834.985,-20.1369 844.129,-25.4885 845.47,-18.6182"/>
</g>
<!-- Node21&#45;&gt;Node7 -->
<g id="edge56" class="edge"><title>Node21&#45;&gt;Node7</title>
<path fill="none" stroke="midnightblue" d="M1230.6,-116.387C1250.39,-108.169 1276.88,-95.5722 1297.4,-80 1316.27,-65.6776 1333.93,-45.0276 1345.54,-30.0537"/>
<polygon fill="midnightblue" stroke="midnightblue" points="1348.4,-32.0725 1351.63,-21.9839 1342.81,-27.8527 1348.4,-32.0725"/>
</g>
<!-- Node21&#45;&gt;Node8 -->
<g id="edge48" class="edge"><title>Node21&#45;&gt;Node8</title>
<path fill="none" stroke="midnightblue" d="M1177.05,-116.497C1154.78,-107.275 1122.19,-93.7695 1097.43,-83.5153"/>
<polygon fill="midnightblue" stroke="midnightblue" points="1098.61,-80.2152 1088.04,-79.6212 1095.93,-86.6822 1098.61,-80.2152"/>
</g>
<!-- Node21&#45;&gt;Node10 -->
<g id="edge52" class="edge"><title>Node21&#45;&gt;Node10</title>
<path fill="none" stroke="midnightblue" d="M1168.14,-118.213C1165.18,-117.462 1162.24,-116.716 1159.4,-116 1112.9,-104.271 1059.91,-91.1127 1021.9,-81.7084"/>
<polygon fill="midnightblue" stroke="midnightblue" points="1022.63,-78.2838 1012.08,-79.2809 1020.95,-85.0791 1022.63,-78.2838"/>
</g>
<!-- Node22 -->
<g id="node49" class="node"><title>Node22</title>
<polygon fill="white" stroke="#bfbfbf" points="1151.4,-58.5 1151.4,-79.5 1255.4,-79.5 1255.4,-58.5 1151.4,-58.5"/>
<text text-anchor="middle" x="1203.4" y="-66.5" font-family="Helvetica,sans-Serif" font-size="10.00">QPropertyAnimation</text>
</g>
<!-- Node21&#45;&gt;Node22 -->
<g id="edge54" class="edge"><title>Node21&#45;&gt;Node22</title>
<path fill="none" stroke="midnightblue" d="M1202.58,-116.362C1202.71,-108.922 1202.89,-98.7427 1203.04,-89.7276"/>
<polygon fill="midnightblue" stroke="midnightblue" points="1206.54,-89.6295 1203.22,-79.5707 1199.54,-89.5088 1206.54,-89.6295"/>
</g>
<!-- Node23&#45;&gt;Node3 -->
<g id="edge94" class="edge"><title>Node23&#45;&gt;Node3</title>
<path fill="none" stroke="midnightblue" d="M747.136,-239.319C741.332,-236.422 734.763,-233.637 728.398,-232 651.897,-212.326 72.8201,-253.251 18.3981,-196 -6.09862,-170.23 -6.15705,-141.715 18.3981,-116 48.3566,-84.6269 755.2,-83.9586 798.398,-80 810.384,-78.9017 823.328,-77.3029 835.239,-75.6628"/>
<polygon fill="midnightblue" stroke="midnightblue" points="835.982,-79.0926 845.391,-74.2225 834.999,-72.162 835.982,-79.0926"/>
</g>
<!-- Node23&#45;&gt;Node10 -->
<g id="edge98" class="edge"><title>Node23&#45;&gt;Node10</title>
<path fill="none" stroke="midnightblue" d="M746.705,-239.318C740.994,-236.495 734.584,-233.751 728.398,-232 581.53,-190.432 -54.2752,-226.142 51.3981,-116 83.511,-82.5293 810.617,-85.8719 918.571,-79.5754"/>
<polygon fill="midnightblue" stroke="midnightblue" points="919.075,-83.0458 928.752,-78.7339 918.498,-76.0696 919.075,-83.0458"/>
</g>
<!-- Node23&#45;&gt;Node19 -->
<g id="edge96" class="edge"><title>Node23&#45;&gt;Node19</title>
<path fill="none" stroke="midnightblue" d="M778.795,-239.3C805.531,-217.946 865.705,-169.885 897.981,-144.106"/>
<polygon fill="midnightblue" stroke="midnightblue" points="900.293,-146.739 905.922,-137.763 895.924,-141.269 900.293,-146.739"/>
</g>
<!-- Node24 -->
<g id="node54" class="node"><title>Node24</title>
<a xlink:href="geometry_8hpp.html" target="_top" xlink:title="geometry.hpp">
<polygon fill="white" stroke="black" points="513.398,-174.5 513.398,-195.5 589.398,-195.5 589.398,-174.5 513.398,-174.5"/>
<text text-anchor="middle" x="551.398" y="-182.5" font-family="Helvetica,sans-Serif" font-size="10.00">geometry.hpp</text>
</a>
</g>
<!-- Node23&#45;&gt;Node24 -->
<g id="edge60" class="edge"><title>Node23&#45;&gt;Node24</title>
<path fill="none" stroke="midnightblue" d="M745.351,-239.376C739.939,-236.749 734.022,-234.092 728.398,-232 685.771,-216.141 635.515,-203.33 599.467,-195.113"/>
<polygon fill="midnightblue" stroke="midnightblue" points="600.218,-191.695 589.694,-192.918 598.684,-198.524 600.218,-191.695"/>
</g>
<!-- Node30 -->
<g id="node75" class="node"><title>Node30</title>
<polygon fill="white" stroke="#bfbfbf" points="60.3981,-116.5 60.3981,-137.5 104.398,-137.5 104.398,-116.5 60.3981,-116.5"/>
<text text-anchor="middle" x="82.3981" y="-124.5" font-family="Helvetica,sans-Serif" font-size="10.00">vector</text>
</g>
<!-- Node23&#45;&gt;Node30 -->
<g id="edge100" class="edge"><title>Node23&#45;&gt;Node30</title>
<path fill="none" stroke="midnightblue" d="M746.261,-239.341C740.645,-236.588 734.398,-233.875 728.398,-232 712.034,-226.887 135.111,-141.82 118.398,-138 117.144,-137.713 115.87,-137.406 114.586,-137.082"/>
<polygon fill="midnightblue" stroke="midnightblue" points="115.303,-133.649 104.732,-134.368 113.444,-140.398 115.303,-133.649"/>
</g>
<!-- Node24&#45;&gt;Node2 -->
<g id="edge78" class="edge"><title>Node24&#45;&gt;Node2</title>
<path fill="none" stroke="midnightblue" d="M589.499,-180.891C660.676,-173.134 818.65,-155.53 951.398,-138 963.085,-136.457 975.776,-134.647 987.338,-132.945"/>
<polygon fill="midnightblue" stroke="midnightblue" points="988.2,-136.356 997.577,-131.424 987.171,-129.432 988.2,-136.356"/>
</g>
<!-- Node24&#45;&gt;Node3 -->
<g id="edge76" class="edge"><title>Node24&#45;&gt;Node3</title>
<path fill="none" stroke="midnightblue" d="M513.216,-183.928C443.201,-180.703 305.641,-167.777 353.398,-116 387.031,-79.5365 749.085,-85.3807 798.398,-80 810.363,-78.6945 823.3,-77.0275 835.212,-75.3883"/>
<polygon fill="midnightblue" stroke="midnightblue" points="835.948,-78.8193 845.365,-73.9647 834.976,-71.8871 835.948,-78.8193"/>
</g>
<!-- Node24&#45;&gt;Node4 -->
<g id="edge62" class="edge"><title>Node24&#45;&gt;Node4</title>
<path fill="none" stroke="midnightblue" d="M589.468,-182.057C644.036,-176.958 740.262,-164.39 761.398,-138 797.922,-92.3987 708.957,-126.564 678.398,-80 673.033,-71.8254 672.265,-65.6153 678.398,-58 723.546,-1.93953 767.13,-38.017 841.944,-22.0077"/>
<polygon fill="midnightblue" stroke="midnightblue" points="842.813,-25.3985 851.717,-19.6564 841.176,-18.5927 842.813,-25.3985"/>
</g>
<!-- Node24&#45;&gt;Node6 -->
<g id="edge64" class="edge"><title>Node24&#45;&gt;Node6</title>
<path fill="none" stroke="midnightblue" d="M513.165,-180.813C419.706,-170.49 186.869,-144.21 181.398,-138 174.934,-130.663 175.087,-123.468 181.398,-116 219.021,-71.4819 624.785,-28.2801 759.331,-15.086"/>
<polygon fill="midnightblue" stroke="midnightblue" points="760.039,-18.5337 769.653,-14.0807 759.361,-11.5667 760.039,-18.5337"/>
</g>
<!-- Node24&#45;&gt;Node9 -->
<g id="edge66" class="edge"><title>Node24&#45;&gt;Node9</title>
<path fill="none" stroke="midnightblue" d="M513.35,-182.858C424.754,-177.482 210.574,-162.103 189.398,-138 182.945,-130.654 182.786,-123.203 189.398,-116 221.79,-80.716 539.528,-71.8735 676.303,-69.6958"/>
<polygon fill="midnightblue" stroke="midnightblue" points="676.67,-73.1907 686.616,-69.5389 676.564,-66.1916 676.67,-73.1907"/>
</g>
<!-- Node24&#45;&gt;Node19 -->
<g id="edge74" class="edge"><title>Node24&#45;&gt;Node19</title>
<path fill="none" stroke="midnightblue" d="M589.634,-182.059C650.675,-176.844 773.904,-164.189 886.01,-138.008"/>
<polygon fill="midnightblue" stroke="midnightblue" points="886.863,-141.403 895.782,-135.684 885.244,-134.593 886.863,-141.403"/>
</g>
<!-- Node25 -->
<g id="node59" class="node"><title>Node25</title>
<polygon fill="white" stroke="#bfbfbf" points="362.398,-116.5 362.398,-137.5 490.398,-137.5 490.398,-116.5 362.398,-116.5"/>
<text text-anchor="middle" x="426.398" y="-124.5" font-family="Helvetica,sans-Serif" font-size="10.00">QOpenGLShaderProgram</text>
</g>
<!-- Node24&#45;&gt;Node25 -->
<g id="edge68" class="edge"><title>Node24&#45;&gt;Node25</title>
<path fill="none" stroke="midnightblue" d="M528.762,-174.497C509.15,-165.397 480.552,-152.127 458.565,-141.925"/>
<polygon fill="midnightblue" stroke="midnightblue" points="459.833,-138.655 449.289,-137.621 456.887,-145.005 459.833,-138.655"/>
</g>
<!-- Node26 -->
<g id="node61" class="node"><title>Node26</title>
<polygon fill="white" stroke="#bfbfbf" points="508.398,-116.5 508.398,-137.5 594.398,-137.5 594.398,-116.5 508.398,-116.5"/>
<text text-anchor="middle" x="551.398" y="-124.5" font-family="Helvetica,sans-Serif" font-size="10.00">QOpenGLBuffer</text>
</g>
<!-- Node24&#45;&gt;Node26 -->
<g id="edge70" class="edge"><title>Node24&#45;&gt;Node26</title>
<path fill="none" stroke="midnightblue" d="M551.398,-174.362C551.398,-166.922 551.398,-156.743 551.398,-147.728"/>
<polygon fill="midnightblue" stroke="midnightblue" points="554.898,-147.571 551.398,-137.571 547.898,-147.571 554.898,-147.571"/>
</g>
<!-- Node27 -->
<g id="node63" class="node"><title>Node27</title>
<polygon fill="white" stroke="#bfbfbf" points="612.398,-116.5 612.398,-137.5 752.398,-137.5 752.398,-116.5 612.398,-116.5"/>
<text text-anchor="middle" x="682.398" y="-124.5" font-family="Helvetica,sans-Serif" font-size="10.00">QOpenGLVertexArrayObject</text>
</g>
<!-- Node24&#45;&gt;Node27 -->
<g id="edge72" class="edge"><title>Node24&#45;&gt;Node27</title>
<path fill="none" stroke="midnightblue" d="M575.121,-174.497C595.766,-165.356 625.914,-152.008 648.997,-141.788"/>
<polygon fill="midnightblue" stroke="midnightblue" points="650.682,-144.87 658.409,-137.621 647.848,-138.469 650.682,-144.87"/>
</g>
<!-- Node28 -->
<g id="node68" class="node"><title>Node28</title>
<a xlink:href="material_8hpp.html" target="_top" xlink:title="material.hpp">
<polygon fill="white" stroke="black" points="808.398,-116.5 808.398,-137.5 878.398,-137.5 878.398,-116.5 808.398,-116.5"/>
<text text-anchor="middle" x="843.398" y="-124.5" font-family="Helvetica,sans-Serif" font-size="10.00">material.hpp</text>
</a>
</g>
<!-- Node24&#45;&gt;Node28 -->
<g id="edge80" class="edge"><title>Node24&#45;&gt;Node28</title>
<path fill="none" stroke="midnightblue" d="M589.768,-177.944C637.72,-169.042 722.263,-153.069 794.398,-138 795.67,-137.734 796.96,-137.462 798.262,-137.185"/>
<polygon fill="midnightblue" stroke="midnightblue" points="799.329,-140.535 808.362,-134.998 797.848,-133.694 799.329,-140.535"/>
</g>
<!-- Node29 -->
<g id="node73" class="node"><title>Node29</title>
<polygon fill="white" stroke="#bfbfbf" points="198.398,-116.5 198.398,-137.5 250.398,-137.5 250.398,-116.5 198.398,-116.5"/>
<text text-anchor="middle" x="224.398" y="-124.5" font-family="Helvetica,sans-Serif" font-size="10.00">memory</text>
</g>
<!-- Node24&#45;&gt;Node29 -->
<g id="edge88" class="edge"><title>Node24&#45;&gt;Node29</title>
<path fill="none" stroke="midnightblue" d="M513.255,-180.652C459.027,-174.082 356.448,-160.216 260.516,-138.018"/>
<polygon fill="midnightblue" stroke="midnightblue" points="261.193,-134.582 250.658,-135.702 259.592,-141.397 261.193,-134.582"/>
</g>
<!-- Node24&#45;&gt;Node30 -->
<g id="edge90" class="edge"><title>Node24&#45;&gt;Node30</title>
<path fill="none" stroke="midnightblue" d="M513.38,-183.283C437.566,-179.331 262.469,-167.555 118.398,-138 117.138,-137.741 115.858,-137.458 114.57,-137.154"/>
<polygon fill="midnightblue" stroke="midnightblue" points="115.262,-133.716 104.698,-134.527 113.462,-140.481 115.262,-133.716"/>
</g>
<!-- Node31 -->
<g id="node77" class="node"><title>Node31</title>
<polygon fill="white" stroke="#bfbfbf" points="268.398,-116.5 268.398,-137.5 306.398,-137.5 306.398,-116.5 268.398,-116.5"/>
<text text-anchor="middle" x="287.398" y="-124.5" font-family="Helvetica,sans-Serif" font-size="10.00">tuple</text>
</g>
<!-- Node24&#45;&gt;Node31 -->
<g id="edge92" class="edge"><title>Node24&#45;&gt;Node31</title>
<path fill="none" stroke="midnightblue" d="M513.054,-178.665C466.954,-170.712 387.414,-155.916 320.398,-138 318.976,-137.62 317.526,-137.212 316.065,-136.786"/>
<polygon fill="midnightblue" stroke="midnightblue" points="317.063,-133.431 306.474,-133.794 314.978,-140.113 317.063,-133.431"/>
</g>
<!-- Node28&#45;&gt;Node3 -->
<g id="edge84" class="edge"><title>Node28&#45;&gt;Node3</title>
<path fill="none" stroke="midnightblue" d="M849.818,-116.362C854.554,-108.513 861.13,-97.6159 866.78,-88.2527"/>
<polygon fill="midnightblue" stroke="midnightblue" points="869.849,-89.9409 872.019,-79.5707 863.856,-86.3242 869.849,-89.9409"/>
</g>
<!-- Node28&#45;&gt;Node4 -->
<g id="edge82" class="edge"><title>Node28&#45;&gt;Node4</title>
<path fill="none" stroke="midnightblue" d="M839.404,-116.322C834.846,-102.415 828.927,-77.5733 836.398,-58 840.613,-46.9586 848.746,-36.8684 856.742,-28.8919"/>
<polygon fill="midnightblue" stroke="midnightblue" points="859.587,-31.0277 864.542,-21.6631 854.828,-25.8937 859.587,-31.0277"/>
</g>
<!-- Node28&#45;&gt;Node10 -->
<g id="edge86" class="edge"><title>Node28&#45;&gt;Node10</title>
<path fill="none" stroke="midnightblue" d="M866.397,-116.497C886.411,-107.356 915.639,-94.0082 938.017,-83.7883"/>
<polygon fill="midnightblue" stroke="midnightblue" points="939.499,-86.9592 947.141,-79.6212 936.591,-80.5918 939.499,-86.9592"/>
</g>
<!-- Node32&#45;&gt;Node10 -->
<g id="edge106" class="edge"><title>Node32&#45;&gt;Node10</title>
<path fill="none" stroke="midnightblue" d="M937.431,-239.486C943.061,-210.37 958.933,-128.292 966.409,-89.6301"/>
<polygon fill="midnightblue" stroke="midnightblue" points="969.897,-90.0253 968.359,-79.5427 963.025,-88.6963 969.897,-90.0253"/>
</g>
<!-- Node32&#45;&gt;Node19 -->
<g id="edge108" class="edge"><title>Node32&#45;&gt;Node19</title>
<path fill="none" stroke="midnightblue" d="M933.978,-239.085C931.315,-218.609 925.529,-174.133 922.101,-147.778"/>
<polygon fill="midnightblue" stroke="midnightblue" points="925.553,-147.18 920.792,-137.715 918.611,-148.083 925.553,-147.18"/>
</g>
<!-- Node32&#45;&gt;Node24 -->
<g id="edge104" class="edge"><title>Node32&#45;&gt;Node24</title>
<path fill="none" stroke="midnightblue" d="M914.108,-239.318C907.884,-236.565 900.982,-233.857 894.398,-232 791.853,-203.075 666.859,-191.672 599.675,-187.394"/>
<polygon fill="midnightblue" stroke="midnightblue" points="599.595,-183.883 589.401,-186.767 599.169,-190.87 599.595,-183.883"/>
</g>
<!-- Node33&#45;&gt;Node2 -->
<g id="edge114" class="edge"><title>Node33&#45;&gt;Node2</title>
<path fill="none" stroke="midnightblue" d="M1078.66,-174.362C1069.46,-166.023 1056.46,-154.242 1045.73,-144.516"/>
<polygon fill="midnightblue" stroke="midnightblue" points="1047.82,-141.692 1038.06,-137.571 1043.12,-146.879 1047.82,-141.692"/>
</g>
<!-- Node33&#45;&gt;Node3 -->
<g id="edge112" class="edge"><title>Node33&#45;&gt;Node3</title>
<path fill="none" stroke="midnightblue" d="M1089.27,-174.414C1087.06,-159.201 1080.77,-131.306 1063.4,-116 1016.53,-74.7066 986.763,-94.2347 921.325,-80.0285"/>
<polygon fill="midnightblue" stroke="midnightblue" points="921.943,-76.578 911.405,-77.6765 920.328,-83.3892 921.943,-76.578"/>
</g>
<!-- Node33&#45;&gt;Node4 -->
<g id="edge116" class="edge"><title>Node33&#45;&gt;Node4</title>
<path fill="none" stroke="midnightblue" d="M1120.13,-182.363C1153.67,-178.049 1208.33,-166.834 1245.4,-138 1276.03,-114.171 1306.47,-86.7508 1280.4,-58 1227.29,0.573583 1009.76,-35.6097 914.872,-21.7107"/>
<polygon fill="midnightblue" stroke="midnightblue" points="915.455,-18.2596 905.002,-19.9849 914.25,-25.155 915.455,-18.2596"/>
</g>
<!-- Node34 -->
<g id="node93" class="node"><title>Node34</title>
<polygon fill="white" stroke="#bfbfbf" points="1110.4,-116.5 1110.4,-137.5 1150.4,-137.5 1150.4,-116.5 1110.4,-116.5"/>
<text text-anchor="middle" x="1130.4" y="-124.5" font-family="Helvetica,sans-Serif" font-size="10.00">QList</text>
</g>
<!-- Node33&#45;&gt;Node34 -->
<g id="edge118" class="edge"><title>Node33&#45;&gt;Node34</title>
<path fill="none" stroke="midnightblue" d="M1097.73,-174.362C1103.2,-166.431 1110.82,-155.389 1117.32,-145.961"/>
<polygon fill="midnightblue" stroke="midnightblue" points="1120.31,-147.79 1123.11,-137.571 1114.55,-143.816 1120.31,-147.79"/>
</g>
</g>
</svg>
        <g id="navigator" transform="translate(0 0)" fill="#404254">
                <rect fill="#f2f5e9" fill-opacity="0.5" stroke="#606060" stroke-width=".5" x="0" y="0" width="60" height="60"/>
                <use id="zoomplus" xlink:href="#zoomPlus" x="17" y="9" onmousedown="handleZoom(evt,'in')"/>
                <use id="zoomminus" xlink:href="#zoomMin" x="42" y="9" onmousedown="handleZoom(evt,'out')"/>
                <use id="reset" xlink:href="#resetDef" x="30" y="36" onmousedown="handleReset()"/>
                <g id="arrowUp" xlink:href="#dirArrow" transform="translate(30 24)" onmousedown="handlePan(0,-1)">
                  <use xlink:href="#rim" fill="#404040">
                        <set attributeName="fill" to="#808080" begin="arrowUp.mouseover" end="arrowUp.mouseout"/>
                  </use>
                  <path fill="none" stroke="white" stroke-width="1.5" d="M0,-3.0v7 M-2.5,-0.5L0,-3.0L2.5,-0.5"/>
                </g>
                <g id="arrowRight" xlink:href="#dirArrow" transform="rotate(90) translate(36 -43)" onmousedown="handlePan(1,0)">
                  <use xlink:href="#rim" fill="#404040">
                        <set attributeName="fill" to="#808080" begin="arrowRight.mouseover" end="arrowRight.mouseout"/>
                  </use>
                  <path fill="none" stroke="white" stroke-width="1.5" d="M0,-3.0v7 M-2.5,-0.5L0,-3.0L2.5,-0.5"/>
                </g>
                <g id="arrowDown" xlink:href="#dirArrow" transform="rotate(180) translate(-30 -48)" onmousedown="handlePan(0,1)">
                  <use xlink:href="#rim" fill="#404040">
                        <set attributeName="fill" to="#808080" begin="arrowDown.mouseover" end="arrowDown.mouseout"/>
                  </use>
                  <path fill="none" stroke="white" stroke-width="1.5" d="M0,-3.0v7 M-2.5,-0.5L0,-3.0L2.5,-0.5"/>
                </g>
                <g id="arrowLeft" xlink:href="#dirArrow" transform="rotate(270) translate(-36 17)" onmousedown="handlePan(-1,0)">
                  <use xlink:href="#rim" fill="#404040">
                        <set attributeName="fill" to="#808080" begin="arrowLeft.mouseover" end="arrowLeft.mouseout"/>
                  </use>
                  <path fill="none" stroke="white" stroke-width="1.5" d="M0,-3.0v7 M-2.5,-0.5L0,-3.0L2.5,-0.5"/>
                </g>
        </g>
        <svg viewBox="0 0 15 15" width="100%" height="30px" preserveAspectRatio="xMaxYMin meet">
         <g id="arrow_out" transform="scale(0.3 0.3)">
          <a xlink:href="actor_8cpp__incl_org.svg" target="_base">
           <rect id="button" ry="5" rx="5" y="6" x="6" height="38" width="38"
                fill="#f2f5e9" fill-opacity="0.5" stroke="#606060" stroke-width="1.0"/>
           <path id="arrow"
             d="M 11.500037,31.436501 C 11.940474,20.09759 22.043105,11.32322 32.158766,21.979434 L 37.068811,17.246167 C 37.068811,17.246167 37.088388,32 37.088388,32 L 22.160133,31.978069 C 22.160133,31.978069 26.997745,27.140456 26.997745,27.140456 C 18.528582,18.264221 13.291696,25.230495 11.500037,31.436501 z"
             style="fill:#404040;"/>
          </a>
         </g>
        </svg>
</svg>
