<?xml version="1.0" encoding="UTF-8" standalone="no"?>
<!DOCTYPE svg PUBLIC "-//W3C//DTD SVG 1.1//EN"
 "http://www.w3.org/Graphics/SVG/1.1/DTD/svg11.dtd">
<!-- Generated by graphviz version 2.26.3 (20100126.1600)
 -->
<!-- Title: include/actor.hpp Pages: 1 -->
<!--zoomable 262 -->
<svg id="main" version="1.1" xmlns="http://www.w3.org/2000/svg" xmlns:xlink="http://www.w3.org/1999/xlink" xml:space="preserve" onload="init(evt)">
<style type="text/css"><![CDATA[
.edge:hover path { stroke: red; }
.edge:hover polygon { stroke: red; fill: red; }
]]></style>
<script type="text/javascript"><![CDATA[
var edges = document.getElementsByTagName('g');
if (edges && edges.length) {
  for (var i=0;i<edges.length;i++) {
    if (edges[i].id.substr(0,4)=='edge') {
      edges[i].setAttribute('class','edge');
    }
  }
}
]]></script>
        <defs>
                <circle id="rim" cx="0" cy="0" r="7"/>
                <circle id="rim2" cx="0" cy="0" r="3.5"/>
                <g id="zoomPlus">
                        <use xlink:href="#rim" fill="#404040">
                                <set attributeName="fill" to="#808080" begin="zoomplus.mouseover" end="zoomplus.mouseout"/>
                        </use>
                        <path d="M-4,0h8M0,-4v8" fill="none" stroke="white" stroke-width="1.5" pointer-events="none"/>
                </g>
                <g id="zoomMin">
                        <use xlink:href="#rim" fill="#404040">
                                <set attributeName="fill" to="#808080" begin="zoomminus.mouseover" end="zoomminus.mouseout"/>
                        </use>
                        <path d="M-4,0h8" fill="none" stroke="white" stroke-width="1.5" pointer-events="none"/>
                </g>
                <g id="dirArrow">
                        <path fill="none" stroke="white" stroke-width="1.5" d="M0,-3.0v7 M-2.5,-0.5L0,-3.0L2.5,-0.5"/>
                </g>
               <g id="resetDef">
                       <use xlink:href="#rim2" fill="#404040">
                               <set attributeName="fill" to="#808080" begin="reset.mouseover" end="reset.mouseout"/>
                       </use>
               </g>
        </defs>

<script type="text/javascript">
var viewWidth = 1721;
var viewHeight = 262;
var sectionId = 'dynsection-1';
</script>
<script xlink:href="svgpan.js"/>
<svg id="graph" class="graph">
<g id="viewport">
<title>include/actor.hpp</title>
<polygon fill="white" stroke="white" points="-4,5 -4,-258 1718,-258 1718,5 -4,5"/>
<!-- Node1 -->
<g id="node1" class="node"><title>Node1</title>
<polygon fill="#bfbfbf" stroke="black" points="413.5,-232.5 413.5,-253.5 504.5,-253.5 504.5,-232.5 413.5,-232.5"/>
<text text-anchor="middle" x="459" y="-240.5" font-family="Helvetica,sans-Serif" font-size="10.00">include/actor.hpp</text>
</g>
<!-- Node2 -->
<g id="node3" class="node"><title>Node2</title>
<a xlink:href="actor_8cpp.html" target="_top" xlink:title="src/actor.cpp">
<polygon fill="white" stroke="black" points="0,-0.5 0,-21.5 74,-21.5 74,-0.5 0,-0.5"/>
<text text-anchor="middle" x="37" y="-8.5" font-family="Helvetica,sans-Serif" font-size="10.00">src/actor.cpp</text>
</a>
</g>
<!-- Node1&#45;&gt;Node2 -->
<g id="edge2" class="edge"><title>Node1&#45;&gt;Node2</title>
<path fill="none" stroke="midnightblue" d="M403.33,-238.041C356.512,-232.331 288.663,-220.386 234,-196 143.163,-155.477 67.6739,-55.1988 44.408,-21.9253"/>
<polygon fill="midnightblue" stroke="midnightblue" points="402.944,-241.52 413.282,-239.2 403.754,-234.567 402.944,-241.52"/>
</g>
<!-- Node3 -->
<g id="node5" class="node"><title>Node3</title>
<a xlink:href="geometry_8hpp.html" target="_top" xlink:title="include/geometry.hpp">
<polygon fill="white" stroke="black" points="986,-174.5 986,-195.5 1096,-195.5 1096,-174.5 986,-174.5"/>
<text text-anchor="middle" x="1041" y="-182.5" font-family="Helvetica,sans-Serif" font-size="10.00">include/geometry.hpp</text>
</a>
</g>
<!-- Node1&#45;&gt;Node3 -->
<g id="edge4" class="edge"><title>Node1&#45;&gt;Node3</title>
<path fill="none" stroke="midnightblue" d="M514.689,-237.45C626.064,-226.351 875.061,-201.537 985.927,-190.488"/>
<polygon fill="midnightblue" stroke="midnightblue" points="514.272,-233.974 504.669,-238.449 514.966,-240.94 514.272,-233.974"/>
</g>
<!-- Node6 -->
<g id="node12" class="node"><title>Node6</title>
<a xlink:href="actorbuilder_8cpp.html" target="_top" xlink:title="src/actorbuilder.cpp">
<polygon fill="white" stroke="black" points="737,-0.5 737,-21.5 839,-21.5 839,-0.5 737,-0.5"/>
<text text-anchor="middle" x="788" y="-8.5" font-family="Helvetica,sans-Serif" font-size="10.00">src/actorbuilder.cpp</text>
</a>
</g>
<!-- Node1&#45;&gt;Node6 -->
<g id="edge112" class="edge"><title>Node1&#45;&gt;Node6</title>
<path fill="none" stroke="midnightblue" d="M403.638,-230.848C299.299,-205.624 90.8364,-142.789 170,-58 209.827,-15.3428 635.89,-27.3931 694,-22 707.906,-20.7094 722.941,-19.0631 736.822,-17.4397"/>
<polygon fill="midnightblue" stroke="midnightblue" points="402.859,-234.26 413.397,-233.171 404.48,-227.451 402.859,-234.26"/>
</g>
<!-- Node29 -->
<g id="node82" class="node"><title>Node29</title>
<a xlink:href="world_8hpp.html" target="_top" xlink:title="include/world.hpp">
<polygon fill="white" stroke="black" points="413,-116.5 413,-137.5 505,-137.5 505,-116.5 413,-116.5"/>
<text text-anchor="middle" x="459" y="-124.5" font-family="Helvetica,sans-Serif" font-size="10.00">include/world.hpp</text>
</a>
</g>
<!-- Node1&#45;&gt;Node29 -->
<g id="edge106" class="edge"><title>Node1&#45;&gt;Node29</title>
<path fill="none" stroke="midnightblue" d="M459,-222.123C459,-197.298 459,-156.824 459,-137.679"/>
<polygon fill="midnightblue" stroke="midnightblue" points="455.5,-222.295 459,-232.295 462.5,-222.295 455.5,-222.295"/>
</g>
<!-- Node30 -->
<g id="node87" class="node"><title>Node30</title>
<a xlink:href="light_8hpp.html" target="_top" xlink:title="include/light.hpp">
<polygon fill="white" stroke="black" points="663.5,-116.5 663.5,-137.5 750.5,-137.5 750.5,-116.5 663.5,-116.5"/>
<text text-anchor="middle" x="707" y="-124.5" font-family="Helvetica,sans-Serif" font-size="10.00">include/light.hpp</text>
</a>
</g>
<!-- Node1&#45;&gt;Node30 -->
<g id="edge114" class="edge"><title>Node1&#45;&gt;Node30</title>
<path fill="none" stroke="midnightblue" d="M491.133,-227.97C542.138,-204.113 640.365,-158.168 684.527,-137.512"/>
<polygon fill="midnightblue" stroke="midnightblue" points="489.462,-224.888 481.887,-232.295 492.428,-231.228 489.462,-224.888"/>
</g>
<!-- Node4 -->
<g id="node7" class="node"><title>Node4</title>
<a xlink:href="cube_8hpp.html" target="_top" xlink:title="include/cube.hpp">
<polygon fill="white" stroke="black" points="287,-116.5 287,-137.5 377,-137.5 377,-116.5 287,-116.5"/>
<text text-anchor="middle" x="332" y="-124.5" font-family="Helvetica,sans-Serif" font-size="10.00">include/cube.hpp</text>
</a>
</g>
<!-- Node3&#45;&gt;Node4 -->
<g id="edge6" class="edge"><title>Node3&#45;&gt;Node4</title>
<path fill="none" stroke="midnightblue" d="M975.818,-181.872C860.328,-175.954 612.305,-161.561 404,-138 395.33,-137.019 386.103,-135.768 377.25,-134.464"/>
<polygon fill="midnightblue" stroke="midnightblue" points="975.743,-185.372 985.907,-182.384 976.098,-178.381 975.743,-185.372"/>
</g>
<!-- Node8 -->
<g id="node16" class="node"><title>Node8</title>
<a xlink:href="geometry_8cpp.html" target="_top" xlink:title="src/geometry.cpp">
<polygon fill="white" stroke="black" points="92,-0.5 92,-21.5 184,-21.5 184,-0.5 92,-0.5"/>
<text text-anchor="middle" x="138" y="-8.5" font-family="Helvetica,sans-Serif" font-size="10.00">src/geometry.cpp</text>
</a>
</g>
<!-- Node3&#45;&gt;Node8 -->
<g id="edge94" class="edge"><title>Node3&#45;&gt;Node8</title>
<path fill="none" stroke="midnightblue" d="M975.576,-184.32C815.704,-182.123 408.744,-173.143 278,-138 222.335,-123.038 200.048,-123.299 162,-80 147.098,-63.0413 141.316,-36.3071 139.176,-21.5903"/>
<polygon fill="midnightblue" stroke="midnightblue" points="975.698,-187.822 985.743,-184.456 975.791,-180.823 975.698,-187.822"/>
</g>
<!-- Node15 -->
<g id="node31" class="node"><title>Node15</title>
<a xlink:href="sphere_8hpp.html" target="_top" xlink:title="include/sphere.hpp">
<polygon fill="white" stroke="black" points="540,-116.5 540,-137.5 638,-137.5 638,-116.5 540,-116.5"/>
<text text-anchor="middle" x="589" y="-124.5" font-family="Helvetica,sans-Serif" font-size="10.00">include/sphere.hpp</text>
</a>
</g>
<!-- Node3&#45;&gt;Node15 -->
<g id="edge32" class="edge"><title>Node3&#45;&gt;Node15</title>
<path fill="none" stroke="midnightblue" d="M975.917,-177.959C899.095,-169.445 767.547,-154.223 655,-138 649.596,-137.221 643.952,-136.357 638.338,-135.466"/>
<polygon fill="midnightblue" stroke="midnightblue" points="975.603,-181.446 985.927,-179.065 976.372,-174.488 975.603,-181.446"/>
</g>
<!-- Node18 -->
<g id="node40" class="node"><title>Node18</title>
<a xlink:href="pyramide_8hpp.html" target="_top" xlink:title="include/pyramide.hpp">
<polygon fill="white" stroke="black" points="1440.5,-58.5 1440.5,-79.5 1549.5,-79.5 1549.5,-58.5 1440.5,-58.5"/>
<text text-anchor="middle" x="1495" y="-66.5" font-family="Helvetica,sans-Serif" font-size="10.00">include/pyramide.hpp</text>
</a>
</g>
<!-- Node3&#45;&gt;Node18 -->
<g id="edge44" class="edge"><title>Node3&#45;&gt;Node18</title>
<path fill="none" stroke="midnightblue" d="M1106.34,-175.932C1158.66,-167.983 1233.67,-155.037 1298,-138 1360.53,-121.44 1431.64,-94.427 1468.96,-79.5892"/>
<polygon fill="midnightblue" stroke="midnightblue" points="1105.56,-172.51 1096.19,-177.455 1106.6,-179.432 1105.56,-172.51"/>
</g>
<!-- Node20 -->
<g id="node47" class="node"><title>Node20</title>
<a xlink:href="cylinder_8hpp.html" target="_top" xlink:title="include/cylinder.hpp">
<polygon fill="white" stroke="black" points="1048.5,-58.5 1048.5,-79.5 1151.5,-79.5 1151.5,-58.5 1048.5,-58.5"/>
<text text-anchor="middle" x="1100" y="-66.5" font-family="Helvetica,sans-Serif" font-size="10.00">include/cylinder.hpp</text>
</a>
</g>
<!-- Node3&#45;&gt;Node20 -->
<g id="edge54" class="edge"><title>Node3&#45;&gt;Node20</title>
<path fill="none" stroke="midnightblue" d="M1051.11,-165.121C1063.69,-140.396 1084.7,-99.0822 1094.57,-79.6792"/>
<polygon fill="midnightblue" stroke="midnightblue" points="1047.86,-163.795 1046.44,-174.295 1054.1,-166.968 1047.86,-163.795"/>
</g>
<!-- Node22 -->
<g id="node54" class="node"><title>Node22</title>
<a xlink:href="line_8hpp.html" target="_top" xlink:title="include/line.hpp">
<polygon fill="white" stroke="black" points="1339,-58.5 1339,-79.5 1423,-79.5 1423,-58.5 1339,-58.5"/>
<text text-anchor="middle" x="1381" y="-66.5" font-family="Helvetica,sans-Serif" font-size="10.00">include/line.hpp</text>
</a>
</g>
<!-- Node3&#45;&gt;Node22 -->
<g id="edge64" class="edge"><title>Node3&#45;&gt;Node22</title>
<path fill="none" stroke="midnightblue" d="M1106.32,-176.654C1151.16,-169.597 1211.46,-157.457 1262,-138 1302.12,-122.555 1344.65,-94.7173 1366.37,-79.5495"/>
<polygon fill="midnightblue" stroke="midnightblue" points="1105.78,-173.196 1096.42,-178.169 1106.84,-180.115 1105.78,-173.196"/>
</g>
<!-- Node24 -->
<g id="node61" class="node"><title>Node24</title>
<a xlink:href="rectangle_8hpp.html" target="_top" xlink:title="include/rectangle.hpp">
<polygon fill="white" stroke="black" points="1604.5,-58.5 1604.5,-79.5 1713.5,-79.5 1713.5,-58.5 1604.5,-58.5"/>
<text text-anchor="middle" x="1659" y="-66.5" font-family="Helvetica,sans-Serif" font-size="10.00">include/rectangle.hpp</text>
</a>
</g>
<!-- Node3&#45;&gt;Node24 -->
<g id="edge74" class="edge"><title>Node3&#45;&gt;Node24</title>
<path fill="none" stroke="midnightblue" d="M1106.23,-176.238C1168.33,-167.601 1264.3,-153.479 1347,-138 1443.38,-119.961 1555.4,-93.9394 1615.52,-79.5572"/>
<polygon fill="midnightblue" stroke="midnightblue" points="1105.61,-172.791 1096.18,-177.629 1106.57,-179.725 1105.61,-172.791"/>
</g>
<!-- Node26 -->
<g id="node68" class="node"><title>Node26</title>
<a xlink:href="trigger_8hpp.html" target="_top" xlink:title="include/trigger.hpp">
<polygon fill="white" stroke="black" points="897,-58.5 897,-79.5 993,-79.5 993,-58.5 897,-58.5"/>
<text text-anchor="middle" x="945" y="-66.5" font-family="Helvetica,sans-Serif" font-size="10.00">include/trigger.hpp</text>
</a>
</g>
<!-- Node3&#45;&gt;Node26 -->
<g id="edge84" class="edge"><title>Node3&#45;&gt;Node26</title>
<path fill="none" stroke="midnightblue" d="M1025.63,-166.424C1005.31,-141.872 970.181,-99.4272 953.838,-79.6792"/>
<polygon fill="midnightblue" stroke="midnightblue" points="1023.07,-168.822 1032.14,-174.295 1028.46,-164.359 1023.07,-168.822"/>
</g>
<!-- Node27 -->
<g id="node75" class="node"><title>Node27</title>
<a xlink:href="group_8hpp.html" target="_top" xlink:title="include/group.hpp">
<polygon fill="white" stroke="black" points="1160.5,-116.5 1160.5,-137.5 1253.5,-137.5 1253.5,-116.5 1160.5,-116.5"/>
<text text-anchor="middle" x="1207" y="-124.5" font-family="Helvetica,sans-Serif" font-size="10.00">include/group.hpp</text>
</a>
</g>
<!-- Node3&#45;&gt;Node27 -->
<g id="edge96" class="edge"><title>Node3&#45;&gt;Node27</title>
<path fill="none" stroke="midnightblue" d="M1080.66,-171.144C1110.2,-160.823 1149.92,-146.944 1176.88,-137.523"/>
<polygon fill="midnightblue" stroke="midnightblue" points="1079.35,-167.894 1071.06,-174.497 1081.66,-174.502 1079.35,-167.894"/>
</g>
<!-- Node5 -->
<g id="node9" class="node"><title>Node5</title>
<a xlink:href="viewport_8hpp.html" target="_top" xlink:title="include/viewport.hpp">
<polygon fill="white" stroke="black" points="269,-58.5 269,-79.5 375,-79.5 375,-58.5 269,-58.5"/>
<text text-anchor="middle" x="322" y="-66.5" font-family="Helvetica,sans-Serif" font-size="10.00">include/viewport.hpp</text>
</a>
</g>
<!-- Node4&#45;&gt;Node5 -->
<g id="edge8" class="edge"><title>Node4&#45;&gt;Node5</title>
<path fill="none" stroke="midnightblue" d="M328.463,-106.488C326.895,-97.3924 325.116,-87.0756 323.823,-79.5707"/>
<polygon fill="midnightblue" stroke="midnightblue" points="325.018,-107.102 330.166,-116.362 331.916,-105.913 325.018,-107.102"/>
</g>
<!-- Node4&#45;&gt;Node6 -->
<g id="edge24" class="edge"><title>Node4&#45;&gt;Node6</title>
<path fill="none" stroke="midnightblue" d="M351.674,-109.953C373.251,-91.621 406.827,-64.2528 422,-58 429.219,-55.0251 637.799,-29.3121 736.791,-17.2272"/>
<polygon fill="midnightblue" stroke="midnightblue" points="349.377,-107.312 344.055,-116.474 353.928,-112.631 349.377,-107.312"/>
</g>
<!-- Node12 -->
<g id="node25" class="node"><title>Node12</title>
<a xlink:href="cube_8cpp.html" target="_top" xlink:title="src/cube.cpp">
<polygon fill="white" stroke="black" points="178.5,-58.5 178.5,-79.5 251.5,-79.5 251.5,-58.5 178.5,-58.5"/>
<text text-anchor="middle" x="215" y="-66.5" font-family="Helvetica,sans-Serif" font-size="10.00">src/cube.cpp</text>
</a>
</g>
<!-- Node4&#45;&gt;Node12 -->
<g id="edge26" class="edge"><title>Node4&#45;&gt;Node12</title>
<path fill="none" stroke="midnightblue" d="M301.604,-111.932C281.152,-101.793 254.689,-88.6748 236.426,-79.6212"/>
<polygon fill="midnightblue" stroke="midnightblue" points="300.298,-115.191 310.812,-116.497 303.407,-108.919 300.298,-115.191"/>
</g>
<!-- Node13 -->
<g id="node27" class="node"><title>Node13</title>
<a xlink:href="trigger_8cpp.html" target="_top" xlink:title="src/trigger.cpp">
<polygon fill="white" stroke="black" points="201.5,-0.5 201.5,-21.5 280.5,-21.5 280.5,-0.5 201.5,-0.5"/>
<text text-anchor="middle" x="241" y="-8.5" font-family="Helvetica,sans-Serif" font-size="10.00">src/trigger.cpp</text>
</a>
</g>
<!-- Node4&#45;&gt;Node13 -->
<g id="edge28" class="edge"><title>Node4&#45;&gt;Node13</title>
<path fill="none" stroke="midnightblue" d="M276.621,-118.185C234.994,-110.296 182.998,-97.3054 170,-80 152.658,-56.9112 188.654,-34.4106 215.451,-21.6697"/>
<polygon fill="midnightblue" stroke="midnightblue" points="276.21,-121.668 286.678,-120.032 277.475,-114.783 276.21,-121.668"/>
</g>
<!-- Node14 -->
<g id="node29" class="node"><title>Node14</title>
<a xlink:href="world_8cpp.html" target="_top" xlink:title="src/world.cpp">
<polygon fill="white" stroke="black" points="430.5,-58.5 430.5,-79.5 505.5,-79.5 505.5,-58.5 430.5,-58.5"/>
<text text-anchor="middle" x="468" y="-66.5" font-family="Helvetica,sans-Serif" font-size="10.00">src/world.cpp</text>
</a>
</g>
<!-- Node4&#45;&gt;Node14 -->
<g id="edge30" class="edge"><title>Node4&#45;&gt;Node14</title>
<path fill="none" stroke="midnightblue" d="M366.048,-112.479C389.989,-102.269 421.482,-88.8386 443.095,-79.6212"/>
<polygon fill="midnightblue" stroke="midnightblue" points="364.454,-109.354 356.629,-116.497 367.2,-115.793 364.454,-109.354"/>
</g>
<!-- Node5&#45;&gt;Node2 -->
<g id="edge10" class="edge"><title>Node5&#45;&gt;Node2</title>
<path fill="none" stroke="midnightblue" d="M258.727,-57.2815C210.469,-48.1684 142.406,-34.9385 83,-22 80.1117,-21.3709 77.126,-20.7012 74.1275,-20.0148"/>
<polygon fill="midnightblue" stroke="midnightblue" points="258.239,-60.751 268.714,-59.162 259.535,-53.8719 258.239,-60.751"/>
</g>
<!-- Node5&#45;&gt;Node6 -->
<g id="edge12" class="edge"><title>Node5&#45;&gt;Node6</title>
<path fill="none" stroke="midnightblue" d="M385.646,-58.4789C386.772,-58.3161 387.891,-58.1563 389,-58 397.536,-56.7971 630.966,-29.4079 736.753,-17.0059"/>
<polygon fill="midnightblue" stroke="midnightblue" points="384.734,-55.0763 375.36,-60.0149 385.767,-61.9995 384.734,-55.0763"/>
</g>
<!-- Node7 -->
<g id="node14" class="node"><title>Node7</title>
<a xlink:href="fileloader_8cpp.html" target="_top" xlink:title="src/fileloader.cpp">
<polygon fill="white" stroke="black" points="297.5,-0.5 297.5,-21.5 388.5,-21.5 388.5,-0.5 297.5,-0.5"/>
<text text-anchor="middle" x="343" y="-8.5" font-family="Helvetica,sans-Serif" font-size="10.00">src/fileloader.cpp</text>
</a>
</g>
<!-- Node5&#45;&gt;Node7 -->
<g id="edge14" class="edge"><title>Node5&#45;&gt;Node7</title>
<path fill="none" stroke="midnightblue" d="M329.32,-48.7838C332.639,-39.617 336.426,-29.1572 339.173,-21.5707"/>
<polygon fill="midnightblue" stroke="midnightblue" points="325.965,-47.7677 325.852,-58.3619 332.547,-50.1508 325.965,-47.7677"/>
</g>
<!-- Node5&#45;&gt;Node8 -->
<g id="edge16" class="edge"><title>Node5&#45;&gt;Node8</title>
<path fill="none" stroke="midnightblue" d="M278.896,-55.4127C246.067,-45.0646 201.53,-31.0258 171.384,-21.5231"/>
<polygon fill="midnightblue" stroke="midnightblue" points="278.089,-58.8283 288.679,-58.4966 280.194,-52.1521 278.089,-58.8283"/>
</g>
<!-- Node9 -->
<g id="node18" class="node"><title>Node9</title>
<a xlink:href="light_8cpp.html" target="_top" xlink:title="src/light.cpp">
<polygon fill="white" stroke="black" points="441,-0.5 441,-21.5 511,-21.5 511,-0.5 441,-0.5"/>
<text text-anchor="middle" x="476" y="-8.5" font-family="Helvetica,sans-Serif" font-size="10.00">src/light.cpp</text>
</a>
</g>
<!-- Node5&#45;&gt;Node9 -->
<g id="edge18" class="edge"><title>Node5&#45;&gt;Node9</title>
<path fill="none" stroke="midnightblue" d="M359.506,-54.8742C386.834,-44.5819 423.263,-30.862 448.059,-21.5231"/>
<polygon fill="midnightblue" stroke="midnightblue" points="358.013,-51.6966 349.888,-58.4966 360.48,-58.2474 358.013,-51.6966"/>
</g>
<!-- Node10 -->
<g id="node20" class="node"><title>Node10</title>
<a xlink:href="spotlight_8cpp.html" target="_top" xlink:title="src/spotlight.cpp">
<polygon fill="white" stroke="black" points="596.5,-0.5 596.5,-21.5 685.5,-21.5 685.5,-0.5 596.5,-0.5"/>
<text text-anchor="middle" x="641" y="-8.5" font-family="Helvetica,sans-Serif" font-size="10.00">src/spotlight.cpp</text>
</a>
</g>
<!-- Node5&#45;&gt;Node10 -->
<g id="edge20" class="edge"><title>Node5&#45;&gt;Node10</title>
<path fill="none" stroke="midnightblue" d="M385.132,-57.5215C447.41,-46.1981 541.045,-29.1737 596.095,-19.1646"/>
<polygon fill="midnightblue" stroke="midnightblue" points="384.247,-54.1249 375.034,-59.3574 385.499,-61.012 384.247,-54.1249"/>
</g>
<!-- Node11 -->
<g id="node22" class="node"><title>Node11</title>
<a xlink:href="viewport_8cpp.html" target="_top" xlink:title="src/viewport.cpp">
<polygon fill="white" stroke="black" points="1249.5,-0.5 1249.5,-21.5 1338.5,-21.5 1338.5,-0.5 1249.5,-0.5"/>
<text text-anchor="middle" x="1294" y="-8.5" font-family="Helvetica,sans-Serif" font-size="10.00">src/viewport.cpp</text>
</a>
</g>
<!-- Node5&#45;&gt;Node11 -->
<g id="edge22" class="edge"><title>Node5&#45;&gt;Node11</title>
<path fill="none" stroke="midnightblue" d="M385.231,-61.4239C397.419,-60.1393 410.096,-58.9243 422,-58 773.306,-30.7222 863.096,-54.0325 1214,-22 1225.45,-20.9549 1237.77,-19.4507 1249.23,-17.8888"/>
<polygon fill="midnightblue" stroke="midnightblue" points="384.702,-57.9606 375.135,-62.5144 385.454,-64.9201 384.702,-57.9606"/>
</g>
<!-- Node15&#45;&gt;Node5 -->
<g id="edge34" class="edge"><title>Node15&#45;&gt;Node5</title>
<path fill="none" stroke="midnightblue" d="M530.716,-114.339C482.734,-103.916 415.508,-89.3126 370.442,-79.5231"/>
<polygon fill="midnightblue" stroke="midnightblue" points="530.133,-117.794 540.648,-116.497 531.619,-110.954 530.133,-117.794"/>
</g>
<!-- Node15&#45;&gt;Node6 -->
<g id="edge36" class="edge"><title>Node15&#45;&gt;Node6</title>
<path fill="none" stroke="midnightblue" d="M616.072,-111.219C657.345,-87.1606 734.899,-41.9533 769.967,-21.5117"/>
<polygon fill="midnightblue" stroke="midnightblue" points="614.242,-108.235 607.365,-116.295 617.767,-114.283 614.242,-108.235"/>
</g>
<!-- Node15&#45;&gt;Node14 -->
<g id="edge42" class="edge"><title>Node15&#45;&gt;Node14</title>
<path fill="none" stroke="midnightblue" d="M557.851,-112.069C536.661,-101.912 509.131,-88.7157 490.158,-79.6212"/>
<polygon fill="midnightblue" stroke="midnightblue" points="556.557,-115.33 567.088,-116.497 559.583,-109.018 556.557,-115.33"/>
</g>
<!-- Node16 -->
<g id="node35" class="node"><title>Node16</title>
<a xlink:href="mainwindow_8cpp.html" target="_top" xlink:title="src/mainwindow.cpp">
<polygon fill="white" stroke="black" points="995,-0.5 995,-21.5 1101,-21.5 1101,-0.5 995,-0.5"/>
<text text-anchor="middle" x="1048" y="-8.5" font-family="Helvetica,sans-Serif" font-size="10.00">src/mainwindow.cpp</text>
</a>
</g>
<!-- Node15&#45;&gt;Node16 -->
<g id="edge38" class="edge"><title>Node15&#45;&gt;Node16</title>
<path fill="none" stroke="midnightblue" d="M648.294,-116.855C722.35,-104.105 840.556,-83.4631 850,-80 868.322,-73.2812 870.066,-65.6939 888,-58 924.983,-42.1343 968.975,-29.6414 1001.46,-21.5362"/>
<polygon fill="midnightblue" stroke="midnightblue" points="647.415,-113.454 638.153,-118.599 648.602,-120.353 647.415,-113.454"/>
</g>
<!-- Node17 -->
<g id="node37" class="node"><title>Node17</title>
<a xlink:href="sphere_8cpp.html" target="_top" xlink:title="src/sphere.cpp">
<polygon fill="white" stroke="black" points="522.5,-58.5 522.5,-79.5 603.5,-79.5 603.5,-58.5 522.5,-58.5"/>
<text text-anchor="middle" x="563" y="-66.5" font-family="Helvetica,sans-Serif" font-size="10.00">src/sphere.cpp</text>
</a>
</g>
<!-- Node15&#45;&gt;Node17 -->
<g id="edge40" class="edge"><title>Node15&#45;&gt;Node17</title>
<path fill="none" stroke="midnightblue" d="M580.07,-107.079C575.929,-97.8422 571.176,-87.2388 567.739,-79.5707"/>
<polygon fill="midnightblue" stroke="midnightblue" points="576.947,-108.669 584.231,-116.362 583.334,-105.805 576.947,-108.669"/>
</g>
<!-- Node18&#45;&gt;Node6 -->
<g id="edge46" class="edge"><title>Node18&#45;&gt;Node6</title>
<path fill="none" stroke="midnightblue" d="M1430.24,-57.905C1299.42,-42.7284 967.604,-21.881 839.468,-14.0881"/>
<polygon fill="midnightblue" stroke="midnightblue" points="1430.07,-61.4098 1440.41,-59.1251 1430.9,-54.4596 1430.07,-61.4098"/>
</g>
<!-- Node18&#45;&gt;Node11 -->
<g id="edge52" class="edge"><title>Node18&#45;&gt;Node11</title>
<path fill="none" stroke="midnightblue" d="M1448.84,-55.6795C1412.89,-45.307 1363.68,-31.1078 1330.47,-21.5231"/>
<polygon fill="midnightblue" stroke="midnightblue" points="1448.02,-59.0869 1458.6,-58.4966 1449.96,-52.3613 1448.02,-59.0869"/>
</g>
<!-- Node18&#45;&gt;Node16 -->
<g id="edge48" class="edge"><title>Node18&#45;&gt;Node16</title>
<path fill="none" stroke="midnightblue" d="M1430.4,-57.8354C1287.74,-37.817 1249.32,-42.1262 1110,-22 1107.08,-21.578 1104.08,-21.1226 1101.06,-20.6457"/>
<polygon fill="midnightblue" stroke="midnightblue" points="1430,-61.3149 1440.4,-59.2545 1430.99,-54.3843 1430,-61.3149"/>
</g>
<!-- Node19 -->
<g id="node44" class="node"><title>Node19</title>
<a xlink:href="pyramide_8cpp.html" target="_top" xlink:title="src/pyramide.cpp">
<polygon fill="white" stroke="black" points="1449,-0.5 1449,-21.5 1541,-21.5 1541,-0.5 1449,-0.5"/>
<text text-anchor="middle" x="1495" y="-8.5" font-family="Helvetica,sans-Serif" font-size="10.00">src/pyramide.cpp</text>
</a>
</g>
<!-- Node18&#45;&gt;Node19 -->
<g id="edge50" class="edge"><title>Node18&#45;&gt;Node19</title>
<path fill="none" stroke="midnightblue" d="M1495,-48.1906C1495,-39.1684 1495,-28.9941 1495,-21.5707"/>
<polygon fill="midnightblue" stroke="midnightblue" points="1491.5,-48.3619 1495,-58.3619 1498.5,-48.3619 1491.5,-48.3619"/>
</g>
<!-- Node20&#45;&gt;Node6 -->
<g id="edge56" class="edge"><title>Node20&#45;&gt;Node6</title>
<path fill="none" stroke="midnightblue" d="M1038.3,-57.5296C980.007,-46.6937 893.604,-30.6316 839.078,-20.4953"/>
<polygon fill="midnightblue" stroke="midnightblue" points="1038.01,-61.0358 1048.48,-59.4225 1039.29,-54.1537 1038.01,-61.0358"/>
</g>
<!-- Node20&#45;&gt;Node11 -->
<g id="edge62" class="edge"><title>Node20&#45;&gt;Node11</title>
<path fill="none" stroke="midnightblue" d="M1145,-55.5464C1179.65,-45.1857 1226.88,-31.0668 1258.8,-21.5231"/>
<polygon fill="midnightblue" stroke="midnightblue" points="1143.71,-52.2788 1135.13,-58.4966 1145.72,-58.9855 1143.71,-52.2788"/>
</g>
<!-- Node20&#45;&gt;Node16 -->
<g id="edge60" class="edge"><title>Node20&#45;&gt;Node16</title>
<path fill="none" stroke="midnightblue" d="M1083.71,-50.8299C1075.08,-41.2078 1064.79,-29.7282 1057.48,-21.5707"/>
<polygon fill="midnightblue" stroke="midnightblue" points="1081.18,-53.2526 1090.46,-58.3619 1086.39,-48.5798 1081.18,-53.2526"/>
</g>
<!-- Node21 -->
<g id="node50" class="node"><title>Node21</title>
<a xlink:href="cylinder_8cpp.html" target="_top" xlink:title="src/cylinder.cpp">
<polygon fill="white" stroke="black" points="1119,-0.5 1119,-21.5 1205,-21.5 1205,-0.5 1119,-0.5"/>
<text text-anchor="middle" x="1162" y="-8.5" font-family="Helvetica,sans-Serif" font-size="10.00">src/cylinder.cpp</text>
</a>
</g>
<!-- Node20&#45;&gt;Node21 -->
<g id="edge58" class="edge"><title>Node20&#45;&gt;Node21</title>
<path fill="none" stroke="midnightblue" d="M1118.81,-51.405C1129.22,-41.6683 1141.81,-29.8914 1150.7,-21.5707"/>
<polygon fill="midnightblue" stroke="midnightblue" points="1116.28,-48.9743 1111.37,-58.3619 1121.07,-54.0863 1116.28,-48.9743"/>
</g>
<!-- Node22&#45;&gt;Node6 -->
<g id="edge66" class="edge"><title>Node22&#45;&gt;Node6</title>
<path fill="none" stroke="midnightblue" d="M1328.72,-63.8862C1215.89,-52.8507 950.759,-26.9191 839.05,-15.9931"/>
<polygon fill="midnightblue" stroke="midnightblue" points="1328.54,-67.3851 1338.83,-64.8753 1329.22,-60.4184 1328.54,-67.3851"/>
</g>
<!-- Node22&#45;&gt;Node11 -->
<g id="edge72" class="edge"><title>Node22&#45;&gt;Node11</title>
<path fill="none" stroke="midnightblue" d="M1356.31,-52.5407C1341.4,-42.5973 1322.83,-30.2177 1309.86,-21.5707"/>
<polygon fill="midnightblue" stroke="midnightblue" points="1354.78,-55.727 1365.04,-58.3619 1358.66,-49.9027 1354.78,-55.727"/>
</g>
<!-- Node22&#45;&gt;Node16 -->
<g id="edge70" class="edge"><title>Node22&#45;&gt;Node16</title>
<path fill="none" stroke="midnightblue" d="M1328.62,-59.9771C1274.03,-50.5589 1186,-35.332 1110,-22 1107.09,-21.49 1104.11,-20.9652 1101.1,-20.4344"/>
<polygon fill="midnightblue" stroke="midnightblue" points="1328.3,-63.473 1338.74,-61.7237 1329.48,-56.5749 1328.3,-63.473"/>
</g>
<!-- Node23 -->
<g id="node57" class="node"><title>Node23</title>
<a xlink:href="line_8cpp.html" target="_top" xlink:title="src/line.cpp">
<polygon fill="white" stroke="black" points="1355.5,-0.5 1355.5,-21.5 1422.5,-21.5 1422.5,-0.5 1355.5,-0.5"/>
<text text-anchor="middle" x="1389" y="-8.5" font-family="Helvetica,sans-Serif" font-size="10.00">src/line.cpp</text>
</a>
</g>
<!-- Node22&#45;&gt;Node23 -->
<g id="edge68" class="edge"><title>Node22&#45;&gt;Node23</title>
<path fill="none" stroke="midnightblue" d="M1383.87,-48.1906C1385.11,-39.1684 1386.52,-28.9941 1387.54,-21.5707"/>
<polygon fill="midnightblue" stroke="midnightblue" points="1380.37,-47.9774 1382.47,-58.3619 1387.3,-48.934 1380.37,-47.9774"/>
</g>
<!-- Node24&#45;&gt;Node6 -->
<g id="edge76" class="edge"><title>Node24&#45;&gt;Node6</title>
<path fill="none" stroke="midnightblue" d="M1594.28,-61.4897C1582.23,-60.2226 1569.74,-58.997 1558,-58 1417.54,-46.0716 987.46,-21.9822 839.015,-13.7959"/>
<polygon fill="midnightblue" stroke="midnightblue" points="1593.95,-64.9749 1604.27,-62.5596 1594.7,-58.0146 1593.95,-64.9749"/>
</g>
<!-- Node24&#45;&gt;Node11 -->
<g id="edge82" class="edge"><title>Node24&#45;&gt;Node11</title>
<path fill="none" stroke="midnightblue" d="M1594.31,-58.5132C1593.2,-58.3403 1592.09,-58.1691 1591,-58 1482.67,-41.2472 1454.93,-41.1462 1347,-22 1344.32,-21.524 1341.56,-21.0147 1338.78,-20.4857"/>
<polygon fill="midnightblue" stroke="midnightblue" points="1594.03,-62.0125 1604.45,-60.1076 1595.12,-55.0974 1594.03,-62.0125"/>
</g>
<!-- Node24&#45;&gt;Node16 -->
<g id="edge78" class="edge"><title>Node24&#45;&gt;Node16</title>
<path fill="none" stroke="midnightblue" d="M1594.26,-61.6745C1582.21,-60.3893 1569.73,-59.1098 1558,-58 1359.14,-39.1844 1308.12,-47.4765 1110,-22 1107.07,-21.6235 1104.07,-21.2041 1101.05,-20.755"/>
<polygon fill="midnightblue" stroke="midnightblue" points="1593.93,-65.1594 1604.25,-62.7517 1594.69,-58.1998 1593.93,-65.1594"/>
</g>
<!-- Node25 -->
<g id="node65" class="node"><title>Node25</title>
<a xlink:href="rectangle_8cpp.html" target="_top" xlink:title="src/rectangle.cpp">
<polygon fill="white" stroke="black" points="1613,-0.5 1613,-21.5 1705,-21.5 1705,-0.5 1613,-0.5"/>
<text text-anchor="middle" x="1659" y="-8.5" font-family="Helvetica,sans-Serif" font-size="10.00">src/rectangle.cpp</text>
</a>
</g>
<!-- Node24&#45;&gt;Node25 -->
<g id="edge80" class="edge"><title>Node24&#45;&gt;Node25</title>
<path fill="none" stroke="midnightblue" d="M1659,-48.1906C1659,-39.1684 1659,-28.9941 1659,-21.5707"/>
<polygon fill="midnightblue" stroke="midnightblue" points="1655.5,-48.3619 1659,-58.3619 1662.5,-48.3619 1655.5,-48.3619"/>
</g>
<!-- Node26&#45;&gt;Node6 -->
<g id="edge86" class="edge"><title>Node26&#45;&gt;Node6</title>
<path fill="none" stroke="midnightblue" d="M907.129,-55.0095C879.229,-44.7023 841.875,-30.903 816.485,-21.5231"/>
<polygon fill="midnightblue" stroke="midnightblue" points="905.975,-58.3143 916.568,-58.4966 908.401,-51.7481 905.975,-58.3143"/>
</g>
<!-- Node26&#45;&gt;Node11 -->
<g id="edge92" class="edge"><title>Node26&#45;&gt;Node11</title>
<path fill="none" stroke="midnightblue" d="M1003.04,-59.354C1072.31,-47.8417 1186.63,-28.843 1249.37,-18.4173"/>
<polygon fill="midnightblue" stroke="midnightblue" points="1002.45,-55.9041 993.161,-60.9962 1003.6,-62.8094 1002.45,-55.9041"/>
</g>
<!-- Node26&#45;&gt;Node13 -->
<g id="edge90" class="edge"><title>Node26&#45;&gt;Node13</title>
<path fill="none" stroke="midnightblue" d="M886.706,-61.773C874.586,-60.4045 861.886,-59.0688 850,-58 601.158,-35.6239 536.236,-58.0218 289,-22 286.293,-21.6056 283.512,-21.1379 280.719,-20.6214"/>
<polygon fill="midnightblue" stroke="midnightblue" points="886.386,-65.2592 896.72,-62.9252 887.186,-58.305 886.386,-65.2592"/>
</g>
<!-- Node26&#45;&gt;Node16 -->
<g id="edge88" class="edge"><title>Node26&#45;&gt;Node16</title>
<path fill="none" stroke="midnightblue" d="M972.741,-53.379C990.638,-43.3011 1013.44,-30.4624 1029.23,-21.5707"/>
<polygon fill="midnightblue" stroke="midnightblue" points="970.888,-50.4055 963.892,-58.3619 974.323,-56.505 970.888,-50.4055"/>
</g>
<!-- Node27&#45;&gt;Node11 -->
<g id="edge102" class="edge"><title>Node27&#45;&gt;Node11</title>
<path fill="none" stroke="midnightblue" d="M1263.82,-123.437C1358.22,-116.932 1538.95,-101.769 1558,-80 1604.93,-26.363 1658.15,-80.8141 1347,-22 1344.23,-21.4764 1341.38,-20.9244 1338.51,-20.358"/>
<polygon fill="midnightblue" stroke="midnightblue" points="1263.32,-119.962 1253.58,-124.131 1263.79,-126.946 1263.32,-119.962"/>
</g>
<!-- Node27&#45;&gt;Node14 -->
<g id="edge104" class="edge"><title>Node27&#45;&gt;Node14</title>
<path fill="none" stroke="midnightblue" d="M1150.18,-126.35C1031.38,-124.29 748.333,-115.708 514,-80 511.24,-79.5794 508.402,-79.0765 505.555,-78.5206"/>
<polygon fill="midnightblue" stroke="midnightblue" points="1150.42,-129.855 1160.48,-126.52 1150.54,-122.856 1150.42,-129.855"/>
</g>
<!-- Node27&#45;&gt;Node16 -->
<g id="edge100" class="edge"><title>Node27&#45;&gt;Node16</title>
<path fill="none" stroke="midnightblue" d="M1231.64,-109.915C1249.21,-95.6355 1267.51,-74.9443 1254,-58 1249.15,-51.9237 1160.42,-33.2894 1101,-21.3905"/>
<polygon fill="midnightblue" stroke="midnightblue" points="1229.03,-107.506 1223.22,-116.366 1233.28,-113.063 1229.03,-107.506"/>
</g>
<!-- Node28 -->
<g id="node77" class="node"><title>Node28</title>
<a xlink:href="group_8cpp.html" target="_top" xlink:title="src/group.cpp">
<polygon fill="white" stroke="black" points="1169,-58.5 1169,-79.5 1245,-79.5 1245,-58.5 1169,-58.5"/>
<text text-anchor="middle" x="1207" y="-66.5" font-family="Helvetica,sans-Serif" font-size="10.00">src/group.cpp</text>
</a>
</g>
<!-- Node27&#45;&gt;Node28 -->
<g id="edge98" class="edge"><title>Node27&#45;&gt;Node28</title>
<path fill="none" stroke="midnightblue" d="M1207,-106.191C1207,-97.1684 1207,-86.9941 1207,-79.5707"/>
<polygon fill="midnightblue" stroke="midnightblue" points="1203.5,-106.362 1207,-116.362 1210.5,-106.362 1203.5,-106.362"/>
</g>
<!-- Node29&#45;&gt;Node5 -->
<g id="edge108" class="edge"><title>Node29&#45;&gt;Node5</title>
<path fill="none" stroke="midnightblue" d="M424.701,-112.479C400.585,-102.269 368.86,-88.8386 347.088,-79.6212"/>
<polygon fill="midnightblue" stroke="midnightblue" points="423.617,-115.821 434.19,-116.497 426.346,-109.375 423.617,-115.821"/>
</g>
<!-- Node29&#45;&gt;Node14 -->
<g id="edge110" class="edge"><title>Node29&#45;&gt;Node14</title>
<path fill="none" stroke="midnightblue" d="M462.229,-106.191C463.629,-97.1684 465.208,-86.9941 466.36,-79.5707"/>
<polygon fill="midnightblue" stroke="midnightblue" points="458.726,-105.943 460.651,-116.362 465.643,-107.017 458.726,-105.943"/>
</g>
<!-- Node30&#45;&gt;Node6 -->
<g id="edge116" class="edge"><title>Node30&#45;&gt;Node6</title>
<path fill="none" stroke="midnightblue" d="M709.146,-106.286C711.459,-91.7562 716.226,-72.4272 726,-58 736.606,-42.3443 754.154,-29.7556 767.879,-21.5616"/>
<polygon fill="midnightblue" stroke="midnightblue" points="705.663,-105.926 707.813,-116.301 712.602,-106.85 705.663,-105.926"/>
</g>
<!-- Node30&#45;&gt;Node9 -->
<g id="edge128" class="edge"><title>Node30&#45;&gt;Node9</title>
<path fill="none" stroke="midnightblue" d="M687.161,-109.884C668.696,-94.634 639.903,-72.5426 612,-58 579.435,-41.0275 539.426,-28.0497 511.259,-20.0752"/>
<polygon fill="midnightblue" stroke="midnightblue" points="684.967,-112.612 694.878,-116.357 689.466,-107.249 684.967,-112.612"/>
</g>
<!-- Node30&#45;&gt;Node11 -->
<g id="edge132" class="edge"><title>Node30&#45;&gt;Node11</title>
<path fill="none" stroke="midnightblue" d="M760.969,-125.176C890.823,-120.391 1213.01,-106.016 1254,-80 1275.28,-66.495 1286.52,-37.3176 1291.24,-21.5779"/>
<polygon fill="midnightblue" stroke="midnightblue" points="760.718,-121.683 750.851,-125.544 760.972,-128.678 760.718,-121.683"/>
</g>
<!-- Node30&#45;&gt;Node14 -->
<g id="edge134" class="edge"><title>Node30&#45;&gt;Node14</title>
<path fill="none" stroke="midnightblue" d="M653.863,-114.105C608.961,-103.208 545.755,-87.8694 505.842,-78.1835"/>
<polygon fill="midnightblue" stroke="midnightblue" points="653.176,-117.54 663.719,-116.497 654.826,-110.737 653.176,-117.54"/>
</g>
<!-- Node30&#45;&gt;Node16 -->
<g id="edge130" class="edge"><title>Node30&#45;&gt;Node16</title>
<path fill="none" stroke="midnightblue" d="M760.608,-123.589C834.503,-118.032 962.968,-105.04 1002,-80 1023.93,-65.9292 1037.85,-37.2627 1044.12,-21.6737"/>
<polygon fill="midnightblue" stroke="midnightblue" points="760.276,-120.104 750.558,-124.324 760.786,-127.085 760.276,-120.104"/>
</g>
<!-- Node31 -->
<g id="node90" class="node"><title>Node31</title>
<a xlink:href="spotlight_8hpp.html" target="_top" xlink:title="include/spotlight.hpp">
<polygon fill="white" stroke="black" points="735,-58.5 735,-79.5 841,-79.5 841,-58.5 735,-58.5"/>
<text text-anchor="middle" x="788" y="-66.5" font-family="Helvetica,sans-Serif" font-size="10.00">include/spotlight.hpp</text>
</a>
</g>
<!-- Node30&#45;&gt;Node31 -->
<g id="edge118" class="edge"><title>Node30&#45;&gt;Node31</title>
<path fill="none" stroke="midnightblue" d="M730.38,-110.259C744.198,-100.364 761.275,-88.1361 773.238,-79.5707"/>
<polygon fill="midnightblue" stroke="midnightblue" points="727.95,-107.694 721.857,-116.362 732.025,-113.386 727.95,-107.694"/>
</g>
<!-- Node31&#45;&gt;Node6 -->
<g id="edge120" class="edge"><title>Node31&#45;&gt;Node6</title>
<path fill="none" stroke="midnightblue" d="M788,-48.1906C788,-39.1684 788,-28.9941 788,-21.5707"/>
<polygon fill="midnightblue" stroke="midnightblue" points="784.5,-48.3619 788,-58.3619 791.5,-48.3619 784.5,-48.3619"/>
</g>
<!-- Node31&#45;&gt;Node10 -->
<g id="edge124" class="edge"><title>Node31&#45;&gt;Node10</title>
<path fill="none" stroke="midnightblue" d="M751.886,-54.7509C725.927,-44.5086 691.488,-30.9206 667.919,-21.6212"/>
<polygon fill="midnightblue" stroke="midnightblue" points="750.793,-58.0821 761.379,-58.4966 753.362,-51.5706 750.793,-58.0821"/>
</g>
<!-- Node31&#45;&gt;Node11 -->
<g id="edge126" class="edge"><title>Node31&#45;&gt;Node11</title>
<path fill="none" stroke="midnightblue" d="M851.214,-62.0477C967.667,-49.237 1205.1,-23.1031 1214,-22 1225.41,-20.5865 1237.72,-18.95 1249.18,-17.3783"/>
<polygon fill="midnightblue" stroke="midnightblue" points="850.567,-58.5976 841.01,-63.1702 851.332,-65.5557 850.567,-58.5976"/>
</g>
<!-- Node31&#45;&gt;Node16 -->
<g id="edge122" class="edge"><title>Node31&#45;&gt;Node16</title>
<path fill="none" stroke="midnightblue" d="M845.049,-56.2737C891.754,-45.8548 957.036,-31.2921 1000.83,-21.5231"/>
<polygon fill="midnightblue" stroke="midnightblue" points="844.082,-52.9033 835.084,-58.4966 845.606,-59.7353 844.082,-52.9033"/>
</g>
</g>
</svg>
        <g id="navigator" transform="translate(0 0)" fill="#404254">
                <rect fill="#f2f5e9" fill-opacity="0.5" stroke="#606060" stroke-width=".5" x="0" y="0" width="60" height="60"/>
                <use id="zoomplus" xlink:href="#zoomPlus" x="17" y="9" onmousedown="handleZoom(evt,'in')"/>
                <use id="zoomminus" xlink:href="#zoomMin" x="42" y="9" onmousedown="handleZoom(evt,'out')"/>
                <use id="reset" xlink:href="#resetDef" x="30" y="36" onmousedown="handleReset()"/>
                <g id="arrowUp" xlink:href="#dirArrow" transform="translate(30 24)" onmousedown="handlePan(0,-1)">
                  <use xlink:href="#rim" fill="#404040">
                        <set attributeName="fill" to="#808080" begin="arrowUp.mouseover" end="arrowUp.mouseout"/>
                  </use>
                  <path fill="none" stroke="white" stroke-width="1.5" d="M0,-3.0v7 M-2.5,-0.5L0,-3.0L2.5,-0.5"/>
                </g>
                <g id="arrowRight" xlink:href="#dirArrow" transform="rotate(90) translate(36 -43)" onmousedown="handlePan(1,0)">
                  <use xlink:href="#rim" fill="#404040">
                        <set attributeName="fill" to="#808080" begin="arrowRight.mouseover" end="arrowRight.mouseout"/>
                  </use>
                  <path fill="none" stroke="white" stroke-width="1.5" d="M0,-3.0v7 M-2.5,-0.5L0,-3.0L2.5,-0.5"/>
                </g>
                <g id="arrowDown" xlink:href="#dirArrow" transform="rotate(180) translate(-30 -48)" onmousedown="handlePan(0,1)">
                  <use xlink:href="#rim" fill="#404040">
                        <set attributeName="fill" to="#808080" begin="arrowDown.mouseover" end="arrowDown.mouseout"/>
                  </use>
                  <path fill="none" stroke="white" stroke-width="1.5" d="M0,-3.0v7 M-2.5,-0.5L0,-3.0L2.5,-0.5"/>
                </g>
                <g id="arrowLeft" xlink:href="#dirArrow" transform="rotate(270) translate(-36 17)" onmousedown="handlePan(-1,0)">
                  <use xlink:href="#rim" fill="#404040">
                        <set attributeName="fill" to="#808080" begin="arrowLeft.mouseover" end="arrowLeft.mouseout"/>
                  </use>
                  <path fill="none" stroke="white" stroke-width="1.5" d="M0,-3.0v7 M-2.5,-0.5L0,-3.0L2.5,-0.5"/>
                </g>
        </g>
        <svg viewBox="0 0 15 15" width="100%" height="30px" preserveAspectRatio="xMaxYMin meet">
         <g id="arrow_out" transform="scale(0.3 0.3)">
          <a xlink:href="actor_8hpp__dep__incl_org.svg" target="_base">
           <rect id="button" ry="5" rx="5" y="6" x="6" height="38" width="38"
                fill="#f2f5e9" fill-opacity="0.5" stroke="#606060" stroke-width="1.0"/>
           <path id="arrow"
             d="M 11.500037,31.436501 C 11.940474,20.09759 22.043105,11.32322 32.158766,21.979434 L 37.068811,17.246167 C 37.068811,17.246167 37.088388,32 37.088388,32 L 22.160133,31.978069 C 22.160133,31.978069 26.997745,27.140456 26.997745,27.140456 C 18.528582,18.264221 13.291696,25.230495 11.500037,31.436501 z"
             style="fill:#404040;"/>
          </a>
         </g>
        </svg>
</svg>
