<?xml version="1.0" encoding="UTF-8" standalone="no"?>
<!DOCTYPE svg PUBLIC "-//W3C//DTD SVG 1.1//EN"
 "http://www.w3.org/Graphics/SVG/1.1/DTD/svg11.dtd">
<!-- Generated by graphviz version 2.26.3 (20100126.1600)
 -->
<!-- Title: include/actor.hpp Pages: 1 -->
<svg width="492pt" height="146pt"
 viewBox="0.00 0.00 492.00 146.00" xmlns="http://www.w3.org/2000/svg" xmlns:xlink="http://www.w3.org/1999/xlink">
<g id="graph1" class="graph" transform="scale(1 1) rotate(0) translate(4 142)">
<title>include/actor.hpp</title>
<polygon fill="white" stroke="white" points="-4,5 -4,-142 489,-142 489,5 -4,5"/>
<!-- Node1 -->
<g id="node1" class="node"><title>Node1</title>
<polygon fill="#bfbfbf" stroke="black" points="236.5,-116.5 236.5,-137.5 327.5,-137.5 327.5,-116.5 236.5,-116.5"/>
<text text-anchor="middle" x="282" y="-124.5" font-family="Helvetica,sans-Serif" font-size="10.00">include/actor.hpp</text>
</g>
<!-- Node2 -->
<g id="node3" class="node"><title>Node2</title>
<a xlink:href="globals_8hpp.html" target="_top" xlink:title="Definitions globales. ">
<polygon fill="white" stroke="black" points="114,-58.5 114,-79.5 180,-79.5 180,-58.5 114,-58.5"/>
<text text-anchor="middle" x="147" y="-66.5" font-family="Helvetica,sans-Serif" font-size="10.00">globals.hpp</text>
</a>
</g>
<!-- Node1&#45;&gt;Node2 -->
<g id="edge2" class="edge"><title>Node1&#45;&gt;Node2</title>
<path fill="none" stroke="midnightblue" d="M257.553,-116.497C236.182,-107.315 204.931,-93.8889 181.103,-83.6516"/>
<polygon fill="midnightblue" stroke="midnightblue" points="182.291,-80.3529 171.722,-79.6212 179.528,-86.7845 182.291,-80.3529"/>
</g>
<!-- Node7 -->
<g id="node13" class="node"><title>Node7</title>
<polygon fill="white" stroke="#bfbfbf" points="197.5,-58.5 197.5,-79.5 264.5,-79.5 264.5,-58.5 197.5,-58.5"/>
<text text-anchor="middle" x="231" y="-66.5" font-family="Helvetica,sans-Serif" font-size="10.00">QMatrix4x4</text>
</g>
<!-- Node1&#45;&gt;Node7 -->
<g id="edge12" class="edge"><title>Node1&#45;&gt;Node7</title>
<path fill="none" stroke="midnightblue" d="M272.646,-116.362C265.457,-108.186 255.359,-96.7025 246.907,-87.0907"/>
<polygon fill="midnightblue" stroke="midnightblue" points="249.527,-84.7692 240.295,-79.5707 244.27,-89.3916 249.527,-84.7692"/>
</g>
<!-- Node8 -->
<g id="node15" class="node"><title>Node8</title>
<polygon fill="white" stroke="#bfbfbf" points="281.5,-58.5 281.5,-79.5 384.5,-79.5 384.5,-58.5 281.5,-58.5"/>
<text text-anchor="middle" x="333" y="-66.5" font-family="Helvetica,sans-Serif" font-size="10.00">QOpenGLFunctions</text>
</g>
<!-- Node1&#45;&gt;Node8 -->
<g id="edge14" class="edge"><title>Node1&#45;&gt;Node8</title>
<path fill="none" stroke="midnightblue" d="M291.354,-116.362C298.543,-108.186 308.641,-96.7025 317.093,-87.0907"/>
<polygon fill="midnightblue" stroke="midnightblue" points="319.73,-89.3916 323.705,-79.5707 314.473,-84.7692 319.73,-89.3916"/>
</g>
<!-- Node9 -->
<g id="node17" class="node"><title>Node9</title>
<polygon fill="white" stroke="#bfbfbf" points="401.5,-58.5 401.5,-79.5 484.5,-79.5 484.5,-58.5 401.5,-58.5"/>
<text text-anchor="middle" x="443" y="-66.5" font-family="Helvetica,sans-Serif" font-size="10.00">QMetaProperty</text>
</g>
<!-- Node1&#45;&gt;Node9 -->
<g id="edge16" class="edge"><title>Node1&#45;&gt;Node9</title>
<path fill="none" stroke="midnightblue" d="M311.156,-116.497C337.176,-107.123 375.479,-93.3242 404.104,-83.0122"/>
<polygon fill="midnightblue" stroke="midnightblue" points="405.568,-86.2052 413.789,-79.5231 403.195,-79.6195 405.568,-86.2052"/>
</g>
<!-- Node3 -->
<g id="node5" class="node"><title>Node3</title>
<polygon fill="white" stroke="#bfbfbf" points="-0.5,-0.5 -0.5,-21.5 52.5,-21.5 52.5,-0.5 -0.5,-0.5"/>
<text text-anchor="middle" x="26" y="-8.5" font-family="Helvetica,sans-Serif" font-size="10.00">QObject</text>
</g>
<!-- Node2&#45;&gt;Node3 -->
<g id="edge4" class="edge"><title>Node2&#45;&gt;Node3</title>
<path fill="none" stroke="midnightblue" d="M125.088,-58.4966C106.189,-49.4378 78.6688,-36.2462 57.424,-26.0628"/>
<polygon fill="midnightblue" stroke="midnightblue" points="58.6885,-22.7876 48.1581,-21.6212 55.6627,-29.0999 58.6885,-22.7876"/>
</g>
<!-- Node4 -->
<g id="node7" class="node"><title>Node4</title>
<polygon fill="white" stroke="#bfbfbf" points="69.5,-0.5 69.5,-21.5 140.5,-21.5 140.5,-0.5 69.5,-0.5"/>
<text text-anchor="middle" x="105" y="-8.5" font-family="Helvetica,sans-Serif" font-size="10.00">QQuaternion</text>
</g>
<!-- Node2&#45;&gt;Node4 -->
<g id="edge6" class="edge"><title>Node2&#45;&gt;Node4</title>
<path fill="none" stroke="midnightblue" d="M139.297,-58.3619C133.554,-50.4313 125.557,-39.3885 118.73,-29.9606"/>
<polygon fill="midnightblue" stroke="midnightblue" points="121.355,-27.6173 112.655,-21.5707 115.685,-31.7229 121.355,-27.6173"/>
</g>
<!-- Node5 -->
<g id="node9" class="node"><title>Node5</title>
<polygon fill="white" stroke="#bfbfbf" points="157.5,-0.5 157.5,-21.5 222.5,-21.5 222.5,-0.5 157.5,-0.5"/>
<text text-anchor="middle" x="190" y="-8.5" font-family="Helvetica,sans-Serif" font-size="10.00">QVector3D</text>
</g>
<!-- Node2&#45;&gt;Node5 -->
<g id="edge8" class="edge"><title>Node2&#45;&gt;Node5</title>
<path fill="none" stroke="midnightblue" d="M154.887,-58.3619C160.827,-50.3496 169.122,-39.1605 176.159,-29.6696"/>
<polygon fill="midnightblue" stroke="midnightblue" points="179.019,-31.6883 182.163,-21.5707 173.396,-27.5193 179.019,-31.6883"/>
</g>
<!-- Node6 -->
<g id="node11" class="node"><title>Node6</title>
<polygon fill="white" stroke="#bfbfbf" points="239.5,-0.5 239.5,-21.5 288.5,-21.5 288.5,-0.5 239.5,-0.5"/>
<text text-anchor="middle" x="264" y="-8.5" font-family="Helvetica,sans-Serif" font-size="10.00">QtMath</text>
</g>
<!-- Node2&#45;&gt;Node6 -->
<g id="edge10" class="edge"><title>Node2&#45;&gt;Node6</title>
<path fill="none" stroke="midnightblue" d="M168.188,-58.4966C186.462,-49.4378 213.072,-36.2462 233.615,-26.0628"/>
<polygon fill="midnightblue" stroke="midnightblue" points="235.169,-29.1986 242.574,-21.6212 232.06,-22.9269 235.169,-29.1986"/>
</g>
</g>
</svg>
