<?xml version="1.0" encoding="UTF-8" standalone="no"?>
<!DOCTYPE svg PUBLIC "-//W3C//DTD SVG 1.1//EN"
 "http://www.w3.org/Graphics/SVG/1.1/DTD/svg11.dtd">
<!-- Generated by graphviz version 2.26.3 (20100126.1600)
 -->
<!-- Title: src/camera.cpp Pages: 1 -->
<!--zoomable 204 -->
<svg id="main" version="1.1" xmlns="http://www.w3.org/2000/svg" xmlns:xlink="http://www.w3.org/1999/xlink" xml:space="preserve" onload="init(evt)">
<style type="text/css"><![CDATA[
.edge:hover path { stroke: red; }
.edge:hover polygon { stroke: red; fill: red; }
]]></style>
<script type="text/javascript"><![CDATA[
var edges = document.getElementsByTagName('g');
if (edges && edges.length) {
  for (var i=0;i<edges.length;i++) {
    if (edges[i].id.substr(0,4)=='edge') {
      edges[i].setAttribute('class','edge');
    }
  }
}
]]></script>
        <defs>
                <circle id="rim" cx="0" cy="0" r="7"/>
                <circle id="rim2" cx="0" cy="0" r="3.5"/>
                <g id="zoomPlus">
                        <use xlink:href="#rim" fill="#404040">
                                <set attributeName="fill" to="#808080" begin="zoomplus.mouseover" end="zoomplus.mouseout"/>
                        </use>
                        <path d="M-4,0h8M0,-4v8" fill="none" stroke="white" stroke-width="1.5" pointer-events="none"/>
                </g>
                <g id="zoomMin">
                        <use xlink:href="#rim" fill="#404040">
                                <set attributeName="fill" to="#808080" begin="zoomminus.mouseover" end="zoomminus.mouseout"/>
                        </use>
                        <path d="M-4,0h8" fill="none" stroke="white" stroke-width="1.5" pointer-events="none"/>
                </g>
                <g id="dirArrow">
                        <path fill="none" stroke="white" stroke-width="1.5" d="M0,-3.0v7 M-2.5,-0.5L0,-3.0L2.5,-0.5"/>
                </g>
               <g id="resetDef">
                       <use xlink:href="#rim2" fill="#404040">
                               <set attributeName="fill" to="#808080" begin="reset.mouseover" end="reset.mouseout"/>
                       </use>
               </g>
        </defs>

<script type="text/javascript">
var viewWidth = 548;
var viewHeight = 204;
var sectionId = 'dynsection-0';
</script>
<script xlink:href="svgpan.js"/>
<svg id="graph" class="graph">
<g id="viewport">
<title>src/camera.cpp</title>
<polygon fill="white" stroke="white" points="-4,5 -4,-200 545,-200 545,5 -4,5"/>
<!-- Node1 -->
<g id="node1" class="node"><title>Node1</title>
<polygon fill="#bfbfbf" stroke="black" points="182,-174.5 182,-195.5 266,-195.5 266,-174.5 182,-174.5"/>
<text text-anchor="middle" x="224" y="-182.5" font-family="Helvetica,sans-Serif" font-size="10.00">src/camera.cpp</text>
</g>
<!-- Node2 -->
<g id="node3" class="node"><title>Node2</title>
<a xlink:href="camera_8hpp.html" target="_top" xlink:title="camera.hpp">
<polygon fill="white" stroke="black" points="190,-116.5 190,-137.5 258,-137.5 258,-116.5 190,-116.5"/>
<text text-anchor="middle" x="224" y="-124.5" font-family="Helvetica,sans-Serif" font-size="10.00">camera.hpp</text>
</a>
</g>
<!-- Node1&#45;&gt;Node2 -->
<g id="edge2" class="edge"><title>Node1&#45;&gt;Node2</title>
<path fill="none" stroke="midnightblue" d="M224,-174.362C224,-166.922 224,-156.743 224,-147.728"/>
<polygon fill="midnightblue" stroke="midnightblue" points="227.5,-147.571 224,-137.571 220.5,-147.571 227.5,-147.571"/>
</g>
<!-- Node3 -->
<g id="node5" class="node"><title>Node3</title>
<polygon fill="white" stroke="#bfbfbf" points="-0.5,-0.5 -0.5,-21.5 52.5,-21.5 52.5,-0.5 -0.5,-0.5"/>
<text text-anchor="middle" x="26" y="-8.5" font-family="Helvetica,sans-Serif" font-size="10.00">QObject</text>
</g>
<!-- Node2&#45;&gt;Node3 -->
<g id="edge4" class="edge"><title>Node2&#45;&gt;Node3</title>
<path fill="none" stroke="midnightblue" d="M189.988,-117.016C165.369,-108.984 131.844,-96.3493 105,-80 81.4255,-65.6421 58.0719,-44.0966 42.9423,-28.9086"/>
<polygon fill="midnightblue" stroke="midnightblue" points="45.3133,-26.327 35.8226,-21.6176 40.305,-31.2175 45.3133,-26.327"/>
</g>
<!-- Node4 -->
<g id="node7" class="node"><title>Node4</title>
<polygon fill="white" stroke="#bfbfbf" points="69.5,-0.5 69.5,-21.5 134.5,-21.5 134.5,-0.5 69.5,-0.5"/>
<text text-anchor="middle" x="102" y="-8.5" font-family="Helvetica,sans-Serif" font-size="10.00">QVector3D</text>
</g>
<!-- Node2&#45;&gt;Node4 -->
<g id="edge6" class="edge"><title>Node2&#45;&gt;Node4</title>
<path fill="none" stroke="midnightblue" d="M189.736,-119.408C167.149,-112.691 138.592,-100.646 121,-80 109.57,-66.5853 104.973,-46.8531 103.146,-31.9224"/>
<polygon fill="midnightblue" stroke="midnightblue" points="106.602,-31.272 102.222,-21.625 99.6299,-31.8979 106.602,-31.272"/>
</g>
<!-- Node5 -->
<g id="node9" class="node"><title>Node5</title>
<polygon fill="white" stroke="#bfbfbf" points="251.5,-58.5 251.5,-79.5 318.5,-79.5 318.5,-58.5 251.5,-58.5"/>
<text text-anchor="middle" x="285" y="-66.5" font-family="Helvetica,sans-Serif" font-size="10.00">QMatrix4x4</text>
</g>
<!-- Node2&#45;&gt;Node5 -->
<g id="edge8" class="edge"><title>Node2&#45;&gt;Node5</title>
<path fill="none" stroke="midnightblue" d="M235.188,-116.362C243.959,-108.023 256.349,-96.2418 266.578,-86.5162"/>
<polygon fill="midnightblue" stroke="midnightblue" points="269.047,-88.9978 273.883,-79.5707 264.224,-83.9248 269.047,-88.9978"/>
</g>
<!-- Node6 -->
<g id="node11" class="node"><title>Node6</title>
<a xlink:href="globals_8hpp.html" target="_top" xlink:title="Definitions globales. ">
<polygon fill="white" stroke="black" points="130,-58.5 130,-79.5 196,-79.5 196,-58.5 130,-58.5"/>
<text text-anchor="middle" x="163" y="-66.5" font-family="Helvetica,sans-Serif" font-size="10.00">globals.hpp</text>
</a>
</g>
<!-- Node2&#45;&gt;Node6 -->
<g id="edge10" class="edge"><title>Node2&#45;&gt;Node6</title>
<path fill="none" stroke="midnightblue" d="M212.812,-116.362C204.041,-108.023 191.651,-96.2418 181.422,-86.5162"/>
<polygon fill="midnightblue" stroke="midnightblue" points="183.776,-83.9248 174.117,-79.5707 178.953,-88.9978 183.776,-83.9248"/>
</g>
<!-- Node8 -->
<g id="node17" class="node"><title>Node8</title>
<polygon fill="white" stroke="#bfbfbf" points="239.5,-0.5 239.5,-21.5 288.5,-21.5 288.5,-0.5 239.5,-0.5"/>
<text text-anchor="middle" x="264" y="-8.5" font-family="Helvetica,sans-Serif" font-size="10.00">QtMath</text>
</g>
<!-- Node2&#45;&gt;Node8 -->
<g id="edge24" class="edge"><title>Node2&#45;&gt;Node8</title>
<path fill="none" stroke="midnightblue" d="M226.464,-116.086C229.687,-102.349 235.783,-78.1157 243,-58 246.261,-48.9095 250.511,-39.1189 254.334,-30.839"/>
<polygon fill="midnightblue" stroke="midnightblue" points="257.575,-32.1732 258.69,-21.6372 251.248,-29.1782 257.575,-32.1732"/>
</g>
<!-- Node9 -->
<g id="node19" class="node"><title>Node9</title>
<polygon fill="white" stroke="#bfbfbf" points="335.5,-58.5 335.5,-79.5 418.5,-79.5 418.5,-58.5 335.5,-58.5"/>
<text text-anchor="middle" x="377" y="-66.5" font-family="Helvetica,sans-Serif" font-size="10.00">QMetaProperty</text>
</g>
<!-- Node2&#45;&gt;Node9 -->
<g id="edge20" class="edge"><title>Node2&#45;&gt;Node9</title>
<path fill="none" stroke="midnightblue" d="M251.707,-116.497C276.326,-107.164 312.517,-93.4447 339.68,-83.1475"/>
<polygon fill="midnightblue" stroke="midnightblue" points="341.131,-86.3406 349.241,-79.5231 338.65,-79.7951 341.131,-86.3406"/>
</g>
<!-- Node10 -->
<g id="node21" class="node"><title>Node10</title>
<polygon fill="white" stroke="#bfbfbf" points="436,-58.5 436,-79.5 540,-79.5 540,-58.5 436,-58.5"/>
<text text-anchor="middle" x="488" y="-66.5" font-family="Helvetica,sans-Serif" font-size="10.00">QPropertyAnimation</text>
</g>
<!-- Node2&#45;&gt;Node10 -->
<g id="edge22" class="edge"><title>Node2&#45;&gt;Node10</title>
<path fill="none" stroke="midnightblue" d="M258.243,-119.477C301.757,-109.917 377.518,-93.2726 430.089,-81.7228"/>
<polygon fill="midnightblue" stroke="midnightblue" points="430.934,-85.1208 439.95,-79.5564 429.432,-78.2838 430.934,-85.1208"/>
</g>
<!-- Node6&#45;&gt;Node3 -->
<g id="edge12" class="edge"><title>Node6&#45;&gt;Node3</title>
<path fill="none" stroke="midnightblue" d="M138.19,-58.4966C116.504,-49.3154 84.7893,-35.8889 60.608,-25.6516"/>
<polygon fill="midnightblue" stroke="midnightblue" points="61.6613,-22.2968 51.0881,-21.6212 58.9323,-28.7429 61.6613,-22.2968"/>
</g>
<!-- Node6&#45;&gt;Node4 -->
<g id="edge16" class="edge"><title>Node6&#45;&gt;Node4</title>
<path fill="none" stroke="midnightblue" d="M151.812,-58.3619C143.041,-50.0226 130.651,-38.2418 120.422,-28.5162"/>
<polygon fill="midnightblue" stroke="midnightblue" points="122.776,-25.9248 113.117,-21.5707 117.953,-30.9978 122.776,-25.9248"/>
</g>
<!-- Node7 -->
<g id="node14" class="node"><title>Node7</title>
<polygon fill="white" stroke="#bfbfbf" points="151.5,-0.5 151.5,-21.5 222.5,-21.5 222.5,-0.5 151.5,-0.5"/>
<text text-anchor="middle" x="187" y="-8.5" font-family="Helvetica,sans-Serif" font-size="10.00">QQuaternion</text>
</g>
<!-- Node6&#45;&gt;Node7 -->
<g id="edge14" class="edge"><title>Node6&#45;&gt;Node7</title>
<path fill="none" stroke="midnightblue" d="M167.402,-58.3619C170.582,-50.6766 174.972,-40.0686 178.79,-30.8399"/>
<polygon fill="midnightblue" stroke="midnightblue" points="182.036,-32.1491 182.626,-21.5707 175.568,-29.4726 182.036,-32.1491"/>
</g>
<!-- Node6&#45;&gt;Node8 -->
<g id="edge18" class="edge"><title>Node6&#45;&gt;Node8</title>
<path fill="none" stroke="midnightblue" d="M181.525,-58.3619C196.901,-49.532 218.996,-36.844 236.447,-26.8224"/>
<polygon fill="midnightblue" stroke="midnightblue" points="238.664,-29.5857 245.592,-21.5707 235.178,-23.5154 238.664,-29.5857"/>
</g>
</g>
</svg>
        <g id="navigator" transform="translate(0 0)" fill="#404254">
                <rect fill="#f2f5e9" fill-opacity="0.5" stroke="#606060" stroke-width=".5" x="0" y="0" width="60" height="60"/>
                <use id="zoomplus" xlink:href="#zoomPlus" x="17" y="9" onmousedown="handleZoom(evt,'in')"/>
                <use id="zoomminus" xlink:href="#zoomMin" x="42" y="9" onmousedown="handleZoom(evt,'out')"/>
                <use id="reset" xlink:href="#resetDef" x="30" y="36" onmousedown="handleReset()"/>
                <g id="arrowUp" xlink:href="#dirArrow" transform="translate(30 24)" onmousedown="handlePan(0,-1)">
                  <use xlink:href="#rim" fill="#404040">
                        <set attributeName="fill" to="#808080" begin="arrowUp.mouseover" end="arrowUp.mouseout"/>
                  </use>
                  <path fill="none" stroke="white" stroke-width="1.5" d="M0,-3.0v7 M-2.5,-0.5L0,-3.0L2.5,-0.5"/>
                </g>
                <g id="arrowRight" xlink:href="#dirArrow" transform="rotate(90) translate(36 -43)" onmousedown="handlePan(1,0)">
                  <use xlink:href="#rim" fill="#404040">
                        <set attributeName="fill" to="#808080" begin="arrowRight.mouseover" end="arrowRight.mouseout"/>
                  </use>
                  <path fill="none" stroke="white" stroke-width="1.5" d="M0,-3.0v7 M-2.5,-0.5L0,-3.0L2.5,-0.5"/>
                </g>
                <g id="arrowDown" xlink:href="#dirArrow" transform="rotate(180) translate(-30 -48)" onmousedown="handlePan(0,1)">
                  <use xlink:href="#rim" fill="#404040">
                        <set attributeName="fill" to="#808080" begin="arrowDown.mouseover" end="arrowDown.mouseout"/>
                  </use>
                  <path fill="none" stroke="white" stroke-width="1.5" d="M0,-3.0v7 M-2.5,-0.5L0,-3.0L2.5,-0.5"/>
                </g>
                <g id="arrowLeft" xlink:href="#dirArrow" transform="rotate(270) translate(-36 17)" onmousedown="handlePan(-1,0)">
                  <use xlink:href="#rim" fill="#404040">
                        <set attributeName="fill" to="#808080" begin="arrowLeft.mouseover" end="arrowLeft.mouseout"/>
                  </use>
                  <path fill="none" stroke="white" stroke-width="1.5" d="M0,-3.0v7 M-2.5,-0.5L0,-3.0L2.5,-0.5"/>
                </g>
        </g>
        <svg viewBox="0 0 15 15" width="100%" height="30px" preserveAspectRatio="xMaxYMin meet">
         <g id="arrow_out" transform="scale(0.3 0.3)">
          <a xlink:href="camera_8cpp__incl_org.svg" target="_base">
           <rect id="button" ry="5" rx="5" y="6" x="6" height="38" width="38"
                fill="#f2f5e9" fill-opacity="0.5" stroke="#606060" stroke-width="1.0"/>
           <path id="arrow"
             d="M 11.500037,31.436501 C 11.940474,20.09759 22.043105,11.32322 32.158766,21.979434 L 37.068811,17.246167 C 37.068811,17.246167 37.088388,32 37.088388,32 L 22.160133,31.978069 C 22.160133,31.978069 26.997745,27.140456 26.997745,27.140456 C 18.528582,18.264221 13.291696,25.230495 11.500037,31.436501 z"
             style="fill:#404040;"/>
          </a>
         </g>
        </svg>
</svg>
