<?xml version="1.0" encoding="UTF-8" standalone="no"?>
<!DOCTYPE svg PUBLIC "-//W3C//DTD SVG 1.1//EN"
 "http://www.w3.org/Graphics/SVG/1.1/DTD/svg11.dtd">
<!-- Generated by graphviz version 2.26.3 (20100126.1600)
 -->
<!-- Title: src/camera.cpp Pages: 1 -->
<svg width="532pt" height="146pt"
 viewBox="0.00 0.00 532.00 146.00" xmlns="http://www.w3.org/2000/svg" xmlns:xlink="http://www.w3.org/1999/xlink">
<g id="graph1" class="graph" transform="scale(1 1) rotate(0) translate(4 142)">
<title>src/camera.cpp</title>
<polygon fill="white" stroke="white" points="-4,5 -4,-142 529,-142 529,5 -4,5"/>
<!-- Node1 -->
<g id="node1" class="node"><title>Node1</title>
<polygon fill="#bfbfbf" stroke="black" points="185,-116.5 185,-137.5 269,-137.5 269,-116.5 185,-116.5"/>
<text text-anchor="middle" x="227" y="-124.5" font-family="Helvetica,sans-Serif" font-size="10.00">src/camera.cpp</text>
</g>
<!-- Node2 -->
<g id="node3" class="node"><title>Node2</title>
<a xlink:href="camera_8hpp.html" target="_top" xlink:title="camera.hpp">
<polygon fill="white" stroke="black" points="193,-58.5 193,-79.5 261,-79.5 261,-58.5 193,-58.5"/>
<text text-anchor="middle" x="227" y="-66.5" font-family="Helvetica,sans-Serif" font-size="10.00">camera.hpp</text>
</a>
</g>
<!-- Node1&#45;&gt;Node2 -->
<g id="edge2" class="edge"><title>Node1&#45;&gt;Node2</title>
<path fill="none" stroke="midnightblue" d="M227,-116.362C227,-108.922 227,-98.7427 227,-89.7276"/>
<polygon fill="midnightblue" stroke="midnightblue" points="230.5,-89.5706 227,-79.5707 223.5,-89.5707 230.5,-89.5706"/>
</g>
<!-- Node3 -->
<g id="node5" class="node"><title>Node3</title>
<polygon fill="white" stroke="#bfbfbf" points="-0.5,-0.5 -0.5,-21.5 52.5,-21.5 52.5,-0.5 -0.5,-0.5"/>
<text text-anchor="middle" x="26" y="-8.5" font-family="Helvetica,sans-Serif" font-size="10.00">QObject</text>
</g>
<!-- Node2&#45;&gt;Node3 -->
<g id="edge4" class="edge"><title>Node2&#45;&gt;Node3</title>
<path fill="none" stroke="midnightblue" d="M192.9,-59.6521C161.319,-50.927 112.812,-37.3546 62.4792,-22.3956"/>
<polygon fill="midnightblue" stroke="midnightblue" points="63.3121,-18.9917 52.7288,-19.4869 61.311,-25.6996 63.3121,-18.9917"/>
</g>
<!-- Node4 -->
<g id="node7" class="node"><title>Node4</title>
<polygon fill="white" stroke="#bfbfbf" points="69.5,-0.5 69.5,-21.5 134.5,-21.5 134.5,-0.5 69.5,-0.5"/>
<text text-anchor="middle" x="102" y="-8.5" font-family="Helvetica,sans-Serif" font-size="10.00">QVector3D</text>
</g>
<!-- Node2&#45;&gt;Node4 -->
<g id="edge6" class="edge"><title>Node2&#45;&gt;Node4</title>
<path fill="none" stroke="midnightblue" d="M204.363,-58.4966C184.752,-49.397 156.154,-36.1273 134.167,-25.9253"/>
<polygon fill="midnightblue" stroke="midnightblue" points="135.435,-22.6554 124.891,-21.6212 132.488,-29.0051 135.435,-22.6554"/>
</g>
<!-- Node5 -->
<g id="node9" class="node"><title>Node5</title>
<polygon fill="white" stroke="#bfbfbf" points="151.5,-0.5 151.5,-21.5 218.5,-21.5 218.5,-0.5 151.5,-0.5"/>
<text text-anchor="middle" x="185" y="-8.5" font-family="Helvetica,sans-Serif" font-size="10.00">QMatrix4x4</text>
</g>
<!-- Node2&#45;&gt;Node5 -->
<g id="edge8" class="edge"><title>Node2&#45;&gt;Node5</title>
<path fill="none" stroke="midnightblue" d="M219.297,-58.3619C213.554,-50.4313 205.557,-39.3885 198.73,-29.9606"/>
<polygon fill="midnightblue" stroke="midnightblue" points="201.355,-27.6173 192.655,-21.5707 195.685,-31.7229 201.355,-27.6173"/>
</g>
<!-- Node6 -->
<g id="node11" class="node"><title>Node6</title>
<a xlink:href="globals_8hpp.html" target="_top" xlink:title="Definitions globales. ">
<polygon fill="white" stroke="black" points="236,-0.5 236,-21.5 302,-21.5 302,-0.5 236,-0.5"/>
<text text-anchor="middle" x="269" y="-8.5" font-family="Helvetica,sans-Serif" font-size="10.00">globals.hpp</text>
</a>
</g>
<!-- Node2&#45;&gt;Node6 -->
<g id="edge10" class="edge"><title>Node2&#45;&gt;Node6</title>
<path fill="none" stroke="midnightblue" d="M234.703,-58.3619C240.446,-50.4313 248.443,-39.3885 255.27,-29.9606"/>
<polygon fill="midnightblue" stroke="midnightblue" points="258.315,-31.7229 261.345,-21.5707 252.645,-27.6173 258.315,-31.7229"/>
</g>
<!-- Node7 -->
<g id="node13" class="node"><title>Node7</title>
<polygon fill="white" stroke="#bfbfbf" points="319.5,-0.5 319.5,-21.5 402.5,-21.5 402.5,-0.5 319.5,-0.5"/>
<text text-anchor="middle" x="361" y="-8.5" font-family="Helvetica,sans-Serif" font-size="10.00">QMetaProperty</text>
</g>
<!-- Node2&#45;&gt;Node7 -->
<g id="edge12" class="edge"><title>Node2&#45;&gt;Node7</title>
<path fill="none" stroke="midnightblue" d="M251.266,-58.4966C272.478,-49.3154 303.498,-35.8889 327.15,-25.6516"/>
<polygon fill="midnightblue" stroke="midnightblue" points="328.674,-28.8055 336.461,-21.6212 325.894,-22.3815 328.674,-28.8055"/>
</g>
<!-- Node8 -->
<g id="node15" class="node"><title>Node8</title>
<polygon fill="white" stroke="#bfbfbf" points="420,-0.5 420,-21.5 524,-21.5 524,-0.5 420,-0.5"/>
<text text-anchor="middle" x="472" y="-8.5" font-family="Helvetica,sans-Serif" font-size="10.00">QPropertyAnimation</text>
</g>
<!-- Node2&#45;&gt;Node8 -->
<g id="edge14" class="edge"><title>Node2&#45;&gt;Node8</title>
<path fill="none" stroke="midnightblue" d="M261.066,-60.9353C301.574,-51.3457 369.707,-35.2162 417.553,-23.8896"/>
<polygon fill="midnightblue" stroke="midnightblue" points="418.512,-27.2592 427.437,-21.5496 416.9,-20.4475 418.512,-27.2592"/>
</g>
</g>
</svg>
