<?xml version="1.0" encoding="UTF-8" standalone="no"?>
<!DOCTYPE svg PUBLIC "-//W3C//DTD SVG 1.1//EN"
 "http://www.w3.org/Graphics/SVG/1.1/DTD/svg11.dtd">
<!-- Generated by graphviz version 2.26.3 (20100126.1600)
 -->
<!-- Title: include/camera.hpp Pages: 1 -->
<svg width="216pt" height="146pt"
 viewBox="0.00 0.00 216.00 146.00" xmlns="http://www.w3.org/2000/svg" xmlns:xlink="http://www.w3.org/1999/xlink">
<g id="graph1" class="graph" transform="scale(1 1) rotate(0) translate(4 142)">
<title>include/camera.hpp</title>
<polygon fill="white" stroke="white" points="-4,5 -4,-142 213,-142 213,5 -4,5"/>
<!-- Node1 -->
<g id="node1" class="node"><title>Node1</title>
<polygon fill="#bfbfbf" stroke="black" points="47.5,-116.5 47.5,-137.5 148.5,-137.5 148.5,-116.5 47.5,-116.5"/>
<text text-anchor="middle" x="98" y="-124.5" font-family="Helvetica,sans-Serif" font-size="10.00">include/camera.hpp</text>
</g>
<!-- Node2 -->
<g id="node3" class="node"><title>Node2</title>
<a xlink:href="camera_8cpp.html" target="_top" xlink:title="src/camera.cpp">
<polygon fill="white" stroke="black" points="0,-58.5 0,-79.5 84,-79.5 84,-58.5 0,-58.5"/>
<text text-anchor="middle" x="42" y="-66.5" font-family="Helvetica,sans-Serif" font-size="10.00">src/camera.cpp</text>
</a>
</g>
<!-- Node1&#45;&gt;Node2 -->
<g id="edge2" class="edge"><title>Node1&#45;&gt;Node2</title>
<path fill="none" stroke="midnightblue" d="M80.7346,-109.118C71.3882,-99.4377 60.1612,-87.8098 52.2061,-79.5707"/>
<polygon fill="midnightblue" stroke="midnightblue" points="78.2648,-111.599 87.7287,-116.362 83.3007,-106.737 78.2648,-111.599"/>
</g>
<!-- Node3 -->
<g id="node5" class="node"><title>Node3</title>
<a xlink:href="viewport_8hpp.html" target="_top" xlink:title="include/viewport.hpp">
<polygon fill="white" stroke="black" points="102,-58.5 102,-79.5 208,-79.5 208,-58.5 102,-58.5"/>
<text text-anchor="middle" x="155" y="-66.5" font-family="Helvetica,sans-Serif" font-size="10.00">include/viewport.hpp</text>
</a>
</g>
<!-- Node1&#45;&gt;Node3 -->
<g id="edge4" class="edge"><title>Node1&#45;&gt;Node3</title>
<path fill="none" stroke="midnightblue" d="M115.574,-109.118C125.087,-99.4377 136.514,-87.8098 144.612,-79.5707"/>
<polygon fill="midnightblue" stroke="midnightblue" points="112.968,-106.776 108.455,-116.362 117.96,-111.683 112.968,-106.776"/>
</g>
<!-- Node4 -->
<g id="node7" class="node"><title>Node4</title>
<a xlink:href="viewport_8cpp.html" target="_top" xlink:title="src/viewport.cpp">
<polygon fill="white" stroke="black" points="110.5,-0.5 110.5,-21.5 199.5,-21.5 199.5,-0.5 110.5,-0.5"/>
<text text-anchor="middle" x="155" y="-8.5" font-family="Helvetica,sans-Serif" font-size="10.00">src/viewport.cpp</text>
</a>
</g>
<!-- Node3&#45;&gt;Node4 -->
<g id="edge6" class="edge"><title>Node3&#45;&gt;Node4</title>
<path fill="none" stroke="midnightblue" d="M155,-48.1906C155,-39.1684 155,-28.9941 155,-21.5707"/>
<polygon fill="midnightblue" stroke="midnightblue" points="151.5,-48.3619 155,-58.3619 158.5,-48.3619 151.5,-48.3619"/>
</g>
</g>
</svg>
