<?xml version="1.0" encoding="UTF-8" standalone="no"?>
<!DOCTYPE svg PUBLIC "-//W3C//DTD SVG 1.1//EN"
 "http://www.w3.org/Graphics/SVG/1.1/DTD/svg11.dtd">
<!-- Generated by graphviz version 2.26.3 (20100126.1600)
 -->
<!-- Title: src/camera.cpp Pages: 1 -->
<svg width="598pt" height="146pt"
 viewBox="0.00 0.00 598.00 146.00" xmlns="http://www.w3.org/2000/svg" xmlns:xlink="http://www.w3.org/1999/xlink">
<g id="graph1" class="graph" transform="scale(1 1) rotate(0) translate(4 142)">
<title>src/camera.cpp</title>
<polygon fill="white" stroke="white" points="-4,5 -4,-142 595,-142 595,5 -4,5"/>
<!-- Node1 -->
<g id="node1" class="node"><title>Node1</title>
<polygon fill="#bfbfbf" stroke="black" points="227,-116.5 227,-137.5 311,-137.5 311,-116.5 227,-116.5"/>
<text text-anchor="middle" x="269" y="-124.5" font-family="Helvetica,sans-Serif" font-size="10.00">src/camera.cpp</text>
</g>
<!-- Node2 -->
<g id="node3" class="node"><title>Node2</title>
<a xlink:href="camera_8hpp.html" target="_top" xlink:title="camera.hpp">
<polygon fill="white" stroke="black" points="235,-58.5 235,-79.5 303,-79.5 303,-58.5 235,-58.5"/>
<text text-anchor="middle" x="269" y="-66.5" font-family="Helvetica,sans-Serif" font-size="10.00">camera.hpp</text>
</a>
</g>
<!-- Node1&#45;&gt;Node2 -->
<g id="edge2" class="edge"><title>Node1&#45;&gt;Node2</title>
<path fill="none" stroke="midnightblue" d="M269,-116.362C269,-108.922 269,-98.7427 269,-89.7276"/>
<polygon fill="midnightblue" stroke="midnightblue" points="272.5,-89.5706 269,-79.5707 265.5,-89.5707 272.5,-89.5706"/>
</g>
<!-- Node3 -->
<g id="node5" class="node"><title>Node3</title>
<polygon fill="white" stroke="#bfbfbf" points="-0.5,-0.5 -0.5,-21.5 52.5,-21.5 52.5,-0.5 -0.5,-0.5"/>
<text text-anchor="middle" x="26" y="-8.5" font-family="Helvetica,sans-Serif" font-size="10.00">QObject</text>
</g>
<!-- Node2&#45;&gt;Node3 -->
<g id="edge4" class="edge"><title>Node2&#45;&gt;Node3</title>
<path fill="none" stroke="midnightblue" d="M234.924,-62.1985C195.49,-54.1312 128.429,-39.8086 62.4153,-22.2496"/>
<polygon fill="midnightblue" stroke="midnightblue" points="63.2522,-18.8504 52.6865,-19.6358 61.4359,-25.6106 63.2522,-18.8504"/>
</g>
<!-- Node4 -->
<g id="node7" class="node"><title>Node4</title>
<polygon fill="white" stroke="#bfbfbf" points="69.5,-0.5 69.5,-21.5 134.5,-21.5 134.5,-0.5 69.5,-0.5"/>
<text text-anchor="middle" x="102" y="-8.5" font-family="Helvetica,sans-Serif" font-size="10.00">QVector3D</text>
</g>
<!-- Node2&#45;&gt;Node4 -->
<g id="edge6" class="edge"><title>Node2&#45;&gt;Node4</title>
<path fill="none" stroke="midnightblue" d="M238.758,-58.4966C211.65,-49.082 171.69,-35.2036 141.957,-24.8773"/>
<polygon fill="midnightblue" stroke="midnightblue" points="142.894,-21.4977 132.299,-21.5231 140.597,-28.1102 142.894,-21.4977"/>
</g>
<!-- Node5 -->
<g id="node9" class="node"><title>Node5</title>
<polygon fill="white" stroke="#bfbfbf" points="151.5,-0.5 151.5,-21.5 218.5,-21.5 218.5,-0.5 151.5,-0.5"/>
<text text-anchor="middle" x="185" y="-8.5" font-family="Helvetica,sans-Serif" font-size="10.00">QMatrix4x4</text>
</g>
<!-- Node2&#45;&gt;Node5 -->
<g id="edge8" class="edge"><title>Node2&#45;&gt;Node5</title>
<path fill="none" stroke="midnightblue" d="M253.593,-58.3619C241.042,-49.6955 223.108,-37.3126 208.725,-27.3819"/>
<polygon fill="midnightblue" stroke="midnightblue" points="210.527,-24.3725 200.309,-21.5707 206.55,-30.1327 210.527,-24.3725"/>
</g>
<!-- Node6 -->
<g id="node11" class="node"><title>Node6</title>
<a xlink:href="globals_8hpp.html" target="_top" xlink:title="Definitions globales. ">
<polygon fill="white" stroke="black" points="236,-0.5 236,-21.5 302,-21.5 302,-0.5 236,-0.5"/>
<text text-anchor="middle" x="269" y="-8.5" font-family="Helvetica,sans-Serif" font-size="10.00">globals.hpp</text>
</a>
</g>
<!-- Node2&#45;&gt;Node6 -->
<g id="edge10" class="edge"><title>Node2&#45;&gt;Node6</title>
<path fill="none" stroke="midnightblue" d="M269,-58.3619C269,-50.9219 269,-40.7427 269,-31.7276"/>
<polygon fill="midnightblue" stroke="midnightblue" points="272.5,-31.5706 269,-21.5707 265.5,-31.5707 272.5,-31.5706"/>
</g>
<!-- Node7 -->
<g id="node13" class="node"><title>Node7</title>
<polygon fill="white" stroke="#bfbfbf" points="319.5,-0.5 319.5,-21.5 402.5,-21.5 402.5,-0.5 319.5,-0.5"/>
<text text-anchor="middle" x="361" y="-8.5" font-family="Helvetica,sans-Serif" font-size="10.00">QMetaProperty</text>
</g>
<!-- Node2&#45;&gt;Node7 -->
<g id="edge12" class="edge"><title>Node2&#45;&gt;Node7</title>
<path fill="none" stroke="midnightblue" d="M285.874,-58.3619C299.751,-49.6138 319.634,-37.0786 335.46,-27.1015"/>
<polygon fill="midnightblue" stroke="midnightblue" points="337.64,-29.8645 344.233,-21.5707 333.907,-23.943 337.64,-29.8645"/>
</g>
<!-- Node8 -->
<g id="node15" class="node"><title>Node8</title>
<polygon fill="white" stroke="#bfbfbf" points="420,-0.5 420,-21.5 524,-21.5 524,-0.5 420,-0.5"/>
<text text-anchor="middle" x="472" y="-8.5" font-family="Helvetica,sans-Serif" font-size="10.00">QPropertyAnimation</text>
</g>
<!-- Node2&#45;&gt;Node8 -->
<g id="edge14" class="edge"><title>Node2&#45;&gt;Node8</title>
<path fill="none" stroke="midnightblue" d="M303.436,-59.1611C336.834,-49.619 387.765,-35.0672 424.903,-24.4563"/>
<polygon fill="midnightblue" stroke="midnightblue" points="426.332,-27.688 434.986,-21.5754 424.409,-20.9573 426.332,-27.688"/>
</g>
<!-- Node9 -->
<g id="node17" class="node"><title>Node9</title>
<polygon fill="white" stroke="#bfbfbf" points="541.5,-0.5 541.5,-21.5 590.5,-21.5 590.5,-0.5 541.5,-0.5"/>
<text text-anchor="middle" x="566" y="-8.5" font-family="Helvetica,sans-Serif" font-size="10.00">QtMath</text>
</g>
<!-- Node2&#45;&gt;Node9 -->
<g id="edge16" class="edge"><title>Node2&#45;&gt;Node9</title>
<path fill="none" stroke="midnightblue" d="M303.093,-64.55C351.891,-57.8301 444.552,-43.7698 531.497,-22.1443"/>
<polygon fill="midnightblue" stroke="midnightblue" points="532.411,-25.5235 541.249,-19.6803 530.696,-18.7368 532.411,-25.5235"/>
</g>
</g>
</svg>
