<?xml version="1.0" encoding="UTF-8" standalone="no"?>
<!DOCTYPE svg PUBLIC "-//W3C//DTD SVG 1.1//EN"
 "http://www.w3.org/Graphics/SVG/1.1/DTD/svg11.dtd">
<!-- Generated by graphviz version 2.26.3 (20100126.1600)
 -->
<!-- Title: include/camera.hpp Pages: 1 -->
<svg width="532pt" height="88pt"
 viewBox="0.00 0.00 532.00 88.00" xmlns="http://www.w3.org/2000/svg" xmlns:xlink="http://www.w3.org/1999/xlink">
<g id="graph1" class="graph" transform="scale(1 1) rotate(0) translate(4 84)">
<title>include/camera.hpp</title>
<polygon fill="white" stroke="white" points="-4,5 -4,-84 529,-84 529,5 -4,5"/>
<!-- Node1 -->
<g id="node1" class="node"><title>Node1</title>
<polygon fill="#bfbfbf" stroke="black" points="176.5,-58.5 176.5,-79.5 277.5,-79.5 277.5,-58.5 176.5,-58.5"/>
<text text-anchor="middle" x="227" y="-66.5" font-family="Helvetica,sans-Serif" font-size="10.00">include/camera.hpp</text>
</g>
<!-- Node2 -->
<g id="node3" class="node"><title>Node2</title>
<polygon fill="white" stroke="#bfbfbf" points="-0.5,-0.5 -0.5,-21.5 52.5,-21.5 52.5,-0.5 -0.5,-0.5"/>
<text text-anchor="middle" x="26" y="-8.5" font-family="Helvetica,sans-Serif" font-size="10.00">QObject</text>
</g>
<!-- Node1&#45;&gt;Node2 -->
<g id="edge2" class="edge"><title>Node1&#45;&gt;Node2</title>
<path fill="none" stroke="midnightblue" d="M188.669,-58.4823C157.072,-49.7375 110.851,-36.775 62.4372,-22.3834"/>
<polygon fill="midnightblue" stroke="midnightblue" points="63.3121,-18.9921 52.7288,-19.4869 61.3108,-25.6999 63.3121,-18.9921"/>
</g>
<!-- Node3 -->
<g id="node5" class="node"><title>Node3</title>
<polygon fill="white" stroke="#bfbfbf" points="69.5,-0.5 69.5,-21.5 134.5,-21.5 134.5,-0.5 69.5,-0.5"/>
<text text-anchor="middle" x="102" y="-8.5" font-family="Helvetica,sans-Serif" font-size="10.00">QVector3D</text>
</g>
<!-- Node1&#45;&gt;Node3 -->
<g id="edge4" class="edge"><title>Node1&#45;&gt;Node3</title>
<path fill="none" stroke="midnightblue" d="M204.363,-58.4966C184.752,-49.397 156.154,-36.1273 134.167,-25.9253"/>
<polygon fill="midnightblue" stroke="midnightblue" points="135.435,-22.6554 124.891,-21.6212 132.488,-29.0051 135.435,-22.6554"/>
</g>
<!-- Node4 -->
<g id="node7" class="node"><title>Node4</title>
<polygon fill="white" stroke="#bfbfbf" points="151.5,-0.5 151.5,-21.5 218.5,-21.5 218.5,-0.5 151.5,-0.5"/>
<text text-anchor="middle" x="185" y="-8.5" font-family="Helvetica,sans-Serif" font-size="10.00">QMatrix4x4</text>
</g>
<!-- Node1&#45;&gt;Node4 -->
<g id="edge6" class="edge"><title>Node1&#45;&gt;Node4</title>
<path fill="none" stroke="midnightblue" d="M219.297,-58.3619C213.554,-50.4313 205.557,-39.3885 198.73,-29.9606"/>
<polygon fill="midnightblue" stroke="midnightblue" points="201.355,-27.6173 192.655,-21.5707 195.685,-31.7229 201.355,-27.6173"/>
</g>
<!-- Node5 -->
<g id="node9" class="node"><title>Node5</title>
<a xlink:href="globals_8hpp.html" target="_top" xlink:title="Definitions globales. ">
<polygon fill="white" stroke="black" points="236,-0.5 236,-21.5 302,-21.5 302,-0.5 236,-0.5"/>
<text text-anchor="middle" x="269" y="-8.5" font-family="Helvetica,sans-Serif" font-size="10.00">globals.hpp</text>
</a>
</g>
<!-- Node1&#45;&gt;Node5 -->
<g id="edge8" class="edge"><title>Node1&#45;&gt;Node5</title>
<path fill="none" stroke="midnightblue" d="M234.703,-58.3619C240.446,-50.4313 248.443,-39.3885 255.27,-29.9606"/>
<polygon fill="midnightblue" stroke="midnightblue" points="258.315,-31.7229 261.345,-21.5707 252.645,-27.6173 258.315,-31.7229"/>
</g>
<!-- Node6 -->
<g id="node11" class="node"><title>Node6</title>
<polygon fill="white" stroke="#bfbfbf" points="319.5,-0.5 319.5,-21.5 402.5,-21.5 402.5,-0.5 319.5,-0.5"/>
<text text-anchor="middle" x="361" y="-8.5" font-family="Helvetica,sans-Serif" font-size="10.00">QMetaProperty</text>
</g>
<!-- Node1&#45;&gt;Node6 -->
<g id="edge10" class="edge"><title>Node1&#45;&gt;Node6</title>
<path fill="none" stroke="midnightblue" d="M251.266,-58.4966C272.478,-49.3154 303.498,-35.8889 327.15,-25.6516"/>
<polygon fill="midnightblue" stroke="midnightblue" points="328.674,-28.8055 336.461,-21.6212 325.894,-22.3815 328.674,-28.8055"/>
</g>
<!-- Node7 -->
<g id="node13" class="node"><title>Node7</title>
<polygon fill="white" stroke="#bfbfbf" points="420,-0.5 420,-21.5 524,-21.5 524,-0.5 420,-0.5"/>
<text text-anchor="middle" x="472" y="-8.5" font-family="Helvetica,sans-Serif" font-size="10.00">QPropertyAnimation</text>
</g>
<!-- Node1&#45;&gt;Node7 -->
<g id="edge12" class="edge"><title>Node1&#45;&gt;Node7</title>
<path fill="none" stroke="midnightblue" d="M271.368,-58.4966C312.433,-48.775 373.604,-34.2938 417.599,-23.8787"/>
<polygon fill="midnightblue" stroke="midnightblue" points="418.624,-27.2327 427.549,-21.5231 417.012,-20.4209 418.624,-27.2327"/>
</g>
</g>
</svg>
