<?xml version="1.0" encoding="UTF-8" standalone="no"?>
<!DOCTYPE svg PUBLIC "-//W3C//DTD SVG 1.1//EN"
 "http://www.w3.org/Graphics/SVG/1.1/DTD/svg11.dtd">
<!-- Generated by graphviz version 2.26.3 (20100126.1600)
 -->
<!-- Title: include/camera.hpp Pages: 1 -->
<svg width="548pt" height="146pt"
 viewBox="0.00 0.00 548.00 146.00" xmlns="http://www.w3.org/2000/svg" xmlns:xlink="http://www.w3.org/1999/xlink">
<g id="graph1" class="graph" transform="scale(1 1) rotate(0) translate(4 142)">
<title>include/camera.hpp</title>
<polygon fill="white" stroke="white" points="-4,5 -4,-142 545,-142 545,5 -4,5"/>
<!-- Node1 -->
<g id="node1" class="node"><title>Node1</title>
<polygon fill="#bfbfbf" stroke="black" points="173.5,-116.5 173.5,-137.5 274.5,-137.5 274.5,-116.5 173.5,-116.5"/>
<text text-anchor="middle" x="224" y="-124.5" font-family="Helvetica,sans-Serif" font-size="10.00">include/camera.hpp</text>
</g>
<!-- Node2 -->
<g id="node3" class="node"><title>Node2</title>
<polygon fill="white" stroke="#bfbfbf" points="-0.5,-0.5 -0.5,-21.5 52.5,-21.5 52.5,-0.5 -0.5,-0.5"/>
<text text-anchor="middle" x="26" y="-8.5" font-family="Helvetica,sans-Serif" font-size="10.00">QObject</text>
</g>
<!-- Node1&#45;&gt;Node2 -->
<g id="edge2" class="edge"><title>Node1&#45;&gt;Node2</title>
<path fill="none" stroke="midnightblue" d="M188.411,-116.499C163.951,-108.447 131.275,-96.0026 105,-80 81.4255,-65.6421 58.0719,-44.0966 42.9423,-28.9086"/>
<polygon fill="midnightblue" stroke="midnightblue" points="45.3133,-26.327 35.8226,-21.6176 40.305,-31.2175 45.3133,-26.327"/>
</g>
<!-- Node3 -->
<g id="node5" class="node"><title>Node3</title>
<polygon fill="white" stroke="#bfbfbf" points="69.5,-0.5 69.5,-21.5 134.5,-21.5 134.5,-0.5 69.5,-0.5"/>
<text text-anchor="middle" x="102" y="-8.5" font-family="Helvetica,sans-Serif" font-size="10.00">QVector3D</text>
</g>
<!-- Node1&#45;&gt;Node3 -->
<g id="edge4" class="edge"><title>Node1&#45;&gt;Node3</title>
<path fill="none" stroke="midnightblue" d="M180.371,-116.411C159.689,-109.307 136.234,-97.8784 121,-80 109.57,-66.5853 104.973,-46.8531 103.146,-31.9224"/>
<polygon fill="midnightblue" stroke="midnightblue" points="106.602,-31.272 102.222,-21.625 99.6299,-31.8979 106.602,-31.272"/>
</g>
<!-- Node4 -->
<g id="node7" class="node"><title>Node4</title>
<polygon fill="white" stroke="#bfbfbf" points="251.5,-58.5 251.5,-79.5 318.5,-79.5 318.5,-58.5 251.5,-58.5"/>
<text text-anchor="middle" x="285" y="-66.5" font-family="Helvetica,sans-Serif" font-size="10.00">QMatrix4x4</text>
</g>
<!-- Node1&#45;&gt;Node4 -->
<g id="edge6" class="edge"><title>Node1&#45;&gt;Node4</title>
<path fill="none" stroke="midnightblue" d="M235.188,-116.362C243.959,-108.023 256.349,-96.2418 266.578,-86.5162"/>
<polygon fill="midnightblue" stroke="midnightblue" points="269.047,-88.9978 273.883,-79.5707 264.224,-83.9248 269.047,-88.9978"/>
</g>
<!-- Node5 -->
<g id="node9" class="node"><title>Node5</title>
<a xlink:href="globals_8hpp.html" target="_top" xlink:title="Definitions globales. ">
<polygon fill="white" stroke="black" points="130,-58.5 130,-79.5 196,-79.5 196,-58.5 130,-58.5"/>
<text text-anchor="middle" x="163" y="-66.5" font-family="Helvetica,sans-Serif" font-size="10.00">globals.hpp</text>
</a>
</g>
<!-- Node1&#45;&gt;Node5 -->
<g id="edge8" class="edge"><title>Node1&#45;&gt;Node5</title>
<path fill="none" stroke="midnightblue" d="M212.812,-116.362C204.041,-108.023 191.651,-96.2418 181.422,-86.5162"/>
<polygon fill="midnightblue" stroke="midnightblue" points="183.776,-83.9248 174.117,-79.5707 178.953,-88.9978 183.776,-83.9248"/>
</g>
<!-- Node7 -->
<g id="node15" class="node"><title>Node7</title>
<polygon fill="white" stroke="#bfbfbf" points="239.5,-0.5 239.5,-21.5 288.5,-21.5 288.5,-0.5 239.5,-0.5"/>
<text text-anchor="middle" x="264" y="-8.5" font-family="Helvetica,sans-Serif" font-size="10.00">QtMath</text>
</g>
<!-- Node1&#45;&gt;Node7 -->
<g id="edge22" class="edge"><title>Node1&#45;&gt;Node7</title>
<path fill="none" stroke="midnightblue" d="M226.464,-116.086C229.687,-102.349 235.783,-78.1157 243,-58 246.261,-48.9095 250.511,-39.1189 254.334,-30.839"/>
<polygon fill="midnightblue" stroke="midnightblue" points="257.575,-32.1732 258.69,-21.6372 251.248,-29.1782 257.575,-32.1732"/>
</g>
<!-- Node8 -->
<g id="node17" class="node"><title>Node8</title>
<polygon fill="white" stroke="#bfbfbf" points="335.5,-58.5 335.5,-79.5 418.5,-79.5 418.5,-58.5 335.5,-58.5"/>
<text text-anchor="middle" x="377" y="-66.5" font-family="Helvetica,sans-Serif" font-size="10.00">QMetaProperty</text>
</g>
<!-- Node1&#45;&gt;Node8 -->
<g id="edge18" class="edge"><title>Node1&#45;&gt;Node8</title>
<path fill="none" stroke="midnightblue" d="M251.707,-116.497C276.326,-107.164 312.517,-93.4447 339.68,-83.1475"/>
<polygon fill="midnightblue" stroke="midnightblue" points="341.131,-86.3406 349.241,-79.5231 338.65,-79.7951 341.131,-86.3406"/>
</g>
<!-- Node9 -->
<g id="node19" class="node"><title>Node9</title>
<polygon fill="white" stroke="#bfbfbf" points="436,-58.5 436,-79.5 540,-79.5 540,-58.5 436,-58.5"/>
<text text-anchor="middle" x="488" y="-66.5" font-family="Helvetica,sans-Serif" font-size="10.00">QPropertyAnimation</text>
</g>
<!-- Node1&#45;&gt;Node9 -->
<g id="edge20" class="edge"><title>Node1&#45;&gt;Node9</title>
<path fill="none" stroke="midnightblue" d="M271.808,-116.497C316.338,-106.714 382.807,-92.1107 430.276,-81.6819"/>
<polygon fill="midnightblue" stroke="midnightblue" points="431.086,-85.0874 440.102,-79.5231 429.584,-78.2505 431.086,-85.0874"/>
</g>
<!-- Node5&#45;&gt;Node2 -->
<g id="edge10" class="edge"><title>Node5&#45;&gt;Node2</title>
<path fill="none" stroke="midnightblue" d="M138.19,-58.4966C116.504,-49.3154 84.7893,-35.8889 60.608,-25.6516"/>
<polygon fill="midnightblue" stroke="midnightblue" points="61.6613,-22.2968 51.0881,-21.6212 58.9323,-28.7429 61.6613,-22.2968"/>
</g>
<!-- Node5&#45;&gt;Node3 -->
<g id="edge14" class="edge"><title>Node5&#45;&gt;Node3</title>
<path fill="none" stroke="midnightblue" d="M151.812,-58.3619C143.041,-50.0226 130.651,-38.2418 120.422,-28.5162"/>
<polygon fill="midnightblue" stroke="midnightblue" points="122.776,-25.9248 113.117,-21.5707 117.953,-30.9978 122.776,-25.9248"/>
</g>
<!-- Node6 -->
<g id="node12" class="node"><title>Node6</title>
<polygon fill="white" stroke="#bfbfbf" points="151.5,-0.5 151.5,-21.5 222.5,-21.5 222.5,-0.5 151.5,-0.5"/>
<text text-anchor="middle" x="187" y="-8.5" font-family="Helvetica,sans-Serif" font-size="10.00">QQuaternion</text>
</g>
<!-- Node5&#45;&gt;Node6 -->
<g id="edge12" class="edge"><title>Node5&#45;&gt;Node6</title>
<path fill="none" stroke="midnightblue" d="M167.402,-58.3619C170.582,-50.6766 174.972,-40.0686 178.79,-30.8399"/>
<polygon fill="midnightblue" stroke="midnightblue" points="182.036,-32.1491 182.626,-21.5707 175.568,-29.4726 182.036,-32.1491"/>
</g>
<!-- Node5&#45;&gt;Node7 -->
<g id="edge16" class="edge"><title>Node5&#45;&gt;Node7</title>
<path fill="none" stroke="midnightblue" d="M181.525,-58.3619C196.901,-49.532 218.996,-36.844 236.447,-26.8224"/>
<polygon fill="midnightblue" stroke="midnightblue" points="238.664,-29.5857 245.592,-21.5707 235.178,-23.5154 238.664,-29.5857"/>
</g>
</g>
</svg>
