<?xml version="1.0" encoding="UTF-8" standalone="no"?>
<!DOCTYPE svg PUBLIC "-//W3C//DTD SVG 1.1//EN"
 "http://www.w3.org/Graphics/SVG/1.1/DTD/svg11.dtd">
<!-- Generated by graphviz version 2.26.3 (20100126.1600)
 -->
<!-- Title: Geometry&lt; Child &gt; Pages: 1 -->
<!--zoomable 270 -->
<svg id="main" version="1.1" xmlns="http://www.w3.org/2000/svg" xmlns:xlink="http://www.w3.org/1999/xlink" xml:space="preserve" onload="init(evt)">
<style type="text/css"><![CDATA[
.edge:hover path { stroke: red; }
.edge:hover polygon { stroke: red; fill: red; }
]]></style>
<script type="text/javascript"><![CDATA[
var edges = document.getElementsByTagName('g');
if (edges && edges.length) {
  for (var i=0;i<edges.length;i++) {
    if (edges[i].id.substr(0,4)=='edge') {
      edges[i].setAttribute('class','edge');
    }
  }
}
]]></script>
        <defs>
                <circle id="rim" cx="0" cy="0" r="7"/>
                <circle id="rim2" cx="0" cy="0" r="3.5"/>
                <g id="zoomPlus">
                        <use xlink:href="#rim" fill="#404040">
                                <set attributeName="fill" to="#808080" begin="zoomplus.mouseover" end="zoomplus.mouseout"/>
                        </use>
                        <path d="M-4,0h8M0,-4v8" fill="none" stroke="white" stroke-width="1.5" pointer-events="none"/>
                </g>
                <g id="zoomMin">
                        <use xlink:href="#rim" fill="#404040">
                                <set attributeName="fill" to="#808080" begin="zoomminus.mouseover" end="zoomminus.mouseout"/>
                        </use>
                        <path d="M-4,0h8" fill="none" stroke="white" stroke-width="1.5" pointer-events="none"/>
                </g>
                <g id="dirArrow">
                        <path fill="none" stroke="white" stroke-width="1.5" d="M0,-3.0v7 M-2.5,-0.5L0,-3.0L2.5,-0.5"/>
                </g>
               <g id="resetDef">
                       <use xlink:href="#rim2" fill="#404040">
                               <set attributeName="fill" to="#808080" begin="reset.mouseover" end="reset.mouseout"/>
                       </use>
               </g>
        </defs>

<script type="text/javascript">
var viewWidth = 690;
var viewHeight = 270;
var sectionId = 'dynsection-0';
</script>
<script xlink:href="svgpan.js"/>
<svg id="graph" class="graph">
<g id="viewport">
<title>Geometry&lt; Child &gt;</title>
<polygon fill="white" stroke="white" points="-4,5 -4,-266 687,-266 687,5 -4,5"/>
<!-- Node1 -->
<g id="node1" class="node"><title>Node1</title>
<polygon fill="#bfbfbf" stroke="black" points="266,-120.5 266,-141.5 366,-141.5 366,-120.5 266,-120.5"/>
<text text-anchor="middle" x="316" y="-128.5" font-family="Helvetica,sans-Serif" font-size="10.00">Geometry&lt; Child &gt;</text>
</g>
<!-- Node5 -->
<g id="node9" class="node"><title>Node5</title>
<a xlink:href="class_geometry.html" target="_top" xlink:title="Geometry\&lt; Cube \&gt;">
<polygon fill="white" stroke="black" points="475.5,-240.5 475.5,-261.5 576.5,-261.5 576.5,-240.5 475.5,-240.5"/>
<text text-anchor="middle" x="526" y="-248.5" font-family="Helvetica,sans-Serif" font-size="10.00">Geometry&lt; Cube &gt;</text>
</a>
</g>
<!-- Node1&#45;&gt;Node5 -->
<g id="edge8" class="edge"><title>Node1&#45;&gt;Node5</title>
<path fill="none" stroke="orange" stroke-dasharray="5,2" d="M327.279,-150.246C339.116,-168.77 359.407,-196.229 384,-212 411.439,-229.596 446.769,-239.339 475.324,-244.686"/>
<polygon fill="orange" stroke="orange" points="330.251,-148.397 322.024,-141.721 324.292,-152.071 330.251,-148.397"/>
<text text-anchor="middle" x="416" y="-242" font-family="Helvetica,sans-Serif" font-size="10.00"> &lt; Cube &gt;</text>
</g>
<!-- Node7 -->
<g id="node13" class="node"><title>Node7</title>
<a xlink:href="class_geometry.html" target="_top" xlink:title="Geometry\&lt; Line \&gt;">
<polygon fill="white" stroke="black" points="478.5,-200.5 478.5,-221.5 573.5,-221.5 573.5,-200.5 478.5,-200.5"/>
<text text-anchor="middle" x="526" y="-208.5" font-family="Helvetica,sans-Serif" font-size="10.00">Geometry&lt; Line &gt;</text>
</a>
</g>
<!-- Node1&#45;&gt;Node7 -->
<g id="edge12" class="edge"><title>Node1&#45;&gt;Node7</title>
<path fill="none" stroke="orange" stroke-dasharray="5,2" d="M337.514,-147.522C350.403,-156.74 367.454,-167.783 384,-175 414.189,-188.168 450.172,-197.225 478.362,-202.962"/>
<polygon fill="orange" stroke="orange" points="339.445,-144.598 329.313,-141.502 335.303,-150.241 339.445,-144.598"/>
<text text-anchor="middle" x="416" y="-199" font-family="Helvetica,sans-Serif" font-size="10.00"> &lt; Line &gt;</text>
</g>
<!-- Node9 -->
<g id="node17" class="node"><title>Node9</title>
<a xlink:href="class_geometry.html" target="_top" xlink:title="Geometry\&lt; Rect \&gt;">
<polygon fill="white" stroke="black" points="477,-160.5 477,-181.5 575,-181.5 575,-160.5 477,-160.5"/>
<text text-anchor="middle" x="526" y="-168.5" font-family="Helvetica,sans-Serif" font-size="10.00">Geometry&lt; Rect &gt;</text>
</a>
</g>
<!-- Node1&#45;&gt;Node9 -->
<g id="edge16" class="edge"><title>Node1&#45;&gt;Node9</title>
<path fill="none" stroke="orange" stroke-dasharray="5,2" d="M368.851,-143.782C373.961,-144.913 379.074,-146.005 384,-147 414.757,-153.211 449.485,-159.1 476.898,-163.491"/>
<polygon fill="orange" stroke="orange" points="369.602,-140.363 359.076,-141.572 368.058,-147.191 369.602,-140.363"/>
<text text-anchor="middle" x="416" y="-162" font-family="Helvetica,sans-Serif" font-size="10.00"> &lt; Rect &gt;</text>
</g>
<!-- Node11 -->
<g id="node21" class="node"><title>Node11</title>
<a xlink:href="class_geometry.html" target="_top" xlink:title="Geometry\&lt; Sphere \&gt;">
<polygon fill="white" stroke="black" points="472,-120.5 472,-141.5 580,-141.5 580,-120.5 472,-120.5"/>
<text text-anchor="middle" x="526" y="-128.5" font-family="Helvetica,sans-Serif" font-size="10.00">Geometry&lt; Sphere &gt;</text>
</a>
</g>
<!-- Node1&#45;&gt;Node11 -->
<g id="edge20" class="edge"><title>Node1&#45;&gt;Node11</title>
<path fill="none" stroke="orange" stroke-dasharray="5,2" d="M376.422,-131C406.562,-131 442.72,-131 471.935,-131"/>
<polygon fill="orange" stroke="orange" points="376.033,-127.5 366.033,-131 376.033,-134.5 376.033,-127.5"/>
<text text-anchor="middle" x="416" y="-135" font-family="Helvetica,sans-Serif" font-size="10.00"> &lt; Sphere &gt;</text>
</g>
<!-- Node13 -->
<g id="node25" class="node"><title>Node13</title>
<a xlink:href="class_geometry.html" target="_top" xlink:title="Geometry\&lt; Cylinder \&gt;">
<polygon fill="white" stroke="black" points="469.5,-80.5 469.5,-101.5 582.5,-101.5 582.5,-80.5 469.5,-80.5"/>
<text text-anchor="middle" x="526" y="-88.5" font-family="Helvetica,sans-Serif" font-size="10.00">Geometry&lt; Cylinder &gt;</text>
</a>
</g>
<!-- Node1&#45;&gt;Node13 -->
<g id="edge24" class="edge"><title>Node1&#45;&gt;Node13</title>
<path fill="none" stroke="orange" stroke-dasharray="5,2" d="M365.902,-118.014C371.982,-116.583 378.12,-115.209 384,-114 412.009,-108.241 443.37,-103.033 469.481,-99.0343"/>
<polygon fill="orange" stroke="orange" points="364.683,-114.708 355.783,-120.457 366.325,-121.512 364.683,-114.708"/>
<text text-anchor="middle" x="416" y="-118" font-family="Helvetica,sans-Serif" font-size="10.00"> &lt; Cylinder &gt;</text>
</g>
<!-- Node15 -->
<g id="node29" class="node"><title>Node15</title>
<a xlink:href="class_geometry.html" target="_top" xlink:title="Geometry\&lt; Pyramide \&gt;">
<polygon fill="white" stroke="black" points="466.5,-40.5 466.5,-61.5 585.5,-61.5 585.5,-40.5 466.5,-40.5"/>
<text text-anchor="middle" x="526" y="-48.5" font-family="Helvetica,sans-Serif" font-size="10.00">Geometry&lt; Pyramide &gt;</text>
</a>
</g>
<!-- Node1&#45;&gt;Node15 -->
<g id="edge28" class="edge"><title>Node1&#45;&gt;Node15</title>
<path fill="none" stroke="orange" stroke-dasharray="5,2" d="M337.197,-114.218C350.089,-104.734 367.25,-93.3424 384,-86 410.045,-74.5829 440.48,-66.4566 466.479,-60.9269"/>
<polygon fill="orange" stroke="orange" points="334.877,-111.584 329.011,-120.406 339.099,-117.168 334.877,-111.584"/>
<text text-anchor="middle" x="416" y="-90" font-family="Helvetica,sans-Serif" font-size="10.00"> &lt; Pyramide &gt;</text>
</g>
<!-- Node17 -->
<g id="node33" class="node"><title>Node17</title>
<a xlink:href="class_geometry.html" target="_top" xlink:title="Geometry\&lt; Trigger \&gt;">
<polygon fill="white" stroke="black" points="472.5,-0.5 472.5,-21.5 579.5,-21.5 579.5,-0.5 472.5,-0.5"/>
<text text-anchor="middle" x="526" y="-8.5" font-family="Helvetica,sans-Serif" font-size="10.00">Geometry&lt; Trigger &gt;</text>
</a>
</g>
<!-- Node1&#45;&gt;Node17 -->
<g id="edge32" class="edge"><title>Node1&#45;&gt;Node17</title>
<path fill="none" stroke="orange" stroke-dasharray="5,2" d="M327.011,-111.781C338.76,-92.9972 359.091,-64.9647 384,-49 410.428,-32.0618 444.241,-22.6278 472.241,-17.3972"/>
<polygon fill="orange" stroke="orange" points="323.977,-110.036 321.811,-120.407 329.972,-113.65 323.977,-110.036"/>
<text text-anchor="middle" x="416" y="-53" font-family="Helvetica,sans-Serif" font-size="10.00"> &lt; Trigger &gt;</text>
</g>
<!-- Node2 -->
<g id="node2" class="node"><title>Node2</title>
<a xlink:href="class_geo_base.html" target="_top" xlink:title="Base pour la classe Geometry. ">
<polygon fill="white" stroke="black" points="170.5,-120.5 170.5,-141.5 227.5,-141.5 227.5,-120.5 170.5,-120.5"/>
<text text-anchor="middle" x="199" y="-128.5" font-family="Helvetica,sans-Serif" font-size="10.00">GeoBase</text>
</a>
</g>
<!-- Node2&#45;&gt;Node1 -->
<g id="edge2" class="edge"><title>Node2&#45;&gt;Node1</title>
<path fill="none" stroke="midnightblue" d="M237.766,-131C246.732,-131 256.398,-131 265.775,-131"/>
<polygon fill="midnightblue" stroke="midnightblue" points="237.621,-127.5 227.621,-131 237.621,-134.5 237.621,-127.5"/>
</g>
<!-- Node3 -->
<g id="node4" class="node"><title>Node3</title>
<a xlink:href="class_actor.html" target="_top" xlink:title="Base de tous les objets de la scène. ">
<polygon fill="white" stroke="black" points="92,-120.5 92,-141.5 132,-141.5 132,-120.5 92,-120.5"/>
<text text-anchor="middle" x="112" y="-128.5" font-family="Helvetica,sans-Serif" font-size="10.00">Actor</text>
</a>
</g>
<!-- Node3&#45;&gt;Node2 -->
<g id="edge4" class="edge"><title>Node3&#45;&gt;Node2</title>
<path fill="none" stroke="midnightblue" d="M142.355,-131C151.447,-131 161.385,-131 170.362,-131"/>
<polygon fill="midnightblue" stroke="midnightblue" points="142.178,-127.5 132.178,-131 142.178,-134.5 142.178,-127.5"/>
</g>
<!-- Node4 -->
<g id="node6" class="node"><title>Node4</title>
<a xlink:href="class_q_object.html" target="_top" xlink:title="QObject">
<polygon fill="white" stroke="black" points="0.5,-120.5 0.5,-141.5 53.5,-141.5 53.5,-120.5 0.5,-120.5"/>
<text text-anchor="middle" x="27" y="-128.5" font-family="Helvetica,sans-Serif" font-size="10.00">QObject</text>
</a>
</g>
<!-- Node4&#45;&gt;Node3 -->
<g id="edge6" class="edge"><title>Node4&#45;&gt;Node3</title>
<path fill="none" stroke="midnightblue" d="M63.9944,-131C73.5235,-131 83.4281,-131 91.7484,-131"/>
<polygon fill="midnightblue" stroke="midnightblue" points="63.8946,-127.5 53.8945,-131 63.8945,-134.5 63.8946,-127.5"/>
</g>
<!-- Node6 -->
<g id="node11" class="node"><title>Node6</title>
<a xlink:href="class_cube.html" target="_top" xlink:title="Un simple cube. ">
<polygon fill="white" stroke="black" points="633,-240.5 633,-261.5 673,-261.5 673,-240.5 633,-240.5"/>
<text text-anchor="middle" x="653" y="-248.5" font-family="Helvetica,sans-Serif" font-size="10.00">Cube</text>
</a>
</g>
<!-- Node5&#45;&gt;Node6 -->
<g id="edge10" class="edge"><title>Node5&#45;&gt;Node6</title>
<path fill="none" stroke="midnightblue" d="M586.801,-251C603.366,-251 620.176,-251 632.712,-251"/>
<polygon fill="midnightblue" stroke="midnightblue" points="586.559,-247.5 576.559,-251 586.559,-254.5 586.559,-247.5"/>
</g>
<!-- Node8 -->
<g id="node15" class="node"><title>Node8</title>
<a xlink:href="class_line.html" target="_top" xlink:title="Line">
<polygon fill="white" stroke="black" points="635.5,-200.5 635.5,-221.5 670.5,-221.5 670.5,-200.5 635.5,-200.5"/>
<text text-anchor="middle" x="653" y="-208.5" font-family="Helvetica,sans-Serif" font-size="10.00">Line</text>
</a>
</g>
<!-- Node7&#45;&gt;Node8 -->
<g id="edge14" class="edge"><title>Node7&#45;&gt;Node8</title>
<path fill="none" stroke="midnightblue" d="M583.896,-211C602.531,-211 621.815,-211 635.261,-211"/>
<polygon fill="midnightblue" stroke="midnightblue" points="583.651,-207.5 573.651,-211 583.651,-214.5 583.651,-207.5"/>
</g>
<!-- Node10 -->
<g id="node19" class="node"><title>Node10</title>
<a xlink:href="class_rect.html" target="_top" xlink:title="Rect">
<polygon fill="white" stroke="black" points="634,-160.5 634,-181.5 672,-181.5 672,-160.5 634,-160.5"/>
<text text-anchor="middle" x="653" y="-168.5" font-family="Helvetica,sans-Serif" font-size="10.00">Rect</text>
</a>
</g>
<!-- Node9&#45;&gt;Node10 -->
<g id="edge18" class="edge"><title>Node9&#45;&gt;Node10</title>
<path fill="none" stroke="midnightblue" d="M585.332,-171C602.861,-171 620.814,-171 633.82,-171"/>
<polygon fill="midnightblue" stroke="midnightblue" points="585.102,-167.5 575.102,-171 585.101,-174.5 585.102,-167.5"/>
</g>
<!-- Node12 -->
<g id="node23" class="node"><title>Node12</title>
<a xlink:href="class_sphere.html" target="_top" xlink:title="Une simple sphere. ">
<polygon fill="white" stroke="black" points="629.5,-120.5 629.5,-141.5 676.5,-141.5 676.5,-120.5 629.5,-120.5"/>
<text text-anchor="middle" x="653" y="-128.5" font-family="Helvetica,sans-Serif" font-size="10.00">Sphere</text>
</a>
</g>
<!-- Node11&#45;&gt;Node12 -->
<g id="edge22" class="edge"><title>Node11&#45;&gt;Node12</title>
<path fill="none" stroke="midnightblue" d="M590.329,-131C604.24,-131 618.098,-131 629.232,-131"/>
<polygon fill="midnightblue" stroke="midnightblue" points="590.228,-127.5 580.228,-131 590.228,-134.5 590.228,-127.5"/>
</g>
<!-- Node14 -->
<g id="node27" class="node"><title>Node14</title>
<a xlink:href="class_cylinder.html" target="_top" xlink:title="Cylinder">
<polygon fill="white" stroke="black" points="626.5,-80.5 626.5,-101.5 679.5,-101.5 679.5,-80.5 626.5,-80.5"/>
<text text-anchor="middle" x="653" y="-88.5" font-family="Helvetica,sans-Serif" font-size="10.00">Cylinder</text>
</a>
</g>
<!-- Node13&#45;&gt;Node14 -->
<g id="edge26" class="edge"><title>Node13&#45;&gt;Node14</title>
<path fill="none" stroke="midnightblue" d="M592.819,-91C604.731,-91 616.487,-91 626.403,-91"/>
<polygon fill="midnightblue" stroke="midnightblue" points="592.814,-87.5001 582.814,-91 592.814,-94.5001 592.814,-87.5001"/>
</g>
<!-- Node16 -->
<g id="node31" class="node"><title>Node16</title>
<a xlink:href="class_pyramide.html" target="_top" xlink:title="Pyramide">
<polygon fill="white" stroke="black" points="624,-40.5 624,-61.5 682,-61.5 682,-40.5 624,-40.5"/>
<text text-anchor="middle" x="653" y="-48.5" font-family="Helvetica,sans-Serif" font-size="10.00">Pyramide</text>
</a>
</g>
<!-- Node15&#45;&gt;Node16 -->
<g id="edge30" class="edge"><title>Node15&#45;&gt;Node16</title>
<path fill="none" stroke="midnightblue" d="M596.035,-51C605.84,-51 615.435,-51 623.871,-51"/>
<polygon fill="midnightblue" stroke="midnightblue" points="595.781,-47.5001 585.781,-51 595.781,-54.5001 595.781,-47.5001"/>
</g>
<!-- Node18 -->
<g id="node35" class="node"><title>Node18</title>
<a xlink:href="class_trigger.html" target="_top" xlink:title="Trigger">
<polygon fill="white" stroke="black" points="629.5,-0.5 629.5,-21.5 676.5,-21.5 676.5,-0.5 629.5,-0.5"/>
<text text-anchor="middle" x="653" y="-8.5" font-family="Helvetica,sans-Serif" font-size="10.00">Trigger</text>
</a>
</g>
<!-- Node17&#45;&gt;Node18 -->
<g id="edge34" class="edge"><title>Node17&#45;&gt;Node18</title>
<path fill="none" stroke="midnightblue" d="M590.073,-11C604.144,-11 618.178,-11 629.41,-11"/>
<polygon fill="midnightblue" stroke="midnightblue" points="589.859,-7.5001 579.859,-11 589.859,-14.5001 589.859,-7.5001"/>
</g>
</g>
</svg>
        <g id="navigator" transform="translate(0 0)" fill="#404254">
                <rect fill="#f2f5e9" fill-opacity="0.5" stroke="#606060" stroke-width=".5" x="0" y="0" width="60" height="60"/>
                <use id="zoomplus" xlink:href="#zoomPlus" x="17" y="9" onmousedown="handleZoom(evt,'in')"/>
                <use id="zoomminus" xlink:href="#zoomMin" x="42" y="9" onmousedown="handleZoom(evt,'out')"/>
                <use id="reset" xlink:href="#resetDef" x="30" y="36" onmousedown="handleReset()"/>
                <g id="arrowUp" xlink:href="#dirArrow" transform="translate(30 24)" onmousedown="handlePan(0,-1)">
                  <use xlink:href="#rim" fill="#404040">
                        <set attributeName="fill" to="#808080" begin="arrowUp.mouseover" end="arrowUp.mouseout"/>
                  </use>
                  <path fill="none" stroke="white" stroke-width="1.5" d="M0,-3.0v7 M-2.5,-0.5L0,-3.0L2.5,-0.5"/>
                </g>
                <g id="arrowRight" xlink:href="#dirArrow" transform="rotate(90) translate(36 -43)" onmousedown="handlePan(1,0)">
                  <use xlink:href="#rim" fill="#404040">
                        <set attributeName="fill" to="#808080" begin="arrowRight.mouseover" end="arrowRight.mouseout"/>
                  </use>
                  <path fill="none" stroke="white" stroke-width="1.5" d="M0,-3.0v7 M-2.5,-0.5L0,-3.0L2.5,-0.5"/>
                </g>
                <g id="arrowDown" xlink:href="#dirArrow" transform="rotate(180) translate(-30 -48)" onmousedown="handlePan(0,1)">
                  <use xlink:href="#rim" fill="#404040">
                        <set attributeName="fill" to="#808080" begin="arrowDown.mouseover" end="arrowDown.mouseout"/>
                  </use>
                  <path fill="none" stroke="white" stroke-width="1.5" d="M0,-3.0v7 M-2.5,-0.5L0,-3.0L2.5,-0.5"/>
                </g>
                <g id="arrowLeft" xlink:href="#dirArrow" transform="rotate(270) translate(-36 17)" onmousedown="handlePan(-1,0)">
                  <use xlink:href="#rim" fill="#404040">
                        <set attributeName="fill" to="#808080" begin="arrowLeft.mouseover" end="arrowLeft.mouseout"/>
                  </use>
                  <path fill="none" stroke="white" stroke-width="1.5" d="M0,-3.0v7 M-2.5,-0.5L0,-3.0L2.5,-0.5"/>
                </g>
        </g>
        <svg viewBox="0 0 15 15" width="100%" height="30px" preserveAspectRatio="xMaxYMin meet">
         <g id="arrow_out" transform="scale(0.3 0.3)">
          <a xlink:href="class_geometry__inherit__graph_org.svg" target="_base">
           <rect id="button" ry="5" rx="5" y="6" x="6" height="38" width="38"
                fill="#f2f5e9" fill-opacity="0.5" stroke="#606060" stroke-width="1.0"/>
           <path id="arrow"
             d="M 11.500037,31.436501 C 11.940474,20.09759 22.043105,11.32322 32.158766,21.979434 L 37.068811,17.246167 C 37.068811,17.246167 37.088388,32 37.088388,32 L 22.160133,31.978069 C 22.160133,31.978069 26.997745,27.140456 26.997745,27.140456 C 18.528582,18.264221 13.291696,25.230495 11.500037,31.436501 z"
             style="fill:#404040;"/>
          </a>
         </g>
        </svg>
</svg>
