<?xml version="1.0" encoding="UTF-8" standalone="no"?>
<!DOCTYPE svg PUBLIC "-//W3C//DTD SVG 1.1//EN"
 "http://www.w3.org/Graphics/SVG/1.1/DTD/svg11.dtd">
<!-- Generated by graphviz version 2.26.3 (20100126.1600)
 -->
<!-- Title: Camera::orientation Pages: 1 -->
<svg width="344pt" height="79pt"
 viewBox="0.00 0.00 344.00 79.00" xmlns="http://www.w3.org/2000/svg" xmlns:xlink="http://www.w3.org/1999/xlink">
<g id="graph1" class="graph" transform="scale(1 1) rotate(0) translate(4 75)">
<title>Camera::orientation</title>
<polygon fill="white" stroke="white" points="-4,5 -4,-75 341,-75 341,5 -4,5"/>
<!-- Node1 -->
<g id="node1" class="node"><title>Node1</title>
<polygon fill="#bfbfbf" stroke="black" points="0,-20.5 0,-41.5 102,-41.5 102,-20.5 0,-20.5"/>
<text text-anchor="middle" x="51" y="-28.5" font-family="Helvetica,sans-Serif" font-size="10.00">Camera::orientation</text>
</g>
<!-- Node2 -->
<g id="node3" class="node"><title>Node2</title>
<a xlink:href="class_camera.html#a9936c788ad482b40b5a3548bf5e97247" target="_top" xlink:title="Camera::up">
<polygon fill="white" stroke="black" points="138,-20.5 138,-41.5 206,-41.5 206,-20.5 138,-20.5"/>
<text text-anchor="middle" x="172" y="-28.5" font-family="Helvetica,sans-Serif" font-size="10.00">Camera::up</text>
</a>
</g>
<!-- Node1&#45;&gt;Node2 -->
<g id="edge2" class="edge"><title>Node1&#45;&gt;Node2</title>
<path fill="none" stroke="midnightblue" d="M102.315,-31C110.739,-31 119.406,-31 127.642,-31"/>
<polygon fill="midnightblue" stroke="midnightblue" points="127.794,-34.5001 137.794,-31 127.794,-27.5001 127.794,-34.5001"/>
</g>
<!-- Node3 -->
<g id="node5" class="node"><title>Node3</title>
<a xlink:href="class_camera.html#ac68fa914dd8737de1ec7558fc9281a68" target="_top" xlink:title="Camera::right">
<polygon fill="white" stroke="black" points="251,-49.5 251,-70.5 327,-70.5 327,-49.5 251,-49.5"/>
<text text-anchor="middle" x="289" y="-57.5" font-family="Helvetica,sans-Serif" font-size="10.00">Camera::right</text>
</a>
</g>
<!-- Node1&#45;&gt;Node3 -->
<g id="edge8" class="edge"><title>Node1&#45;&gt;Node3</title>
<path fill="none" stroke="midnightblue" d="M90.5844,-41.5635C105.363,-45.1193 122.353,-48.7511 138,-51 172.182,-55.9127 211.089,-58.1532 240.848,-59.1704"/>
<polygon fill="midnightblue" stroke="midnightblue" points="240.867,-62.6725 250.97,-59.4815 241.082,-55.6758 240.867,-62.6725"/>
</g>
<!-- Node4 -->
<g id="node7" class="node"><title>Node4</title>
<a xlink:href="class_camera.html#a7276761c5214ec94f6ac35e5804f6719" target="_top" xlink:title="Camera::direction">
<polygon fill="white" stroke="black" points="242,-0.5 242,-21.5 336,-21.5 336,-0.5 242,-0.5"/>
<text text-anchor="middle" x="289" y="-8.5" font-family="Helvetica,sans-Serif" font-size="10.00">Camera::direction</text>
</a>
</g>
<!-- Node1&#45;&gt;Node4 -->
<g id="edge10" class="edge"><title>Node1&#45;&gt;Node4</title>
<path fill="none" stroke="midnightblue" d="M88.3635,-20.4611C103.621,-16.6702 121.523,-12.8696 138,-11 168.855,-7.49912 203.485,-7.23801 231.791,-7.96807"/>
<polygon fill="midnightblue" stroke="midnightblue" points="231.812,-11.4703 241.914,-8.27772 232.026,-4.47353 231.812,-11.4703"/>
</g>
<!-- Node2&#45;&gt;Node3 -->
<g id="edge4" class="edge"><title>Node2&#45;&gt;Node3</title>
<path fill="none" stroke="midnightblue" d="M206.156,-39.466C217.007,-42.1555 229.218,-45.1822 240.863,-48.0686"/>
<polygon fill="midnightblue" stroke="midnightblue" points="240.354,-51.5483 250.902,-50.557 242.038,-44.7539 240.354,-51.5483"/>
</g>
<!-- Node2&#45;&gt;Node4 -->
<g id="edge6" class="edge"><title>Node2&#45;&gt;Node4</title>
<path fill="none" stroke="midnightblue" d="M206.156,-25.1614C214.291,-23.7708 223.19,-22.2495 232.043,-20.7363"/>
<polygon fill="midnightblue" stroke="midnightblue" points="232.707,-24.1736 241.974,-19.0386 231.527,-17.2737 232.707,-24.1736"/>
</g>
</g>
</svg>
