<?xml version="1.0" encoding="UTF-8" standalone="no"?>
<!DOCTYPE svg PUBLIC "-//W3C//DTD SVG 1.1//EN"
 "http://www.w3.org/Graphics/SVG/1.1/DTD/svg11.dtd">
<!-- Generated by graphviz version 2.26.3 (20100126.1600)
 -->
<!-- Title: Light::direction Pages: 1 -->
<svg width="504pt" height="130pt"
 viewBox="0.00 0.00 504.00 130.00" xmlns="http://www.w3.org/2000/svg" xmlns:xlink="http://www.w3.org/1999/xlink">
<g id="graph1" class="graph" transform="scale(1 1) rotate(0) translate(4 126)">
<title>Light::direction</title>
<polygon fill="white" stroke="white" points="-4,5 -4,-126 501,-126 501,5 -4,5"/>
<!-- Node1 -->
<g id="node1" class="node"><title>Node1</title>
<polygon fill="#bfbfbf" stroke="black" points="0,-40.5 0,-61.5 80,-61.5 80,-40.5 0,-40.5"/>
<text text-anchor="middle" x="40" y="-48.5" font-family="Helvetica,sans-Serif" font-size="10.00">Light::direction</text>
</g>
<!-- Node2 -->
<g id="node3" class="node"><title>Node2</title>
<a xlink:href="class_light.html#a123872c9df9d14ae79d4a76fee217e99" target="_top" xlink:title="Light::updateView">
<polygon fill="white" stroke="black" points="124.5,-80.5 124.5,-101.5 219.5,-101.5 219.5,-80.5 124.5,-80.5"/>
<text text-anchor="middle" x="172" y="-88.5" font-family="Helvetica,sans-Serif" font-size="10.00">Light::updateView</text>
</a>
</g>
<!-- Node1&#45;&gt;Node2 -->
<g id="edge2" class="edge"><title>Node1&#45;&gt;Node2</title>
<path fill="none" stroke="midnightblue" d="M84.4885,-64.4814C101.641,-69.6792 120.971,-75.5365 137.092,-80.4218"/>
<polygon fill="midnightblue" stroke="midnightblue" points="85.2667,-61.0601 74.6814,-61.5095 83.2366,-67.7593 85.2667,-61.0601"/>
</g>
<!-- Node6 -->
<g id="node11" class="node"><title>Node6</title>
<a xlink:href="class_spotlight.html#a5901141395318038d54058bbbfc5b990" target="_top" xlink:title="Spotlight::updateView">
<polygon fill="white" stroke="black" points="116,-40.5 116,-61.5 228,-61.5 228,-40.5 116,-40.5"/>
<text text-anchor="middle" x="172" y="-48.5" font-family="Helvetica,sans-Serif" font-size="10.00">Spotlight::updateView</text>
</a>
</g>
<!-- Node1&#45;&gt;Node6 -->
<g id="edge10" class="edge"><title>Node1&#45;&gt;Node6</title>
<path fill="none" stroke="midnightblue" d="M90.5833,-51C98.8627,-51 107.485,-51 115.889,-51"/>
<polygon fill="midnightblue" stroke="midnightblue" points="90.3216,-47.5001 80.3216,-51 90.3216,-54.5001 90.3216,-47.5001"/>
</g>
<!-- Node7 -->
<g id="node13" class="node"><title>Node7</title>
<a xlink:href="class_viewport.html#aeb07f85bbe4f10ca8d8c7b46c8ebd23b" target="_top" xlink:title="Viewport::renderQuad">
<polygon fill="white" stroke="black" points="116.5,-0.5 116.5,-21.5 227.5,-21.5 227.5,-0.5 116.5,-0.5"/>
<text text-anchor="middle" x="172" y="-8.5" font-family="Helvetica,sans-Serif" font-size="10.00">Viewport::renderQuad</text>
</a>
</g>
<!-- Node1&#45;&gt;Node7 -->
<g id="edge12" class="edge"><title>Node1&#45;&gt;Node7</title>
<path fill="none" stroke="midnightblue" d="M84.4885,-37.5186C101.641,-32.3208 120.971,-26.4635 137.092,-21.5782"/>
<polygon fill="midnightblue" stroke="midnightblue" points="83.2366,-34.2407 74.6814,-40.4905 85.2667,-40.9399 83.2366,-34.2407"/>
</g>
<!-- Node3 -->
<g id="node5" class="node"><title>Node3</title>
<a xlink:href="class_light.html#a295eaf1ef5ebd30fa4997d4f7ccbb7e1" target="_top" xlink:title="Light::update">
<polygon fill="white" stroke="black" points="275.5,-80.5 275.5,-101.5 348.5,-101.5 348.5,-80.5 275.5,-80.5"/>
<text text-anchor="middle" x="312" y="-88.5" font-family="Helvetica,sans-Serif" font-size="10.00">Light::update</text>
</a>
</g>
<!-- Node2&#45;&gt;Node3 -->
<g id="edge4" class="edge"><title>Node2&#45;&gt;Node3</title>
<path fill="none" stroke="midnightblue" d="M229.794,-91C245.248,-91 261.522,-91 275.475,-91"/>
<polygon fill="midnightblue" stroke="midnightblue" points="229.789,-87.5001 219.788,-91 229.788,-94.5001 229.789,-87.5001"/>
</g>
<!-- Node4 -->
<g id="node7" class="node"><title>Node4</title>
<a xlink:href="class_light.html#a30538cefe47541035db096b75133442d" target="_top" xlink:title="Light::Light">
<polygon fill="white" stroke="black" points="413.5,-100.5 413.5,-121.5 478.5,-121.5 478.5,-100.5 413.5,-100.5"/>
<text text-anchor="middle" x="446" y="-108.5" font-family="Helvetica,sans-Serif" font-size="10.00">Light::Light</text>
</a>
</g>
<!-- Node3&#45;&gt;Node4 -->
<g id="edge6" class="edge"><title>Node3&#45;&gt;Node4</title>
<path fill="none" stroke="midnightblue" d="M358.613,-97.9572C376.571,-100.638 396.689,-103.64 413.091,-106.088"/>
<polygon fill="midnightblue" stroke="midnightblue" points="359.023,-94.4797 348.616,-96.4651 357.99,-101.403 359.023,-94.4797"/>
</g>
<!-- Node5 -->
<g id="node9" class="node"><title>Node5</title>
<a xlink:href="class_spotlight.html#a00b11e643c97326edb0ab6b0dff3425a" target="_top" xlink:title="Spotlight::Spotlight">
<polygon fill="white" stroke="black" points="396.5,-60.5 396.5,-81.5 495.5,-81.5 495.5,-60.5 396.5,-60.5"/>
<text text-anchor="middle" x="446" y="-68.5" font-family="Helvetica,sans-Serif" font-size="10.00">Spotlight::Spotlight</text>
</a>
</g>
<!-- Node3&#45;&gt;Node5 -->
<g id="edge8" class="edge"><title>Node3&#45;&gt;Node5</title>
<path fill="none" stroke="midnightblue" d="M358.594,-84.0457C370.801,-82.2238 384.006,-80.2528 396.365,-78.4082"/>
<polygon fill="midnightblue" stroke="midnightblue" points="357.99,-80.597 348.616,-85.5349 359.023,-87.5203 357.99,-80.597"/>
</g>
<!-- Node8 -->
<g id="node15" class="node"><title>Node8</title>
<a xlink:href="class_viewport.html#a3c2c4661eac1f6351392b8fe133423f5" target="_top" xlink:title="Viewport::paintGL">
<polygon fill="white" stroke="black" points="264.5,-0.5 264.5,-21.5 359.5,-21.5 359.5,-0.5 264.5,-0.5"/>
<text text-anchor="middle" x="312" y="-8.5" font-family="Helvetica,sans-Serif" font-size="10.00">Viewport::paintGL</text>
</a>
</g>
<!-- Node7&#45;&gt;Node8 -->
<g id="edge14" class="edge"><title>Node7&#45;&gt;Node8</title>
<path fill="none" stroke="midnightblue" d="M238.006,-11C246.817,-11 255.714,-11 264.134,-11"/>
<polygon fill="midnightblue" stroke="midnightblue" points="237.734,-7.5001 227.734,-11 237.734,-14.5001 237.734,-7.5001"/>
</g>
</g>
</svg>
