<?xml version="1.0" encoding="UTF-8" standalone="no"?>
<!DOCTYPE svg PUBLIC "-//W3C//DTD SVG 1.1//EN"
 "http://www.w3.org/Graphics/SVG/1.1/DTD/svg11.dtd">
<!-- Generated by graphviz version 2.26.3 (20100126.1600)
 -->
<!-- Title: Trigger::draw Pages: 1 -->
<!--zoomable 150 -->
<svg id="main" version="1.1" xmlns="http://www.w3.org/2000/svg" xmlns:xlink="http://www.w3.org/1999/xlink" xml:space="preserve" onload="init(evt)">
<style type="text/css"><![CDATA[
.edge:hover path { stroke: red; }
.edge:hover polygon { stroke: red; fill: red; }
]]></style>
<script type="text/javascript"><![CDATA[
var edges = document.getElementsByTagName('g');
if (edges && edges.length) {
  for (var i=0;i<edges.length;i++) {
    if (edges[i].id.substr(0,4)=='edge') {
      edges[i].setAttribute('class','edge');
    }
  }
}
]]></script>
        <defs>
                <circle id="rim" cx="0" cy="0" r="7"/>
                <circle id="rim2" cx="0" cy="0" r="3.5"/>
                <g id="zoomPlus">
                        <use xlink:href="#rim" fill="#404040">
                                <set attributeName="fill" to="#808080" begin="zoomplus.mouseover" end="zoomplus.mouseout"/>
                        </use>
                        <path d="M-4,0h8M0,-4v8" fill="none" stroke="white" stroke-width="1.5" pointer-events="none"/>
                </g>
                <g id="zoomMin">
                        <use xlink:href="#rim" fill="#404040">
                                <set attributeName="fill" to="#808080" begin="zoomminus.mouseover" end="zoomminus.mouseout"/>
                        </use>
                        <path d="M-4,0h8" fill="none" stroke="white" stroke-width="1.5" pointer-events="none"/>
                </g>
                <g id="dirArrow">
                        <path fill="none" stroke="white" stroke-width="1.5" d="M0,-3.0v7 M-2.5,-0.5L0,-3.0L2.5,-0.5"/>
                </g>
               <g id="resetDef">
                       <use xlink:href="#rim2" fill="#404040">
                               <set attributeName="fill" to="#808080" begin="reset.mouseover" end="reset.mouseout"/>
                       </use>
               </g>
        </defs>

<script type="text/javascript">
var viewWidth = 512;
var viewHeight = 150;
var sectionId = 'dynsection-3';
</script>
<script xlink:href="svgpan.js"/>
<svg id="graph" class="graph">
<g id="viewport">
<title>Trigger::draw</title>
<polygon fill="white" stroke="white" points="-4,5 -4,-146 509,-146 509,5 -4,5"/>
<!-- Node1 -->
<g id="node1" class="node"><title>Node1</title>
<polygon fill="#bfbfbf" stroke="black" points="0,-60.5 0,-81.5 74,-81.5 74,-60.5 0,-60.5"/>
<text text-anchor="middle" x="37" y="-68.5" font-family="Helvetica,sans-Serif" font-size="10.00">Trigger::draw</text>
</g>
<!-- Node2 -->
<g id="node3" class="node"><title>Node2</title>
<a xlink:href="class_geometry.html#a7cb8ea5e505f3933367d7ff9c6439985" target="_top" xlink:title="Geometry\&lt; Trigger \&gt;\l::draw">
<polygon fill="white" stroke="black" points="110.5,-54 110.5,-88 217.5,-88 217.5,-54 110.5,-54"/>
<text text-anchor="start" x="118.5" y="-75" font-family="Helvetica,sans-Serif" font-size="10.00">Geometry&lt; Trigger &gt;</text>
<text text-anchor="middle" x="164" y="-62" font-family="Helvetica,sans-Serif" font-size="10.00">::draw</text>
</a>
</g>
<!-- Node1&#45;&gt;Node2 -->
<g id="edge2" class="edge"><title>Node1&#45;&gt;Node2</title>
<path fill="none" stroke="midnightblue" d="M74.0751,-71C82.2671,-71 91.1732,-71 100.09,-71"/>
<polygon fill="midnightblue" stroke="midnightblue" points="100.125,-74.5001 110.125,-71 100.125,-67.5001 100.125,-74.5001"/>
</g>
<!-- Node3 -->
<g id="node5" class="node"><title>Node3</title>
<a xlink:href="class_geo_base.html#a2a18462191f1a878d56f42dca28ea8be" target="_top" xlink:title="GeoBase::castShadows">
<polygon fill="white" stroke="black" points="254,-120.5 254,-141.5 376,-141.5 376,-120.5 254,-120.5"/>
<text text-anchor="middle" x="315" y="-128.5" font-family="Helvetica,sans-Serif" font-size="10.00">GeoBase::castShadows</text>
</a>
</g>
<!-- Node2&#45;&gt;Node3 -->
<g id="edge4" class="edge"><title>Node2&#45;&gt;Node3</title>
<path fill="none" stroke="midnightblue" d="M199.995,-88.0009C216.32,-95.4505 235.969,-104.058 254,-111 259.53,-113.129 265.395,-115.237 271.216,-117.24"/>
<polygon fill="midnightblue" stroke="midnightblue" points="270.312,-120.628 280.906,-120.497 272.542,-113.993 270.312,-120.628"/>
</g>
<!-- Node4 -->
<g id="node7" class="node"><title>Node4</title>
<a xlink:href="class_geo_base.html#a64e242b389200b0dce495fd41c270da3" target="_top" xlink:title="GeoBase::colors">
<polygon fill="white" stroke="black" points="270.5,-80.5 270.5,-101.5 359.5,-101.5 359.5,-80.5 270.5,-80.5"/>
<text text-anchor="middle" x="315" y="-88.5" font-family="Helvetica,sans-Serif" font-size="10.00">GeoBase::colors</text>
</a>
</g>
<!-- Node2&#45;&gt;Node4 -->
<g id="edge6" class="edge"><title>Node2&#45;&gt;Node4</title>
<path fill="none" stroke="midnightblue" d="M217.662,-78.1076C231.577,-79.9507 246.576,-81.9372 260.532,-83.7857"/>
<polygon fill="midnightblue" stroke="midnightblue" points="260.107,-87.2599 270.48,-85.1033 261.026,-80.3205 260.107,-87.2599"/>
</g>
<!-- Node5 -->
<g id="node9" class="node"><title>Node5</title>
<a xlink:href="class_actor.html#abbf942f60996c5df2a8c0a832bd91abc" target="_top" xlink:title="Actor::transform">
<polygon fill="white" stroke="black" points="271.5,-40.5 271.5,-61.5 358.5,-61.5 358.5,-40.5 271.5,-40.5"/>
<text text-anchor="middle" x="315" y="-48.5" font-family="Helvetica,sans-Serif" font-size="10.00">Actor::transform</text>
</a>
</g>
<!-- Node2&#45;&gt;Node5 -->
<g id="edge8" class="edge"><title>Node2&#45;&gt;Node5</title>
<path fill="none" stroke="midnightblue" d="M217.662,-63.8924C231.85,-62.0132 247.164,-59.9849 261.352,-58.1057"/>
<polygon fill="midnightblue" stroke="midnightblue" points="261.997,-61.5509 271.451,-56.7681 261.078,-54.6115 261.997,-61.5509"/>
</g>
<!-- Node9 -->
<g id="node17" class="node"><title>Node9</title>
<a xlink:href="class_geo_base.html#a16b4bc39e07b404fa613142e62a89238" target="_top" xlink:title="GeoBase::material">
<polygon fill="white" stroke="black" points="266,-0.5 266,-21.5 364,-21.5 364,-0.5 266,-0.5"/>
<text text-anchor="middle" x="315" y="-8.5" font-family="Helvetica,sans-Serif" font-size="10.00">GeoBase::material</text>
</a>
</g>
<!-- Node2&#45;&gt;Node9 -->
<g id="edge16" class="edge"><title>Node2&#45;&gt;Node9</title>
<path fill="none" stroke="midnightblue" d="M199.995,-53.9991C216.32,-46.5495 235.969,-37.9424 254,-31 259.53,-28.8708 265.395,-26.7632 271.216,-24.7602"/>
<polygon fill="midnightblue" stroke="midnightblue" points="272.542,-28.0069 280.906,-21.5026 270.312,-21.3718 272.542,-28.0069"/>
</g>
<!-- Node6 -->
<g id="node11" class="node"><title>Node6</title>
<a xlink:href="class_actor.html#acdab84246959258bbde6eb050d340e67" target="_top" xlink:title="Actor::position">
<polygon fill="white" stroke="black" points="418,-80.5 418,-101.5 498,-101.5 498,-80.5 418,-80.5"/>
<text text-anchor="middle" x="458" y="-88.5" font-family="Helvetica,sans-Serif" font-size="10.00">Actor::position</text>
</a>
</g>
<!-- Node5&#45;&gt;Node6 -->
<g id="edge10" class="edge"><title>Node5&#45;&gt;Node6</title>
<path fill="none" stroke="midnightblue" d="M352.572,-61.5095C370.248,-66.454 391.526,-72.4058 410.323,-77.6639"/>
<polygon fill="midnightblue" stroke="midnightblue" points="409.61,-81.0985 420.183,-80.4218 411.495,-74.3573 409.61,-81.0985"/>
</g>
<!-- Node7 -->
<g id="node13" class="node"><title>Node7</title>
<a xlink:href="class_actor.html#a748e07c73196050bfb0d51a14608aeae" target="_top" xlink:title="Actor::orientation">
<polygon fill="white" stroke="black" points="412.5,-40.5 412.5,-61.5 503.5,-61.5 503.5,-40.5 412.5,-40.5"/>
<text text-anchor="middle" x="458" y="-48.5" font-family="Helvetica,sans-Serif" font-size="10.00">Actor::orientation</text>
</a>
</g>
<!-- Node5&#45;&gt;Node7 -->
<g id="edge12" class="edge"><title>Node5&#45;&gt;Node7</title>
<path fill="none" stroke="midnightblue" d="M358.682,-51C372.297,-51 387.507,-51 401.851,-51"/>
<polygon fill="midnightblue" stroke="midnightblue" points="402.108,-54.5001 412.108,-51 402.108,-47.5001 402.108,-54.5001"/>
</g>
<!-- Node8 -->
<g id="node15" class="node"><title>Node8</title>
<a xlink:href="class_actor.html#a9f365fe7550acb05cb6de6813035d780" target="_top" xlink:title="Actor::scale">
<polygon fill="white" stroke="black" points="423.5,-0.5 423.5,-21.5 492.5,-21.5 492.5,-0.5 423.5,-0.5"/>
<text text-anchor="middle" x="458" y="-8.5" font-family="Helvetica,sans-Serif" font-size="10.00">Actor::scale</text>
</a>
</g>
<!-- Node5&#45;&gt;Node8 -->
<g id="edge14" class="edge"><title>Node5&#45;&gt;Node8</title>
<path fill="none" stroke="midnightblue" d="M352.572,-40.4905C371.175,-35.2867 393.768,-28.9671 413.26,-23.5148"/>
<polygon fill="midnightblue" stroke="midnightblue" points="414.445,-26.8176 423.133,-20.7531 412.559,-20.0764 414.445,-26.8176"/>
</g>
</g>
</svg>
        <g id="navigator" transform="translate(0 0)" fill="#404254">
                <rect fill="#f2f5e9" fill-opacity="0.5" stroke="#606060" stroke-width=".5" x="0" y="0" width="60" height="60"/>
                <use id="zoomplus" xlink:href="#zoomPlus" x="17" y="9" onmousedown="handleZoom(evt,'in')"/>
                <use id="zoomminus" xlink:href="#zoomMin" x="42" y="9" onmousedown="handleZoom(evt,'out')"/>
                <use id="reset" xlink:href="#resetDef" x="30" y="36" onmousedown="handleReset()"/>
                <g id="arrowUp" xlink:href="#dirArrow" transform="translate(30 24)" onmousedown="handlePan(0,-1)">
                  <use xlink:href="#rim" fill="#404040">
                        <set attributeName="fill" to="#808080" begin="arrowUp.mouseover" end="arrowUp.mouseout"/>
                  </use>
                  <path fill="none" stroke="white" stroke-width="1.5" d="M0,-3.0v7 M-2.5,-0.5L0,-3.0L2.5,-0.5"/>
                </g>
                <g id="arrowRight" xlink:href="#dirArrow" transform="rotate(90) translate(36 -43)" onmousedown="handlePan(1,0)">
                  <use xlink:href="#rim" fill="#404040">
                        <set attributeName="fill" to="#808080" begin="arrowRight.mouseover" end="arrowRight.mouseout"/>
                  </use>
                  <path fill="none" stroke="white" stroke-width="1.5" d="M0,-3.0v7 M-2.5,-0.5L0,-3.0L2.5,-0.5"/>
                </g>
                <g id="arrowDown" xlink:href="#dirArrow" transform="rotate(180) translate(-30 -48)" onmousedown="handlePan(0,1)">
                  <use xlink:href="#rim" fill="#404040">
                        <set attributeName="fill" to="#808080" begin="arrowDown.mouseover" end="arrowDown.mouseout"/>
                  </use>
                  <path fill="none" stroke="white" stroke-width="1.5" d="M0,-3.0v7 M-2.5,-0.5L0,-3.0L2.5,-0.5"/>
                </g>
                <g id="arrowLeft" xlink:href="#dirArrow" transform="rotate(270) translate(-36 17)" onmousedown="handlePan(-1,0)">
                  <use xlink:href="#rim" fill="#404040">
                        <set attributeName="fill" to="#808080" begin="arrowLeft.mouseover" end="arrowLeft.mouseout"/>
                  </use>
                  <path fill="none" stroke="white" stroke-width="1.5" d="M0,-3.0v7 M-2.5,-0.5L0,-3.0L2.5,-0.5"/>
                </g>
        </g>
        <svg viewBox="0 0 15 15" width="100%" height="30px" preserveAspectRatio="xMaxYMin meet">
         <g id="arrow_out" transform="scale(0.3 0.3)">
          <a xlink:href="class_trigger_ae3e4635086dd4d53bbdedd0b02525daa_cgraph_org.svg" target="_base">
           <rect id="button" ry="5" rx="5" y="6" x="6" height="38" width="38"
                fill="#f2f5e9" fill-opacity="0.5" stroke="#606060" stroke-width="1.0"/>
           <path id="arrow"
             d="M 11.500037,31.436501 C 11.940474,20.09759 22.043105,11.32322 32.158766,21.979434 L 37.068811,17.246167 C 37.068811,17.246167 37.088388,32 37.088388,32 L 22.160133,31.978069 C 22.160133,31.978069 26.997745,27.140456 26.997745,27.140456 C 18.528582,18.264221 13.291696,25.230495 11.500037,31.436501 z"
             style="fill:#404040;"/>
          </a>
         </g>
        </svg>
</svg>
