<?xml version="1.0" encoding="UTF-8" standalone="no"?>
<!DOCTYPE svg PUBLIC "-//W3C//DTD SVG 1.1//EN"
 "http://www.w3.org/Graphics/SVG/1.1/DTD/svg11.dtd">
<!-- Generated by graphviz version 2.26.3 (20100126.1600)
 -->
<!-- Title: Camera::direction Pages: 1 -->
<svg width="698pt" height="209pt"
 viewBox="0.00 0.00 698.00 209.04" xmlns="http://www.w3.org/2000/svg" xmlns:xlink="http://www.w3.org/1999/xlink">
<g id="graph1" class="graph" transform="scale(1 1) rotate(0) translate(4 205.044)">
<title>Camera::direction</title>
<polygon fill="white" stroke="white" points="-4,5 -4,-205.044 695,-205.044 695,5 -4,5"/>
<!-- Node1 -->
<g id="node1" class="node"><title>Node1</title>
<polygon fill="#bfbfbf" stroke="black" points="0,-96.5 0,-117.5 94,-117.5 94,-96.5 0,-96.5"/>
<text text-anchor="middle" x="47" y="-104.5" font-family="Helvetica,sans-Serif" font-size="10.00">Camera::direction</text>
</g>
<!-- Node2 -->
<g id="node3" class="node"><title>Node2</title>
<a xlink:href="class_camera.html#a9936c788ad482b40b5a3548bf5e97247" target="_top" xlink:title="Camera::up">
<polygon fill="white" stroke="black" points="152,-154.5 152,-175.5 220,-175.5 220,-154.5 152,-154.5"/>
<text text-anchor="middle" x="186" y="-162.5" font-family="Helvetica,sans-Serif" font-size="10.00">Camera::up</text>
</a>
</g>
<!-- Node1&#45;&gt;Node2 -->
<g id="edge2" class="edge"><title>Node1&#45;&gt;Node2</title>
<path fill="none" stroke="midnightblue" d="M81.4736,-121.385C105.982,-131.611 138.358,-145.12 160.546,-154.379"/>
<polygon fill="midnightblue" stroke="midnightblue" points="82.7485,-118.124 72.1719,-117.503 80.0528,-124.584 82.7485,-118.124"/>
</g>
<!-- Node3 -->
<g id="node5" class="node"><title>Node3</title>
<a xlink:href="class_camera.html#a37709eb62bc8b5ff7fd3087b891fcdf6" target="_top" xlink:title="Camera::orientation">
<polygon fill="white" stroke="black" points="291,-175.5 291,-196.5 393,-196.5 393,-175.5 291,-175.5"/>
<text text-anchor="middle" x="342" y="-183.5" font-family="Helvetica,sans-Serif" font-size="10.00">Camera::orientation</text>
</a>
</g>
<!-- Node1&#45;&gt;Node3 -->
<g id="edge14" class="edge"><title>Node1&#45;&gt;Node3</title>
<path fill="none" stroke="midnightblue" d="M60.2385,-125.921C74.8187,-144.946 100.191,-173.11 130,-185 181.793,-205.659 246.531,-202.216 290.754,-195.963"/>
<polygon fill="midnightblue" stroke="midnightblue" points="62.9034,-123.638 54.1486,-117.671 57.2715,-127.795 62.9034,-123.638"/>
</g>
<!-- Node4 -->
<g id="node7" class="node"><title>Node4</title>
<a xlink:href="class_camera.html#af81adf3ba7f63429a9d5356c218da78f" target="_top" xlink:title="Camera::view">
<polygon fill="white" stroke="black" points="303.5,-118.5 303.5,-139.5 380.5,-139.5 380.5,-118.5 303.5,-118.5"/>
<text text-anchor="middle" x="342" y="-126.5" font-family="Helvetica,sans-Serif" font-size="10.00">Camera::view</text>
</a>
</g>
<!-- Node1&#45;&gt;Node4 -->
<g id="edge16" class="edge"><title>Node1&#45;&gt;Node4</title>
<path fill="none" stroke="midnightblue" d="M104.274,-111.271C162.857,-115.64 252.275,-122.309 303.104,-126.099"/>
<polygon fill="midnightblue" stroke="midnightblue" points="104.302,-107.764 94.0698,-110.51 103.782,-114.744 104.302,-107.764"/>
</g>
<!-- Node7 -->
<g id="node13" class="node"><title>Node7</title>
<a xlink:href="class_viewport.html#ae3b6b681561ee1ef2bdb96d27bd2a1f0" target="_top" xlink:title="Viewport::keyPressEvent">
<polygon fill="white" stroke="black" points="278,-78.5 278,-99.5 406,-99.5 406,-78.5 278,-78.5"/>
<text text-anchor="middle" x="342" y="-86.5" font-family="Helvetica,sans-Serif" font-size="10.00">Viewport::keyPressEvent</text>
</a>
</g>
<!-- Node1&#45;&gt;Node7 -->
<g id="edge24" class="edge"><title>Node1&#45;&gt;Node7</title>
<path fill="none" stroke="midnightblue" d="M104.338,-103.501C154.11,-100.464 226.103,-96.0717 277.793,-92.9177"/>
<polygon fill="midnightblue" stroke="midnightblue" points="103.838,-100.025 94.0698,-104.128 104.264,-107.012 103.838,-100.025"/>
</g>
<!-- Node8 -->
<g id="node17" class="node"><title>Node8</title>
<a xlink:href="class_viewport.html#aeb07f85bbe4f10ca8d8c7b46c8ebd23b" target="_top" xlink:title="Viewport::renderQuad">
<polygon fill="white" stroke="black" points="444.5,-58.5 444.5,-79.5 555.5,-79.5 555.5,-58.5 444.5,-58.5"/>
<text text-anchor="middle" x="500" y="-66.5" font-family="Helvetica,sans-Serif" font-size="10.00">Viewport::renderQuad</text>
</a>
</g>
<!-- Node1&#45;&gt;Node8 -->
<g id="edge18" class="edge"><title>Node1&#45;&gt;Node8</title>
<path fill="none" stroke="midnightblue" d="M104.316,-95.6189C112.913,-94.0082 121.682,-92.4193 130,-91 195.553,-79.8147 211.68,-73.9022 278,-69 334.502,-64.8235 399.315,-65.4434 444.263,-66.7285"/>
<polygon fill="midnightblue" stroke="midnightblue" points="103.512,-92.2089 94.3397,-97.5109 104.817,-99.0863 103.512,-92.2089"/>
</g>
<!-- Node9 -->
<g id="node20" class="node"><title>Node9</title>
<a xlink:href="class_viewport.html#a884441d496cf615dcd1456df15db4f2a" target="_top" xlink:title="Viewport::wheelEvent">
<polygon fill="white" stroke="black" points="130,-0.5 130,-21.5 242,-21.5 242,-0.5 130,-0.5"/>
<text text-anchor="middle" x="186" y="-8.5" font-family="Helvetica,sans-Serif" font-size="10.00">Viewport::wheelEvent</text>
</a>
</g>
<!-- Node1&#45;&gt;Node9 -->
<g id="edge22" class="edge"><title>Node1&#45;&gt;Node9</title>
<path fill="none" stroke="midnightblue" d="M65.0362,-88.8644C81.0815,-73.4216 105.705,-51.3593 130,-36 138.729,-30.4813 148.884,-25.5555 158.129,-21.5656"/>
<polygon fill="midnightblue" stroke="midnightblue" points="62.1726,-86.7698 57.4746,-96.2661 67.0692,-91.7721 62.1726,-86.7698"/>
</g>
<!-- Node2&#45;&gt;Node3 -->
<g id="edge4" class="edge"><title>Node2&#45;&gt;Node3</title>
<path fill="none" stroke="midnightblue" d="M230.356,-170.971C249.243,-173.513 271.385,-176.494 290.949,-179.128"/>
<polygon fill="midnightblue" stroke="midnightblue" points="230.612,-167.474 220.235,-169.609 229.678,-174.411 230.612,-167.474"/>
</g>
<!-- Node2&#45;&gt;Node4 -->
<g id="edge6" class="edge"><title>Node2&#45;&gt;Node4</title>
<path fill="none" stroke="midnightblue" d="M230.131,-154.816C253.228,-149.486 281.242,-143.021 303.459,-137.894"/>
<polygon fill="midnightblue" stroke="midnightblue" points="229.192,-151.441 220.235,-157.1 230.766,-158.261 229.192,-151.441"/>
</g>
<!-- Node2&#45;&gt;Node7 -->
<g id="edge12" class="edge"><title>Node2&#45;&gt;Node7</title>
<path fill="none" stroke="midnightblue" d="M209.687,-148.357C227.764,-136.217 253.627,-120.026 278,-109 285.849,-105.449 294.507,-102.28 302.852,-99.5689"/>
<polygon fill="midnightblue" stroke="midnightblue" points="207.282,-145.761 200.993,-154.288 211.227,-151.544 207.282,-145.761"/>
</g>
<!-- Node5 -->
<g id="node9" class="node"><title>Node5</title>
<a xlink:href="class_viewport.html#ad0317022a7a6399ee47c199bb9348efc" target="_top" xlink:title="Viewport::renderScene">
<polygon fill="white" stroke="black" points="442,-108.5 442,-129.5 558,-129.5 558,-108.5 442,-108.5"/>
<text text-anchor="middle" x="500" y="-116.5" font-family="Helvetica,sans-Serif" font-size="10.00">Viewport::renderScene</text>
</a>
</g>
<!-- Node4&#45;&gt;Node5 -->
<g id="edge8" class="edge"><title>Node4&#45;&gt;Node5</title>
<path fill="none" stroke="midnightblue" d="M390.901,-125.905C406.979,-124.887 425.012,-123.746 441.716,-122.689"/>
<polygon fill="midnightblue" stroke="midnightblue" points="390.41,-122.429 380.651,-126.554 390.852,-129.415 390.41,-122.429"/>
</g>
<!-- Node6 -->
<g id="node11" class="node"><title>Node6</title>
<a xlink:href="class_viewport.html#a3c2c4661eac1f6351392b8fe133423f5" target="_top" xlink:title="Viewport::paintGL">
<polygon fill="white" stroke="black" points="594.5,-83.5 594.5,-104.5 689.5,-104.5 689.5,-83.5 594.5,-83.5"/>
<text text-anchor="middle" x="642" y="-91.5" font-family="Helvetica,sans-Serif" font-size="10.00">Viewport::paintGL</text>
</a>
</g>
<!-- Node5&#45;&gt;Node6 -->
<g id="edge10" class="edge"><title>Node5&#45;&gt;Node6</title>
<path fill="none" stroke="midnightblue" d="M568.052,-107.019C576.855,-105.469 585.719,-103.909 594.102,-102.433"/>
<polygon fill="midnightblue" stroke="midnightblue" points="567.408,-103.578 558.167,-108.759 568.622,-110.472 567.408,-103.578"/>
</g>
<!-- Node8&#45;&gt;Node6 -->
<g id="edge20" class="edge"><title>Node8&#45;&gt;Node6</title>
<path fill="none" stroke="midnightblue" d="M565.678,-80.563C575.313,-82.2593 585.079,-83.9788 594.262,-85.5955"/>
<polygon fill="midnightblue" stroke="midnightblue" points="566.17,-77.0959 555.715,-78.8089 564.956,-83.9899 566.17,-77.0959"/>
</g>
</g>
</svg>
