<?xml version="1.0" encoding="UTF-8" standalone="no"?>
<!DOCTYPE svg PUBLIC "-//W3C//DTD SVG 1.1//EN"
 "http://www.w3.org/Graphics/SVG/1.1/DTD/svg11.dtd">
<!-- Generated by graphviz version 2.26.3 (20100126.1600)
 -->
<!-- Title: World::setCurrentZoneId Pages: 1 -->
<svg width="400pt" height="70pt"
 viewBox="0.00 0.00 400.00 70.00" xmlns="http://www.w3.org/2000/svg" xmlns:xlink="http://www.w3.org/1999/xlink">
<g id="graph1" class="graph" transform="scale(1 1) rotate(0) translate(4 66)">
<title>World::setCurrentZoneId</title>
<polygon fill="white" stroke="white" points="-4,5 -4,-66 397,-66 397,5 -4,5"/>
<!-- Node1 -->
<g id="node1" class="node"><title>Node1</title>
<polygon fill="#bfbfbf" stroke="black" points="0,-20.5 0,-41.5 124,-41.5 124,-20.5 0,-20.5"/>
<text text-anchor="middle" x="62" y="-28.5" font-family="Helvetica,sans-Serif" font-size="10.00">World::setCurrentZoneId</text>
</g>
<!-- Node2 -->
<g id="node3" class="node"><title>Node2</title>
<a xlink:href="class_world.html#ad705d80a512244721b55c69bccab5653" target="_top" xlink:title="World::addZone">
<polygon fill="white" stroke="black" points="160,-20.5 160,-41.5 246,-41.5 246,-20.5 160,-20.5"/>
<text text-anchor="middle" x="203" y="-28.5" font-family="Helvetica,sans-Serif" font-size="10.00">World::addZone</text>
</a>
</g>
<!-- Node1&#45;&gt;Node2 -->
<g id="edge2" class="edge"><title>Node1&#45;&gt;Node2</title>
<path fill="none" stroke="midnightblue" d="M134.384,-31C143.024,-31 151.626,-31 159.671,-31"/>
<polygon fill="midnightblue" stroke="midnightblue" points="134.255,-27.5001 124.255,-31 134.255,-34.5001 134.255,-27.5001"/>
</g>
<!-- Node3 -->
<g id="node5" class="node"><title>Node3</title>
<a xlink:href="class_viewport.html#a747eb6bce25dd9d205f3e5b99817d5cd" target="_top" xlink:title="Viewport::initializeGL">
<polygon fill="white" stroke="black" points="282.5,-40.5 282.5,-61.5 391.5,-61.5 391.5,-40.5 282.5,-40.5"/>
<text text-anchor="middle" x="337" y="-48.5" font-family="Helvetica,sans-Serif" font-size="10.00">Viewport::initializeGL</text>
</a>
</g>
<!-- Node2&#45;&gt;Node3 -->
<g id="edge4" class="edge"><title>Node2&#45;&gt;Node3</title>
<path fill="none" stroke="midnightblue" d="M256.038,-38.9162C264.629,-40.1984 273.541,-41.5285 282.174,-42.817"/>
<polygon fill="midnightblue" stroke="midnightblue" points="256.543,-35.4528 246.136,-37.4382 255.51,-42.3761 256.543,-35.4528"/>
</g>
<!-- Node4 -->
<g id="node7" class="node"><title>Node4</title>
<a xlink:href="class_viewport.html#ab6bea61fac9caf74cf37fe91861b42e3" target="_top" xlink:title="Viewport::clearLevel">
<polygon fill="white" stroke="black" points="284.5,-0.5 284.5,-21.5 389.5,-21.5 389.5,-0.5 284.5,-0.5"/>
<text text-anchor="middle" x="337" y="-8.5" font-family="Helvetica,sans-Serif" font-size="10.00">Viewport::clearLevel</text>
</a>
</g>
<!-- Node2&#45;&gt;Node4 -->
<g id="edge6" class="edge"><title>Node2&#45;&gt;Node4</title>
<path fill="none" stroke="midnightblue" d="M256.281,-23.0476C265.435,-21.6813 274.946,-20.2617 284.091,-18.8969"/>
<polygon fill="midnightblue" stroke="midnightblue" points="255.51,-19.6239 246.136,-24.5618 256.543,-26.5472 255.51,-19.6239"/>
</g>
</g>
</svg>
