<?xml version="1.0" encoding="UTF-8" standalone="no"?>
<!DOCTYPE svg PUBLIC "-//W3C//DTD SVG 1.1//EN"
 "http://www.w3.org/Graphics/SVG/1.1/DTD/svg11.dtd">
<!-- Generated by graphviz version 2.26.3 (20100126.1600)
 -->
<!-- Title: Line::transform Pages: 1 -->
<svg width="342pt" height="110pt"
 viewBox="0.00 0.00 342.00 110.00" xmlns="http://www.w3.org/2000/svg" xmlns:xlink="http://www.w3.org/1999/xlink">
<g id="graph1" class="graph" transform="scale(1 1) rotate(0) translate(4 106)">
<title>Line::transform</title>
<polygon fill="white" stroke="white" points="-4,5 -4,-106 339,-106 339,5 -4,5"/>
<!-- Node1 -->
<g id="node1" class="node"><title>Node1</title>
<polygon fill="#bfbfbf" stroke="black" points="0,-40.5 0,-61.5 82,-61.5 82,-40.5 0,-40.5"/>
<text text-anchor="middle" x="41" y="-48.5" font-family="Helvetica,sans-Serif" font-size="10.00">Line::transform</text>
</g>
<!-- Node2 -->
<g id="node3" class="node"><title>Node2</title>
<a xlink:href="class_actor.html#abbf942f60996c5df2a8c0a832bd91abc" target="_top" xlink:title="Actor::transform">
<polygon fill="white" stroke="black" points="118.5,-40.5 118.5,-61.5 205.5,-61.5 205.5,-40.5 118.5,-40.5"/>
<text text-anchor="middle" x="162" y="-48.5" font-family="Helvetica,sans-Serif" font-size="10.00">Actor::transform</text>
</a>
</g>
<!-- Node1&#45;&gt;Node2 -->
<g id="edge2" class="edge"><title>Node1&#45;&gt;Node2</title>
<path fill="none" stroke="midnightblue" d="M82.3029,-51C90.6682,-51 99.5797,-51 108.3,-51"/>
<polygon fill="midnightblue" stroke="midnightblue" points="108.406,-54.5001 118.406,-51 108.406,-47.5001 108.406,-54.5001"/>
</g>
<!-- Node3 -->
<g id="node5" class="node"><title>Node3</title>
<a xlink:href="class_actor.html#acdab84246959258bbde6eb050d340e67" target="_top" xlink:title="Actor::position">
<polygon fill="white" stroke="black" points="248,-80.5 248,-101.5 328,-101.5 328,-80.5 248,-80.5"/>
<text text-anchor="middle" x="288" y="-88.5" font-family="Helvetica,sans-Serif" font-size="10.00">Actor::position</text>
</a>
</g>
<!-- Node2&#45;&gt;Node3 -->
<g id="edge4" class="edge"><title>Node2&#45;&gt;Node3</title>
<path fill="none" stroke="midnightblue" d="M195.105,-61.5095C210.321,-66.34 228.566,-72.1321 244.843,-77.2994"/>
<polygon fill="midnightblue" stroke="midnightblue" points="244.088,-80.7319 254.679,-80.4218 246.206,-74.06 244.088,-80.7319"/>
</g>
<!-- Node4 -->
<g id="node7" class="node"><title>Node4</title>
<a xlink:href="class_actor.html#a748e07c73196050bfb0d51a14608aeae" target="_top" xlink:title="Actor::orientation">
<polygon fill="white" stroke="black" points="242.5,-40.5 242.5,-61.5 333.5,-61.5 333.5,-40.5 242.5,-40.5"/>
<text text-anchor="middle" x="288" y="-48.5" font-family="Helvetica,sans-Serif" font-size="10.00">Actor::orientation</text>
</a>
</g>
<!-- Node2&#45;&gt;Node4 -->
<g id="edge6" class="edge"><title>Node2&#45;&gt;Node4</title>
<path fill="none" stroke="midnightblue" d="M205.715,-51C214.196,-51 223.192,-51 232.003,-51"/>
<polygon fill="midnightblue" stroke="midnightblue" points="232.22,-54.5001 242.22,-51 232.22,-47.5001 232.22,-54.5001"/>
</g>
<!-- Node5 -->
<g id="node9" class="node"><title>Node5</title>
<a xlink:href="class_actor.html#a9f365fe7550acb05cb6de6813035d780" target="_top" xlink:title="Actor::scale">
<polygon fill="white" stroke="black" points="253.5,-0.5 253.5,-21.5 322.5,-21.5 322.5,-0.5 253.5,-0.5"/>
<text text-anchor="middle" x="288" y="-8.5" font-family="Helvetica,sans-Serif" font-size="10.00">Actor::scale</text>
</a>
</g>
<!-- Node2&#45;&gt;Node5 -->
<g id="edge8" class="edge"><title>Node2&#45;&gt;Node5</title>
<path fill="none" stroke="midnightblue" d="M195.105,-40.4905C210.321,-35.66 228.566,-29.8679 244.843,-24.7006"/>
<polygon fill="midnightblue" stroke="midnightblue" points="246.206,-27.94 254.679,-21.5782 244.088,-21.2681 246.206,-27.94"/>
</g>
</g>
</svg>
