<?xml version="1.0" encoding="UTF-8" standalone="no"?>
<!DOCTYPE svg PUBLIC "-//W3C//DTD SVG 1.1//EN"
 "http://www.w3.org/Graphics/SVG/1.1/DTD/svg11.dtd">
<!-- Generated by graphviz version 2.26.3 (20100126.1600)
 -->
<!-- Title: QObject Pages: 1 -->
<!--zoomable 602 -->
<svg id="main" version="1.1" xmlns="http://www.w3.org/2000/svg" xmlns:xlink="http://www.w3.org/1999/xlink" xml:space="preserve" onload="init(evt)">
<style type="text/css"><![CDATA[
.edge:hover path { stroke: red; }
.edge:hover polygon { stroke: red; fill: red; }
]]></style>
<script type="text/javascript"><![CDATA[
var edges = document.getElementsByTagName('g');
if (edges && edges.length) {
  for (var i=0;i<edges.length;i++) {
    if (edges[i].id.substr(0,4)=='edge') {
      edges[i].setAttribute('class','edge');
    }
  }
}
]]></script>
        <defs>
                <circle id="rim" cx="0" cy="0" r="7"/>
                <circle id="rim2" cx="0" cy="0" r="3.5"/>
                <g id="zoomPlus">
                        <use xlink:href="#rim" fill="#404040">
                                <set attributeName="fill" to="#808080" begin="zoomplus.mouseover" end="zoomplus.mouseout"/>
                        </use>
                        <path d="M-4,0h8M0,-4v8" fill="none" stroke="white" stroke-width="1.5" pointer-events="none"/>
                </g>
                <g id="zoomMin">
                        <use xlink:href="#rim" fill="#404040">
                                <set attributeName="fill" to="#808080" begin="zoomminus.mouseover" end="zoomminus.mouseout"/>
                        </use>
                        <path d="M-4,0h8" fill="none" stroke="white" stroke-width="1.5" pointer-events="none"/>
                </g>
                <g id="dirArrow">
                        <path fill="none" stroke="white" stroke-width="1.5" d="M0,-3.0v7 M-2.5,-0.5L0,-3.0L2.5,-0.5"/>
                </g>
               <g id="resetDef">
                       <use xlink:href="#rim2" fill="#404040">
                               <set attributeName="fill" to="#808080" begin="reset.mouseover" end="reset.mouseout"/>
                       </use>
               </g>
        </defs>

<script type="text/javascript">
var viewWidth = 780;
var viewHeight = 602;
var sectionId = 'dynsection-0';
</script>
<script xlink:href="svgpan.js"/>
<svg id="graph" class="graph">
<g id="viewport">
<title>QObject</title>
<polygon fill="white" stroke="white" points="-4,5 -4,-598 777,-598 777,5 -4,5"/>
<!-- Node1 -->
<g id="node1" class="node"><title>Node1</title>
<polygon fill="#bfbfbf" stroke="black" points="0.5,-120.5 0.5,-141.5 53.5,-141.5 53.5,-120.5 0.5,-120.5"/>
<text text-anchor="middle" x="27" y="-128.5" font-family="Helvetica,sans-Serif" font-size="10.00">QObject</text>
</g>
<!-- Node2 -->
<g id="node3" class="node"><title>Node2</title>
<a xlink:href="class_actor.html" target="_top" xlink:title="Base de tous les objets de la scène. ">
<polygon fill="white" stroke="black" points="120,-240.5 120,-261.5 160,-261.5 160,-240.5 120,-240.5"/>
<text text-anchor="middle" x="140" y="-248.5" font-family="Helvetica,sans-Serif" font-size="10.00">Actor</text>
</a>
</g>
<!-- Node1&#45;&gt;Node2 -->
<g id="edge2" class="edge"><title>Node1&#45;&gt;Node2</title>
<path fill="none" stroke="midnightblue" d="M35.4044,-150.684C45.7802,-172.897 65.3739,-208.818 92,-231 100.046,-237.703 110.656,-242.438 119.854,-245.612"/>
<polygon fill="midnightblue" stroke="midnightblue" points="38.5865,-149.226 31.2936,-141.54 32.2021,-152.096 38.5865,-149.226"/>
</g>
<!-- Node22 -->
<g id="node50" class="node"><title>Node22</title>
<a xlink:href="struct_ambient_occlusion.html" target="_top" xlink:title="AmbientOcclusion">
<polygon fill="white" stroke="black" points="92,-200.5 92,-221.5 188,-221.5 188,-200.5 92,-200.5"/>
<text text-anchor="middle" x="140" y="-208.5" font-family="Helvetica,sans-Serif" font-size="10.00">AmbientOcclusion</text>
</a>
</g>
<!-- Node1&#45;&gt;Node22 -->
<g id="edge56" class="edge"><title>Node1&#45;&gt;Node22</title>
<path fill="none" stroke="midnightblue" d="M43.1532,-148.976C55.5394,-161.951 73.5848,-179.194 92,-191 97.548,-194.557 103.835,-197.712 109.988,-200.404"/>
<polygon fill="midnightblue" stroke="midnightblue" points="45.5978,-146.465 36.2197,-141.536 40.4767,-151.238 45.5978,-146.465"/>
</g>
<!-- Node23 -->
<g id="node52" class="node"><title>Node23</title>
<a xlink:href="class_camera.html" target="_top" xlink:title="Gestion de la camera. ">
<polygon fill="white" stroke="black" points="114.5,-160.5 114.5,-181.5 165.5,-181.5 165.5,-160.5 114.5,-160.5"/>
<text text-anchor="middle" x="140" y="-168.5" font-family="Helvetica,sans-Serif" font-size="10.00">Camera</text>
</a>
</g>
<!-- Node1&#45;&gt;Node23 -->
<g id="edge58" class="edge"><title>Node1&#45;&gt;Node23</title>
<path fill="none" stroke="midnightblue" d="M63.656,-143.976C80.1512,-149.815 99.2313,-156.569 114.191,-161.864"/>
<polygon fill="midnightblue" stroke="midnightblue" points="64.3742,-140.517 53.7794,-140.479 62.0383,-147.116 64.3742,-140.517"/>
</g>
<!-- Node24 -->
<g id="node54" class="node"><title>Node24</title>
<a xlink:href="class_material.html" target="_top" xlink:title="Définit les propriétés d&#39;un materiau. ">
<polygon fill="white" stroke="black" points="114.5,-120.5 114.5,-141.5 165.5,-141.5 165.5,-120.5 114.5,-120.5"/>
<text text-anchor="middle" x="140" y="-128.5" font-family="Helvetica,sans-Serif" font-size="10.00">Material</text>
</a>
</g>
<!-- Node1&#45;&gt;Node24 -->
<g id="edge60" class="edge"><title>Node1&#45;&gt;Node24</title>
<path fill="none" stroke="midnightblue" d="M64.1235,-131C80.5108,-131 99.3725,-131 114.191,-131"/>
<polygon fill="midnightblue" stroke="midnightblue" points="63.7795,-127.5 53.7794,-131 63.7794,-134.5 63.7795,-127.5"/>
</g>
<!-- Node25 -->
<g id="node56" class="node"><title>Node25</title>
<a xlink:href="class_q_widget.html" target="_top" xlink:title="QWidget">
<polygon fill="white" stroke="black" points="112.5,-80.5 112.5,-101.5 167.5,-101.5 167.5,-80.5 112.5,-80.5"/>
<text text-anchor="middle" x="140" y="-88.5" font-family="Helvetica,sans-Serif" font-size="10.00">QWidget</text>
</a>
</g>
<!-- Node1&#45;&gt;Node25 -->
<g id="edge62" class="edge"><title>Node1&#45;&gt;Node25</title>
<path fill="none" stroke="midnightblue" d="M63.2896,-118.154C79.1584,-112.537 97.477,-106.052 112.233,-100.829"/>
<polygon fill="midnightblue" stroke="midnightblue" points="62.0383,-114.884 53.7794,-121.521 64.3742,-121.483 62.0383,-114.884"/>
</g>
<!-- Node30 -->
<g id="node66" class="node"><title>Node30</title>
<a xlink:href="class_world.html" target="_top" xlink:title="World">
<polygon fill="white" stroke="black" points="119,-40.5 119,-61.5 161,-61.5 161,-40.5 119,-40.5"/>
<text text-anchor="middle" x="140" y="-48.5" font-family="Helvetica,sans-Serif" font-size="10.00">World</text>
</a>
</g>
<!-- Node1&#45;&gt;Node30 -->
<g id="edge72" class="edge"><title>Node1&#45;&gt;Node30</title>
<path fill="none" stroke="midnightblue" d="M43.1532,-113.024C55.5394,-100.049 73.5848,-82.8063 92,-71 100.208,-65.7377 110.033,-61.3559 118.651,-58.0483"/>
<polygon fill="midnightblue" stroke="midnightblue" points="40.4767,-110.762 36.2197,-120.464 45.5978,-115.535 40.4767,-110.762"/>
</g>
<!-- Node31 -->
<g id="node68" class="node"><title>Node31</title>
<a xlink:href="class_zone.html" target="_top" xlink:title="Zone">
<polygon fill="white" stroke="black" points="121,-0.5 121,-21.5 159,-21.5 159,-0.5 121,-0.5"/>
<text text-anchor="middle" x="140" y="-8.5" font-family="Helvetica,sans-Serif" font-size="10.00">Zone</text>
</a>
</g>
<!-- Node1&#45;&gt;Node31 -->
<g id="edge74" class="edge"><title>Node1&#45;&gt;Node31</title>
<path fill="none" stroke="midnightblue" d="M35.4044,-111.316C45.7802,-89.1027 65.3739,-53.1825 92,-31 100.323,-24.0658 111.39,-19.2378 120.8,-16.0652"/>
<polygon fill="midnightblue" stroke="midnightblue" points="32.2021,-109.904 31.2936,-120.46 38.5865,-112.774 32.2021,-109.904"/>
</g>
<!-- Node3 -->
<g id="node5" class="node"><title>Node3</title>
<a xlink:href="class_geo_base.html" target="_top" xlink:title="Base pour la classe Geometry. ">
<polygon fill="white" stroke="black" points="243.5,-347.5 243.5,-368.5 300.5,-368.5 300.5,-347.5 243.5,-347.5"/>
<text text-anchor="middle" x="272" y="-355.5" font-family="Helvetica,sans-Serif" font-size="10.00">GeoBase</text>
</a>
</g>
<!-- Node2&#45;&gt;Node3 -->
<g id="edge4" class="edge"><title>Node2&#45;&gt;Node3</title>
<path fill="none" stroke="midnightblue" d="M160.995,-268.018C188.53,-290.339 236.022,-328.836 258.914,-347.392"/>
<polygon fill="midnightblue" stroke="midnightblue" points="163.112,-265.229 153.139,-261.651 158.704,-270.667 163.112,-265.229"/>
</g>
<!-- Node19 -->
<g id="node44" class="node"><title>Node19</title>
<a xlink:href="class_group.html" target="_top" xlink:title="Groupe de geometries. ">
<polygon fill="white" stroke="black" points="250.5,-240.5 250.5,-261.5 293.5,-261.5 293.5,-240.5 250.5,-240.5"/>
<text text-anchor="middle" x="272" y="-248.5" font-family="Helvetica,sans-Serif" font-size="10.00">Group</text>
</a>
</g>
<!-- Node2&#45;&gt;Node19 -->
<g id="edge50" class="edge"><title>Node2&#45;&gt;Node19</title>
<path fill="none" stroke="midnightblue" d="M170.233,-251C194.726,-251 228.634,-251 250.445,-251"/>
<polygon fill="midnightblue" stroke="midnightblue" points="170.048,-247.5 160.048,-251 170.048,-254.5 170.048,-247.5"/>
</g>
<!-- Node20 -->
<g id="node46" class="node"><title>Node20</title>
<a xlink:href="class_light.html" target="_top" xlink:title="Light">
<polygon fill="white" stroke="black" points="253,-170.5 253,-191.5 291,-191.5 291,-170.5 253,-170.5"/>
<text text-anchor="middle" x="272" y="-178.5" font-family="Helvetica,sans-Serif" font-size="10.00">Light</text>
</a>
</g>
<!-- Node2&#45;&gt;Node20 -->
<g id="edge52" class="edge"><title>Node2&#45;&gt;Node20</title>
<path fill="none" stroke="midnightblue" d="M169.697,-239.401C175.822,-236.794 182.178,-233.927 188,-231 212.261,-218.803 239.008,-202.321 255.657,-191.675"/>
<polygon fill="midnightblue" stroke="midnightblue" points="168.276,-236.202 160.372,-243.257 170.95,-242.671 168.276,-236.202"/>
</g>
<!-- Node4 -->
<g id="node7" class="node"><title>Node4</title>
<a xlink:href="class_geometry.html" target="_top" xlink:title="Base de toutes les géometries. ">
<polygon fill="white" stroke="black" points="356,-405.5 356,-426.5 456,-426.5 456,-405.5 356,-405.5"/>
<text text-anchor="middle" x="406" y="-413.5" font-family="Helvetica,sans-Serif" font-size="10.00">Geometry&lt; Child &gt;</text>
</a>
</g>
<!-- Node3&#45;&gt;Node4 -->
<g id="edge6" class="edge"><title>Node3&#45;&gt;Node4</title>
<path fill="none" stroke="midnightblue" d="M305.548,-372.521C329.136,-382.731 360.166,-396.161 381.461,-405.379"/>
<polygon fill="midnightblue" stroke="midnightblue" points="306.834,-369.264 296.266,-368.503 304.053,-375.688 306.834,-369.264"/>
</g>
<!-- Node5 -->
<g id="node9" class="node"><title>Node5</title>
<a xlink:href="class_geometry.html" target="_top" xlink:title="Geometry\&lt; Cube \&gt;">
<polygon fill="white" stroke="black" points="565.5,-572.5 565.5,-593.5 666.5,-593.5 666.5,-572.5 565.5,-572.5"/>
<text text-anchor="middle" x="616" y="-580.5" font-family="Helvetica,sans-Serif" font-size="10.00">Geometry&lt; Cube &gt;</text>
</a>
</g>
<!-- Node3&#45;&gt;Node5 -->
<g id="edge36" class="edge"><title>Node3&#45;&gt;Node5</title>
<path fill="none" stroke="midnightblue" d="M276.26,-378.799C284.911,-416.033 307.936,-494.435 356,-540 411.947,-593.039 506.885,-594.886 565.248,-589.952"/>
<polygon fill="midnightblue" stroke="midnightblue" points="279.593,-377.661 274.025,-368.647 272.757,-379.166 279.593,-377.661"/>
</g>
<!-- Node7 -->
<g id="node13" class="node"><title>Node7</title>
<a xlink:href="class_geometry.html" target="_top" xlink:title="Geometry\&lt; Line \&gt;">
<polygon fill="white" stroke="black" points="568.5,-462.5 568.5,-483.5 663.5,-483.5 663.5,-462.5 568.5,-462.5"/>
<text text-anchor="middle" x="616" y="-470.5" font-family="Helvetica,sans-Serif" font-size="10.00">Geometry&lt; Line &gt;</text>
</a>
</g>
<!-- Node3&#45;&gt;Node7 -->
<g id="edge40" class="edge"><title>Node3&#45;&gt;Node7</title>
<path fill="none" stroke="midnightblue" d="M287.145,-376.342C317.867,-411.819 391.627,-488.501 474,-513 501.264,-521.109 510.35,-519.676 538,-513 561.373,-507.356 585.607,-493.442 600.736,-483.616"/>
<polygon fill="midnightblue" stroke="midnightblue" points="289.749,-374.001 280.604,-368.652 284.417,-378.537 289.749,-374.001"/>
</g>
<!-- Node9 -->
<g id="node17" class="node"><title>Node9</title>
<a xlink:href="class_geometry.html" target="_top" xlink:title="Geometry\&lt; Rect \&gt;">
<polygon fill="white" stroke="black" points="567,-408.5 567,-429.5 665,-429.5 665,-408.5 567,-408.5"/>
<text text-anchor="middle" x="616" y="-416.5" font-family="Helvetica,sans-Serif" font-size="10.00">Geometry&lt; Rect &gt;</text>
</a>
</g>
<!-- Node3&#45;&gt;Node9 -->
<g id="edge44" class="edge"><title>Node3&#45;&gt;Node9</title>
<path fill="none" stroke="midnightblue" d="M310.874,-355.745C363.494,-353.817 459.8,-354.291 538,-377 561.484,-383.82 585.886,-398.37 601.006,-408.417"/>
<polygon fill="midnightblue" stroke="midnightblue" points="310.486,-352.258 300.641,-356.172 310.778,-359.252 310.486,-352.258"/>
</g>
<!-- Node11 -->
<g id="node21" class="node"><title>Node11</title>
<a xlink:href="class_geometry.html" target="_top" xlink:title="Geometry\&lt; Sphere \&gt;">
<polygon fill="white" stroke="black" points="562,-350.5 562,-371.5 670,-371.5 670,-350.5 562,-350.5"/>
<text text-anchor="middle" x="616" y="-358.5" font-family="Helvetica,sans-Serif" font-size="10.00">Geometry&lt; Sphere &gt;</text>
</a>
</g>
<!-- Node3&#45;&gt;Node11 -->
<g id="edge46" class="edge"><title>Node3&#45;&gt;Node11</title>
<path fill="none" stroke="midnightblue" d="M310.372,-346.954C362.343,-333.583 457.831,-314.653 538,-330 558.323,-333.891 580.099,-343.003 595.463,-350.347"/>
<polygon fill="midnightblue" stroke="midnightblue" points="309.349,-343.604 300.575,-349.542 311.138,-350.372 309.349,-343.604"/>
</g>
<!-- Node13 -->
<g id="node25" class="node"><title>Node13</title>
<a xlink:href="class_geometry.html" target="_top" xlink:title="Geometry\&lt; Cylinder \&gt;">
<polygon fill="white" stroke="black" points="559.5,-293.5 559.5,-314.5 672.5,-314.5 672.5,-293.5 559.5,-293.5"/>
<text text-anchor="middle" x="616" y="-301.5" font-family="Helvetica,sans-Serif" font-size="10.00">Geometry&lt; Cylinder &gt;</text>
</a>
</g>
<!-- Node3&#45;&gt;Node13 -->
<g id="edge38" class="edge"><title>Node3&#45;&gt;Node13</title>
<path fill="none" stroke="midnightblue" d="M297.985,-342.236C335.327,-320.61 407.057,-282.848 474,-269 501.855,-263.238 510.186,-263.046 538,-269 559.77,-273.661 582.808,-284.876 598.153,-293.364"/>
<polygon fill="midnightblue" stroke="midnightblue" points="296.107,-339.28 289.257,-347.362 299.652,-345.316 296.107,-339.28"/>
</g>
<!-- Node15 -->
<g id="node29" class="node"><title>Node15</title>
<a xlink:href="class_geometry.html" target="_top" xlink:title="Geometry\&lt; Pyramide \&gt;">
<polygon fill="white" stroke="black" points="556.5,-226.5 556.5,-247.5 675.5,-247.5 675.5,-226.5 556.5,-226.5"/>
<text text-anchor="middle" x="616" y="-234.5" font-family="Helvetica,sans-Serif" font-size="10.00">Geometry&lt; Pyramide &gt;</text>
</a>
</g>
<!-- Node3&#45;&gt;Node15 -->
<g id="edge42" class="edge"><title>Node3&#45;&gt;Node15</title>
<path fill="none" stroke="midnightblue" d="M284.079,-338.782C298.434,-317.766 324.457,-284.958 356,-269 419.104,-237.074 501.477,-232.126 556.426,-233.162"/>
<polygon fill="midnightblue" stroke="midnightblue" points="281.081,-336.97 278.493,-347.244 286.923,-340.827 281.081,-336.97"/>
</g>
<!-- Node17 -->
<g id="node33" class="node"><title>Node17</title>
<a xlink:href="class_geometry.html" target="_top" xlink:title="Geometry\&lt; Trigger \&gt;">
<polygon fill="white" stroke="black" points="562.5,-522.5 562.5,-543.5 669.5,-543.5 669.5,-522.5 562.5,-522.5"/>
<text text-anchor="middle" x="616" y="-530.5" font-family="Helvetica,sans-Serif" font-size="10.00">Geometry&lt; Trigger &gt;</text>
</a>
</g>
<!-- Node3&#45;&gt;Node17 -->
<g id="edge48" class="edge"><title>Node3&#45;&gt;Node17</title>
<path fill="none" stroke="midnightblue" d="M281.771,-377.953C295.669,-404.994 323.138,-453.819 356,-488 400.438,-534.222 412.869,-551.654 474,-571 501.119,-579.582 510.283,-577.392 538,-571 541.046,-570.298 572.938,-554.528 594.986,-543.527"/>
<polygon fill="midnightblue" stroke="midnightblue" points="284.751,-376.088 277.127,-368.732 278.499,-379.237 284.751,-376.088"/>
</g>
<!-- Node4&#45;&gt;Node5 -->
<g id="edge8" class="edge"><title>Node4&#45;&gt;Node5</title>
<path fill="none" stroke="orange" stroke-dasharray="5,2" d="M415.379,-435.794C426.656,-457.818 447.428,-493.288 474,-516 505.807,-543.187 550.524,-561.859 581.233,-572.453"/>
<polygon fill="orange" stroke="orange" points="418.456,-434.12 410.88,-426.714 412.184,-437.228 418.456,-434.12"/>
<text text-anchor="middle" x="506" y="-558" font-family="Helvetica,sans-Serif" font-size="10.00"> &lt; Cube &gt;</text>
</g>
<!-- Node4&#45;&gt;Node7 -->
<g id="edge12" class="edge"><title>Node4&#45;&gt;Node7</title>
<path fill="none" stroke="orange" stroke-dasharray="5,2" d="M455.131,-429.335C492.352,-439.438 542.789,-453.128 577.202,-462.469"/>
<polygon fill="orange" stroke="orange" points="455.575,-425.829 445.007,-426.588 453.741,-432.585 455.575,-425.829"/>
<text text-anchor="middle" x="506" y="-455" font-family="Helvetica,sans-Serif" font-size="10.00"> &lt; Line &gt;</text>
</g>
<!-- Node4&#45;&gt;Node9 -->
<g id="edge16" class="edge"><title>Node4&#45;&gt;Node9</title>
<path fill="none" stroke="orange" stroke-dasharray="5,2" d="M466.121,-416.859C497.984,-417.314 536.64,-417.866 566.713,-418.296"/>
<polygon fill="orange" stroke="orange" points="466.082,-413.358 456.033,-416.715 465.982,-420.357 466.082,-413.358"/>
<text text-anchor="middle" x="506" y="-421" font-family="Helvetica,sans-Serif" font-size="10.00"> &lt; Rect &gt;</text>
</g>
<!-- Node4&#45;&gt;Node11 -->
<g id="edge20" class="edge"><title>Node4&#45;&gt;Node11</title>
<path fill="none" stroke="orange" stroke-dasharray="5,2" d="M456.445,-402.788C492.967,-393.223 541.68,-380.465 575.634,-371.572"/>
<polygon fill="orange" stroke="orange" points="455.277,-399.476 446.49,-405.395 457.051,-406.248 455.277,-399.476"/>
<text text-anchor="middle" x="506" y="-400" font-family="Helvetica,sans-Serif" font-size="10.00"> &lt; Sphere &gt;</text>
</g>
<!-- Node4&#45;&gt;Node13 -->
<g id="edge24" class="edge"><title>Node4&#45;&gt;Node13</title>
<path fill="none" stroke="orange" stroke-dasharray="5,2" d="M425.723,-398.772C438.815,-387.892 456.712,-374.044 474,-364 510.332,-342.892 555.508,-325.108 585.016,-314.509"/>
<polygon fill="orange" stroke="orange" points="423.238,-396.29 417.869,-405.423 427.762,-401.632 423.238,-396.29"/>
<text text-anchor="middle" x="506" y="-368" font-family="Helvetica,sans-Serif" font-size="10.00"> &lt; Cylinder &gt;</text>
</g>
<!-- Node4&#45;&gt;Node15 -->
<g id="edge28" class="edge"><title>Node4&#45;&gt;Node15</title>
<path fill="none" stroke="orange" stroke-dasharray="5,2" d="M415.912,-396.416C427.545,-374.902 448.519,-340.313 474,-317 508.968,-285.007 558.968,-260.631 589.359,-247.602"/>
<polygon fill="orange" stroke="orange" points="412.801,-394.814 411.242,-405.293 418.996,-398.073 412.801,-394.814"/>
<text text-anchor="middle" x="506" y="-321" font-family="Helvetica,sans-Serif" font-size="10.00"> &lt; Pyramide &gt;</text>
</g>
<!-- Node4&#45;&gt;Node17 -->
<g id="edge32" class="edge"><title>Node4&#45;&gt;Node17</title>
<path fill="none" stroke="orange" stroke-dasharray="5,2" d="M426.307,-433.453C439.394,-444.204 457.071,-457.828 474,-468 511.765,-490.692 558.802,-510.766 588.123,-522.403"/>
<polygon fill="orange" stroke="orange" points="428.343,-430.593 418.424,-426.869 423.855,-435.966 428.343,-430.593"/>
<text text-anchor="middle" x="506" y="-503" font-family="Helvetica,sans-Serif" font-size="10.00"> &lt; Trigger &gt;</text>
</g>
<!-- Node6 -->
<g id="node11" class="node"><title>Node6</title>
<a xlink:href="class_cube.html" target="_top" xlink:title="Un simple cube. ">
<polygon fill="white" stroke="black" points="723,-572.5 723,-593.5 763,-593.5 763,-572.5 723,-572.5"/>
<text text-anchor="middle" x="743" y="-580.5" font-family="Helvetica,sans-Serif" font-size="10.00">Cube</text>
</a>
</g>
<!-- Node5&#45;&gt;Node6 -->
<g id="edge10" class="edge"><title>Node5&#45;&gt;Node6</title>
<path fill="none" stroke="midnightblue" d="M676.801,-583C693.366,-583 710.176,-583 722.712,-583"/>
<polygon fill="midnightblue" stroke="midnightblue" points="676.559,-579.5 666.559,-583 676.559,-586.5 676.559,-579.5"/>
</g>
<!-- Node8 -->
<g id="node15" class="node"><title>Node8</title>
<a xlink:href="class_line.html" target="_top" xlink:title="Line">
<polygon fill="white" stroke="black" points="725.5,-462.5 725.5,-483.5 760.5,-483.5 760.5,-462.5 725.5,-462.5"/>
<text text-anchor="middle" x="743" y="-470.5" font-family="Helvetica,sans-Serif" font-size="10.00">Line</text>
</a>
</g>
<!-- Node7&#45;&gt;Node8 -->
<g id="edge14" class="edge"><title>Node7&#45;&gt;Node8</title>
<path fill="none" stroke="midnightblue" d="M673.896,-473C692.531,-473 711.815,-473 725.261,-473"/>
<polygon fill="midnightblue" stroke="midnightblue" points="673.651,-469.5 663.651,-473 673.651,-476.5 673.651,-469.5"/>
</g>
<!-- Node10 -->
<g id="node19" class="node"><title>Node10</title>
<a xlink:href="class_rect.html" target="_top" xlink:title="Rect">
<polygon fill="white" stroke="black" points="724,-408.5 724,-429.5 762,-429.5 762,-408.5 724,-408.5"/>
<text text-anchor="middle" x="743" y="-416.5" font-family="Helvetica,sans-Serif" font-size="10.00">Rect</text>
</a>
</g>
<!-- Node9&#45;&gt;Node10 -->
<g id="edge18" class="edge"><title>Node9&#45;&gt;Node10</title>
<path fill="none" stroke="midnightblue" d="M675.332,-419C692.861,-419 710.814,-419 723.82,-419"/>
<polygon fill="midnightblue" stroke="midnightblue" points="675.102,-415.5 665.102,-419 675.101,-422.5 675.102,-415.5"/>
</g>
<!-- Node12 -->
<g id="node23" class="node"><title>Node12</title>
<a xlink:href="class_sphere.html" target="_top" xlink:title="Une simple sphere. ">
<polygon fill="white" stroke="black" points="719.5,-350.5 719.5,-371.5 766.5,-371.5 766.5,-350.5 719.5,-350.5"/>
<text text-anchor="middle" x="743" y="-358.5" font-family="Helvetica,sans-Serif" font-size="10.00">Sphere</text>
</a>
</g>
<!-- Node11&#45;&gt;Node12 -->
<g id="edge22" class="edge"><title>Node11&#45;&gt;Node12</title>
<path fill="none" stroke="midnightblue" d="M680.329,-361C694.24,-361 708.098,-361 719.232,-361"/>
<polygon fill="midnightblue" stroke="midnightblue" points="680.228,-357.5 670.228,-361 680.228,-364.5 680.228,-357.5"/>
</g>
<!-- Node14 -->
<g id="node27" class="node"><title>Node14</title>
<a xlink:href="class_cylinder.html" target="_top" xlink:title="Cylinder">
<polygon fill="white" stroke="black" points="716.5,-293.5 716.5,-314.5 769.5,-314.5 769.5,-293.5 716.5,-293.5"/>
<text text-anchor="middle" x="743" y="-301.5" font-family="Helvetica,sans-Serif" font-size="10.00">Cylinder</text>
</a>
</g>
<!-- Node13&#45;&gt;Node14 -->
<g id="edge26" class="edge"><title>Node13&#45;&gt;Node14</title>
<path fill="none" stroke="midnightblue" d="M682.819,-304C694.731,-304 706.487,-304 716.403,-304"/>
<polygon fill="midnightblue" stroke="midnightblue" points="682.814,-300.5 672.814,-304 682.814,-307.5 682.814,-300.5"/>
</g>
<!-- Node16 -->
<g id="node31" class="node"><title>Node16</title>
<a xlink:href="class_pyramide.html" target="_top" xlink:title="Pyramide">
<polygon fill="white" stroke="black" points="714,-226.5 714,-247.5 772,-247.5 772,-226.5 714,-226.5"/>
<text text-anchor="middle" x="743" y="-234.5" font-family="Helvetica,sans-Serif" font-size="10.00">Pyramide</text>
</a>
</g>
<!-- Node15&#45;&gt;Node16 -->
<g id="edge30" class="edge"><title>Node15&#45;&gt;Node16</title>
<path fill="none" stroke="midnightblue" d="M686.035,-237C695.84,-237 705.435,-237 713.871,-237"/>
<polygon fill="midnightblue" stroke="midnightblue" points="685.781,-233.5 675.781,-237 685.781,-240.5 685.781,-233.5"/>
</g>
<!-- Node18 -->
<g id="node35" class="node"><title>Node18</title>
<a xlink:href="class_trigger.html" target="_top" xlink:title="Trigger">
<polygon fill="white" stroke="black" points="719.5,-522.5 719.5,-543.5 766.5,-543.5 766.5,-522.5 719.5,-522.5"/>
<text text-anchor="middle" x="743" y="-530.5" font-family="Helvetica,sans-Serif" font-size="10.00">Trigger</text>
</a>
</g>
<!-- Node17&#45;&gt;Node18 -->
<g id="edge34" class="edge"><title>Node17&#45;&gt;Node18</title>
<path fill="none" stroke="midnightblue" d="M680.073,-533C694.144,-533 708.178,-533 719.41,-533"/>
<polygon fill="midnightblue" stroke="midnightblue" points="679.859,-529.5 669.859,-533 679.859,-536.5 679.859,-529.5"/>
</g>
<!-- Node21 -->
<g id="node48" class="node"><title>Node21</title>
<a xlink:href="class_spotlight.html" target="_top" xlink:title="Spotlight">
<polygon fill="white" stroke="black" points="378.5,-155.5 378.5,-176.5 433.5,-176.5 433.5,-155.5 378.5,-155.5"/>
<text text-anchor="middle" x="406" y="-163.5" font-family="Helvetica,sans-Serif" font-size="10.00">Spotlight</text>
</a>
</g>
<!-- Node20&#45;&gt;Node21 -->
<g id="edge54" class="edge"><title>Node20&#45;&gt;Node21</title>
<path fill="none" stroke="midnightblue" d="M301.377,-177.712C324.328,-175.142 355.996,-171.597 378.464,-169.082"/>
<polygon fill="midnightblue" stroke="midnightblue" points="300.747,-174.26 291.199,-178.851 301.526,-181.217 300.747,-174.26"/>
</g>
<!-- Node26 -->
<g id="node58" class="node"><title>Node26</title>
<a xlink:href="class_q_main_window.html" target="_top" xlink:title="QMainWindow">
<polygon fill="white" stroke="black" points="232,-67.5 232,-88.5 312,-88.5 312,-67.5 232,-67.5"/>
<text text-anchor="middle" x="272" y="-75.5" font-family="Helvetica,sans-Serif" font-size="10.00">QMainWindow</text>
</a>
</g>
<!-- Node25&#45;&gt;Node26 -->
<g id="edge64" class="edge"><title>Node25&#45;&gt;Node26</title>
<path fill="none" stroke="midnightblue" d="M177.759,-87.2813C194.678,-85.6151 214.648,-83.6483 231.84,-81.9552"/>
<polygon fill="midnightblue" stroke="midnightblue" points="177.28,-83.8114 167.672,-88.2748 177.966,-90.7777 177.28,-83.8114"/>
</g>
<!-- Node28 -->
<g id="node62" class="node"><title>Node28</title>
<a xlink:href="class_q_open_g_l_widget.html" target="_top" xlink:title="QOpenGLWidget">
<polygon fill="white" stroke="black" points="226.5,-107.5 226.5,-128.5 317.5,-128.5 317.5,-107.5 226.5,-107.5"/>
<text text-anchor="middle" x="272" y="-115.5" font-family="Helvetica,sans-Serif" font-size="10.00">QOpenGLWidget</text>
</a>
</g>
<!-- Node25&#45;&gt;Node28 -->
<g id="edge68" class="edge"><title>Node25&#45;&gt;Node28</title>
<path fill="none" stroke="midnightblue" d="M177.736,-98.7187C192.916,-101.824 210.555,-105.432 226.441,-108.681"/>
<polygon fill="midnightblue" stroke="midnightblue" points="178.17,-95.2351 167.672,-96.6601 176.767,-102.093 178.17,-95.2351"/>
</g>
<!-- Node27 -->
<g id="node60" class="node"><title>Node27</title>
<a xlink:href="class_main_window.html" target="_top" xlink:title="Fenetre principale. ">
<polygon fill="white" stroke="black" points="369.5,-67.5 369.5,-88.5 442.5,-88.5 442.5,-67.5 369.5,-67.5"/>
<text text-anchor="middle" x="406" y="-75.5" font-family="Helvetica,sans-Serif" font-size="10.00">MainWindow</text>
</a>
</g>
<!-- Node26&#45;&gt;Node27 -->
<g id="edge66" class="edge"><title>Node26&#45;&gt;Node27</title>
<path fill="none" stroke="midnightblue" d="M322.278,-78C337.953,-78 354.933,-78 369.478,-78"/>
<polygon fill="midnightblue" stroke="midnightblue" points="322.204,-74.5001 312.204,-78 322.204,-81.5001 322.204,-74.5001"/>
</g>
<!-- Node29 -->
<g id="node64" class="node"><title>Node29</title>
<a xlink:href="class_viewport.html" target="_top" xlink:title="Cadre de vue 3D. ">
<polygon fill="white" stroke="black" points="378.5,-107.5 378.5,-128.5 433.5,-128.5 433.5,-107.5 378.5,-107.5"/>
<text text-anchor="middle" x="406" y="-115.5" font-family="Helvetica,sans-Serif" font-size="10.00">Viewport</text>
</a>
</g>
<!-- Node28&#45;&gt;Node29 -->
<g id="edge70" class="edge"><title>Node28&#45;&gt;Node29</title>
<path fill="none" stroke="midnightblue" d="M327.861,-118C345.317,-118 363.81,-118 378.422,-118"/>
<polygon fill="midnightblue" stroke="midnightblue" points="327.74,-114.5 317.74,-118 327.74,-121.5 327.74,-114.5"/>
</g>
</g>
</svg>
        <g id="navigator" transform="translate(0 0)" fill="#404254">
                <rect fill="#f2f5e9" fill-opacity="0.5" stroke="#606060" stroke-width=".5" x="0" y="0" width="60" height="60"/>
                <use id="zoomplus" xlink:href="#zoomPlus" x="17" y="9" onmousedown="handleZoom(evt,'in')"/>
                <use id="zoomminus" xlink:href="#zoomMin" x="42" y="9" onmousedown="handleZoom(evt,'out')"/>
                <use id="reset" xlink:href="#resetDef" x="30" y="36" onmousedown="handleReset()"/>
                <g id="arrowUp" xlink:href="#dirArrow" transform="translate(30 24)" onmousedown="handlePan(0,-1)">
                  <use xlink:href="#rim" fill="#404040">
                        <set attributeName="fill" to="#808080" begin="arrowUp.mouseover" end="arrowUp.mouseout"/>
                  </use>
                  <path fill="none" stroke="white" stroke-width="1.5" d="M0,-3.0v7 M-2.5,-0.5L0,-3.0L2.5,-0.5"/>
                </g>
                <g id="arrowRight" xlink:href="#dirArrow" transform="rotate(90) translate(36 -43)" onmousedown="handlePan(1,0)">
                  <use xlink:href="#rim" fill="#404040">
                        <set attributeName="fill" to="#808080" begin="arrowRight.mouseover" end="arrowRight.mouseout"/>
                  </use>
                  <path fill="none" stroke="white" stroke-width="1.5" d="M0,-3.0v7 M-2.5,-0.5L0,-3.0L2.5,-0.5"/>
                </g>
                <g id="arrowDown" xlink:href="#dirArrow" transform="rotate(180) translate(-30 -48)" onmousedown="handlePan(0,1)">
                  <use xlink:href="#rim" fill="#404040">
                        <set attributeName="fill" to="#808080" begin="arrowDown.mouseover" end="arrowDown.mouseout"/>
                  </use>
                  <path fill="none" stroke="white" stroke-width="1.5" d="M0,-3.0v7 M-2.5,-0.5L0,-3.0L2.5,-0.5"/>
                </g>
                <g id="arrowLeft" xlink:href="#dirArrow" transform="rotate(270) translate(-36 17)" onmousedown="handlePan(-1,0)">
                  <use xlink:href="#rim" fill="#404040">
                        <set attributeName="fill" to="#808080" begin="arrowLeft.mouseover" end="arrowLeft.mouseout"/>
                  </use>
                  <path fill="none" stroke="white" stroke-width="1.5" d="M0,-3.0v7 M-2.5,-0.5L0,-3.0L2.5,-0.5"/>
                </g>
        </g>
        <svg viewBox="0 0 15 15" width="100%" height="30px" preserveAspectRatio="xMaxYMin meet">
         <g id="arrow_out" transform="scale(0.3 0.3)">
          <a xlink:href="class_q_object__inherit__graph_org.svg" target="_base">
           <rect id="button" ry="5" rx="5" y="6" x="6" height="38" width="38"
                fill="#f2f5e9" fill-opacity="0.5" stroke="#606060" stroke-width="1.0"/>
           <path id="arrow"
             d="M 11.500037,31.436501 C 11.940474,20.09759 22.043105,11.32322 32.158766,21.979434 L 37.068811,17.246167 C 37.068811,17.246167 37.088388,32 37.088388,32 L 22.160133,31.978069 C 22.160133,31.978069 26.997745,27.140456 26.997745,27.140456 C 18.528582,18.264221 13.291696,25.230495 11.500037,31.436501 z"
             style="fill:#404040;"/>
          </a>
         </g>
        </svg>
</svg>
