<?xml version="1.0" encoding="UTF-8" standalone="no"?>
<!DOCTYPE svg PUBLIC "-//W3C//DTD SVG 1.1//EN"
 "http://www.w3.org/Graphics/SVG/1.1/DTD/svg11.dtd">
<!-- Generated by graphviz version 2.26.3 (20100126.1600)
 -->
<!-- Title: Camera::view Pages: 1 -->
<svg width="370pt" height="30pt"
 viewBox="0.00 0.00 370.00 30.00" xmlns="http://www.w3.org/2000/svg" xmlns:xlink="http://www.w3.org/1999/xlink">
<g id="graph1" class="graph" transform="scale(1 1) rotate(0) translate(4 26)">
<title>Camera::view</title>
<polygon fill="white" stroke="white" points="-4,5 -4,-26 367,-26 367,5 -4,5"/>
<!-- Node1 -->
<g id="node1" class="node"><title>Node1</title>
<polygon fill="#bfbfbf" stroke="black" points="0.5,-0.5 0.5,-21.5 77.5,-21.5 77.5,-0.5 0.5,-0.5"/>
<text text-anchor="middle" x="39" y="-8.5" font-family="Helvetica,sans-Serif" font-size="10.00">Camera::view</text>
</g>
<!-- Node2 -->
<g id="node3" class="node"><title>Node2</title>
<a xlink:href="class_viewport.html#ad0317022a7a6399ee47c199bb9348efc" target="_top" xlink:title="Viewport::renderScene">
<polygon fill="white" stroke="black" points="114,-0.5 114,-21.5 230,-21.5 230,-0.5 114,-0.5"/>
<text text-anchor="middle" x="172" y="-8.5" font-family="Helvetica,sans-Serif" font-size="10.00">Viewport::renderScene</text>
</a>
</g>
<!-- Node1&#45;&gt;Node2 -->
<g id="edge2" class="edge"><title>Node1&#45;&gt;Node2</title>
<path fill="none" stroke="midnightblue" d="M88.0904,-11C96.3916,-11 105.082,-11 113.593,-11"/>
<polygon fill="midnightblue" stroke="midnightblue" points="87.8267,-7.5001 77.8266,-11 87.8266,-14.5001 87.8267,-7.5001"/>
</g>
<!-- Node3 -->
<g id="node5" class="node"><title>Node3</title>
<a xlink:href="class_viewport.html#a3c2c4661eac1f6351392b8fe133423f5" target="_top" xlink:title="Viewport::paintGL">
<polygon fill="white" stroke="black" points="266.5,-0.5 266.5,-21.5 361.5,-21.5 361.5,-0.5 266.5,-0.5"/>
<text text-anchor="middle" x="314" y="-8.5" font-family="Helvetica,sans-Serif" font-size="10.00">Viewport::paintGL</text>
</a>
</g>
<!-- Node2&#45;&gt;Node3 -->
<g id="edge4" class="edge"><title>Node2&#45;&gt;Node3</title>
<path fill="none" stroke="midnightblue" d="M240.336,-11C249.046,-11 257.81,-11 266.102,-11"/>
<polygon fill="midnightblue" stroke="midnightblue" points="240.167,-7.5001 230.167,-11 240.167,-14.5001 240.167,-7.5001"/>
</g>
</g>
</svg>
