<?xml version="1.0" encoding="UTF-8" standalone="no"?>
<!DOCTYPE svg PUBLIC "-//W3C//DTD SVG 1.1//EN"
 "http://www.w3.org/Graphics/SVG/1.1/DTD/svg11.dtd">
<!-- Generated by graphviz version 2.26.3 (20100126.1600)
 -->
<!-- Title: GeoBase Pages: 1 -->
<svg width="64pt" height="146pt"
 viewBox="0.00 0.00 64.00 146.00" xmlns="http://www.w3.org/2000/svg" xmlns:xlink="http://www.w3.org/1999/xlink">
<g id="graph1" class="graph" transform="scale(1 1) rotate(0) translate(4 142)">
<title>GeoBase</title>
<polygon fill="white" stroke="white" points="-4,5 -4,-142 61,-142 61,5 -4,5"/>
<!-- Node1 -->
<g id="node1" class="node"><title>Node1</title>
<polygon fill="#bfbfbf" stroke="black" points="-0.5,-0.5 -0.5,-21.5 56.5,-21.5 56.5,-0.5 -0.5,-0.5"/>
<text text-anchor="middle" x="28" y="-8.5" font-family="Helvetica,sans-Serif" font-size="10.00">GeoBase</text>
</g>
<!-- Node2 -->
<g id="node2" class="node"><title>Node2</title>
<a xlink:href="class_actor.html" target="_top" xlink:title="Base de tous les objets de la scène. ">
<polygon fill="white" stroke="black" points="8,-58.5 8,-79.5 48,-79.5 48,-58.5 8,-58.5"/>
<text text-anchor="middle" x="28" y="-66.5" font-family="Helvetica,sans-Serif" font-size="10.00">Actor</text>
</a>
</g>
<!-- Node2&#45;&gt;Node1 -->
<g id="edge2" class="edge"><title>Node2&#45;&gt;Node1</title>
<path fill="none" stroke="midnightblue" d="M28,-48.1906C28,-39.1684 28,-28.9941 28,-21.5707"/>
<polygon fill="midnightblue" stroke="midnightblue" points="24.5001,-48.3619 28,-58.3619 31.5001,-48.3619 24.5001,-48.3619"/>
</g>
<!-- Node3 -->
<g id="node4" class="node"><title>Node3</title>
<a xlink:href="class_q_object.html" target="_top" xlink:title="QObject">
<polygon fill="white" stroke="black" points="1.5,-116.5 1.5,-137.5 54.5,-137.5 54.5,-116.5 1.5,-116.5"/>
<text text-anchor="middle" x="28" y="-124.5" font-family="Helvetica,sans-Serif" font-size="10.00">QObject</text>
</a>
</g>
<!-- Node3&#45;&gt;Node2 -->
<g id="edge4" class="edge"><title>Node3&#45;&gt;Node2</title>
<path fill="none" stroke="midnightblue" d="M28,-106.191C28,-97.1684 28,-86.9941 28,-79.5707"/>
<polygon fill="midnightblue" stroke="midnightblue" points="24.5001,-106.362 28,-116.362 31.5001,-106.362 24.5001,-106.362"/>
</g>
</g>
</svg>
