<?xml version="1.0" encoding="UTF-8" standalone="no"?>
<!DOCTYPE svg PUBLIC "-//W3C//DTD SVG 1.1//EN"
 "http://www.w3.org/Graphics/SVG/1.1/DTD/svg11.dtd">
<!-- Generated by graphviz version 2.26.3 (20100126.1600)
 -->
<!-- Title: World::addZone Pages: 1 -->
<svg width="240pt" height="70pt"
 viewBox="0.00 0.00 240.00 70.00" xmlns="http://www.w3.org/2000/svg" xmlns:xlink="http://www.w3.org/1999/xlink">
<g id="graph1" class="graph" transform="scale(1 1) rotate(0) translate(4 66)">
<title>World::addZone</title>
<polygon fill="white" stroke="white" points="-4,5 -4,-66 237,-66 237,5 -4,5"/>
<!-- Node1 -->
<g id="node1" class="node"><title>Node1</title>
<polygon fill="#bfbfbf" stroke="black" points="0,-20.5 0,-41.5 86,-41.5 86,-20.5 0,-20.5"/>
<text text-anchor="middle" x="43" y="-28.5" font-family="Helvetica,sans-Serif" font-size="10.00">World::addZone</text>
</g>
<!-- Node2 -->
<g id="node3" class="node"><title>Node2</title>
<a xlink:href="class_viewport.html#a747eb6bce25dd9d205f3e5b99817d5cd" target="_top" xlink:title="Viewport::initializeGL">
<polygon fill="white" stroke="black" points="122.5,-40.5 122.5,-61.5 231.5,-61.5 231.5,-40.5 122.5,-40.5"/>
<text text-anchor="middle" x="177" y="-48.5" font-family="Helvetica,sans-Serif" font-size="10.00">Viewport::initializeGL</text>
</a>
</g>
<!-- Node1&#45;&gt;Node2 -->
<g id="edge2" class="edge"><title>Node1&#45;&gt;Node2</title>
<path fill="none" stroke="midnightblue" d="M96.0382,-38.9162C104.629,-40.1984 113.541,-41.5285 122.174,-42.817"/>
<polygon fill="midnightblue" stroke="midnightblue" points="96.5432,-35.4528 86.136,-37.4382 95.5098,-42.3761 96.5432,-35.4528"/>
</g>
<!-- Node3 -->
<g id="node5" class="node"><title>Node3</title>
<a xlink:href="class_viewport.html#ab6bea61fac9caf74cf37fe91861b42e3" target="_top" xlink:title="Viewport::clearLevel">
<polygon fill="white" stroke="black" points="124.5,-0.5 124.5,-21.5 229.5,-21.5 229.5,-0.5 124.5,-0.5"/>
<text text-anchor="middle" x="177" y="-8.5" font-family="Helvetica,sans-Serif" font-size="10.00">Viewport::clearLevel</text>
</a>
</g>
<!-- Node1&#45;&gt;Node3 -->
<g id="edge4" class="edge"><title>Node1&#45;&gt;Node3</title>
<path fill="none" stroke="midnightblue" d="M96.2811,-23.0476C105.435,-21.6813 114.946,-20.2617 124.091,-18.8969"/>
<polygon fill="midnightblue" stroke="midnightblue" points="95.5098,-19.6239 86.136,-24.5618 96.5432,-26.5472 95.5098,-19.6239"/>
</g>
</g>
</svg>
