<?xml version="1.0" encoding="UTF-8" standalone="no"?>
<!DOCTYPE svg PUBLIC "-//W3C//DTD SVG 1.1//EN"
 "http://www.w3.org/Graphics/SVG/1.1/DTD/svg11.dtd">
<!-- Generated by graphviz version 2.26.3 (20100126.1600)
 -->
<!-- Title: Actor Pages: 1 -->
<!--zoomable 447 -->
<svg id="main" version="1.1" xmlns="http://www.w3.org/2000/svg" xmlns:xlink="http://www.w3.org/1999/xlink" xml:space="preserve" onload="init(evt)">
<style type="text/css"><![CDATA[
.edge:hover path { stroke: red; }
.edge:hover polygon { stroke: red; fill: red; }
]]></style>
<script type="text/javascript"><![CDATA[
var edges = document.getElementsByTagName('g');
if (edges && edges.length) {
  for (var i=0;i<edges.length;i++) {
    if (edges[i].id.substr(0,4)=='edge') {
      edges[i].setAttribute('class','edge');
    }
  }
}
]]></script>
        <defs>
                <circle id="rim" cx="0" cy="0" r="7"/>
                <circle id="rim2" cx="0" cy="0" r="3.5"/>
                <g id="zoomPlus">
                        <use xlink:href="#rim" fill="#404040">
                                <set attributeName="fill" to="#808080" begin="zoomplus.mouseover" end="zoomplus.mouseout"/>
                        </use>
                        <path d="M-4,0h8M0,-4v8" fill="none" stroke="white" stroke-width="1.5" pointer-events="none"/>
                </g>
                <g id="zoomMin">
                        <use xlink:href="#rim" fill="#404040">
                                <set attributeName="fill" to="#808080" begin="zoomminus.mouseover" end="zoomminus.mouseout"/>
                        </use>
                        <path d="M-4,0h8" fill="none" stroke="white" stroke-width="1.5" pointer-events="none"/>
                </g>
                <g id="dirArrow">
                        <path fill="none" stroke="white" stroke-width="1.5" d="M0,-3.0v7 M-2.5,-0.5L0,-3.0L2.5,-0.5"/>
                </g>
               <g id="resetDef">
                       <use xlink:href="#rim2" fill="#404040">
                               <set attributeName="fill" to="#808080" begin="reset.mouseover" end="reset.mouseout"/>
                       </use>
               </g>
        </defs>

<script type="text/javascript">
var viewWidth = 690;
var viewHeight = 447;
var sectionId = 'dynsection-0';
</script>
<script xlink:href="svgpan.js"/>
<svg id="graph" class="graph">
<g id="viewport">
<title>Actor</title>
<polygon fill="white" stroke="white" points="-4,5 -4,-443 687,-443 687,5 -4,5"/>
<!-- Node1 -->
<g id="node1" class="node"><title>Node1</title>
<polygon fill="#bfbfbf" stroke="black" points="92,-85.5 92,-106.5 132,-106.5 132,-85.5 92,-85.5"/>
<text text-anchor="middle" x="112" y="-93.5" font-family="Helvetica,sans-Serif" font-size="10.00">Actor</text>
</g>
<!-- Node3 -->
<g id="node5" class="node"><title>Node3</title>
<a xlink:href="class_geo_base.html" target="_top" xlink:title="Base pour la classe Geometry. ">
<polygon fill="white" stroke="black" points="170.5,-192.5 170.5,-213.5 227.5,-213.5 227.5,-192.5 170.5,-192.5"/>
<text text-anchor="middle" x="199" y="-200.5" font-family="Helvetica,sans-Serif" font-size="10.00">GeoBase</text>
</a>
</g>
<!-- Node1&#45;&gt;Node3 -->
<g id="edge4" class="edge"><title>Node1&#45;&gt;Node3</title>
<path fill="none" stroke="midnightblue" d="M127.029,-114.484C145.327,-136.989 175.613,-174.236 190.375,-192.392"/>
<polygon fill="midnightblue" stroke="midnightblue" points="129.684,-112.202 120.66,-106.651 124.253,-116.618 129.684,-112.202"/>
</g>
<!-- Node19 -->
<g id="node44" class="node"><title>Node19</title>
<a xlink:href="class_group.html" target="_top" xlink:title="Groupe de geometries. ">
<polygon fill="white" stroke="black" points="177.5,-85.5 177.5,-106.5 220.5,-106.5 220.5,-85.5 177.5,-85.5"/>
<text text-anchor="middle" x="199" y="-93.5" font-family="Helvetica,sans-Serif" font-size="10.00">Group</text>
</a>
</g>
<!-- Node1&#45;&gt;Node19 -->
<g id="edge50" class="edge"><title>Node1&#45;&gt;Node19</title>
<path fill="none" stroke="midnightblue" d="M142.308,-96C153.875,-96 166.816,-96 177.411,-96"/>
<polygon fill="midnightblue" stroke="midnightblue" points="142.178,-92.5001 132.178,-96 142.178,-99.5001 142.178,-92.5001"/>
</g>
<!-- Node20 -->
<g id="node46" class="node"><title>Node20</title>
<a xlink:href="class_light.html" target="_top" xlink:title="Light">
<polygon fill="white" stroke="black" points="180,-15.5 180,-36.5 218,-36.5 218,-15.5 180,-15.5"/>
<text text-anchor="middle" x="199" y="-23.5" font-family="Helvetica,sans-Serif" font-size="10.00">Light</text>
</a>
</g>
<!-- Node1&#45;&gt;Node20 -->
<g id="edge52" class="edge"><title>Node1&#45;&gt;Node20</title>
<path fill="none" stroke="midnightblue" d="M133.22,-78.9262C149.693,-65.672 172.005,-47.7197 185.947,-36.5022"/>
<polygon fill="midnightblue" stroke="midnightblue" points="130.811,-76.3728 125.213,-85.3685 135.199,-81.8266 130.811,-76.3728"/>
</g>
<!-- Node2 -->
<g id="node2" class="node"><title>Node2</title>
<a xlink:href="class_q_object.html" target="_top" xlink:title="QObject">
<polygon fill="white" stroke="black" points="0.5,-85.5 0.5,-106.5 53.5,-106.5 53.5,-85.5 0.5,-85.5"/>
<text text-anchor="middle" x="27" y="-93.5" font-family="Helvetica,sans-Serif" font-size="10.00">QObject</text>
</a>
</g>
<!-- Node2&#45;&gt;Node1 -->
<g id="edge2" class="edge"><title>Node2&#45;&gt;Node1</title>
<path fill="none" stroke="midnightblue" d="M63.9944,-96C73.5235,-96 83.4281,-96 91.7484,-96"/>
<polygon fill="midnightblue" stroke="midnightblue" points="63.8946,-92.5001 53.8945,-96 63.8945,-99.5001 63.8946,-92.5001"/>
</g>
<!-- Node4 -->
<g id="node7" class="node"><title>Node4</title>
<a xlink:href="class_geometry.html" target="_top" xlink:title="Base de toutes les géometries. ">
<polygon fill="white" stroke="black" points="266,-250.5 266,-271.5 366,-271.5 366,-250.5 266,-250.5"/>
<text text-anchor="middle" x="316" y="-258.5" font-family="Helvetica,sans-Serif" font-size="10.00">Geometry&lt; Child &gt;</text>
</a>
</g>
<!-- Node3&#45;&gt;Node4 -->
<g id="edge6" class="edge"><title>Node3&#45;&gt;Node4</title>
<path fill="none" stroke="midnightblue" d="M229.396,-218.068C249.848,-228.207 276.311,-241.325 294.574,-250.379"/>
<polygon fill="midnightblue" stroke="midnightblue" points="230.702,-214.809 220.188,-213.503 227.593,-221.081 230.702,-214.809"/>
</g>
<!-- Node5 -->
<g id="node9" class="node"><title>Node5</title>
<a xlink:href="class_geometry.html" target="_top" xlink:title="Geometry\&lt; Cube \&gt;">
<polygon fill="white" stroke="black" points="475.5,-247.5 475.5,-268.5 576.5,-268.5 576.5,-247.5 475.5,-247.5"/>
<text text-anchor="middle" x="526" y="-255.5" font-family="Helvetica,sans-Serif" font-size="10.00">Geometry&lt; Cube &gt;</text>
</a>
</g>
<!-- Node3&#45;&gt;Node5 -->
<g id="edge36" class="edge"><title>Node3&#45;&gt;Node5</title>
<path fill="none" stroke="midnightblue" d="M237.629,-200.167C287.291,-197.65 375.735,-196.995 448,-217 471.296,-223.449 495.547,-237.555 510.701,-247.41"/>
<polygon fill="midnightblue" stroke="midnightblue" points="237.429,-196.672 227.64,-200.725 237.82,-203.661 237.429,-196.672"/>
</g>
<!-- Node7 -->
<g id="node13" class="node"><title>Node7</title>
<a xlink:href="class_geometry.html" target="_top" xlink:title="Geometry\&lt; Line \&gt;">
<polygon fill="white" stroke="black" points="478.5,-184.5 478.5,-205.5 573.5,-205.5 573.5,-184.5 478.5,-184.5"/>
<text text-anchor="middle" x="526" y="-192.5" font-family="Helvetica,sans-Serif" font-size="10.00">Geometry&lt; Line &gt;</text>
</a>
</g>
<!-- Node3&#45;&gt;Node7 -->
<g id="edge40" class="edge"><title>Node3&#45;&gt;Node7</title>
<path fill="none" stroke="midnightblue" d="M236.249,-189.156C285.052,-172.85 373.217,-149.684 448,-164 468.323,-167.891 490.099,-177.003 505.463,-184.347"/>
<polygon fill="midnightblue" stroke="midnightblue" points="235.066,-185.862 226.741,-192.414 237.335,-192.484 235.066,-185.862"/>
</g>
<!-- Node9 -->
<g id="node17" class="node"><title>Node9</title>
<a xlink:href="class_geometry.html" target="_top" xlink:title="Geometry\&lt; Rect \&gt;">
<polygon fill="white" stroke="black" points="477,-122.5 477,-143.5 575,-143.5 575,-122.5 477,-122.5"/>
<text text-anchor="middle" x="526" y="-130.5" font-family="Helvetica,sans-Serif" font-size="10.00">Geometry&lt; Rect &gt;</text>
</a>
</g>
<!-- Node3&#45;&gt;Node9 -->
<g id="edge44" class="edge"><title>Node3&#45;&gt;Node9</title>
<path fill="none" stroke="midnightblue" d="M220.893,-186.402C254.029,-162.553 319.873,-120.026 384,-107 411.875,-101.338 419.923,-102.444 448,-107 466.317,-109.972 486.145,-116.631 501.226,-122.465"/>
<polygon fill="midnightblue" stroke="midnightblue" points="218.82,-183.583 212.818,-192.314 222.955,-189.231 218.82,-183.583"/>
</g>
<!-- Node11 -->
<g id="node21" class="node"><title>Node11</title>
<a xlink:href="class_geometry.html" target="_top" xlink:title="Geometry\&lt; Sphere \&gt;">
<polygon fill="white" stroke="black" points="472,-72.5 472,-93.5 580,-93.5 580,-72.5 472,-72.5"/>
<text text-anchor="middle" x="526" y="-80.5" font-family="Helvetica,sans-Serif" font-size="10.00">Geometry&lt; Sphere &gt;</text>
</a>
</g>
<!-- Node3&#45;&gt;Node11 -->
<g id="edge46" class="edge"><title>Node3&#45;&gt;Node11</title>
<path fill="none" stroke="midnightblue" d="M206.803,-182.948C216.798,-160.246 236.443,-124.19 266,-107 329.383,-70.1383 416.467,-70.2765 471.998,-75.3747"/>
<polygon fill="midnightblue" stroke="midnightblue" points="203.512,-181.746 202.888,-192.323 209.971,-184.444 203.512,-181.746"/>
</g>
<!-- Node13 -->
<g id="node25" class="node"><title>Node13</title>
<a xlink:href="class_geometry.html" target="_top" xlink:title="Geometry\&lt; Cylinder \&gt;">
<polygon fill="white" stroke="black" points="469.5,-307.5 469.5,-328.5 582.5,-328.5 582.5,-307.5 469.5,-307.5"/>
<text text-anchor="middle" x="526" y="-315.5" font-family="Helvetica,sans-Serif" font-size="10.00">Geometry&lt; Cylinder &gt;</text>
</a>
</g>
<!-- Node3&#45;&gt;Node13 -->
<g id="edge38" class="edge"><title>Node3&#45;&gt;Node13</title>
<path fill="none" stroke="midnightblue" d="M212.76,-222.02C240.295,-258.085 306.248,-334.876 384,-358 411.264,-366.109 420.35,-364.676 448,-358 471.373,-352.356 495.607,-338.442 510.736,-328.616"/>
<polygon fill="midnightblue" stroke="midnightblue" points="215.395,-219.699 206.603,-213.786 209.788,-223.89 215.395,-219.699"/>
</g>
<!-- Node15 -->
<g id="node29" class="node"><title>Node15</title>
<a xlink:href="class_geometry.html" target="_top" xlink:title="Geometry\&lt; Pyramide \&gt;">
<polygon fill="white" stroke="black" points="466.5,-367.5 466.5,-388.5 585.5,-388.5 585.5,-367.5 466.5,-367.5"/>
<text text-anchor="middle" x="526" y="-375.5" font-family="Helvetica,sans-Serif" font-size="10.00">Geometry&lt; Pyramide &gt;</text>
</a>
</g>
<!-- Node3&#45;&gt;Node15 -->
<g id="edge42" class="edge"><title>Node3&#45;&gt;Node15</title>
<path fill="none" stroke="midnightblue" d="M206.186,-222.88C216.467,-249.408 237.346,-296.88 266,-330 308.459,-379.077 322.296,-395.901 384,-416 411.046,-424.81 420.283,-422.392 448,-416 451.046,-415.298 482.938,-399.528 504.986,-388.527"/>
<polygon fill="midnightblue" stroke="midnightblue" points="209.456,-221.632 202.658,-213.505 202.904,-224.097 209.456,-221.632"/>
</g>
<!-- Node17 -->
<g id="node33" class="node"><title>Node17</title>
<a xlink:href="class_geometry.html" target="_top" xlink:title="Geometry\&lt; Trigger \&gt;">
<polygon fill="white" stroke="black" points="472.5,-417.5 472.5,-438.5 579.5,-438.5 579.5,-417.5 472.5,-417.5"/>
<text text-anchor="middle" x="526" y="-425.5" font-family="Helvetica,sans-Serif" font-size="10.00">Geometry&lt; Trigger &gt;</text>
</a>
</g>
<!-- Node3&#45;&gt;Node17 -->
<g id="edge48" class="edge"><title>Node3&#45;&gt;Node17</title>
<path fill="none" stroke="midnightblue" d="M201.347,-223.971C206.526,-260.804 222.181,-337.517 266,-383 318.92,-437.929 412.985,-440.443 472.288,-435.487"/>
<polygon fill="midnightblue" stroke="midnightblue" points="204.799,-223.373 200.056,-213.899 197.856,-224.263 204.799,-223.373"/>
</g>
<!-- Node4&#45;&gt;Node5 -->
<g id="edge8" class="edge"><title>Node4&#45;&gt;Node5</title>
<path fill="none" stroke="orange" stroke-dasharray="5,2" d="M376.379,-260.137C407.68,-259.69 445.482,-259.15 475.257,-258.725"/>
<polygon fill="orange" stroke="orange" points="375.982,-256.643 366.033,-260.285 376.082,-263.642 375.982,-256.643"/>
<text text-anchor="middle" x="416" y="-263" font-family="Helvetica,sans-Serif" font-size="10.00"> &lt; Cube &gt;</text>
</g>
<!-- Node4&#45;&gt;Node7 -->
<g id="edge12" class="edge"><title>Node4&#45;&gt;Node7</title>
<path fill="none" stroke="orange" stroke-dasharray="5,2" d="M359.36,-247.373C398.816,-234.972 456.25,-216.921 492.344,-205.578"/>
<polygon fill="orange" stroke="orange" points="358.231,-244.059 349.74,-250.396 360.329,-250.737 358.231,-244.059"/>
<text text-anchor="middle" x="416" y="-241" font-family="Helvetica,sans-Serif" font-size="10.00"> &lt; Line &gt;</text>
</g>
<!-- Node4&#45;&gt;Node9 -->
<g id="edge16" class="edge"><title>Node4&#45;&gt;Node9</title>
<path fill="none" stroke="orange" stroke-dasharray="5,2" d="M334.303,-243.192C347.452,-230.967 365.968,-214.868 384,-203 422.112,-177.916 470.504,-155.93 499.82,-143.571"/>
<polygon fill="orange" stroke="orange" points="331.721,-240.817 326.862,-250.232 336.532,-245.902 331.721,-240.817"/>
<text text-anchor="middle" x="416" y="-207" font-family="Helvetica,sans-Serif" font-size="10.00"> &lt; Rect &gt;</text>
</g>
<!-- Node4&#45;&gt;Node11 -->
<g id="edge20" class="edge"><title>Node4&#45;&gt;Node11</title>
<path fill="none" stroke="orange" stroke-dasharray="5,2" d="M324.136,-240.999C334.784,-216.94 355.501,-176.6 384,-151 415.112,-123.053 459.757,-104.222 490.645,-93.5936"/>
<polygon fill="orange" stroke="orange" points="320.905,-239.652 320.195,-250.223 327.342,-242.402 320.905,-239.652"/>
<text text-anchor="middle" x="416" y="-155" font-family="Helvetica,sans-Serif" font-size="10.00"> &lt; Sphere &gt;</text>
</g>
<!-- Node4&#45;&gt;Node13 -->
<g id="edge24" class="edge"><title>Node4&#45;&gt;Node13</title>
<path fill="none" stroke="orange" stroke-dasharray="5,2" d="M365.131,-274.335C402.352,-284.438 452.789,-298.128 487.202,-307.469"/>
<polygon fill="orange" stroke="orange" points="365.575,-270.829 355.007,-271.588 363.741,-277.585 365.575,-270.829"/>
<text text-anchor="middle" x="416" y="-300" font-family="Helvetica,sans-Serif" font-size="10.00"> &lt; Cylinder &gt;</text>
</g>
<!-- Node4&#45;&gt;Node15 -->
<g id="edge28" class="edge"><title>Node4&#45;&gt;Node15</title>
<path fill="none" stroke="orange" stroke-dasharray="5,2" d="M336.307,-278.453C349.394,-289.204 367.071,-302.828 384,-313 421.765,-335.692 468.802,-355.766 498.123,-367.403"/>
<polygon fill="orange" stroke="orange" points="338.343,-275.593 328.424,-271.869 333.855,-280.966 338.343,-275.593"/>
<text text-anchor="middle" x="416" y="-348" font-family="Helvetica,sans-Serif" font-size="10.00"> &lt; Pyramide &gt;</text>
</g>
<!-- Node4&#45;&gt;Node17 -->
<g id="edge32" class="edge"><title>Node4&#45;&gt;Node17</title>
<path fill="none" stroke="orange" stroke-dasharray="5,2" d="M325.379,-280.794C336.656,-302.818 357.428,-338.288 384,-361 415.807,-388.187 460.524,-406.859 491.233,-417.453"/>
<polygon fill="orange" stroke="orange" points="328.456,-279.12 320.88,-271.714 322.184,-282.228 328.456,-279.12"/>
<text text-anchor="middle" x="416" y="-403" font-family="Helvetica,sans-Serif" font-size="10.00"> &lt; Trigger &gt;</text>
</g>
<!-- Node6 -->
<g id="node11" class="node"><title>Node6</title>
<a xlink:href="class_cube.html" target="_top" xlink:title="Un simple cube. ">
<polygon fill="white" stroke="black" points="633,-247.5 633,-268.5 673,-268.5 673,-247.5 633,-247.5"/>
<text text-anchor="middle" x="653" y="-255.5" font-family="Helvetica,sans-Serif" font-size="10.00">Cube</text>
</a>
</g>
<!-- Node5&#45;&gt;Node6 -->
<g id="edge10" class="edge"><title>Node5&#45;&gt;Node6</title>
<path fill="none" stroke="midnightblue" d="M586.801,-258C603.366,-258 620.176,-258 632.712,-258"/>
<polygon fill="midnightblue" stroke="midnightblue" points="586.559,-254.5 576.559,-258 586.559,-261.5 586.559,-254.5"/>
</g>
<!-- Node8 -->
<g id="node15" class="node"><title>Node8</title>
<a xlink:href="class_line.html" target="_top" xlink:title="Line">
<polygon fill="white" stroke="black" points="635.5,-184.5 635.5,-205.5 670.5,-205.5 670.5,-184.5 635.5,-184.5"/>
<text text-anchor="middle" x="653" y="-192.5" font-family="Helvetica,sans-Serif" font-size="10.00">Line</text>
</a>
</g>
<!-- Node7&#45;&gt;Node8 -->
<g id="edge14" class="edge"><title>Node7&#45;&gt;Node8</title>
<path fill="none" stroke="midnightblue" d="M583.896,-195C602.531,-195 621.815,-195 635.261,-195"/>
<polygon fill="midnightblue" stroke="midnightblue" points="583.651,-191.5 573.651,-195 583.651,-198.5 583.651,-191.5"/>
</g>
<!-- Node10 -->
<g id="node19" class="node"><title>Node10</title>
<a xlink:href="class_rect.html" target="_top" xlink:title="Rect">
<polygon fill="white" stroke="black" points="634,-122.5 634,-143.5 672,-143.5 672,-122.5 634,-122.5"/>
<text text-anchor="middle" x="653" y="-130.5" font-family="Helvetica,sans-Serif" font-size="10.00">Rect</text>
</a>
</g>
<!-- Node9&#45;&gt;Node10 -->
<g id="edge18" class="edge"><title>Node9&#45;&gt;Node10</title>
<path fill="none" stroke="midnightblue" d="M585.332,-133C602.861,-133 620.814,-133 633.82,-133"/>
<polygon fill="midnightblue" stroke="midnightblue" points="585.102,-129.5 575.102,-133 585.101,-136.5 585.102,-129.5"/>
</g>
<!-- Node12 -->
<g id="node23" class="node"><title>Node12</title>
<a xlink:href="class_sphere.html" target="_top" xlink:title="Une simple sphere. ">
<polygon fill="white" stroke="black" points="629.5,-72.5 629.5,-93.5 676.5,-93.5 676.5,-72.5 629.5,-72.5"/>
<text text-anchor="middle" x="653" y="-80.5" font-family="Helvetica,sans-Serif" font-size="10.00">Sphere</text>
</a>
</g>
<!-- Node11&#45;&gt;Node12 -->
<g id="edge22" class="edge"><title>Node11&#45;&gt;Node12</title>
<path fill="none" stroke="midnightblue" d="M590.329,-83C604.24,-83 618.098,-83 629.232,-83"/>
<polygon fill="midnightblue" stroke="midnightblue" points="590.228,-79.5001 580.228,-83 590.228,-86.5001 590.228,-79.5001"/>
</g>
<!-- Node14 -->
<g id="node27" class="node"><title>Node14</title>
<a xlink:href="class_cylinder.html" target="_top" xlink:title="Cylinder">
<polygon fill="white" stroke="black" points="626.5,-307.5 626.5,-328.5 679.5,-328.5 679.5,-307.5 626.5,-307.5"/>
<text text-anchor="middle" x="653" y="-315.5" font-family="Helvetica,sans-Serif" font-size="10.00">Cylinder</text>
</a>
</g>
<!-- Node13&#45;&gt;Node14 -->
<g id="edge26" class="edge"><title>Node13&#45;&gt;Node14</title>
<path fill="none" stroke="midnightblue" d="M592.819,-318C604.731,-318 616.487,-318 626.403,-318"/>
<polygon fill="midnightblue" stroke="midnightblue" points="592.814,-314.5 582.814,-318 592.814,-321.5 592.814,-314.5"/>
</g>
<!-- Node16 -->
<g id="node31" class="node"><title>Node16</title>
<a xlink:href="class_pyramide.html" target="_top" xlink:title="Pyramide">
<polygon fill="white" stroke="black" points="624,-367.5 624,-388.5 682,-388.5 682,-367.5 624,-367.5"/>
<text text-anchor="middle" x="653" y="-375.5" font-family="Helvetica,sans-Serif" font-size="10.00">Pyramide</text>
</a>
</g>
<!-- Node15&#45;&gt;Node16 -->
<g id="edge30" class="edge"><title>Node15&#45;&gt;Node16</title>
<path fill="none" stroke="midnightblue" d="M596.035,-378C605.84,-378 615.435,-378 623.871,-378"/>
<polygon fill="midnightblue" stroke="midnightblue" points="595.781,-374.5 585.781,-378 595.781,-381.5 595.781,-374.5"/>
</g>
<!-- Node18 -->
<g id="node35" class="node"><title>Node18</title>
<a xlink:href="class_trigger.html" target="_top" xlink:title="Trigger">
<polygon fill="white" stroke="black" points="629.5,-417.5 629.5,-438.5 676.5,-438.5 676.5,-417.5 629.5,-417.5"/>
<text text-anchor="middle" x="653" y="-425.5" font-family="Helvetica,sans-Serif" font-size="10.00">Trigger</text>
</a>
</g>
<!-- Node17&#45;&gt;Node18 -->
<g id="edge34" class="edge"><title>Node17&#45;&gt;Node18</title>
<path fill="none" stroke="midnightblue" d="M590.073,-428C604.144,-428 618.178,-428 629.41,-428"/>
<polygon fill="midnightblue" stroke="midnightblue" points="589.859,-424.5 579.859,-428 589.859,-431.5 589.859,-424.5"/>
</g>
<!-- Node21 -->
<g id="node48" class="node"><title>Node21</title>
<a xlink:href="class_spotlight.html" target="_top" xlink:title="Spotlight">
<polygon fill="white" stroke="black" points="288.5,-0.5 288.5,-21.5 343.5,-21.5 343.5,-0.5 288.5,-0.5"/>
<text text-anchor="middle" x="316" y="-8.5" font-family="Helvetica,sans-Serif" font-size="10.00">Spotlight</text>
</a>
</g>
<!-- Node20&#45;&gt;Node21 -->
<g id="edge54" class="edge"><title>Node20&#45;&gt;Node21</title>
<path fill="none" stroke="midnightblue" d="M228.19,-22.2577C246.554,-19.9033 270.115,-16.8827 288.207,-14.5633"/>
<polygon fill="midnightblue" stroke="midnightblue" points="227.532,-18.8133 218.058,-23.5566 228.422,-25.7565 227.532,-18.8133"/>
</g>
</g>
</svg>
        <g id="navigator" transform="translate(0 0)" fill="#404254">
                <rect fill="#f2f5e9" fill-opacity="0.5" stroke="#606060" stroke-width=".5" x="0" y="0" width="60" height="60"/>
                <use id="zoomplus" xlink:href="#zoomPlus" x="17" y="9" onmousedown="handleZoom(evt,'in')"/>
                <use id="zoomminus" xlink:href="#zoomMin" x="42" y="9" onmousedown="handleZoom(evt,'out')"/>
                <use id="reset" xlink:href="#resetDef" x="30" y="36" onmousedown="handleReset()"/>
                <g id="arrowUp" xlink:href="#dirArrow" transform="translate(30 24)" onmousedown="handlePan(0,-1)">
                  <use xlink:href="#rim" fill="#404040">
                        <set attributeName="fill" to="#808080" begin="arrowUp.mouseover" end="arrowUp.mouseout"/>
                  </use>
                  <path fill="none" stroke="white" stroke-width="1.5" d="M0,-3.0v7 M-2.5,-0.5L0,-3.0L2.5,-0.5"/>
                </g>
                <g id="arrowRight" xlink:href="#dirArrow" transform="rotate(90) translate(36 -43)" onmousedown="handlePan(1,0)">
                  <use xlink:href="#rim" fill="#404040">
                        <set attributeName="fill" to="#808080" begin="arrowRight.mouseover" end="arrowRight.mouseout"/>
                  </use>
                  <path fill="none" stroke="white" stroke-width="1.5" d="M0,-3.0v7 M-2.5,-0.5L0,-3.0L2.5,-0.5"/>
                </g>
                <g id="arrowDown" xlink:href="#dirArrow" transform="rotate(180) translate(-30 -48)" onmousedown="handlePan(0,1)">
                  <use xlink:href="#rim" fill="#404040">
                        <set attributeName="fill" to="#808080" begin="arrowDown.mouseover" end="arrowDown.mouseout"/>
                  </use>
                  <path fill="none" stroke="white" stroke-width="1.5" d="M0,-3.0v7 M-2.5,-0.5L0,-3.0L2.5,-0.5"/>
                </g>
                <g id="arrowLeft" xlink:href="#dirArrow" transform="rotate(270) translate(-36 17)" onmousedown="handlePan(-1,0)">
                  <use xlink:href="#rim" fill="#404040">
                        <set attributeName="fill" to="#808080" begin="arrowLeft.mouseover" end="arrowLeft.mouseout"/>
                  </use>
                  <path fill="none" stroke="white" stroke-width="1.5" d="M0,-3.0v7 M-2.5,-0.5L0,-3.0L2.5,-0.5"/>
                </g>
        </g>
        <svg viewBox="0 0 15 15" width="100%" height="30px" preserveAspectRatio="xMaxYMin meet">
         <g id="arrow_out" transform="scale(0.3 0.3)">
          <a xlink:href="class_actor__inherit__graph_org.svg" target="_base">
           <rect id="button" ry="5" rx="5" y="6" x="6" height="38" width="38"
                fill="#f2f5e9" fill-opacity="0.5" stroke="#606060" stroke-width="1.0"/>
           <path id="arrow"
             d="M 11.500037,31.436501 C 11.940474,20.09759 22.043105,11.32322 32.158766,21.979434 L 37.068811,17.246167 C 37.068811,17.246167 37.088388,32 37.088388,32 L 22.160133,31.978069 C 22.160133,31.978069 26.997745,27.140456 26.997745,27.140456 C 18.528582,18.264221 13.291696,25.230495 11.500037,31.436501 z"
             style="fill:#404040;"/>
          </a>
         </g>
        </svg>
</svg>
