<?xml version="1.0" encoding="UTF-8" standalone="no"?>
<!DOCTYPE svg PUBLIC "-//W3C//DTD SVG 1.1//EN"
 "http://www.w3.org/Graphics/SVG/1.1/DTD/svg11.dtd">
<!-- Generated by graphviz version 2.26.3 (20100126.1600)
 -->
<!-- Title: Actor::scaled Pages: 1 -->
<svg width="488pt" height="150pt"
 viewBox="0.00 0.00 488.00 150.00" xmlns="http://www.w3.org/2000/svg" xmlns:xlink="http://www.w3.org/1999/xlink">
<g id="graph1" class="graph" transform="scale(1 1) rotate(0) translate(4 146)">
<title>Actor::scaled</title>
<polygon fill="white" stroke="white" points="-4,5 -4,-146 485,-146 485,5 -4,5"/>
<!-- Node1 -->
<g id="node1" class="node"><title>Node1</title>
<polygon fill="#bfbfbf" stroke="black" points="0,-60.5 0,-81.5 74,-81.5 74,-60.5 0,-60.5"/>
<text text-anchor="middle" x="37" y="-68.5" font-family="Helvetica,sans-Serif" font-size="10.00">Actor::scaled</text>
</g>
<!-- Node2 -->
<g id="node3" class="node"><title>Node2</title>
<a xlink:href="class_actor.html#a422d0d3c1e343e794357669a34bb59e1" target="_top" xlink:title="Actor::setParent">
<polygon fill="white" stroke="black" points="110,-60.5 110,-81.5 198,-81.5 198,-60.5 110,-60.5"/>
<text text-anchor="middle" x="154" y="-68.5" font-family="Helvetica,sans-Serif" font-size="10.00">Actor::setParent</text>
</a>
</g>
<!-- Node1&#45;&gt;Node2 -->
<g id="edge2" class="edge"><title>Node1&#45;&gt;Node2</title>
<path fill="none" stroke="midnightblue" d="M84.1544,-71C92.6392,-71 101.455,-71 109.851,-71"/>
<polygon fill="midnightblue" stroke="midnightblue" points="84.0196,-67.5001 74.0195,-71 84.0195,-74.5001 84.0196,-67.5001"/>
</g>
<!-- Node3 -->
<g id="node5" class="node"><title>Node3</title>
<a xlink:href="class_actor.html#aa0fc674ef09b215b67ff2fff69b79459" target="_top" xlink:title="Actor::Actor">
<polygon fill="white" stroke="black" points="252.5,-120.5 252.5,-141.5 321.5,-141.5 321.5,-120.5 252.5,-120.5"/>
<text text-anchor="middle" x="287" y="-128.5" font-family="Helvetica,sans-Serif" font-size="10.00">Actor::Actor</text>
</a>
</g>
<!-- Node2&#45;&gt;Node3 -->
<g id="edge4" class="edge"><title>Node2&#45;&gt;Node3</title>
<path fill="none" stroke="midnightblue" d="M183.071,-86.4382C198.1,-94.1879 216.844,-103.498 234,-111 241.479,-114.271 249.68,-117.523 257.348,-120.425"/>
<polygon fill="midnightblue" stroke="midnightblue" points="184.271,-83.1174 173.785,-81.6055 181.039,-89.3268 184.271,-83.1174"/>
</g>
<!-- Node4 -->
<g id="node7" class="node"><title>Node4</title>
<a xlink:href="fileloader_8hpp.html#a48efbb80ebceb0d47fc8d9084562f597" target="_top" xlink:title="operator\&gt;\&gt;">
<polygon fill="white" stroke="black" points="255,-80.5 255,-101.5 319,-101.5 319,-80.5 255,-80.5"/>
<text text-anchor="middle" x="287" y="-88.5" font-family="Helvetica,sans-Serif" font-size="10.00">operator&gt;&gt;</text>
</a>
</g>
<!-- Node2&#45;&gt;Node4 -->
<g id="edge6" class="edge"><title>Node2&#45;&gt;Node4</title>
<path fill="none" stroke="midnightblue" d="M208.437,-79.186C224.145,-81.5481 240.782,-84.0499 254.682,-86.1402"/>
<polygon fill="midnightblue" stroke="midnightblue" points="208.696,-75.6857 198.287,-77.6597 207.655,-82.6079 208.696,-75.6857"/>
</g>
<!-- Node5 -->
<g id="node9" class="node"><title>Node5</title>
<a xlink:href="class_geo_base.html#a357c5534b7ac40df29f504c0e988e52e" target="_top" xlink:title="GeoBase::setParent">
<polygon fill="white" stroke="black" points="234.5,-40.5 234.5,-61.5 339.5,-61.5 339.5,-40.5 234.5,-40.5"/>
<text text-anchor="middle" x="287" y="-48.5" font-family="Helvetica,sans-Serif" font-size="10.00">GeoBase::setParent</text>
</a>
</g>
<!-- Node2&#45;&gt;Node5 -->
<g id="edge8" class="edge"><title>Node2&#45;&gt;Node5</title>
<path fill="none" stroke="midnightblue" d="M208.18,-62.8527C216.748,-61.5642 225.599,-60.2333 234.136,-58.9494"/>
<polygon fill="midnightblue" stroke="midnightblue" points="207.655,-59.3921 198.287,-64.3403 208.696,-66.3143 207.655,-59.3921"/>
</g>
<!-- Node7 -->
<g id="node13" class="node"><title>Node7</title>
<a xlink:href="class_light.html#ab89261d1fa4fbbeaa61988502da207d3" target="_top" xlink:title="Light::setParent">
<polygon fill="white" stroke="black" points="244,-0.5 244,-21.5 330,-21.5 330,-0.5 244,-0.5"/>
<text text-anchor="middle" x="287" y="-8.5" font-family="Helvetica,sans-Serif" font-size="10.00">Light::setParent</text>
</a>
</g>
<!-- Node2&#45;&gt;Node7 -->
<g id="edge12" class="edge"><title>Node2&#45;&gt;Node7</title>
<path fill="none" stroke="midnightblue" d="M183.071,-55.5618C198.1,-47.8121 216.844,-38.5024 234,-31 241.479,-27.7294 249.68,-24.4773 257.348,-21.5754"/>
<polygon fill="midnightblue" stroke="midnightblue" points="181.039,-52.6732 173.785,-60.3945 184.271,-58.8826 181.039,-52.6732"/>
</g>
<!-- Node6 -->
<g id="node11" class="node"><title>Node6</title>
<a xlink:href="class_geo_base.html#a64d0302a4d85b1fe7946df7ebfaa2e33" target="_top" xlink:title="GeoBase::GeoBase">
<polygon fill="white" stroke="black" points="376,-40.5 376,-61.5 480,-61.5 480,-40.5 376,-40.5"/>
<text text-anchor="middle" x="428" y="-48.5" font-family="Helvetica,sans-Serif" font-size="10.00">GeoBase::GeoBase</text>
</a>
</g>
<!-- Node5&#45;&gt;Node6 -->
<g id="edge10" class="edge"><title>Node5&#45;&gt;Node6</title>
<path fill="none" stroke="midnightblue" d="M349.686,-51C358.452,-51 367.381,-51 375.922,-51"/>
<polygon fill="midnightblue" stroke="midnightblue" points="349.503,-47.5001 339.503,-51 349.503,-54.5001 349.503,-47.5001"/>
</g>
<!-- Node8 -->
<g id="node15" class="node"><title>Node8</title>
<a xlink:href="class_light.html#a30538cefe47541035db096b75133442d" target="_top" xlink:title="Light::Light">
<polygon fill="white" stroke="black" points="395.5,-0.5 395.5,-21.5 460.5,-21.5 460.5,-0.5 395.5,-0.5"/>
<text text-anchor="middle" x="428" y="-8.5" font-family="Helvetica,sans-Serif" font-size="10.00">Light::Light</text>
</a>
</g>
<!-- Node7&#45;&gt;Node8 -->
<g id="edge14" class="edge"><title>Node7&#45;&gt;Node8</title>
<path fill="none" stroke="midnightblue" d="M340.189,-11C358.782,-11 379.088,-11 395.486,-11"/>
<polygon fill="midnightblue" stroke="midnightblue" points="340.071,-7.5001 330.071,-11 340.071,-14.5001 340.071,-7.5001"/>
</g>
</g>
</svg>
