<?xml version="1.0" encoding="UTF-8" standalone="no"?>
<!DOCTYPE svg PUBLIC "-//W3C//DTD SVG 1.1//EN"
 "http://www.w3.org/Graphics/SVG/1.1/DTD/svg11.dtd">
<!-- Generated by graphviz version 2.26.3 (20100126.1600)
 -->
<!-- Title: Viewport::initializeGL Pages: 1 -->
<svg width="430pt" height="350pt"
 viewBox="0.00 0.00 430.00 350.00" xmlns="http://www.w3.org/2000/svg" xmlns:xlink="http://www.w3.org/1999/xlink">
<g id="graph1" class="graph" transform="scale(1 1) rotate(0) translate(4 346)">
<title>Viewport::initializeGL</title>
<polygon fill="white" stroke="white" points="-4,5 -4,-346 427,-346 427,5 -4,5"/>
<!-- Node1 -->
<g id="node1" class="node"><title>Node1</title>
<polygon fill="#bfbfbf" stroke="black" points="0.5,-160.5 0.5,-181.5 109.5,-181.5 109.5,-160.5 0.5,-160.5"/>
<text text-anchor="middle" x="55" y="-168.5" font-family="Helvetica,sans-Serif" font-size="10.00">Viewport::initializeGL</text>
</g>
<!-- Node2 -->
<g id="node3" class="node"><title>Node2</title>
<a xlink:href="class_viewport.html#a9062192da88f5586fe32758a5943bf30" target="_top" xlink:title="Viewport::showBuffers">
<polygon fill="white" stroke="black" points="146,-320.5 146,-341.5 262,-341.5 262,-320.5 146,-320.5"/>
<text text-anchor="middle" x="204" y="-328.5" font-family="Helvetica,sans-Serif" font-size="10.00">Viewport::showBuffers</text>
</a>
</g>
<!-- Node1&#45;&gt;Node2 -->
<g id="edge2" class="edge"><title>Node1&#45;&gt;Node2</title>
<path fill="none" stroke="midnightblue" d="M59.1235,-181.859C69.5784,-207.966 99.6281,-274.769 146,-311 148.282,-312.783 150.733,-314.413 153.292,-315.902"/>
<polygon fill="midnightblue" stroke="midnightblue" points="151.812,-319.075 162.319,-320.44 154.957,-312.821 151.812,-319.075"/>
</g>
<!-- Node3 -->
<g id="node5" class="node"><title>Node3</title>
<a xlink:href="class_viewport.html#af2943711480a4f79de798913d1d35f4e" target="_top" xlink:title="Viewport::showMaps">
<polygon fill="white" stroke="black" points="150,-280.5 150,-301.5 258,-301.5 258,-280.5 150,-280.5"/>
<text text-anchor="middle" x="204" y="-288.5" font-family="Helvetica,sans-Serif" font-size="10.00">Viewport::showMaps</text>
</a>
</g>
<!-- Node1&#45;&gt;Node3 -->
<g id="edge4" class="edge"><title>Node1&#45;&gt;Node3</title>
<path fill="none" stroke="midnightblue" d="M61.9462,-181.661C75.6543,-201.9 108.162,-246.086 146,-271 148.936,-272.933 152.078,-274.7 155.326,-276.311"/>
<polygon fill="midnightblue" stroke="midnightblue" points="154.11,-279.601 164.67,-280.451 156.945,-273.201 154.11,-279.601"/>
</g>
<!-- Node4 -->
<g id="node7" class="node"><title>Node4</title>
<a xlink:href="class_viewport.html#a13c02ab9dcf9fc9fa0e2031ab1f76642" target="_top" xlink:title="Viewport::ambient">
<polygon fill="white" stroke="black" points="156.5,-240.5 156.5,-261.5 251.5,-261.5 251.5,-240.5 156.5,-240.5"/>
<text text-anchor="middle" x="204" y="-248.5" font-family="Helvetica,sans-Serif" font-size="10.00">Viewport::ambient</text>
</a>
</g>
<!-- Node1&#45;&gt;Node4 -->
<g id="edge6" class="edge"><title>Node1&#45;&gt;Node4</title>
<path fill="none" stroke="midnightblue" d="M68.833,-181.724C86.1185,-194.738 116.968,-216.707 146,-231 150.255,-233.095 154.785,-235.066 159.366,-236.894"/>
<polygon fill="midnightblue" stroke="midnightblue" points="158.174,-240.185 168.766,-240.436 160.642,-233.634 158.174,-240.185"/>
</g>
<!-- Node5 -->
<g id="node9" class="node"><title>Node5</title>
<a xlink:href="class_viewport.html#a4ab9987d64c99b9a4d819b5a2365c9a6" target="_top" xlink:title="Viewport::program">
<polygon fill="white" stroke="black" points="156,-200.5 156,-221.5 252,-221.5 252,-200.5 156,-200.5"/>
<text text-anchor="middle" x="204" y="-208.5" font-family="Helvetica,sans-Serif" font-size="10.00">Viewport::program</text>
</a>
</g>
<!-- Node1&#45;&gt;Node5 -->
<g id="edge8" class="edge"><title>Node1&#45;&gt;Node5</title>
<path fill="none" stroke="midnightblue" d="M94.148,-181.51C112.81,-186.519 135.324,-192.563 155.099,-197.872"/>
<polygon fill="midnightblue" stroke="midnightblue" points="154.29,-201.279 164.855,-200.491 156.105,-194.518 154.29,-201.279"/>
</g>
<!-- Node6 -->
<g id="node11" class="node"><title>Node6</title>
<a xlink:href="class_viewport.html#a21ac795014fc080ab40b39c39c9eab35" target="_top" xlink:title="Viewport::initScene">
<polygon fill="white" stroke="black" points="153.5,-160.5 153.5,-181.5 254.5,-181.5 254.5,-160.5 153.5,-160.5"/>
<text text-anchor="middle" x="204" y="-168.5" font-family="Helvetica,sans-Serif" font-size="10.00">Viewport::initScene</text>
</a>
</g>
<!-- Node1&#45;&gt;Node6 -->
<g id="edge10" class="edge"><title>Node1&#45;&gt;Node6</title>
<path fill="none" stroke="midnightblue" d="M109.636,-171C120.573,-171 132.127,-171 143.256,-171"/>
<polygon fill="midnightblue" stroke="midnightblue" points="143.328,-174.5 153.328,-171 143.328,-167.5 143.328,-174.5"/>
</g>
<!-- Node7 -->
<g id="node13" class="node"><title>Node7</title>
<a xlink:href="class_viewport.html#a6e17a431c26ab8790cb775e583135298" target="_top" xlink:title="Viewport::initQuad">
<polygon fill="white" stroke="black" points="155.5,-120.5 155.5,-141.5 252.5,-141.5 252.5,-120.5 155.5,-120.5"/>
<text text-anchor="middle" x="204" y="-128.5" font-family="Helvetica,sans-Serif" font-size="10.00">Viewport::initQuad</text>
</a>
</g>
<!-- Node1&#45;&gt;Node7 -->
<g id="edge12" class="edge"><title>Node1&#45;&gt;Node7</title>
<path fill="none" stroke="midnightblue" d="M94.148,-160.49C112.81,-155.481 135.324,-149.437 155.099,-144.128"/>
<polygon fill="midnightblue" stroke="midnightblue" points="156.105,-147.482 164.855,-141.509 154.29,-140.721 156.105,-147.482"/>
</g>
<!-- Node8 -->
<g id="node15" class="node"><title>Node8</title>
<a xlink:href="class_viewport.html#a5760eeac13c59b34bd8cc5ba638f9cbd" target="_top" xlink:title="Viewport::catchErrors">
<polygon fill="white" stroke="black" points="148.5,-80.5 148.5,-101.5 259.5,-101.5 259.5,-80.5 148.5,-80.5"/>
<text text-anchor="middle" x="204" y="-88.5" font-family="Helvetica,sans-Serif" font-size="10.00">Viewport::catchErrors</text>
</a>
</g>
<!-- Node1&#45;&gt;Node8 -->
<g id="edge14" class="edge"><title>Node1&#45;&gt;Node8</title>
<path fill="none" stroke="midnightblue" d="M68.833,-160.276C86.1185,-147.262 116.968,-125.293 146,-111 150.255,-108.905 154.785,-106.934 159.366,-105.106"/>
<polygon fill="midnightblue" stroke="midnightblue" points="160.642,-108.366 168.766,-101.564 158.174,-101.815 160.642,-108.366"/>
</g>
<!-- Node9 -->
<g id="node17" class="node"><title>Node9</title>
<a xlink:href="class_world.html#ad705d80a512244721b55c69bccab5653" target="_top" xlink:title="World::addZone">
<polygon fill="white" stroke="black" points="161,-40.5 161,-61.5 247,-61.5 247,-40.5 161,-40.5"/>
<text text-anchor="middle" x="204" y="-48.5" font-family="Helvetica,sans-Serif" font-size="10.00">World::addZone</text>
</a>
</g>
<!-- Node1&#45;&gt;Node9 -->
<g id="edge16" class="edge"><title>Node1&#45;&gt;Node9</title>
<path fill="none" stroke="midnightblue" d="M61.9462,-160.339C75.6543,-140.1 108.162,-95.9136 146,-71 148.936,-69.0671 152.078,-67.3001 155.326,-65.6885"/>
<polygon fill="midnightblue" stroke="midnightblue" points="156.945,-68.7994 164.67,-61.549 154.11,-62.3992 156.945,-68.7994"/>
</g>
<!-- Node11 -->
<g id="node21" class="node"><title>Node11</title>
<a xlink:href="class_viewport.html#a62399e89e032cac31006c5666cc3bbeb" target="_top" xlink:title="Viewport::isInitialized">
<polygon fill="white" stroke="black" points="149,-0.5 149,-21.5 259,-21.5 259,-0.5 149,-0.5"/>
<text text-anchor="middle" x="204" y="-8.5" font-family="Helvetica,sans-Serif" font-size="10.00">Viewport::isInitialized</text>
</a>
</g>
<!-- Node1&#45;&gt;Node11 -->
<g id="edge20" class="edge"><title>Node1&#45;&gt;Node11</title>
<path fill="none" stroke="midnightblue" d="M59.1235,-160.141C69.5784,-134.034 99.6281,-67.2308 146,-31 148.282,-29.2171 150.733,-27.5874 153.292,-26.0983"/>
<polygon fill="midnightblue" stroke="midnightblue" points="154.957,-29.1789 162.319,-21.5596 151.812,-22.925 154.957,-29.1789"/>
</g>
<!-- Node10 -->
<g id="node19" class="node"><title>Node10</title>
<a xlink:href="class_world.html#a3362c1031d93b06f02431705adf3f171" target="_top" xlink:title="World::setCurrentZoneId">
<polygon fill="white" stroke="black" points="298,-40.5 298,-61.5 422,-61.5 422,-40.5 298,-40.5"/>
<text text-anchor="middle" x="360" y="-48.5" font-family="Helvetica,sans-Serif" font-size="10.00">World::setCurrentZoneId</text>
</a>
</g>
<!-- Node9&#45;&gt;Node10 -->
<g id="edge18" class="edge"><title>Node9&#45;&gt;Node10</title>
<path fill="none" stroke="midnightblue" d="M247.041,-51C259.668,-51 273.837,-51 287.759,-51"/>
<polygon fill="midnightblue" stroke="midnightblue" points="287.828,-54.5001 297.828,-51 287.828,-47.5001 287.828,-54.5001"/>
</g>
</g>
</svg>
