<?xml version="1.0" encoding="UTF-8" standalone="no"?>
<!DOCTYPE svg PUBLIC "-//W3C//DTD SVG 1.1//EN"
 "http://www.w3.org/Graphics/SVG/1.1/DTD/svg11.dtd">
<!-- Generated by graphviz version 2.26.3 (20100126.1600)
 -->
<!-- Title: GeoBase::castShadows Pages: 1 -->
<svg width="384pt" height="42pt"
 viewBox="0.00 0.00 384.00 42.00" xmlns="http://www.w3.org/2000/svg" xmlns:xlink="http://www.w3.org/1999/xlink">
<g id="graph1" class="graph" transform="scale(1 1) rotate(0) translate(4 38)">
<title>GeoBase::castShadows</title>
<polygon fill="white" stroke="white" points="-4,5 -4,-38 381,-38 381,5 -4,5"/>
<!-- Node1 -->
<g id="node1" class="node"><title>Node1</title>
<polygon fill="#bfbfbf" stroke="black" points="0,-6.5 0,-27.5 122,-27.5 122,-6.5 0,-6.5"/>
<text text-anchor="middle" x="61" y="-14.5" font-family="Helvetica,sans-Serif" font-size="10.00">GeoBase::castShadows</text>
</g>
<!-- Node2 -->
<g id="node3" class="node"><title>Node2</title>
<a xlink:href="class_geometry.html#a7cb8ea5e505f3933367d7ff9c6439985" target="_top" xlink:title="Geometry\&lt; Trigger \&gt;\l::draw">
<polygon fill="white" stroke="black" points="158.5,-0 158.5,-34 265.5,-34 265.5,-0 158.5,-0"/>
<text text-anchor="start" x="166.5" y="-21" font-family="Helvetica,sans-Serif" font-size="10.00">Geometry&lt; Trigger &gt;</text>
<text text-anchor="middle" x="212" y="-8" font-family="Helvetica,sans-Serif" font-size="10.00">::draw</text>
</a>
</g>
<!-- Node1&#45;&gt;Node2 -->
<g id="edge2" class="edge"><title>Node1&#45;&gt;Node2</title>
<path fill="none" stroke="midnightblue" d="M132.563,-17C141.257,-17 150.021,-17 158.391,-17"/>
<polygon fill="midnightblue" stroke="midnightblue" points="132.418,-13.5001 122.417,-17 132.417,-20.5001 132.418,-13.5001"/>
</g>
<!-- Node3 -->
<g id="node5" class="node"><title>Node3</title>
<a xlink:href="class_trigger.html#ae3e4635086dd4d53bbdedd0b02525daa" target="_top" xlink:title="Trigger::draw">
<polygon fill="white" stroke="black" points="302,-6.5 302,-27.5 376,-27.5 376,-6.5 302,-6.5"/>
<text text-anchor="middle" x="339" y="-14.5" font-family="Helvetica,sans-Serif" font-size="10.00">Trigger::draw</text>
</a>
</g>
<!-- Node2&#45;&gt;Node3 -->
<g id="edge4" class="edge"><title>Node2&#45;&gt;Node3</title>
<path fill="none" stroke="midnightblue" d="M275.913,-17C284.846,-17 293.769,-17 301.973,-17"/>
<polygon fill="midnightblue" stroke="midnightblue" points="275.859,-13.5001 265.859,-17 275.859,-20.5001 275.859,-13.5001"/>
</g>
</g>
</svg>
