<?xml version="1.0" encoding="UTF-8" standalone="no"?>
<!DOCTYPE svg PUBLIC "-//W3C//DTD SVG 1.1//EN"
 "http://www.w3.org/Graphics/SVG/1.1/DTD/svg11.dtd">
<!-- Generated by graphviz version 2.26.3 (20100126.1600)
 -->
<!-- Title: Actor::transform Pages: 1 -->
<svg width="350pt" height="122pt"
 viewBox="0.00 0.00 350.00 122.00" xmlns="http://www.w3.org/2000/svg" xmlns:xlink="http://www.w3.org/1999/xlink">
<g id="graph1" class="graph" transform="scale(1 1) rotate(0) translate(4 118)">
<title>Actor::transform</title>
<polygon fill="white" stroke="white" points="-4,5 -4,-118 347,-118 347,5 -4,5"/>
<!-- Node1 -->
<g id="node1" class="node"><title>Node1</title>
<polygon fill="#bfbfbf" stroke="black" points="0.5,-40.5 0.5,-61.5 87.5,-61.5 87.5,-40.5 0.5,-40.5"/>
<text text-anchor="middle" x="44" y="-48.5" font-family="Helvetica,sans-Serif" font-size="10.00">Actor::transform</text>
</g>
<!-- Node2 -->
<g id="node3" class="node"><title>Node2</title>
<a xlink:href="class_geometry.html#a7cb8ea5e505f3933367d7ff9c6439985" target="_top" xlink:title="Geometry\&lt; Trigger \&gt;\l::draw">
<polygon fill="white" stroke="black" points="124.5,-80 124.5,-114 231.5,-114 231.5,-80 124.5,-80"/>
<text text-anchor="start" x="132.5" y="-101" font-family="Helvetica,sans-Serif" font-size="10.00">Geometry&lt; Trigger &gt;</text>
<text text-anchor="middle" x="178" y="-88" font-family="Helvetica,sans-Serif" font-size="10.00">::draw</text>
</a>
</g>
<!-- Node1&#45;&gt;Node2 -->
<g id="edge2" class="edge"><title>Node1&#45;&gt;Node2</title>
<path fill="none" stroke="midnightblue" d="M84.4243,-64.877C98.2137,-69.6107 113.795,-74.9596 128.232,-79.9155"/>
<polygon fill="midnightblue" stroke="midnightblue" points="85.337,-61.4899 74.7423,-61.5533 83.0641,-68.1106 85.337,-61.4899"/>
</g>
<!-- Node4 -->
<g id="node7" class="node"><title>Node4</title>
<a xlink:href="class_group.html#af8d7df31c5fe4f8e22bd022c8735b6b2" target="_top" xlink:title="Group::draw">
<polygon fill="white" stroke="black" points="143,-40.5 143,-61.5 213,-61.5 213,-40.5 143,-40.5"/>
<text text-anchor="middle" x="178" y="-48.5" font-family="Helvetica,sans-Serif" font-size="10.00">Group::draw</text>
</a>
</g>
<!-- Node1&#45;&gt;Node4 -->
<g id="edge6" class="edge"><title>Node1&#45;&gt;Node4</title>
<path fill="none" stroke="midnightblue" d="M97.7944,-51C112.929,-51 129,-51 142.751,-51"/>
<polygon fill="midnightblue" stroke="midnightblue" points="97.506,-47.5001 87.506,-51 97.5059,-54.5001 97.506,-47.5001"/>
</g>
<!-- Node5 -->
<g id="node9" class="node"><title>Node5</title>
<a xlink:href="class_line.html#a1a11432f5239ebf18316369a400a9893" target="_top" xlink:title="Line::transform">
<polygon fill="white" stroke="black" points="137,-0.5 137,-21.5 219,-21.5 219,-0.5 137,-0.5"/>
<text text-anchor="middle" x="178" y="-8.5" font-family="Helvetica,sans-Serif" font-size="10.00">Line::transform</text>
</a>
</g>
<!-- Node1&#45;&gt;Node5 -->
<g id="edge8" class="edge"><title>Node1&#45;&gt;Node5</title>
<path fill="none" stroke="midnightblue" d="M89.1626,-37.5186C106.575,-32.3208 126.197,-26.4635 142.563,-21.5782"/>
<polygon fill="midnightblue" stroke="midnightblue" points="87.788,-34.2763 79.2069,-40.4905 89.7903,-40.9838 87.788,-34.2763"/>
</g>
<!-- Node3 -->
<g id="node5" class="node"><title>Node3</title>
<a xlink:href="class_trigger.html#ae3e4635086dd4d53bbdedd0b02525daa" target="_top" xlink:title="Trigger::draw">
<polygon fill="white" stroke="black" points="268,-86.5 268,-107.5 342,-107.5 342,-86.5 268,-86.5"/>
<text text-anchor="middle" x="305" y="-94.5" font-family="Helvetica,sans-Serif" font-size="10.00">Trigger::draw</text>
</a>
</g>
<!-- Node2&#45;&gt;Node3 -->
<g id="edge4" class="edge"><title>Node2&#45;&gt;Node3</title>
<path fill="none" stroke="midnightblue" d="M241.913,-97C250.846,-97 259.769,-97 267.973,-97"/>
<polygon fill="midnightblue" stroke="midnightblue" points="241.859,-93.5001 231.859,-97 241.859,-100.5 241.859,-93.5001"/>
</g>
</g>
</svg>
