<?xml version="1.0" encoding="UTF-8" standalone="no"?>
<!DOCTYPE svg PUBLIC "-//W3C//DTD SVG 1.1//EN"
 "http://www.w3.org/Graphics/SVG/1.1/DTD/svg11.dtd">
<!-- Generated by graphviz version 2.26.3 (20100126.1600)
 -->
<!-- Title: Light::getBuffer Pages: 1 -->
<svg width="370pt" height="70pt"
 viewBox="0.00 0.00 370.00 70.00" xmlns="http://www.w3.org/2000/svg" xmlns:xlink="http://www.w3.org/1999/xlink">
<g id="graph1" class="graph" transform="scale(1 1) rotate(0) translate(4 66)">
<title>Light::getBuffer</title>
<polygon fill="white" stroke="white" points="-4,5 -4,-66 367,-66 367,5 -4,5"/>
<!-- Node1 -->
<g id="node1" class="node"><title>Node1</title>
<polygon fill="#bfbfbf" stroke="black" points="0.5,-20.5 0.5,-41.5 83.5,-41.5 83.5,-20.5 0.5,-20.5"/>
<text text-anchor="middle" x="42" y="-28.5" font-family="Helvetica,sans-Serif" font-size="10.00">Light::getBuffer</text>
</g>
<!-- Node2 -->
<g id="node3" class="node"><title>Node2</title>
<a xlink:href="class_viewport.html#a0a6f7525bd53d2a0d5905374042d43ca" target="_top" xlink:title="Viewport::initLight">
<polygon fill="white" stroke="black" points="127.5,-40.5 127.5,-61.5 222.5,-61.5 222.5,-40.5 127.5,-40.5"/>
<text text-anchor="middle" x="175" y="-48.5" font-family="Helvetica,sans-Serif" font-size="10.00">Viewport::initLight</text>
</a>
</g>
<!-- Node1&#45;&gt;Node2 -->
<g id="edge2" class="edge"><title>Node1&#45;&gt;Node2</title>
<path fill="none" stroke="midnightblue" d="M93.7044,-38.7751C104.798,-40.4433 116.47,-42.1985 127.399,-43.842"/>
<polygon fill="midnightblue" stroke="midnightblue" points="94.1264,-35.2993 83.7171,-37.2733 93.0854,-42.2215 94.1264,-35.2993"/>
</g>
<!-- Node3 -->
<g id="node5" class="node"><title>Node3</title>
<a xlink:href="class_viewport.html#ae95938dedc43d6b36f2b85d4a226ffa1" target="_top" xlink:title="Viewport::renderLight">
<polygon fill="white" stroke="black" points="120.5,-0.5 120.5,-21.5 229.5,-21.5 229.5,-0.5 120.5,-0.5"/>
<text text-anchor="middle" x="175" y="-8.5" font-family="Helvetica,sans-Serif" font-size="10.00">Viewport::renderLight</text>
</a>
</g>
<!-- Node1&#45;&gt;Node3 -->
<g id="edge4" class="edge"><title>Node1&#45;&gt;Node3</title>
<path fill="none" stroke="midnightblue" d="M93.7268,-23.2215C102.425,-21.9135 111.478,-20.5521 120.25,-19.2331"/>
<polygon fill="midnightblue" stroke="midnightblue" points="93.0854,-19.7785 83.7171,-24.7267 94.1264,-26.7007 93.0854,-19.7785"/>
</g>
<!-- Node4 -->
<g id="node7" class="node"><title>Node4</title>
<a xlink:href="class_viewport.html#a3c2c4661eac1f6351392b8fe133423f5" target="_top" xlink:title="Viewport::paintGL">
<polygon fill="white" stroke="black" points="266.5,-0.5 266.5,-21.5 361.5,-21.5 361.5,-0.5 266.5,-0.5"/>
<text text-anchor="middle" x="314" y="-8.5" font-family="Helvetica,sans-Serif" font-size="10.00">Viewport::paintGL</text>
</a>
</g>
<!-- Node3&#45;&gt;Node4 -->
<g id="edge6" class="edge"><title>Node3&#45;&gt;Node4</title>
<path fill="none" stroke="midnightblue" d="M239.632,-11C248.642,-11 257.763,-11 266.383,-11"/>
<polygon fill="midnightblue" stroke="midnightblue" points="239.538,-7.5001 229.538,-11 239.537,-14.5001 239.538,-7.5001"/>
</g>
</g>
</svg>
