<?xml version="1.0" encoding="UTF-8" standalone="no"?>
<!DOCTYPE svg PUBLIC "-//W3C//DTD SVG 1.1//EN"
 "http://www.w3.org/Graphics/SVG/1.1/DTD/svg11.dtd">
<!-- Generated by graphviz version 2.26.3 (20100126.1600)
 -->
<!-- Title: GeoBase::colors Pages: 1 -->
<svg width="218pt" height="70pt"
 viewBox="0.00 0.00 218.00 70.00" xmlns="http://www.w3.org/2000/svg" xmlns:xlink="http://www.w3.org/1999/xlink">
<g id="graph1" class="graph" transform="scale(1 1) rotate(0) translate(4 66)">
<title>GeoBase::colors</title>
<polygon fill="white" stroke="white" points="-4,5 -4,-66 215,-66 215,5 -4,5"/>
<!-- Node1 -->
<g id="node1" class="node"><title>Node1</title>
<polygon fill="#bfbfbf" stroke="black" points="0.5,-20.5 0.5,-41.5 89.5,-41.5 89.5,-20.5 0.5,-20.5"/>
<text text-anchor="middle" x="45" y="-28.5" font-family="Helvetica,sans-Serif" font-size="10.00">GeoBase::colors</text>
</g>
<!-- Node2 -->
<g id="node3" class="node"><title>Node2</title>
<a xlink:href="class_cube.html#a6eceaa075072d4d0396b6bd85872d62b" target="_top" xlink:title="Cube::Cube">
<polygon fill="white" stroke="black" points="133.5,-40.5 133.5,-61.5 202.5,-61.5 202.5,-40.5 133.5,-40.5"/>
<text text-anchor="middle" x="168" y="-48.5" font-family="Helvetica,sans-Serif" font-size="10.00">Cube::Cube</text>
</a>
</g>
<!-- Node1&#45;&gt;Node2 -->
<g id="edge2" class="edge"><title>Node1&#45;&gt;Node2</title>
<path fill="none" stroke="midnightblue" d="M99.6259,-39.8823C110.998,-41.7314 122.688,-43.6321 133.113,-45.3273"/>
<polygon fill="midnightblue" stroke="midnightblue" points="100.186,-36.4274 89.7538,-38.277 99.0624,-43.3367 100.186,-36.4274"/>
</g>
<!-- Node3 -->
<g id="node5" class="node"><title>Node3</title>
<a xlink:href="class_sphere.html#ad1e284dc3aef66be0a3962e82d3c9e60" target="_top" xlink:title="Sphere::Sphere">
<polygon fill="white" stroke="black" points="126,-0.5 126,-21.5 210,-21.5 210,-0.5 126,-0.5"/>
<text text-anchor="middle" x="168" y="-8.5" font-family="Helvetica,sans-Serif" font-size="10.00">Sphere::Sphere</text>
</a>
</g>
<!-- Node1&#45;&gt;Node3 -->
<g id="edge4" class="edge"><title>Node1&#45;&gt;Node3</title>
<path fill="none" stroke="midnightblue" d="M99.891,-22.0746C108.634,-20.6531 117.557,-19.2022 125.942,-17.8387"/>
<polygon fill="midnightblue" stroke="midnightblue" points="99.0624,-18.6633 89.7538,-23.723 100.186,-25.5726 99.0624,-18.6633"/>
</g>
</g>
</svg>
