<?xml version="1.0" encoding="UTF-8" standalone="no"?>
<!DOCTYPE svg PUBLIC "-//W3C//DTD SVG 1.1//EN"
 "http://www.w3.org/Graphics/SVG/1.1/DTD/svg11.dtd">
<!-- Generated by graphviz version 2.26.3 (20100126.1600)
 -->
<!-- Title: Zone::draw Pages: 1 -->
<svg width="358pt" height="70pt"
 viewBox="0.00 0.00 358.00 70.00" xmlns="http://www.w3.org/2000/svg" xmlns:xlink="http://www.w3.org/1999/xlink">
<g id="graph1" class="graph" transform="scale(1 1) rotate(0) translate(4 66)">
<title>Zone::draw</title>
<polygon fill="white" stroke="white" points="-4,5 -4,-66 355,-66 355,5 -4,5"/>
<!-- Node1 -->
<g id="node1" class="node"><title>Node1</title>
<polygon fill="#bfbfbf" stroke="black" points="0.5,-20.5 0.5,-41.5 65.5,-41.5 65.5,-20.5 0.5,-20.5"/>
<text text-anchor="middle" x="33" y="-28.5" font-family="Helvetica,sans-Serif" font-size="10.00">Zone::draw</text>
</g>
<!-- Node2 -->
<g id="node3" class="node"><title>Node2</title>
<a xlink:href="class_viewport.html#ae95938dedc43d6b36f2b85d4a226ffa1" target="_top" xlink:title="Viewport::renderLight">
<polygon fill="white" stroke="black" points="105.5,-40.5 105.5,-61.5 214.5,-61.5 214.5,-40.5 105.5,-40.5"/>
<text text-anchor="middle" x="160" y="-48.5" font-family="Helvetica,sans-Serif" font-size="10.00">Viewport::renderLight</text>
</a>
</g>
<!-- Node1&#45;&gt;Node2 -->
<g id="edge2" class="edge"><title>Node1&#45;&gt;Node2</title>
<path fill="none" stroke="midnightblue" d="M75.6773,-37.7208C85.1618,-39.2145 95.3433,-40.8178 105.236,-42.3758"/>
<polygon fill="midnightblue" stroke="midnightblue" points="76.1284,-34.2488 65.7057,-36.1505 75.0394,-41.1636 76.1284,-34.2488"/>
</g>
<!-- Node4 -->
<g id="node7" class="node"><title>Node4</title>
<a xlink:href="class_viewport.html#ad0317022a7a6399ee47c199bb9348efc" target="_top" xlink:title="Viewport::renderScene">
<polygon fill="white" stroke="black" points="102,-0.5 102,-21.5 218,-21.5 218,-0.5 102,-0.5"/>
<text text-anchor="middle" x="160" y="-8.5" font-family="Helvetica,sans-Serif" font-size="10.00">Viewport::renderScene</text>
</a>
</g>
<!-- Node1&#45;&gt;Node4 -->
<g id="edge6" class="edge"><title>Node1&#45;&gt;Node4</title>
<path fill="none" stroke="midnightblue" d="M75.6293,-24.2867C84.0252,-22.9645 92.9689,-21.5561 101.776,-20.1691"/>
<polygon fill="midnightblue" stroke="midnightblue" points="75.0394,-20.8364 65.7057,-25.8495 76.1284,-27.7512 75.0394,-20.8364"/>
</g>
<!-- Node3 -->
<g id="node5" class="node"><title>Node3</title>
<a xlink:href="class_viewport.html#a3c2c4661eac1f6351392b8fe133423f5" target="_top" xlink:title="Viewport::paintGL">
<polygon fill="white" stroke="black" points="254.5,-20.5 254.5,-41.5 349.5,-41.5 349.5,-20.5 254.5,-20.5"/>
<text text-anchor="middle" x="302" y="-28.5" font-family="Helvetica,sans-Serif" font-size="10.00">Viewport::paintGL</text>
</a>
</g>
<!-- Node2&#45;&gt;Node3 -->
<g id="edge4" class="edge"><title>Node2&#45;&gt;Node3</title>
<path fill="none" stroke="midnightblue" d="M225.04,-41.8395C234.853,-40.4574 244.819,-39.0537 254.18,-37.7352"/>
<polygon fill="midnightblue" stroke="midnightblue" points="224.315,-38.4069 214.901,-43.2675 225.291,-45.3385 224.315,-38.4069"/>
</g>
<!-- Node4&#45;&gt;Node3 -->
<g id="edge8" class="edge"><title>Node4&#45;&gt;Node3</title>
<path fill="none" stroke="midnightblue" d="M228.336,-20.6247C237.046,-21.8515 245.81,-23.0859 254.102,-24.2537"/>
<polygon fill="midnightblue" stroke="midnightblue" points="228.557,-17.1214 218.167,-19.1925 227.581,-24.053 228.557,-17.1214"/>
</g>
</g>
</svg>
