<?xml version="1.0" encoding="UTF-8" standalone="no"?>
<!DOCTYPE svg PUBLIC "-//W3C//DTD SVG 1.1//EN"
 "http://www.w3.org/Graphics/SVG/1.1/DTD/svg11.dtd">
<!-- Generated by graphviz version 2.26.3 (20100126.1600)
 -->
<!-- Title: Viewport::paintGL Pages: 1 -->
<!--zoomable 508 -->
<svg id="main" version="1.1" xmlns="http://www.w3.org/2000/svg" xmlns:xlink="http://www.w3.org/1999/xlink" xml:space="preserve" onload="init(evt)">
<style type="text/css"><![CDATA[
.edge:hover path { stroke: red; }
.edge:hover polygon { stroke: red; fill: red; }
]]></style>
<script type="text/javascript"><![CDATA[
var edges = document.getElementsByTagName('g');
if (edges && edges.length) {
  for (var i=0;i<edges.length;i++) {
    if (edges[i].id.substr(0,4)=='edge') {
      edges[i].setAttribute('class','edge');
    }
  }
}
]]></script>
        <defs>
                <circle id="rim" cx="0" cy="0" r="7"/>
                <circle id="rim2" cx="0" cy="0" r="3.5"/>
                <g id="zoomPlus">
                        <use xlink:href="#rim" fill="#404040">
                                <set attributeName="fill" to="#808080" begin="zoomplus.mouseover" end="zoomplus.mouseout"/>
                        </use>
                        <path d="M-4,0h8M0,-4v8" fill="none" stroke="white" stroke-width="1.5" pointer-events="none"/>
                </g>
                <g id="zoomMin">
                        <use xlink:href="#rim" fill="#404040">
                                <set attributeName="fill" to="#808080" begin="zoomminus.mouseover" end="zoomminus.mouseout"/>
                        </use>
                        <path d="M-4,0h8" fill="none" stroke="white" stroke-width="1.5" pointer-events="none"/>
                </g>
                <g id="dirArrow">
                        <path fill="none" stroke="white" stroke-width="1.5" d="M0,-3.0v7 M-2.5,-0.5L0,-3.0L2.5,-0.5"/>
                </g>
               <g id="resetDef">
                       <use xlink:href="#rim2" fill="#404040">
                               <set attributeName="fill" to="#808080" begin="reset.mouseover" end="reset.mouseout"/>
                       </use>
               </g>
        </defs>

<script type="text/javascript">
var viewWidth = 662;
var viewHeight = 508;
var sectionId = 'dynsection-14';
</script>
<script xlink:href="svgpan.js"/>
<svg id="graph" class="graph">
<g id="viewport">
<title>Viewport::paintGL</title>
<polygon fill="white" stroke="white" points="-4,5 -4,-504 659,-504 659,5 -4,5"/>
<!-- Node1 -->
<g id="node1" class="node"><title>Node1</title>
<polygon fill="#bfbfbf" stroke="black" points="0.5,-368.5 0.5,-389.5 95.5,-389.5 95.5,-368.5 0.5,-368.5"/>
<text text-anchor="middle" x="48" y="-376.5" font-family="Helvetica,sans-Serif" font-size="10.00">Viewport::paintGL</text>
</g>
<!-- Node2 -->
<g id="node3" class="node"><title>Node2</title>
<a xlink:href="class_viewport.html#a5760eeac13c59b34bd8cc5ba638f9cbd" target="_top" xlink:title="Viewport::catchErrors">
<polygon fill="white" stroke="black" points="284.5,-478.5 284.5,-499.5 395.5,-499.5 395.5,-478.5 284.5,-478.5"/>
<text text-anchor="middle" x="340" y="-486.5" font-family="Helvetica,sans-Serif" font-size="10.00">Viewport::catchErrors</text>
</a>
</g>
<!-- Node1&#45;&gt;Node2 -->
<g id="edge2" class="edge"><title>Node1&#45;&gt;Node2</title>
<path fill="none" stroke="midnightblue" d="M63.1532,-389.647C79.5032,-400.739 106.617,-418.002 132,-429 180.368,-449.957 238.171,-465.961 280.553,-476.148"/>
<polygon fill="midnightblue" stroke="midnightblue" points="279.899,-479.59 290.436,-478.485 281.51,-472.777 279.899,-479.59"/>
</g>
<!-- Node3 -->
<g id="node5" class="node"><title>Node3</title>
<a xlink:href="class_viewport.html#ae95938dedc43d6b36f2b85d4a226ffa1" target="_top" xlink:title="Viewport::renderLight">
<polygon fill="white" stroke="black" points="135.5,-338.5 135.5,-359.5 244.5,-359.5 244.5,-338.5 135.5,-338.5"/>
<text text-anchor="middle" x="190" y="-346.5" font-family="Helvetica,sans-Serif" font-size="10.00">Viewport::renderLight</text>
</a>
</g>
<!-- Node1&#45;&gt;Node3 -->
<g id="edge4" class="edge"><title>Node1&#45;&gt;Node3</title>
<path fill="none" stroke="midnightblue" d="M95.679,-368.927C106.771,-366.584 118.718,-364.06 130.258,-361.622"/>
<polygon fill="midnightblue" stroke="midnightblue" points="131.202,-365 140.262,-359.508 129.755,-358.151 131.202,-365"/>
</g>
<!-- Node11 -->
<g id="node22" class="node"><title>Node11</title>
<a xlink:href="class_viewport.html#ad0317022a7a6399ee47c199bb9348efc" target="_top" xlink:title="Viewport::renderScene">
<polygon fill="white" stroke="black" points="132,-398.5 132,-419.5 248,-419.5 248,-398.5 132,-398.5"/>
<text text-anchor="middle" x="190" y="-406.5" font-family="Helvetica,sans-Serif" font-size="10.00">Viewport::renderScene</text>
</a>
</g>
<!-- Node1&#45;&gt;Node11 -->
<g id="edge22" class="edge"><title>Node1&#45;&gt;Node11</title>
<path fill="none" stroke="midnightblue" d="M95.679,-389.073C106.771,-391.416 118.718,-393.94 130.258,-396.378"/>
<polygon fill="midnightblue" stroke="midnightblue" points="129.755,-399.849 140.262,-398.492 131.202,-393 129.755,-399.849"/>
</g>
<!-- Node17 -->
<g id="node38" class="node"><title>Node17</title>
<a xlink:href="class_viewport.html#aeb07f85bbe4f10ca8d8c7b46c8ebd23b" target="_top" xlink:title="Viewport::renderQuad">
<polygon fill="white" stroke="black" points="134.5,-178.5 134.5,-199.5 245.5,-199.5 245.5,-178.5 134.5,-178.5"/>
<text text-anchor="middle" x="190" y="-186.5" font-family="Helvetica,sans-Serif" font-size="10.00">Viewport::renderQuad</text>
</a>
</g>
<!-- Node1&#45;&gt;Node17 -->
<g id="edge42" class="edge"><title>Node1&#45;&gt;Node17</title>
<path fill="none" stroke="midnightblue" d="M56.0414,-368.24C79.18,-337.28 146.154,-247.667 175.703,-208.129"/>
<polygon fill="midnightblue" stroke="midnightblue" points="178.864,-209.747 182.047,-199.642 173.257,-205.556 178.864,-209.747"/>
</g>
<!-- Node3&#45;&gt;Node2 -->
<g id="edge10" class="edge"><title>Node3&#45;&gt;Node2</title>
<path fill="none" stroke="midnightblue" d="M210.92,-359.655C223.02,-366.662 237.818,-376.786 248,-389 272.967,-418.947 255.352,-442.552 284,-469 285.695,-470.565 287.52,-472.009 289.441,-473.341"/>
<polygon fill="midnightblue" stroke="midnightblue" points="287.95,-476.522 298.36,-478.496 291.453,-470.461 287.95,-476.522"/>
</g>
<!-- Node4 -->
<g id="node7" class="node"><title>Node4</title>
<a xlink:href="class_light.html#a5466743e73bc1f6e0dd198baf7697ed5" target="_top" xlink:title="Light::getBuffer">
<polygon fill="white" stroke="black" points="298.5,-358.5 298.5,-379.5 381.5,-379.5 381.5,-358.5 298.5,-358.5"/>
<text text-anchor="middle" x="340" y="-366.5" font-family="Helvetica,sans-Serif" font-size="10.00">Light::getBuffer</text>
</a>
</g>
<!-- Node3&#45;&gt;Node4 -->
<g id="edge6" class="edge"><title>Node3&#45;&gt;Node4</title>
<path fill="none" stroke="midnightblue" d="M244.578,-356.277C258.868,-358.182 274.229,-360.231 288.36,-362.115"/>
<polygon fill="midnightblue" stroke="midnightblue" points="288.025,-365.601 298.4,-363.453 288.951,-358.662 288.025,-365.601"/>
</g>
<!-- Node5 -->
<g id="node9" class="node"><title>Node5</title>
<a xlink:href="class_light.html#ac5414b33c1c3cf0940f9979dceb60087" target="_top" xlink:title="Light::getTexture">
<polygon fill="white" stroke="black" points="295,-278.5 295,-299.5 385,-299.5 385,-278.5 295,-278.5"/>
<text text-anchor="middle" x="340" y="-286.5" font-family="Helvetica,sans-Serif" font-size="10.00">Light::getTexture</text>
</a>
</g>
<!-- Node3&#45;&gt;Node5 -->
<g id="edge8" class="edge"><title>Node3&#45;&gt;Node5</title>
<path fill="none" stroke="midnightblue" d="M213.793,-338.413C232.701,-330.113 259.884,-318.428 284,-309 289.108,-307.003 294.508,-304.974 299.858,-303.011"/>
<polygon fill="midnightblue" stroke="midnightblue" points="301.148,-306.266 309.361,-299.573 298.767,-299.684 301.148,-306.266"/>
</g>
<!-- Node6 -->
<g id="node12" class="node"><title>Node6</title>
<a xlink:href="class_light.html#ae15381dfe25ed67531fa7b2a530399ad" target="_top" xlink:title="Light::projection">
<polygon fill="white" stroke="black" points="297,-238.5 297,-259.5 383,-259.5 383,-238.5 297,-238.5"/>
<text text-anchor="middle" x="340" y="-246.5" font-family="Helvetica,sans-Serif" font-size="10.00">Light::projection</text>
</a>
</g>
<!-- Node3&#45;&gt;Node6 -->
<g id="edge12" class="edge"><title>Node3&#45;&gt;Node6</title>
<path fill="none" stroke="midnightblue" d="M200.023,-338.257C216.237,-321.427 249.862,-288.731 284,-269 287.422,-267.022 291.072,-265.189 294.807,-263.501"/>
<polygon fill="midnightblue" stroke="midnightblue" points="296.289,-266.675 304.18,-259.605 293.602,-260.211 296.289,-266.675"/>
</g>
<!-- Node7 -->
<g id="node14" class="node"><title>Node7</title>
<a xlink:href="class_light.html#a747a809f8abf05f41143279abb78df13" target="_top" xlink:title="Light::view">
<polygon fill="white" stroke="black" points="308,-198.5 308,-219.5 372,-219.5 372,-198.5 308,-198.5"/>
<text text-anchor="middle" x="340" y="-206.5" font-family="Helvetica,sans-Serif" font-size="10.00">Light::view</text>
</a>
</g>
<!-- Node3&#45;&gt;Node7 -->
<g id="edge14" class="edge"><title>Node3&#45;&gt;Node7</title>
<path fill="none" stroke="midnightblue" d="M195.552,-338.383C208.176,-315.227 241.281,-259.799 284,-229 288.449,-225.793 293.463,-223.055 298.616,-220.731"/>
<polygon fill="midnightblue" stroke="midnightblue" points="299.975,-223.956 307.949,-216.98 297.365,-217.461 299.975,-223.956"/>
</g>
<!-- Node8 -->
<g id="node16" class="node"><title>Node8</title>
<a xlink:href="class_world.html#a664cd2c63ef6c7979736cd454b31eb1c" target="_top" xlink:title="World::currentZone">
<polygon fill="white" stroke="black" points="290,-318.5 290,-339.5 390,-339.5 390,-318.5 290,-318.5"/>
<text text-anchor="middle" x="340" y="-326.5" font-family="Helvetica,sans-Serif" font-size="10.00">World::currentZone</text>
</a>
</g>
<!-- Node3&#45;&gt;Node8 -->
<g id="edge16" class="edge"><title>Node3&#45;&gt;Node8</title>
<path fill="none" stroke="midnightblue" d="M244.578,-341.723C255.981,-340.203 268.065,-338.591 279.663,-337.045"/>
<polygon fill="midnightblue" stroke="midnightblue" points="280.25,-340.498 289.7,-335.707 279.325,-333.559 280.25,-340.498"/>
</g>
<!-- Node9 -->
<g id="node18" class="node"><title>Node9</title>
<a xlink:href="class_zone.html#ab0e0091bda0819de6e848d647d14b1a0" target="_top" xlink:title="Zone::draw">
<polygon fill="white" stroke="black" points="307.5,-398.5 307.5,-419.5 372.5,-419.5 372.5,-398.5 307.5,-398.5"/>
<text text-anchor="middle" x="340" y="-406.5" font-family="Helvetica,sans-Serif" font-size="10.00">Zone::draw</text>
</a>
</g>
<!-- Node3&#45;&gt;Node9 -->
<g id="edge18" class="edge"><title>Node3&#45;&gt;Node9</title>
<path fill="none" stroke="midnightblue" d="M213.793,-359.587C232.701,-367.887 259.884,-379.572 284,-389 289.108,-390.997 294.508,-393.026 299.858,-394.989"/>
<polygon fill="midnightblue" stroke="midnightblue" points="298.767,-398.316 309.361,-398.427 301.148,-391.734 298.767,-398.316"/>
</g>
<!-- Node10 -->
<g id="node20" class="node"><title>Node10</title>
<a xlink:href="class_actor.html#ac35dab598ae9f9a936418ec22fadf138" target="_top" xlink:title="Actor::draw">
<polygon fill="white" stroke="black" points="444.5,-360.5 444.5,-381.5 511.5,-381.5 511.5,-360.5 444.5,-360.5"/>
<text text-anchor="middle" x="478" y="-368.5" font-family="Helvetica,sans-Serif" font-size="10.00">Actor::draw</text>
</a>
</g>
<!-- Node9&#45;&gt;Node10 -->
<g id="edge20" class="edge"><title>Node9&#45;&gt;Node10</title>
<path fill="none" stroke="midnightblue" d="M372.704,-399.995C391.114,-394.925 414.343,-388.529 434.296,-383.034"/>
<polygon fill="midnightblue" stroke="midnightblue" points="435.378,-386.367 444.09,-380.338 433.519,-379.618 435.378,-386.367"/>
</g>
<!-- Node11&#45;&gt;Node2 -->
<g id="edge24" class="edge"><title>Node11&#45;&gt;Node2</title>
<path fill="none" stroke="midnightblue" d="M204.375,-419.634C222.316,-432.556 254.27,-454.434 284,-469 288.127,-471.022 292.512,-472.945 296.94,-474.744"/>
<polygon fill="midnightblue" stroke="midnightblue" points="296.032,-478.144 306.621,-478.469 298.546,-471.611 296.032,-478.144"/>
</g>
<!-- Node11&#45;&gt;Node8 -->
<g id="edge38" class="edge"><title>Node11&#45;&gt;Node8</title>
<path fill="none" stroke="midnightblue" d="M204.375,-398.366C222.316,-385.444 254.27,-363.566 284,-349 288.127,-346.978 292.512,-345.055 296.94,-343.256"/>
<polygon fill="midnightblue" stroke="midnightblue" points="298.546,-346.389 306.621,-339.531 296.032,-339.856 298.546,-346.389"/>
</g>
<!-- Node11&#45;&gt;Node9 -->
<g id="edge40" class="edge"><title>Node11&#45;&gt;Node9</title>
<path fill="none" stroke="midnightblue" d="M248.423,-409C264.732,-409 282.141,-409 297.353,-409"/>
<polygon fill="midnightblue" stroke="midnightblue" points="297.493,-412.5 307.493,-409 297.493,-405.5 297.493,-412.5"/>
</g>
<!-- Node12 -->
<g id="node25" class="node"><title>Node12</title>
<a xlink:href="class_camera.html#af81adf3ba7f63429a9d5356c218da78f" target="_top" xlink:title="Camera::view">
<polygon fill="white" stroke="black" points="301.5,-438.5 301.5,-459.5 378.5,-459.5 378.5,-438.5 301.5,-438.5"/>
<text text-anchor="middle" x="340" y="-446.5" font-family="Helvetica,sans-Serif" font-size="10.00">Camera::view</text>
</a>
</g>
<!-- Node11&#45;&gt;Node12 -->
<g id="edge26" class="edge"><title>Node11&#45;&gt;Node12</title>
<path fill="none" stroke="midnightblue" d="M229.411,-419.51C248.42,-424.579 271.401,-430.707 291.477,-436.061"/>
<polygon fill="midnightblue" stroke="midnightblue" points="290.807,-439.504 301.371,-438.699 292.611,-432.74 290.807,-439.504"/>
</g>
<!-- Node13 -->
<g id="node27" class="node"><title>Node13</title>
<a xlink:href="class_camera.html#a4e6b5818c84025d176c13c84991ef568" target="_top" xlink:title="Camera::position">
<polygon fill="white" stroke="black" points="432.5,-478.5 432.5,-499.5 523.5,-499.5 523.5,-478.5 432.5,-478.5"/>
<text text-anchor="middle" x="478" y="-486.5" font-family="Helvetica,sans-Serif" font-size="10.00">Camera::position</text>
</a>
</g>
<!-- Node12&#45;&gt;Node13 -->
<g id="edge28" class="edge"><title>Node12&#45;&gt;Node13</title>
<path fill="none" stroke="midnightblue" d="M376.258,-459.51C393.238,-464.431 413.661,-470.351 431.74,-475.591"/>
<polygon fill="midnightblue" stroke="midnightblue" points="430.926,-478.999 441.505,-478.422 432.875,-472.276 430.926,-478.999"/>
</g>
<!-- Node14 -->
<g id="node29" class="node"><title>Node14</title>
<a xlink:href="class_camera.html#a7276761c5214ec94f6ac35e5804f6719" target="_top" xlink:title="Camera::direction">
<polygon fill="white" stroke="black" points="560,-398.5 560,-419.5 654,-419.5 654,-398.5 560,-398.5"/>
<text text-anchor="middle" x="607" y="-406.5" font-family="Helvetica,sans-Serif" font-size="10.00">Camera::direction</text>
</a>
</g>
<!-- Node12&#45;&gt;Node14 -->
<g id="edge30" class="edge"><title>Node12&#45;&gt;Node14</title>
<path fill="none" stroke="midnightblue" d="M378.78,-439.666C395.135,-435.965 414.422,-431.908 432,-429 470.961,-422.555 515.147,-417.523 549.372,-414.119"/>
<polygon fill="midnightblue" stroke="midnightblue" points="550.044,-417.57 559.657,-413.114 549.364,-410.603 550.044,-417.57"/>
</g>
<!-- Node15 -->
<g id="node31" class="node"><title>Node15</title>
<a xlink:href="class_camera.html#a9936c788ad482b40b5a3548bf5e97247" target="_top" xlink:title="Camera::up">
<polygon fill="white" stroke="black" points="444,-438.5 444,-459.5 512,-459.5 512,-438.5 444,-438.5"/>
<text text-anchor="middle" x="478" y="-446.5" font-family="Helvetica,sans-Serif" font-size="10.00">Camera::up</text>
</a>
</g>
<!-- Node12&#45;&gt;Node15 -->
<g id="edge32" class="edge"><title>Node12&#45;&gt;Node15</title>
<path fill="none" stroke="midnightblue" d="M378.808,-449C395.868,-449 415.996,-449 433.646,-449"/>
<polygon fill="midnightblue" stroke="midnightblue" points="433.71,-452.5 443.71,-449 433.71,-445.5 433.71,-452.5"/>
</g>
<!-- Node15&#45;&gt;Node14 -->
<g id="edge36" class="edge"><title>Node15&#45;&gt;Node14</title>
<path fill="none" stroke="midnightblue" d="M511.893,-438.49C527.619,-433.614 546.504,-427.759 563.287,-422.555"/>
<polygon fill="midnightblue" stroke="midnightblue" points="564.37,-425.883 572.885,-419.578 562.297,-419.197 564.37,-425.883"/>
</g>
<!-- Node16 -->
<g id="node33" class="node"><title>Node16</title>
<a xlink:href="class_camera.html#ac68fa914dd8737de1ec7558fc9281a68" target="_top" xlink:title="Camera::right">
<polygon fill="white" stroke="black" points="569,-438.5 569,-459.5 645,-459.5 645,-438.5 569,-438.5"/>
<text text-anchor="middle" x="607" y="-446.5" font-family="Helvetica,sans-Serif" font-size="10.00">Camera::right</text>
</a>
</g>
<!-- Node15&#45;&gt;Node16 -->
<g id="edge34" class="edge"><title>Node15&#45;&gt;Node16</title>
<path fill="none" stroke="midnightblue" d="M512.231,-449C526.422,-449 543.142,-449 558.555,-449"/>
<polygon fill="midnightblue" stroke="midnightblue" points="558.97,-452.5 568.97,-449 558.97,-445.5 558.97,-452.5"/>
</g>
<!-- Node17&#45;&gt;Node5 -->
<g id="edge46" class="edge"><title>Node17&#45;&gt;Node5</title>
<path fill="none" stroke="midnightblue" d="M200.023,-199.743C216.237,-216.573 249.862,-249.269 284,-269 287.422,-270.978 291.072,-272.811 294.807,-274.499"/>
<polygon fill="midnightblue" stroke="midnightblue" points="293.602,-277.789 304.18,-278.395 296.289,-271.325 293.602,-277.789"/>
</g>
<!-- Node17&#45;&gt;Node6 -->
<g id="edge60" class="edge"><title>Node17&#45;&gt;Node6</title>
<path fill="none" stroke="midnightblue" d="M213.793,-199.587C232.701,-207.887 259.884,-219.572 284,-229 289.108,-230.997 294.508,-233.026 299.858,-234.989"/>
<polygon fill="midnightblue" stroke="midnightblue" points="298.767,-238.316 309.361,-238.427 301.148,-231.734 298.767,-238.316"/>
</g>
<!-- Node17&#45;&gt;Node7 -->
<g id="edge58" class="edge"><title>Node17&#45;&gt;Node7</title>
<path fill="none" stroke="midnightblue" d="M245.854,-196.447C262.936,-198.725 281.439,-201.192 297.483,-203.331"/>
<polygon fill="midnightblue" stroke="midnightblue" points="297.256,-206.832 307.631,-204.684 298.181,-199.893 297.256,-206.832"/>
</g>
<!-- Node17&#45;&gt;Node8 -->
<g id="edge44" class="edge"><title>Node17&#45;&gt;Node8</title>
<path fill="none" stroke="midnightblue" d="M195.552,-199.617C208.176,-222.773 241.281,-278.201 284,-309 286.515,-310.813 289.21,-312.476 292.009,-313.999"/>
<polygon fill="midnightblue" stroke="midnightblue" points="290.677,-317.241 301.208,-318.4 293.698,-310.927 290.677,-317.241"/>
</g>
<!-- Node17&#45;&gt;Node14 -->
<g id="edge62" class="edge"><title>Node17&#45;&gt;Node14</title>
<path fill="none" stroke="midnightblue" d="M198.135,-178.303C212.868,-159.925 245.989,-122.985 284,-109 330.716,-91.8119 351.823,-86.0614 396,-109 514.125,-170.335 580.022,-331.518 600.227,-388.602"/>
<polygon fill="midnightblue" stroke="midnightblue" points="596.997,-389.974 603.566,-398.287 603.615,-387.692 596.997,-389.974"/>
</g>
<!-- Node18 -->
<g id="node42" class="node"><title>Node18</title>
<a xlink:href="viewport_8cpp.html#ae7e24b600e4b06fe95d062b8fb71bc7a" target="_top" xlink:title="toVector">
<polygon fill="white" stroke="black" points="313.5,-158.5 313.5,-179.5 366.5,-179.5 366.5,-158.5 313.5,-158.5"/>
<text text-anchor="middle" x="340" y="-166.5" font-family="Helvetica,sans-Serif" font-size="10.00">toVector</text>
</a>
</g>
<!-- Node17&#45;&gt;Node18 -->
<g id="edge48" class="edge"><title>Node17&#45;&gt;Node18</title>
<path fill="none" stroke="midnightblue" d="M245.854,-181.553C265.031,-178.996 285.996,-176.201 303.265,-173.898"/>
<polygon fill="midnightblue" stroke="midnightblue" points="304.041,-177.326 313.491,-172.535 303.116,-170.387 304.041,-177.326"/>
</g>
<!-- Node19 -->
<g id="node44" class="node"><title>Node19</title>
<a xlink:href="class_light.html#a268d5bc710788f8457c1efc6038ea0a0" target="_top" xlink:title="Light::type">
<polygon fill="white" stroke="black" points="309,-118.5 309,-139.5 371,-139.5 371,-118.5 309,-118.5"/>
<text text-anchor="middle" x="340" y="-126.5" font-family="Helvetica,sans-Serif" font-size="10.00">Light::type</text>
</a>
</g>
<!-- Node17&#45;&gt;Node19 -->
<g id="edge50" class="edge"><title>Node17&#45;&gt;Node19</title>
<path fill="none" stroke="midnightblue" d="M213.793,-178.413C232.701,-170.113 259.884,-158.428 284,-149 289.108,-147.003 294.508,-144.974 299.858,-143.011"/>
<polygon fill="midnightblue" stroke="midnightblue" points="301.148,-146.266 309.361,-139.573 298.767,-139.684 301.148,-146.266"/>
</g>
<!-- Node20 -->
<g id="node46" class="node"><title>Node20</title>
<a xlink:href="class_light.html#ab689087cc07b95273f6daae900a42010" target="_top" xlink:title="Light::direction">
<polygon fill="white" stroke="black" points="300,-0.5 300,-21.5 380,-21.5 380,-0.5 300,-0.5"/>
<text text-anchor="middle" x="340" y="-8.5" font-family="Helvetica,sans-Serif" font-size="10.00">Light::direction</text>
</a>
</g>
<!-- Node17&#45;&gt;Node20 -->
<g id="edge52" class="edge"><title>Node17&#45;&gt;Node20</title>
<path fill="none" stroke="midnightblue" d="M193.406,-178.465C203.011,-150.376 232.983,-72.9831 284,-31 286.058,-29.3067 288.27,-27.7516 290.584,-26.3239"/>
<polygon fill="midnightblue" stroke="midnightblue" points="292.682,-29.1754 299.908,-21.4268 289.427,-22.9782 292.682,-29.1754"/>
</g>
<!-- Node22 -->
<g id="node50" class="node"><title>Node22</title>
<a xlink:href="class_actor.html#acdab84246959258bbde6eb050d340e67" target="_top" xlink:title="Actor::position">
<polygon fill="white" stroke="black" points="300,-40.5 300,-61.5 380,-61.5 380,-40.5 300,-40.5"/>
<text text-anchor="middle" x="340" y="-48.5" font-family="Helvetica,sans-Serif" font-size="10.00">Actor::position</text>
</a>
</g>
<!-- Node17&#45;&gt;Node22 -->
<g id="edge56" class="edge"><title>Node17&#45;&gt;Node22</title>
<path fill="none" stroke="midnightblue" d="M196.501,-178.266C210.212,-156.397 244.135,-106.206 284,-76 289.012,-72.2023 294.692,-68.8263 300.466,-65.8795"/>
<polygon fill="midnightblue" stroke="midnightblue" points="301.98,-69.0348 309.532,-61.6032 298.994,-62.7037 301.98,-69.0348"/>
</g>
<!-- Node21 -->
<g id="node48" class="node"><title>Node21</title>
<a xlink:href="class_actor.html#a748e07c73196050bfb0d51a14608aeae" target="_top" xlink:title="Actor::orientation">
<polygon fill="white" stroke="black" points="432.5,-0.5 432.5,-21.5 523.5,-21.5 523.5,-0.5 432.5,-0.5"/>
<text text-anchor="middle" x="478" y="-8.5" font-family="Helvetica,sans-Serif" font-size="10.00">Actor::orientation</text>
</a>
</g>
<!-- Node20&#45;&gt;Node21 -->
<g id="edge54" class="edge"><title>Node20&#45;&gt;Node21</title>
<path fill="none" stroke="midnightblue" d="M380.286,-11C393.346,-11 408.076,-11 422.062,-11"/>
<polygon fill="midnightblue" stroke="midnightblue" points="422.081,-14.5001 432.081,-11 422.081,-7.5001 422.081,-14.5001"/>
</g>
</g>
</svg>
        <g id="navigator" transform="translate(0 0)" fill="#404254">
                <rect fill="#f2f5e9" fill-opacity="0.5" stroke="#606060" stroke-width=".5" x="0" y="0" width="60" height="60"/>
                <use id="zoomplus" xlink:href="#zoomPlus" x="17" y="9" onmousedown="handleZoom(evt,'in')"/>
                <use id="zoomminus" xlink:href="#zoomMin" x="42" y="9" onmousedown="handleZoom(evt,'out')"/>
                <use id="reset" xlink:href="#resetDef" x="30" y="36" onmousedown="handleReset()"/>
                <g id="arrowUp" xlink:href="#dirArrow" transform="translate(30 24)" onmousedown="handlePan(0,-1)">
                  <use xlink:href="#rim" fill="#404040">
                        <set attributeName="fill" to="#808080" begin="arrowUp.mouseover" end="arrowUp.mouseout"/>
                  </use>
                  <path fill="none" stroke="white" stroke-width="1.5" d="M0,-3.0v7 M-2.5,-0.5L0,-3.0L2.5,-0.5"/>
                </g>
                <g id="arrowRight" xlink:href="#dirArrow" transform="rotate(90) translate(36 -43)" onmousedown="handlePan(1,0)">
                  <use xlink:href="#rim" fill="#404040">
                        <set attributeName="fill" to="#808080" begin="arrowRight.mouseover" end="arrowRight.mouseout"/>
                  </use>
                  <path fill="none" stroke="white" stroke-width="1.5" d="M0,-3.0v7 M-2.5,-0.5L0,-3.0L2.5,-0.5"/>
                </g>
                <g id="arrowDown" xlink:href="#dirArrow" transform="rotate(180) translate(-30 -48)" onmousedown="handlePan(0,1)">
                  <use xlink:href="#rim" fill="#404040">
                        <set attributeName="fill" to="#808080" begin="arrowDown.mouseover" end="arrowDown.mouseout"/>
                  </use>
                  <path fill="none" stroke="white" stroke-width="1.5" d="M0,-3.0v7 M-2.5,-0.5L0,-3.0L2.5,-0.5"/>
                </g>
                <g id="arrowLeft" xlink:href="#dirArrow" transform="rotate(270) translate(-36 17)" onmousedown="handlePan(-1,0)">
                  <use xlink:href="#rim" fill="#404040">
                        <set attributeName="fill" to="#808080" begin="arrowLeft.mouseover" end="arrowLeft.mouseout"/>
                  </use>
                  <path fill="none" stroke="white" stroke-width="1.5" d="M0,-3.0v7 M-2.5,-0.5L0,-3.0L2.5,-0.5"/>
                </g>
        </g>
        <svg viewBox="0 0 15 15" width="100%" height="30px" preserveAspectRatio="xMaxYMin meet">
         <g id="arrow_out" transform="scale(0.3 0.3)">
          <a xlink:href="class_viewport_a3c2c4661eac1f6351392b8fe133423f5_cgraph_org.svg" target="_base">
           <rect id="button" ry="5" rx="5" y="6" x="6" height="38" width="38"
                fill="#f2f5e9" fill-opacity="0.5" stroke="#606060" stroke-width="1.0"/>
           <path id="arrow"
             d="M 11.500037,31.436501 C 11.940474,20.09759 22.043105,11.32322 32.158766,21.979434 L 37.068811,17.246167 C 37.068811,17.246167 37.088388,32 37.088388,32 L 22.160133,31.978069 C 22.160133,31.978069 26.997745,27.140456 26.997745,27.140456 C 18.528582,18.264221 13.291696,25.230495 11.500037,31.436501 z"
             style="fill:#404040;"/>
          </a>
         </g>
        </svg>
</svg>
