<?xml version="1.0" encoding="UTF-8" standalone="no"?>
<!DOCTYPE svg PUBLIC "-//W3C//DTD SVG 1.1//EN"
 "http://www.w3.org/Graphics/SVG/1.1/DTD/svg11.dtd">
<!-- Generated by graphviz version 2.26.3 (20100126.1600)
 -->
<!-- Title: Light::update Pages: 1 -->
<svg width="218pt" height="70pt"
 viewBox="0.00 0.00 218.00 70.00" xmlns="http://www.w3.org/2000/svg" xmlns:xlink="http://www.w3.org/1999/xlink">
<g id="graph1" class="graph" transform="scale(1 1) rotate(0) translate(4 66)">
<title>Light::update</title>
<polygon fill="white" stroke="white" points="-4,5 -4,-66 215,-66 215,5 -4,5"/>
<!-- Node1 -->
<g id="node1" class="node"><title>Node1</title>
<polygon fill="#bfbfbf" stroke="black" points="0.5,-20.5 0.5,-41.5 73.5,-41.5 73.5,-20.5 0.5,-20.5"/>
<text text-anchor="middle" x="37" y="-28.5" font-family="Helvetica,sans-Serif" font-size="10.00">Light::update</text>
</g>
<!-- Node2 -->
<g id="node3" class="node"><title>Node2</title>
<a xlink:href="class_light.html#a30538cefe47541035db096b75133442d" target="_top" xlink:title="Light::Light">
<polygon fill="white" stroke="black" points="127.5,-40.5 127.5,-61.5 192.5,-61.5 192.5,-40.5 127.5,-40.5"/>
<text text-anchor="middle" x="160" y="-48.5" font-family="Helvetica,sans-Serif" font-size="10.00">Light::Light</text>
</a>
</g>
<!-- Node1&#45;&gt;Node2 -->
<g id="edge2" class="edge"><title>Node1&#45;&gt;Node2</title>
<path fill="none" stroke="midnightblue" d="M83.83,-38.6146C98.2645,-40.9617 113.844,-43.495 127.129,-45.6551"/>
<polygon fill="midnightblue" stroke="midnightblue" points="84.0032,-35.0969 73.571,-36.9465 82.8796,-42.0062 84.0032,-35.0969"/>
</g>
<!-- Node3 -->
<g id="node5" class="node"><title>Node3</title>
<a xlink:href="class_spotlight.html#a00b11e643c97326edb0ab6b0dff3425a" target="_top" xlink:title="Spotlight::Spotlight">
<polygon fill="white" stroke="black" points="110.5,-0.5 110.5,-21.5 209.5,-21.5 209.5,-0.5 110.5,-0.5"/>
<text text-anchor="middle" x="160" y="-8.5" font-family="Helvetica,sans-Serif" font-size="10.00">Spotlight::Spotlight</text>
</a>
</g>
<!-- Node1&#45;&gt;Node3 -->
<g id="edge4" class="edge"><title>Node1&#45;&gt;Node3</title>
<path fill="none" stroke="midnightblue" d="M83.5359,-23.4332C92.2292,-22.0196 101.347,-20.5371 110.136,-19.108"/>
<polygon fill="midnightblue" stroke="midnightblue" points="82.8796,-19.9938 73.571,-25.0535 84.0032,-26.9031 82.8796,-19.9938"/>
</g>
</g>
</svg>
