<?xml version="1.0" encoding="UTF-8" standalone="no"?>
<!DOCTYPE svg PUBLIC "-//W3C//DTD SVG 1.1//EN"
 "http://www.w3.org/Graphics/SVG/1.1/DTD/svg11.dtd">
<!-- Generated by graphviz version 2.26.3 (20100126.1600)
 -->
<!-- Title: World::zoneAdded Pages: 1 -->
<svg width="388pt" height="109pt"
 viewBox="0.00 0.00 388.00 109.00" xmlns="http://www.w3.org/2000/svg" xmlns:xlink="http://www.w3.org/1999/xlink">
<g id="graph1" class="graph" transform="scale(1 1) rotate(0) translate(4 105)">
<title>World::zoneAdded</title>
<polygon fill="white" stroke="white" points="-4,5 -4,-105 385,-105 385,5 -4,5"/>
<!-- Node1 -->
<g id="node1" class="node"><title>Node1</title>
<polygon fill="#bfbfbf" stroke="black" points="0.5,-40.5 0.5,-61.5 97.5,-61.5 97.5,-40.5 0.5,-40.5"/>
<text text-anchor="middle" x="49" y="-48.5" font-family="Helvetica,sans-Serif" font-size="10.00">World::zoneAdded</text>
</g>
<!-- Node2 -->
<g id="node3" class="node"><title>Node2</title>
<a xlink:href="class_viewport.html#a8df3511c07ed30bada06ac942303f668" target="_top" xlink:title="Viewport::Viewport">
<polygon fill="white" stroke="black" points="134.5,-79.5 134.5,-100.5 233.5,-100.5 233.5,-79.5 134.5,-79.5"/>
<text text-anchor="middle" x="184" y="-87.5" font-family="Helvetica,sans-Serif" font-size="10.00">Viewport::Viewport</text>
</a>
</g>
<!-- Node1&#45;&gt;Node2 -->
<g id="edge2" class="edge"><title>Node1&#45;&gt;Node2</title>
<path fill="none" stroke="midnightblue" d="M95.2949,-64.3741C112.332,-69.2961 131.376,-74.7976 147.438,-79.4376"/>
<polygon fill="midnightblue" stroke="midnightblue" points="96.1115,-60.9669 85.5329,-61.554 94.1687,-67.6919 96.1115,-60.9669"/>
</g>
<!-- Node3 -->
<g id="node5" class="node"><title>Node3</title>
<a xlink:href="class_viewport.html#ab6bea61fac9caf74cf37fe91861b42e3" target="_top" xlink:title="Viewport::clearLevel">
<polygon fill="white" stroke="black" points="272.5,-40.5 272.5,-61.5 377.5,-61.5 377.5,-40.5 272.5,-40.5"/>
<text text-anchor="middle" x="325" y="-48.5" font-family="Helvetica,sans-Serif" font-size="10.00">Viewport::clearLevel</text>
</a>
</g>
<!-- Node1&#45;&gt;Node3 -->
<g id="edge4" class="edge"><title>Node1&#45;&gt;Node3</title>
<path fill="none" stroke="midnightblue" d="M107.782,-51C156.478,-51 225.072,-51 272.075,-51"/>
<polygon fill="midnightblue" stroke="midnightblue" points="107.708,-47.5001 97.7079,-51 107.708,-54.5001 107.708,-47.5001"/>
</g>
<!-- Node4 -->
<g id="node7" class="node"><title>Node4</title>
<a xlink:href="class_world.html#ad705d80a512244721b55c69bccab5653" target="_top" xlink:title="World::addZone">
<polygon fill="white" stroke="black" points="141,-1.5 141,-22.5 227,-22.5 227,-1.5 141,-1.5"/>
<text text-anchor="middle" x="184" y="-9.5" font-family="Helvetica,sans-Serif" font-size="10.00">World::addZone</text>
</a>
</g>
<!-- Node1&#45;&gt;Node4 -->
<g id="edge6" class="edge"><title>Node1&#45;&gt;Node4</title>
<path fill="none" stroke="midnightblue" d="M95.2949,-37.6259C112.332,-32.7039 131.376,-27.2024 147.438,-22.5624"/>
<polygon fill="midnightblue" stroke="midnightblue" points="94.1687,-34.3081 85.5329,-40.446 96.1115,-41.0331 94.1687,-34.3081"/>
</g>
<!-- Node4&#45;&gt;Node3 -->
<g id="edge10" class="edge"><title>Node4&#45;&gt;Node3</title>
<path fill="none" stroke="midnightblue" d="M231.854,-25.2362C249.775,-30.1931 269.881,-35.7542 286.813,-40.4376"/>
<polygon fill="midnightblue" stroke="midnightblue" points="232.728,-21.8466 222.157,-22.554 230.862,-28.5932 232.728,-21.8466"/>
</g>
<!-- Node5 -->
<g id="node9" class="node"><title>Node5</title>
<a xlink:href="class_viewport.html#a747eb6bce25dd9d205f3e5b99817d5cd" target="_top" xlink:title="Viewport::initializeGL">
<polygon fill="white" stroke="black" points="270.5,-0.5 270.5,-21.5 379.5,-21.5 379.5,-0.5 270.5,-0.5"/>
<text text-anchor="middle" x="325" y="-8.5" font-family="Helvetica,sans-Serif" font-size="10.00">Viewport::initializeGL</text>
</a>
</g>
<!-- Node4&#45;&gt;Node5 -->
<g id="edge8" class="edge"><title>Node4&#45;&gt;Node5</title>
<path fill="none" stroke="midnightblue" d="M237.266,-11.6222C248.124,-11.5452 259.562,-11.4641 270.464,-11.3868"/>
<polygon fill="midnightblue" stroke="midnightblue" points="237.046,-8.1236 227.071,-11.6945 237.095,-15.1234 237.046,-8.1236"/>
</g>
</g>
</svg>
