<?xml version="1.0" encoding="UTF-8" standalone="no"?>
<!DOCTYPE svg PUBLIC "-//W3C//DTD SVG 1.1//EN"
 "http://www.w3.org/Graphics/SVG/1.1/DTD/svg11.dtd">
<!-- Generated by graphviz version 2.26.3 (20100126.1600)
 -->
<!-- Title: Viewport::initLight Pages: 1 -->
<svg width="230pt" height="70pt"
 viewBox="0.00 0.00 230.00 70.00" xmlns="http://www.w3.org/2000/svg" xmlns:xlink="http://www.w3.org/1999/xlink">
<g id="graph1" class="graph" transform="scale(1 1) rotate(0) translate(4 66)">
<title>Viewport::initLight</title>
<polygon fill="white" stroke="white" points="-4,5 -4,-66 227,-66 227,5 -4,5"/>
<!-- Node1 -->
<g id="node1" class="node"><title>Node1</title>
<polygon fill="#bfbfbf" stroke="black" points="0.5,-20.5 0.5,-41.5 95.5,-41.5 95.5,-20.5 0.5,-20.5"/>
<text text-anchor="middle" x="48" y="-28.5" font-family="Helvetica,sans-Serif" font-size="10.00">Viewport::initLight</text>
</g>
<!-- Node2 -->
<g id="node3" class="node"><title>Node2</title>
<a xlink:href="class_light.html#a5466743e73bc1f6e0dd198baf7697ed5" target="_top" xlink:title="Light::getBuffer">
<polygon fill="white" stroke="black" points="135.5,-40.5 135.5,-61.5 218.5,-61.5 218.5,-40.5 135.5,-40.5"/>
<text text-anchor="middle" x="177" y="-48.5" font-family="Helvetica,sans-Serif" font-size="10.00">Light::getBuffer</text>
</a>
</g>
<!-- Node1&#45;&gt;Node2 -->
<g id="edge2" class="edge"><title>Node1&#45;&gt;Node2</title>
<path fill="none" stroke="midnightblue" d="M95.6683,-38.3904C105.363,-39.8935 115.603,-41.4812 125.427,-43.0041"/>
<polygon fill="midnightblue" stroke="midnightblue" points="125.054,-46.4881 135.472,-44.5616 126.126,-39.5707 125.054,-46.4881"/>
</g>
<!-- Node3 -->
<g id="node5" class="node"><title>Node3</title>
<a xlink:href="class_light.html#ac5414b33c1c3cf0940f9979dceb60087" target="_top" xlink:title="Light::getTexture">
<polygon fill="white" stroke="black" points="132,-0.5 132,-21.5 222,-21.5 222,-0.5 132,-0.5"/>
<text text-anchor="middle" x="177" y="-8.5" font-family="Helvetica,sans-Serif" font-size="10.00">Light::getTexture</text>
</a>
</g>
<!-- Node1&#45;&gt;Node3 -->
<g id="edge4" class="edge"><title>Node1&#45;&gt;Node3</title>
<path fill="none" stroke="midnightblue" d="M95.6683,-23.6096C104.128,-22.2979 113.004,-20.9219 121.655,-19.5806"/>
<polygon fill="midnightblue" stroke="midnightblue" points="122.324,-23.0188 131.67,-18.028 121.251,-16.1014 122.324,-23.0188"/>
</g>
</g>
</svg>
