<?xml version="1.0" encoding="UTF-8" standalone="no"?>
<!DOCTYPE svg PUBLIC "-//W3C//DTD SVG 1.1//EN"
 "http://www.w3.org/Graphics/SVG/1.1/DTD/svg11.dtd">
<!-- Generated by graphviz version 2.26.3 (20100126.1600)
 -->
<!-- Title: Camera::right Pages: 1 -->
<svg width="484pt" height="110pt"
 viewBox="0.00 0.00 484.00 110.00" xmlns="http://www.w3.org/2000/svg" xmlns:xlink="http://www.w3.org/1999/xlink">
<g id="graph1" class="graph" transform="scale(1 1) rotate(0) translate(4 106)">
<title>Camera::right</title>
<polygon fill="white" stroke="white" points="-4,5 -4,-106 481,-106 481,5 -4,5"/>
<!-- Node1 -->
<g id="node1" class="node"><title>Node1</title>
<polygon fill="#bfbfbf" stroke="black" points="0,-40.5 0,-61.5 76,-61.5 76,-40.5 0,-40.5"/>
<text text-anchor="middle" x="38" y="-48.5" font-family="Helvetica,sans-Serif" font-size="10.00">Camera::right</text>
</g>
<!-- Node2 -->
<g id="node3" class="node"><title>Node2</title>
<a xlink:href="class_camera.html#a9936c788ad482b40b5a3548bf5e97247" target="_top" xlink:title="Camera::up">
<polygon fill="white" stroke="black" points="112,-40.5 112,-61.5 180,-61.5 180,-40.5 112,-40.5"/>
<text text-anchor="middle" x="146" y="-48.5" font-family="Helvetica,sans-Serif" font-size="10.00">Camera::up</text>
</a>
</g>
<!-- Node1&#45;&gt;Node2 -->
<g id="edge2" class="edge"><title>Node1&#45;&gt;Node2</title>
<path fill="none" stroke="midnightblue" d="M86.1186,-51C94.7995,-51 103.686,-51 111.865,-51"/>
<polygon fill="midnightblue" stroke="midnightblue" points="86.0768,-47.5001 76.0768,-51 86.0767,-54.5001 86.0768,-47.5001"/>
</g>
<!-- Node3 -->
<g id="node5" class="node"><title>Node3</title>
<a xlink:href="class_camera.html#a37709eb62bc8b5ff7fd3087b891fcdf6" target="_top" xlink:title="Camera::orientation">
<polygon fill="white" stroke="black" points="229,-80.5 229,-101.5 331,-101.5 331,-80.5 229,-80.5"/>
<text text-anchor="middle" x="280" y="-88.5" font-family="Helvetica,sans-Serif" font-size="10.00">Camera::orientation</text>
</a>
</g>
<!-- Node1&#45;&gt;Node3 -->
<g id="edge12" class="edge"><title>Node1&#45;&gt;Node3</title>
<path fill="none" stroke="midnightblue" d="M82.5707,-64.1687C92.2145,-66.7022 102.4,-69.1415 112,-71 150.93,-78.5366 195.521,-83.6863 228.975,-86.8706"/>
<polygon fill="midnightblue" stroke="midnightblue" points="83.3311,-60.7487 72.764,-61.5148 81.5025,-67.5056 83.3311,-60.7487"/>
</g>
<!-- Node6 -->
<g id="node11" class="node"><title>Node6</title>
<a xlink:href="class_viewport.html#ae3b6b681561ee1ef2bdb96d27bd2a1f0" target="_top" xlink:title="Viewport::keyPressEvent">
<polygon fill="white" stroke="black" points="216,-0.5 216,-21.5 344,-21.5 344,-0.5 216,-0.5"/>
<text text-anchor="middle" x="280" y="-8.5" font-family="Helvetica,sans-Serif" font-size="10.00">Viewport::keyPressEvent</text>
</a>
</g>
<!-- Node1&#45;&gt;Node6 -->
<g id="edge14" class="edge"><title>Node1&#45;&gt;Node6</title>
<path fill="none" stroke="midnightblue" d="M82.5707,-37.8313C92.2145,-35.2978 102.4,-32.8585 112,-31 146.028,-24.4125 184.38,-19.6485 215.841,-16.4267"/>
<polygon fill="midnightblue" stroke="midnightblue" points="81.5025,-34.4944 72.764,-40.4852 83.3311,-41.2513 81.5025,-34.4944"/>
</g>
<!-- Node2&#45;&gt;Node3 -->
<g id="edge4" class="edge"><title>Node2&#45;&gt;Node3</title>
<path fill="none" stroke="midnightblue" d="M190.217,-64.1991C207.839,-69.4595 227.849,-75.4325 244.499,-80.4025"/>
<polygon fill="midnightblue" stroke="midnightblue" points="190.744,-60.7038 180.161,-61.1972 188.742,-67.4114 190.744,-60.7038"/>
</g>
<!-- Node4 -->
<g id="node7" class="node"><title>Node4</title>
<a xlink:href="class_camera.html#af81adf3ba7f63429a9d5356c218da78f" target="_top" xlink:title="Camera::view">
<polygon fill="white" stroke="black" points="241.5,-40.5 241.5,-61.5 318.5,-61.5 318.5,-40.5 241.5,-40.5"/>
<text text-anchor="middle" x="280" y="-48.5" font-family="Helvetica,sans-Serif" font-size="10.00">Camera::view</text>
</a>
</g>
<!-- Node2&#45;&gt;Node4 -->
<g id="edge6" class="edge"><title>Node2&#45;&gt;Node4</title>
<path fill="none" stroke="midnightblue" d="M190.579,-51C206.949,-51 225.337,-51 241.163,-51"/>
<polygon fill="midnightblue" stroke="midnightblue" points="190.161,-47.5001 180.161,-51 190.161,-54.5001 190.161,-47.5001"/>
</g>
<!-- Node2&#45;&gt;Node6 -->
<g id="edge10" class="edge"><title>Node2&#45;&gt;Node6</title>
<path fill="none" stroke="midnightblue" d="M190.217,-37.8009C207.839,-32.5405 227.849,-26.5675 244.499,-21.5975"/>
<polygon fill="midnightblue" stroke="midnightblue" points="188.742,-34.5886 180.161,-40.8028 190.744,-41.2962 188.742,-34.5886"/>
</g>
<!-- Node5 -->
<g id="node9" class="node"><title>Node5</title>
<a xlink:href="class_viewport.html#a3c2c4661eac1f6351392b8fe133423f5" target="_top" xlink:title="Viewport::paintGL">
<polygon fill="white" stroke="black" points="380.5,-40.5 380.5,-61.5 475.5,-61.5 475.5,-40.5 380.5,-40.5"/>
<text text-anchor="middle" x="428" y="-48.5" font-family="Helvetica,sans-Serif" font-size="10.00">Viewport::paintGL</text>
</a>
</g>
<!-- Node4&#45;&gt;Node5 -->
<g id="edge8" class="edge"><title>Node4&#45;&gt;Node5</title>
<path fill="none" stroke="midnightblue" d="M328.916,-51C345.477,-51 363.938,-51 380.395,-51"/>
<polygon fill="midnightblue" stroke="midnightblue" points="328.885,-47.5001 318.885,-51 328.885,-54.5001 328.885,-47.5001"/>
</g>
</g>
</svg>
