<?xml version="1.0" encoding="UTF-8" standalone="no"?>
<!DOCTYPE svg PUBLIC "-//W3C//DTD SVG 1.1//EN"
 "http://www.w3.org/Graphics/SVG/1.1/DTD/svg11.dtd">
<!-- Generated by graphviz version 2.26.3 (20100126.1600)
 -->
<!-- Title: GeoBase Pages: 1 -->
<svg width="249pt" height="342pt"
 viewBox="0.00 0.00 249.00 342.00" xmlns="http://www.w3.org/2000/svg" xmlns:xlink="http://www.w3.org/1999/xlink">
<g id="graph1" class="graph" transform="scale(1 1) rotate(0) translate(4 338)">
<title>GeoBase</title>
<polygon fill="white" stroke="white" points="-4,5 -4,-338 246,-338 246,5 -4,5"/>
<!-- Node1 -->
<g id="node1" class="node"><title>Node1</title>
<polygon fill="#bfbfbf" stroke="black" points="89.5,-192.5 89.5,-213.5 146.5,-213.5 146.5,-192.5 89.5,-192.5"/>
<text text-anchor="middle" x="118" y="-200.5" font-family="Helvetica,sans-Serif" font-size="10.00">GeoBase</text>
</g>
<!-- Node4 -->
<g id="node7" class="node"><title>Node4</title>
<a xlink:href="class_geometry.html" target="_top" xlink:title="Base de toutes les géometries. ">
<polygon fill="white" stroke="black" points="68,-132.5 68,-153.5 168,-153.5 168,-132.5 68,-132.5"/>
<text text-anchor="middle" x="118" y="-140.5" font-family="Helvetica,sans-Serif" font-size="10.00">Geometry&lt; Child &gt;</text>
</a>
</g>
<!-- Node1&#45;&gt;Node4 -->
<g id="edge6" class="edge"><title>Node1&#45;&gt;Node4</title>
<path fill="none" stroke="midnightblue" d="M118,-182.231C118,-172.592 118,-161.544 118,-153.634"/>
<polygon fill="midnightblue" stroke="midnightblue" points="114.5,-182.273 118,-192.273 121.5,-182.273 114.5,-182.273"/>
</g>
<!-- Node5 -->
<g id="node9" class="node"><title>Node5</title>
<a xlink:href="class_geometry.html" target="_top" xlink:title="Geometry\&lt; Cube \&gt;">
<polygon fill="white" stroke="black" points="-0.5,-60.5 -0.5,-81.5 100.5,-81.5 100.5,-60.5 -0.5,-60.5"/>
<text text-anchor="middle" x="50" y="-68.5" font-family="Helvetica,sans-Serif" font-size="10.00">Geometry&lt; Cube &gt;</text>
</a>
</g>
<!-- Node1&#45;&gt;Node5 -->
<g id="edge16" class="edge"><title>Node1&#45;&gt;Node5</title>
<path fill="none" stroke="midnightblue" d="M90.0501,-186.655C78.483,-178.386 66.1289,-167.273 59,-154 46.4498,-130.633 47.2435,-98.2601 48.7166,-81.6978"/>
<polygon fill="midnightblue" stroke="midnightblue" points="88.3869,-189.754 98.6427,-192.413 92.2835,-183.939 88.3869,-189.754"/>
</g>
<!-- Node7 -->
<g id="node13" class="node"><title>Node7</title>
<a xlink:href="class_geometry.html" target="_top" xlink:title="Geometry\&lt; Sphere \&gt;">
<polygon fill="white" stroke="black" points="133,-60.5 133,-81.5 241,-81.5 241,-60.5 133,-60.5"/>
<text text-anchor="middle" x="187" y="-68.5" font-family="Helvetica,sans-Serif" font-size="10.00">Geometry&lt; Sphere &gt;</text>
</a>
</g>
<!-- Node1&#45;&gt;Node7 -->
<g id="edge18" class="edge"><title>Node1&#45;&gt;Node7</title>
<path fill="none" stroke="midnightblue" d="M144.498,-186.435C156.004,-178.012 168.716,-166.838 177,-154 191.48,-131.561 190.311,-98.4999 188.508,-81.6782"/>
<polygon fill="midnightblue" stroke="midnightblue" points="142.243,-183.74 136.028,-192.321 146.237,-189.488 142.243,-183.74"/>
</g>
<!-- Node2 -->
<g id="node2" class="node"><title>Node2</title>
<a xlink:href="class_actor.html" target="_top" xlink:title="Base de tous les objets de la scène. ">
<polygon fill="white" stroke="black" points="98,-252.5 98,-273.5 138,-273.5 138,-252.5 98,-252.5"/>
<text text-anchor="middle" x="118" y="-260.5" font-family="Helvetica,sans-Serif" font-size="10.00">Actor</text>
</a>
</g>
<!-- Node2&#45;&gt;Node1 -->
<g id="edge2" class="edge"><title>Node2&#45;&gt;Node1</title>
<path fill="none" stroke="midnightblue" d="M118,-242.231C118,-232.592 118,-221.544 118,-213.634"/>
<polygon fill="midnightblue" stroke="midnightblue" points="114.5,-242.273 118,-252.273 121.5,-242.273 114.5,-242.273"/>
</g>
<!-- Node3 -->
<g id="node4" class="node"><title>Node3</title>
<a xlink:href="class_q_object.html" target="_top" xlink:title="QObject">
<polygon fill="white" stroke="black" points="91.5,-312.5 91.5,-333.5 144.5,-333.5 144.5,-312.5 91.5,-312.5"/>
<text text-anchor="middle" x="118" y="-320.5" font-family="Helvetica,sans-Serif" font-size="10.00">QObject</text>
</a>
</g>
<!-- Node3&#45;&gt;Node2 -->
<g id="edge4" class="edge"><title>Node3&#45;&gt;Node2</title>
<path fill="none" stroke="midnightblue" d="M118,-302.231C118,-292.592 118,-281.544 118,-273.634"/>
<polygon fill="midnightblue" stroke="midnightblue" points="114.5,-302.273 118,-312.273 121.5,-302.273 114.5,-302.273"/>
</g>
<!-- Node4&#45;&gt;Node5 -->
<g id="edge8" class="edge"><title>Node4&#45;&gt;Node5</title>
<path fill="none" stroke="orange" stroke-dasharray="5,2" d="M84.1332,-127.434C78.2309,-123.645 72.5389,-119.166 68,-114 59.7742,-104.637 54.9313,-90.9781 52.3779,-81.5801"/>
<polygon fill="orange" stroke="orange" points="82.4184,-130.485 92.8217,-132.491 85.9397,-124.436 82.4184,-130.485"/>
<text text-anchor="middle" x="90.5" y="-104.5" font-family="Helvetica,sans-Serif" font-size="10.00"> &lt; Cube &gt;</text>
</g>
<!-- Node4&#45;&gt;Node7 -->
<g id="edge12" class="edge"><title>Node4&#45;&gt;Node7</title>
<path fill="none" stroke="orange" stroke-dasharray="5,2" d="M123.352,-122.86C126.164,-115.069 130.253,-106.486 136,-100 142.823,-92.3006 152.2,-86.1625 161.055,-81.5522"/>
<polygon fill="orange" stroke="orange" points="120.012,-121.814 120.359,-132.403 126.691,-123.909 120.012,-121.814"/>
<text text-anchor="middle" x="162" y="-104.5" font-family="Helvetica,sans-Serif" font-size="10.00"> &lt; Sphere &gt;</text>
</g>
<!-- Node6 -->
<g id="node11" class="node"><title>Node6</title>
<a xlink:href="class_cube.html" target="_top" xlink:title="Un simple cube. ">
<polygon fill="white" stroke="black" points="30,-0.5 30,-21.5 70,-21.5 70,-0.5 30,-0.5"/>
<text text-anchor="middle" x="50" y="-8.5" font-family="Helvetica,sans-Serif" font-size="10.00">Cube</text>
</a>
</g>
<!-- Node5&#45;&gt;Node6 -->
<g id="edge10" class="edge"><title>Node5&#45;&gt;Node6</title>
<path fill="none" stroke="midnightblue" d="M50,-50.2312C50,-40.5922 50,-29.5444 50,-21.6339"/>
<polygon fill="midnightblue" stroke="midnightblue" points="46.5001,-50.2732 50,-60.2732 53.5001,-50.2732 46.5001,-50.2732"/>
</g>
<!-- Node8 -->
<g id="node15" class="node"><title>Node8</title>
<a xlink:href="class_sphere.html" target="_top" xlink:title="Une simple sphere. ">
<polygon fill="white" stroke="black" points="163.5,-0.5 163.5,-21.5 210.5,-21.5 210.5,-0.5 163.5,-0.5"/>
<text text-anchor="middle" x="187" y="-8.5" font-family="Helvetica,sans-Serif" font-size="10.00">Sphere</text>
</a>
</g>
<!-- Node7&#45;&gt;Node8 -->
<g id="edge14" class="edge"><title>Node7&#45;&gt;Node8</title>
<path fill="none" stroke="midnightblue" d="M187,-50.2312C187,-40.5922 187,-29.5444 187,-21.6339"/>
<polygon fill="midnightblue" stroke="midnightblue" points="183.5,-50.2732 187,-60.2732 190.5,-50.2732 183.5,-50.2732"/>
</g>
</g>
</svg>
