<?xml version="1.0" encoding="UTF-8" standalone="no"?>
<!DOCTYPE svg PUBLIC "-//W3C//DTD SVG 1.1//EN"
 "http://www.w3.org/Graphics/SVG/1.1/DTD/svg11.dtd">
<!-- Generated by graphviz version 2.26.3 (20100126.1600)
 -->
<!-- Title: Actor::moved Pages: 1 -->
<svg width="490pt" height="169pt"
 viewBox="0.00 0.00 490.00 169.00" xmlns="http://www.w3.org/2000/svg" xmlns:xlink="http://www.w3.org/1999/xlink">
<g id="graph1" class="graph" transform="scale(1 1) rotate(0) translate(4 165)">
<title>Actor::moved</title>
<polygon fill="white" stroke="white" points="-4,5 -4,-165 487,-165 487,5 -4,5"/>
<!-- Node1 -->
<g id="node1" class="node"><title>Node1</title>
<polygon fill="#bfbfbf" stroke="black" points="0.5,-19.5 0.5,-40.5 75.5,-40.5 75.5,-19.5 0.5,-19.5"/>
<text text-anchor="middle" x="38" y="-27.5" font-family="Helvetica,sans-Serif" font-size="10.00">Actor::moved</text>
</g>
<!-- Node2 -->
<g id="node3" class="node"><title>Node2</title>
<a xlink:href="class_actor.html#a422d0d3c1e343e794357669a34bb59e1" target="_top" xlink:title="Actor::setParent">
<polygon fill="white" stroke="black" points="112,-59.5 112,-80.5 200,-80.5 200,-59.5 112,-59.5"/>
<text text-anchor="middle" x="156" y="-67.5" font-family="Helvetica,sans-Serif" font-size="10.00">Actor::setParent</text>
</a>
</g>
<!-- Node1&#45;&gt;Node2 -->
<g id="edge2" class="edge"><title>Node1&#45;&gt;Node2</title>
<path fill="none" stroke="midnightblue" d="M78.6319,-43.7735C93.7486,-48.8978 110.652,-54.6279 124.794,-59.4218"/>
<polygon fill="midnightblue" stroke="midnightblue" points="79.5974,-40.4053 69.0031,-40.5095 77.3501,-47.0347 79.5974,-40.4053"/>
</g>
<!-- Node8 -->
<g id="node15" class="node"><title>Node8</title>
<a xlink:href="class_light.html#a30538cefe47541035db096b75133442d" target="_top" xlink:title="Light::Light">
<polygon fill="white" stroke="black" points="397.5,-0.5 397.5,-21.5 462.5,-21.5 462.5,-0.5 397.5,-0.5"/>
<text text-anchor="middle" x="430" y="-8.5" font-family="Helvetica,sans-Serif" font-size="10.00">Light::Light</text>
</a>
</g>
<!-- Node1&#45;&gt;Node8 -->
<g id="edge16" class="edge"><title>Node1&#45;&gt;Node8</title>
<path fill="none" stroke="midnightblue" d="M85.5172,-23.8439C125.563,-18.9819 184.418,-12.5986 236,-10 283.051,-7.6297 294.89,-9.73234 342,-10 360.334,-10.1042 380.816,-10.3304 397.404,-10.5414"/>
<polygon fill="midnightblue" stroke="midnightblue" points="85.0022,-20.3808 75.5043,-25.0755 85.8568,-27.3284 85.0022,-20.3808"/>
</g>
<!-- Node3 -->
<g id="node5" class="node"><title>Node3</title>
<a xlink:href="class_actor.html#aa0fc674ef09b215b67ff2fff69b79459" target="_top" xlink:title="Actor::Actor">
<polygon fill="white" stroke="black" points="254.5,-139.5 254.5,-160.5 323.5,-160.5 323.5,-139.5 254.5,-139.5"/>
<text text-anchor="middle" x="289" y="-147.5" font-family="Helvetica,sans-Serif" font-size="10.00">Actor::Actor</text>
</a>
</g>
<!-- Node2&#45;&gt;Node3 -->
<g id="edge4" class="edge"><title>Node2&#45;&gt;Node3</title>
<path fill="none" stroke="midnightblue" d="M175.865,-87.4185C191.425,-100.418 214.044,-117.943 236,-130 242.465,-133.55 249.692,-136.737 256.678,-139.468"/>
<polygon fill="midnightblue" stroke="midnightblue" points="177.881,-84.5382 167.996,-80.7255 173.345,-89.8704 177.881,-84.5382"/>
</g>
<!-- Node4 -->
<g id="node7" class="node"><title>Node4</title>
<a xlink:href="fileloader_8hpp.html#a48efbb80ebceb0d47fc8d9084562f597" target="_top" xlink:title="operator\&gt;\&gt;">
<polygon fill="white" stroke="black" points="257,-99.5 257,-120.5 321,-120.5 321,-99.5 257,-99.5"/>
<text text-anchor="middle" x="289" y="-107.5" font-family="Helvetica,sans-Serif" font-size="10.00">operator&gt;&gt;</text>
</a>
</g>
<!-- Node2&#45;&gt;Node4 -->
<g id="edge6" class="edge"><title>Node2&#45;&gt;Node4</title>
<path fill="none" stroke="midnightblue" d="M200.549,-83.3982C218.883,-88.9123 239.725,-95.1805 256.571,-100.247"/>
<polygon fill="midnightblue" stroke="midnightblue" points="201.529,-80.038 190.944,-80.5095 199.512,-86.7414 201.529,-80.038"/>
</g>
<!-- Node5 -->
<g id="node9" class="node"><title>Node5</title>
<a xlink:href="class_geo_base.html#a357c5534b7ac40df29f504c0e988e52e" target="_top" xlink:title="GeoBase::setParent">
<polygon fill="white" stroke="black" points="236.5,-59.5 236.5,-80.5 341.5,-80.5 341.5,-59.5 236.5,-59.5"/>
<text text-anchor="middle" x="289" y="-67.5" font-family="Helvetica,sans-Serif" font-size="10.00">GeoBase::setParent</text>
</a>
</g>
<!-- Node2&#45;&gt;Node5 -->
<g id="edge8" class="edge"><title>Node2&#45;&gt;Node5</title>
<path fill="none" stroke="midnightblue" d="M210.459,-70C218.94,-70 227.692,-70 236.136,-70"/>
<polygon fill="midnightblue" stroke="midnightblue" points="210.287,-66.5001 200.287,-70 210.287,-73.5001 210.287,-66.5001"/>
</g>
<!-- Node7 -->
<g id="node13" class="node"><title>Node7</title>
<a xlink:href="class_light.html#ab89261d1fa4fbbeaa61988502da207d3" target="_top" xlink:title="Light::setParent">
<polygon fill="white" stroke="black" points="246,-19.5 246,-40.5 332,-40.5 332,-19.5 246,-19.5"/>
<text text-anchor="middle" x="289" y="-27.5" font-family="Helvetica,sans-Serif" font-size="10.00">Light::setParent</text>
</a>
</g>
<!-- Node2&#45;&gt;Node7 -->
<g id="edge12" class="edge"><title>Node2&#45;&gt;Node7</title>
<path fill="none" stroke="midnightblue" d="M200.826,-56.5186C218.108,-51.3208 237.584,-45.4635 253.827,-40.5782"/>
<polygon fill="midnightblue" stroke="midnightblue" points="199.512,-53.2586 190.944,-59.4905 201.529,-59.962 199.512,-53.2586"/>
</g>
<!-- Node6 -->
<g id="node11" class="node"><title>Node6</title>
<a xlink:href="class_geo_base.html#a64d0302a4d85b1fe7946df7ebfaa2e33" target="_top" xlink:title="GeoBase::GeoBase">
<polygon fill="white" stroke="black" points="378,-59.5 378,-80.5 482,-80.5 482,-59.5 378,-59.5"/>
<text text-anchor="middle" x="430" y="-67.5" font-family="Helvetica,sans-Serif" font-size="10.00">GeoBase::GeoBase</text>
</a>
</g>
<!-- Node5&#45;&gt;Node6 -->
<g id="edge10" class="edge"><title>Node5&#45;&gt;Node6</title>
<path fill="none" stroke="midnightblue" d="M351.686,-70C360.452,-70 369.381,-70 377.922,-70"/>
<polygon fill="midnightblue" stroke="midnightblue" points="351.503,-66.5001 341.503,-70 351.503,-73.5001 351.503,-66.5001"/>
</g>
<!-- Node7&#45;&gt;Node8 -->
<g id="edge14" class="edge"><title>Node7&#45;&gt;Node8</title>
<path fill="none" stroke="midnightblue" d="M342.189,-22.8327C360.782,-20.3272 381.088,-17.5909 397.486,-15.3813"/>
<polygon fill="midnightblue" stroke="midnightblue" points="341.514,-19.392 332.071,-24.1961 342.449,-26.3293 341.514,-19.392"/>
</g>
</g>
</svg>
