<?xml version="1.0" encoding="UTF-8" standalone="no"?>
<!DOCTYPE svg PUBLIC "-//W3C//DTD SVG 1.1//EN"
 "http://www.w3.org/Graphics/SVG/1.1/DTD/svg11.dtd">
<!-- Generated by graphviz version 2.26.3 (20100126.1600)
 -->
<!-- Title: Actor::position Pages: 1 -->
<svg width="490pt" height="162pt"
 viewBox="0.00 0.00 490.00 162.00" xmlns="http://www.w3.org/2000/svg" xmlns:xlink="http://www.w3.org/1999/xlink">
<g id="graph1" class="graph" transform="scale(1 1) rotate(0) translate(4 158)">
<title>Actor::position</title>
<polygon fill="white" stroke="white" points="-4,5 -4,-158 487,-158 487,5 -4,5"/>
<!-- Node1 -->
<g id="node1" class="node"><title>Node1</title>
<polygon fill="#bfbfbf" stroke="black" points="0,-40.5 0,-61.5 80,-61.5 80,-40.5 0,-40.5"/>
<text text-anchor="middle" x="40" y="-48.5" font-family="Helvetica,sans-Serif" font-size="10.00">Actor::position</text>
</g>
<!-- Node2 -->
<g id="node3" class="node"><title>Node2</title>
<a xlink:href="class_actor.html#abbf942f60996c5df2a8c0a832bd91abc" target="_top" xlink:title="Actor::transform">
<polygon fill="white" stroke="black" points="128.5,-80.5 128.5,-101.5 215.5,-101.5 215.5,-80.5 128.5,-80.5"/>
<text text-anchor="middle" x="172" y="-88.5" font-family="Helvetica,sans-Serif" font-size="10.00">Actor::transform</text>
</a>
</g>
<!-- Node1&#45;&gt;Node2 -->
<g id="edge2" class="edge"><title>Node1&#45;&gt;Node2</title>
<path fill="none" stroke="midnightblue" d="M84.4885,-64.4814C101.641,-69.6792 120.971,-75.5365 137.092,-80.4218"/>
<polygon fill="midnightblue" stroke="midnightblue" points="85.2667,-61.0601 74.6814,-61.5095 83.2366,-67.7593 85.2667,-61.0601"/>
</g>
<!-- Node7 -->
<g id="node13" class="node"><title>Node7</title>
<a xlink:href="class_spotlight.html#a5901141395318038d54058bbbfc5b990" target="_top" xlink:title="Spotlight::updateView">
<polygon fill="white" stroke="black" points="116,-40.5 116,-61.5 228,-61.5 228,-40.5 116,-40.5"/>
<text text-anchor="middle" x="172" y="-48.5" font-family="Helvetica,sans-Serif" font-size="10.00">Spotlight::updateView</text>
</a>
</g>
<!-- Node1&#45;&gt;Node7 -->
<g id="edge12" class="edge"><title>Node1&#45;&gt;Node7</title>
<path fill="none" stroke="midnightblue" d="M90.5833,-51C98.8627,-51 107.485,-51 115.889,-51"/>
<polygon fill="midnightblue" stroke="midnightblue" points="90.3216,-47.5001 80.3216,-51 90.3216,-54.5001 90.3216,-47.5001"/>
</g>
<!-- Node8 -->
<g id="node15" class="node"><title>Node8</title>
<a xlink:href="class_viewport.html#aeb07f85bbe4f10ca8d8c7b46c8ebd23b" target="_top" xlink:title="Viewport::renderQuad">
<polygon fill="white" stroke="black" points="116.5,-0.5 116.5,-21.5 227.5,-21.5 227.5,-0.5 116.5,-0.5"/>
<text text-anchor="middle" x="172" y="-8.5" font-family="Helvetica,sans-Serif" font-size="10.00">Viewport::renderQuad</text>
</a>
</g>
<!-- Node1&#45;&gt;Node8 -->
<g id="edge14" class="edge"><title>Node1&#45;&gt;Node8</title>
<path fill="none" stroke="midnightblue" d="M84.4885,-37.5186C101.641,-32.3208 120.971,-26.4635 137.092,-21.5782"/>
<polygon fill="midnightblue" stroke="midnightblue" points="83.2366,-34.2407 74.6814,-40.4905 85.2667,-40.9399 83.2366,-34.2407"/>
</g>
<!-- Node3 -->
<g id="node5" class="node"><title>Node3</title>
<a xlink:href="class_geometry.html#a7cb8ea5e505f3933367d7ff9c6439985" target="_top" xlink:title="Geometry\&lt; Trigger \&gt;\l::draw">
<polygon fill="white" stroke="black" points="264.5,-120 264.5,-154 371.5,-154 371.5,-120 264.5,-120"/>
<text text-anchor="start" x="272.5" y="-141" font-family="Helvetica,sans-Serif" font-size="10.00">Geometry&lt; Trigger &gt;</text>
<text text-anchor="middle" x="318" y="-128" font-family="Helvetica,sans-Serif" font-size="10.00">::draw</text>
</a>
</g>
<!-- Node2&#45;&gt;Node3 -->
<g id="edge4" class="edge"><title>Node2&#45;&gt;Node3</title>
<path fill="none" stroke="midnightblue" d="M215.269,-104.633C230.664,-109.483 248.187,-115.004 264.347,-120.096"/>
<polygon fill="midnightblue" stroke="midnightblue" points="216.085,-101.22 205.495,-101.553 213.981,-107.897 216.085,-101.22"/>
</g>
<!-- Node5 -->
<g id="node9" class="node"><title>Node5</title>
<a xlink:href="class_group.html#af8d7df31c5fe4f8e22bd022c8735b6b2" target="_top" xlink:title="Group::draw">
<polygon fill="white" stroke="black" points="283,-80.5 283,-101.5 353,-101.5 353,-80.5 283,-80.5"/>
<text text-anchor="middle" x="318" y="-88.5" font-family="Helvetica,sans-Serif" font-size="10.00">Group::draw</text>
</a>
</g>
<!-- Node2&#45;&gt;Node5 -->
<g id="edge8" class="edge"><title>Node2&#45;&gt;Node5</title>
<path fill="none" stroke="midnightblue" d="M226.062,-91C244.924,-91 265.598,-91 282.556,-91"/>
<polygon fill="midnightblue" stroke="midnightblue" points="225.805,-87.5001 215.805,-91 225.805,-94.5001 225.805,-87.5001"/>
</g>
<!-- Node6 -->
<g id="node11" class="node"><title>Node6</title>
<a xlink:href="class_line.html#a1a11432f5239ebf18316369a400a9893" target="_top" xlink:title="Line::transform">
<polygon fill="white" stroke="black" points="277,-40.5 277,-61.5 359,-61.5 359,-40.5 277,-40.5"/>
<text text-anchor="middle" x="318" y="-48.5" font-family="Helvetica,sans-Serif" font-size="10.00">Line::transform</text>
</a>
</g>
<!-- Node2&#45;&gt;Node6 -->
<g id="edge10" class="edge"><title>Node2&#45;&gt;Node6</title>
<path fill="none" stroke="midnightblue" d="M220.186,-77.7985C239.498,-72.5073 261.441,-66.4955 279.643,-61.5087"/>
<polygon fill="midnightblue" stroke="midnightblue" points="219.08,-74.4724 210.36,-80.4905 220.929,-81.2237 219.08,-74.4724"/>
</g>
<!-- Node4 -->
<g id="node7" class="node"><title>Node4</title>
<a xlink:href="class_trigger.html#ae3e4635086dd4d53bbdedd0b02525daa" target="_top" xlink:title="Trigger::draw">
<polygon fill="white" stroke="black" points="408,-126.5 408,-147.5 482,-147.5 482,-126.5 408,-126.5"/>
<text text-anchor="middle" x="445" y="-134.5" font-family="Helvetica,sans-Serif" font-size="10.00">Trigger::draw</text>
</a>
</g>
<!-- Node3&#45;&gt;Node4 -->
<g id="edge6" class="edge"><title>Node3&#45;&gt;Node4</title>
<path fill="none" stroke="midnightblue" d="M381.913,-137C390.846,-137 399.769,-137 407.973,-137"/>
<polygon fill="midnightblue" stroke="midnightblue" points="381.859,-133.5 371.859,-137 381.859,-140.5 381.859,-133.5"/>
</g>
<!-- Node9 -->
<g id="node17" class="node"><title>Node9</title>
<a xlink:href="class_viewport.html#a3c2c4661eac1f6351392b8fe133423f5" target="_top" xlink:title="Viewport::paintGL">
<polygon fill="white" stroke="black" points="270.5,-0.5 270.5,-21.5 365.5,-21.5 365.5,-0.5 270.5,-0.5"/>
<text text-anchor="middle" x="318" y="-8.5" font-family="Helvetica,sans-Serif" font-size="10.00">Viewport::paintGL</text>
</a>
</g>
<!-- Node8&#45;&gt;Node9 -->
<g id="edge16" class="edge"><title>Node8&#45;&gt;Node9</title>
<path fill="none" stroke="midnightblue" d="M237.929,-11C248.789,-11 259.859,-11 270.167,-11"/>
<polygon fill="midnightblue" stroke="midnightblue" points="237.613,-7.5001 227.613,-11 237.613,-14.5001 237.613,-7.5001"/>
</g>
</g>
</svg>
