<?xml version="1.0" encoding="UTF-8" standalone="no"?>
<!DOCTYPE svg PUBLIC "-//W3C//DTD SVG 1.1//EN"
 "http://www.w3.org/Graphics/SVG/1.1/DTD/svg11.dtd">
<!-- Generated by graphviz version 2.26.3 (20100126.1600)
 -->
<!-- Title: Viewport::renderQuad Pages: 1 -->
<svg width="384pt" height="310pt"
 viewBox="0.00 0.00 384.00 310.00" xmlns="http://www.w3.org/2000/svg" xmlns:xlink="http://www.w3.org/1999/xlink">
<g id="graph1" class="graph" transform="scale(1 1) rotate(0) translate(4 306)">
<title>Viewport::renderQuad</title>
<polygon fill="white" stroke="white" points="-4,5 -4,-306 381,-306 381,5 -4,5"/>
<!-- Node1 -->
<g id="node1" class="node"><title>Node1</title>
<polygon fill="#bfbfbf" stroke="black" points="0.5,-140.5 0.5,-161.5 111.5,-161.5 111.5,-140.5 0.5,-140.5"/>
<text text-anchor="middle" x="56" y="-148.5" font-family="Helvetica,sans-Serif" font-size="10.00">Viewport::renderQuad</text>
</g>
<!-- Node2 -->
<g id="node3" class="node"><title>Node2</title>
<a xlink:href="class_world.html#a664cd2c63ef6c7979736cd454b31eb1c" target="_top" xlink:title="World::currentZone">
<polygon fill="white" stroke="black" points="148,-280.5 148,-301.5 248,-301.5 248,-280.5 148,-280.5"/>
<text text-anchor="middle" x="198" y="-288.5" font-family="Helvetica,sans-Serif" font-size="10.00">World::currentZone</text>
</a>
</g>
<!-- Node1&#45;&gt;Node2 -->
<g id="edge2" class="edge"><title>Node1&#45;&gt;Node2</title>
<path fill="none" stroke="midnightblue" d="M61.4601,-161.505C73.8687,-184.436 106.368,-239.443 148,-271 150.305,-272.747 152.783,-274.364 155.359,-275.857"/>
<polygon fill="midnightblue" stroke="midnightblue" points="153.885,-279.034 164.383,-280.462 157.067,-272.799 153.885,-279.034"/>
</g>
<!-- Node3 -->
<g id="node5" class="node"><title>Node3</title>
<a xlink:href="class_light.html#ac5414b33c1c3cf0940f9979dceb60087" target="_top" xlink:title="Light::getTexture">
<polygon fill="white" stroke="black" points="153,-240.5 153,-261.5 243,-261.5 243,-240.5 153,-240.5"/>
<text text-anchor="middle" x="198" y="-248.5" font-family="Helvetica,sans-Serif" font-size="10.00">Light::getTexture</text>
</a>
</g>
<!-- Node1&#45;&gt;Node3 -->
<g id="edge4" class="edge"><title>Node1&#45;&gt;Node3</title>
<path fill="none" stroke="midnightblue" d="M65.8504,-161.609C81.7748,-178.256 114.759,-210.706 148,-231 151.004,-232.834 154.205,-234.561 157.481,-236.172"/>
<polygon fill="midnightblue" stroke="midnightblue" points="156.256,-239.46 166.808,-240.403 159.147,-233.085 156.256,-239.46"/>
</g>
<!-- Node4 -->
<g id="node7" class="node"><title>Node4</title>
<a xlink:href="viewport_8cpp.html#ae7e24b600e4b06fe95d062b8fb71bc7a" target="_top" xlink:title="toVector">
<polygon fill="white" stroke="black" points="171.5,-200.5 171.5,-221.5 224.5,-221.5 224.5,-200.5 171.5,-200.5"/>
<text text-anchor="middle" x="198" y="-208.5" font-family="Helvetica,sans-Serif" font-size="10.00">toVector</text>
</a>
</g>
<!-- Node1&#45;&gt;Node4 -->
<g id="edge6" class="edge"><title>Node1&#45;&gt;Node4</title>
<path fill="none" stroke="midnightblue" d="M79.7448,-161.554C98.274,-169.734 124.694,-181.275 148,-191 152.508,-192.881 157.259,-194.828 161.966,-196.734"/>
<polygon fill="midnightblue" stroke="midnightblue" points="160.889,-200.074 171.473,-200.559 163.501,-193.579 160.889,-200.074"/>
</g>
<!-- Node5 -->
<g id="node9" class="node"><title>Node5</title>
<a xlink:href="class_light.html#a268d5bc710788f8457c1efc6038ea0a0" target="_top" xlink:title="Light::type">
<polygon fill="white" stroke="black" points="167,-160.5 167,-181.5 229,-181.5 229,-160.5 167,-160.5"/>
<text text-anchor="middle" x="198" y="-168.5" font-family="Helvetica,sans-Serif" font-size="10.00">Light::type</text>
</a>
</g>
<!-- Node1&#45;&gt;Node5 -->
<g id="edge8" class="edge"><title>Node1&#45;&gt;Node5</title>
<path fill="none" stroke="midnightblue" d="M111.715,-158.847C126.575,-160.94 142.372,-163.165 156.334,-165.132"/>
<polygon fill="midnightblue" stroke="midnightblue" points="156.216,-168.649 166.607,-166.578 157.193,-161.718 156.216,-168.649"/>
</g>
<!-- Node6 -->
<g id="node11" class="node"><title>Node6</title>
<a xlink:href="class_light.html#ab689087cc07b95273f6daae900a42010" target="_top" xlink:title="Light::direction">
<polygon fill="white" stroke="black" points="158,-120.5 158,-141.5 238,-141.5 238,-120.5 158,-120.5"/>
<text text-anchor="middle" x="198" y="-128.5" font-family="Helvetica,sans-Serif" font-size="10.00">Light::direction</text>
</a>
</g>
<!-- Node1&#45;&gt;Node6 -->
<g id="edge10" class="edge"><title>Node1&#45;&gt;Node6</title>
<path fill="none" stroke="midnightblue" d="M111.715,-143.153C123.614,-141.477 136.114,-139.716 147.791,-138.072"/>
<polygon fill="midnightblue" stroke="midnightblue" points="148.391,-141.522 157.805,-136.661 147.415,-134.59 148.391,-141.522"/>
</g>
<!-- Node8 -->
<g id="node15" class="node"><title>Node8</title>
<a xlink:href="class_light.html#a747a809f8abf05f41143279abb78df13" target="_top" xlink:title="Light::view">
<polygon fill="white" stroke="black" points="166,-80.5 166,-101.5 230,-101.5 230,-80.5 166,-80.5"/>
<text text-anchor="middle" x="198" y="-88.5" font-family="Helvetica,sans-Serif" font-size="10.00">Light::view</text>
</a>
</g>
<!-- Node1&#45;&gt;Node8 -->
<g id="edge14" class="edge"><title>Node1&#45;&gt;Node8</title>
<path fill="none" stroke="midnightblue" d="M79.7448,-140.446C98.274,-132.266 124.694,-120.725 148,-111 152.457,-109.14 157.151,-107.217 161.805,-105.331"/>
<polygon fill="midnightblue" stroke="midnightblue" points="163.243,-108.525 171.213,-101.545 160.63,-102.031 163.243,-108.525"/>
</g>
<!-- Node9 -->
<g id="node17" class="node"><title>Node9</title>
<a xlink:href="class_light.html#ae15381dfe25ed67531fa7b2a530399ad" target="_top" xlink:title="Light::projection">
<polygon fill="white" stroke="black" points="155,-40.5 155,-61.5 241,-61.5 241,-40.5 155,-40.5"/>
<text text-anchor="middle" x="198" y="-48.5" font-family="Helvetica,sans-Serif" font-size="10.00">Light::projection</text>
</a>
</g>
<!-- Node1&#45;&gt;Node9 -->
<g id="edge16" class="edge"><title>Node1&#45;&gt;Node9</title>
<path fill="none" stroke="midnightblue" d="M65.8504,-140.391C81.7748,-123.744 114.759,-91.2943 148,-71 151.004,-69.1662 154.205,-67.4393 157.481,-65.8275"/>
<polygon fill="midnightblue" stroke="midnightblue" points="159.147,-68.915 166.808,-61.5967 156.256,-62.5401 159.147,-68.915"/>
</g>
<!-- Node10 -->
<g id="node19" class="node"><title>Node10</title>
<a xlink:href="class_camera.html#a7276761c5214ec94f6ac35e5804f6719" target="_top" xlink:title="Camera::direction">
<polygon fill="white" stroke="black" points="151,-0.5 151,-21.5 245,-21.5 245,-0.5 151,-0.5"/>
<text text-anchor="middle" x="198" y="-8.5" font-family="Helvetica,sans-Serif" font-size="10.00">Camera::direction</text>
</a>
</g>
<!-- Node1&#45;&gt;Node10 -->
<g id="edge18" class="edge"><title>Node1&#45;&gt;Node10</title>
<path fill="none" stroke="midnightblue" d="M61.4601,-140.495C73.8687,-117.564 106.368,-62.5574 148,-31 150.305,-29.2527 152.783,-27.6357 155.359,-26.1429"/>
<polygon fill="midnightblue" stroke="midnightblue" points="157.067,-29.2009 164.383,-21.5377 153.885,-22.966 157.067,-29.2009"/>
</g>
<!-- Node7 -->
<g id="node13" class="node"><title>Node7</title>
<a xlink:href="class_actor.html#a748e07c73196050bfb0d51a14608aeae" target="_top" xlink:title="Actor::orientation">
<polygon fill="white" stroke="black" points="284.5,-120.5 284.5,-141.5 375.5,-141.5 375.5,-120.5 284.5,-120.5"/>
<text text-anchor="middle" x="330" y="-128.5" font-family="Helvetica,sans-Serif" font-size="10.00">Actor::orientation</text>
</a>
</g>
<!-- Node6&#45;&gt;Node7 -->
<g id="edge12" class="edge"><title>Node6&#45;&gt;Node7</title>
<path fill="none" stroke="midnightblue" d="M238.322,-131C249.694,-131 262.272,-131 274.373,-131"/>
<polygon fill="midnightblue" stroke="midnightblue" points="274.388,-134.5 284.388,-131 274.388,-127.5 274.388,-134.5"/>
</g>
</g>
</svg>
