<?xml version="1.0" encoding="UTF-8" standalone="no"?>
<!DOCTYPE svg PUBLIC "-//W3C//DTD SVG 1.1//EN"
 "http://www.w3.org/Graphics/SVG/1.1/DTD/svg11.dtd">
<!-- Generated by graphviz version 2.26.3 (20100126.1600)
 -->
<!-- Title: GeoBase::GeoBase Pages: 1 -->
<!--zoomable 128 -->
<svg id="main" version="1.1" xmlns="http://www.w3.org/2000/svg" xmlns:xlink="http://www.w3.org/1999/xlink" xml:space="preserve" onload="init(evt)">
<style type="text/css"><![CDATA[
.edge:hover path { stroke: red; }
.edge:hover polygon { stroke: red; fill: red; }
]]></style>
<script type="text/javascript"><![CDATA[
var edges = document.getElementsByTagName('g');
if (edges && edges.length) {
  for (var i=0;i<edges.length;i++) {
    if (edges[i].id.substr(0,4)=='edge') {
      edges[i].setAttribute('class','edge');
    }
  }
}
]]></script>
        <defs>
                <circle id="rim" cx="0" cy="0" r="7"/>
                <circle id="rim2" cx="0" cy="0" r="3.5"/>
                <g id="zoomPlus">
                        <use xlink:href="#rim" fill="#404040">
                                <set attributeName="fill" to="#808080" begin="zoomplus.mouseover" end="zoomplus.mouseout"/>
                        </use>
                        <path d="M-4,0h8M0,-4v8" fill="none" stroke="white" stroke-width="1.5" pointer-events="none"/>
                </g>
                <g id="zoomMin">
                        <use xlink:href="#rim" fill="#404040">
                                <set attributeName="fill" to="#808080" begin="zoomminus.mouseover" end="zoomminus.mouseout"/>
                        </use>
                        <path d="M-4,0h8" fill="none" stroke="white" stroke-width="1.5" pointer-events="none"/>
                </g>
                <g id="dirArrow">
                        <path fill="none" stroke="white" stroke-width="1.5" d="M0,-3.0v7 M-2.5,-0.5L0,-3.0L2.5,-0.5"/>
                </g>
               <g id="resetDef">
                       <use xlink:href="#rim2" fill="#404040">
                               <set attributeName="fill" to="#808080" begin="reset.mouseover" end="reset.mouseout"/>
                       </use>
               </g>
        </defs>

<script type="text/javascript">
var viewWidth = 678;
var viewHeight = 128;
var sectionId = 'dynsection-2';
</script>
<script xlink:href="svgpan.js"/>
<svg id="graph" class="graph">
<g id="viewport">
<title>GeoBase::GeoBase</title>
<polygon fill="white" stroke="white" points="-4,5 -4,-124 675,-124 675,5 -4,5"/>
<!-- Node1 -->
<g id="node1" class="node"><title>Node1</title>
<polygon fill="#bfbfbf" stroke="black" points="0,-59.5 0,-80.5 104,-80.5 104,-59.5 0,-59.5"/>
<text text-anchor="middle" x="52" y="-67.5" font-family="Helvetica,sans-Serif" font-size="10.00">GeoBase::GeoBase</text>
</g>
<!-- Node2 -->
<g id="node3" class="node"><title>Node2</title>
<a xlink:href="class_geo_base.html#a16b4bc39e07b404fa613142e62a89238" target="_top" xlink:title="GeoBase::material">
<polygon fill="white" stroke="black" points="144,-79.5 144,-100.5 242,-100.5 242,-79.5 144,-79.5"/>
<text text-anchor="middle" x="193" y="-87.5" font-family="Helvetica,sans-Serif" font-size="10.00">GeoBase::material</text>
</a>
</g>
<!-- Node1&#45;&gt;Node2 -->
<g id="edge2" class="edge"><title>Node1&#45;&gt;Node2</title>
<path fill="none" stroke="midnightblue" d="M104.103,-77.3904C113.768,-78.7614 123.929,-80.2027 133.788,-81.6011"/>
<polygon fill="midnightblue" stroke="midnightblue" points="133.526,-85.0989 143.919,-83.0381 134.509,-78.1683 133.526,-85.0989"/>
</g>
<!-- Node3 -->
<g id="node5" class="node"><title>Node3</title>
<a xlink:href="class_geo_base.html#a357c5534b7ac40df29f504c0e988e52e" target="_top" xlink:title="GeoBase::setParent">
<polygon fill="white" stroke="black" points="140.5,-39.5 140.5,-60.5 245.5,-60.5 245.5,-39.5 140.5,-39.5"/>
<text text-anchor="middle" x="193" y="-47.5" font-family="Helvetica,sans-Serif" font-size="10.00">GeoBase::setParent</text>
</a>
</g>
<!-- Node1&#45;&gt;Node3 -->
<g id="edge4" class="edge"><title>Node1&#45;&gt;Node3</title>
<path fill="none" stroke="midnightblue" d="M104.103,-62.6096C112.56,-61.4099 121.398,-60.1563 130.08,-58.9248"/>
<polygon fill="midnightblue" stroke="midnightblue" points="130.76,-62.3635 140.169,-57.4937 129.777,-55.4329 130.76,-62.3635"/>
</g>
<!-- Node4 -->
<g id="node7" class="node"><title>Node4</title>
<a xlink:href="class_actor.html#a422d0d3c1e343e794357669a34bb59e1" target="_top" xlink:title="Actor::setParent">
<polygon fill="white" stroke="black" points="282,-78.5 282,-99.5 370,-99.5 370,-78.5 282,-78.5"/>
<text text-anchor="middle" x="326" y="-86.5" font-family="Helvetica,sans-Serif" font-size="10.00">Actor::setParent</text>
</a>
</g>
<!-- Node3&#45;&gt;Node4 -->
<g id="edge6" class="edge"><title>Node3&#45;&gt;Node4</title>
<path fill="none" stroke="midnightblue" d="M228.992,-60.554C244.812,-65.1929 263.573,-70.6943 280.36,-75.617"/>
<polygon fill="midnightblue" stroke="midnightblue" points="279.399,-78.9823 289.98,-78.4376 281.368,-72.2651 279.399,-78.9823"/>
</g>
<!-- Node5 -->
<g id="node9" class="node"><title>Node5</title>
<a xlink:href="class_viewport.html#a5acb57e1d34f591dab00a8a40cd21855" target="_top" xlink:title="Viewport::updateLights">
<polygon fill="white" stroke="black" points="406,-58.5 406,-79.5 522,-79.5 522,-58.5 406,-58.5"/>
<text text-anchor="middle" x="464" y="-66.5" font-family="Helvetica,sans-Serif" font-size="10.00">Viewport::updateLights</text>
</a>
</g>
<!-- Node3&#45;&gt;Node5 -->
<g id="edge18" class="edge"><title>Node3&#45;&gt;Node5</title>
<path fill="none" stroke="midnightblue" d="M245.573,-53.6859C288.45,-56.692 349.327,-60.9602 395.925,-64.2272"/>
<polygon fill="midnightblue" stroke="midnightblue" points="395.719,-67.7213 405.94,-64.9294 396.209,-60.7384 395.719,-67.7213"/>
</g>
<!-- Node9 -->
<g id="node17" class="node"><title>Node9</title>
<a xlink:href="class_actor.html#ab3cce8c86e60c6b808ccd7732770f2cb" target="_top" xlink:title="Actor::viewport">
<polygon fill="white" stroke="black" points="284.5,-0.5 284.5,-21.5 367.5,-21.5 367.5,-0.5 284.5,-0.5"/>
<text text-anchor="middle" x="326" y="-8.5" font-family="Helvetica,sans-Serif" font-size="10.00">Actor::viewport</text>
</a>
</g>
<!-- Node3&#45;&gt;Node9 -->
<g id="edge16" class="edge"><title>Node3&#45;&gt;Node9</title>
<path fill="none" stroke="midnightblue" d="M228.992,-39.446C244.812,-34.8071 263.573,-29.3057 280.36,-24.383"/>
<polygon fill="midnightblue" stroke="midnightblue" points="281.368,-27.7349 289.98,-21.5624 279.399,-21.0177 281.368,-27.7349"/>
</g>
<!-- Node4&#45;&gt;Node5 -->
<g id="edge8" class="edge"><title>Node4&#45;&gt;Node5</title>
<path fill="none" stroke="midnightblue" d="M370.043,-82.6169C378.208,-81.4337 386.91,-80.1724 395.601,-78.913"/>
<polygon fill="midnightblue" stroke="midnightblue" points="396.369,-82.3383 405.763,-77.4401 395.364,-75.4107 396.369,-82.3383"/>
</g>
<!-- Node6 -->
<g id="node11" class="node"><title>Node6</title>
<a xlink:href="class_world.html#a45fac3748d15198a09ce257da35e6fcf" target="_top" xlink:title="World::zoneList">
<polygon fill="white" stroke="black" points="571.5,-98.5 571.5,-119.5 656.5,-119.5 656.5,-98.5 571.5,-98.5"/>
<text text-anchor="middle" x="614" y="-106.5" font-family="Helvetica,sans-Serif" font-size="10.00">World::zoneList</text>
</a>
</g>
<!-- Node5&#45;&gt;Node6 -->
<g id="edge10" class="edge"><title>Node5&#45;&gt;Node6</title>
<path fill="none" stroke="midnightblue" d="M503.411,-79.5095C522.198,-84.5193 544.863,-90.5634 564.77,-95.8721"/>
<polygon fill="midnightblue" stroke="midnightblue" points="564.028,-99.2964 574.592,-98.4913 565.832,-92.5328 564.028,-99.2964"/>
</g>
<!-- Node7 -->
<g id="node13" class="node"><title>Node7</title>
<a xlink:href="class_world.html#a664cd2c63ef6c7979736cd454b31eb1c" target="_top" xlink:title="World::currentZone">
<polygon fill="white" stroke="black" points="564,-58.5 564,-79.5 664,-79.5 664,-58.5 564,-58.5"/>
<text text-anchor="middle" x="614" y="-66.5" font-family="Helvetica,sans-Serif" font-size="10.00">World::currentZone</text>
</a>
</g>
<!-- Node5&#45;&gt;Node7 -->
<g id="edge12" class="edge"><title>Node5&#45;&gt;Node7</title>
<path fill="none" stroke="midnightblue" d="M522.423,-69C532.665,-69 543.34,-69 553.633,-69"/>
<polygon fill="midnightblue" stroke="midnightblue" points="553.769,-72.5001 563.769,-69 553.769,-65.5001 553.769,-72.5001"/>
</g>
<!-- Node8 -->
<g id="node15" class="node"><title>Node8</title>
<a xlink:href="class_viewport.html#ae2666049736ca227e0ddc0d23c431d96" target="_top" xlink:title="Viewport::updateLight">
<polygon fill="white" stroke="black" points="558.5,-18.5 558.5,-39.5 669.5,-39.5 669.5,-18.5 558.5,-18.5"/>
<text text-anchor="middle" x="614" y="-26.5" font-family="Helvetica,sans-Serif" font-size="10.00">Viewport::updateLight</text>
</a>
</g>
<!-- Node5&#45;&gt;Node8 -->
<g id="edge14" class="edge"><title>Node5&#45;&gt;Node8</title>
<path fill="none" stroke="midnightblue" d="M503.411,-58.4905C522.198,-53.4807 544.863,-47.4366 564.77,-42.1279"/>
<polygon fill="midnightblue" stroke="midnightblue" points="565.832,-45.4672 574.592,-39.5087 564.028,-38.7036 565.832,-45.4672"/>
</g>
</g>
</svg>
        <g id="navigator" transform="translate(0 0)" fill="#404254">
                <rect fill="#f2f5e9" fill-opacity="0.5" stroke="#606060" stroke-width=".5" x="0" y="0" width="60" height="60"/>
                <use id="zoomplus" xlink:href="#zoomPlus" x="17" y="9" onmousedown="handleZoom(evt,'in')"/>
                <use id="zoomminus" xlink:href="#zoomMin" x="42" y="9" onmousedown="handleZoom(evt,'out')"/>
                <use id="reset" xlink:href="#resetDef" x="30" y="36" onmousedown="handleReset()"/>
                <g id="arrowUp" xlink:href="#dirArrow" transform="translate(30 24)" onmousedown="handlePan(0,-1)">
                  <use xlink:href="#rim" fill="#404040">
                        <set attributeName="fill" to="#808080" begin="arrowUp.mouseover" end="arrowUp.mouseout"/>
                  </use>
                  <path fill="none" stroke="white" stroke-width="1.5" d="M0,-3.0v7 M-2.5,-0.5L0,-3.0L2.5,-0.5"/>
                </g>
                <g id="arrowRight" xlink:href="#dirArrow" transform="rotate(90) translate(36 -43)" onmousedown="handlePan(1,0)">
                  <use xlink:href="#rim" fill="#404040">
                        <set attributeName="fill" to="#808080" begin="arrowRight.mouseover" end="arrowRight.mouseout"/>
                  </use>
                  <path fill="none" stroke="white" stroke-width="1.5" d="M0,-3.0v7 M-2.5,-0.5L0,-3.0L2.5,-0.5"/>
                </g>
                <g id="arrowDown" xlink:href="#dirArrow" transform="rotate(180) translate(-30 -48)" onmousedown="handlePan(0,1)">
                  <use xlink:href="#rim" fill="#404040">
                        <set attributeName="fill" to="#808080" begin="arrowDown.mouseover" end="arrowDown.mouseout"/>
                  </use>
                  <path fill="none" stroke="white" stroke-width="1.5" d="M0,-3.0v7 M-2.5,-0.5L0,-3.0L2.5,-0.5"/>
                </g>
                <g id="arrowLeft" xlink:href="#dirArrow" transform="rotate(270) translate(-36 17)" onmousedown="handlePan(-1,0)">
                  <use xlink:href="#rim" fill="#404040">
                        <set attributeName="fill" to="#808080" begin="arrowLeft.mouseover" end="arrowLeft.mouseout"/>
                  </use>
                  <path fill="none" stroke="white" stroke-width="1.5" d="M0,-3.0v7 M-2.5,-0.5L0,-3.0L2.5,-0.5"/>
                </g>
        </g>
        <svg viewBox="0 0 15 15" width="100%" height="30px" preserveAspectRatio="xMaxYMin meet">
         <g id="arrow_out" transform="scale(0.3 0.3)">
          <a xlink:href="class_geo_base_a64d0302a4d85b1fe7946df7ebfaa2e33_cgraph_org.svg" target="_base">
           <rect id="button" ry="5" rx="5" y="6" x="6" height="38" width="38"
                fill="#f2f5e9" fill-opacity="0.5" stroke="#606060" stroke-width="1.0"/>
           <path id="arrow"
             d="M 11.500037,31.436501 C 11.940474,20.09759 22.043105,11.32322 32.158766,21.979434 L 37.068811,17.246167 C 37.068811,17.246167 37.088388,32 37.088388,32 L 22.160133,31.978069 C 22.160133,31.978069 26.997745,27.140456 26.997745,27.140456 C 18.528582,18.264221 13.291696,25.230495 11.500037,31.436501 z"
             style="fill:#404040;"/>
          </a>
         </g>
        </svg>
</svg>
