<?xml version="1.0" encoding="UTF-8" standalone="no"?>
<!DOCTYPE svg PUBLIC "-//W3C//DTD SVG 1.1//EN"
 "http://www.w3.org/Graphics/SVG/1.1/DTD/svg11.dtd">
<!-- Generated by graphviz version 2.26.3 (20100126.1600)
 -->
<!-- Title: Light::nearZ Pages: 1 -->
<svg width="220pt" height="110pt"
 viewBox="0.00 0.00 220.00 110.00" xmlns="http://www.w3.org/2000/svg" xmlns:xlink="http://www.w3.org/1999/xlink">
<g id="graph1" class="graph" transform="scale(1 1) rotate(0) translate(4 106)">
<title>Light::nearZ</title>
<polygon fill="white" stroke="white" points="-4,5 -4,-106 217,-106 217,5 -4,5"/>
<!-- Node1 -->
<g id="node1" class="node"><title>Node1</title>
<polygon fill="#bfbfbf" stroke="black" points="0,-40.5 0,-61.5 68,-61.5 68,-40.5 0,-40.5"/>
<text text-anchor="middle" x="34" y="-48.5" font-family="Helvetica,sans-Serif" font-size="10.00">Light::nearZ</text>
</g>
<!-- Node2 -->
<g id="node3" class="node"><title>Node2</title>
<a xlink:href="class_light.html#a30538cefe47541035db096b75133442d" target="_top" xlink:title="Light::Light">
<polygon fill="white" stroke="black" points="125.5,-80.5 125.5,-101.5 190.5,-101.5 190.5,-80.5 125.5,-80.5"/>
<text text-anchor="middle" x="158" y="-88.5" font-family="Helvetica,sans-Serif" font-size="10.00">Light::Light</text>
</a>
</g>
<!-- Node1&#45;&gt;Node2 -->
<g id="edge2" class="edge"><title>Node1&#45;&gt;Node2</title>
<path fill="none" stroke="midnightblue" d="M76.2446,-64.6273C92.2446,-69.7886 110.205,-75.5822 125.208,-80.4218"/>
<polygon fill="midnightblue" stroke="midnightblue" points="77.1712,-61.2486 66.5795,-61.5095 75.0221,-67.9106 77.1712,-61.2486"/>
</g>
<!-- Node3 -->
<g id="node5" class="node"><title>Node3</title>
<a xlink:href="class_spotlight.html#a00b11e643c97326edb0ab6b0dff3425a" target="_top" xlink:title="Spotlight::Spotlight">
<polygon fill="white" stroke="black" points="108.5,-40.5 108.5,-61.5 207.5,-61.5 207.5,-40.5 108.5,-40.5"/>
<text text-anchor="middle" x="158" y="-48.5" font-family="Helvetica,sans-Serif" font-size="10.00">Spotlight::Spotlight</text>
</a>
</g>
<!-- Node1&#45;&gt;Node3 -->
<g id="edge4" class="edge"><title>Node1&#45;&gt;Node3</title>
<path fill="none" stroke="midnightblue" d="M78.3792,-51C88.0189,-51 98.2783,-51 108.114,-51"/>
<polygon fill="midnightblue" stroke="midnightblue" points="78.2118,-47.5001 68.2118,-51 78.2118,-54.5001 78.2118,-47.5001"/>
</g>
<!-- Node4 -->
<g id="node7" class="node"><title>Node4</title>
<a xlink:href="class_spotlight.html#a516543f0f12a955076e2b39446b88bb0" target="_top" xlink:title="Spotlight::updateProj">
<polygon fill="white" stroke="black" points="104.5,-0.5 104.5,-21.5 211.5,-21.5 211.5,-0.5 104.5,-0.5"/>
<text text-anchor="middle" x="158" y="-8.5" font-family="Helvetica,sans-Serif" font-size="10.00">Spotlight::updateProj</text>
</a>
</g>
<!-- Node1&#45;&gt;Node4 -->
<g id="edge6" class="edge"><title>Node1&#45;&gt;Node4</title>
<path fill="none" stroke="midnightblue" d="M76.2446,-37.3727C92.2446,-32.2114 110.205,-26.4178 125.208,-21.5782"/>
<polygon fill="midnightblue" stroke="midnightblue" points="75.0221,-34.0894 66.5795,-40.4905 77.1712,-40.7514 75.0221,-34.0894"/>
</g>
</g>
</svg>
