<?xml version="1.0" encoding="UTF-8" standalone="no"?>
<!DOCTYPE svg PUBLIC "-//W3C//DTD SVG 1.1//EN"
 "http://www.w3.org/Graphics/SVG/1.1/DTD/svg11.dtd">
<!-- Generated by graphviz version 2.26.3 (20100126.1600)
 -->
<!-- Title: Viewport::zoneAdded Pages: 1 -->
<svg width="260pt" height="70pt"
 viewBox="0.00 0.00 260.00 70.00" xmlns="http://www.w3.org/2000/svg" xmlns:xlink="http://www.w3.org/1999/xlink">
<g id="graph1" class="graph" transform="scale(1 1) rotate(0) translate(4 66)">
<title>Viewport::zoneAdded</title>
<polygon fill="white" stroke="white" points="-4,5 -4,-66 257,-66 257,5 -4,5"/>
<!-- Node1 -->
<g id="node1" class="node"><title>Node1</title>
<polygon fill="#bfbfbf" stroke="black" points="0,-20.5 0,-41.5 110,-41.5 110,-20.5 0,-20.5"/>
<text text-anchor="middle" x="55" y="-28.5" font-family="Helvetica,sans-Serif" font-size="10.00">Viewport::zoneAdded</text>
</g>
<!-- Node2 -->
<g id="node3" class="node"><title>Node2</title>
<a xlink:href="class_viewport.html#a8df3511c07ed30bada06ac942303f668" target="_top" xlink:title="Viewport::Viewport">
<polygon fill="white" stroke="black" points="149.5,-40.5 149.5,-61.5 248.5,-61.5 248.5,-40.5 149.5,-40.5"/>
<text text-anchor="middle" x="199" y="-48.5" font-family="Helvetica,sans-Serif" font-size="10.00">Viewport::Viewport</text>
</a>
</g>
<!-- Node1&#45;&gt;Node2 -->
<g id="edge2" class="edge"><title>Node1&#45;&gt;Node2</title>
<path fill="none" stroke="midnightblue" d="M120.32,-40.0722C130.057,-41.4246 139.959,-42.7999 149.305,-44.0979"/>
<polygon fill="midnightblue" stroke="midnightblue" points="120.649,-36.5844 110.262,-38.6753 119.686,-43.5178 120.649,-36.5844"/>
</g>
<!-- Node3 -->
<g id="node5" class="node"><title>Node3</title>
<a xlink:href="class_viewport.html#ab6bea61fac9caf74cf37fe91861b42e3" target="_top" xlink:title="Viewport::clearLevel">
<polygon fill="white" stroke="black" points="146.5,-0.5 146.5,-21.5 251.5,-21.5 251.5,-0.5 146.5,-0.5"/>
<text text-anchor="middle" x="199" y="-8.5" font-family="Helvetica,sans-Serif" font-size="10.00">Viewport::clearLevel</text>
</a>
</g>
<!-- Node1&#45;&gt;Node3 -->
<g id="edge4" class="edge"><title>Node1&#45;&gt;Node3</title>
<path fill="none" stroke="midnightblue" d="M120.423,-21.9135C129.155,-20.7007 138.018,-19.4698 146.491,-18.293"/>
<polygon fill="midnightblue" stroke="midnightblue" points="119.686,-18.4822 110.262,-23.3247 120.649,-25.4156 119.686,-18.4822"/>
</g>
</g>
</svg>
