<?xml version="1.0" encoding="UTF-8" standalone="no"?>
<!DOCTYPE svg PUBLIC "-//W3C//DTD SVG 1.1//EN"
 "http://www.w3.org/Graphics/SVG/1.1/DTD/svg11.dtd">
<!-- Generated by graphviz version 2.26.3 (20100126.1600)
 -->
<!-- Title: Group Pages: 1 -->
<svg width="60pt" height="146pt"
 viewBox="0.00 0.00 60.00 146.00" xmlns="http://www.w3.org/2000/svg" xmlns:xlink="http://www.w3.org/1999/xlink">
<g id="graph1" class="graph" transform="scale(1 1) rotate(0) translate(4 142)">
<title>Group</title>
<polygon fill="white" stroke="white" points="-4,5 -4,-142 57,-142 57,5 -4,5"/>
<!-- Node1 -->
<g id="node1" class="node"><title>Node1</title>
<polygon fill="#bfbfbf" stroke="black" points="4.5,-0.5 4.5,-21.5 47.5,-21.5 47.5,-0.5 4.5,-0.5"/>
<text text-anchor="middle" x="26" y="-8.5" font-family="Helvetica,sans-Serif" font-size="10.00">Group</text>
</g>
<!-- Node2 -->
<g id="node2" class="node"><title>Node2</title>
<a xlink:href="class_actor.html" target="_top" xlink:title="Base de tous les objets de la scène. ">
<polygon fill="white" stroke="black" points="6,-58.5 6,-79.5 46,-79.5 46,-58.5 6,-58.5"/>
<text text-anchor="middle" x="26" y="-66.5" font-family="Helvetica,sans-Serif" font-size="10.00">Actor</text>
</a>
</g>
<!-- Node2&#45;&gt;Node1 -->
<g id="edge2" class="edge"><title>Node2&#45;&gt;Node1</title>
<path fill="none" stroke="midnightblue" d="M26,-48.1906C26,-39.1684 26,-28.9941 26,-21.5707"/>
<polygon fill="midnightblue" stroke="midnightblue" points="22.5001,-48.3619 26,-58.3619 29.5001,-48.3619 22.5001,-48.3619"/>
</g>
<!-- Node3 -->
<g id="node4" class="node"><title>Node3</title>
<a xlink:href="class_q_object.html" target="_top" xlink:title="QObject">
<polygon fill="white" stroke="black" points="-0.5,-116.5 -0.5,-137.5 52.5,-137.5 52.5,-116.5 -0.5,-116.5"/>
<text text-anchor="middle" x="26" y="-124.5" font-family="Helvetica,sans-Serif" font-size="10.00">QObject</text>
</a>
</g>
<!-- Node3&#45;&gt;Node2 -->
<g id="edge4" class="edge"><title>Node3&#45;&gt;Node2</title>
<path fill="none" stroke="midnightblue" d="M26,-106.191C26,-97.1684 26,-86.9941 26,-79.5707"/>
<polygon fill="midnightblue" stroke="midnightblue" points="22.5001,-106.362 26,-116.362 29.5001,-106.362 22.5001,-106.362"/>
</g>
</g>
</svg>
