<?xml version="1.0" encoding="UTF-8" standalone="no"?>
<!DOCTYPE svg PUBLIC "-//W3C//DTD SVG 1.1//EN"
 "http://www.w3.org/Graphics/SVG/1.1/DTD/svg11.dtd">
<!-- Generated by graphviz version 2.26.3 (20100126.1600)
 -->
<!-- Title: Actor::draw Pages: 1 -->
<svg width="208pt" height="70pt"
 viewBox="0.00 0.00 208.00 70.00" xmlns="http://www.w3.org/2000/svg" xmlns:xlink="http://www.w3.org/1999/xlink">
<g id="graph1" class="graph" transform="scale(1 1) rotate(0) translate(4 66)">
<title>Actor::draw</title>
<polygon fill="white" stroke="white" points="-4,5 -4,-66 205,-66 205,5 -4,5"/>
<!-- Node1 -->
<g id="node1" class="node"><title>Node1</title>
<polygon fill="#bfbfbf" stroke="black" points="0.5,-20.5 0.5,-41.5 67.5,-41.5 67.5,-20.5 0.5,-20.5"/>
<text text-anchor="middle" x="34" y="-28.5" font-family="Helvetica,sans-Serif" font-size="10.00">Actor::draw</text>
</g>
<!-- Node2 -->
<g id="node3" class="node"><title>Node2</title>
<a xlink:href="class_group.html#af8d7df31c5fe4f8e22bd022c8735b6b2" target="_top" xlink:title="Group::draw">
<polygon fill="white" stroke="black" points="117,-40.5 117,-61.5 187,-61.5 187,-40.5 117,-40.5"/>
<text text-anchor="middle" x="152" y="-48.5" font-family="Helvetica,sans-Serif" font-size="10.00">Group::draw</text>
</a>
</g>
<!-- Node1&#45;&gt;Node2 -->
<g id="edge2" class="edge"><title>Node1&#45;&gt;Node2</title>
<path fill="none" stroke="midnightblue" d="M77.8782,-38.437C90.7674,-40.6216 104.689,-42.9812 116.949,-45.0592"/>
<polygon fill="midnightblue" stroke="midnightblue" points="78.2584,-34.9516 67.8141,-36.7312 77.0885,-41.8531 78.2584,-34.9516"/>
</g>
<!-- Node3 -->
<g id="node5" class="node"><title>Node3</title>
<a xlink:href="class_viewport.html#a3c2c4661eac1f6351392b8fe133423f5" target="_top" xlink:title="Viewport::paintGL">
<polygon fill="white" stroke="black" points="104.5,-0.5 104.5,-21.5 199.5,-21.5 199.5,-0.5 104.5,-0.5"/>
<text text-anchor="middle" x="152" y="-8.5" font-family="Helvetica,sans-Serif" font-size="10.00">Viewport::paintGL</text>
</a>
</g>
<!-- Node1&#45;&gt;Node3 -->
<g id="edge4" class="edge"><title>Node1&#45;&gt;Node3</title>
<path fill="none" stroke="midnightblue" d="M77.9459,-23.5515C86.4783,-22.1054 95.4608,-20.5829 104.113,-19.1165"/>
<polygon fill="midnightblue" stroke="midnightblue" points="77.0885,-20.1469 67.8141,-25.2688 78.2584,-27.0484 77.0885,-20.1469"/>
</g>
</g>
</svg>
