<?xml version="1.0" encoding="UTF-8" standalone="no"?>
<!DOCTYPE svg PUBLIC "-//W3C//DTD SVG 1.1//EN"
 "http://www.w3.org/Graphics/SVG/1.1/DTD/svg11.dtd">
<!-- Generated by graphviz version 2.26.3 (20100126.1600)
 -->
<!-- Title: Spotlight::Spotlight Pages: 1 -->
<svg width="628pt" height="250pt"
 viewBox="0.00 0.00 628.00 250.00" xmlns="http://www.w3.org/2000/svg" xmlns:xlink="http://www.w3.org/1999/xlink">
<g id="graph1" class="graph" transform="scale(1 1) rotate(0) translate(4 246)">
<title>Spotlight::Spotlight</title>
<polygon fill="white" stroke="white" points="-4,5 -4,-246 625,-246 625,5 -4,5"/>
<!-- Node1 -->
<g id="node1" class="node"><title>Node1</title>
<polygon fill="#bfbfbf" stroke="black" points="0.5,-140.5 0.5,-161.5 99.5,-161.5 99.5,-140.5 0.5,-140.5"/>
<text text-anchor="middle" x="50" y="-148.5" font-family="Helvetica,sans-Serif" font-size="10.00">Spotlight::Spotlight</text>
</g>
<!-- Node2 -->
<g id="node3" class="node"><title>Node2</title>
<a xlink:href="class_light.html#adca0c1a95ed27e38676aee853420dced" target="_top" xlink:title="Light::nearZ">
<polygon fill="white" stroke="black" points="156,-220.5 156,-241.5 224,-241.5 224,-220.5 156,-220.5"/>
<text text-anchor="middle" x="190" y="-228.5" font-family="Helvetica,sans-Serif" font-size="10.00">Light::nearZ</text>
</a>
</g>
<!-- Node1&#45;&gt;Node2 -->
<g id="edge2" class="edge"><title>Node1&#45;&gt;Node2</title>
<path fill="none" stroke="midnightblue" d="M63.0238,-161.679C79.3101,-174.647 108.415,-196.571 136,-211 139.787,-212.981 143.815,-214.858 147.898,-216.611"/>
<polygon fill="midnightblue" stroke="midnightblue" points="146.854,-219.964 157.437,-220.465 149.477,-213.473 146.854,-219.964"/>
</g>
<!-- Node3 -->
<g id="node5" class="node"><title>Node3</title>
<a xlink:href="class_light.html#accf379b557fa086c827bae45cd141f3c" target="_top" xlink:title="Light::farZ">
<polygon fill="white" stroke="black" points="159.5,-180.5 159.5,-201.5 220.5,-201.5 220.5,-180.5 159.5,-180.5"/>
<text text-anchor="middle" x="190" y="-188.5" font-family="Helvetica,sans-Serif" font-size="10.00">Light::farZ</text>
</a>
</g>
<!-- Node1&#45;&gt;Node3 -->
<g id="edge4" class="edge"><title>Node1&#45;&gt;Node3</title>
<path fill="none" stroke="midnightblue" d="M86.7834,-161.51C106.05,-167.014 129.688,-173.768 149.479,-179.423"/>
<polygon fill="midnightblue" stroke="midnightblue" points="148.564,-182.801 159.141,-182.183 150.487,-176.071 148.564,-182.801"/>
</g>
<!-- Node4 -->
<g id="node7" class="node"><title>Node4</title>
<a xlink:href="class_spotlight.html#af8c0a59e8c0814ed2ba49135cf0a592a" target="_top" xlink:title="Spotlight::outerAngle">
<polygon fill="white" stroke="black" points="136.5,-140.5 136.5,-161.5 243.5,-161.5 243.5,-140.5 136.5,-140.5"/>
<text text-anchor="middle" x="190" y="-148.5" font-family="Helvetica,sans-Serif" font-size="10.00">Spotlight::outerAngle</text>
</a>
</g>
<!-- Node1&#45;&gt;Node4 -->
<g id="edge6" class="edge"><title>Node1&#45;&gt;Node4</title>
<path fill="none" stroke="midnightblue" d="M99.753,-151C108.226,-151 117.133,-151 125.914,-151"/>
<polygon fill="midnightblue" stroke="midnightblue" points="126.132,-154.5 136.132,-151 126.132,-147.5 126.132,-154.5"/>
</g>
<!-- Node5 -->
<g id="node9" class="node"><title>Node5</title>
<a xlink:href="class_spotlight.html#acc96169c59f1e1cf30384f2414350916" target="_top" xlink:title="Spotlight::innerAngle">
<polygon fill="white" stroke="black" points="136.5,-100.5 136.5,-121.5 243.5,-121.5 243.5,-100.5 136.5,-100.5"/>
<text text-anchor="middle" x="190" y="-108.5" font-family="Helvetica,sans-Serif" font-size="10.00">Spotlight::innerAngle</text>
</a>
</g>
<!-- Node1&#45;&gt;Node5 -->
<g id="edge8" class="edge"><title>Node1&#45;&gt;Node5</title>
<path fill="none" stroke="midnightblue" d="M86.7834,-140.49C104.089,-135.546 124.92,-129.594 143.324,-124.336"/>
<polygon fill="midnightblue" stroke="midnightblue" points="144.323,-127.691 152.976,-121.578 142.399,-120.96 144.323,-127.691"/>
</g>
<!-- Node6 -->
<g id="node11" class="node"><title>Node6</title>
<a xlink:href="class_light.html#a295eaf1ef5ebd30fa4997d4f7ccbb7e1" target="_top" xlink:title="Light::update">
<polygon fill="white" stroke="black" points="153.5,-60.5 153.5,-81.5 226.5,-81.5 226.5,-60.5 153.5,-60.5"/>
<text text-anchor="middle" x="190" y="-68.5" font-family="Helvetica,sans-Serif" font-size="10.00">Light::update</text>
</a>
</g>
<!-- Node1&#45;&gt;Node6 -->
<g id="edge10" class="edge"><title>Node1&#45;&gt;Node6</title>
<path fill="none" stroke="midnightblue" d="M63.0238,-140.321C79.3101,-127.353 108.415,-105.429 136,-91 139.787,-89.0191 143.815,-87.142 147.898,-85.3894"/>
<polygon fill="midnightblue" stroke="midnightblue" points="149.477,-88.5266 157.437,-81.5354 146.854,-82.0363 149.477,-88.5266"/>
</g>
<!-- Node7 -->
<g id="node13" class="node"><title>Node7</title>
<a xlink:href="class_light.html#afc11082a5405572dbec76735e73b6647" target="_top" xlink:title="Light::updateProj">
<polygon fill="white" stroke="black" points="283,-120.5 283,-141.5 373,-141.5 373,-120.5 283,-120.5"/>
<text text-anchor="middle" x="328" y="-128.5" font-family="Helvetica,sans-Serif" font-size="10.00">Light::updateProj</text>
</a>
</g>
<!-- Node6&#45;&gt;Node7 -->
<g id="edge12" class="edge"><title>Node6&#45;&gt;Node7</title>
<path fill="none" stroke="midnightblue" d="M220.888,-81.5185C228.535,-84.3734 236.642,-87.6176 244,-91 260.63,-98.6451 263.526,-103.023 280,-111 283.794,-112.837 287.8,-114.669 291.815,-116.437"/>
<polygon fill="midnightblue" stroke="midnightblue" points="290.535,-119.696 301.105,-120.418 293.292,-113.262 290.535,-119.696"/>
</g>
<!-- Node8 -->
<g id="node15" class="node"><title>Node8</title>
<a xlink:href="class_light.html#a123872c9df9d14ae79d4a76fee217e99" target="_top" xlink:title="Light::updateView">
<polygon fill="white" stroke="black" points="280.5,-80.5 280.5,-101.5 375.5,-101.5 375.5,-80.5 280.5,-80.5"/>
<text text-anchor="middle" x="328" y="-88.5" font-family="Helvetica,sans-Serif" font-size="10.00">Light::updateView</text>
</a>
</g>
<!-- Node6&#45;&gt;Node8 -->
<g id="edge14" class="edge"><title>Node6&#45;&gt;Node8</title>
<path fill="none" stroke="midnightblue" d="M226.619,-76.3071C239.984,-78.2441 255.445,-80.4848 270.203,-82.6237"/>
<polygon fill="midnightblue" stroke="midnightblue" points="269.876,-86.1127 280.274,-84.0832 270.88,-79.185 269.876,-86.1127"/>
</g>
<!-- Node11 -->
<g id="node21" class="node"><title>Node11</title>
<a xlink:href="class_light.html#a747a809f8abf05f41143279abb78df13" target="_top" xlink:title="Light::view">
<polygon fill="white" stroke="black" points="296,-40.5 296,-61.5 360,-61.5 360,-40.5 296,-40.5"/>
<text text-anchor="middle" x="328" y="-48.5" font-family="Helvetica,sans-Serif" font-size="10.00">Light::view</text>
</a>
</g>
<!-- Node6&#45;&gt;Node11 -->
<g id="edge20" class="edge"><title>Node6&#45;&gt;Node11</title>
<path fill="none" stroke="midnightblue" d="M226.619,-65.6929C244.81,-63.0565 266.884,-59.8574 285.784,-57.1182"/>
<polygon fill="midnightblue" stroke="midnightblue" points="286.518,-60.5485 295.913,-55.6503 285.514,-53.6208 286.518,-60.5485"/>
</g>
<!-- Node12 -->
<g id="node23" class="node"><title>Node12</title>
<a xlink:href="class_actor.html#ab3cce8c86e60c6b808ccd7732770f2cb" target="_top" xlink:title="Actor::viewport">
<polygon fill="white" stroke="black" points="286.5,-0.5 286.5,-21.5 369.5,-21.5 369.5,-0.5 286.5,-0.5"/>
<text text-anchor="middle" x="328" y="-8.5" font-family="Helvetica,sans-Serif" font-size="10.00">Actor::viewport</text>
</a>
</g>
<!-- Node6&#45;&gt;Node12 -->
<g id="edge22" class="edge"><title>Node6&#45;&gt;Node12</title>
<path fill="none" stroke="midnightblue" d="M213.244,-60.4901C231.378,-52.3339 257.227,-40.8033 280,-31 284.171,-29.2046 288.555,-27.3427 292.909,-25.5096"/>
<polygon fill="midnightblue" stroke="midnightblue" points="294.422,-28.6704 302.295,-21.5801 291.719,-22.2135 294.422,-28.6704"/>
</g>
<!-- Node9 -->
<g id="node17" class="node"><title>Node9</title>
<a xlink:href="class_light.html#ab689087cc07b95273f6daae900a42010" target="_top" xlink:title="Light::direction">
<polygon fill="white" stroke="black" points="412,-80.5 412,-101.5 492,-101.5 492,-80.5 412,-80.5"/>
<text text-anchor="middle" x="452" y="-88.5" font-family="Helvetica,sans-Serif" font-size="10.00">Light::direction</text>
</a>
</g>
<!-- Node8&#45;&gt;Node9 -->
<g id="edge16" class="edge"><title>Node8&#45;&gt;Node9</title>
<path fill="none" stroke="midnightblue" d="M375.587,-91C384.227,-91 393.262,-91 401.969,-91"/>
<polygon fill="midnightblue" stroke="midnightblue" points="401.998,-94.5001 411.998,-91 401.998,-87.5001 401.998,-94.5001"/>
</g>
<!-- Node10 -->
<g id="node19" class="node"><title>Node10</title>
<a xlink:href="class_actor.html#a748e07c73196050bfb0d51a14608aeae" target="_top" xlink:title="Actor::orientation">
<polygon fill="white" stroke="black" points="528.5,-80.5 528.5,-101.5 619.5,-101.5 619.5,-80.5 528.5,-80.5"/>
<text text-anchor="middle" x="574" y="-88.5" font-family="Helvetica,sans-Serif" font-size="10.00">Actor::orientation</text>
</a>
</g>
<!-- Node9&#45;&gt;Node10 -->
<g id="edge18" class="edge"><title>Node9&#45;&gt;Node10</title>
<path fill="none" stroke="midnightblue" d="M492.285,-91C500.566,-91 509.425,-91 518.143,-91"/>
<polygon fill="midnightblue" stroke="midnightblue" points="518.269,-94.5001 528.269,-91 518.269,-87.5001 518.269,-94.5001"/>
</g>
</g>
</svg>
