<?xml version="1.0" encoding="UTF-8" standalone="no"?>
<!DOCTYPE svg PUBLIC "-//W3C//DTD SVG 1.1//EN"
 "http://www.w3.org/Graphics/SVG/1.1/DTD/svg11.dtd">
<!-- Generated by graphviz version 2.26.3 (20100126.1600)
 -->
<!-- Title: Camera::direction Pages: 1 -->
<svg width="546pt" height="180pt"
 viewBox="0.00 0.00 546.00 180.00" xmlns="http://www.w3.org/2000/svg" xmlns:xlink="http://www.w3.org/1999/xlink">
<g id="graph1" class="graph" transform="scale(1 1) rotate(0) translate(4 176)">
<title>Camera::direction</title>
<polygon fill="white" stroke="white" points="-4,5 -4,-176 543,-176 543,5 -4,5"/>
<!-- Node1 -->
<g id="node1" class="node"><title>Node1</title>
<polygon fill="#bfbfbf" stroke="black" points="0,-78.5 0,-99.5 94,-99.5 94,-78.5 0,-78.5"/>
<text text-anchor="middle" x="47" y="-86.5" font-family="Helvetica,sans-Serif" font-size="10.00">Camera::direction</text>
</g>
<!-- Node2 -->
<g id="node3" class="node"><title>Node2</title>
<a xlink:href="class_camera.html#a9936c788ad482b40b5a3548bf5e97247" target="_top" xlink:title="Camera::up">
<polygon fill="white" stroke="black" points="152,-78.5 152,-99.5 220,-99.5 220,-78.5 152,-78.5"/>
<text text-anchor="middle" x="186" y="-86.5" font-family="Helvetica,sans-Serif" font-size="10.00">Camera::up</text>
</a>
</g>
<!-- Node1&#45;&gt;Node2 -->
<g id="edge2" class="edge"><title>Node1&#45;&gt;Node2</title>
<path fill="none" stroke="midnightblue" d="M104.451,-89C120.517,-89 137.469,-89 151.73,-89"/>
<polygon fill="midnightblue" stroke="midnightblue" points="104.059,-85.5001 94.0591,-89 104.059,-92.5001 104.059,-85.5001"/>
</g>
<!-- Node3 -->
<g id="node5" class="node"><title>Node3</title>
<a xlink:href="class_camera.html#a37709eb62bc8b5ff7fd3087b891fcdf6" target="_top" xlink:title="Camera::orientation">
<polygon fill="white" stroke="black" points="291,-150.5 291,-171.5 393,-171.5 393,-150.5 291,-150.5"/>
<text text-anchor="middle" x="342" y="-158.5" font-family="Helvetica,sans-Serif" font-size="10.00">Camera::orientation</text>
</a>
</g>
<!-- Node1&#45;&gt;Node3 -->
<g id="edge12" class="edge"><title>Node1&#45;&gt;Node3</title>
<path fill="none" stroke="midnightblue" d="M75.3608,-104.304C91.0607,-112.176 111.159,-121.292 130,-127 183.512,-143.213 247.099,-152.099 290.582,-156.679"/>
<polygon fill="midnightblue" stroke="midnightblue" points="76.6992,-101.057 66.2044,-99.6044 73.5029,-107.284 76.6992,-101.057"/>
</g>
<!-- Node4 -->
<g id="node7" class="node"><title>Node4</title>
<a xlink:href="class_camera.html#af81adf3ba7f63429a9d5356c218da78f" target="_top" xlink:title="Camera::view">
<polygon fill="white" stroke="black" points="303.5,-106.5 303.5,-127.5 380.5,-127.5 380.5,-106.5 303.5,-106.5"/>
<text text-anchor="middle" x="342" y="-114.5" font-family="Helvetica,sans-Serif" font-size="10.00">Camera::view</text>
</a>
</g>
<!-- Node1&#45;&gt;Node4 -->
<g id="edge14" class="edge"><title>Node1&#45;&gt;Node4</title>
<path fill="none" stroke="midnightblue" d="M93.9023,-102.018C105.606,-104.791 118.189,-107.371 130,-109 190.02,-117.28 260.441,-118.222 303.114,-117.838"/>
<polygon fill="midnightblue" stroke="midnightblue" points="94.4317,-98.5442 83.8848,-99.5516 92.7579,-105.341 94.4317,-98.5442"/>
</g>
<!-- Node6 -->
<g id="node11" class="node"><title>Node6</title>
<a xlink:href="class_viewport.html#ae3b6b681561ee1ef2bdb96d27bd2a1f0" target="_top" xlink:title="Viewport::keyPressEvent">
<polygon fill="white" stroke="black" points="278,-57.5 278,-78.5 406,-78.5 406,-57.5 278,-57.5"/>
<text text-anchor="middle" x="342" y="-65.5" font-family="Helvetica,sans-Serif" font-size="10.00">Viewport::keyPressEvent</text>
</a>
</g>
<!-- Node1&#45;&gt;Node6 -->
<g id="edge18" class="edge"><title>Node1&#45;&gt;Node6</title>
<path fill="none" stroke="midnightblue" d="M92.8322,-75.9519C104.827,-73.0907 117.815,-70.4766 130,-69 179.327,-63.0228 235.585,-63.0716 277.746,-64.453"/>
<polygon fill="midnightblue" stroke="midnightblue" points="91.8865,-72.5805 83.029,-78.3939 93.5785,-79.3729 91.8865,-72.5805"/>
</g>
<!-- Node7 -->
<g id="node15" class="node"><title>Node7</title>
<a xlink:href="class_viewport.html#a884441d496cf615dcd1456df15db4f2a" target="_top" xlink:title="Viewport::wheelEvent">
<polygon fill="white" stroke="black" points="130,-0.5 130,-21.5 242,-21.5 242,-0.5 130,-0.5"/>
<text text-anchor="middle" x="186" y="-8.5" font-family="Helvetica,sans-Serif" font-size="10.00">Viewport::wheelEvent</text>
</a>
</g>
<!-- Node1&#45;&gt;Node7 -->
<g id="edge16" class="edge"><title>Node1&#45;&gt;Node7</title>
<path fill="none" stroke="midnightblue" d="M70.5733,-72.6184C86.8847,-61.6172 109.298,-47.1508 130,-36 139.655,-30.7994 150.606,-25.7367 160.247,-21.5427"/>
<polygon fill="midnightblue" stroke="midnightblue" points="68.4825,-69.8077 62.1888,-78.3306 72.4238,-75.5927 68.4825,-69.8077"/>
</g>
<!-- Node2&#45;&gt;Node3 -->
<g id="edge4" class="edge"><title>Node2&#45;&gt;Node3</title>
<path fill="none" stroke="midnightblue" d="M213.528,-104.489C231.585,-114.366 255.866,-127.12 278,-137 288.728,-141.789 300.73,-146.463 311.416,-150.395"/>
<polygon fill="midnightblue" stroke="midnightblue" points="215.144,-101.383 204.697,-99.6162 211.762,-107.512 215.144,-101.383"/>
</g>
<!-- Node2&#45;&gt;Node4 -->
<g id="edge6" class="edge"><title>Node2&#45;&gt;Node4</title>
<path fill="none" stroke="midnightblue" d="M230.131,-96.9209C253.228,-101.067 281.242,-106.095 303.459,-110.082"/>
<polygon fill="midnightblue" stroke="midnightblue" points="230.696,-93.4665 220.235,-95.1447 229.459,-100.356 230.696,-93.4665"/>
</g>
<!-- Node2&#45;&gt;Node6 -->
<g id="edge10" class="edge"><title>Node2&#45;&gt;Node6</title>
<path fill="none" stroke="midnightblue" d="M230.537,-83.0046C245.213,-81.029 261.839,-78.7909 277.687,-76.6575"/>
<polygon fill="midnightblue" stroke="midnightblue" points="229.678,-79.5885 220.235,-84.3915 230.612,-86.526 229.678,-79.5885"/>
</g>
<!-- Node5 -->
<g id="node9" class="node"><title>Node5</title>
<a xlink:href="class_viewport.html#a3c2c4661eac1f6351392b8fe133423f5" target="_top" xlink:title="Viewport::paintGL">
<polygon fill="white" stroke="black" points="442.5,-106.5 442.5,-127.5 537.5,-127.5 537.5,-106.5 442.5,-106.5"/>
<text text-anchor="middle" x="490" y="-114.5" font-family="Helvetica,sans-Serif" font-size="10.00">Viewport::paintGL</text>
</a>
</g>
<!-- Node4&#45;&gt;Node5 -->
<g id="edge8" class="edge"><title>Node4&#45;&gt;Node5</title>
<path fill="none" stroke="midnightblue" d="M390.916,-117C407.477,-117 425.938,-117 442.395,-117"/>
<polygon fill="midnightblue" stroke="midnightblue" points="390.885,-113.5 380.885,-117 390.885,-120.5 390.885,-113.5"/>
</g>
</g>
</svg>
