<?xml version="1.0" encoding="UTF-8" standalone="no"?>
<!DOCTYPE svg PUBLIC "-//W3C//DTD SVG 1.1//EN"
 "http://www.w3.org/Graphics/SVG/1.1/DTD/svg11.dtd">
<!-- Generated by graphviz version 2.26.3 (20100126.1600)
 -->
<!-- Title: Pyramide Pages: 1 -->
<svg width="168pt" height="342pt"
 viewBox="0.00 0.00 168.00 342.00" xmlns="http://www.w3.org/2000/svg" xmlns:xlink="http://www.w3.org/1999/xlink">
<g id="graph1" class="graph" transform="scale(1 1) rotate(0) translate(4 338)">
<title>Pyramide</title>
<polygon fill="white" stroke="white" points="-4,5 -4,-338 165,-338 165,5 -4,5"/>
<!-- Node1 -->
<g id="node1" class="node"><title>Node1</title>
<polygon fill="#bfbfbf" stroke="black" points="30,-0.5 30,-21.5 88,-21.5 88,-0.5 30,-0.5"/>
<text text-anchor="middle" x="59" y="-8.5" font-family="Helvetica,sans-Serif" font-size="10.00">Pyramide</text>
</g>
<!-- Node2 -->
<g id="node2" class="node"><title>Node2</title>
<a xlink:href="class_geometry.html" target="_top" xlink:title="Geometry\&lt; Pyramide \&gt;">
<polygon fill="white" stroke="black" points="-0.5,-60.5 -0.5,-81.5 118.5,-81.5 118.5,-60.5 -0.5,-60.5"/>
<text text-anchor="middle" x="59" y="-68.5" font-family="Helvetica,sans-Serif" font-size="10.00">Geometry&lt; Pyramide &gt;</text>
</a>
</g>
<!-- Node2&#45;&gt;Node1 -->
<g id="edge2" class="edge"><title>Node2&#45;&gt;Node1</title>
<path fill="none" stroke="midnightblue" d="M59,-50.2312C59,-40.5922 59,-29.5444 59,-21.6339"/>
<polygon fill="midnightblue" stroke="midnightblue" points="55.5001,-50.2732 59,-60.2732 62.5001,-50.2732 55.5001,-50.2732"/>
</g>
<!-- Node3 -->
<g id="node4" class="node"><title>Node3</title>
<a xlink:href="class_geo_base.html" target="_top" xlink:title="Base pour la classe Geometry. ">
<polygon fill="white" stroke="black" points="15.5,-192.5 15.5,-213.5 72.5,-213.5 72.5,-192.5 15.5,-192.5"/>
<text text-anchor="middle" x="44" y="-200.5" font-family="Helvetica,sans-Serif" font-size="10.00">GeoBase</text>
</a>
</g>
<!-- Node3&#45;&gt;Node2 -->
<g id="edge4" class="edge"><title>Node3&#45;&gt;Node2</title>
<path fill="none" stroke="midnightblue" d="M45.8679,-182.258C47.1873,-168.09 49.0598,-148.895 51,-132 53.0229,-114.385 55.7861,-93.966 57.479,-81.7857"/>
<polygon fill="midnightblue" stroke="midnightblue" points="42.3655,-182.125 44.9377,-192.403 49.3362,-182.765 42.3655,-182.125"/>
</g>
<!-- Node6 -->
<g id="node10" class="node"><title>Node6</title>
<a xlink:href="class_geometry.html" target="_top" xlink:title="Base de toutes les géometries. ">
<polygon fill="white" stroke="black" points="60,-132.5 60,-153.5 160,-153.5 160,-132.5 60,-132.5"/>
<text text-anchor="middle" x="110" y="-140.5" font-family="Helvetica,sans-Serif" font-size="10.00">Geometry&lt; Child &gt;</text>
</a>
</g>
<!-- Node3&#45;&gt;Node6 -->
<g id="edge12" class="edge"><title>Node3&#45;&gt;Node6</title>
<path fill="none" stroke="midnightblue" d="M63.4853,-185.286C74.7953,-175.004 88.6655,-162.395 98.3027,-153.634"/>
<polygon fill="midnightblue" stroke="midnightblue" points="60.8445,-182.957 55.7995,-192.273 65.5533,-188.136 60.8445,-182.957"/>
</g>
<!-- Node4 -->
<g id="node6" class="node"><title>Node4</title>
<a xlink:href="class_actor.html" target="_top" xlink:title="Base de tous les objets de la scène. ">
<polygon fill="white" stroke="black" points="24,-252.5 24,-273.5 64,-273.5 64,-252.5 24,-252.5"/>
<text text-anchor="middle" x="44" y="-260.5" font-family="Helvetica,sans-Serif" font-size="10.00">Actor</text>
</a>
</g>
<!-- Node4&#45;&gt;Node3 -->
<g id="edge6" class="edge"><title>Node4&#45;&gt;Node3</title>
<path fill="none" stroke="midnightblue" d="M44,-242.231C44,-232.592 44,-221.544 44,-213.634"/>
<polygon fill="midnightblue" stroke="midnightblue" points="40.5001,-242.273 44,-252.273 47.5001,-242.273 40.5001,-242.273"/>
</g>
<!-- Node5 -->
<g id="node8" class="node"><title>Node5</title>
<a xlink:href="class_q_object.html" target="_top" xlink:title="QObject">
<polygon fill="white" stroke="black" points="17.5,-312.5 17.5,-333.5 70.5,-333.5 70.5,-312.5 17.5,-312.5"/>
<text text-anchor="middle" x="44" y="-320.5" font-family="Helvetica,sans-Serif" font-size="10.00">QObject</text>
</a>
</g>
<!-- Node5&#45;&gt;Node4 -->
<g id="edge8" class="edge"><title>Node5&#45;&gt;Node4</title>
<path fill="none" stroke="midnightblue" d="M44,-302.231C44,-292.592 44,-281.544 44,-273.634"/>
<polygon fill="midnightblue" stroke="midnightblue" points="40.5001,-302.273 44,-312.273 47.5001,-302.273 40.5001,-302.273"/>
</g>
<!-- Node6&#45;&gt;Node2 -->
<g id="edge10" class="edge"><title>Node6&#45;&gt;Node2</title>
<path fill="none" stroke="orange" stroke-dasharray="5,2" d="M96.682,-124.198C87.0847,-110.649 74.4781,-92.8514 66.5561,-81.6674"/>
<polygon fill="orange" stroke="orange" points="93.8385,-126.239 102.475,-132.376 99.5507,-122.193 93.8385,-126.239"/>
<text text-anchor="middle" x="120.5" y="-104.5" font-family="Helvetica,sans-Serif" font-size="10.00"> &lt; Pyramide &gt;</text>
</g>
</g>
</svg>
