<?xml version="1.0" encoding="UTF-8" standalone="no"?>
<!DOCTYPE svg PUBLIC "-//W3C//DTD SVG 1.1//EN"
 "http://www.w3.org/Graphics/SVG/1.1/DTD/svg11.dtd">
<!-- Generated by graphviz version 2.26.3 (20100126.1600)
 -->
<!-- Title: Actor::scale Pages: 1 -->
<svg width="346pt" height="82pt"
 viewBox="0.00 0.00 346.00 82.00" xmlns="http://www.w3.org/2000/svg" xmlns:xlink="http://www.w3.org/1999/xlink">
<g id="graph1" class="graph" transform="scale(1 1) rotate(0) translate(4 78)">
<title>Actor::scale</title>
<polygon fill="white" stroke="white" points="-4,5 -4,-78 343,-78 343,5 -4,5"/>
<!-- Node1 -->
<g id="node1" class="node"><title>Node1</title>
<polygon fill="#bfbfbf" stroke="black" points="0.5,-23.5 0.5,-44.5 69.5,-44.5 69.5,-23.5 0.5,-23.5"/>
<text text-anchor="middle" x="35" y="-31.5" font-family="Helvetica,sans-Serif" font-size="10.00">Actor::scale</text>
</g>
<!-- Node2 -->
<g id="node3" class="node"><title>Node2</title>
<a xlink:href="class_actor.html#abbf942f60996c5df2a8c0a832bd91abc" target="_top" xlink:title="Actor::transform">
<polygon fill="white" stroke="black" points="106.5,-23.5 106.5,-44.5 193.5,-44.5 193.5,-23.5 106.5,-23.5"/>
<text text-anchor="middle" x="150" y="-31.5" font-family="Helvetica,sans-Serif" font-size="10.00">Actor::transform</text>
</a>
</g>
<!-- Node1&#45;&gt;Node2 -->
<g id="edge2" class="edge"><title>Node1&#45;&gt;Node2</title>
<path fill="none" stroke="midnightblue" d="M79.5145,-34C88.2514,-34 97.4104,-34 106.126,-34"/>
<polygon fill="midnightblue" stroke="midnightblue" points="79.5038,-30.5001 69.5038,-34 79.5038,-37.5001 79.5038,-30.5001"/>
</g>
<!-- Node3 -->
<g id="node5" class="node"><title>Node3</title>
<a xlink:href="class_geometry.html#aadfed02c20dfb9306bcf5616e7bf1f43" target="_top" xlink:title="Geometry\&lt; Sphere \&gt;\l::draw">
<polygon fill="white" stroke="black" points="230,-40 230,-74 338,-74 338,-40 230,-40"/>
<text text-anchor="start" x="238" y="-61" font-family="Helvetica,sans-Serif" font-size="10.00">Geometry&lt; Sphere &gt;</text>
<text text-anchor="middle" x="284" y="-48" font-family="Helvetica,sans-Serif" font-size="10.00">::draw</text>
</a>
</g>
<!-- Node2&#45;&gt;Node3 -->
<g id="edge4" class="edge"><title>Node2&#45;&gt;Node3</title>
<path fill="none" stroke="midnightblue" d="M203.526,-43.1873C212.216,-44.6789 221.222,-46.2247 229.926,-47.7186"/>
<polygon fill="midnightblue" stroke="midnightblue" points="203.954,-39.7096 193.506,-41.4674 202.77,-46.6088 203.954,-39.7096"/>
</g>
<!-- Node4 -->
<g id="node7" class="node"><title>Node4</title>
<a xlink:href="class_group.html#af8d7df31c5fe4f8e22bd022c8735b6b2" target="_top" xlink:title="Group::draw">
<polygon fill="white" stroke="black" points="249,-0.5 249,-21.5 319,-21.5 319,-0.5 249,-0.5"/>
<text text-anchor="middle" x="284" y="-8.5" font-family="Helvetica,sans-Serif" font-size="10.00">Group::draw</text>
</a>
</g>
<!-- Node2&#45;&gt;Node4 -->
<g id="edge6" class="edge"><title>Node2&#45;&gt;Node4</title>
<path fill="none" stroke="midnightblue" d="M203.794,-24.7666C218.929,-22.1689 235,-19.4104 248.751,-17.0503"/>
<polygon fill="midnightblue" stroke="midnightblue" points="202.77,-21.3912 193.506,-26.5326 203.954,-28.2904 202.77,-21.3912"/>
</g>
</g>
</svg>
