<?xml version="1.0" encoding="UTF-8" standalone="no"?>
<!DOCTYPE svg PUBLIC "-//W3C//DTD SVG 1.1//EN"
 "http://www.w3.org/Graphics/SVG/1.1/DTD/svg11.dtd">
<!-- Generated by graphviz version 2.26.3 (20100126.1600)
 -->
<!-- Title: Viewport::updateLight Pages: 1 -->
<svg width="678pt" height="150pt"
 viewBox="0.00 0.00 678.00 150.00" xmlns="http://www.w3.org/2000/svg" xmlns:xlink="http://www.w3.org/1999/xlink">
<g id="graph1" class="graph" transform="scale(1 1) rotate(0) translate(4 146)">
<title>Viewport::updateLight</title>
<polygon fill="white" stroke="white" points="-4,5 -4,-146 675,-146 675,5 -4,5"/>
<!-- Node1 -->
<g id="node1" class="node"><title>Node1</title>
<polygon fill="#bfbfbf" stroke="black" points="0.5,-20.5 0.5,-41.5 111.5,-41.5 111.5,-20.5 0.5,-20.5"/>
<text text-anchor="middle" x="56" y="-28.5" font-family="Helvetica,sans-Serif" font-size="10.00">Viewport::updateLight</text>
</g>
<!-- Node2 -->
<g id="node3" class="node"><title>Node2</title>
<a xlink:href="class_viewport.html#a5acb57e1d34f591dab00a8a40cd21855" target="_top" xlink:title="Viewport::updateLights">
<polygon fill="white" stroke="black" points="148,-20.5 148,-41.5 264,-41.5 264,-20.5 148,-20.5"/>
<text text-anchor="middle" x="206" y="-28.5" font-family="Helvetica,sans-Serif" font-size="10.00">Viewport::updateLights</text>
</a>
</g>
<!-- Node1&#45;&gt;Node2 -->
<g id="edge2" class="edge"><title>Node1&#45;&gt;Node2</title>
<path fill="none" stroke="midnightblue" d="M121.895,-31C130.536,-31 139.341,-31 147.842,-31"/>
<polygon fill="midnightblue" stroke="midnightblue" points="121.854,-27.5001 111.854,-31 121.854,-34.5001 121.854,-27.5001"/>
</g>
<!-- Node3 -->
<g id="node5" class="node"><title>Node3</title>
<a xlink:href="class_actor.html#a422d0d3c1e343e794357669a34bb59e1" target="_top" xlink:title="Actor::setParent">
<polygon fill="white" stroke="black" points="300,-40.5 300,-61.5 388,-61.5 388,-40.5 300,-40.5"/>
<text text-anchor="middle" x="344" y="-48.5" font-family="Helvetica,sans-Serif" font-size="10.00">Actor::setParent</text>
</a>
</g>
<!-- Node2&#45;&gt;Node3 -->
<g id="edge4" class="edge"><title>Node2&#45;&gt;Node3</title>
<path fill="none" stroke="midnightblue" d="M274.266,-40.8936C282.939,-42.1505 291.627,-43.4097 299.783,-44.5917"/>
<polygon fill="midnightblue" stroke="midnightblue" points="274.523,-37.3944 264.124,-39.4238 273.519,-44.322 274.523,-37.3944"/>
</g>
<!-- Node6 -->
<g id="node11" class="node"><title>Node6</title>
<a xlink:href="class_geo_base.html#a357c5534b7ac40df29f504c0e988e52e" target="_top" xlink:title="GeoBase::setParent">
<polygon fill="white" stroke="black" points="424.5,-0.5 424.5,-21.5 529.5,-21.5 529.5,-0.5 424.5,-0.5"/>
<text text-anchor="middle" x="477" y="-8.5" font-family="Helvetica,sans-Serif" font-size="10.00">GeoBase::setParent</text>
</a>
</g>
<!-- Node2&#45;&gt;Node6 -->
<g id="edge18" class="edge"><title>Node2&#45;&gt;Node6</title>
<path fill="none" stroke="midnightblue" d="M274.152,-25.9703C320.754,-22.531 381.61,-18.0399 424.465,-14.8771"/>
<polygon fill="midnightblue" stroke="midnightblue" points="273.852,-22.4829 264.136,-26.7095 274.367,-29.4639 273.852,-22.4829"/>
</g>
<!-- Node4 -->
<g id="node7" class="node"><title>Node4</title>
<a xlink:href="class_actor.html#aa0fc674ef09b215b67ff2fff69b79459" target="_top" xlink:title="Actor::Actor">
<polygon fill="white" stroke="black" points="442.5,-80.5 442.5,-101.5 511.5,-101.5 511.5,-80.5 442.5,-80.5"/>
<text text-anchor="middle" x="477" y="-88.5" font-family="Helvetica,sans-Serif" font-size="10.00">Actor::Actor</text>
</a>
</g>
<!-- Node3&#45;&gt;Node4 -->
<g id="edge6" class="edge"><title>Node3&#45;&gt;Node4</title>
<path fill="none" stroke="midnightblue" d="M388.906,-64.5057C406.333,-69.7468 425.979,-75.6554 442.289,-80.5607"/>
<polygon fill="midnightblue" stroke="midnightblue" points="389.529,-61.038 378.944,-61.5095 387.512,-67.7414 389.529,-61.038"/>
</g>
<!-- Node5 -->
<g id="node9" class="node"><title>Node5</title>
<a xlink:href="fileloader_8hpp.html#a48efbb80ebceb0d47fc8d9084562f597" target="_top" xlink:title="operator\&gt;\&gt;">
<polygon fill="white" stroke="black" points="445,-40.5 445,-61.5 509,-61.5 509,-40.5 445,-40.5"/>
<text text-anchor="middle" x="477" y="-48.5" font-family="Helvetica,sans-Serif" font-size="10.00">operator&gt;&gt;</text>
</a>
</g>
<!-- Node3&#45;&gt;Node5 -->
<g id="edge8" class="edge"><title>Node3&#45;&gt;Node5</title>
<path fill="none" stroke="midnightblue" d="M398.437,-51C414.145,-51 430.782,-51 444.682,-51"/>
<polygon fill="midnightblue" stroke="midnightblue" points="398.287,-47.5001 388.287,-51 398.287,-54.5001 398.287,-47.5001"/>
</g>
<!-- Node3&#45;&gt;Node6 -->
<g id="edge10" class="edge"><title>Node3&#45;&gt;Node6</title>
<path fill="none" stroke="midnightblue" d="M388.826,-37.5186C406.108,-32.3208 425.584,-26.4635 441.827,-21.5782"/>
<polygon fill="midnightblue" stroke="midnightblue" points="387.512,-34.2586 378.944,-40.4905 389.529,-40.962 387.512,-34.2586"/>
</g>
<!-- Node8 -->
<g id="node15" class="node"><title>Node8</title>
<a xlink:href="class_light.html#ab89261d1fa4fbbeaa61988502da207d3" target="_top" xlink:title="Light::setParent">
<polygon fill="white" stroke="black" points="434,-120.5 434,-141.5 520,-141.5 520,-120.5 434,-120.5"/>
<text text-anchor="middle" x="477" y="-128.5" font-family="Helvetica,sans-Serif" font-size="10.00">Light::setParent</text>
</a>
</g>
<!-- Node3&#45;&gt;Node8 -->
<g id="edge14" class="edge"><title>Node3&#45;&gt;Node8</title>
<path fill="none" stroke="midnightblue" d="M363.865,-68.4185C379.425,-81.4183 402.044,-98.9433 424,-111 430.465,-114.55 437.692,-117.737 444.678,-120.468"/>
<polygon fill="midnightblue" stroke="midnightblue" points="365.881,-65.5382 355.996,-61.7255 361.345,-70.8704 365.881,-65.5382"/>
</g>
<!-- Node7 -->
<g id="node13" class="node"><title>Node7</title>
<a xlink:href="class_geo_base.html#a64d0302a4d85b1fe7946df7ebfaa2e33" target="_top" xlink:title="GeoBase::GeoBase">
<polygon fill="white" stroke="black" points="566,-0.5 566,-21.5 670,-21.5 670,-0.5 566,-0.5"/>
<text text-anchor="middle" x="618" y="-8.5" font-family="Helvetica,sans-Serif" font-size="10.00">GeoBase::GeoBase</text>
</a>
</g>
<!-- Node6&#45;&gt;Node7 -->
<g id="edge12" class="edge"><title>Node6&#45;&gt;Node7</title>
<path fill="none" stroke="midnightblue" d="M539.686,-11C548.452,-11 557.381,-11 565.922,-11"/>
<polygon fill="midnightblue" stroke="midnightblue" points="539.503,-7.5001 529.503,-11 539.503,-14.5001 539.503,-7.5001"/>
</g>
<!-- Node9 -->
<g id="node17" class="node"><title>Node9</title>
<a xlink:href="class_light.html#a30538cefe47541035db096b75133442d" target="_top" xlink:title="Light::Light">
<polygon fill="white" stroke="black" points="585.5,-120.5 585.5,-141.5 650.5,-141.5 650.5,-120.5 585.5,-120.5"/>
<text text-anchor="middle" x="618" y="-128.5" font-family="Helvetica,sans-Serif" font-size="10.00">Light::Light</text>
</a>
</g>
<!-- Node8&#45;&gt;Node9 -->
<g id="edge16" class="edge"><title>Node8&#45;&gt;Node9</title>
<path fill="none" stroke="midnightblue" d="M530.189,-131C548.782,-131 569.088,-131 585.486,-131"/>
<polygon fill="midnightblue" stroke="midnightblue" points="530.071,-127.5 520.071,-131 530.071,-134.5 530.071,-127.5"/>
</g>
</g>
</svg>
