<?xml version="1.0" encoding="UTF-8" standalone="no"?>
<!DOCTYPE svg PUBLIC "-//W3C//DTD SVG 1.1//EN"
 "http://www.w3.org/Graphics/SVG/1.1/DTD/svg11.dtd">
<!-- Generated by graphviz version 2.26.3 (20100126.1600)
 -->
<!-- Title: Spotlight::updateView Pages: 1 -->
<svg width="364pt" height="70pt"
 viewBox="0.00 0.00 364.00 70.00" xmlns="http://www.w3.org/2000/svg" xmlns:xlink="http://www.w3.org/1999/xlink">
<g id="graph1" class="graph" transform="scale(1 1) rotate(0) translate(4 66)">
<title>Spotlight::updateView</title>
<polygon fill="white" stroke="white" points="-4,5 -4,-66 361,-66 361,5 -4,5"/>
<!-- Node1 -->
<g id="node1" class="node"><title>Node1</title>
<polygon fill="#bfbfbf" stroke="black" points="0,-20.5 0,-41.5 112,-41.5 112,-20.5 0,-20.5"/>
<text text-anchor="middle" x="56" y="-28.5" font-family="Helvetica,sans-Serif" font-size="10.00">Spotlight::updateView</text>
</g>
<!-- Node2 -->
<g id="node3" class="node"><title>Node2</title>
<a xlink:href="class_actor.html#acdab84246959258bbde6eb050d340e67" target="_top" xlink:title="Actor::position">
<polygon fill="white" stroke="black" points="148,-40.5 148,-61.5 228,-61.5 228,-40.5 148,-40.5"/>
<text text-anchor="middle" x="188" y="-48.5" font-family="Helvetica,sans-Serif" font-size="10.00">Actor::position</text>
</a>
</g>
<!-- Node1&#45;&gt;Node2 -->
<g id="edge2" class="edge"><title>Node1&#45;&gt;Node2</title>
<path fill="none" stroke="midnightblue" d="M112.363,-39.5398C120.832,-40.823 129.517,-42.1389 137.845,-43.4007"/>
<polygon fill="midnightblue" stroke="midnightblue" points="137.375,-46.8694 147.786,-44.907 138.424,-39.9484 137.375,-46.8694"/>
</g>
<!-- Node3 -->
<g id="node5" class="node"><title>Node3</title>
<a xlink:href="class_light.html#ab689087cc07b95273f6daae900a42010" target="_top" xlink:title="Light::direction">
<polygon fill="white" stroke="black" points="148,-0.5 148,-21.5 228,-21.5 228,-0.5 148,-0.5"/>
<text text-anchor="middle" x="188" y="-8.5" font-family="Helvetica,sans-Serif" font-size="10.00">Light::direction</text>
</a>
</g>
<!-- Node1&#45;&gt;Node3 -->
<g id="edge4" class="edge"><title>Node1&#45;&gt;Node3</title>
<path fill="none" stroke="midnightblue" d="M112.363,-22.4602C120.832,-21.177 129.517,-19.8611 137.845,-18.5993"/>
<polygon fill="midnightblue" stroke="midnightblue" points="138.424,-22.0516 147.786,-17.093 137.375,-15.1306 138.424,-22.0516"/>
</g>
<!-- Node4 -->
<g id="node7" class="node"><title>Node4</title>
<a xlink:href="class_actor.html#a748e07c73196050bfb0d51a14608aeae" target="_top" xlink:title="Actor::orientation">
<polygon fill="white" stroke="black" points="264.5,-0.5 264.5,-21.5 355.5,-21.5 355.5,-0.5 264.5,-0.5"/>
<text text-anchor="middle" x="310" y="-8.5" font-family="Helvetica,sans-Serif" font-size="10.00">Actor::orientation</text>
</a>
</g>
<!-- Node3&#45;&gt;Node4 -->
<g id="edge6" class="edge"><title>Node3&#45;&gt;Node4</title>
<path fill="none" stroke="midnightblue" d="M228.285,-11C236.566,-11 245.425,-11 254.143,-11"/>
<polygon fill="midnightblue" stroke="midnightblue" points="254.269,-14.5001 264.269,-11 254.269,-7.5001 254.269,-14.5001"/>
</g>
</g>
</svg>
