<?xml version="1.0" encoding="UTF-8" standalone="no"?>
<!DOCTYPE svg PUBLIC "-//W3C//DTD SVG 1.1//EN"
 "http://www.w3.org/Graphics/SVG/1.1/DTD/svg11.dtd">
<!-- Generated by graphviz version 2.26.3 (20100126.1600)
 -->
<!-- Title: Viewport::renderLight Pages: 1 -->
<svg width="370pt" height="270pt"
 viewBox="0.00 0.00 370.00 270.00" xmlns="http://www.w3.org/2000/svg" xmlns:xlink="http://www.w3.org/1999/xlink">
<g id="graph1" class="graph" transform="scale(1 1) rotate(0) translate(4 266)">
<title>Viewport::renderLight</title>
<polygon fill="white" stroke="white" points="-4,5 -4,-266 367,-266 367,5 -4,5"/>
<!-- Node1 -->
<g id="node1" class="node"><title>Node1</title>
<polygon fill="#bfbfbf" stroke="black" points="0.5,-120.5 0.5,-141.5 109.5,-141.5 109.5,-120.5 0.5,-120.5"/>
<text text-anchor="middle" x="55" y="-128.5" font-family="Helvetica,sans-Serif" font-size="10.00">Viewport::renderLight</text>
</g>
<!-- Node2 -->
<g id="node3" class="node"><title>Node2</title>
<a xlink:href="class_light.html#a5466743e73bc1f6e0dd198baf7697ed5" target="_top" xlink:title="Light::getBuffer">
<polygon fill="white" stroke="black" points="160.5,-240.5 160.5,-261.5 243.5,-261.5 243.5,-240.5 160.5,-240.5"/>
<text text-anchor="middle" x="202" y="-248.5" font-family="Helvetica,sans-Serif" font-size="10.00">Light::getBuffer</text>
</a>
</g>
<!-- Node1&#45;&gt;Node2 -->
<g id="edge2" class="edge"><title>Node1&#45;&gt;Node2</title>
<path fill="none" stroke="midnightblue" d="M61.9711,-141.624C75.7218,-161.798 108.299,-205.879 146,-231 148.879,-232.919 151.965,-234.678 155.153,-236.286"/>
<polygon fill="midnightblue" stroke="midnightblue" points="153.769,-239.501 164.323,-240.427 156.65,-233.122 153.769,-239.501"/>
</g>
<!-- Node3 -->
<g id="node5" class="node"><title>Node3</title>
<a xlink:href="class_light.html#ac5414b33c1c3cf0940f9979dceb60087" target="_top" xlink:title="Light::getTexture">
<polygon fill="white" stroke="black" points="157,-200.5 157,-221.5 247,-221.5 247,-200.5 157,-200.5"/>
<text text-anchor="middle" x="202" y="-208.5" font-family="Helvetica,sans-Serif" font-size="10.00">Light::getTexture</text>
</a>
</g>
<!-- Node1&#45;&gt;Node3 -->
<g id="edge4" class="edge"><title>Node1&#45;&gt;Node3</title>
<path fill="none" stroke="midnightblue" d="M68.859,-141.672C86.1709,-154.632 117.047,-176.548 146,-191 150.058,-193.026 154.373,-194.945 158.737,-196.735"/>
<polygon fill="midnightblue" stroke="midnightblue" points="157.699,-200.087 168.288,-200.439 160.23,-193.56 157.699,-200.087"/>
</g>
<!-- Node4 -->
<g id="node7" class="node"><title>Node4</title>
<a xlink:href="class_viewport.html#a5760eeac13c59b34bd8cc5ba638f9cbd" target="_top" xlink:title="Viewport::catchErrors">
<polygon fill="white" stroke="black" points="146.5,-160.5 146.5,-181.5 257.5,-181.5 257.5,-160.5 146.5,-160.5"/>
<text text-anchor="middle" x="202" y="-168.5" font-family="Helvetica,sans-Serif" font-size="10.00">Viewport::catchErrors</text>
</a>
</g>
<!-- Node1&#45;&gt;Node4 -->
<g id="edge6" class="edge"><title>Node1&#45;&gt;Node4</title>
<path fill="none" stroke="midnightblue" d="M93.6225,-141.51C111.949,-146.496 134.043,-152.508 153.488,-157.799"/>
<polygon fill="midnightblue" stroke="midnightblue" points="152.812,-161.243 163.38,-160.491 154.65,-154.488 152.812,-161.243"/>
</g>
<!-- Node5 -->
<g id="node9" class="node"><title>Node5</title>
<a xlink:href="class_light.html#ae15381dfe25ed67531fa7b2a530399ad" target="_top" xlink:title="Light::projection">
<polygon fill="white" stroke="black" points="159,-120.5 159,-141.5 245,-141.5 245,-120.5 159,-120.5"/>
<text text-anchor="middle" x="202" y="-128.5" font-family="Helvetica,sans-Serif" font-size="10.00">Light::projection</text>
</a>
</g>
<!-- Node1&#45;&gt;Node5 -->
<g id="edge8" class="edge"><title>Node1&#45;&gt;Node5</title>
<path fill="none" stroke="midnightblue" d="M109.737,-131C122.364,-131 135.783,-131 148.363,-131"/>
<polygon fill="midnightblue" stroke="midnightblue" points="148.696,-134.5 158.696,-131 148.696,-127.5 148.696,-134.5"/>
</g>
<!-- Node6 -->
<g id="node11" class="node"><title>Node6</title>
<a xlink:href="class_light.html#a747a809f8abf05f41143279abb78df13" target="_top" xlink:title="Light::view">
<polygon fill="white" stroke="black" points="170,-80.5 170,-101.5 234,-101.5 234,-80.5 170,-80.5"/>
<text text-anchor="middle" x="202" y="-88.5" font-family="Helvetica,sans-Serif" font-size="10.00">Light::view</text>
</a>
</g>
<!-- Node1&#45;&gt;Node6 -->
<g id="edge10" class="edge"><title>Node1&#45;&gt;Node6</title>
<path fill="none" stroke="midnightblue" d="M93.6225,-120.49C113.945,-114.96 138.899,-108.17 159.737,-102.5"/>
<polygon fill="midnightblue" stroke="midnightblue" points="160.868,-105.82 169.598,-99.8168 159.03,-99.0653 160.868,-105.82"/>
</g>
<!-- Node7 -->
<g id="node13" class="node"><title>Node7</title>
<a xlink:href="class_world.html#a664cd2c63ef6c7979736cd454b31eb1c" target="_top" xlink:title="World::currentZone">
<polygon fill="white" stroke="black" points="152,-40.5 152,-61.5 252,-61.5 252,-40.5 152,-40.5"/>
<text text-anchor="middle" x="202" y="-48.5" font-family="Helvetica,sans-Serif" font-size="10.00">World::currentZone</text>
</a>
</g>
<!-- Node1&#45;&gt;Node7 -->
<g id="edge12" class="edge"><title>Node1&#45;&gt;Node7</title>
<path fill="none" stroke="midnightblue" d="M68.859,-120.328C86.1709,-107.368 117.047,-85.4519 146,-71 150.058,-68.9742 154.373,-67.0547 158.737,-65.2645"/>
<polygon fill="midnightblue" stroke="midnightblue" points="160.23,-68.4399 168.288,-61.5614 157.699,-61.9133 160.23,-68.4399"/>
</g>
<!-- Node8 -->
<g id="node15" class="node"><title>Node8</title>
<a xlink:href="class_zone.html#ab0e0091bda0819de6e848d647d14b1a0" target="_top" xlink:title="Zone::draw">
<polygon fill="white" stroke="black" points="169.5,-0.5 169.5,-21.5 234.5,-21.5 234.5,-0.5 169.5,-0.5"/>
<text text-anchor="middle" x="202" y="-8.5" font-family="Helvetica,sans-Serif" font-size="10.00">Zone::draw</text>
</a>
</g>
<!-- Node1&#45;&gt;Node8 -->
<g id="edge14" class="edge"><title>Node1&#45;&gt;Node8</title>
<path fill="none" stroke="midnightblue" d="M61.9711,-120.376C75.7218,-100.202 108.299,-56.1207 146,-31 150.293,-28.1396 155.044,-25.6338 159.91,-23.4533"/>
<polygon fill="midnightblue" stroke="midnightblue" points="161.358,-26.6431 169.32,-19.653 158.737,-20.1524 161.358,-26.6431"/>
</g>
<!-- Node9 -->
<g id="node17" class="node"><title>Node9</title>
<a xlink:href="class_actor.html#ac35dab598ae9f9a936418ec22fadf138" target="_top" xlink:title="Actor::draw">
<polygon fill="white" stroke="black" points="294.5,-0.5 294.5,-21.5 361.5,-21.5 361.5,-0.5 294.5,-0.5"/>
<text text-anchor="middle" x="328" y="-8.5" font-family="Helvetica,sans-Serif" font-size="10.00">Actor::draw</text>
</a>
</g>
<!-- Node8&#45;&gt;Node9 -->
<g id="edge16" class="edge"><title>Node8&#45;&gt;Node9</title>
<path fill="none" stroke="midnightblue" d="M234.776,-11C249.73,-11 267.66,-11 283.784,-11"/>
<polygon fill="midnightblue" stroke="midnightblue" points="284.07,-14.5001 294.07,-11 284.07,-7.5001 284.07,-14.5001"/>
</g>
</g>
</svg>
