<?xml version="1.0" encoding="UTF-8" standalone="no"?>
<!DOCTYPE svg PUBLIC "-//W3C//DTD SVG 1.1//EN"
 "http://www.w3.org/Graphics/SVG/1.1/DTD/svg11.dtd">
<!-- Generated by graphviz version 2.26.3 (20100126.1600)
 -->
<!-- Title: Camera::right Pages: 1 -->
<svg width="484pt" height="70pt"
 viewBox="0.00 0.00 484.00 70.00" xmlns="http://www.w3.org/2000/svg" xmlns:xlink="http://www.w3.org/1999/xlink">
<g id="graph1" class="graph" transform="scale(1 1) rotate(0) translate(4 66)">
<title>Camera::right</title>
<polygon fill="white" stroke="white" points="-4,5 -4,-66 481,-66 481,5 -4,5"/>
<!-- Node1 -->
<g id="node1" class="node"><title>Node1</title>
<polygon fill="#bfbfbf" stroke="black" points="0,-19.5 0,-40.5 76,-40.5 76,-19.5 0,-19.5"/>
<text text-anchor="middle" x="38" y="-27.5" font-family="Helvetica,sans-Serif" font-size="10.00">Camera::right</text>
</g>
<!-- Node2 -->
<g id="node3" class="node"><title>Node2</title>
<a xlink:href="class_camera.html#a9936c788ad482b40b5a3548bf5e97247" target="_top" xlink:title="Camera::up">
<polygon fill="white" stroke="black" points="112,-39.5 112,-60.5 180,-60.5 180,-39.5 112,-39.5"/>
<text text-anchor="middle" x="146" y="-47.5" font-family="Helvetica,sans-Serif" font-size="10.00">Camera::up</text>
</a>
</g>
<!-- Node1&#45;&gt;Node2 -->
<g id="edge2" class="edge"><title>Node1&#45;&gt;Node2</title>
<path fill="none" stroke="midnightblue" d="M86.1186,-38.9108C94.7995,-40.5184 103.686,-42.164 111.865,-43.6787"/>
<polygon fill="midnightblue" stroke="midnightblue" points="86.5469,-35.4307 76.0768,-37.0513 85.2722,-42.3137 86.5469,-35.4307"/>
</g>
<!-- Node5 -->
<g id="node9" class="node"><title>Node5</title>
<a xlink:href="class_viewport.html#ae3b6b681561ee1ef2bdb96d27bd2a1f0" target="_top" xlink:title="Viewport::keyPressEvent">
<polygon fill="white" stroke="black" points="216,-0.5 216,-21.5 344,-21.5 344,-0.5 216,-0.5"/>
<text text-anchor="middle" x="280" y="-8.5" font-family="Helvetica,sans-Serif" font-size="10.00">Viewport::keyPressEvent</text>
</a>
</g>
<!-- Node1&#45;&gt;Node5 -->
<g id="edge10" class="edge"><title>Node1&#45;&gt;Node5</title>
<path fill="none" stroke="midnightblue" d="M86.1516,-26.2195C123.313,-23.3019 175.078,-19.2377 215.768,-16.043"/>
<polygon fill="midnightblue" stroke="midnightblue" points="85.7741,-22.7383 76.0787,-27.0103 86.322,-29.7168 85.7741,-22.7383"/>
</g>
<!-- Node3 -->
<g id="node5" class="node"><title>Node3</title>
<a xlink:href="class_camera.html#af81adf3ba7f63429a9d5356c218da78f" target="_top" xlink:title="Camera::view">
<polygon fill="white" stroke="black" points="241.5,-40.5 241.5,-61.5 318.5,-61.5 318.5,-40.5 241.5,-40.5"/>
<text text-anchor="middle" x="280" y="-48.5" font-family="Helvetica,sans-Serif" font-size="10.00">Camera::view</text>
</a>
</g>
<!-- Node2&#45;&gt;Node3 -->
<g id="edge4" class="edge"><title>Node2&#45;&gt;Node3</title>
<path fill="none" stroke="midnightblue" d="M190.579,-50.3327C206.949,-50.4548 225.337,-50.5921 241.163,-50.7102"/>
<polygon fill="midnightblue" stroke="midnightblue" points="190.186,-46.8297 180.161,-50.2549 190.134,-53.8296 190.186,-46.8297"/>
</g>
<!-- Node2&#45;&gt;Node5 -->
<g id="edge8" class="edge"><title>Node2&#45;&gt;Node5</title>
<path fill="none" stroke="midnightblue" d="M190.054,-37.1784C207.384,-32.1345 227.044,-26.4126 243.554,-21.6074"/>
<polygon fill="midnightblue" stroke="midnightblue" points="188.784,-33.9026 180.161,-40.0577 190.74,-40.6237 188.784,-33.9026"/>
</g>
<!-- Node4 -->
<g id="node7" class="node"><title>Node4</title>
<a xlink:href="class_viewport.html#a3c2c4661eac1f6351392b8fe133423f5" target="_top" xlink:title="Viewport::paintGL">
<polygon fill="white" stroke="black" points="380.5,-40.5 380.5,-61.5 475.5,-61.5 475.5,-40.5 380.5,-40.5"/>
<text text-anchor="middle" x="428" y="-48.5" font-family="Helvetica,sans-Serif" font-size="10.00">Viewport::paintGL</text>
</a>
</g>
<!-- Node3&#45;&gt;Node4 -->
<g id="edge6" class="edge"><title>Node3&#45;&gt;Node4</title>
<path fill="none" stroke="midnightblue" d="M328.916,-51C345.477,-51 363.938,-51 380.395,-51"/>
<polygon fill="midnightblue" stroke="midnightblue" points="328.885,-47.5001 318.885,-51 328.885,-54.5001 328.885,-47.5001"/>
</g>
</g>
</svg>
