<?xml version="1.0" encoding="UTF-8" standalone="no"?>
<!DOCTYPE svg PUBLIC "-//W3C//DTD SVG 1.1//EN"
 "http://www.w3.org/Graphics/SVG/1.1/DTD/svg11.dtd">
<!-- Generated by graphviz version 2.26.3 (20100126.1600)
 -->
<!-- Title: QObject Pages: 1 -->
<svg width="447pt" height="342pt"
 viewBox="0.00 0.00 447.00 342.00" xmlns="http://www.w3.org/2000/svg" xmlns:xlink="http://www.w3.org/1999/xlink">
<g id="graph1" class="graph" transform="scale(1 1) rotate(0) translate(4 338)">
<title>QObject</title>
<polygon fill="white" stroke="white" points="-4,5 -4,-338 444,-338 444,5 -4,5"/>
<!-- Node1 -->
<g id="node1" class="node"><title>Node1</title>
<polygon fill="#bfbfbf" stroke="black" points="220.5,-312.5 220.5,-333.5 273.5,-333.5 273.5,-312.5 220.5,-312.5"/>
<text text-anchor="middle" x="247" y="-320.5" font-family="Helvetica,sans-Serif" font-size="10.00">QObject</text>
</g>
<!-- Node2 -->
<g id="node3" class="node"><title>Node2</title>
<a xlink:href="class_actor.html" target="_top" xlink:title="Base de tous les objets de la scène. ">
<polygon fill="white" stroke="black" points="130,-252.5 130,-273.5 170,-273.5 170,-252.5 130,-252.5"/>
<text text-anchor="middle" x="150" y="-260.5" font-family="Helvetica,sans-Serif" font-size="10.00">Actor</text>
</a>
</g>
<!-- Node1&#45;&gt;Node2 -->
<g id="edge2" class="edge"><title>Node1&#45;&gt;Node2</title>
<path fill="none" stroke="midnightblue" d="M220.756,-306.766C203.734,-296.238 182.043,-282.82 167.192,-273.634"/>
<polygon fill="midnightblue" stroke="midnightblue" points="219.313,-309.989 229.658,-312.273 222.995,-304.036 219.313,-309.989"/>
</g>
<!-- Node10 -->
<g id="node21" class="node"><title>Node10</title>
<a xlink:href="class_camera.html" target="_top" xlink:title="Gestion de la camera. ">
<polygon fill="white" stroke="black" points="187.5,-252.5 187.5,-273.5 238.5,-273.5 238.5,-252.5 187.5,-252.5"/>
<text text-anchor="middle" x="213" y="-260.5" font-family="Helvetica,sans-Serif" font-size="10.00">Camera</text>
</a>
</g>
<!-- Node1&#45;&gt;Node10 -->
<g id="edge22" class="edge"><title>Node1&#45;&gt;Node10</title>
<path fill="none" stroke="midnightblue" d="M235.931,-303.467C230.311,-293.548 223.701,-281.885 219.026,-273.634"/>
<polygon fill="midnightblue" stroke="midnightblue" points="232.946,-305.299 240.921,-312.273 239.036,-301.847 232.946,-305.299"/>
</g>
<!-- Node11 -->
<g id="node23" class="node"><title>Node11</title>
<a xlink:href="struct_material.html" target="_top" xlink:title="Définit les propriétés d&#39;un materiau. ">
<polygon fill="white" stroke="black" points="255.5,-252.5 255.5,-273.5 306.5,-273.5 306.5,-252.5 255.5,-252.5"/>
<text text-anchor="middle" x="281" y="-260.5" font-family="Helvetica,sans-Serif" font-size="10.00">Material</text>
</a>
</g>
<!-- Node1&#45;&gt;Node11 -->
<g id="edge24" class="edge"><title>Node1&#45;&gt;Node11</title>
<path fill="none" stroke="midnightblue" d="M258.069,-303.467C263.689,-293.548 270.299,-281.885 274.974,-273.634"/>
<polygon fill="midnightblue" stroke="midnightblue" points="254.964,-301.847 253.079,-312.273 261.054,-305.299 254.964,-301.847"/>
</g>
<!-- Node12 -->
<g id="node25" class="node"><title>Node12</title>
<a xlink:href="class_q_widget.html" target="_top" xlink:title="QWidget">
<polygon fill="white" stroke="black" points="323.5,-252.5 323.5,-273.5 378.5,-273.5 378.5,-252.5 323.5,-252.5"/>
<text text-anchor="middle" x="351" y="-260.5" font-family="Helvetica,sans-Serif" font-size="10.00">QWidget</text>
</a>
</g>
<!-- Node1&#45;&gt;Node12 -->
<g id="edge26" class="edge"><title>Node1&#45;&gt;Node12</title>
<path fill="none" stroke="midnightblue" d="M274.381,-307.203C292.741,-296.611 316.424,-282.948 332.568,-273.634"/>
<polygon fill="midnightblue" stroke="midnightblue" points="272.506,-304.244 265.593,-312.273 276.004,-310.308 272.506,-304.244"/>
</g>
<!-- Node3 -->
<g id="node5" class="node"><title>Node3</title>
<a xlink:href="class_geo_base.html" target="_top" xlink:title="Base pour la classe Geometry. ">
<polygon fill="white" stroke="black" points="91.5,-192.5 91.5,-213.5 148.5,-213.5 148.5,-192.5 91.5,-192.5"/>
<text text-anchor="middle" x="120" y="-200.5" font-family="Helvetica,sans-Serif" font-size="10.00">GeoBase</text>
</a>
</g>
<!-- Node2&#45;&gt;Node3 -->
<g id="edge4" class="edge"><title>Node2&#45;&gt;Node3</title>
<path fill="none" stroke="midnightblue" d="M140.08,-243.16C135.154,-233.308 129.4,-221.8 125.317,-213.634"/>
<polygon fill="midnightblue" stroke="midnightblue" points="137.034,-244.894 144.637,-252.273 143.295,-241.764 137.034,-244.894"/>
</g>
<!-- Node9 -->
<g id="node19" class="node"><title>Node9</title>
<a xlink:href="class_group.html" target="_top" xlink:title="Groupe de geometries. ">
<polygon fill="white" stroke="black" points="165.5,-192.5 165.5,-213.5 208.5,-213.5 208.5,-192.5 165.5,-192.5"/>
<text text-anchor="middle" x="187" y="-200.5" font-family="Helvetica,sans-Serif" font-size="10.00">Group</text>
</a>
</g>
<!-- Node2&#45;&gt;Node9 -->
<g id="edge20" class="edge"><title>Node2&#45;&gt;Node9</title>
<path fill="none" stroke="midnightblue" d="M162.045,-243.467C168.162,-233.548 175.354,-221.885 180.442,-213.634"/>
<polygon fill="midnightblue" stroke="midnightblue" points="158.885,-241.924 156.615,-252.273 164.843,-245.599 158.885,-241.924"/>
</g>
<!-- Node4 -->
<g id="node7" class="node"><title>Node4</title>
<a xlink:href="class_geometry.html" target="_top" xlink:title="Base de toutes les géometries. ">
<polygon fill="white" stroke="black" points="70,-132.5 70,-153.5 170,-153.5 170,-132.5 70,-132.5"/>
<text text-anchor="middle" x="120" y="-140.5" font-family="Helvetica,sans-Serif" font-size="10.00">Geometry&lt; Child &gt;</text>
</a>
</g>
<!-- Node3&#45;&gt;Node4 -->
<g id="edge6" class="edge"><title>Node3&#45;&gt;Node4</title>
<path fill="none" stroke="midnightblue" d="M120,-182.231C120,-172.592 120,-161.544 120,-153.634"/>
<polygon fill="midnightblue" stroke="midnightblue" points="116.5,-182.273 120,-192.273 123.5,-182.273 116.5,-182.273"/>
</g>
<!-- Node5 -->
<g id="node9" class="node"><title>Node5</title>
<a xlink:href="class_geometry.html" target="_top" xlink:title="Geometry\&lt; Cube \&gt;">
<polygon fill="white" stroke="black" points="140.5,-60.5 140.5,-81.5 241.5,-81.5 241.5,-60.5 140.5,-60.5"/>
<text text-anchor="middle" x="191" y="-68.5" font-family="Helvetica,sans-Serif" font-size="10.00">Geometry&lt; Cube &gt;</text>
</a>
</g>
<!-- Node3&#45;&gt;Node5 -->
<g id="edge16" class="edge"><title>Node3&#45;&gt;Node5</title>
<path fill="none" stroke="midnightblue" d="M145.993,-186.434C157.504,-177.954 170.364,-166.733 179,-154 194.038,-131.829 193.658,-98.6509 192.255,-81.7419"/>
<polygon fill="midnightblue" stroke="midnightblue" points="143.719,-183.754 137.545,-192.364 147.741,-189.483 143.719,-183.754"/>
</g>
<!-- Node7 -->
<g id="node13" class="node"><title>Node7</title>
<a xlink:href="class_geometry.html" target="_top" xlink:title="Geometry\&lt; Sphere \&gt;">
<polygon fill="white" stroke="black" points="0,-60.5 0,-81.5 108,-81.5 108,-60.5 0,-60.5"/>
<text text-anchor="middle" x="54" y="-68.5" font-family="Helvetica,sans-Serif" font-size="10.00">Geometry&lt; Sphere &gt;</text>
</a>
</g>
<!-- Node3&#45;&gt;Node7 -->
<g id="edge18" class="edge"><title>Node3&#45;&gt;Node7</title>
<path fill="none" stroke="midnightblue" d="M91.9017,-186.734C80.3056,-178.48 67.97,-167.358 61,-154 48.7579,-130.539 50.4411,-98.2065 52.3966,-81.6749"/>
<polygon fill="midnightblue" stroke="midnightblue" points="90.2607,-189.846 100.524,-192.476 94.1406,-184.02 90.2607,-189.846"/>
</g>
<!-- Node4&#45;&gt;Node5 -->
<g id="edge8" class="edge"><title>Node4&#45;&gt;Node5</title>
<path fill="none" stroke="orange" stroke-dasharray="5,2" d="M129.955,-123.339C134.491,-115.532 140.339,-106.809 147,-100 154.037,-92.8059 163.151,-86.4399 171.257,-81.5186"/>
<polygon fill="orange" stroke="orange" points="126.828,-121.764 125.109,-132.218 132.972,-125.118 126.828,-121.764"/>
<text text-anchor="middle" x="169.5" y="-104.5" font-family="Helvetica,sans-Serif" font-size="10.00"> &lt; Cube &gt;</text>
</g>
<!-- Node4&#45;&gt;Node7 -->
<g id="edge12" class="edge"><title>Node4&#45;&gt;Node7</title>
<path fill="none" stroke="orange" stroke-dasharray="5,2" d="M87.0951,-126.985C81.5701,-123.271 76.2574,-118.934 72,-114 63.8583,-104.564 58.9983,-90.9197 56.418,-81.5452"/>
<polygon fill="orange" stroke="orange" points="85.4698,-130.093 95.831,-132.306 89.111,-124.115 85.4698,-130.093"/>
<text text-anchor="middle" x="98" y="-104.5" font-family="Helvetica,sans-Serif" font-size="10.00"> &lt; Sphere &gt;</text>
</g>
<!-- Node6 -->
<g id="node11" class="node"><title>Node6</title>
<a xlink:href="class_cube.html" target="_top" xlink:title="Un simple cube. ">
<polygon fill="white" stroke="black" points="171,-0.5 171,-21.5 211,-21.5 211,-0.5 171,-0.5"/>
<text text-anchor="middle" x="191" y="-8.5" font-family="Helvetica,sans-Serif" font-size="10.00">Cube</text>
</a>
</g>
<!-- Node5&#45;&gt;Node6 -->
<g id="edge10" class="edge"><title>Node5&#45;&gt;Node6</title>
<path fill="none" stroke="midnightblue" d="M191,-50.2312C191,-40.5922 191,-29.5444 191,-21.6339"/>
<polygon fill="midnightblue" stroke="midnightblue" points="187.5,-50.2732 191,-60.2732 194.5,-50.2732 187.5,-50.2732"/>
</g>
<!-- Node8 -->
<g id="node15" class="node"><title>Node8</title>
<a xlink:href="class_sphere.html" target="_top" xlink:title="Une simple sphere. ">
<polygon fill="white" stroke="black" points="30.5,-0.5 30.5,-21.5 77.5,-21.5 77.5,-0.5 30.5,-0.5"/>
<text text-anchor="middle" x="54" y="-8.5" font-family="Helvetica,sans-Serif" font-size="10.00">Sphere</text>
</a>
</g>
<!-- Node7&#45;&gt;Node8 -->
<g id="edge14" class="edge"><title>Node7&#45;&gt;Node8</title>
<path fill="none" stroke="midnightblue" d="M54,-50.2312C54,-40.5922 54,-29.5444 54,-21.6339"/>
<polygon fill="midnightblue" stroke="midnightblue" points="50.5001,-50.2732 54,-60.2732 57.5001,-50.2732 50.5001,-50.2732"/>
</g>
<!-- Node13 -->
<g id="node27" class="node"><title>Node13</title>
<a xlink:href="class_q_main_window.html" target="_top" xlink:title="QMainWindow">
<polygon fill="white" stroke="black" points="251,-192.5 251,-213.5 331,-213.5 331,-192.5 251,-192.5"/>
<text text-anchor="middle" x="291" y="-200.5" font-family="Helvetica,sans-Serif" font-size="10.00">QMainWindow</text>
</a>
</g>
<!-- Node12&#45;&gt;Node13 -->
<g id="edge28" class="edge"><title>Node12&#45;&gt;Node13</title>
<path fill="none" stroke="midnightblue" d="M332.986,-244.986C322.76,-234.76 310.31,-222.31 301.634,-213.634"/>
<polygon fill="midnightblue" stroke="midnightblue" points="330.727,-247.677 340.273,-252.273 335.677,-242.727 330.727,-247.677"/>
</g>
<!-- Node15 -->
<g id="node31" class="node"><title>Node15</title>
<a xlink:href="class_q_open_g_l_widget.html" target="_top" xlink:title="QOpenGLWidget">
<polygon fill="white" stroke="black" points="348.5,-192.5 348.5,-213.5 439.5,-213.5 439.5,-192.5 348.5,-192.5"/>
<text text-anchor="middle" x="394" y="-200.5" font-family="Helvetica,sans-Serif" font-size="10.00">QOpenGLWidget</text>
</a>
</g>
<!-- Node12&#45;&gt;Node15 -->
<g id="edge32" class="edge"><title>Node12&#45;&gt;Node15</title>
<path fill="none" stroke="midnightblue" d="M364.561,-244.078C371.761,-234.031 380.344,-222.055 386.379,-213.634"/>
<polygon fill="midnightblue" stroke="midnightblue" points="361.668,-242.106 358.688,-252.273 367.358,-246.184 361.668,-242.106"/>
</g>
<!-- Node14 -->
<g id="node29" class="node"><title>Node14</title>
<a xlink:href="class_main_window.html" target="_top" xlink:title="Fenetre principale. ">
<polygon fill="white" stroke="black" points="254.5,-132.5 254.5,-153.5 327.5,-153.5 327.5,-132.5 254.5,-132.5"/>
<text text-anchor="middle" x="291" y="-140.5" font-family="Helvetica,sans-Serif" font-size="10.00">MainWindow</text>
</a>
</g>
<!-- Node13&#45;&gt;Node14 -->
<g id="edge30" class="edge"><title>Node13&#45;&gt;Node14</title>
<path fill="none" stroke="midnightblue" d="M291,-182.231C291,-172.592 291,-161.544 291,-153.634"/>
<polygon fill="midnightblue" stroke="midnightblue" points="287.5,-182.273 291,-192.273 294.5,-182.273 287.5,-182.273"/>
</g>
<!-- Node16 -->
<g id="node33" class="node"><title>Node16</title>
<a xlink:href="class_viewport.html" target="_top" xlink:title="Cadre de vue 3D. ">
<polygon fill="white" stroke="black" points="366.5,-132.5 366.5,-153.5 421.5,-153.5 421.5,-132.5 366.5,-132.5"/>
<text text-anchor="middle" x="394" y="-140.5" font-family="Helvetica,sans-Serif" font-size="10.00">Viewport</text>
</a>
</g>
<!-- Node15&#45;&gt;Node16 -->
<g id="edge34" class="edge"><title>Node15&#45;&gt;Node16</title>
<path fill="none" stroke="midnightblue" d="M394,-182.231C394,-172.592 394,-161.544 394,-153.634"/>
<polygon fill="midnightblue" stroke="midnightblue" points="390.5,-182.273 394,-192.273 397.5,-182.273 390.5,-182.273"/>
</g>
</g>
</svg>
