<?xml version="1.0" encoding="UTF-8" standalone="no"?>
<!DOCTYPE svg PUBLIC "-//W3C//DTD SVG 1.1//EN"
 "http://www.w3.org/Graphics/SVG/1.1/DTD/svg11.dtd">
<!-- Generated by graphviz version 2.26.3 (20100126.1600)
 -->
<!-- Title: Viewport::load Pages: 1 -->
<svg width="230pt" height="70pt"
 viewBox="0.00 0.00 230.00 70.00" xmlns="http://www.w3.org/2000/svg" xmlns:xlink="http://www.w3.org/1999/xlink">
<g id="graph1" class="graph" transform="scale(1 1) rotate(0) translate(4 66)">
<title>Viewport::load</title>
<polygon fill="white" stroke="white" points="-4,5 -4,-66 227,-66 227,5 -4,5"/>
<!-- Node1 -->
<g id="node1" class="node"><title>Node1</title>
<polygon fill="#bfbfbf" stroke="black" points="0.5,-20.5 0.5,-41.5 79.5,-41.5 79.5,-20.5 0.5,-20.5"/>
<text text-anchor="middle" x="40" y="-28.5" font-family="Helvetica,sans-Serif" font-size="10.00">Viewport::load</text>
</g>
<!-- Node2 -->
<g id="node3" class="node"><title>Node2</title>
<a xlink:href="class_viewport.html#ab6bea61fac9caf74cf37fe91861b42e3" target="_top" xlink:title="Viewport::clearLevel">
<polygon fill="white" stroke="black" points="116.5,-40.5 116.5,-61.5 221.5,-61.5 221.5,-40.5 116.5,-40.5"/>
<text text-anchor="middle" x="169" y="-48.5" font-family="Helvetica,sans-Serif" font-size="10.00">Viewport::clearLevel</text>
</a>
</g>
<!-- Node1&#45;&gt;Node2 -->
<g id="edge2" class="edge"><title>Node1&#45;&gt;Node2</title>
<path fill="none" stroke="midnightblue" d="M79.7569,-37.1639C88.1477,-38.4648 97.197,-39.8677 106.202,-41.2639"/>
<polygon fill="midnightblue" stroke="midnightblue" points="105.895,-44.7579 116.313,-42.8314 106.967,-37.8406 105.895,-44.7579"/>
</g>
<!-- Node3 -->
<g id="node5" class="node"><title>Node3</title>
<a xlink:href="class_viewport.html#a4b1a438a86e883c72d98feb3c3a658d6" target="_top" xlink:title="Viewport::camera">
<polygon fill="white" stroke="black" points="122.5,-0.5 122.5,-21.5 215.5,-21.5 215.5,-0.5 122.5,-0.5"/>
<text text-anchor="middle" x="169" y="-8.5" font-family="Helvetica,sans-Serif" font-size="10.00">Viewport::camera</text>
</a>
</g>
<!-- Node1&#45;&gt;Node3 -->
<g id="edge4" class="edge"><title>Node1&#45;&gt;Node3</title>
<path fill="none" stroke="midnightblue" d="M79.7569,-24.8361C90.0724,-23.2368 101.383,-21.4832 112.384,-19.7777"/>
<polygon fill="midnightblue" stroke="midnightblue" points="113.015,-23.2217 122.361,-18.2308 111.943,-16.3043 113.015,-23.2217"/>
</g>
</g>
</svg>
