<?xml version="1.0" encoding="UTF-8" standalone="no"?>
<!DOCTYPE svg PUBLIC "-//W3C//DTD SVG 1.1//EN"
 "http://www.w3.org/Graphics/SVG/1.1/DTD/svg11.dtd">
<!-- Generated by graphviz version 2.26.3 (20100126.1600)
 -->
<!-- Title: Line Pages: 1 -->
<svg width="156pt" height="342pt"
 viewBox="0.00 0.00 156.00 342.00" xmlns="http://www.w3.org/2000/svg" xmlns:xlink="http://www.w3.org/1999/xlink">
<g id="graph1" class="graph" transform="scale(1 1) rotate(0) translate(4 338)">
<title>Line</title>
<polygon fill="white" stroke="white" points="-4,5 -4,-338 153,-338 153,5 -4,5"/>
<!-- Node1 -->
<g id="node1" class="node"><title>Node1</title>
<polygon fill="#bfbfbf" stroke="black" points="29.5,-0.5 29.5,-21.5 64.5,-21.5 64.5,-0.5 29.5,-0.5"/>
<text text-anchor="middle" x="47" y="-8.5" font-family="Helvetica,sans-Serif" font-size="10.00">Line</text>
</g>
<!-- Node2 -->
<g id="node2" class="node"><title>Node2</title>
<a xlink:href="class_geometry.html" target="_top" xlink:title="Geometry\&lt; Line \&gt;">
<polygon fill="white" stroke="black" points="-0.5,-60.5 -0.5,-81.5 94.5,-81.5 94.5,-60.5 -0.5,-60.5"/>
<text text-anchor="middle" x="47" y="-68.5" font-family="Helvetica,sans-Serif" font-size="10.00">Geometry&lt; Line &gt;</text>
</a>
</g>
<!-- Node2&#45;&gt;Node1 -->
<g id="edge2" class="edge"><title>Node2&#45;&gt;Node1</title>
<path fill="none" stroke="midnightblue" d="M47,-50.2312C47,-40.5922 47,-29.5444 47,-21.6339"/>
<polygon fill="midnightblue" stroke="midnightblue" points="43.5001,-50.2732 47,-60.2732 50.5001,-50.2732 43.5001,-50.2732"/>
</g>
<!-- Node3 -->
<g id="node4" class="node"><title>Node3</title>
<a xlink:href="class_geo_base.html" target="_top" xlink:title="Base pour la classe Geometry. ">
<polygon fill="white" stroke="black" points="3.5,-192.5 3.5,-213.5 60.5,-213.5 60.5,-192.5 3.5,-192.5"/>
<text text-anchor="middle" x="32" y="-200.5" font-family="Helvetica,sans-Serif" font-size="10.00">GeoBase</text>
</a>
</g>
<!-- Node3&#45;&gt;Node2 -->
<g id="edge4" class="edge"><title>Node3&#45;&gt;Node2</title>
<path fill="none" stroke="midnightblue" d="M33.8679,-182.258C35.1873,-168.09 37.0598,-148.895 39,-132 41.0229,-114.385 43.7861,-93.966 45.479,-81.7857"/>
<polygon fill="midnightblue" stroke="midnightblue" points="30.3655,-182.125 32.9377,-192.403 37.3362,-182.765 30.3655,-182.125"/>
</g>
<!-- Node6 -->
<g id="node10" class="node"><title>Node6</title>
<a xlink:href="class_geometry.html" target="_top" xlink:title="Base de toutes les géometries. ">
<polygon fill="white" stroke="black" points="48,-132.5 48,-153.5 148,-153.5 148,-132.5 48,-132.5"/>
<text text-anchor="middle" x="98" y="-140.5" font-family="Helvetica,sans-Serif" font-size="10.00">Geometry&lt; Child &gt;</text>
</a>
</g>
<!-- Node3&#45;&gt;Node6 -->
<g id="edge12" class="edge"><title>Node3&#45;&gt;Node6</title>
<path fill="none" stroke="midnightblue" d="M51.4853,-185.286C62.7953,-175.004 76.6655,-162.395 86.3027,-153.634"/>
<polygon fill="midnightblue" stroke="midnightblue" points="48.8445,-182.957 43.7995,-192.273 53.5533,-188.136 48.8445,-182.957"/>
</g>
<!-- Node4 -->
<g id="node6" class="node"><title>Node4</title>
<a xlink:href="class_actor.html" target="_top" xlink:title="Base de tous les objets de la scène. ">
<polygon fill="white" stroke="black" points="12,-252.5 12,-273.5 52,-273.5 52,-252.5 12,-252.5"/>
<text text-anchor="middle" x="32" y="-260.5" font-family="Helvetica,sans-Serif" font-size="10.00">Actor</text>
</a>
</g>
<!-- Node4&#45;&gt;Node3 -->
<g id="edge6" class="edge"><title>Node4&#45;&gt;Node3</title>
<path fill="none" stroke="midnightblue" d="M32,-242.231C32,-232.592 32,-221.544 32,-213.634"/>
<polygon fill="midnightblue" stroke="midnightblue" points="28.5001,-242.273 32,-252.273 35.5001,-242.273 28.5001,-242.273"/>
</g>
<!-- Node5 -->
<g id="node8" class="node"><title>Node5</title>
<a xlink:href="class_q_object.html" target="_top" xlink:title="QObject">
<polygon fill="white" stroke="black" points="5.5,-312.5 5.5,-333.5 58.5,-333.5 58.5,-312.5 5.5,-312.5"/>
<text text-anchor="middle" x="32" y="-320.5" font-family="Helvetica,sans-Serif" font-size="10.00">QObject</text>
</a>
</g>
<!-- Node5&#45;&gt;Node4 -->
<g id="edge8" class="edge"><title>Node5&#45;&gt;Node4</title>
<path fill="none" stroke="midnightblue" d="M32,-302.231C32,-292.592 32,-281.544 32,-273.634"/>
<polygon fill="midnightblue" stroke="midnightblue" points="28.5001,-302.273 32,-312.273 35.5001,-302.273 28.5001,-302.273"/>
</g>
<!-- Node6&#45;&gt;Node2 -->
<g id="edge10" class="edge"><title>Node6&#45;&gt;Node2</title>
<path fill="none" stroke="orange" stroke-dasharray="5,2" d="M84.682,-124.198C75.0847,-110.649 62.4781,-92.8514 54.5561,-81.6674"/>
<polygon fill="orange" stroke="orange" points="81.8385,-126.239 90.4748,-132.376 87.5507,-122.193 81.8385,-126.239"/>
<text text-anchor="middle" x="97" y="-104.5" font-family="Helvetica,sans-Serif" font-size="10.00"> &lt; Line &gt;</text>
</g>
</g>
</svg>
