<?xml version="1.0" encoding="UTF-8" standalone="no"?>
<!DOCTYPE svg PUBLIC "-//W3C//DTD SVG 1.1//EN"
 "http://www.w3.org/Graphics/SVG/1.1/DTD/svg11.dtd">
<!-- Generated by graphviz version 2.26.3 (20100126.1600)
 -->
<!-- Title: Viewport::updateLights Pages: 1 -->
<svg width="530pt" height="150pt"
 viewBox="0.00 0.00 530.00 150.00" xmlns="http://www.w3.org/2000/svg" xmlns:xlink="http://www.w3.org/1999/xlink">
<g id="graph1" class="graph" transform="scale(1 1) rotate(0) translate(4 146)">
<title>Viewport::updateLights</title>
<polygon fill="white" stroke="white" points="-4,5 -4,-146 527,-146 527,5 -4,5"/>
<!-- Node1 -->
<g id="node1" class="node"><title>Node1</title>
<polygon fill="#bfbfbf" stroke="black" points="0,-20.5 0,-41.5 116,-41.5 116,-20.5 0,-20.5"/>
<text text-anchor="middle" x="58" y="-28.5" font-family="Helvetica,sans-Serif" font-size="10.00">Viewport::updateLights</text>
</g>
<!-- Node2 -->
<g id="node3" class="node"><title>Node2</title>
<a xlink:href="class_actor.html#a422d0d3c1e343e794357669a34bb59e1" target="_top" xlink:title="Actor::setParent">
<polygon fill="white" stroke="black" points="152,-40.5 152,-61.5 240,-61.5 240,-40.5 152,-40.5"/>
<text text-anchor="middle" x="196" y="-48.5" font-family="Helvetica,sans-Serif" font-size="10.00">Actor::setParent</text>
</a>
</g>
<!-- Node1&#45;&gt;Node2 -->
<g id="edge2" class="edge"><title>Node1&#45;&gt;Node2</title>
<path fill="none" stroke="midnightblue" d="M126.266,-40.8936C134.939,-42.1505 143.627,-43.4097 151.783,-44.5917"/>
<polygon fill="midnightblue" stroke="midnightblue" points="126.523,-37.3944 116.124,-39.4238 125.519,-44.322 126.523,-37.3944"/>
</g>
<!-- Node5 -->
<g id="node9" class="node"><title>Node5</title>
<a xlink:href="class_geo_base.html#a357c5534b7ac40df29f504c0e988e52e" target="_top" xlink:title="GeoBase::setParent">
<polygon fill="white" stroke="black" points="276.5,-0.5 276.5,-21.5 381.5,-21.5 381.5,-0.5 276.5,-0.5"/>
<text text-anchor="middle" x="329" y="-8.5" font-family="Helvetica,sans-Serif" font-size="10.00">GeoBase::setParent</text>
</a>
</g>
<!-- Node1&#45;&gt;Node5 -->
<g id="edge16" class="edge"><title>Node1&#45;&gt;Node5</title>
<path fill="none" stroke="midnightblue" d="M126.152,-25.9703C172.754,-22.531 233.61,-18.0399 276.465,-14.8771"/>
<polygon fill="midnightblue" stroke="midnightblue" points="125.852,-22.4829 116.136,-26.7095 126.367,-29.4639 125.852,-22.4829"/>
</g>
<!-- Node3 -->
<g id="node5" class="node"><title>Node3</title>
<a xlink:href="class_actor.html#aa0fc674ef09b215b67ff2fff69b79459" target="_top" xlink:title="Actor::Actor">
<polygon fill="white" stroke="black" points="294.5,-80.5 294.5,-101.5 363.5,-101.5 363.5,-80.5 294.5,-80.5"/>
<text text-anchor="middle" x="329" y="-88.5" font-family="Helvetica,sans-Serif" font-size="10.00">Actor::Actor</text>
</a>
</g>
<!-- Node2&#45;&gt;Node3 -->
<g id="edge4" class="edge"><title>Node2&#45;&gt;Node3</title>
<path fill="none" stroke="midnightblue" d="M240.906,-64.5057C258.333,-69.7468 277.979,-75.6554 294.289,-80.5607"/>
<polygon fill="midnightblue" stroke="midnightblue" points="241.529,-61.038 230.944,-61.5095 239.512,-67.7414 241.529,-61.038"/>
</g>
<!-- Node4 -->
<g id="node7" class="node"><title>Node4</title>
<a xlink:href="fileloader_8hpp.html#a48efbb80ebceb0d47fc8d9084562f597" target="_top" xlink:title="operator\&gt;\&gt;">
<polygon fill="white" stroke="black" points="297,-40.5 297,-61.5 361,-61.5 361,-40.5 297,-40.5"/>
<text text-anchor="middle" x="329" y="-48.5" font-family="Helvetica,sans-Serif" font-size="10.00">operator&gt;&gt;</text>
</a>
</g>
<!-- Node2&#45;&gt;Node4 -->
<g id="edge6" class="edge"><title>Node2&#45;&gt;Node4</title>
<path fill="none" stroke="midnightblue" d="M250.437,-51C266.145,-51 282.782,-51 296.682,-51"/>
<polygon fill="midnightblue" stroke="midnightblue" points="250.287,-47.5001 240.287,-51 250.287,-54.5001 250.287,-47.5001"/>
</g>
<!-- Node2&#45;&gt;Node5 -->
<g id="edge8" class="edge"><title>Node2&#45;&gt;Node5</title>
<path fill="none" stroke="midnightblue" d="M240.826,-37.5186C258.108,-32.3208 277.584,-26.4635 293.827,-21.5782"/>
<polygon fill="midnightblue" stroke="midnightblue" points="239.512,-34.2586 230.944,-40.4905 241.529,-40.962 239.512,-34.2586"/>
</g>
<!-- Node7 -->
<g id="node13" class="node"><title>Node7</title>
<a xlink:href="class_light.html#ab89261d1fa4fbbeaa61988502da207d3" target="_top" xlink:title="Light::setParent">
<polygon fill="white" stroke="black" points="286,-120.5 286,-141.5 372,-141.5 372,-120.5 286,-120.5"/>
<text text-anchor="middle" x="329" y="-128.5" font-family="Helvetica,sans-Serif" font-size="10.00">Light::setParent</text>
</a>
</g>
<!-- Node2&#45;&gt;Node7 -->
<g id="edge12" class="edge"><title>Node2&#45;&gt;Node7</title>
<path fill="none" stroke="midnightblue" d="M215.865,-68.4185C231.425,-81.4183 254.044,-98.9433 276,-111 282.465,-114.55 289.692,-117.737 296.678,-120.468"/>
<polygon fill="midnightblue" stroke="midnightblue" points="217.881,-65.5382 207.996,-61.7255 213.345,-70.8704 217.881,-65.5382"/>
</g>
<!-- Node6 -->
<g id="node11" class="node"><title>Node6</title>
<a xlink:href="class_geo_base.html#a64d0302a4d85b1fe7946df7ebfaa2e33" target="_top" xlink:title="GeoBase::GeoBase">
<polygon fill="white" stroke="black" points="418,-0.5 418,-21.5 522,-21.5 522,-0.5 418,-0.5"/>
<text text-anchor="middle" x="470" y="-8.5" font-family="Helvetica,sans-Serif" font-size="10.00">GeoBase::GeoBase</text>
</a>
</g>
<!-- Node5&#45;&gt;Node6 -->
<g id="edge10" class="edge"><title>Node5&#45;&gt;Node6</title>
<path fill="none" stroke="midnightblue" d="M391.686,-11C400.452,-11 409.381,-11 417.922,-11"/>
<polygon fill="midnightblue" stroke="midnightblue" points="391.503,-7.5001 381.503,-11 391.503,-14.5001 391.503,-7.5001"/>
</g>
<!-- Node8 -->
<g id="node15" class="node"><title>Node8</title>
<a xlink:href="class_light.html#a30538cefe47541035db096b75133442d" target="_top" xlink:title="Light::Light">
<polygon fill="white" stroke="black" points="437.5,-120.5 437.5,-141.5 502.5,-141.5 502.5,-120.5 437.5,-120.5"/>
<text text-anchor="middle" x="470" y="-128.5" font-family="Helvetica,sans-Serif" font-size="10.00">Light::Light</text>
</a>
</g>
<!-- Node7&#45;&gt;Node8 -->
<g id="edge14" class="edge"><title>Node7&#45;&gt;Node8</title>
<path fill="none" stroke="midnightblue" d="M382.189,-131C400.782,-131 421.088,-131 437.486,-131"/>
<polygon fill="midnightblue" stroke="midnightblue" points="382.071,-127.5 372.071,-131 382.071,-134.5 382.071,-127.5"/>
</g>
</g>
</svg>
