<?xml version="1.0" encoding="UTF-8" standalone="no"?>
<!DOCTYPE svg PUBLIC "-//W3C//DTD SVG 1.1//EN"
 "http://www.w3.org/Graphics/SVG/1.1/DTD/svg11.dtd">
<!-- Generated by graphviz version 2.26.3 (20100126.1600)
 -->
<!-- Title: Rect Pages: 1 -->
<svg width="158pt" height="342pt"
 viewBox="0.00 0.00 158.00 342.00" xmlns="http://www.w3.org/2000/svg" xmlns:xlink="http://www.w3.org/1999/xlink">
<g id="graph1" class="graph" transform="scale(1 1) rotate(0) translate(4 338)">
<title>Rect</title>
<polygon fill="white" stroke="white" points="-4,5 -4,-338 155,-338 155,5 -4,5"/>
<!-- Node1 -->
<g id="node1" class="node"><title>Node1</title>
<polygon fill="#bfbfbf" stroke="black" points="30,-0.5 30,-21.5 68,-21.5 68,-0.5 30,-0.5"/>
<text text-anchor="middle" x="49" y="-8.5" font-family="Helvetica,sans-Serif" font-size="10.00">Rect</text>
</g>
<!-- Node2 -->
<g id="node2" class="node"><title>Node2</title>
<a xlink:href="class_geometry.html" target="_top" xlink:title="Geometry\&lt; Rect \&gt;">
<polygon fill="white" stroke="black" points="0,-60.5 0,-81.5 98,-81.5 98,-60.5 0,-60.5"/>
<text text-anchor="middle" x="49" y="-68.5" font-family="Helvetica,sans-Serif" font-size="10.00">Geometry&lt; Rect &gt;</text>
</a>
</g>
<!-- Node2&#45;&gt;Node1 -->
<g id="edge2" class="edge"><title>Node2&#45;&gt;Node1</title>
<path fill="none" stroke="midnightblue" d="M49,-50.2312C49,-40.5922 49,-29.5444 49,-21.6339"/>
<polygon fill="midnightblue" stroke="midnightblue" points="45.5001,-50.2732 49,-60.2732 52.5001,-50.2732 45.5001,-50.2732"/>
</g>
<!-- Node3 -->
<g id="node4" class="node"><title>Node3</title>
<a xlink:href="class_geo_base.html" target="_top" xlink:title="Base pour la classe Geometry. ">
<polygon fill="white" stroke="black" points="5.5,-192.5 5.5,-213.5 62.5,-213.5 62.5,-192.5 5.5,-192.5"/>
<text text-anchor="middle" x="34" y="-200.5" font-family="Helvetica,sans-Serif" font-size="10.00">GeoBase</text>
</a>
</g>
<!-- Node3&#45;&gt;Node2 -->
<g id="edge4" class="edge"><title>Node3&#45;&gt;Node2</title>
<path fill="none" stroke="midnightblue" d="M35.8679,-182.258C37.1873,-168.09 39.0598,-148.895 41,-132 43.0229,-114.385 45.7861,-93.966 47.479,-81.7857"/>
<polygon fill="midnightblue" stroke="midnightblue" points="32.3655,-182.125 34.9377,-192.403 39.3362,-182.765 32.3655,-182.125"/>
</g>
<!-- Node6 -->
<g id="node10" class="node"><title>Node6</title>
<a xlink:href="class_geometry.html" target="_top" xlink:title="Base de toutes les géometries. ">
<polygon fill="white" stroke="black" points="50,-132.5 50,-153.5 150,-153.5 150,-132.5 50,-132.5"/>
<text text-anchor="middle" x="100" y="-140.5" font-family="Helvetica,sans-Serif" font-size="10.00">Geometry&lt; Child &gt;</text>
</a>
</g>
<!-- Node3&#45;&gt;Node6 -->
<g id="edge12" class="edge"><title>Node3&#45;&gt;Node6</title>
<path fill="none" stroke="midnightblue" d="M53.4853,-185.286C64.7953,-175.004 78.6655,-162.395 88.3027,-153.634"/>
<polygon fill="midnightblue" stroke="midnightblue" points="50.8445,-182.957 45.7995,-192.273 55.5533,-188.136 50.8445,-182.957"/>
</g>
<!-- Node4 -->
<g id="node6" class="node"><title>Node4</title>
<a xlink:href="class_actor.html" target="_top" xlink:title="Base de tous les objets de la scène. ">
<polygon fill="white" stroke="black" points="14,-252.5 14,-273.5 54,-273.5 54,-252.5 14,-252.5"/>
<text text-anchor="middle" x="34" y="-260.5" font-family="Helvetica,sans-Serif" font-size="10.00">Actor</text>
</a>
</g>
<!-- Node4&#45;&gt;Node3 -->
<g id="edge6" class="edge"><title>Node4&#45;&gt;Node3</title>
<path fill="none" stroke="midnightblue" d="M34,-242.231C34,-232.592 34,-221.544 34,-213.634"/>
<polygon fill="midnightblue" stroke="midnightblue" points="30.5001,-242.273 34,-252.273 37.5001,-242.273 30.5001,-242.273"/>
</g>
<!-- Node5 -->
<g id="node8" class="node"><title>Node5</title>
<a xlink:href="class_q_object.html" target="_top" xlink:title="QObject">
<polygon fill="white" stroke="black" points="7.5,-312.5 7.5,-333.5 60.5,-333.5 60.5,-312.5 7.5,-312.5"/>
<text text-anchor="middle" x="34" y="-320.5" font-family="Helvetica,sans-Serif" font-size="10.00">QObject</text>
</a>
</g>
<!-- Node5&#45;&gt;Node4 -->
<g id="edge8" class="edge"><title>Node5&#45;&gt;Node4</title>
<path fill="none" stroke="midnightblue" d="M34,-302.231C34,-292.592 34,-281.544 34,-273.634"/>
<polygon fill="midnightblue" stroke="midnightblue" points="30.5001,-302.273 34,-312.273 37.5001,-302.273 30.5001,-302.273"/>
</g>
<!-- Node6&#45;&gt;Node2 -->
<g id="edge10" class="edge"><title>Node6&#45;&gt;Node2</title>
<path fill="none" stroke="orange" stroke-dasharray="5,2" d="M86.682,-124.198C77.0847,-110.649 64.4781,-92.8514 56.5561,-81.6674"/>
<polygon fill="orange" stroke="orange" points="83.8385,-126.239 92.4748,-132.376 89.5507,-122.193 83.8385,-126.239"/>
<text text-anchor="middle" x="100.5" y="-104.5" font-family="Helvetica,sans-Serif" font-size="10.00"> &lt; Rect &gt;</text>
</g>
</g>
</svg>
