<?xml version="1.0" encoding="UTF-8" standalone="no"?>
<!DOCTYPE svg PUBLIC "-//W3C//DTD SVG 1.1//EN"
 "http://www.w3.org/Graphics/SVG/1.1/DTD/svg11.dtd">
<!-- Generated by graphviz version 2.26.3 (20100126.1600)
 -->
<!-- Title: Viewport::childAdded Pages: 1 -->
<svg width="254pt" height="70pt"
 viewBox="0.00 0.00 254.00 70.00" xmlns="http://www.w3.org/2000/svg" xmlns:xlink="http://www.w3.org/1999/xlink">
<g id="graph1" class="graph" transform="scale(1 1) rotate(0) translate(4 66)">
<title>Viewport::childAdded</title>
<polygon fill="white" stroke="white" points="-4,5 -4,-66 251,-66 251,5 -4,5"/>
<!-- Node1 -->
<g id="node1" class="node"><title>Node1</title>
<polygon fill="#bfbfbf" stroke="black" points="0.5,-20.5 0.5,-41.5 109.5,-41.5 109.5,-20.5 0.5,-20.5"/>
<text text-anchor="middle" x="55" y="-28.5" font-family="Helvetica,sans-Serif" font-size="10.00">Viewport::childAdded</text>
</g>
<!-- Node2 -->
<g id="node3" class="node"><title>Node2</title>
<a xlink:href="class_viewport.html#ab3309b168e0513b488163d1f1d69984c" target="_top" xlink:title="Viewport::addChild">
<polygon fill="white" stroke="black" points="146.5,-40.5 146.5,-61.5 245.5,-61.5 245.5,-40.5 146.5,-40.5"/>
<text text-anchor="middle" x="196" y="-48.5" font-family="Helvetica,sans-Serif" font-size="10.00">Viewport::addChild</text>
</a>
</g>
<!-- Node1&#45;&gt;Node2 -->
<g id="edge2" class="edge"><title>Node1&#45;&gt;Node2</title>
<path fill="none" stroke="midnightblue" d="M119.549,-40.1558C128.512,-41.4273 137.605,-42.717 146.242,-43.9422"/>
<polygon fill="midnightblue" stroke="midnightblue" points="119.907,-36.6717 109.514,-38.7325 118.924,-43.6023 119.907,-36.6717"/>
</g>
<!-- Node3 -->
<g id="node5" class="node"><title>Node3</title>
<a xlink:href="class_viewport.html#a94489fe1044fd859a2a3b2eb2f1cc2ae" target="_top" xlink:title="Viewport::load">
<polygon fill="white" stroke="black" points="156.5,-0.5 156.5,-21.5 235.5,-21.5 235.5,-0.5 156.5,-0.5"/>
<text text-anchor="middle" x="196" y="-8.5" font-family="Helvetica,sans-Serif" font-size="10.00">Viewport::load</text>
</a>
</g>
<!-- Node1&#45;&gt;Node3 -->
<g id="edge4" class="edge"><title>Node1&#45;&gt;Node3</title>
<path fill="none" stroke="midnightblue" d="M119.537,-21.8458C132.143,-20.0578 145.004,-18.2335 156.494,-16.6037"/>
<polygon fill="midnightblue" stroke="midnightblue" points="118.924,-18.3977 109.514,-23.2675 119.907,-25.3283 118.924,-18.3977"/>
</g>
</g>
</svg>
