<?xml version="1.0" encoding="UTF-8" standalone="no"?>
<!DOCTYPE svg PUBLIC "-//W3C//DTD SVG 1.1//EN"
 "http://www.w3.org/Graphics/SVG/1.1/DTD/svg11.dtd">
<!-- Generated by graphviz version 2.26.3 (20100126.1600)
 -->
<!-- Title: World::currentZone Pages: 1 -->
<!--zoomable 290 -->
<svg id="main" version="1.1" xmlns="http://www.w3.org/2000/svg" xmlns:xlink="http://www.w3.org/1999/xlink" xml:space="preserve" onload="init(evt)">
<style type="text/css"><![CDATA[
.edge:hover path { stroke: red; }
.edge:hover polygon { stroke: red; fill: red; }
]]></style>
<script type="text/javascript"><![CDATA[
var edges = document.getElementsByTagName('g');
if (edges && edges.length) {
  for (var i=0;i<edges.length;i++) {
    if (edges[i].id.substr(0,4)=='edge') {
      edges[i].setAttribute('class','edge');
    }
  }
}
]]></script>
        <defs>
                <circle id="rim" cx="0" cy="0" r="7"/>
                <circle id="rim2" cx="0" cy="0" r="3.5"/>
                <g id="zoomPlus">
                        <use xlink:href="#rim" fill="#404040">
                                <set attributeName="fill" to="#808080" begin="zoomplus.mouseover" end="zoomplus.mouseout"/>
                        </use>
                        <path d="M-4,0h8M0,-4v8" fill="none" stroke="white" stroke-width="1.5" pointer-events="none"/>
                </g>
                <g id="zoomMin">
                        <use xlink:href="#rim" fill="#404040">
                                <set attributeName="fill" to="#808080" begin="zoomminus.mouseover" end="zoomminus.mouseout"/>
                        </use>
                        <path d="M-4,0h8" fill="none" stroke="white" stroke-width="1.5" pointer-events="none"/>
                </g>
                <g id="dirArrow">
                        <path fill="none" stroke="white" stroke-width="1.5" d="M0,-3.0v7 M-2.5,-0.5L0,-3.0L2.5,-0.5"/>
                </g>
               <g id="resetDef">
                       <use xlink:href="#rim2" fill="#404040">
                               <set attributeName="fill" to="#808080" begin="reset.mouseover" end="reset.mouseout"/>
                       </use>
               </g>
        </defs>

<script type="text/javascript">
var viewWidth = 674;
var viewHeight = 290;
var sectionId = 'dynsection-4';
</script>
<script xlink:href="svgpan.js"/>
<svg id="graph" class="graph">
<g id="viewport">
<title>World::currentZone</title>
<polygon fill="white" stroke="white" points="-4,5 -4,-286 671,-286 671,5 -4,5"/>
<!-- Node1 -->
<g id="node1" class="node"><title>Node1</title>
<polygon fill="#bfbfbf" stroke="black" points="0,-180.5 0,-201.5 100,-201.5 100,-180.5 0,-180.5"/>
<text text-anchor="middle" x="50" y="-188.5" font-family="Helvetica,sans-Serif" font-size="10.00">World::currentZone</text>
</g>
<!-- Node2 -->
<g id="node3" class="node"><title>Node2</title>
<a xlink:href="class_viewport.html#ab3309b168e0513b488163d1f1d69984c" target="_top" xlink:title="Viewport::addChild">
<polygon fill="white" stroke="black" points="144.5,-260.5 144.5,-281.5 243.5,-281.5 243.5,-260.5 144.5,-260.5"/>
<text text-anchor="middle" x="194" y="-268.5" font-family="Helvetica,sans-Serif" font-size="10.00">Viewport::addChild</text>
</a>
</g>
<!-- Node1&#45;&gt;Node2 -->
<g id="edge2" class="edge"><title>Node1&#45;&gt;Node2</title>
<path fill="none" stroke="midnightblue" d="M70.7061,-207.912C87.511,-221.013 112.234,-238.909 136,-251 143.025,-254.574 150.835,-257.753 158.389,-260.466"/>
<polygon fill="midnightblue" stroke="midnightblue" points="72.6974,-205.024 62.6869,-201.555 68.3487,-210.51 72.6974,-205.024"/>
</g>
<!-- Node3 -->
<g id="node5" class="node"><title>Node3</title>
<a xlink:href="class_viewport.html#ae95938dedc43d6b36f2b85d4a226ffa1" target="_top" xlink:title="Viewport::renderLight">
<polygon fill="white" stroke="black" points="139.5,-220.5 139.5,-241.5 248.5,-241.5 248.5,-220.5 139.5,-220.5"/>
<text text-anchor="middle" x="194" y="-228.5" font-family="Helvetica,sans-Serif" font-size="10.00">Viewport::renderLight</text>
</a>
</g>
<!-- Node1&#45;&gt;Node3 -->
<g id="edge4" class="edge"><title>Node1&#45;&gt;Node3</title>
<path fill="none" stroke="midnightblue" d="M97.4862,-204.191C116.456,-209.46 138.003,-215.445 155.918,-220.422"/>
<polygon fill="midnightblue" stroke="midnightblue" points="98.4063,-200.814 87.8343,-201.51 96.5327,-207.558 98.4063,-200.814"/>
</g>
<!-- Node5 -->
<g id="node9" class="node"><title>Node5</title>
<a xlink:href="class_viewport.html#ad0317022a7a6399ee47c199bb9348efc" target="_top" xlink:title="Viewport::renderScene">
<polygon fill="white" stroke="black" points="136,-180.5 136,-201.5 252,-201.5 252,-180.5 136,-180.5"/>
<text text-anchor="middle" x="194" y="-188.5" font-family="Helvetica,sans-Serif" font-size="10.00">Viewport::renderScene</text>
</a>
</g>
<!-- Node1&#45;&gt;Node5 -->
<g id="edge8" class="edge"><title>Node1&#45;&gt;Node5</title>
<path fill="none" stroke="midnightblue" d="M110.378,-191C118.7,-191 127.234,-191 135.521,-191"/>
<polygon fill="midnightblue" stroke="midnightblue" points="110.364,-187.5 100.364,-191 110.364,-194.5 110.364,-187.5"/>
</g>
<!-- Node6 -->
<g id="node12" class="node"><title>Node6</title>
<a xlink:href="class_viewport.html#aeb07f85bbe4f10ca8d8c7b46c8ebd23b" target="_top" xlink:title="Viewport::renderQuad">
<polygon fill="white" stroke="black" points="138.5,-140.5 138.5,-161.5 249.5,-161.5 249.5,-140.5 138.5,-140.5"/>
<text text-anchor="middle" x="194" y="-148.5" font-family="Helvetica,sans-Serif" font-size="10.00">Viewport::renderQuad</text>
</a>
</g>
<!-- Node1&#45;&gt;Node6 -->
<g id="edge12" class="edge"><title>Node1&#45;&gt;Node6</title>
<path fill="none" stroke="midnightblue" d="M97.4862,-177.809C116.456,-172.54 138.003,-166.555 155.918,-161.578"/>
<polygon fill="midnightblue" stroke="midnightblue" points="96.5327,-174.442 87.8343,-180.49 98.4063,-181.186 96.5327,-174.442"/>
</g>
<!-- Node7 -->
<g id="node15" class="node"><title>Node7</title>
<a xlink:href="class_viewport.html#a5acb57e1d34f591dab00a8a40cd21855" target="_top" xlink:title="Viewport::updateLights">
<polygon fill="white" stroke="black" points="136,-100.5 136,-121.5 252,-121.5 252,-100.5 136,-100.5"/>
<text text-anchor="middle" x="194" y="-108.5" font-family="Helvetica,sans-Serif" font-size="10.00">Viewport::updateLights</text>
</a>
</g>
<!-- Node1&#45;&gt;Node7 -->
<g id="edge16" class="edge"><title>Node1&#45;&gt;Node7</title>
<path fill="none" stroke="midnightblue" d="M70.7061,-174.088C87.511,-160.987 112.234,-143.091 136,-131 143.025,-127.426 150.835,-124.247 158.389,-121.534"/>
<polygon fill="midnightblue" stroke="midnightblue" points="68.3487,-171.49 62.6869,-180.445 72.6974,-176.976 68.3487,-171.49"/>
</g>
<!-- Node4 -->
<g id="node7" class="node"><title>Node4</title>
<a xlink:href="class_viewport.html#a3c2c4661eac1f6351392b8fe133423f5" target="_top" xlink:title="Viewport::paintGL">
<polygon fill="white" stroke="black" points="288.5,-180.5 288.5,-201.5 383.5,-201.5 383.5,-180.5 288.5,-180.5"/>
<text text-anchor="middle" x="336" y="-188.5" font-family="Helvetica,sans-Serif" font-size="10.00">Viewport::paintGL</text>
</a>
</g>
<!-- Node3&#45;&gt;Node4 -->
<g id="edge6" class="edge"><title>Node3&#45;&gt;Node4</title>
<path fill="none" stroke="midnightblue" d="M241.084,-217.737C259.727,-212.485 280.862,-206.532 298.447,-201.578"/>
<polygon fill="midnightblue" stroke="midnightblue" points="239.985,-214.41 231.309,-220.49 241.883,-221.148 239.985,-214.41"/>
</g>
<!-- Node5&#45;&gt;Node4 -->
<g id="edge10" class="edge"><title>Node5&#45;&gt;Node4</title>
<path fill="none" stroke="midnightblue" d="M262.336,-191C271.046,-191 279.81,-191 288.102,-191"/>
<polygon fill="midnightblue" stroke="midnightblue" points="262.167,-187.5 252.167,-191 262.167,-194.5 262.167,-187.5"/>
</g>
<!-- Node6&#45;&gt;Node4 -->
<g id="edge14" class="edge"><title>Node6&#45;&gt;Node4</title>
<path fill="none" stroke="midnightblue" d="M241.084,-164.263C259.727,-169.515 280.862,-175.468 298.447,-180.422"/>
<polygon fill="midnightblue" stroke="midnightblue" points="241.883,-160.852 231.309,-161.51 239.985,-167.59 241.883,-160.852"/>
</g>
<!-- Node8 -->
<g id="node17" class="node"><title>Node8</title>
<a xlink:href="class_actor.html#a422d0d3c1e343e794357669a34bb59e1" target="_top" xlink:title="Actor::setParent">
<polygon fill="white" stroke="black" points="292,-80.5 292,-101.5 380,-101.5 380,-80.5 292,-80.5"/>
<text text-anchor="middle" x="336" y="-88.5" font-family="Helvetica,sans-Serif" font-size="10.00">Actor::setParent</text>
</a>
</g>
<!-- Node7&#45;&gt;Node8 -->
<g id="edge18" class="edge"><title>Node7&#45;&gt;Node8</title>
<path fill="none" stroke="midnightblue" d="M262.132,-101.404C272.152,-99.9927 282.248,-98.5707 291.621,-97.2506"/>
<polygon fill="midnightblue" stroke="midnightblue" points="261.581,-97.947 252.167,-102.808 262.557,-104.879 261.581,-97.947"/>
</g>
<!-- Node11 -->
<g id="node23" class="node"><title>Node11</title>
<a xlink:href="class_geo_base.html#a357c5534b7ac40df29f504c0e988e52e" target="_top" xlink:title="GeoBase::setParent">
<polygon fill="white" stroke="black" points="420.5,-120.5 420.5,-141.5 525.5,-141.5 525.5,-120.5 420.5,-120.5"/>
<text text-anchor="middle" x="473" y="-128.5" font-family="Helvetica,sans-Serif" font-size="10.00">GeoBase::setParent</text>
</a>
</g>
<!-- Node7&#45;&gt;Node11 -->
<g id="edge32" class="edge"><title>Node7&#45;&gt;Node11</title>
<path fill="none" stroke="midnightblue" d="M262.276,-115.894C310.922,-119.381 375.358,-124.001 420.113,-127.209"/>
<polygon fill="midnightblue" stroke="midnightblue" points="262.373,-112.392 252.148,-115.168 261.872,-119.374 262.373,-112.392"/>
</g>
<!-- Node9 -->
<g id="node19" class="node"><title>Node9</title>
<a xlink:href="class_actor.html#aa0fc674ef09b215b67ff2fff69b79459" target="_top" xlink:title="Actor::Actor">
<polygon fill="white" stroke="black" points="438.5,-80.5 438.5,-101.5 507.5,-101.5 507.5,-80.5 438.5,-80.5"/>
<text text-anchor="middle" x="473" y="-88.5" font-family="Helvetica,sans-Serif" font-size="10.00">Actor::Actor</text>
</a>
</g>
<!-- Node8&#45;&gt;Node9 -->
<g id="edge20" class="edge"><title>Node8&#45;&gt;Node9</title>
<path fill="none" stroke="midnightblue" d="M390.455,-91C406.505,-91 423.63,-91 438.097,-91"/>
<polygon fill="midnightblue" stroke="midnightblue" points="390.102,-87.5001 380.102,-91 390.102,-94.5001 390.102,-87.5001"/>
</g>
<!-- Node10 -->
<g id="node21" class="node"><title>Node10</title>
<a xlink:href="fileloader_8hpp.html#a48efbb80ebceb0d47fc8d9084562f597" target="_top" xlink:title="operator\&gt;\&gt;">
<polygon fill="white" stroke="black" points="441,-40.5 441,-61.5 505,-61.5 505,-40.5 441,-40.5"/>
<text text-anchor="middle" x="473" y="-48.5" font-family="Helvetica,sans-Serif" font-size="10.00">operator&gt;&gt;</text>
</a>
</g>
<!-- Node8&#45;&gt;Node10 -->
<g id="edge22" class="edge"><title>Node8&#45;&gt;Node10</title>
<path fill="none" stroke="midnightblue" d="M381.853,-77.6122C401.254,-71.9478 423.386,-65.4859 440.982,-60.3482"/>
<polygon fill="midnightblue" stroke="midnightblue" points="380.613,-74.328 371.995,-80.4905 382.575,-81.0474 380.613,-74.328"/>
</g>
<!-- Node8&#45;&gt;Node11 -->
<g id="edge24" class="edge"><title>Node8&#45;&gt;Node11</title>
<path fill="none" stroke="midnightblue" d="M381.675,-104.336C399.601,-109.57 419.881,-115.491 436.77,-120.422"/>
<polygon fill="midnightblue" stroke="midnightblue" points="382.575,-100.953 371.995,-101.51 380.613,-107.672 382.575,-100.953"/>
</g>
<!-- Node13 -->
<g id="node27" class="node"><title>Node13</title>
<a xlink:href="class_light.html#ab89261d1fa4fbbeaa61988502da207d3" target="_top" xlink:title="Light::setParent">
<polygon fill="white" stroke="black" points="430,-0.5 430,-21.5 516,-21.5 516,-0.5 430,-0.5"/>
<text text-anchor="middle" x="473" y="-8.5" font-family="Helvetica,sans-Serif" font-size="10.00">Light::setParent</text>
</a>
</g>
<!-- Node8&#45;&gt;Node13 -->
<g id="edge28" class="edge"><title>Node8&#45;&gt;Node13</title>
<path fill="none" stroke="midnightblue" d="M356.545,-74.0117C372.97,-61.0154 396.981,-43.2943 420,-31 426.593,-27.4788 433.943,-24.2856 441.018,-21.536"/>
<polygon fill="midnightblue" stroke="midnightblue" points="354.293,-71.3306 348.692,-80.3234 358.679,-76.7867 354.293,-71.3306"/>
</g>
<!-- Node12 -->
<g id="node25" class="node"><title>Node12</title>
<a xlink:href="class_geo_base.html#a64d0302a4d85b1fe7946df7ebfaa2e33" target="_top" xlink:title="GeoBase::GeoBase">
<polygon fill="white" stroke="black" points="562,-120.5 562,-141.5 666,-141.5 666,-120.5 562,-120.5"/>
<text text-anchor="middle" x="614" y="-128.5" font-family="Helvetica,sans-Serif" font-size="10.00">GeoBase::GeoBase</text>
</a>
</g>
<!-- Node11&#45;&gt;Node12 -->
<g id="edge26" class="edge"><title>Node11&#45;&gt;Node12</title>
<path fill="none" stroke="midnightblue" d="M535.686,-131C544.452,-131 553.381,-131 561.922,-131"/>
<polygon fill="midnightblue" stroke="midnightblue" points="535.503,-127.5 525.503,-131 535.503,-134.5 535.503,-127.5"/>
</g>
<!-- Node14 -->
<g id="node29" class="node"><title>Node14</title>
<a xlink:href="class_light.html#a30538cefe47541035db096b75133442d" target="_top" xlink:title="Light::Light">
<polygon fill="white" stroke="black" points="581.5,-0.5 581.5,-21.5 646.5,-21.5 646.5,-0.5 581.5,-0.5"/>
<text text-anchor="middle" x="614" y="-8.5" font-family="Helvetica,sans-Serif" font-size="10.00">Light::Light</text>
</a>
</g>
<!-- Node13&#45;&gt;Node14 -->
<g id="edge30" class="edge"><title>Node13&#45;&gt;Node14</title>
<path fill="none" stroke="midnightblue" d="M526.189,-11C544.782,-11 565.088,-11 581.486,-11"/>
<polygon fill="midnightblue" stroke="midnightblue" points="526.071,-7.5001 516.071,-11 526.071,-14.5001 526.071,-7.5001"/>
</g>
</g>
</svg>
        <g id="navigator" transform="translate(0 0)" fill="#404254">
                <rect fill="#f2f5e9" fill-opacity="0.5" stroke="#606060" stroke-width=".5" x="0" y="0" width="60" height="60"/>
                <use id="zoomplus" xlink:href="#zoomPlus" x="17" y="9" onmousedown="handleZoom(evt,'in')"/>
                <use id="zoomminus" xlink:href="#zoomMin" x="42" y="9" onmousedown="handleZoom(evt,'out')"/>
                <use id="reset" xlink:href="#resetDef" x="30" y="36" onmousedown="handleReset()"/>
                <g id="arrowUp" xlink:href="#dirArrow" transform="translate(30 24)" onmousedown="handlePan(0,-1)">
                  <use xlink:href="#rim" fill="#404040">
                        <set attributeName="fill" to="#808080" begin="arrowUp.mouseover" end="arrowUp.mouseout"/>
                  </use>
                  <path fill="none" stroke="white" stroke-width="1.5" d="M0,-3.0v7 M-2.5,-0.5L0,-3.0L2.5,-0.5"/>
                </g>
                <g id="arrowRight" xlink:href="#dirArrow" transform="rotate(90) translate(36 -43)" onmousedown="handlePan(1,0)">
                  <use xlink:href="#rim" fill="#404040">
                        <set attributeName="fill" to="#808080" begin="arrowRight.mouseover" end="arrowRight.mouseout"/>
                  </use>
                  <path fill="none" stroke="white" stroke-width="1.5" d="M0,-3.0v7 M-2.5,-0.5L0,-3.0L2.5,-0.5"/>
                </g>
                <g id="arrowDown" xlink:href="#dirArrow" transform="rotate(180) translate(-30 -48)" onmousedown="handlePan(0,1)">
                  <use xlink:href="#rim" fill="#404040">
                        <set attributeName="fill" to="#808080" begin="arrowDown.mouseover" end="arrowDown.mouseout"/>
                  </use>
                  <path fill="none" stroke="white" stroke-width="1.5" d="M0,-3.0v7 M-2.5,-0.5L0,-3.0L2.5,-0.5"/>
                </g>
                <g id="arrowLeft" xlink:href="#dirArrow" transform="rotate(270) translate(-36 17)" onmousedown="handlePan(-1,0)">
                  <use xlink:href="#rim" fill="#404040">
                        <set attributeName="fill" to="#808080" begin="arrowLeft.mouseover" end="arrowLeft.mouseout"/>
                  </use>
                  <path fill="none" stroke="white" stroke-width="1.5" d="M0,-3.0v7 M-2.5,-0.5L0,-3.0L2.5,-0.5"/>
                </g>
        </g>
        <svg viewBox="0 0 15 15" width="100%" height="30px" preserveAspectRatio="xMaxYMin meet">
         <g id="arrow_out" transform="scale(0.3 0.3)">
          <a xlink:href="class_world_a664cd2c63ef6c7979736cd454b31eb1c_icgraph_org.svg" target="_base">
           <rect id="button" ry="5" rx="5" y="6" x="6" height="38" width="38"
                fill="#f2f5e9" fill-opacity="0.5" stroke="#606060" stroke-width="1.0"/>
           <path id="arrow"
             d="M 11.500037,31.436501 C 11.940474,20.09759 22.043105,11.32322 32.158766,21.979434 L 37.068811,17.246167 C 37.068811,17.246167 37.088388,32 37.088388,32 L 22.160133,31.978069 C 22.160133,31.978069 26.997745,27.140456 26.997745,27.140456 C 18.528582,18.264221 13.291696,25.230495 11.500037,31.436501 z"
             style="fill:#404040;"/>
          </a>
         </g>
        </svg>
</svg>
