<?xml version="1.0" encoding="UTF-8" standalone="no"?>
<!DOCTYPE svg PUBLIC "-//W3C//DTD SVG 1.1//EN"
 "http://www.w3.org/Graphics/SVG/1.1/DTD/svg11.dtd">
<!-- Generated by graphviz version 2.26.3 (20100126.1600)
 -->
<!-- Title: Actor::setParent Pages: 1 -->
<svg width="378pt" height="150pt"
 viewBox="0.00 0.00 378.00 150.00" xmlns="http://www.w3.org/2000/svg" xmlns:xlink="http://www.w3.org/1999/xlink">
<g id="graph1" class="graph" transform="scale(1 1) rotate(0) translate(4 146)">
<title>Actor::setParent</title>
<polygon fill="white" stroke="white" points="-4,5 -4,-146 375,-146 375,5 -4,5"/>
<!-- Node1 -->
<g id="node1" class="node"><title>Node1</title>
<polygon fill="#bfbfbf" stroke="black" points="0,-60.5 0,-81.5 88,-81.5 88,-60.5 0,-60.5"/>
<text text-anchor="middle" x="44" y="-68.5" font-family="Helvetica,sans-Serif" font-size="10.00">Actor::setParent</text>
</g>
<!-- Node2 -->
<g id="node3" class="node"><title>Node2</title>
<a xlink:href="class_actor.html#aa0fc674ef09b215b67ff2fff69b79459" target="_top" xlink:title="Actor::Actor">
<polygon fill="white" stroke="black" points="142.5,-120.5 142.5,-141.5 211.5,-141.5 211.5,-120.5 142.5,-120.5"/>
<text text-anchor="middle" x="177" y="-128.5" font-family="Helvetica,sans-Serif" font-size="10.00">Actor::Actor</text>
</a>
</g>
<!-- Node1&#45;&gt;Node2 -->
<g id="edge2" class="edge"><title>Node1&#45;&gt;Node2</title>
<path fill="none" stroke="midnightblue" d="M73.0705,-86.4382C88.0999,-94.1879 106.844,-103.498 124,-111 131.479,-114.271 139.68,-117.523 147.348,-120.425"/>
<polygon fill="midnightblue" stroke="midnightblue" points="74.271,-83.1174 63.7846,-81.6055 71.0393,-89.3268 74.271,-83.1174"/>
</g>
<!-- Node3 -->
<g id="node5" class="node"><title>Node3</title>
<a xlink:href="fileloader_8hpp.html#a48efbb80ebceb0d47fc8d9084562f597" target="_top" xlink:title="operator\&gt;\&gt;">
<polygon fill="white" stroke="black" points="145,-80.5 145,-101.5 209,-101.5 209,-80.5 145,-80.5"/>
<text text-anchor="middle" x="177" y="-88.5" font-family="Helvetica,sans-Serif" font-size="10.00">operator&gt;&gt;</text>
</a>
</g>
<!-- Node1&#45;&gt;Node3 -->
<g id="edge4" class="edge"><title>Node1&#45;&gt;Node3</title>
<path fill="none" stroke="midnightblue" d="M98.4372,-79.186C114.145,-81.5481 130.782,-84.0499 144.682,-86.1402"/>
<polygon fill="midnightblue" stroke="midnightblue" points="98.6964,-75.6857 88.2871,-77.6597 97.6554,-82.6079 98.6964,-75.6857"/>
</g>
<!-- Node4 -->
<g id="node7" class="node"><title>Node4</title>
<a xlink:href="class_geo_base.html#a357c5534b7ac40df29f504c0e988e52e" target="_top" xlink:title="GeoBase::setParent">
<polygon fill="white" stroke="black" points="124.5,-40.5 124.5,-61.5 229.5,-61.5 229.5,-40.5 124.5,-40.5"/>
<text text-anchor="middle" x="177" y="-48.5" font-family="Helvetica,sans-Serif" font-size="10.00">GeoBase::setParent</text>
</a>
</g>
<!-- Node1&#45;&gt;Node4 -->
<g id="edge6" class="edge"><title>Node1&#45;&gt;Node4</title>
<path fill="none" stroke="midnightblue" d="M98.1797,-62.8527C106.748,-61.5642 115.599,-60.2333 124.136,-58.9494"/>
<polygon fill="midnightblue" stroke="midnightblue" points="97.6554,-59.3921 88.2871,-64.3403 98.6964,-66.3143 97.6554,-59.3921"/>
</g>
<!-- Node6 -->
<g id="node11" class="node"><title>Node6</title>
<a xlink:href="class_light.html#ab89261d1fa4fbbeaa61988502da207d3" target="_top" xlink:title="Light::setParent">
<polygon fill="white" stroke="black" points="134,-0.5 134,-21.5 220,-21.5 220,-0.5 134,-0.5"/>
<text text-anchor="middle" x="177" y="-8.5" font-family="Helvetica,sans-Serif" font-size="10.00">Light::setParent</text>
</a>
</g>
<!-- Node1&#45;&gt;Node6 -->
<g id="edge10" class="edge"><title>Node1&#45;&gt;Node6</title>
<path fill="none" stroke="midnightblue" d="M73.0705,-55.5618C88.0999,-47.8121 106.844,-38.5024 124,-31 131.479,-27.7294 139.68,-24.4773 147.348,-21.5754"/>
<polygon fill="midnightblue" stroke="midnightblue" points="71.0393,-52.6732 63.7846,-60.3945 74.271,-58.8826 71.0393,-52.6732"/>
</g>
<!-- Node5 -->
<g id="node9" class="node"><title>Node5</title>
<a xlink:href="class_geo_base.html#a64d0302a4d85b1fe7946df7ebfaa2e33" target="_top" xlink:title="GeoBase::GeoBase">
<polygon fill="white" stroke="black" points="266,-40.5 266,-61.5 370,-61.5 370,-40.5 266,-40.5"/>
<text text-anchor="middle" x="318" y="-48.5" font-family="Helvetica,sans-Serif" font-size="10.00">GeoBase::GeoBase</text>
</a>
</g>
<!-- Node4&#45;&gt;Node5 -->
<g id="edge8" class="edge"><title>Node4&#45;&gt;Node5</title>
<path fill="none" stroke="midnightblue" d="M239.686,-51C248.452,-51 257.381,-51 265.922,-51"/>
<polygon fill="midnightblue" stroke="midnightblue" points="239.503,-47.5001 229.503,-51 239.503,-54.5001 239.503,-47.5001"/>
</g>
<!-- Node7 -->
<g id="node13" class="node"><title>Node7</title>
<a xlink:href="class_light.html#a30538cefe47541035db096b75133442d" target="_top" xlink:title="Light::Light">
<polygon fill="white" stroke="black" points="285.5,-0.5 285.5,-21.5 350.5,-21.5 350.5,-0.5 285.5,-0.5"/>
<text text-anchor="middle" x="318" y="-8.5" font-family="Helvetica,sans-Serif" font-size="10.00">Light::Light</text>
</a>
</g>
<!-- Node6&#45;&gt;Node7 -->
<g id="edge12" class="edge"><title>Node6&#45;&gt;Node7</title>
<path fill="none" stroke="midnightblue" d="M230.189,-11C248.782,-11 269.088,-11 285.486,-11"/>
<polygon fill="midnightblue" stroke="midnightblue" points="230.071,-7.5001 220.071,-11 230.071,-14.5001 230.071,-7.5001"/>
</g>
</g>
</svg>
