<?xml version="1.0" encoding="UTF-8" standalone="no"?>
<!DOCTYPE svg PUBLIC "-//W3C//DTD SVG 1.1//EN"
 "http://www.w3.org/Graphics/SVG/1.1/DTD/svg11.dtd">
<!-- Generated by graphviz version 2.26.3 (20100126.1600)
 -->
<!-- Title: Actor::draw Pages: 1 -->
<svg width="466pt" height="90pt"
 viewBox="0.00 0.00 466.00 90.00" xmlns="http://www.w3.org/2000/svg" xmlns:xlink="http://www.w3.org/1999/xlink">
<g id="graph1" class="graph" transform="scale(1 1) rotate(0) translate(4 86)">
<title>Actor::draw</title>
<polygon fill="white" stroke="white" points="-4,5 -4,-86 463,-86 463,5 -4,5"/>
<!-- Node1 -->
<g id="node1" class="node"><title>Node1</title>
<polygon fill="#bfbfbf" stroke="black" points="0.5,-40.5 0.5,-61.5 67.5,-61.5 67.5,-40.5 0.5,-40.5"/>
<text text-anchor="middle" x="34" y="-48.5" font-family="Helvetica,sans-Serif" font-size="10.00">Actor::draw</text>
</g>
<!-- Node2 -->
<g id="node3" class="node"><title>Node2</title>
<a xlink:href="class_group.html#af8d7df31c5fe4f8e22bd022c8735b6b2" target="_top" xlink:title="Group::draw">
<polygon fill="white" stroke="black" points="104,-60.5 104,-81.5 174,-81.5 174,-60.5 104,-60.5"/>
<text text-anchor="middle" x="139" y="-68.5" font-family="Helvetica,sans-Serif" font-size="10.00">Group::draw</text>
</a>
</g>
<!-- Node1&#45;&gt;Node2 -->
<g id="edge2" class="edge"><title>Node1&#45;&gt;Node2</title>
<path fill="none" stroke="midnightblue" d="M77.6157,-59.3078C86.4096,-60.9828 95.5459,-62.723 103.999,-64.3331"/>
<polygon fill="midnightblue" stroke="midnightblue" points="77.9897,-55.8161 67.5113,-57.3831 76.6798,-62.6925 77.9897,-55.8161"/>
</g>
<!-- Node3 -->
<g id="node5" class="node"><title>Node3</title>
<a xlink:href="class_zone.html#ab0e0091bda0819de6e848d647d14b1a0" target="_top" xlink:title="Zone::draw">
<polygon fill="white" stroke="black" points="106.5,-20.5 106.5,-41.5 171.5,-41.5 171.5,-20.5 106.5,-20.5"/>
<text text-anchor="middle" x="139" y="-28.5" font-family="Helvetica,sans-Serif" font-size="10.00">Zone::draw</text>
</a>
</g>
<!-- Node1&#45;&gt;Node3 -->
<g id="edge4" class="edge"><title>Node1&#45;&gt;Node3</title>
<path fill="none" stroke="midnightblue" d="M77.3409,-42.7446C86.9753,-40.9095 97.0342,-38.9935 106.165,-37.2542"/>
<polygon fill="midnightblue" stroke="midnightblue" points="76.6798,-39.3075 67.5113,-44.6169 77.9897,-46.1839 76.6798,-39.3075"/>
</g>
<!-- Node4 -->
<g id="node7" class="node"><title>Node4</title>
<a xlink:href="class_viewport.html#ae95938dedc43d6b36f2b85d4a226ffa1" target="_top" xlink:title="Viewport::renderLight">
<polygon fill="white" stroke="black" points="213.5,-40.5 213.5,-61.5 322.5,-61.5 322.5,-40.5 213.5,-40.5"/>
<text text-anchor="middle" x="268" y="-48.5" font-family="Helvetica,sans-Serif" font-size="10.00">Viewport::renderLight</text>
</a>
</g>
<!-- Node3&#45;&gt;Node4 -->
<g id="edge6" class="edge"><title>Node3&#45;&gt;Node4</title>
<path fill="none" stroke="midnightblue" d="M181.438,-37.5795C191.647,-39.1624 202.696,-40.8753 213.374,-42.5309"/>
<polygon fill="midnightblue" stroke="midnightblue" points="181.97,-34.1203 171.552,-36.0468 180.898,-41.0377 181.97,-34.1203"/>
</g>
<!-- Node6 -->
<g id="node11" class="node"><title>Node6</title>
<a xlink:href="class_viewport.html#ad0317022a7a6399ee47c199bb9348efc" target="_top" xlink:title="Viewport::renderScene">
<polygon fill="white" stroke="black" points="210,-0.5 210,-21.5 326,-21.5 326,-0.5 210,-0.5"/>
<text text-anchor="middle" x="268" y="-8.5" font-family="Helvetica,sans-Serif" font-size="10.00">Viewport::renderScene</text>
</a>
</g>
<!-- Node3&#45;&gt;Node6 -->
<g id="edge10" class="edge"><title>Node3&#45;&gt;Node6</title>
<path fill="none" stroke="midnightblue" d="M181.475,-24.4147C190.553,-23.0073 200.293,-21.4973 209.845,-20.0163"/>
<polygon fill="midnightblue" stroke="midnightblue" points="180.898,-20.9623 171.552,-25.9532 181.97,-27.8797 180.898,-20.9623"/>
</g>
<!-- Node5 -->
<g id="node9" class="node"><title>Node5</title>
<a xlink:href="class_viewport.html#a3c2c4661eac1f6351392b8fe133423f5" target="_top" xlink:title="Viewport::paintGL">
<polygon fill="white" stroke="black" points="362.5,-20.5 362.5,-41.5 457.5,-41.5 457.5,-20.5 362.5,-20.5"/>
<text text-anchor="middle" x="410" y="-28.5" font-family="Helvetica,sans-Serif" font-size="10.00">Viewport::paintGL</text>
</a>
</g>
<!-- Node4&#45;&gt;Node5 -->
<g id="edge8" class="edge"><title>Node4&#45;&gt;Node5</title>
<path fill="none" stroke="midnightblue" d="M333.04,-41.8395C342.853,-40.4574 352.819,-39.0537 362.18,-37.7352"/>
<polygon fill="midnightblue" stroke="midnightblue" points="332.315,-38.4069 322.901,-43.2675 333.291,-45.3385 332.315,-38.4069"/>
</g>
<!-- Node6&#45;&gt;Node5 -->
<g id="edge12" class="edge"><title>Node6&#45;&gt;Node5</title>
<path fill="none" stroke="midnightblue" d="M336.336,-20.6247C345.046,-21.8515 353.81,-23.0859 362.102,-24.2537"/>
<polygon fill="midnightblue" stroke="midnightblue" points="336.557,-17.1214 326.167,-19.1925 335.581,-24.053 336.557,-17.1214"/>
</g>
</g>
</svg>
