<?xml version="1.0" encoding="UTF-8" standalone="no"?>
<!DOCTYPE svg PUBLIC "-//W3C//DTD SVG 1.1//EN"
 "http://www.w3.org/Graphics/SVG/1.1/DTD/svg11.dtd">
<!-- Generated by graphviz version 2.26.3 (20100126.1600)
 -->
<!-- Title: Actor::viewport Pages: 1 -->
<svg width="374pt" height="150pt"
 viewBox="0.00 0.00 374.00 150.00" xmlns="http://www.w3.org/2000/svg" xmlns:xlink="http://www.w3.org/1999/xlink">
<g id="graph1" class="graph" transform="scale(1 1) rotate(0) translate(4 146)">
<title>Actor::viewport</title>
<polygon fill="white" stroke="white" points="-4,5 -4,-146 371,-146 371,5 -4,5"/>
<!-- Node1 -->
<g id="node1" class="node"><title>Node1</title>
<polygon fill="#bfbfbf" stroke="black" points="0.5,-60.5 0.5,-81.5 83.5,-81.5 83.5,-60.5 0.5,-60.5"/>
<text text-anchor="middle" x="42" y="-68.5" font-family="Helvetica,sans-Serif" font-size="10.00">Actor::viewport</text>
</g>
<!-- Node2 -->
<g id="node3" class="node"><title>Node2</title>
<a xlink:href="class_geo_base.html#a357c5534b7ac40df29f504c0e988e52e" target="_top" xlink:title="GeoBase::setParent">
<polygon fill="white" stroke="black" points="120.5,-120.5 120.5,-141.5 225.5,-141.5 225.5,-120.5 120.5,-120.5"/>
<text text-anchor="middle" x="173" y="-128.5" font-family="Helvetica,sans-Serif" font-size="10.00">GeoBase::setParent</text>
</a>
</g>
<!-- Node1&#45;&gt;Node2 -->
<g id="edge2" class="edge"><title>Node1&#45;&gt;Node2</title>
<path fill="none" stroke="midnightblue" d="M70.3027,-86.4919C84.9456,-94.2556 103.224,-103.562 120,-111 127.462,-114.309 135.657,-117.574 143.325,-120.477"/>
<polygon fill="midnightblue" stroke="midnightblue" points="71.7253,-83.2835 61.2575,-81.6479 68.4206,-89.4543 71.7253,-83.2835"/>
</g>
<!-- Node4 -->
<g id="node7" class="node"><title>Node4</title>
<a xlink:href="class_light.html#ad0e59fad13bb6cfadc25b2c477e9ddc7" target="_top" xlink:title="Light::~Light">
<polygon fill="white" stroke="black" points="137.5,-80.5 137.5,-101.5 208.5,-101.5 208.5,-80.5 137.5,-80.5"/>
<text text-anchor="middle" x="173" y="-88.5" font-family="Helvetica,sans-Serif" font-size="10.00">Light::~Light</text>
</a>
</g>
<!-- Node1&#45;&gt;Node4 -->
<g id="edge6" class="edge"><title>Node1&#45;&gt;Node4</title>
<path fill="none" stroke="midnightblue" d="M93.7254,-78.897C108.324,-81.1258 123.878,-83.5005 137.308,-85.5508"/>
<polygon fill="midnightblue" stroke="midnightblue" points="94.2231,-75.4325 83.8094,-77.3831 93.1666,-82.3523 94.2231,-75.4325"/>
</g>
<!-- Node5 -->
<g id="node9" class="node"><title>Node5</title>
<a xlink:href="class_light.html#a295eaf1ef5ebd30fa4997d4f7ccbb7e1" target="_top" xlink:title="Light::update">
<polygon fill="white" stroke="black" points="136.5,-0.5 136.5,-21.5 209.5,-21.5 209.5,-0.5 136.5,-0.5"/>
<text text-anchor="middle" x="173" y="-8.5" font-family="Helvetica,sans-Serif" font-size="10.00">Light::update</text>
</a>
</g>
<!-- Node1&#45;&gt;Node5 -->
<g id="edge8" class="edge"><title>Node1&#45;&gt;Node5</title>
<path fill="none" stroke="midnightblue" d="M70.3027,-55.5081C84.9456,-47.7444 103.224,-38.4384 120,-31 127.462,-27.6913 135.657,-24.4258 143.325,-21.5232"/>
<polygon fill="midnightblue" stroke="midnightblue" points="68.4206,-52.5457 61.2575,-60.3521 71.7253,-58.7165 68.4206,-52.5457"/>
</g>
<!-- Node8 -->
<g id="node15" class="node"><title>Node8</title>
<a xlink:href="class_light.html#ab89261d1fa4fbbeaa61988502da207d3" target="_top" xlink:title="Light::setParent">
<polygon fill="white" stroke="black" points="130,-40.5 130,-61.5 216,-61.5 216,-40.5 130,-40.5"/>
<text text-anchor="middle" x="173" y="-48.5" font-family="Helvetica,sans-Serif" font-size="10.00">Light::setParent</text>
</a>
</g>
<!-- Node1&#45;&gt;Node8 -->
<g id="edge14" class="edge"><title>Node1&#45;&gt;Node8</title>
<path fill="none" stroke="midnightblue" d="M94.0258,-63.0571C105.879,-61.2476 118.347,-59.344 129.785,-57.5977"/>
<polygon fill="midnightblue" stroke="midnightblue" points="93.1666,-59.6477 83.8094,-64.6169 94.2231,-66.5675 93.1666,-59.6477"/>
</g>
<!-- Node3 -->
<g id="node5" class="node"><title>Node3</title>
<a xlink:href="class_geo_base.html#a64d0302a4d85b1fe7946df7ebfaa2e33" target="_top" xlink:title="GeoBase::GeoBase">
<polygon fill="white" stroke="black" points="262,-120.5 262,-141.5 366,-141.5 366,-120.5 262,-120.5"/>
<text text-anchor="middle" x="314" y="-128.5" font-family="Helvetica,sans-Serif" font-size="10.00">GeoBase::GeoBase</text>
</a>
</g>
<!-- Node2&#45;&gt;Node3 -->
<g id="edge4" class="edge"><title>Node2&#45;&gt;Node3</title>
<path fill="none" stroke="midnightblue" d="M235.686,-131C244.452,-131 253.381,-131 261.922,-131"/>
<polygon fill="midnightblue" stroke="midnightblue" points="235.503,-127.5 225.503,-131 235.503,-134.5 235.503,-127.5"/>
</g>
<!-- Node6 -->
<g id="node11" class="node"><title>Node6</title>
<a xlink:href="class_light.html#a30538cefe47541035db096b75133442d" target="_top" xlink:title="Light::Light">
<polygon fill="white" stroke="black" points="281.5,-40.5 281.5,-61.5 346.5,-61.5 346.5,-40.5 281.5,-40.5"/>
<text text-anchor="middle" x="314" y="-48.5" font-family="Helvetica,sans-Serif" font-size="10.00">Light::Light</text>
</a>
</g>
<!-- Node5&#45;&gt;Node6 -->
<g id="edge10" class="edge"><title>Node5&#45;&gt;Node6</title>
<path fill="none" stroke="midnightblue" d="M219.354,-24.1501C239.632,-29.9026 262.941,-36.5151 281.353,-41.7384"/>
<polygon fill="midnightblue" stroke="midnightblue" points="220.254,-20.7672 209.678,-21.4051 218.343,-27.5015 220.254,-20.7672"/>
</g>
<!-- Node7 -->
<g id="node13" class="node"><title>Node7</title>
<a xlink:href="class_spotlight.html#a00b11e643c97326edb0ab6b0dff3425a" target="_top" xlink:title="Spotlight::Spotlight">
<polygon fill="white" stroke="black" points="264.5,-0.5 264.5,-21.5 363.5,-21.5 363.5,-0.5 264.5,-0.5"/>
<text text-anchor="middle" x="314" y="-8.5" font-family="Helvetica,sans-Serif" font-size="10.00">Spotlight::Spotlight</text>
</a>
</g>
<!-- Node5&#45;&gt;Node7 -->
<g id="edge12" class="edge"><title>Node5&#45;&gt;Node7</title>
<path fill="none" stroke="midnightblue" d="M219.769,-11C234.039,-11 249.776,-11 264.236,-11"/>
<polygon fill="midnightblue" stroke="midnightblue" points="219.678,-7.5001 209.678,-11 219.678,-14.5001 219.678,-7.5001"/>
</g>
<!-- Node8&#45;&gt;Node6 -->
<g id="edge16" class="edge"><title>Node8&#45;&gt;Node6</title>
<path fill="none" stroke="midnightblue" d="M226.189,-51C244.782,-51 265.088,-51 281.486,-51"/>
<polygon fill="midnightblue" stroke="midnightblue" points="226.071,-47.5001 216.071,-51 226.071,-54.5001 226.071,-47.5001"/>
</g>
</g>
</svg>
