<?xml version="1.0" encoding="UTF-8" standalone="no"?>
<!DOCTYPE svg PUBLIC "-//W3C//DTD SVG 1.1//EN"
 "http://www.w3.org/Graphics/SVG/1.1/DTD/svg11.dtd">
<!-- Generated by graphviz version 2.26.3 (20100126.1600)
 -->
<!-- Title: Viewport Pages: 1 -->
<svg width="228pt" height="218pt"
 viewBox="0.00 0.00 228.00 218.00" xmlns="http://www.w3.org/2000/svg" xmlns:xlink="http://www.w3.org/1999/xlink">
<g id="graph1" class="graph" transform="scale(1 1) rotate(0) translate(4 214)">
<title>Viewport</title>
<polygon fill="white" stroke="white" points="-4,5 -4,-214 225,-214 225,5 -4,5"/>
<!-- Node1 -->
<g id="node1" class="node"><title>Node1</title>
<polygon fill="#bfbfbf" stroke="black" points="76.5,-0.5 76.5,-21.5 131.5,-21.5 131.5,-0.5 76.5,-0.5"/>
<text text-anchor="middle" x="104" y="-8.5" font-family="Helvetica,sans-Serif" font-size="10.00">Viewport</text>
</g>
<!-- Node2 -->
<g id="node2" class="node"><title>Node2</title>
<a xlink:href="class_q_open_g_l_widget.html" target="_top" xlink:title="QOpenGLWidget">
<polygon fill="white" stroke="black" points="-0.5,-65.5 -0.5,-86.5 90.5,-86.5 90.5,-65.5 -0.5,-65.5"/>
<text text-anchor="middle" x="45" y="-73.5" font-family="Helvetica,sans-Serif" font-size="10.00">QOpenGLWidget</text>
</a>
</g>
<!-- Node2&#45;&gt;Node1 -->
<g id="edge2" class="edge"><title>Node2&#45;&gt;Node1</title>
<path fill="none" stroke="midnightblue" d="M61.5537,-57.7628C72.1652,-46.0723 85.5645,-31.3103 94.4386,-21.5337"/>
<polygon fill="midnightblue" stroke="midnightblue" points="58.8721,-55.5096 54.7427,-65.2666 64.0553,-60.2144 58.8721,-55.5096"/>
</g>
<!-- Node3 -->
<g id="node4" class="node"><title>Node3</title>
<a xlink:href="class_q_widget.html" target="_top" xlink:title="QWidget">
<polygon fill="white" stroke="black" points="17.5,-130.5 17.5,-151.5 72.5,-151.5 72.5,-130.5 17.5,-130.5"/>
<text text-anchor="middle" x="45" y="-138.5" font-family="Helvetica,sans-Serif" font-size="10.00">QWidget</text>
</a>
</g>
<!-- Node3&#45;&gt;Node2 -->
<g id="edge4" class="edge"><title>Node3&#45;&gt;Node2</title>
<path fill="none" stroke="midnightblue" d="M45,-120.014C45,-108.831 45,-95.5583 45,-86.5337"/>
<polygon fill="midnightblue" stroke="midnightblue" points="41.5001,-120.267 45,-130.267 48.5001,-120.267 41.5001,-120.267"/>
</g>
<!-- Node4 -->
<g id="node6" class="node"><title>Node4</title>
<a xlink:href="class_q_object.html" target="_top" xlink:title="QObject">
<polygon fill="white" stroke="black" points="18.5,-188.5 18.5,-209.5 71.5,-209.5 71.5,-188.5 18.5,-188.5"/>
<text text-anchor="middle" x="45" y="-196.5" font-family="Helvetica,sans-Serif" font-size="10.00">QObject</text>
</a>
</g>
<!-- Node4&#45;&gt;Node3 -->
<g id="edge6" class="edge"><title>Node4&#45;&gt;Node3</title>
<path fill="none" stroke="midnightblue" d="M45,-178.191C45,-169.168 45,-158.994 45,-151.571"/>
<polygon fill="midnightblue" stroke="midnightblue" points="41.5001,-178.362 45,-188.362 48.5001,-178.362 41.5001,-178.362"/>
</g>
<!-- Node5 -->
<g id="node8" class="node"><title>Node5</title>
<polygon fill="white" stroke="#bfbfbf" points="107.5,-59 107.5,-93 220.5,-93 220.5,-59 107.5,-59"/>
<text text-anchor="start" x="115.5" y="-80" font-family="Helvetica,sans-Serif" font-size="10.00">QOpenGLFunctions_4</text>
<text text-anchor="middle" x="164" y="-67" font-family="Helvetica,sans-Serif" font-size="10.00">_3_Core</text>
</g>
<!-- Node5&#45;&gt;Node1 -->
<g id="edge8" class="edge"><title>Node5&#45;&gt;Node1</title>
<path fill="none" stroke="darkgreen" d="M141.302,-51.4105C131.887,-41.2113 121.451,-29.9055 114.017,-21.8521"/>
<polygon fill="darkgreen" stroke="darkgreen" points="138.881,-53.9479 148.236,-58.922 144.025,-49.2 138.881,-53.9479"/>
</g>
</g>
</svg>
