<?xml version="1.0" encoding="UTF-8" standalone="no"?>
<!DOCTYPE svg PUBLIC "-//W3C//DTD SVG 1.1//EN"
 "http://www.w3.org/Graphics/SVG/1.1/DTD/svg11.dtd">
<!-- Generated by graphviz version 2.26.3 (20100126.1600)
 -->
<!-- Title: GeoBase::colors Pages: 1 -->
<svg width="352pt" height="322pt"
 viewBox="0.00 0.00 352.00 322.00" xmlns="http://www.w3.org/2000/svg" xmlns:xlink="http://www.w3.org/1999/xlink">
<g id="graph1" class="graph" transform="scale(1 1) rotate(0) translate(4 318)">
<title>GeoBase::colors</title>
<polygon fill="white" stroke="white" points="-4,5 -4,-318 349,-318 349,5 -4,5"/>
<!-- Node1 -->
<g id="node1" class="node"><title>Node1</title>
<polygon fill="#bfbfbf" stroke="black" points="0.5,-140.5 0.5,-161.5 89.5,-161.5 89.5,-140.5 0.5,-140.5"/>
<text text-anchor="middle" x="45" y="-148.5" font-family="Helvetica,sans-Serif" font-size="10.00">GeoBase::colors</text>
</g>
<!-- Node2 -->
<g id="node3" class="node"><title>Node2</title>
<a xlink:href="class_geometry.html#a7cb8ea5e505f3933367d7ff9c6439985" target="_top" xlink:title="Geometry\&lt; Trigger \&gt;\l::draw">
<polygon fill="white" stroke="black" points="126.5,-280 126.5,-314 233.5,-314 233.5,-280 126.5,-280"/>
<text text-anchor="start" x="134.5" y="-301" font-family="Helvetica,sans-Serif" font-size="10.00">Geometry&lt; Trigger &gt;</text>
<text text-anchor="middle" x="180" y="-288" font-family="Helvetica,sans-Serif" font-size="10.00">::draw</text>
</a>
</g>
<!-- Node1&#45;&gt;Node2 -->
<g id="edge2" class="edge"><title>Node1&#45;&gt;Node2</title>
<path fill="none" stroke="midnightblue" d="M54.247,-170.888C67.1514,-196.825 92.7636,-242.265 126,-271 129.778,-274.266 134.038,-277.222 138.466,-279.869"/>
<polygon fill="midnightblue" stroke="midnightblue" points="57.2963,-169.154 49.7918,-161.676 50.9945,-172.202 57.2963,-169.154"/>
</g>
<!-- Node4 -->
<g id="node7" class="node"><title>Node4</title>
<a xlink:href="class_cube.html#a6eceaa075072d4d0396b6bd85872d62b" target="_top" xlink:title="Cube::Cube">
<polygon fill="white" stroke="black" points="145.5,-240.5 145.5,-261.5 214.5,-261.5 214.5,-240.5 145.5,-240.5"/>
<text text-anchor="middle" x="180" y="-248.5" font-family="Helvetica,sans-Serif" font-size="10.00">Cube::Cube</text>
</a>
</g>
<!-- Node1&#45;&gt;Node4 -->
<g id="edge6" class="edge"><title>Node1&#45;&gt;Node4</title>
<path fill="none" stroke="midnightblue" d="M59.6613,-169.489C74.6693,-187.354 99.4931,-214.124 126,-231 131.903,-234.758 138.616,-237.957 145.253,-240.62"/>
<polygon fill="midnightblue" stroke="midnightblue" points="62.1675,-167.025 53.1179,-161.516 56.7565,-171.466 62.1675,-167.025"/>
</g>
<!-- Node5 -->
<g id="node9" class="node"><title>Node5</title>
<a xlink:href="class_cylinder.html#a1eb1ba8fde3ed150e1a9494865a23bc1" target="_top" xlink:title="Cylinder::Cylinder">
<polygon fill="white" stroke="black" points="132.5,-200.5 132.5,-221.5 227.5,-221.5 227.5,-200.5 132.5,-200.5"/>
<text text-anchor="middle" x="180" y="-208.5" font-family="Helvetica,sans-Serif" font-size="10.00">Cylinder::Cylinder</text>
</a>
</g>
<!-- Node1&#45;&gt;Node5 -->
<g id="edge8" class="edge"><title>Node1&#45;&gt;Node5</title>
<path fill="none" stroke="midnightblue" d="M74.001,-166.235C89.2905,-174.033 108.465,-183.447 126,-191 133.621,-194.282 141.977,-197.539 149.789,-200.441"/>
<polygon fill="midnightblue" stroke="midnightblue" points="75.5257,-163.083 65.0325,-161.619 72.3226,-169.307 75.5257,-163.083"/>
</g>
<!-- Node6 -->
<g id="node11" class="node"><title>Node6</title>
<a xlink:href="class_line.html#a7a071c7cde9102435f12791cdb8f44a7" target="_top" xlink:title="Line::Line">
<polygon fill="white" stroke="black" points="150.5,-160.5 150.5,-181.5 209.5,-181.5 209.5,-160.5 150.5,-160.5"/>
<text text-anchor="middle" x="180" y="-168.5" font-family="Helvetica,sans-Serif" font-size="10.00">Line::Line</text>
</a>
</g>
<!-- Node1&#45;&gt;Node6 -->
<g id="edge10" class="edge"><title>Node1&#45;&gt;Node6</title>
<path fill="none" stroke="midnightblue" d="M99.6153,-159.091C116.955,-161.66 135.474,-164.404 150.361,-166.609"/>
<polygon fill="midnightblue" stroke="midnightblue" points="99.9832,-155.608 89.5782,-157.604 98.9573,-162.532 99.9832,-155.608"/>
</g>
<!-- Node7 -->
<g id="node13" class="node"><title>Node7</title>
<a xlink:href="class_pyramide.html#aa0bf3bafc7861697f987ecf0443fb418" target="_top" xlink:title="Pyramide::Pyramide">
<polygon fill="white" stroke="black" points="127.5,-120.5 127.5,-141.5 232.5,-141.5 232.5,-120.5 127.5,-120.5"/>
<text text-anchor="middle" x="180" y="-128.5" font-family="Helvetica,sans-Serif" font-size="10.00">Pyramide::Pyramide</text>
</a>
</g>
<!-- Node1&#45;&gt;Node7 -->
<g id="edge12" class="edge"><title>Node1&#45;&gt;Node7</title>
<path fill="none" stroke="midnightblue" d="M99.7462,-142.889C108.908,-141.532 118.395,-140.127 127.499,-138.778"/>
<polygon fill="midnightblue" stroke="midnightblue" points="98.9573,-139.468 89.5782,-144.396 99.9832,-146.392 98.9573,-139.468"/>
</g>
<!-- Node8 -->
<g id="node15" class="node"><title>Node8</title>
<a xlink:href="class_rect.html#a3c3ad385bbab52efdb32de750912c638" target="_top" xlink:title="Rect::Rect">
<polygon fill="white" stroke="black" points="147.5,-80.5 147.5,-101.5 212.5,-101.5 212.5,-80.5 147.5,-80.5"/>
<text text-anchor="middle" x="180" y="-88.5" font-family="Helvetica,sans-Serif" font-size="10.00">Rect::Rect</text>
</a>
</g>
<!-- Node1&#45;&gt;Node8 -->
<g id="edge14" class="edge"><title>Node1&#45;&gt;Node8</title>
<path fill="none" stroke="midnightblue" d="M74.001,-135.765C89.2905,-127.967 108.465,-118.553 126,-111 133.621,-107.718 141.977,-104.461 149.789,-101.559"/>
<polygon fill="midnightblue" stroke="midnightblue" points="72.3226,-132.693 65.0325,-140.381 75.5257,-138.917 72.3226,-132.693"/>
</g>
<!-- Node9 -->
<g id="node17" class="node"><title>Node9</title>
<a xlink:href="class_sphere.html#ad1e284dc3aef66be0a3962e82d3c9e60" target="_top" xlink:title="Sphere::Sphere">
<polygon fill="white" stroke="black" points="138,-40.5 138,-61.5 222,-61.5 222,-40.5 138,-40.5"/>
<text text-anchor="middle" x="180" y="-48.5" font-family="Helvetica,sans-Serif" font-size="10.00">Sphere::Sphere</text>
</a>
</g>
<!-- Node1&#45;&gt;Node9 -->
<g id="edge16" class="edge"><title>Node1&#45;&gt;Node9</title>
<path fill="none" stroke="midnightblue" d="M59.6613,-132.511C74.6693,-114.646 99.4931,-87.8761 126,-71 131.735,-67.349 138.233,-64.2264 144.684,-61.6092"/>
<polygon fill="midnightblue" stroke="midnightblue" points="56.7565,-130.534 53.1179,-140.484 62.1675,-134.975 56.7565,-130.534"/>
</g>
<!-- Node10 -->
<g id="node19" class="node"><title>Node10</title>
<a xlink:href="class_trigger.html#a2de1adfbfb4db8f7d1e1ec22cf4b6515" target="_top" xlink:title="Trigger::Trigger">
<polygon fill="white" stroke="black" points="138.5,-0.5 138.5,-21.5 221.5,-21.5 221.5,-0.5 138.5,-0.5"/>
<text text-anchor="middle" x="180" y="-8.5" font-family="Helvetica,sans-Serif" font-size="10.00">Trigger::Trigger</text>
</a>
</g>
<!-- Node1&#45;&gt;Node10 -->
<g id="edge18" class="edge"><title>Node1&#45;&gt;Node10</title>
<path fill="none" stroke="midnightblue" d="M53.6626,-131.03C66.0644,-104.63 91.2756,-58.2783 126,-31 130.796,-27.2327 136.372,-24.1252 142.084,-21.577"/>
<polygon fill="midnightblue" stroke="midnightblue" points="50.3567,-129.845 49.4087,-140.397 56.7303,-132.74 50.3567,-129.845"/>
</g>
<!-- Node3 -->
<g id="node5" class="node"><title>Node3</title>
<a xlink:href="class_trigger.html#ae3e4635086dd4d53bbdedd0b02525daa" target="_top" xlink:title="Trigger::draw">
<polygon fill="white" stroke="black" points="270,-286.5 270,-307.5 344,-307.5 344,-286.5 270,-286.5"/>
<text text-anchor="middle" x="307" y="-294.5" font-family="Helvetica,sans-Serif" font-size="10.00">Trigger::draw</text>
</a>
</g>
<!-- Node2&#45;&gt;Node3 -->
<g id="edge4" class="edge"><title>Node2&#45;&gt;Node3</title>
<path fill="none" stroke="midnightblue" d="M243.913,-297C252.846,-297 261.769,-297 269.973,-297"/>
<polygon fill="midnightblue" stroke="midnightblue" points="243.859,-293.5 233.859,-297 243.859,-300.5 243.859,-293.5"/>
</g>
</g>
</svg>
