<?xml version="1.0" encoding="UTF-8" standalone="no"?>
<!DOCTYPE svg PUBLIC "-//W3C//DTD SVG 1.1//EN"
 "http://www.w3.org/Graphics/SVG/1.1/DTD/svg11.dtd">
<!-- Generated by graphviz version 2.26.3 (20100126.1600)
 -->
<!-- Title: GeoBase Pages: 1 -->
<!--zoomable 318 -->
<svg id="main" version="1.1" xmlns="http://www.w3.org/2000/svg" xmlns:xlink="http://www.w3.org/1999/xlink" xml:space="preserve" onload="init(evt)">
<style type="text/css"><![CDATA[
.edge:hover path { stroke: red; }
.edge:hover polygon { stroke: red; fill: red; }
]]></style>
<script type="text/javascript"><![CDATA[
var edges = document.getElementsByTagName('g');
if (edges && edges.length) {
  for (var i=0;i<edges.length;i++) {
    if (edges[i].id.substr(0,4)=='edge') {
      edges[i].setAttribute('class','edge');
    }
  }
}
]]></script>
        <defs>
                <circle id="rim" cx="0" cy="0" r="7"/>
                <circle id="rim2" cx="0" cy="0" r="3.5"/>
                <g id="zoomPlus">
                        <use xlink:href="#rim" fill="#404040">
                                <set attributeName="fill" to="#808080" begin="zoomplus.mouseover" end="zoomplus.mouseout"/>
                        </use>
                        <path d="M-4,0h8M0,-4v8" fill="none" stroke="white" stroke-width="1.5" pointer-events="none"/>
                </g>
                <g id="zoomMin">
                        <use xlink:href="#rim" fill="#404040">
                                <set attributeName="fill" to="#808080" begin="zoomminus.mouseover" end="zoomminus.mouseout"/>
                        </use>
                        <path d="M-4,0h8" fill="none" stroke="white" stroke-width="1.5" pointer-events="none"/>
                </g>
                <g id="dirArrow">
                        <path fill="none" stroke="white" stroke-width="1.5" d="M0,-3.0v7 M-2.5,-0.5L0,-3.0L2.5,-0.5"/>
                </g>
               <g id="resetDef">
                       <use xlink:href="#rim2" fill="#404040">
                               <set attributeName="fill" to="#808080" begin="reset.mouseover" end="reset.mouseout"/>
                       </use>
               </g>
        </defs>

<script type="text/javascript">
var viewWidth = 690;
var viewHeight = 318;
var sectionId = 'dynsection-0';
</script>
<script xlink:href="svgpan.js"/>
<svg id="graph" class="graph">
<g id="viewport">
<title>GeoBase</title>
<polygon fill="white" stroke="white" points="-4,5 -4,-314 687,-314 687,5 -4,5"/>
<!-- Node1 -->
<g id="node1" class="node"><title>Node1</title>
<polygon fill="#bfbfbf" stroke="black" points="170.5,-150.5 170.5,-171.5 227.5,-171.5 227.5,-150.5 170.5,-150.5"/>
<text text-anchor="middle" x="199" y="-158.5" font-family="Helvetica,sans-Serif" font-size="10.00">GeoBase</text>
</g>
<!-- Node4 -->
<g id="node7" class="node"><title>Node4</title>
<a xlink:href="class_geometry.html" target="_top" xlink:title="Base de toutes les géometries. ">
<polygon fill="white" stroke="black" points="266,-150.5 266,-171.5 366,-171.5 366,-150.5 266,-150.5"/>
<text text-anchor="middle" x="316" y="-158.5" font-family="Helvetica,sans-Serif" font-size="10.00">Geometry&lt; Child &gt;</text>
</a>
</g>
<!-- Node1&#45;&gt;Node4 -->
<g id="edge6" class="edge"><title>Node1&#45;&gt;Node4</title>
<path fill="none" stroke="midnightblue" d="M237.766,-161C246.732,-161 256.398,-161 265.775,-161"/>
<polygon fill="midnightblue" stroke="midnightblue" points="237.621,-157.5 227.621,-161 237.621,-164.5 237.621,-157.5"/>
</g>
<!-- Node5 -->
<g id="node9" class="node"><title>Node5</title>
<a xlink:href="class_geometry.html" target="_top" xlink:title="Geometry\&lt; Cube \&gt;">
<polygon fill="white" stroke="black" points="475.5,-178.5 475.5,-199.5 576.5,-199.5 576.5,-178.5 475.5,-178.5"/>
<text text-anchor="middle" x="526" y="-186.5" font-family="Helvetica,sans-Serif" font-size="10.00">Geometry&lt; Cube &gt;</text>
</a>
</g>
<!-- Node1&#45;&gt;Node5 -->
<g id="edge32" class="edge"><title>Node1&#45;&gt;Node5</title>
<path fill="none" stroke="midnightblue" d="M229.661,-176.092C265.614,-192.874 327.492,-218.944 384,-229 412.004,-233.984 420.35,-235.676 448,-229 471.373,-223.356 495.607,-209.442 510.736,-199.616"/>
<polygon fill="midnightblue" stroke="midnightblue" points="230.77,-172.744 220.234,-171.625 227.773,-179.07 230.77,-172.744"/>
</g>
<!-- Node7 -->
<g id="node13" class="node"><title>Node7</title>
<a xlink:href="class_geometry.html" target="_top" xlink:title="Geometry\&lt; Line \&gt;">
<polygon fill="white" stroke="black" points="478.5,-238.5 478.5,-259.5 573.5,-259.5 573.5,-238.5 478.5,-238.5"/>
<text text-anchor="middle" x="526" y="-246.5" font-family="Helvetica,sans-Serif" font-size="10.00">Geometry&lt; Line &gt;</text>
</a>
</g>
<!-- Node1&#45;&gt;Node7 -->
<g id="edge36" class="edge"><title>Node1&#45;&gt;Node7</title>
<path fill="none" stroke="midnightblue" d="M216.159,-179.007C246.51,-209.264 313.177,-268.784 384,-287 411.548,-294.085 420.283,-293.392 448,-287 451.046,-286.298 482.938,-270.528 504.986,-259.527"/>
<polygon fill="midnightblue" stroke="midnightblue" points="218.425,-176.319 208.915,-171.647 213.436,-181.229 218.425,-176.319"/>
</g>
<!-- Node9 -->
<g id="node17" class="node"><title>Node9</title>
<a xlink:href="class_geometry.html" target="_top" xlink:title="Geometry\&lt; Sphere \&gt;">
<polygon fill="white" stroke="black" points="472,-288.5 472,-309.5 580,-309.5 580,-288.5 472,-288.5"/>
<text text-anchor="middle" x="526" y="-296.5" font-family="Helvetica,sans-Serif" font-size="10.00">Geometry&lt; Sphere &gt;</text>
</a>
</g>
<!-- Node1&#45;&gt;Node9 -->
<g id="edge40" class="edge"><title>Node1&#45;&gt;Node9</title>
<path fill="none" stroke="midnightblue" d="M206.745,-181.079C216.874,-204.747 236.833,-243.673 266,-266 325.073,-311.22 414.744,-312.139 471.833,-306.9"/>
<polygon fill="midnightblue" stroke="midnightblue" points="209.924,-179.606 202.896,-171.678 203.446,-182.259 209.924,-179.606"/>
</g>
<!-- Node11 -->
<g id="node21" class="node"><title>Node11</title>
<a xlink:href="class_geometry.html" target="_top" xlink:title="Geometry\&lt; Cylinder \&gt;">
<polygon fill="white" stroke="black" points="469.5,-128.5 469.5,-149.5 582.5,-149.5 582.5,-128.5 469.5,-128.5"/>
<text text-anchor="middle" x="526" y="-136.5" font-family="Helvetica,sans-Serif" font-size="10.00">Geometry&lt; Cylinder &gt;</text>
</a>
</g>
<!-- Node1&#45;&gt;Node11 -->
<g id="edge34" class="edge"><title>Node1&#45;&gt;Node11</title>
<path fill="none" stroke="midnightblue" d="M226.18,-145.619C272.034,-121.646 367.627,-80.1733 448,-101 456.859,-103.296 457.848,-106.84 466,-111 477.877,-117.061 491.31,-123.378 502.45,-128.475"/>
<polygon fill="midnightblue" stroke="midnightblue" points="224.338,-142.635 217.174,-150.44 227.642,-148.807 224.338,-142.635"/>
</g>
<!-- Node13 -->
<g id="node25" class="node"><title>Node13</title>
<a xlink:href="class_geometry.html" target="_top" xlink:title="Geometry\&lt; Pyramide \&gt;">
<polygon fill="white" stroke="black" points="466.5,-80.5 466.5,-101.5 585.5,-101.5 585.5,-80.5 466.5,-80.5"/>
<text text-anchor="middle" x="526" y="-88.5" font-family="Helvetica,sans-Serif" font-size="10.00">Geometry&lt; Pyramide &gt;</text>
</a>
</g>
<!-- Node1&#45;&gt;Node13 -->
<g id="edge38" class="edge"><title>Node1&#45;&gt;Node13</title>
<path fill="none" stroke="midnightblue" d="M214.238,-142.625C226.925,-128.217 246.078,-108.423 266,-95 313.381,-63.075 328.051,-55.5733 384,-44 411.855,-38.2381 420.595,-36.3814 448,-44 473.438,-51.0717 498.881,-68.918 513.496,-80.4721"/>
<polygon fill="midnightblue" stroke="midnightblue" points="211.422,-140.532 207.558,-150.397 216.73,-145.094 211.422,-140.532"/>
</g>
<!-- Node15 -->
<g id="node29" class="node"><title>Node15</title>
<a xlink:href="class_geometry.html" target="_top" xlink:title="Geometry\&lt; Trigger \&gt;">
<polygon fill="white" stroke="black" points="472.5,-0.5 472.5,-21.5 579.5,-21.5 579.5,-0.5 472.5,-0.5"/>
<text text-anchor="middle" x="526" y="-8.5" font-family="Helvetica,sans-Serif" font-size="10.00">Geometry&lt; Trigger &gt;</text>
</a>
</g>
<!-- Node1&#45;&gt;Node15 -->
<g id="edge42" class="edge"><title>Node1&#45;&gt;Node15</title>
<path fill="none" stroke="midnightblue" d="M204.597,-140.653C213.101,-113.915 231.997,-67.6945 266,-45 327.719,-3.80737 416.249,-1.28701 472.427,-4.89214"/>
<polygon fill="midnightblue" stroke="midnightblue" points="201.169,-139.9 201.662,-150.483 207.877,-141.902 201.169,-139.9"/>
</g>
<!-- Node2 -->
<g id="node2" class="node"><title>Node2</title>
<a xlink:href="class_actor.html" target="_top" xlink:title="Base de tous les objets de la scène. ">
<polygon fill="white" stroke="black" points="92,-150.5 92,-171.5 132,-171.5 132,-150.5 92,-150.5"/>
<text text-anchor="middle" x="112" y="-158.5" font-family="Helvetica,sans-Serif" font-size="10.00">Actor</text>
</a>
</g>
<!-- Node2&#45;&gt;Node1 -->
<g id="edge2" class="edge"><title>Node2&#45;&gt;Node1</title>
<path fill="none" stroke="midnightblue" d="M142.355,-161C151.447,-161 161.385,-161 170.362,-161"/>
<polygon fill="midnightblue" stroke="midnightblue" points="142.178,-157.5 132.178,-161 142.178,-164.5 142.178,-157.5"/>
</g>
<!-- Node3 -->
<g id="node4" class="node"><title>Node3</title>
<a xlink:href="class_q_object.html" target="_top" xlink:title="QObject">
<polygon fill="white" stroke="black" points="0.5,-150.5 0.5,-171.5 53.5,-171.5 53.5,-150.5 0.5,-150.5"/>
<text text-anchor="middle" x="27" y="-158.5" font-family="Helvetica,sans-Serif" font-size="10.00">QObject</text>
</a>
</g>
<!-- Node3&#45;&gt;Node2 -->
<g id="edge4" class="edge"><title>Node3&#45;&gt;Node2</title>
<path fill="none" stroke="midnightblue" d="M63.9944,-161C73.5235,-161 83.4281,-161 91.7484,-161"/>
<polygon fill="midnightblue" stroke="midnightblue" points="63.8946,-157.5 53.8945,-161 63.8945,-164.5 63.8946,-157.5"/>
</g>
<!-- Node4&#45;&gt;Node5 -->
<g id="edge8" class="edge"><title>Node4&#45;&gt;Node5</title>
<path fill="none" stroke="orange" stroke-dasharray="5,2" d="M375.971,-168.996C407.351,-173.18 445.352,-178.247 475.257,-182.234"/>
<polygon fill="orange" stroke="orange" points="376.408,-165.524 366.033,-167.671 375.483,-172.462 376.408,-165.524"/>
<text text-anchor="middle" x="416" y="-182" font-family="Helvetica,sans-Serif" font-size="10.00"> &lt; Cube &gt;</text>
</g>
<!-- Node4&#45;&gt;Node7 -->
<g id="edge12" class="edge"><title>Node4&#45;&gt;Node7</title>
<path fill="none" stroke="orange" stroke-dasharray="5,2" d="M346.837,-176.023C358.416,-181.529 371.741,-187.705 384,-193 423.046,-209.866 468.948,-227.596 497.762,-238.476"/>
<polygon fill="orange" stroke="orange" points="348.113,-172.754 337.582,-171.59 345.088,-179.067 348.113,-172.754"/>
<text text-anchor="middle" x="416" y="-222" font-family="Helvetica,sans-Serif" font-size="10.00"> &lt; Line &gt;</text>
</g>
<!-- Node4&#45;&gt;Node9 -->
<g id="edge16" class="edge"><title>Node4&#45;&gt;Node9</title>
<path fill="none" stroke="orange" stroke-dasharray="5,2" d="M329.726,-179.797C342.371,-196.076 362.399,-219.398 384,-235 417.977,-259.542 462.866,-277.827 492.998,-288.435"/>
<polygon fill="orange" stroke="orange" points="332.325,-177.431 323.498,-171.572 326.744,-181.657 332.325,-177.431"/>
<text text-anchor="middle" x="416" y="-274" font-family="Helvetica,sans-Serif" font-size="10.00"> &lt; Sphere &gt;</text>
</g>
<!-- Node4&#45;&gt;Node11 -->
<g id="edge20" class="edge"><title>Node4&#45;&gt;Node11</title>
<path fill="none" stroke="orange" stroke-dasharray="5,2" d="M361.9,-148.141C369.241,-146.486 376.793,-145.016 384,-144 411.968,-140.056 443.325,-138.64 469.443,-138.279"/>
<polygon fill="orange" stroke="orange" points="360.985,-144.761 352.071,-150.488 362.611,-151.57 360.985,-144.761"/>
<text text-anchor="middle" x="416" y="-148" font-family="Helvetica,sans-Serif" font-size="10.00"> &lt; Cylinder &gt;</text>
</g>
<!-- Node4&#45;&gt;Node13 -->
<g id="edge24" class="edge"><title>Node4&#45;&gt;Node13</title>
<path fill="none" stroke="orange" stroke-dasharray="5,2" d="M339.808,-144.941C352.468,-137.034 368.57,-127.946 384,-122 410.253,-111.883 440.575,-104.698 466.441,-99.8102"/>
<polygon fill="orange" stroke="orange" points="337.783,-142.082 331.257,-150.429 341.563,-147.974 337.783,-142.082"/>
<text text-anchor="middle" x="416" y="-126" font-family="Helvetica,sans-Serif" font-size="10.00"> &lt; Pyramide &gt;</text>
</g>
<!-- Node4&#45;&gt;Node15 -->
<g id="edge28" class="edge"><title>Node4&#45;&gt;Node15</title>
<path fill="none" stroke="orange" stroke-dasharray="5,2" d="M330.49,-142.323C343.37,-126.542 363.316,-104.015 384,-88 421.474,-58.9844 471.355,-34.7214 500.931,-21.5812"/>
<polygon fill="orange" stroke="orange" points="327.613,-140.316 324.102,-150.312 333.08,-144.687 327.613,-140.316"/>
<text text-anchor="middle" x="416" y="-92" font-family="Helvetica,sans-Serif" font-size="10.00"> &lt; Trigger &gt;</text>
</g>
<!-- Node6 -->
<g id="node11" class="node"><title>Node6</title>
<a xlink:href="class_cube.html" target="_top" xlink:title="Un simple cube. ">
<polygon fill="white" stroke="black" points="633,-178.5 633,-199.5 673,-199.5 673,-178.5 633,-178.5"/>
<text text-anchor="middle" x="653" y="-186.5" font-family="Helvetica,sans-Serif" font-size="10.00">Cube</text>
</a>
</g>
<!-- Node5&#45;&gt;Node6 -->
<g id="edge10" class="edge"><title>Node5&#45;&gt;Node6</title>
<path fill="none" stroke="midnightblue" d="M586.801,-189C603.366,-189 620.176,-189 632.712,-189"/>
<polygon fill="midnightblue" stroke="midnightblue" points="586.559,-185.5 576.559,-189 586.559,-192.5 586.559,-185.5"/>
</g>
<!-- Node8 -->
<g id="node15" class="node"><title>Node8</title>
<a xlink:href="class_line.html" target="_top" xlink:title="Line">
<polygon fill="white" stroke="black" points="635.5,-238.5 635.5,-259.5 670.5,-259.5 670.5,-238.5 635.5,-238.5"/>
<text text-anchor="middle" x="653" y="-246.5" font-family="Helvetica,sans-Serif" font-size="10.00">Line</text>
</a>
</g>
<!-- Node7&#45;&gt;Node8 -->
<g id="edge14" class="edge"><title>Node7&#45;&gt;Node8</title>
<path fill="none" stroke="midnightblue" d="M583.896,-249C602.531,-249 621.815,-249 635.261,-249"/>
<polygon fill="midnightblue" stroke="midnightblue" points="583.651,-245.5 573.651,-249 583.651,-252.5 583.651,-245.5"/>
</g>
<!-- Node10 -->
<g id="node19" class="node"><title>Node10</title>
<a xlink:href="class_sphere.html" target="_top" xlink:title="Une simple sphere. ">
<polygon fill="white" stroke="black" points="629.5,-288.5 629.5,-309.5 676.5,-309.5 676.5,-288.5 629.5,-288.5"/>
<text text-anchor="middle" x="653" y="-296.5" font-family="Helvetica,sans-Serif" font-size="10.00">Sphere</text>
</a>
</g>
<!-- Node9&#45;&gt;Node10 -->
<g id="edge18" class="edge"><title>Node9&#45;&gt;Node10</title>
<path fill="none" stroke="midnightblue" d="M590.329,-299C604.24,-299 618.098,-299 629.232,-299"/>
<polygon fill="midnightblue" stroke="midnightblue" points="590.228,-295.5 580.228,-299 590.228,-302.5 590.228,-295.5"/>
</g>
<!-- Node12 -->
<g id="node23" class="node"><title>Node12</title>
<a xlink:href="class_cylinder.html" target="_top" xlink:title="Cylinder">
<polygon fill="white" stroke="black" points="626.5,-128.5 626.5,-149.5 679.5,-149.5 679.5,-128.5 626.5,-128.5"/>
<text text-anchor="middle" x="653" y="-136.5" font-family="Helvetica,sans-Serif" font-size="10.00">Cylinder</text>
</a>
</g>
<!-- Node11&#45;&gt;Node12 -->
<g id="edge22" class="edge"><title>Node11&#45;&gt;Node12</title>
<path fill="none" stroke="midnightblue" d="M592.819,-139C604.731,-139 616.487,-139 626.403,-139"/>
<polygon fill="midnightblue" stroke="midnightblue" points="592.814,-135.5 582.814,-139 592.814,-142.5 592.814,-135.5"/>
</g>
<!-- Node14 -->
<g id="node27" class="node"><title>Node14</title>
<a xlink:href="class_pyramide.html" target="_top" xlink:title="Pyramide">
<polygon fill="white" stroke="black" points="624,-80.5 624,-101.5 682,-101.5 682,-80.5 624,-80.5"/>
<text text-anchor="middle" x="653" y="-88.5" font-family="Helvetica,sans-Serif" font-size="10.00">Pyramide</text>
</a>
</g>
<!-- Node13&#45;&gt;Node14 -->
<g id="edge26" class="edge"><title>Node13&#45;&gt;Node14</title>
<path fill="none" stroke="midnightblue" d="M596.035,-91C605.84,-91 615.435,-91 623.871,-91"/>
<polygon fill="midnightblue" stroke="midnightblue" points="595.781,-87.5001 585.781,-91 595.781,-94.5001 595.781,-87.5001"/>
</g>
<!-- Node16 -->
<g id="node31" class="node"><title>Node16</title>
<a xlink:href="class_trigger.html" target="_top" xlink:title="Trigger">
<polygon fill="white" stroke="black" points="629.5,-0.5 629.5,-21.5 676.5,-21.5 676.5,-0.5 629.5,-0.5"/>
<text text-anchor="middle" x="653" y="-8.5" font-family="Helvetica,sans-Serif" font-size="10.00">Trigger</text>
</a>
</g>
<!-- Node15&#45;&gt;Node16 -->
<g id="edge30" class="edge"><title>Node15&#45;&gt;Node16</title>
<path fill="none" stroke="midnightblue" d="M590.073,-11C604.144,-11 618.178,-11 629.41,-11"/>
<polygon fill="midnightblue" stroke="midnightblue" points="589.859,-7.5001 579.859,-11 589.859,-14.5001 589.859,-7.5001"/>
</g>
</g>
</svg>
        <g id="navigator" transform="translate(0 0)" fill="#404254">
                <rect fill="#f2f5e9" fill-opacity="0.5" stroke="#606060" stroke-width=".5" x="0" y="0" width="60" height="60"/>
                <use id="zoomplus" xlink:href="#zoomPlus" x="17" y="9" onmousedown="handleZoom(evt,'in')"/>
                <use id="zoomminus" xlink:href="#zoomMin" x="42" y="9" onmousedown="handleZoom(evt,'out')"/>
                <use id="reset" xlink:href="#resetDef" x="30" y="36" onmousedown="handleReset()"/>
                <g id="arrowUp" xlink:href="#dirArrow" transform="translate(30 24)" onmousedown="handlePan(0,-1)">
                  <use xlink:href="#rim" fill="#404040">
                        <set attributeName="fill" to="#808080" begin="arrowUp.mouseover" end="arrowUp.mouseout"/>
                  </use>
                  <path fill="none" stroke="white" stroke-width="1.5" d="M0,-3.0v7 M-2.5,-0.5L0,-3.0L2.5,-0.5"/>
                </g>
                <g id="arrowRight" xlink:href="#dirArrow" transform="rotate(90) translate(36 -43)" onmousedown="handlePan(1,0)">
                  <use xlink:href="#rim" fill="#404040">
                        <set attributeName="fill" to="#808080" begin="arrowRight.mouseover" end="arrowRight.mouseout"/>
                  </use>
                  <path fill="none" stroke="white" stroke-width="1.5" d="M0,-3.0v7 M-2.5,-0.5L0,-3.0L2.5,-0.5"/>
                </g>
                <g id="arrowDown" xlink:href="#dirArrow" transform="rotate(180) translate(-30 -48)" onmousedown="handlePan(0,1)">
                  <use xlink:href="#rim" fill="#404040">
                        <set attributeName="fill" to="#808080" begin="arrowDown.mouseover" end="arrowDown.mouseout"/>
                  </use>
                  <path fill="none" stroke="white" stroke-width="1.5" d="M0,-3.0v7 M-2.5,-0.5L0,-3.0L2.5,-0.5"/>
                </g>
                <g id="arrowLeft" xlink:href="#dirArrow" transform="rotate(270) translate(-36 17)" onmousedown="handlePan(-1,0)">
                  <use xlink:href="#rim" fill="#404040">
                        <set attributeName="fill" to="#808080" begin="arrowLeft.mouseover" end="arrowLeft.mouseout"/>
                  </use>
                  <path fill="none" stroke="white" stroke-width="1.5" d="M0,-3.0v7 M-2.5,-0.5L0,-3.0L2.5,-0.5"/>
                </g>
        </g>
        <svg viewBox="0 0 15 15" width="100%" height="30px" preserveAspectRatio="xMaxYMin meet">
         <g id="arrow_out" transform="scale(0.3 0.3)">
          <a xlink:href="class_geo_base__inherit__graph_org.svg" target="_base">
           <rect id="button" ry="5" rx="5" y="6" x="6" height="38" width="38"
                fill="#f2f5e9" fill-opacity="0.5" stroke="#606060" stroke-width="1.0"/>
           <path id="arrow"
             d="M 11.500037,31.436501 C 11.940474,20.09759 22.043105,11.32322 32.158766,21.979434 L 37.068811,17.246167 C 37.068811,17.246167 37.088388,32 37.088388,32 L 22.160133,31.978069 C 22.160133,31.978069 26.997745,27.140456 26.997745,27.140456 C 18.528582,18.264221 13.291696,25.230495 11.500037,31.436501 z"
             style="fill:#404040;"/>
          </a>
         </g>
        </svg>
</svg>
