<?xml version="1.0" encoding="UTF-8" standalone="no"?>
<!DOCTYPE svg PUBLIC "-//W3C//DTD SVG 1.1//EN"
 "http://www.w3.org/Graphics/SVG/1.1/DTD/svg11.dtd">
<!-- Generated by graphviz version 2.26.3 (20100126.1600)
 -->
<!-- Title: Light::update Pages: 1 -->
<svg width="458pt" height="150pt"
 viewBox="0.00 0.00 458.00 150.00" xmlns="http://www.w3.org/2000/svg" xmlns:xlink="http://www.w3.org/1999/xlink">
<g id="graph1" class="graph" transform="scale(1 1) rotate(0) translate(4 146)">
<title>Light::update</title>
<polygon fill="white" stroke="white" points="-4,5 -4,-146 455,-146 455,5 -4,5"/>
<!-- Node1 -->
<g id="node1" class="node"><title>Node1</title>
<polygon fill="#bfbfbf" stroke="black" points="0.5,-60.5 0.5,-81.5 73.5,-81.5 73.5,-60.5 0.5,-60.5"/>
<text text-anchor="middle" x="37" y="-68.5" font-family="Helvetica,sans-Serif" font-size="10.00">Light::update</text>
</g>
<!-- Node2 -->
<g id="node3" class="node"><title>Node2</title>
<a xlink:href="class_light.html#afc11082a5405572dbec76735e73b6647" target="_top" xlink:title="Light::updateProj">
<polygon fill="white" stroke="black" points="113,-120.5 113,-141.5 203,-141.5 203,-120.5 113,-120.5"/>
<text text-anchor="middle" x="158" y="-128.5" font-family="Helvetica,sans-Serif" font-size="10.00">Light::updateProj</text>
</a>
</g>
<!-- Node1&#45;&gt;Node2 -->
<g id="edge2" class="edge"><title>Node1&#45;&gt;Node2</title>
<path fill="none" stroke="midnightblue" d="M55.0193,-81.5746C69.625,-89.9744 90.853,-101.797 110,-111 113.845,-112.848 117.905,-114.695 121.971,-116.478"/>
<polygon fill="midnightblue" stroke="midnightblue" points="120.798,-119.783 131.369,-120.496 123.549,-113.347 120.798,-119.783"/>
</g>
<!-- Node3 -->
<g id="node5" class="node"><title>Node3</title>
<a xlink:href="class_light.html#a123872c9df9d14ae79d4a76fee217e99" target="_top" xlink:title="Light::updateView">
<polygon fill="white" stroke="black" points="110.5,-80.5 110.5,-101.5 205.5,-101.5 205.5,-80.5 110.5,-80.5"/>
<text text-anchor="middle" x="158" y="-88.5" font-family="Helvetica,sans-Serif" font-size="10.00">Light::updateView</text>
</a>
</g>
<!-- Node1&#45;&gt;Node3 -->
<g id="edge4" class="edge"><title>Node1&#45;&gt;Node3</title>
<path fill="none" stroke="midnightblue" d="M73.6324,-77.0549C82.0216,-78.4416 91.1401,-79.9488 100.179,-81.4428"/>
<polygon fill="midnightblue" stroke="midnightblue" points="99.8696,-84.9391 110.307,-83.1168 101.011,-78.0328 99.8696,-84.9391"/>
</g>
<!-- Node6 -->
<g id="node11" class="node"><title>Node6</title>
<a xlink:href="class_light.html#a747a809f8abf05f41143279abb78df13" target="_top" xlink:title="Light::view">
<polygon fill="white" stroke="black" points="126,-40.5 126,-61.5 190,-61.5 190,-40.5 126,-40.5"/>
<text text-anchor="middle" x="158" y="-48.5" font-family="Helvetica,sans-Serif" font-size="10.00">Light::view</text>
</a>
</g>
<!-- Node1&#45;&gt;Node6 -->
<g id="edge10" class="edge"><title>Node1&#45;&gt;Node6</title>
<path fill="none" stroke="midnightblue" d="M73.6324,-64.9451C86.8244,-62.7646 101.819,-60.286 115.472,-58.0295"/>
<polygon fill="midnightblue" stroke="midnightblue" points="116.302,-61.4397 125.598,-56.3557 115.161,-54.5334 116.302,-61.4397"/>
</g>
<!-- Node7 -->
<g id="node13" class="node"><title>Node7</title>
<a xlink:href="class_actor.html#ab3cce8c86e60c6b808ccd7732770f2cb" target="_top" xlink:title="Actor::viewport">
<polygon fill="white" stroke="black" points="116.5,-0.5 116.5,-21.5 199.5,-21.5 199.5,-0.5 116.5,-0.5"/>
<text text-anchor="middle" x="158" y="-8.5" font-family="Helvetica,sans-Serif" font-size="10.00">Actor::viewport</text>
</a>
</g>
<!-- Node1&#45;&gt;Node7 -->
<g id="edge12" class="edge"><title>Node1&#45;&gt;Node7</title>
<path fill="none" stroke="midnightblue" d="M55.0193,-60.4254C69.625,-52.0256 90.853,-40.2025 110,-31 113.845,-29.1522 117.905,-27.3051 121.971,-25.5215"/>
<polygon fill="midnightblue" stroke="midnightblue" points="123.549,-28.6534 131.369,-21.5044 120.798,-22.2168 123.549,-28.6534"/>
</g>
<!-- Node4 -->
<g id="node7" class="node"><title>Node4</title>
<a xlink:href="class_light.html#ab689087cc07b95273f6daae900a42010" target="_top" xlink:title="Light::direction">
<polygon fill="white" stroke="black" points="242,-80.5 242,-101.5 322,-101.5 322,-80.5 242,-80.5"/>
<text text-anchor="middle" x="282" y="-88.5" font-family="Helvetica,sans-Serif" font-size="10.00">Light::direction</text>
</a>
</g>
<!-- Node3&#45;&gt;Node4 -->
<g id="edge6" class="edge"><title>Node3&#45;&gt;Node4</title>
<path fill="none" stroke="midnightblue" d="M205.587,-91C214.227,-91 223.262,-91 231.969,-91"/>
<polygon fill="midnightblue" stroke="midnightblue" points="231.998,-94.5001 241.998,-91 231.998,-87.5001 231.998,-94.5001"/>
</g>
<!-- Node5 -->
<g id="node9" class="node"><title>Node5</title>
<a xlink:href="class_actor.html#a748e07c73196050bfb0d51a14608aeae" target="_top" xlink:title="Actor::orientation">
<polygon fill="white" stroke="black" points="358.5,-80.5 358.5,-101.5 449.5,-101.5 449.5,-80.5 358.5,-80.5"/>
<text text-anchor="middle" x="404" y="-88.5" font-family="Helvetica,sans-Serif" font-size="10.00">Actor::orientation</text>
</a>
</g>
<!-- Node4&#45;&gt;Node5 -->
<g id="edge8" class="edge"><title>Node4&#45;&gt;Node5</title>
<path fill="none" stroke="midnightblue" d="M322.285,-91C330.566,-91 339.425,-91 348.143,-91"/>
<polygon fill="midnightblue" stroke="midnightblue" points="348.269,-94.5001 358.269,-91 348.269,-87.5001 348.269,-94.5001"/>
</g>
</g>
</svg>
