<?xml version="1.0" encoding="UTF-8" standalone="no"?>
<!DOCTYPE svg PUBLIC "-//W3C//DTD SVG 1.1//EN"
 "http://www.w3.org/Graphics/SVG/1.1/DTD/svg11.dtd">
<!-- Generated by graphviz version 2.26.3 (20100126.1600)
 -->
<!-- Title: Actor::scale Pages: 1 -->
<svg width="456pt" height="122pt"
 viewBox="0.00 0.00 456.00 122.00" xmlns="http://www.w3.org/2000/svg" xmlns:xlink="http://www.w3.org/1999/xlink">
<g id="graph1" class="graph" transform="scale(1 1) rotate(0) translate(4 118)">
<title>Actor::scale</title>
<polygon fill="white" stroke="white" points="-4,5 -4,-118 453,-118 453,5 -4,5"/>
<!-- Node1 -->
<g id="node1" class="node"><title>Node1</title>
<polygon fill="#bfbfbf" stroke="black" points="0.5,-40.5 0.5,-61.5 69.5,-61.5 69.5,-40.5 0.5,-40.5"/>
<text text-anchor="middle" x="35" y="-48.5" font-family="Helvetica,sans-Serif" font-size="10.00">Actor::scale</text>
</g>
<!-- Node2 -->
<g id="node3" class="node"><title>Node2</title>
<a xlink:href="class_actor.html#abbf942f60996c5df2a8c0a832bd91abc" target="_top" xlink:title="Actor::transform">
<polygon fill="white" stroke="black" points="106.5,-40.5 106.5,-61.5 193.5,-61.5 193.5,-40.5 106.5,-40.5"/>
<text text-anchor="middle" x="150" y="-48.5" font-family="Helvetica,sans-Serif" font-size="10.00">Actor::transform</text>
</a>
</g>
<!-- Node1&#45;&gt;Node2 -->
<g id="edge2" class="edge"><title>Node1&#45;&gt;Node2</title>
<path fill="none" stroke="midnightblue" d="M79.5145,-51C88.2514,-51 97.4104,-51 106.126,-51"/>
<polygon fill="midnightblue" stroke="midnightblue" points="79.5038,-47.5001 69.5038,-51 79.5038,-54.5001 79.5038,-47.5001"/>
</g>
<!-- Node3 -->
<g id="node5" class="node"><title>Node3</title>
<a xlink:href="class_geometry.html#a7cb8ea5e505f3933367d7ff9c6439985" target="_top" xlink:title="Geometry\&lt; Trigger \&gt;\l::draw">
<polygon fill="white" stroke="black" points="230.5,-80 230.5,-114 337.5,-114 337.5,-80 230.5,-80"/>
<text text-anchor="start" x="238.5" y="-101" font-family="Helvetica,sans-Serif" font-size="10.00">Geometry&lt; Trigger &gt;</text>
<text text-anchor="middle" x="284" y="-88" font-family="Helvetica,sans-Serif" font-size="10.00">::draw</text>
</a>
</g>
<!-- Node2&#45;&gt;Node3 -->
<g id="edge4" class="edge"><title>Node2&#45;&gt;Node3</title>
<path fill="none" stroke="midnightblue" d="M190.424,-64.877C204.214,-69.6107 219.795,-74.9596 234.232,-79.9155"/>
<polygon fill="midnightblue" stroke="midnightblue" points="191.337,-61.4899 180.742,-61.5533 189.064,-68.1106 191.337,-61.4899"/>
</g>
<!-- Node5 -->
<g id="node9" class="node"><title>Node5</title>
<a xlink:href="class_group.html#af8d7df31c5fe4f8e22bd022c8735b6b2" target="_top" xlink:title="Group::draw">
<polygon fill="white" stroke="black" points="249,-40.5 249,-61.5 319,-61.5 319,-40.5 249,-40.5"/>
<text text-anchor="middle" x="284" y="-48.5" font-family="Helvetica,sans-Serif" font-size="10.00">Group::draw</text>
</a>
</g>
<!-- Node2&#45;&gt;Node5 -->
<g id="edge8" class="edge"><title>Node2&#45;&gt;Node5</title>
<path fill="none" stroke="midnightblue" d="M203.794,-51C218.929,-51 235,-51 248.751,-51"/>
<polygon fill="midnightblue" stroke="midnightblue" points="203.506,-47.5001 193.506,-51 203.506,-54.5001 203.506,-47.5001"/>
</g>
<!-- Node6 -->
<g id="node11" class="node"><title>Node6</title>
<a xlink:href="class_line.html#a1a11432f5239ebf18316369a400a9893" target="_top" xlink:title="Line::transform">
<polygon fill="white" stroke="black" points="243,-0.5 243,-21.5 325,-21.5 325,-0.5 243,-0.5"/>
<text text-anchor="middle" x="284" y="-8.5" font-family="Helvetica,sans-Serif" font-size="10.00">Line::transform</text>
</a>
</g>
<!-- Node2&#45;&gt;Node6 -->
<g id="edge10" class="edge"><title>Node2&#45;&gt;Node6</title>
<path fill="none" stroke="midnightblue" d="M195.163,-37.5186C212.575,-32.3208 232.197,-26.4635 248.563,-21.5782"/>
<polygon fill="midnightblue" stroke="midnightblue" points="193.788,-34.2763 185.207,-40.4905 195.79,-40.9838 193.788,-34.2763"/>
</g>
<!-- Node4 -->
<g id="node7" class="node"><title>Node4</title>
<a xlink:href="class_trigger.html#ae3e4635086dd4d53bbdedd0b02525daa" target="_top" xlink:title="Trigger::draw">
<polygon fill="white" stroke="black" points="374,-86.5 374,-107.5 448,-107.5 448,-86.5 374,-86.5"/>
<text text-anchor="middle" x="411" y="-94.5" font-family="Helvetica,sans-Serif" font-size="10.00">Trigger::draw</text>
</a>
</g>
<!-- Node3&#45;&gt;Node4 -->
<g id="edge6" class="edge"><title>Node3&#45;&gt;Node4</title>
<path fill="none" stroke="midnightblue" d="M347.913,-97C356.846,-97 365.769,-97 373.973,-97"/>
<polygon fill="midnightblue" stroke="midnightblue" points="347.859,-93.5001 337.859,-97 347.859,-100.5 347.859,-93.5001"/>
</g>
</g>
</svg>
