<?xml version="1.0" encoding="UTF-8" standalone="no"?>
<!DOCTYPE svg PUBLIC "-//W3C//DTD SVG 1.1//EN"
 "http://www.w3.org/Graphics/SVG/1.1/DTD/svg11.dtd">
<!-- Generated by graphviz version 2.26.3 (20100126.1600)
 -->
<!-- Title: Actor::setParent Pages: 1 -->
<svg width="396pt" height="110pt"
 viewBox="0.00 0.00 396.00 110.00" xmlns="http://www.w3.org/2000/svg" xmlns:xlink="http://www.w3.org/1999/xlink">
<g id="graph1" class="graph" transform="scale(1 1) rotate(0) translate(4 106)">
<title>Actor::setParent</title>
<polygon fill="white" stroke="white" points="-4,5 -4,-106 393,-106 393,5 -4,5"/>
<!-- Node1 -->
<g id="node1" class="node"><title>Node1</title>
<polygon fill="#bfbfbf" stroke="black" points="0,-40.5 0,-61.5 88,-61.5 88,-40.5 0,-40.5"/>
<text text-anchor="middle" x="44" y="-48.5" font-family="Helvetica,sans-Serif" font-size="10.00">Actor::setParent</text>
</g>
<!-- Node2 -->
<g id="node3" class="node"><title>Node2</title>
<a xlink:href="class_viewport.html#a5acb57e1d34f591dab00a8a40cd21855" target="_top" xlink:title="Viewport::updateLights">
<polygon fill="white" stroke="black" points="124,-40.5 124,-61.5 240,-61.5 240,-40.5 124,-40.5"/>
<text text-anchor="middle" x="182" y="-48.5" font-family="Helvetica,sans-Serif" font-size="10.00">Viewport::updateLights</text>
</a>
</g>
<!-- Node1&#45;&gt;Node2 -->
<g id="edge2" class="edge"><title>Node1&#45;&gt;Node2</title>
<path fill="none" stroke="midnightblue" d="M88.0435,-51C96.2076,-51 104.91,-51 113.601,-51"/>
<polygon fill="midnightblue" stroke="midnightblue" points="113.763,-54.5001 123.763,-51 113.763,-47.5001 113.763,-54.5001"/>
</g>
<!-- Node3 -->
<g id="node5" class="node"><title>Node3</title>
<a xlink:href="class_world.html#a45fac3748d15198a09ce257da35e6fcf" target="_top" xlink:title="World::zoneList">
<polygon fill="white" stroke="black" points="289.5,-80.5 289.5,-101.5 374.5,-101.5 374.5,-80.5 289.5,-80.5"/>
<text text-anchor="middle" x="332" y="-88.5" font-family="Helvetica,sans-Serif" font-size="10.00">World::zoneList</text>
</a>
</g>
<!-- Node2&#45;&gt;Node3 -->
<g id="edge4" class="edge"><title>Node2&#45;&gt;Node3</title>
<path fill="none" stroke="midnightblue" d="M221.411,-61.5095C240.198,-66.5193 262.863,-72.5634 282.77,-77.8721"/>
<polygon fill="midnightblue" stroke="midnightblue" points="282.028,-81.2964 292.592,-80.4913 283.832,-74.5328 282.028,-81.2964"/>
</g>
<!-- Node4 -->
<g id="node7" class="node"><title>Node4</title>
<a xlink:href="class_world.html#a664cd2c63ef6c7979736cd454b31eb1c" target="_top" xlink:title="World::currentZone">
<polygon fill="white" stroke="black" points="282,-40.5 282,-61.5 382,-61.5 382,-40.5 282,-40.5"/>
<text text-anchor="middle" x="332" y="-48.5" font-family="Helvetica,sans-Serif" font-size="10.00">World::currentZone</text>
</a>
</g>
<!-- Node2&#45;&gt;Node4 -->
<g id="edge6" class="edge"><title>Node2&#45;&gt;Node4</title>
<path fill="none" stroke="midnightblue" d="M240.423,-51C250.665,-51 261.34,-51 271.633,-51"/>
<polygon fill="midnightblue" stroke="midnightblue" points="271.769,-54.5001 281.769,-51 271.769,-47.5001 271.769,-54.5001"/>
</g>
<!-- Node5 -->
<g id="node9" class="node"><title>Node5</title>
<a xlink:href="class_viewport.html#ae2666049736ca227e0ddc0d23c431d96" target="_top" xlink:title="Viewport::updateLight">
<polygon fill="white" stroke="black" points="276.5,-0.5 276.5,-21.5 387.5,-21.5 387.5,-0.5 276.5,-0.5"/>
<text text-anchor="middle" x="332" y="-8.5" font-family="Helvetica,sans-Serif" font-size="10.00">Viewport::updateLight</text>
</a>
</g>
<!-- Node2&#45;&gt;Node5 -->
<g id="edge8" class="edge"><title>Node2&#45;&gt;Node5</title>
<path fill="none" stroke="midnightblue" d="M221.411,-40.4905C240.198,-35.4807 262.863,-29.4366 282.77,-24.1279"/>
<polygon fill="midnightblue" stroke="midnightblue" points="283.832,-27.4672 292.592,-21.5087 282.028,-20.7036 283.832,-27.4672"/>
</g>
</g>
</svg>
