<?xml version="1.0" encoding="UTF-8" standalone="no"?>
<!DOCTYPE svg PUBLIC "-//W3C//DTD SVG 1.1//EN"
 "http://www.w3.org/Graphics/SVG/1.1/DTD/svg11.dtd">
<!-- Generated by graphviz version 2.26.3 (20100126.1600)
 -->
<!-- Title: Actor::transform Pages: 1 -->
<svg width="240pt" height="82pt"
 viewBox="0.00 0.00 240.00 82.00" xmlns="http://www.w3.org/2000/svg" xmlns:xlink="http://www.w3.org/1999/xlink">
<g id="graph1" class="graph" transform="scale(1 1) rotate(0) translate(4 78)">
<title>Actor::transform</title>
<polygon fill="white" stroke="white" points="-4,5 -4,-78 237,-78 237,5 -4,5"/>
<!-- Node1 -->
<g id="node1" class="node"><title>Node1</title>
<polygon fill="#bfbfbf" stroke="black" points="0.5,-23.5 0.5,-44.5 87.5,-44.5 87.5,-23.5 0.5,-23.5"/>
<text text-anchor="middle" x="44" y="-31.5" font-family="Helvetica,sans-Serif" font-size="10.00">Actor::transform</text>
</g>
<!-- Node2 -->
<g id="node3" class="node"><title>Node2</title>
<a xlink:href="class_geometry.html#aadfed02c20dfb9306bcf5616e7bf1f43" target="_top" xlink:title="Geometry\&lt; Sphere \&gt;\l::draw">
<polygon fill="white" stroke="black" points="124,-40 124,-74 232,-74 232,-40 124,-40"/>
<text text-anchor="start" x="132" y="-61" font-family="Helvetica,sans-Serif" font-size="10.00">Geometry&lt; Sphere &gt;</text>
<text text-anchor="middle" x="178" y="-48" font-family="Helvetica,sans-Serif" font-size="10.00">::draw</text>
</a>
</g>
<!-- Node1&#45;&gt;Node2 -->
<g id="edge2" class="edge"><title>Node1&#45;&gt;Node2</title>
<path fill="none" stroke="midnightblue" d="M97.5258,-43.1873C106.216,-44.6789 115.222,-46.2247 123.926,-47.7186"/>
<polygon fill="midnightblue" stroke="midnightblue" points="97.954,-39.7096 87.506,-41.4674 96.7697,-46.6088 97.954,-39.7096"/>
</g>
<!-- Node3 -->
<g id="node5" class="node"><title>Node3</title>
<a xlink:href="class_group.html#af8d7df31c5fe4f8e22bd022c8735b6b2" target="_top" xlink:title="Group::draw">
<polygon fill="white" stroke="black" points="143,-0.5 143,-21.5 213,-21.5 213,-0.5 143,-0.5"/>
<text text-anchor="middle" x="178" y="-8.5" font-family="Helvetica,sans-Serif" font-size="10.00">Group::draw</text>
</a>
</g>
<!-- Node1&#45;&gt;Node3 -->
<g id="edge4" class="edge"><title>Node1&#45;&gt;Node3</title>
<path fill="none" stroke="midnightblue" d="M97.7944,-24.7666C112.929,-22.1689 129,-19.4104 142.751,-17.0503"/>
<polygon fill="midnightblue" stroke="midnightblue" points="96.7697,-21.3912 87.506,-26.5326 97.9539,-28.2904 96.7697,-21.3912"/>
</g>
</g>
</svg>
