<?xml version="1.0" encoding="UTF-8" standalone="no"?>
<!DOCTYPE svg PUBLIC "-//W3C//DTD SVG 1.1//EN"
 "http://www.w3.org/Graphics/SVG/1.1/DTD/svg11.dtd">
<!-- Generated by graphviz version 2.26.3 (20100126.1600)
 -->
<!-- Title: Viewport::wheelEvent Pages: 1 -->
<svg width="378pt" height="70pt"
 viewBox="0.00 0.00 378.00 70.00" xmlns="http://www.w3.org/2000/svg" xmlns:xlink="http://www.w3.org/1999/xlink">
<g id="graph1" class="graph" transform="scale(1 1) rotate(0) translate(4 66)">
<title>Viewport::wheelEvent</title>
<polygon fill="white" stroke="white" points="-4,5 -4,-66 375,-66 375,5 -4,5"/>
<!-- Node1 -->
<g id="node1" class="node"><title>Node1</title>
<polygon fill="#bfbfbf" stroke="black" points="0,-20.5 0,-41.5 112,-41.5 112,-20.5 0,-20.5"/>
<text text-anchor="middle" x="56" y="-28.5" font-family="Helvetica,sans-Serif" font-size="10.00">Viewport::wheelEvent</text>
</g>
<!-- Node2 -->
<g id="node3" class="node"><title>Node2</title>
<a xlink:href="class_camera.html#adb1bda6df954268b8e0fc5531dafeca1" target="_top" xlink:title="Camera::move">
<polygon fill="white" stroke="black" points="154.5,-40.5 154.5,-61.5 235.5,-61.5 235.5,-40.5 154.5,-40.5"/>
<text text-anchor="middle" x="195" y="-48.5" font-family="Helvetica,sans-Serif" font-size="10.00">Camera::move</text>
</a>
</g>
<!-- Node1&#45;&gt;Node2 -->
<g id="edge2" class="edge"><title>Node1&#45;&gt;Node2</title>
<path fill="none" stroke="midnightblue" d="M112.136,-39.0771C122.76,-40.6057 133.817,-42.1967 144.262,-43.6996"/>
<polygon fill="midnightblue" stroke="midnightblue" points="144.069,-47.2078 154.466,-45.1677 145.066,-40.2791 144.069,-47.2078"/>
</g>
<!-- Node4 -->
<g id="node7" class="node"><title>Node4</title>
<a xlink:href="class_camera.html#a7276761c5214ec94f6ac35e5804f6719" target="_top" xlink:title="Camera::direction">
<polygon fill="white" stroke="black" points="148,-0.5 148,-21.5 242,-21.5 242,-0.5 148,-0.5"/>
<text text-anchor="middle" x="195" y="-8.5" font-family="Helvetica,sans-Serif" font-size="10.00">Camera::direction</text>
</a>
</g>
<!-- Node1&#45;&gt;Node4 -->
<g id="edge6" class="edge"><title>Node1&#45;&gt;Node4</title>
<path fill="none" stroke="midnightblue" d="M112.136,-22.9229C120.492,-21.7205 129.117,-20.4796 137.501,-19.2733"/>
<polygon fill="midnightblue" stroke="midnightblue" points="138.175,-22.7125 147.574,-17.8239 137.178,-15.7838 138.175,-22.7125"/>
</g>
<!-- Node3 -->
<g id="node5" class="node"><title>Node3</title>
<a xlink:href="class_camera.html#a4e6b5818c84025d176c13c84991ef568" target="_top" xlink:title="Camera::position">
<polygon fill="white" stroke="black" points="278.5,-40.5 278.5,-61.5 369.5,-61.5 369.5,-40.5 278.5,-40.5"/>
<text text-anchor="middle" x="324" y="-48.5" font-family="Helvetica,sans-Serif" font-size="10.00">Camera::position</text>
</a>
</g>
<!-- Node2&#45;&gt;Node3 -->
<g id="edge4" class="edge"><title>Node2&#45;&gt;Node3</title>
<path fill="none" stroke="midnightblue" d="M235.816,-51C245.997,-51 257.092,-51 267.869,-51"/>
<polygon fill="midnightblue" stroke="midnightblue" points="268.065,-54.5001 278.065,-51 268.065,-47.5001 268.065,-54.5001"/>
</g>
</g>
</svg>
