<?xml version="1.0" encoding="UTF-8" standalone="no"?>
<!DOCTYPE svg PUBLIC "-//W3C//DTD SVG 1.1//EN"
 "http://www.w3.org/Graphics/SVG/1.1/DTD/svg11.dtd">
<!-- Generated by graphviz version 2.26.3 (20100126.1600)
 -->
<!-- Title: GeoBase::material Pages: 1 -->
<svg width="360pt" height="82pt"
 viewBox="0.00 0.00 360.00 82.00" xmlns="http://www.w3.org/2000/svg" xmlns:xlink="http://www.w3.org/1999/xlink">
<g id="graph1" class="graph" transform="scale(1 1) rotate(0) translate(4 78)">
<title>GeoBase::material</title>
<polygon fill="white" stroke="white" points="-4,5 -4,-78 357,-78 357,5 -4,5"/>
<!-- Node1 -->
<g id="node1" class="node"><title>Node1</title>
<polygon fill="#bfbfbf" stroke="black" points="0,-23.5 0,-44.5 98,-44.5 98,-23.5 0,-23.5"/>
<text text-anchor="middle" x="49" y="-31.5" font-family="Helvetica,sans-Serif" font-size="10.00">GeoBase::material</text>
</g>
<!-- Node2 -->
<g id="node3" class="node"><title>Node2</title>
<a xlink:href="class_geometry.html#a7cb8ea5e505f3933367d7ff9c6439985" target="_top" xlink:title="Geometry\&lt; Trigger \&gt;\l::draw">
<polygon fill="white" stroke="black" points="134.5,-40 134.5,-74 241.5,-74 241.5,-40 134.5,-40"/>
<text text-anchor="start" x="142.5" y="-61" font-family="Helvetica,sans-Serif" font-size="10.00">Geometry&lt; Trigger &gt;</text>
<text text-anchor="middle" x="188" y="-48" font-family="Helvetica,sans-Serif" font-size="10.00">::draw</text>
</a>
</g>
<!-- Node1&#45;&gt;Node2 -->
<g id="edge2" class="edge"><title>Node1&#45;&gt;Node2</title>
<path fill="none" stroke="midnightblue" d="M108.068,-43.7738C116.754,-45.2112 125.664,-46.6853 134.236,-48.1037"/>
<polygon fill="midnightblue" stroke="midnightblue" points="108.443,-40.2885 98.0062,-42.1089 107.301,-47.1945 108.443,-40.2885"/>
</g>
<!-- Node4 -->
<g id="node7" class="node"><title>Node4</title>
<a xlink:href="class_geo_base.html#a64d0302a4d85b1fe7946df7ebfaa2e33" target="_top" xlink:title="GeoBase::GeoBase">
<polygon fill="white" stroke="black" points="136,-0.5 136,-21.5 240,-21.5 240,-0.5 136,-0.5"/>
<text text-anchor="middle" x="188" y="-8.5" font-family="Helvetica,sans-Serif" font-size="10.00">GeoBase::GeoBase</text>
</a>
</g>
<!-- Node1&#45;&gt;Node4 -->
<g id="edge6" class="edge"><title>Node1&#45;&gt;Node4</title>
<path fill="none" stroke="midnightblue" d="M107.887,-24.2562C117.114,-22.7294 126.597,-21.1603 135.664,-19.66"/>
<polygon fill="midnightblue" stroke="midnightblue" points="107.301,-20.8054 98.0062,-25.8911 108.443,-27.7115 107.301,-20.8054"/>
</g>
<!-- Node3 -->
<g id="node5" class="node"><title>Node3</title>
<a xlink:href="class_trigger.html#ae3e4635086dd4d53bbdedd0b02525daa" target="_top" xlink:title="Trigger::draw">
<polygon fill="white" stroke="black" points="278,-46.5 278,-67.5 352,-67.5 352,-46.5 278,-46.5"/>
<text text-anchor="middle" x="315" y="-54.5" font-family="Helvetica,sans-Serif" font-size="10.00">Trigger::draw</text>
</a>
</g>
<!-- Node2&#45;&gt;Node3 -->
<g id="edge4" class="edge"><title>Node2&#45;&gt;Node3</title>
<path fill="none" stroke="midnightblue" d="M251.913,-57C260.846,-57 269.769,-57 277.973,-57"/>
<polygon fill="midnightblue" stroke="midnightblue" points="251.859,-53.5001 241.859,-57 251.859,-60.5001 251.859,-53.5001"/>
</g>
</g>
</svg>
