<?xml version="1.0" encoding="UTF-8" standalone="no"?>
<!DOCTYPE svg PUBLIC "-//W3C//DTD SVG 1.1//EN"
 "http://www.w3.org/Graphics/SVG/1.1/DTD/svg11.dtd">
<!-- Generated by graphviz version 2.26.3 (20100126.1600)
 -->
<!-- Title: Camera::hBias Pages: 1 -->
<svg width="402pt" height="30pt"
 viewBox="0.00 0.00 402.00 30.00" xmlns="http://www.w3.org/2000/svg" xmlns:xlink="http://www.w3.org/1999/xlink">
<g id="graph1" class="graph" transform="scale(1 1) rotate(0) translate(4 26)">
<title>Camera::hBias</title>
<polygon fill="white" stroke="white" points="-4,5 -4,-26 399,-26 399,5 -4,5"/>
<!-- Node1 -->
<g id="node1" class="node"><title>Node1</title>
<polygon fill="#bfbfbf" stroke="black" points="0,-0.5 0,-21.5 82,-21.5 82,-0.5 0,-0.5"/>
<text text-anchor="middle" x="41" y="-8.5" font-family="Helvetica,sans-Serif" font-size="10.00">Camera::hBias</text>
</g>
<!-- Node2 -->
<g id="node3" class="node"><title>Node2</title>
<a xlink:href="class_camera.html#ae068edc8a9da46c0062af05b2434fb63" target="_top" xlink:title="Camera::resetBias">
<polygon fill="white" stroke="black" points="118,-0.5 118,-21.5 216,-21.5 216,-0.5 118,-0.5"/>
<text text-anchor="middle" x="167" y="-8.5" font-family="Helvetica,sans-Serif" font-size="10.00">Camera::resetBias</text>
</a>
</g>
<!-- Node1&#45;&gt;Node2 -->
<g id="edge2" class="edge"><title>Node1&#45;&gt;Node2</title>
<path fill="none" stroke="midnightblue" d="M92.3174,-11C100.716,-11 109.402,-11 117.749,-11"/>
<polygon fill="midnightblue" stroke="midnightblue" points="92.2571,-7.5001 82.2571,-11 92.2571,-14.5001 92.2571,-7.5001"/>
</g>
<!-- Node3 -->
<g id="node5" class="node"><title>Node3</title>
<a xlink:href="class_viewport.html#a16ba3ca4c621d3dad146c0ad3f9a48cc" target="_top" xlink:title="Viewport::mousePressEvent">
<polygon fill="white" stroke="black" points="252.5,-0.5 252.5,-21.5 393.5,-21.5 393.5,-0.5 252.5,-0.5"/>
<text text-anchor="middle" x="323" y="-8.5" font-family="Helvetica,sans-Serif" font-size="10.00">Viewport::mousePressEvent</text>
</a>
</g>
<!-- Node2&#45;&gt;Node3 -->
<g id="edge4" class="edge"><title>Node2&#45;&gt;Node3</title>
<path fill="none" stroke="midnightblue" d="M226.478,-11C234.921,-11 243.672,-11 252.303,-11"/>
<polygon fill="midnightblue" stroke="midnightblue" points="226.359,-7.5001 216.359,-11 226.359,-14.5001 226.359,-7.5001"/>
</g>
</g>
</svg>
