<?xml version="1.0" encoding="UTF-8" standalone="no"?>
<!DOCTYPE svg PUBLIC "-//W3C//DTD SVG 1.1//EN"
 "http://www.w3.org/Graphics/SVG/1.1/DTD/svg11.dtd">
<!-- Generated by graphviz version 2.26.3 (20100126.1600)
 -->
<!-- Title: GeoBase::material Pages: 1 -->
<svg width="250pt" height="82pt"
 viewBox="0.00 0.00 250.00 82.00" xmlns="http://www.w3.org/2000/svg" xmlns:xlink="http://www.w3.org/1999/xlink">
<g id="graph1" class="graph" transform="scale(1 1) rotate(0) translate(4 78)">
<title>GeoBase::material</title>
<polygon fill="white" stroke="white" points="-4,5 -4,-78 247,-78 247,5 -4,5"/>
<!-- Node1 -->
<g id="node1" class="node"><title>Node1</title>
<polygon fill="#bfbfbf" stroke="black" points="0,-29.5 0,-50.5 98,-50.5 98,-29.5 0,-29.5"/>
<text text-anchor="middle" x="49" y="-37.5" font-family="Helvetica,sans-Serif" font-size="10.00">GeoBase::material</text>
</g>
<!-- Node2 -->
<g id="node3" class="node"><title>Node2</title>
<a xlink:href="class_geo_base.html#a64d0302a4d85b1fe7946df7ebfaa2e33" target="_top" xlink:title="GeoBase::GeoBase">
<polygon fill="white" stroke="black" points="136,-52.5 136,-73.5 240,-73.5 240,-52.5 136,-52.5"/>
<text text-anchor="middle" x="188" y="-60.5" font-family="Helvetica,sans-Serif" font-size="10.00">GeoBase::GeoBase</text>
</a>
</g>
<!-- Node1&#45;&gt;Node2 -->
<g id="edge2" class="edge"><title>Node1&#45;&gt;Node2</title>
<path fill="none" stroke="midnightblue" d="M107.887,-49.7438C117.114,-51.2706 126.597,-52.8397 135.664,-54.34"/>
<polygon fill="midnightblue" stroke="midnightblue" points="108.443,-46.2885 98.0062,-48.1089 107.301,-53.1946 108.443,-46.2885"/>
</g>
<!-- Node3 -->
<g id="node5" class="node"><title>Node3</title>
<a xlink:href="class_geometry.html#aadfed02c20dfb9306bcf5616e7bf1f43" target="_top" xlink:title="Geometry\&lt; Sphere \&gt;\l::draw">
<polygon fill="white" stroke="black" points="134,-0 134,-34 242,-34 242,-0 134,-0"/>
<text text-anchor="start" x="142" y="-21" font-family="Helvetica,sans-Serif" font-size="10.00">Geometry&lt; Sphere &gt;</text>
<text text-anchor="middle" x="188" y="-8" font-family="Helvetica,sans-Serif" font-size="10.00">::draw</text>
</a>
</g>
<!-- Node1&#45;&gt;Node3 -->
<g id="edge4" class="edge"><title>Node1&#45;&gt;Node3</title>
<path fill="none" stroke="midnightblue" d="M107.932,-30.2487C116.5,-28.8309 125.288,-27.3767 133.758,-25.9753"/>
<polygon fill="midnightblue" stroke="midnightblue" points="107.301,-26.8055 98.0062,-31.8911 108.443,-33.7115 107.301,-26.8055"/>
</g>
</g>
</svg>
