<?xml version="1.0" encoding="UTF-8" standalone="no"?>
<!DOCTYPE svg PUBLIC "-//W3C//DTD SVG 1.1//EN"
 "http://www.w3.org/Graphics/SVG/1.1/DTD/svg11.dtd">
<!-- Generated by graphviz version 2.26.3 (20100126.1600)
 -->
<!-- Title: Camera::vAngle Pages: 1 -->
<svg width="408pt" height="30pt"
 viewBox="0.00 0.00 408.00 30.00" xmlns="http://www.w3.org/2000/svg" xmlns:xlink="http://www.w3.org/1999/xlink">
<g id="graph1" class="graph" transform="scale(1 1) rotate(0) translate(4 26)">
<title>Camera::vAngle</title>
<polygon fill="white" stroke="white" points="-4,5 -4,-26 405,-26 405,5 -4,5"/>
<!-- Node1 -->
<g id="node1" class="node"><title>Node1</title>
<polygon fill="#bfbfbf" stroke="black" points="0.5,-0.5 0.5,-21.5 87.5,-21.5 87.5,-0.5 0.5,-0.5"/>
<text text-anchor="middle" x="44" y="-8.5" font-family="Helvetica,sans-Serif" font-size="10.00">Camera::vAngle</text>
</g>
<!-- Node2 -->
<g id="node3" class="node"><title>Node2</title>
<a xlink:href="class_camera.html#ae068edc8a9da46c0062af05b2434fb63" target="_top" xlink:title="Camera::resetBias">
<polygon fill="white" stroke="black" points="124,-0.5 124,-21.5 222,-21.5 222,-0.5 124,-0.5"/>
<text text-anchor="middle" x="173" y="-8.5" font-family="Helvetica,sans-Serif" font-size="10.00">Camera::resetBias</text>
</a>
</g>
<!-- Node1&#45;&gt;Node2 -->
<g id="edge2" class="edge"><title>Node1&#45;&gt;Node2</title>
<path fill="none" stroke="midnightblue" d="M97.8972,-11C106.416,-11 115.188,-11 123.598,-11"/>
<polygon fill="midnightblue" stroke="midnightblue" points="97.6735,-7.5001 87.6735,-11 97.6735,-14.5001 97.6735,-7.5001"/>
</g>
<!-- Node3 -->
<g id="node5" class="node"><title>Node3</title>
<a xlink:href="class_viewport.html#a16ba3ca4c621d3dad146c0ad3f9a48cc" target="_top" xlink:title="Viewport::mousePressEvent">
<polygon fill="white" stroke="black" points="258.5,-0.5 258.5,-21.5 399.5,-21.5 399.5,-0.5 258.5,-0.5"/>
<text text-anchor="middle" x="329" y="-8.5" font-family="Helvetica,sans-Serif" font-size="10.00">Viewport::mousePressEvent</text>
</a>
</g>
<!-- Node2&#45;&gt;Node3 -->
<g id="edge4" class="edge"><title>Node2&#45;&gt;Node3</title>
<path fill="none" stroke="midnightblue" d="M232.478,-11C240.921,-11 249.672,-11 258.303,-11"/>
<polygon fill="midnightblue" stroke="midnightblue" points="232.359,-7.5001 222.359,-11 232.359,-14.5001 232.359,-7.5001"/>
</g>
</g>
</svg>
