<?xml version="1.0" encoding="UTF-8" standalone="no"?>
<!DOCTYPE svg PUBLIC "-//W3C//DTD SVG 1.1//EN"
 "http://www.w3.org/Graphics/SVG/1.1/DTD/svg11.dtd">
<!-- Generated by graphviz version 2.26.3 (20100126.1600)
 -->
<!-- Title: Viewport::paintGL Pages: 1 -->
<svg width="476pt" height="109pt"
 viewBox="0.00 0.00 476.00 109.00" xmlns="http://www.w3.org/2000/svg" xmlns:xlink="http://www.w3.org/1999/xlink">
<g id="graph1" class="graph" transform="scale(1 1) rotate(0) translate(4 105)">
<title>Viewport::paintGL</title>
<polygon fill="white" stroke="white" points="-4,5 -4,-105 473,-105 473,5 -4,5"/>
<!-- Node1 -->
<g id="node1" class="node"><title>Node1</title>
<polygon fill="#bfbfbf" stroke="black" points="0.5,-20.5 0.5,-41.5 95.5,-41.5 95.5,-20.5 0.5,-20.5"/>
<text text-anchor="middle" x="48" y="-28.5" font-family="Helvetica,sans-Serif" font-size="10.00">Viewport::paintGL</text>
</g>
<!-- Node2 -->
<g id="node3" class="node"><title>Node2</title>
<a xlink:href="class_camera.html#af81adf3ba7f63429a9d5356c218da78f" target="_top" xlink:title="Camera::view">
<polygon fill="white" stroke="black" points="132.5,-40.5 132.5,-61.5 209.5,-61.5 209.5,-40.5 132.5,-40.5"/>
<text text-anchor="middle" x="171" y="-48.5" font-family="Helvetica,sans-Serif" font-size="10.00">Camera::view</text>
</a>
</g>
<!-- Node1&#45;&gt;Node2 -->
<g id="edge2" class="edge"><title>Node1&#45;&gt;Node2</title>
<path fill="none" stroke="midnightblue" d="M95.555,-38.7325C104.301,-40.1546 113.444,-41.6413 122.225,-43.0692"/>
<polygon fill="midnightblue" stroke="midnightblue" points="121.89,-46.5605 132.322,-44.7109 123.013,-39.6512 121.89,-46.5605"/>
</g>
<!-- Node7 -->
<g id="node14" class="node"><title>Node7</title>
<a xlink:href="class_actor.html#ac35dab598ae9f9a936418ec22fadf138" target="_top" xlink:title="Actor::draw">
<polygon fill="white" stroke="black" points="137.5,-0.5 137.5,-21.5 204.5,-21.5 204.5,-0.5 137.5,-0.5"/>
<text text-anchor="middle" x="171" y="-8.5" font-family="Helvetica,sans-Serif" font-size="10.00">Actor::draw</text>
</a>
</g>
<!-- Node1&#45;&gt;Node7 -->
<g id="edge14" class="edge"><title>Node1&#45;&gt;Node7</title>
<path fill="none" stroke="midnightblue" d="M95.555,-23.2675C106,-21.5692 117.01,-19.7788 127.295,-18.1065"/>
<polygon fill="midnightblue" stroke="midnightblue" points="127.981,-21.5411 137.289,-16.4814 126.857,-14.6318 127.981,-21.5411"/>
</g>
<!-- Node3 -->
<g id="node5" class="node"><title>Node3</title>
<a xlink:href="class_camera.html#a4e6b5818c84025d176c13c84991ef568" target="_top" xlink:title="Camera::position">
<polygon fill="white" stroke="black" points="246.5,-79.5 246.5,-100.5 337.5,-100.5 337.5,-79.5 246.5,-79.5"/>
<text text-anchor="middle" x="292" y="-87.5" font-family="Helvetica,sans-Serif" font-size="10.00">Camera::position</text>
</a>
</g>
<!-- Node2&#45;&gt;Node3 -->
<g id="edge4" class="edge"><title>Node2&#45;&gt;Node3</title>
<path fill="none" stroke="midnightblue" d="M203.744,-61.554C217.868,-66.1062 234.568,-71.4889 249.62,-76.3403"/>
<polygon fill="midnightblue" stroke="midnightblue" points="248.638,-79.701 259.229,-79.4376 250.785,-73.0386 248.638,-79.701"/>
</g>
<!-- Node4 -->
<g id="node7" class="node"><title>Node4</title>
<a xlink:href="class_camera.html#a7276761c5214ec94f6ac35e5804f6719" target="_top" xlink:title="Camera::direction">
<polygon fill="white" stroke="black" points="374,-40.5 374,-61.5 468,-61.5 468,-40.5 374,-40.5"/>
<text text-anchor="middle" x="421" y="-48.5" font-family="Helvetica,sans-Serif" font-size="10.00">Camera::direction</text>
</a>
</g>
<!-- Node2&#45;&gt;Node4 -->
<g id="edge6" class="edge"><title>Node2&#45;&gt;Node4</title>
<path fill="none" stroke="midnightblue" d="M209.515,-51C250.731,-51 316.552,-51 363.819,-51"/>
<polygon fill="midnightblue" stroke="midnightblue" points="363.907,-54.5001 373.907,-51 363.907,-47.5001 363.907,-54.5001"/>
</g>
<!-- Node5 -->
<g id="node9" class="node"><title>Node5</title>
<a xlink:href="class_camera.html#a9936c788ad482b40b5a3548bf5e97247" target="_top" xlink:title="Camera::up">
<polygon fill="white" stroke="black" points="258,-1.5 258,-22.5 326,-22.5 326,-1.5 258,-1.5"/>
<text text-anchor="middle" x="292" y="-9.5" font-family="Helvetica,sans-Serif" font-size="10.00">Camera::up</text>
</a>
</g>
<!-- Node2&#45;&gt;Node5 -->
<g id="edge8" class="edge"><title>Node2&#45;&gt;Node5</title>
<path fill="none" stroke="midnightblue" d="M203.744,-40.446C217.868,-35.8938 234.568,-30.5111 249.62,-25.6597"/>
<polygon fill="midnightblue" stroke="midnightblue" points="250.785,-28.9614 259.229,-22.5624 248.638,-22.299 250.785,-28.9614"/>
</g>
<!-- Node5&#45;&gt;Node4 -->
<g id="edge12" class="edge"><title>Node5&#45;&gt;Node4</title>
<path fill="none" stroke="midnightblue" d="M326.231,-22.3489C341.561,-26.9834 359.84,-32.5099 376.237,-37.467"/>
<polygon fill="midnightblue" stroke="midnightblue" points="375.575,-40.9232 386.16,-40.4669 377.601,-34.2227 375.575,-40.9232"/>
</g>
<!-- Node6 -->
<g id="node11" class="node"><title>Node6</title>
<a xlink:href="class_camera.html#ac68fa914dd8737de1ec7558fc9281a68" target="_top" xlink:title="Camera::right">
<polygon fill="white" stroke="black" points="383,-0.5 383,-21.5 459,-21.5 459,-0.5 383,-0.5"/>
<text text-anchor="middle" x="421" y="-8.5" font-family="Helvetica,sans-Serif" font-size="10.00">Camera::right</text>
</a>
</g>
<!-- Node5&#45;&gt;Node6 -->
<g id="edge10" class="edge"><title>Node5&#45;&gt;Node6</title>
<path fill="none" stroke="midnightblue" d="M326.231,-11.7346C340.422,-11.6246 357.142,-11.495 372.555,-11.3755"/>
<polygon fill="midnightblue" stroke="midnightblue" points="372.998,-14.8723 382.97,-11.2948 372.943,-7.87252 372.998,-14.8723"/>
</g>
</g>
</svg>
