<?xml version="1.0" encoding="UTF-8" standalone="no"?>
<!DOCTYPE svg PUBLIC "-//W3C//DTD SVG 1.1//EN"
 "http://www.w3.org/Graphics/SVG/1.1/DTD/svg11.dtd">
<!-- Generated by graphviz version 2.26.3 (20100126.1600)
 -->
<!-- Title: Light::getTexture Pages: 1 -->
<svg width="378pt" height="110pt"
 viewBox="0.00 0.00 378.00 110.00" xmlns="http://www.w3.org/2000/svg" xmlns:xlink="http://www.w3.org/1999/xlink">
<g id="graph1" class="graph" transform="scale(1 1) rotate(0) translate(4 106)">
<title>Light::getTexture</title>
<polygon fill="white" stroke="white" points="-4,5 -4,-106 375,-106 375,5 -4,5"/>
<!-- Node1 -->
<g id="node1" class="node"><title>Node1</title>
<polygon fill="#bfbfbf" stroke="black" points="0,-40.5 0,-61.5 90,-61.5 90,-40.5 0,-40.5"/>
<text text-anchor="middle" x="45" y="-48.5" font-family="Helvetica,sans-Serif" font-size="10.00">Light::getTexture</text>
</g>
<!-- Node2 -->
<g id="node3" class="node"><title>Node2</title>
<a xlink:href="class_viewport.html#a0a6f7525bd53d2a0d5905374042d43ca" target="_top" xlink:title="Viewport::initLight">
<polygon fill="white" stroke="black" points="134.5,-80.5 134.5,-101.5 229.5,-101.5 229.5,-80.5 134.5,-80.5"/>
<text text-anchor="middle" x="182" y="-88.5" font-family="Helvetica,sans-Serif" font-size="10.00">Viewport::initLight</text>
</a>
</g>
<!-- Node1&#45;&gt;Node2 -->
<g id="edge2" class="edge"><title>Node1&#45;&gt;Node2</title>
<path fill="none" stroke="midnightblue" d="M90.6752,-64.3358C108.601,-69.5696 128.881,-75.4909 145.77,-80.4218"/>
<polygon fill="midnightblue" stroke="midnightblue" points="91.5753,-60.9526 80.9951,-61.5095 89.6134,-67.672 91.5753,-60.9526"/>
</g>
<!-- Node3 -->
<g id="node5" class="node"><title>Node3</title>
<a xlink:href="class_viewport.html#ae95938dedc43d6b36f2b85d4a226ffa1" target="_top" xlink:title="Viewport::renderLight">
<polygon fill="white" stroke="black" points="127.5,-40.5 127.5,-61.5 236.5,-61.5 236.5,-40.5 127.5,-40.5"/>
<text text-anchor="middle" x="182" y="-48.5" font-family="Helvetica,sans-Serif" font-size="10.00">Viewport::renderLight</text>
</a>
</g>
<!-- Node1&#45;&gt;Node3 -->
<g id="edge4" class="edge"><title>Node1&#45;&gt;Node3</title>
<path fill="none" stroke="midnightblue" d="M100.447,-51C109.293,-51 118.44,-51 127.269,-51"/>
<polygon fill="midnightblue" stroke="midnightblue" points="100.239,-47.5001 90.2386,-51 100.239,-54.5001 100.239,-47.5001"/>
</g>
<!-- Node5 -->
<g id="node9" class="node"><title>Node5</title>
<a xlink:href="class_viewport.html#aeb07f85bbe4f10ca8d8c7b46c8ebd23b" target="_top" xlink:title="Viewport::renderQuad">
<polygon fill="white" stroke="black" points="126.5,-0.5 126.5,-21.5 237.5,-21.5 237.5,-0.5 126.5,-0.5"/>
<text text-anchor="middle" x="182" y="-8.5" font-family="Helvetica,sans-Serif" font-size="10.00">Viewport::renderQuad</text>
</a>
</g>
<!-- Node1&#45;&gt;Node5 -->
<g id="edge8" class="edge"><title>Node1&#45;&gt;Node5</title>
<path fill="none" stroke="midnightblue" d="M90.6752,-37.6642C108.601,-32.4304 128.881,-26.5091 145.77,-21.5782"/>
<polygon fill="midnightblue" stroke="midnightblue" points="89.6134,-34.328 80.9951,-40.4905 91.5753,-41.0474 89.6134,-34.328"/>
</g>
<!-- Node4 -->
<g id="node7" class="node"><title>Node4</title>
<a xlink:href="class_viewport.html#a3c2c4661eac1f6351392b8fe133423f5" target="_top" xlink:title="Viewport::paintGL">
<polygon fill="white" stroke="black" points="274.5,-20.5 274.5,-41.5 369.5,-41.5 369.5,-20.5 274.5,-20.5"/>
<text text-anchor="middle" x="322" y="-28.5" font-family="Helvetica,sans-Serif" font-size="10.00">Viewport::paintGL</text>
</a>
</g>
<!-- Node3&#45;&gt;Node4 -->
<g id="edge6" class="edge"><title>Node3&#45;&gt;Node4</title>
<path fill="none" stroke="midnightblue" d="M246.554,-41.778C255.868,-40.4474 265.312,-39.0982 274.221,-37.8256"/>
<polygon fill="midnightblue" stroke="midnightblue" points="245.933,-38.3311 236.529,-43.2102 246.923,-45.2607 245.933,-38.3311"/>
</g>
<!-- Node5&#45;&gt;Node4 -->
<g id="edge10" class="edge"><title>Node5&#45;&gt;Node4</title>
<path fill="none" stroke="midnightblue" d="M247.718,-20.3883C256.624,-21.6605 265.622,-22.946 274.134,-24.1619"/>
<polygon fill="midnightblue" stroke="midnightblue" points="248.128,-16.9115 237.734,-18.962 247.138,-23.8411 248.128,-16.9115"/>
</g>
</g>
</svg>
