<?xml version="1.0" encoding="UTF-8" standalone="no"?>
<!DOCTYPE svg PUBLIC "-//W3C//DTD SVG 1.1//EN"
 "http://www.w3.org/Graphics/SVG/1.1/DTD/svg11.dtd">
<!-- Generated by graphviz version 2.26.3 (20100126.1600)
 -->
<!-- Title: Camera::velocity Pages: 1 -->
<svg width="228pt" height="70pt"
 viewBox="0.00 0.00 228.00 70.00" xmlns="http://www.w3.org/2000/svg" xmlns:xlink="http://www.w3.org/1999/xlink">
<g id="graph1" class="graph" transform="scale(1 1) rotate(0) translate(4 66)">
<title>Camera::velocity</title>
<polygon fill="white" stroke="white" points="-4,5 -4,-66 225,-66 225,5 -4,5"/>
<!-- Node1 -->
<g id="node1" class="node"><title>Node1</title>
<polygon fill="#bfbfbf" stroke="black" points="0.5,-20.5 0.5,-41.5 91.5,-41.5 91.5,-20.5 0.5,-20.5"/>
<text text-anchor="middle" x="46" y="-28.5" font-family="Helvetica,sans-Serif" font-size="10.00">Camera::velocity</text>
</g>
<!-- Node2 -->
<g id="node3" class="node"><title>Node2</title>
<a xlink:href="class_camera.html#a4e6b5818c84025d176c13c84991ef568" target="_top" xlink:title="Camera::position">
<polygon fill="white" stroke="black" points="128.5,-40.5 128.5,-61.5 219.5,-61.5 219.5,-40.5 128.5,-40.5"/>
<text text-anchor="middle" x="174" y="-48.5" font-family="Helvetica,sans-Serif" font-size="10.00">Camera::position</text>
</a>
</g>
<!-- Node1&#45;&gt;Node2 -->
<g id="edge2" class="edge"><title>Node1&#45;&gt;Node2</title>
<path fill="none" stroke="midnightblue" d="M91.8494,-38.164C100.501,-39.5158 109.636,-40.9431 118.545,-42.3352"/>
<polygon fill="midnightblue" stroke="midnightblue" points="118.05,-45.8002 128.471,-43.886 119.131,-38.8842 118.05,-45.8002"/>
</g>
<!-- Node3 -->
<g id="node5" class="node"><title>Node3</title>
<a xlink:href="class_camera.html#a9d5f5bfa927044db06ce687b0c00173e" target="_top" xlink:title="Camera::speed">
<polygon fill="white" stroke="black" points="132.5,-0.5 132.5,-21.5 215.5,-21.5 215.5,-0.5 132.5,-0.5"/>
<text text-anchor="middle" x="174" y="-8.5" font-family="Helvetica,sans-Serif" font-size="10.00">Camera::speed</text>
</a>
</g>
<!-- Node1&#45;&gt;Node3 -->
<g id="edge4" class="edge"><title>Node1&#45;&gt;Node3</title>
<path fill="none" stroke="midnightblue" d="M91.8494,-23.836C101.749,-22.2892 112.28,-20.6438 122.383,-19.0652"/>
<polygon fill="midnightblue" stroke="midnightblue" points="122.964,-22.5169 132.304,-17.515 121.883,-15.6008 122.964,-22.5169"/>
</g>
</g>
</svg>
