<?xml version="1.0" encoding="UTF-8" standalone="no"?>
<!DOCTYPE svg PUBLIC "-//W3C//DTD SVG 1.1//EN"
 "http://www.w3.org/Graphics/SVG/1.1/DTD/svg11.dtd">
<!-- Generated by graphviz version 2.26.3 (20100126.1600)
 -->
<!-- Title: Viewport::renderQuad Pages: 1 -->
<svg width="384pt" height="350pt"
 viewBox="0.00 0.00 384.00 350.00" xmlns="http://www.w3.org/2000/svg" xmlns:xlink="http://www.w3.org/1999/xlink">
<g id="graph1" class="graph" transform="scale(1 1) rotate(0) translate(4 346)">
<title>Viewport::renderQuad</title>
<polygon fill="white" stroke="white" points="-4,5 -4,-346 381,-346 381,5 -4,5"/>
<!-- Node1 -->
<g id="node1" class="node"><title>Node1</title>
<polygon fill="#bfbfbf" stroke="black" points="0.5,-160.5 0.5,-181.5 111.5,-181.5 111.5,-160.5 0.5,-160.5"/>
<text text-anchor="middle" x="56" y="-168.5" font-family="Helvetica,sans-Serif" font-size="10.00">Viewport::renderQuad</text>
</g>
<!-- Node2 -->
<g id="node3" class="node"><title>Node2</title>
<a xlink:href="class_world.html#a664cd2c63ef6c7979736cd454b31eb1c" target="_top" xlink:title="World::currentZone">
<polygon fill="white" stroke="black" points="148,-320.5 148,-341.5 248,-341.5 248,-320.5 148,-320.5"/>
<text text-anchor="middle" x="198" y="-328.5" font-family="Helvetica,sans-Serif" font-size="10.00">World::currentZone</text>
</a>
</g>
<!-- Node1&#45;&gt;Node2 -->
<g id="edge2" class="edge"><title>Node1&#45;&gt;Node2</title>
<path fill="none" stroke="midnightblue" d="M60.3177,-181.714C71.2181,-207.502 102.277,-273.649 148,-311 149.996,-312.63 152.141,-314.141 154.381,-315.54"/>
<polygon fill="midnightblue" stroke="midnightblue" points="152.909,-318.723 163.372,-320.391 156.233,-312.562 152.909,-318.723"/>
</g>
<!-- Node3 -->
<g id="node5" class="node"><title>Node3</title>
<a xlink:href="class_light.html#ac5414b33c1c3cf0940f9979dceb60087" target="_top" xlink:title="Light::getTexture">
<polygon fill="white" stroke="black" points="153,-280.5 153,-301.5 243,-301.5 243,-280.5 153,-280.5"/>
<text text-anchor="middle" x="198" y="-288.5" font-family="Helvetica,sans-Serif" font-size="10.00">Light::getTexture</text>
</a>
</g>
<!-- Node1&#45;&gt;Node3 -->
<g id="edge4" class="edge"><title>Node1&#45;&gt;Node3</title>
<path fill="none" stroke="midnightblue" d="M63.3839,-181.803C77.607,-201.892 110.714,-245.284 148,-271 150.572,-272.774 153.325,-274.426 156.167,-275.957"/>
<polygon fill="midnightblue" stroke="midnightblue" points="154.913,-279.238 165.44,-280.438 157.959,-272.935 154.913,-279.238"/>
</g>
<!-- Node4 -->
<g id="node7" class="node"><title>Node4</title>
<a xlink:href="viewport_8cpp.html#ae7e24b600e4b06fe95d062b8fb71bc7a" target="_top" xlink:title="toVector">
<polygon fill="white" stroke="black" points="171.5,-240.5 171.5,-261.5 224.5,-261.5 224.5,-240.5 171.5,-240.5"/>
<text text-anchor="middle" x="198" y="-248.5" font-family="Helvetica,sans-Serif" font-size="10.00">toVector</text>
</a>
</g>
<!-- Node1&#45;&gt;Node4 -->
<g id="edge6" class="edge"><title>Node1&#45;&gt;Node4</title>
<path fill="none" stroke="midnightblue" d="M70.433,-181.704C88.1031,-194.499 119.234,-216.053 148,-231 152.384,-233.278 157.089,-235.468 161.795,-237.508"/>
<polygon fill="midnightblue" stroke="midnightblue" points="160.776,-240.875 171.354,-241.469 163.455,-234.408 160.776,-240.875"/>
</g>
<!-- Node5 -->
<g id="node9" class="node"><title>Node5</title>
<a xlink:href="class_light.html#a268d5bc710788f8457c1efc6038ea0a0" target="_top" xlink:title="Light::type">
<polygon fill="white" stroke="black" points="167,-200.5 167,-221.5 229,-221.5 229,-200.5 167,-200.5"/>
<text text-anchor="middle" x="198" y="-208.5" font-family="Helvetica,sans-Serif" font-size="10.00">Light::type</text>
</a>
</g>
<!-- Node1&#45;&gt;Node5 -->
<g id="edge8" class="edge"><title>Node1&#45;&gt;Node5</title>
<path fill="none" stroke="midnightblue" d="M93.3088,-181.51C112.851,-187.014 136.826,-193.768 156.9,-199.423"/>
<polygon fill="midnightblue" stroke="midnightblue" points="156.126,-202.841 166.7,-202.183 158.024,-196.103 156.126,-202.841"/>
</g>
<!-- Node6 -->
<g id="node11" class="node"><title>Node6</title>
<a xlink:href="class_light.html#ab689087cc07b95273f6daae900a42010" target="_top" xlink:title="Light::direction">
<polygon fill="white" stroke="black" points="158,-160.5 158,-181.5 238,-181.5 238,-160.5 158,-160.5"/>
<text text-anchor="middle" x="198" y="-168.5" font-family="Helvetica,sans-Serif" font-size="10.00">Light::direction</text>
</a>
</g>
<!-- Node1&#45;&gt;Node6 -->
<g id="edge10" class="edge"><title>Node1&#45;&gt;Node6</title>
<path fill="none" stroke="midnightblue" d="M111.715,-171C123.614,-171 136.114,-171 147.791,-171"/>
<polygon fill="midnightblue" stroke="midnightblue" points="147.805,-174.5 157.805,-171 147.805,-167.5 147.805,-174.5"/>
</g>
<!-- Node8 -->
<g id="node15" class="node"><title>Node8</title>
<a xlink:href="class_actor.html#acdab84246959258bbde6eb050d340e67" target="_top" xlink:title="Actor::position">
<polygon fill="white" stroke="black" points="158,-120.5 158,-141.5 238,-141.5 238,-120.5 158,-120.5"/>
<text text-anchor="middle" x="198" y="-128.5" font-family="Helvetica,sans-Serif" font-size="10.00">Actor::position</text>
</a>
</g>
<!-- Node1&#45;&gt;Node8 -->
<g id="edge14" class="edge"><title>Node1&#45;&gt;Node8</title>
<path fill="none" stroke="midnightblue" d="M93.3088,-160.49C110.862,-155.546 131.991,-149.594 150.657,-144.336"/>
<polygon fill="midnightblue" stroke="midnightblue" points="151.771,-147.659 160.447,-141.578 149.873,-140.921 151.771,-147.659"/>
</g>
<!-- Node9 -->
<g id="node17" class="node"><title>Node9</title>
<a xlink:href="class_light.html#a747a809f8abf05f41143279abb78df13" target="_top" xlink:title="Light::view">
<polygon fill="white" stroke="black" points="166,-80.5 166,-101.5 230,-101.5 230,-80.5 166,-80.5"/>
<text text-anchor="middle" x="198" y="-88.5" font-family="Helvetica,sans-Serif" font-size="10.00">Light::view</text>
</a>
</g>
<!-- Node1&#45;&gt;Node9 -->
<g id="edge16" class="edge"><title>Node1&#45;&gt;Node9</title>
<path fill="none" stroke="midnightblue" d="M70.433,-160.296C88.1031,-147.501 119.234,-125.947 148,-111 151.584,-109.138 155.383,-107.334 159.221,-105.623"/>
<polygon fill="midnightblue" stroke="midnightblue" points="160.909,-108.709 168.745,-101.578 158.173,-102.266 160.909,-108.709"/>
</g>
<!-- Node10 -->
<g id="node19" class="node"><title>Node10</title>
<a xlink:href="class_light.html#ae15381dfe25ed67531fa7b2a530399ad" target="_top" xlink:title="Light::projection">
<polygon fill="white" stroke="black" points="155,-40.5 155,-61.5 241,-61.5 241,-40.5 155,-40.5"/>
<text text-anchor="middle" x="198" y="-48.5" font-family="Helvetica,sans-Serif" font-size="10.00">Light::projection</text>
</a>
</g>
<!-- Node1&#45;&gt;Node10 -->
<g id="edge18" class="edge"><title>Node1&#45;&gt;Node10</title>
<path fill="none" stroke="midnightblue" d="M63.3839,-160.197C77.607,-140.108 110.714,-96.7159 148,-71 150.572,-69.2259 153.325,-67.5742 156.167,-66.0431"/>
<polygon fill="midnightblue" stroke="midnightblue" points="157.959,-69.0645 165.44,-61.5615 154.913,-62.7621 157.959,-69.0645"/>
</g>
<!-- Node11 -->
<g id="node21" class="node"><title>Node11</title>
<a xlink:href="class_camera.html#a7276761c5214ec94f6ac35e5804f6719" target="_top" xlink:title="Camera::direction">
<polygon fill="white" stroke="black" points="151,-0.5 151,-21.5 245,-21.5 245,-0.5 151,-0.5"/>
<text text-anchor="middle" x="198" y="-8.5" font-family="Helvetica,sans-Serif" font-size="10.00">Camera::direction</text>
</a>
</g>
<!-- Node1&#45;&gt;Node11 -->
<g id="edge20" class="edge"><title>Node1&#45;&gt;Node11</title>
<path fill="none" stroke="midnightblue" d="M60.3177,-160.286C71.2181,-134.498 102.277,-68.3514 148,-31 149.996,-29.3698 152.141,-27.8587 154.381,-26.4601"/>
<polygon fill="midnightblue" stroke="midnightblue" points="156.233,-29.4377 163.372,-21.6087 152.909,-23.2774 156.233,-29.4377"/>
</g>
<!-- Node7 -->
<g id="node13" class="node"><title>Node7</title>
<a xlink:href="class_actor.html#a748e07c73196050bfb0d51a14608aeae" target="_top" xlink:title="Actor::orientation">
<polygon fill="white" stroke="black" points="284.5,-160.5 284.5,-181.5 375.5,-181.5 375.5,-160.5 284.5,-160.5"/>
<text text-anchor="middle" x="330" y="-168.5" font-family="Helvetica,sans-Serif" font-size="10.00">Actor::orientation</text>
</a>
</g>
<!-- Node6&#45;&gt;Node7 -->
<g id="edge12" class="edge"><title>Node6&#45;&gt;Node7</title>
<path fill="none" stroke="midnightblue" d="M238.322,-171C249.694,-171 262.272,-171 274.373,-171"/>
<polygon fill="midnightblue" stroke="midnightblue" points="274.388,-174.5 284.388,-171 274.388,-167.5 274.388,-174.5"/>
</g>
</g>
</svg>
