<?xml version="1.0" encoding="UTF-8" standalone="no"?>
<!DOCTYPE svg PUBLIC "-//W3C//DTD SVG 1.1//EN"
 "http://www.w3.org/Graphics/SVG/1.1/DTD/svg11.dtd">
<!-- Generated by graphviz version 2.26.3 (20100126.1600)
 -->
<!-- Title: GeoBase Pages: 1 -->
<!--zoomable 375 -->
<svg id="main" version="1.1" xmlns="http://www.w3.org/2000/svg" xmlns:xlink="http://www.w3.org/1999/xlink" xml:space="preserve" onload="init(evt)">
<style type="text/css"><![CDATA[
.edge:hover path { stroke: red; }
.edge:hover polygon { stroke: red; fill: red; }
]]></style>
<script type="text/javascript"><![CDATA[
var edges = document.getElementsByTagName('g');
if (edges && edges.length) {
  for (var i=0;i<edges.length;i++) {
    if (edges[i].id.substr(0,4)=='edge') {
      edges[i].setAttribute('class','edge');
    }
  }
}
]]></script>
        <defs>
                <circle id="rim" cx="0" cy="0" r="7"/>
                <circle id="rim2" cx="0" cy="0" r="3.5"/>
                <g id="zoomPlus">
                        <use xlink:href="#rim" fill="#404040">
                                <set attributeName="fill" to="#808080" begin="zoomplus.mouseover" end="zoomplus.mouseout"/>
                        </use>
                        <path d="M-4,0h8M0,-4v8" fill="none" stroke="white" stroke-width="1.5" pointer-events="none"/>
                </g>
                <g id="zoomMin">
                        <use xlink:href="#rim" fill="#404040">
                                <set attributeName="fill" to="#808080" begin="zoomminus.mouseover" end="zoomminus.mouseout"/>
                        </use>
                        <path d="M-4,0h8" fill="none" stroke="white" stroke-width="1.5" pointer-events="none"/>
                </g>
                <g id="dirArrow">
                        <path fill="none" stroke="white" stroke-width="1.5" d="M0,-3.0v7 M-2.5,-0.5L0,-3.0L2.5,-0.5"/>
                </g>
               <g id="resetDef">
                       <use xlink:href="#rim2" fill="#404040">
                               <set attributeName="fill" to="#808080" begin="reset.mouseover" end="reset.mouseout"/>
                       </use>
               </g>
        </defs>

<script type="text/javascript">
var viewWidth = 690;
var viewHeight = 375;
var sectionId = 'dynsection-0';
</script>
<script xlink:href="svgpan.js"/>
<svg id="graph" class="graph">
<g id="viewport">
<title>GeoBase</title>
<polygon fill="white" stroke="white" points="-4,5 -4,-371 687,-371 687,5 -4,5"/>
<!-- Node1 -->
<g id="node1" class="node"><title>Node1</title>
<polygon fill="#bfbfbf" stroke="black" points="170.5,-138.5 170.5,-159.5 227.5,-159.5 227.5,-138.5 170.5,-138.5"/>
<text text-anchor="middle" x="199" y="-146.5" font-family="Helvetica,sans-Serif" font-size="10.00">GeoBase</text>
</g>
<!-- Node4 -->
<g id="node7" class="node"><title>Node4</title>
<a xlink:href="class_geometry.html" target="_top" xlink:title="Base de toutes les géometries. ">
<polygon fill="white" stroke="black" points="266,-178.5 266,-199.5 366,-199.5 366,-178.5 266,-178.5"/>
<text text-anchor="middle" x="316" y="-186.5" font-family="Helvetica,sans-Serif" font-size="10.00">Geometry&lt; Child &gt;</text>
</a>
</g>
<!-- Node1&#45;&gt;Node4 -->
<g id="edge6" class="edge"><title>Node1&#45;&gt;Node4</title>
<path fill="none" stroke="midnightblue" d="M237.446,-162.144C252.947,-167.443 270.585,-173.474 285.215,-178.475"/>
<polygon fill="midnightblue" stroke="midnightblue" points="238.216,-158.708 227.621,-158.785 235.951,-165.332 238.216,-158.708"/>
</g>
<!-- Node5 -->
<g id="node9" class="node"><title>Node5</title>
<a xlink:href="class_geometry.html" target="_top" xlink:title="Geometry\&lt; Cube \&gt;">
<polygon fill="white" stroke="black" points="475.5,-235.5 475.5,-256.5 576.5,-256.5 576.5,-235.5 475.5,-235.5"/>
<text text-anchor="middle" x="526" y="-243.5" font-family="Helvetica,sans-Serif" font-size="10.00">Geometry&lt; Cube &gt;</text>
</a>
</g>
<!-- Node1&#45;&gt;Node5 -->
<g id="edge36" class="edge"><title>Node1&#45;&gt;Node5</title>
<path fill="none" stroke="midnightblue" d="M215.026,-167.296C244.551,-199.36 311.208,-264.351 384,-286 411.264,-294.109 420.35,-292.676 448,-286 471.373,-280.356 495.607,-266.442 510.736,-256.616"/>
<polygon fill="midnightblue" stroke="midnightblue" points="217.324,-164.618 208.023,-159.544 212.13,-169.311 217.324,-164.618"/>
</g>
<!-- Node7 -->
<g id="node13" class="node"><title>Node7</title>
<a xlink:href="class_geometry.html" target="_top" xlink:title="Geometry\&lt; Line \&gt;">
<polygon fill="white" stroke="black" points="478.5,-295.5 478.5,-316.5 573.5,-316.5 573.5,-295.5 478.5,-295.5"/>
<text text-anchor="middle" x="526" y="-303.5" font-family="Helvetica,sans-Serif" font-size="10.00">Geometry&lt; Line &gt;</text>
</a>
</g>
<!-- Node1&#45;&gt;Node7 -->
<g id="edge40" class="edge"><title>Node1&#45;&gt;Node7</title>
<path fill="none" stroke="midnightblue" d="M207.541,-168.815C218.557,-192.799 239.493,-233.509 266,-262 309.502,-308.757 323.058,-324.904 384,-344 411.143,-352.505 420.283,-350.392 448,-344 451.046,-343.298 482.938,-327.528 504.986,-316.527"/>
<polygon fill="midnightblue" stroke="midnightblue" points="210.717,-167.344 203.439,-159.644 204.327,-170.202 210.717,-167.344"/>
</g>
<!-- Node9 -->
<g id="node17" class="node"><title>Node9</title>
<a xlink:href="class_geometry.html" target="_top" xlink:title="Geometry\&lt; Rect \&gt;">
<polygon fill="white" stroke="black" points="477,-345.5 477,-366.5 575,-366.5 575,-345.5 477,-345.5"/>
<text text-anchor="middle" x="526" y="-353.5" font-family="Helvetica,sans-Serif" font-size="10.00">Geometry&lt; Rect &gt;</text>
</a>
</g>
<!-- Node1&#45;&gt;Node9 -->
<g id="edge44" class="edge"><title>Node1&#45;&gt;Node9</title>
<path fill="none" stroke="midnightblue" d="M202.178,-170.06C208.416,-204.418 225.376,-272.732 266,-313 321.402,-367.916 418.337,-368.756 476.906,-363.191"/>
<polygon fill="midnightblue" stroke="midnightblue" points="205.563,-169.081 200.455,-159.799 198.659,-170.24 205.563,-169.081"/>
</g>
<!-- Node11 -->
<g id="node21" class="node"><title>Node11</title>
<a xlink:href="class_geometry.html" target="_top" xlink:title="Geometry\&lt; Sphere \&gt;">
<polygon fill="white" stroke="black" points="472,-0.5 472,-21.5 580,-21.5 580,-0.5 472,-0.5"/>
<text text-anchor="middle" x="526" y="-8.5" font-family="Helvetica,sans-Serif" font-size="10.00">Geometry&lt; Sphere &gt;</text>
</a>
</g>
<!-- Node1&#45;&gt;Node11 -->
<g id="edge46" class="edge"><title>Node1&#45;&gt;Node11</title>
<path fill="none" stroke="midnightblue" d="M205.037,-128.601C213.859,-102.738 232.929,-58.9929 266,-38 328.165,1.46108 415.97,1.74775 471.943,-3.33443"/>
<polygon fill="midnightblue" stroke="midnightblue" points="201.691,-127.576 201.965,-138.167 208.355,-129.716 201.691,-127.576"/>
</g>
<!-- Node13 -->
<g id="node25" class="node"><title>Node13</title>
<a xlink:href="class_geometry.html" target="_top" xlink:title="Geometry\&lt; Cylinder \&gt;">
<polygon fill="white" stroke="black" points="469.5,-175.5 469.5,-196.5 582.5,-196.5 582.5,-175.5 469.5,-175.5"/>
<text text-anchor="middle" x="526" y="-183.5" font-family="Helvetica,sans-Serif" font-size="10.00">Geometry&lt; Cylinder &gt;</text>
</a>
</g>
<!-- Node1&#45;&gt;Node13 -->
<g id="edge38" class="edge"><title>Node1&#45;&gt;Node13</title>
<path fill="none" stroke="midnightblue" d="M237.495,-142.382C287.014,-135.222 375.307,-127.059 448,-145 471.616,-150.829 495.986,-165.233 511.063,-175.312"/>
<polygon fill="midnightblue" stroke="midnightblue" points="236.902,-138.932 227.536,-143.885 237.946,-145.853 236.902,-138.932"/>
</g>
<!-- Node15 -->
<g id="node29" class="node"><title>Node15</title>
<a xlink:href="class_geometry.html" target="_top" xlink:title="Geometry\&lt; Pyramide \&gt;">
<polygon fill="white" stroke="black" points="466.5,-50.5 466.5,-71.5 585.5,-71.5 585.5,-50.5 466.5,-50.5"/>
<text text-anchor="middle" x="526" y="-58.5" font-family="Helvetica,sans-Serif" font-size="10.00">Geometry&lt; Pyramide &gt;</text>
</a>
</g>
<!-- Node1&#45;&gt;Node15 -->
<g id="edge42" class="edge"><title>Node1&#45;&gt;Node15</title>
<path fill="none" stroke="midnightblue" d="M214,-130.052C226.552,-115.258 245.639,-95.0838 266,-82 313.088,-51.7414 328.917,-47.9356 384,-38 411.993,-32.9508 419.847,-33.9358 448,-38 464.768,-40.4207 482.955,-45.6257 497.546,-50.4728"/>
<polygon fill="midnightblue" stroke="midnightblue" points="211.068,-128.105 207.404,-138.046 216.468,-132.56 211.068,-128.105"/>
</g>
<!-- Node17 -->
<g id="node33" class="node"><title>Node17</title>
<a xlink:href="class_geometry.html" target="_top" xlink:title="Geometry\&lt; Trigger \&gt;">
<polygon fill="white" stroke="black" points="472.5,-112.5 472.5,-133.5 579.5,-133.5 579.5,-112.5 472.5,-112.5"/>
<text text-anchor="middle" x="526" y="-120.5" font-family="Helvetica,sans-Serif" font-size="10.00">Geometry&lt; Trigger &gt;</text>
</a>
</g>
<!-- Node1&#45;&gt;Node17 -->
<g id="edge48" class="edge"><title>Node1&#45;&gt;Node17</title>
<path fill="none" stroke="midnightblue" d="M219.481,-132.214C227.347,-126.558 236.681,-120.738 246,-117 329.863,-83.3625 359.069,-78.003 448,-94 467.622,-97.5297 488.755,-105.681 504.068,-112.446"/>
<polygon fill="midnightblue" stroke="midnightblue" points="217.16,-129.583 211.304,-138.412 221.388,-135.161 217.16,-129.583"/>
</g>
<!-- Node2 -->
<g id="node2" class="node"><title>Node2</title>
<a xlink:href="class_actor.html" target="_top" xlink:title="Base de tous les objets de la scène. ">
<polygon fill="white" stroke="black" points="92,-138.5 92,-159.5 132,-159.5 132,-138.5 92,-138.5"/>
<text text-anchor="middle" x="112" y="-146.5" font-family="Helvetica,sans-Serif" font-size="10.00">Actor</text>
</a>
</g>
<!-- Node2&#45;&gt;Node1 -->
<g id="edge2" class="edge"><title>Node2&#45;&gt;Node1</title>
<path fill="none" stroke="midnightblue" d="M142.355,-149C151.447,-149 161.385,-149 170.362,-149"/>
<polygon fill="midnightblue" stroke="midnightblue" points="142.178,-145.5 132.178,-149 142.178,-152.5 142.178,-145.5"/>
</g>
<!-- Node3 -->
<g id="node4" class="node"><title>Node3</title>
<a xlink:href="class_q_object.html" target="_top" xlink:title="QObject">
<polygon fill="white" stroke="black" points="0.5,-138.5 0.5,-159.5 53.5,-159.5 53.5,-138.5 0.5,-138.5"/>
<text text-anchor="middle" x="27" y="-146.5" font-family="Helvetica,sans-Serif" font-size="10.00">QObject</text>
</a>
</g>
<!-- Node3&#45;&gt;Node2 -->
<g id="edge4" class="edge"><title>Node3&#45;&gt;Node2</title>
<path fill="none" stroke="midnightblue" d="M63.9944,-149C73.5235,-149 83.4281,-149 91.7484,-149"/>
<polygon fill="midnightblue" stroke="midnightblue" points="63.8946,-145.5 53.8945,-149 63.8945,-152.5 63.8946,-145.5"/>
</g>
<!-- Node4&#45;&gt;Node5 -->
<g id="edge8" class="edge"><title>Node4&#45;&gt;Node5</title>
<path fill="none" stroke="orange" stroke-dasharray="5,2" d="M365.131,-202.335C402.352,-212.438 452.789,-226.128 487.202,-235.469"/>
<polygon fill="orange" stroke="orange" points="365.575,-198.829 355.007,-199.588 363.741,-205.585 365.575,-198.829"/>
<text text-anchor="middle" x="416" y="-228" font-family="Helvetica,sans-Serif" font-size="10.00"> &lt; Cube &gt;</text>
</g>
<!-- Node4&#45;&gt;Node7 -->
<g id="edge12" class="edge"><title>Node4&#45;&gt;Node7</title>
<path fill="none" stroke="orange" stroke-dasharray="5,2" d="M336.307,-206.453C349.394,-217.204 367.071,-230.828 384,-241 421.765,-263.692 468.802,-283.766 498.123,-295.403"/>
<polygon fill="orange" stroke="orange" points="338.343,-203.593 328.424,-199.869 333.855,-208.966 338.343,-203.593"/>
<text text-anchor="middle" x="416" y="-276" font-family="Helvetica,sans-Serif" font-size="10.00"> &lt; Line &gt;</text>
</g>
<!-- Node4&#45;&gt;Node9 -->
<g id="edge16" class="edge"><title>Node4&#45;&gt;Node9</title>
<path fill="none" stroke="orange" stroke-dasharray="5,2" d="M325.379,-208.794C336.656,-230.818 357.428,-266.288 384,-289 415.807,-316.187 460.524,-334.859 491.233,-345.453"/>
<polygon fill="orange" stroke="orange" points="328.456,-207.12 320.88,-199.714 322.184,-210.228 328.456,-207.12"/>
<text text-anchor="middle" x="416" y="-331" font-family="Helvetica,sans-Serif" font-size="10.00"> &lt; Rect &gt;</text>
</g>
<!-- Node4&#45;&gt;Node11 -->
<g id="edge20" class="edge"><title>Node4&#45;&gt;Node11</title>
<path fill="none" stroke="orange" stroke-dasharray="5,2" d="M324.419,-169.104C335.247,-145.504 356.041,-106.195 384,-81 415.853,-52.2968 461.615,-32.582 492.506,-21.5595"/>
<polygon fill="orange" stroke="orange" points="321.128,-167.892 320.276,-178.453 327.527,-170.729 321.128,-167.892"/>
<text text-anchor="middle" x="416" y="-85" font-family="Helvetica,sans-Serif" font-size="10.00"> &lt; Sphere &gt;</text>
</g>
<!-- Node4&#45;&gt;Node13 -->
<g id="edge24" class="edge"><title>Node4&#45;&gt;Node13</title>
<path fill="none" stroke="orange" stroke-dasharray="5,2" d="M376.139,-188.141C405.44,-187.722 440.481,-187.222 469.309,-186.81"/>
<polygon fill="orange" stroke="orange" points="375.982,-184.643 366.033,-188.285 376.082,-191.642 375.982,-184.643"/>
<text text-anchor="middle" x="416" y="-191" font-family="Helvetica,sans-Serif" font-size="10.00"> &lt; Cylinder &gt;</text>
</g>
<!-- Node4&#45;&gt;Node15 -->
<g id="edge28" class="edge"><title>Node4&#45;&gt;Node15</title>
<path fill="none" stroke="orange" stroke-dasharray="5,2" d="M334.374,-171.557C347.555,-159.569 366.081,-143.756 384,-132 422.601,-106.675 471.48,-84.0944 500.662,-71.509"/>
<polygon fill="orange" stroke="orange" points="331.878,-169.099 326.911,-178.457 336.63,-174.239 331.878,-169.099"/>
<text text-anchor="middle" x="416" y="-136" font-family="Helvetica,sans-Serif" font-size="10.00"> &lt; Pyramide &gt;</text>
</g>
<!-- Node4&#45;&gt;Node17 -->
<g id="edge32" class="edge"><title>Node4&#45;&gt;Node17</title>
<path fill="none" stroke="orange" stroke-dasharray="5,2" d="M359.36,-175.373C398.816,-162.972 456.25,-144.921 492.344,-133.578"/>
<polygon fill="orange" stroke="orange" points="358.231,-172.059 349.74,-178.396 360.329,-178.737 358.231,-172.059"/>
<text text-anchor="middle" x="416" y="-169" font-family="Helvetica,sans-Serif" font-size="10.00"> &lt; Trigger &gt;</text>
</g>
<!-- Node6 -->
<g id="node11" class="node"><title>Node6</title>
<a xlink:href="class_cube.html" target="_top" xlink:title="Un simple cube. ">
<polygon fill="white" stroke="black" points="633,-235.5 633,-256.5 673,-256.5 673,-235.5 633,-235.5"/>
<text text-anchor="middle" x="653" y="-243.5" font-family="Helvetica,sans-Serif" font-size="10.00">Cube</text>
</a>
</g>
<!-- Node5&#45;&gt;Node6 -->
<g id="edge10" class="edge"><title>Node5&#45;&gt;Node6</title>
<path fill="none" stroke="midnightblue" d="M586.801,-246C603.366,-246 620.176,-246 632.712,-246"/>
<polygon fill="midnightblue" stroke="midnightblue" points="586.559,-242.5 576.559,-246 586.559,-249.5 586.559,-242.5"/>
</g>
<!-- Node8 -->
<g id="node15" class="node"><title>Node8</title>
<a xlink:href="class_line.html" target="_top" xlink:title="Line">
<polygon fill="white" stroke="black" points="635.5,-295.5 635.5,-316.5 670.5,-316.5 670.5,-295.5 635.5,-295.5"/>
<text text-anchor="middle" x="653" y="-303.5" font-family="Helvetica,sans-Serif" font-size="10.00">Line</text>
</a>
</g>
<!-- Node7&#45;&gt;Node8 -->
<g id="edge14" class="edge"><title>Node7&#45;&gt;Node8</title>
<path fill="none" stroke="midnightblue" d="M583.896,-306C602.531,-306 621.815,-306 635.261,-306"/>
<polygon fill="midnightblue" stroke="midnightblue" points="583.651,-302.5 573.651,-306 583.651,-309.5 583.651,-302.5"/>
</g>
<!-- Node10 -->
<g id="node19" class="node"><title>Node10</title>
<a xlink:href="class_rect.html" target="_top" xlink:title="Rect">
<polygon fill="white" stroke="black" points="634,-345.5 634,-366.5 672,-366.5 672,-345.5 634,-345.5"/>
<text text-anchor="middle" x="653" y="-353.5" font-family="Helvetica,sans-Serif" font-size="10.00">Rect</text>
</a>
</g>
<!-- Node9&#45;&gt;Node10 -->
<g id="edge18" class="edge"><title>Node9&#45;&gt;Node10</title>
<path fill="none" stroke="midnightblue" d="M585.332,-356C602.861,-356 620.814,-356 633.82,-356"/>
<polygon fill="midnightblue" stroke="midnightblue" points="585.102,-352.5 575.102,-356 585.101,-359.5 585.102,-352.5"/>
</g>
<!-- Node12 -->
<g id="node23" class="node"><title>Node12</title>
<a xlink:href="class_sphere.html" target="_top" xlink:title="Une simple sphere. ">
<polygon fill="white" stroke="black" points="629.5,-0.5 629.5,-21.5 676.5,-21.5 676.5,-0.5 629.5,-0.5"/>
<text text-anchor="middle" x="653" y="-8.5" font-family="Helvetica,sans-Serif" font-size="10.00">Sphere</text>
</a>
</g>
<!-- Node11&#45;&gt;Node12 -->
<g id="edge22" class="edge"><title>Node11&#45;&gt;Node12</title>
<path fill="none" stroke="midnightblue" d="M590.329,-11C604.24,-11 618.098,-11 629.232,-11"/>
<polygon fill="midnightblue" stroke="midnightblue" points="590.228,-7.5001 580.228,-11 590.228,-14.5001 590.228,-7.5001"/>
</g>
<!-- Node14 -->
<g id="node27" class="node"><title>Node14</title>
<a xlink:href="class_cylinder.html" target="_top" xlink:title="Cylinder">
<polygon fill="white" stroke="black" points="626.5,-175.5 626.5,-196.5 679.5,-196.5 679.5,-175.5 626.5,-175.5"/>
<text text-anchor="middle" x="653" y="-183.5" font-family="Helvetica,sans-Serif" font-size="10.00">Cylinder</text>
</a>
</g>
<!-- Node13&#45;&gt;Node14 -->
<g id="edge26" class="edge"><title>Node13&#45;&gt;Node14</title>
<path fill="none" stroke="midnightblue" d="M592.819,-186C604.731,-186 616.487,-186 626.403,-186"/>
<polygon fill="midnightblue" stroke="midnightblue" points="592.814,-182.5 582.814,-186 592.814,-189.5 592.814,-182.5"/>
</g>
<!-- Node16 -->
<g id="node31" class="node"><title>Node16</title>
<a xlink:href="class_pyramide.html" target="_top" xlink:title="Pyramide">
<polygon fill="white" stroke="black" points="624,-50.5 624,-71.5 682,-71.5 682,-50.5 624,-50.5"/>
<text text-anchor="middle" x="653" y="-58.5" font-family="Helvetica,sans-Serif" font-size="10.00">Pyramide</text>
</a>
</g>
<!-- Node15&#45;&gt;Node16 -->
<g id="edge30" class="edge"><title>Node15&#45;&gt;Node16</title>
<path fill="none" stroke="midnightblue" d="M596.035,-61C605.84,-61 615.435,-61 623.871,-61"/>
<polygon fill="midnightblue" stroke="midnightblue" points="595.781,-57.5001 585.781,-61 595.781,-64.5001 595.781,-57.5001"/>
</g>
<!-- Node18 -->
<g id="node35" class="node"><title>Node18</title>
<a xlink:href="class_trigger.html" target="_top" xlink:title="Trigger">
<polygon fill="white" stroke="black" points="629.5,-112.5 629.5,-133.5 676.5,-133.5 676.5,-112.5 629.5,-112.5"/>
<text text-anchor="middle" x="653" y="-120.5" font-family="Helvetica,sans-Serif" font-size="10.00">Trigger</text>
</a>
</g>
<!-- Node17&#45;&gt;Node18 -->
<g id="edge34" class="edge"><title>Node17&#45;&gt;Node18</title>
<path fill="none" stroke="midnightblue" d="M590.073,-123C604.144,-123 618.178,-123 629.41,-123"/>
<polygon fill="midnightblue" stroke="midnightblue" points="589.859,-119.5 579.859,-123 589.859,-126.5 589.859,-119.5"/>
</g>
</g>
</svg>
        <g id="navigator" transform="translate(0 0)" fill="#404254">
                <rect fill="#f2f5e9" fill-opacity="0.5" stroke="#606060" stroke-width=".5" x="0" y="0" width="60" height="60"/>
                <use id="zoomplus" xlink:href="#zoomPlus" x="17" y="9" onmousedown="handleZoom(evt,'in')"/>
                <use id="zoomminus" xlink:href="#zoomMin" x="42" y="9" onmousedown="handleZoom(evt,'out')"/>
                <use id="reset" xlink:href="#resetDef" x="30" y="36" onmousedown="handleReset()"/>
                <g id="arrowUp" xlink:href="#dirArrow" transform="translate(30 24)" onmousedown="handlePan(0,-1)">
                  <use xlink:href="#rim" fill="#404040">
                        <set attributeName="fill" to="#808080" begin="arrowUp.mouseover" end="arrowUp.mouseout"/>
                  </use>
                  <path fill="none" stroke="white" stroke-width="1.5" d="M0,-3.0v7 M-2.5,-0.5L0,-3.0L2.5,-0.5"/>
                </g>
                <g id="arrowRight" xlink:href="#dirArrow" transform="rotate(90) translate(36 -43)" onmousedown="handlePan(1,0)">
                  <use xlink:href="#rim" fill="#404040">
                        <set attributeName="fill" to="#808080" begin="arrowRight.mouseover" end="arrowRight.mouseout"/>
                  </use>
                  <path fill="none" stroke="white" stroke-width="1.5" d="M0,-3.0v7 M-2.5,-0.5L0,-3.0L2.5,-0.5"/>
                </g>
                <g id="arrowDown" xlink:href="#dirArrow" transform="rotate(180) translate(-30 -48)" onmousedown="handlePan(0,1)">
                  <use xlink:href="#rim" fill="#404040">
                        <set attributeName="fill" to="#808080" begin="arrowDown.mouseover" end="arrowDown.mouseout"/>
                  </use>
                  <path fill="none" stroke="white" stroke-width="1.5" d="M0,-3.0v7 M-2.5,-0.5L0,-3.0L2.5,-0.5"/>
                </g>
                <g id="arrowLeft" xlink:href="#dirArrow" transform="rotate(270) translate(-36 17)" onmousedown="handlePan(-1,0)">
                  <use xlink:href="#rim" fill="#404040">
                        <set attributeName="fill" to="#808080" begin="arrowLeft.mouseover" end="arrowLeft.mouseout"/>
                  </use>
                  <path fill="none" stroke="white" stroke-width="1.5" d="M0,-3.0v7 M-2.5,-0.5L0,-3.0L2.5,-0.5"/>
                </g>
        </g>
        <svg viewBox="0 0 15 15" width="100%" height="30px" preserveAspectRatio="xMaxYMin meet">
         <g id="arrow_out" transform="scale(0.3 0.3)">
          <a xlink:href="class_geo_base__inherit__graph_org.svg" target="_base">
           <rect id="button" ry="5" rx="5" y="6" x="6" height="38" width="38"
                fill="#f2f5e9" fill-opacity="0.5" stroke="#606060" stroke-width="1.0"/>
           <path id="arrow"
             d="M 11.500037,31.436501 C 11.940474,20.09759 22.043105,11.32322 32.158766,21.979434 L 37.068811,17.246167 C 37.068811,17.246167 37.088388,32 37.088388,32 L 22.160133,31.978069 C 22.160133,31.978069 26.997745,27.140456 26.997745,27.140456 C 18.528582,18.264221 13.291696,25.230495 11.500037,31.436501 z"
             style="fill:#404040;"/>
          </a>
         </g>
        </svg>
</svg>
