<?xml version="1.0" encoding="UTF-8" standalone="no"?>
<!DOCTYPE svg PUBLIC "-//W3C//DTD SVG 1.1//EN"
 "http://www.w3.org/Graphics/SVG/1.1/DTD/svg11.dtd">
<!-- Generated by graphviz version 2.26.3 (20100126.1600)
 -->
<!-- Title: Geometry&lt; Child &gt; Pages: 1 -->
<svg width="234pt" height="342pt"
 viewBox="0.00 0.00 234.00 342.00" xmlns="http://www.w3.org/2000/svg" xmlns:xlink="http://www.w3.org/1999/xlink">
<g id="graph1" class="graph" transform="scale(1 1) rotate(0) translate(4 338)">
<title>Geometry&lt; Child &gt;</title>
<polygon fill="white" stroke="white" points="-4,5 -4,-338 231,-338 231,5 -4,5"/>
<!-- Node1 -->
<g id="node1" class="node"><title>Node1</title>
<polygon fill="#bfbfbf" stroke="black" points="47,-132.5 47,-153.5 147,-153.5 147,-132.5 47,-132.5"/>
<text text-anchor="middle" x="97" y="-140.5" font-family="Helvetica,sans-Serif" font-size="10.00">Geometry&lt; Child &gt;</text>
</g>
<!-- Node5 -->
<g id="node9" class="node"><title>Node5</title>
<a xlink:href="class_geometry.html" target="_top" xlink:title="Geometry\&lt; Cube \&gt;">
<polygon fill="white" stroke="black" points="-0.5,-60.5 -0.5,-81.5 100.5,-81.5 100.5,-60.5 -0.5,-60.5"/>
<text text-anchor="middle" x="50" y="-68.5" font-family="Helvetica,sans-Serif" font-size="10.00">Geometry&lt; Cube &gt;</text>
</a>
</g>
<!-- Node1&#45;&gt;Node5 -->
<g id="edge8" class="edge"><title>Node1&#45;&gt;Node5</title>
<path fill="none" stroke="orange" stroke-dasharray="5,2" d="M84.4731,-123.81C75.6611,-110.311 64.1946,-92.7449 56.9635,-81.6674"/>
<polygon fill="orange" stroke="orange" points="81.6679,-125.916 90.065,-132.376 87.5296,-122.089 81.6679,-125.916"/>
<text text-anchor="middle" x="100.5" y="-104.5" font-family="Helvetica,sans-Serif" font-size="10.00"> &lt; Cube &gt;</text>
</g>
<!-- Node7 -->
<g id="node13" class="node"><title>Node7</title>
<a xlink:href="class_geometry.html" target="_top" xlink:title="Geometry\&lt; Sphere \&gt;">
<polygon fill="white" stroke="black" points="118,-60.5 118,-81.5 226,-81.5 226,-60.5 118,-60.5"/>
<text text-anchor="middle" x="172" y="-68.5" font-family="Helvetica,sans-Serif" font-size="10.00">Geometry&lt; Sphere &gt;</text>
</a>
</g>
<!-- Node1&#45;&gt;Node7 -->
<g id="edge12" class="edge"><title>Node1&#45;&gt;Node7</title>
<path fill="none" stroke="orange" stroke-dasharray="5,2" d="M115.387,-125.349C129.634,-111.671 148.905,-93.1709 160.888,-81.6674"/>
<polygon fill="orange" stroke="orange" points="112.857,-122.926 108.067,-132.376 117.704,-127.976 112.857,-122.926"/>
<text text-anchor="middle" x="167" y="-104.5" font-family="Helvetica,sans-Serif" font-size="10.00"> &lt; Sphere &gt;</text>
</g>
<!-- Node2 -->
<g id="node2" class="node"><title>Node2</title>
<a xlink:href="class_geo_base.html" target="_top" xlink:title="Base pour la classe Geometry. ">
<polygon fill="white" stroke="black" points="68.5,-192.5 68.5,-213.5 125.5,-213.5 125.5,-192.5 68.5,-192.5"/>
<text text-anchor="middle" x="97" y="-200.5" font-family="Helvetica,sans-Serif" font-size="10.00">GeoBase</text>
</a>
</g>
<!-- Node2&#45;&gt;Node1 -->
<g id="edge2" class="edge"><title>Node2&#45;&gt;Node1</title>
<path fill="none" stroke="midnightblue" d="M97,-182.231C97,-172.592 97,-161.544 97,-153.634"/>
<polygon fill="midnightblue" stroke="midnightblue" points="93.5001,-182.273 97,-192.273 100.5,-182.273 93.5001,-182.273"/>
</g>
<!-- Node3 -->
<g id="node4" class="node"><title>Node3</title>
<a xlink:href="class_actor.html" target="_top" xlink:title="Base de tous les objets de la scène. ">
<polygon fill="white" stroke="black" points="77,-252.5 77,-273.5 117,-273.5 117,-252.5 77,-252.5"/>
<text text-anchor="middle" x="97" y="-260.5" font-family="Helvetica,sans-Serif" font-size="10.00">Actor</text>
</a>
</g>
<!-- Node3&#45;&gt;Node2 -->
<g id="edge4" class="edge"><title>Node3&#45;&gt;Node2</title>
<path fill="none" stroke="midnightblue" d="M97,-242.231C97,-232.592 97,-221.544 97,-213.634"/>
<polygon fill="midnightblue" stroke="midnightblue" points="93.5001,-242.273 97,-252.273 100.5,-242.273 93.5001,-242.273"/>
</g>
<!-- Node4 -->
<g id="node6" class="node"><title>Node4</title>
<a xlink:href="class_q_object.html" target="_top" xlink:title="QObject">
<polygon fill="white" stroke="black" points="70.5,-312.5 70.5,-333.5 123.5,-333.5 123.5,-312.5 70.5,-312.5"/>
<text text-anchor="middle" x="97" y="-320.5" font-family="Helvetica,sans-Serif" font-size="10.00">QObject</text>
</a>
</g>
<!-- Node4&#45;&gt;Node3 -->
<g id="edge6" class="edge"><title>Node4&#45;&gt;Node3</title>
<path fill="none" stroke="midnightblue" d="M97,-302.231C97,-292.592 97,-281.544 97,-273.634"/>
<polygon fill="midnightblue" stroke="midnightblue" points="93.5001,-302.273 97,-312.273 100.5,-302.273 93.5001,-302.273"/>
</g>
<!-- Node6 -->
<g id="node11" class="node"><title>Node6</title>
<a xlink:href="class_cube.html" target="_top" xlink:title="Un simple cube. ">
<polygon fill="white" stroke="black" points="30,-0.5 30,-21.5 70,-21.5 70,-0.5 30,-0.5"/>
<text text-anchor="middle" x="50" y="-8.5" font-family="Helvetica,sans-Serif" font-size="10.00">Cube</text>
</a>
</g>
<!-- Node5&#45;&gt;Node6 -->
<g id="edge10" class="edge"><title>Node5&#45;&gt;Node6</title>
<path fill="none" stroke="midnightblue" d="M50,-50.2312C50,-40.5922 50,-29.5444 50,-21.6339"/>
<polygon fill="midnightblue" stroke="midnightblue" points="46.5001,-50.2732 50,-60.2732 53.5001,-50.2732 46.5001,-50.2732"/>
</g>
<!-- Node8 -->
<g id="node15" class="node"><title>Node8</title>
<a xlink:href="class_sphere.html" target="_top" xlink:title="Une simple sphere. ">
<polygon fill="white" stroke="black" points="148.5,-0.5 148.5,-21.5 195.5,-21.5 195.5,-0.5 148.5,-0.5"/>
<text text-anchor="middle" x="172" y="-8.5" font-family="Helvetica,sans-Serif" font-size="10.00">Sphere</text>
</a>
</g>
<!-- Node7&#45;&gt;Node8 -->
<g id="edge14" class="edge"><title>Node7&#45;&gt;Node8</title>
<path fill="none" stroke="midnightblue" d="M172,-50.2312C172,-40.5922 172,-29.5444 172,-21.6339"/>
<polygon fill="midnightblue" stroke="midnightblue" points="168.5,-50.2732 172,-60.2732 175.5,-50.2732 168.5,-50.2732"/>
</g>
</g>
</svg>
