<?xml version="1.0" encoding="UTF-8" standalone="no"?>
<!DOCTYPE svg PUBLIC "-//W3C//DTD SVG 1.1//EN"
 "http://www.w3.org/Graphics/SVG/1.1/DTD/svg11.dtd">
<!-- Generated by graphviz version 2.26.3 (20100126.1600)
 -->
<!-- Title: Cube Pages: 1 -->
<svg width="159pt" height="342pt"
 viewBox="0.00 0.00 159.00 342.00" xmlns="http://www.w3.org/2000/svg" xmlns:xlink="http://www.w3.org/1999/xlink">
<g id="graph1" class="graph" transform="scale(1 1) rotate(0) translate(4 338)">
<title>Cube</title>
<polygon fill="white" stroke="white" points="-4,5 -4,-338 156,-338 156,5 -4,5"/>
<!-- Node1 -->
<g id="node1" class="node"><title>Node1</title>
<polygon fill="#bfbfbf" stroke="black" points="30,-0.5 30,-21.5 70,-21.5 70,-0.5 30,-0.5"/>
<text text-anchor="middle" x="50" y="-8.5" font-family="Helvetica,sans-Serif" font-size="10.00">Cube</text>
</g>
<!-- Node2 -->
<g id="node2" class="node"><title>Node2</title>
<a xlink:href="class_geometry.html" target="_top" xlink:title="Geometry\&lt; Cube \&gt;">
<polygon fill="white" stroke="black" points="-0.5,-60.5 -0.5,-81.5 100.5,-81.5 100.5,-60.5 -0.5,-60.5"/>
<text text-anchor="middle" x="50" y="-68.5" font-family="Helvetica,sans-Serif" font-size="10.00">Geometry&lt; Cube &gt;</text>
</a>
</g>
<!-- Node2&#45;&gt;Node1 -->
<g id="edge2" class="edge"><title>Node2&#45;&gt;Node1</title>
<path fill="none" stroke="midnightblue" d="M50,-50.2312C50,-40.5922 50,-29.5444 50,-21.6339"/>
<polygon fill="midnightblue" stroke="midnightblue" points="46.5001,-50.2732 50,-60.2732 53.5001,-50.2732 46.5001,-50.2732"/>
</g>
<!-- Node3 -->
<g id="node4" class="node"><title>Node3</title>
<a xlink:href="class_geo_base.html" target="_top" xlink:title="Base pour la classe Geometry. ">
<polygon fill="white" stroke="black" points="6.5,-192.5 6.5,-213.5 63.5,-213.5 63.5,-192.5 6.5,-192.5"/>
<text text-anchor="middle" x="35" y="-200.5" font-family="Helvetica,sans-Serif" font-size="10.00">GeoBase</text>
</a>
</g>
<!-- Node3&#45;&gt;Node2 -->
<g id="edge4" class="edge"><title>Node3&#45;&gt;Node2</title>
<path fill="none" stroke="midnightblue" d="M36.8679,-182.258C38.1873,-168.09 40.0598,-148.895 42,-132 44.0229,-114.385 46.7861,-93.966 48.479,-81.7857"/>
<polygon fill="midnightblue" stroke="midnightblue" points="33.3655,-182.125 35.9377,-192.403 40.3362,-182.765 33.3655,-182.125"/>
</g>
<!-- Node6 -->
<g id="node10" class="node"><title>Node6</title>
<a xlink:href="class_geometry.html" target="_top" xlink:title="Base de toutes les géometries. ">
<polygon fill="white" stroke="black" points="51,-132.5 51,-153.5 151,-153.5 151,-132.5 51,-132.5"/>
<text text-anchor="middle" x="101" y="-140.5" font-family="Helvetica,sans-Serif" font-size="10.00">Geometry&lt; Child &gt;</text>
</a>
</g>
<!-- Node3&#45;&gt;Node6 -->
<g id="edge12" class="edge"><title>Node3&#45;&gt;Node6</title>
<path fill="none" stroke="midnightblue" d="M54.4853,-185.286C65.7953,-175.004 79.6655,-162.395 89.3027,-153.634"/>
<polygon fill="midnightblue" stroke="midnightblue" points="51.8445,-182.957 46.7995,-192.273 56.5533,-188.136 51.8445,-182.957"/>
</g>
<!-- Node4 -->
<g id="node6" class="node"><title>Node4</title>
<a xlink:href="class_actor.html" target="_top" xlink:title="Base de tous les objets de la scène. ">
<polygon fill="white" stroke="black" points="15,-252.5 15,-273.5 55,-273.5 55,-252.5 15,-252.5"/>
<text text-anchor="middle" x="35" y="-260.5" font-family="Helvetica,sans-Serif" font-size="10.00">Actor</text>
</a>
</g>
<!-- Node4&#45;&gt;Node3 -->
<g id="edge6" class="edge"><title>Node4&#45;&gt;Node3</title>
<path fill="none" stroke="midnightblue" d="M35,-242.231C35,-232.592 35,-221.544 35,-213.634"/>
<polygon fill="midnightblue" stroke="midnightblue" points="31.5001,-242.273 35,-252.273 38.5001,-242.273 31.5001,-242.273"/>
</g>
<!-- Node5 -->
<g id="node8" class="node"><title>Node5</title>
<a xlink:href="class_q_object.html" target="_top" xlink:title="QObject">
<polygon fill="white" stroke="black" points="8.5,-312.5 8.5,-333.5 61.5,-333.5 61.5,-312.5 8.5,-312.5"/>
<text text-anchor="middle" x="35" y="-320.5" font-family="Helvetica,sans-Serif" font-size="10.00">QObject</text>
</a>
</g>
<!-- Node5&#45;&gt;Node4 -->
<g id="edge8" class="edge"><title>Node5&#45;&gt;Node4</title>
<path fill="none" stroke="midnightblue" d="M35,-302.231C35,-292.592 35,-281.544 35,-273.634"/>
<polygon fill="midnightblue" stroke="midnightblue" points="31.5001,-302.273 35,-312.273 38.5001,-302.273 31.5001,-302.273"/>
</g>
<!-- Node6&#45;&gt;Node2 -->
<g id="edge10" class="edge"><title>Node6&#45;&gt;Node2</title>
<path fill="none" stroke="orange" stroke-dasharray="5,2" d="M87.682,-124.198C78.0847,-110.649 65.4781,-92.8514 57.5561,-81.6674"/>
<polygon fill="orange" stroke="orange" points="84.8385,-126.239 93.4748,-132.376 90.5507,-122.193 84.8385,-126.239"/>
<text text-anchor="middle" x="102.5" y="-104.5" font-family="Helvetica,sans-Serif" font-size="10.00"> &lt; Cube &gt;</text>
</g>
</g>
</svg>
