<?xml version="1.0" encoding="UTF-8" standalone="no"?>
<!DOCTYPE svg PUBLIC "-//W3C//DTD SVG 1.1//EN"
 "http://www.w3.org/Graphics/SVG/1.1/DTD/svg11.dtd">
<!-- Generated by graphviz version 2.26.3 (20100126.1600)
 -->
<!-- Title: Viewport::catchErrors Pages: 1 -->
<svg width="404pt" height="188pt"
 viewBox="0.00 0.00 404.00 188.00" xmlns="http://www.w3.org/2000/svg" xmlns:xlink="http://www.w3.org/1999/xlink">
<g id="graph1" class="graph" transform="scale(1 1) rotate(0) translate(4 184)">
<title>Viewport::catchErrors</title>
<polygon fill="white" stroke="white" points="-4,5 -4,-184 401,-184 401,5 -4,5"/>
<!-- Node1 -->
<g id="node1" class="node"><title>Node1</title>
<polygon fill="#bfbfbf" stroke="black" points="0.5,-79.5 0.5,-100.5 111.5,-100.5 111.5,-79.5 0.5,-79.5"/>
<text text-anchor="middle" x="56" y="-87.5" font-family="Helvetica,sans-Serif" font-size="10.00">Viewport::catchErrors</text>
</g>
<!-- Node2 -->
<g id="node3" class="node"><title>Node2</title>
<a xlink:href="class_viewport.html#a747eb6bce25dd9d205f3e5b99817d5cd" target="_top" xlink:title="Viewport::initializeGL">
<polygon fill="white" stroke="black" points="151.5,-158.5 151.5,-179.5 260.5,-179.5 260.5,-158.5 151.5,-158.5"/>
<text text-anchor="middle" x="206" y="-166.5" font-family="Helvetica,sans-Serif" font-size="10.00">Viewport::initializeGL</text>
</a>
</g>
<!-- Node1&#45;&gt;Node2 -->
<g id="edge2" class="edge"><title>Node1&#45;&gt;Node2</title>
<path fill="none" stroke="midnightblue" d="M78.1983,-106.378C96.3063,-119.201 122.906,-136.843 148,-149 155.285,-152.529 163.356,-155.726 171.105,-158.476"/>
<polygon fill="midnightblue" stroke="midnightblue" points="80.1989,-103.506 70.0348,-100.515 76.1155,-109.191 80.1989,-103.506"/>
</g>
<!-- Node3 -->
<g id="node5" class="node"><title>Node3</title>
<a xlink:href="class_viewport.html#ae95938dedc43d6b36f2b85d4a226ffa1" target="_top" xlink:title="Viewport::renderLight">
<polygon fill="white" stroke="black" points="151.5,-118.5 151.5,-139.5 260.5,-139.5 260.5,-118.5 151.5,-118.5"/>
<text text-anchor="middle" x="206" y="-126.5" font-family="Helvetica,sans-Serif" font-size="10.00">Viewport::renderLight</text>
</a>
</g>
<!-- Node1&#45;&gt;Node3 -->
<g id="edge4" class="edge"><title>Node1&#45;&gt;Node3</title>
<path fill="none" stroke="midnightblue" d="M106.38,-103.099C125.577,-108.09 147.196,-113.711 165.375,-118.438"/>
<polygon fill="midnightblue" stroke="midnightblue" points="107.151,-99.683 96.5922,-100.554 105.39,-106.458 107.151,-99.683"/>
</g>
<!-- Node4 -->
<g id="node7" class="node"><title>Node4</title>
<a xlink:href="class_viewport.html#a3c2c4661eac1f6351392b8fe133423f5" target="_top" xlink:title="Viewport::paintGL">
<polygon fill="white" stroke="black" points="300.5,-79.5 300.5,-100.5 395.5,-100.5 395.5,-79.5 300.5,-79.5"/>
<text text-anchor="middle" x="348" y="-87.5" font-family="Helvetica,sans-Serif" font-size="10.00">Viewport::paintGL</text>
</a>
</g>
<!-- Node1&#45;&gt;Node4 -->
<g id="edge12" class="edge"><title>Node1&#45;&gt;Node4</title>
<path fill="none" stroke="midnightblue" d="M121.822,-90C176.083,-90 251.762,-90 300.326,-90"/>
<polygon fill="midnightblue" stroke="midnightblue" points="121.61,-86.5001 111.61,-90 121.61,-93.5001 121.61,-86.5001"/>
</g>
<!-- Node5 -->
<g id="node9" class="node"><title>Node5</title>
<a xlink:href="class_viewport.html#ad0317022a7a6399ee47c199bb9348efc" target="_top" xlink:title="Viewport::renderScene">
<polygon fill="white" stroke="black" points="148,-40.5 148,-61.5 264,-61.5 264,-40.5 148,-40.5"/>
<text text-anchor="middle" x="206" y="-48.5" font-family="Helvetica,sans-Serif" font-size="10.00">Viewport::renderScene</text>
</a>
</g>
<!-- Node1&#45;&gt;Node5 -->
<g id="edge8" class="edge"><title>Node1&#45;&gt;Node5</title>
<path fill="none" stroke="midnightblue" d="M106.38,-76.9013C125.577,-71.9099 147.196,-66.2891 165.375,-61.5624"/>
<polygon fill="midnightblue" stroke="midnightblue" points="105.39,-73.5422 96.5922,-79.446 107.151,-80.317 105.39,-73.5422"/>
</g>
<!-- Node6 -->
<g id="node13" class="node"><title>Node6</title>
<a xlink:href="class_viewport.html#a94dcf877f22c2977a58cd6789144d3ae" target="_top" xlink:title="Viewport::resizeGL">
<polygon fill="white" stroke="black" points="156,-0.5 156,-21.5 256,-21.5 256,-0.5 156,-0.5"/>
<text text-anchor="middle" x="206" y="-8.5" font-family="Helvetica,sans-Serif" font-size="10.00">Viewport::resizeGL</text>
</a>
</g>
<!-- Node1&#45;&gt;Node6 -->
<g id="edge14" class="edge"><title>Node1&#45;&gt;Node6</title>
<path fill="none" stroke="midnightblue" d="M78.1983,-73.6219C96.3063,-60.7986 122.906,-43.1573 148,-31 155.285,-27.4706 163.356,-24.2741 171.105,-21.5239"/>
<polygon fill="midnightblue" stroke="midnightblue" points="76.1155,-70.8086 70.0348,-79.4848 80.1989,-76.4942 76.1155,-70.8086"/>
</g>
<!-- Node3&#45;&gt;Node4 -->
<g id="edge6" class="edge"><title>Node3&#45;&gt;Node4</title>
<path fill="none" stroke="midnightblue" d="M254.193,-115.764C272.242,-110.807 292.49,-105.246 309.542,-100.562"/>
<polygon fill="midnightblue" stroke="midnightblue" points="253.143,-112.423 244.427,-118.446 254.997,-119.173 253.143,-112.423"/>
</g>
<!-- Node5&#45;&gt;Node4 -->
<g id="edge10" class="edge"><title>Node5&#45;&gt;Node4</title>
<path fill="none" stroke="midnightblue" d="M254.193,-64.2362C272.242,-69.1931 292.49,-74.7542 309.542,-79.4376"/>
<polygon fill="midnightblue" stroke="midnightblue" points="254.997,-60.8274 244.427,-61.554 253.143,-67.5775 254.997,-60.8274"/>
</g>
</g>
</svg>
