<?xml version="1.0" encoding="UTF-8" standalone="no"?>
<!DOCTYPE svg PUBLIC "-//W3C//DTD SVG 1.1//EN"
 "http://www.w3.org/Graphics/SVG/1.1/DTD/svg11.dtd">
<!-- Generated by graphviz version 2.26.3 (20100126.1600)
 -->
<!-- Title: GeoBase::colors Pages: 1 -->
<svg width="352pt" height="282pt"
 viewBox="0.00 0.00 352.00 282.00" xmlns="http://www.w3.org/2000/svg" xmlns:xlink="http://www.w3.org/1999/xlink">
<g id="graph1" class="graph" transform="scale(1 1) rotate(0) translate(4 278)">
<title>GeoBase::colors</title>
<polygon fill="white" stroke="white" points="-4,5 -4,-278 349,-278 349,5 -4,5"/>
<!-- Node1 -->
<g id="node1" class="node"><title>Node1</title>
<polygon fill="#bfbfbf" stroke="black" points="0.5,-120.5 0.5,-141.5 89.5,-141.5 89.5,-120.5 0.5,-120.5"/>
<text text-anchor="middle" x="45" y="-128.5" font-family="Helvetica,sans-Serif" font-size="10.00">GeoBase::colors</text>
</g>
<!-- Node2 -->
<g id="node3" class="node"><title>Node2</title>
<a xlink:href="class_geometry.html#a7cb8ea5e505f3933367d7ff9c6439985" target="_top" xlink:title="Geometry\&lt; Trigger \&gt;\l::draw">
<polygon fill="white" stroke="black" points="126.5,-240 126.5,-274 233.5,-274 233.5,-240 126.5,-240"/>
<text text-anchor="start" x="134.5" y="-261" font-family="Helvetica,sans-Serif" font-size="10.00">Geometry&lt; Trigger &gt;</text>
<text text-anchor="middle" x="180" y="-248" font-family="Helvetica,sans-Serif" font-size="10.00">::draw</text>
</a>
</g>
<!-- Node1&#45;&gt;Node2 -->
<g id="edge2" class="edge"><title>Node1&#45;&gt;Node2</title>
<path fill="none" stroke="midnightblue" d="M56.8896,-150.363C71.1088,-172.241 96.6961,-207.815 126,-231 130.08,-234.228 134.626,-237.187 139.301,-239.859"/>
<polygon fill="midnightblue" stroke="midnightblue" points="59.663,-148.201 51.3487,-141.634 53.7532,-151.953 59.663,-148.201"/>
</g>
<!-- Node4 -->
<g id="node7" class="node"><title>Node4</title>
<a xlink:href="class_cube.html#a6eceaa075072d4d0396b6bd85872d62b" target="_top" xlink:title="Cube::Cube">
<polygon fill="white" stroke="black" points="145.5,-200.5 145.5,-221.5 214.5,-221.5 214.5,-200.5 145.5,-200.5"/>
<text text-anchor="middle" x="180" y="-208.5" font-family="Helvetica,sans-Serif" font-size="10.00">Cube::Cube</text>
</a>
</g>
<!-- Node1&#45;&gt;Node4 -->
<g id="edge6" class="edge"><title>Node1&#45;&gt;Node4</title>
<path fill="none" stroke="midnightblue" d="M64.8519,-148.212C80.6221,-161.246 103.665,-178.91 126,-191 132.594,-194.569 139.959,-197.764 147.078,-200.497"/>
<polygon fill="midnightblue" stroke="midnightblue" points="66.7947,-145.273 56.8895,-141.512 62.2879,-150.629 66.7947,-145.273"/>
</g>
<!-- Node5 -->
<g id="node9" class="node"><title>Node5</title>
<a xlink:href="class_cylinder.html#a1eb1ba8fde3ed150e1a9494865a23bc1" target="_top" xlink:title="Cylinder::Cylinder">
<polygon fill="white" stroke="black" points="132.5,-160.5 132.5,-181.5 227.5,-181.5 227.5,-160.5 132.5,-160.5"/>
<text text-anchor="middle" x="180" y="-168.5" font-family="Helvetica,sans-Serif" font-size="10.00">Cylinder::Cylinder</text>
</a>
</g>
<!-- Node1&#45;&gt;Node5 -->
<g id="edge8" class="edge"><title>Node1&#45;&gt;Node5</title>
<path fill="none" stroke="midnightblue" d="M90.4996,-144.481C108.042,-149.679 127.811,-155.537 144.299,-160.422"/>
<polygon fill="midnightblue" stroke="midnightblue" points="91.052,-140.995 80.4697,-141.51 89.0633,-147.706 91.052,-140.995"/>
</g>
<!-- Node6 -->
<g id="node11" class="node"><title>Node6</title>
<a xlink:href="class_line.html#a7a071c7cde9102435f12791cdb8f44a7" target="_top" xlink:title="Line::Line">
<polygon fill="white" stroke="black" points="150.5,-120.5 150.5,-141.5 209.5,-141.5 209.5,-120.5 150.5,-120.5"/>
<text text-anchor="middle" x="180" y="-128.5" font-family="Helvetica,sans-Serif" font-size="10.00">Line::Line</text>
</a>
</g>
<!-- Node1&#45;&gt;Node6 -->
<g id="edge10" class="edge"><title>Node1&#45;&gt;Node6</title>
<path fill="none" stroke="midnightblue" d="M99.6153,-131C116.955,-131 135.474,-131 150.361,-131"/>
<polygon fill="midnightblue" stroke="midnightblue" points="99.5782,-127.5 89.5782,-131 99.5782,-134.5 99.5782,-127.5"/>
</g>
<!-- Node7 -->
<g id="node13" class="node"><title>Node7</title>
<a xlink:href="class_pyramide.html#aa0bf3bafc7861697f987ecf0443fb418" target="_top" xlink:title="Pyramide::Pyramide">
<polygon fill="white" stroke="black" points="127.5,-80.5 127.5,-101.5 232.5,-101.5 232.5,-80.5 127.5,-80.5"/>
<text text-anchor="middle" x="180" y="-88.5" font-family="Helvetica,sans-Serif" font-size="10.00">Pyramide::Pyramide</text>
</a>
</g>
<!-- Node1&#45;&gt;Node7 -->
<g id="edge12" class="edge"><title>Node1&#45;&gt;Node7</title>
<path fill="none" stroke="midnightblue" d="M90.4996,-117.519C108.042,-112.321 127.811,-106.463 144.299,-101.578"/>
<polygon fill="midnightblue" stroke="midnightblue" points="89.0633,-114.294 80.4697,-120.49 91.052,-121.005 89.0633,-114.294"/>
</g>
<!-- Node8 -->
<g id="node15" class="node"><title>Node8</title>
<a xlink:href="class_sphere.html#ad1e284dc3aef66be0a3962e82d3c9e60" target="_top" xlink:title="Sphere::Sphere">
<polygon fill="white" stroke="black" points="138,-40.5 138,-61.5 222,-61.5 222,-40.5 138,-40.5"/>
<text text-anchor="middle" x="180" y="-48.5" font-family="Helvetica,sans-Serif" font-size="10.00">Sphere::Sphere</text>
</a>
</g>
<!-- Node1&#45;&gt;Node8 -->
<g id="edge14" class="edge"><title>Node1&#45;&gt;Node8</title>
<path fill="none" stroke="midnightblue" d="M64.8519,-113.788C80.6221,-100.754 103.665,-83.0897 126,-71 132.594,-67.4308 139.959,-64.2363 147.078,-61.5033"/>
<polygon fill="midnightblue" stroke="midnightblue" points="62.2879,-111.371 56.8895,-120.488 66.7947,-116.727 62.2879,-111.371"/>
</g>
<!-- Node9 -->
<g id="node17" class="node"><title>Node9</title>
<a xlink:href="class_trigger.html#a2de1adfbfb4db8f7d1e1ec22cf4b6515" target="_top" xlink:title="Trigger::Trigger">
<polygon fill="white" stroke="black" points="138.5,-0.5 138.5,-21.5 221.5,-21.5 221.5,-0.5 138.5,-0.5"/>
<text text-anchor="middle" x="180" y="-8.5" font-family="Helvetica,sans-Serif" font-size="10.00">Trigger::Trigger</text>
</a>
</g>
<!-- Node1&#45;&gt;Node9 -->
<g id="edge16" class="edge"><title>Node1&#45;&gt;Node9</title>
<path fill="none" stroke="midnightblue" d="M56.1075,-111.779C69.8854,-89.487 95.3439,-52.9944 126,-31 131.199,-27.2702 137.173,-24.1552 143.21,-21.5809"/>
<polygon fill="midnightblue" stroke="midnightblue" points="53.0898,-110.005 50.9367,-120.379 59.089,-113.612 53.0898,-110.005"/>
</g>
<!-- Node3 -->
<g id="node5" class="node"><title>Node3</title>
<a xlink:href="class_trigger.html#ae3e4635086dd4d53bbdedd0b02525daa" target="_top" xlink:title="Trigger::draw">
<polygon fill="white" stroke="black" points="270,-246.5 270,-267.5 344,-267.5 344,-246.5 270,-246.5"/>
<text text-anchor="middle" x="307" y="-254.5" font-family="Helvetica,sans-Serif" font-size="10.00">Trigger::draw</text>
</a>
</g>
<!-- Node2&#45;&gt;Node3 -->
<g id="edge4" class="edge"><title>Node2&#45;&gt;Node3</title>
<path fill="none" stroke="midnightblue" d="M243.913,-257C252.846,-257 261.769,-257 269.973,-257"/>
<polygon fill="midnightblue" stroke="midnightblue" points="243.859,-253.5 233.859,-257 243.859,-260.5 243.859,-253.5"/>
</g>
</g>
</svg>
