<?xml version="1.0" encoding="UTF-8" standalone="no"?>
<!DOCTYPE svg PUBLIC "-//W3C//DTD SVG 1.1//EN"
 "http://www.w3.org/Graphics/SVG/1.1/DTD/svg11.dtd">
<!-- Generated by graphviz version 2.26.3 (20100126.1600)
 -->
<!-- Title: Actor::orientation Pages: 1 -->
<svg width="640pt" height="280pt"
 viewBox="0.00 0.00 640.00 280.00" xmlns="http://www.w3.org/2000/svg" xmlns:xlink="http://www.w3.org/1999/xlink">
<g id="graph1" class="graph" transform="scale(1 1) rotate(0) translate(4 276)">
<title>Actor::orientation</title>
<polygon fill="white" stroke="white" points="-4,5 -4,-276 637,-276 637,5 -4,5"/>
<!-- Node1 -->
<g id="node1" class="node"><title>Node1</title>
<polygon fill="#bfbfbf" stroke="black" points="0.5,-119.5 0.5,-140.5 91.5,-140.5 91.5,-119.5 0.5,-119.5"/>
<text text-anchor="middle" x="46" y="-127.5" font-family="Helvetica,sans-Serif" font-size="10.00">Actor::orientation</text>
</g>
<!-- Node2 -->
<g id="node3" class="node"><title>Node2</title>
<a xlink:href="class_actor.html#abbf942f60996c5df2a8c0a832bd91abc" target="_top" xlink:title="Actor::transform">
<polygon fill="white" stroke="black" points="128.5,-178.5 128.5,-199.5 215.5,-199.5 215.5,-178.5 128.5,-178.5"/>
<text text-anchor="middle" x="172" y="-186.5" font-family="Helvetica,sans-Serif" font-size="10.00">Actor::transform</text>
</a>
</g>
<!-- Node1&#45;&gt;Node2 -->
<g id="edge2" class="edge"><title>Node1&#45;&gt;Node2</title>
<path fill="none" stroke="midnightblue" d="M77.6004,-144.797C99.8914,-155.235 129.228,-168.972 149.244,-178.344"/>
<polygon fill="midnightblue" stroke="midnightblue" points="79.0668,-141.619 68.5263,-140.548 76.0983,-147.958 79.0668,-141.619"/>
</g>
<!-- Node7 -->
<g id="node13" class="node"><title>Node7</title>
<a xlink:href="class_light.html#a30538cefe47541035db096b75133442d" target="_top" xlink:title="Light::Light">
<polygon fill="white" stroke="black" points="549.5,-119.5 549.5,-140.5 614.5,-140.5 614.5,-119.5 549.5,-119.5"/>
<text text-anchor="middle" x="582" y="-127.5" font-family="Helvetica,sans-Serif" font-size="10.00">Light::Light</text>
</a>
</g>
<!-- Node1&#45;&gt;Node7 -->
<g id="edge12" class="edge"><title>Node1&#45;&gt;Node7</title>
<path fill="none" stroke="midnightblue" d="M101.724,-130C213.099,-130 460.131,-130 549.19,-130"/>
<polygon fill="midnightblue" stroke="midnightblue" points="101.699,-126.5 91.6991,-130 101.699,-133.5 101.699,-126.5"/>
</g>
<!-- Node8 -->
<g id="node15" class="node"><title>Node8</title>
<a xlink:href="class_light.html#ab689087cc07b95273f6daae900a42010" target="_top" xlink:title="Light::direction">
<polygon fill="white" stroke="black" points="132,-60.5 132,-81.5 212,-81.5 212,-60.5 132,-60.5"/>
<text text-anchor="middle" x="172" y="-68.5" font-family="Helvetica,sans-Serif" font-size="10.00">Light::direction</text>
</a>
</g>
<!-- Node1&#45;&gt;Node8 -->
<g id="edge14" class="edge"><title>Node1&#45;&gt;Node8</title>
<path fill="none" stroke="midnightblue" d="M77.6004,-115.203C99.8914,-104.765 129.228,-91.0279 149.244,-81.6556"/>
<polygon fill="midnightblue" stroke="midnightblue" points="76.0983,-112.042 68.5263,-119.452 79.0668,-118.381 76.0983,-112.042"/>
</g>
<!-- Node3 -->
<g id="node5" class="node"><title>Node3</title>
<a xlink:href="class_geometry.html#a7cb8ea5e505f3933367d7ff9c6439985" target="_top" xlink:title="Geometry\&lt; Trigger \&gt;\l::draw">
<polygon fill="white" stroke="black" points="254.5,-238 254.5,-272 361.5,-272 361.5,-238 254.5,-238"/>
<text text-anchor="start" x="262.5" y="-259" font-family="Helvetica,sans-Serif" font-size="10.00">Geometry&lt; Trigger &gt;</text>
<text text-anchor="middle" x="308" y="-246" font-family="Helvetica,sans-Serif" font-size="10.00">::draw</text>
</a>
</g>
<!-- Node2&#45;&gt;Node3 -->
<g id="edge4" class="edge"><title>Node2&#45;&gt;Node3</title>
<path fill="none" stroke="midnightblue" d="M201.931,-204.223C216.914,-211.778 235.362,-220.98 252,-229 258.083,-231.932 264.564,-234.996 270.878,-237.949"/>
<polygon fill="midnightblue" stroke="midnightblue" points="203.142,-200.913 192.638,-199.525 199.984,-207.16 203.142,-200.913"/>
</g>
<!-- Node5 -->
<g id="node9" class="node"><title>Node5</title>
<a xlink:href="class_group.html#af8d7df31c5fe4f8e22bd022c8735b6b2" target="_top" xlink:title="Group::draw">
<polygon fill="white" stroke="black" points="273,-198.5 273,-219.5 343,-219.5 343,-198.5 273,-198.5"/>
<text text-anchor="middle" x="308" y="-206.5" font-family="Helvetica,sans-Serif" font-size="10.00">Group::draw</text>
</a>
</g>
<!-- Node2&#45;&gt;Node5 -->
<g id="edge8" class="edge"><title>Node2&#45;&gt;Node5</title>
<path fill="none" stroke="midnightblue" d="M225.97,-196.937C241.766,-199.26 258.618,-201.738 272.913,-203.84"/>
<polygon fill="midnightblue" stroke="midnightblue" points="226.183,-193.43 215.78,-195.438 225.164,-200.356 226.183,-193.43"/>
</g>
<!-- Node6 -->
<g id="node11" class="node"><title>Node6</title>
<a xlink:href="class_line.html#a1a11432f5239ebf18316369a400a9893" target="_top" xlink:title="Line::transform">
<polygon fill="white" stroke="black" points="267,-158.5 267,-179.5 349,-179.5 349,-158.5 267,-158.5"/>
<text text-anchor="middle" x="308" y="-166.5" font-family="Helvetica,sans-Serif" font-size="10.00">Line::transform</text>
</a>
</g>
<!-- Node2&#45;&gt;Node6 -->
<g id="edge10" class="edge"><title>Node2&#45;&gt;Node6</title>
<path fill="none" stroke="midnightblue" d="M225.944,-181.067C239.482,-179.076 253.798,-176.971 266.616,-175.086"/>
<polygon fill="midnightblue" stroke="midnightblue" points="225.164,-177.644 215.78,-182.562 226.183,-184.57 225.164,-177.644"/>
</g>
<!-- Node4 -->
<g id="node7" class="node"><title>Node4</title>
<a xlink:href="class_trigger.html#ae3e4635086dd4d53bbdedd0b02525daa" target="_top" xlink:title="Trigger::draw">
<polygon fill="white" stroke="black" points="411,-244.5 411,-265.5 485,-265.5 485,-244.5 411,-244.5"/>
<text text-anchor="middle" x="448" y="-252.5" font-family="Helvetica,sans-Serif" font-size="10.00">Trigger::draw</text>
</a>
</g>
<!-- Node3&#45;&gt;Node4 -->
<g id="edge6" class="edge"><title>Node3&#45;&gt;Node4</title>
<path fill="none" stroke="midnightblue" d="M371.812,-255C385.118,-255 398.725,-255 410.689,-255"/>
<polygon fill="midnightblue" stroke="midnightblue" points="371.727,-251.5 361.727,-255 371.727,-258.5 371.727,-251.5"/>
</g>
<!-- Node9 -->
<g id="node17" class="node"><title>Node9</title>
<a xlink:href="class_light.html#a123872c9df9d14ae79d4a76fee217e99" target="_top" xlink:title="Light::updateView">
<polygon fill="white" stroke="black" points="260.5,-80.5 260.5,-101.5 355.5,-101.5 355.5,-80.5 260.5,-80.5"/>
<text text-anchor="middle" x="308" y="-88.5" font-family="Helvetica,sans-Serif" font-size="10.00">Light::updateView</text>
</a>
</g>
<!-- Node8&#45;&gt;Node9 -->
<g id="edge16" class="edge"><title>Node8&#45;&gt;Node9</title>
<path fill="none" stroke="midnightblue" d="M222.219,-78.3851C234.585,-80.2037 247.796,-82.1464 260.051,-83.9487"/>
<polygon fill="midnightblue" stroke="midnightblue" points="222.472,-74.8848 212.069,-76.8925 221.453,-81.8103 222.472,-74.8848"/>
</g>
<!-- Node12 -->
<g id="node24" class="node"><title>Node12</title>
<a xlink:href="class_spotlight.html#a5901141395318038d54058bbbfc5b990" target="_top" xlink:title="Spotlight::updateView">
<polygon fill="white" stroke="black" points="252,-40.5 252,-61.5 364,-61.5 364,-40.5 252,-40.5"/>
<text text-anchor="middle" x="308" y="-48.5" font-family="Helvetica,sans-Serif" font-size="10.00">Spotlight::updateView</text>
</a>
</g>
<!-- Node8&#45;&gt;Node12 -->
<g id="edge24" class="edge"><title>Node8&#45;&gt;Node12</title>
<path fill="none" stroke="midnightblue" d="M221.97,-63.6515C231.69,-62.2221 241.939,-60.7148 251.843,-59.2584"/>
<polygon fill="midnightblue" stroke="midnightblue" points="221.453,-60.1897 212.069,-65.1075 222.472,-67.1152 221.453,-60.1897"/>
</g>
<!-- Node13 -->
<g id="node26" class="node"><title>Node13</title>
<a xlink:href="class_viewport.html#aeb07f85bbe4f10ca8d8c7b46c8ebd23b" target="_top" xlink:title="Viewport::renderQuad">
<polygon fill="white" stroke="black" points="252.5,-0.5 252.5,-21.5 363.5,-21.5 363.5,-0.5 252.5,-0.5"/>
<text text-anchor="middle" x="308" y="-8.5" font-family="Helvetica,sans-Serif" font-size="10.00">Viewport::renderQuad</text>
</a>
</g>
<!-- Node8&#45;&gt;Node13 -->
<g id="edge26" class="edge"><title>Node8&#45;&gt;Node13</title>
<path fill="none" stroke="midnightblue" d="M200.28,-55.8148C215.415,-47.9555 234.495,-38.4698 252,-31 259.786,-27.6774 268.33,-24.4314 276.347,-21.5537"/>
<polygon fill="midnightblue" stroke="midnightblue" points="198.644,-52.7202 191.415,-60.4655 201.896,-58.9189 198.644,-52.7202"/>
</g>
<!-- Node10 -->
<g id="node19" class="node"><title>Node10</title>
<a xlink:href="class_light.html#a295eaf1ef5ebd30fa4997d4f7ccbb7e1" target="_top" xlink:title="Light::update">
<polygon fill="white" stroke="black" points="411.5,-80.5 411.5,-101.5 484.5,-101.5 484.5,-80.5 411.5,-80.5"/>
<text text-anchor="middle" x="448" y="-88.5" font-family="Helvetica,sans-Serif" font-size="10.00">Light::update</text>
</a>
</g>
<!-- Node9&#45;&gt;Node10 -->
<g id="edge18" class="edge"><title>Node9&#45;&gt;Node10</title>
<path fill="none" stroke="midnightblue" d="M365.794,-91C381.248,-91 397.522,-91 411.475,-91"/>
<polygon fill="midnightblue" stroke="midnightblue" points="365.789,-87.5001 355.788,-91 365.788,-94.5001 365.789,-87.5001"/>
</g>
<!-- Node10&#45;&gt;Node7 -->
<g id="edge20" class="edge"><title>Node10&#45;&gt;Node7</title>
<path fill="none" stroke="midnightblue" d="M494.095,-104.416C512.286,-109.71 532.763,-115.67 549.374,-120.504"/>
<polygon fill="midnightblue" stroke="midnightblue" points="494.842,-100.988 484.262,-101.554 492.886,-107.709 494.842,-100.988"/>
</g>
<!-- Node11 -->
<g id="node22" class="node"><title>Node11</title>
<a xlink:href="class_spotlight.html#a00b11e643c97326edb0ab6b0dff3425a" target="_top" xlink:title="Spotlight::Spotlight">
<polygon fill="white" stroke="black" points="532.5,-79.5 532.5,-100.5 631.5,-100.5 631.5,-79.5 532.5,-79.5"/>
<text text-anchor="middle" x="582" y="-87.5" font-family="Helvetica,sans-Serif" font-size="10.00">Spotlight::Spotlight</text>
</a>
</g>
<!-- Node10&#45;&gt;Node11 -->
<g id="edge22" class="edge"><title>Node10&#45;&gt;Node11</title>
<path fill="none" stroke="midnightblue" d="M494.961,-90.6495C507.065,-90.5592 520.13,-90.4617 532.365,-90.3704"/>
<polygon fill="midnightblue" stroke="midnightblue" points="494.59,-87.1521 484.616,-90.7267 494.642,-94.1519 494.59,-87.1521"/>
</g>
<!-- Node14 -->
<g id="node28" class="node"><title>Node14</title>
<a xlink:href="class_viewport.html#a3c2c4661eac1f6351392b8fe133423f5" target="_top" xlink:title="Viewport::paintGL">
<polygon fill="white" stroke="black" points="400.5,-0.5 400.5,-21.5 495.5,-21.5 495.5,-0.5 400.5,-0.5"/>
<text text-anchor="middle" x="448" y="-8.5" font-family="Helvetica,sans-Serif" font-size="10.00">Viewport::paintGL</text>
</a>
</g>
<!-- Node13&#45;&gt;Node14 -->
<g id="edge28" class="edge"><title>Node13&#45;&gt;Node14</title>
<path fill="none" stroke="midnightblue" d="M374.006,-11C382.817,-11 391.714,-11 400.134,-11"/>
<polygon fill="midnightblue" stroke="midnightblue" points="373.734,-7.5001 363.734,-11 373.734,-14.5001 373.734,-7.5001"/>
</g>
</g>
</svg>
