<?xml version="1.0" encoding="UTF-8" standalone="no"?>
<!DOCTYPE svg PUBLIC "-//W3C//DTD SVG 1.1//EN"
 "http://www.w3.org/Graphics/SVG/1.1/DTD/svg11.dtd">
<!-- Generated by graphviz version 2.26.3 (20100126.1600)
 -->
<!-- Title: Geometry&lt; Child &gt; Pages: 1 -->
<svg width="690pt" height="230pt"
 viewBox="0.00 0.00 690.00 230.00" xmlns="http://www.w3.org/2000/svg" xmlns:xlink="http://www.w3.org/1999/xlink">
<g id="graph1" class="graph" transform="scale(1 1) rotate(0) translate(4 226)">
<title>Geometry&lt; Child &gt;</title>
<polygon fill="white" stroke="white" points="-4,5 -4,-226 687,-226 687,5 -4,5"/>
<!-- Node1 -->
<g id="node1" class="node"><title>Node1</title>
<polygon fill="#bfbfbf" stroke="black" points="266,-99.5 266,-120.5 366,-120.5 366,-99.5 266,-99.5"/>
<text text-anchor="middle" x="316" y="-107.5" font-family="Helvetica,sans-Serif" font-size="10.00">Geometry&lt; Child &gt;</text>
</g>
<!-- Node5 -->
<g id="node9" class="node"><title>Node5</title>
<a xlink:href="class_geometry.html" target="_top" xlink:title="Geometry\&lt; Cube \&gt;">
<polygon fill="white" stroke="black" points="475.5,-200.5 475.5,-221.5 576.5,-221.5 576.5,-200.5 475.5,-200.5"/>
<text text-anchor="middle" x="526" y="-208.5" font-family="Helvetica,sans-Serif" font-size="10.00">Geometry&lt; Cube &gt;</text>
</a>
</g>
<!-- Node1&#45;&gt;Node5 -->
<g id="edge8" class="edge"><title>Node1&#45;&gt;Node5</title>
<path fill="none" stroke="orange" stroke-dasharray="5,2" d="M331.704,-128.425C344.471,-142.299 363.648,-160.785 384,-172 412.325,-187.609 447.329,-197.314 475.496,-203.14"/>
<polygon fill="orange" stroke="orange" points="334.238,-126.008 324.967,-120.879 329.016,-130.67 334.238,-126.008"/>
<text text-anchor="middle" x="416" y="-200" font-family="Helvetica,sans-Serif" font-size="10.00"> &lt; Cube &gt;</text>
</g>
<!-- Node7 -->
<g id="node13" class="node"><title>Node7</title>
<a xlink:href="class_geometry.html" target="_top" xlink:title="Geometry\&lt; Line \&gt;">
<polygon fill="white" stroke="black" points="478.5,-160.5 478.5,-181.5 573.5,-181.5 573.5,-160.5 478.5,-160.5"/>
<text text-anchor="middle" x="526" y="-168.5" font-family="Helvetica,sans-Serif" font-size="10.00">Geometry&lt; Line &gt;</text>
</a>
</g>
<!-- Node1&#45;&gt;Node7 -->
<g id="edge12" class="edge"><title>Node1&#45;&gt;Node7</title>
<path fill="none" stroke="orange" stroke-dasharray="5,2" d="M347.107,-124.671C358.535,-129.685 371.691,-135.025 384,-139 414.902,-148.98 450.559,-157.004 478.412,-162.52"/>
<polygon fill="orange" stroke="orange" points="348.526,-121.472 337.969,-120.573 345.661,-127.859 348.526,-121.472"/>
<text text-anchor="middle" x="416" y="-159" font-family="Helvetica,sans-Serif" font-size="10.00"> &lt; Line &gt;</text>
</g>
<!-- Node9 -->
<g id="node17" class="node"><title>Node9</title>
<a xlink:href="class_geometry.html" target="_top" xlink:title="Geometry\&lt; Sphere \&gt;">
<polygon fill="white" stroke="black" points="472,-120.5 472,-141.5 580,-141.5 580,-120.5 472,-120.5"/>
<text text-anchor="middle" x="526" y="-128.5" font-family="Helvetica,sans-Serif" font-size="10.00">Geometry&lt; Sphere &gt;</text>
</a>
</g>
<!-- Node1&#45;&gt;Node9 -->
<g id="edge16" class="edge"><title>Node1&#45;&gt;Node9</title>
<path fill="none" stroke="orange" stroke-dasharray="5,2" d="M376.028,-116.003C406.246,-119.025 442.593,-122.659 471.935,-125.594"/>
<polygon fill="orange" stroke="orange" points="376.332,-112.516 366.033,-115.003 375.636,-119.481 376.332,-112.516"/>
<text text-anchor="middle" x="416" y="-126" font-family="Helvetica,sans-Serif" font-size="10.00"> &lt; Sphere &gt;</text>
</g>
<!-- Node11 -->
<g id="node21" class="node"><title>Node11</title>
<a xlink:href="class_geometry.html" target="_top" xlink:title="Geometry\&lt; Cylinder \&gt;">
<polygon fill="white" stroke="black" points="469.5,-80.5 469.5,-101.5 582.5,-101.5 582.5,-80.5 469.5,-80.5"/>
<text text-anchor="middle" x="526" y="-88.5" font-family="Helvetica,sans-Serif" font-size="10.00">Geometry&lt; Cylinder &gt;</text>
</a>
</g>
<!-- Node1&#45;&gt;Node11 -->
<g id="edge20" class="edge"><title>Node1&#45;&gt;Node11</title>
<path fill="none" stroke="orange" stroke-dasharray="5,2" d="M368.075,-97.4661C373.43,-96.4919 378.809,-95.6398 384,-95 412.027,-91.5456 443.389,-90.3811 469.497,-90.1491"/>
<polygon fill="orange" stroke="orange" points="367.004,-94.1093 357.863,-99.4664 368.349,-100.979 367.004,-94.1093"/>
<text text-anchor="middle" x="416" y="-99" font-family="Helvetica,sans-Serif" font-size="10.00"> &lt; Cylinder &gt;</text>
</g>
<!-- Node13 -->
<g id="node25" class="node"><title>Node13</title>
<a xlink:href="class_geometry.html" target="_top" xlink:title="Geometry\&lt; Pyramide \&gt;">
<polygon fill="white" stroke="black" points="466.5,-40.5 466.5,-61.5 585.5,-61.5 585.5,-40.5 466.5,-40.5"/>
<text text-anchor="middle" x="526" y="-48.5" font-family="Helvetica,sans-Serif" font-size="10.00">Geometry&lt; Pyramide &gt;</text>
</a>
</g>
<!-- Node1&#45;&gt;Node13 -->
<g id="edge24" class="edge"><title>Node1&#45;&gt;Node13</title>
<path fill="none" stroke="orange" stroke-dasharray="5,2" d="M341.222,-94.1084C353.669,-86.9377 369.165,-78.9777 384,-74 410.281,-65.1815 440.468,-59.6862 466.233,-56.2902"/>
<polygon fill="orange" stroke="orange" points="339.169,-91.2576 332.361,-99.3757 342.745,-97.275 339.169,-91.2576"/>
<text text-anchor="middle" x="416" y="-78" font-family="Helvetica,sans-Serif" font-size="10.00"> &lt; Pyramide &gt;</text>
</g>
<!-- Node15 -->
<g id="node29" class="node"><title>Node15</title>
<a xlink:href="class_geometry.html" target="_top" xlink:title="Geometry\&lt; Trigger \&gt;">
<polygon fill="white" stroke="black" points="472.5,-0.5 472.5,-21.5 579.5,-21.5 579.5,-0.5 472.5,-0.5"/>
<text text-anchor="middle" x="526" y="-8.5" font-family="Helvetica,sans-Serif" font-size="10.00">Geometry&lt; Trigger &gt;</text>
</a>
</g>
<!-- Node1&#45;&gt;Node15 -->
<g id="edge28" class="edge"><title>Node1&#45;&gt;Node15</title>
<path fill="none" stroke="orange" stroke-dasharray="5,2" d="M330.19,-91.0673C342.681,-75.7668 362.235,-54.8854 384,-43 411.059,-28.2239 444.577,-20.2637 472.253,-15.9788"/>
<polygon fill="orange" stroke="orange" points="327.127,-89.2996 323.688,-99.3209 332.626,-93.6314 327.127,-89.2996"/>
<text text-anchor="middle" x="416" y="-47" font-family="Helvetica,sans-Serif" font-size="10.00"> &lt; Trigger &gt;</text>
</g>
<!-- Node2 -->
<g id="node2" class="node"><title>Node2</title>
<a xlink:href="class_geo_base.html" target="_top" xlink:title="Base pour la classe Geometry. ">
<polygon fill="white" stroke="black" points="170.5,-99.5 170.5,-120.5 227.5,-120.5 227.5,-99.5 170.5,-99.5"/>
<text text-anchor="middle" x="199" y="-107.5" font-family="Helvetica,sans-Serif" font-size="10.00">GeoBase</text>
</a>
</g>
<!-- Node2&#45;&gt;Node1 -->
<g id="edge2" class="edge"><title>Node2&#45;&gt;Node1</title>
<path fill="none" stroke="midnightblue" d="M237.766,-110C246.732,-110 256.398,-110 265.775,-110"/>
<polygon fill="midnightblue" stroke="midnightblue" points="237.621,-106.5 227.621,-110 237.621,-113.5 237.621,-106.5"/>
</g>
<!-- Node3 -->
<g id="node4" class="node"><title>Node3</title>
<a xlink:href="class_actor.html" target="_top" xlink:title="Base de tous les objets de la scène. ">
<polygon fill="white" stroke="black" points="92,-99.5 92,-120.5 132,-120.5 132,-99.5 92,-99.5"/>
<text text-anchor="middle" x="112" y="-107.5" font-family="Helvetica,sans-Serif" font-size="10.00">Actor</text>
</a>
</g>
<!-- Node3&#45;&gt;Node2 -->
<g id="edge4" class="edge"><title>Node3&#45;&gt;Node2</title>
<path fill="none" stroke="midnightblue" d="M142.355,-110C151.447,-110 161.385,-110 170.362,-110"/>
<polygon fill="midnightblue" stroke="midnightblue" points="142.178,-106.5 132.178,-110 142.178,-113.5 142.178,-106.5"/>
</g>
<!-- Node4 -->
<g id="node6" class="node"><title>Node4</title>
<a xlink:href="class_q_object.html" target="_top" xlink:title="QObject">
<polygon fill="white" stroke="black" points="0.5,-99.5 0.5,-120.5 53.5,-120.5 53.5,-99.5 0.5,-99.5"/>
<text text-anchor="middle" x="27" y="-107.5" font-family="Helvetica,sans-Serif" font-size="10.00">QObject</text>
</a>
</g>
<!-- Node4&#45;&gt;Node3 -->
<g id="edge6" class="edge"><title>Node4&#45;&gt;Node3</title>
<path fill="none" stroke="midnightblue" d="M63.9944,-110C73.5235,-110 83.4281,-110 91.7484,-110"/>
<polygon fill="midnightblue" stroke="midnightblue" points="63.8946,-106.5 53.8945,-110 63.8945,-113.5 63.8946,-106.5"/>
</g>
<!-- Node6 -->
<g id="node11" class="node"><title>Node6</title>
<a xlink:href="class_cube.html" target="_top" xlink:title="Un simple cube. ">
<polygon fill="white" stroke="black" points="633,-200.5 633,-221.5 673,-221.5 673,-200.5 633,-200.5"/>
<text text-anchor="middle" x="653" y="-208.5" font-family="Helvetica,sans-Serif" font-size="10.00">Cube</text>
</a>
</g>
<!-- Node5&#45;&gt;Node6 -->
<g id="edge10" class="edge"><title>Node5&#45;&gt;Node6</title>
<path fill="none" stroke="midnightblue" d="M586.801,-211C603.366,-211 620.176,-211 632.712,-211"/>
<polygon fill="midnightblue" stroke="midnightblue" points="586.559,-207.5 576.559,-211 586.559,-214.5 586.559,-207.5"/>
</g>
<!-- Node8 -->
<g id="node15" class="node"><title>Node8</title>
<a xlink:href="class_line.html" target="_top" xlink:title="Line">
<polygon fill="white" stroke="black" points="635.5,-160.5 635.5,-181.5 670.5,-181.5 670.5,-160.5 635.5,-160.5"/>
<text text-anchor="middle" x="653" y="-168.5" font-family="Helvetica,sans-Serif" font-size="10.00">Line</text>
</a>
</g>
<!-- Node7&#45;&gt;Node8 -->
<g id="edge14" class="edge"><title>Node7&#45;&gt;Node8</title>
<path fill="none" stroke="midnightblue" d="M583.896,-171C602.531,-171 621.815,-171 635.261,-171"/>
<polygon fill="midnightblue" stroke="midnightblue" points="583.651,-167.5 573.651,-171 583.651,-174.5 583.651,-167.5"/>
</g>
<!-- Node10 -->
<g id="node19" class="node"><title>Node10</title>
<a xlink:href="class_sphere.html" target="_top" xlink:title="Une simple sphere. ">
<polygon fill="white" stroke="black" points="629.5,-120.5 629.5,-141.5 676.5,-141.5 676.5,-120.5 629.5,-120.5"/>
<text text-anchor="middle" x="653" y="-128.5" font-family="Helvetica,sans-Serif" font-size="10.00">Sphere</text>
</a>
</g>
<!-- Node9&#45;&gt;Node10 -->
<g id="edge18" class="edge"><title>Node9&#45;&gt;Node10</title>
<path fill="none" stroke="midnightblue" d="M590.329,-131C604.24,-131 618.098,-131 629.232,-131"/>
<polygon fill="midnightblue" stroke="midnightblue" points="590.228,-127.5 580.228,-131 590.228,-134.5 590.228,-127.5"/>
</g>
<!-- Node12 -->
<g id="node23" class="node"><title>Node12</title>
<a xlink:href="class_cylinder.html" target="_top" xlink:title="Cylinder">
<polygon fill="white" stroke="black" points="626.5,-80.5 626.5,-101.5 679.5,-101.5 679.5,-80.5 626.5,-80.5"/>
<text text-anchor="middle" x="653" y="-88.5" font-family="Helvetica,sans-Serif" font-size="10.00">Cylinder</text>
</a>
</g>
<!-- Node11&#45;&gt;Node12 -->
<g id="edge22" class="edge"><title>Node11&#45;&gt;Node12</title>
<path fill="none" stroke="midnightblue" d="M592.819,-91C604.731,-91 616.487,-91 626.403,-91"/>
<polygon fill="midnightblue" stroke="midnightblue" points="592.814,-87.5001 582.814,-91 592.814,-94.5001 592.814,-87.5001"/>
</g>
<!-- Node14 -->
<g id="node27" class="node"><title>Node14</title>
<a xlink:href="class_pyramide.html" target="_top" xlink:title="Pyramide">
<polygon fill="white" stroke="black" points="624,-40.5 624,-61.5 682,-61.5 682,-40.5 624,-40.5"/>
<text text-anchor="middle" x="653" y="-48.5" font-family="Helvetica,sans-Serif" font-size="10.00">Pyramide</text>
</a>
</g>
<!-- Node13&#45;&gt;Node14 -->
<g id="edge26" class="edge"><title>Node13&#45;&gt;Node14</title>
<path fill="none" stroke="midnightblue" d="M596.035,-51C605.84,-51 615.435,-51 623.871,-51"/>
<polygon fill="midnightblue" stroke="midnightblue" points="595.781,-47.5001 585.781,-51 595.781,-54.5001 595.781,-47.5001"/>
</g>
<!-- Node16 -->
<g id="node31" class="node"><title>Node16</title>
<a xlink:href="class_trigger.html" target="_top" xlink:title="Trigger">
<polygon fill="white" stroke="black" points="629.5,-0.5 629.5,-21.5 676.5,-21.5 676.5,-0.5 629.5,-0.5"/>
<text text-anchor="middle" x="653" y="-8.5" font-family="Helvetica,sans-Serif" font-size="10.00">Trigger</text>
</a>
</g>
<!-- Node15&#45;&gt;Node16 -->
<g id="edge30" class="edge"><title>Node15&#45;&gt;Node16</title>
<path fill="none" stroke="midnightblue" d="M590.073,-11C604.144,-11 618.178,-11 629.41,-11"/>
<polygon fill="midnightblue" stroke="midnightblue" points="589.859,-7.5001 579.859,-11 589.859,-14.5001 589.859,-7.5001"/>
</g>
</g>
</svg>
