<?xml version="1.0" encoding="UTF-8" standalone="no"?>
<!DOCTYPE svg PUBLIC "-//W3C//DTD SVG 1.1//EN"
 "http://www.w3.org/Graphics/SVG/1.1/DTD/svg11.dtd">
<!-- Generated by graphviz version 2.26.3 (20100126.1600)
 -->
<!-- Title: Viewport::mousePressEvent Pages: 1 -->
<svg width="408pt" height="150pt"
 viewBox="0.00 0.00 408.00 150.00" xmlns="http://www.w3.org/2000/svg" xmlns:xlink="http://www.w3.org/1999/xlink">
<g id="graph1" class="graph" transform="scale(1 1) rotate(0) translate(4 146)">
<title>Viewport::mousePressEvent</title>
<polygon fill="white" stroke="white" points="-4,5 -4,-146 405,-146 405,5 -4,5"/>
<!-- Node1 -->
<g id="node1" class="node"><title>Node1</title>
<polygon fill="#bfbfbf" stroke="black" points="0.5,-60.5 0.5,-81.5 141.5,-81.5 141.5,-60.5 0.5,-60.5"/>
<text text-anchor="middle" x="71" y="-68.5" font-family="Helvetica,sans-Serif" font-size="10.00">Viewport::mousePressEvent</text>
</g>
<!-- Node2 -->
<g id="node3" class="node"><title>Node2</title>
<a xlink:href="class_camera.html#ae068edc8a9da46c0062af05b2434fb63" target="_top" xlink:title="Camera::resetBias">
<polygon fill="white" stroke="black" points="178,-60.5 178,-81.5 276,-81.5 276,-60.5 178,-60.5"/>
<text text-anchor="middle" x="227" y="-68.5" font-family="Helvetica,sans-Serif" font-size="10.00">Camera::resetBias</text>
</a>
</g>
<!-- Node1&#45;&gt;Node2 -->
<g id="edge2" class="edge"><title>Node1&#45;&gt;Node2</title>
<path fill="none" stroke="midnightblue" d="M141.697,-71C150.409,-71 159.243,-71 167.76,-71"/>
<polygon fill="midnightblue" stroke="midnightblue" points="167.962,-74.5001 177.962,-71 167.962,-67.5001 167.962,-74.5001"/>
</g>
<!-- Node3 -->
<g id="node5" class="node"><title>Node3</title>
<a xlink:href="class_camera.html#a5b69d67a787c3ec58111b7638ba0b8c7" target="_top" xlink:title="Camera::hBias">
<polygon fill="white" stroke="black" points="315,-120.5 315,-141.5 397,-141.5 397,-120.5 315,-120.5"/>
<text text-anchor="middle" x="356" y="-128.5" font-family="Helvetica,sans-Serif" font-size="10.00">Camera::hBias</text>
</a>
</g>
<!-- Node2&#45;&gt;Node3 -->
<g id="edge4" class="edge"><title>Node2&#45;&gt;Node3</title>
<path fill="none" stroke="midnightblue" d="M249.333,-81.6081C266.454,-89.7168 290.684,-101.141 312,-111 315.665,-112.695 319.507,-114.46 323.33,-116.208"/>
<polygon fill="midnightblue" stroke="midnightblue" points="322.131,-119.508 332.682,-120.47 325.034,-113.138 322.131,-119.508"/>
</g>
<!-- Node4 -->
<g id="node7" class="node"><title>Node4</title>
<a xlink:href="class_camera.html#a5fcdf451c1711531dfabd2c9692c9c24" target="_top" xlink:title="Camera::hAngle">
<polygon fill="white" stroke="black" points="312.5,-80.5 312.5,-101.5 399.5,-101.5 399.5,-80.5 312.5,-80.5"/>
<text text-anchor="middle" x="356" y="-88.5" font-family="Helvetica,sans-Serif" font-size="10.00">Camera::hAngle</text>
</a>
</g>
<!-- Node2&#45;&gt;Node4 -->
<g id="edge6" class="edge"><title>Node2&#45;&gt;Node4</title>
<path fill="none" stroke="midnightblue" d="M276.137,-78.6182C284.735,-79.9512 293.719,-81.3441 302.43,-82.6945"/>
<polygon fill="midnightblue" stroke="midnightblue" points="302.071,-86.1807 312.489,-84.2542 303.144,-79.2633 302.071,-86.1807"/>
</g>
<!-- Node5 -->
<g id="node9" class="node"><title>Node5</title>
<a xlink:href="class_camera.html#a7a2feb5000cd1f4497cb7ea95a257de8" target="_top" xlink:title="Camera::vBias">
<polygon fill="white" stroke="black" points="315,-40.5 315,-61.5 397,-61.5 397,-40.5 315,-40.5"/>
<text text-anchor="middle" x="356" y="-48.5" font-family="Helvetica,sans-Serif" font-size="10.00">Camera::vBias</text>
</a>
</g>
<!-- Node2&#45;&gt;Node5 -->
<g id="edge8" class="edge"><title>Node2&#45;&gt;Node5</title>
<path fill="none" stroke="midnightblue" d="M276.137,-63.3818C285.549,-61.9226 295.425,-60.3915 304.897,-58.923"/>
<polygon fill="midnightblue" stroke="midnightblue" points="305.63,-62.3512 314.976,-57.3603 304.558,-55.4338 305.63,-62.3512"/>
</g>
<!-- Node6 -->
<g id="node11" class="node"><title>Node6</title>
<a xlink:href="class_camera.html#aa343f196240a4cf6b56512726f77c7ed" target="_top" xlink:title="Camera::vAngle">
<polygon fill="white" stroke="black" points="312.5,-0.5 312.5,-21.5 399.5,-21.5 399.5,-0.5 312.5,-0.5"/>
<text text-anchor="middle" x="356" y="-8.5" font-family="Helvetica,sans-Serif" font-size="10.00">Camera::vAngle</text>
</a>
</g>
<!-- Node2&#45;&gt;Node6 -->
<g id="edge10" class="edge"><title>Node2&#45;&gt;Node6</title>
<path fill="none" stroke="midnightblue" d="M249.333,-60.3919C266.454,-52.2832 290.684,-40.8594 312,-31 315.665,-29.3047 319.507,-27.5401 323.33,-25.792"/>
<polygon fill="midnightblue" stroke="midnightblue" points="325.034,-28.8619 332.682,-21.5299 322.131,-22.4922 325.034,-28.8619"/>
</g>
</g>
</svg>
