<?xml version="1.0" encoding="UTF-8" standalone="no"?>
<!DOCTYPE svg PUBLIC "-//W3C//DTD SVG 1.1//EN"
 "http://www.w3.org/Graphics/SVG/1.1/DTD/svg11.dtd">
<!-- Generated by graphviz version 2.26.3 (20100126.1600)
 -->
<!-- Title: Viewport::keyPressEvent Pages: 1 -->
<svg width="394pt" height="164pt"
 viewBox="0.00 0.00 394.00 164.00" xmlns="http://www.w3.org/2000/svg" xmlns:xlink="http://www.w3.org/1999/xlink">
<g id="graph1" class="graph" transform="scale(1 1) rotate(0) translate(4 160)">
<title>Viewport::keyPressEvent</title>
<polygon fill="white" stroke="white" points="-4,5 -4,-160 391,-160 391,5 -4,5"/>
<!-- Node1 -->
<g id="node1" class="node"><title>Node1</title>
<polygon fill="#bfbfbf" stroke="black" points="0,-40.5 0,-61.5 128,-61.5 128,-40.5 0,-40.5"/>
<text text-anchor="middle" x="64" y="-48.5" font-family="Helvetica,sans-Serif" font-size="10.00">Viewport::keyPressEvent</text>
</g>
<!-- Node2 -->
<g id="node3" class="node"><title>Node2</title>
<a xlink:href="class_camera.html#a600387791d90bfb6578ea050e3f60ae3" target="_top" xlink:title="Camera::velocity">
<polygon fill="white" stroke="black" points="164.5,-99.5 164.5,-120.5 255.5,-120.5 255.5,-99.5 164.5,-99.5"/>
<text text-anchor="middle" x="210" y="-107.5" font-family="Helvetica,sans-Serif" font-size="10.00">Camera::velocity</text>
</a>
</g>
<!-- Node1&#45;&gt;Node2 -->
<g id="edge2" class="edge"><title>Node1&#45;&gt;Node2</title>
<path fill="none" stroke="midnightblue" d="M90.1019,-61.548C113.521,-71.0118 148.107,-84.9884 174.122,-95.5014"/>
<polygon fill="midnightblue" stroke="midnightblue" points="173.049,-98.8426 183.632,-99.3444 175.672,-92.3525 173.049,-98.8426"/>
</g>
<!-- Node5 -->
<g id="node9" class="node"><title>Node5</title>
<a xlink:href="class_camera.html#a7276761c5214ec94f6ac35e5804f6719" target="_top" xlink:title="Camera::direction">
<polygon fill="white" stroke="black" points="292,-49.5 292,-70.5 386,-70.5 386,-49.5 292,-49.5"/>
<text text-anchor="middle" x="339" y="-57.5" font-family="Helvetica,sans-Serif" font-size="10.00">Camera::direction</text>
</a>
</g>
<!-- Node1&#45;&gt;Node5 -->
<g id="edge8" class="edge"><title>Node1&#45;&gt;Node5</title>
<path fill="none" stroke="midnightblue" d="M128.128,-53.0987C174.509,-54.6167 236.643,-56.6501 281.436,-58.1161"/>
<polygon fill="midnightblue" stroke="midnightblue" points="281.463,-61.6188 291.572,-58.4478 281.692,-54.6225 281.463,-61.6188"/>
</g>
<!-- Node6 -->
<g id="node11" class="node"><title>Node6</title>
<a xlink:href="class_camera.html#ac68fa914dd8737de1ec7558fc9281a68" target="_top" xlink:title="Camera::right">
<polygon fill="white" stroke="black" points="301,-0.5 301,-21.5 377,-21.5 377,-0.5 301,-0.5"/>
<text text-anchor="middle" x="339" y="-8.5" font-family="Helvetica,sans-Serif" font-size="10.00">Camera::right</text>
</a>
</g>
<!-- Node1&#45;&gt;Node6 -->
<g id="edge10" class="edge"><title>Node1&#45;&gt;Node6</title>
<path fill="none" stroke="midnightblue" d="M84.4057,-40.4769C104.163,-30.915 135.263,-17.4904 164,-12 206.236,-3.93036 255.259,-4.47766 290.656,-6.58059"/>
<polygon fill="midnightblue" stroke="midnightblue" points="290.512,-10.0786 300.72,-7.24203 290.971,-3.09367 290.512,-10.0786"/>
</g>
<!-- Node7 -->
<g id="node13" class="node"><title>Node7</title>
<a xlink:href="class_camera.html#a9936c788ad482b40b5a3548bf5e97247" target="_top" xlink:title="Camera::up">
<polygon fill="white" stroke="black" points="176,-21.5 176,-42.5 244,-42.5 244,-21.5 176,-21.5"/>
<text text-anchor="middle" x="210" y="-29.5" font-family="Helvetica,sans-Serif" font-size="10.00">Camera::up</text>
</a>
</g>
<!-- Node1&#45;&gt;Node7 -->
<g id="edge12" class="edge"><title>Node1&#45;&gt;Node7</title>
<path fill="none" stroke="midnightblue" d="M128.038,-42.6663C140.719,-41.016 153.767,-39.318 165.619,-37.7756"/>
<polygon fill="midnightblue" stroke="midnightblue" points="166.223,-41.2267 175.687,-36.4653 165.319,-34.2852 166.223,-41.2267"/>
</g>
<!-- Node3 -->
<g id="node5" class="node"><title>Node3</title>
<a xlink:href="class_camera.html#a4e6b5818c84025d176c13c84991ef568" target="_top" xlink:title="Camera::position">
<polygon fill="white" stroke="black" points="293.5,-134.5 293.5,-155.5 384.5,-155.5 384.5,-134.5 293.5,-134.5"/>
<text text-anchor="middle" x="339" y="-142.5" font-family="Helvetica,sans-Serif" font-size="10.00">Camera::position</text>
</a>
</g>
<!-- Node2&#45;&gt;Node3 -->
<g id="edge4" class="edge"><title>Node2&#45;&gt;Node3</title>
<path fill="none" stroke="midnightblue" d="M248.704,-120.501C261.723,-124.033 276.421,-128.021 290.118,-131.738"/>
<polygon fill="midnightblue" stroke="midnightblue" points="289.31,-135.145 299.877,-134.385 291.143,-128.389 289.31,-135.145"/>
</g>
<!-- Node4 -->
<g id="node7" class="node"><title>Node4</title>
<a xlink:href="class_camera.html#a9d5f5bfa927044db06ce687b0c00173e" target="_top" xlink:title="Camera::speed">
<polygon fill="white" stroke="black" points="297.5,-94.5 297.5,-115.5 380.5,-115.5 380.5,-94.5 297.5,-94.5"/>
<text text-anchor="middle" x="339" y="-102.5" font-family="Helvetica,sans-Serif" font-size="10.00">Camera::speed</text>
</a>
</g>
<!-- Node2&#45;&gt;Node4 -->
<g id="edge6" class="edge"><title>Node2&#45;&gt;Node4</title>
<path fill="none" stroke="midnightblue" d="M255.844,-108.223C265.946,-107.832 276.717,-107.414 287.041,-107.014"/>
<polygon fill="midnightblue" stroke="midnightblue" points="287.319,-110.506 297.176,-106.621 287.048,-103.511 287.319,-110.506"/>
</g>
<!-- Node7&#45;&gt;Node5 -->
<g id="edge16" class="edge"><title>Node7&#45;&gt;Node5</title>
<path fill="none" stroke="midnightblue" d="M244.231,-39.43C255.889,-41.9604 269.254,-44.8612 282.198,-47.671"/>
<polygon fill="midnightblue" stroke="midnightblue" points="281.465,-51.0933 291.98,-49.7942 282.95,-44.2526 281.465,-51.0933"/>
</g>
<!-- Node7&#45;&gt;Node6 -->
<g id="edge14" class="edge"><title>Node7&#45;&gt;Node6</title>
<path fill="none" stroke="midnightblue" d="M244.231,-26.4275C258.559,-24.0951 275.464,-21.3431 291,-18.814"/>
<polygon fill="midnightblue" stroke="midnightblue" points="291.663,-22.2522 300.97,-17.1909 290.538,-15.3432 291.663,-22.2522"/>
</g>
</g>
</svg>
