<?xml version="1.0" encoding="UTF-8" standalone="no"?>
<!DOCTYPE svg PUBLIC "-//W3C//DTD SVG 1.1//EN"
 "http://www.w3.org/Graphics/SVG/1.1/DTD/svg11.dtd">
<!-- Generated by graphviz version 2.26.3 (20100126.1600)
 -->
<!-- Title: Camera::up Pages: 1 -->
<svg width="372pt" height="70pt"
 viewBox="0.00 0.00 372.00 70.00" xmlns="http://www.w3.org/2000/svg" xmlns:xlink="http://www.w3.org/1999/xlink">
<g id="graph1" class="graph" transform="scale(1 1) rotate(0) translate(4 66)">
<title>Camera::up</title>
<polygon fill="white" stroke="white" points="-4,5 -4,-66 369,-66 369,5 -4,5"/>
<!-- Node1 -->
<g id="node1" class="node"><title>Node1</title>
<polygon fill="#bfbfbf" stroke="black" points="0,-20.5 0,-41.5 68,-41.5 68,-20.5 0,-20.5"/>
<text text-anchor="middle" x="34" y="-28.5" font-family="Helvetica,sans-Serif" font-size="10.00">Camera::up</text>
</g>
<!-- Node2 -->
<g id="node3" class="node"><title>Node2</title>
<a xlink:href="class_camera.html#af81adf3ba7f63429a9d5356c218da78f" target="_top" xlink:title="Camera::view">
<polygon fill="white" stroke="black" points="129.5,-40.5 129.5,-61.5 206.5,-61.5 206.5,-40.5 129.5,-40.5"/>
<text text-anchor="middle" x="168" y="-48.5" font-family="Helvetica,sans-Serif" font-size="10.00">Camera::view</text>
</a>
</g>
<!-- Node1&#45;&gt;Node2 -->
<g id="edge2" class="edge"><title>Node1&#45;&gt;Node2</title>
<path fill="none" stroke="midnightblue" d="M78.1121,-37.5839C94.5986,-40.0446 113.187,-42.8189 129.163,-45.2034"/>
<polygon fill="midnightblue" stroke="midnightblue" points="78.5677,-34.1132 68.1606,-36.0986 77.5343,-41.0365 78.5677,-34.1132"/>
</g>
<!-- Node4 -->
<g id="node7" class="node"><title>Node4</title>
<a xlink:href="class_viewport.html#ae3b6b681561ee1ef2bdb96d27bd2a1f0" target="_top" xlink:title="Viewport::keyPressEvent">
<polygon fill="white" stroke="black" points="104,-0.5 104,-21.5 232,-21.5 232,-0.5 104,-0.5"/>
<text text-anchor="middle" x="168" y="-8.5" font-family="Helvetica,sans-Serif" font-size="10.00">Viewport::keyPressEvent</text>
</a>
</g>
<!-- Node1&#45;&gt;Node4 -->
<g id="edge6" class="edge"><title>Node1&#45;&gt;Node4</title>
<path fill="none" stroke="midnightblue" d="M78.2638,-24.3935C86.494,-23.1651 95.2436,-21.8592 103.927,-20.5631"/>
<polygon fill="midnightblue" stroke="midnightblue" points="77.5343,-20.9635 68.1606,-25.9014 78.5677,-27.8868 77.5343,-20.9635"/>
</g>
<!-- Node3 -->
<g id="node5" class="node"><title>Node3</title>
<a xlink:href="class_viewport.html#a3c2c4661eac1f6351392b8fe133423f5" target="_top" xlink:title="Viewport::paintGL">
<polygon fill="white" stroke="black" points="268.5,-40.5 268.5,-61.5 363.5,-61.5 363.5,-40.5 268.5,-40.5"/>
<text text-anchor="middle" x="316" y="-48.5" font-family="Helvetica,sans-Serif" font-size="10.00">Viewport::paintGL</text>
</a>
</g>
<!-- Node2&#45;&gt;Node3 -->
<g id="edge4" class="edge"><title>Node2&#45;&gt;Node3</title>
<path fill="none" stroke="midnightblue" d="M216.916,-51C233.477,-51 251.938,-51 268.395,-51"/>
<polygon fill="midnightblue" stroke="midnightblue" points="216.885,-47.5001 206.885,-51 216.885,-54.5001 216.885,-47.5001"/>
</g>
</g>
</svg>
