<?xml version="1.0" encoding="UTF-8" standalone="no"?>
<!DOCTYPE svg PUBLIC "-//W3C//DTD SVG 1.1//EN"
 "http://www.w3.org/Graphics/SVG/1.1/DTD/svg11.dtd">
<!-- Generated by graphviz version 2.26.3 (20100126.1600)
 -->
<!-- Title: Material::Material Pages: 1 -->
<svg width="258pt" height="390pt"
 viewBox="0.00 0.00 258.00 390.00" xmlns="http://www.w3.org/2000/svg" xmlns:xlink="http://www.w3.org/1999/xlink">
<g id="graph1" class="graph" transform="scale(1 1) rotate(0) translate(4 386)">
<title>Material::Material</title>
<polygon fill="white" stroke="white" points="-4,5 -4,-386 255,-386 255,5 -4,5"/>
<!-- Node1 -->
<g id="node1" class="node"><title>Node1</title>
<polygon fill="#bfbfbf" stroke="black" points="0,-180.5 0,-201.5 92,-201.5 92,-180.5 0,-180.5"/>
<text text-anchor="middle" x="46" y="-188.5" font-family="Helvetica,sans-Serif" font-size="10.00">Material::Material</text>
</g>
<!-- Node2 -->
<g id="node3" class="node"><title>Node2</title>
<a xlink:href="class_material.html#a6fcaf0217d837a565a1f01392ebeffc0" target="_top" xlink:title="Material::metallic">
<polygon fill="white" stroke="black" points="143.5,-360.5 143.5,-381.5 234.5,-381.5 234.5,-360.5 143.5,-360.5"/>
<text text-anchor="middle" x="189" y="-368.5" font-family="Helvetica,sans-Serif" font-size="10.00">Material::metallic</text>
</a>
</g>
<!-- Node1&#45;&gt;Node2 -->
<g id="edge2" class="edge"><title>Node1&#45;&gt;Node2</title>
<path fill="none" stroke="midnightblue" d="M48.4633,-201.729C55.5809,-230.322 78.8754,-309.031 128,-351 129.965,-352.679 132.074,-354.217 134.286,-355.627"/>
<polygon fill="midnightblue" stroke="midnightblue" points="132.77,-358.787 143.233,-360.455 136.094,-352.626 132.77,-358.787"/>
</g>
<!-- Node3 -->
<g id="node5" class="node"><title>Node3</title>
<a xlink:href="class_material.html#afd4490f8191f989d10ad77b5b7fed54e" target="_top" xlink:title="Material::subsurface">
<polygon fill="white" stroke="black" points="136.5,-320.5 136.5,-341.5 241.5,-341.5 241.5,-320.5 136.5,-320.5"/>
<text text-anchor="middle" x="189" y="-328.5" font-family="Helvetica,sans-Serif" font-size="10.00">Material::subsurface</text>
</a>
</g>
<!-- Node1&#45;&gt;Node3 -->
<g id="edge4" class="edge"><title>Node1&#45;&gt;Node3</title>
<path fill="none" stroke="midnightblue" d="M50.4135,-201.714C60.5698,-225.062 87.8469,-280.849 128,-311 130.461,-312.848 133.1,-314.529 135.851,-316.06"/>
<polygon fill="midnightblue" stroke="midnightblue" points="134.408,-319.249 144.934,-320.448 137.453,-312.946 134.408,-319.249"/>
</g>
<!-- Node4 -->
<g id="node7" class="node"><title>Node4</title>
<a xlink:href="class_material.html#a8830760a0824b92e2a5151642a5e011c" target="_top" xlink:title="Material::specular">
<polygon fill="white" stroke="black" points="142,-280.5 142,-301.5 236,-301.5 236,-280.5 142,-280.5"/>
<text text-anchor="middle" x="189" y="-288.5" font-family="Helvetica,sans-Serif" font-size="10.00">Material::specular</text>
</a>
</g>
<!-- Node1&#45;&gt;Node4 -->
<g id="edge6" class="edge"><title>Node1&#45;&gt;Node4</title>
<path fill="none" stroke="midnightblue" d="M54.1627,-201.646C67.7237,-218.642 96.5349,-251.927 128,-271 131.388,-273.054 135.011,-274.923 138.739,-276.618"/>
<polygon fill="midnightblue" stroke="midnightblue" points="137.566,-279.921 148.146,-280.484 140.227,-273.446 137.566,-279.921"/>
</g>
<!-- Node5 -->
<g id="node9" class="node"><title>Node5</title>
<a xlink:href="class_material.html#a051abec46a2846d2a1797c1bc38f8fff" target="_top" xlink:title="Material::roughness">
<polygon fill="white" stroke="black" points="138,-240.5 138,-261.5 240,-261.5 240,-240.5 138,-240.5"/>
<text text-anchor="middle" x="189" y="-248.5" font-family="Helvetica,sans-Serif" font-size="10.00">Material::roughness</text>
</a>
</g>
<!-- Node1&#45;&gt;Node5 -->
<g id="edge8" class="edge"><title>Node1&#45;&gt;Node5</title>
<path fill="none" stroke="midnightblue" d="M65.8698,-201.646C82.264,-210.196 106.276,-222.189 128,-231 133.228,-233.121 138.774,-235.185 144.308,-237.132"/>
<polygon fill="midnightblue" stroke="midnightblue" points="143.589,-240.584 154.184,-240.497 145.847,-233.958 143.589,-240.584"/>
</g>
<!-- Node6 -->
<g id="node11" class="node"><title>Node6</title>
<a xlink:href="class_material.html#ada089be63cad34944a1ee4ecfe932041" target="_top" xlink:title="Material::specularTint">
<polygon fill="white" stroke="black" points="134,-200.5 134,-221.5 244,-221.5 244,-200.5 134,-200.5"/>
<text text-anchor="middle" x="189" y="-208.5" font-family="Helvetica,sans-Serif" font-size="10.00">Material::specularTint</text>
</a>
</g>
<!-- Node1&#45;&gt;Node6 -->
<g id="edge10" class="edge"><title>Node1&#45;&gt;Node6</title>
<path fill="none" stroke="midnightblue" d="M92.0332,-197.438C102.119,-198.849 112.982,-200.368 123.66,-201.862"/>
<polygon fill="midnightblue" stroke="midnightblue" points="123.422,-205.362 133.81,-203.281 124.391,-198.43 123.422,-205.362"/>
</g>
<!-- Node7 -->
<g id="node13" class="node"><title>Node7</title>
<a xlink:href="class_material.html#a8ae1e7ea8ead043fc3e23614b9e779c9" target="_top" xlink:title="Material::anisotropic">
<polygon fill="white" stroke="black" points="137,-160.5 137,-181.5 241,-181.5 241,-160.5 137,-160.5"/>
<text text-anchor="middle" x="189" y="-168.5" font-family="Helvetica,sans-Serif" font-size="10.00">Material::anisotropic</text>
</a>
</g>
<!-- Node1&#45;&gt;Node7 -->
<g id="edge12" class="edge"><title>Node1&#45;&gt;Node7</title>
<path fill="none" stroke="midnightblue" d="M92.0332,-184.562C103.084,-183.016 115.069,-181.34 126.722,-179.71"/>
<polygon fill="midnightblue" stroke="midnightblue" points="127.425,-183.146 136.844,-178.295 126.456,-176.213 127.425,-183.146"/>
</g>
<!-- Node8 -->
<g id="node15" class="node"><title>Node8</title>
<a xlink:href="class_material.html#a653591d22bc43838513f7f07a2795a91" target="_top" xlink:title="Material::sheen">
<polygon fill="white" stroke="black" points="147.5,-120.5 147.5,-141.5 230.5,-141.5 230.5,-120.5 147.5,-120.5"/>
<text text-anchor="middle" x="189" y="-128.5" font-family="Helvetica,sans-Serif" font-size="10.00">Material::sheen</text>
</a>
</g>
<!-- Node1&#45;&gt;Node8 -->
<g id="edge14" class="edge"><title>Node1&#45;&gt;Node8</title>
<path fill="none" stroke="midnightblue" d="M65.8698,-180.354C82.264,-171.804 106.276,-159.811 128,-151 133.228,-148.879 138.774,-146.815 144.308,-144.868"/>
<polygon fill="midnightblue" stroke="midnightblue" points="145.847,-148.042 154.184,-141.503 143.589,-141.416 145.847,-148.042"/>
</g>
<!-- Node9 -->
<g id="node17" class="node"><title>Node9</title>
<a xlink:href="class_material.html#af58edf39cd7d361dd313198c5cff895e" target="_top" xlink:title="Material::sheenTint">
<polygon fill="white" stroke="black" points="139,-80.5 139,-101.5 239,-101.5 239,-80.5 139,-80.5"/>
<text text-anchor="middle" x="189" y="-88.5" font-family="Helvetica,sans-Serif" font-size="10.00">Material::sheenTint</text>
</a>
</g>
<!-- Node1&#45;&gt;Node9 -->
<g id="edge16" class="edge"><title>Node1&#45;&gt;Node9</title>
<path fill="none" stroke="midnightblue" d="M54.1627,-180.354C67.7237,-163.358 96.5349,-130.073 128,-111 131.388,-108.946 135.011,-107.077 138.739,-105.382"/>
<polygon fill="midnightblue" stroke="midnightblue" points="140.227,-108.554 148.146,-101.516 137.566,-102.079 140.227,-108.554"/>
</g>
<!-- Node10 -->
<g id="node19" class="node"><title>Node10</title>
<a xlink:href="class_material.html#a37c6662da47fb03eb3f473684eb178c5" target="_top" xlink:title="Material::clearcoat">
<polygon fill="white" stroke="black" points="140.5,-40.5 140.5,-61.5 237.5,-61.5 237.5,-40.5 140.5,-40.5"/>
<text text-anchor="middle" x="189" y="-48.5" font-family="Helvetica,sans-Serif" font-size="10.00">Material::clearcoat</text>
</a>
</g>
<!-- Node1&#45;&gt;Node10 -->
<g id="edge18" class="edge"><title>Node1&#45;&gt;Node10</title>
<path fill="none" stroke="midnightblue" d="M50.4135,-180.286C60.5698,-156.938 87.8469,-101.151 128,-71 130.461,-69.1523 133.1,-67.4706 135.851,-65.9404"/>
<polygon fill="midnightblue" stroke="midnightblue" points="137.453,-69.0537 144.934,-61.552 134.408,-62.7507 137.453,-69.0537"/>
</g>
<!-- Node11 -->
<g id="node21" class="node"><title>Node11</title>
<a xlink:href="class_material.html#af681093095dfcf0d30b7c167b65bec68" target="_top" xlink:title="Material::clearcoatGloss">
<polygon fill="white" stroke="black" points="128,-0.5 128,-21.5 250,-21.5 250,-0.5 128,-0.5"/>
<text text-anchor="middle" x="189" y="-8.5" font-family="Helvetica,sans-Serif" font-size="10.00">Material::clearcoatGloss</text>
</a>
</g>
<!-- Node1&#45;&gt;Node11 -->
<g id="edge20" class="edge"><title>Node1&#45;&gt;Node11</title>
<path fill="none" stroke="midnightblue" d="M48.4633,-180.271C55.5809,-151.678 78.8754,-72.9694 128,-31 129.965,-29.3214 132.074,-27.7827 134.286,-26.3725"/>
<polygon fill="midnightblue" stroke="midnightblue" points="136.094,-29.3739 143.233,-21.5454 132.77,-23.2133 136.094,-29.3739"/>
</g>
</g>
</svg>
