<?xml version="1.0" encoding="UTF-8" standalone="no"?>
<!DOCTYPE svg PUBLIC "-//W3C//DTD SVG 1.1//EN"
 "http://www.w3.org/Graphics/SVG/1.1/DTD/svg11.dtd">
<!-- Generated by graphviz version 2.26.3 (20100126.1600)
 -->
<!-- Title: QObject Pages: 1 -->
<svg width="780pt" height="539pt"
 viewBox="0.00 0.00 780.00 539.00" xmlns="http://www.w3.org/2000/svg" xmlns:xlink="http://www.w3.org/1999/xlink">
<g id="graph1" class="graph" transform="scale(1 1) rotate(0) translate(4 535)">
<title>QObject</title>
<polygon fill="white" stroke="white" points="-4,5 -4,-535 777,-535 777,5 -4,5"/>
<!-- Node1 -->
<g id="node1" class="node"><title>Node1</title>
<polygon fill="#bfbfbf" stroke="black" points="0.5,-120.5 0.5,-141.5 53.5,-141.5 53.5,-120.5 0.5,-120.5"/>
<text text-anchor="middle" x="27" y="-128.5" font-family="Helvetica,sans-Serif" font-size="10.00">QObject</text>
</g>
<!-- Node2 -->
<g id="node3" class="node"><title>Node2</title>
<a xlink:href="class_actor.html" target="_top" xlink:title="Base de tous les objets de la scène. ">
<polygon fill="white" stroke="black" points="120,-240.5 120,-261.5 160,-261.5 160,-240.5 120,-240.5"/>
<text text-anchor="middle" x="140" y="-248.5" font-family="Helvetica,sans-Serif" font-size="10.00">Actor</text>
</a>
</g>
<!-- Node1&#45;&gt;Node2 -->
<g id="edge2" class="edge"><title>Node1&#45;&gt;Node2</title>
<path fill="none" stroke="midnightblue" d="M35.4044,-150.684C45.7802,-172.897 65.3739,-208.818 92,-231 100.046,-237.703 110.656,-242.438 119.854,-245.612"/>
<polygon fill="midnightblue" stroke="midnightblue" points="38.5865,-149.226 31.2936,-141.54 32.2021,-152.096 38.5865,-149.226"/>
</g>
<!-- Node20 -->
<g id="node45" class="node"><title>Node20</title>
<a xlink:href="struct_ambient_occlusion.html" target="_top" xlink:title="AmbientOcclusion">
<polygon fill="white" stroke="black" points="92,-200.5 92,-221.5 188,-221.5 188,-200.5 92,-200.5"/>
<text text-anchor="middle" x="140" y="-208.5" font-family="Helvetica,sans-Serif" font-size="10.00">AmbientOcclusion</text>
</a>
</g>
<!-- Node1&#45;&gt;Node20 -->
<g id="edge50" class="edge"><title>Node1&#45;&gt;Node20</title>
<path fill="none" stroke="midnightblue" d="M43.1532,-148.976C55.5394,-161.951 73.5848,-179.194 92,-191 97.548,-194.557 103.835,-197.712 109.988,-200.404"/>
<polygon fill="midnightblue" stroke="midnightblue" points="45.5978,-146.465 36.2197,-141.536 40.4767,-151.238 45.5978,-146.465"/>
</g>
<!-- Node21 -->
<g id="node47" class="node"><title>Node21</title>
<a xlink:href="class_camera.html" target="_top" xlink:title="Gestion de la camera. ">
<polygon fill="white" stroke="black" points="114.5,-160.5 114.5,-181.5 165.5,-181.5 165.5,-160.5 114.5,-160.5"/>
<text text-anchor="middle" x="140" y="-168.5" font-family="Helvetica,sans-Serif" font-size="10.00">Camera</text>
</a>
</g>
<!-- Node1&#45;&gt;Node21 -->
<g id="edge52" class="edge"><title>Node1&#45;&gt;Node21</title>
<path fill="none" stroke="midnightblue" d="M63.656,-143.976C80.1512,-149.815 99.2313,-156.569 114.191,-161.864"/>
<polygon fill="midnightblue" stroke="midnightblue" points="64.3742,-140.517 53.7794,-140.479 62.0383,-147.116 64.3742,-140.517"/>
</g>
<!-- Node22 -->
<g id="node49" class="node"><title>Node22</title>
<a xlink:href="class_material.html" target="_top" xlink:title="Définit les propriétés d&#39;un materiau. ">
<polygon fill="white" stroke="black" points="114.5,-120.5 114.5,-141.5 165.5,-141.5 165.5,-120.5 114.5,-120.5"/>
<text text-anchor="middle" x="140" y="-128.5" font-family="Helvetica,sans-Serif" font-size="10.00">Material</text>
</a>
</g>
<!-- Node1&#45;&gt;Node22 -->
<g id="edge54" class="edge"><title>Node1&#45;&gt;Node22</title>
<path fill="none" stroke="midnightblue" d="M64.1235,-131C80.5108,-131 99.3725,-131 114.191,-131"/>
<polygon fill="midnightblue" stroke="midnightblue" points="63.7795,-127.5 53.7794,-131 63.7794,-134.5 63.7795,-127.5"/>
</g>
<!-- Node23 -->
<g id="node51" class="node"><title>Node23</title>
<a xlink:href="class_q_widget.html" target="_top" xlink:title="QWidget">
<polygon fill="white" stroke="black" points="112.5,-80.5 112.5,-101.5 167.5,-101.5 167.5,-80.5 112.5,-80.5"/>
<text text-anchor="middle" x="140" y="-88.5" font-family="Helvetica,sans-Serif" font-size="10.00">QWidget</text>
</a>
</g>
<!-- Node1&#45;&gt;Node23 -->
<g id="edge56" class="edge"><title>Node1&#45;&gt;Node23</title>
<path fill="none" stroke="midnightblue" d="M63.2896,-118.154C79.1584,-112.537 97.477,-106.052 112.233,-100.829"/>
<polygon fill="midnightblue" stroke="midnightblue" points="62.0383,-114.884 53.7794,-121.521 64.3742,-121.483 62.0383,-114.884"/>
</g>
<!-- Node28 -->
<g id="node61" class="node"><title>Node28</title>
<a xlink:href="class_world.html" target="_top" xlink:title="World">
<polygon fill="white" stroke="black" points="119,-40.5 119,-61.5 161,-61.5 161,-40.5 119,-40.5"/>
<text text-anchor="middle" x="140" y="-48.5" font-family="Helvetica,sans-Serif" font-size="10.00">World</text>
</a>
</g>
<!-- Node1&#45;&gt;Node28 -->
<g id="edge66" class="edge"><title>Node1&#45;&gt;Node28</title>
<path fill="none" stroke="midnightblue" d="M43.1532,-113.024C55.5394,-100.049 73.5848,-82.8063 92,-71 100.208,-65.7377 110.033,-61.3559 118.651,-58.0483"/>
<polygon fill="midnightblue" stroke="midnightblue" points="40.4767,-110.762 36.2197,-120.464 45.5978,-115.535 40.4767,-110.762"/>
</g>
<!-- Node29 -->
<g id="node63" class="node"><title>Node29</title>
<a xlink:href="class_zone.html" target="_top" xlink:title="Zone">
<polygon fill="white" stroke="black" points="121,-0.5 121,-21.5 159,-21.5 159,-0.5 121,-0.5"/>
<text text-anchor="middle" x="140" y="-8.5" font-family="Helvetica,sans-Serif" font-size="10.00">Zone</text>
</a>
</g>
<!-- Node1&#45;&gt;Node29 -->
<g id="edge68" class="edge"><title>Node1&#45;&gt;Node29</title>
<path fill="none" stroke="midnightblue" d="M35.4044,-111.316C45.7802,-89.1027 65.3739,-53.1825 92,-31 100.323,-24.0658 111.39,-19.2378 120.8,-16.0652"/>
<polygon fill="midnightblue" stroke="midnightblue" points="32.2021,-109.904 31.2936,-120.46 38.5865,-112.774 32.2021,-109.904"/>
</g>
<!-- Node3 -->
<g id="node5" class="node"><title>Node3</title>
<a xlink:href="class_geo_base.html" target="_top" xlink:title="Base pour la classe Geometry. ">
<polygon fill="white" stroke="black" points="243.5,-314.5 243.5,-335.5 300.5,-335.5 300.5,-314.5 243.5,-314.5"/>
<text text-anchor="middle" x="272" y="-322.5" font-family="Helvetica,sans-Serif" font-size="10.00">GeoBase</text>
</a>
</g>
<!-- Node2&#45;&gt;Node3 -->
<g id="edge4" class="edge"><title>Node2&#45;&gt;Node3</title>
<path fill="none" stroke="midnightblue" d="M167.777,-266.572C193.413,-280.944 230.79,-301.897 253.123,-314.417"/>
<polygon fill="midnightblue" stroke="midnightblue" points="169.347,-263.44 158.912,-261.602 165.924,-269.545 169.347,-263.44"/>
</g>
<!-- Node17 -->
<g id="node39" class="node"><title>Node17</title>
<a xlink:href="class_group.html" target="_top" xlink:title="Groupe de geometries. ">
<polygon fill="white" stroke="black" points="250.5,-240.5 250.5,-261.5 293.5,-261.5 293.5,-240.5 250.5,-240.5"/>
<text text-anchor="middle" x="272" y="-248.5" font-family="Helvetica,sans-Serif" font-size="10.00">Group</text>
</a>
</g>
<!-- Node2&#45;&gt;Node17 -->
<g id="edge44" class="edge"><title>Node2&#45;&gt;Node17</title>
<path fill="none" stroke="midnightblue" d="M170.233,-251C194.726,-251 228.634,-251 250.445,-251"/>
<polygon fill="midnightblue" stroke="midnightblue" points="170.048,-247.5 160.048,-251 170.048,-254.5 170.048,-247.5"/>
</g>
<!-- Node18 -->
<g id="node41" class="node"><title>Node18</title>
<a xlink:href="class_light.html" target="_top" xlink:title="Light">
<polygon fill="white" stroke="black" points="253,-172.5 253,-193.5 291,-193.5 291,-172.5 253,-172.5"/>
<text text-anchor="middle" x="272" y="-180.5" font-family="Helvetica,sans-Serif" font-size="10.00">Light</text>
</a>
</g>
<!-- Node2&#45;&gt;Node18 -->
<g id="edge46" class="edge"><title>Node2&#45;&gt;Node18</title>
<path fill="none" stroke="midnightblue" d="M169.657,-239.321C175.785,-236.72 182.152,-233.875 188,-231 211.815,-219.291 238.231,-203.751 254.965,-193.569"/>
<polygon fill="midnightblue" stroke="midnightblue" points="168.235,-236.122 160.333,-243.18 170.912,-242.59 168.235,-236.122"/>
</g>
<!-- Node4 -->
<g id="node7" class="node"><title>Node4</title>
<a xlink:href="class_geometry.html" target="_top" xlink:title="Base de toutes les géometries. ">
<polygon fill="white" stroke="black" points="356,-353.5 356,-374.5 456,-374.5 456,-353.5 356,-353.5"/>
<text text-anchor="middle" x="406" y="-361.5" font-family="Helvetica,sans-Serif" font-size="10.00">Geometry&lt; Child &gt;</text>
</a>
</g>
<!-- Node3&#45;&gt;Node4 -->
<g id="edge6" class="edge"><title>Node3&#45;&gt;Node4</title>
<path fill="none" stroke="midnightblue" d="M310.394,-336.174C329.022,-341.596 351.282,-348.075 369.634,-353.416"/>
<polygon fill="midnightblue" stroke="midnightblue" points="311.326,-332.8 300.746,-333.366 309.37,-339.522 311.326,-332.8"/>
</g>
<!-- Node5 -->
<g id="node9" class="node"><title>Node5</title>
<a xlink:href="class_geometry.html" target="_top" xlink:title="Geometry\&lt; Cube \&gt;">
<polygon fill="white" stroke="black" points="565.5,-349.5 565.5,-370.5 666.5,-370.5 666.5,-349.5 565.5,-349.5"/>
<text text-anchor="middle" x="616" y="-357.5" font-family="Helvetica,sans-Serif" font-size="10.00">Geometry&lt; Cube &gt;</text>
</a>
</g>
<!-- Node3&#45;&gt;Node5 -->
<g id="edge32" class="edge"><title>Node3&#45;&gt;Node5</title>
<path fill="none" stroke="midnightblue" d="M310.932,-319.959C363.238,-314.324 458.787,-308.042 538,-325 543.805,-326.243 572.823,-339.604 593.769,-349.45"/>
<polygon fill="midnightblue" stroke="midnightblue" points="310.301,-316.508 300.757,-321.107 311.086,-323.464 310.301,-316.508"/>
</g>
<!-- Node7 -->
<g id="node13" class="node"><title>Node7</title>
<a xlink:href="class_geometry.html" target="_top" xlink:title="Geometry\&lt; Line \&gt;">
<polygon fill="white" stroke="black" points="568.5,-509.5 568.5,-530.5 663.5,-530.5 663.5,-509.5 568.5,-509.5"/>
<text text-anchor="middle" x="616" y="-517.5" font-family="Helvetica,sans-Serif" font-size="10.00">Geometry&lt; Line &gt;</text>
</a>
</g>
<!-- Node3&#45;&gt;Node7 -->
<g id="edge36" class="edge"><title>Node3&#45;&gt;Node7</title>
<path fill="none" stroke="midnightblue" d="M277.855,-345.709C288.239,-378.826 312.944,-443.755 356,-481 414.944,-531.988 510.926,-532.309 568.315,-526.869"/>
<polygon fill="midnightblue" stroke="midnightblue" points="281.103,-344.356 274.877,-335.784 274.399,-346.368 281.103,-344.356"/>
</g>
<!-- Node9 -->
<g id="node17" class="node"><title>Node9</title>
<a xlink:href="class_geometry.html" target="_top" xlink:title="Geometry\&lt; Sphere \&gt;">
<polygon fill="white" stroke="black" points="562,-459.5 562,-480.5 670,-480.5 670,-459.5 562,-459.5"/>
<text text-anchor="middle" x="616" y="-467.5" font-family="Helvetica,sans-Serif" font-size="10.00">Geometry&lt; Sphere &gt;</text>
</a>
</g>
<!-- Node3&#45;&gt;Node9 -->
<g id="edge40" class="edge"><title>Node3&#45;&gt;Node9</title>
<path fill="none" stroke="midnightblue" d="M284.053,-344.328C299.004,-367.29 326.19,-405.891 356,-433 401.974,-474.808 414.332,-490.642 474,-508 501.312,-515.945 510.283,-514.392 538,-508 541.046,-507.298 572.938,-491.528 594.986,-480.527"/>
<polygon fill="midnightblue" stroke="midnightblue" points="286.934,-342.336 278.595,-335.799 281.037,-346.109 286.934,-342.336"/>
</g>
<!-- Node11 -->
<g id="node21" class="node"><title>Node11</title>
<a xlink:href="class_geometry.html" target="_top" xlink:title="Geometry\&lt; Cylinder \&gt;">
<polygon fill="white" stroke="black" points="559.5,-224.5 559.5,-245.5 672.5,-245.5 672.5,-224.5 559.5,-224.5"/>
<text text-anchor="middle" x="616" y="-232.5" font-family="Helvetica,sans-Serif" font-size="10.00">Geometry&lt; Cylinder &gt;</text>
</a>
</g>
<!-- Node3&#45;&gt;Node11 -->
<g id="edge34" class="edge"><title>Node3&#45;&gt;Node11</title>
<path fill="none" stroke="midnightblue" d="M287.123,-306.524C302.462,-289.275 327.896,-264.515 356,-253 421.943,-225.981 505.159,-225.394 559.433,-228.944"/>
<polygon fill="midnightblue" stroke="midnightblue" points="284.304,-304.434 280.436,-314.297 289.61,-308.999 284.304,-304.434"/>
</g>
<!-- Node13 -->
<g id="node25" class="node"><title>Node13</title>
<a xlink:href="class_geometry.html" target="_top" xlink:title="Geometry\&lt; Pyramide \&gt;">
<polygon fill="white" stroke="black" points="556.5,-301.5 556.5,-322.5 675.5,-322.5 675.5,-301.5 556.5,-301.5"/>
<text text-anchor="middle" x="616" y="-309.5" font-family="Helvetica,sans-Serif" font-size="10.00">Geometry&lt; Pyramide &gt;</text>
</a>
</g>
<!-- Node3&#45;&gt;Node13 -->
<g id="edge38" class="edge"><title>Node3&#45;&gt;Node13</title>
<path fill="none" stroke="midnightblue" d="M291.115,-307.769C303.103,-298.061 319.392,-286.757 336,-281 420.909,-251.564 450.644,-250.907 538,-272 561.373,-277.644 585.607,-291.558 600.736,-301.384"/>
<polygon fill="midnightblue" stroke="midnightblue" points="288.582,-305.326 283.202,-314.453 293.1,-310.673 288.582,-305.326"/>
</g>
<!-- Node15 -->
<g id="node29" class="node"><title>Node15</title>
<a xlink:href="class_geometry.html" target="_top" xlink:title="Geometry\&lt; Trigger \&gt;">
<polygon fill="white" stroke="black" points="562.5,-399.5 562.5,-420.5 669.5,-420.5 669.5,-399.5 562.5,-399.5"/>
<text text-anchor="middle" x="616" y="-407.5" font-family="Helvetica,sans-Serif" font-size="10.00">Geometry&lt; Trigger &gt;</text>
</a>
</g>
<!-- Node3&#45;&gt;Node15 -->
<g id="edge42" class="edge"><title>Node3&#45;&gt;Node15</title>
<path fill="none" stroke="midnightblue" d="M291.271,-342.604C325.153,-372.159 398.949,-430.437 474,-450 501.525,-457.175 510.35,-456.676 538,-450 561.373,-444.356 585.607,-430.442 600.736,-420.616"/>
<polygon fill="midnightblue" stroke="midnightblue" points="293.345,-339.766 283.541,-335.751 288.701,-345.003 293.345,-339.766"/>
</g>
<!-- Node4&#45;&gt;Node5 -->
<g id="edge8" class="edge"><title>Node4&#45;&gt;Node5</title>
<path fill="none" stroke="orange" stroke-dasharray="5,2" d="M466.379,-362.85C497.68,-362.254 535.482,-361.534 565.257,-360.967"/>
<polygon fill="orange" stroke="orange" points="465.965,-359.357 456.033,-363.047 466.098,-366.356 465.965,-359.357"/>
<text text-anchor="middle" x="506" y="-366" font-family="Helvetica,sans-Serif" font-size="10.00"> &lt; Cube &gt;</text>
</g>
<!-- Node4&#45;&gt;Node7 -->
<g id="edge12" class="edge"><title>Node4&#45;&gt;Node7</title>
<path fill="none" stroke="orange" stroke-dasharray="5,2" d="M416.624,-383.523C428.405,-403.658 449.075,-434.878 474,-455 506.172,-480.972 550.404,-499.067 580.912,-509.453"/>
<polygon fill="orange" stroke="orange" points="419.555,-381.595 411.575,-374.626 413.467,-385.05 419.555,-381.595"/>
<text text-anchor="middle" x="506" y="-495" font-family="Helvetica,sans-Serif" font-size="10.00"> &lt; Line &gt;</text>
</g>
<!-- Node4&#45;&gt;Node9 -->
<g id="edge16" class="edge"><title>Node4&#45;&gt;Node9</title>
<path fill="none" stroke="orange" stroke-dasharray="5,2" d="M428.674,-380.484C441.604,-389.501 458.313,-400.528 474,-409 511.892,-429.463 558.087,-448.245 587.279,-459.41"/>
<polygon fill="orange" stroke="orange" points="430.571,-377.538 420.386,-374.618 426.527,-383.251 430.571,-377.538"/>
<text text-anchor="middle" x="506" y="-442" font-family="Helvetica,sans-Serif" font-size="10.00"> &lt; Sphere &gt;</text>
</g>
<!-- Node4&#45;&gt;Node11 -->
<g id="edge20" class="edge"><title>Node4&#45;&gt;Node11</title>
<path fill="none" stroke="orange" stroke-dasharray="5,2" d="M426.553,-346.939C439.734,-336.34 457.425,-322.738 474,-312 514.718,-285.621 565.252,-259.73 593.739,-245.715"/>
<polygon fill="orange" stroke="orange" points="424.147,-344.385 418.599,-353.411 428.565,-349.815 424.147,-344.385"/>
<text text-anchor="middle" x="506" y="-316" font-family="Helvetica,sans-Serif" font-size="10.00"> &lt; Cylinder &gt;</text>
</g>
<!-- Node4&#45;&gt;Node13 -->
<g id="edge24" class="edge"><title>Node4&#45;&gt;Node13</title>
<path fill="none" stroke="orange" stroke-dasharray="5,2" d="M449.737,-350.685C457.781,-348.365 466.125,-346.043 474,-344 504.21,-336.162 538.319,-328.439 565.536,-322.544"/>
<polygon fill="orange" stroke="orange" points="448.741,-347.33 440.125,-353.496 450.705,-354.049 448.741,-347.33"/>
<text text-anchor="middle" x="506" y="-348" font-family="Helvetica,sans-Serif" font-size="10.00"> &lt; Pyramide &gt;</text>
</g>
<!-- Node4&#45;&gt;Node15 -->
<g id="edge28" class="edge"><title>Node4&#45;&gt;Node15</title>
<path fill="none" stroke="orange" stroke-dasharray="5,2" d="M464.066,-376.719C496.779,-383.885 537.145,-392.727 568.046,-399.496"/>
<polygon fill="orange" stroke="orange" points="464.696,-373.274 454.178,-374.553 463.198,-380.112 464.696,-373.274"/>
<text text-anchor="middle" x="506" y="-396" font-family="Helvetica,sans-Serif" font-size="10.00"> &lt; Trigger &gt;</text>
</g>
<!-- Node6 -->
<g id="node11" class="node"><title>Node6</title>
<a xlink:href="class_cube.html" target="_top" xlink:title="Un simple cube. ">
<polygon fill="white" stroke="black" points="723,-349.5 723,-370.5 763,-370.5 763,-349.5 723,-349.5"/>
<text text-anchor="middle" x="743" y="-357.5" font-family="Helvetica,sans-Serif" font-size="10.00">Cube</text>
</a>
</g>
<!-- Node5&#45;&gt;Node6 -->
<g id="edge10" class="edge"><title>Node5&#45;&gt;Node6</title>
<path fill="none" stroke="midnightblue" d="M676.801,-360C693.366,-360 710.176,-360 722.712,-360"/>
<polygon fill="midnightblue" stroke="midnightblue" points="676.559,-356.5 666.559,-360 676.559,-363.5 676.559,-356.5"/>
</g>
<!-- Node8 -->
<g id="node15" class="node"><title>Node8</title>
<a xlink:href="class_line.html" target="_top" xlink:title="Line">
<polygon fill="white" stroke="black" points="725.5,-509.5 725.5,-530.5 760.5,-530.5 760.5,-509.5 725.5,-509.5"/>
<text text-anchor="middle" x="743" y="-517.5" font-family="Helvetica,sans-Serif" font-size="10.00">Line</text>
</a>
</g>
<!-- Node7&#45;&gt;Node8 -->
<g id="edge14" class="edge"><title>Node7&#45;&gt;Node8</title>
<path fill="none" stroke="midnightblue" d="M673.896,-520C692.531,-520 711.815,-520 725.261,-520"/>
<polygon fill="midnightblue" stroke="midnightblue" points="673.651,-516.5 663.651,-520 673.651,-523.5 673.651,-516.5"/>
</g>
<!-- Node10 -->
<g id="node19" class="node"><title>Node10</title>
<a xlink:href="class_sphere.html" target="_top" xlink:title="Une simple sphere. ">
<polygon fill="white" stroke="black" points="719.5,-459.5 719.5,-480.5 766.5,-480.5 766.5,-459.5 719.5,-459.5"/>
<text text-anchor="middle" x="743" y="-467.5" font-family="Helvetica,sans-Serif" font-size="10.00">Sphere</text>
</a>
</g>
<!-- Node9&#45;&gt;Node10 -->
<g id="edge18" class="edge"><title>Node9&#45;&gt;Node10</title>
<path fill="none" stroke="midnightblue" d="M680.329,-470C694.24,-470 708.098,-470 719.232,-470"/>
<polygon fill="midnightblue" stroke="midnightblue" points="680.228,-466.5 670.228,-470 680.228,-473.5 680.228,-466.5"/>
</g>
<!-- Node12 -->
<g id="node23" class="node"><title>Node12</title>
<a xlink:href="class_cylinder.html" target="_top" xlink:title="Cylinder">
<polygon fill="white" stroke="black" points="716.5,-224.5 716.5,-245.5 769.5,-245.5 769.5,-224.5 716.5,-224.5"/>
<text text-anchor="middle" x="743" y="-232.5" font-family="Helvetica,sans-Serif" font-size="10.00">Cylinder</text>
</a>
</g>
<!-- Node11&#45;&gt;Node12 -->
<g id="edge22" class="edge"><title>Node11&#45;&gt;Node12</title>
<path fill="none" stroke="midnightblue" d="M682.819,-235C694.731,-235 706.487,-235 716.403,-235"/>
<polygon fill="midnightblue" stroke="midnightblue" points="682.814,-231.5 672.814,-235 682.814,-238.5 682.814,-231.5"/>
</g>
<!-- Node14 -->
<g id="node27" class="node"><title>Node14</title>
<a xlink:href="class_pyramide.html" target="_top" xlink:title="Pyramide">
<polygon fill="white" stroke="black" points="714,-301.5 714,-322.5 772,-322.5 772,-301.5 714,-301.5"/>
<text text-anchor="middle" x="743" y="-309.5" font-family="Helvetica,sans-Serif" font-size="10.00">Pyramide</text>
</a>
</g>
<!-- Node13&#45;&gt;Node14 -->
<g id="edge26" class="edge"><title>Node13&#45;&gt;Node14</title>
<path fill="none" stroke="midnightblue" d="M686.035,-312C695.84,-312 705.435,-312 713.871,-312"/>
<polygon fill="midnightblue" stroke="midnightblue" points="685.781,-308.5 675.781,-312 685.781,-315.5 685.781,-308.5"/>
</g>
<!-- Node16 -->
<g id="node31" class="node"><title>Node16</title>
<a xlink:href="class_trigger.html" target="_top" xlink:title="Trigger">
<polygon fill="white" stroke="black" points="719.5,-399.5 719.5,-420.5 766.5,-420.5 766.5,-399.5 719.5,-399.5"/>
<text text-anchor="middle" x="743" y="-407.5" font-family="Helvetica,sans-Serif" font-size="10.00">Trigger</text>
</a>
</g>
<!-- Node15&#45;&gt;Node16 -->
<g id="edge30" class="edge"><title>Node15&#45;&gt;Node16</title>
<path fill="none" stroke="midnightblue" d="M680.073,-410C694.144,-410 708.178,-410 719.41,-410"/>
<polygon fill="midnightblue" stroke="midnightblue" points="679.859,-406.5 669.859,-410 679.859,-413.5 679.859,-406.5"/>
</g>
<!-- Node19 -->
<g id="node43" class="node"><title>Node19</title>
<a xlink:href="class_spotlight.html" target="_top" xlink:title="Spotlight">
<polygon fill="white" stroke="black" points="378.5,-153.5 378.5,-174.5 433.5,-174.5 433.5,-153.5 378.5,-153.5"/>
<text text-anchor="middle" x="406" y="-161.5" font-family="Helvetica,sans-Serif" font-size="10.00">Spotlight</text>
</a>
</g>
<!-- Node18&#45;&gt;Node19 -->
<g id="edge48" class="edge"><title>Node18&#45;&gt;Node19</title>
<path fill="none" stroke="midnightblue" d="M301.377,-178.835C324.328,-175.58 355.996,-171.09 378.464,-167.904"/>
<polygon fill="midnightblue" stroke="midnightblue" points="300.609,-175.408 291.199,-180.278 301.591,-182.339 300.609,-175.408"/>
</g>
<!-- Node24 -->
<g id="node53" class="node"><title>Node24</title>
<a xlink:href="class_q_main_window.html" target="_top" xlink:title="QMainWindow">
<polygon fill="white" stroke="black" points="232,-64.5 232,-85.5 312,-85.5 312,-64.5 232,-64.5"/>
<text text-anchor="middle" x="272" y="-72.5" font-family="Helvetica,sans-Serif" font-size="10.00">QMainWindow</text>
</a>
</g>
<!-- Node23&#45;&gt;Node24 -->
<g id="edge58" class="edge"><title>Node23&#45;&gt;Node24</title>
<path fill="none" stroke="midnightblue" d="M177.759,-86.4231C194.678,-84.3724 214.648,-81.9518 231.84,-79.8679"/>
<polygon fill="midnightblue" stroke="midnightblue" points="177.178,-82.9679 167.672,-87.6459 178.02,-89.917 177.178,-82.9679"/>
</g>
<!-- Node26 -->
<g id="node57" class="node"><title>Node26</title>
<a xlink:href="class_q_open_g_l_widget.html" target="_top" xlink:title="QOpenGLWidget">
<polygon fill="white" stroke="black" points="226.5,-104.5 226.5,-125.5 317.5,-125.5 317.5,-104.5 226.5,-104.5"/>
<text text-anchor="middle" x="272" y="-112.5" font-family="Helvetica,sans-Serif" font-size="10.00">QOpenGLWidget</text>
</a>
</g>
<!-- Node23&#45;&gt;Node26 -->
<g id="edge62" class="edge"><title>Node23&#45;&gt;Node26</title>
<path fill="none" stroke="midnightblue" d="M177.736,-97.8611C192.916,-100.621 210.555,-103.828 226.441,-106.717"/>
<polygon fill="midnightblue" stroke="midnightblue" points="178.136,-94.3766 167.672,-96.0312 176.884,-101.264 178.136,-94.3766"/>
</g>
<!-- Node25 -->
<g id="node55" class="node"><title>Node25</title>
<a xlink:href="class_main_window.html" target="_top" xlink:title="Fenetre principale. ">
<polygon fill="white" stroke="black" points="369.5,-64.5 369.5,-85.5 442.5,-85.5 442.5,-64.5 369.5,-64.5"/>
<text text-anchor="middle" x="406" y="-72.5" font-family="Helvetica,sans-Serif" font-size="10.00">MainWindow</text>
</a>
</g>
<!-- Node24&#45;&gt;Node25 -->
<g id="edge60" class="edge"><title>Node24&#45;&gt;Node25</title>
<path fill="none" stroke="midnightblue" d="M322.278,-75C337.953,-75 354.933,-75 369.478,-75"/>
<polygon fill="midnightblue" stroke="midnightblue" points="322.204,-71.5001 312.204,-75 322.204,-78.5001 322.204,-71.5001"/>
</g>
<!-- Node27 -->
<g id="node59" class="node"><title>Node27</title>
<a xlink:href="class_viewport.html" target="_top" xlink:title="Cadre de vue 3D. ">
<polygon fill="white" stroke="black" points="378.5,-104.5 378.5,-125.5 433.5,-125.5 433.5,-104.5 378.5,-104.5"/>
<text text-anchor="middle" x="406" y="-112.5" font-family="Helvetica,sans-Serif" font-size="10.00">Viewport</text>
</a>
</g>
<!-- Node26&#45;&gt;Node27 -->
<g id="edge64" class="edge"><title>Node26&#45;&gt;Node27</title>
<path fill="none" stroke="midnightblue" d="M327.861,-115C345.317,-115 363.81,-115 378.422,-115"/>
<polygon fill="midnightblue" stroke="midnightblue" points="327.74,-111.5 317.74,-115 327.74,-118.5 327.74,-111.5"/>
</g>
</g>
</svg>
