<?xml version="1.0" encoding="UTF-8" standalone="no"?>
<!DOCTYPE svg PUBLIC "-//W3C//DTD SVG 1.1//EN"
 "http://www.w3.org/Graphics/SVG/1.1/DTD/svg11.dtd">
<!-- Generated by graphviz version 2.26.3 (20100126.1600)
 -->
<!-- Title: Sphere Pages: 1 -->
<svg width="163pt" height="342pt"
 viewBox="0.00 0.00 163.00 342.00" xmlns="http://www.w3.org/2000/svg" xmlns:xlink="http://www.w3.org/1999/xlink">
<g id="graph1" class="graph" transform="scale(1 1) rotate(0) translate(4 338)">
<title>Sphere</title>
<polygon fill="white" stroke="white" points="-4,5 -4,-338 160,-338 160,5 -4,5"/>
<!-- Node1 -->
<g id="node1" class="node"><title>Node1</title>
<polygon fill="#bfbfbf" stroke="black" points="30.5,-0.5 30.5,-21.5 77.5,-21.5 77.5,-0.5 30.5,-0.5"/>
<text text-anchor="middle" x="54" y="-8.5" font-family="Helvetica,sans-Serif" font-size="10.00">Sphere</text>
</g>
<!-- Node2 -->
<g id="node2" class="node"><title>Node2</title>
<a xlink:href="class_geometry.html" target="_top" xlink:title="Geometry\&lt; Sphere \&gt;">
<polygon fill="white" stroke="black" points="0,-60.5 0,-81.5 108,-81.5 108,-60.5 0,-60.5"/>
<text text-anchor="middle" x="54" y="-68.5" font-family="Helvetica,sans-Serif" font-size="10.00">Geometry&lt; Sphere &gt;</text>
</a>
</g>
<!-- Node2&#45;&gt;Node1 -->
<g id="edge2" class="edge"><title>Node2&#45;&gt;Node1</title>
<path fill="none" stroke="midnightblue" d="M54,-50.2312C54,-40.5922 54,-29.5444 54,-21.6339"/>
<polygon fill="midnightblue" stroke="midnightblue" points="50.5001,-50.2732 54,-60.2732 57.5001,-50.2732 50.5001,-50.2732"/>
</g>
<!-- Node3 -->
<g id="node4" class="node"><title>Node3</title>
<a xlink:href="class_geo_base.html" target="_top" xlink:title="Base pour la classe Geometry. ">
<polygon fill="white" stroke="black" points="10.5,-192.5 10.5,-213.5 67.5,-213.5 67.5,-192.5 10.5,-192.5"/>
<text text-anchor="middle" x="39" y="-200.5" font-family="Helvetica,sans-Serif" font-size="10.00">GeoBase</text>
</a>
</g>
<!-- Node3&#45;&gt;Node2 -->
<g id="edge4" class="edge"><title>Node3&#45;&gt;Node2</title>
<path fill="none" stroke="midnightblue" d="M40.8679,-182.258C42.1873,-168.09 44.0598,-148.895 46,-132 48.0229,-114.385 50.7861,-93.966 52.479,-81.7857"/>
<polygon fill="midnightblue" stroke="midnightblue" points="37.3655,-182.125 39.9377,-192.403 44.3362,-182.765 37.3655,-182.125"/>
</g>
<!-- Node6 -->
<g id="node10" class="node"><title>Node6</title>
<a xlink:href="class_geometry.html" target="_top" xlink:title="Base de toutes les géometries. ">
<polygon fill="white" stroke="black" points="55,-132.5 55,-153.5 155,-153.5 155,-132.5 55,-132.5"/>
<text text-anchor="middle" x="105" y="-140.5" font-family="Helvetica,sans-Serif" font-size="10.00">Geometry&lt; Child &gt;</text>
</a>
</g>
<!-- Node3&#45;&gt;Node6 -->
<g id="edge12" class="edge"><title>Node3&#45;&gt;Node6</title>
<path fill="none" stroke="midnightblue" d="M58.4853,-185.286C69.7953,-175.004 83.6655,-162.395 93.3027,-153.634"/>
<polygon fill="midnightblue" stroke="midnightblue" points="55.8445,-182.957 50.7995,-192.273 60.5533,-188.136 55.8445,-182.957"/>
</g>
<!-- Node4 -->
<g id="node6" class="node"><title>Node4</title>
<a xlink:href="class_actor.html" target="_top" xlink:title="Base de tous les objets de la scène. ">
<polygon fill="white" stroke="black" points="19,-252.5 19,-273.5 59,-273.5 59,-252.5 19,-252.5"/>
<text text-anchor="middle" x="39" y="-260.5" font-family="Helvetica,sans-Serif" font-size="10.00">Actor</text>
</a>
</g>
<!-- Node4&#45;&gt;Node3 -->
<g id="edge6" class="edge"><title>Node4&#45;&gt;Node3</title>
<path fill="none" stroke="midnightblue" d="M39,-242.231C39,-232.592 39,-221.544 39,-213.634"/>
<polygon fill="midnightblue" stroke="midnightblue" points="35.5001,-242.273 39,-252.273 42.5001,-242.273 35.5001,-242.273"/>
</g>
<!-- Node5 -->
<g id="node8" class="node"><title>Node5</title>
<a xlink:href="class_q_object.html" target="_top" xlink:title="QObject">
<polygon fill="white" stroke="black" points="12.5,-312.5 12.5,-333.5 65.5,-333.5 65.5,-312.5 12.5,-312.5"/>
<text text-anchor="middle" x="39" y="-320.5" font-family="Helvetica,sans-Serif" font-size="10.00">QObject</text>
</a>
</g>
<!-- Node5&#45;&gt;Node4 -->
<g id="edge8" class="edge"><title>Node5&#45;&gt;Node4</title>
<path fill="none" stroke="midnightblue" d="M39,-302.231C39,-292.592 39,-281.544 39,-273.634"/>
<polygon fill="midnightblue" stroke="midnightblue" points="35.5001,-302.273 39,-312.273 42.5001,-302.273 35.5001,-302.273"/>
</g>
<!-- Node6&#45;&gt;Node2 -->
<g id="edge10" class="edge"><title>Node6&#45;&gt;Node2</title>
<path fill="none" stroke="orange" stroke-dasharray="5,2" d="M91.682,-124.198C82.0847,-110.649 69.4781,-92.8514 61.5561,-81.6674"/>
<polygon fill="orange" stroke="orange" points="88.8385,-126.239 97.4748,-132.376 94.5507,-122.193 88.8385,-126.239"/>
<text text-anchor="middle" x="110" y="-104.5" font-family="Helvetica,sans-Serif" font-size="10.00"> &lt; Sphere &gt;</text>
</g>
</g>
</svg>
