<?xml version="1.0" encoding="UTF-8" standalone="no"?>
<!DOCTYPE svg PUBLIC "-//W3C//DTD SVG 1.1//EN"
 "http://www.w3.org/Graphics/SVG/1.1/DTD/svg11.dtd">
<!-- Generated by graphviz version 2.26.3 (20100126.1600)
 -->
<!-- Title: Actor::orientation Pages: 1 -->
<svg width="368pt" height="82pt"
 viewBox="0.00 0.00 368.00 82.00" xmlns="http://www.w3.org/2000/svg" xmlns:xlink="http://www.w3.org/1999/xlink">
<g id="graph1" class="graph" transform="scale(1 1) rotate(0) translate(4 78)">
<title>Actor::orientation</title>
<polygon fill="white" stroke="white" points="-4,5 -4,-78 365,-78 365,5 -4,5"/>
<!-- Node1 -->
<g id="node1" class="node"><title>Node1</title>
<polygon fill="#bfbfbf" stroke="black" points="0.5,-23.5 0.5,-44.5 91.5,-44.5 91.5,-23.5 0.5,-23.5"/>
<text text-anchor="middle" x="46" y="-31.5" font-family="Helvetica,sans-Serif" font-size="10.00">Actor::orientation</text>
</g>
<!-- Node2 -->
<g id="node3" class="node"><title>Node2</title>
<a xlink:href="class_actor.html#abbf942f60996c5df2a8c0a832bd91abc" target="_top" xlink:title="Actor::transform">
<polygon fill="white" stroke="black" points="128.5,-23.5 128.5,-44.5 215.5,-44.5 215.5,-23.5 128.5,-23.5"/>
<text text-anchor="middle" x="172" y="-31.5" font-family="Helvetica,sans-Serif" font-size="10.00">Actor::transform</text>
</a>
</g>
<!-- Node1&#45;&gt;Node2 -->
<g id="edge2" class="edge"><title>Node1&#45;&gt;Node2</title>
<path fill="none" stroke="midnightblue" d="M102.108,-34C110.958,-34 119.991,-34 128.499,-34"/>
<polygon fill="midnightblue" stroke="midnightblue" points="101.845,-30.5001 91.8453,-34 101.845,-37.5001 101.845,-30.5001"/>
</g>
<!-- Node3 -->
<g id="node5" class="node"><title>Node3</title>
<a xlink:href="class_geometry.html#aadfed02c20dfb9306bcf5616e7bf1f43" target="_top" xlink:title="Geometry\&lt; Sphere \&gt;\l::draw">
<polygon fill="white" stroke="black" points="252,-40 252,-74 360,-74 360,-40 252,-40"/>
<text text-anchor="start" x="260" y="-61" font-family="Helvetica,sans-Serif" font-size="10.00">Geometry&lt; Sphere &gt;</text>
<text text-anchor="middle" x="306" y="-48" font-family="Helvetica,sans-Serif" font-size="10.00">::draw</text>
</a>
</g>
<!-- Node2&#45;&gt;Node3 -->
<g id="edge4" class="edge"><title>Node2&#45;&gt;Node3</title>
<path fill="none" stroke="midnightblue" d="M225.526,-43.1873C234.216,-44.6789 243.222,-46.2247 251.926,-47.7186"/>
<polygon fill="midnightblue" stroke="midnightblue" points="225.954,-39.7096 215.506,-41.4674 224.77,-46.6088 225.954,-39.7096"/>
</g>
<!-- Node4 -->
<g id="node7" class="node"><title>Node4</title>
<a xlink:href="class_group.html#af8d7df31c5fe4f8e22bd022c8735b6b2" target="_top" xlink:title="Group::draw">
<polygon fill="white" stroke="black" points="271,-0.5 271,-21.5 341,-21.5 341,-0.5 271,-0.5"/>
<text text-anchor="middle" x="306" y="-8.5" font-family="Helvetica,sans-Serif" font-size="10.00">Group::draw</text>
</a>
</g>
<!-- Node2&#45;&gt;Node4 -->
<g id="edge6" class="edge"><title>Node2&#45;&gt;Node4</title>
<path fill="none" stroke="midnightblue" d="M225.794,-24.7666C240.929,-22.1689 257,-19.4104 270.751,-17.0503"/>
<polygon fill="midnightblue" stroke="midnightblue" points="224.77,-21.3912 215.506,-26.5326 225.954,-28.2904 224.77,-21.3912"/>
</g>
</g>
</svg>
