<?xml version="1.0" encoding="UTF-8" standalone="no"?>
<!DOCTYPE svg PUBLIC "-//W3C//DTD SVG 1.1//EN"
 "http://www.w3.org/Graphics/SVG/1.1/DTD/svg11.dtd">
<!-- Generated by graphviz version 2.26.3 (20100126.1600)
 -->
<!-- Title: Actor::position Pages: 1 -->
<svg width="356pt" height="82pt"
 viewBox="0.00 0.00 356.00 82.00" xmlns="http://www.w3.org/2000/svg" xmlns:xlink="http://www.w3.org/1999/xlink">
<g id="graph1" class="graph" transform="scale(1 1) rotate(0) translate(4 78)">
<title>Actor::position</title>
<polygon fill="white" stroke="white" points="-4,5 -4,-78 353,-78 353,5 -4,5"/>
<!-- Node1 -->
<g id="node1" class="node"><title>Node1</title>
<polygon fill="#bfbfbf" stroke="black" points="0,-23.5 0,-44.5 80,-44.5 80,-23.5 0,-23.5"/>
<text text-anchor="middle" x="40" y="-31.5" font-family="Helvetica,sans-Serif" font-size="10.00">Actor::position</text>
</g>
<!-- Node2 -->
<g id="node3" class="node"><title>Node2</title>
<a xlink:href="class_actor.html#abbf942f60996c5df2a8c0a832bd91abc" target="_top" xlink:title="Actor::transform">
<polygon fill="white" stroke="black" points="116.5,-23.5 116.5,-44.5 203.5,-44.5 203.5,-23.5 116.5,-23.5"/>
<text text-anchor="middle" x="160" y="-31.5" font-family="Helvetica,sans-Serif" font-size="10.00">Actor::transform</text>
</a>
</g>
<!-- Node1&#45;&gt;Node2 -->
<g id="edge2" class="edge"><title>Node1&#45;&gt;Node2</title>
<path fill="none" stroke="midnightblue" d="M90.5573,-34C99.1196,-34 107.945,-34 116.313,-34"/>
<polygon fill="midnightblue" stroke="midnightblue" points="90.2921,-30.5001 80.2921,-34 90.2921,-37.5001 90.2921,-30.5001"/>
</g>
<!-- Node3 -->
<g id="node5" class="node"><title>Node3</title>
<a xlink:href="class_geometry.html#aadfed02c20dfb9306bcf5616e7bf1f43" target="_top" xlink:title="Geometry\&lt; Sphere \&gt;\l::draw">
<polygon fill="white" stroke="black" points="240,-40 240,-74 348,-74 348,-40 240,-40"/>
<text text-anchor="start" x="248" y="-61" font-family="Helvetica,sans-Serif" font-size="10.00">Geometry&lt; Sphere &gt;</text>
<text text-anchor="middle" x="294" y="-48" font-family="Helvetica,sans-Serif" font-size="10.00">::draw</text>
</a>
</g>
<!-- Node2&#45;&gt;Node3 -->
<g id="edge4" class="edge"><title>Node2&#45;&gt;Node3</title>
<path fill="none" stroke="midnightblue" d="M213.526,-43.1873C222.216,-44.6789 231.222,-46.2247 239.926,-47.7186"/>
<polygon fill="midnightblue" stroke="midnightblue" points="213.954,-39.7096 203.506,-41.4674 212.77,-46.6088 213.954,-39.7096"/>
</g>
<!-- Node4 -->
<g id="node7" class="node"><title>Node4</title>
<a xlink:href="class_group.html#af8d7df31c5fe4f8e22bd022c8735b6b2" target="_top" xlink:title="Group::draw">
<polygon fill="white" stroke="black" points="259,-0.5 259,-21.5 329,-21.5 329,-0.5 259,-0.5"/>
<text text-anchor="middle" x="294" y="-8.5" font-family="Helvetica,sans-Serif" font-size="10.00">Group::draw</text>
</a>
</g>
<!-- Node2&#45;&gt;Node4 -->
<g id="edge6" class="edge"><title>Node2&#45;&gt;Node4</title>
<path fill="none" stroke="midnightblue" d="M213.794,-24.7666C228.929,-22.1689 245,-19.4104 258.751,-17.0503"/>
<polygon fill="midnightblue" stroke="midnightblue" points="212.77,-21.3912 203.506,-26.5326 213.954,-28.2904 212.77,-21.3912"/>
</g>
</g>
</svg>
