<?xml version="1.0" encoding="UTF-8" standalone="no"?>
<!DOCTYPE svg PUBLIC "-//W3C//DTD SVG 1.1//EN"
 "http://www.w3.org/Graphics/SVG/1.1/DTD/svg11.dtd">
<!-- Generated by graphviz version 2.26.3 (20100126.1600)
 -->
<!-- Title: QWidget Pages: 1 -->
<svg width="196pt" height="204pt"
 viewBox="0.00 0.00 196.00 204.00" xmlns="http://www.w3.org/2000/svg" xmlns:xlink="http://www.w3.org/1999/xlink">
<g id="graph1" class="graph" transform="scale(1 1) rotate(0) translate(4 200)">
<title>QWidget</title>
<polygon fill="white" stroke="white" points="-4,5 -4,-200 193,-200 193,5 -4,5"/>
<!-- Node1 -->
<g id="node1" class="node"><title>Node1</title>
<polygon fill="#bfbfbf" stroke="black" points="63.5,-116.5 63.5,-137.5 118.5,-137.5 118.5,-116.5 63.5,-116.5"/>
<text text-anchor="middle" x="91" y="-124.5" font-family="Helvetica,sans-Serif" font-size="10.00">QWidget</text>
</g>
<!-- Node3 -->
<g id="node5" class="node"><title>Node3</title>
<a xlink:href="class_q_main_window.html" target="_top" xlink:title="QMainWindow">
<polygon fill="white" stroke="black" points="0,-58.5 0,-79.5 80,-79.5 80,-58.5 0,-58.5"/>
<text text-anchor="middle" x="40" y="-66.5" font-family="Helvetica,sans-Serif" font-size="10.00">QMainWindow</text>
</a>
</g>
<!-- Node1&#45;&gt;Node3 -->
<g id="edge4" class="edge"><title>Node1&#45;&gt;Node3</title>
<path fill="none" stroke="midnightblue" d="M75.0229,-108.83C66.5621,-99.2078 56.4679,-87.7282 49.2949,-79.5707"/>
<polygon fill="midnightblue" stroke="midnightblue" points="72.414,-111.163 81.6458,-116.362 77.6708,-106.541 72.414,-111.163"/>
</g>
<!-- Node5 -->
<g id="node9" class="node"><title>Node5</title>
<a xlink:href="class_q_open_g_l_widget.html" target="_top" xlink:title="QOpenGLWidget">
<polygon fill="white" stroke="black" points="97.5,-58.5 97.5,-79.5 188.5,-79.5 188.5,-58.5 97.5,-58.5"/>
<text text-anchor="middle" x="143" y="-66.5" font-family="Helvetica,sans-Serif" font-size="10.00">QOpenGLWidget</text>
</a>
</g>
<!-- Node1&#45;&gt;Node5 -->
<g id="edge8" class="edge"><title>Node1&#45;&gt;Node5</title>
<path fill="none" stroke="midnightblue" d="M107.29,-108.83C115.917,-99.2078 126.209,-87.7282 133.523,-79.5707"/>
<polygon fill="midnightblue" stroke="midnightblue" points="104.607,-106.58 100.538,-116.362 109.819,-111.253 104.607,-106.58"/>
</g>
<!-- Node2 -->
<g id="node2" class="node"><title>Node2</title>
<a xlink:href="class_q_object.html" target="_top" xlink:title="QObject">
<polygon fill="white" stroke="black" points="64.5,-174.5 64.5,-195.5 117.5,-195.5 117.5,-174.5 64.5,-174.5"/>
<text text-anchor="middle" x="91" y="-182.5" font-family="Helvetica,sans-Serif" font-size="10.00">QObject</text>
</a>
</g>
<!-- Node2&#45;&gt;Node1 -->
<g id="edge2" class="edge"><title>Node2&#45;&gt;Node1</title>
<path fill="none" stroke="midnightblue" d="M91,-164.191C91,-155.168 91,-144.994 91,-137.571"/>
<polygon fill="midnightblue" stroke="midnightblue" points="87.5001,-164.362 91,-174.362 94.5001,-164.362 87.5001,-164.362"/>
</g>
<!-- Node4 -->
<g id="node7" class="node"><title>Node4</title>
<a xlink:href="class_main_window.html" target="_top" xlink:title="Fenetre principale. ">
<polygon fill="white" stroke="black" points="3.5,-0.5 3.5,-21.5 76.5,-21.5 76.5,-0.5 3.5,-0.5"/>
<text text-anchor="middle" x="40" y="-8.5" font-family="Helvetica,sans-Serif" font-size="10.00">MainWindow</text>
</a>
</g>
<!-- Node3&#45;&gt;Node4 -->
<g id="edge6" class="edge"><title>Node3&#45;&gt;Node4</title>
<path fill="none" stroke="midnightblue" d="M40,-48.1906C40,-39.1684 40,-28.9941 40,-21.5707"/>
<polygon fill="midnightblue" stroke="midnightblue" points="36.5001,-48.3619 40,-58.3619 43.5001,-48.3619 36.5001,-48.3619"/>
</g>
<!-- Node6 -->
<g id="node11" class="node"><title>Node6</title>
<a xlink:href="class_viewport.html" target="_top" xlink:title="Cadre de vue 3D. ">
<polygon fill="white" stroke="black" points="115.5,-0.5 115.5,-21.5 170.5,-21.5 170.5,-0.5 115.5,-0.5"/>
<text text-anchor="middle" x="143" y="-8.5" font-family="Helvetica,sans-Serif" font-size="10.00">Viewport</text>
</a>
</g>
<!-- Node5&#45;&gt;Node6 -->
<g id="edge10" class="edge"><title>Node5&#45;&gt;Node6</title>
<path fill="none" stroke="midnightblue" d="M143,-48.1906C143,-39.1684 143,-28.9941 143,-21.5707"/>
<polygon fill="midnightblue" stroke="midnightblue" points="139.5,-48.3619 143,-58.3619 146.5,-48.3619 139.5,-48.3619"/>
</g>
</g>
</svg>
