<?xml version="1.0" encoding="UTF-8" standalone="no"?>
<!DOCTYPE svg PUBLIC "-//W3C//DTD SVG 1.1//EN"
 "http://www.w3.org/Graphics/SVG/1.1/DTD/svg11.dtd">
<!-- Generated by graphviz version 2.26.3 (20100126.1600)
 -->
<!-- Title: Viewport::renderScene Pages: 1 -->
<svg width="530pt" height="150pt"
 viewBox="0.00 0.00 530.00 150.00" xmlns="http://www.w3.org/2000/svg" xmlns:xlink="http://www.w3.org/1999/xlink">
<g id="graph1" class="graph" transform="scale(1 1) rotate(0) translate(4 146)">
<title>Viewport::renderScene</title>
<polygon fill="white" stroke="white" points="-4,5 -4,-146 527,-146 527,5 -4,5"/>
<!-- Node1 -->
<g id="node1" class="node"><title>Node1</title>
<polygon fill="#bfbfbf" stroke="black" points="0,-60.5 0,-81.5 116,-81.5 116,-60.5 0,-60.5"/>
<text text-anchor="middle" x="58" y="-68.5" font-family="Helvetica,sans-Serif" font-size="10.00">Viewport::renderScene</text>
</g>
<!-- Node2 -->
<g id="node3" class="node"><title>Node2</title>
<a xlink:href="class_viewport.html#a5760eeac13c59b34bd8cc5ba638f9cbd" target="_top" xlink:title="Viewport::catchErrors">
<polygon fill="white" stroke="black" points="152.5,-120.5 152.5,-141.5 263.5,-141.5 263.5,-120.5 152.5,-120.5"/>
<text text-anchor="middle" x="208" y="-128.5" font-family="Helvetica,sans-Serif" font-size="10.00">Viewport::catchErrors</text>
</a>
</g>
<!-- Node1&#45;&gt;Node2 -->
<g id="edge2" class="edge"><title>Node1&#45;&gt;Node2</title>
<path fill="none" stroke="midnightblue" d="M81.7933,-81.5869C100.701,-89.8875 127.884,-101.572 152,-111 157.108,-112.997 162.508,-115.026 167.858,-116.989"/>
<polygon fill="midnightblue" stroke="midnightblue" points="166.767,-120.316 177.361,-120.427 169.148,-113.734 166.767,-120.316"/>
</g>
<!-- Node3 -->
<g id="node5" class="node"><title>Node3</title>
<a xlink:href="class_camera.html#af81adf3ba7f63429a9d5356c218da78f" target="_top" xlink:title="Camera::view">
<polygon fill="white" stroke="black" points="169.5,-80.5 169.5,-101.5 246.5,-101.5 246.5,-80.5 169.5,-80.5"/>
<text text-anchor="middle" x="208" y="-88.5" font-family="Helvetica,sans-Serif" font-size="10.00">Camera::view</text>
</a>
</g>
<!-- Node1&#45;&gt;Node3 -->
<g id="edge4" class="edge"><title>Node1&#45;&gt;Node3</title>
<path fill="none" stroke="midnightblue" d="M116.423,-78.7898C130.583,-80.6777 145.571,-82.6762 159.232,-84.4976"/>
<polygon fill="midnightblue" stroke="midnightblue" points="159.009,-87.9987 169.383,-85.8511 159.934,-81.0601 159.009,-87.9987"/>
</g>
<!-- Node8 -->
<g id="node16" class="node"><title>Node8</title>
<a xlink:href="class_world.html#a664cd2c63ef6c7979736cd454b31eb1c" target="_top" xlink:title="World::currentZone">
<polygon fill="white" stroke="black" points="158,-40.5 158,-61.5 258,-61.5 258,-40.5 158,-40.5"/>
<text text-anchor="middle" x="208" y="-48.5" font-family="Helvetica,sans-Serif" font-size="10.00">World::currentZone</text>
</a>
</g>
<!-- Node1&#45;&gt;Node8 -->
<g id="edge16" class="edge"><title>Node1&#45;&gt;Node8</title>
<path fill="none" stroke="midnightblue" d="M116.423,-63.2102C126.665,-61.8447 137.34,-60.4213 147.633,-59.0489"/>
<polygon fill="midnightblue" stroke="midnightblue" points="148.319,-62.4885 157.769,-57.6975 147.394,-55.5499 148.319,-62.4885"/>
</g>
<!-- Node9 -->
<g id="node18" class="node"><title>Node9</title>
<a xlink:href="class_zone.html#ab0e0091bda0819de6e848d647d14b1a0" target="_top" xlink:title="Zone::draw">
<polygon fill="white" stroke="black" points="175.5,-0.5 175.5,-21.5 240.5,-21.5 240.5,-0.5 175.5,-0.5"/>
<text text-anchor="middle" x="208" y="-8.5" font-family="Helvetica,sans-Serif" font-size="10.00">Zone::draw</text>
</a>
</g>
<!-- Node1&#45;&gt;Node9 -->
<g id="edge18" class="edge"><title>Node1&#45;&gt;Node9</title>
<path fill="none" stroke="midnightblue" d="M81.7933,-60.4131C100.701,-52.1125 127.884,-40.4281 152,-31 157.108,-29.0031 162.508,-26.9737 167.858,-25.0113"/>
<polygon fill="midnightblue" stroke="midnightblue" points="169.148,-28.2664 177.361,-21.5728 166.767,-21.684 169.148,-28.2664"/>
</g>
<!-- Node4 -->
<g id="node7" class="node"><title>Node4</title>
<a xlink:href="class_camera.html#a4e6b5818c84025d176c13c84991ef568" target="_top" xlink:title="Camera::position">
<polygon fill="white" stroke="black" points="300.5,-119.5 300.5,-140.5 391.5,-140.5 391.5,-119.5 300.5,-119.5"/>
<text text-anchor="middle" x="346" y="-127.5" font-family="Helvetica,sans-Serif" font-size="10.00">Camera::position</text>
</a>
</g>
<!-- Node3&#45;&gt;Node4 -->
<g id="edge6" class="edge"><title>Node3&#45;&gt;Node4</title>
<path fill="none" stroke="midnightblue" d="M245.345,-101.554C261.76,-106.193 281.226,-111.694 298.645,-116.617"/>
<polygon fill="midnightblue" stroke="midnightblue" points="298.05,-120.086 308.625,-119.438 299.954,-113.35 298.05,-120.086"/>
</g>
<!-- Node5 -->
<g id="node9" class="node"><title>Node5</title>
<a xlink:href="class_camera.html#a7276761c5214ec94f6ac35e5804f6719" target="_top" xlink:title="Camera::direction">
<polygon fill="white" stroke="black" points="428,-80.5 428,-101.5 522,-101.5 522,-80.5 428,-80.5"/>
<text text-anchor="middle" x="475" y="-88.5" font-family="Helvetica,sans-Serif" font-size="10.00">Camera::direction</text>
</a>
</g>
<!-- Node3&#45;&gt;Node5 -->
<g id="edge8" class="edge"><title>Node3&#45;&gt;Node5</title>
<path fill="none" stroke="midnightblue" d="M246.539,-91C291.488,-91 366.216,-91 417.906,-91"/>
<polygon fill="midnightblue" stroke="midnightblue" points="417.921,-94.5001 427.921,-91 417.921,-87.5001 417.921,-94.5001"/>
</g>
<!-- Node6 -->
<g id="node11" class="node"><title>Node6</title>
<a xlink:href="class_camera.html#a9936c788ad482b40b5a3548bf5e97247" target="_top" xlink:title="Camera::up">
<polygon fill="white" stroke="black" points="312,-41.5 312,-62.5 380,-62.5 380,-41.5 312,-41.5"/>
<text text-anchor="middle" x="346" y="-49.5" font-family="Helvetica,sans-Serif" font-size="10.00">Camera::up</text>
</a>
</g>
<!-- Node3&#45;&gt;Node6 -->
<g id="edge10" class="edge"><title>Node3&#45;&gt;Node6</title>
<path fill="none" stroke="midnightblue" d="M245.345,-80.446C262.856,-75.4972 283.84,-69.567 302.106,-64.4049"/>
<polygon fill="midnightblue" stroke="midnightblue" points="303.263,-67.7149 311.935,-61.6272 301.36,-60.9787 303.263,-67.7149"/>
</g>
<!-- Node6&#45;&gt;Node5 -->
<g id="edge14" class="edge"><title>Node6&#45;&gt;Node5</title>
<path fill="none" stroke="midnightblue" d="M380.231,-62.3489C395.561,-66.9834 413.84,-72.5099 430.237,-77.467"/>
<polygon fill="midnightblue" stroke="midnightblue" points="429.575,-80.9232 440.16,-80.4669 431.601,-74.2227 429.575,-80.9232"/>
</g>
<!-- Node7 -->
<g id="node13" class="node"><title>Node7</title>
<a xlink:href="class_camera.html#ac68fa914dd8737de1ec7558fc9281a68" target="_top" xlink:title="Camera::right">
<polygon fill="white" stroke="black" points="437,-40.5 437,-61.5 513,-61.5 513,-40.5 437,-40.5"/>
<text text-anchor="middle" x="475" y="-48.5" font-family="Helvetica,sans-Serif" font-size="10.00">Camera::right</text>
</a>
</g>
<!-- Node6&#45;&gt;Node7 -->
<g id="edge12" class="edge"><title>Node6&#45;&gt;Node7</title>
<path fill="none" stroke="midnightblue" d="M380.231,-51.7346C394.422,-51.6246 411.142,-51.495 426.555,-51.3755"/>
<polygon fill="midnightblue" stroke="midnightblue" points="426.998,-54.8723 436.97,-51.2948 426.943,-47.8725 426.998,-54.8723"/>
</g>
<!-- Node10 -->
<g id="node20" class="node"><title>Node10</title>
<a xlink:href="class_actor.html#ac35dab598ae9f9a936418ec22fadf138" target="_top" xlink:title="Actor::draw">
<polygon fill="white" stroke="black" points="312.5,-0.5 312.5,-21.5 379.5,-21.5 379.5,-0.5 312.5,-0.5"/>
<text text-anchor="middle" x="346" y="-8.5" font-family="Helvetica,sans-Serif" font-size="10.00">Actor::draw</text>
</a>
</g>
<!-- Node9&#45;&gt;Node10 -->
<g id="edge20" class="edge"><title>Node9&#45;&gt;Node10</title>
<path fill="none" stroke="midnightblue" d="M240.704,-11C259.03,-11 282.131,-11 302.022,-11"/>
<polygon fill="midnightblue" stroke="midnightblue" points="302.09,-14.5001 312.09,-11 302.089,-7.5001 302.09,-14.5001"/>
</g>
</g>
</svg>
