<?xml version="1.0" encoding="UTF-8" standalone="no"?>
<!DOCTYPE svg PUBLIC "-//W3C//DTD SVG 1.1//EN"
 "http://www.w3.org/Graphics/SVG/1.1/DTD/svg11.dtd">
<!-- Generated by graphviz version 2.26.3 (20100126.1600)
 -->
<!-- Title: Light::farZ Pages: 1 -->
<svg width="214pt" height="110pt"
 viewBox="0.00 0.00 214.00 110.00" xmlns="http://www.w3.org/2000/svg" xmlns:xlink="http://www.w3.org/1999/xlink">
<g id="graph1" class="graph" transform="scale(1 1) rotate(0) translate(4 106)">
<title>Light::farZ</title>
<polygon fill="white" stroke="white" points="-4,5 -4,-106 211,-106 211,5 -4,5"/>
<!-- Node1 -->
<g id="node1" class="node"><title>Node1</title>
<polygon fill="#bfbfbf" stroke="black" points="0.5,-40.5 0.5,-61.5 61.5,-61.5 61.5,-40.5 0.5,-40.5"/>
<text text-anchor="middle" x="31" y="-48.5" font-family="Helvetica,sans-Serif" font-size="10.00">Light::farZ</text>
</g>
<!-- Node2 -->
<g id="node3" class="node"><title>Node2</title>
<a xlink:href="class_light.html#a30538cefe47541035db096b75133442d" target="_top" xlink:title="Light::Light">
<polygon fill="white" stroke="black" points="119.5,-80.5 119.5,-101.5 184.5,-101.5 184.5,-80.5 119.5,-80.5"/>
<text text-anchor="middle" x="152" y="-88.5" font-family="Helvetica,sans-Serif" font-size="10.00">Light::Light</text>
</a>
</g>
<!-- Node1&#45;&gt;Node2 -->
<g id="edge2" class="edge"><title>Node1&#45;&gt;Node2</title>
<path fill="none" stroke="midnightblue" d="M71.1442,-64.2708C87.0981,-69.5448 105.19,-75.5256 120.209,-80.4905"/>
<polygon fill="midnightblue" stroke="midnightblue" points="72.1266,-60.9094 61.5334,-61.0937 69.9295,-67.5556 72.1266,-60.9094"/>
</g>
<!-- Node3 -->
<g id="node5" class="node"><title>Node3</title>
<a xlink:href="class_spotlight.html#a00b11e643c97326edb0ab6b0dff3425a" target="_top" xlink:title="Spotlight::Spotlight">
<polygon fill="white" stroke="black" points="102.5,-40.5 102.5,-61.5 201.5,-61.5 201.5,-40.5 102.5,-40.5"/>
<text text-anchor="middle" x="152" y="-48.5" font-family="Helvetica,sans-Serif" font-size="10.00">Spotlight::Spotlight</text>
</a>
</g>
<!-- Node1&#45;&gt;Node3 -->
<g id="edge4" class="edge"><title>Node1&#45;&gt;Node3</title>
<path fill="none" stroke="midnightblue" d="M71.7661,-51C81.526,-51 92.0554,-51 102.173,-51"/>
<polygon fill="midnightblue" stroke="midnightblue" points="71.5334,-47.5001 61.5334,-51 71.5334,-54.5001 71.5334,-47.5001"/>
</g>
<!-- Node4 -->
<g id="node7" class="node"><title>Node4</title>
<a xlink:href="class_spotlight.html#a516543f0f12a955076e2b39446b88bb0" target="_top" xlink:title="Spotlight::updateProj">
<polygon fill="white" stroke="black" points="98.5,-0.5 98.5,-21.5 205.5,-21.5 205.5,-0.5 98.5,-0.5"/>
<text text-anchor="middle" x="152" y="-8.5" font-family="Helvetica,sans-Serif" font-size="10.00">Spotlight::updateProj</text>
</a>
</g>
<!-- Node1&#45;&gt;Node4 -->
<g id="edge6" class="edge"><title>Node1&#45;&gt;Node4</title>
<path fill="none" stroke="midnightblue" d="M71.1442,-37.7292C87.0981,-32.4552 105.19,-26.4744 120.209,-21.5095"/>
<polygon fill="midnightblue" stroke="midnightblue" points="69.9295,-34.4444 61.5334,-40.9063 72.1266,-41.0906 69.9295,-34.4444"/>
</g>
</g>
</svg>
