<?xml version="1.0" encoding="UTF-8" standalone="no"?>
<!DOCTYPE svg PUBLIC "-//W3C//DTD SVG 1.1//EN"
 "http://www.w3.org/Graphics/SVG/1.1/DTD/svg11.dtd">
<!-- Generated by graphviz version 2.26.3 (20100126.1600)
 -->
<!-- Title: Light::setParent Pages: 1 -->
<svg width="518pt" height="150pt"
 viewBox="0.00 0.00 518.00 150.00" xmlns="http://www.w3.org/2000/svg" xmlns:xlink="http://www.w3.org/1999/xlink">
<g id="graph1" class="graph" transform="scale(1 1) rotate(0) translate(4 146)">
<title>Light::setParent</title>
<polygon fill="white" stroke="white" points="-4,5 -4,-146 515,-146 515,5 -4,5"/>
<!-- Node1 -->
<g id="node1" class="node"><title>Node1</title>
<polygon fill="#bfbfbf" stroke="black" points="0,-40.5 0,-61.5 86,-61.5 86,-40.5 0,-40.5"/>
<text text-anchor="middle" x="43" y="-48.5" font-family="Helvetica,sans-Serif" font-size="10.00">Light::setParent</text>
</g>
<!-- Node2 -->
<g id="node3" class="node"><title>Node2</title>
<a xlink:href="class_actor.html#a422d0d3c1e343e794357669a34bb59e1" target="_top" xlink:title="Actor::setParent">
<polygon fill="white" stroke="black" points="122,-80.5 122,-101.5 210,-101.5 210,-80.5 122,-80.5"/>
<text text-anchor="middle" x="166" y="-88.5" font-family="Helvetica,sans-Serif" font-size="10.00">Actor::setParent</text>
</a>
</g>
<!-- Node1&#45;&gt;Node2 -->
<g id="edge2" class="edge"><title>Node1&#45;&gt;Node2</title>
<path fill="none" stroke="midnightblue" d="M75.3168,-61.5095C90.1706,-66.34 107.981,-72.1321 123.871,-77.2994"/>
<polygon fill="midnightblue" stroke="midnightblue" points="122.88,-80.6575 133.472,-80.4218 125.045,-74.0007 122.88,-80.6575"/>
</g>
<!-- Node7 -->
<g id="node13" class="node"><title>Node7</title>
<a xlink:href="class_light.html#a747a809f8abf05f41143279abb78df13" target="_top" xlink:title="Light::view">
<polygon fill="white" stroke="black" points="134,-40.5 134,-61.5 198,-61.5 198,-40.5 134,-40.5"/>
<text text-anchor="middle" x="166" y="-48.5" font-family="Helvetica,sans-Serif" font-size="10.00">Light::view</text>
</a>
</g>
<!-- Node1&#45;&gt;Node7 -->
<g id="edge12" class="edge"><title>Node1&#45;&gt;Node7</title>
<path fill="none" stroke="midnightblue" d="M86.0194,-51C98.1288,-51 111.292,-51 123.378,-51"/>
<polygon fill="midnightblue" stroke="midnightblue" points="123.668,-54.5001 133.668,-51 123.668,-47.5001 123.668,-54.5001"/>
</g>
<!-- Node8 -->
<g id="node15" class="node"><title>Node8</title>
<a xlink:href="class_actor.html#ab3cce8c86e60c6b808ccd7732770f2cb" target="_top" xlink:title="Actor::viewport">
<polygon fill="white" stroke="black" points="124.5,-0.5 124.5,-21.5 207.5,-21.5 207.5,-0.5 124.5,-0.5"/>
<text text-anchor="middle" x="166" y="-8.5" font-family="Helvetica,sans-Serif" font-size="10.00">Actor::viewport</text>
</a>
</g>
<!-- Node1&#45;&gt;Node8 -->
<g id="edge14" class="edge"><title>Node1&#45;&gt;Node8</title>
<path fill="none" stroke="midnightblue" d="M75.3168,-40.4905C90.1706,-35.66 107.981,-29.8679 123.871,-24.7006"/>
<polygon fill="midnightblue" stroke="midnightblue" points="125.045,-27.9993 133.472,-21.5782 122.88,-21.3425 125.045,-27.9993"/>
</g>
<!-- Node3 -->
<g id="node5" class="node"><title>Node3</title>
<a xlink:href="class_viewport.html#a5acb57e1d34f591dab00a8a40cd21855" target="_top" xlink:title="Viewport::updateLights">
<polygon fill="white" stroke="black" points="246,-80.5 246,-101.5 362,-101.5 362,-80.5 246,-80.5"/>
<text text-anchor="middle" x="304" y="-88.5" font-family="Helvetica,sans-Serif" font-size="10.00">Viewport::updateLights</text>
</a>
</g>
<!-- Node2&#45;&gt;Node3 -->
<g id="edge4" class="edge"><title>Node2&#45;&gt;Node3</title>
<path fill="none" stroke="midnightblue" d="M210.043,-91C218.208,-91 226.91,-91 235.601,-91"/>
<polygon fill="midnightblue" stroke="midnightblue" points="235.763,-94.5001 245.763,-91 235.763,-87.5001 235.763,-94.5001"/>
</g>
<!-- Node4 -->
<g id="node7" class="node"><title>Node4</title>
<a xlink:href="class_world.html#a45fac3748d15198a09ce257da35e6fcf" target="_top" xlink:title="World::zoneList">
<polygon fill="white" stroke="black" points="411.5,-120.5 411.5,-141.5 496.5,-141.5 496.5,-120.5 411.5,-120.5"/>
<text text-anchor="middle" x="454" y="-128.5" font-family="Helvetica,sans-Serif" font-size="10.00">World::zoneList</text>
</a>
</g>
<!-- Node3&#45;&gt;Node4 -->
<g id="edge6" class="edge"><title>Node3&#45;&gt;Node4</title>
<path fill="none" stroke="midnightblue" d="M343.411,-101.51C362.198,-106.519 384.863,-112.563 404.77,-117.872"/>
<polygon fill="midnightblue" stroke="midnightblue" points="404.028,-121.296 414.592,-120.491 405.832,-114.533 404.028,-121.296"/>
</g>
<!-- Node5 -->
<g id="node9" class="node"><title>Node5</title>
<a xlink:href="class_world.html#a664cd2c63ef6c7979736cd454b31eb1c" target="_top" xlink:title="World::currentZone">
<polygon fill="white" stroke="black" points="404,-80.5 404,-101.5 504,-101.5 504,-80.5 404,-80.5"/>
<text text-anchor="middle" x="454" y="-88.5" font-family="Helvetica,sans-Serif" font-size="10.00">World::currentZone</text>
</a>
</g>
<!-- Node3&#45;&gt;Node5 -->
<g id="edge8" class="edge"><title>Node3&#45;&gt;Node5</title>
<path fill="none" stroke="midnightblue" d="M362.423,-91C372.665,-91 383.34,-91 393.633,-91"/>
<polygon fill="midnightblue" stroke="midnightblue" points="393.769,-94.5001 403.769,-91 393.769,-87.5001 393.769,-94.5001"/>
</g>
<!-- Node6 -->
<g id="node11" class="node"><title>Node6</title>
<a xlink:href="class_viewport.html#ae2666049736ca227e0ddc0d23c431d96" target="_top" xlink:title="Viewport::updateLight">
<polygon fill="white" stroke="black" points="398.5,-40.5 398.5,-61.5 509.5,-61.5 509.5,-40.5 398.5,-40.5"/>
<text text-anchor="middle" x="454" y="-48.5" font-family="Helvetica,sans-Serif" font-size="10.00">Viewport::updateLight</text>
</a>
</g>
<!-- Node3&#45;&gt;Node6 -->
<g id="edge10" class="edge"><title>Node3&#45;&gt;Node6</title>
<path fill="none" stroke="midnightblue" d="M343.411,-80.4905C362.198,-75.4807 384.863,-69.4366 404.77,-64.1279"/>
<polygon fill="midnightblue" stroke="midnightblue" points="405.832,-67.4672 414.592,-61.5087 404.028,-60.7036 405.832,-67.4672"/>
</g>
</g>
</svg>
