<?xml version="1.0" encoding="UTF-8" standalone="no"?>
<!DOCTYPE svg PUBLIC "-//W3C//DTD SVG 1.1//EN"
 "http://www.w3.org/Graphics/SVG/1.1/DTD/svg11.dtd">
<!-- Generated by graphviz version 2.26.3 (20100126.1600)
 -->
<!-- Title: Viewport::paintGL Pages: 1 -->
<svg width="662pt" height="468pt"
 viewBox="0.00 0.00 662.00 468.00" xmlns="http://www.w3.org/2000/svg" xmlns:xlink="http://www.w3.org/1999/xlink">
<g id="graph1" class="graph" transform="scale(1 1) rotate(0) translate(4 464)">
<title>Viewport::paintGL</title>
<polygon fill="white" stroke="white" points="-4,5 -4,-464 659,-464 659,5 -4,5"/>
<!-- Node1 -->
<g id="node1" class="node"><title>Node1</title>
<polygon fill="#bfbfbf" stroke="black" points="0.5,-328.5 0.5,-349.5 95.5,-349.5 95.5,-328.5 0.5,-328.5"/>
<text text-anchor="middle" x="48" y="-336.5" font-family="Helvetica,sans-Serif" font-size="10.00">Viewport::paintGL</text>
</g>
<!-- Node2 -->
<g id="node3" class="node"><title>Node2</title>
<a xlink:href="class_viewport.html#a5760eeac13c59b34bd8cc5ba638f9cbd" target="_top" xlink:title="Viewport::catchErrors">
<polygon fill="white" stroke="black" points="284.5,-438.5 284.5,-459.5 395.5,-459.5 395.5,-438.5 284.5,-438.5"/>
<text text-anchor="middle" x="340" y="-446.5" font-family="Helvetica,sans-Serif" font-size="10.00">Viewport::catchErrors</text>
</a>
</g>
<!-- Node1&#45;&gt;Node2 -->
<g id="edge2" class="edge"><title>Node1&#45;&gt;Node2</title>
<path fill="none" stroke="midnightblue" d="M63.1532,-349.647C79.5032,-360.739 106.617,-378.002 132,-389 180.368,-409.957 238.171,-425.961 280.553,-436.148"/>
<polygon fill="midnightblue" stroke="midnightblue" points="279.899,-439.59 290.436,-438.485 281.51,-432.777 279.899,-439.59"/>
</g>
<!-- Node3 -->
<g id="node5" class="node"><title>Node3</title>
<a xlink:href="class_viewport.html#ae95938dedc43d6b36f2b85d4a226ffa1" target="_top" xlink:title="Viewport::renderLight">
<polygon fill="white" stroke="black" points="135.5,-298.5 135.5,-319.5 244.5,-319.5 244.5,-298.5 135.5,-298.5"/>
<text text-anchor="middle" x="190" y="-306.5" font-family="Helvetica,sans-Serif" font-size="10.00">Viewport::renderLight</text>
</a>
</g>
<!-- Node1&#45;&gt;Node3 -->
<g id="edge4" class="edge"><title>Node1&#45;&gt;Node3</title>
<path fill="none" stroke="midnightblue" d="M95.679,-328.927C106.771,-326.584 118.718,-324.06 130.258,-321.622"/>
<polygon fill="midnightblue" stroke="midnightblue" points="131.202,-325 140.262,-319.508 129.755,-318.151 131.202,-325"/>
</g>
<!-- Node11 -->
<g id="node22" class="node"><title>Node11</title>
<a xlink:href="class_viewport.html#ad0317022a7a6399ee47c199bb9348efc" target="_top" xlink:title="Viewport::renderScene">
<polygon fill="white" stroke="black" points="132,-358.5 132,-379.5 248,-379.5 248,-358.5 132,-358.5"/>
<text text-anchor="middle" x="190" y="-366.5" font-family="Helvetica,sans-Serif" font-size="10.00">Viewport::renderScene</text>
</a>
</g>
<!-- Node1&#45;&gt;Node11 -->
<g id="edge22" class="edge"><title>Node1&#45;&gt;Node11</title>
<path fill="none" stroke="midnightblue" d="M95.679,-349.073C106.771,-351.416 118.718,-353.94 130.258,-356.378"/>
<polygon fill="midnightblue" stroke="midnightblue" points="129.755,-359.849 140.262,-358.492 131.202,-353 129.755,-359.849"/>
</g>
<!-- Node17 -->
<g id="node38" class="node"><title>Node17</title>
<a xlink:href="class_viewport.html#aeb07f85bbe4f10ca8d8c7b46c8ebd23b" target="_top" xlink:title="Viewport::renderQuad">
<polygon fill="white" stroke="black" points="134.5,-158.5 134.5,-179.5 245.5,-179.5 245.5,-158.5 134.5,-158.5"/>
<text text-anchor="middle" x="190" y="-166.5" font-family="Helvetica,sans-Serif" font-size="10.00">Viewport::renderQuad</text>
</a>
</g>
<!-- Node1&#45;&gt;Node17 -->
<g id="edge42" class="edge"><title>Node1&#45;&gt;Node17</title>
<path fill="none" stroke="midnightblue" d="M56.8827,-328.366C80.4913,-300.102 145.015,-222.855 174.694,-187.325"/>
<polygon fill="midnightblue" stroke="midnightblue" points="177.396,-189.549 181.121,-179.63 172.024,-185.061 177.396,-189.549"/>
</g>
<!-- Node3&#45;&gt;Node2 -->
<g id="edge10" class="edge"><title>Node3&#45;&gt;Node2</title>
<path fill="none" stroke="midnightblue" d="M210.92,-319.655C223.02,-326.662 237.818,-336.786 248,-349 272.967,-378.947 255.352,-402.552 284,-429 285.695,-430.565 287.52,-432.009 289.441,-433.341"/>
<polygon fill="midnightblue" stroke="midnightblue" points="287.95,-436.522 298.36,-438.496 291.453,-430.461 287.95,-436.522"/>
</g>
<!-- Node4 -->
<g id="node7" class="node"><title>Node4</title>
<a xlink:href="class_light.html#a5466743e73bc1f6e0dd198baf7697ed5" target="_top" xlink:title="Light::getBuffer">
<polygon fill="white" stroke="black" points="298.5,-318.5 298.5,-339.5 381.5,-339.5 381.5,-318.5 298.5,-318.5"/>
<text text-anchor="middle" x="340" y="-326.5" font-family="Helvetica,sans-Serif" font-size="10.00">Light::getBuffer</text>
</a>
</g>
<!-- Node3&#45;&gt;Node4 -->
<g id="edge6" class="edge"><title>Node3&#45;&gt;Node4</title>
<path fill="none" stroke="midnightblue" d="M244.578,-316.277C258.868,-318.182 274.229,-320.231 288.36,-322.115"/>
<polygon fill="midnightblue" stroke="midnightblue" points="288.025,-325.601 298.4,-323.453 288.951,-318.662 288.025,-325.601"/>
</g>
<!-- Node5 -->
<g id="node9" class="node"><title>Node5</title>
<a xlink:href="class_light.html#ac5414b33c1c3cf0940f9979dceb60087" target="_top" xlink:title="Light::getTexture">
<polygon fill="white" stroke="black" points="295,-238.5 295,-259.5 385,-259.5 385,-238.5 295,-238.5"/>
<text text-anchor="middle" x="340" y="-246.5" font-family="Helvetica,sans-Serif" font-size="10.00">Light::getTexture</text>
</a>
</g>
<!-- Node3&#45;&gt;Node5 -->
<g id="edge8" class="edge"><title>Node3&#45;&gt;Node5</title>
<path fill="none" stroke="midnightblue" d="M213.793,-298.413C232.701,-290.113 259.884,-278.428 284,-269 289.108,-267.003 294.508,-264.974 299.858,-263.011"/>
<polygon fill="midnightblue" stroke="midnightblue" points="301.148,-266.266 309.361,-259.573 298.767,-259.684 301.148,-266.266"/>
</g>
<!-- Node6 -->
<g id="node12" class="node"><title>Node6</title>
<a xlink:href="class_light.html#ae15381dfe25ed67531fa7b2a530399ad" target="_top" xlink:title="Light::projection">
<polygon fill="white" stroke="black" points="297,-198.5 297,-219.5 383,-219.5 383,-198.5 297,-198.5"/>
<text text-anchor="middle" x="340" y="-206.5" font-family="Helvetica,sans-Serif" font-size="10.00">Light::projection</text>
</a>
</g>
<!-- Node3&#45;&gt;Node6 -->
<g id="edge12" class="edge"><title>Node3&#45;&gt;Node6</title>
<path fill="none" stroke="midnightblue" d="M200.023,-298.257C216.237,-281.427 249.862,-248.731 284,-229 287.422,-227.022 291.072,-225.189 294.807,-223.501"/>
<polygon fill="midnightblue" stroke="midnightblue" points="296.289,-226.675 304.18,-219.605 293.602,-220.211 296.289,-226.675"/>
</g>
<!-- Node7 -->
<g id="node14" class="node"><title>Node7</title>
<a xlink:href="class_light.html#a747a809f8abf05f41143279abb78df13" target="_top" xlink:title="Light::view">
<polygon fill="white" stroke="black" points="308,-158.5 308,-179.5 372,-179.5 372,-158.5 308,-158.5"/>
<text text-anchor="middle" x="340" y="-166.5" font-family="Helvetica,sans-Serif" font-size="10.00">Light::view</text>
</a>
</g>
<!-- Node3&#45;&gt;Node7 -->
<g id="edge14" class="edge"><title>Node3&#45;&gt;Node7</title>
<path fill="none" stroke="midnightblue" d="M195.552,-298.383C208.176,-275.227 241.281,-219.799 284,-189 288.449,-185.793 293.463,-183.055 298.616,-180.731"/>
<polygon fill="midnightblue" stroke="midnightblue" points="299.975,-183.956 307.949,-176.98 297.365,-177.461 299.975,-183.956"/>
</g>
<!-- Node8 -->
<g id="node16" class="node"><title>Node8</title>
<a xlink:href="class_world.html#a664cd2c63ef6c7979736cd454b31eb1c" target="_top" xlink:title="World::currentZone">
<polygon fill="white" stroke="black" points="290,-278.5 290,-299.5 390,-299.5 390,-278.5 290,-278.5"/>
<text text-anchor="middle" x="340" y="-286.5" font-family="Helvetica,sans-Serif" font-size="10.00">World::currentZone</text>
</a>
</g>
<!-- Node3&#45;&gt;Node8 -->
<g id="edge16" class="edge"><title>Node3&#45;&gt;Node8</title>
<path fill="none" stroke="midnightblue" d="M244.578,-301.723C255.981,-300.203 268.065,-298.591 279.663,-297.045"/>
<polygon fill="midnightblue" stroke="midnightblue" points="280.25,-300.498 289.7,-295.707 279.325,-293.559 280.25,-300.498"/>
</g>
<!-- Node9 -->
<g id="node18" class="node"><title>Node9</title>
<a xlink:href="class_zone.html#ab0e0091bda0819de6e848d647d14b1a0" target="_top" xlink:title="Zone::draw">
<polygon fill="white" stroke="black" points="307.5,-358.5 307.5,-379.5 372.5,-379.5 372.5,-358.5 307.5,-358.5"/>
<text text-anchor="middle" x="340" y="-366.5" font-family="Helvetica,sans-Serif" font-size="10.00">Zone::draw</text>
</a>
</g>
<!-- Node3&#45;&gt;Node9 -->
<g id="edge18" class="edge"><title>Node3&#45;&gt;Node9</title>
<path fill="none" stroke="midnightblue" d="M213.793,-319.587C232.701,-327.887 259.884,-339.572 284,-349 289.108,-350.997 294.508,-353.026 299.858,-354.989"/>
<polygon fill="midnightblue" stroke="midnightblue" points="298.767,-358.316 309.361,-358.427 301.148,-351.734 298.767,-358.316"/>
</g>
<!-- Node10 -->
<g id="node20" class="node"><title>Node10</title>
<a xlink:href="class_actor.html#ac35dab598ae9f9a936418ec22fadf138" target="_top" xlink:title="Actor::draw">
<polygon fill="white" stroke="black" points="444.5,-320.5 444.5,-341.5 511.5,-341.5 511.5,-320.5 444.5,-320.5"/>
<text text-anchor="middle" x="478" y="-328.5" font-family="Helvetica,sans-Serif" font-size="10.00">Actor::draw</text>
</a>
</g>
<!-- Node9&#45;&gt;Node10 -->
<g id="edge20" class="edge"><title>Node9&#45;&gt;Node10</title>
<path fill="none" stroke="midnightblue" d="M372.704,-359.995C391.114,-354.925 414.343,-348.529 434.296,-343.034"/>
<polygon fill="midnightblue" stroke="midnightblue" points="435.378,-346.367 444.09,-340.338 433.519,-339.618 435.378,-346.367"/>
</g>
<!-- Node11&#45;&gt;Node2 -->
<g id="edge24" class="edge"><title>Node11&#45;&gt;Node2</title>
<path fill="none" stroke="midnightblue" d="M204.375,-379.634C222.316,-392.556 254.27,-414.434 284,-429 288.127,-431.022 292.512,-432.945 296.94,-434.744"/>
<polygon fill="midnightblue" stroke="midnightblue" points="296.032,-438.144 306.621,-438.469 298.546,-431.611 296.032,-438.144"/>
</g>
<!-- Node11&#45;&gt;Node8 -->
<g id="edge38" class="edge"><title>Node11&#45;&gt;Node8</title>
<path fill="none" stroke="midnightblue" d="M204.375,-358.366C222.316,-345.444 254.27,-323.566 284,-309 288.127,-306.978 292.512,-305.055 296.94,-303.256"/>
<polygon fill="midnightblue" stroke="midnightblue" points="298.546,-306.389 306.621,-299.531 296.032,-299.856 298.546,-306.389"/>
</g>
<!-- Node11&#45;&gt;Node9 -->
<g id="edge40" class="edge"><title>Node11&#45;&gt;Node9</title>
<path fill="none" stroke="midnightblue" d="M248.423,-369C264.732,-369 282.141,-369 297.353,-369"/>
<polygon fill="midnightblue" stroke="midnightblue" points="297.493,-372.5 307.493,-369 297.493,-365.5 297.493,-372.5"/>
</g>
<!-- Node12 -->
<g id="node25" class="node"><title>Node12</title>
<a xlink:href="class_camera.html#af81adf3ba7f63429a9d5356c218da78f" target="_top" xlink:title="Camera::view">
<polygon fill="white" stroke="black" points="301.5,-398.5 301.5,-419.5 378.5,-419.5 378.5,-398.5 301.5,-398.5"/>
<text text-anchor="middle" x="340" y="-406.5" font-family="Helvetica,sans-Serif" font-size="10.00">Camera::view</text>
</a>
</g>
<!-- Node11&#45;&gt;Node12 -->
<g id="edge26" class="edge"><title>Node11&#45;&gt;Node12</title>
<path fill="none" stroke="midnightblue" d="M229.411,-379.51C248.42,-384.579 271.401,-390.707 291.477,-396.061"/>
<polygon fill="midnightblue" stroke="midnightblue" points="290.807,-399.504 301.371,-398.699 292.611,-392.74 290.807,-399.504"/>
</g>
<!-- Node13 -->
<g id="node27" class="node"><title>Node13</title>
<a xlink:href="class_camera.html#a4e6b5818c84025d176c13c84991ef568" target="_top" xlink:title="Camera::position">
<polygon fill="white" stroke="black" points="432.5,-438.5 432.5,-459.5 523.5,-459.5 523.5,-438.5 432.5,-438.5"/>
<text text-anchor="middle" x="478" y="-446.5" font-family="Helvetica,sans-Serif" font-size="10.00">Camera::position</text>
</a>
</g>
<!-- Node12&#45;&gt;Node13 -->
<g id="edge28" class="edge"><title>Node12&#45;&gt;Node13</title>
<path fill="none" stroke="midnightblue" d="M376.258,-419.51C393.238,-424.431 413.661,-430.351 431.74,-435.591"/>
<polygon fill="midnightblue" stroke="midnightblue" points="430.926,-438.999 441.505,-438.422 432.875,-432.276 430.926,-438.999"/>
</g>
<!-- Node14 -->
<g id="node29" class="node"><title>Node14</title>
<a xlink:href="class_camera.html#a7276761c5214ec94f6ac35e5804f6719" target="_top" xlink:title="Camera::direction">
<polygon fill="white" stroke="black" points="560,-358.5 560,-379.5 654,-379.5 654,-358.5 560,-358.5"/>
<text text-anchor="middle" x="607" y="-366.5" font-family="Helvetica,sans-Serif" font-size="10.00">Camera::direction</text>
</a>
</g>
<!-- Node12&#45;&gt;Node14 -->
<g id="edge30" class="edge"><title>Node12&#45;&gt;Node14</title>
<path fill="none" stroke="midnightblue" d="M378.78,-399.666C395.135,-395.965 414.422,-391.908 432,-389 470.961,-382.555 515.147,-377.523 549.372,-374.119"/>
<polygon fill="midnightblue" stroke="midnightblue" points="550.044,-377.57 559.657,-373.114 549.364,-370.603 550.044,-377.57"/>
</g>
<!-- Node15 -->
<g id="node31" class="node"><title>Node15</title>
<a xlink:href="class_camera.html#a9936c788ad482b40b5a3548bf5e97247" target="_top" xlink:title="Camera::up">
<polygon fill="white" stroke="black" points="444,-398.5 444,-419.5 512,-419.5 512,-398.5 444,-398.5"/>
<text text-anchor="middle" x="478" y="-406.5" font-family="Helvetica,sans-Serif" font-size="10.00">Camera::up</text>
</a>
</g>
<!-- Node12&#45;&gt;Node15 -->
<g id="edge32" class="edge"><title>Node12&#45;&gt;Node15</title>
<path fill="none" stroke="midnightblue" d="M378.808,-409C395.868,-409 415.996,-409 433.646,-409"/>
<polygon fill="midnightblue" stroke="midnightblue" points="433.71,-412.5 443.71,-409 433.71,-405.5 433.71,-412.5"/>
</g>
<!-- Node15&#45;&gt;Node14 -->
<g id="edge36" class="edge"><title>Node15&#45;&gt;Node14</title>
<path fill="none" stroke="midnightblue" d="M511.893,-398.49C527.619,-393.614 546.504,-387.759 563.287,-382.555"/>
<polygon fill="midnightblue" stroke="midnightblue" points="564.37,-385.883 572.885,-379.578 562.297,-379.197 564.37,-385.883"/>
</g>
<!-- Node16 -->
<g id="node33" class="node"><title>Node16</title>
<a xlink:href="class_camera.html#ac68fa914dd8737de1ec7558fc9281a68" target="_top" xlink:title="Camera::right">
<polygon fill="white" stroke="black" points="569,-398.5 569,-419.5 645,-419.5 645,-398.5 569,-398.5"/>
<text text-anchor="middle" x="607" y="-406.5" font-family="Helvetica,sans-Serif" font-size="10.00">Camera::right</text>
</a>
</g>
<!-- Node15&#45;&gt;Node16 -->
<g id="edge34" class="edge"><title>Node15&#45;&gt;Node16</title>
<path fill="none" stroke="midnightblue" d="M512.231,-409C526.422,-409 543.142,-409 558.555,-409"/>
<polygon fill="midnightblue" stroke="midnightblue" points="558.97,-412.5 568.97,-409 558.97,-405.5 558.97,-412.5"/>
</g>
<!-- Node17&#45;&gt;Node5 -->
<g id="edge46" class="edge"><title>Node17&#45;&gt;Node5</title>
<path fill="none" stroke="midnightblue" d="M204.375,-179.634C222.316,-192.556 254.27,-214.434 284,-229 288.127,-231.022 292.512,-232.945 296.94,-234.744"/>
<polygon fill="midnightblue" stroke="midnightblue" points="296.032,-238.144 306.621,-238.469 298.546,-231.611 296.032,-238.144"/>
</g>
<!-- Node17&#45;&gt;Node6 -->
<g id="edge58" class="edge"><title>Node17&#45;&gt;Node6</title>
<path fill="none" stroke="midnightblue" d="M229.411,-179.51C248.198,-184.519 270.863,-190.563 290.77,-195.872"/>
<polygon fill="midnightblue" stroke="midnightblue" points="290.028,-199.296 300.592,-198.491 291.832,-192.533 290.028,-199.296"/>
</g>
<!-- Node17&#45;&gt;Node7 -->
<g id="edge56" class="edge"><title>Node17&#45;&gt;Node7</title>
<path fill="none" stroke="midnightblue" d="M245.854,-169C262.936,-169 281.439,-169 297.483,-169"/>
<polygon fill="midnightblue" stroke="midnightblue" points="297.631,-172.5 307.631,-169 297.631,-165.5 297.631,-172.5"/>
</g>
<!-- Node17&#45;&gt;Node8 -->
<g id="edge44" class="edge"><title>Node17&#45;&gt;Node8</title>
<path fill="none" stroke="midnightblue" d="M197.286,-179.611C211.636,-199.765 245.526,-243.811 284,-269 286.939,-270.924 290.087,-272.691 293.335,-274.307"/>
<polygon fill="midnightblue" stroke="midnightblue" points="292.109,-277.592 302.668,-278.47 294.961,-271.199 292.109,-277.592"/>
</g>
<!-- Node17&#45;&gt;Node14 -->
<g id="edge60" class="edge"><title>Node17&#45;&gt;Node14</title>
<path fill="none" stroke="midnightblue" d="M216.943,-158.404C257.537,-144.162 336.011,-123.415 396,-149 494.413,-190.973 568.979,-303.854 595.988,-349.474"/>
<polygon fill="midnightblue" stroke="midnightblue" points="593.108,-351.484 601.156,-358.375 599.162,-347.969 593.108,-351.484"/>
</g>
<!-- Node18 -->
<g id="node42" class="node"><title>Node18</title>
<a xlink:href="viewport_8cpp.html#ae7e24b600e4b06fe95d062b8fb71bc7a" target="_top" xlink:title="toVector">
<polygon fill="white" stroke="black" points="313.5,-80.5 313.5,-101.5 366.5,-101.5 366.5,-80.5 313.5,-80.5"/>
<text text-anchor="middle" x="340" y="-88.5" font-family="Helvetica,sans-Serif" font-size="10.00">toVector</text>
</a>
</g>
<!-- Node17&#45;&gt;Node18 -->
<g id="edge48" class="edge"><title>Node17&#45;&gt;Node18</title>
<path fill="none" stroke="midnightblue" d="M207.75,-158.333C226.452,-147.251 256.895,-129.654 284,-116 290.864,-112.542 298.31,-109.047 305.464,-105.81"/>
<polygon fill="midnightblue" stroke="midnightblue" points="307.244,-108.848 314.955,-101.583 304.396,-102.454 307.244,-108.848"/>
</g>
<!-- Node19 -->
<g id="node44" class="node"><title>Node19</title>
<a xlink:href="class_light.html#a268d5bc710788f8457c1efc6038ea0a0" target="_top" xlink:title="Light::type">
<polygon fill="white" stroke="black" points="309,-40.5 309,-61.5 371,-61.5 371,-40.5 309,-40.5"/>
<text text-anchor="middle" x="340" y="-48.5" font-family="Helvetica,sans-Serif" font-size="10.00">Light::type</text>
</a>
</g>
<!-- Node17&#45;&gt;Node19 -->
<g id="edge50" class="edge"><title>Node17&#45;&gt;Node19</title>
<path fill="none" stroke="midnightblue" d="M197.563,-158.3C212.128,-138.426 246.005,-95.6023 284,-71 288.712,-67.949 293.949,-65.2917 299.275,-62.9986"/>
<polygon fill="midnightblue" stroke="midnightblue" points="300.819,-66.1529 308.864,-59.258 298.275,-59.6316 300.819,-66.1529"/>
</g>
<!-- Node20 -->
<g id="node46" class="node"><title>Node20</title>
<a xlink:href="class_light.html#ab689087cc07b95273f6daae900a42010" target="_top" xlink:title="Light::direction">
<polygon fill="white" stroke="black" points="300,-0.5 300,-21.5 380,-21.5 380,-0.5 300,-0.5"/>
<text text-anchor="middle" x="340" y="-8.5" font-family="Helvetica,sans-Serif" font-size="10.00">Light::direction</text>
</a>
</g>
<!-- Node17&#45;&gt;Node20 -->
<g id="edge52" class="edge"><title>Node17&#45;&gt;Node20</title>
<path fill="none" stroke="midnightblue" d="M194.431,-158.331C205.613,-132.674 237.437,-66.9832 284,-31 286.297,-29.2246 288.766,-27.5978 291.34,-26.1086"/>
<polygon fill="midnightblue" stroke="midnightblue" points="293.038,-29.1725 300.406,-21.5584 289.898,-22.9163 293.038,-29.1725"/>
</g>
<!-- Node21 -->
<g id="node48" class="node"><title>Node21</title>
<a xlink:href="class_actor.html#a748e07c73196050bfb0d51a14608aeae" target="_top" xlink:title="Actor::orientation">
<polygon fill="white" stroke="black" points="432.5,-0.5 432.5,-21.5 523.5,-21.5 523.5,-0.5 432.5,-0.5"/>
<text text-anchor="middle" x="478" y="-8.5" font-family="Helvetica,sans-Serif" font-size="10.00">Actor::orientation</text>
</a>
</g>
<!-- Node20&#45;&gt;Node21 -->
<g id="edge54" class="edge"><title>Node20&#45;&gt;Node21</title>
<path fill="none" stroke="midnightblue" d="M380.286,-11C393.346,-11 408.076,-11 422.062,-11"/>
<polygon fill="midnightblue" stroke="midnightblue" points="422.081,-14.5001 432.081,-11 422.081,-7.5001 422.081,-14.5001"/>
</g>
</g>
</svg>
