<?xml version="1.0" encoding="UTF-8" standalone="no"?>
<!DOCTYPE svg PUBLIC "-//W3C//DTD SVG 1.1//EN"
 "http://www.w3.org/Graphics/SVG/1.1/DTD/svg11.dtd">
<!-- Generated by graphviz version 2.26.3 (20100126.1600)
 -->
<!-- Title: Cylinder Pages: 1 -->
<svg width="165pt" height="342pt"
 viewBox="0.00 0.00 165.00 342.00" xmlns="http://www.w3.org/2000/svg" xmlns:xlink="http://www.w3.org/1999/xlink">
<g id="graph1" class="graph" transform="scale(1 1) rotate(0) translate(4 338)">
<title>Cylinder</title>
<polygon fill="white" stroke="white" points="-4,5 -4,-338 162,-338 162,5 -4,5"/>
<!-- Node1 -->
<g id="node1" class="node"><title>Node1</title>
<polygon fill="#bfbfbf" stroke="black" points="29.5,-0.5 29.5,-21.5 82.5,-21.5 82.5,-0.5 29.5,-0.5"/>
<text text-anchor="middle" x="56" y="-8.5" font-family="Helvetica,sans-Serif" font-size="10.00">Cylinder</text>
</g>
<!-- Node2 -->
<g id="node2" class="node"><title>Node2</title>
<a xlink:href="class_geometry.html" target="_top" xlink:title="Geometry\&lt; Cylinder \&gt;">
<polygon fill="white" stroke="black" points="-0.5,-60.5 -0.5,-81.5 112.5,-81.5 112.5,-60.5 -0.5,-60.5"/>
<text text-anchor="middle" x="56" y="-68.5" font-family="Helvetica,sans-Serif" font-size="10.00">Geometry&lt; Cylinder &gt;</text>
</a>
</g>
<!-- Node2&#45;&gt;Node1 -->
<g id="edge2" class="edge"><title>Node2&#45;&gt;Node1</title>
<path fill="none" stroke="midnightblue" d="M56,-50.2312C56,-40.5922 56,-29.5444 56,-21.6339"/>
<polygon fill="midnightblue" stroke="midnightblue" points="52.5001,-50.2732 56,-60.2732 59.5001,-50.2732 52.5001,-50.2732"/>
</g>
<!-- Node3 -->
<g id="node4" class="node"><title>Node3</title>
<a xlink:href="class_geo_base.html" target="_top" xlink:title="Base pour la classe Geometry. ">
<polygon fill="white" stroke="black" points="12.5,-192.5 12.5,-213.5 69.5,-213.5 69.5,-192.5 12.5,-192.5"/>
<text text-anchor="middle" x="41" y="-200.5" font-family="Helvetica,sans-Serif" font-size="10.00">GeoBase</text>
</a>
</g>
<!-- Node3&#45;&gt;Node2 -->
<g id="edge4" class="edge"><title>Node3&#45;&gt;Node2</title>
<path fill="none" stroke="midnightblue" d="M42.8679,-182.258C44.1873,-168.09 46.0598,-148.895 48,-132 50.0229,-114.385 52.7861,-93.966 54.479,-81.7857"/>
<polygon fill="midnightblue" stroke="midnightblue" points="39.3655,-182.125 41.9377,-192.403 46.3362,-182.765 39.3655,-182.125"/>
</g>
<!-- Node6 -->
<g id="node10" class="node"><title>Node6</title>
<a xlink:href="class_geometry.html" target="_top" xlink:title="Base de toutes les géometries. ">
<polygon fill="white" stroke="black" points="57,-132.5 57,-153.5 157,-153.5 157,-132.5 57,-132.5"/>
<text text-anchor="middle" x="107" y="-140.5" font-family="Helvetica,sans-Serif" font-size="10.00">Geometry&lt; Child &gt;</text>
</a>
</g>
<!-- Node3&#45;&gt;Node6 -->
<g id="edge12" class="edge"><title>Node3&#45;&gt;Node6</title>
<path fill="none" stroke="midnightblue" d="M60.4853,-185.286C71.7953,-175.004 85.6655,-162.395 95.3027,-153.634"/>
<polygon fill="midnightblue" stroke="midnightblue" points="57.8445,-182.957 52.7995,-192.273 62.5533,-188.136 57.8445,-182.957"/>
</g>
<!-- Node4 -->
<g id="node6" class="node"><title>Node4</title>
<a xlink:href="class_actor.html" target="_top" xlink:title="Base de tous les objets de la scène. ">
<polygon fill="white" stroke="black" points="21,-252.5 21,-273.5 61,-273.5 61,-252.5 21,-252.5"/>
<text text-anchor="middle" x="41" y="-260.5" font-family="Helvetica,sans-Serif" font-size="10.00">Actor</text>
</a>
</g>
<!-- Node4&#45;&gt;Node3 -->
<g id="edge6" class="edge"><title>Node4&#45;&gt;Node3</title>
<path fill="none" stroke="midnightblue" d="M41,-242.231C41,-232.592 41,-221.544 41,-213.634"/>
<polygon fill="midnightblue" stroke="midnightblue" points="37.5001,-242.273 41,-252.273 44.5001,-242.273 37.5001,-242.273"/>
</g>
<!-- Node5 -->
<g id="node8" class="node"><title>Node5</title>
<a xlink:href="class_q_object.html" target="_top" xlink:title="QObject">
<polygon fill="white" stroke="black" points="14.5,-312.5 14.5,-333.5 67.5,-333.5 67.5,-312.5 14.5,-312.5"/>
<text text-anchor="middle" x="41" y="-320.5" font-family="Helvetica,sans-Serif" font-size="10.00">QObject</text>
</a>
</g>
<!-- Node5&#45;&gt;Node4 -->
<g id="edge8" class="edge"><title>Node5&#45;&gt;Node4</title>
<path fill="none" stroke="midnightblue" d="M41,-302.231C41,-292.592 41,-281.544 41,-273.634"/>
<polygon fill="midnightblue" stroke="midnightblue" points="37.5001,-302.273 41,-312.273 44.5001,-302.273 37.5001,-302.273"/>
</g>
<!-- Node6&#45;&gt;Node2 -->
<g id="edge10" class="edge"><title>Node6&#45;&gt;Node2</title>
<path fill="none" stroke="orange" stroke-dasharray="5,2" d="M93.682,-124.198C84.0847,-110.649 71.4781,-92.8514 63.5561,-81.6674"/>
<polygon fill="orange" stroke="orange" points="90.8385,-126.239 99.4748,-132.376 96.5507,-122.193 90.8385,-126.239"/>
<text text-anchor="middle" x="115" y="-104.5" font-family="Helvetica,sans-Serif" font-size="10.00"> &lt; Cylinder &gt;</text>
</g>
</g>
</svg>
