<?xml version="1.0" encoding="UTF-8" standalone="no"?>
<!DOCTYPE svg PUBLIC "-//W3C//DTD SVG 1.1//EN"
 "http://www.w3.org/Graphics/SVG/1.1/DTD/svg11.dtd">
<!-- Generated by graphviz version 2.26.3 (20100126.1600)
 -->
<!-- Title: Camera::resetBias Pages: 1 -->
<svg width="230pt" height="150pt"
 viewBox="0.00 0.00 230.00 150.00" xmlns="http://www.w3.org/2000/svg" xmlns:xlink="http://www.w3.org/1999/xlink">
<g id="graph1" class="graph" transform="scale(1 1) rotate(0) translate(4 146)">
<title>Camera::resetBias</title>
<polygon fill="white" stroke="white" points="-4,5 -4,-146 227,-146 227,5 -4,5"/>
<!-- Node1 -->
<g id="node1" class="node"><title>Node1</title>
<polygon fill="#bfbfbf" stroke="black" points="0,-60.5 0,-81.5 98,-81.5 98,-60.5 0,-60.5"/>
<text text-anchor="middle" x="49" y="-68.5" font-family="Helvetica,sans-Serif" font-size="10.00">Camera::resetBias</text>
</g>
<!-- Node2 -->
<g id="node3" class="node"><title>Node2</title>
<a xlink:href="class_camera.html#a5b69d67a787c3ec58111b7638ba0b8c7" target="_top" xlink:title="Camera::hBias">
<polygon fill="white" stroke="black" points="137,-120.5 137,-141.5 219,-141.5 219,-120.5 137,-120.5"/>
<text text-anchor="middle" x="178" y="-128.5" font-family="Helvetica,sans-Serif" font-size="10.00">Camera::hBias</text>
</a>
</g>
<!-- Node1&#45;&gt;Node2 -->
<g id="edge2" class="edge"><title>Node1&#45;&gt;Node2</title>
<path fill="none" stroke="midnightblue" d="M71.3329,-81.6081C88.4543,-89.7168 112.684,-101.141 134,-111 137.665,-112.695 141.507,-114.46 145.33,-116.208"/>
<polygon fill="midnightblue" stroke="midnightblue" points="144.131,-119.508 154.682,-120.47 147.034,-113.138 144.131,-119.508"/>
</g>
<!-- Node3 -->
<g id="node5" class="node"><title>Node3</title>
<a xlink:href="class_camera.html#a5fcdf451c1711531dfabd2c9692c9c24" target="_top" xlink:title="Camera::hAngle">
<polygon fill="white" stroke="black" points="134.5,-80.5 134.5,-101.5 221.5,-101.5 221.5,-80.5 134.5,-80.5"/>
<text text-anchor="middle" x="178" y="-88.5" font-family="Helvetica,sans-Serif" font-size="10.00">Camera::hAngle</text>
</a>
</g>
<!-- Node1&#45;&gt;Node3 -->
<g id="edge4" class="edge"><title>Node1&#45;&gt;Node3</title>
<path fill="none" stroke="midnightblue" d="M98.1374,-78.6182C106.735,-79.9512 115.719,-81.3441 124.43,-82.6945"/>
<polygon fill="midnightblue" stroke="midnightblue" points="124.071,-86.1807 134.489,-84.2542 125.144,-79.2633 124.071,-86.1807"/>
</g>
<!-- Node4 -->
<g id="node7" class="node"><title>Node4</title>
<a xlink:href="class_camera.html#a7a2feb5000cd1f4497cb7ea95a257de8" target="_top" xlink:title="Camera::vBias">
<polygon fill="white" stroke="black" points="137,-40.5 137,-61.5 219,-61.5 219,-40.5 137,-40.5"/>
<text text-anchor="middle" x="178" y="-48.5" font-family="Helvetica,sans-Serif" font-size="10.00">Camera::vBias</text>
</a>
</g>
<!-- Node1&#45;&gt;Node4 -->
<g id="edge6" class="edge"><title>Node1&#45;&gt;Node4</title>
<path fill="none" stroke="midnightblue" d="M98.1374,-63.3818C107.549,-61.9226 117.425,-60.3915 126.897,-58.923"/>
<polygon fill="midnightblue" stroke="midnightblue" points="127.63,-62.3512 136.976,-57.3603 126.558,-55.4338 127.63,-62.3512"/>
</g>
<!-- Node5 -->
<g id="node9" class="node"><title>Node5</title>
<a xlink:href="class_camera.html#aa343f196240a4cf6b56512726f77c7ed" target="_top" xlink:title="Camera::vAngle">
<polygon fill="white" stroke="black" points="134.5,-0.5 134.5,-21.5 221.5,-21.5 221.5,-0.5 134.5,-0.5"/>
<text text-anchor="middle" x="178" y="-8.5" font-family="Helvetica,sans-Serif" font-size="10.00">Camera::vAngle</text>
</a>
</g>
<!-- Node1&#45;&gt;Node5 -->
<g id="edge8" class="edge"><title>Node1&#45;&gt;Node5</title>
<path fill="none" stroke="midnightblue" d="M71.3329,-60.3919C88.4543,-52.2832 112.684,-40.8594 134,-31 137.665,-29.3047 141.507,-27.5401 145.33,-25.792"/>
<polygon fill="midnightblue" stroke="midnightblue" points="147.034,-28.8619 154.682,-21.5299 144.131,-22.4922 147.034,-28.8619"/>
</g>
</g>
</svg>
