<?xml version="1.0" encoding="UTF-8" standalone="no"?>
<!DOCTYPE svg PUBLIC "-//W3C//DTD SVG 1.1//EN"
 "http://www.w3.org/Graphics/SVG/1.1/DTD/svg11.dtd">
<!-- Generated by graphviz version 2.26.3 (20100126.1600)
 -->
<!-- Title: Viewport::camera Pages: 1 -->
<svg width="220pt" height="70pt"
 viewBox="0.00 0.00 220.00 70.00" xmlns="http://www.w3.org/2000/svg" xmlns:xlink="http://www.w3.org/1999/xlink">
<g id="graph1" class="graph" transform="scale(1 1) rotate(0) translate(4 66)">
<title>Viewport::camera</title>
<polygon fill="white" stroke="white" points="-4,5 -4,-66 217,-66 217,5 -4,5"/>
<!-- Node1 -->
<g id="node1" class="node"><title>Node1</title>
<polygon fill="#bfbfbf" stroke="black" points="0.5,-20.5 0.5,-41.5 93.5,-41.5 93.5,-20.5 0.5,-20.5"/>
<text text-anchor="middle" x="47" y="-28.5" font-family="Helvetica,sans-Serif" font-size="10.00">Viewport::camera</text>
</g>
<!-- Node2 -->
<g id="node3" class="node"><title>Node2</title>
<a xlink:href="class_viewport.html#a94ce1a503f6e3c10d27e7289e6f8607c" target="_top" xlink:title="Viewport::save">
<polygon fill="white" stroke="black" points="130,-40.5 130,-61.5 212,-61.5 212,-40.5 130,-40.5"/>
<text text-anchor="middle" x="171" y="-48.5" font-family="Helvetica,sans-Serif" font-size="10.00">Viewport::save</text>
</a>
</g>
<!-- Node1&#45;&gt;Node2 -->
<g id="edge2" class="edge"><title>Node1&#45;&gt;Node2</title>
<path fill="none" stroke="midnightblue" d="M103.479,-40.1095C112.388,-41.5464 121.45,-43.008 129.921,-44.3744"/>
<polygon fill="midnightblue" stroke="midnightblue" points="103.956,-36.6412 93.5258,-38.5042 102.841,-43.5519 103.956,-36.6412"/>
</g>
<!-- Node3 -->
<g id="node5" class="node"><title>Node3</title>
<a xlink:href="class_viewport.html#a94489fe1044fd859a2a3b2eb2f1cc2ae" target="_top" xlink:title="Viewport::load">
<polygon fill="white" stroke="black" points="131.5,-0.5 131.5,-21.5 210.5,-21.5 210.5,-0.5 131.5,-0.5"/>
<text text-anchor="middle" x="171" y="-8.5" font-family="Helvetica,sans-Serif" font-size="10.00">Viewport::load</text>
</a>
</g>
<!-- Node1&#45;&gt;Node3 -->
<g id="edge4" class="edge"><title>Node1&#45;&gt;Node3</title>
<path fill="none" stroke="midnightblue" d="M103.529,-21.8825C112.844,-20.38 122.326,-18.8507 131.123,-17.4318"/>
<polygon fill="midnightblue" stroke="midnightblue" points="102.841,-18.4481 93.5258,-23.4958 103.956,-25.3588 102.841,-18.4481"/>
</g>
</g>
</svg>
