<?xml version="1.0" encoding="UTF-8" standalone="no"?>
<!DOCTYPE svg PUBLIC "-//W3C//DTD SVG 1.1//EN"
 "http://www.w3.org/Graphics/SVG/1.1/DTD/svg11.dtd">
<!-- Generated by graphviz version 2.26.3 (20100126.1600)
 -->
<!-- Title: Actor Pages: 1 -->
<!--zoomable 386 -->
<svg id="main" version="1.1" xmlns="http://www.w3.org/2000/svg" xmlns:xlink="http://www.w3.org/1999/xlink" xml:space="preserve" onload="init(evt)">
<style type="text/css"><![CDATA[
.edge:hover path { stroke: red; }
.edge:hover polygon { stroke: red; fill: red; }
]]></style>
<script type="text/javascript"><![CDATA[
var edges = document.getElementsByTagName('g');
if (edges && edges.length) {
  for (var i=0;i<edges.length;i++) {
    if (edges[i].id.substr(0,4)=='edge') {
      edges[i].setAttribute('class','edge');
    }
  }
}
]]></script>
        <defs>
                <circle id="rim" cx="0" cy="0" r="7"/>
                <circle id="rim2" cx="0" cy="0" r="3.5"/>
                <g id="zoomPlus">
                        <use xlink:href="#rim" fill="#404040">
                                <set attributeName="fill" to="#808080" begin="zoomplus.mouseover" end="zoomplus.mouseout"/>
                        </use>
                        <path d="M-4,0h8M0,-4v8" fill="none" stroke="white" stroke-width="1.5" pointer-events="none"/>
                </g>
                <g id="zoomMin">
                        <use xlink:href="#rim" fill="#404040">
                                <set attributeName="fill" to="#808080" begin="zoomminus.mouseover" end="zoomminus.mouseout"/>
                        </use>
                        <path d="M-4,0h8" fill="none" stroke="white" stroke-width="1.5" pointer-events="none"/>
                </g>
                <g id="dirArrow">
                        <path fill="none" stroke="white" stroke-width="1.5" d="M0,-3.0v7 M-2.5,-0.5L0,-3.0L2.5,-0.5"/>
                </g>
               <g id="resetDef">
                       <use xlink:href="#rim2" fill="#404040">
                               <set attributeName="fill" to="#808080" begin="reset.mouseover" end="reset.mouseout"/>
                       </use>
               </g>
        </defs>

<script type="text/javascript">
var viewWidth = 690;
var viewHeight = 386;
var sectionId = 'dynsection-0';
</script>
<script xlink:href="svgpan.js"/>
<svg id="graph" class="graph">
<g id="viewport">
<title>Actor</title>
<polygon fill="white" stroke="white" points="-4,5 -4,-382 687,-382 687,5 -4,5"/>
<!-- Node1 -->
<g id="node1" class="node"><title>Node1</title>
<polygon fill="#bfbfbf" stroke="black" points="92,-62.5 92,-83.5 132,-83.5 132,-62.5 92,-62.5"/>
<text text-anchor="middle" x="112" y="-70.5" font-family="Helvetica,sans-Serif" font-size="10.00">Actor</text>
</g>
<!-- Node3 -->
<g id="node5" class="node"><title>Node3</title>
<a xlink:href="class_geo_base.html" target="_top" xlink:title="Base pour la classe Geometry. ">
<polygon fill="white" stroke="black" points="170.5,-165.5 170.5,-186.5 227.5,-186.5 227.5,-165.5 170.5,-165.5"/>
<text text-anchor="middle" x="199" y="-173.5" font-family="Helvetica,sans-Serif" font-size="10.00">GeoBase</text>
</a>
</g>
<!-- Node1&#45;&gt;Node3 -->
<g id="edge4" class="edge"><title>Node1&#45;&gt;Node3</title>
<path fill="none" stroke="midnightblue" d="M127.561,-91.4227C145.728,-112.93 175.164,-147.78 189.936,-165.269"/>
<polygon fill="midnightblue" stroke="midnightblue" points="130.109,-89.0159 120.983,-83.6349 124.762,-93.5329 130.109,-89.0159"/>
</g>
<!-- Node17 -->
<g id="node39" class="node"><title>Node17</title>
<a xlink:href="class_group.html" target="_top" xlink:title="Groupe de geometries. ">
<polygon fill="white" stroke="black" points="177.5,-62.5 177.5,-83.5 220.5,-83.5 220.5,-62.5 177.5,-62.5"/>
<text text-anchor="middle" x="199" y="-70.5" font-family="Helvetica,sans-Serif" font-size="10.00">Group</text>
</a>
</g>
<!-- Node1&#45;&gt;Node17 -->
<g id="edge44" class="edge"><title>Node1&#45;&gt;Node17</title>
<path fill="none" stroke="midnightblue" d="M142.308,-73C153.875,-73 166.816,-73 177.411,-73"/>
<polygon fill="midnightblue" stroke="midnightblue" points="142.178,-69.5001 132.178,-73 142.178,-76.5001 142.178,-69.5001"/>
</g>
<!-- Node18 -->
<g id="node41" class="node"><title>Node18</title>
<a xlink:href="class_light.html" target="_top" xlink:title="Light">
<polygon fill="white" stroke="black" points="180,-7.5 180,-28.5 218,-28.5 218,-7.5 180,-7.5"/>
<text text-anchor="middle" x="199" y="-15.5" font-family="Helvetica,sans-Serif" font-size="10.00">Light</text>
</a>
</g>
<!-- Node1&#45;&gt;Node18 -->
<g id="edge46" class="edge"><title>Node1&#45;&gt;Node18</title>
<path fill="none" stroke="midnightblue" d="M137.291,-57.0115C151.77,-47.8582 169.533,-36.6288 182.277,-28.572"/>
<polygon fill="midnightblue" stroke="midnightblue" points="135.357,-54.0934 128.774,-62.3954 139.097,-60.0102 135.357,-54.0934"/>
</g>
<!-- Node2 -->
<g id="node2" class="node"><title>Node2</title>
<a xlink:href="class_q_object.html" target="_top" xlink:title="QObject">
<polygon fill="white" stroke="black" points="0.5,-62.5 0.5,-83.5 53.5,-83.5 53.5,-62.5 0.5,-62.5"/>
<text text-anchor="middle" x="27" y="-70.5" font-family="Helvetica,sans-Serif" font-size="10.00">QObject</text>
</a>
</g>
<!-- Node2&#45;&gt;Node1 -->
<g id="edge2" class="edge"><title>Node2&#45;&gt;Node1</title>
<path fill="none" stroke="midnightblue" d="M63.9944,-73C73.5235,-73 83.4281,-73 91.7484,-73"/>
<polygon fill="midnightblue" stroke="midnightblue" points="63.8946,-69.5001 53.8945,-73 63.8945,-76.5001 63.8946,-69.5001"/>
</g>
<!-- Node4 -->
<g id="node7" class="node"><title>Node4</title>
<a xlink:href="class_geometry.html" target="_top" xlink:title="Base de toutes les géometries. ">
<polygon fill="white" stroke="black" points="266,-200.5 266,-221.5 366,-221.5 366,-200.5 266,-200.5"/>
<text text-anchor="middle" x="316" y="-208.5" font-family="Helvetica,sans-Serif" font-size="10.00">Geometry&lt; Child &gt;</text>
</a>
</g>
<!-- Node3&#45;&gt;Node4 -->
<g id="edge6" class="edge"><title>Node3&#45;&gt;Node4</title>
<path fill="none" stroke="midnightblue" d="M237.388,-187.484C251.292,-191.643 266.922,-196.319 280.561,-200.399"/>
<polygon fill="midnightblue" stroke="midnightblue" points="238.205,-184.075 227.621,-184.562 236.199,-190.781 238.205,-184.075"/>
</g>
<!-- Node5 -->
<g id="node9" class="node"><title>Node5</title>
<a xlink:href="class_geometry.html" target="_top" xlink:title="Geometry\&lt; Cube \&gt;">
<polygon fill="white" stroke="black" points="475.5,-196.5 475.5,-217.5 576.5,-217.5 576.5,-196.5 475.5,-196.5"/>
<text text-anchor="middle" x="526" y="-204.5" font-family="Helvetica,sans-Serif" font-size="10.00">Geometry&lt; Cube &gt;</text>
</a>
</g>
<!-- Node3&#45;&gt;Node5 -->
<g id="edge32" class="edge"><title>Node3&#45;&gt;Node5</title>
<path fill="none" stroke="midnightblue" d="M237.73,-170.042C287.151,-163.65 374.982,-156.368 448,-172 453.805,-173.243 482.823,-186.604 503.769,-196.45"/>
<polygon fill="midnightblue" stroke="midnightblue" points="237.229,-166.578 227.787,-171.384 238.165,-173.515 237.229,-166.578"/>
</g>
<!-- Node7 -->
<g id="node13" class="node"><title>Node7</title>
<a xlink:href="class_geometry.html" target="_top" xlink:title="Geometry\&lt; Line \&gt;">
<polygon fill="white" stroke="black" points="478.5,-246.5 478.5,-267.5 573.5,-267.5 573.5,-246.5 478.5,-246.5"/>
<text text-anchor="middle" x="526" y="-254.5" font-family="Helvetica,sans-Serif" font-size="10.00">Geometry&lt; Line &gt;</text>
</a>
</g>
<!-- Node3&#45;&gt;Node7 -->
<g id="edge36" class="edge"><title>Node3&#45;&gt;Node7</title>
<path fill="none" stroke="midnightblue" d="M216.808,-193.564C247.662,-222.518 314.455,-278.872 384,-297 411.525,-304.175 420.35,-303.676 448,-297 471.373,-291.356 495.607,-277.442 510.736,-267.616"/>
<polygon fill="midnightblue" stroke="midnightblue" points="219.069,-190.883 209.421,-186.505 214.232,-195.944 219.069,-190.883"/>
</g>
<!-- Node9 -->
<g id="node17" class="node"><title>Node9</title>
<a xlink:href="class_geometry.html" target="_top" xlink:title="Geometry\&lt; Sphere \&gt;">
<polygon fill="white" stroke="black" points="472,-356.5 472,-377.5 580,-377.5 580,-356.5 472,-356.5"/>
<text text-anchor="middle" x="526" y="-364.5" font-family="Helvetica,sans-Serif" font-size="10.00">Geometry&lt; Sphere &gt;</text>
</a>
</g>
<!-- Node3&#45;&gt;Node9 -->
<g id="edge40" class="edge"><title>Node3&#45;&gt;Node9</title>
<path fill="none" stroke="midnightblue" d="M202.87,-196.858C209.891,-229.07 227.7,-290.957 266,-327 320.96,-378.721 413.303,-380.337 471.866,-374.983"/>
<polygon fill="midnightblue" stroke="midnightblue" points="206.245,-195.894 200.82,-186.793 199.386,-197.291 206.245,-195.894"/>
</g>
<!-- Node11 -->
<g id="node21" class="node"><title>Node11</title>
<a xlink:href="class_geometry.html" target="_top" xlink:title="Geometry\&lt; Cylinder \&gt;">
<polygon fill="white" stroke="black" points="469.5,-71.5 469.5,-92.5 582.5,-92.5 582.5,-71.5 469.5,-71.5"/>
<text text-anchor="middle" x="526" y="-79.5" font-family="Helvetica,sans-Serif" font-size="10.00">Geometry&lt; Cylinder &gt;</text>
</a>
</g>
<!-- Node3&#45;&gt;Node11 -->
<g id="edge34" class="edge"><title>Node3&#45;&gt;Node11</title>
<path fill="none" stroke="midnightblue" d="M209.316,-156.454C220.492,-137.521 240.234,-109.846 266,-97 330.135,-65.0233 414.52,-66.8927 469.494,-72.9551"/>
<polygon fill="midnightblue" stroke="midnightblue" points="206.118,-155.001 204.266,-165.432 212.219,-158.432 206.118,-155.001"/>
</g>
<!-- Node13 -->
<g id="node25" class="node"><title>Node13</title>
<a xlink:href="class_geometry.html" target="_top" xlink:title="Geometry\&lt; Pyramide \&gt;">
<polygon fill="white" stroke="black" points="466.5,-148.5 466.5,-169.5 585.5,-169.5 585.5,-148.5 466.5,-148.5"/>
<text text-anchor="middle" x="526" y="-156.5" font-family="Helvetica,sans-Serif" font-size="10.00">Geometry&lt; Pyramide &gt;</text>
</a>
</g>
<!-- Node3&#45;&gt;Node13 -->
<g id="edge38" class="edge"><title>Node3&#45;&gt;Node13</title>
<path fill="none" stroke="midnightblue" d="M211.996,-157.085C220.374,-146.548 232.255,-134.313 246,-128 327.666,-90.4943 360.644,-97.9069 448,-119 471.373,-124.644 495.607,-138.558 510.736,-148.384"/>
<polygon fill="midnightblue" stroke="midnightblue" points="208.991,-155.261 205.819,-165.37 214.603,-159.445 208.991,-155.261"/>
</g>
<!-- Node15 -->
<g id="node29" class="node"><title>Node15</title>
<a xlink:href="class_geometry.html" target="_top" xlink:title="Geometry\&lt; Trigger \&gt;">
<polygon fill="white" stroke="black" points="472.5,-306.5 472.5,-327.5 579.5,-327.5 579.5,-306.5 472.5,-306.5"/>
<text text-anchor="middle" x="526" y="-314.5" font-family="Helvetica,sans-Serif" font-size="10.00">Geometry&lt; Trigger &gt;</text>
</a>
</g>
<!-- Node3&#45;&gt;Node15 -->
<g id="edge42" class="edge"><title>Node3&#45;&gt;Node15</title>
<path fill="none" stroke="midnightblue" d="M208.932,-195.666C220.54,-217.335 241.335,-252.376 266,-277 310.49,-321.417 323.795,-336.9 384,-355 411.24,-363.189 420.283,-361.392 448,-355 451.046,-354.298 482.938,-338.528 504.986,-327.527"/>
<polygon fill="midnightblue" stroke="midnightblue" points="211.998,-193.976 204.264,-186.736 205.795,-197.219 211.998,-193.976"/>
</g>
<!-- Node4&#45;&gt;Node5 -->
<g id="edge8" class="edge"><title>Node4&#45;&gt;Node5</title>
<path fill="none" stroke="orange" stroke-dasharray="5,2" d="M376.379,-209.85C407.68,-209.254 445.482,-208.534 475.257,-207.967"/>
<polygon fill="orange" stroke="orange" points="375.965,-206.357 366.033,-210.047 376.098,-213.356 375.965,-206.357"/>
<text text-anchor="middle" x="416" y="-213" font-family="Helvetica,sans-Serif" font-size="10.00"> &lt; Cube &gt;</text>
</g>
<!-- Node4&#45;&gt;Node7 -->
<g id="edge12" class="edge"><title>Node4&#45;&gt;Node7</title>
<path fill="none" stroke="orange" stroke-dasharray="5,2" d="M374.102,-223.727C406.937,-230.919 447.472,-239.799 478.408,-246.575"/>
<polygon fill="orange" stroke="orange" points="374.696,-220.274 364.178,-221.553 373.198,-227.112 374.696,-220.274"/>
<text text-anchor="middle" x="416" y="-243" font-family="Helvetica,sans-Serif" font-size="10.00"> &lt; Line &gt;</text>
</g>
<!-- Node4&#45;&gt;Node9 -->
<g id="edge16" class="edge"><title>Node4&#45;&gt;Node9</title>
<path fill="none" stroke="orange" stroke-dasharray="5,2" d="M326.624,-230.523C338.405,-250.658 359.075,-281.878 384,-302 416.172,-327.972 460.404,-346.067 490.912,-356.453"/>
<polygon fill="orange" stroke="orange" points="329.555,-228.595 321.575,-221.626 323.467,-232.05 329.555,-228.595"/>
<text text-anchor="middle" x="416" y="-342" font-family="Helvetica,sans-Serif" font-size="10.00"> &lt; Sphere &gt;</text>
</g>
<!-- Node4&#45;&gt;Node11 -->
<g id="edge20" class="edge"><title>Node4&#45;&gt;Node11</title>
<path fill="none" stroke="orange" stroke-dasharray="5,2" d="M336.553,-193.939C349.734,-183.34 367.425,-169.738 384,-159 424.718,-132.621 475.252,-106.73 503.739,-92.715"/>
<polygon fill="orange" stroke="orange" points="334.147,-191.385 328.599,-200.411 338.565,-196.815 334.147,-191.385"/>
<text text-anchor="middle" x="416" y="-163" font-family="Helvetica,sans-Serif" font-size="10.00"> &lt; Cylinder &gt;</text>
</g>
<!-- Node4&#45;&gt;Node13 -->
<g id="edge24" class="edge"><title>Node4&#45;&gt;Node13</title>
<path fill="none" stroke="orange" stroke-dasharray="5,2" d="M359.737,-197.685C367.781,-195.365 376.125,-193.043 384,-191 414.21,-183.162 448.319,-175.439 475.536,-169.544"/>
<polygon fill="orange" stroke="orange" points="358.741,-194.33 350.125,-200.496 360.705,-201.049 358.741,-194.33"/>
<text text-anchor="middle" x="416" y="-195" font-family="Helvetica,sans-Serif" font-size="10.00"> &lt; Pyramide &gt;</text>
</g>
<!-- Node4&#45;&gt;Node15 -->
<g id="edge28" class="edge"><title>Node4&#45;&gt;Node15</title>
<path fill="none" stroke="orange" stroke-dasharray="5,2" d="M338.674,-227.484C351.604,-236.501 368.313,-247.528 384,-256 421.892,-276.463 468.087,-295.245 497.279,-306.41"/>
<polygon fill="orange" stroke="orange" points="340.571,-224.538 330.386,-221.618 336.527,-230.251 340.571,-224.538"/>
<text text-anchor="middle" x="416" y="-289" font-family="Helvetica,sans-Serif" font-size="10.00"> &lt; Trigger &gt;</text>
</g>
<!-- Node6 -->
<g id="node11" class="node"><title>Node6</title>
<a xlink:href="class_cube.html" target="_top" xlink:title="Un simple cube. ">
<polygon fill="white" stroke="black" points="633,-196.5 633,-217.5 673,-217.5 673,-196.5 633,-196.5"/>
<text text-anchor="middle" x="653" y="-204.5" font-family="Helvetica,sans-Serif" font-size="10.00">Cube</text>
</a>
</g>
<!-- Node5&#45;&gt;Node6 -->
<g id="edge10" class="edge"><title>Node5&#45;&gt;Node6</title>
<path fill="none" stroke="midnightblue" d="M586.801,-207C603.366,-207 620.176,-207 632.712,-207"/>
<polygon fill="midnightblue" stroke="midnightblue" points="586.559,-203.5 576.559,-207 586.559,-210.5 586.559,-203.5"/>
</g>
<!-- Node8 -->
<g id="node15" class="node"><title>Node8</title>
<a xlink:href="class_line.html" target="_top" xlink:title="Line">
<polygon fill="white" stroke="black" points="635.5,-246.5 635.5,-267.5 670.5,-267.5 670.5,-246.5 635.5,-246.5"/>
<text text-anchor="middle" x="653" y="-254.5" font-family="Helvetica,sans-Serif" font-size="10.00">Line</text>
</a>
</g>
<!-- Node7&#45;&gt;Node8 -->
<g id="edge14" class="edge"><title>Node7&#45;&gt;Node8</title>
<path fill="none" stroke="midnightblue" d="M583.896,-257C602.531,-257 621.815,-257 635.261,-257"/>
<polygon fill="midnightblue" stroke="midnightblue" points="583.651,-253.5 573.651,-257 583.651,-260.5 583.651,-253.5"/>
</g>
<!-- Node10 -->
<g id="node19" class="node"><title>Node10</title>
<a xlink:href="class_sphere.html" target="_top" xlink:title="Une simple sphere. ">
<polygon fill="white" stroke="black" points="629.5,-356.5 629.5,-377.5 676.5,-377.5 676.5,-356.5 629.5,-356.5"/>
<text text-anchor="middle" x="653" y="-364.5" font-family="Helvetica,sans-Serif" font-size="10.00">Sphere</text>
</a>
</g>
<!-- Node9&#45;&gt;Node10 -->
<g id="edge18" class="edge"><title>Node9&#45;&gt;Node10</title>
<path fill="none" stroke="midnightblue" d="M590.329,-367C604.24,-367 618.098,-367 629.232,-367"/>
<polygon fill="midnightblue" stroke="midnightblue" points="590.228,-363.5 580.228,-367 590.228,-370.5 590.228,-363.5"/>
</g>
<!-- Node12 -->
<g id="node23" class="node"><title>Node12</title>
<a xlink:href="class_cylinder.html" target="_top" xlink:title="Cylinder">
<polygon fill="white" stroke="black" points="626.5,-71.5 626.5,-92.5 679.5,-92.5 679.5,-71.5 626.5,-71.5"/>
<text text-anchor="middle" x="653" y="-79.5" font-family="Helvetica,sans-Serif" font-size="10.00">Cylinder</text>
</a>
</g>
<!-- Node11&#45;&gt;Node12 -->
<g id="edge22" class="edge"><title>Node11&#45;&gt;Node12</title>
<path fill="none" stroke="midnightblue" d="M592.819,-82C604.731,-82 616.487,-82 626.403,-82"/>
<polygon fill="midnightblue" stroke="midnightblue" points="592.814,-78.5001 582.814,-82 592.814,-85.5001 592.814,-78.5001"/>
</g>
<!-- Node14 -->
<g id="node27" class="node"><title>Node14</title>
<a xlink:href="class_pyramide.html" target="_top" xlink:title="Pyramide">
<polygon fill="white" stroke="black" points="624,-148.5 624,-169.5 682,-169.5 682,-148.5 624,-148.5"/>
<text text-anchor="middle" x="653" y="-156.5" font-family="Helvetica,sans-Serif" font-size="10.00">Pyramide</text>
</a>
</g>
<!-- Node13&#45;&gt;Node14 -->
<g id="edge26" class="edge"><title>Node13&#45;&gt;Node14</title>
<path fill="none" stroke="midnightblue" d="M596.035,-159C605.84,-159 615.435,-159 623.871,-159"/>
<polygon fill="midnightblue" stroke="midnightblue" points="595.781,-155.5 585.781,-159 595.781,-162.5 595.781,-155.5"/>
</g>
<!-- Node16 -->
<g id="node31" class="node"><title>Node16</title>
<a xlink:href="class_trigger.html" target="_top" xlink:title="Trigger">
<polygon fill="white" stroke="black" points="629.5,-306.5 629.5,-327.5 676.5,-327.5 676.5,-306.5 629.5,-306.5"/>
<text text-anchor="middle" x="653" y="-314.5" font-family="Helvetica,sans-Serif" font-size="10.00">Trigger</text>
</a>
</g>
<!-- Node15&#45;&gt;Node16 -->
<g id="edge30" class="edge"><title>Node15&#45;&gt;Node16</title>
<path fill="none" stroke="midnightblue" d="M590.073,-317C604.144,-317 618.178,-317 629.41,-317"/>
<polygon fill="midnightblue" stroke="midnightblue" points="589.859,-313.5 579.859,-317 589.859,-320.5 589.859,-313.5"/>
</g>
<!-- Node19 -->
<g id="node43" class="node"><title>Node19</title>
<a xlink:href="class_spotlight.html" target="_top" xlink:title="Spotlight">
<polygon fill="white" stroke="black" points="288.5,-0.5 288.5,-21.5 343.5,-21.5 343.5,-0.5 288.5,-0.5"/>
<text text-anchor="middle" x="316" y="-8.5" font-family="Helvetica,sans-Serif" font-size="10.00">Spotlight</text>
</a>
</g>
<!-- Node18&#45;&gt;Node19 -->
<g id="edge48" class="edge"><title>Node18&#45;&gt;Node19</title>
<path fill="none" stroke="midnightblue" d="M228.19,-16.2536C246.554,-15.1549 270.115,-13.7453 288.207,-12.6629"/>
<polygon fill="midnightblue" stroke="midnightblue" points="227.832,-12.7687 218.058,-16.8597 228.25,-19.7562 227.832,-12.7687"/>
</g>
</g>
</svg>
        <g id="navigator" transform="translate(0 0)" fill="#404254">
                <rect fill="#f2f5e9" fill-opacity="0.5" stroke="#606060" stroke-width=".5" x="0" y="0" width="60" height="60"/>
                <use id="zoomplus" xlink:href="#zoomPlus" x="17" y="9" onmousedown="handleZoom(evt,'in')"/>
                <use id="zoomminus" xlink:href="#zoomMin" x="42" y="9" onmousedown="handleZoom(evt,'out')"/>
                <use id="reset" xlink:href="#resetDef" x="30" y="36" onmousedown="handleReset()"/>
                <g id="arrowUp" xlink:href="#dirArrow" transform="translate(30 24)" onmousedown="handlePan(0,-1)">
                  <use xlink:href="#rim" fill="#404040">
                        <set attributeName="fill" to="#808080" begin="arrowUp.mouseover" end="arrowUp.mouseout"/>
                  </use>
                  <path fill="none" stroke="white" stroke-width="1.5" d="M0,-3.0v7 M-2.5,-0.5L0,-3.0L2.5,-0.5"/>
                </g>
                <g id="arrowRight" xlink:href="#dirArrow" transform="rotate(90) translate(36 -43)" onmousedown="handlePan(1,0)">
                  <use xlink:href="#rim" fill="#404040">
                        <set attributeName="fill" to="#808080" begin="arrowRight.mouseover" end="arrowRight.mouseout"/>
                  </use>
                  <path fill="none" stroke="white" stroke-width="1.5" d="M0,-3.0v7 M-2.5,-0.5L0,-3.0L2.5,-0.5"/>
                </g>
                <g id="arrowDown" xlink:href="#dirArrow" transform="rotate(180) translate(-30 -48)" onmousedown="handlePan(0,1)">
                  <use xlink:href="#rim" fill="#404040">
                        <set attributeName="fill" to="#808080" begin="arrowDown.mouseover" end="arrowDown.mouseout"/>
                  </use>
                  <path fill="none" stroke="white" stroke-width="1.5" d="M0,-3.0v7 M-2.5,-0.5L0,-3.0L2.5,-0.5"/>
                </g>
                <g id="arrowLeft" xlink:href="#dirArrow" transform="rotate(270) translate(-36 17)" onmousedown="handlePan(-1,0)">
                  <use xlink:href="#rim" fill="#404040">
                        <set attributeName="fill" to="#808080" begin="arrowLeft.mouseover" end="arrowLeft.mouseout"/>
                  </use>
                  <path fill="none" stroke="white" stroke-width="1.5" d="M0,-3.0v7 M-2.5,-0.5L0,-3.0L2.5,-0.5"/>
                </g>
        </g>
        <svg viewBox="0 0 15 15" width="100%" height="30px" preserveAspectRatio="xMaxYMin meet">
         <g id="arrow_out" transform="scale(0.3 0.3)">
          <a xlink:href="class_actor__inherit__graph_org.svg" target="_base">
           <rect id="button" ry="5" rx="5" y="6" x="6" height="38" width="38"
                fill="#f2f5e9" fill-opacity="0.5" stroke="#606060" stroke-width="1.0"/>
           <path id="arrow"
             d="M 11.500037,31.436501 C 11.940474,20.09759 22.043105,11.32322 32.158766,21.979434 L 37.068811,17.246167 C 37.068811,17.246167 37.088388,32 37.088388,32 L 22.160133,31.978069 C 22.160133,31.978069 26.997745,27.140456 26.997745,27.140456 C 18.528582,18.264221 13.291696,25.230495 11.500037,31.436501 z"
             style="fill:#404040;"/>
          </a>
         </g>
        </svg>
</svg>
