<?xml version="1.0" encoding="UTF-8" standalone="no"?>
<!DOCTYPE svg PUBLIC "-//W3C//DTD SVG 1.1//EN"
 "http://www.w3.org/Graphics/SVG/1.1/DTD/svg11.dtd">
<!-- Generated by graphviz version 2.26.3 (20100126.1600)
 -->
<!-- Title: Viewport::clearLevel Pages: 1 -->
<svg width="396pt" height="30pt"
 viewBox="0.00 0.00 396.00 30.00" xmlns="http://www.w3.org/2000/svg" xmlns:xlink="http://www.w3.org/1999/xlink">
<g id="graph1" class="graph" transform="scale(1 1) rotate(0) translate(4 26)">
<title>Viewport::clearLevel</title>
<polygon fill="white" stroke="white" points="-4,5 -4,-26 393,-26 393,5 -4,5"/>
<!-- Node1 -->
<g id="node1" class="node"><title>Node1</title>
<polygon fill="#bfbfbf" stroke="black" points="0.5,-0.5 0.5,-21.5 105.5,-21.5 105.5,-0.5 0.5,-0.5"/>
<text text-anchor="middle" x="53" y="-8.5" font-family="Helvetica,sans-Serif" font-size="10.00">Viewport::clearLevel</text>
</g>
<!-- Node2 -->
<g id="node3" class="node"><title>Node2</title>
<a xlink:href="class_world.html#ad705d80a512244721b55c69bccab5653" target="_top" xlink:title="World::addZone">
<polygon fill="white" stroke="black" points="142,-0.5 142,-21.5 228,-21.5 228,-0.5 142,-0.5"/>
<text text-anchor="middle" x="185" y="-8.5" font-family="Helvetica,sans-Serif" font-size="10.00">World::addZone</text>
</a>
</g>
<!-- Node1&#45;&gt;Node2 -->
<g id="edge2" class="edge"><title>Node1&#45;&gt;Node2</title>
<path fill="none" stroke="midnightblue" d="M105.549,-11C114.231,-11 123.236,-11 131.93,-11"/>
<polygon fill="midnightblue" stroke="midnightblue" points="131.955,-14.5001 141.955,-11 131.955,-7.5001 131.955,-14.5001"/>
</g>
<!-- Node3 -->
<g id="node5" class="node"><title>Node3</title>
<a xlink:href="class_world.html#a3362c1031d93b06f02431705adf3f171" target="_top" xlink:title="World::setCurrentZoneId">
<polygon fill="white" stroke="black" points="264,-0.5 264,-21.5 388,-21.5 388,-0.5 264,-0.5"/>
<text text-anchor="middle" x="326" y="-8.5" font-family="Helvetica,sans-Serif" font-size="10.00">World::setCurrentZoneId</text>
</a>
</g>
<!-- Node2&#45;&gt;Node3 -->
<g id="edge4" class="edge"><title>Node2&#45;&gt;Node3</title>
<path fill="none" stroke="midnightblue" d="M228.071,-11C236.22,-11 244.949,-11 253.714,-11"/>
<polygon fill="midnightblue" stroke="midnightblue" points="253.989,-14.5001 263.989,-11 253.989,-7.5001 253.989,-14.5001"/>
</g>
</g>
</svg>
