<?xml version="1.0" encoding="UTF-8" standalone="no"?>
<!DOCTYPE svg PUBLIC "-//W3C//DTD SVG 1.1//EN"
 "http://www.w3.org/Graphics/SVG/1.1/DTD/svg11.dtd">
<!-- Generated by graphviz version 2.26.3 (20100126.1600)
 -->
<!-- Title: Camera::up Pages: 1 -->
<svg width="524pt" height="110pt"
 viewBox="0.00 0.00 524.00 110.00" xmlns="http://www.w3.org/2000/svg" xmlns:xlink="http://www.w3.org/1999/xlink">
<g id="graph1" class="graph" transform="scale(1 1) rotate(0) translate(4 106)">
<title>Camera::up</title>
<polygon fill="white" stroke="white" points="-4,5 -4,-106 521,-106 521,5 -4,5"/>
<!-- Node1 -->
<g id="node1" class="node"><title>Node1</title>
<polygon fill="#bfbfbf" stroke="black" points="0,-40.5 0,-61.5 68,-61.5 68,-40.5 0,-40.5"/>
<text text-anchor="middle" x="34" y="-48.5" font-family="Helvetica,sans-Serif" font-size="10.00">Camera::up</text>
</g>
<!-- Node2 -->
<g id="node3" class="node"><title>Node2</title>
<a xlink:href="class_camera.html#a37709eb62bc8b5ff7fd3087b891fcdf6" target="_top" xlink:title="Camera::orientation">
<polygon fill="white" stroke="black" points="117,-80.5 117,-101.5 219,-101.5 219,-80.5 117,-80.5"/>
<text text-anchor="middle" x="168" y="-88.5" font-family="Helvetica,sans-Serif" font-size="10.00">Camera::orientation</text>
</a>
</g>
<!-- Node1&#45;&gt;Node2 -->
<g id="edge2" class="edge"><title>Node1&#45;&gt;Node2</title>
<path fill="none" stroke="midnightblue" d="M78.2171,-64.1991C95.8395,-69.4595 115.849,-75.4325 132.499,-80.4025"/>
<polygon fill="midnightblue" stroke="midnightblue" points="78.7439,-60.7038 68.1606,-61.1972 76.7416,-67.4114 78.7439,-60.7038"/>
</g>
<!-- Node3 -->
<g id="node5" class="node"><title>Node3</title>
<a xlink:href="class_camera.html#af81adf3ba7f63429a9d5356c218da78f" target="_top" xlink:title="Camera::view">
<polygon fill="white" stroke="black" points="129.5,-40.5 129.5,-61.5 206.5,-61.5 206.5,-40.5 129.5,-40.5"/>
<text text-anchor="middle" x="168" y="-48.5" font-family="Helvetica,sans-Serif" font-size="10.00">Camera::view</text>
</a>
</g>
<!-- Node1&#45;&gt;Node3 -->
<g id="edge4" class="edge"><title>Node1&#45;&gt;Node3</title>
<path fill="none" stroke="midnightblue" d="M78.5792,-51C94.9491,-51 113.337,-51 129.163,-51"/>
<polygon fill="midnightblue" stroke="midnightblue" points="78.1606,-47.5001 68.1606,-51 78.1605,-54.5001 78.1606,-47.5001"/>
</g>
<!-- Node6 -->
<g id="node11" class="node"><title>Node6</title>
<a xlink:href="class_viewport.html#ae3b6b681561ee1ef2bdb96d27bd2a1f0" target="_top" xlink:title="Viewport::keyPressEvent">
<polygon fill="white" stroke="black" points="104,-0.5 104,-21.5 232,-21.5 232,-0.5 104,-0.5"/>
<text text-anchor="middle" x="168" y="-8.5" font-family="Helvetica,sans-Serif" font-size="10.00">Viewport::keyPressEvent</text>
</a>
</g>
<!-- Node1&#45;&gt;Node6 -->
<g id="edge10" class="edge"><title>Node1&#45;&gt;Node6</title>
<path fill="none" stroke="midnightblue" d="M78.2171,-37.8009C95.8395,-32.5405 115.849,-26.5675 132.499,-21.5975"/>
<polygon fill="midnightblue" stroke="midnightblue" points="76.7416,-34.5886 68.1606,-40.8028 78.7439,-41.2962 76.7416,-34.5886"/>
</g>
<!-- Node4 -->
<g id="node7" class="node"><title>Node4</title>
<a xlink:href="class_viewport.html#ad0317022a7a6399ee47c199bb9348efc" target="_top" xlink:title="Viewport::renderScene">
<polygon fill="white" stroke="black" points="268,-40.5 268,-61.5 384,-61.5 384,-40.5 268,-40.5"/>
<text text-anchor="middle" x="326" y="-48.5" font-family="Helvetica,sans-Serif" font-size="10.00">Viewport::renderScene</text>
</a>
</g>
<!-- Node3&#45;&gt;Node4 -->
<g id="edge6" class="edge"><title>Node3&#45;&gt;Node4</title>
<path fill="none" stroke="midnightblue" d="M216.901,-51C232.979,-51 251.012,-51 267.716,-51"/>
<polygon fill="midnightblue" stroke="midnightblue" points="216.651,-47.5001 206.651,-51 216.651,-54.5001 216.651,-47.5001"/>
</g>
<!-- Node5 -->
<g id="node9" class="node"><title>Node5</title>
<a xlink:href="class_viewport.html#a3c2c4661eac1f6351392b8fe133423f5" target="_top" xlink:title="Viewport::paintGL">
<polygon fill="white" stroke="black" points="420.5,-40.5 420.5,-61.5 515.5,-61.5 515.5,-40.5 420.5,-40.5"/>
<text text-anchor="middle" x="468" y="-48.5" font-family="Helvetica,sans-Serif" font-size="10.00">Viewport::paintGL</text>
</a>
</g>
<!-- Node4&#45;&gt;Node5 -->
<g id="edge8" class="edge"><title>Node4&#45;&gt;Node5</title>
<path fill="none" stroke="midnightblue" d="M394.336,-51C403.046,-51 411.81,-51 420.102,-51"/>
<polygon fill="midnightblue" stroke="midnightblue" points="394.167,-47.5001 384.167,-51 394.167,-54.5001 394.167,-47.5001"/>
</g>
</g>
</svg>
