<?xml version="1.0" encoding="UTF-8" standalone="no"?>
<!DOCTYPE svg PUBLIC "-//W3C//DTD SVG 1.1//EN"
 "http://www.w3.org/Graphics/SVG/1.1/DTD/svg11.dtd">
<!-- Generated by graphviz version 2.26.3 (20100126.1600)
 -->
<!-- Title: Actor::position Pages: 1 -->
<svg width="490pt" height="122pt"
 viewBox="0.00 0.00 490.00 122.00" xmlns="http://www.w3.org/2000/svg" xmlns:xlink="http://www.w3.org/1999/xlink">
<g id="graph1" class="graph" transform="scale(1 1) rotate(0) translate(4 118)">
<title>Actor::position</title>
<polygon fill="white" stroke="white" points="-4,5 -4,-118 487,-118 487,5 -4,5"/>
<!-- Node1 -->
<g id="node1" class="node"><title>Node1</title>
<polygon fill="#bfbfbf" stroke="black" points="0,-20.5 0,-41.5 80,-41.5 80,-20.5 0,-20.5"/>
<text text-anchor="middle" x="40" y="-28.5" font-family="Helvetica,sans-Serif" font-size="10.00">Actor::position</text>
</g>
<!-- Node2 -->
<g id="node3" class="node"><title>Node2</title>
<a xlink:href="class_actor.html#abbf942f60996c5df2a8c0a832bd91abc" target="_top" xlink:title="Actor::transform">
<polygon fill="white" stroke="black" points="128.5,-40.5 128.5,-61.5 215.5,-61.5 215.5,-40.5 128.5,-40.5"/>
<text text-anchor="middle" x="172" y="-48.5" font-family="Helvetica,sans-Serif" font-size="10.00">Actor::transform</text>
</a>
</g>
<!-- Node1&#45;&gt;Node2 -->
<g id="edge2" class="edge"><title>Node1&#45;&gt;Node2</title>
<path fill="none" stroke="midnightblue" d="M90.5385,-38.6574C102.968,-40.5406 116.173,-42.5414 128.252,-44.3715"/>
<polygon fill="midnightblue" stroke="midnightblue" points="90.7331,-35.147 80.3216,-37.1093 89.6844,-42.068 90.7331,-35.147"/>
</g>
<!-- Node7 -->
<g id="node13" class="node"><title>Node7</title>
<a xlink:href="class_spotlight.html#a5901141395318038d54058bbbfc5b990" target="_top" xlink:title="Spotlight::updateView">
<polygon fill="white" stroke="black" points="116,-0.5 116,-21.5 228,-21.5 228,-0.5 116,-0.5"/>
<text text-anchor="middle" x="172" y="-8.5" font-family="Helvetica,sans-Serif" font-size="10.00">Spotlight::updateView</text>
</a>
</g>
<!-- Node1&#45;&gt;Node7 -->
<g id="edge12" class="edge"><title>Node1&#45;&gt;Node7</title>
<path fill="none" stroke="midnightblue" d="M90.3074,-23.3777C98.6711,-22.1104 107.392,-20.7891 115.889,-19.5017"/>
<polygon fill="midnightblue" stroke="midnightblue" points="89.6844,-19.932 80.3216,-24.8907 90.7331,-26.853 89.6844,-19.932"/>
</g>
<!-- Node3 -->
<g id="node5" class="node"><title>Node3</title>
<a xlink:href="class_geometry.html#a7cb8ea5e505f3933367d7ff9c6439985" target="_top" xlink:title="Geometry\&lt; Trigger \&gt;\l::draw">
<polygon fill="white" stroke="black" points="264.5,-80 264.5,-114 371.5,-114 371.5,-80 264.5,-80"/>
<text text-anchor="start" x="272.5" y="-101" font-family="Helvetica,sans-Serif" font-size="10.00">Geometry&lt; Trigger &gt;</text>
<text text-anchor="middle" x="318" y="-88" font-family="Helvetica,sans-Serif" font-size="10.00">::draw</text>
</a>
</g>
<!-- Node2&#45;&gt;Node3 -->
<g id="edge4" class="edge"><title>Node2&#45;&gt;Node3</title>
<path fill="none" stroke="midnightblue" d="M215.269,-64.6328C230.664,-69.4833 248.187,-75.0042 264.347,-80.0956"/>
<polygon fill="midnightblue" stroke="midnightblue" points="216.085,-61.2202 205.495,-61.5533 213.981,-67.8967 216.085,-61.2202"/>
</g>
<!-- Node5 -->
<g id="node9" class="node"><title>Node5</title>
<a xlink:href="class_group.html#af8d7df31c5fe4f8e22bd022c8735b6b2" target="_top" xlink:title="Group::draw">
<polygon fill="white" stroke="black" points="283,-40.5 283,-61.5 353,-61.5 353,-40.5 283,-40.5"/>
<text text-anchor="middle" x="318" y="-48.5" font-family="Helvetica,sans-Serif" font-size="10.00">Group::draw</text>
</a>
</g>
<!-- Node2&#45;&gt;Node5 -->
<g id="edge8" class="edge"><title>Node2&#45;&gt;Node5</title>
<path fill="none" stroke="midnightblue" d="M226.062,-51C244.924,-51 265.598,-51 282.556,-51"/>
<polygon fill="midnightblue" stroke="midnightblue" points="225.805,-47.5001 215.805,-51 225.805,-54.5001 225.805,-47.5001"/>
</g>
<!-- Node6 -->
<g id="node11" class="node"><title>Node6</title>
<a xlink:href="class_line.html#a1a11432f5239ebf18316369a400a9893" target="_top" xlink:title="Line::transform">
<polygon fill="white" stroke="black" points="277,-0.5 277,-21.5 359,-21.5 359,-0.5 277,-0.5"/>
<text text-anchor="middle" x="318" y="-8.5" font-family="Helvetica,sans-Serif" font-size="10.00">Line::transform</text>
</a>
</g>
<!-- Node2&#45;&gt;Node6 -->
<g id="edge10" class="edge"><title>Node2&#45;&gt;Node6</title>
<path fill="none" stroke="midnightblue" d="M220.186,-37.7985C239.498,-32.5073 261.441,-26.4955 279.643,-21.5087"/>
<polygon fill="midnightblue" stroke="midnightblue" points="219.08,-34.4724 210.36,-40.4905 220.929,-41.2237 219.08,-34.4724"/>
</g>
<!-- Node4 -->
<g id="node7" class="node"><title>Node4</title>
<a xlink:href="class_trigger.html#ae3e4635086dd4d53bbdedd0b02525daa" target="_top" xlink:title="Trigger::draw">
<polygon fill="white" stroke="black" points="408,-86.5 408,-107.5 482,-107.5 482,-86.5 408,-86.5"/>
<text text-anchor="middle" x="445" y="-94.5" font-family="Helvetica,sans-Serif" font-size="10.00">Trigger::draw</text>
</a>
</g>
<!-- Node3&#45;&gt;Node4 -->
<g id="edge6" class="edge"><title>Node3&#45;&gt;Node4</title>
<path fill="none" stroke="midnightblue" d="M381.913,-97C390.846,-97 399.769,-97 407.973,-97"/>
<polygon fill="midnightblue" stroke="midnightblue" points="381.859,-93.5001 371.859,-97 381.859,-100.5 381.859,-93.5001"/>
</g>
</g>
</svg>
