<?xml version="1.0" encoding="UTF-8" standalone="no"?>
<!DOCTYPE svg PUBLIC "-//W3C//DTD SVG 1.1//EN"
 "http://www.w3.org/Graphics/SVG/1.1/DTD/svg11.dtd">
<!-- Generated by graphviz version 2.26.3 (20100126.1600)
 -->
<!-- Title: Camera::speed Pages: 1 -->
<svg width="384pt" height="30pt"
 viewBox="0.00 0.00 384.00 30.00" xmlns="http://www.w3.org/2000/svg" xmlns:xlink="http://www.w3.org/1999/xlink">
<g id="graph1" class="graph" transform="scale(1 1) rotate(0) translate(4 26)">
<title>Camera::speed</title>
<polygon fill="white" stroke="white" points="-4,5 -4,-26 381,-26 381,5 -4,5"/>
<!-- Node1 -->
<g id="node1" class="node"><title>Node1</title>
<polygon fill="#bfbfbf" stroke="black" points="0.5,-0.5 0.5,-21.5 83.5,-21.5 83.5,-0.5 0.5,-0.5"/>
<text text-anchor="middle" x="42" y="-8.5" font-family="Helvetica,sans-Serif" font-size="10.00">Camera::speed</text>
</g>
<!-- Node2 -->
<g id="node3" class="node"><title>Node2</title>
<a xlink:href="class_camera.html#a600387791d90bfb6578ea050e3f60ae3" target="_top" xlink:title="Camera::velocity">
<polygon fill="white" stroke="black" points="120.5,-0.5 120.5,-21.5 211.5,-21.5 211.5,-0.5 120.5,-0.5"/>
<text text-anchor="middle" x="166" y="-8.5" font-family="Helvetica,sans-Serif" font-size="10.00">Camera::velocity</text>
</a>
</g>
<!-- Node1&#45;&gt;Node2 -->
<g id="edge2" class="edge"><title>Node1&#45;&gt;Node2</title>
<path fill="none" stroke="midnightblue" d="M93.8275,-11C102.659,-11 111.773,-11 120.427,-11"/>
<polygon fill="midnightblue" stroke="midnightblue" points="93.6352,-7.5001 83.6352,-11 93.6351,-14.5001 93.6352,-7.5001"/>
</g>
<!-- Node3 -->
<g id="node5" class="node"><title>Node3</title>
<a xlink:href="class_viewport.html#ae3b6b681561ee1ef2bdb96d27bd2a1f0" target="_top" xlink:title="Viewport::keyPressEvent">
<polygon fill="white" stroke="black" points="248,-0.5 248,-21.5 376,-21.5 376,-0.5 248,-0.5"/>
<text text-anchor="middle" x="312" y="-8.5" font-family="Helvetica,sans-Serif" font-size="10.00">Viewport::keyPressEvent</text>
</a>
</g>
<!-- Node2&#45;&gt;Node3 -->
<g id="edge4" class="edge"><title>Node2&#45;&gt;Node3</title>
<path fill="none" stroke="midnightblue" d="M221.958,-11C230.45,-11 239.268,-11 247.917,-11"/>
<polygon fill="midnightblue" stroke="midnightblue" points="221.795,-7.5001 211.795,-11 221.795,-14.5001 221.795,-7.5001"/>
</g>
</g>
</svg>
