<?xml version="1.0" encoding="UTF-8" standalone="no"?>
<!DOCTYPE svg PUBLIC "-//W3C//DTD SVG 1.1//EN"
 "http://www.w3.org/Graphics/SVG/1.1/DTD/svg11.dtd">
<!-- Generated by graphviz version 2.26.3 (20100126.1600)
 -->
<!-- Title: Viewport::updateLights Pages: 1 -->
<svg width="272pt" height="110pt"
 viewBox="0.00 0.00 272.00 110.00" xmlns="http://www.w3.org/2000/svg" xmlns:xlink="http://www.w3.org/1999/xlink">
<g id="graph1" class="graph" transform="scale(1 1) rotate(0) translate(4 106)">
<title>Viewport::updateLights</title>
<polygon fill="white" stroke="white" points="-4,5 -4,-106 269,-106 269,5 -4,5"/>
<!-- Node1 -->
<g id="node1" class="node"><title>Node1</title>
<polygon fill="#bfbfbf" stroke="black" points="0,-40.5 0,-61.5 116,-61.5 116,-40.5 0,-40.5"/>
<text text-anchor="middle" x="58" y="-48.5" font-family="Helvetica,sans-Serif" font-size="10.00">Viewport::updateLights</text>
</g>
<!-- Node2 -->
<g id="node3" class="node"><title>Node2</title>
<a xlink:href="class_world.html#a45fac3748d15198a09ce257da35e6fcf" target="_top" xlink:title="World::zoneList">
<polygon fill="white" stroke="black" points="165.5,-80.5 165.5,-101.5 250.5,-101.5 250.5,-80.5 165.5,-80.5"/>
<text text-anchor="middle" x="208" y="-88.5" font-family="Helvetica,sans-Serif" font-size="10.00">World::zoneList</text>
</a>
</g>
<!-- Node1&#45;&gt;Node2 -->
<g id="edge2" class="edge"><title>Node1&#45;&gt;Node2</title>
<path fill="none" stroke="midnightblue" d="M97.4107,-61.5095C116.198,-66.5193 138.863,-72.5634 158.77,-77.8721"/>
<polygon fill="midnightblue" stroke="midnightblue" points="158.028,-81.2964 168.592,-80.4913 159.832,-74.5328 158.028,-81.2964"/>
</g>
<!-- Node3 -->
<g id="node5" class="node"><title>Node3</title>
<a xlink:href="class_world.html#a664cd2c63ef6c7979736cd454b31eb1c" target="_top" xlink:title="World::currentZone">
<polygon fill="white" stroke="black" points="158,-40.5 158,-61.5 258,-61.5 258,-40.5 158,-40.5"/>
<text text-anchor="middle" x="208" y="-48.5" font-family="Helvetica,sans-Serif" font-size="10.00">World::currentZone</text>
</a>
</g>
<!-- Node1&#45;&gt;Node3 -->
<g id="edge4" class="edge"><title>Node1&#45;&gt;Node3</title>
<path fill="none" stroke="midnightblue" d="M116.423,-51C126.665,-51 137.34,-51 147.633,-51"/>
<polygon fill="midnightblue" stroke="midnightblue" points="147.769,-54.5001 157.769,-51 147.769,-47.5001 147.769,-54.5001"/>
</g>
<!-- Node4 -->
<g id="node7" class="node"><title>Node4</title>
<a xlink:href="class_viewport.html#ae2666049736ca227e0ddc0d23c431d96" target="_top" xlink:title="Viewport::updateLight">
<polygon fill="white" stroke="black" points="152.5,-0.5 152.5,-21.5 263.5,-21.5 263.5,-0.5 152.5,-0.5"/>
<text text-anchor="middle" x="208" y="-8.5" font-family="Helvetica,sans-Serif" font-size="10.00">Viewport::updateLight</text>
</a>
</g>
<!-- Node1&#45;&gt;Node4 -->
<g id="edge6" class="edge"><title>Node1&#45;&gt;Node4</title>
<path fill="none" stroke="midnightblue" d="M97.4107,-40.4905C116.198,-35.4807 138.863,-29.4366 158.77,-24.1279"/>
<polygon fill="midnightblue" stroke="midnightblue" points="159.832,-27.4672 168.592,-21.5087 158.028,-20.7036 159.832,-27.4672"/>
</g>
</g>
</svg>
