<?xml version="1.0" encoding="UTF-8" standalone="no"?>
<!DOCTYPE svg PUBLIC "-//W3C//DTD SVG 1.1//EN"
 "http://www.w3.org/Graphics/SVG/1.1/DTD/svg11.dtd">
<!-- Generated by graphviz version 2.26.3 (20100126.1600)
 -->
<!-- Title: Light::view Pages: 1 -->
<svg width="356pt" height="190pt"
 viewBox="0.00 0.00 356.00 190.00" xmlns="http://www.w3.org/2000/svg" xmlns:xlink="http://www.w3.org/1999/xlink">
<g id="graph1" class="graph" transform="scale(1 1) rotate(0) translate(4 186)">
<title>Light::view</title>
<polygon fill="white" stroke="white" points="-4,5 -4,-186 353,-186 353,5 -4,5"/>
<!-- Node1 -->
<g id="node1" class="node"><title>Node1</title>
<polygon fill="#bfbfbf" stroke="black" points="0,-80.5 0,-101.5 64,-101.5 64,-80.5 0,-80.5"/>
<text text-anchor="middle" x="32" y="-88.5" font-family="Helvetica,sans-Serif" font-size="10.00">Light::view</text>
</g>
<!-- Node2 -->
<g id="node3" class="node"><title>Node2</title>
<a xlink:href="class_light.html#ad0e59fad13bb6cfadc25b2c477e9ddc7" target="_top" xlink:title="Light::~Light">
<polygon fill="white" stroke="black" points="120.5,-160.5 120.5,-181.5 191.5,-181.5 191.5,-160.5 120.5,-160.5"/>
<text text-anchor="middle" x="156" y="-168.5" font-family="Helvetica,sans-Serif" font-size="10.00">Light::~Light</text>
</a>
</g>
<!-- Node1&#45;&gt;Node2 -->
<g id="edge2" class="edge"><title>Node1&#45;&gt;Node2</title>
<path fill="none" stroke="midnightblue" d="M48.8694,-109.219C61.8125,-122.316 80.6852,-139.605 100,-151 106.313,-154.724 113.432,-157.921 120.424,-160.597"/>
<polygon fill="midnightblue" stroke="midnightblue" points="51.0832,-106.472 41.6258,-101.696 46.0408,-111.327 51.0832,-106.472"/>
</g>
<!-- Node3 -->
<g id="node5" class="node"><title>Node3</title>
<a xlink:href="class_light.html#a295eaf1ef5ebd30fa4997d4f7ccbb7e1" target="_top" xlink:title="Light::update">
<polygon fill="white" stroke="black" points="119.5,-80.5 119.5,-101.5 192.5,-101.5 192.5,-80.5 119.5,-80.5"/>
<text text-anchor="middle" x="156" y="-88.5" font-family="Helvetica,sans-Serif" font-size="10.00">Light::update</text>
</a>
</g>
<!-- Node1&#45;&gt;Node3 -->
<g id="edge4" class="edge"><title>Node1&#45;&gt;Node3</title>
<path fill="none" stroke="midnightblue" d="M74.4791,-91C88.9755,-91 105.057,-91 119.081,-91"/>
<polygon fill="midnightblue" stroke="midnightblue" points="74.2559,-87.5001 64.2558,-91 74.2558,-94.5001 74.2559,-87.5001"/>
</g>
<!-- Node6 -->
<g id="node11" class="node"><title>Node6</title>
<a xlink:href="class_light.html#ab89261d1fa4fbbeaa61988502da207d3" target="_top" xlink:title="Light::setParent">
<polygon fill="white" stroke="black" points="113,-120.5 113,-141.5 199,-141.5 199,-120.5 113,-120.5"/>
<text text-anchor="middle" x="156" y="-128.5" font-family="Helvetica,sans-Serif" font-size="10.00">Light::setParent</text>
</a>
</g>
<!-- Node1&#45;&gt;Node6 -->
<g id="edge10" class="edge"><title>Node1&#45;&gt;Node6</title>
<path fill="none" stroke="midnightblue" d="M73.9278,-104.525C89.9487,-109.693 107.974,-115.508 123.042,-120.369"/>
<polygon fill="midnightblue" stroke="midnightblue" points="74.8475,-101.144 64.2558,-101.405 72.6984,-107.806 74.8475,-101.144"/>
</g>
<!-- Node7 -->
<g id="node14" class="node"><title>Node7</title>
<a xlink:href="class_viewport.html#ae95938dedc43d6b36f2b85d4a226ffa1" target="_top" xlink:title="Viewport::renderLight">
<polygon fill="white" stroke="black" points="101.5,-40.5 101.5,-61.5 210.5,-61.5 210.5,-40.5 101.5,-40.5"/>
<text text-anchor="middle" x="156" y="-48.5" font-family="Helvetica,sans-Serif" font-size="10.00">Viewport::renderLight</text>
</a>
</g>
<!-- Node1&#45;&gt;Node7 -->
<g id="edge14" class="edge"><title>Node1&#45;&gt;Node7</title>
<path fill="none" stroke="midnightblue" d="M73.9278,-77.4749C89.9487,-72.3069 107.974,-66.4923 123.042,-61.6315"/>
<polygon fill="midnightblue" stroke="midnightblue" points="72.6984,-74.1938 64.2558,-80.5949 74.8475,-80.8558 72.6984,-74.1938"/>
</g>
<!-- Node9 -->
<g id="node18" class="node"><title>Node9</title>
<a xlink:href="class_viewport.html#aeb07f85bbe4f10ca8d8c7b46c8ebd23b" target="_top" xlink:title="Viewport::renderQuad">
<polygon fill="white" stroke="black" points="100.5,-0.5 100.5,-21.5 211.5,-21.5 211.5,-0.5 100.5,-0.5"/>
<text text-anchor="middle" x="156" y="-8.5" font-family="Helvetica,sans-Serif" font-size="10.00">Viewport::renderQuad</text>
</a>
</g>
<!-- Node1&#45;&gt;Node9 -->
<g id="edge18" class="edge"><title>Node1&#45;&gt;Node9</title>
<path fill="none" stroke="midnightblue" d="M48.8694,-72.7812C61.8125,-59.6843 80.6852,-42.3949 100,-31 106.224,-27.328 113.231,-24.1688 120.128,-21.5165"/>
<polygon fill="midnightblue" stroke="midnightblue" points="46.0408,-70.6727 41.6258,-80.3039 51.0832,-75.5281 46.0408,-70.6727"/>
</g>
<!-- Node4 -->
<g id="node7" class="node"><title>Node4</title>
<a xlink:href="class_light.html#a30538cefe47541035db096b75133442d" target="_top" xlink:title="Light::Light">
<polygon fill="white" stroke="black" points="265.5,-120.5 265.5,-141.5 330.5,-141.5 330.5,-120.5 265.5,-120.5"/>
<text text-anchor="middle" x="298" y="-128.5" font-family="Helvetica,sans-Serif" font-size="10.00">Light::Light</text>
</a>
</g>
<!-- Node3&#45;&gt;Node4 -->
<g id="edge6" class="edge"><title>Node3&#45;&gt;Node4</title>
<path fill="none" stroke="midnightblue" d="M202.393,-104.068C222.995,-109.872 246.753,-116.564 265.431,-121.826"/>
<polygon fill="midnightblue" stroke="midnightblue" points="203.143,-100.644 192.569,-101.301 201.245,-107.381 203.143,-100.644"/>
</g>
<!-- Node5 -->
<g id="node9" class="node"><title>Node5</title>
<a xlink:href="class_spotlight.html#a00b11e643c97326edb0ab6b0dff3425a" target="_top" xlink:title="Spotlight::Spotlight">
<polygon fill="white" stroke="black" points="248.5,-80.5 248.5,-101.5 347.5,-101.5 347.5,-80.5 248.5,-80.5"/>
<text text-anchor="middle" x="298" y="-88.5" font-family="Helvetica,sans-Serif" font-size="10.00">Spotlight::Spotlight</text>
</a>
</g>
<!-- Node3&#45;&gt;Node5 -->
<g id="edge8" class="edge"><title>Node3&#45;&gt;Node5</title>
<path fill="none" stroke="midnightblue" d="M202.892,-91C217.502,-91 233.657,-91 248.443,-91"/>
<polygon fill="midnightblue" stroke="midnightblue" points="202.569,-87.5001 192.569,-91 202.568,-94.5001 202.569,-87.5001"/>
</g>
<!-- Node6&#45;&gt;Node4 -->
<g id="edge12" class="edge"><title>Node6&#45;&gt;Node4</title>
<path fill="none" stroke="midnightblue" d="M209.566,-131C228.291,-131 248.742,-131 265.255,-131"/>
<polygon fill="midnightblue" stroke="midnightblue" points="209.376,-127.5 199.376,-131 209.376,-134.5 209.376,-127.5"/>
</g>
<!-- Node8 -->
<g id="node16" class="node"><title>Node8</title>
<a xlink:href="class_viewport.html#a3c2c4661eac1f6351392b8fe133423f5" target="_top" xlink:title="Viewport::paintGL">
<polygon fill="white" stroke="black" points="250.5,-20.5 250.5,-41.5 345.5,-41.5 345.5,-20.5 250.5,-20.5"/>
<text text-anchor="middle" x="298" y="-28.5" font-family="Helvetica,sans-Serif" font-size="10.00">Viewport::paintGL</text>
</a>
</g>
<!-- Node7&#45;&gt;Node8 -->
<g id="edge16" class="edge"><title>Node7&#45;&gt;Node8</title>
<path fill="none" stroke="midnightblue" d="M221.04,-41.8395C230.853,-40.4574 240.819,-39.0537 250.18,-37.7352"/>
<polygon fill="midnightblue" stroke="midnightblue" points="220.315,-38.4069 210.901,-43.2675 221.291,-45.3385 220.315,-38.4069"/>
</g>
<!-- Node9&#45;&gt;Node8 -->
<g id="edge20" class="edge"><title>Node9&#45;&gt;Node8</title>
<path fill="none" stroke="midnightblue" d="M221.678,-20.2504C231.313,-21.6075 241.079,-22.983 250.262,-24.2764"/>
<polygon fill="midnightblue" stroke="midnightblue" points="222.105,-16.7761 211.715,-18.8471 221.129,-23.7077 222.105,-16.7761"/>
</g>
</g>
</svg>
