<?xml version="1.0" encoding="UTF-8" standalone="no"?>
<!DOCTYPE svg PUBLIC "-//W3C//DTD SVG 1.1//EN"
 "http://www.w3.org/Graphics/SVG/1.1/DTD/svg11.dtd">
<!-- Generated by graphviz version 2.26.3 (20100126.1600)
 -->
<!-- Title: Light::Light Pages: 1 -->
<svg width="628pt" height="468pt"
 viewBox="0.00 0.00 628.00 468.00" xmlns="http://www.w3.org/2000/svg" xmlns:xlink="http://www.w3.org/1999/xlink">
<g id="graph1" class="graph" transform="scale(1 1) rotate(0) translate(4 464)">
<title>Light::Light</title>
<polygon fill="white" stroke="white" points="-4,5 -4,-464 625,-464 625,5 -4,5"/>
<!-- Node1 -->
<g id="node1" class="node"><title>Node1</title>
<polygon fill="#bfbfbf" stroke="black" points="0.5,-278.5 0.5,-299.5 65.5,-299.5 65.5,-278.5 0.5,-278.5"/>
<text text-anchor="middle" x="33" y="-286.5" font-family="Helvetica,sans-Serif" font-size="10.00">Light::Light</text>
</g>
<!-- Node2 -->
<g id="node3" class="node"><title>Node2</title>
<a xlink:href="class_light.html#adca0c1a95ed27e38676aee853420dced" target="_top" xlink:title="Light::nearZ">
<polygon fill="white" stroke="black" points="111,-438.5 111,-459.5 179,-459.5 179,-438.5 111,-438.5"/>
<text text-anchor="middle" x="145" y="-446.5" font-family="Helvetica,sans-Serif" font-size="10.00">Light::nearZ</text>
</a>
</g>
<!-- Node1&#45;&gt;Node2 -->
<g id="edge2" class="edge"><title>Node1&#45;&gt;Node2</title>
<path fill="none" stroke="midnightblue" d="M35.5902,-299.573C42.3267,-325.045 62.6676,-390.545 102,-429 103.413,-430.381 104.939,-431.68 106.544,-432.898"/>
<polygon fill="midnightblue" stroke="midnightblue" points="104.764,-435.914 115.077,-438.341 108.529,-430.012 104.764,-435.914"/>
</g>
<!-- Node3 -->
<g id="node5" class="node"><title>Node3</title>
<a xlink:href="class_light.html#accf379b557fa086c827bae45cd141f3c" target="_top" xlink:title="Light::farZ">
<polygon fill="white" stroke="black" points="114.5,-398.5 114.5,-419.5 175.5,-419.5 175.5,-398.5 114.5,-398.5"/>
<text text-anchor="middle" x="145" y="-406.5" font-family="Helvetica,sans-Serif" font-size="10.00">Light::farZ</text>
</a>
</g>
<!-- Node1&#45;&gt;Node3 -->
<g id="edge4" class="edge"><title>Node1&#45;&gt;Node3</title>
<path fill="none" stroke="midnightblue" d="M37.9788,-299.727C47.7142,-319.688 71.0535,-362.877 102,-389 103.738,-390.467 105.602,-391.85 107.544,-393.151"/>
<polygon fill="midnightblue" stroke="midnightblue" points="106.011,-396.309 116.412,-398.327 109.539,-390.263 106.011,-396.309"/>
</g>
<!-- Node4 -->
<g id="node7" class="node"><title>Node4</title>
<a xlink:href="class_light.html#a43c3217b456a8548bdb32d6f20aff6d7" target="_top" xlink:title="Light::power">
<polygon fill="white" stroke="black" points="110,-358.5 110,-379.5 180,-379.5 180,-358.5 110,-358.5"/>
<text text-anchor="middle" x="145" y="-366.5" font-family="Helvetica,sans-Serif" font-size="10.00">Light::power</text>
</a>
</g>
<!-- Node1&#45;&gt;Node4 -->
<g id="edge6" class="edge"><title>Node1&#45;&gt;Node4</title>
<path fill="none" stroke="midnightblue" d="M43.4641,-299.791C56.3617,-312.672 79.3607,-334.311 102,-349 104.461,-350.596 107.069,-352.136 109.737,-353.603"/>
<polygon fill="midnightblue" stroke="midnightblue" points="108.408,-356.855 118.905,-358.293 111.596,-350.623 108.408,-356.855"/>
</g>
<!-- Node5 -->
<g id="node9" class="node"><title>Node5</title>
<a xlink:href="class_light.html#ae0d8301825a598389a6031c1f21a1d59" target="_top" xlink:title="Light::color">
<polygon fill="white" stroke="black" points="112.5,-318.5 112.5,-339.5 177.5,-339.5 177.5,-318.5 112.5,-318.5"/>
<text text-anchor="middle" x="145" y="-326.5" font-family="Helvetica,sans-Serif" font-size="10.00">Light::color</text>
</a>
</g>
<!-- Node1&#45;&gt;Node5 -->
<g id="edge8" class="edge"><title>Node1&#45;&gt;Node5</title>
<path fill="none" stroke="midnightblue" d="M62.4267,-299.51C75.6969,-304.249 91.5588,-309.914 105.817,-315.006"/>
<polygon fill="midnightblue" stroke="midnightblue" points="104.786,-318.354 115.381,-318.422 107.141,-311.762 104.786,-318.354"/>
</g>
<!-- Node6 -->
<g id="node11" class="node"><title>Node6</title>
<a xlink:href="class_light.html#a919e21c240bd387d7b96259acad71fdd" target="_top" xlink:title="Light::mapSize">
<polygon fill="white" stroke="black" points="104,-278.5 104,-299.5 186,-299.5 186,-278.5 104,-278.5"/>
<text text-anchor="middle" x="145" y="-286.5" font-family="Helvetica,sans-Serif" font-size="10.00">Light::mapSize</text>
</a>
</g>
<!-- Node1&#45;&gt;Node6 -->
<g id="edge10" class="edge"><title>Node1&#45;&gt;Node6</title>
<path fill="none" stroke="midnightblue" d="M65.6961,-289C74.4207,-289 84.0639,-289 93.533,-289"/>
<polygon fill="midnightblue" stroke="midnightblue" points="93.6881,-292.5 103.688,-289 93.688,-285.5 93.6881,-292.5"/>
</g>
<!-- Node7 -->
<g id="node13" class="node"><title>Node7</title>
<a xlink:href="class_actor.html#a748e07c73196050bfb0d51a14608aeae" target="_top" xlink:title="Actor::orientation">
<polygon fill="white" stroke="black" points="518.5,-219.5 518.5,-240.5 609.5,-240.5 609.5,-219.5 518.5,-219.5"/>
<text text-anchor="middle" x="564" y="-227.5" font-family="Helvetica,sans-Serif" font-size="10.00">Actor::orientation</text>
</a>
</g>
<!-- Node1&#45;&gt;Node7 -->
<g id="edge12" class="edge"><title>Node1&#45;&gt;Node7</title>
<path fill="none" stroke="midnightblue" d="M64.632,-278.406C76.2609,-274.892 89.6138,-271.295 102,-269 246.885,-242.161 420.798,-233.764 508.14,-231.157"/>
<polygon fill="midnightblue" stroke="midnightblue" points="508.458,-234.65 518.355,-230.867 508.259,-227.653 508.458,-234.65"/>
</g>
<!-- Node8 -->
<g id="node15" class="node"><title>Node8</title>
<a xlink:href="global_8cpp.html#a3177875391ecce9d9e3f9a481c59c467" target="_top" xlink:title="fromEuler">
<polygon fill="white" stroke="black" points="115.5,-80.5 115.5,-101.5 174.5,-101.5 174.5,-80.5 115.5,-80.5"/>
<text text-anchor="middle" x="145" y="-88.5" font-family="Helvetica,sans-Serif" font-size="10.00">fromEuler</text>
</a>
</g>
<!-- Node1&#45;&gt;Node8 -->
<g id="edge14" class="edge"><title>Node1&#45;&gt;Node8</title>
<path fill="none" stroke="midnightblue" d="M34.3353,-278.316C38.624,-248.205 54.6503,-161.56 102,-111 103.393,-109.513 104.918,-108.126 106.538,-106.834"/>
<polygon fill="midnightblue" stroke="midnightblue" points="108.786,-109.546 115.239,-101.143 104.954,-103.688 108.786,-109.546"/>
</g>
<!-- Node9 -->
<g id="node17" class="node"><title>Node9</title>
<a xlink:href="class_light.html#a295eaf1ef5ebd30fa4997d4f7ccbb7e1" target="_top" xlink:title="Light::update">
<polygon fill="white" stroke="black" points="108.5,-160.5 108.5,-181.5 181.5,-181.5 181.5,-160.5 108.5,-160.5"/>
<text text-anchor="middle" x="145" y="-168.5" font-family="Helvetica,sans-Serif" font-size="10.00">Light::update</text>
</a>
</g>
<!-- Node1&#45;&gt;Node9 -->
<g id="edge16" class="edge"><title>Node1&#45;&gt;Node9</title>
<path fill="none" stroke="midnightblue" d="M43.3359,-278.11C62.6865,-257.723 104.545,-213.622 128.07,-188.837"/>
<polygon fill="midnightblue" stroke="midnightblue" points="130.666,-191.186 135.012,-181.524 125.589,-186.367 130.666,-191.186"/>
</g>
<!-- Node15 -->
<g id="node30" class="node"><title>Node15</title>
<a xlink:href="class_light.html#ab89261d1fa4fbbeaa61988502da207d3" target="_top" xlink:title="Light::setParent">
<polygon fill="white" stroke="black" points="102,-120.5 102,-141.5 188,-141.5 188,-120.5 102,-120.5"/>
<text text-anchor="middle" x="145" y="-128.5" font-family="Helvetica,sans-Serif" font-size="10.00">Light::setParent</text>
</a>
</g>
<!-- Node1&#45;&gt;Node15 -->
<g id="edge30" class="edge"><title>Node1&#45;&gt;Node15</title>
<path fill="none" stroke="midnightblue" d="M35.7363,-278.204C42.6715,-252.833 63.2023,-188.715 102,-151 103.417,-149.623 104.946,-148.328 106.554,-147.112"/>
<polygon fill="midnightblue" stroke="midnightblue" points="108.537,-149.999 115.095,-141.677 104.779,-144.093 108.537,-149.999"/>
</g>
<!-- Node10 -->
<g id="node19" class="node"><title>Node10</title>
<a xlink:href="class_light.html#afc11082a5405572dbec76735e73b6647" target="_top" xlink:title="Light::updateProj">
<polygon fill="white" stroke="black" points="227,-160.5 227,-181.5 317,-181.5 317,-160.5 227,-160.5"/>
<text text-anchor="middle" x="272" y="-168.5" font-family="Helvetica,sans-Serif" font-size="10.00">Light::updateProj</text>
</a>
</g>
<!-- Node9&#45;&gt;Node10 -->
<g id="edge18" class="edge"><title>Node9&#45;&gt;Node10</title>
<path fill="none" stroke="midnightblue" d="M181.734,-171C192.612,-171 204.774,-171 216.559,-171"/>
<polygon fill="midnightblue" stroke="midnightblue" points="216.778,-174.5 226.777,-171 216.777,-167.5 216.778,-174.5"/>
</g>
<!-- Node11 -->
<g id="node21" class="node"><title>Node11</title>
<a xlink:href="class_light.html#a123872c9df9d14ae79d4a76fee217e99" target="_top" xlink:title="Light::updateView">
<polygon fill="white" stroke="black" points="224.5,-200.5 224.5,-221.5 319.5,-221.5 319.5,-200.5 224.5,-200.5"/>
<text text-anchor="middle" x="272" y="-208.5" font-family="Helvetica,sans-Serif" font-size="10.00">Light::updateView</text>
</a>
</g>
<!-- Node9&#45;&gt;Node11 -->
<g id="edge20" class="edge"><title>Node9&#45;&gt;Node11</title>
<path fill="none" stroke="midnightblue" d="M178.368,-181.51C193.705,-186.34 212.094,-192.132 228.5,-197.299"/>
<polygon fill="midnightblue" stroke="midnightblue" points="227.825,-200.756 238.414,-200.422 229.928,-194.079 227.825,-200.756"/>
</g>
<!-- Node13 -->
<g id="node26" class="node"><title>Node13</title>
<a xlink:href="class_light.html#a747a809f8abf05f41143279abb78df13" target="_top" xlink:title="Light::view">
<polygon fill="white" stroke="black" points="240,-120.5 240,-141.5 304,-141.5 304,-120.5 240,-120.5"/>
<text text-anchor="middle" x="272" y="-128.5" font-family="Helvetica,sans-Serif" font-size="10.00">Light::view</text>
</a>
</g>
<!-- Node9&#45;&gt;Node13 -->
<g id="edge26" class="edge"><title>Node9&#45;&gt;Node13</title>
<path fill="none" stroke="midnightblue" d="M178.368,-160.49C194.218,-155.498 213.329,-149.479 230.141,-144.184"/>
<polygon fill="midnightblue" stroke="midnightblue" points="231.245,-147.506 239.732,-141.163 229.142,-140.829 231.245,-147.506"/>
</g>
<!-- Node14 -->
<g id="node28" class="node"><title>Node14</title>
<a xlink:href="class_actor.html#ab3cce8c86e60c6b808ccd7732770f2cb" target="_top" xlink:title="Actor::viewport">
<polygon fill="white" stroke="black" points="230.5,-80.5 230.5,-101.5 313.5,-101.5 313.5,-80.5 230.5,-80.5"/>
<text text-anchor="middle" x="272" y="-88.5" font-family="Helvetica,sans-Serif" font-size="10.00">Actor::viewport</text>
</a>
</g>
<!-- Node9&#45;&gt;Node14 -->
<g id="edge28" class="edge"><title>Node9&#45;&gt;Node14</title>
<path fill="none" stroke="midnightblue" d="M172.322,-160.318C177.747,-157.648 183.233,-154.524 188,-151 207.232,-136.781 204.484,-124.827 224,-111 226.498,-109.23 229.176,-107.579 231.943,-106.045"/>
<polygon fill="midnightblue" stroke="midnightblue" points="233.581,-109.139 240.97,-101.546 230.459,-102.874 233.581,-109.139"/>
</g>
<!-- Node12 -->
<g id="node23" class="node"><title>Node12</title>
<a xlink:href="class_light.html#ab689087cc07b95273f6daae900a42010" target="_top" xlink:title="Light::direction">
<polygon fill="white" stroke="black" points="374,-200.5 374,-221.5 454,-221.5 454,-200.5 374,-200.5"/>
<text text-anchor="middle" x="414" y="-208.5" font-family="Helvetica,sans-Serif" font-size="10.00">Light::direction</text>
</a>
</g>
<!-- Node11&#45;&gt;Node12 -->
<g id="edge22" class="edge"><title>Node11&#45;&gt;Node12</title>
<path fill="none" stroke="midnightblue" d="M319.679,-211C333.813,-211 349.334,-211 363.632,-211"/>
<polygon fill="midnightblue" stroke="midnightblue" points="363.791,-214.5 373.791,-211 363.791,-207.5 363.791,-214.5"/>
</g>
<!-- Node12&#45;&gt;Node7 -->
<g id="edge24" class="edge"><title>Node12&#45;&gt;Node7</title>
<path fill="none" stroke="midnightblue" d="M454.197,-216.092C470.814,-218.196 490.36,-220.672 508.32,-222.947"/>
<polygon fill="midnightblue" stroke="midnightblue" points="508.03,-226.438 518.39,-224.223 508.91,-219.494 508.03,-226.438"/>
</g>
<!-- Node15&#45;&gt;Node13 -->
<g id="edge42" class="edge"><title>Node15&#45;&gt;Node13</title>
<path fill="none" stroke="midnightblue" d="M188.351,-131C201.619,-131 216.196,-131 229.412,-131"/>
<polygon fill="midnightblue" stroke="midnightblue" points="229.669,-134.5 239.669,-131 229.669,-127.5 229.669,-134.5"/>
</g>
<!-- Node15&#45;&gt;Node14 -->
<g id="edge44" class="edge"><title>Node15&#45;&gt;Node14</title>
<path fill="none" stroke="midnightblue" d="M178.368,-120.49C193.705,-115.66 212.094,-109.868 228.5,-104.701"/>
<polygon fill="midnightblue" stroke="midnightblue" points="229.928,-107.921 238.414,-101.578 227.825,-101.244 229.928,-107.921"/>
</g>
<!-- Node16 -->
<g id="node32" class="node"><title>Node16</title>
<a xlink:href="class_actor.html#a422d0d3c1e343e794357669a34bb59e1" target="_top" xlink:title="Actor::setParent">
<polygon fill="white" stroke="black" points="228,-40.5 228,-61.5 316,-61.5 316,-40.5 228,-40.5"/>
<text text-anchor="middle" x="272" y="-48.5" font-family="Helvetica,sans-Serif" font-size="10.00">Actor::setParent</text>
</a>
</g>
<!-- Node15&#45;&gt;Node16 -->
<g id="edge32" class="edge"><title>Node15&#45;&gt;Node16</title>
<path fill="none" stroke="midnightblue" d="M172.322,-120.318C177.747,-117.648 183.233,-114.524 188,-111 207.232,-96.7806 204.484,-84.8265 224,-71 226.498,-69.2305 229.176,-67.5788 231.943,-66.0449"/>
<polygon fill="midnightblue" stroke="midnightblue" points="233.581,-69.139 240.97,-61.5462 230.459,-62.8739 233.581,-69.139"/>
</g>
<!-- Node17 -->
<g id="node34" class="node"><title>Node17</title>
<a xlink:href="class_viewport.html#a5acb57e1d34f591dab00a8a40cd21855" target="_top" xlink:title="Viewport::updateLights">
<polygon fill="white" stroke="black" points="356,-40.5 356,-61.5 472,-61.5 472,-40.5 356,-40.5"/>
<text text-anchor="middle" x="414" y="-48.5" font-family="Helvetica,sans-Serif" font-size="10.00">Viewport::updateLights</text>
</a>
</g>
<!-- Node16&#45;&gt;Node17 -->
<g id="edge34" class="edge"><title>Node16&#45;&gt;Node17</title>
<path fill="none" stroke="midnightblue" d="M316.151,-51C325.555,-51 335.695,-51 345.761,-51"/>
<polygon fill="midnightblue" stroke="midnightblue" points="345.773,-54.5001 355.773,-51 345.773,-47.5001 345.773,-54.5001"/>
</g>
<!-- Node18 -->
<g id="node36" class="node"><title>Node18</title>
<a xlink:href="class_world.html#a45fac3748d15198a09ce257da35e6fcf" target="_top" xlink:title="World::zoneList">
<polygon fill="white" stroke="black" points="521.5,-80.5 521.5,-101.5 606.5,-101.5 606.5,-80.5 521.5,-80.5"/>
<text text-anchor="middle" x="564" y="-88.5" font-family="Helvetica,sans-Serif" font-size="10.00">World::zoneList</text>
</a>
</g>
<!-- Node17&#45;&gt;Node18 -->
<g id="edge36" class="edge"><title>Node17&#45;&gt;Node18</title>
<path fill="none" stroke="midnightblue" d="M453.411,-61.5095C472.198,-66.5193 494.863,-72.5634 514.77,-77.8721"/>
<polygon fill="midnightblue" stroke="midnightblue" points="514.028,-81.2964 524.592,-80.4913 515.832,-74.5328 514.028,-81.2964"/>
</g>
<!-- Node19 -->
<g id="node38" class="node"><title>Node19</title>
<a xlink:href="class_world.html#a664cd2c63ef6c7979736cd454b31eb1c" target="_top" xlink:title="World::currentZone">
<polygon fill="white" stroke="black" points="514,-40.5 514,-61.5 614,-61.5 614,-40.5 514,-40.5"/>
<text text-anchor="middle" x="564" y="-48.5" font-family="Helvetica,sans-Serif" font-size="10.00">World::currentZone</text>
</a>
</g>
<!-- Node17&#45;&gt;Node19 -->
<g id="edge38" class="edge"><title>Node17&#45;&gt;Node19</title>
<path fill="none" stroke="midnightblue" d="M472.423,-51C482.665,-51 493.34,-51 503.633,-51"/>
<polygon fill="midnightblue" stroke="midnightblue" points="503.769,-54.5001 513.769,-51 503.769,-47.5001 503.769,-54.5001"/>
</g>
<!-- Node20 -->
<g id="node40" class="node"><title>Node20</title>
<a xlink:href="class_viewport.html#ae2666049736ca227e0ddc0d23c431d96" target="_top" xlink:title="Viewport::updateLight">
<polygon fill="white" stroke="black" points="508.5,-0.5 508.5,-21.5 619.5,-21.5 619.5,-0.5 508.5,-0.5"/>
<text text-anchor="middle" x="564" y="-8.5" font-family="Helvetica,sans-Serif" font-size="10.00">Viewport::updateLight</text>
</a>
</g>
<!-- Node17&#45;&gt;Node20 -->
<g id="edge40" class="edge"><title>Node17&#45;&gt;Node20</title>
<path fill="none" stroke="midnightblue" d="M453.411,-40.4905C472.198,-35.4807 494.863,-29.4366 514.77,-24.1279"/>
<polygon fill="midnightblue" stroke="midnightblue" points="515.832,-27.4672 524.592,-21.5087 514.028,-20.7036 515.832,-27.4672"/>
</g>
</g>
</svg>
