<?xml version="1.0" encoding="UTF-8" standalone="no"?>
<!DOCTYPE svg PUBLIC "-//W3C//DTD SVG 1.1//EN"
 "http://www.w3.org/Graphics/SVG/1.1/DTD/svg11.dtd">
<!-- Generated by graphviz version 2.26.3 (20100126.1600)
 -->
<!-- Title: Trigger Pages: 1 -->
<svg width="162pt" height="342pt"
 viewBox="0.00 0.00 162.00 342.00" xmlns="http://www.w3.org/2000/svg" xmlns:xlink="http://www.w3.org/1999/xlink">
<g id="graph1" class="graph" transform="scale(1 1) rotate(0) translate(4 338)">
<title>Trigger</title>
<polygon fill="white" stroke="white" points="-4,5 -4,-338 159,-338 159,5 -4,5"/>
<!-- Node1 -->
<g id="node1" class="node"><title>Node1</title>
<polygon fill="#bfbfbf" stroke="black" points="29.5,-0.5 29.5,-21.5 76.5,-21.5 76.5,-0.5 29.5,-0.5"/>
<text text-anchor="middle" x="53" y="-8.5" font-family="Helvetica,sans-Serif" font-size="10.00">Trigger</text>
</g>
<!-- Node2 -->
<g id="node2" class="node"><title>Node2</title>
<a xlink:href="class_geometry.html" target="_top" xlink:title="Geometry\&lt; Trigger \&gt;">
<polygon fill="white" stroke="black" points="-0.5,-60.5 -0.5,-81.5 106.5,-81.5 106.5,-60.5 -0.5,-60.5"/>
<text text-anchor="middle" x="53" y="-68.5" font-family="Helvetica,sans-Serif" font-size="10.00">Geometry&lt; Trigger &gt;</text>
</a>
</g>
<!-- Node2&#45;&gt;Node1 -->
<g id="edge2" class="edge"><title>Node2&#45;&gt;Node1</title>
<path fill="none" stroke="midnightblue" d="M53,-50.2312C53,-40.5922 53,-29.5444 53,-21.6339"/>
<polygon fill="midnightblue" stroke="midnightblue" points="49.5001,-50.2732 53,-60.2732 56.5001,-50.2732 49.5001,-50.2732"/>
</g>
<!-- Node3 -->
<g id="node4" class="node"><title>Node3</title>
<a xlink:href="class_geo_base.html" target="_top" xlink:title="Base pour la classe Geometry. ">
<polygon fill="white" stroke="black" points="9.5,-192.5 9.5,-213.5 66.5,-213.5 66.5,-192.5 9.5,-192.5"/>
<text text-anchor="middle" x="38" y="-200.5" font-family="Helvetica,sans-Serif" font-size="10.00">GeoBase</text>
</a>
</g>
<!-- Node3&#45;&gt;Node2 -->
<g id="edge4" class="edge"><title>Node3&#45;&gt;Node2</title>
<path fill="none" stroke="midnightblue" d="M39.8679,-182.258C41.1873,-168.09 43.0598,-148.895 45,-132 47.0229,-114.385 49.7861,-93.966 51.479,-81.7857"/>
<polygon fill="midnightblue" stroke="midnightblue" points="36.3655,-182.125 38.9377,-192.403 43.3362,-182.765 36.3655,-182.125"/>
</g>
<!-- Node6 -->
<g id="node10" class="node"><title>Node6</title>
<a xlink:href="class_geometry.html" target="_top" xlink:title="Base de toutes les géometries. ">
<polygon fill="white" stroke="black" points="54,-132.5 54,-153.5 154,-153.5 154,-132.5 54,-132.5"/>
<text text-anchor="middle" x="104" y="-140.5" font-family="Helvetica,sans-Serif" font-size="10.00">Geometry&lt; Child &gt;</text>
</a>
</g>
<!-- Node3&#45;&gt;Node6 -->
<g id="edge12" class="edge"><title>Node3&#45;&gt;Node6</title>
<path fill="none" stroke="midnightblue" d="M57.4853,-185.286C68.7953,-175.004 82.6655,-162.395 92.3027,-153.634"/>
<polygon fill="midnightblue" stroke="midnightblue" points="54.8445,-182.957 49.7995,-192.273 59.5533,-188.136 54.8445,-182.957"/>
</g>
<!-- Node4 -->
<g id="node6" class="node"><title>Node4</title>
<a xlink:href="class_actor.html" target="_top" xlink:title="Base de tous les objets de la scène. ">
<polygon fill="white" stroke="black" points="18,-252.5 18,-273.5 58,-273.5 58,-252.5 18,-252.5"/>
<text text-anchor="middle" x="38" y="-260.5" font-family="Helvetica,sans-Serif" font-size="10.00">Actor</text>
</a>
</g>
<!-- Node4&#45;&gt;Node3 -->
<g id="edge6" class="edge"><title>Node4&#45;&gt;Node3</title>
<path fill="none" stroke="midnightblue" d="M38,-242.231C38,-232.592 38,-221.544 38,-213.634"/>
<polygon fill="midnightblue" stroke="midnightblue" points="34.5001,-242.273 38,-252.273 41.5001,-242.273 34.5001,-242.273"/>
</g>
<!-- Node5 -->
<g id="node8" class="node"><title>Node5</title>
<a xlink:href="class_q_object.html" target="_top" xlink:title="QObject">
<polygon fill="white" stroke="black" points="11.5,-312.5 11.5,-333.5 64.5,-333.5 64.5,-312.5 11.5,-312.5"/>
<text text-anchor="middle" x="38" y="-320.5" font-family="Helvetica,sans-Serif" font-size="10.00">QObject</text>
</a>
</g>
<!-- Node5&#45;&gt;Node4 -->
<g id="edge8" class="edge"><title>Node5&#45;&gt;Node4</title>
<path fill="none" stroke="midnightblue" d="M38,-302.231C38,-292.592 38,-281.544 38,-273.634"/>
<polygon fill="midnightblue" stroke="midnightblue" points="34.5001,-302.273 38,-312.273 41.5001,-302.273 34.5001,-302.273"/>
</g>
<!-- Node6&#45;&gt;Node2 -->
<g id="edge10" class="edge"><title>Node6&#45;&gt;Node2</title>
<path fill="none" stroke="orange" stroke-dasharray="5,2" d="M90.682,-124.198C81.0847,-110.649 68.4781,-92.8514 60.5561,-81.6674"/>
<polygon fill="orange" stroke="orange" points="87.8385,-126.239 96.4748,-132.376 93.5507,-122.193 87.8385,-126.239"/>
<text text-anchor="middle" x="109" y="-104.5" font-family="Helvetica,sans-Serif" font-size="10.00"> &lt; Trigger &gt;</text>
</g>
</g>
</svg>
