<?xml version="1.0" encoding="UTF-8" standalone="no"?>
<!DOCTYPE svg PUBLIC "-//W3C//DTD SVG 1.1//EN"
 "http://www.w3.org/Graphics/SVG/1.1/DTD/svg11.dtd">
<!-- Generated by graphviz version 2.26.3 (20100126.1600)
 -->
<!-- Title: Viewport Pages: 1 -->
<svg width="218pt" height="204pt"
 viewBox="0.00 0.00 218.00 204.00" xmlns="http://www.w3.org/2000/svg" xmlns:xlink="http://www.w3.org/1999/xlink">
<g id="graph1" class="graph" transform="scale(1 1) rotate(0) translate(4 200)">
<title>Viewport</title>
<polygon fill="white" stroke="white" points="-4,5 -4,-200 215,-200 215,5 -4,5"/>
<!-- Node1 -->
<g id="node1" class="node"><title>Node1</title>
<polygon fill="#bfbfbf" stroke="black" points="74.5,-0.5 74.5,-21.5 129.5,-21.5 129.5,-0.5 74.5,-0.5"/>
<text text-anchor="middle" x="102" y="-8.5" font-family="Helvetica,sans-Serif" font-size="10.00">Viewport</text>
</g>
<!-- Node2 -->
<g id="node2" class="node"><title>Node2</title>
<a xlink:href="class_q_open_g_l_widget.html" target="_top" xlink:title="QOpenGLWidget">
<polygon fill="white" stroke="black" points="-0.5,-58.5 -0.5,-79.5 90.5,-79.5 90.5,-58.5 -0.5,-58.5"/>
<text text-anchor="middle" x="45" y="-66.5" font-family="Helvetica,sans-Serif" font-size="10.00">QOpenGLWidget</text>
</a>
</g>
<!-- Node2&#45;&gt;Node1 -->
<g id="edge2" class="edge"><title>Node2&#45;&gt;Node1</title>
<path fill="none" stroke="midnightblue" d="M62.5737,-51.118C72.087,-41.4377 83.5145,-29.8098 91.6116,-21.5707"/>
<polygon fill="midnightblue" stroke="midnightblue" points="59.9677,-48.7763 55.4547,-58.3619 64.9603,-53.6829 59.9677,-48.7763"/>
</g>
<!-- Node3 -->
<g id="node4" class="node"><title>Node3</title>
<a xlink:href="class_q_widget.html" target="_top" xlink:title="QWidget">
<polygon fill="white" stroke="black" points="17.5,-116.5 17.5,-137.5 72.5,-137.5 72.5,-116.5 17.5,-116.5"/>
<text text-anchor="middle" x="45" y="-124.5" font-family="Helvetica,sans-Serif" font-size="10.00">QWidget</text>
</a>
</g>
<!-- Node3&#45;&gt;Node2 -->
<g id="edge4" class="edge"><title>Node3&#45;&gt;Node2</title>
<path fill="none" stroke="midnightblue" d="M45,-106.191C45,-97.1684 45,-86.9941 45,-79.5707"/>
<polygon fill="midnightblue" stroke="midnightblue" points="41.5001,-106.362 45,-116.362 48.5001,-106.362 41.5001,-106.362"/>
</g>
<!-- Node4 -->
<g id="node6" class="node"><title>Node4</title>
<a xlink:href="class_q_object.html" target="_top" xlink:title="QObject">
<polygon fill="white" stroke="black" points="18.5,-174.5 18.5,-195.5 71.5,-195.5 71.5,-174.5 18.5,-174.5"/>
<text text-anchor="middle" x="45" y="-182.5" font-family="Helvetica,sans-Serif" font-size="10.00">QObject</text>
</a>
</g>
<!-- Node4&#45;&gt;Node3 -->
<g id="edge6" class="edge"><title>Node4&#45;&gt;Node3</title>
<path fill="none" stroke="midnightblue" d="M45,-164.191C45,-155.168 45,-144.994 45,-137.571"/>
<polygon fill="midnightblue" stroke="midnightblue" points="41.5001,-164.362 45,-174.362 48.5001,-164.362 41.5001,-164.362"/>
</g>
<!-- Node5 -->
<g id="node8" class="node"><title>Node5</title>
<polygon fill="white" stroke="#bfbfbf" points="107.5,-58.5 107.5,-79.5 210.5,-79.5 210.5,-58.5 107.5,-58.5"/>
<text text-anchor="middle" x="159" y="-66.5" font-family="Helvetica,sans-Serif" font-size="10.00">QOpenGLFunctions</text>
</g>
<!-- Node5&#45;&gt;Node1 -->
<g id="edge8" class="edge"><title>Node5&#45;&gt;Node1</title>
<path fill="none" stroke="darkgreen" d="M141.426,-51.118C131.913,-41.4377 120.486,-29.8098 112.388,-21.5707"/>
<polygon fill="darkgreen" stroke="darkgreen" points="139.04,-53.6829 148.545,-58.3619 144.032,-48.7763 139.04,-53.6829"/>
</g>
</g>
</svg>
