<?xml version="1.0" encoding="UTF-8" standalone="no"?>
<!DOCTYPE svg PUBLIC "-//W3C//DTD SVG 1.1//EN"
 "http://www.w3.org/Graphics/SVG/1.1/DTD/svg11.dtd">
<!-- Generated by graphviz version 2.26.3 (20100126.1600)
 -->
<!-- Title: Light::projection Pages: 1 -->
<svg width="374pt" height="70pt"
 viewBox="0.00 0.00 374.00 70.00" xmlns="http://www.w3.org/2000/svg" xmlns:xlink="http://www.w3.org/1999/xlink">
<g id="graph1" class="graph" transform="scale(1 1) rotate(0) translate(4 66)">
<title>Light::projection</title>
<polygon fill="white" stroke="white" points="-4,5 -4,-66 371,-66 371,5 -4,5"/>
<!-- Node1 -->
<g id="node1" class="node"><title>Node1</title>
<polygon fill="#bfbfbf" stroke="black" points="0,-20.5 0,-41.5 86,-41.5 86,-20.5 0,-20.5"/>
<text text-anchor="middle" x="43" y="-28.5" font-family="Helvetica,sans-Serif" font-size="10.00">Light::projection</text>
</g>
<!-- Node2 -->
<g id="node3" class="node"><title>Node2</title>
<a xlink:href="class_viewport.html#ae95938dedc43d6b36f2b85d4a226ffa1" target="_top" xlink:title="Viewport::renderLight">
<polygon fill="white" stroke="black" points="123.5,-40.5 123.5,-61.5 232.5,-61.5 232.5,-40.5 123.5,-40.5"/>
<text text-anchor="middle" x="178" y="-48.5" font-family="Helvetica,sans-Serif" font-size="10.00">Viewport::renderLight</text>
</a>
</g>
<!-- Node1&#45;&gt;Node2 -->
<g id="edge2" class="edge"><title>Node1&#45;&gt;Node2</title>
<path fill="none" stroke="midnightblue" d="M96.0596,-38.8607C105.061,-40.1942 114.421,-41.5809 123.46,-42.92"/>
<polygon fill="midnightblue" stroke="midnightblue" points="96.491,-35.3865 86.086,-37.3831 95.4651,-42.3109 96.491,-35.3865"/>
</g>
<!-- Node4 -->
<g id="node7" class="node"><title>Node4</title>
<a xlink:href="class_viewport.html#aeb07f85bbe4f10ca8d8c7b46c8ebd23b" target="_top" xlink:title="Viewport::renderQuad">
<polygon fill="white" stroke="black" points="122.5,-0.5 122.5,-21.5 233.5,-21.5 233.5,-0.5 122.5,-0.5"/>
<text text-anchor="middle" x="178" y="-8.5" font-family="Helvetica,sans-Serif" font-size="10.00">Viewport::renderQuad</text>
</a>
</g>
<!-- Node1&#45;&gt;Node4 -->
<g id="edge6" class="edge"><title>Node1&#45;&gt;Node4</title>
<path fill="none" stroke="midnightblue" d="M96.0784,-23.1365C104.752,-21.8516 113.759,-20.5172 122.489,-19.2238"/>
<polygon fill="midnightblue" stroke="midnightblue" points="95.4651,-19.6891 86.086,-24.6169 96.491,-26.6135 95.4651,-19.6891"/>
</g>
<!-- Node3 -->
<g id="node5" class="node"><title>Node3</title>
<a xlink:href="class_viewport.html#a3c2c4661eac1f6351392b8fe133423f5" target="_top" xlink:title="Viewport::paintGL">
<polygon fill="white" stroke="black" points="270.5,-20.5 270.5,-41.5 365.5,-41.5 365.5,-20.5 270.5,-20.5"/>
<text text-anchor="middle" x="318" y="-28.5" font-family="Helvetica,sans-Serif" font-size="10.00">Viewport::paintGL</text>
</a>
</g>
<!-- Node2&#45;&gt;Node3 -->
<g id="edge4" class="edge"><title>Node2&#45;&gt;Node3</title>
<path fill="none" stroke="midnightblue" d="M242.554,-41.778C251.868,-40.4474 261.312,-39.0982 270.221,-37.8256"/>
<polygon fill="midnightblue" stroke="midnightblue" points="241.933,-38.3311 232.529,-43.2102 242.923,-45.2607 241.933,-38.3311"/>
</g>
<!-- Node4&#45;&gt;Node3 -->
<g id="edge8" class="edge"><title>Node4&#45;&gt;Node3</title>
<path fill="none" stroke="midnightblue" d="M243.718,-20.3883C252.624,-21.6605 261.622,-22.946 270.134,-24.1619"/>
<polygon fill="midnightblue" stroke="midnightblue" points="244.128,-16.9115 233.734,-18.962 243.138,-23.8411 244.128,-16.9115"/>
</g>
</g>
</svg>
