<?xml version="1.0" encoding="UTF-8" standalone="no"?>
<!DOCTYPE svg PUBLIC "-//W3C//DTD SVG 1.1//EN"
 "http://www.w3.org/Graphics/SVG/1.1/DTD/svg11.dtd">
<!-- Generated by graphviz version 2.26.3 (20100126.1600)
 -->
<!-- Title: Actor::Actor Pages: 1 -->
<svg width="502pt" height="110pt"
 viewBox="0.00 0.00 502.00 110.00" xmlns="http://www.w3.org/2000/svg" xmlns:xlink="http://www.w3.org/1999/xlink">
<g id="graph1" class="graph" transform="scale(1 1) rotate(0) translate(4 106)">
<title>Actor::Actor</title>
<polygon fill="white" stroke="white" points="-4,5 -4,-106 499,-106 499,5 -4,5"/>
<!-- Node1 -->
<g id="node1" class="node"><title>Node1</title>
<polygon fill="#bfbfbf" stroke="black" points="0.5,-40.5 0.5,-61.5 69.5,-61.5 69.5,-40.5 0.5,-40.5"/>
<text text-anchor="middle" x="35" y="-48.5" font-family="Helvetica,sans-Serif" font-size="10.00">Actor::Actor</text>
</g>
<!-- Node2 -->
<g id="node3" class="node"><title>Node2</title>
<a xlink:href="class_actor.html#a422d0d3c1e343e794357669a34bb59e1" target="_top" xlink:title="Actor::setParent">
<polygon fill="white" stroke="black" points="106,-40.5 106,-61.5 194,-61.5 194,-40.5 106,-40.5"/>
<text text-anchor="middle" x="150" y="-48.5" font-family="Helvetica,sans-Serif" font-size="10.00">Actor::setParent</text>
</a>
</g>
<!-- Node1&#45;&gt;Node2 -->
<g id="edge2" class="edge"><title>Node1&#45;&gt;Node2</title>
<path fill="none" stroke="midnightblue" d="M69.5038,-51C77.6828,-51 86.6051,-51 95.4349,-51"/>
<polygon fill="midnightblue" stroke="midnightblue" points="95.7077,-54.5001 105.708,-51 95.7076,-47.5001 95.7077,-54.5001"/>
</g>
<!-- Node3 -->
<g id="node5" class="node"><title>Node3</title>
<a xlink:href="class_viewport.html#a5acb57e1d34f591dab00a8a40cd21855" target="_top" xlink:title="Viewport::updateLights">
<polygon fill="white" stroke="black" points="230,-40.5 230,-61.5 346,-61.5 346,-40.5 230,-40.5"/>
<text text-anchor="middle" x="288" y="-48.5" font-family="Helvetica,sans-Serif" font-size="10.00">Viewport::updateLights</text>
</a>
</g>
<!-- Node2&#45;&gt;Node3 -->
<g id="edge4" class="edge"><title>Node2&#45;&gt;Node3</title>
<path fill="none" stroke="midnightblue" d="M194.043,-51C202.208,-51 210.91,-51 219.601,-51"/>
<polygon fill="midnightblue" stroke="midnightblue" points="219.763,-54.5001 229.763,-51 219.763,-47.5001 219.763,-54.5001"/>
</g>
<!-- Node4 -->
<g id="node7" class="node"><title>Node4</title>
<a xlink:href="class_world.html#a45fac3748d15198a09ce257da35e6fcf" target="_top" xlink:title="World::zoneList">
<polygon fill="white" stroke="black" points="395.5,-80.5 395.5,-101.5 480.5,-101.5 480.5,-80.5 395.5,-80.5"/>
<text text-anchor="middle" x="438" y="-88.5" font-family="Helvetica,sans-Serif" font-size="10.00">World::zoneList</text>
</a>
</g>
<!-- Node3&#45;&gt;Node4 -->
<g id="edge6" class="edge"><title>Node3&#45;&gt;Node4</title>
<path fill="none" stroke="midnightblue" d="M327.411,-61.5095C346.198,-66.5193 368.863,-72.5634 388.77,-77.8721"/>
<polygon fill="midnightblue" stroke="midnightblue" points="388.028,-81.2964 398.592,-80.4913 389.832,-74.5328 388.028,-81.2964"/>
</g>
<!-- Node5 -->
<g id="node9" class="node"><title>Node5</title>
<a xlink:href="class_world.html#a664cd2c63ef6c7979736cd454b31eb1c" target="_top" xlink:title="World::currentZone">
<polygon fill="white" stroke="black" points="388,-40.5 388,-61.5 488,-61.5 488,-40.5 388,-40.5"/>
<text text-anchor="middle" x="438" y="-48.5" font-family="Helvetica,sans-Serif" font-size="10.00">World::currentZone</text>
</a>
</g>
<!-- Node3&#45;&gt;Node5 -->
<g id="edge8" class="edge"><title>Node3&#45;&gt;Node5</title>
<path fill="none" stroke="midnightblue" d="M346.423,-51C356.665,-51 367.34,-51 377.633,-51"/>
<polygon fill="midnightblue" stroke="midnightblue" points="377.769,-54.5001 387.769,-51 377.769,-47.5001 377.769,-54.5001"/>
</g>
<!-- Node6 -->
<g id="node11" class="node"><title>Node6</title>
<a xlink:href="class_viewport.html#ae2666049736ca227e0ddc0d23c431d96" target="_top" xlink:title="Viewport::updateLight">
<polygon fill="white" stroke="black" points="382.5,-0.5 382.5,-21.5 493.5,-21.5 493.5,-0.5 382.5,-0.5"/>
<text text-anchor="middle" x="438" y="-8.5" font-family="Helvetica,sans-Serif" font-size="10.00">Viewport::updateLight</text>
</a>
</g>
<!-- Node3&#45;&gt;Node6 -->
<g id="edge10" class="edge"><title>Node3&#45;&gt;Node6</title>
<path fill="none" stroke="midnightblue" d="M327.411,-40.4905C346.198,-35.4807 368.863,-29.4366 388.77,-24.1279"/>
<polygon fill="midnightblue" stroke="midnightblue" points="389.832,-27.4672 398.592,-21.5087 388.028,-20.7036 389.832,-27.4672"/>
</g>
</g>
</svg>
