<?xml version="1.0" encoding="UTF-8" standalone="no"?>
<!DOCTYPE svg PUBLIC "-//W3C//DTD SVG 1.1//EN"
 "http://www.w3.org/Graphics/SVG/1.1/DTD/svg11.dtd">
<!-- Generated by graphviz version 2.26.3 (20100126.1600)
 -->
<!-- Title: Spotlight::updateProj Pages: 1 -->
<svg width="220pt" height="70pt"
 viewBox="0.00 0.00 220.00 70.00" xmlns="http://www.w3.org/2000/svg" xmlns:xlink="http://www.w3.org/1999/xlink">
<g id="graph1" class="graph" transform="scale(1 1) rotate(0) translate(4 66)">
<title>Spotlight::updateProj</title>
<polygon fill="white" stroke="white" points="-4,5 -4,-66 217,-66 217,5 -4,5"/>
<!-- Node1 -->
<g id="node1" class="node"><title>Node1</title>
<polygon fill="#bfbfbf" stroke="black" points="0.5,-20.5 0.5,-41.5 107.5,-41.5 107.5,-20.5 0.5,-20.5"/>
<text text-anchor="middle" x="54" y="-28.5" font-family="Helvetica,sans-Serif" font-size="10.00">Spotlight::updateProj</text>
</g>
<!-- Node2 -->
<g id="node3" class="node"><title>Node2</title>
<a xlink:href="class_light.html#adca0c1a95ed27e38676aee853420dced" target="_top" xlink:title="Light::nearZ">
<polygon fill="white" stroke="black" points="144,-40.5 144,-61.5 212,-61.5 212,-40.5 144,-40.5"/>
<text text-anchor="middle" x="178" y="-48.5" font-family="Helvetica,sans-Serif" font-size="10.00">Light::nearZ</text>
</a>
</g>
<!-- Node1&#45;&gt;Node2 -->
<g id="edge2" class="edge"><title>Node1&#45;&gt;Node2</title>
<path fill="none" stroke="midnightblue" d="M107.667,-39.656C116.415,-41.067 125.389,-42.5144 133.874,-43.883"/>
<polygon fill="midnightblue" stroke="midnightblue" points="133.505,-47.3685 143.934,-45.5056 134.619,-40.4578 133.505,-47.3685"/>
</g>
<!-- Node3 -->
<g id="node5" class="node"><title>Node3</title>
<a xlink:href="class_light.html#accf379b557fa086c827bae45cd141f3c" target="_top" xlink:title="Light::farZ">
<polygon fill="white" stroke="black" points="147.5,-0.5 147.5,-21.5 208.5,-21.5 208.5,-0.5 147.5,-0.5"/>
<text text-anchor="middle" x="178" y="-8.5" font-family="Helvetica,sans-Serif" font-size="10.00">Light::farZ</text>
</a>
</g>
<!-- Node1&#45;&gt;Node3 -->
<g id="edge4" class="edge"><title>Node1&#45;&gt;Node3</title>
<path fill="none" stroke="midnightblue" d="M107.667,-22.344C117.665,-20.7314 127.958,-19.0713 137.479,-17.5356"/>
<polygon fill="midnightblue" stroke="midnightblue" points="138.143,-20.9739 147.458,-15.9262 137.028,-14.0632 138.143,-20.9739"/>
</g>
</g>
</svg>
