<?xml version="1.0" encoding="UTF-8" standalone="no"?>
<!DOCTYPE svg PUBLIC "-//W3C//DTD SVG 1.1//EN"
 "http://www.w3.org/Graphics/SVG/1.1/DTD/svg11.dtd">
<!-- Generated by graphviz version 2.26.3 (20100126.1600)
 -->
<!-- Title: Light::updateView Pages: 1 -->
<svg width="350pt" height="70pt"
 viewBox="0.00 0.00 350.00 70.00" xmlns="http://www.w3.org/2000/svg" xmlns:xlink="http://www.w3.org/1999/xlink">
<g id="graph1" class="graph" transform="scale(1 1) rotate(0) translate(4 66)">
<title>Light::updateView</title>
<polygon fill="white" stroke="white" points="-4,5 -4,-66 347,-66 347,5 -4,5"/>
<!-- Node1 -->
<g id="node1" class="node"><title>Node1</title>
<polygon fill="#bfbfbf" stroke="black" points="0.5,-20.5 0.5,-41.5 95.5,-41.5 95.5,-20.5 0.5,-20.5"/>
<text text-anchor="middle" x="48" y="-28.5" font-family="Helvetica,sans-Serif" font-size="10.00">Light::updateView</text>
</g>
<!-- Node2 -->
<g id="node3" class="node"><title>Node2</title>
<a xlink:href="class_light.html#a295eaf1ef5ebd30fa4997d4f7ccbb7e1" target="_top" xlink:title="Light::update">
<polygon fill="white" stroke="black" points="132.5,-20.5 132.5,-41.5 205.5,-41.5 205.5,-20.5 132.5,-20.5"/>
<text text-anchor="middle" x="169" y="-28.5" font-family="Helvetica,sans-Serif" font-size="10.00">Light::update</text>
</a>
</g>
<!-- Node1&#45;&gt;Node2 -->
<g id="edge2" class="edge"><title>Node1&#45;&gt;Node2</title>
<path fill="none" stroke="midnightblue" d="M105.911,-31C114.913,-31 123.991,-31 132.347,-31"/>
<polygon fill="midnightblue" stroke="midnightblue" points="105.822,-27.5001 95.8224,-31 105.822,-34.5001 105.822,-27.5001"/>
</g>
<!-- Node3 -->
<g id="node5" class="node"><title>Node3</title>
<a xlink:href="class_light.html#a30538cefe47541035db096b75133442d" target="_top" xlink:title="Light::Light">
<polygon fill="white" stroke="black" points="259.5,-40.5 259.5,-61.5 324.5,-61.5 324.5,-40.5 259.5,-40.5"/>
<text text-anchor="middle" x="292" y="-48.5" font-family="Helvetica,sans-Serif" font-size="10.00">Light::Light</text>
</a>
</g>
<!-- Node2&#45;&gt;Node3 -->
<g id="edge4" class="edge"><title>Node2&#45;&gt;Node3</title>
<path fill="none" stroke="midnightblue" d="M215.83,-38.6146C230.265,-40.9617 245.844,-43.495 259.129,-45.6551"/>
<polygon fill="midnightblue" stroke="midnightblue" points="216.003,-35.0969 205.571,-36.9465 214.88,-42.0062 216.003,-35.0969"/>
</g>
<!-- Node4 -->
<g id="node7" class="node"><title>Node4</title>
<a xlink:href="class_spotlight.html#a00b11e643c97326edb0ab6b0dff3425a" target="_top" xlink:title="Spotlight::Spotlight">
<polygon fill="white" stroke="black" points="242.5,-0.5 242.5,-21.5 341.5,-21.5 341.5,-0.5 242.5,-0.5"/>
<text text-anchor="middle" x="292" y="-8.5" font-family="Helvetica,sans-Serif" font-size="10.00">Spotlight::Spotlight</text>
</a>
</g>
<!-- Node2&#45;&gt;Node4 -->
<g id="edge6" class="edge"><title>Node2&#45;&gt;Node4</title>
<path fill="none" stroke="midnightblue" d="M215.536,-23.4332C224.229,-22.0196 233.347,-20.5371 242.136,-19.108"/>
<polygon fill="midnightblue" stroke="midnightblue" points="214.88,-19.9938 205.571,-25.0535 216.003,-26.9031 214.88,-19.9938"/>
</g>
</g>
</svg>
