<?xml version="1.0" encoding="UTF-8" standalone="no"?>
<!DOCTYPE svg PUBLIC "-//W3C//DTD SVG 1.1//EN"
 "http://www.w3.org/Graphics/SVG/1.1/DTD/svg11.dtd">
<!-- Generated by graphviz version 2.26.3 (20100126.1600)
 -->
<!-- Title: Light::updateView Pages: 1 -->
<svg width="348pt" height="30pt"
 viewBox="0.00 0.00 348.00 30.00" xmlns="http://www.w3.org/2000/svg" xmlns:xlink="http://www.w3.org/1999/xlink">
<g id="graph1" class="graph" transform="scale(1 1) rotate(0) translate(4 26)">
<title>Light::updateView</title>
<polygon fill="white" stroke="white" points="-4,5 -4,-26 345,-26 345,5 -4,5"/>
<!-- Node1 -->
<g id="node1" class="node"><title>Node1</title>
<polygon fill="#bfbfbf" stroke="black" points="0.5,-0.5 0.5,-21.5 95.5,-21.5 95.5,-0.5 0.5,-0.5"/>
<text text-anchor="middle" x="48" y="-8.5" font-family="Helvetica,sans-Serif" font-size="10.00">Light::updateView</text>
</g>
<!-- Node2 -->
<g id="node3" class="node"><title>Node2</title>
<a xlink:href="class_light.html#ab689087cc07b95273f6daae900a42010" target="_top" xlink:title="Light::direction">
<polygon fill="white" stroke="black" points="132,-0.5 132,-21.5 212,-21.5 212,-0.5 132,-0.5"/>
<text text-anchor="middle" x="172" y="-8.5" font-family="Helvetica,sans-Serif" font-size="10.00">Light::direction</text>
</a>
</g>
<!-- Node1&#45;&gt;Node2 -->
<g id="edge2" class="edge"><title>Node1&#45;&gt;Node2</title>
<path fill="none" stroke="midnightblue" d="M95.587,-11C104.227,-11 113.262,-11 121.969,-11"/>
<polygon fill="midnightblue" stroke="midnightblue" points="121.998,-14.5001 131.998,-11 121.998,-7.5001 121.998,-14.5001"/>
</g>
<!-- Node3 -->
<g id="node5" class="node"><title>Node3</title>
<a xlink:href="class_actor.html#a748e07c73196050bfb0d51a14608aeae" target="_top" xlink:title="Actor::orientation">
<polygon fill="white" stroke="black" points="248.5,-0.5 248.5,-21.5 339.5,-21.5 339.5,-0.5 248.5,-0.5"/>
<text text-anchor="middle" x="294" y="-8.5" font-family="Helvetica,sans-Serif" font-size="10.00">Actor::orientation</text>
</a>
</g>
<!-- Node2&#45;&gt;Node3 -->
<g id="edge4" class="edge"><title>Node2&#45;&gt;Node3</title>
<path fill="none" stroke="midnightblue" d="M212.285,-11C220.566,-11 229.425,-11 238.143,-11"/>
<polygon fill="midnightblue" stroke="midnightblue" points="238.269,-14.5001 248.269,-11 238.269,-7.5001 238.269,-14.5001"/>
</g>
</g>
</svg>
