<?xml version="1.0" encoding="UTF-8" standalone="no"?>
<!DOCTYPE svg PUBLIC "-//W3C//DTD SVG 1.1//EN"
 "http://www.w3.org/Graphics/SVG/1.1/DTD/svg11.dtd">
<!-- Generated by graphviz version 2.26.3 (20100126.1600)
 -->
<!-- Title: Camera::up Pages: 1 -->
<svg width="206pt" height="70pt"
 viewBox="0.00 0.00 206.00 70.00" xmlns="http://www.w3.org/2000/svg" xmlns:xlink="http://www.w3.org/1999/xlink">
<g id="graph1" class="graph" transform="scale(1 1) rotate(0) translate(4 66)">
<title>Camera::up</title>
<polygon fill="white" stroke="white" points="-4,5 -4,-66 203,-66 203,5 -4,5"/>
<!-- Node1 -->
<g id="node1" class="node"><title>Node1</title>
<polygon fill="#bfbfbf" stroke="black" points="0,-20.5 0,-41.5 68,-41.5 68,-20.5 0,-20.5"/>
<text text-anchor="middle" x="34" y="-28.5" font-family="Helvetica,sans-Serif" font-size="10.00">Camera::up</text>
</g>
<!-- Node2 -->
<g id="node3" class="node"><title>Node2</title>
<a xlink:href="class_camera.html#ac68fa914dd8737de1ec7558fc9281a68" target="_top" xlink:title="Camera::right">
<polygon fill="white" stroke="black" points="113,-40.5 113,-61.5 189,-61.5 189,-40.5 113,-40.5"/>
<text text-anchor="middle" x="151" y="-48.5" font-family="Helvetica,sans-Serif" font-size="10.00">Camera::right</text>
</a>
</g>
<!-- Node1&#45;&gt;Node2 -->
<g id="edge2" class="edge"><title>Node1&#45;&gt;Node2</title>
<path fill="none" stroke="midnightblue" d="M68.1558,-36.8386C79.0067,-38.6935 91.2177,-40.7808 102.863,-42.7714"/>
<polygon fill="midnightblue" stroke="midnightblue" points="102.455,-46.2525 112.902,-44.4876 103.635,-39.3526 102.455,-46.2525"/>
</g>
<!-- Node3 -->
<g id="node5" class="node"><title>Node3</title>
<a xlink:href="class_camera.html#a7276761c5214ec94f6ac35e5804f6719" target="_top" xlink:title="Camera::direction">
<polygon fill="white" stroke="black" points="104,-0.5 104,-21.5 198,-21.5 198,-0.5 104,-0.5"/>
<text text-anchor="middle" x="151" y="-8.5" font-family="Helvetica,sans-Serif" font-size="10.00">Camera::direction</text>
</a>
</g>
<!-- Node1&#45;&gt;Node3 -->
<g id="edge4" class="edge"><title>Node1&#45;&gt;Node3</title>
<path fill="none" stroke="midnightblue" d="M68.1558,-25.1614C76.2908,-23.7708 85.1903,-22.2495 94.0426,-20.7363"/>
<polygon fill="midnightblue" stroke="midnightblue" points="94.7067,-24.1736 103.974,-19.0386 93.5272,-17.2737 94.7067,-24.1736"/>
</g>
</g>
</svg>
