<?xml version="1.0" encoding="UTF-8" standalone="no"?>
<!DOCTYPE svg PUBLIC "-//W3C//DTD SVG 1.1//EN"
 "http://www.w3.org/Graphics/SVG/1.1/DTD/svg11.dtd">
<!-- Generated by graphviz version 2.26.3 (20100126.1600)
 -->
<!-- Title: Camera::direction Pages: 1 -->
<svg width="546pt" height="137pt"
 viewBox="0.00 0.00 546.00 137.00" xmlns="http://www.w3.org/2000/svg" xmlns:xlink="http://www.w3.org/1999/xlink">
<g id="graph1" class="graph" transform="scale(1 1) rotate(0) translate(4 133)">
<title>Camera::direction</title>
<polygon fill="white" stroke="white" points="-4,5 -4,-133 543,-133 543,5 -4,5"/>
<!-- Node1 -->
<g id="node1" class="node"><title>Node1</title>
<polygon fill="#bfbfbf" stroke="black" points="0,-58.5 0,-79.5 94,-79.5 94,-58.5 0,-58.5"/>
<text text-anchor="middle" x="47" y="-66.5" font-family="Helvetica,sans-Serif" font-size="10.00">Camera::direction</text>
</g>
<!-- Node2 -->
<g id="node3" class="node"><title>Node2</title>
<a xlink:href="class_camera.html#a9936c788ad482b40b5a3548bf5e97247" target="_top" xlink:title="Camera::up">
<polygon fill="white" stroke="black" points="152,-78.5 152,-99.5 220,-99.5 220,-78.5 152,-78.5"/>
<text text-anchor="middle" x="186" y="-86.5" font-family="Helvetica,sans-Serif" font-size="10.00">Camera::up</text>
</a>
</g>
<!-- Node1&#45;&gt;Node2 -->
<g id="edge2" class="edge"><title>Node1&#45;&gt;Node2</title>
<path fill="none" stroke="midnightblue" d="M103.993,-77.2004C120.194,-79.5315 137.333,-81.9975 151.73,-84.069"/>
<polygon fill="midnightblue" stroke="midnightblue" points="104.456,-73.731 94.0591,-75.7711 103.459,-80.6597 104.456,-73.731"/>
</g>
<!-- Node3 -->
<g id="node5" class="node"><title>Node3</title>
<a xlink:href="class_camera.html#af81adf3ba7f63429a9d5356c218da78f" target="_top" xlink:title="Camera::view">
<polygon fill="white" stroke="black" points="303.5,-107.5 303.5,-128.5 380.5,-128.5 380.5,-107.5 303.5,-107.5"/>
<text text-anchor="middle" x="342" y="-115.5" font-family="Helvetica,sans-Serif" font-size="10.00">Camera::view</text>
</a>
</g>
<!-- Node1&#45;&gt;Node3 -->
<g id="edge10" class="edge"><title>Node1&#45;&gt;Node3</title>
<path fill="none" stroke="midnightblue" d="M72.4156,-84.6013C88.3388,-93.5089 109.638,-103.893 130,-109 189.136,-123.833 260.415,-123.249 303.421,-120.982"/>
<polygon fill="midnightblue" stroke="midnightblue" points="74.12,-81.5439 63.7091,-79.5782 70.6219,-87.6072 74.12,-81.5439"/>
</g>
<!-- Node5 -->
<g id="node9" class="node"><title>Node5</title>
<a xlink:href="class_viewport.html#ae3b6b681561ee1ef2bdb96d27bd2a1f0" target="_top" xlink:title="Viewport::keyPressEvent">
<polygon fill="white" stroke="black" points="278,-58.5 278,-79.5 406,-79.5 406,-58.5 278,-58.5"/>
<text text-anchor="middle" x="342" y="-66.5" font-family="Helvetica,sans-Serif" font-size="10.00">Viewport::keyPressEvent</text>
</a>
</g>
<!-- Node1&#45;&gt;Node5 -->
<g id="edge14" class="edge"><title>Node1&#45;&gt;Node5</title>
<path fill="none" stroke="midnightblue" d="M104.338,-69C154.11,-69 226.103,-69 277.793,-69"/>
<polygon fill="midnightblue" stroke="midnightblue" points="104.07,-65.5001 94.0698,-69 104.07,-72.5001 104.07,-65.5001"/>
</g>
<!-- Node6 -->
<g id="node12" class="node"><title>Node6</title>
<a xlink:href="class_viewport.html#a884441d496cf615dcd1456df15db4f2a" target="_top" xlink:title="Viewport::wheelEvent">
<polygon fill="white" stroke="black" points="130,-0.5 130,-21.5 242,-21.5 242,-0.5 130,-0.5"/>
<text text-anchor="middle" x="186" y="-8.5" font-family="Helvetica,sans-Serif" font-size="10.00">Viewport::wheelEvent</text>
</a>
</g>
<!-- Node1&#45;&gt;Node6 -->
<g id="edge12" class="edge"><title>Node1&#45;&gt;Node6</title>
<path fill="none" stroke="midnightblue" d="M81.4736,-54.6153C105.982,-44.3889 138.358,-30.8796 160.546,-21.6212"/>
<polygon fill="midnightblue" stroke="midnightblue" points="80.0528,-51.4156 72.1719,-58.4966 82.7485,-57.8758 80.0528,-51.4156"/>
</g>
<!-- Node2&#45;&gt;Node3 -->
<g id="edge4" class="edge"><title>Node2&#45;&gt;Node3</title>
<path fill="none" stroke="midnightblue" d="M230.131,-97.2038C253.228,-101.498 281.242,-106.705 303.459,-110.835"/>
<polygon fill="midnightblue" stroke="midnightblue" points="230.706,-93.7509 220.235,-95.3642 229.427,-100.633 230.706,-93.7509"/>
</g>
<!-- Node2&#45;&gt;Node5 -->
<g id="edge8" class="edge"><title>Node2&#45;&gt;Node5</title>
<path fill="none" stroke="midnightblue" d="M230.537,-83.2901C245.213,-81.4086 261.839,-79.277 277.687,-77.2453"/>
<polygon fill="midnightblue" stroke="midnightblue" points="229.709,-79.8676 220.235,-84.6109 230.599,-86.8108 229.709,-79.8676"/>
</g>
<!-- Node4 -->
<g id="node7" class="node"><title>Node4</title>
<a xlink:href="class_viewport.html#a3c2c4661eac1f6351392b8fe133423f5" target="_top" xlink:title="Viewport::paintGL">
<polygon fill="white" stroke="black" points="442.5,-107.5 442.5,-128.5 537.5,-128.5 537.5,-107.5 442.5,-107.5"/>
<text text-anchor="middle" x="490" y="-115.5" font-family="Helvetica,sans-Serif" font-size="10.00">Viewport::paintGL</text>
</a>
</g>
<!-- Node3&#45;&gt;Node4 -->
<g id="edge6" class="edge"><title>Node3&#45;&gt;Node4</title>
<path fill="none" stroke="midnightblue" d="M390.916,-118C407.477,-118 425.938,-118 442.395,-118"/>
<polygon fill="midnightblue" stroke="midnightblue" points="390.885,-114.5 380.885,-118 390.885,-121.5 390.885,-114.5"/>
</g>
</g>
</svg>
