<?xml version="1.0" encoding="UTF-8" standalone="no"?>
<!DOCTYPE svg PUBLIC "-//W3C//DTD SVG 1.1//EN"
 "http://www.w3.org/Graphics/SVG/1.1/DTD/svg11.dtd">
<!-- Generated by graphviz version 2.26.3 (20100126.1600)
 -->
<!-- Title: Camera::position Pages: 1 -->
<svg width="524pt" height="150pt"
 viewBox="0.00 0.00 524.00 150.00" xmlns="http://www.w3.org/2000/svg" xmlns:xlink="http://www.w3.org/1999/xlink">
<g id="graph1" class="graph" transform="scale(1 1) rotate(0) translate(4 146)">
<title>Camera::position</title>
<polygon fill="white" stroke="white" points="-4,5 -4,-146 521,-146 521,5 -4,5"/>
<!-- Node1 -->
<g id="node1" class="node"><title>Node1</title>
<polygon fill="#bfbfbf" stroke="black" points="0.5,-60.5 0.5,-81.5 91.5,-81.5 91.5,-60.5 0.5,-60.5"/>
<text text-anchor="middle" x="46" y="-68.5" font-family="Helvetica,sans-Serif" font-size="10.00">Camera::position</text>
</g>
<!-- Node2 -->
<g id="node3" class="node"><title>Node2</title>
<a xlink:href="class_camera.html#ae3aa4afd7a3d9ddc2bf710bc74dc293e" target="_top" xlink:title="Camera::Camera">
<polygon fill="white" stroke="black" points="128,-120.5 128,-141.5 220,-141.5 220,-120.5 128,-120.5"/>
<text text-anchor="middle" x="174" y="-128.5" font-family="Helvetica,sans-Serif" font-size="10.00">Camera::Camera</text>
</a>
</g>
<!-- Node1&#45;&gt;Node2 -->
<g id="edge2" class="edge"><title>Node1&#45;&gt;Node2</title>
<path fill="none" stroke="midnightblue" d="M76.1938,-86.1198C91.6173,-93.7435 110.727,-103.037 128,-111 134.801,-114.136 142.224,-117.421 149.083,-120.403"/>
<polygon fill="midnightblue" stroke="midnightblue" points="77.6298,-82.9252 67.1162,-81.6156 74.5184,-89.1958 77.6298,-82.9252"/>
</g>
<!-- Node3 -->
<g id="node5" class="node"><title>Node3</title>
<a xlink:href="class_camera.html#adb1bda6df954268b8e0fc5531dafeca1" target="_top" xlink:title="Camera::move">
<polygon fill="white" stroke="black" points="133.5,-80.5 133.5,-101.5 214.5,-101.5 214.5,-80.5 133.5,-80.5"/>
<text text-anchor="middle" x="174" y="-88.5" font-family="Helvetica,sans-Serif" font-size="10.00">Camera::move</text>
</a>
</g>
<!-- Node1&#45;&gt;Node3 -->
<g id="edge4" class="edge"><title>Node1&#45;&gt;Node3</title>
<path fill="none" stroke="midnightblue" d="M101.816,-79.7213C112.347,-81.3668 123.179,-83.0592 133.145,-84.6165"/>
<polygon fill="midnightblue" stroke="midnightblue" points="102.27,-76.2498 91.8494,-78.164 101.189,-83.1659 102.27,-76.2498"/>
</g>
<!-- Node5 -->
<g id="node9" class="node"><title>Node5</title>
<a xlink:href="class_camera.html#a600387791d90bfb6578ea050e3f60ae3" target="_top" xlink:title="Camera::velocity">
<polygon fill="white" stroke="black" points="128.5,-40.5 128.5,-61.5 219.5,-61.5 219.5,-40.5 128.5,-40.5"/>
<text text-anchor="middle" x="174" y="-48.5" font-family="Helvetica,sans-Serif" font-size="10.00">Camera::velocity</text>
</a>
</g>
<!-- Node1&#45;&gt;Node5 -->
<g id="edge8" class="edge"><title>Node1&#45;&gt;Node5</title>
<path fill="none" stroke="midnightblue" d="M101.785,-62.2836C110.7,-60.8907 119.831,-59.4639 128.471,-58.114"/>
<polygon fill="midnightblue" stroke="midnightblue" points="101.189,-58.8341 91.8494,-63.836 102.27,-65.7502 101.189,-58.8341"/>
</g>
<!-- Node7 -->
<g id="node13" class="node"><title>Node7</title>
<a xlink:href="class_camera.html#af81adf3ba7f63429a9d5356c218da78f" target="_top" xlink:title="Camera::view">
<polygon fill="white" stroke="black" points="135.5,-0.5 135.5,-21.5 212.5,-21.5 212.5,-0.5 135.5,-0.5"/>
<text text-anchor="middle" x="174" y="-8.5" font-family="Helvetica,sans-Serif" font-size="10.00">Camera::view</text>
</a>
</g>
<!-- Node1&#45;&gt;Node7 -->
<g id="edge12" class="edge"><title>Node1&#45;&gt;Node7</title>
<path fill="none" stroke="midnightblue" d="M76.1938,-55.8802C91.6173,-48.2565 110.727,-38.9631 128,-31 134.801,-27.8645 142.224,-24.5786 149.083,-21.5972"/>
<polygon fill="midnightblue" stroke="midnightblue" points="74.5184,-52.8042 67.1162,-60.3844 77.6298,-59.0748 74.5184,-52.8042"/>
</g>
<!-- Node4 -->
<g id="node7" class="node"><title>Node4</title>
<a xlink:href="class_viewport.html#a884441d496cf615dcd1456df15db4f2a" target="_top" xlink:title="Viewport::wheelEvent">
<polygon fill="white" stroke="black" points="264,-80.5 264,-101.5 376,-101.5 376,-80.5 264,-80.5"/>
<text text-anchor="middle" x="320" y="-88.5" font-family="Helvetica,sans-Serif" font-size="10.00">Viewport::wheelEvent</text>
</a>
</g>
<!-- Node3&#45;&gt;Node4 -->
<g id="edge6" class="edge"><title>Node3&#45;&gt;Node4</title>
<path fill="none" stroke="midnightblue" d="M224.935,-91C237.468,-91 250.959,-91 263.729,-91"/>
<polygon fill="midnightblue" stroke="midnightblue" points="224.669,-87.5001 214.669,-91 224.669,-94.5001 224.669,-87.5001"/>
</g>
<!-- Node6 -->
<g id="node11" class="node"><title>Node6</title>
<a xlink:href="class_viewport.html#ae3b6b681561ee1ef2bdb96d27bd2a1f0" target="_top" xlink:title="Viewport::keyPressEvent">
<polygon fill="white" stroke="black" points="256,-40.5 256,-61.5 384,-61.5 384,-40.5 256,-40.5"/>
<text text-anchor="middle" x="320" y="-48.5" font-family="Helvetica,sans-Serif" font-size="10.00">Viewport::keyPressEvent</text>
</a>
</g>
<!-- Node5&#45;&gt;Node6 -->
<g id="edge10" class="edge"><title>Node5&#45;&gt;Node6</title>
<path fill="none" stroke="midnightblue" d="M229.958,-51C238.45,-51 247.268,-51 255.917,-51"/>
<polygon fill="midnightblue" stroke="midnightblue" points="229.795,-47.5001 219.795,-51 229.795,-54.5001 229.795,-47.5001"/>
</g>
<!-- Node8 -->
<g id="node15" class="node"><title>Node8</title>
<a xlink:href="class_viewport.html#ad0317022a7a6399ee47c199bb9348efc" target="_top" xlink:title="Viewport::renderScene">
<polygon fill="white" stroke="black" points="262,-0.5 262,-21.5 378,-21.5 378,-0.5 262,-0.5"/>
<text text-anchor="middle" x="320" y="-8.5" font-family="Helvetica,sans-Serif" font-size="10.00">Viewport::renderScene</text>
</a>
</g>
<!-- Node7&#45;&gt;Node8 -->
<g id="edge14" class="edge"><title>Node7&#45;&gt;Node8</title>
<path fill="none" stroke="midnightblue" d="M222.933,-11C235.405,-11 248.932,-11 261.817,-11"/>
<polygon fill="midnightblue" stroke="midnightblue" points="222.742,-7.5001 212.742,-11 222.742,-14.5001 222.742,-7.5001"/>
</g>
<!-- Node9 -->
<g id="node17" class="node"><title>Node9</title>
<a xlink:href="class_viewport.html#a3c2c4661eac1f6351392b8fe133423f5" target="_top" xlink:title="Viewport::paintGL">
<polygon fill="white" stroke="black" points="420.5,-0.5 420.5,-21.5 515.5,-21.5 515.5,-0.5 420.5,-0.5"/>
<text text-anchor="middle" x="468" y="-8.5" font-family="Helvetica,sans-Serif" font-size="10.00">Viewport::paintGL</text>
</a>
</g>
<!-- Node8&#45;&gt;Node9 -->
<g id="edge16" class="edge"><title>Node8&#45;&gt;Node9</title>
<path fill="none" stroke="midnightblue" d="M388.298,-11C399.051,-11 409.964,-11 420.124,-11"/>
<polygon fill="midnightblue" stroke="midnightblue" points="388.069,-7.5001 378.069,-11 388.069,-14.5001 388.069,-7.5001"/>
</g>
</g>
</svg>
