<?xml version="1.0" encoding="UTF-8" standalone="no"?>
<!DOCTYPE svg PUBLIC "-//W3C//DTD SVG 1.1//EN"
 "http://www.w3.org/Graphics/SVG/1.1/DTD/svg11.dtd">
<!-- Generated by graphviz version 2.26.3 (20100126.1600)
 -->
<!-- Title: GeoBase::setParent Pages: 1 -->
<svg width="538pt" height="128pt"
 viewBox="0.00 0.00 538.00 128.00" xmlns="http://www.w3.org/2000/svg" xmlns:xlink="http://www.w3.org/1999/xlink">
<g id="graph1" class="graph" transform="scale(1 1) rotate(0) translate(4 124)">
<title>GeoBase::setParent</title>
<polygon fill="white" stroke="white" points="-4,5 -4,-124 535,-124 535,5 -4,5"/>
<!-- Node1 -->
<g id="node1" class="node"><title>Node1</title>
<polygon fill="#bfbfbf" stroke="black" points="0.5,-39.5 0.5,-60.5 105.5,-60.5 105.5,-39.5 0.5,-39.5"/>
<text text-anchor="middle" x="53" y="-47.5" font-family="Helvetica,sans-Serif" font-size="10.00">GeoBase::setParent</text>
</g>
<!-- Node2 -->
<g id="node3" class="node"><title>Node2</title>
<a xlink:href="class_actor.html#a422d0d3c1e343e794357669a34bb59e1" target="_top" xlink:title="Actor::setParent">
<polygon fill="white" stroke="black" points="142,-78.5 142,-99.5 230,-99.5 230,-78.5 142,-78.5"/>
<text text-anchor="middle" x="186" y="-86.5" font-family="Helvetica,sans-Serif" font-size="10.00">Actor::setParent</text>
</a>
</g>
<!-- Node1&#45;&gt;Node2 -->
<g id="edge2" class="edge"><title>Node1&#45;&gt;Node2</title>
<path fill="none" stroke="midnightblue" d="M88.9917,-60.554C104.812,-65.1929 123.573,-70.6943 140.36,-75.617"/>
<polygon fill="midnightblue" stroke="midnightblue" points="139.399,-78.9823 149.98,-78.4376 141.368,-72.2651 139.399,-78.9823"/>
</g>
<!-- Node3 -->
<g id="node5" class="node"><title>Node3</title>
<a xlink:href="class_viewport.html#a5acb57e1d34f591dab00a8a40cd21855" target="_top" xlink:title="Viewport::updateLights">
<polygon fill="white" stroke="black" points="266,-58.5 266,-79.5 382,-79.5 382,-58.5 266,-58.5"/>
<text text-anchor="middle" x="324" y="-66.5" font-family="Helvetica,sans-Serif" font-size="10.00">Viewport::updateLights</text>
</a>
</g>
<!-- Node1&#45;&gt;Node3 -->
<g id="edge14" class="edge"><title>Node1&#45;&gt;Node3</title>
<path fill="none" stroke="midnightblue" d="M105.573,-53.6859C148.45,-56.692 209.327,-60.9602 255.925,-64.2272"/>
<polygon fill="midnightblue" stroke="midnightblue" points="255.719,-67.7213 265.94,-64.9294 256.209,-60.7384 255.719,-67.7213"/>
</g>
<!-- Node7 -->
<g id="node13" class="node"><title>Node7</title>
<a xlink:href="class_actor.html#ab3cce8c86e60c6b808ccd7732770f2cb" target="_top" xlink:title="Actor::viewport">
<polygon fill="white" stroke="black" points="144.5,-0.5 144.5,-21.5 227.5,-21.5 227.5,-0.5 144.5,-0.5"/>
<text text-anchor="middle" x="186" y="-8.5" font-family="Helvetica,sans-Serif" font-size="10.00">Actor::viewport</text>
</a>
</g>
<!-- Node1&#45;&gt;Node7 -->
<g id="edge12" class="edge"><title>Node1&#45;&gt;Node7</title>
<path fill="none" stroke="midnightblue" d="M88.9917,-39.446C104.812,-34.8071 123.573,-29.3057 140.36,-24.383"/>
<polygon fill="midnightblue" stroke="midnightblue" points="141.368,-27.7349 149.98,-21.5624 139.399,-21.0177 141.368,-27.7349"/>
</g>
<!-- Node2&#45;&gt;Node3 -->
<g id="edge4" class="edge"><title>Node2&#45;&gt;Node3</title>
<path fill="none" stroke="midnightblue" d="M230.043,-82.6169C238.208,-81.4337 246.91,-80.1724 255.601,-78.913"/>
<polygon fill="midnightblue" stroke="midnightblue" points="256.369,-82.3383 265.763,-77.4401 255.364,-75.4107 256.369,-82.3383"/>
</g>
<!-- Node4 -->
<g id="node7" class="node"><title>Node4</title>
<a xlink:href="class_world.html#a45fac3748d15198a09ce257da35e6fcf" target="_top" xlink:title="World::zoneList">
<polygon fill="white" stroke="black" points="431.5,-98.5 431.5,-119.5 516.5,-119.5 516.5,-98.5 431.5,-98.5"/>
<text text-anchor="middle" x="474" y="-106.5" font-family="Helvetica,sans-Serif" font-size="10.00">World::zoneList</text>
</a>
</g>
<!-- Node3&#45;&gt;Node4 -->
<g id="edge6" class="edge"><title>Node3&#45;&gt;Node4</title>
<path fill="none" stroke="midnightblue" d="M363.411,-79.5095C382.198,-84.5193 404.863,-90.5634 424.77,-95.8721"/>
<polygon fill="midnightblue" stroke="midnightblue" points="424.028,-99.2964 434.592,-98.4913 425.832,-92.5328 424.028,-99.2964"/>
</g>
<!-- Node5 -->
<g id="node9" class="node"><title>Node5</title>
<a xlink:href="class_world.html#a664cd2c63ef6c7979736cd454b31eb1c" target="_top" xlink:title="World::currentZone">
<polygon fill="white" stroke="black" points="424,-58.5 424,-79.5 524,-79.5 524,-58.5 424,-58.5"/>
<text text-anchor="middle" x="474" y="-66.5" font-family="Helvetica,sans-Serif" font-size="10.00">World::currentZone</text>
</a>
</g>
<!-- Node3&#45;&gt;Node5 -->
<g id="edge8" class="edge"><title>Node3&#45;&gt;Node5</title>
<path fill="none" stroke="midnightblue" d="M382.423,-69C392.665,-69 403.34,-69 413.633,-69"/>
<polygon fill="midnightblue" stroke="midnightblue" points="413.769,-72.5001 423.769,-69 413.769,-65.5001 413.769,-72.5001"/>
</g>
<!-- Node6 -->
<g id="node11" class="node"><title>Node6</title>
<a xlink:href="class_viewport.html#ae2666049736ca227e0ddc0d23c431d96" target="_top" xlink:title="Viewport::updateLight">
<polygon fill="white" stroke="black" points="418.5,-18.5 418.5,-39.5 529.5,-39.5 529.5,-18.5 418.5,-18.5"/>
<text text-anchor="middle" x="474" y="-26.5" font-family="Helvetica,sans-Serif" font-size="10.00">Viewport::updateLight</text>
</a>
</g>
<!-- Node3&#45;&gt;Node6 -->
<g id="edge10" class="edge"><title>Node3&#45;&gt;Node6</title>
<path fill="none" stroke="midnightblue" d="M363.411,-58.4905C382.198,-53.4807 404.863,-47.4366 424.77,-42.1279"/>
<polygon fill="midnightblue" stroke="midnightblue" points="425.832,-45.4672 434.592,-39.5087 424.028,-38.7036 425.832,-45.4672"/>
</g>
</g>
</svg>
