<?xml version="1.0" encoding="UTF-8" standalone="no"?>
<!DOCTYPE svg PUBLIC "-//W3C//DTD SVG 1.1//EN"
 "http://www.w3.org/Graphics/SVG/1.1/DTD/svg11.dtd">
<!-- Generated by graphviz version 2.26.3 (20100126.1600)
 -->
<!-- Title: Actor::transform Pages: 1 -->
<svg width="224pt" height="110pt"
 viewBox="0.00 0.00 224.00 110.00" xmlns="http://www.w3.org/2000/svg" xmlns:xlink="http://www.w3.org/1999/xlink">
<g id="graph1" class="graph" transform="scale(1 1) rotate(0) translate(4 106)">
<title>Actor::transform</title>
<polygon fill="white" stroke="white" points="-4,5 -4,-106 221,-106 221,5 -4,5"/>
<!-- Node1 -->
<g id="node1" class="node"><title>Node1</title>
<polygon fill="#bfbfbf" stroke="black" points="0.5,-40.5 0.5,-61.5 87.5,-61.5 87.5,-40.5 0.5,-40.5"/>
<text text-anchor="middle" x="44" y="-48.5" font-family="Helvetica,sans-Serif" font-size="10.00">Actor::transform</text>
</g>
<!-- Node2 -->
<g id="node3" class="node"><title>Node2</title>
<a xlink:href="class_actor.html#acdab84246959258bbde6eb050d340e67" target="_top" xlink:title="Actor::position">
<polygon fill="white" stroke="black" points="130,-80.5 130,-101.5 210,-101.5 210,-80.5 130,-80.5"/>
<text text-anchor="middle" x="170" y="-88.5" font-family="Helvetica,sans-Serif" font-size="10.00">Actor::position</text>
</a>
</g>
<!-- Node1&#45;&gt;Node2 -->
<g id="edge2" class="edge"><title>Node1&#45;&gt;Node2</title>
<path fill="none" stroke="midnightblue" d="M77.105,-61.5095C92.3211,-66.34 110.566,-72.1321 126.843,-77.2994"/>
<polygon fill="midnightblue" stroke="midnightblue" points="126.088,-80.7319 136.679,-80.4218 128.206,-74.06 126.088,-80.7319"/>
</g>
<!-- Node3 -->
<g id="node5" class="node"><title>Node3</title>
<a xlink:href="class_actor.html#a748e07c73196050bfb0d51a14608aeae" target="_top" xlink:title="Actor::orientation">
<polygon fill="white" stroke="black" points="124.5,-40.5 124.5,-61.5 215.5,-61.5 215.5,-40.5 124.5,-40.5"/>
<text text-anchor="middle" x="170" y="-48.5" font-family="Helvetica,sans-Serif" font-size="10.00">Actor::orientation</text>
</a>
</g>
<!-- Node1&#45;&gt;Node3 -->
<g id="edge4" class="edge"><title>Node1&#45;&gt;Node3</title>
<path fill="none" stroke="midnightblue" d="M87.7151,-51C96.1955,-51 105.192,-51 114.003,-51"/>
<polygon fill="midnightblue" stroke="midnightblue" points="114.22,-54.5001 124.22,-51 114.22,-47.5001 114.22,-54.5001"/>
</g>
<!-- Node4 -->
<g id="node7" class="node"><title>Node4</title>
<a xlink:href="class_actor.html#a9f365fe7550acb05cb6de6813035d780" target="_top" xlink:title="Actor::scale">
<polygon fill="white" stroke="black" points="135.5,-0.5 135.5,-21.5 204.5,-21.5 204.5,-0.5 135.5,-0.5"/>
<text text-anchor="middle" x="170" y="-8.5" font-family="Helvetica,sans-Serif" font-size="10.00">Actor::scale</text>
</a>
</g>
<!-- Node1&#45;&gt;Node4 -->
<g id="edge6" class="edge"><title>Node1&#45;&gt;Node4</title>
<path fill="none" stroke="midnightblue" d="M77.105,-40.4905C92.3211,-35.66 110.566,-29.8679 126.843,-24.7006"/>
<polygon fill="midnightblue" stroke="midnightblue" points="128.206,-27.94 136.679,-21.5782 126.088,-21.2681 128.206,-27.94"/>
</g>
</g>
</svg>
