<?xml version="1.0" encoding="UTF-8" standalone="no"?>
<!DOCTYPE svg PUBLIC "-//W3C//DTD SVG 1.1//EN"
 "http://www.w3.org/Graphics/SVG/1.1/DTD/svg11.dtd">
<!-- Generated by graphviz version 2.26.3 (20100126.1600)
 -->
<!-- Title: Group::draw Pages: 1 -->
<svg width="330pt" height="110pt"
 viewBox="0.00 0.00 330.00 110.00" xmlns="http://www.w3.org/2000/svg" xmlns:xlink="http://www.w3.org/1999/xlink">
<g id="graph1" class="graph" transform="scale(1 1) rotate(0) translate(4 106)">
<title>Group::draw</title>
<polygon fill="white" stroke="white" points="-4,5 -4,-106 327,-106 327,5 -4,5"/>
<!-- Node1 -->
<g id="node1" class="node"><title>Node1</title>
<polygon fill="#bfbfbf" stroke="black" points="0,-20.5 0,-41.5 70,-41.5 70,-20.5 0,-20.5"/>
<text text-anchor="middle" x="35" y="-28.5" font-family="Helvetica,sans-Serif" font-size="10.00">Group::draw</text>
</g>
<!-- Node2 -->
<g id="node3" class="node"><title>Node2</title>
<a xlink:href="class_actor.html#abbf942f60996c5df2a8c0a832bd91abc" target="_top" xlink:title="Actor::transform">
<polygon fill="white" stroke="black" points="106.5,-40.5 106.5,-61.5 193.5,-61.5 193.5,-40.5 106.5,-40.5"/>
<text text-anchor="middle" x="150" y="-48.5" font-family="Helvetica,sans-Serif" font-size="10.00">Actor::transform</text>
</a>
</g>
<!-- Node1&#45;&gt;Node2 -->
<g id="edge2" class="edge"><title>Node1&#45;&gt;Node2</title>
<path fill="none" stroke="midnightblue" d="M70.1287,-37.1093C78.3833,-38.5449 87.3667,-40.1072 96.2313,-41.6489"/>
<polygon fill="midnightblue" stroke="midnightblue" points="95.6922,-45.1076 106.144,-43.3729 96.8917,-38.2111 95.6922,-45.1076"/>
</g>
<!-- Node6 -->
<g id="node11" class="node"><title>Node6</title>
<a xlink:href="class_actor.html#ac35dab598ae9f9a936418ec22fadf138" target="_top" xlink:title="Actor::draw">
<polygon fill="white" stroke="black" points="116.5,-0.5 116.5,-21.5 183.5,-21.5 183.5,-0.5 116.5,-0.5"/>
<text text-anchor="middle" x="150" y="-8.5" font-family="Helvetica,sans-Serif" font-size="10.00">Actor::draw</text>
</a>
</g>
<!-- Node1&#45;&gt;Node6 -->
<g id="edge10" class="edge"><title>Node1&#45;&gt;Node6</title>
<path fill="none" stroke="midnightblue" d="M70.1287,-24.8907C81.4703,-22.9182 94.1876,-20.7065 106.082,-18.6378"/>
<polygon fill="midnightblue" stroke="midnightblue" points="107.016,-22.0281 116.268,-16.8664 105.817,-15.1316 107.016,-22.0281"/>
</g>
<!-- Node3 -->
<g id="node5" class="node"><title>Node3</title>
<a xlink:href="class_actor.html#acdab84246959258bbde6eb050d340e67" target="_top" xlink:title="Actor::position">
<polygon fill="white" stroke="black" points="236,-80.5 236,-101.5 316,-101.5 316,-80.5 236,-80.5"/>
<text text-anchor="middle" x="276" y="-88.5" font-family="Helvetica,sans-Serif" font-size="10.00">Actor::position</text>
</a>
</g>
<!-- Node2&#45;&gt;Node3 -->
<g id="edge4" class="edge"><title>Node2&#45;&gt;Node3</title>
<path fill="none" stroke="midnightblue" d="M183.105,-61.5095C198.321,-66.34 216.566,-72.1321 232.843,-77.2994"/>
<polygon fill="midnightblue" stroke="midnightblue" points="232.088,-80.7319 242.679,-80.4218 234.206,-74.06 232.088,-80.7319"/>
</g>
<!-- Node4 -->
<g id="node7" class="node"><title>Node4</title>
<a xlink:href="class_actor.html#a748e07c73196050bfb0d51a14608aeae" target="_top" xlink:title="Actor::orientation">
<polygon fill="white" stroke="black" points="230.5,-40.5 230.5,-61.5 321.5,-61.5 321.5,-40.5 230.5,-40.5"/>
<text text-anchor="middle" x="276" y="-48.5" font-family="Helvetica,sans-Serif" font-size="10.00">Actor::orientation</text>
</a>
</g>
<!-- Node2&#45;&gt;Node4 -->
<g id="edge6" class="edge"><title>Node2&#45;&gt;Node4</title>
<path fill="none" stroke="midnightblue" d="M193.715,-51C202.196,-51 211.192,-51 220.003,-51"/>
<polygon fill="midnightblue" stroke="midnightblue" points="220.22,-54.5001 230.22,-51 220.22,-47.5001 220.22,-54.5001"/>
</g>
<!-- Node5 -->
<g id="node9" class="node"><title>Node5</title>
<a xlink:href="class_actor.html#a9f365fe7550acb05cb6de6813035d780" target="_top" xlink:title="Actor::scale">
<polygon fill="white" stroke="black" points="241.5,-0.5 241.5,-21.5 310.5,-21.5 310.5,-0.5 241.5,-0.5"/>
<text text-anchor="middle" x="276" y="-8.5" font-family="Helvetica,sans-Serif" font-size="10.00">Actor::scale</text>
</a>
</g>
<!-- Node2&#45;&gt;Node5 -->
<g id="edge8" class="edge"><title>Node2&#45;&gt;Node5</title>
<path fill="none" stroke="midnightblue" d="M183.105,-40.4905C198.321,-35.66 216.566,-29.8679 232.843,-24.7006"/>
<polygon fill="midnightblue" stroke="midnightblue" points="234.206,-27.94 242.679,-21.5782 232.088,-21.2681 234.206,-27.94"/>
</g>
</g>
</svg>
