<?xml version="1.0" encoding="UTF-8" standalone="no"?>
<!DOCTYPE svg PUBLIC "-//W3C//DTD SVG 1.1//EN"
 "http://www.w3.org/Graphics/SVG/1.1/DTD/svg11.dtd">
<!-- Generated by graphviz version 2.26.3 (20100126.1600)
 -->
<!-- Title: World::zoneList Pages: 1 -->
<svg width="652pt" height="150pt"
 viewBox="0.00 0.00 652.00 150.00" xmlns="http://www.w3.org/2000/svg" xmlns:xlink="http://www.w3.org/1999/xlink">
<g id="graph1" class="graph" transform="scale(1 1) rotate(0) translate(4 146)">
<title>World::zoneList</title>
<polygon fill="white" stroke="white" points="-4,5 -4,-146 649,-146 649,5 -4,5"/>
<!-- Node1 -->
<g id="node1" class="node"><title>Node1</title>
<polygon fill="#bfbfbf" stroke="black" points="0.5,-20.5 0.5,-41.5 85.5,-41.5 85.5,-20.5 0.5,-20.5"/>
<text text-anchor="middle" x="43" y="-28.5" font-family="Helvetica,sans-Serif" font-size="10.00">World::zoneList</text>
</g>
<!-- Node2 -->
<g id="node3" class="node"><title>Node2</title>
<a xlink:href="class_viewport.html#a5acb57e1d34f591dab00a8a40cd21855" target="_top" xlink:title="Viewport::updateLights">
<polygon fill="white" stroke="black" points="122,-20.5 122,-41.5 238,-41.5 238,-20.5 122,-20.5"/>
<text text-anchor="middle" x="180" y="-28.5" font-family="Helvetica,sans-Serif" font-size="10.00">Viewport::updateLights</text>
</a>
</g>
<!-- Node1&#45;&gt;Node2 -->
<g id="edge2" class="edge"><title>Node1&#45;&gt;Node2</title>
<path fill="none" stroke="midnightblue" d="M95.7882,-31C104.314,-31 113.184,-31 121.828,-31"/>
<polygon fill="midnightblue" stroke="midnightblue" points="95.5967,-27.5001 85.5967,-31 95.5966,-34.5001 95.5967,-27.5001"/>
</g>
<!-- Node3 -->
<g id="node5" class="node"><title>Node3</title>
<a xlink:href="class_actor.html#a422d0d3c1e343e794357669a34bb59e1" target="_top" xlink:title="Actor::setParent">
<polygon fill="white" stroke="black" points="274,-40.5 274,-61.5 362,-61.5 362,-40.5 274,-40.5"/>
<text text-anchor="middle" x="318" y="-48.5" font-family="Helvetica,sans-Serif" font-size="10.00">Actor::setParent</text>
</a>
</g>
<!-- Node2&#45;&gt;Node3 -->
<g id="edge4" class="edge"><title>Node2&#45;&gt;Node3</title>
<path fill="none" stroke="midnightblue" d="M248.266,-40.8936C256.939,-42.1505 265.627,-43.4097 273.783,-44.5917"/>
<polygon fill="midnightblue" stroke="midnightblue" points="248.523,-37.3944 238.124,-39.4238 247.519,-44.322 248.523,-37.3944"/>
</g>
<!-- Node6 -->
<g id="node11" class="node"><title>Node6</title>
<a xlink:href="class_geo_base.html#a357c5534b7ac40df29f504c0e988e52e" target="_top" xlink:title="GeoBase::setParent">
<polygon fill="white" stroke="black" points="398.5,-0.5 398.5,-21.5 503.5,-21.5 503.5,-0.5 398.5,-0.5"/>
<text text-anchor="middle" x="451" y="-8.5" font-family="Helvetica,sans-Serif" font-size="10.00">GeoBase::setParent</text>
</a>
</g>
<!-- Node2&#45;&gt;Node6 -->
<g id="edge18" class="edge"><title>Node2&#45;&gt;Node6</title>
<path fill="none" stroke="midnightblue" d="M248.152,-25.9703C294.754,-22.531 355.61,-18.0399 398.465,-14.8771"/>
<polygon fill="midnightblue" stroke="midnightblue" points="247.852,-22.4829 238.136,-26.7095 248.367,-29.4639 247.852,-22.4829"/>
</g>
<!-- Node4 -->
<g id="node7" class="node"><title>Node4</title>
<a xlink:href="class_actor.html#aa0fc674ef09b215b67ff2fff69b79459" target="_top" xlink:title="Actor::Actor">
<polygon fill="white" stroke="black" points="416.5,-80.5 416.5,-101.5 485.5,-101.5 485.5,-80.5 416.5,-80.5"/>
<text text-anchor="middle" x="451" y="-88.5" font-family="Helvetica,sans-Serif" font-size="10.00">Actor::Actor</text>
</a>
</g>
<!-- Node3&#45;&gt;Node4 -->
<g id="edge6" class="edge"><title>Node3&#45;&gt;Node4</title>
<path fill="none" stroke="midnightblue" d="M362.906,-64.5057C380.333,-69.7468 399.979,-75.6554 416.289,-80.5607"/>
<polygon fill="midnightblue" stroke="midnightblue" points="363.529,-61.038 352.944,-61.5095 361.512,-67.7414 363.529,-61.038"/>
</g>
<!-- Node5 -->
<g id="node9" class="node"><title>Node5</title>
<a xlink:href="fileloader_8hpp.html#a48efbb80ebceb0d47fc8d9084562f597" target="_top" xlink:title="operator\&gt;\&gt;">
<polygon fill="white" stroke="black" points="419,-40.5 419,-61.5 483,-61.5 483,-40.5 419,-40.5"/>
<text text-anchor="middle" x="451" y="-48.5" font-family="Helvetica,sans-Serif" font-size="10.00">operator&gt;&gt;</text>
</a>
</g>
<!-- Node3&#45;&gt;Node5 -->
<g id="edge8" class="edge"><title>Node3&#45;&gt;Node5</title>
<path fill="none" stroke="midnightblue" d="M372.437,-51C388.145,-51 404.782,-51 418.682,-51"/>
<polygon fill="midnightblue" stroke="midnightblue" points="372.287,-47.5001 362.287,-51 372.287,-54.5001 372.287,-47.5001"/>
</g>
<!-- Node3&#45;&gt;Node6 -->
<g id="edge10" class="edge"><title>Node3&#45;&gt;Node6</title>
<path fill="none" stroke="midnightblue" d="M362.826,-37.5186C380.108,-32.3208 399.584,-26.4635 415.827,-21.5782"/>
<polygon fill="midnightblue" stroke="midnightblue" points="361.512,-34.2586 352.944,-40.4905 363.529,-40.962 361.512,-34.2586"/>
</g>
<!-- Node8 -->
<g id="node15" class="node"><title>Node8</title>
<a xlink:href="class_light.html#ab89261d1fa4fbbeaa61988502da207d3" target="_top" xlink:title="Light::setParent">
<polygon fill="white" stroke="black" points="408,-120.5 408,-141.5 494,-141.5 494,-120.5 408,-120.5"/>
<text text-anchor="middle" x="451" y="-128.5" font-family="Helvetica,sans-Serif" font-size="10.00">Light::setParent</text>
</a>
</g>
<!-- Node3&#45;&gt;Node8 -->
<g id="edge14" class="edge"><title>Node3&#45;&gt;Node8</title>
<path fill="none" stroke="midnightblue" d="M337.865,-68.4185C353.425,-81.4183 376.044,-98.9433 398,-111 404.465,-114.55 411.692,-117.737 418.678,-120.468"/>
<polygon fill="midnightblue" stroke="midnightblue" points="339.881,-65.5382 329.996,-61.7255 335.345,-70.8704 339.881,-65.5382"/>
</g>
<!-- Node7 -->
<g id="node13" class="node"><title>Node7</title>
<a xlink:href="class_geo_base.html#a64d0302a4d85b1fe7946df7ebfaa2e33" target="_top" xlink:title="GeoBase::GeoBase">
<polygon fill="white" stroke="black" points="540,-0.5 540,-21.5 644,-21.5 644,-0.5 540,-0.5"/>
<text text-anchor="middle" x="592" y="-8.5" font-family="Helvetica,sans-Serif" font-size="10.00">GeoBase::GeoBase</text>
</a>
</g>
<!-- Node6&#45;&gt;Node7 -->
<g id="edge12" class="edge"><title>Node6&#45;&gt;Node7</title>
<path fill="none" stroke="midnightblue" d="M513.686,-11C522.452,-11 531.381,-11 539.922,-11"/>
<polygon fill="midnightblue" stroke="midnightblue" points="513.503,-7.5001 503.503,-11 513.503,-14.5001 513.503,-7.5001"/>
</g>
<!-- Node9 -->
<g id="node17" class="node"><title>Node9</title>
<a xlink:href="class_light.html#a30538cefe47541035db096b75133442d" target="_top" xlink:title="Light::Light">
<polygon fill="white" stroke="black" points="559.5,-120.5 559.5,-141.5 624.5,-141.5 624.5,-120.5 559.5,-120.5"/>
<text text-anchor="middle" x="592" y="-128.5" font-family="Helvetica,sans-Serif" font-size="10.00">Light::Light</text>
</a>
</g>
<!-- Node8&#45;&gt;Node9 -->
<g id="edge16" class="edge"><title>Node8&#45;&gt;Node9</title>
<path fill="none" stroke="midnightblue" d="M504.189,-131C522.782,-131 543.088,-131 559.486,-131"/>
<polygon fill="midnightblue" stroke="midnightblue" points="504.071,-127.5 494.071,-131 504.071,-134.5 504.071,-127.5"/>
</g>
</g>
</svg>
