<?xml version="1.0" encoding="UTF-8" standalone="no"?>
<!DOCTYPE svg PUBLIC "-//W3C//DTD SVG 1.1//EN"
 "http://www.w3.org/Graphics/SVG/1.1/DTD/svg11.dtd">
<!-- Generated by graphviz version 2.26.3 (20100126.1600)
 -->
<!-- Title: Viewport::addChild Pages: 1 -->
<svg width="244pt" height="70pt"
 viewBox="0.00 0.00 244.00 70.00" xmlns="http://www.w3.org/2000/svg" xmlns:xlink="http://www.w3.org/1999/xlink">
<g id="graph1" class="graph" transform="scale(1 1) rotate(0) translate(4 66)">
<title>Viewport::addChild</title>
<polygon fill="white" stroke="white" points="-4,5 -4,-66 241,-66 241,5 -4,5"/>
<!-- Node1 -->
<g id="node1" class="node"><title>Node1</title>
<polygon fill="#bfbfbf" stroke="black" points="0.5,-20.5 0.5,-41.5 99.5,-41.5 99.5,-20.5 0.5,-20.5"/>
<text text-anchor="middle" x="50" y="-28.5" font-family="Helvetica,sans-Serif" font-size="10.00">Viewport::addChild</text>
</g>
<!-- Node2 -->
<g id="node3" class="node"><title>Node2</title>
<a xlink:href="class_world.html#a664cd2c63ef6c7979736cd454b31eb1c" target="_top" xlink:title="World::currentZone">
<polygon fill="white" stroke="black" points="136,-40.5 136,-61.5 236,-61.5 236,-40.5 136,-40.5"/>
<text text-anchor="middle" x="186" y="-48.5" font-family="Helvetica,sans-Serif" font-size="10.00">World::currentZone</text>
</a>
</g>
<!-- Node1&#45;&gt;Node2 -->
<g id="edge2" class="edge"><title>Node1&#45;&gt;Node2</title>
<path fill="none" stroke="midnightblue" d="M99.8691,-38.3337C108.26,-39.5677 117.049,-40.8601 125.671,-42.128"/>
<polygon fill="midnightblue" stroke="midnightblue" points="125.279,-45.608 135.682,-43.6002 126.297,-38.6825 125.279,-45.608"/>
</g>
<!-- Node3 -->
<g id="node5" class="node"><title>Node3</title>
<a xlink:href="class_zone.html#a3f3982f932e0e1a8d70436dd7c9234cf" target="_top" xlink:title="Zone::addChild">
<polygon fill="white" stroke="black" points="144.5,-0.5 144.5,-21.5 227.5,-21.5 227.5,-0.5 144.5,-0.5"/>
<text text-anchor="middle" x="186" y="-8.5" font-family="Helvetica,sans-Serif" font-size="10.00">Zone::addChild</text>
</a>
</g>
<!-- Node1&#45;&gt;Node3 -->
<g id="edge4" class="edge"><title>Node1&#45;&gt;Node3</title>
<path fill="none" stroke="midnightblue" d="M99.8691,-23.6663C111.013,-22.0275 122.858,-20.2856 134.083,-18.6349"/>
<polygon fill="midnightblue" stroke="midnightblue" points="134.794,-22.068 144.179,-17.1502 133.776,-15.1425 134.794,-22.068"/>
</g>
</g>
</svg>
