<?xml version="1.0" encoding="UTF-8" standalone="no"?>
<!DOCTYPE svg PUBLIC "-//W3C//DTD SVG 1.1//EN"
 "http://www.w3.org/Graphics/SVG/1.1/DTD/svg11.dtd">
<!-- Generated by graphviz version 2.26.3 (20100126.1600)
 -->
<!-- Title: Camera::view Pages: 1 -->
<svg width="344pt" height="109pt"
 viewBox="0.00 0.00 344.00 109.00" xmlns="http://www.w3.org/2000/svg" xmlns:xlink="http://www.w3.org/1999/xlink">
<g id="graph1" class="graph" transform="scale(1 1) rotate(0) translate(4 105)">
<title>Camera::view</title>
<polygon fill="white" stroke="white" points="-4,5 -4,-105 341,-105 341,5 -4,5"/>
<!-- Node1 -->
<g id="node1" class="node"><title>Node1</title>
<polygon fill="#bfbfbf" stroke="black" points="0.5,-40.5 0.5,-61.5 77.5,-61.5 77.5,-40.5 0.5,-40.5"/>
<text text-anchor="middle" x="39" y="-48.5" font-family="Helvetica,sans-Serif" font-size="10.00">Camera::view</text>
</g>
<!-- Node2 -->
<g id="node3" class="node"><title>Node2</title>
<a xlink:href="class_camera.html#a4e6b5818c84025d176c13c84991ef568" target="_top" xlink:title="Camera::position">
<polygon fill="white" stroke="black" points="114.5,-79.5 114.5,-100.5 205.5,-100.5 205.5,-79.5 114.5,-79.5"/>
<text text-anchor="middle" x="160" y="-87.5" font-family="Helvetica,sans-Serif" font-size="10.00">Camera::position</text>
</a>
</g>
<!-- Node1&#45;&gt;Node2 -->
<g id="edge2" class="edge"><title>Node1&#45;&gt;Node2</title>
<path fill="none" stroke="midnightblue" d="M71.7443,-61.554C85.868,-66.1062 102.568,-71.4889 117.62,-76.3403"/>
<polygon fill="midnightblue" stroke="midnightblue" points="116.638,-79.701 127.229,-79.4376 118.785,-73.0386 116.638,-79.701"/>
</g>
<!-- Node3 -->
<g id="node5" class="node"><title>Node3</title>
<a xlink:href="class_camera.html#a7276761c5214ec94f6ac35e5804f6719" target="_top" xlink:title="Camera::direction">
<polygon fill="white" stroke="black" points="242,-40.5 242,-61.5 336,-61.5 336,-40.5 242,-40.5"/>
<text text-anchor="middle" x="289" y="-48.5" font-family="Helvetica,sans-Serif" font-size="10.00">Camera::direction</text>
</a>
</g>
<!-- Node1&#45;&gt;Node3 -->
<g id="edge4" class="edge"><title>Node1&#45;&gt;Node3</title>
<path fill="none" stroke="midnightblue" d="M77.5146,-51C118.731,-51 184.552,-51 231.819,-51"/>
<polygon fill="midnightblue" stroke="midnightblue" points="231.907,-54.5001 241.907,-51 231.907,-47.5001 231.907,-54.5001"/>
</g>
<!-- Node4 -->
<g id="node7" class="node"><title>Node4</title>
<a xlink:href="class_camera.html#a9936c788ad482b40b5a3548bf5e97247" target="_top" xlink:title="Camera::up">
<polygon fill="white" stroke="black" points="126,-1.5 126,-22.5 194,-22.5 194,-1.5 126,-1.5"/>
<text text-anchor="middle" x="160" y="-9.5" font-family="Helvetica,sans-Serif" font-size="10.00">Camera::up</text>
</a>
</g>
<!-- Node1&#45;&gt;Node4 -->
<g id="edge6" class="edge"><title>Node1&#45;&gt;Node4</title>
<path fill="none" stroke="midnightblue" d="M71.7443,-40.446C85.868,-35.8938 102.568,-30.5111 117.62,-25.6597"/>
<polygon fill="midnightblue" stroke="midnightblue" points="118.785,-28.9614 127.229,-22.5624 116.638,-22.299 118.785,-28.9614"/>
</g>
<!-- Node4&#45;&gt;Node3 -->
<g id="edge10" class="edge"><title>Node4&#45;&gt;Node3</title>
<path fill="none" stroke="midnightblue" d="M194.231,-22.3489C209.561,-26.9834 227.84,-32.5099 244.237,-37.467"/>
<polygon fill="midnightblue" stroke="midnightblue" points="243.575,-40.9232 254.16,-40.4669 245.601,-34.2227 243.575,-40.9232"/>
</g>
<!-- Node5 -->
<g id="node9" class="node"><title>Node5</title>
<a xlink:href="class_camera.html#ac68fa914dd8737de1ec7558fc9281a68" target="_top" xlink:title="Camera::right">
<polygon fill="white" stroke="black" points="251,-0.5 251,-21.5 327,-21.5 327,-0.5 251,-0.5"/>
<text text-anchor="middle" x="289" y="-8.5" font-family="Helvetica,sans-Serif" font-size="10.00">Camera::right</text>
</a>
</g>
<!-- Node4&#45;&gt;Node5 -->
<g id="edge8" class="edge"><title>Node4&#45;&gt;Node5</title>
<path fill="none" stroke="midnightblue" d="M194.231,-11.7346C208.422,-11.6246 225.142,-11.495 240.555,-11.3755"/>
<polygon fill="midnightblue" stroke="midnightblue" points="240.998,-14.8723 250.97,-11.2948 240.943,-7.87252 240.998,-14.8723"/>
</g>
</g>
</svg>
