<?xml version="1.0" encoding="UTF-8" standalone="no"?>
<!DOCTYPE svg PUBLIC "-//W3C//DTD SVG 1.1//EN"
 "http://www.w3.org/Graphics/SVG/1.1/DTD/svg11.dtd">
<!-- Generated by graphviz version 2.26.3 (20100126.1600)
 -->
<!-- Title: src/cube.cpp Pages: 1 -->
<svg width="929pt" height="262pt"
 viewBox="0.00 0.00 929.00 262.00" xmlns="http://www.w3.org/2000/svg" xmlns:xlink="http://www.w3.org/1999/xlink">
<g id="graph1" class="graph" transform="scale(1 1) rotate(0) translate(4 258)">
<title>src/cube.cpp</title>
<polygon fill="white" stroke="white" points="-4,5 -4,-258 926,-258 926,5 -4,5"/>
<!-- Node1 -->
<g id="node1" class="node"><title>Node1</title>
<polygon fill="#bfbfbf" stroke="black" points="812.5,-232.5 812.5,-253.5 885.5,-253.5 885.5,-232.5 812.5,-232.5"/>
<text text-anchor="middle" x="849" y="-240.5" font-family="Helvetica,sans-Serif" font-size="10.00">src/cube.cpp</text>
</g>
<!-- Node2 -->
<g id="node3" class="node"><title>Node2</title>
<a xlink:href="cube_8hpp.html" target="_top" xlink:title="cube.hpp">
<polygon fill="white" stroke="black" points="609,-174.5 609,-195.5 665,-195.5 665,-174.5 609,-174.5"/>
<text text-anchor="middle" x="637" y="-182.5" font-family="Helvetica,sans-Serif" font-size="10.00">cube.hpp</text>
</a>
</g>
<!-- Node1&#45;&gt;Node2 -->
<g id="edge2" class="edge"><title>Node1&#45;&gt;Node2</title>
<path fill="none" stroke="midnightblue" d="M812.072,-232.897C773.631,-222.38 713.722,-205.99 674.916,-195.373"/>
<polygon fill="midnightblue" stroke="midnightblue" points="675.619,-191.937 665.049,-192.674 673.771,-198.689 675.619,-191.937"/>
</g>
<!-- Node15 -->
<g id="node31" class="node"><title>Node15</title>
<polygon fill="white" stroke="#bfbfbf" points="877,-58.5 877,-79.5 921,-79.5 921,-58.5 877,-58.5"/>
<text text-anchor="middle" x="899" y="-66.5" font-family="Helvetica,sans-Serif" font-size="10.00">vector</text>
</g>
<!-- Node1&#45;&gt;Node15 -->
<g id="edge42" class="edge"><title>Node1&#45;&gt;Node15</title>
<path fill="none" stroke="midnightblue" d="M853.145,-232.411C860.38,-213.629 875.452,-173.148 885,-138 889.349,-121.991 893.021,-103.563 895.512,-89.7807"/>
<polygon fill="midnightblue" stroke="midnightblue" points="898.973,-90.3118 897.247,-79.8584 892.077,-89.1061 898.973,-90.3118"/>
</g>
<!-- Node3 -->
<g id="node5" class="node"><title>Node3</title>
<a xlink:href="geometry_8hpp.html" target="_top" xlink:title="geometry.hpp">
<polygon fill="white" stroke="black" points="493,-116.5 493,-137.5 569,-137.5 569,-116.5 493,-116.5"/>
<text text-anchor="middle" x="531" y="-124.5" font-family="Helvetica,sans-Serif" font-size="10.00">geometry.hpp</text>
</a>
</g>
<!-- Node2&#45;&gt;Node3 -->
<g id="edge4" class="edge"><title>Node2&#45;&gt;Node3</title>
<path fill="none" stroke="midnightblue" d="M617.558,-174.362C601.196,-165.409 577.587,-152.491 559.157,-142.406"/>
<polygon fill="midnightblue" stroke="midnightblue" points="560.771,-139.3 550.319,-137.571 557.411,-145.441 560.771,-139.3"/>
</g>
<!-- Node10 -->
<g id="node19" class="node"><title>Node10</title>
<a xlink:href="globals_8hpp.html" target="_top" xlink:title="Definitions globales. ">
<polygon fill="white" stroke="black" points="528,-0.5 528,-21.5 594,-21.5 594,-0.5 528,-0.5"/>
<text text-anchor="middle" x="561" y="-8.5" font-family="Helvetica,sans-Serif" font-size="10.00">globals.hpp</text>
</a>
</g>
<!-- Node2&#45;&gt;Node10 -->
<g id="edge34" class="edge"><title>Node2&#45;&gt;Node10</title>
<path fill="none" stroke="midnightblue" d="M665.128,-178.939C730.333,-163.668 882.387,-120.334 830,-58 801.676,-24.2985 672.877,-14.7594 604.29,-12.0619"/>
<polygon fill="midnightblue" stroke="midnightblue" points="604.345,-8.56169 594.225,-11.6982 604.092,-15.5571 604.345,-8.56169"/>
</g>
<!-- Node13 -->
<g id="node27" class="node"><title>Node13</title>
<polygon fill="white" stroke="#bfbfbf" points="-0.5,-0.5 -0.5,-21.5 82.5,-21.5 82.5,-0.5 -0.5,-0.5"/>
<text text-anchor="middle" x="41" y="-8.5" font-family="Helvetica,sans-Serif" font-size="10.00">QMetaProperty</text>
</g>
<!-- Node2&#45;&gt;Node13 -->
<g id="edge38" class="edge"><title>Node2&#45;&gt;Node13</title>
<path fill="none" stroke="midnightblue" d="M608.826,-182.856C507.901,-174.703 165.829,-142.87 79,-80 62.7101,-68.205 52.5958,-47.1911 46.9376,-31.4425"/>
<polygon fill="midnightblue" stroke="midnightblue" points="50.1417,-29.979 43.7111,-21.5589 43.4873,-32.1513 50.1417,-29.979"/>
</g>
<!-- Node2&#45;&gt;Node15 -->
<g id="edge40" class="edge"><title>Node2&#45;&gt;Node15</title>
<path fill="none" stroke="midnightblue" d="M665.305,-182.146C718.78,-176.272 832.074,-161.387 863,-138 878.761,-126.081 888.263,-105.261 893.514,-89.5996"/>
<polygon fill="midnightblue" stroke="midnightblue" points="896.947,-90.3396 896.494,-79.7544 890.247,-88.3113 896.947,-90.3396"/>
</g>
<!-- Node16 -->
<g id="node34" class="node"><title>Node16</title>
<polygon fill="white" stroke="#bfbfbf" points="428.5,-116.5 428.5,-137.5 475.5,-137.5 475.5,-116.5 428.5,-116.5"/>
<text text-anchor="middle" x="452" y="-124.5" font-family="Helvetica,sans-Serif" font-size="10.00">QColor</text>
</g>
<!-- Node2&#45;&gt;Node16 -->
<g id="edge36" class="edge"><title>Node2&#45;&gt;Node16</title>
<path fill="none" stroke="midnightblue" d="M608.994,-176.7C580.169,-168.091 533.737,-154.041 485.42,-138.404"/>
<polygon fill="midnightblue" stroke="midnightblue" points="486.329,-135.019 475.736,-135.257 484.165,-141.677 486.329,-135.019"/>
</g>
<!-- Node4 -->
<g id="node7" class="node"><title>Node4</title>
<polygon fill="white" stroke="#bfbfbf" points="398.5,-58.5 398.5,-79.5 451.5,-79.5 451.5,-58.5 398.5,-58.5"/>
<text text-anchor="middle" x="425" y="-66.5" font-family="Helvetica,sans-Serif" font-size="10.00">QObject</text>
</g>
<!-- Node3&#45;&gt;Node4 -->
<g id="edge6" class="edge"><title>Node3&#45;&gt;Node4</title>
<path fill="none" stroke="midnightblue" d="M511.558,-116.362C495.196,-107.409 471.587,-94.4908 453.157,-84.4064"/>
<polygon fill="midnightblue" stroke="midnightblue" points="454.771,-81.3004 444.319,-79.5707 451.411,-87.4412 454.771,-81.3004"/>
</g>
<!-- Node5 -->
<g id="node9" class="node"><title>Node5</title>
<polygon fill="white" stroke="#bfbfbf" points="468.5,-58.5 468.5,-79.5 533.5,-79.5 533.5,-58.5 468.5,-58.5"/>
<text text-anchor="middle" x="501" y="-66.5" font-family="Helvetica,sans-Serif" font-size="10.00">QVector3D</text>
</g>
<!-- Node3&#45;&gt;Node5 -->
<g id="edge8" class="edge"><title>Node3&#45;&gt;Node5</title>
<path fill="none" stroke="midnightblue" d="M525.498,-116.362C521.48,-108.595 515.919,-97.8426 511.11,-88.5458"/>
<polygon fill="midnightblue" stroke="midnightblue" points="514.171,-86.8448 506.468,-79.5707 507.953,-90.0608 514.171,-86.8448"/>
</g>
<!-- Node6 -->
<g id="node11" class="node"><title>Node6</title>
<polygon fill="white" stroke="#bfbfbf" points="119.5,-0.5 119.5,-21.5 222.5,-21.5 222.5,-0.5 119.5,-0.5"/>
<text text-anchor="middle" x="171" y="-8.5" font-family="Helvetica,sans-Serif" font-size="10.00">QOpenGLFunctions</text>
</g>
<!-- Node3&#45;&gt;Node6 -->
<g id="edge10" class="edge"><title>Node3&#45;&gt;Node6</title>
<path fill="none" stroke="midnightblue" d="M492.869,-117.607C489.878,-117.014 486.895,-116.468 484,-116 440.385,-108.949 117.793,-112.625 88,-80 68.7872,-58.9614 101.674,-38.5739 131.552,-25.4855"/>
<polygon fill="midnightblue" stroke="midnightblue" points="133.202,-28.5891 141.077,-21.5009 130.501,-22.1314 133.202,-28.5891"/>
</g>
<!-- Node7 -->
<g id="node13" class="node"><title>Node7</title>
<polygon fill="white" stroke="#bfbfbf" points="589,-58.5 589,-79.5 717,-79.5 717,-58.5 589,-58.5"/>
<text text-anchor="middle" x="653" y="-66.5" font-family="Helvetica,sans-Serif" font-size="10.00">QOpenGLShaderProgram</text>
</g>
<!-- Node3&#45;&gt;Node7 -->
<g id="edge12" class="edge"><title>Node3&#45;&gt;Node7</title>
<path fill="none" stroke="midnightblue" d="M553.093,-116.497C572.234,-107.397 600.146,-94.1273 621.605,-83.9253"/>
<polygon fill="midnightblue" stroke="midnightblue" points="623.13,-87.0758 630.659,-79.6212 620.125,-80.7539 623.13,-87.0758"/>
</g>
<!-- Node8 -->
<g id="node15" class="node"><title>Node8</title>
<polygon fill="white" stroke="#bfbfbf" points="735,-58.5 735,-79.5 821,-79.5 821,-58.5 735,-58.5"/>
<text text-anchor="middle" x="778" y="-66.5" font-family="Helvetica,sans-Serif" font-size="10.00">QOpenGLBuffer</text>
</g>
<!-- Node3&#45;&gt;Node8 -->
<g id="edge14" class="edge"><title>Node3&#45;&gt;Node8</title>
<path fill="none" stroke="midnightblue" d="M569.052,-118.065C610.782,-108.266 678.042,-92.4719 724.941,-81.4593"/>
<polygon fill="midnightblue" stroke="midnightblue" points="725.982,-84.81 734.917,-79.1166 724.382,-77.9953 725.982,-84.81"/>
</g>
<!-- Node9 -->
<g id="node17" class="node"><title>Node9</title>
<polygon fill="white" stroke="#bfbfbf" points="97,-58.5 97,-79.5 237,-79.5 237,-58.5 97,-58.5"/>
<text text-anchor="middle" x="167" y="-66.5" font-family="Helvetica,sans-Serif" font-size="10.00">QOpenGLVertexArrayObject</text>
</g>
<!-- Node3&#45;&gt;Node9 -->
<g id="edge16" class="edge"><title>Node3&#45;&gt;Node9</title>
<path fill="none" stroke="midnightblue" d="M492.837,-117.79C489.853,-117.155 486.881,-116.55 484,-116 461.198,-111.649 333.401,-92.996 247.196,-80.5376"/>
<polygon fill="midnightblue" stroke="midnightblue" points="247.559,-77.0538 237.161,-79.0882 246.558,-83.9819 247.559,-77.0538"/>
</g>
<!-- Node3&#45;&gt;Node10 -->
<g id="edge18" class="edge"><title>Node3&#45;&gt;Node10</title>
<path fill="none" stroke="midnightblue" d="M533.769,-116.295C538.747,-97.0451 549.287,-56.2889 555.696,-31.5091"/>
<polygon fill="midnightblue" stroke="midnightblue" points="559.123,-32.237 558.238,-21.6792 552.346,-30.4843 559.123,-32.237"/>
</g>
<!-- Node11 -->
<g id="node21" class="node"><title>Node11</title>
<a xlink:href="actor_8hpp.html" target="_top" xlink:title="actor.hpp">
<polygon fill="white" stroke="black" points="254.5,-58.5 254.5,-79.5 311.5,-79.5 311.5,-58.5 254.5,-58.5"/>
<text text-anchor="middle" x="283" y="-66.5" font-family="Helvetica,sans-Serif" font-size="10.00">actor.hpp</text>
</a>
</g>
<!-- Node3&#45;&gt;Node11 -->
<g id="edge20" class="edge"><title>Node3&#45;&gt;Node11</title>
<path fill="none" stroke="midnightblue" d="M492.791,-118.011C489.817,-117.326 486.86,-116.649 484,-116 414.351,-100.206 393.987,-98.7473 321.687,-80.3219"/>
<polygon fill="midnightblue" stroke="midnightblue" points="322.182,-76.8354 311.626,-77.7346 320.439,-83.6148 322.182,-76.8354"/>
</g>
<!-- Node14 -->
<g id="node29" class="node"><title>Node14</title>
<polygon fill="white" stroke="#bfbfbf" points="329,-58.5 329,-79.5 381,-79.5 381,-58.5 329,-58.5"/>
<text text-anchor="middle" x="355" y="-66.5" font-family="Helvetica,sans-Serif" font-size="10.00">memory</text>
</g>
<!-- Node3&#45;&gt;Node14 -->
<g id="edge30" class="edge"><title>Node3&#45;&gt;Node14</title>
<path fill="none" stroke="midnightblue" d="M499.128,-116.497C468.647,-106.452 422.748,-91.3261 390.971,-80.8542"/>
<polygon fill="midnightblue" stroke="midnightblue" points="391.781,-77.4359 381.188,-77.6301 389.59,-84.0842 391.781,-77.4359"/>
</g>
<!-- Node3&#45;&gt;Node15 -->
<g id="edge32" class="edge"><title>Node3&#45;&gt;Node15</title>
<path fill="none" stroke="midnightblue" d="M569.235,-121.017C626.099,-112.113 736.319,-94.8302 830,-80 842.017,-78.0977 855.209,-75.9975 866.811,-74.1465"/>
<polygon fill="midnightblue" stroke="midnightblue" points="867.616,-77.5624 876.939,-72.5295 866.512,-70.6499 867.616,-77.5624"/>
</g>
<!-- Node11&#45;&gt;Node6 -->
<g id="edge26" class="edge"><title>Node11&#45;&gt;Node6</title>
<path fill="none" stroke="midnightblue" d="M262.718,-58.4966C245.382,-49.5194 220.21,-36.4835 200.62,-26.3387"/>
<polygon fill="midnightblue" stroke="midnightblue" points="201.999,-23.1118 191.51,-21.6212 198.78,-29.3278 201.999,-23.1118"/>
</g>
<!-- Node11&#45;&gt;Node10 -->
<g id="edge22" class="edge"><title>Node11&#45;&gt;Node10</title>
<path fill="none" stroke="midnightblue" d="M311.609,-60.1982C314.434,-59.4182 317.267,-58.6712 320,-58 388.459,-41.1895 469.036,-26.4854 517.509,-18.1808"/>
<polygon fill="midnightblue" stroke="midnightblue" points="518.371,-21.5845 527.643,-16.4578 517.198,-14.6835 518.371,-21.5845"/>
</g>
<!-- Node12 -->
<g id="node24" class="node"><title>Node12</title>
<polygon fill="white" stroke="#bfbfbf" points="249.5,-0.5 249.5,-21.5 316.5,-21.5 316.5,-0.5 249.5,-0.5"/>
<text text-anchor="middle" x="283" y="-8.5" font-family="Helvetica,sans-Serif" font-size="10.00">QMatrix4x4</text>
</g>
<!-- Node11&#45;&gt;Node12 -->
<g id="edge24" class="edge"><title>Node11&#45;&gt;Node12</title>
<path fill="none" stroke="midnightblue" d="M283,-58.3619C283,-50.9219 283,-40.7427 283,-31.7276"/>
<polygon fill="midnightblue" stroke="midnightblue" points="286.5,-31.5706 283,-21.5707 279.5,-31.5707 286.5,-31.5706"/>
</g>
<!-- Node11&#45;&gt;Node13 -->
<g id="edge28" class="edge"><title>Node11&#45;&gt;Node13</title>
<path fill="none" stroke="midnightblue" d="M254.367,-60.2919C251.547,-59.493 248.722,-58.7159 246,-58 194.129,-44.3581 134.292,-30.8975 92.7077,-21.9014"/>
<polygon fill="midnightblue" stroke="midnightblue" points="93.3212,-18.4534 82.8085,-19.7697 91.8475,-25.2965 93.3212,-18.4534"/>
</g>
</g>
</svg>
