<?xml version="1.0" encoding="UTF-8" standalone="no"?>
<!DOCTYPE svg PUBLIC "-//W3C//DTD SVG 1.1//EN"
 "http://www.w3.org/Graphics/SVG/1.1/DTD/svg11.dtd">
<!-- Generated by graphviz version 2.26.3 (20100126.1600)
 -->
<!-- Title: include/cube.hpp Pages: 1 -->
<svg width="204pt" height="146pt"
 viewBox="0.00 0.00 204.00 146.00" xmlns="http://www.w3.org/2000/svg" xmlns:xlink="http://www.w3.org/1999/xlink">
<g id="graph1" class="graph" transform="scale(1 1) rotate(0) translate(4 142)">
<title>include/cube.hpp</title>
<polygon fill="white" stroke="white" points="-4,5 -4,-142 201,-142 201,5 -4,5"/>
<!-- Node1 -->
<g id="node1" class="node"><title>Node1</title>
<polygon fill="#bfbfbf" stroke="black" points="44,-116.5 44,-137.5 134,-137.5 134,-116.5 44,-116.5"/>
<text text-anchor="middle" x="89" y="-124.5" font-family="Helvetica,sans-Serif" font-size="10.00">include/cube.hpp</text>
</g>
<!-- Node2 -->
<g id="node3" class="node"><title>Node2</title>
<a xlink:href="cube_8cpp.html" target="_top" xlink:title="src/cube.cpp">
<polygon fill="white" stroke="black" points="-0.5,-58.5 -0.5,-79.5 72.5,-79.5 72.5,-58.5 -0.5,-58.5"/>
<text text-anchor="middle" x="36" y="-66.5" font-family="Helvetica,sans-Serif" font-size="10.00">src/cube.cpp</text>
</a>
</g>
<!-- Node1&#45;&gt;Node2 -->
<g id="edge2" class="edge"><title>Node1&#45;&gt;Node2</title>
<path fill="none" stroke="midnightblue" d="M72.3963,-108.83C63.6037,-99.2078 53.1137,-87.7282 45.6594,-79.5707"/>
<polygon fill="midnightblue" stroke="midnightblue" points="69.9495,-111.341 79.279,-116.362 75.117,-106.619 69.9495,-111.341"/>
</g>
<!-- Node3 -->
<g id="node5" class="node"><title>Node3</title>
<a xlink:href="viewport_8hpp.html" target="_top" xlink:title="include/viewport.hpp">
<polygon fill="white" stroke="black" points="90,-58.5 90,-79.5 196,-79.5 196,-58.5 90,-58.5"/>
<text text-anchor="middle" x="143" y="-66.5" font-family="Helvetica,sans-Serif" font-size="10.00">include/viewport.hpp</text>
</a>
</g>
<!-- Node1&#45;&gt;Node3 -->
<g id="edge4" class="edge"><title>Node1&#45;&gt;Node3</title>
<path fill="none" stroke="midnightblue" d="M105.917,-108.83C114.875,-99.2078 125.563,-87.7282 133.158,-79.5707"/>
<polygon fill="midnightblue" stroke="midnightblue" points="103.157,-106.658 98.9044,-116.362 108.28,-111.428 103.157,-106.658"/>
</g>
<!-- Node4 -->
<g id="node7" class="node"><title>Node4</title>
<a xlink:href="viewport_8cpp.html" target="_top" xlink:title="src/viewport.cpp">
<polygon fill="white" stroke="black" points="98.5,-0.5 98.5,-21.5 187.5,-21.5 187.5,-0.5 98.5,-0.5"/>
<text text-anchor="middle" x="143" y="-8.5" font-family="Helvetica,sans-Serif" font-size="10.00">src/viewport.cpp</text>
</a>
</g>
<!-- Node3&#45;&gt;Node4 -->
<g id="edge6" class="edge"><title>Node3&#45;&gt;Node4</title>
<path fill="none" stroke="midnightblue" d="M143,-48.1906C143,-39.1684 143,-28.9941 143,-21.5707"/>
<polygon fill="midnightblue" stroke="midnightblue" points="139.5,-48.3619 143,-58.3619 146.5,-48.3619 139.5,-48.3619"/>
</g>
</g>
</svg>
