<?xml version="1.0" encoding="UTF-8" standalone="no"?>
<!DOCTYPE svg PUBLIC "-//W3C//DTD SVG 1.1//EN"
 "http://www.w3.org/Graphics/SVG/1.1/DTD/svg11.dtd">
<!-- Generated by graphviz version 2.26.3 (20100126.1600)
 -->
<!-- Title: src/cube.cpp Pages: 1 -->
<!--zoomable 320 -->
<svg id="main" version="1.1" xmlns="http://www.w3.org/2000/svg" xmlns:xlink="http://www.w3.org/1999/xlink" xml:space="preserve" onload="init(evt)">
<style type="text/css"><![CDATA[
.edge:hover path { stroke: red; }
.edge:hover polygon { stroke: red; fill: red; }
]]></style>
<script type="text/javascript"><![CDATA[
var edges = document.getElementsByTagName('g');
if (edges && edges.length) {
  for (var i=0;i<edges.length;i++) {
    if (edges[i].id.substr(0,4)=='edge') {
      edges[i].setAttribute('class','edge');
    }
  }
}
]]></script>
        <defs>
                <circle id="rim" cx="0" cy="0" r="7"/>
                <circle id="rim2" cx="0" cy="0" r="3.5"/>
                <g id="zoomPlus">
                        <use xlink:href="#rim" fill="#404040">
                                <set attributeName="fill" to="#808080" begin="zoomplus.mouseover" end="zoomplus.mouseout"/>
                        </use>
                        <path d="M-4,0h8M0,-4v8" fill="none" stroke="white" stroke-width="1.5" pointer-events="none"/>
                </g>
                <g id="zoomMin">
                        <use xlink:href="#rim" fill="#404040">
                                <set attributeName="fill" to="#808080" begin="zoomminus.mouseover" end="zoomminus.mouseout"/>
                        </use>
                        <path d="M-4,0h8" fill="none" stroke="white" stroke-width="1.5" pointer-events="none"/>
                </g>
                <g id="dirArrow">
                        <path fill="none" stroke="white" stroke-width="1.5" d="M0,-3.0v7 M-2.5,-0.5L0,-3.0L2.5,-0.5"/>
                </g>
               <g id="resetDef">
                       <use xlink:href="#rim2" fill="#404040">
                               <set attributeName="fill" to="#808080" begin="reset.mouseover" end="reset.mouseout"/>
                       </use>
               </g>
        </defs>

<script type="text/javascript">
var viewWidth = 1038;
var viewHeight = 320;
var sectionId = 'dynsection-0';
</script>
<script xlink:href="svgpan.js"/>
<svg id="graph" class="graph">
<g id="viewport">
<title>src/cube.cpp</title>
<polygon fill="white" stroke="white" points="-4,5 -4,-316 1034.85,-316 1034.85,5 -4,5"/>
<!-- Node1 -->
<g id="node1" class="node"><title>Node1</title>
<polygon fill="#bfbfbf" stroke="black" points="957.348,-290.5 957.348,-311.5 1030.35,-311.5 1030.35,-290.5 957.348,-290.5"/>
<text text-anchor="middle" x="993.848" y="-298.5" font-family="Helvetica,sans-Serif" font-size="10.00">src/cube.cpp</text>
</g>
<!-- Node2 -->
<g id="node3" class="node"><title>Node2</title>
<a xlink:href="cube_8hpp.html" target="_top" xlink:title="cube.hpp">
<polygon fill="white" stroke="black" points="890.848,-232.5 890.848,-253.5 946.848,-253.5 946.848,-232.5 890.848,-232.5"/>
<text text-anchor="middle" x="918.848" y="-240.5" font-family="Helvetica,sans-Serif" font-size="10.00">cube.hpp</text>
</a>
</g>
<!-- Node1&#45;&gt;Node2 -->
<g id="edge2" class="edge"><title>Node1&#45;&gt;Node2</title>
<path fill="none" stroke="midnightblue" d="M980.092,-290.362C969.097,-281.859 953.476,-269.779 940.762,-259.947"/>
<polygon fill="midnightblue" stroke="midnightblue" points="942.569,-256.919 932.517,-253.571 938.287,-262.457 942.569,-256.919"/>
</g>
<!-- Node19 -->
<g id="node44" class="node"><title>Node19</title>
<polygon fill="white" stroke="#bfbfbf" points="928.848,-116.5 928.848,-137.5 972.848,-137.5 972.848,-116.5 928.848,-116.5"/>
<text text-anchor="middle" x="950.848" y="-124.5" font-family="Helvetica,sans-Serif" font-size="10.00">vector</text>
</g>
<!-- Node1&#45;&gt;Node19 -->
<g id="edge62" class="edge"><title>Node1&#45;&gt;Node19</title>
<path fill="none" stroke="midnightblue" d="M991.223,-290.377C984.253,-262.172 965.185,-185.012 955.969,-147.72"/>
<polygon fill="midnightblue" stroke="midnightblue" points="959.346,-146.796 953.549,-137.928 952.55,-148.475 959.346,-146.796"/>
</g>
<!-- Node3 -->
<g id="node5" class="node"><title>Node3</title>
<a xlink:href="geometry_8hpp.html" target="_top" xlink:title="geometry.hpp">
<polygon fill="white" stroke="black" points="593.848,-174.5 593.848,-195.5 669.848,-195.5 669.848,-174.5 593.848,-174.5"/>
<text text-anchor="middle" x="631.848" y="-182.5" font-family="Helvetica,sans-Serif" font-size="10.00">geometry.hpp</text>
</a>
</g>
<!-- Node2&#45;&gt;Node3 -->
<g id="edge4" class="edge"><title>Node2&#45;&gt;Node3</title>
<path fill="none" stroke="midnightblue" d="M890.807,-237.333C841.873,-227.444 740.356,-206.928 679.984,-194.728"/>
<polygon fill="midnightblue" stroke="midnightblue" points="680.433,-191.248 669.938,-192.698 679.046,-198.109 680.433,-191.248"/>
</g>
<!-- Node10 -->
<g id="node19" class="node"><title>Node10</title>
<polygon fill="white" stroke="#bfbfbf" points="864.348,-116.5 864.348,-137.5 911.348,-137.5 911.348,-116.5 864.348,-116.5"/>
<text text-anchor="middle" x="887.848" y="-124.5" font-family="Helvetica,sans-Serif" font-size="10.00">QColor</text>
</g>
<!-- Node2&#45;&gt;Node10 -->
<g id="edge56" class="edge"><title>Node2&#45;&gt;Node10</title>
<path fill="none" stroke="midnightblue" d="M915.987,-232.295C910.843,-213.045 899.951,-172.289 893.329,-147.509"/>
<polygon fill="midnightblue" stroke="midnightblue" points="896.665,-146.437 890.702,-137.679 889.903,-148.244 896.665,-146.437"/>
</g>
<!-- Node11 -->
<g id="node21" class="node"><title>Node11</title>
<a xlink:href="globals_8hpp.html" target="_top" xlink:title="Definitions globales. ">
<polygon fill="white" stroke="black" points="677.848,-58.5 677.848,-79.5 743.848,-79.5 743.848,-58.5 677.848,-58.5"/>
<text text-anchor="middle" x="710.848" y="-66.5" font-family="Helvetica,sans-Serif" font-size="10.00">globals.hpp</text>
</a>
</g>
<!-- Node2&#45;&gt;Node11 -->
<g id="edge54" class="edge"><title>Node2&#45;&gt;Node11</title>
<path fill="none" stroke="midnightblue" d="M931.517,-232.489C957.823,-209.43 1013.38,-153.476 981.848,-116 953.262,-82.0297 823.217,-72.6116 754.191,-70.0009"/>
<polygon fill="midnightblue" stroke="midnightblue" points="754.181,-66.4985 744.066,-69.6503 753.938,-73.4943 754.181,-66.4985"/>
</g>
<!-- Node16 -->
<g id="node35" class="node"><title>Node16</title>
<polygon fill="white" stroke="#bfbfbf" points="258.348,-58.5 258.348,-79.5 341.348,-79.5 341.348,-58.5 258.348,-58.5"/>
<text text-anchor="middle" x="299.848" y="-66.5" font-family="Helvetica,sans-Serif" font-size="10.00">QMetaProperty</text>
</g>
<!-- Node2&#45;&gt;Node16 -->
<g id="edge58" class="edge"><title>Node2&#45;&gt;Node16</title>
<path fill="none" stroke="midnightblue" d="M890.783,-241.634C751.459,-234.57 138.639,-200.112 83.8482,-138 6.9645,-50.8428 -115.951,-158.456 248.304,-80.3152"/>
<polygon fill="midnightblue" stroke="midnightblue" points="249.075,-83.7293 258.108,-78.1925 247.594,-76.8878 249.075,-83.7293"/>
</g>
<!-- Node2&#45;&gt;Node19 -->
<g id="edge60" class="edge"><title>Node2&#45;&gt;Node19</title>
<path fill="none" stroke="midnightblue" d="M921.801,-232.295C927.112,-213.045 938.355,-172.289 945.191,-147.509"/>
<polygon fill="midnightblue" stroke="midnightblue" points="948.617,-148.25 947.902,-137.679 941.869,-146.388 948.617,-148.25"/>
</g>
<!-- Node4 -->
<g id="node7" class="node"><title>Node4</title>
<polygon fill="white" stroke="#bfbfbf" points="752.348,-0.5 752.348,-21.5 805.348,-21.5 805.348,-0.5 752.348,-0.5"/>
<text text-anchor="middle" x="778.848" y="-8.5" font-family="Helvetica,sans-Serif" font-size="10.00">QObject</text>
</g>
<!-- Node3&#45;&gt;Node4 -->
<g id="edge6" class="edge"><title>Node3&#45;&gt;Node4</title>
<path fill="none" stroke="midnightblue" d="M670.13,-180.821C719.14,-174.591 799.891,-161.059 817.848,-138 843.185,-105.464 814.109,-56.4293 794.266,-29.8104"/>
<polygon fill="midnightblue" stroke="midnightblue" points="796.873,-27.4608 787.982,-21.6987 791.339,-31.7476 796.873,-27.4608"/>
</g>
<!-- Node5 -->
<g id="node9" class="node"><title>Node5</title>
<polygon fill="white" stroke="#bfbfbf" points="255.348,-0.5 255.348,-21.5 320.348,-21.5 320.348,-0.5 255.348,-0.5"/>
<text text-anchor="middle" x="287.848" y="-8.5" font-family="Helvetica,sans-Serif" font-size="10.00">QVector3D</text>
</g>
<!-- Node3&#45;&gt;Node5 -->
<g id="edge8" class="edge"><title>Node3&#45;&gt;Node5</title>
<path fill="none" stroke="midnightblue" d="M593.518,-183.951C474.467,-180.393 116.501,-167.339 73.8482,-138 42.8115,-116.651 21.8846,-87.0655 45.8482,-58 70.5559,-28.0321 181.872,-16.9328 244.569,-13.0106"/>
<polygon fill="midnightblue" stroke="midnightblue" points="245.16,-16.482 254.936,-12.3997 244.748,-9.49411 245.16,-16.482"/>
</g>
<!-- Node6 -->
<g id="node11" class="node"><title>Node6</title>
<polygon fill="white" stroke="#bfbfbf" points="54.3482,-58.5 54.3482,-79.5 157.348,-79.5 157.348,-58.5 54.3482,-58.5"/>
<text text-anchor="middle" x="105.848" y="-66.5" font-family="Helvetica,sans-Serif" font-size="10.00">QOpenGLFunctions</text>
</g>
<!-- Node3&#45;&gt;Node6 -->
<g id="edge10" class="edge"><title>Node3&#45;&gt;Node6</title>
<path fill="none" stroke="midnightblue" d="M593.569,-184.638C474.766,-183.121 118.232,-175.459 83.8482,-138 71.197,-124.217 80.685,-103.146 90.8499,-87.915"/>
<polygon fill="midnightblue" stroke="midnightblue" points="93.7468,-89.8815 96.7508,-79.7214 88.0666,-85.7906 93.7468,-89.8815"/>
</g>
<!-- Node7 -->
<g id="node13" class="node"><title>Node7</title>
<polygon fill="white" stroke="#bfbfbf" points="166.848,-116.5 166.848,-137.5 294.848,-137.5 294.848,-116.5 166.848,-116.5"/>
<text text-anchor="middle" x="230.848" y="-124.5" font-family="Helvetica,sans-Serif" font-size="10.00">QOpenGLShaderProgram</text>
</g>
<!-- Node3&#45;&gt;Node7 -->
<g id="edge12" class="edge"><title>Node3&#45;&gt;Node7</title>
<path fill="none" stroke="midnightblue" d="M593.458,-179.591C533.995,-171.192 415.761,-154.413 304.95,-138.155"/>
<polygon fill="midnightblue" stroke="midnightblue" points="305.341,-134.675 294.938,-136.684 304.324,-141.6 305.341,-134.675"/>
</g>
<!-- Node8 -->
<g id="node15" class="node"><title>Node8</title>
<polygon fill="white" stroke="#bfbfbf" points="312.848,-116.5 312.848,-137.5 398.848,-137.5 398.848,-116.5 312.848,-116.5"/>
<text text-anchor="middle" x="355.848" y="-124.5" font-family="Helvetica,sans-Serif" font-size="10.00">QOpenGLBuffer</text>
</g>
<!-- Node3&#45;&gt;Node8 -->
<g id="edge14" class="edge"><title>Node3&#45;&gt;Node8</title>
<path fill="none" stroke="midnightblue" d="M593.795,-177.036C551.228,-168.122 479.94,-153.181 408.984,-138.237"/>
<polygon fill="midnightblue" stroke="midnightblue" points="409.484,-134.766 398.977,-136.129 408.041,-141.615 409.484,-134.766"/>
</g>
<!-- Node9 -->
<g id="node17" class="node"><title>Node9</title>
<polygon fill="white" stroke="#bfbfbf" points="416.848,-116.5 416.848,-137.5 556.848,-137.5 556.848,-116.5 416.848,-116.5"/>
<text text-anchor="middle" x="486.848" y="-124.5" font-family="Helvetica,sans-Serif" font-size="10.00">QOpenGLVertexArrayObject</text>
</g>
<!-- Node3&#45;&gt;Node9 -->
<g id="edge16" class="edge"><title>Node3&#45;&gt;Node9</title>
<path fill="none" stroke="midnightblue" d="M605.59,-174.497C582.433,-165.234 548.473,-151.65 522.797,-141.379"/>
<polygon fill="midnightblue" stroke="midnightblue" points="523.986,-138.086 513.401,-137.621 521.386,-144.585 523.986,-138.086"/>
</g>
<!-- Node3&#45;&gt;Node10 -->
<g id="edge18" class="edge"><title>Node3&#45;&gt;Node10</title>
<path fill="none" stroke="midnightblue" d="M670.038,-177.738C713.904,-169.181 787.93,-154.079 850.848,-138 851.92,-137.726 853.006,-137.442 854.103,-137.15"/>
<polygon fill="midnightblue" stroke="midnightblue" points="855.35,-140.436 864.04,-134.374 853.467,-133.694 855.35,-140.436"/>
</g>
<!-- Node3&#45;&gt;Node11 -->
<g id="edge20" class="edge"><title>Node3&#45;&gt;Node11</title>
<path fill="none" stroke="midnightblue" d="M651.033,-174.469C664.356,-166.21 681.507,-153.529 691.848,-138 701.507,-123.496 706.286,-104.174 708.632,-89.6668"/>
<polygon fill="midnightblue" stroke="midnightblue" points="712.112,-90.0517 709.993,-79.671 705.176,-89.1075 712.112,-90.0517"/>
</g>
<!-- Node14 -->
<g id="node29" class="node"><title>Node14</title>
<a xlink:href="actor_8hpp.html" target="_top" xlink:title="actor.hpp">
<polygon fill="white" stroke="black" points="92.3482,-116.5 92.3482,-137.5 149.348,-137.5 149.348,-116.5 92.3482,-116.5"/>
<text text-anchor="middle" x="120.848" y="-124.5" font-family="Helvetica,sans-Serif" font-size="10.00">actor.hpp</text>
</a>
</g>
<!-- Node3&#45;&gt;Node14 -->
<g id="edge30" class="edge"><title>Node3&#45;&gt;Node14</title>
<path fill="none" stroke="midnightblue" d="M593.704,-183.676C514.3,-180.395 325.474,-169.854 159.3,-138.001"/>
<polygon fill="midnightblue" stroke="midnightblue" points="159.882,-134.549 149.397,-136.072 158.544,-141.419 159.882,-134.549"/>
</g>
<!-- Node17 -->
<g id="node37" class="node"><title>Node17</title>
<a xlink:href="material_8hpp.html" target="_top" xlink:title="material.hpp">
<polygon fill="white" stroke="black" points="738.848,-116.5 738.848,-137.5 808.848,-137.5 808.848,-116.5 738.848,-116.5"/>
<text text-anchor="middle" x="773.848" y="-124.5" font-family="Helvetica,sans-Serif" font-size="10.00">material.hpp</text>
</a>
</g>
<!-- Node3&#45;&gt;Node17 -->
<g id="edge40" class="edge"><title>Node3&#45;&gt;Node17</title>
<path fill="none" stroke="midnightblue" d="M657.563,-174.497C680.142,-165.275 713.206,-151.769 738.311,-141.515"/>
<polygon fill="midnightblue" stroke="midnightblue" points="739.91,-144.643 747.845,-137.621 737.264,-138.162 739.91,-144.643"/>
</g>
<!-- Node18 -->
<g id="node42" class="node"><title>Node18</title>
<polygon fill="white" stroke="#bfbfbf" points="574.848,-116.5 574.848,-137.5 626.848,-137.5 626.848,-116.5 574.848,-116.5"/>
<text text-anchor="middle" x="600.848" y="-124.5" font-family="Helvetica,sans-Serif" font-size="10.00">memory</text>
</g>
<!-- Node3&#45;&gt;Node18 -->
<g id="edge48" class="edge"><title>Node3&#45;&gt;Node18</title>
<path fill="none" stroke="midnightblue" d="M626.162,-174.362C622.011,-166.595 616.264,-155.843 611.295,-146.546"/>
<polygon fill="midnightblue" stroke="midnightblue" points="614.299,-144.74 606.498,-137.571 608.125,-148.04 614.299,-144.74"/>
</g>
<!-- Node3&#45;&gt;Node19 -->
<g id="edge50" class="edge"><title>Node3&#45;&gt;Node19</title>
<path fill="none" stroke="midnightblue" d="M670.035,-180.977C723.715,-174.843 824.571,-161.568 918.681,-137.961"/>
<polygon fill="midnightblue" stroke="midnightblue" points="919.823,-141.282 928.645,-135.416 918.09,-134.5 919.823,-141.282"/>
</g>
<!-- Node20 -->
<g id="node46" class="node"><title>Node20</title>
<polygon fill="white" stroke="#bfbfbf" points="644.848,-116.5 644.848,-137.5 682.848,-137.5 682.848,-116.5 644.848,-116.5"/>
<text text-anchor="middle" x="663.848" y="-124.5" font-family="Helvetica,sans-Serif" font-size="10.00">tuple</text>
</g>
<!-- Node3&#45;&gt;Node20 -->
<g id="edge52" class="edge"><title>Node3&#45;&gt;Node20</title>
<path fill="none" stroke="midnightblue" d="M637.718,-174.362C642.003,-166.595 647.935,-155.843 653.064,-146.546"/>
<polygon fill="midnightblue" stroke="midnightblue" points="656.25,-148.017 658.016,-137.571 650.121,-144.636 656.25,-148.017"/>
</g>
<!-- Node11&#45;&gt;Node4 -->
<g id="edge22" class="edge"><title>Node11&#45;&gt;Node4</title>
<path fill="none" stroke="midnightblue" d="M723.32,-58.3619C733.194,-49.9408 747.181,-38.0105 758.647,-28.2308"/>
<polygon fill="midnightblue" stroke="midnightblue" points="761.118,-30.7231 766.455,-21.5707 756.575,-25.3972 761.118,-30.7231"/>
</g>
<!-- Node11&#45;&gt;Node5 -->
<g id="edge26" class="edge"><title>Node11&#45;&gt;Node5</title>
<path fill="none" stroke="midnightblue" d="M677.656,-64.4488C601.655,-54.0279 415.071,-28.4442 330.614,-16.8639"/>
<polygon fill="midnightblue" stroke="midnightblue" points="330.978,-13.3811 320.595,-15.4901 330.027,-20.3162 330.978,-13.3811"/>
</g>
<!-- Node12 -->
<g id="node24" class="node"><title>Node12</title>
<polygon fill="white" stroke="#bfbfbf" points="598.348,-0.5 598.348,-21.5 669.348,-21.5 669.348,-0.5 598.348,-0.5"/>
<text text-anchor="middle" x="633.848" y="-8.5" font-family="Helvetica,sans-Serif" font-size="10.00">QQuaternion</text>
</g>
<!-- Node11&#45;&gt;Node12 -->
<g id="edge24" class="edge"><title>Node11&#45;&gt;Node12</title>
<path fill="none" stroke="midnightblue" d="M696.725,-58.3619C685.328,-49.7773 669.09,-37.5459 655.971,-27.6636"/>
<polygon fill="midnightblue" stroke="midnightblue" points="657.975,-24.7916 647.882,-21.5707 653.763,-30.3829 657.975,-24.7916"/>
</g>
<!-- Node13 -->
<g id="node27" class="node"><title>Node13</title>
<polygon fill="white" stroke="#bfbfbf" points="686.348,-0.5 686.348,-21.5 735.348,-21.5 735.348,-0.5 686.348,-0.5"/>
<text text-anchor="middle" x="710.848" y="-8.5" font-family="Helvetica,sans-Serif" font-size="10.00">QtMath</text>
</g>
<!-- Node11&#45;&gt;Node13 -->
<g id="edge28" class="edge"><title>Node11&#45;&gt;Node13</title>
<path fill="none" stroke="midnightblue" d="M710.848,-58.3619C710.848,-50.9219 710.848,-40.7427 710.848,-31.7276"/>
<polygon fill="midnightblue" stroke="midnightblue" points="714.348,-31.5706 710.848,-21.5707 707.348,-31.5707 714.348,-31.5706"/>
</g>
<!-- Node14&#45;&gt;Node6 -->
<g id="edge36" class="edge"><title>Node14&#45;&gt;Node6</title>
<path fill="none" stroke="midnightblue" d="M118.097,-116.362C116.152,-108.84 113.482,-98.5187 111.132,-89.4308"/>
<polygon fill="midnightblue" stroke="midnightblue" points="114.474,-88.3758 108.582,-79.5707 107.697,-90.1285 114.474,-88.3758"/>
</g>
<!-- Node14&#45;&gt;Node11 -->
<g id="edge32" class="edge"><title>Node14&#45;&gt;Node11</title>
<path fill="none" stroke="midnightblue" d="M149.39,-117.887C152.229,-117.17 155.083,-116.523 157.848,-116 345.414,-80.5336 573.862,-71.8128 667.583,-69.6823"/>
<polygon fill="midnightblue" stroke="midnightblue" points="667.885,-73.1768 677.809,-69.4642 667.736,-66.1784 667.885,-73.1768"/>
</g>
<!-- Node15 -->
<g id="node32" class="node"><title>Node15</title>
<polygon fill="white" stroke="#bfbfbf" points="174.348,-58.5 174.348,-79.5 241.348,-79.5 241.348,-58.5 174.348,-58.5"/>
<text text-anchor="middle" x="207.848" y="-66.5" font-family="Helvetica,sans-Serif" font-size="10.00">QMatrix4x4</text>
</g>
<!-- Node14&#45;&gt;Node15 -->
<g id="edge34" class="edge"><title>Node14&#45;&gt;Node15</title>
<path fill="none" stroke="midnightblue" d="M136.805,-116.362C149.805,-107.696 168.379,-95.3126 183.275,-85.3819"/>
<polygon fill="midnightblue" stroke="midnightblue" points="185.613,-88.0299 191.992,-79.5707 181.73,-82.2055 185.613,-88.0299"/>
</g>
<!-- Node14&#45;&gt;Node16 -->
<g id="edge38" class="edge"><title>Node14&#45;&gt;Node16</title>
<path fill="none" stroke="midnightblue" d="M149.608,-117.681C178.715,-108.25 224.052,-93.5598 257.313,-82.7823"/>
<polygon fill="midnightblue" stroke="midnightblue" points="258.783,-85.9854 267.217,-79.5733 256.625,-79.3262 258.783,-85.9854"/>
</g>
<!-- Node17&#45;&gt;Node4 -->
<g id="edge42" class="edge"><title>Node17&#45;&gt;Node4</title>
<path fill="none" stroke="midnightblue" d="M774.31,-116.295C775.136,-97.1314 776.88,-56.654 777.95,-31.8434"/>
<polygon fill="midnightblue" stroke="midnightblue" points="781.454,-31.8207 778.388,-21.6792 774.46,-31.5192 781.454,-31.8207"/>
</g>
<!-- Node17&#45;&gt;Node11 -->
<g id="edge44" class="edge"><title>Node17&#45;&gt;Node11</title>
<path fill="none" stroke="midnightblue" d="M762.293,-116.362C753.235,-108.023 740.439,-96.2418 729.875,-86.5162"/>
<polygon fill="midnightblue" stroke="midnightblue" points="732.058,-83.7688 722.33,-79.5707 727.317,-88.9187 732.058,-83.7688"/>
</g>
<!-- Node17&#45;&gt;Node16 -->
<g id="edge46" class="edge"><title>Node17&#45;&gt;Node16</title>
<path fill="none" stroke="midnightblue" d="M738.747,-122.181C724.236,-120.218 707.237,-117.955 691.848,-116 569.919,-100.513 426.473,-83.6621 351.475,-74.9563"/>
<polygon fill="midnightblue" stroke="midnightblue" points="351.693,-71.4582 341.356,-73.783 350.887,-78.4116 351.693,-71.4582"/>
</g>
</g>
</svg>
        <g id="navigator" transform="translate(0 0)" fill="#404254">
                <rect fill="#f2f5e9" fill-opacity="0.5" stroke="#606060" stroke-width=".5" x="0" y="0" width="60" height="60"/>
                <use id="zoomplus" xlink:href="#zoomPlus" x="17" y="9" onmousedown="handleZoom(evt,'in')"/>
                <use id="zoomminus" xlink:href="#zoomMin" x="42" y="9" onmousedown="handleZoom(evt,'out')"/>
                <use id="reset" xlink:href="#resetDef" x="30" y="36" onmousedown="handleReset()"/>
                <g id="arrowUp" xlink:href="#dirArrow" transform="translate(30 24)" onmousedown="handlePan(0,-1)">
                  <use xlink:href="#rim" fill="#404040">
                        <set attributeName="fill" to="#808080" begin="arrowUp.mouseover" end="arrowUp.mouseout"/>
                  </use>
                  <path fill="none" stroke="white" stroke-width="1.5" d="M0,-3.0v7 M-2.5,-0.5L0,-3.0L2.5,-0.5"/>
                </g>
                <g id="arrowRight" xlink:href="#dirArrow" transform="rotate(90) translate(36 -43)" onmousedown="handlePan(1,0)">
                  <use xlink:href="#rim" fill="#404040">
                        <set attributeName="fill" to="#808080" begin="arrowRight.mouseover" end="arrowRight.mouseout"/>
                  </use>
                  <path fill="none" stroke="white" stroke-width="1.5" d="M0,-3.0v7 M-2.5,-0.5L0,-3.0L2.5,-0.5"/>
                </g>
                <g id="arrowDown" xlink:href="#dirArrow" transform="rotate(180) translate(-30 -48)" onmousedown="handlePan(0,1)">
                  <use xlink:href="#rim" fill="#404040">
                        <set attributeName="fill" to="#808080" begin="arrowDown.mouseover" end="arrowDown.mouseout"/>
                  </use>
                  <path fill="none" stroke="white" stroke-width="1.5" d="M0,-3.0v7 M-2.5,-0.5L0,-3.0L2.5,-0.5"/>
                </g>
                <g id="arrowLeft" xlink:href="#dirArrow" transform="rotate(270) translate(-36 17)" onmousedown="handlePan(-1,0)">
                  <use xlink:href="#rim" fill="#404040">
                        <set attributeName="fill" to="#808080" begin="arrowLeft.mouseover" end="arrowLeft.mouseout"/>
                  </use>
                  <path fill="none" stroke="white" stroke-width="1.5" d="M0,-3.0v7 M-2.5,-0.5L0,-3.0L2.5,-0.5"/>
                </g>
        </g>
        <svg viewBox="0 0 15 15" width="100%" height="30px" preserveAspectRatio="xMaxYMin meet">
         <g id="arrow_out" transform="scale(0.3 0.3)">
          <a xlink:href="cube_8cpp__incl_org.svg" target="_base">
           <rect id="button" ry="5" rx="5" y="6" x="6" height="38" width="38"
                fill="#f2f5e9" fill-opacity="0.5" stroke="#606060" stroke-width="1.0"/>
           <path id="arrow"
             d="M 11.500037,31.436501 C 11.940474,20.09759 22.043105,11.32322 32.158766,21.979434 L 37.068811,17.246167 C 37.068811,17.246167 37.088388,32 37.088388,32 L 22.160133,31.978069 C 22.160133,31.978069 26.997745,27.140456 26.997745,27.140456 C 18.528582,18.264221 13.291696,25.230495 11.500037,31.436501 z"
             style="fill:#404040;"/>
          </a>
         </g>
        </svg>
</svg>
