<?xml version="1.0" encoding="UTF-8" standalone="no"?>
<!DOCTYPE svg PUBLIC "-//W3C//DTD SVG 1.1//EN"
 "http://www.w3.org/Graphics/SVG/1.1/DTD/svg11.dtd">
<!-- Generated by graphviz version 2.26.3 (20100126.1600)
 -->
<!-- Title: include/cube.hpp Pages: 1 -->
<svg width="950pt" height="204pt"
 viewBox="0.00 0.00 950.21 204.00" xmlns="http://www.w3.org/2000/svg" xmlns:xlink="http://www.w3.org/1999/xlink">
<g id="graph1" class="graph" transform="scale(1 1) rotate(0) translate(4 200)">
<title>include/cube.hpp</title>
<polygon fill="white" stroke="white" points="-4,5 -4,-200 947.206,-200 947.206,5 -4,5"/>
<!-- Node1 -->
<g id="node1" class="node"><title>Node1</title>
<polygon fill="#bfbfbf" stroke="black" points="773.206,-174.5 773.206,-195.5 863.206,-195.5 863.206,-174.5 773.206,-174.5"/>
<text text-anchor="middle" x="818.206" y="-182.5" font-family="Helvetica,sans-Serif" font-size="10.00">include/cube.hpp</text>
</g>
<!-- Node2 -->
<g id="node3" class="node"><title>Node2</title>
<a xlink:href="geometry_8hpp.html" target="_top" xlink:title="geometry.hpp">
<polygon fill="white" stroke="black" points="344.206,-116.5 344.206,-137.5 420.206,-137.5 420.206,-116.5 344.206,-116.5"/>
<text text-anchor="middle" x="382.206" y="-124.5" font-family="Helvetica,sans-Serif" font-size="10.00">geometry.hpp</text>
</a>
</g>
<!-- Node1&#45;&gt;Node2 -->
<g id="edge2" class="edge"><title>Node1&#45;&gt;Node2</title>
<path fill="none" stroke="midnightblue" d="M773.188,-179.011C690.584,-168.023 515.498,-144.731 430.508,-133.425"/>
<polygon fill="midnightblue" stroke="midnightblue" points="430.731,-129.924 420.357,-132.075 429.808,-136.863 430.731,-129.924"/>
</g>
<!-- Node9 -->
<g id="node17" class="node"><title>Node9</title>
<a xlink:href="globals_8hpp.html" target="_top" xlink:title="Definitions globales. ">
<polygon fill="white" stroke="black" points="109.206,-0.5 109.206,-21.5 175.206,-21.5 175.206,-0.5 109.206,-0.5"/>
<text text-anchor="middle" x="142.206" y="-8.5" font-family="Helvetica,sans-Serif" font-size="10.00">globals.hpp</text>
</a>
</g>
<!-- Node1&#45;&gt;Node9 -->
<g id="edge32" class="edge"><title>Node1&#45;&gt;Node9</title>
<path fill="none" stroke="midnightblue" d="M773.19,-182.665C610.071,-173.742 56.9276,-139.285 7.20592,-80 -21.9894,-45.1892 49.5583,-25.9524 99.2694,-17.1136"/>
<polygon fill="midnightblue" stroke="midnightblue" points="99.9175,-20.5537 109.193,-15.4331 98.7487,-13.652 99.9175,-20.5537"/>
</g>
<!-- Node12 -->
<g id="node25" class="node"><title>Node12</title>
<polygon fill="white" stroke="#bfbfbf" points="625.706,-0.5 625.706,-21.5 708.706,-21.5 708.706,-0.5 625.706,-0.5"/>
<text text-anchor="middle" x="667.206" y="-8.5" font-family="Helvetica,sans-Serif" font-size="10.00">QMetaProperty</text>
</g>
<!-- Node1&#45;&gt;Node12 -->
<g id="edge36" class="edge"><title>Node1&#45;&gt;Node12</title>
<path fill="none" stroke="midnightblue" d="M826.245,-174.226C842.79,-150.642 876.863,-93.7066 849.206,-58 833.301,-37.4663 766.81,-24.2967 718.79,-17.2721"/>
<polygon fill="midnightblue" stroke="midnightblue" points="719.24,-13.8009 708.848,-15.8659 718.26,-20.732 719.24,-13.8009"/>
</g>
<!-- Node14 -->
<g id="node29" class="node"><title>Node14</title>
<polygon fill="white" stroke="#bfbfbf" points="796.206,-58.5 796.206,-79.5 840.206,-79.5 840.206,-58.5 796.206,-58.5"/>
<text text-anchor="middle" x="818.206" y="-66.5" font-family="Helvetica,sans-Serif" font-size="10.00">vector</text>
</g>
<!-- Node1&#45;&gt;Node14 -->
<g id="edge38" class="edge"><title>Node1&#45;&gt;Node14</title>
<path fill="none" stroke="midnightblue" d="M818.206,-174.295C818.206,-155.131 818.206,-114.654 818.206,-89.8434"/>
<polygon fill="midnightblue" stroke="midnightblue" points="821.706,-89.6792 818.206,-79.6792 814.706,-89.6792 821.706,-89.6792"/>
</g>
<!-- Node15 -->
<g id="node32" class="node"><title>Node15</title>
<polygon fill="white" stroke="#bfbfbf" points="895.706,-116.5 895.706,-137.5 942.706,-137.5 942.706,-116.5 895.706,-116.5"/>
<text text-anchor="middle" x="919.206" y="-124.5" font-family="Helvetica,sans-Serif" font-size="10.00">QColor</text>
</g>
<!-- Node1&#45;&gt;Node15 -->
<g id="edge34" class="edge"><title>Node1&#45;&gt;Node15</title>
<path fill="none" stroke="midnightblue" d="M836.731,-174.362C852.107,-165.532 874.202,-152.844 891.653,-142.822"/>
<polygon fill="midnightblue" stroke="midnightblue" points="893.87,-145.586 900.798,-137.571 890.384,-139.515 893.87,-145.586"/>
</g>
<!-- Node3 -->
<g id="node5" class="node"><title>Node3</title>
<polygon fill="white" stroke="#bfbfbf" points="15.7059,-58.5 15.7059,-79.5 68.7059,-79.5 68.7059,-58.5 15.7059,-58.5"/>
<text text-anchor="middle" x="42.2059" y="-66.5" font-family="Helvetica,sans-Serif" font-size="10.00">QObject</text>
</g>
<!-- Node2&#45;&gt;Node3 -->
<g id="edge4" class="edge"><title>Node2&#45;&gt;Node3</title>
<path fill="none" stroke="midnightblue" d="M343.811,-122.977C287.515,-116.667 179.187,-102.967 78.8397,-80.1404"/>
<polygon fill="midnightblue" stroke="midnightblue" points="79.3752,-76.6719 68.8438,-77.8296 77.7985,-83.4921 79.3752,-76.6719"/>
</g>
<!-- Node4 -->
<g id="node7" class="node"><title>Node4</title>
<polygon fill="white" stroke="#bfbfbf" points="85.7059,-58.5 85.7059,-79.5 150.706,-79.5 150.706,-58.5 85.7059,-58.5"/>
<text text-anchor="middle" x="118.206" y="-66.5" font-family="Helvetica,sans-Serif" font-size="10.00">QVector3D</text>
</g>
<!-- Node2&#45;&gt;Node4 -->
<g id="edge6" class="edge"><title>Node2&#45;&gt;Node4</title>
<path fill="none" stroke="midnightblue" d="M343.95,-119.023C300.374,-109.873 227.066,-94.2901 164.206,-80 163.125,-79.7543 162.03,-79.5039 160.926,-79.25"/>
<polygon fill="midnightblue" stroke="midnightblue" points="161.386,-75.7636 150.853,-76.9022 159.797,-82.5808 161.386,-75.7636"/>
</g>
<!-- Node5 -->
<g id="node9" class="node"><title>Node5</title>
<polygon fill="white" stroke="#bfbfbf" points="192.706,-0.5 192.706,-21.5 295.706,-21.5 295.706,-0.5 192.706,-0.5"/>
<text text-anchor="middle" x="244.206" y="-8.5" font-family="Helvetica,sans-Serif" font-size="10.00">QOpenGLFunctions</text>
</g>
<!-- Node2&#45;&gt;Node5 -->
<g id="edge8" class="edge"><title>Node2&#45;&gt;Node5</title>
<path fill="none" stroke="midnightblue" d="M343.916,-120.028C304.847,-112.043 248.162,-97.7443 235.206,-80 225.019,-66.0479 229.021,-46.153 234.539,-31.308"/>
<polygon fill="midnightblue" stroke="midnightblue" points="237.814,-32.5486 238.445,-21.9726 231.356,-29.8464 237.814,-32.5486"/>
</g>
<!-- Node6 -->
<g id="node11" class="node"><title>Node6</title>
<polygon fill="white" stroke="#bfbfbf" points="318.206,-58.5 318.206,-79.5 446.206,-79.5 446.206,-58.5 318.206,-58.5"/>
<text text-anchor="middle" x="382.206" y="-66.5" font-family="Helvetica,sans-Serif" font-size="10.00">QOpenGLShaderProgram</text>
</g>
<!-- Node2&#45;&gt;Node6 -->
<g id="edge10" class="edge"><title>Node2&#45;&gt;Node6</title>
<path fill="none" stroke="midnightblue" d="M382.206,-116.362C382.206,-108.922 382.206,-98.7427 382.206,-89.7276"/>
<polygon fill="midnightblue" stroke="midnightblue" points="385.706,-89.5706 382.206,-79.5707 378.706,-89.5707 385.706,-89.5706"/>
</g>
<!-- Node7 -->
<g id="node13" class="node"><title>Node7</title>
<polygon fill="white" stroke="#bfbfbf" points="464.206,-58.5 464.206,-79.5 550.206,-79.5 550.206,-58.5 464.206,-58.5"/>
<text text-anchor="middle" x="507.206" y="-66.5" font-family="Helvetica,sans-Serif" font-size="10.00">QOpenGLBuffer</text>
</g>
<!-- Node2&#45;&gt;Node7 -->
<g id="edge12" class="edge"><title>Node2&#45;&gt;Node7</title>
<path fill="none" stroke="midnightblue" d="M404.842,-116.497C424.454,-107.397 453.052,-94.1273 475.039,-83.9253"/>
<polygon fill="midnightblue" stroke="midnightblue" points="476.717,-87.0051 484.315,-79.6212 473.771,-80.6554 476.717,-87.0051"/>
</g>
<!-- Node8 -->
<g id="node15" class="node"><title>Node8</title>
<polygon fill="white" stroke="#bfbfbf" points="568.206,-58.5 568.206,-79.5 708.206,-79.5 708.206,-58.5 568.206,-58.5"/>
<text text-anchor="middle" x="638.206" y="-66.5" font-family="Helvetica,sans-Serif" font-size="10.00">QOpenGLVertexArrayObject</text>
</g>
<!-- Node2&#45;&gt;Node8 -->
<g id="edge14" class="edge"><title>Node2&#45;&gt;Node8</title>
<path fill="none" stroke="midnightblue" d="M420.255,-118.379C462.996,-108.696 532.793,-92.8826 581.862,-81.7654"/>
<polygon fill="midnightblue" stroke="midnightblue" points="582.714,-85.1612 591.693,-79.538 581.167,-78.3343 582.714,-85.1612"/>
</g>
<!-- Node2&#45;&gt;Node9 -->
<g id="edge16" class="edge"><title>Node2&#45;&gt;Node9</title>
<path fill="none" stroke="midnightblue" d="M344.071,-120.082C311.205,-113.091 263.194,-100.37 225.206,-80 200.033,-66.5016 175.411,-44.6149 159.609,-29.1149"/>
<polygon fill="midnightblue" stroke="midnightblue" points="161.73,-26.2847 152.193,-21.6698 156.77,-31.2248 161.73,-26.2847"/>
</g>
<!-- Node10 -->
<g id="node19" class="node"><title>Node10</title>
<a xlink:href="actor_8hpp.html" target="_top" xlink:title="actor.hpp">
<polygon fill="white" stroke="black" points="243.706,-58.5 243.706,-79.5 300.706,-79.5 300.706,-58.5 243.706,-58.5"/>
<text text-anchor="middle" x="272.206" y="-66.5" font-family="Helvetica,sans-Serif" font-size="10.00">actor.hpp</text>
</a>
</g>
<!-- Node2&#45;&gt;Node10 -->
<g id="edge18" class="edge"><title>Node2&#45;&gt;Node10</title>
<path fill="none" stroke="midnightblue" d="M362.286,-116.497C345.26,-107.519 320.537,-94.4835 301.297,-84.3387"/>
<polygon fill="midnightblue" stroke="midnightblue" points="302.828,-81.1894 292.35,-79.6212 299.563,-87.3814 302.828,-81.1894"/>
</g>
<!-- Node13 -->
<g id="node27" class="node"><title>Node13</title>
<polygon fill="white" stroke="#bfbfbf" points="726.206,-58.5 726.206,-79.5 778.206,-79.5 778.206,-58.5 726.206,-58.5"/>
<text text-anchor="middle" x="752.206" y="-66.5" font-family="Helvetica,sans-Serif" font-size="10.00">memory</text>
</g>
<!-- Node2&#45;&gt;Node13 -->
<g id="edge28" class="edge"><title>Node2&#45;&gt;Node13</title>
<path fill="none" stroke="midnightblue" d="M420.253,-123.726C481.009,-118.052 603.729,-104.763 716.157,-79.9584"/>
<polygon fill="midnightblue" stroke="midnightblue" points="716.968,-83.3636 725.96,-77.7601 715.436,-76.5333 716.968,-83.3636"/>
</g>
<!-- Node2&#45;&gt;Node14 -->
<g id="edge30" class="edge"><title>Node2&#45;&gt;Node14</title>
<path fill="none" stroke="midnightblue" d="M420.383,-125.436C491.085,-121.927 647.114,-111.307 786.061,-79.8442"/>
<polygon fill="midnightblue" stroke="midnightblue" points="787.077,-83.2017 796.034,-77.5427 785.503,-76.381 787.077,-83.2017"/>
</g>
<!-- Node10&#45;&gt;Node5 -->
<g id="edge24" class="edge"><title>Node10&#45;&gt;Node5</title>
<path fill="none" stroke="midnightblue" d="M267.07,-58.3619C263.36,-50.6766 258.239,-40.0686 253.784,-30.8399"/>
<polygon fill="midnightblue" stroke="midnightblue" points="256.808,-29.0545 249.309,-21.5707 250.505,-32.0978 256.808,-29.0545"/>
</g>
<!-- Node10&#45;&gt;Node9 -->
<g id="edge20" class="edge"><title>Node10&#45;&gt;Node9</title>
<path fill="none" stroke="midnightblue" d="M248.664,-58.4966C228.177,-49.3562 198.259,-36.0082 175.352,-25.7883"/>
<polygon fill="midnightblue" stroke="midnightblue" points="176.57,-22.4994 166.012,-21.6212 173.718,-28.892 176.57,-22.4994"/>
</g>
<!-- Node11 -->
<g id="node22" class="node"><title>Node11</title>
<polygon fill="white" stroke="#bfbfbf" points="312.706,-0.5 312.706,-21.5 379.706,-21.5 379.706,-0.5 312.706,-0.5"/>
<text text-anchor="middle" x="346.206" y="-8.5" font-family="Helvetica,sans-Serif" font-size="10.00">QMatrix4x4</text>
</g>
<!-- Node10&#45;&gt;Node11 -->
<g id="edge22" class="edge"><title>Node10&#45;&gt;Node11</title>
<path fill="none" stroke="midnightblue" d="M285.779,-58.3619C296.627,-49.859 312.04,-37.7785 324.584,-27.9466"/>
<polygon fill="midnightblue" stroke="midnightblue" points="327.008,-30.4942 332.719,-21.5707 322.69,-24.9848 327.008,-30.4942"/>
</g>
<!-- Node10&#45;&gt;Node12 -->
<g id="edge26" class="edge"><title>Node10&#45;&gt;Node12</title>
<path fill="none" stroke="midnightblue" d="M300.774,-60.0197C303.607,-59.2759 306.453,-58.5861 309.206,-58 416.803,-35.0938 545.116,-21.506 615.18,-15.2251"/>
<polygon fill="midnightblue" stroke="midnightblue" points="615.845,-18.6801 625.499,-14.3153 615.23,-11.7071 615.845,-18.6801"/>
</g>
</g>
</svg>
