<?xml version="1.0" encoding="UTF-8" standalone="no"?>
<!DOCTYPE svg PUBLIC "-//W3C//DTD SVG 1.1//EN"
 "http://www.w3.org/Graphics/SVG/1.1/DTD/svg11.dtd">
<!-- Generated by graphviz version 2.26.3 (20100126.1600)
 -->
<!-- Title: include/cube.hpp Pages: 1 -->
<svg width="1016pt" height="262pt"
 viewBox="0.00 0.00 1015.90 262.00" xmlns="http://www.w3.org/2000/svg" xmlns:xlink="http://www.w3.org/1999/xlink">
<g id="graph1" class="graph" transform="scale(1 1) rotate(0) translate(4 258)">
<title>include/cube.hpp</title>
<polygon fill="white" stroke="white" points="-4,5 -4,-258 1012.9,-258 1012.9,5 -4,5"/>
<!-- Node1 -->
<g id="node1" class="node"><title>Node1</title>
<polygon fill="#bfbfbf" stroke="black" points="482.898,-232.5 482.898,-253.5 572.898,-253.5 572.898,-232.5 482.898,-232.5"/>
<text text-anchor="middle" x="527.898" y="-240.5" font-family="Helvetica,sans-Serif" font-size="10.00">include/cube.hpp</text>
</g>
<!-- Node2 -->
<g id="node3" class="node"><title>Node2</title>
<a xlink:href="geometry_8hpp.html" target="_top" xlink:title="geometry.hpp">
<polygon fill="white" stroke="black" points="489.898,-174.5 489.898,-195.5 565.898,-195.5 565.898,-174.5 489.898,-174.5"/>
<text text-anchor="middle" x="527.898" y="-182.5" font-family="Helvetica,sans-Serif" font-size="10.00">geometry.hpp</text>
</a>
</g>
<!-- Node1&#45;&gt;Node2 -->
<g id="edge2" class="edge"><title>Node1&#45;&gt;Node2</title>
<path fill="none" stroke="midnightblue" d="M527.898,-232.362C527.898,-224.922 527.898,-214.743 527.898,-205.728"/>
<polygon fill="midnightblue" stroke="midnightblue" points="531.399,-205.571 527.898,-195.571 524.399,-205.571 531.399,-205.571"/>
</g>
<!-- Node9 -->
<g id="node17" class="node"><title>Node9</title>
<polygon fill="white" stroke="#bfbfbf" points="899.398,-116.5 899.398,-137.5 946.398,-137.5 946.398,-116.5 899.398,-116.5"/>
<text text-anchor="middle" x="922.898" y="-124.5" font-family="Helvetica,sans-Serif" font-size="10.00">QColor</text>
</g>
<!-- Node1&#45;&gt;Node9 -->
<g id="edge54" class="edge"><title>Node1&#45;&gt;Node9</title>
<path fill="none" stroke="midnightblue" d="M566.769,-232.438C631.714,-214.642 766.544,-177.066 889.585,-138.33"/>
<polygon fill="midnightblue" stroke="midnightblue" points="890.695,-141.65 899.176,-135.301 888.586,-134.975 890.695,-141.65"/>
</g>
<!-- Node10 -->
<g id="node19" class="node"><title>Node10</title>
<a xlink:href="globals_8hpp.html" target="_top" xlink:title="Definitions globales. ">
<polygon fill="white" stroke="black" points="259.898,-58.5 259.898,-79.5 325.898,-79.5 325.898,-58.5 259.898,-58.5"/>
<text text-anchor="middle" x="292.898" y="-66.5" font-family="Helvetica,sans-Serif" font-size="10.00">globals.hpp</text>
</a>
</g>
<!-- Node1&#45;&gt;Node10 -->
<g id="edge52" class="edge"><title>Node1&#45;&gt;Node10</title>
<path fill="none" stroke="midnightblue" d="M482.592,-236.534C394.808,-222.98 206.819,-188.601 168.898,-138 144.174,-105.009 204.76,-85.6654 249.688,-76.2242"/>
<polygon fill="midnightblue" stroke="midnightblue" points="250.449,-79.6415 259.57,-74.2504 249.078,-72.7771 250.449,-79.6415"/>
</g>
<!-- Node15 -->
<g id="node33" class="node"><title>Node15</title>
<polygon fill="white" stroke="#bfbfbf" points="39.3985,-58.5 39.3985,-79.5 122.398,-79.5 122.398,-58.5 39.3985,-58.5"/>
<text text-anchor="middle" x="80.8985" y="-66.5" font-family="Helvetica,sans-Serif" font-size="10.00">QMetaProperty</text>
</g>
<!-- Node1&#45;&gt;Node15 -->
<g id="edge56" class="edge"><title>Node1&#45;&gt;Node15</title>
<path fill="none" stroke="midnightblue" d="M482.487,-241.207C366.245,-235.544 62.9911,-213.659 4.89849,-138 -11.3634,-116.821 17.4454,-96.7967 44.1367,-83.8307"/>
<polygon fill="midnightblue" stroke="midnightblue" points="45.8001,-86.9178 53.4122,-79.5485 42.8659,-80.5624 45.8001,-86.9178"/>
</g>
<!-- Node18 -->
<g id="node42" class="node"><title>Node18</title>
<polygon fill="white" stroke="#bfbfbf" points="963.898,-116.5 963.898,-137.5 1007.9,-137.5 1007.9,-116.5 963.898,-116.5"/>
<text text-anchor="middle" x="985.898" y="-124.5" font-family="Helvetica,sans-Serif" font-size="10.00">vector</text>
</g>
<!-- Node1&#45;&gt;Node18 -->
<g id="edge58" class="edge"><title>Node1&#45;&gt;Node18</title>
<path fill="none" stroke="midnightblue" d="M572.955,-234.456C618.146,-225.663 689.635,-211.146 750.898,-196 839.365,-174.129 863.519,-167.128 954.039,-138.166"/>
<polygon fill="midnightblue" stroke="midnightblue" points="955.149,-141.485 963.605,-135.102 953.014,-134.819 955.149,-141.485"/>
</g>
<!-- Node3 -->
<g id="node5" class="node"><title>Node3</title>
<polygon fill="white" stroke="#bfbfbf" points="123.398,-0.5 123.398,-21.5 176.398,-21.5 176.398,-0.5 123.398,-0.5"/>
<text text-anchor="middle" x="149.898" y="-8.5" font-family="Helvetica,sans-Serif" font-size="10.00">QObject</text>
</g>
<!-- Node2&#45;&gt;Node3 -->
<g id="edge4" class="edge"><title>Node2&#45;&gt;Node3</title>
<path fill="none" stroke="midnightblue" d="M489.74,-182.577C401.975,-176.645 191.549,-160.239 168.898,-138 140.67,-110.285 142.446,-59.9735 146.194,-31.7069"/>
<polygon fill="midnightblue" stroke="midnightblue" points="149.669,-32.1349 147.725,-21.72 142.75,-31.0741 149.669,-32.1349"/>
</g>
<!-- Node4 -->
<g id="node7" class="node"><title>Node4</title>
<polygon fill="white" stroke="#bfbfbf" points="480.398,-0.5 480.398,-21.5 545.398,-21.5 545.398,-0.5 480.398,-0.5"/>
<text text-anchor="middle" x="512.898" y="-8.5" font-family="Helvetica,sans-Serif" font-size="10.00">QVector3D</text>
</g>
<!-- Node2&#45;&gt;Node4 -->
<g id="edge6" class="edge"><title>Node2&#45;&gt;Node4</title>
<path fill="none" stroke="midnightblue" d="M542.613,-174.415C571.126,-152.565 628.907,-100.924 602.898,-58 592.416,-40.7006 573.248,-29.4665 555.287,-22.3362"/>
<polygon fill="midnightblue" stroke="midnightblue" points="556.09,-18.9043 545.496,-18.7846 553.703,-25.4848 556.09,-18.9043"/>
</g>
<!-- Node5 -->
<g id="node9" class="node"><title>Node5</title>
<polygon fill="white" stroke="#bfbfbf" points="491.398,-58.5 491.398,-79.5 594.398,-79.5 594.398,-58.5 491.398,-58.5"/>
<text text-anchor="middle" x="542.898" y="-66.5" font-family="Helvetica,sans-Serif" font-size="10.00">QOpenGLFunctions</text>
</g>
<!-- Node2&#45;&gt;Node5 -->
<g id="edge8" class="edge"><title>Node2&#45;&gt;Node5</title>
<path fill="none" stroke="midnightblue" d="M539.773,-174.36C548.599,-165.599 559.936,-152.327 564.898,-138 570.65,-121.397 563.566,-102.358 555.946,-88.4916"/>
<polygon fill="midnightblue" stroke="midnightblue" points="558.883,-86.5844 550.736,-79.8112 552.881,-90.1866 558.883,-86.5844"/>
</g>
<!-- Node6 -->
<g id="node11" class="node"><title>Node6</title>
<polygon fill="white" stroke="#bfbfbf" points="649.898,-116.5 649.898,-137.5 777.898,-137.5 777.898,-116.5 649.898,-116.5"/>
<text text-anchor="middle" x="713.898" y="-124.5" font-family="Helvetica,sans-Serif" font-size="10.00">QOpenGLShaderProgram</text>
</g>
<!-- Node2&#45;&gt;Node6 -->
<g id="edge10" class="edge"><title>Node2&#45;&gt;Node6</title>
<path fill="none" stroke="midnightblue" d="M561.582,-174.497C592.036,-165 637.055,-150.962 670.257,-140.609"/>
<polygon fill="midnightblue" stroke="midnightblue" points="671.647,-143.841 680.152,-137.523 669.564,-137.159 671.647,-143.841"/>
</g>
<!-- Node7 -->
<g id="node13" class="node"><title>Node7</title>
<polygon fill="white" stroke="#bfbfbf" points="795.898,-116.5 795.898,-137.5 881.898,-137.5 881.898,-116.5 795.898,-116.5"/>
<text text-anchor="middle" x="838.898" y="-124.5" font-family="Helvetica,sans-Serif" font-size="10.00">QOpenGLBuffer</text>
</g>
<!-- Node2&#45;&gt;Node7 -->
<g id="edge12" class="edge"><title>Node2&#45;&gt;Node7</title>
<path fill="none" stroke="midnightblue" d="M566.143,-178.417C614.808,-169.961 701.707,-154.6 785.813,-138.175"/>
<polygon fill="midnightblue" stroke="midnightblue" points="786.648,-141.579 795.788,-136.22 785.301,-134.709 786.648,-141.579"/>
</g>
<!-- Node8 -->
<g id="node15" class="node"><title>Node8</title>
<polygon fill="white" stroke="#bfbfbf" points="177.898,-116.5 177.898,-137.5 317.898,-137.5 317.898,-116.5 177.898,-116.5"/>
<text text-anchor="middle" x="247.898" y="-124.5" font-family="Helvetica,sans-Serif" font-size="10.00">QOpenGLVertexArrayObject</text>
</g>
<!-- Node2&#45;&gt;Node8 -->
<g id="edge14" class="edge"><title>Node2&#45;&gt;Node8</title>
<path fill="none" stroke="midnightblue" d="M489.845,-177.118C443.252,-167.466 363.756,-150.999 308.664,-139.587"/>
<polygon fill="midnightblue" stroke="midnightblue" points="309.177,-136.119 298.675,-137.518 307.757,-142.974 309.177,-136.119"/>
</g>
<!-- Node2&#45;&gt;Node9 -->
<g id="edge16" class="edge"><title>Node2&#45;&gt;Node9</title>
<path fill="none" stroke="midnightblue" d="M565.974,-182.614C630.825,-178.004 766.846,-165.958 889.367,-138.017"/>
<polygon fill="midnightblue" stroke="midnightblue" points="890.341,-141.384 899.289,-135.712 888.757,-134.566 890.341,-141.384"/>
</g>
<!-- Node2&#45;&gt;Node10 -->
<g id="edge18" class="edge"><title>Node2&#45;&gt;Node10</title>
<path fill="none" stroke="midnightblue" d="M519.106,-174.26C506.15,-159.114 480.465,-131.591 452.898,-116 416.244,-95.2687 369.59,-82.9227 336.133,-76.126"/>
<polygon fill="midnightblue" stroke="midnightblue" points="336.683,-72.6675 326.199,-74.1916 335.345,-79.5385 336.683,-72.6675"/>
</g>
<!-- Node13 -->
<g id="node27" class="node"><title>Node13</title>
<a xlink:href="actor_8hpp.html" target="_top" xlink:title="actor.hpp">
<polygon fill="white" stroke="black" points="499.398,-116.5 499.398,-137.5 556.398,-137.5 556.398,-116.5 499.398,-116.5"/>
<text text-anchor="middle" x="527.898" y="-124.5" font-family="Helvetica,sans-Serif" font-size="10.00">actor.hpp</text>
</a>
</g>
<!-- Node2&#45;&gt;Node13 -->
<g id="edge28" class="edge"><title>Node2&#45;&gt;Node13</title>
<path fill="none" stroke="midnightblue" d="M527.898,-174.362C527.898,-166.922 527.898,-156.743 527.898,-147.728"/>
<polygon fill="midnightblue" stroke="midnightblue" points="531.399,-147.571 527.898,-137.571 524.399,-147.571 531.399,-147.571"/>
</g>
<!-- Node16 -->
<g id="node35" class="node"><title>Node16</title>
<a xlink:href="material_8hpp.html" target="_top" xlink:title="material.hpp">
<polygon fill="white" stroke="black" points="13.8985,-116.5 13.8985,-137.5 83.8985,-137.5 83.8985,-116.5 13.8985,-116.5"/>
<text text-anchor="middle" x="48.8985" y="-124.5" font-family="Helvetica,sans-Serif" font-size="10.00">material.hpp</text>
</a>
</g>
<!-- Node2&#45;&gt;Node16 -->
<g id="edge38" class="edge"><title>Node2&#45;&gt;Node16</title>
<path fill="none" stroke="midnightblue" d="M489.772,-180.511C419.687,-172.242 265.664,-153.983 135.898,-138 122.292,-136.324 107.494,-134.466 94.0252,-132.762"/>
<polygon fill="midnightblue" stroke="midnightblue" points="94.3877,-129.28 84.0268,-131.494 93.507,-136.224 94.3877,-129.28"/>
</g>
<!-- Node17 -->
<g id="node40" class="node"><title>Node17</title>
<polygon fill="white" stroke="#bfbfbf" points="335.898,-116.5 335.898,-137.5 387.898,-137.5 387.898,-116.5 335.898,-116.5"/>
<text text-anchor="middle" x="361.898" y="-124.5" font-family="Helvetica,sans-Serif" font-size="10.00">memory</text>
</g>
<!-- Node2&#45;&gt;Node17 -->
<g id="edge46" class="edge"><title>Node2&#45;&gt;Node17</title>
<path fill="none" stroke="midnightblue" d="M497.837,-174.497C469.633,-164.642 427.431,-149.897 397.542,-139.454"/>
<polygon fill="midnightblue" stroke="midnightblue" points="398.511,-136.085 387.916,-136.09 396.202,-142.693 398.511,-136.085"/>
</g>
<!-- Node2&#45;&gt;Node18 -->
<g id="edge48" class="edge"><title>Node2&#45;&gt;Node18</title>
<path fill="none" stroke="midnightblue" d="M566.088,-183.753C639.68,-180.717 806.171,-170.783 953.599,-137.865"/>
<polygon fill="midnightblue" stroke="midnightblue" points="954.756,-141.191 963.73,-135.559 953.203,-134.365 954.756,-141.191"/>
</g>
<!-- Node19 -->
<g id="node44" class="node"><title>Node19</title>
<polygon fill="white" stroke="#bfbfbf" points="405.898,-116.5 405.898,-137.5 443.898,-137.5 443.898,-116.5 405.898,-116.5"/>
<text text-anchor="middle" x="424.898" y="-124.5" font-family="Helvetica,sans-Serif" font-size="10.00">tuple</text>
</g>
<!-- Node2&#45;&gt;Node19 -->
<g id="edge50" class="edge"><title>Node2&#45;&gt;Node19</title>
<path fill="none" stroke="midnightblue" d="M509.007,-174.362C493.181,-165.45 470.376,-152.609 452.504,-142.545"/>
<polygon fill="midnightblue" stroke="midnightblue" points="454.101,-139.428 443.671,-137.571 450.667,-145.527 454.101,-139.428"/>
</g>
<!-- Node10&#45;&gt;Node3 -->
<g id="edge20" class="edge"><title>Node10&#45;&gt;Node3</title>
<path fill="none" stroke="midnightblue" d="M267.002,-58.4966C244.265,-49.2746 210.968,-35.7695 185.686,-25.5153"/>
<polygon fill="midnightblue" stroke="midnightblue" points="186.668,-22.1365 176.085,-21.6212 184.037,-28.6232 186.668,-22.1365"/>
</g>
<!-- Node10&#45;&gt;Node4 -->
<g id="edge24" class="edge"><title>Node10&#45;&gt;Node4</title>
<path fill="none" stroke="midnightblue" d="M326.312,-60.191C364.927,-50.0107 428.539,-33.2402 470.579,-22.157"/>
<polygon fill="midnightblue" stroke="midnightblue" points="471.473,-25.5411 480.25,-19.6074 469.688,-18.7723 471.473,-25.5411"/>
</g>
<!-- Node11 -->
<g id="node22" class="node"><title>Node11</title>
<polygon fill="white" stroke="#bfbfbf" points="218.398,-0.5 218.398,-21.5 289.398,-21.5 289.398,-0.5 218.398,-0.5"/>
<text text-anchor="middle" x="253.898" y="-8.5" font-family="Helvetica,sans-Serif" font-size="10.00">QQuaternion</text>
</g>
<!-- Node10&#45;&gt;Node11 -->
<g id="edge22" class="edge"><title>Node10&#45;&gt;Node11</title>
<path fill="none" stroke="midnightblue" d="M285.745,-58.3619C280.413,-50.4313 272.987,-39.3885 266.648,-29.9606"/>
<polygon fill="midnightblue" stroke="midnightblue" points="269.491,-27.9161 261.006,-21.5707 263.682,-31.8221 269.491,-27.9161"/>
</g>
<!-- Node12 -->
<g id="node25" class="node"><title>Node12</title>
<polygon fill="white" stroke="#bfbfbf" points="306.398,-0.5 306.398,-21.5 355.398,-21.5 355.398,-0.5 306.398,-0.5"/>
<text text-anchor="middle" x="330.898" y="-8.5" font-family="Helvetica,sans-Serif" font-size="10.00">QtMath</text>
</g>
<!-- Node10&#45;&gt;Node12 -->
<g id="edge26" class="edge"><title>Node10&#45;&gt;Node12</title>
<path fill="none" stroke="midnightblue" d="M299.868,-58.3619C305.064,-50.4313 312.299,-39.3885 318.476,-29.9606"/>
<polygon fill="midnightblue" stroke="midnightblue" points="321.42,-31.8534 323.973,-21.5707 315.565,-28.0172 321.42,-31.8534"/>
</g>
<!-- Node13&#45;&gt;Node5 -->
<g id="edge34" class="edge"><title>Node13&#45;&gt;Node5</title>
<path fill="none" stroke="midnightblue" d="M530.65,-116.362C532.595,-108.84 535.264,-98.5187 537.615,-89.4308"/>
<polygon fill="midnightblue" stroke="midnightblue" points="541.049,-90.1285 540.165,-79.5707 534.272,-88.3758 541.049,-90.1285"/>
</g>
<!-- Node13&#45;&gt;Node10 -->
<g id="edge30" class="edge"><title>Node13&#45;&gt;Node10</title>
<path fill="none" stroke="midnightblue" d="M498.996,-119.36C494.611,-118.221 490.137,-117.071 485.898,-116 434.379,-102.981 374.958,-88.6072 335.812,-79.2257"/>
<polygon fill="midnightblue" stroke="midnightblue" points="336.608,-75.8176 326.068,-76.8935 334.979,-82.6253 336.608,-75.8176"/>
</g>
<!-- Node14 -->
<g id="node30" class="node"><title>Node14</title>
<polygon fill="white" stroke="#bfbfbf" points="407.398,-58.5 407.398,-79.5 474.398,-79.5 474.398,-58.5 407.398,-58.5"/>
<text text-anchor="middle" x="440.898" y="-66.5" font-family="Helvetica,sans-Serif" font-size="10.00">QMatrix4x4</text>
</g>
<!-- Node13&#45;&gt;Node14 -->
<g id="edge32" class="edge"><title>Node13&#45;&gt;Node14</title>
<path fill="none" stroke="midnightblue" d="M511.941,-116.362C498.942,-107.696 480.367,-95.3126 465.471,-85.3819"/>
<polygon fill="midnightblue" stroke="midnightblue" points="467.016,-82.2055 456.754,-79.5707 463.134,-88.0299 467.016,-82.2055"/>
</g>
<!-- Node13&#45;&gt;Node15 -->
<g id="edge36" class="edge"><title>Node13&#45;&gt;Node15</title>
<path fill="none" stroke="midnightblue" d="M499.069,-122.634C485.131,-120.559 468.154,-118.082 452.898,-116 338.708,-100.414 204.542,-83.9068 132.643,-75.207"/>
<polygon fill="midnightblue" stroke="midnightblue" points="132.845,-71.7059 122.497,-73.9811 132.005,-78.6554 132.845,-71.7059"/>
</g>
<!-- Node16&#45;&gt;Node3 -->
<g id="edge40" class="edge"><title>Node16&#45;&gt;Node3</title>
<path fill="none" stroke="midnightblue" d="M41.1334,-116.275C31.7471,-101.873 18.6437,-76.0161 30.8985,-58 40.5933,-43.7473 82.2719,-29.5013 113.59,-20.4926"/>
<polygon fill="midnightblue" stroke="midnightblue" points="114.657,-23.8285 123.34,-17.7583 112.766,-17.0885 114.657,-23.8285"/>
</g>
<!-- Node16&#45;&gt;Node10 -->
<g id="edge42" class="edge"><title>Node16&#45;&gt;Node10</title>
<path fill="none" stroke="midnightblue" d="M84.1176,-118.628C127.889,-108.224 202.561,-90.4738 249.732,-79.2609"/>
<polygon fill="midnightblue" stroke="midnightblue" points="250.729,-82.6216 259.648,-76.9038 249.11,-75.8113 250.729,-82.6216"/>
</g>
<!-- Node16&#45;&gt;Node15 -->
<g id="edge44" class="edge"><title>Node16&#45;&gt;Node15</title>
<path fill="none" stroke="midnightblue" d="M54.7678,-116.362C59.053,-108.595 64.9853,-97.8426 70.1146,-88.5458"/>
<polygon fill="midnightblue" stroke="midnightblue" points="73.3001,-90.0172 75.0664,-79.5707 67.1711,-86.6357 73.3001,-90.0172"/>
</g>
</g>
</svg>
