<?xml version="1.0" encoding="UTF-8" standalone="no"?>
<!DOCTYPE svg PUBLIC "-//W3C//DTD SVG 1.1//EN"
 "http://www.w3.org/Graphics/SVG/1.1/DTD/svg11.dtd">
<!-- Generated by graphviz version 2.26.3 (20100126.1600)
 -->
<!-- Title: src/cylinder.cpp Pages: 1 -->
<svg width="1047pt" height="320pt"
 viewBox="0.00 0.00 1047.00 320.00" xmlns="http://www.w3.org/2000/svg" xmlns:xlink="http://www.w3.org/1999/xlink">
<g id="graph1" class="graph" transform="scale(1 1) rotate(0) translate(4 316)">
<title>src/cylinder.cpp</title>
<polygon fill="white" stroke="white" points="-4,5 -4,-316 1044,-316 1044,5 -4,5"/>
<!-- Node1 -->
<g id="node1" class="node"><title>Node1</title>
<polygon fill="#bfbfbf" stroke="black" points="598,-290.5 598,-311.5 684,-311.5 684,-290.5 598,-290.5"/>
<text text-anchor="middle" x="641" y="-298.5" font-family="Helvetica,sans-Serif" font-size="10.00">src/cylinder.cpp</text>
</g>
<!-- Node2 -->
<g id="node3" class="node"><title>Node2</title>
<a xlink:href="cylinder_8hpp.html" target="_top" xlink:title="cylinder.hpp">
<polygon fill="white" stroke="black" points="606.5,-232.5 606.5,-253.5 675.5,-253.5 675.5,-232.5 606.5,-232.5"/>
<text text-anchor="middle" x="641" y="-240.5" font-family="Helvetica,sans-Serif" font-size="10.00">cylinder.hpp</text>
</a>
</g>
<!-- Node1&#45;&gt;Node2 -->
<g id="edge2" class="edge"><title>Node1&#45;&gt;Node2</title>
<path fill="none" stroke="midnightblue" d="M641,-290.362C641,-282.922 641,-272.743 641,-263.728"/>
<polygon fill="midnightblue" stroke="midnightblue" points="644.5,-263.571 641,-253.571 637.5,-263.571 644.5,-263.571"/>
</g>
<!-- Node13 -->
<g id="node27" class="node"><title>Node13</title>
<polygon fill="white" stroke="#bfbfbf" points="-0.5,-0.5 -0.5,-21.5 48.5,-21.5 48.5,-0.5 -0.5,-0.5"/>
<text text-anchor="middle" x="24" y="-8.5" font-family="Helvetica,sans-Serif" font-size="10.00">QtMath</text>
</g>
<!-- Node1&#45;&gt;Node13 -->
<g id="edge54" class="edge"><title>Node1&#45;&gt;Node13</title>
<path fill="none" stroke="midnightblue" d="M597.762,-297.343C458.858,-285.023 33,-242.558 33,-185 33,-185 33,-185 33,-127 33,-93.4974 29.2222,-54.7146 26.5617,-31.5566"/>
<polygon fill="midnightblue" stroke="midnightblue" points="30.0262,-31.0502 25.3669,-21.5349 23.0755,-31.8789 30.0262,-31.0502"/>
</g>
<!-- Node19 -->
<g id="node44" class="node"><title>Node19</title>
<polygon fill="white" stroke="#bfbfbf" points="995,-116.5 995,-137.5 1039,-137.5 1039,-116.5 995,-116.5"/>
<text text-anchor="middle" x="1017" y="-124.5" font-family="Helvetica,sans-Serif" font-size="10.00">vector</text>
</g>
<!-- Node1&#45;&gt;Node19 -->
<g id="edge56" class="edge"><title>Node1&#45;&gt;Node19</title>
<path fill="none" stroke="midnightblue" d="M663.954,-290.377C728.501,-260.507 911.688,-175.735 985.552,-141.553"/>
<polygon fill="midnightblue" stroke="midnightblue" points="987.214,-144.641 994.819,-137.264 984.274,-138.288 987.214,-144.641"/>
</g>
<!-- Node3 -->
<g id="node5" class="node"><title>Node3</title>
<a xlink:href="geometry_8hpp.html" target="_top" xlink:title="geometry.hpp">
<polygon fill="white" stroke="black" points="603,-174.5 603,-195.5 679,-195.5 679,-174.5 603,-174.5"/>
<text text-anchor="middle" x="641" y="-182.5" font-family="Helvetica,sans-Serif" font-size="10.00">geometry.hpp</text>
</a>
</g>
<!-- Node2&#45;&gt;Node3 -->
<g id="edge4" class="edge"><title>Node2&#45;&gt;Node3</title>
<path fill="none" stroke="midnightblue" d="M641,-232.362C641,-224.922 641,-214.743 641,-205.728"/>
<polygon fill="midnightblue" stroke="midnightblue" points="644.5,-205.571 641,-195.571 637.5,-205.571 644.5,-205.571"/>
</g>
<!-- Node4 -->
<g id="node7" class="node"><title>Node4</title>
<polygon fill="white" stroke="#bfbfbf" points="235.5,-0.5 235.5,-21.5 288.5,-21.5 288.5,-0.5 235.5,-0.5"/>
<text text-anchor="middle" x="262" y="-8.5" font-family="Helvetica,sans-Serif" font-size="10.00">QObject</text>
</g>
<!-- Node3&#45;&gt;Node4 -->
<g id="edge6" class="edge"><title>Node3&#45;&gt;Node4</title>
<path fill="none" stroke="midnightblue" d="M679.139,-181.441C753.1,-174.153 910.182,-156.64 926,-138 932.326,-130.545 931.788,-123.881 926,-116 874.991,-46.5514 825.437,-75.1872 741,-58 578.203,-24.8625 379.352,-14.8478 298.647,-12.0273"/>
<polygon fill="midnightblue" stroke="midnightblue" points="298.616,-8.52438 288.505,-11.6894 298.383,-15.5205 298.616,-8.52438"/>
</g>
<!-- Node5 -->
<g id="node9" class="node"><title>Node5</title>
<polygon fill="white" stroke="#bfbfbf" points="65.5,-0.5 65.5,-21.5 130.5,-21.5 130.5,-0.5 65.5,-0.5"/>
<text text-anchor="middle" x="98" y="-8.5" font-family="Helvetica,sans-Serif" font-size="10.00">QVector3D</text>
</g>
<!-- Node3&#45;&gt;Node5 -->
<g id="edge8" class="edge"><title>Node3&#45;&gt;Node5</title>
<path fill="none" stroke="midnightblue" d="M602.606,-183.519C491.692,-178.951 176.267,-163.806 138,-138 103.501,-114.735 97.7411,-61.3977 97.3615,-31.7804"/>
<polygon fill="midnightblue" stroke="midnightblue" points="100.862,-31.7266 97.4307,-21.7028 93.862,-31.6785 100.862,-31.7266"/>
</g>
<!-- Node6 -->
<g id="node11" class="node"><title>Node6</title>
<polygon fill="white" stroke="#bfbfbf" points="629.5,-58.5 629.5,-79.5 732.5,-79.5 732.5,-58.5 629.5,-58.5"/>
<text text-anchor="middle" x="681" y="-66.5" font-family="Helvetica,sans-Serif" font-size="10.00">QOpenGLFunctions</text>
</g>
<!-- Node3&#45;&gt;Node6 -->
<g id="edge10" class="edge"><title>Node3&#45;&gt;Node6</title>
<path fill="none" stroke="midnightblue" d="M679.112,-184.133C746.175,-181.716 880.947,-172.57 910,-138 916.291,-130.515 916.18,-123.577 910,-116 889.267,-90.5798 803.412,-78.5226 742.942,-73.088"/>
<polygon fill="midnightblue" stroke="midnightblue" points="742.982,-69.5786 732.719,-72.21 742.383,-76.553 742.982,-69.5786"/>
</g>
<!-- Node7 -->
<g id="node13" class="node"><title>Node7</title>
<polygon fill="white" stroke="#bfbfbf" points="321,-116.5 321,-137.5 449,-137.5 449,-116.5 321,-116.5"/>
<text text-anchor="middle" x="385" y="-124.5" font-family="Helvetica,sans-Serif" font-size="10.00">QOpenGLShaderProgram</text>
</g>
<!-- Node3&#45;&gt;Node7 -->
<g id="edge12" class="edge"><title>Node3&#45;&gt;Node7</title>
<path fill="none" stroke="midnightblue" d="M602.951,-176.379C560.21,-166.696 490.413,-150.883 441.344,-139.765"/>
<polygon fill="midnightblue" stroke="midnightblue" points="442.039,-136.334 431.513,-137.538 440.492,-143.161 442.039,-136.334"/>
</g>
<!-- Node8 -->
<g id="node15" class="node"><title>Node8</title>
<polygon fill="white" stroke="#bfbfbf" points="467,-116.5 467,-137.5 553,-137.5 553,-116.5 467,-116.5"/>
<text text-anchor="middle" x="510" y="-124.5" font-family="Helvetica,sans-Serif" font-size="10.00">QOpenGLBuffer</text>
</g>
<!-- Node3&#45;&gt;Node8 -->
<g id="edge14" class="edge"><title>Node3&#45;&gt;Node8</title>
<path fill="none" stroke="midnightblue" d="M617.277,-174.497C596.632,-165.356 566.484,-152.008 543.401,-141.788"/>
<polygon fill="midnightblue" stroke="midnightblue" points="544.55,-138.469 533.989,-137.621 541.716,-144.87 544.55,-138.469"/>
</g>
<!-- Node9 -->
<g id="node17" class="node"><title>Node9</title>
<polygon fill="white" stroke="#bfbfbf" points="571,-116.5 571,-137.5 711,-137.5 711,-116.5 571,-116.5"/>
<text text-anchor="middle" x="641" y="-124.5" font-family="Helvetica,sans-Serif" font-size="10.00">QOpenGLVertexArrayObject</text>
</g>
<!-- Node3&#45;&gt;Node9 -->
<g id="edge16" class="edge"><title>Node3&#45;&gt;Node9</title>
<path fill="none" stroke="midnightblue" d="M641,-174.362C641,-166.922 641,-156.743 641,-147.728"/>
<polygon fill="midnightblue" stroke="midnightblue" points="644.5,-147.571 641,-137.571 637.5,-147.571 644.5,-147.571"/>
</g>
<!-- Node10 -->
<g id="node19" class="node"><title>Node10</title>
<polygon fill="white" stroke="#bfbfbf" points="728.5,-116.5 728.5,-137.5 775.5,-137.5 775.5,-116.5 728.5,-116.5"/>
<text text-anchor="middle" x="752" y="-124.5" font-family="Helvetica,sans-Serif" font-size="10.00">QColor</text>
</g>
<!-- Node3&#45;&gt;Node10 -->
<g id="edge18" class="edge"><title>Node3&#45;&gt;Node10</title>
<path fill="none" stroke="midnightblue" d="M661.101,-174.497C678.282,-165.519 703.23,-152.484 722.645,-142.339"/>
<polygon fill="midnightblue" stroke="midnightblue" points="724.431,-145.354 731.673,-137.621 721.189,-139.15 724.431,-145.354"/>
</g>
<!-- Node11 -->
<g id="node21" class="node"><title>Node11</title>
<a xlink:href="globals_8hpp.html" target="_top" xlink:title="Definitions globales. ">
<polygon fill="white" stroke="black" points="117,-58.5 117,-79.5 183,-79.5 183,-58.5 117,-58.5"/>
<text text-anchor="middle" x="150" y="-66.5" font-family="Helvetica,sans-Serif" font-size="10.00">globals.hpp</text>
</a>
</g>
<!-- Node3&#45;&gt;Node11 -->
<g id="edge20" class="edge"><title>Node3&#45;&gt;Node11</title>
<path fill="none" stroke="midnightblue" d="M602.854,-184.234C492.749,-181.632 180.309,-171.349 150,-138 138.395,-125.231 139.849,-104.987 143.341,-89.7223"/>
<polygon fill="midnightblue" stroke="midnightblue" points="146.829,-90.2339 146.086,-79.6652 140.076,-88.3907 146.829,-90.2339"/>
</g>
<!-- Node14 -->
<g id="node29" class="node"><title>Node14</title>
<a xlink:href="actor_8hpp.html" target="_top" xlink:title="actor.hpp">
<polygon fill="white" stroke="black" points="246.5,-116.5 246.5,-137.5 303.5,-137.5 303.5,-116.5 246.5,-116.5"/>
<text text-anchor="middle" x="275" y="-124.5" font-family="Helvetica,sans-Serif" font-size="10.00">actor.hpp</text>
</a>
</g>
<!-- Node3&#45;&gt;Node14 -->
<g id="edge30" class="edge"><title>Node3&#45;&gt;Node14</title>
<path fill="none" stroke="midnightblue" d="M602.93,-181.4C543.12,-175.346 423.413,-161.623 313.498,-138.104"/>
<polygon fill="midnightblue" stroke="midnightblue" points="314.09,-134.651 303.575,-135.948 312.604,-141.491 314.09,-134.651"/>
</g>
<!-- Node17 -->
<g id="node37" class="node"><title>Node17</title>
<a xlink:href="material_8hpp.html" target="_top" xlink:title="material.hpp">
<polygon fill="white" stroke="black" points="159,-116.5 159,-137.5 229,-137.5 229,-116.5 159,-116.5"/>
<text text-anchor="middle" x="194" y="-124.5" font-family="Helvetica,sans-Serif" font-size="10.00">material.hpp</text>
</a>
</g>
<!-- Node3&#45;&gt;Node17 -->
<g id="edge40" class="edge"><title>Node3&#45;&gt;Node17</title>
<path fill="none" stroke="midnightblue" d="M602.977,-182.21C532.892,-176.712 378.505,-162.95 239.441,-138.09"/>
<polygon fill="midnightblue" stroke="midnightblue" points="239.92,-134.62 229.456,-136.281 238.672,-141.508 239.92,-134.62"/>
</g>
<!-- Node18 -->
<g id="node42" class="node"><title>Node18</title>
<polygon fill="white" stroke="#bfbfbf" points="793,-116.5 793,-137.5 845,-137.5 845,-116.5 793,-116.5"/>
<text text-anchor="middle" x="819" y="-124.5" font-family="Helvetica,sans-Serif" font-size="10.00">memory</text>
</g>
<!-- Node3&#45;&gt;Node18 -->
<g id="edge48" class="edge"><title>Node3&#45;&gt;Node18</title>
<path fill="none" stroke="midnightblue" d="M673.234,-174.497C704.152,-164.422 750.754,-149.237 782.902,-138.762"/>
<polygon fill="midnightblue" stroke="midnightblue" points="784.37,-141.965 792.794,-135.539 782.201,-135.309 784.37,-141.965"/>
</g>
<!-- Node3&#45;&gt;Node19 -->
<g id="edge50" class="edge"><title>Node3&#45;&gt;Node19</title>
<path fill="none" stroke="midnightblue" d="M679.083,-181.731C742.324,-175.858 872.763,-161.858 981,-138 982.256,-137.723 983.533,-137.424 984.818,-137.107"/>
<polygon fill="midnightblue" stroke="midnightblue" points="985.948,-140.427 994.678,-134.423 984.11,-133.672 985.948,-140.427"/>
</g>
<!-- Node20 -->
<g id="node46" class="node"><title>Node20</title>
<polygon fill="white" stroke="#bfbfbf" points="863,-116.5 863,-137.5 901,-137.5 901,-116.5 863,-116.5"/>
<text text-anchor="middle" x="882" y="-124.5" font-family="Helvetica,sans-Serif" font-size="10.00">tuple</text>
</g>
<!-- Node3&#45;&gt;Node20 -->
<g id="edge52" class="edge"><title>Node3&#45;&gt;Node20</title>
<path fill="none" stroke="midnightblue" d="M679.171,-178.451C720.144,-171.011 787.208,-157.65 853.144,-137.933"/>
<polygon fill="midnightblue" stroke="midnightblue" points="854.312,-141.236 862.861,-134.977 852.275,-134.539 854.312,-141.236"/>
</g>
<!-- Node11&#45;&gt;Node4 -->
<g id="edge22" class="edge"><title>Node11&#45;&gt;Node4</title>
<path fill="none" stroke="midnightblue" d="M170.282,-58.4966C187.618,-49.5194 212.79,-36.4835 232.38,-26.3387"/>
<polygon fill="midnightblue" stroke="midnightblue" points="234.22,-29.3278 241.49,-21.6212 231.001,-23.1118 234.22,-29.3278"/>
</g>
<!-- Node11&#45;&gt;Node5 -->
<g id="edge26" class="edge"><title>Node11&#45;&gt;Node5</title>
<path fill="none" stroke="midnightblue" d="M140.462,-58.3619C133.132,-50.1861 122.837,-38.7025 114.219,-29.0907"/>
<polygon fill="midnightblue" stroke="midnightblue" points="116.759,-26.68 107.477,-21.5707 111.547,-31.3528 116.759,-26.68"/>
</g>
<!-- Node12 -->
<g id="node24" class="node"><title>Node12</title>
<polygon fill="white" stroke="#bfbfbf" points="147.5,-0.5 147.5,-21.5 218.5,-21.5 218.5,-0.5 147.5,-0.5"/>
<text text-anchor="middle" x="183" y="-8.5" font-family="Helvetica,sans-Serif" font-size="10.00">QQuaternion</text>
</g>
<!-- Node11&#45;&gt;Node12 -->
<g id="edge24" class="edge"><title>Node11&#45;&gt;Node12</title>
<path fill="none" stroke="midnightblue" d="M156.053,-58.3619C160.472,-50.5949 166.59,-39.8426 171.879,-30.5458"/>
<polygon fill="midnightblue" stroke="midnightblue" points="175.082,-31.9932 176.986,-21.5707 168.998,-28.5315 175.082,-31.9932"/>
</g>
<!-- Node11&#45;&gt;Node13 -->
<g id="edge28" class="edge"><title>Node11&#45;&gt;Node13</title>
<path fill="none" stroke="midnightblue" d="M127.182,-58.4966C107.414,-49.397 78.5868,-36.1273 56.424,-25.9253"/>
<polygon fill="midnightblue" stroke="midnightblue" points="57.621,-22.6234 47.0737,-21.6212 54.694,-28.982 57.621,-22.6234"/>
</g>
<!-- Node14&#45;&gt;Node6 -->
<g id="edge36" class="edge"><title>Node14&#45;&gt;Node6</title>
<path fill="none" stroke="midnightblue" d="M303.566,-118.009C306.4,-117.267 309.246,-116.581 312,-116 418.823,-93.4736 545.471,-80.2029 619.18,-73.7868"/>
<polygon fill="midnightblue" stroke="midnightblue" points="619.557,-77.2675 629.222,-72.9267 618.96,-70.293 619.557,-77.2675"/>
</g>
<!-- Node14&#45;&gt;Node11 -->
<g id="edge32" class="edge"><title>Node14&#45;&gt;Node11</title>
<path fill="none" stroke="midnightblue" d="M252.363,-116.497C232.752,-107.397 204.154,-94.1273 182.167,-83.9253"/>
<polygon fill="midnightblue" stroke="midnightblue" points="183.435,-80.6554 172.891,-79.6212 180.488,-87.0051 183.435,-80.6554"/>
</g>
<!-- Node15 -->
<g id="node32" class="node"><title>Node15</title>
<polygon fill="white" stroke="#bfbfbf" points="338.5,-58.5 338.5,-79.5 405.5,-79.5 405.5,-58.5 338.5,-58.5"/>
<text text-anchor="middle" x="372" y="-66.5" font-family="Helvetica,sans-Serif" font-size="10.00">QMatrix4x4</text>
</g>
<!-- Node14&#45;&gt;Node15 -->
<g id="edge34" class="edge"><title>Node14&#45;&gt;Node15</title>
<path fill="none" stroke="midnightblue" d="M292.791,-116.362C307.559,-107.532 328.778,-94.844 345.538,-84.8224"/>
<polygon fill="midnightblue" stroke="midnightblue" points="347.535,-87.7066 354.321,-79.5707 343.943,-81.6987 347.535,-87.7066"/>
</g>
<!-- Node16 -->
<g id="node35" class="node"><title>Node16</title>
<polygon fill="white" stroke="#bfbfbf" points="238.5,-58.5 238.5,-79.5 321.5,-79.5 321.5,-58.5 238.5,-58.5"/>
<text text-anchor="middle" x="280" y="-66.5" font-family="Helvetica,sans-Serif" font-size="10.00">QMetaProperty</text>
</g>
<!-- Node14&#45;&gt;Node16 -->
<g id="edge38" class="edge"><title>Node14&#45;&gt;Node16</title>
<path fill="none" stroke="midnightblue" d="M275.917,-116.362C276.558,-108.922 277.436,-98.7427 278.213,-89.7276"/>
<polygon fill="midnightblue" stroke="midnightblue" points="281.717,-89.8343 279.089,-79.5707 274.743,-89.2331 281.717,-89.8343"/>
</g>
<!-- Node17&#45;&gt;Node4 -->
<g id="edge42" class="edge"><title>Node17&#45;&gt;Node4</title>
<path fill="none" stroke="midnightblue" d="M199.229,-116.029C205.917,-102.234 218.065,-77.9412 230,-58 235.659,-48.5451 242.467,-38.3996 248.346,-29.9633"/>
<polygon fill="midnightblue" stroke="midnightblue" points="251.348,-31.7797 254.262,-21.5936 245.632,-27.739 251.348,-31.7797"/>
</g>
<!-- Node17&#45;&gt;Node11 -->
<g id="edge44" class="edge"><title>Node17&#45;&gt;Node11</title>
<path fill="none" stroke="midnightblue" d="M185.93,-116.362C179.851,-108.35 171.363,-97.1605 164.163,-87.6696"/>
<polygon fill="midnightblue" stroke="midnightblue" points="166.851,-85.4222 158.019,-79.5707 161.275,-89.653 166.851,-85.4222"/>
</g>
<!-- Node17&#45;&gt;Node16 -->
<g id="edge46" class="edge"><title>Node17&#45;&gt;Node16</title>
<path fill="none" stroke="midnightblue" d="M209.774,-116.362C222.624,-107.696 240.985,-95.3126 255.71,-85.3819"/>
<polygon fill="midnightblue" stroke="midnightblue" points="257.993,-88.0639 264.326,-79.5707 254.079,-82.2604 257.993,-88.0639"/>
</g>
</g>
</svg>
