<?xml version="1.0" encoding="UTF-8" standalone="no"?>
<!DOCTYPE svg PUBLIC "-//W3C//DTD SVG 1.1//EN"
 "http://www.w3.org/Graphics/SVG/1.1/DTD/svg11.dtd">
<!-- Generated by graphviz version 2.26.3 (20100126.1600)
 -->
<!-- Title: include/cylinder.hpp Pages: 1 -->
<svg width="444pt" height="88pt"
 viewBox="0.00 0.00 444.00 88.00" xmlns="http://www.w3.org/2000/svg" xmlns:xlink="http://www.w3.org/1999/xlink">
<g id="graph1" class="graph" transform="scale(1 1) rotate(0) translate(4 84)">
<title>include/cylinder.hpp</title>
<polygon fill="white" stroke="white" points="-4,5 -4,-84 441,-84 441,5 -4,5"/>
<!-- Node1 -->
<g id="node1" class="node"><title>Node1</title>
<polygon fill="#bfbfbf" stroke="black" points="168.5,-58.5 168.5,-79.5 271.5,-79.5 271.5,-58.5 168.5,-58.5"/>
<text text-anchor="middle" x="220" y="-66.5" font-family="Helvetica,sans-Serif" font-size="10.00">include/cylinder.hpp</text>
</g>
<!-- Node2 -->
<g id="node3" class="node"><title>Node2</title>
<a xlink:href="actorbuilder_8cpp.html" target="_top" xlink:title="src/actorbuilder.cpp">
<polygon fill="white" stroke="black" points="0,-0.5 0,-21.5 102,-21.5 102,-0.5 0,-0.5"/>
<text text-anchor="middle" x="51" y="-8.5" font-family="Helvetica,sans-Serif" font-size="10.00">src/actorbuilder.cpp</text>
</a>
</g>
<!-- Node1&#45;&gt;Node2 -->
<g id="edge2" class="edge"><title>Node1&#45;&gt;Node2</title>
<path fill="none" stroke="midnightblue" d="M179.627,-55.1443C149.553,-44.8229 109.112,-30.9439 81.662,-21.5231"/>
<polygon fill="midnightblue" stroke="midnightblue" points="178.801,-58.5609 189.395,-58.4966 181.073,-51.94 178.801,-58.5609"/>
</g>
<!-- Node3 -->
<g id="node5" class="node"><title>Node3</title>
<a xlink:href="cylinder_8cpp.html" target="_top" xlink:title="src/cylinder.cpp">
<polygon fill="white" stroke="black" points="120,-0.5 120,-21.5 206,-21.5 206,-0.5 120,-0.5"/>
<text text-anchor="middle" x="163" y="-8.5" font-family="Helvetica,sans-Serif" font-size="10.00">src/cylinder.cpp</text>
</a>
</g>
<!-- Node1&#45;&gt;Node3 -->
<g id="edge4" class="edge"><title>Node1&#45;&gt;Node3</title>
<path fill="none" stroke="midnightblue" d="M202.426,-51.118C192.913,-41.4377 181.486,-29.8098 173.388,-21.5707"/>
<polygon fill="midnightblue" stroke="midnightblue" points="200.04,-53.6829 209.545,-58.3619 205.032,-48.7763 200.04,-53.6829"/>
</g>
<!-- Node4 -->
<g id="node7" class="node"><title>Node4</title>
<a xlink:href="mainwindow_8cpp.html" target="_top" xlink:title="src/mainwindow.cpp">
<polygon fill="white" stroke="black" points="224,-0.5 224,-21.5 330,-21.5 330,-0.5 224,-0.5"/>
<text text-anchor="middle" x="277" y="-8.5" font-family="Helvetica,sans-Serif" font-size="10.00">src/mainwindow.cpp</text>
</a>
</g>
<!-- Node1&#45;&gt;Node4 -->
<g id="edge6" class="edge"><title>Node1&#45;&gt;Node4</title>
<path fill="none" stroke="midnightblue" d="M237.574,-51.118C247.087,-41.4377 258.514,-29.8098 266.612,-21.5707"/>
<polygon fill="midnightblue" stroke="midnightblue" points="234.968,-48.7763 230.455,-58.3619 239.96,-53.6829 234.968,-48.7763"/>
</g>
<!-- Node5 -->
<g id="node9" class="node"><title>Node5</title>
<a xlink:href="viewport_8cpp.html" target="_top" xlink:title="src/viewport.cpp">
<polygon fill="white" stroke="black" points="347.5,-0.5 347.5,-21.5 436.5,-21.5 436.5,-0.5 347.5,-0.5"/>
<text text-anchor="middle" x="392" y="-8.5" font-family="Helvetica,sans-Serif" font-size="10.00">src/viewport.cpp</text>
</a>
</g>
<!-- Node1&#45;&gt;Node5 -->
<g id="edge8" class="edge"><title>Node1&#45;&gt;Node5</title>
<path fill="none" stroke="midnightblue" d="M260.691,-55.2787C291.339,-44.9437 332.735,-30.9849 360.794,-21.5231"/>
<polygon fill="midnightblue" stroke="midnightblue" points="259.505,-51.9847 251.148,-58.4966 261.742,-58.6178 259.505,-51.9847"/>
</g>
</g>
</svg>
