<?xml version="1.0" encoding="UTF-8" standalone="no"?>
<!DOCTYPE svg PUBLIC "-//W3C//DTD SVG 1.1//EN"
 "http://www.w3.org/Graphics/SVG/1.1/DTD/svg11.dtd">
<!-- Generated by graphviz version 2.26.3 (20100126.1600)
 -->
<!-- Title: include/cylinder.hpp Pages: 1 -->
<svg width="324pt" height="88pt"
 viewBox="0.00 0.00 324.00 88.00" xmlns="http://www.w3.org/2000/svg" xmlns:xlink="http://www.w3.org/1999/xlink">
<g id="graph1" class="graph" transform="scale(1 1) rotate(0) translate(4 84)">
<title>include/cylinder.hpp</title>
<polygon fill="white" stroke="white" points="-4,5 -4,-84 321,-84 321,5 -4,5"/>
<!-- Node1 -->
<g id="node1" class="node"><title>Node1</title>
<polygon fill="#bfbfbf" stroke="black" points="105.5,-58.5 105.5,-79.5 208.5,-79.5 208.5,-58.5 105.5,-58.5"/>
<text text-anchor="middle" x="157" y="-66.5" font-family="Helvetica,sans-Serif" font-size="10.00">include/cylinder.hpp</text>
</g>
<!-- Node2 -->
<g id="node3" class="node"><title>Node2</title>
<a xlink:href="cylinder_8cpp.html" target="_top" xlink:title="src/cylinder.cpp">
<polygon fill="white" stroke="black" points="0,-0.5 0,-21.5 86,-21.5 86,-0.5 0,-0.5"/>
<text text-anchor="middle" x="43" y="-8.5" font-family="Helvetica,sans-Serif" font-size="10.00">src/cylinder.cpp</text>
</a>
</g>
<!-- Node1&#45;&gt;Node2 -->
<g id="edge2" class="edge"><title>Node1&#45;&gt;Node2</title>
<path fill="none" stroke="midnightblue" d="M127.383,-53.9319C107.456,-43.7932 81.6711,-30.6748 63.8762,-21.6212"/>
<polygon fill="midnightblue" stroke="midnightblue" points="125.856,-57.0815 136.355,-58.4966 129.03,-50.8425 125.856,-57.0815"/>
</g>
<!-- Node3 -->
<g id="node5" class="node"><title>Node3</title>
<a xlink:href="mainwindow_8cpp.html" target="_top" xlink:title="src/mainwindow.cpp">
<polygon fill="white" stroke="black" points="104,-0.5 104,-21.5 210,-21.5 210,-0.5 104,-0.5"/>
<text text-anchor="middle" x="157" y="-8.5" font-family="Helvetica,sans-Serif" font-size="10.00">src/mainwindow.cpp</text>
</a>
</g>
<!-- Node1&#45;&gt;Node3 -->
<g id="edge4" class="edge"><title>Node1&#45;&gt;Node3</title>
<path fill="none" stroke="midnightblue" d="M157,-48.1906C157,-39.1684 157,-28.9941 157,-21.5707"/>
<polygon fill="midnightblue" stroke="midnightblue" points="153.5,-48.3619 157,-58.3619 160.5,-48.3619 153.5,-48.3619"/>
</g>
<!-- Node4 -->
<g id="node7" class="node"><title>Node4</title>
<a xlink:href="viewport_8cpp.html" target="_top" xlink:title="src/viewport.cpp">
<polygon fill="white" stroke="black" points="227.5,-0.5 227.5,-21.5 316.5,-21.5 316.5,-0.5 227.5,-0.5"/>
<text text-anchor="middle" x="272" y="-8.5" font-family="Helvetica,sans-Serif" font-size="10.00">src/viewport.cpp</text>
</a>
</g>
<!-- Node1&#45;&gt;Node4 -->
<g id="edge6" class="edge"><title>Node1&#45;&gt;Node4</title>
<path fill="none" stroke="midnightblue" d="M186.876,-53.9319C206.979,-43.7932 232.99,-30.6748 250.941,-21.6212"/>
<polygon fill="midnightblue" stroke="midnightblue" points="185.178,-50.8684 177.826,-58.4966 188.33,-57.1185 185.178,-50.8684"/>
</g>
</g>
</svg>
