<?xml version="1.0" encoding="UTF-8" standalone="no"?>
<!DOCTYPE svg PUBLIC "-//W3C//DTD SVG 1.1//EN"
 "http://www.w3.org/Graphics/SVG/1.1/DTD/svg11.dtd">
<!-- Generated by graphviz version 2.26.3 (20100126.1600)
 -->
<!-- Title: include/fileloader.hpp Pages: 1 -->
<svg width="283pt" height="146pt"
 viewBox="0.00 0.00 283.00 146.00" xmlns="http://www.w3.org/2000/svg" xmlns:xlink="http://www.w3.org/1999/xlink">
<g id="graph1" class="graph" transform="scale(1 1) rotate(0) translate(4 142)">
<title>include/fileloader.hpp</title>
<polygon fill="white" stroke="white" points="-4,5 -4,-142 280,-142 280,5 -4,5"/>
<!-- Node1 -->
<g id="node1" class="node"><title>Node1</title>
<polygon fill="#bfbfbf" stroke="black" points="53,-116.5 53,-137.5 161,-137.5 161,-116.5 53,-116.5"/>
<text text-anchor="middle" x="107" y="-124.5" font-family="Helvetica,sans-Serif" font-size="10.00">include/fileloader.hpp</text>
</g>
<!-- Node2 -->
<g id="node3" class="node"><title>Node2</title>
<a xlink:href="fileloader_8cpp.html" target="_top" xlink:title="src/fileloader.cpp">
<polygon fill="white" stroke="black" points="-0.5,-58.5 -0.5,-79.5 90.5,-79.5 90.5,-58.5 -0.5,-58.5"/>
<text text-anchor="middle" x="45" y="-66.5" font-family="Helvetica,sans-Serif" font-size="10.00">src/fileloader.cpp</text>
</a>
</g>
<!-- Node1&#45;&gt;Node2 -->
<g id="edge2" class="edge"><title>Node1&#45;&gt;Node2</title>
<path fill="none" stroke="midnightblue" d="M88.1915,-109.405C77.7834,-99.6683 65.1942,-87.8914 56.2997,-79.5707"/>
<polygon fill="midnightblue" stroke="midnightblue" points="85.9344,-112.086 95.6282,-116.362 90.7166,-106.974 85.9344,-112.086"/>
</g>
<!-- Node3 -->
<g id="node5" class="node"><title>Node3</title>
<a xlink:href="mainwindow_8hpp.html" target="_top" xlink:title="include/mainwindow.hpp">
<polygon fill="white" stroke="black" points="107.5,-58.5 107.5,-79.5 230.5,-79.5 230.5,-58.5 107.5,-58.5"/>
<text text-anchor="middle" x="169" y="-66.5" font-family="Helvetica,sans-Serif" font-size="10.00">include/mainwindow.hpp</text>
</a>
</g>
<!-- Node1&#45;&gt;Node3 -->
<g id="edge4" class="edge"><title>Node1&#45;&gt;Node3</title>
<path fill="none" stroke="midnightblue" d="M125.808,-109.405C136.217,-99.6683 148.806,-87.8914 157.7,-79.5707"/>
<polygon fill="midnightblue" stroke="midnightblue" points="123.283,-106.974 118.372,-116.362 128.066,-112.086 123.283,-106.974"/>
</g>
<!-- Node4 -->
<g id="node7" class="node"><title>Node4</title>
<a xlink:href="main_8cpp.html" target="_top" xlink:title="src/main.cpp">
<polygon fill="white" stroke="black" points="78.5,-0.5 78.5,-21.5 151.5,-21.5 151.5,-0.5 78.5,-0.5"/>
<text text-anchor="middle" x="115" y="-8.5" font-family="Helvetica,sans-Serif" font-size="10.00">src/main.cpp</text>
</a>
</g>
<!-- Node3&#45;&gt;Node4 -->
<g id="edge6" class="edge"><title>Node3&#45;&gt;Node4</title>
<path fill="none" stroke="midnightblue" d="M152.083,-50.8299C143.125,-41.2078 132.437,-29.7282 124.842,-21.5707"/>
<polygon fill="midnightblue" stroke="midnightblue" points="149.72,-53.4279 159.096,-58.3619 154.843,-48.658 149.72,-53.4279"/>
</g>
<!-- Node5 -->
<g id="node9" class="node"><title>Node5</title>
<a xlink:href="mainwindow_8cpp.html" target="_top" xlink:title="src/mainwindow.cpp">
<polygon fill="white" stroke="black" points="169,-0.5 169,-21.5 275,-21.5 275,-0.5 169,-0.5"/>
<text text-anchor="middle" x="222" y="-8.5" font-family="Helvetica,sans-Serif" font-size="10.00">src/mainwindow.cpp</text>
</a>
</g>
<!-- Node3&#45;&gt;Node5 -->
<g id="edge8" class="edge"><title>Node3&#45;&gt;Node5</title>
<path fill="none" stroke="midnightblue" d="M185.604,-50.8299C194.396,-41.2078 204.886,-29.7282 212.341,-21.5707"/>
<polygon fill="midnightblue" stroke="midnightblue" points="182.883,-48.6188 178.721,-58.3619 188.051,-53.3408 182.883,-48.6188"/>
</g>
</g>
</svg>
