<?xml version="1.0" encoding="UTF-8" standalone="no"?>
<!DOCTYPE svg PUBLIC "-//W3C//DTD SVG 1.1//EN"
 "http://www.w3.org/Graphics/SVG/1.1/DTD/svg11.dtd">
<!-- Generated by graphviz version 2.26.3 (20100126.1600)
 -->
<!-- Title: include/fileloader.hpp Pages: 1 -->
<svg width="208pt" height="88pt"
 viewBox="0.00 0.00 208.00 88.00" xmlns="http://www.w3.org/2000/svg" xmlns:xlink="http://www.w3.org/1999/xlink">
<g id="graph1" class="graph" transform="scale(1 1) rotate(0) translate(4 84)">
<title>include/fileloader.hpp</title>
<polygon fill="white" stroke="white" points="-4,5 -4,-84 205,-84 205,5 -4,5"/>
<!-- Node1 -->
<g id="node1" class="node"><title>Node1</title>
<polygon fill="#bfbfbf" stroke="black" points="34,-58.5 34,-79.5 142,-79.5 142,-58.5 34,-58.5"/>
<text text-anchor="middle" x="88" y="-66.5" font-family="Helvetica,sans-Serif" font-size="10.00">include/fileloader.hpp</text>
</g>
<!-- Node2 -->
<g id="node3" class="node"><title>Node2</title>
<polygon fill="white" stroke="#bfbfbf" points="0,-0.5 0,-21.5 50,-21.5 50,-0.5 0,-0.5"/>
<text text-anchor="middle" x="25" y="-8.5" font-family="Helvetica,sans-Serif" font-size="10.00">QString</text>
</g>
<!-- Node1&#45;&gt;Node2 -->
<g id="edge2" class="edge"><title>Node1&#45;&gt;Node2</title>
<path fill="none" stroke="midnightblue" d="M76.4448,-58.3619C67.3866,-50.0226 54.5903,-38.2418 44.0263,-28.5162"/>
<polygon fill="midnightblue" stroke="midnightblue" points="46.2095,-25.7688 36.4819,-21.5707 41.4683,-30.9187 46.2095,-25.7688"/>
</g>
<!-- Node3 -->
<g id="node5" class="node"><title>Node3</title>
<polygon fill="white" stroke="#bfbfbf" points="68,-0.5 68,-21.5 108,-21.5 108,-0.5 68,-0.5"/>
<text text-anchor="middle" x="88" y="-8.5" font-family="Helvetica,sans-Serif" font-size="10.00">QFile</text>
</g>
<!-- Node1&#45;&gt;Node3 -->
<g id="edge4" class="edge"><title>Node1&#45;&gt;Node3</title>
<path fill="none" stroke="midnightblue" d="M88,-58.3619C88,-50.9219 88,-40.7427 88,-31.7276"/>
<polygon fill="midnightblue" stroke="midnightblue" points="91.5001,-31.5706 88,-21.5707 84.5001,-31.5707 91.5001,-31.5706"/>
</g>
<!-- Node4 -->
<g id="node7" class="node"><title>Node4</title>
<polygon fill="white" stroke="#bfbfbf" points="126,-0.5 126,-21.5 200,-21.5 200,-0.5 126,-0.5"/>
<text text-anchor="middle" x="163" y="-8.5" font-family="Helvetica,sans-Serif" font-size="10.00">QMetaObject</text>
</g>
<!-- Node1&#45;&gt;Node4 -->
<g id="edge6" class="edge"><title>Node1&#45;&gt;Node4</title>
<path fill="none" stroke="midnightblue" d="M101.756,-58.3619C112.751,-49.859 128.373,-37.7785 141.086,-27.9466"/>
<polygon fill="midnightblue" stroke="midnightblue" points="143.562,-30.4569 149.331,-21.5707 139.279,-24.9195 143.562,-30.4569"/>
</g>
</g>
</svg>
