<?xml version="1.0" encoding="UTF-8" standalone="no"?>
<!DOCTYPE svg PUBLIC "-//W3C//DTD SVG 1.1//EN"
 "http://www.w3.org/Graphics/SVG/1.1/DTD/svg11.dtd">
<!-- Generated by graphviz version 2.26.3 (20100126.1600)
 -->
<!-- Title: src/fileloader.cpp Pages: 1 -->
<svg width="1504pt" height="320pt"
 viewBox="0.00 0.00 1504.00 320.00" xmlns="http://www.w3.org/2000/svg" xmlns:xlink="http://www.w3.org/1999/xlink">
<g id="graph1" class="graph" transform="scale(1 1) rotate(0) translate(4 316)">
<title>src/fileloader.cpp</title>
<polygon fill="white" stroke="white" points="-4,5 -4,-316 1501,-316 1501,5 -4,5"/>
<!-- Node1 -->
<g id="node1" class="node"><title>Node1</title>
<polygon fill="#bfbfbf" stroke="black" points="473.5,-290.5 473.5,-311.5 564.5,-311.5 564.5,-290.5 473.5,-290.5"/>
<text text-anchor="middle" x="519" y="-298.5" font-family="Helvetica,sans-Serif" font-size="10.00">src/fileloader.cpp</text>
</g>
<!-- Node2 -->
<g id="node3" class="node"><title>Node2</title>
<a xlink:href="fileloader_8hpp.html" target="_top" xlink:title="fileloader.hpp">
<polygon fill="white" stroke="black" points="98,-232.5 98,-253.5 172,-253.5 172,-232.5 98,-232.5"/>
<text text-anchor="middle" x="135" y="-240.5" font-family="Helvetica,sans-Serif" font-size="10.00">fileloader.hpp</text>
</a>
</g>
<!-- Node1&#45;&gt;Node2 -->
<g id="edge2" class="edge"><title>Node1&#45;&gt;Node2</title>
<path fill="none" stroke="midnightblue" d="M473.442,-294.119C400.107,-283.042 256.594,-261.366 182.216,-250.132"/>
<polygon fill="midnightblue" stroke="midnightblue" points="182.605,-246.651 172.194,-248.618 181.559,-253.572 182.605,-246.651"/>
</g>
<!-- Node6 -->
<g id="node11" class="node"><title>Node6</title>
<a xlink:href="viewport_8hpp.html" target="_top" xlink:title="viewport.hpp">
<polygon fill="white" stroke="black" points="828,-232.5 828,-253.5 900,-253.5 900,-232.5 828,-232.5"/>
<text text-anchor="middle" x="864" y="-240.5" font-family="Helvetica,sans-Serif" font-size="10.00">viewport.hpp</text>
</a>
</g>
<!-- Node1&#45;&gt;Node6 -->
<g id="edge10" class="edge"><title>Node1&#45;&gt;Node6</title>
<path fill="none" stroke="midnightblue" d="M564.813,-293.298C630.754,-282.212 751.74,-261.873 817.862,-250.757"/>
<polygon fill="midnightblue" stroke="midnightblue" points="818.704,-254.164 827.986,-249.055 817.544,-247.261 818.704,-254.164"/>
</g>
<!-- Node3 -->
<g id="node5" class="node"><title>Node3</title>
<polygon fill="white" stroke="#bfbfbf" points="150,-174.5 150,-195.5 200,-195.5 200,-174.5 150,-174.5"/>
<text text-anchor="middle" x="175" y="-182.5" font-family="Helvetica,sans-Serif" font-size="10.00">QString</text>
</g>
<!-- Node2&#45;&gt;Node3 -->
<g id="edge4" class="edge"><title>Node2&#45;&gt;Node3</title>
<path fill="none" stroke="midnightblue" d="M142.337,-232.362C147.806,-224.431 155.422,-213.389 161.924,-203.961"/>
<polygon fill="midnightblue" stroke="midnightblue" points="164.914,-205.79 167.71,-195.571 159.151,-201.816 164.914,-205.79"/>
</g>
<!-- Node4 -->
<g id="node7" class="node"><title>Node4</title>
<polygon fill="white" stroke="#bfbfbf" points="0,-174.5 0,-195.5 40,-195.5 40,-174.5 0,-174.5"/>
<text text-anchor="middle" x="20" y="-182.5" font-family="Helvetica,sans-Serif" font-size="10.00">QFile</text>
</g>
<!-- Node2&#45;&gt;Node4 -->
<g id="edge6" class="edge"><title>Node2&#45;&gt;Node4</title>
<path fill="none" stroke="midnightblue" d="M114.174,-232.497C96.0702,-223.366 69.6413,-210.036 49.386,-199.821"/>
<polygon fill="midnightblue" stroke="midnightblue" points="50.7895,-196.609 40.2847,-195.231 47.6372,-202.859 50.7895,-196.609"/>
</g>
<!-- Node5 -->
<g id="node9" class="node"><title>Node5</title>
<polygon fill="white" stroke="#bfbfbf" points="58,-174.5 58,-195.5 132,-195.5 132,-174.5 58,-174.5"/>
<text text-anchor="middle" x="95" y="-182.5" font-family="Helvetica,sans-Serif" font-size="10.00">QMetaObject</text>
</g>
<!-- Node2&#45;&gt;Node5 -->
<g id="edge8" class="edge"><title>Node2&#45;&gt;Node5</title>
<path fill="none" stroke="midnightblue" d="M127.663,-232.362C122.194,-224.431 114.578,-213.389 108.076,-203.961"/>
<polygon fill="midnightblue" stroke="midnightblue" points="110.849,-201.816 102.29,-195.571 105.086,-205.79 110.849,-201.816"/>
</g>
<!-- Node7 -->
<g id="node13" class="node"><title>Node7</title>
<polygon fill="white" stroke="#bfbfbf" points="959.5,-174.5 959.5,-195.5 1050.5,-195.5 1050.5,-174.5 959.5,-174.5"/>
<text text-anchor="middle" x="1005" y="-182.5" font-family="Helvetica,sans-Serif" font-size="10.00">QOpenGLWidget</text>
</g>
<!-- Node6&#45;&gt;Node7 -->
<g id="edge12" class="edge"><title>Node6&#45;&gt;Node7</title>
<path fill="none" stroke="midnightblue" d="M889.534,-232.497C911.953,-223.275 944.785,-209.769 969.713,-199.515"/>
<polygon fill="midnightblue" stroke="midnightblue" points="971.263,-202.662 979.179,-195.621 968.6,-196.189 971.263,-202.662"/>
</g>
<!-- Node8 -->
<g id="node15" class="node"><title>Node8</title>
<polygon fill="white" stroke="#bfbfbf" points="314.5,-0.5 314.5,-21.5 417.5,-21.5 417.5,-0.5 314.5,-0.5"/>
<text text-anchor="middle" x="366" y="-8.5" font-family="Helvetica,sans-Serif" font-size="10.00">QOpenGLFunctions</text>
</g>
<!-- Node6&#45;&gt;Node8 -->
<g id="edge14" class="edge"><title>Node6&#45;&gt;Node8</title>
<path fill="none" stroke="midnightblue" d="M827.766,-238.264C723.928,-224.297 427.156,-181.525 340,-138 299.014,-117.532 251.171,-97.1272 275,-58 284.038,-43.1598 299.435,-32.8009 315.02,-25.6644"/>
<polygon fill="midnightblue" stroke="midnightblue" points="316.813,-28.7086 324.693,-21.6261 314.117,-22.2489 316.813,-28.7086"/>
</g>
<!-- Node9 -->
<g id="node17" class="node"><title>Node9</title>
<polygon fill="white" stroke="#bfbfbf" points="781.5,-174.5 781.5,-195.5 858.5,-195.5 858.5,-174.5 781.5,-174.5"/>
<text text-anchor="middle" x="820" y="-182.5" font-family="Helvetica,sans-Serif" font-size="10.00">QWheelEvent</text>
</g>
<!-- Node6&#45;&gt;Node9 -->
<g id="edge16" class="edge"><title>Node6&#45;&gt;Node9</title>
<path fill="none" stroke="midnightblue" d="M855.93,-232.362C849.851,-224.35 841.363,-213.161 834.163,-203.67"/>
<polygon fill="midnightblue" stroke="midnightblue" points="836.851,-201.422 828.019,-195.571 831.275,-205.653 836.851,-201.422"/>
</g>
<!-- Node10 -->
<g id="node19" class="node"><title>Node10</title>
<polygon fill="white" stroke="#bfbfbf" points="875.5,-174.5 875.5,-195.5 942.5,-195.5 942.5,-174.5 875.5,-174.5"/>
<text text-anchor="middle" x="909" y="-182.5" font-family="Helvetica,sans-Serif" font-size="10.00">QKeyEvent</text>
</g>
<!-- Node6&#45;&gt;Node10 -->
<g id="edge18" class="edge"><title>Node6&#45;&gt;Node10</title>
<path fill="none" stroke="midnightblue" d="M872.254,-232.362C878.47,-224.35 887.151,-213.161 894.515,-203.67"/>
<polygon fill="midnightblue" stroke="midnightblue" points="897.434,-205.617 900.799,-195.571 891.903,-201.326 897.434,-205.617"/>
</g>
<!-- Node11 -->
<g id="node21" class="node"><title>Node11</title>
<a xlink:href="camera_8hpp.html" target="_top" xlink:title="camera.hpp">
<polygon fill="white" stroke="black" points="1250,-116.5 1250,-137.5 1318,-137.5 1318,-116.5 1250,-116.5"/>
<text text-anchor="middle" x="1284" y="-124.5" font-family="Helvetica,sans-Serif" font-size="10.00">camera.hpp</text>
</a>
</g>
<!-- Node6&#45;&gt;Node11 -->
<g id="edge20" class="edge"><title>Node6&#45;&gt;Node11</title>
<path fill="none" stroke="midnightblue" d="M900.034,-239.516C971.107,-232.33 1126.81,-214.943 1177,-196 1209.75,-183.638 1242.93,-160.163 1263.48,-144.057"/>
<polygon fill="midnightblue" stroke="midnightblue" points="1265.85,-146.641 1271.47,-137.659 1261.47,-141.176 1265.85,-146.641"/>
</g>
<!-- Node19 -->
<g id="node37" class="node"><title>Node19</title>
<a xlink:href="cube_8hpp.html" target="_top" xlink:title="cube.hpp">
<polygon fill="white" stroke="black" points="708,-174.5 708,-195.5 764,-195.5 764,-174.5 708,-174.5"/>
<text text-anchor="middle" x="736" y="-182.5" font-family="Helvetica,sans-Serif" font-size="10.00">cube.hpp</text>
</a>
</g>
<!-- Node6&#45;&gt;Node19 -->
<g id="edge36" class="edge"><title>Node6&#45;&gt;Node19</title>
<path fill="none" stroke="midnightblue" d="M840.82,-232.497C820.648,-223.356 791.19,-210.008 768.636,-199.788"/>
<polygon fill="midnightblue" stroke="midnightblue" points="769.993,-196.561 759.44,-195.621 767.104,-202.937 769.993,-196.561"/>
</g>
<!-- Node28 -->
<g id="node66" class="node"><title>Node28</title>
<a xlink:href="sphere_8hpp.html" target="_top" xlink:title="sphere.hpp">
<polygon fill="white" stroke="black" points="1103.5,-174.5 1103.5,-195.5 1168.5,-195.5 1168.5,-174.5 1103.5,-174.5"/>
<text text-anchor="middle" x="1136" y="-182.5" font-family="Helvetica,sans-Serif" font-size="10.00">sphere.hpp</text>
</a>
</g>
<!-- Node6&#45;&gt;Node28 -->
<g id="edge76" class="edge"><title>Node6&#45;&gt;Node28</title>
<path fill="none" stroke="midnightblue" d="M900.119,-235.298C950.079,-224.645 1040.12,-205.446 1093.33,-194.099"/>
<polygon fill="midnightblue" stroke="midnightblue" points="1094.09,-197.516 1103.14,-192.007 1092.63,-190.669 1094.09,-197.516"/>
</g>
<!-- Node12 -->
<g id="node23" class="node"><title>Node12</title>
<polygon fill="white" stroke="#bfbfbf" points="983.5,-58.5 983.5,-79.5 1036.5,-79.5 1036.5,-58.5 983.5,-58.5"/>
<text text-anchor="middle" x="1010" y="-66.5" font-family="Helvetica,sans-Serif" font-size="10.00">QObject</text>
</g>
<!-- Node11&#45;&gt;Node12 -->
<g id="edge22" class="edge"><title>Node11&#45;&gt;Node12</title>
<path fill="none" stroke="midnightblue" d="M1249.7,-121.48C1204.96,-114.013 1124.11,-99.6107 1046.59,-80.2282"/>
<polygon fill="midnightblue" stroke="midnightblue" points="1047.22,-76.7769 1036.67,-77.714 1045.5,-83.5626 1047.22,-76.7769"/>
</g>
<!-- Node13 -->
<g id="node25" class="node"><title>Node13</title>
<polygon fill="white" stroke="#bfbfbf" points="1053.5,-58.5 1053.5,-79.5 1118.5,-79.5 1118.5,-58.5 1053.5,-58.5"/>
<text text-anchor="middle" x="1086" y="-66.5" font-family="Helvetica,sans-Serif" font-size="10.00">QVector3D</text>
</g>
<!-- Node11&#45;&gt;Node13 -->
<g id="edge24" class="edge"><title>Node11&#45;&gt;Node13</title>
<path fill="none" stroke="midnightblue" d="M1249.96,-117.029C1216.31,-107.171 1164.72,-92.0592 1128.41,-81.4246"/>
<polygon fill="midnightblue" stroke="midnightblue" points="1129.19,-78.0043 1118.61,-78.5519 1127.22,-84.722 1129.19,-78.0043"/>
</g>
<!-- Node14 -->
<g id="node27" class="node"><title>Node14</title>
<polygon fill="white" stroke="#bfbfbf" points="1298.5,-0.5 1298.5,-21.5 1365.5,-21.5 1365.5,-0.5 1298.5,-0.5"/>
<text text-anchor="middle" x="1332" y="-8.5" font-family="Helvetica,sans-Serif" font-size="10.00">QMatrix4x4</text>
</g>
<!-- Node11&#45;&gt;Node14 -->
<g id="edge26" class="edge"><title>Node11&#45;&gt;Node14</title>
<path fill="none" stroke="midnightblue" d="M1304.01,-116.367C1316.9,-108.293 1332.6,-95.8751 1340,-80 1347.07,-64.8451 1344.13,-45.865 1339.96,-31.6492"/>
<polygon fill="midnightblue" stroke="midnightblue" points="1343.17,-30.2156 1336.67,-21.8493 1336.53,-32.4432 1343.17,-30.2156"/>
</g>
<!-- Node15 -->
<g id="node29" class="node"><title>Node15</title>
<a xlink:href="globals_8hpp.html" target="_top" xlink:title="Definitions globales. ">
<polygon fill="white" stroke="black" points="804,-0.5 804,-21.5 870,-21.5 870,-0.5 804,-0.5"/>
<text text-anchor="middle" x="837" y="-8.5" font-family="Helvetica,sans-Serif" font-size="10.00">globals.hpp</text>
</a>
</g>
<!-- Node11&#45;&gt;Node15 -->
<g id="edge28" class="edge"><title>Node11&#45;&gt;Node15</title>
<path fill="none" stroke="midnightblue" d="M1264.29,-116.383C1235.13,-101.132 1178.39,-73.1899 1127,-58 1041.58,-32.7546 937.755,-20.081 880.381,-14.575"/>
<polygon fill="midnightblue" stroke="midnightblue" points="880.505,-11.0714 870.224,-13.6289 879.856,-18.0413 880.505,-11.0714"/>
</g>
<!-- Node16 -->
<g id="node31" class="node"><title>Node16</title>
<polygon fill="white" stroke="#bfbfbf" points="1135.5,-0.5 1135.5,-21.5 1218.5,-21.5 1218.5,-0.5 1135.5,-0.5"/>
<text text-anchor="middle" x="1177" y="-8.5" font-family="Helvetica,sans-Serif" font-size="10.00">QMetaProperty</text>
</g>
<!-- Node11&#45;&gt;Node16 -->
<g id="edge30" class="edge"><title>Node11&#45;&gt;Node16</title>
<path fill="none" stroke="midnightblue" d="M1293.07,-116.326C1304.11,-101.983 1319.77,-76.191 1307,-58 1297.5,-44.4701 1260.59,-31.8925 1228.51,-23.1597"/>
<polygon fill="midnightblue" stroke="midnightblue" points="1229.31,-19.7505 1218.75,-20.5762 1227.52,-26.5177 1229.31,-19.7505"/>
</g>
<!-- Node17 -->
<g id="node33" class="node"><title>Node17</title>
<polygon fill="white" stroke="#bfbfbf" points="1392,-58.5 1392,-79.5 1496,-79.5 1496,-58.5 1392,-58.5"/>
<text text-anchor="middle" x="1444" y="-66.5" font-family="Helvetica,sans-Serif" font-size="10.00">QPropertyAnimation</text>
</g>
<!-- Node11&#45;&gt;Node17 -->
<g id="edge32" class="edge"><title>Node11&#45;&gt;Node17</title>
<path fill="none" stroke="midnightblue" d="M1312.97,-116.497C1338.83,-107.123 1376.9,-93.3242 1405.35,-83.0122"/>
<polygon fill="midnightblue" stroke="midnightblue" points="1406.76,-86.2216 1414.97,-79.5231 1404.38,-79.6406 1406.76,-86.2216"/>
</g>
<!-- Node18 -->
<g id="node35" class="node"><title>Node18</title>
<polygon fill="white" stroke="#bfbfbf" points="1249.5,-58.5 1249.5,-79.5 1298.5,-79.5 1298.5,-58.5 1249.5,-58.5"/>
<text text-anchor="middle" x="1274" y="-66.5" font-family="Helvetica,sans-Serif" font-size="10.00">QtMath</text>
</g>
<!-- Node11&#45;&gt;Node18 -->
<g id="edge34" class="edge"><title>Node11&#45;&gt;Node18</title>
<path fill="none" stroke="midnightblue" d="M1282.17,-116.362C1280.87,-108.84 1279.09,-98.5187 1277.52,-89.4308"/>
<polygon fill="midnightblue" stroke="midnightblue" points="1280.97,-88.8306 1275.82,-79.5707 1274.07,-90.02 1280.97,-88.8306"/>
</g>
<!-- Node19&#45;&gt;Node15 -->
<g id="edge68" class="edge"><title>Node19&#45;&gt;Node15</title>
<path fill="none" stroke="midnightblue" d="M707.795,-182.041C600.196,-170.222 224.542,-123.825 285,-58 319.177,-20.789 669.142,-12.9991 793.469,-11.4021"/>
<polygon fill="midnightblue" stroke="midnightblue" points="793.794,-14.8985 803.751,-11.2777 793.709,-7.89904 793.794,-14.8985"/>
</g>
<!-- Node19&#45;&gt;Node16 -->
<g id="edge72" class="edge"><title>Node19&#45;&gt;Node16</title>
<path fill="none" stroke="midnightblue" d="M764.257,-176.506C767.206,-175.648 770.162,-174.799 773,-174 929.702,-129.912 992.798,-172.135 1127,-80 1145.01,-67.6366 1158.88,-46.5804 1167.39,-30.9722"/>
<polygon fill="midnightblue" stroke="midnightblue" points="1170.73,-32.1398 1172.2,-21.6481 1164.51,-28.9301 1170.73,-32.1398"/>
</g>
<!-- Node20 -->
<g id="node39" class="node"><title>Node20</title>
<a xlink:href="geometry_8hpp.html" target="_top" xlink:title="geometry.hpp">
<polygon fill="white" stroke="black" points="698,-116.5 698,-137.5 774,-137.5 774,-116.5 698,-116.5"/>
<text text-anchor="middle" x="736" y="-124.5" font-family="Helvetica,sans-Serif" font-size="10.00">geometry.hpp</text>
</a>
</g>
<!-- Node19&#45;&gt;Node20 -->
<g id="edge38" class="edge"><title>Node19&#45;&gt;Node20</title>
<path fill="none" stroke="midnightblue" d="M736,-174.362C736,-166.922 736,-156.743 736,-147.728"/>
<polygon fill="midnightblue" stroke="midnightblue" points="739.5,-147.571 736,-137.571 732.5,-147.571 739.5,-147.571"/>
</g>
<!-- Node26 -->
<g id="node59" class="node"><title>Node26</title>
<polygon fill="white" stroke="#bfbfbf" points="294,-58.5 294,-79.5 338,-79.5 338,-58.5 294,-58.5"/>
<text text-anchor="middle" x="316" y="-66.5" font-family="Helvetica,sans-Serif" font-size="10.00">vector</text>
</g>
<!-- Node19&#45;&gt;Node26 -->
<g id="edge74" class="edge"><title>Node19&#45;&gt;Node26</title>
<path fill="none" stroke="midnightblue" d="M707.79,-177.209C632.541,-156.426 427.381,-99.7624 347.979,-77.8322"/>
<polygon fill="midnightblue" stroke="midnightblue" points="348.638,-74.3834 338.067,-75.0948 346.775,-81.1308 348.638,-74.3834"/>
</g>
<!-- Node27 -->
<g id="node62" class="node"><title>Node27</title>
<polygon fill="white" stroke="#bfbfbf" points="1147.5,-116.5 1147.5,-137.5 1194.5,-137.5 1194.5,-116.5 1147.5,-116.5"/>
<text text-anchor="middle" x="1171" y="-124.5" font-family="Helvetica,sans-Serif" font-size="10.00">QColor</text>
</g>
<!-- Node19&#45;&gt;Node27 -->
<g id="edge70" class="edge"><title>Node19&#45;&gt;Node27</title>
<path fill="none" stroke="midnightblue" d="M764.144,-176.034C767.115,-175.267 770.107,-174.569 773,-174 931.21,-142.886 975.79,-169.114 1134,-138 1135.08,-137.787 1136.18,-137.555 1137.29,-137.309"/>
<polygon fill="midnightblue" stroke="midnightblue" points="1138.45,-140.625 1147.28,-134.773 1136.73,-133.84 1138.45,-140.625"/>
</g>
<!-- Node20&#45;&gt;Node8 -->
<g id="edge44" class="edge"><title>Node20&#45;&gt;Node8</title>
<path fill="none" stroke="midnightblue" d="M697.901,-124.261C611.888,-117.747 408.304,-100.341 385,-80 371.441,-68.1656 367.143,-47.6343 365.967,-32.0359"/>
<polygon fill="midnightblue" stroke="midnightblue" points="369.453,-31.6039 365.574,-21.7446 362.458,-31.8708 369.453,-31.6039"/>
</g>
<!-- Node20&#45;&gt;Node12 -->
<g id="edge40" class="edge"><title>Node20&#45;&gt;Node12</title>
<path fill="none" stroke="midnightblue" d="M774.372,-120.798C819.789,-113.163 897.849,-99.1183 973.204,-80.2802"/>
<polygon fill="midnightblue" stroke="midnightblue" points="974.5,-83.5626 983.334,-77.714 972.781,-76.7769 974.5,-83.5626"/>
</g>
<!-- Node20&#45;&gt;Node13 -->
<g id="edge42" class="edge"><title>Node20&#45;&gt;Node13</title>
<path fill="none" stroke="midnightblue" d="M774.301,-122.565C831.108,-115.686 941.183,-101.195 1043.53,-80.1523"/>
<polygon fill="midnightblue" stroke="midnightblue" points="1044.33,-83.5605 1053.4,-78.0955 1042.9,-76.7075 1044.33,-83.5605"/>
</g>
<!-- Node20&#45;&gt;Node15 -->
<g id="edge52" class="edge"><title>Node20&#45;&gt;Node15</title>
<path fill="none" stroke="midnightblue" d="M736.481,-116.06C737.645,-101.415 741.601,-75.282 755,-58 765.907,-43.9321 782.296,-33.3471 797.561,-25.8193"/>
<polygon fill="midnightblue" stroke="midnightblue" points="799.251,-28.8942 806.862,-21.5235 796.316,-22.5393 799.251,-28.8942"/>
</g>
<!-- Node21 -->
<g id="node44" class="node"><title>Node21</title>
<polygon fill="white" stroke="#bfbfbf" points="764,-58.5 764,-79.5 892,-79.5 892,-58.5 764,-58.5"/>
<text text-anchor="middle" x="828" y="-66.5" font-family="Helvetica,sans-Serif" font-size="10.00">QOpenGLShaderProgram</text>
</g>
<!-- Node20&#45;&gt;Node21 -->
<g id="edge46" class="edge"><title>Node20&#45;&gt;Node21</title>
<path fill="none" stroke="midnightblue" d="M752.874,-116.362C766.751,-107.614 786.634,-95.0786 802.46,-85.1015"/>
<polygon fill="midnightblue" stroke="midnightblue" points="804.64,-87.8645 811.233,-79.5707 800.907,-81.943 804.64,-87.8645"/>
</g>
<!-- Node22 -->
<g id="node46" class="node"><title>Node22</title>
<polygon fill="white" stroke="#bfbfbf" points="394,-58.5 394,-79.5 480,-79.5 480,-58.5 394,-58.5"/>
<text text-anchor="middle" x="437" y="-66.5" font-family="Helvetica,sans-Serif" font-size="10.00">QOpenGLBuffer</text>
</g>
<!-- Node20&#45;&gt;Node22 -->
<g id="edge48" class="edge"><title>Node20&#45;&gt;Node22</title>
<path fill="none" stroke="midnightblue" d="M697.871,-119.994C651.299,-111.383 569.854,-96.1459 490.309,-80.2361"/>
<polygon fill="midnightblue" stroke="midnightblue" points="490.609,-76.7267 480.116,-78.1915 489.233,-83.59 490.609,-76.7267"/>
</g>
<!-- Node23 -->
<g id="node48" class="node"><title>Node23</title>
<polygon fill="white" stroke="#bfbfbf" points="498,-58.5 498,-79.5 638,-79.5 638,-58.5 498,-58.5"/>
<text text-anchor="middle" x="568" y="-66.5" font-family="Helvetica,sans-Serif" font-size="10.00">QOpenGLVertexArrayObject</text>
</g>
<!-- Node20&#45;&gt;Node23 -->
<g id="edge50" class="edge"><title>Node20&#45;&gt;Node23</title>
<path fill="none" stroke="midnightblue" d="M705.576,-116.497C678.306,-107.082 638.107,-93.2036 608.196,-82.8773"/>
<polygon fill="midnightblue" stroke="midnightblue" points="609.075,-79.4781 598.481,-79.5231 606.791,-86.0949 609.075,-79.4781"/>
</g>
<!-- Node24 -->
<g id="node51" class="node"><title>Node24</title>
<a xlink:href="actor_8hpp.html" target="_top" xlink:title="actor.hpp">
<polygon fill="white" stroke="black" points="909.5,-58.5 909.5,-79.5 966.5,-79.5 966.5,-58.5 909.5,-58.5"/>
<text text-anchor="middle" x="938" y="-66.5" font-family="Helvetica,sans-Serif" font-size="10.00">actor.hpp</text>
</a>
</g>
<!-- Node20&#45;&gt;Node24 -->
<g id="edge54" class="edge"><title>Node20&#45;&gt;Node24</title>
<path fill="none" stroke="midnightblue" d="M773.388,-116.482C804.762,-107.627 851.011,-94.5043 899.584,-80.3941"/>
<polygon fill="midnightblue" stroke="midnightblue" points="900.702,-83.7142 909.326,-77.5599 898.747,-76.9928 900.702,-83.7142"/>
</g>
<!-- Node25 -->
<g id="node57" class="node"><title>Node25</title>
<polygon fill="white" stroke="#bfbfbf" points="656,-58.5 656,-79.5 708,-79.5 708,-58.5 656,-58.5"/>
<text text-anchor="middle" x="682" y="-66.5" font-family="Helvetica,sans-Serif" font-size="10.00">memory</text>
</g>
<!-- Node20&#45;&gt;Node25 -->
<g id="edge64" class="edge"><title>Node20&#45;&gt;Node25</title>
<path fill="none" stroke="midnightblue" d="M726.096,-116.362C718.484,-108.186 707.792,-96.7025 698.843,-87.0907"/>
<polygon fill="midnightblue" stroke="midnightblue" points="701.217,-84.5046 691.842,-79.5707 696.094,-89.2746 701.217,-84.5046"/>
</g>
<!-- Node20&#45;&gt;Node26 -->
<g id="edge66" class="edge"><title>Node20&#45;&gt;Node26</title>
<path fill="none" stroke="midnightblue" d="M697.756,-124.542C628.287,-119.587 476.995,-106.533 352,-80 350.741,-79.7328 349.463,-79.4417 348.177,-79.1319"/>
<polygon fill="midnightblue" stroke="midnightblue" points="348.876,-75.6957 338.31,-76.4781 347.058,-82.4554 348.876,-75.6957"/>
</g>
<!-- Node24&#45;&gt;Node8 -->
<g id="edge60" class="edge"><title>Node24&#45;&gt;Node8</title>
<path fill="none" stroke="midnightblue" d="M909.457,-59.8956C906.618,-59.1769 903.765,-58.5269 901,-58 731.818,-25.7611 528.25,-15.5764 427.995,-12.4041"/>
<polygon fill="midnightblue" stroke="midnightblue" points="427.847,-8.8981 417.745,-12.093 427.635,-15.8949 427.847,-8.8981"/>
</g>
<!-- Node24&#45;&gt;Node14 -->
<g id="edge58" class="edge"><title>Node24&#45;&gt;Node14</title>
<path fill="none" stroke="midnightblue" d="M966.568,-60.0208C969.402,-59.2767 972.247,-58.5866 975,-58 1034,-45.4284 1206.94,-25.0996 1288.49,-15.8548"/>
<polygon fill="midnightblue" stroke="midnightblue" points="1288.9,-19.3317 1298.44,-14.7309 1288.11,-12.3759 1288.9,-19.3317"/>
</g>
<!-- Node24&#45;&gt;Node15 -->
<g id="edge56" class="edge"><title>Node24&#45;&gt;Node15</title>
<path fill="none" stroke="midnightblue" d="M919.475,-58.3619C904.099,-49.532 882.004,-36.844 864.553,-26.8224"/>
<polygon fill="midnightblue" stroke="midnightblue" points="865.822,-23.5154 855.408,-21.5707 862.336,-29.5857 865.822,-23.5154"/>
</g>
<!-- Node24&#45;&gt;Node16 -->
<g id="edge62" class="edge"><title>Node24&#45;&gt;Node16</title>
<path fill="none" stroke="midnightblue" d="M966.635,-60.3011C969.455,-59.5003 972.279,-58.7203 975,-58 1025.86,-44.5362 1084.47,-31.1302 1125.41,-22.1024"/>
<polygon fill="midnightblue" stroke="midnightblue" points="1126.41,-25.4671 1135.42,-19.9041 1124.91,-18.6299 1126.41,-25.4671"/>
</g>
<!-- Node28&#45;&gt;Node16 -->
<g id="edge80" class="edge"><title>Node28&#45;&gt;Node16</title>
<path fill="none" stroke="midnightblue" d="M1161.5,-174.488C1176.54,-166.797 1194.28,-154.766 1203,-138 1221.23,-102.943 1202.23,-56.2371 1188.49,-30.3495"/>
<polygon fill="midnightblue" stroke="midnightblue" points="1191.49,-28.5486 1183.57,-21.5149 1185.37,-31.9544 1191.49,-28.5486"/>
</g>
<!-- Node28&#45;&gt;Node20 -->
<g id="edge78" class="edge"><title>Node28&#45;&gt;Node20</title>
<path fill="none" stroke="midnightblue" d="M1103.27,-180.254C1032.86,-170.044 866.73,-145.956 784.227,-133.993"/>
<polygon fill="midnightblue" stroke="midnightblue" points="784.513,-130.498 774.115,-132.527 783.509,-137.425 784.513,-130.498"/>
</g>
<!-- Node28&#45;&gt;Node27 -->
<g id="edge82" class="edge"><title>Node28&#45;&gt;Node27</title>
<path fill="none" stroke="midnightblue" d="M1142.42,-174.362C1147.16,-166.513 1153.73,-155.616 1159.38,-146.253"/>
<polygon fill="midnightblue" stroke="midnightblue" points="1162.45,-147.941 1164.62,-137.571 1156.46,-144.324 1162.45,-147.941"/>
</g>
</g>
</svg>
