<?xml version="1.0" encoding="UTF-8" standalone="no"?>
<!DOCTYPE svg PUBLIC "-//W3C//DTD SVG 1.1//EN"
 "http://www.w3.org/Graphics/SVG/1.1/DTD/svg11.dtd">
<!-- Generated by graphviz version 2.26.3 (20100126.1600)
 -->
<!-- Title: src/fileloader.cpp Pages: 1 -->
<!--zoomable 392 -->
<svg id="main" version="1.1" xmlns="http://www.w3.org/2000/svg" xmlns:xlink="http://www.w3.org/1999/xlink" xml:space="preserve" onload="init(evt)">
<style type="text/css"><![CDATA[
.edge:hover path { stroke: red; }
.edge:hover polygon { stroke: red; fill: red; }
]]></style>
<script type="text/javascript"><![CDATA[
var edges = document.getElementsByTagName('g');
if (edges && edges.length) {
  for (var i=0;i<edges.length;i++) {
    if (edges[i].id.substr(0,4)=='edge') {
      edges[i].setAttribute('class','edge');
    }
  }
}
]]></script>
        <defs>
                <circle id="rim" cx="0" cy="0" r="7"/>
                <circle id="rim2" cx="0" cy="0" r="3.5"/>
                <g id="zoomPlus">
                        <use xlink:href="#rim" fill="#404040">
                                <set attributeName="fill" to="#808080" begin="zoomplus.mouseover" end="zoomplus.mouseout"/>
                        </use>
                        <path d="M-4,0h8M0,-4v8" fill="none" stroke="white" stroke-width="1.5" pointer-events="none"/>
                </g>
                <g id="zoomMin">
                        <use xlink:href="#rim" fill="#404040">
                                <set attributeName="fill" to="#808080" begin="zoomminus.mouseover" end="zoomminus.mouseout"/>
                        </use>
                        <path d="M-4,0h8" fill="none" stroke="white" stroke-width="1.5" pointer-events="none"/>
                </g>
                <g id="dirArrow">
                        <path fill="none" stroke="white" stroke-width="1.5" d="M0,-3.0v7 M-2.5,-0.5L0,-3.0L2.5,-0.5"/>
                </g>
               <g id="resetDef">
                       <use xlink:href="#rim2" fill="#404040">
                               <set attributeName="fill" to="#808080" begin="reset.mouseover" end="reset.mouseout"/>
                       </use>
               </g>
        </defs>

<script type="text/javascript">
var viewWidth = 1757;
var viewHeight = 392;
var sectionId = 'dynsection-0';
</script>
<script xlink:href="svgpan.js"/>
<svg id="graph" class="graph">
<g id="viewport">
<title>src/fileloader.cpp</title>
<polygon fill="white" stroke="white" points="-4,5 -4,-388 1754,-388 1754,5 -4,5"/>
<!-- Node1 -->
<g id="node1" class="node"><title>Node1</title>
<polygon fill="#bfbfbf" stroke="black" points="312.5,-362.5 312.5,-383.5 403.5,-383.5 403.5,-362.5 312.5,-362.5"/>
<text text-anchor="middle" x="358" y="-370.5" font-family="Helvetica,sans-Serif" font-size="10.00">src/fileloader.cpp</text>
</g>
<!-- Node2 -->
<g id="node3" class="node"><title>Node2</title>
<a xlink:href="fileloader_8hpp.html" target="_top" xlink:title="fileloader.hpp">
<polygon fill="white" stroke="black" points="86,-304.5 86,-325.5 160,-325.5 160,-304.5 86,-304.5"/>
<text text-anchor="middle" x="123" y="-312.5" font-family="Helvetica,sans-Serif" font-size="10.00">fileloader.hpp</text>
</a>
</g>
<!-- Node1&#45;&gt;Node2 -->
<g id="edge2" class="edge"><title>Node1&#45;&gt;Node2</title>
<path fill="none" stroke="midnightblue" d="M315.443,-362.497C274.423,-352.372 212.487,-337.086 170.025,-326.606"/>
<polygon fill="midnightblue" stroke="midnightblue" points="170.756,-323.182 160.209,-324.184 169.079,-329.978 170.756,-323.182"/>
</g>
<!-- Node6 -->
<g id="node11" class="node"><title>Node6</title>
<a xlink:href="viewport_8hpp.html" target="_top" xlink:title="viewport.hpp">
<polygon fill="white" stroke="black" points="518,-304.5 518,-325.5 590,-325.5 590,-304.5 518,-304.5"/>
<text text-anchor="middle" x="554" y="-312.5" font-family="Helvetica,sans-Serif" font-size="10.00">viewport.hpp</text>
</a>
</g>
<!-- Node1&#45;&gt;Node6 -->
<g id="edge10" class="edge"><title>Node1&#45;&gt;Node6</title>
<path fill="none" stroke="midnightblue" d="M393.494,-362.497C425.724,-352.959 473.434,-338.841 508.464,-328.475"/>
<polygon fill="midnightblue" stroke="midnightblue" points="509.844,-331.717 518.439,-325.523 507.857,-325.005 509.844,-331.717"/>
</g>
<!-- Node3 -->
<g id="node5" class="node"><title>Node3</title>
<polygon fill="white" stroke="#bfbfbf" points="58,-239.5 58,-260.5 108,-260.5 108,-239.5 58,-239.5"/>
<text text-anchor="middle" x="83" y="-247.5" font-family="Helvetica,sans-Serif" font-size="10.00">QString</text>
</g>
<!-- Node2&#45;&gt;Node3 -->
<g id="edge4" class="edge"><title>Node2&#45;&gt;Node3</title>
<path fill="none" stroke="midnightblue" d="M116.395,-304.267C110.57,-294.801 101.94,-280.777 94.912,-269.357"/>
<polygon fill="midnightblue" stroke="midnightblue" points="97.7041,-267.216 89.4823,-260.534 91.7425,-270.885 97.7041,-267.216"/>
</g>
<!-- Node4 -->
<g id="node7" class="node"><title>Node4</title>
<polygon fill="white" stroke="#bfbfbf" points="0,-239.5 0,-260.5 40,-260.5 40,-239.5 0,-239.5"/>
<text text-anchor="middle" x="20" y="-247.5" font-family="Helvetica,sans-Serif" font-size="10.00">QFile</text>
</g>
<!-- Node2&#45;&gt;Node4 -->
<g id="edge6" class="edge"><title>Node2&#45;&gt;Node4</title>
<path fill="none" stroke="midnightblue" d="M105.992,-304.267C89.4929,-293.855 64.2534,-277.927 45.3796,-266.016"/>
<polygon fill="midnightblue" stroke="midnightblue" points="47.0166,-262.911 36.6919,-260.534 43.2808,-268.83 47.0166,-262.911"/>
</g>
<!-- Node5 -->
<g id="node9" class="node"><title>Node5</title>
<polygon fill="white" stroke="#bfbfbf" points="126,-239.5 126,-260.5 200,-260.5 200,-239.5 126,-239.5"/>
<text text-anchor="middle" x="163" y="-247.5" font-family="Helvetica,sans-Serif" font-size="10.00">QMetaObject</text>
</g>
<!-- Node2&#45;&gt;Node5 -->
<g id="edge8" class="edge"><title>Node2&#45;&gt;Node5</title>
<path fill="none" stroke="midnightblue" d="M129.605,-304.267C135.43,-294.801 144.06,-280.777 151.088,-269.357"/>
<polygon fill="midnightblue" stroke="midnightblue" points="154.258,-270.885 156.518,-260.534 148.296,-267.216 154.258,-270.885"/>
</g>
<!-- Node6&#45;&gt;Node5 -->
<g id="edge26" class="edge"><title>Node6&#45;&gt;Node5</title>
<path fill="none" stroke="midnightblue" d="M517.947,-312.914C454.568,-308.624 319.431,-296.692 209,-268 204.891,-266.933 200.652,-265.605 196.486,-264.158"/>
<polygon fill="midnightblue" stroke="midnightblue" points="197.586,-260.833 186.993,-260.63 195.147,-267.394 197.586,-260.833"/>
</g>
<!-- Node7 -->
<g id="node13" class="node"><title>Node7</title>
<polygon fill="white" stroke="#bfbfbf" points="804.5,-239.5 804.5,-260.5 895.5,-260.5 895.5,-239.5 804.5,-239.5"/>
<text text-anchor="middle" x="850" y="-247.5" font-family="Helvetica,sans-Serif" font-size="10.00">QOpenGLWidget</text>
</g>
<!-- Node6&#45;&gt;Node7 -->
<g id="edge12" class="edge"><title>Node6&#45;&gt;Node7</title>
<path fill="none" stroke="midnightblue" d="M590.388,-308.954C637.127,-300.921 720.615,-285.668 791,-268 796.388,-266.647 802.015,-265.104 807.563,-263.502"/>
<polygon fill="midnightblue" stroke="midnightblue" points="808.804,-266.785 817.396,-260.586 806.813,-260.074 808.804,-266.785"/>
</g>
<!-- Node8 -->
<g id="node15" class="node"><title>Node8</title>
<polygon fill="white" stroke="#bfbfbf" points="912.5,-233 912.5,-267 1025.5,-267 1025.5,-233 912.5,-233"/>
<text text-anchor="start" x="920.5" y="-254" font-family="Helvetica,sans-Serif" font-size="10.00">QOpenGLFunctions_4</text>
<text text-anchor="middle" x="969" y="-241" font-family="Helvetica,sans-Serif" font-size="10.00">_3_Core</text>
</g>
<!-- Node6&#45;&gt;Node8 -->
<g id="edge14" class="edge"><title>Node6&#45;&gt;Node8</title>
<path fill="none" stroke="midnightblue" d="M590.045,-311.8C652.064,-305.941 783.058,-292.017 902.358,-268.199"/>
<polygon fill="midnightblue" stroke="midnightblue" points="903.284,-271.583 912.39,-266.167 901.894,-264.722 903.284,-271.583"/>
</g>
<!-- Node9 -->
<g id="node17" class="node"><title>Node9</title>
<polygon fill="white" stroke="#bfbfbf" points="1042.5,-239.5 1042.5,-260.5 1183.5,-260.5 1183.5,-239.5 1042.5,-239.5"/>
<text text-anchor="middle" x="1113" y="-247.5" font-family="Helvetica,sans-Serif" font-size="10.00">QOpenGLFramebufferObject</text>
</g>
<!-- Node6&#45;&gt;Node9 -->
<g id="edge16" class="edge"><title>Node6&#45;&gt;Node9</title>
<path fill="none" stroke="midnightblue" d="M590.028,-313.033C670.211,-308.316 869.317,-294.714 1034,-268 1042.97,-266.544 1052.45,-264.677 1061.61,-262.698"/>
<polygon fill="midnightblue" stroke="midnightblue" points="1062.37,-266.112 1071.37,-260.521 1060.85,-259.28 1062.37,-266.112"/>
</g>
<!-- Node10 -->
<g id="node19" class="node"><title>Node10</title>
<polygon fill="white" stroke="#bfbfbf" points="217.5,-239.5 217.5,-260.5 272.5,-260.5 272.5,-239.5 217.5,-239.5"/>
<text text-anchor="middle" x="245" y="-247.5" font-family="Helvetica,sans-Serif" font-size="10.00">QPainter</text>
</g>
<!-- Node6&#45;&gt;Node10 -->
<g id="edge18" class="edge"><title>Node6&#45;&gt;Node10</title>
<path fill="none" stroke="midnightblue" d="M517.852,-312.169C464.804,-307.262 363.252,-294.99 281,-268 278.261,-267.101 275.47,-266.025 272.715,-264.851"/>
<polygon fill="midnightblue" stroke="midnightblue" points="274.156,-261.661 263.614,-260.604 271.196,-268.005 274.156,-261.661"/>
</g>
<!-- Node11 -->
<g id="node21" class="node"><title>Node11</title>
<polygon fill="white" stroke="#bfbfbf" points="289.5,-239.5 289.5,-260.5 366.5,-260.5 366.5,-239.5 289.5,-239.5"/>
<text text-anchor="middle" x="328" y="-247.5" font-family="Helvetica,sans-Serif" font-size="10.00">QWheelEvent</text>
</g>
<!-- Node6&#45;&gt;Node11 -->
<g id="edge20" class="edge"><title>Node6&#45;&gt;Node11</title>
<path fill="none" stroke="midnightblue" d="M517.667,-306.69C481.264,-298.077 423.784,-283.695 375,-268 371.27,-266.8 367.405,-265.468 363.566,-264.087"/>
<polygon fill="midnightblue" stroke="midnightblue" points="364.763,-260.798 354.17,-260.602 362.328,-267.361 364.763,-260.798"/>
</g>
<!-- Node12 -->
<g id="node23" class="node"><title>Node12</title>
<polygon fill="white" stroke="#bfbfbf" points="383.5,-239.5 383.5,-260.5 450.5,-260.5 450.5,-239.5 383.5,-239.5"/>
<text text-anchor="middle" x="417" y="-247.5" font-family="Helvetica,sans-Serif" font-size="10.00">QKeyEvent</text>
</g>
<!-- Node6&#45;&gt;Node12 -->
<g id="edge22" class="edge"><title>Node6&#45;&gt;Node12</title>
<path fill="none" stroke="midnightblue" d="M531.684,-304.412C509.094,-293.694 473.96,-277.025 448.531,-264.96"/>
<polygon fill="midnightblue" stroke="midnightblue" points="449.842,-261.708 439.307,-260.584 446.841,-268.032 449.842,-261.708"/>
</g>
<!-- Node13 -->
<g id="node25" class="node"><title>Node13</title>
<polygon fill="white" stroke="#bfbfbf" points="581.5,-116.5 581.5,-137.5 628.5,-137.5 628.5,-116.5 581.5,-116.5"/>
<text text-anchor="middle" x="605" y="-124.5" font-family="Helvetica,sans-Serif" font-size="10.00">QColor</text>
</g>
<!-- Node6&#45;&gt;Node13 -->
<g id="edge24" class="edge"><title>Node6&#45;&gt;Node13</title>
<path fill="none" stroke="midnightblue" d="M556.888,-304.354C565.111,-274.043 588.747,-186.914 599.525,-147.182"/>
<polygon fill="midnightblue" stroke="midnightblue" points="602.903,-148.097 602.144,-137.53 596.147,-146.264 602.903,-148.097"/>
</g>
<!-- Node14 -->
<g id="node28" class="node"><title>Node14</title>
<polygon fill="white" stroke="#bfbfbf" points="443.5,-0.5 443.5,-21.5 492.5,-21.5 492.5,-0.5 443.5,-0.5"/>
<text text-anchor="middle" x="468" y="-8.5" font-family="Helvetica,sans-Serif" font-size="10.00">QtMath</text>
</g>
<!-- Node6&#45;&gt;Node14 -->
<g id="edge28" class="edge"><title>Node6&#45;&gt;Node14</title>
<path fill="none" stroke="midnightblue" d="M544.722,-304.404C522.624,-278.352 467.354,-208.17 449,-138 439.325,-101.01 451.14,-56.5839 459.994,-31.2858"/>
<polygon fill="midnightblue" stroke="midnightblue" points="463.356,-32.2856 463.536,-21.6923 456.789,-29.8611 463.356,-32.2856"/>
</g>
<!-- Node15 -->
<g id="node30" class="node"><title>Node15</title>
<a xlink:href="camera_8hpp.html" target="_top" xlink:title="camera.hpp">
<polygon fill="white" stroke="black" points="458,-116.5 458,-137.5 526,-137.5 526,-116.5 458,-116.5"/>
<text text-anchor="middle" x="492" y="-124.5" font-family="Helvetica,sans-Serif" font-size="10.00">camera.hpp</text>
</a>
</g>
<!-- Node6&#45;&gt;Node15 -->
<g id="edge30" class="edge"><title>Node6&#45;&gt;Node15</title>
<path fill="none" stroke="midnightblue" d="M550.489,-304.354C540.493,-274.043 511.759,-186.914 498.656,-147.182"/>
<polygon fill="midnightblue" stroke="midnightblue" points="501.928,-145.93 495.473,-137.53 495.281,-148.123 501.928,-145.93"/>
</g>
<!-- Node23 -->
<g id="node50" class="node"><title>Node23</title>
<a xlink:href="cube_8hpp.html" target="_top" xlink:title="cube.hpp">
<polygon fill="white" stroke="black" points="611,-239.5 611,-260.5 667,-260.5 667,-239.5 611,-239.5"/>
<text text-anchor="middle" x="639" y="-247.5" font-family="Helvetica,sans-Serif" font-size="10.00">cube.hpp</text>
</a>
</g>
<!-- Node6&#45;&gt;Node23 -->
<g id="edge54" class="edge"><title>Node6&#45;&gt;Node23</title>
<path fill="none" stroke="midnightblue" d="M568.036,-304.267C581.404,-294.044 601.725,-278.504 617.201,-266.67"/>
<polygon fill="midnightblue" stroke="midnightblue" points="619.408,-269.389 625.225,-260.534 615.155,-263.828 619.408,-269.389"/>
</g>
<!-- Node34 -->
<g id="node87" class="node"><title>Node34</title>
<a xlink:href="sphere_8hpp.html" target="_top" xlink:title="sphere.hpp">
<polygon fill="white" stroke="black" points="684.5,-239.5 684.5,-260.5 749.5,-260.5 749.5,-239.5 684.5,-239.5"/>
<text text-anchor="middle" x="717" y="-247.5" font-family="Helvetica,sans-Serif" font-size="10.00">sphere.hpp</text>
</a>
</g>
<!-- Node6&#45;&gt;Node34 -->
<g id="edge106" class="edge"><title>Node6&#45;&gt;Node34</title>
<path fill="none" stroke="midnightblue" d="M582.742,-304.353C607.558,-295.06 644.309,-281.053 676,-268 678.541,-266.954 681.161,-265.853 683.791,-264.733"/>
<polygon fill="midnightblue" stroke="midnightblue" points="685.439,-267.834 693.231,-260.656 682.663,-261.408 685.439,-267.834"/>
</g>
<!-- Node35 -->
<g id="node92" class="node"><title>Node35</title>
<a xlink:href="world_8hpp.html" target="_top" xlink:title="world.hpp">
<polygon fill="white" stroke="black" points="1660.5,-174.5 1660.5,-195.5 1719.5,-195.5 1719.5,-174.5 1660.5,-174.5"/>
<text text-anchor="middle" x="1690" y="-182.5" font-family="Helvetica,sans-Serif" font-size="10.00">world.hpp</text>
</a>
</g>
<!-- Node6&#45;&gt;Node35 -->
<g id="edge114" class="edge"><title>Node6&#45;&gt;Node35</title>
<path fill="none" stroke="midnightblue" d="M590.292,-312.428C632.731,-308.153 704.035,-296.951 758,-268 778.501,-257.002 774.575,-241.067 796,-232 883.157,-195.117 1553.37,-209.802 1647,-196 1648.07,-195.843 1649.15,-195.67 1650.23,-195.483"/>
<polygon fill="midnightblue" stroke="midnightblue" points="1650.98,-198.904 1660.09,-193.499 1649.6,-192.041 1650.98,-198.904"/>
</g>
<!-- Node15&#45;&gt;Node14 -->
<g id="edge52" class="edge"><title>Node15&#45;&gt;Node14</title>
<path fill="none" stroke="midnightblue" d="M489.785,-116.295C485.802,-97.0451 477.37,-56.2889 472.243,-31.5091"/>
<polygon fill="midnightblue" stroke="midnightblue" points="475.663,-30.7627 470.209,-21.6792 468.808,-32.181 475.663,-30.7627"/>
</g>
<!-- Node16 -->
<g id="node32" class="node"><title>Node16</title>
<polygon fill="white" stroke="#bfbfbf" points="810.5,-0.5 810.5,-21.5 863.5,-21.5 863.5,-0.5 810.5,-0.5"/>
<text text-anchor="middle" x="837" y="-8.5" font-family="Helvetica,sans-Serif" font-size="10.00">QObject</text>
</g>
<!-- Node15&#45;&gt;Node16 -->
<g id="edge32" class="edge"><title>Node15&#45;&gt;Node16</title>
<path fill="none" stroke="midnightblue" d="M524.17,-116.434C552.967,-106.956 596.332,-92.6354 634,-80 692.398,-60.4111 760.118,-37.3166 800.709,-23.4332"/>
<polygon fill="midnightblue" stroke="midnightblue" points="802.093,-26.6587 810.422,-20.1097 799.827,-20.0357 802.093,-26.6587"/>
</g>
<!-- Node17 -->
<g id="node34" class="node"><title>Node17</title>
<polygon fill="white" stroke="#bfbfbf" points="633.5,-0.5 633.5,-21.5 698.5,-21.5 698.5,-0.5 633.5,-0.5"/>
<text text-anchor="middle" x="666" y="-8.5" font-family="Helvetica,sans-Serif" font-size="10.00">QVector3D</text>
</g>
<!-- Node15&#45;&gt;Node17 -->
<g id="edge34" class="edge"><title>Node15&#45;&gt;Node17</title>
<path fill="none" stroke="midnightblue" d="M526.011,-118.252C550.651,-110.797 583.905,-98.3422 609,-80 627.491,-66.4847 643.586,-45.6567 653.914,-30.4184"/>
<polygon fill="midnightblue" stroke="midnightblue" points="657.026,-32.0534 659.569,-21.7681 651.167,-28.2232 657.026,-32.0534"/>
</g>
<!-- Node18 -->
<g id="node36" class="node"><title>Node18</title>
<polygon fill="white" stroke="#bfbfbf" points="972.5,-58.5 972.5,-79.5 1039.5,-79.5 1039.5,-58.5 972.5,-58.5"/>
<text text-anchor="middle" x="1006" y="-66.5" font-family="Helvetica,sans-Serif" font-size="10.00">QMatrix4x4</text>
</g>
<!-- Node15&#45;&gt;Node18 -->
<g id="edge36" class="edge"><title>Node15&#45;&gt;Node18</title>
<path fill="none" stroke="midnightblue" d="M526.263,-122.14C540.682,-120.148 557.645,-117.876 573,-116 715.228,-98.6267 884.142,-81.2216 962.309,-73.3506"/>
<polygon fill="midnightblue" stroke="midnightblue" points="962.678,-76.8312 972.278,-72.349 961.978,-69.8663 962.678,-76.8312"/>
</g>
<!-- Node19 -->
<g id="node38" class="node"><title>Node19</title>
<a xlink:href="globals_8hpp.html" target="_top" xlink:title="Definitions globales. ">
<polygon fill="white" stroke="black" points="732,-58.5 732,-79.5 798,-79.5 798,-58.5 732,-58.5"/>
<text text-anchor="middle" x="765" y="-66.5" font-family="Helvetica,sans-Serif" font-size="10.00">globals.hpp</text>
</a>
</g>
<!-- Node15&#45;&gt;Node19 -->
<g id="edge38" class="edge"><title>Node15&#45;&gt;Node19</title>
<path fill="none" stroke="midnightblue" d="M526.064,-119.08C530.742,-118.025 535.487,-116.973 540,-116 618.899,-98.9839 639.141,-97.1986 718,-80 719.267,-79.7238 720.552,-79.4408 721.848,-79.1528"/>
<polygon fill="midnightblue" stroke="midnightblue" points="722.923,-82.4983 731.904,-76.8786 721.379,-75.6707 722.923,-82.4983"/>
</g>
<!-- Node21 -->
<g id="node45" class="node"><title>Node21</title>
<polygon fill="white" stroke="#bfbfbf" points="1450.5,-58.5 1450.5,-79.5 1533.5,-79.5 1533.5,-58.5 1450.5,-58.5"/>
<text text-anchor="middle" x="1492" y="-66.5" font-family="Helvetica,sans-Serif" font-size="10.00">QMetaProperty</text>
</g>
<!-- Node15&#45;&gt;Node21 -->
<g id="edge48" class="edge"><title>Node15&#45;&gt;Node21</title>
<path fill="none" stroke="midnightblue" d="M526.216,-121.706C540.627,-119.645 557.598,-117.437 573,-116 902.375,-85.267 1300.17,-73.5014 1440.21,-70.1265"/>
<polygon fill="midnightblue" stroke="midnightblue" points="1440.32,-73.625 1450.23,-69.8887 1440.15,-66.627 1440.32,-73.625"/>
</g>
<!-- Node22 -->
<g id="node47" class="node"><title>Node22</title>
<polygon fill="white" stroke="#bfbfbf" points="496,-58.5 496,-79.5 600,-79.5 600,-58.5 496,-58.5"/>
<text text-anchor="middle" x="548" y="-66.5" font-family="Helvetica,sans-Serif" font-size="10.00">QPropertyAnimation</text>
</g>
<!-- Node15&#45;&gt;Node22 -->
<g id="edge50" class="edge"><title>Node15&#45;&gt;Node22</title>
<path fill="none" stroke="midnightblue" d="M502.271,-116.362C510.244,-108.104 521.475,-96.4725 530.811,-86.8029"/>
<polygon fill="midnightblue" stroke="midnightblue" points="533.366,-89.1958 537.794,-79.5707 528.33,-84.3336 533.366,-89.1958"/>
</g>
<!-- Node19&#45;&gt;Node14 -->
<g id="edge46" class="edge"><title>Node19&#45;&gt;Node14</title>
<path fill="none" stroke="midnightblue" d="M731.795,-62.5155C675.222,-51.4677 560.681,-29.0993 502.944,-17.8241"/>
<polygon fill="midnightblue" stroke="midnightblue" points="503.337,-14.3348 492.851,-15.8531 501.995,-21.205 503.337,-14.3348"/>
</g>
<!-- Node19&#45;&gt;Node16 -->
<g id="edge40" class="edge"><title>Node19&#45;&gt;Node16</title>
<path fill="none" stroke="midnightblue" d="M778.206,-58.3619C788.761,-49.859 803.758,-37.7785 815.963,-27.9466"/>
<polygon fill="midnightblue" stroke="midnightblue" points="818.286,-30.5696 823.878,-21.5707 813.895,-25.1183 818.286,-30.5696"/>
</g>
<!-- Node19&#45;&gt;Node17 -->
<g id="edge44" class="edge"><title>Node19&#45;&gt;Node17</title>
<path fill="none" stroke="midnightblue" d="M746.842,-58.3619C731.77,-49.532 710.113,-36.844 693.007,-26.8224"/>
<polygon fill="midnightblue" stroke="midnightblue" points="694.441,-23.6058 684.043,-21.5707 690.902,-29.6456 694.441,-23.6058"/>
</g>
<!-- Node20 -->
<g id="node41" class="node"><title>Node20</title>
<polygon fill="white" stroke="#bfbfbf" points="722.5,-0.5 722.5,-21.5 793.5,-21.5 793.5,-0.5 722.5,-0.5"/>
<text text-anchor="middle" x="758" y="-8.5" font-family="Helvetica,sans-Serif" font-size="10.00">QQuaternion</text>
</g>
<!-- Node19&#45;&gt;Node20 -->
<g id="edge42" class="edge"><title>Node19&#45;&gt;Node20</title>
<path fill="none" stroke="midnightblue" d="M763.716,-58.3619C762.818,-50.9219 761.59,-40.7427 760.502,-31.7276"/>
<polygon fill="midnightblue" stroke="midnightblue" points="763.949,-31.0792 759.276,-21.5707 756.999,-31.918 763.949,-31.0792"/>
</g>
<!-- Node23&#45;&gt;Node13 -->
<g id="edge100" class="edge"><title>Node23&#45;&gt;Node13</title>
<path fill="none" stroke="midnightblue" d="M635.983,-239.085C630.298,-218.518 617.919,-173.735 610.646,-147.426"/>
<polygon fill="midnightblue" stroke="midnightblue" points="614,-146.421 607.962,-137.715 607.253,-148.286 614,-146.421"/>
</g>
<!-- Node23&#45;&gt;Node19 -->
<g id="edge98" class="edge"><title>Node23&#45;&gt;Node19</title>
<path fill="none" stroke="midnightblue" d="M626.311,-239.426C599.275,-215.638 540.981,-156.802 573,-116 582.255,-104.206 668.329,-86.6152 722.041,-76.6357"/>
<polygon fill="midnightblue" stroke="midnightblue" points="722.792,-80.0564 731.994,-74.8047 721.526,-73.1719 722.792,-80.0564"/>
</g>
<!-- Node23&#45;&gt;Node21 -->
<g id="edge102" class="edge"><title>Node23&#45;&gt;Node21</title>
<path fill="none" stroke="midnightblue" d="M657.703,-239.352C663.414,-236.53 669.822,-233.778 676,-232 863.09,-178.173 1416.94,-282.856 1547,-138 1562.65,-120.568 1539.98,-99.3395 1519.18,-85.0712"/>
<polygon fill="midnightblue" stroke="midnightblue" points="1521.08,-82.1339 1510.8,-79.5982 1517.26,-87.9955 1521.08,-82.1339"/>
</g>
<!-- Node24 -->
<g id="node52" class="node"><title>Node24</title>
<a xlink:href="geometry_8hpp.html" target="_top" xlink:title="geometry.hpp">
<polygon fill="white" stroke="black" points="848,-174.5 848,-195.5 924,-195.5 924,-174.5 848,-174.5"/>
<text text-anchor="middle" x="886" y="-182.5" font-family="Helvetica,sans-Serif" font-size="10.00">geometry.hpp</text>
</a>
</g>
<!-- Node23&#45;&gt;Node24 -->
<g id="edge56" class="edge"><title>Node23&#45;&gt;Node24</title>
<path fill="none" stroke="midnightblue" d="M658.607,-239.413C664.123,-236.725 670.201,-234.028 676,-232 730.032,-213.101 794.611,-199.988 837.757,-192.506"/>
<polygon fill="midnightblue" stroke="midnightblue" points="838.432,-195.941 847.704,-190.814 837.259,-189.04 838.432,-195.941"/>
</g>
<!-- Node32 -->
<g id="node79" class="node"><title>Node32</title>
<polygon fill="white" stroke="#bfbfbf" points="646,-116.5 646,-137.5 690,-137.5 690,-116.5 646,-116.5"/>
<text text-anchor="middle" x="668" y="-124.5" font-family="Helvetica,sans-Serif" font-size="10.00">vector</text>
</g>
<!-- Node23&#45;&gt;Node32 -->
<g id="edge104" class="edge"><title>Node23&#45;&gt;Node32</title>
<path fill="none" stroke="midnightblue" d="M641.574,-239.085C646.401,-218.609 656.887,-174.133 663.101,-147.778"/>
<polygon fill="midnightblue" stroke="midnightblue" points="666.585,-148.252 665.474,-137.715 659.772,-146.645 666.585,-148.252"/>
</g>
<!-- Node24&#45;&gt;Node13 -->
<g id="edge70" class="edge"><title>Node24&#45;&gt;Node13</title>
<path fill="none" stroke="midnightblue" d="M847.651,-179.525C800.439,-172.4 717.713,-158.666 638.756,-138.216"/>
<polygon fill="midnightblue" stroke="midnightblue" points="639.21,-134.717 628.648,-135.556 637.428,-141.486 639.21,-134.717"/>
</g>
<!-- Node24&#45;&gt;Node16 -->
<g id="edge58" class="edge"><title>Node24&#45;&gt;Node16</title>
<path fill="none" stroke="midnightblue" d="M856.803,-174.379C840.775,-166.871 822.312,-155.07 813,-138 794.134,-103.415 812.434,-56.5338 825.795,-30.4893"/>
<polygon fill="midnightblue" stroke="midnightblue" points="828.924,-32.0605 830.586,-21.5969 822.762,-28.7402 828.924,-32.0605"/>
</g>
<!-- Node24&#45;&gt;Node17 -->
<g id="edge60" class="edge"><title>Node24&#45;&gt;Node17</title>
<path fill="none" stroke="midnightblue" d="M847.929,-175.92C822.684,-168.592 789.772,-156.428 765,-138 724.87,-108.148 692.479,-57.9941 676.609,-30.494"/>
<polygon fill="midnightblue" stroke="midnightblue" points="679.658,-28.7753 671.699,-21.782 673.56,-32.2122 679.658,-28.7753"/>
</g>
<!-- Node24&#45;&gt;Node19 -->
<g id="edge72" class="edge"><title>Node24&#45;&gt;Node19</title>
<path fill="none" stroke="midnightblue" d="M847.817,-177.25C824.863,-170.63 796.913,-158.755 780,-138 769.016,-124.52 765.599,-104.795 764.735,-89.8836"/>
<polygon fill="midnightblue" stroke="midnightblue" points="768.228,-89.5159 764.49,-79.6022 761.23,-89.6829 768.228,-89.5159"/>
</g>
<!-- Node25 -->
<g id="node56" class="node"><title>Node25</title>
<polygon fill="white" stroke="#bfbfbf" points="1550.5,-58.5 1550.5,-79.5 1653.5,-79.5 1653.5,-58.5 1550.5,-58.5"/>
<text text-anchor="middle" x="1602" y="-66.5" font-family="Helvetica,sans-Serif" font-size="10.00">QOpenGLFunctions</text>
</g>
<!-- Node24&#45;&gt;Node25 -->
<g id="edge62" class="edge"><title>Node24&#45;&gt;Node25</title>
<path fill="none" stroke="midnightblue" d="M924.418,-184.06C1057.24,-180.564 1491.89,-166.998 1547,-138 1567.43,-127.248 1582.87,-105.239 1592.11,-88.9558"/>
<polygon fill="midnightblue" stroke="midnightblue" points="1595.43,-90.1777 1597.05,-79.7086 1589.25,-86.8778 1595.43,-90.1777"/>
</g>
<!-- Node26 -->
<g id="node58" class="node"><title>Node26</title>
<polygon fill="white" stroke="#bfbfbf" points="822,-116.5 822,-137.5 950,-137.5 950,-116.5 822,-116.5"/>
<text text-anchor="middle" x="886" y="-124.5" font-family="Helvetica,sans-Serif" font-size="10.00">QOpenGLShaderProgram</text>
</g>
<!-- Node24&#45;&gt;Node26 -->
<g id="edge64" class="edge"><title>Node24&#45;&gt;Node26</title>
<path fill="none" stroke="midnightblue" d="M886,-174.362C886,-166.922 886,-156.743 886,-147.728"/>
<polygon fill="midnightblue" stroke="midnightblue" points="889.5,-147.571 886,-137.571 882.5,-147.571 889.5,-147.571"/>
</g>
<!-- Node27 -->
<g id="node60" class="node"><title>Node27</title>
<polygon fill="white" stroke="#bfbfbf" points="968,-116.5 968,-137.5 1054,-137.5 1054,-116.5 968,-116.5"/>
<text text-anchor="middle" x="1011" y="-124.5" font-family="Helvetica,sans-Serif" font-size="10.00">QOpenGLBuffer</text>
</g>
<!-- Node24&#45;&gt;Node27 -->
<g id="edge66" class="edge"><title>Node24&#45;&gt;Node27</title>
<path fill="none" stroke="midnightblue" d="M908.637,-174.497C928.248,-165.397 956.846,-152.127 978.833,-141.925"/>
<polygon fill="midnightblue" stroke="midnightblue" points="980.512,-145.005 988.109,-137.621 977.565,-138.655 980.512,-145.005"/>
</g>
<!-- Node28 -->
<g id="node62" class="node"><title>Node28</title>
<polygon fill="white" stroke="#bfbfbf" points="1072,-116.5 1072,-137.5 1212,-137.5 1212,-116.5 1072,-116.5"/>
<text text-anchor="middle" x="1142" y="-124.5" font-family="Helvetica,sans-Serif" font-size="10.00">QOpenGLVertexArrayObject</text>
</g>
<!-- Node24&#45;&gt;Node28 -->
<g id="edge68" class="edge"><title>Node24&#45;&gt;Node28</title>
<path fill="none" stroke="midnightblue" d="M924.049,-176.379C966.79,-166.696 1036.59,-150.883 1085.66,-139.765"/>
<polygon fill="midnightblue" stroke="midnightblue" points="1086.51,-143.161 1095.49,-137.538 1084.96,-136.334 1086.51,-143.161"/>
</g>
<!-- Node29 -->
<g id="node66" class="node"><title>Node29</title>
<a xlink:href="actor_8hpp.html" target="_top" xlink:title="actor.hpp">
<polygon fill="white" stroke="black" points="1481.5,-116.5 1481.5,-137.5 1538.5,-137.5 1538.5,-116.5 1481.5,-116.5"/>
<text text-anchor="middle" x="1510" y="-124.5" font-family="Helvetica,sans-Serif" font-size="10.00">actor.hpp</text>
</a>
</g>
<!-- Node24&#45;&gt;Node29 -->
<g id="edge74" class="edge"><title>Node24&#45;&gt;Node29</title>
<path fill="none" stroke="midnightblue" d="M924.208,-182.987C1033.87,-177.05 1349.09,-158.815 1471.59,-137.897"/>
<polygon fill="midnightblue" stroke="midnightblue" points="1472.24,-141.338 1481.46,-136.127 1471,-134.448 1472.24,-141.338"/>
</g>
<!-- Node30 -->
<g id="node72" class="node"><title>Node30</title>
<a xlink:href="material_8hpp.html" target="_top" xlink:title="material.hpp">
<polygon fill="white" stroke="black" points="1394,-116.5 1394,-137.5 1464,-137.5 1464,-116.5 1394,-116.5"/>
<text text-anchor="middle" x="1429" y="-124.5" font-family="Helvetica,sans-Serif" font-size="10.00">material.hpp</text>
</a>
</g>
<!-- Node24&#45;&gt;Node30 -->
<g id="edge84" class="edge"><title>Node24&#45;&gt;Node30</title>
<path fill="none" stroke="midnightblue" d="M924.294,-181.51C1003.37,-174.214 1190.41,-156.481 1347,-138 1358.92,-136.594 1371.79,-134.934 1383.72,-133.336"/>
<polygon fill="midnightblue" stroke="midnightblue" points="1384.48,-136.765 1393.92,-131.956 1383.54,-129.829 1384.48,-136.765"/>
</g>
<!-- Node31 -->
<g id="node77" class="node"><title>Node31</title>
<polygon fill="white" stroke="#bfbfbf" points="1230,-116.5 1230,-137.5 1282,-137.5 1282,-116.5 1230,-116.5"/>
<text text-anchor="middle" x="1256" y="-124.5" font-family="Helvetica,sans-Serif" font-size="10.00">memory</text>
</g>
<!-- Node24&#45;&gt;Node31 -->
<g id="edge92" class="edge"><title>Node24&#45;&gt;Node31</title>
<path fill="none" stroke="midnightblue" d="M924.047,-181.726C984.803,-176.052 1107.52,-162.763 1219.95,-137.958"/>
<polygon fill="midnightblue" stroke="midnightblue" points="1220.76,-141.364 1229.75,-135.76 1219.23,-134.533 1220.76,-141.364"/>
</g>
<!-- Node24&#45;&gt;Node32 -->
<g id="edge94" class="edge"><title>Node24&#45;&gt;Node32</title>
<path fill="none" stroke="midnightblue" d="M847.874,-175.671C810.96,-166.517 753.472,-151.939 704,-138 702.585,-137.601 701.14,-137.188 699.682,-136.765"/>
<polygon fill="midnightblue" stroke="midnightblue" points="700.622,-133.393 690.04,-133.901 698.63,-140.103 700.622,-133.393"/>
</g>
<!-- Node33 -->
<g id="node81" class="node"><title>Node33</title>
<polygon fill="white" stroke="#bfbfbf" points="1300,-116.5 1300,-137.5 1338,-137.5 1338,-116.5 1300,-116.5"/>
<text text-anchor="middle" x="1319" y="-124.5" font-family="Helvetica,sans-Serif" font-size="10.00">tuple</text>
</g>
<!-- Node24&#45;&gt;Node33 -->
<g id="edge96" class="edge"><title>Node24&#45;&gt;Node33</title>
<path fill="none" stroke="midnightblue" d="M924.276,-183.847C995.14,-181.01 1151.43,-171.461 1289.99,-137.715"/>
<polygon fill="midnightblue" stroke="midnightblue" points="1291.07,-141.053 1299.93,-135.244 1289.39,-134.259 1291.07,-141.053"/>
</g>
<!-- Node29&#45;&gt;Node18 -->
<g id="edge78" class="edge"><title>Node29&#45;&gt;Node18</title>
<path fill="none" stroke="midnightblue" d="M1481.45,-117.932C1478.61,-117.206 1475.76,-116.544 1473,-116 1319.28,-85.6963 1133.03,-74.3999 1049.83,-70.6538"/>
<polygon fill="midnightblue" stroke="midnightblue" points="1049.87,-67.1525 1039.73,-70.2136 1049.57,-74.1458 1049.87,-67.1525"/>
</g>
<!-- Node29&#45;&gt;Node19 -->
<g id="edge76" class="edge"><title>Node29&#45;&gt;Node19</title>
<path fill="none" stroke="midnightblue" d="M1481.47,-117.834C1478.63,-117.128 1475.77,-116.497 1473,-116 1440.22,-110.115 957.358,-80.6193 808.417,-71.6147"/>
<polygon fill="midnightblue" stroke="midnightblue" points="808.474,-68.1118 798.281,-71.0024 808.051,-75.0991 808.474,-68.1118"/>
</g>
<!-- Node29&#45;&gt;Node21 -->
<g id="edge82" class="edge"><title>Node29&#45;&gt;Node21</title>
<path fill="none" stroke="midnightblue" d="M1506.7,-116.362C1504.34,-108.758 1501.09,-98.294 1498.25,-89.1349"/>
<polygon fill="midnightblue" stroke="midnightblue" points="1501.59,-88.0839 1495.28,-79.5707 1494.9,-90.1587 1501.59,-88.0839"/>
</g>
<!-- Node29&#45;&gt;Node25 -->
<g id="edge80" class="edge"><title>Node29&#45;&gt;Node25</title>
<path fill="none" stroke="midnightblue" d="M1526.87,-116.362C1540.75,-107.614 1560.63,-95.0786 1576.46,-85.1015"/>
<polygon fill="midnightblue" stroke="midnightblue" points="1578.64,-87.8645 1585.23,-79.5707 1574.91,-81.943 1578.64,-87.8645"/>
</g>
<!-- Node30&#45;&gt;Node16 -->
<g id="edge86" class="edge"><title>Node30&#45;&gt;Node16</title>
<path fill="none" stroke="midnightblue" d="M1393.96,-119.002C1389.27,-117.97 1384.52,-116.945 1380,-116 1189.88,-76.2879 961.195,-33.7778 873.585,-17.6848"/>
<polygon fill="midnightblue" stroke="midnightblue" points="874.08,-14.2173 863.612,-15.8552 872.817,-21.1024 874.08,-14.2173"/>
</g>
<!-- Node30&#45;&gt;Node19 -->
<g id="edge88" class="edge"><title>Node30&#45;&gt;Node19</title>
<path fill="none" stroke="midnightblue" d="M1393.79,-118.455C1389.17,-117.523 1384.48,-116.671 1380,-116 1269.25,-99.4258 928.953,-78.5615 808.119,-71.4805"/>
<polygon fill="midnightblue" stroke="midnightblue" points="808.311,-67.9859 798.124,-70.897 807.903,-74.974 808.311,-67.9859"/>
</g>
<!-- Node30&#45;&gt;Node21 -->
<g id="edge90" class="edge"><title>Node30&#45;&gt;Node21</title>
<path fill="none" stroke="midnightblue" d="M1440.56,-116.362C1449.61,-108.023 1462.41,-96.2418 1472.97,-86.5162"/>
<polygon fill="midnightblue" stroke="midnightblue" points="1475.53,-88.9187 1480.52,-79.5707 1470.79,-83.7688 1475.53,-88.9187"/>
</g>
<!-- Node34&#45;&gt;Node13 -->
<g id="edge112" class="edge"><title>Node34&#45;&gt;Node13</title>
<path fill="none" stroke="midnightblue" d="M707.061,-239.085C687.834,-217.97 645.365,-171.33 621.72,-145.362"/>
<polygon fill="midnightblue" stroke="midnightblue" points="624.078,-142.753 614.757,-137.715 618.902,-147.466 624.078,-142.753"/>
</g>
<!-- Node34&#45;&gt;Node21 -->
<g id="edge110" class="edge"><title>Node34&#45;&gt;Node21</title>
<path fill="none" stroke="midnightblue" d="M734.878,-239.48C740.773,-236.514 747.491,-233.649 754,-232 843.051,-209.435 1516.47,-262.357 1580,-196 1604.59,-170.317 1598.28,-146.494 1580,-116 1571.15,-101.238 1555.91,-90.8547 1540.57,-83.6748"/>
<polygon fill="midnightblue" stroke="midnightblue" points="1541.64,-80.3242 1531.07,-79.6077 1538.89,-86.7597 1541.64,-80.3242"/>
</g>
<!-- Node34&#45;&gt;Node24 -->
<g id="edge108" class="edge"><title>Node34&#45;&gt;Node24</title>
<path fill="none" stroke="midnightblue" d="M743.742,-239.494C750.054,-237.026 756.761,-234.413 763,-232 791.671,-220.913 824.16,-208.505 848.545,-199.223"/>
<polygon fill="midnightblue" stroke="midnightblue" points="850.029,-202.403 858.131,-195.576 847.54,-195.861 850.029,-202.403"/>
</g>
<!-- Node35&#45;&gt;Node16 -->
<g id="edge120" class="edge"><title>Node35&#45;&gt;Node16</title>
<path fill="none" stroke="midnightblue" d="M1691.42,-174.378C1694.08,-149.547 1696.73,-87.5676 1662,-58 1631.6,-32.117 1030.11,-15.7061 873.84,-11.868"/>
<polygon fill="midnightblue" stroke="midnightblue" points="873.868,-8.36776 863.786,-11.6234 873.698,-15.3657 873.868,-8.36776"/>
</g>
<!-- Node35&#45;&gt;Node19 -->
<g id="edge116" class="edge"><title>Node35&#45;&gt;Node19</title>
<path fill="none" stroke="midnightblue" d="M1660.1,-184.047C1604.43,-181.485 1481.76,-172.104 1385,-138 1366.59,-131.513 1365.63,-121.817 1347,-116 1296,-100.074 934.288,-78.5036 808.213,-71.3865"/>
<polygon fill="midnightblue" stroke="midnightblue" points="808.331,-67.8878 798.151,-70.821 807.938,-74.8767 808.331,-67.8878"/>
</g>
<!-- Node35&#45;&gt;Node29 -->
<g id="edge118" class="edge"><title>Node35&#45;&gt;Node29</title>
<path fill="none" stroke="midnightblue" d="M1660.28,-175.422C1629.69,-165.567 1581.91,-150.172 1548.46,-139.394"/>
<polygon fill="midnightblue" stroke="midnightblue" points="1549.17,-135.944 1538.58,-136.208 1547.02,-142.607 1549.17,-135.944"/>
</g>
<!-- Node36 -->
<g id="node97" class="node"><title>Node36</title>
<polygon fill="white" stroke="#bfbfbf" points="1709,-116.5 1709,-137.5 1749,-137.5 1749,-116.5 1709,-116.5"/>
<text text-anchor="middle" x="1729" y="-124.5" font-family="Helvetica,sans-Serif" font-size="10.00">QList</text>
</g>
<!-- Node35&#45;&gt;Node36 -->
<g id="edge122" class="edge"><title>Node35&#45;&gt;Node36</title>
<path fill="none" stroke="midnightblue" d="M1697.15,-174.362C1702.49,-166.431 1709.91,-155.389 1716.25,-145.961"/>
<polygon fill="midnightblue" stroke="midnightblue" points="1719.22,-147.822 1721.89,-137.571 1713.41,-143.916 1719.22,-147.822"/>
</g>
</g>
</svg>
        <g id="navigator" transform="translate(0 0)" fill="#404254">
                <rect fill="#f2f5e9" fill-opacity="0.5" stroke="#606060" stroke-width=".5" x="0" y="0" width="60" height="60"/>
                <use id="zoomplus" xlink:href="#zoomPlus" x="17" y="9" onmousedown="handleZoom(evt,'in')"/>
                <use id="zoomminus" xlink:href="#zoomMin" x="42" y="9" onmousedown="handleZoom(evt,'out')"/>
                <use id="reset" xlink:href="#resetDef" x="30" y="36" onmousedown="handleReset()"/>
                <g id="arrowUp" xlink:href="#dirArrow" transform="translate(30 24)" onmousedown="handlePan(0,-1)">
                  <use xlink:href="#rim" fill="#404040">
                        <set attributeName="fill" to="#808080" begin="arrowUp.mouseover" end="arrowUp.mouseout"/>
                  </use>
                  <path fill="none" stroke="white" stroke-width="1.5" d="M0,-3.0v7 M-2.5,-0.5L0,-3.0L2.5,-0.5"/>
                </g>
                <g id="arrowRight" xlink:href="#dirArrow" transform="rotate(90) translate(36 -43)" onmousedown="handlePan(1,0)">
                  <use xlink:href="#rim" fill="#404040">
                        <set attributeName="fill" to="#808080" begin="arrowRight.mouseover" end="arrowRight.mouseout"/>
                  </use>
                  <path fill="none" stroke="white" stroke-width="1.5" d="M0,-3.0v7 M-2.5,-0.5L0,-3.0L2.5,-0.5"/>
                </g>
                <g id="arrowDown" xlink:href="#dirArrow" transform="rotate(180) translate(-30 -48)" onmousedown="handlePan(0,1)">
                  <use xlink:href="#rim" fill="#404040">
                        <set attributeName="fill" to="#808080" begin="arrowDown.mouseover" end="arrowDown.mouseout"/>
                  </use>
                  <path fill="none" stroke="white" stroke-width="1.5" d="M0,-3.0v7 M-2.5,-0.5L0,-3.0L2.5,-0.5"/>
                </g>
                <g id="arrowLeft" xlink:href="#dirArrow" transform="rotate(270) translate(-36 17)" onmousedown="handlePan(-1,0)">
                  <use xlink:href="#rim" fill="#404040">
                        <set attributeName="fill" to="#808080" begin="arrowLeft.mouseover" end="arrowLeft.mouseout"/>
                  </use>
                  <path fill="none" stroke="white" stroke-width="1.5" d="M0,-3.0v7 M-2.5,-0.5L0,-3.0L2.5,-0.5"/>
                </g>
        </g>
        <svg viewBox="0 0 15 15" width="100%" height="30px" preserveAspectRatio="xMaxYMin meet">
         <g id="arrow_out" transform="scale(0.3 0.3)">
          <a xlink:href="fileloader_8cpp__incl_org.svg" target="_base">
           <rect id="button" ry="5" rx="5" y="6" x="6" height="38" width="38"
                fill="#f2f5e9" fill-opacity="0.5" stroke="#606060" stroke-width="1.0"/>
           <path id="arrow"
             d="M 11.500037,31.436501 C 11.940474,20.09759 22.043105,11.32322 32.158766,21.979434 L 37.068811,17.246167 C 37.068811,17.246167 37.088388,32 37.088388,32 L 22.160133,31.978069 C 22.160133,31.978069 26.997745,27.140456 26.997745,27.140456 C 18.528582,18.264221 13.291696,25.230495 11.500037,31.436501 z"
             style="fill:#404040;"/>
          </a>
         </g>
        </svg>
</svg>
