<?xml version="1.0" encoding="UTF-8" standalone="no"?>
<!DOCTYPE svg PUBLIC "-//W3C//DTD SVG 1.1//EN"
 "http://www.w3.org/Graphics/SVG/1.1/DTD/svg11.dtd">
<!-- Generated by graphviz version 2.26.3 (20100126.1600)
 -->
<!-- Title: operator&gt;&gt; Pages: 1 -->
<svg width="496pt" height="110pt"
 viewBox="0.00 0.00 496.00 110.00" xmlns="http://www.w3.org/2000/svg" xmlns:xlink="http://www.w3.org/1999/xlink">
<g id="graph1" class="graph" transform="scale(1 1) rotate(0) translate(4 106)">
<title>operator&gt;&gt;</title>
<polygon fill="white" stroke="white" points="-4,5 -4,-106 493,-106 493,5 -4,5"/>
<!-- Node1 -->
<g id="node1" class="node"><title>Node1</title>
<polygon fill="#bfbfbf" stroke="black" points="0,-40.5 0,-61.5 64,-61.5 64,-40.5 0,-40.5"/>
<text text-anchor="middle" x="32" y="-48.5" font-family="Helvetica,sans-Serif" font-size="10.00">operator&gt;&gt;</text>
</g>
<!-- Node2 -->
<g id="node3" class="node"><title>Node2</title>
<a xlink:href="class_actor.html#a422d0d3c1e343e794357669a34bb59e1" target="_top" xlink:title="Actor::setParent">
<polygon fill="white" stroke="black" points="100,-40.5 100,-61.5 188,-61.5 188,-40.5 100,-40.5"/>
<text text-anchor="middle" x="144" y="-48.5" font-family="Helvetica,sans-Serif" font-size="10.00">Actor::setParent</text>
</a>
</g>
<!-- Node1&#45;&gt;Node2 -->
<g id="edge2" class="edge"><title>Node1&#45;&gt;Node2</title>
<path fill="none" stroke="midnightblue" d="M64.0947,-51C72.0859,-51 80.8765,-51 89.6147,-51"/>
<polygon fill="midnightblue" stroke="midnightblue" points="89.7975,-54.5001 99.7974,-51 89.7974,-47.5001 89.7975,-54.5001"/>
</g>
<!-- Node3 -->
<g id="node5" class="node"><title>Node3</title>
<a xlink:href="class_viewport.html#a5acb57e1d34f591dab00a8a40cd21855" target="_top" xlink:title="Viewport::updateLights">
<polygon fill="white" stroke="black" points="224,-40.5 224,-61.5 340,-61.5 340,-40.5 224,-40.5"/>
<text text-anchor="middle" x="282" y="-48.5" font-family="Helvetica,sans-Serif" font-size="10.00">Viewport::updateLights</text>
</a>
</g>
<!-- Node2&#45;&gt;Node3 -->
<g id="edge4" class="edge"><title>Node2&#45;&gt;Node3</title>
<path fill="none" stroke="midnightblue" d="M188.043,-51C196.208,-51 204.91,-51 213.601,-51"/>
<polygon fill="midnightblue" stroke="midnightblue" points="213.763,-54.5001 223.763,-51 213.763,-47.5001 213.763,-54.5001"/>
</g>
<!-- Node4 -->
<g id="node7" class="node"><title>Node4</title>
<a xlink:href="class_world.html#a45fac3748d15198a09ce257da35e6fcf" target="_top" xlink:title="World::zoneList">
<polygon fill="white" stroke="black" points="389.5,-80.5 389.5,-101.5 474.5,-101.5 474.5,-80.5 389.5,-80.5"/>
<text text-anchor="middle" x="432" y="-88.5" font-family="Helvetica,sans-Serif" font-size="10.00">World::zoneList</text>
</a>
</g>
<!-- Node3&#45;&gt;Node4 -->
<g id="edge6" class="edge"><title>Node3&#45;&gt;Node4</title>
<path fill="none" stroke="midnightblue" d="M321.411,-61.5095C340.198,-66.5193 362.863,-72.5634 382.77,-77.8721"/>
<polygon fill="midnightblue" stroke="midnightblue" points="382.028,-81.2964 392.592,-80.4913 383.832,-74.5328 382.028,-81.2964"/>
</g>
<!-- Node5 -->
<g id="node9" class="node"><title>Node5</title>
<a xlink:href="class_world.html#a664cd2c63ef6c7979736cd454b31eb1c" target="_top" xlink:title="World::currentZone">
<polygon fill="white" stroke="black" points="382,-40.5 382,-61.5 482,-61.5 482,-40.5 382,-40.5"/>
<text text-anchor="middle" x="432" y="-48.5" font-family="Helvetica,sans-Serif" font-size="10.00">World::currentZone</text>
</a>
</g>
<!-- Node3&#45;&gt;Node5 -->
<g id="edge8" class="edge"><title>Node3&#45;&gt;Node5</title>
<path fill="none" stroke="midnightblue" d="M340.423,-51C350.665,-51 361.34,-51 371.633,-51"/>
<polygon fill="midnightblue" stroke="midnightblue" points="371.769,-54.5001 381.769,-51 371.769,-47.5001 371.769,-54.5001"/>
</g>
<!-- Node6 -->
<g id="node11" class="node"><title>Node6</title>
<a xlink:href="class_viewport.html#ae2666049736ca227e0ddc0d23c431d96" target="_top" xlink:title="Viewport::updateLight">
<polygon fill="white" stroke="black" points="376.5,-0.5 376.5,-21.5 487.5,-21.5 487.5,-0.5 376.5,-0.5"/>
<text text-anchor="middle" x="432" y="-8.5" font-family="Helvetica,sans-Serif" font-size="10.00">Viewport::updateLight</text>
</a>
</g>
<!-- Node3&#45;&gt;Node6 -->
<g id="edge10" class="edge"><title>Node3&#45;&gt;Node6</title>
<path fill="none" stroke="midnightblue" d="M321.411,-40.4905C340.198,-35.4807 362.863,-29.4366 382.77,-24.1279"/>
<polygon fill="midnightblue" stroke="midnightblue" points="383.832,-27.4672 392.592,-21.5087 382.028,-20.7036 383.832,-27.4672"/>
</g>
</g>
</svg>
