<?xml version="1.0" encoding="UTF-8" standalone="no"?>
<!DOCTYPE svg PUBLIC "-//W3C//DTD SVG 1.1//EN"
 "http://www.w3.org/Graphics/SVG/1.1/DTD/svg11.dtd">
<!-- Generated by graphviz version 2.26.3 (20100126.1600)
 -->
<!-- Title: include/geometry.hpp Pages: 1 -->
<svg width="945pt" height="204pt"
 viewBox="0.00 0.00 945.37 204.00" xmlns="http://www.w3.org/2000/svg" xmlns:xlink="http://www.w3.org/1999/xlink">
<g id="graph1" class="graph" transform="scale(1 1) rotate(0) translate(4 200)">
<title>include/geometry.hpp</title>
<polygon fill="white" stroke="white" points="-4,5 -4,-200 942.372,-200 942.372,5 -4,5"/>
<!-- Node1 -->
<g id="node1" class="node"><title>Node1</title>
<polygon fill="#bfbfbf" stroke="black" points="507.372,-174.5 507.372,-195.5 617.372,-195.5 617.372,-174.5 507.372,-174.5"/>
<text text-anchor="middle" x="562.372" y="-182.5" font-family="Helvetica,sans-Serif" font-size="10.00">include/geometry.hpp</text>
</g>
<!-- Node2 -->
<g id="node3" class="node"><title>Node2</title>
<polygon fill="white" stroke="#bfbfbf" points="652.872,-0.5 652.872,-21.5 705.872,-21.5 705.872,-0.5 652.872,-0.5"/>
<text text-anchor="middle" x="679.372" y="-8.5" font-family="Helvetica,sans-Serif" font-size="10.00">QObject</text>
</g>
<!-- Node1&#45;&gt;Node2 -->
<g id="edge2" class="edge"><title>Node1&#45;&gt;Node2</title>
<path fill="none" stroke="midnightblue" d="M617.486,-175.782C657.908,-167.767 707.839,-154.804 720.372,-138 745.138,-104.795 715.313,-56.0253 695.07,-29.6276"/>
<polygon fill="midnightblue" stroke="midnightblue" points="697.633,-27.2283 688.665,-21.5878 692.158,-31.5901 697.633,-27.2283"/>
</g>
<!-- Node3 -->
<g id="node5" class="node"><title>Node3</title>
<polygon fill="white" stroke="#bfbfbf" points="188.872,-0.5 188.872,-21.5 253.872,-21.5 253.872,-0.5 188.872,-0.5"/>
<text text-anchor="middle" x="221.372" y="-8.5" font-family="Helvetica,sans-Serif" font-size="10.00">QVector3D</text>
</g>
<!-- Node1&#45;&gt;Node3 -->
<g id="edge4" class="edge"><title>Node1&#45;&gt;Node3</title>
<path fill="none" stroke="midnightblue" d="M507.326,-183.112C380.628,-178.335 76.3041,-164.244 38.3724,-138 7.39362,-116.567 -13.1917,-87.3904 10.3724,-58 31.0486,-32.2114 123.169,-19.6598 178.626,-14.3386"/>
<polygon fill="midnightblue" stroke="midnightblue" points="179.225,-17.7984 188.863,-13.3982 178.585,-10.8277 179.225,-17.7984"/>
</g>
<!-- Node4 -->
<g id="node7" class="node"><title>Node4</title>
<polygon fill="white" stroke="#bfbfbf" points="18.8724,-58.5 18.8724,-79.5 121.872,-79.5 121.872,-58.5 18.8724,-58.5"/>
<text text-anchor="middle" x="70.3724" y="-66.5" font-family="Helvetica,sans-Serif" font-size="10.00">QOpenGLFunctions</text>
</g>
<!-- Node1&#45;&gt;Node4 -->
<g id="edge6" class="edge"><title>Node1&#45;&gt;Node4</title>
<path fill="none" stroke="midnightblue" d="M507.013,-184.06C380.521,-181.339 78.8411,-171.382 48.3724,-138 35.76,-124.182 45.2416,-103.116 55.3944,-87.8963"/>
<polygon fill="midnightblue" stroke="midnightblue" points="58.286,-89.8703 61.2879,-79.7096 52.6049,-85.7806 58.286,-89.8703"/>
</g>
<!-- Node5 -->
<g id="node9" class="node"><title>Node5</title>
<polygon fill="white" stroke="#bfbfbf" points="131.372,-116.5 131.372,-137.5 259.372,-137.5 259.372,-116.5 131.372,-116.5"/>
<text text-anchor="middle" x="195.372" y="-124.5" font-family="Helvetica,sans-Serif" font-size="10.00">QOpenGLShaderProgram</text>
</g>
<!-- Node1&#45;&gt;Node5 -->
<g id="edge8" class="edge"><title>Node1&#45;&gt;Node5</title>
<path fill="none" stroke="midnightblue" d="M507.031,-176.254C443.762,-166.255 339.893,-149.84 269.628,-138.735"/>
<polygon fill="midnightblue" stroke="midnightblue" points="269.938,-135.241 259.514,-137.137 268.845,-142.155 269.938,-135.241"/>
</g>
<!-- Node6 -->
<g id="node11" class="node"><title>Node6</title>
<polygon fill="white" stroke="#bfbfbf" points="277.372,-116.5 277.372,-137.5 363.372,-137.5 363.372,-116.5 277.372,-116.5"/>
<text text-anchor="middle" x="320.372" y="-124.5" font-family="Helvetica,sans-Serif" font-size="10.00">QOpenGLBuffer</text>
</g>
<!-- Node1&#45;&gt;Node6 -->
<g id="edge10" class="edge"><title>Node1&#45;&gt;Node6</title>
<path fill="none" stroke="midnightblue" d="M518.548,-174.497C477.733,-164.714 416.81,-150.113 373.297,-139.685"/>
<polygon fill="midnightblue" stroke="midnightblue" points="374.004,-136.255 363.464,-137.328 372.373,-143.062 374.004,-136.255"/>
</g>
<!-- Node7 -->
<g id="node13" class="node"><title>Node7</title>
<polygon fill="white" stroke="#bfbfbf" points="381.372,-116.5 381.372,-137.5 521.372,-137.5 521.372,-116.5 381.372,-116.5"/>
<text text-anchor="middle" x="451.372" y="-124.5" font-family="Helvetica,sans-Serif" font-size="10.00">QOpenGLVertexArrayObject</text>
</g>
<!-- Node1&#45;&gt;Node7 -->
<g id="edge12" class="edge"><title>Node1&#45;&gt;Node7</title>
<path fill="none" stroke="midnightblue" d="M542.271,-174.497C525.09,-165.519 500.143,-152.484 480.727,-142.339"/>
<polygon fill="midnightblue" stroke="midnightblue" points="482.183,-139.15 471.699,-137.621 478.941,-145.354 482.183,-139.15"/>
</g>
<!-- Node8 -->
<g id="node15" class="node"><title>Node8</title>
<polygon fill="white" stroke="#bfbfbf" points="538.872,-116.5 538.872,-137.5 585.872,-137.5 585.872,-116.5 538.872,-116.5"/>
<text text-anchor="middle" x="562.372" y="-124.5" font-family="Helvetica,sans-Serif" font-size="10.00">QColor</text>
</g>
<!-- Node1&#45;&gt;Node8 -->
<g id="edge14" class="edge"><title>Node1&#45;&gt;Node8</title>
<path fill="none" stroke="midnightblue" d="M562.372,-174.362C562.372,-166.922 562.372,-156.743 562.372,-147.728"/>
<polygon fill="midnightblue" stroke="midnightblue" points="565.872,-147.571 562.372,-137.571 558.872,-147.571 565.872,-147.571"/>
</g>
<!-- Node9 -->
<g id="node17" class="node"><title>Node9</title>
<a xlink:href="globals_8hpp.html" target="_top" xlink:title="Definitions globales. ">
<polygon fill="white" stroke="black" points="578.372,-58.5 578.372,-79.5 644.372,-79.5 644.372,-58.5 578.372,-58.5"/>
<text text-anchor="middle" x="611.372" y="-66.5" font-family="Helvetica,sans-Serif" font-size="10.00">globals.hpp</text>
</a>
</g>
<!-- Node1&#45;&gt;Node9 -->
<g id="edge16" class="edge"><title>Node1&#45;&gt;Node9</title>
<path fill="none" stroke="midnightblue" d="M571.185,-174.454C578.39,-165.334 588.339,-151.522 594.372,-138 601.274,-122.531 605.663,-103.808 608.248,-89.7703"/>
<polygon fill="midnightblue" stroke="midnightblue" points="611.74,-90.1111 609.949,-79.6688 604.837,-88.9488 611.74,-90.1111"/>
</g>
<!-- Node12 -->
<g id="node25" class="node"><title>Node12</title>
<a xlink:href="actor_8hpp.html" target="_top" xlink:title="actor.hpp">
<polygon fill="white" stroke="black" points="56.8724,-116.5 56.8724,-137.5 113.872,-137.5 113.872,-116.5 56.8724,-116.5"/>
<text text-anchor="middle" x="85.3724" y="-124.5" font-family="Helvetica,sans-Serif" font-size="10.00">actor.hpp</text>
</a>
</g>
<!-- Node1&#45;&gt;Node12 -->
<g id="edge26" class="edge"><title>Node1&#45;&gt;Node12</title>
<path fill="none" stroke="midnightblue" d="M507.352,-182.353C425.451,-177.705 266.619,-165.967 123.748,-138.003"/>
<polygon fill="midnightblue" stroke="midnightblue" points="124.416,-134.568 113.926,-136.05 123.051,-141.433 124.416,-134.568"/>
</g>
<!-- Node15 -->
<g id="node33" class="node"><title>Node15</title>
<a xlink:href="material_8hpp.html" target="_top" xlink:title="material.hpp">
<polygon fill="white" stroke="black" points="641.372,-116.5 641.372,-137.5 711.372,-137.5 711.372,-116.5 641.372,-116.5"/>
<text text-anchor="middle" x="676.372" y="-124.5" font-family="Helvetica,sans-Serif" font-size="10.00">material.hpp</text>
</a>
</g>
<!-- Node1&#45;&gt;Node15 -->
<g id="edge36" class="edge"><title>Node1&#45;&gt;Node15</title>
<path fill="none" stroke="midnightblue" d="M583.017,-174.497C600.742,-165.479 626.517,-152.365 646.495,-142.201"/>
<polygon fill="midnightblue" stroke="midnightblue" points="648.17,-145.275 655.496,-137.621 644.996,-139.036 648.17,-145.275"/>
</g>
<!-- Node16 -->
<g id="node38" class="node"><title>Node16</title>
<polygon fill="white" stroke="#bfbfbf" points="767.372,-116.5 767.372,-137.5 819.372,-137.5 819.372,-116.5 767.372,-116.5"/>
<text text-anchor="middle" x="793.372" y="-124.5" font-family="Helvetica,sans-Serif" font-size="10.00">memory</text>
</g>
<!-- Node1&#45;&gt;Node16 -->
<g id="edge44" class="edge"><title>Node1&#45;&gt;Node16</title>
<path fill="none" stroke="midnightblue" d="M606.841,-174.418C645.606,-165.107 703.307,-151.041 753.372,-138 754.627,-137.673 755.903,-137.338 757.191,-136.997"/>
<polygon fill="midnightblue" stroke="midnightblue" points="758.401,-140.296 767.15,-134.321 756.584,-133.536 758.401,-140.296"/>
</g>
<!-- Node17 -->
<g id="node40" class="node"><title>Node17</title>
<polygon fill="white" stroke="#bfbfbf" points="837.372,-116.5 837.372,-137.5 881.372,-137.5 881.372,-116.5 837.372,-116.5"/>
<text text-anchor="middle" x="859.372" y="-124.5" font-family="Helvetica,sans-Serif" font-size="10.00">vector</text>
</g>
<!-- Node1&#45;&gt;Node17 -->
<g id="edge46" class="edge"><title>Node1&#45;&gt;Node17</title>
<path fill="none" stroke="midnightblue" d="M617.459,-177.991C669.437,-170.768 749.593,-158.058 827.216,-137.995"/>
<polygon fill="midnightblue" stroke="midnightblue" points="828.379,-141.308 837.16,-135.38 826.599,-134.538 828.379,-141.308"/>
</g>
<!-- Node18 -->
<g id="node42" class="node"><title>Node18</title>
<polygon fill="white" stroke="#bfbfbf" points="899.372,-116.5 899.372,-137.5 937.372,-137.5 937.372,-116.5 899.372,-116.5"/>
<text text-anchor="middle" x="918.372" y="-124.5" font-family="Helvetica,sans-Serif" font-size="10.00">tuple</text>
</g>
<!-- Node1&#45;&gt;Node18 -->
<g id="edge48" class="edge"><title>Node1&#45;&gt;Node18</title>
<path fill="none" stroke="midnightblue" d="M617.412,-181.035C681.152,-175.577 789.222,-163.649 889.6,-137.726"/>
<polygon fill="midnightblue" stroke="midnightblue" points="890.511,-141.106 899.289,-135.173 888.727,-134.337 890.511,-141.106"/>
</g>
<!-- Node9&#45;&gt;Node2 -->
<g id="edge18" class="edge"><title>Node9&#45;&gt;Node2</title>
<path fill="none" stroke="midnightblue" d="M623.845,-58.3619C633.718,-49.9408 647.705,-38.0105 659.171,-28.2308"/>
<polygon fill="midnightblue" stroke="midnightblue" points="661.642,-30.7231 666.979,-21.5707 657.099,-25.3972 661.642,-30.7231"/>
</g>
<!-- Node9&#45;&gt;Node3 -->
<g id="edge22" class="edge"><title>Node9&#45;&gt;Node3</title>
<path fill="none" stroke="midnightblue" d="M578.121,-64.055C507.429,-53.5417 342.281,-28.9813 263.993,-17.3384"/>
<polygon fill="midnightblue" stroke="midnightblue" points="264.395,-13.8599 253.989,-15.8507 263.366,-20.7837 264.395,-13.8599"/>
</g>
<!-- Node10 -->
<g id="node20" class="node"><title>Node10</title>
<polygon fill="white" stroke="#bfbfbf" points="498.872,-0.5 498.872,-21.5 569.872,-21.5 569.872,-0.5 498.872,-0.5"/>
<text text-anchor="middle" x="534.372" y="-8.5" font-family="Helvetica,sans-Serif" font-size="10.00">QQuaternion</text>
</g>
<!-- Node9&#45;&gt;Node10 -->
<g id="edge20" class="edge"><title>Node9&#45;&gt;Node10</title>
<path fill="none" stroke="midnightblue" d="M597.249,-58.3619C585.853,-49.7773 569.614,-37.5459 556.495,-27.6636"/>
<polygon fill="midnightblue" stroke="midnightblue" points="558.499,-24.7916 548.406,-21.5707 554.288,-30.3829 558.499,-24.7916"/>
</g>
<!-- Node11 -->
<g id="node23" class="node"><title>Node11</title>
<polygon fill="white" stroke="#bfbfbf" points="586.872,-0.5 586.872,-21.5 635.872,-21.5 635.872,-0.5 586.872,-0.5"/>
<text text-anchor="middle" x="611.372" y="-8.5" font-family="Helvetica,sans-Serif" font-size="10.00">QtMath</text>
</g>
<!-- Node9&#45;&gt;Node11 -->
<g id="edge24" class="edge"><title>Node9&#45;&gt;Node11</title>
<path fill="none" stroke="midnightblue" d="M611.372,-58.3619C611.372,-50.9219 611.372,-40.7427 611.372,-31.7276"/>
<polygon fill="midnightblue" stroke="midnightblue" points="614.872,-31.5706 611.372,-21.5707 607.872,-31.5707 614.872,-31.5706"/>
</g>
<!-- Node12&#45;&gt;Node4 -->
<g id="edge32" class="edge"><title>Node12&#45;&gt;Node4</title>
<path fill="none" stroke="midnightblue" d="M82.6211,-116.362C80.6758,-108.84 78.0065,-98.5187 75.6562,-89.4308"/>
<polygon fill="midnightblue" stroke="midnightblue" points="78.9986,-88.3758 73.1061,-79.5707 72.2215,-90.1285 78.9986,-88.3758"/>
</g>
<!-- Node12&#45;&gt;Node9 -->
<g id="edge28" class="edge"><title>Node12&#45;&gt;Node9</title>
<path fill="none" stroke="midnightblue" d="M113.92,-117.919C116.758,-117.196 119.61,-116.538 122.372,-116 207.353,-99.4452 465.107,-79.5873 568.14,-72.0779"/>
<polygon fill="midnightblue" stroke="midnightblue" points="568.474,-75.563 578.195,-71.3486 567.968,-68.5813 568.474,-75.563"/>
</g>
<!-- Node13 -->
<g id="node28" class="node"><title>Node13</title>
<polygon fill="white" stroke="#bfbfbf" points="138.872,-58.5 138.872,-79.5 205.872,-79.5 205.872,-58.5 138.872,-58.5"/>
<text text-anchor="middle" x="172.372" y="-66.5" font-family="Helvetica,sans-Serif" font-size="10.00">QMatrix4x4</text>
</g>
<!-- Node12&#45;&gt;Node13 -->
<g id="edge30" class="edge"><title>Node12&#45;&gt;Node13</title>
<path fill="none" stroke="midnightblue" d="M101.329,-116.362C114.329,-107.696 132.904,-95.3126 147.8,-85.3819"/>
<polygon fill="midnightblue" stroke="midnightblue" points="150.137,-88.0299 156.516,-79.5707 146.254,-82.2055 150.137,-88.0299"/>
</g>
<!-- Node14 -->
<g id="node31" class="node"><title>Node14</title>
<polygon fill="white" stroke="#bfbfbf" points="350.872,-58.5 350.872,-79.5 433.872,-79.5 433.872,-58.5 350.872,-58.5"/>
<text text-anchor="middle" x="392.372" y="-66.5" font-family="Helvetica,sans-Serif" font-size="10.00">QMetaProperty</text>
</g>
<!-- Node12&#45;&gt;Node14 -->
<g id="edge34" class="edge"><title>Node12&#45;&gt;Node14</title>
<path fill="none" stroke="midnightblue" d="M113.967,-118.14C116.795,-117.372 119.632,-116.643 122.372,-116 197.436,-98.3719 285.661,-84.2279 340.304,-76.2209"/>
<polygon fill="midnightblue" stroke="midnightblue" points="341.045,-79.6502 350.438,-74.75 340.039,-72.7228 341.045,-79.6502"/>
</g>
<!-- Node15&#45;&gt;Node2 -->
<g id="edge38" class="edge"><title>Node15&#45;&gt;Node2</title>
<path fill="none" stroke="midnightblue" d="M676.649,-116.295C677.145,-97.1314 678.192,-56.654 678.833,-31.8434"/>
<polygon fill="midnightblue" stroke="midnightblue" points="682.336,-31.7664 679.096,-21.6792 675.339,-31.5853 682.336,-31.7664"/>
</g>
<!-- Node15&#45;&gt;Node9 -->
<g id="edge40" class="edge"><title>Node15&#45;&gt;Node9</title>
<path fill="none" stroke="midnightblue" d="M664.45,-116.362C655.013,-107.941 641.643,-96.0105 630.683,-86.2308"/>
<polygon fill="midnightblue" stroke="midnightblue" points="633.01,-83.6171 623.219,-79.5707 628.35,-88.8401 633.01,-83.6171"/>
</g>
<!-- Node15&#45;&gt;Node14 -->
<g id="edge42" class="edge"><title>Node15&#45;&gt;Node14</title>
<path fill="none" stroke="midnightblue" d="M641.264,-119.83C591.843,-109.737 501.422,-91.2708 444.241,-79.5928"/>
<polygon fill="midnightblue" stroke="midnightblue" points="444.814,-76.1378 434.316,-77.566 443.414,-82.9963 444.814,-76.1378"/>
</g>
</g>
</svg>
