<?xml version="1.0" encoding="UTF-8" standalone="no"?>
<!DOCTYPE svg PUBLIC "-//W3C//DTD SVG 1.1//EN"
 "http://www.w3.org/Graphics/SVG/1.1/DTD/svg11.dtd">
<!-- Generated by graphviz version 2.26.3 (20100126.1600)
 -->
<!-- Title: include/geometry.hpp Pages: 1 -->
<svg width="1436pt" height="204pt"
 viewBox="0.00 0.00 1436.00 204.00" xmlns="http://www.w3.org/2000/svg" xmlns:xlink="http://www.w3.org/1999/xlink">
<g id="graph1" class="graph" transform="scale(1 1) rotate(0) translate(4 200)">
<title>include/geometry.hpp</title>
<polygon fill="white" stroke="white" points="-4,5 -4,-200 1433,-200 1433,5 -4,5"/>
<!-- Node1 -->
<g id="node1" class="node"><title>Node1</title>
<polygon fill="#bfbfbf" stroke="black" points="664,-174.5 664,-195.5 774,-195.5 774,-174.5 664,-174.5"/>
<text text-anchor="middle" x="719" y="-182.5" font-family="Helvetica,sans-Serif" font-size="10.00">include/geometry.hpp</text>
</g>
<!-- Node2 -->
<g id="node3" class="node"><title>Node2</title>
<a xlink:href="cube_8hpp.html" target="_top" xlink:title="include/cube.hpp">
<polygon fill="white" stroke="black" points="289,-116.5 289,-137.5 379,-137.5 379,-116.5 289,-116.5"/>
<text text-anchor="middle" x="334" y="-124.5" font-family="Helvetica,sans-Serif" font-size="10.00">include/cube.hpp</text>
</a>
</g>
<!-- Node1&#45;&gt;Node2 -->
<g id="edge2" class="edge"><title>Node1&#45;&gt;Node2</title>
<path fill="none" stroke="midnightblue" d="M653.813,-176.916C586.926,-168.346 479.94,-153.877 388,-138 385.077,-137.495 382.071,-136.952 379.043,-136.386"/>
<polygon fill="midnightblue" stroke="midnightblue" points="653.426,-180.395 663.789,-178.188 654.312,-173.451 653.426,-180.395"/>
</g>
<!-- Node6 -->
<g id="node11" class="node"><title>Node6</title>
<a xlink:href="geometry_8cpp.html" target="_top" xlink:title="src/geometry.cpp">
<polygon fill="white" stroke="black" points="0,-0.5 0,-21.5 92,-21.5 92,-0.5 0,-0.5"/>
<text text-anchor="middle" x="46" y="-8.5" font-family="Helvetica,sans-Serif" font-size="10.00">src/geometry.cpp</text>
</a>
</g>
<!-- Node1&#45;&gt;Node6 -->
<g id="edge42" class="edge"><title>Node1&#45;&gt;Node6</title>
<path fill="none" stroke="midnightblue" d="M653.602,-181.674C567.339,-176.452 411.114,-164.1 280,-138 190.485,-120.181 153.829,-137.565 83,-80 64.013,-64.5687 53.4342,-36.7251 48.8265,-21.553"/>
<polygon fill="midnightblue" stroke="midnightblue" points="653.579,-185.179 663.769,-182.276 653.993,-178.191 653.579,-185.179"/>
</g>
<!-- Node13 -->
<g id="node25" class="node"><title>Node13</title>
<a xlink:href="sphere_8hpp.html" target="_top" xlink:title="include/sphere.hpp">
<polygon fill="white" stroke="black" points="397,-116.5 397,-137.5 495,-137.5 495,-116.5 397,-116.5"/>
<text text-anchor="middle" x="446" y="-124.5" font-family="Helvetica,sans-Serif" font-size="10.00">include/sphere.hpp</text>
</a>
</g>
<!-- Node1&#45;&gt;Node13 -->
<g id="edge24" class="edge"><title>Node1&#45;&gt;Node13</title>
<path fill="none" stroke="midnightblue" d="M659.683,-172.398C610.44,-161.936 541.236,-147.233 495.07,-137.425"/>
<polygon fill="midnightblue" stroke="midnightblue" points="659.053,-175.842 669.562,-174.497 660.507,-168.995 659.053,-175.842"/>
</g>
<!-- Node16 -->
<g id="node33" class="node"><title>Node16</title>
<a xlink:href="cylinder_8hpp.html" target="_top" xlink:title="include/cylinder.hpp">
<polygon fill="white" stroke="black" points="552.5,-116.5 552.5,-137.5 655.5,-137.5 655.5,-116.5 552.5,-116.5"/>
<text text-anchor="middle" x="604" y="-124.5" font-family="Helvetica,sans-Serif" font-size="10.00">include/cylinder.hpp</text>
</a>
</g>
<!-- Node1&#45;&gt;Node16 -->
<g id="edge34" class="edge"><title>Node1&#45;&gt;Node16</title>
<path fill="none" stroke="midnightblue" d="M689.124,-169.932C669.021,-159.793 643.01,-146.675 625.059,-137.621"/>
<polygon fill="midnightblue" stroke="midnightblue" points="687.67,-173.118 698.174,-174.497 690.822,-166.868 687.67,-173.118"/>
</g>
<!-- Node18 -->
<g id="node40" class="node"><title>Node18</title>
<a xlink:href="group_8hpp.html" target="_top" xlink:title="include/group.hpp">
<polygon fill="white" stroke="black" points="672.5,-116.5 672.5,-137.5 765.5,-137.5 765.5,-116.5 672.5,-116.5"/>
<text text-anchor="middle" x="719" y="-124.5" font-family="Helvetica,sans-Serif" font-size="10.00">include/group.hpp</text>
</a>
</g>
<!-- Node1&#45;&gt;Node18 -->
<g id="edge44" class="edge"><title>Node1&#45;&gt;Node18</title>
<path fill="none" stroke="midnightblue" d="M719,-164.191C719,-155.168 719,-144.994 719,-137.571"/>
<polygon fill="midnightblue" stroke="midnightblue" points="715.5,-164.362 719,-174.362 722.5,-164.362 715.5,-164.362"/>
</g>
<!-- Node20 -->
<g id="node47" class="node"><title>Node20</title>
<a xlink:href="line_8hpp.html" target="_top" xlink:title="include/line.hpp">
<polygon fill="white" stroke="black" points="972,-116.5 972,-137.5 1056,-137.5 1056,-116.5 972,-116.5"/>
<text text-anchor="middle" x="1014" y="-124.5" font-family="Helvetica,sans-Serif" font-size="10.00">include/line.hpp</text>
</a>
</g>
<!-- Node1&#45;&gt;Node20 -->
<g id="edge54" class="edge"><title>Node1&#45;&gt;Node20</title>
<path fill="none" stroke="midnightblue" d="M782.456,-172.524C839.755,-161.258 922.449,-145 971.946,-135.268"/>
<polygon fill="midnightblue" stroke="midnightblue" points="781.559,-169.133 772.422,-174.497 782.91,-176.002 781.559,-169.133"/>
</g>
<!-- Node22 -->
<g id="node53" class="node"><title>Node22</title>
<a xlink:href="pyramide_8hpp.html" target="_top" xlink:title="include/pyramide.hpp">
<polygon fill="white" stroke="black" points="1091.5,-116.5 1091.5,-137.5 1200.5,-137.5 1200.5,-116.5 1091.5,-116.5"/>
<text text-anchor="middle" x="1146" y="-124.5" font-family="Helvetica,sans-Serif" font-size="10.00">include/pyramide.hpp</text>
</a>
</g>
<!-- Node1&#45;&gt;Node22 -->
<g id="edge62" class="edge"><title>Node1&#45;&gt;Node22</title>
<path fill="none" stroke="midnightblue" d="M784.327,-176.126C868.381,-164.709 1012.89,-145.081 1091.39,-134.418"/>
<polygon fill="midnightblue" stroke="midnightblue" points="783.823,-172.663 774.385,-177.477 784.765,-179.599 783.823,-172.663"/>
</g>
<!-- Node24 -->
<g id="node59" class="node"><title>Node24</title>
<a xlink:href="rectangle_8hpp.html" target="_top" xlink:title="include/rectangle.hpp">
<polygon fill="white" stroke="black" points="1237.5,-116.5 1237.5,-137.5 1346.5,-137.5 1346.5,-116.5 1237.5,-116.5"/>
<text text-anchor="middle" x="1292" y="-124.5" font-family="Helvetica,sans-Serif" font-size="10.00">include/rectangle.hpp</text>
</a>
</g>
<!-- Node1&#45;&gt;Node24 -->
<g id="edge70" class="edge"><title>Node1&#45;&gt;Node24</title>
<path fill="none" stroke="midnightblue" d="M784.392,-179.484C878.412,-171.382 1057.19,-155.335 1209,-138 1218.1,-136.961 1227.75,-135.767 1237.12,-134.558"/>
<polygon fill="midnightblue" stroke="midnightblue" points="783.845,-176.018 774.181,-180.362 784.444,-182.993 783.845,-176.018"/>
</g>
<!-- Node26 -->
<g id="node65" class="node"><title>Node26</title>
<a xlink:href="trigger_8hpp.html" target="_top" xlink:title="include/trigger.hpp">
<polygon fill="white" stroke="black" points="829,-116.5 829,-137.5 925,-137.5 925,-116.5 829,-116.5"/>
<text text-anchor="middle" x="877" y="-124.5" font-family="Helvetica,sans-Serif" font-size="10.00">include/trigger.hpp</text>
</a>
</g>
<!-- Node1&#45;&gt;Node26 -->
<g id="edge78" class="edge"><title>Node1&#45;&gt;Node26</title>
<path fill="none" stroke="midnightblue" d="M757.112,-171.009C785.19,-160.702 822.782,-146.903 848.334,-137.523"/>
<polygon fill="midnightblue" stroke="midnightblue" points="755.794,-167.765 747.613,-174.497 758.206,-174.336 755.794,-167.765"/>
</g>
<!-- Node3 -->
<g id="node5" class="node"><title>Node3</title>
<a xlink:href="viewport_8hpp.html" target="_top" xlink:title="include/viewport.hpp">
<polygon fill="white" stroke="black" points="182,-58.5 182,-79.5 288,-79.5 288,-58.5 182,-58.5"/>
<text text-anchor="middle" x="235" y="-66.5" font-family="Helvetica,sans-Serif" font-size="10.00">include/viewport.hpp</text>
</a>
</g>
<!-- Node2&#45;&gt;Node3 -->
<g id="edge4" class="edge"><title>Node2&#45;&gt;Node3</title>
<path fill="none" stroke="midnightblue" d="M306.862,-111.101C289.733,-101.066 268.081,-88.3808 253.043,-79.5707"/>
<polygon fill="midnightblue" stroke="midnightblue" points="305.444,-114.327 315.842,-116.362 308.983,-108.287 305.444,-114.327"/>
</g>
<!-- Node10 -->
<g id="node19" class="node"><title>Node10</title>
<a xlink:href="cube_8cpp.html" target="_top" xlink:title="src/cube.cpp">
<polygon fill="white" stroke="black" points="91.5,-58.5 91.5,-79.5 164.5,-79.5 164.5,-58.5 91.5,-58.5"/>
<text text-anchor="middle" x="128" y="-66.5" font-family="Helvetica,sans-Serif" font-size="10.00">src/cube.cpp</text>
</a>
</g>
<!-- Node2&#45;&gt;Node10 -->
<g id="edge18" class="edge"><title>Node2&#45;&gt;Node10</title>
<path fill="none" stroke="midnightblue" d="M286.625,-113.661C249.539,-103.22 198.709,-88.9084 164.681,-79.3277"/>
<polygon fill="midnightblue" stroke="midnightblue" points="286.121,-117.155 296.695,-116.497 288.018,-110.417 286.121,-117.155"/>
</g>
<!-- Node11 -->
<g id="node21" class="node"><title>Node11</title>
<a xlink:href="trigger_8cpp.html" target="_top" xlink:title="src/trigger.cpp">
<polygon fill="white" stroke="black" points="769.5,-58.5 769.5,-79.5 848.5,-79.5 848.5,-58.5 769.5,-58.5"/>
<text text-anchor="middle" x="809" y="-66.5" font-family="Helvetica,sans-Serif" font-size="10.00">src/trigger.cpp</text>
</a>
</g>
<!-- Node2&#45;&gt;Node11 -->
<g id="edge20" class="edge"><title>Node2&#45;&gt;Node11</title>
<path fill="none" stroke="midnightblue" d="M389.049,-115.979C554.473,-91.9265 599.81,-106.136 761,-80 763.701,-79.5621 766.476,-79.0618 769.265,-78.5216"/>
<polygon fill="midnightblue" stroke="midnightblue" points="388.399,-112.537 379.019,-117.462 389.423,-119.462 388.399,-112.537"/>
</g>
<!-- Node12 -->
<g id="node23" class="node"><title>Node12</title>
<a xlink:href="world_8cpp.html" target="_top" xlink:title="src/world.cpp">
<polygon fill="white" stroke="black" points="305.5,-58.5 305.5,-79.5 380.5,-79.5 380.5,-58.5 305.5,-58.5"/>
<text text-anchor="middle" x="343" y="-66.5" font-family="Helvetica,sans-Serif" font-size="10.00">src/world.cpp</text>
</a>
</g>
<!-- Node2&#45;&gt;Node12 -->
<g id="edge22" class="edge"><title>Node2&#45;&gt;Node12</title>
<path fill="none" stroke="midnightblue" d="M337.229,-106.191C338.629,-97.1684 340.208,-86.9941 341.36,-79.5707"/>
<polygon fill="midnightblue" stroke="midnightblue" points="333.726,-105.943 335.651,-116.362 340.643,-107.017 333.726,-105.943"/>
</g>
<!-- Node4 -->
<g id="node7" class="node"><title>Node4</title>
<a xlink:href="actor_8cpp.html" target="_top" xlink:title="src/actor.cpp">
<polygon fill="white" stroke="black" points="304,-0.5 304,-21.5 378,-21.5 378,-0.5 304,-0.5"/>
<text text-anchor="middle" x="341" y="-8.5" font-family="Helvetica,sans-Serif" font-size="10.00">src/actor.cpp</text>
</a>
</g>
<!-- Node3&#45;&gt;Node4 -->
<g id="edge6" class="edge"><title>Node3&#45;&gt;Node4</title>
<path fill="none" stroke="midnightblue" d="M263.296,-53.5175C281.752,-43.4189 305.356,-30.5032 321.681,-21.5707"/>
<polygon fill="midnightblue" stroke="midnightblue" points="261.535,-50.4913 254.442,-58.3619 264.895,-56.6322 261.535,-50.4913"/>
</g>
<!-- Node5 -->
<g id="node9" class="node"><title>Node5</title>
<a xlink:href="fileloader_8cpp.html" target="_top" xlink:title="src/fileloader.cpp">
<polygon fill="white" stroke="black" points="395.5,-0.5 395.5,-21.5 486.5,-21.5 486.5,-0.5 395.5,-0.5"/>
<text text-anchor="middle" x="441" y="-8.5" font-family="Helvetica,sans-Serif" font-size="10.00">src/fileloader.cpp</text>
</a>
</g>
<!-- Node3&#45;&gt;Node5 -->
<g id="edge8" class="edge"><title>Node3&#45;&gt;Node5</title>
<path fill="none" stroke="midnightblue" d="M282.311,-55.6795C319.151,-45.307 369.583,-31.1078 403.625,-21.5231"/>
<polygon fill="midnightblue" stroke="midnightblue" points="280.982,-52.4174 272.305,-58.4966 282.879,-59.1554 280.982,-52.4174"/>
</g>
<!-- Node3&#45;&gt;Node6 -->
<g id="edge10" class="edge"><title>Node3&#45;&gt;Node6</title>
<path fill="none" stroke="midnightblue" d="M191.16,-55.5464C157.398,-45.1857 111.39,-31.0668 80.2907,-21.5231"/>
<polygon fill="midnightblue" stroke="midnightblue" points="190.187,-58.9088 200.774,-58.4966 192.24,-52.2168 190.187,-58.9088"/>
</g>
<!-- Node7 -->
<g id="node13" class="node"><title>Node7</title>
<a xlink:href="light_8cpp.html" target="_top" xlink:title="src/light.cpp">
<polygon fill="white" stroke="black" points="110,-0.5 110,-21.5 180,-21.5 180,-0.5 110,-0.5"/>
<text text-anchor="middle" x="145" y="-8.5" font-family="Helvetica,sans-Serif" font-size="10.00">src/light.cpp</text>
</a>
</g>
<!-- Node3&#45;&gt;Node7 -->
<g id="edge12" class="edge"><title>Node3&#45;&gt;Node7</title>
<path fill="none" stroke="midnightblue" d="M209.895,-52.8215C194.393,-42.8312 174.947,-30.2993 161.403,-21.5707"/>
<polygon fill="midnightblue" stroke="midnightblue" points="208.191,-55.8869 218.493,-58.3619 211.983,-50.0028 208.191,-55.8869"/>
</g>
<!-- Node8 -->
<g id="node15" class="node"><title>Node8</title>
<a xlink:href="spotlight_8cpp.html" target="_top" xlink:title="src/spotlight.cpp">
<polygon fill="white" stroke="black" points="197.5,-0.5 197.5,-21.5 286.5,-21.5 286.5,-0.5 197.5,-0.5"/>
<text text-anchor="middle" x="242" y="-8.5" font-family="Helvetica,sans-Serif" font-size="10.00">src/spotlight.cpp</text>
</a>
</g>
<!-- Node3&#45;&gt;Node8 -->
<g id="edge14" class="edge"><title>Node3&#45;&gt;Node8</title>
<path fill="none" stroke="midnightblue" d="M237.511,-48.1906C238.6,-39.1684 239.828,-28.9941 240.724,-21.5707"/>
<polygon fill="midnightblue" stroke="midnightblue" points="234.007,-48.0145 236.284,-58.3619 240.957,-48.8533 234.007,-48.0145"/>
</g>
<!-- Node9 -->
<g id="node17" class="node"><title>Node9</title>
<a xlink:href="viewport_8cpp.html" target="_top" xlink:title="src/viewport.cpp">
<polygon fill="white" stroke="black" points="955.5,-0.5 955.5,-21.5 1044.5,-21.5 1044.5,-0.5 955.5,-0.5"/>
<text text-anchor="middle" x="1000" y="-8.5" font-family="Helvetica,sans-Serif" font-size="10.00">src/viewport.cpp</text>
</a>
</g>
<!-- Node3&#45;&gt;Node9 -->
<g id="edge16" class="edge"><title>Node3&#45;&gt;Node9</title>
<path fill="none" stroke="midnightblue" d="M298.216,-57.9675C552.565,-27.5234 845.511,-15.8532 955.427,-12.2962"/>
<polygon fill="midnightblue" stroke="midnightblue" points="297.55,-54.5224 288.043,-59.1978 298.391,-61.4718 297.55,-54.5224"/>
</g>
<!-- Node13&#45;&gt;Node3 -->
<g id="edge26" class="edge"><title>Node13&#45;&gt;Node3</title>
<path fill="none" stroke="midnightblue" d="M398.024,-113.812C360.248,-103.428 308.3,-89.1487 273.282,-79.5231"/>
<polygon fill="midnightblue" stroke="midnightblue" points="397.219,-117.221 407.789,-116.497 399.075,-110.471 397.219,-117.221"/>
</g>
<!-- Node13&#45;&gt;Node12 -->
<g id="edge32" class="edge"><title>Node13&#45;&gt;Node12</title>
<path fill="none" stroke="midnightblue" d="M418.259,-111.379C400.362,-101.301 377.563,-88.4624 361.772,-79.5707"/>
<polygon fill="midnightblue" stroke="midnightblue" points="416.677,-114.505 427.108,-116.362 420.112,-108.405 416.677,-114.505"/>
</g>
<!-- Node14 -->
<g id="node28" class="node"><title>Node14</title>
<a xlink:href="mainwindow_8cpp.html" target="_top" xlink:title="src/mainwindow.cpp">
<polygon fill="white" stroke="black" points="866,-58.5 866,-79.5 972,-79.5 972,-58.5 866,-58.5"/>
<text text-anchor="middle" x="919" y="-66.5" font-family="Helvetica,sans-Serif" font-size="10.00">src/mainwindow.cpp</text>
</a>
</g>
<!-- Node13&#45;&gt;Node14 -->
<g id="edge28" class="edge"><title>Node13&#45;&gt;Node14</title>
<path fill="none" stroke="midnightblue" d="M505.267,-120.32C614.905,-107.95 839.853,-82.4991 857,-80 859.921,-79.5743 862.915,-79.1161 865.935,-78.6368"/>
<polygon fill="midnightblue" stroke="midnightblue" points="504.572,-116.876 495.028,-121.475 505.357,-123.832 504.572,-116.876"/>
</g>
<!-- Node15 -->
<g id="node30" class="node"><title>Node15</title>
<a xlink:href="sphere_8cpp.html" target="_top" xlink:title="src/sphere.cpp">
<polygon fill="white" stroke="black" points="397.5,-58.5 397.5,-79.5 478.5,-79.5 478.5,-58.5 397.5,-58.5"/>
<text text-anchor="middle" x="438" y="-66.5" font-family="Helvetica,sans-Serif" font-size="10.00">src/sphere.cpp</text>
</a>
</g>
<!-- Node13&#45;&gt;Node15 -->
<g id="edge30" class="edge"><title>Node13&#45;&gt;Node15</title>
<path fill="none" stroke="midnightblue" d="M443.13,-106.191C441.885,-97.1684 440.482,-86.9941 439.458,-79.5707"/>
<polygon fill="midnightblue" stroke="midnightblue" points="439.699,-106.934 444.533,-116.362 446.633,-105.977 439.699,-106.934"/>
</g>
<!-- Node16&#45;&gt;Node9 -->
<g id="edge40" class="edge"><title>Node16&#45;&gt;Node9</title>
<path fill="none" stroke="midnightblue" d="M613.529,-107.388C622.435,-91.3183 637.311,-69.4303 657,-58 706.836,-29.0679 874.451,-17.1087 955.446,-12.9282"/>
<polygon fill="midnightblue" stroke="midnightblue" points="610.298,-106.013 608.766,-116.497 616.501,-109.257 610.298,-106.013"/>
</g>
<!-- Node16&#45;&gt;Node14 -->
<g id="edge38" class="edge"><title>Node16&#45;&gt;Node14</title>
<path fill="none" stroke="midnightblue" d="M665.855,-115.611C724.201,-104.868 810.733,-88.9349 865.993,-78.76"/>
<polygon fill="midnightblue" stroke="midnightblue" points="664.864,-112.234 655.663,-117.487 666.132,-119.119 664.864,-112.234"/>
</g>
<!-- Node17 -->
<g id="node35" class="node"><title>Node17</title>
<a xlink:href="cylinder_8cpp.html" target="_top" xlink:title="src/cylinder.cpp">
<polygon fill="white" stroke="black" points="496,-58.5 496,-79.5 582,-79.5 582,-58.5 496,-58.5"/>
<text text-anchor="middle" x="539" y="-66.5" font-family="Helvetica,sans-Serif" font-size="10.00">src/cylinder.cpp</text>
</a>
</g>
<!-- Node16&#45;&gt;Node17 -->
<g id="edge36" class="edge"><title>Node16&#45;&gt;Node17</title>
<path fill="none" stroke="midnightblue" d="M584.602,-109.691C573.629,-99.8996 560.263,-87.973 550.846,-79.5707"/>
<polygon fill="midnightblue" stroke="midnightblue" points="582.286,-112.315 592.078,-116.362 586.947,-107.092 582.286,-112.315"/>
</g>
<!-- Node18&#45;&gt;Node9 -->
<g id="edge50" class="edge"><title>Node18&#45;&gt;Node9</title>
<path fill="none" stroke="midnightblue" d="M692.657,-110.49C673.063,-96.1906 652.089,-75.1632 667,-58 685.667,-36.5133 869.108,-20.4901 955.469,-14.074"/>
<polygon fill="midnightblue" stroke="midnightblue" points="690.928,-113.55 701.144,-116.362 694.911,-107.794 690.928,-113.55"/>
</g>
<!-- Node18&#45;&gt;Node12 -->
<g id="edge52" class="edge"><title>Node18&#45;&gt;Node12</title>
<path fill="none" stroke="midnightblue" d="M662.161,-115.779C540.626,-96.2223 507.023,-101.775 389,-80 386.255,-79.4935 383.427,-78.9274 380.587,-78.3267"/>
<polygon fill="midnightblue" stroke="midnightblue" points="661.798,-119.266 672.231,-117.424 662.926,-112.357 661.798,-119.266"/>
</g>
<!-- Node18&#45;&gt;Node14 -->
<g id="edge48" class="edge"><title>Node18&#45;&gt;Node14</title>
<path fill="none" stroke="midnightblue" d="M764.933,-113.68C800.7,-103.307 849.663,-89.1078 882.714,-79.5231"/>
<polygon fill="midnightblue" stroke="midnightblue" points="763.848,-110.35 755.218,-116.497 765.798,-117.073 763.848,-110.35"/>
</g>
<!-- Node19 -->
<g id="node42" class="node"><title>Node19</title>
<a xlink:href="group_8cpp.html" target="_top" xlink:title="src/group.cpp">
<polygon fill="white" stroke="black" points="676,-58.5 676,-79.5 752,-79.5 752,-58.5 676,-58.5"/>
<text text-anchor="middle" x="714" y="-66.5" font-family="Helvetica,sans-Serif" font-size="10.00">src/group.cpp</text>
</a>
</g>
<!-- Node18&#45;&gt;Node19 -->
<g id="edge46" class="edge"><title>Node18&#45;&gt;Node19</title>
<path fill="none" stroke="midnightblue" d="M717.206,-106.191C716.428,-97.1684 715.551,-86.9941 714.911,-79.5707"/>
<polygon fill="midnightblue" stroke="midnightblue" points="713.737,-106.699 718.083,-116.362 720.711,-106.098 713.737,-106.699"/>
</g>
<!-- Node20&#45;&gt;Node9 -->
<g id="edge60" class="edge"><title>Node20&#45;&gt;Node9</title>
<path fill="none" stroke="midnightblue" d="M1015.57,-105.861C1016.21,-92.1464 1016.32,-73.9287 1014,-58 1012.13,-45.194 1007.55,-31.0258 1004.13,-21.6276"/>
<polygon fill="midnightblue" stroke="midnightblue" points="1012.06,-105.984 1014.96,-116.174 1019.05,-106.399 1012.06,-105.984"/>
</g>
<!-- Node20&#45;&gt;Node14 -->
<g id="edge58" class="edge"><title>Node20&#45;&gt;Node14</title>
<path fill="none" stroke="midnightblue" d="M987.958,-111.101C971.522,-101.066 950.744,-88.3808 936.314,-79.5707"/>
<polygon fill="midnightblue" stroke="midnightblue" points="986.217,-114.138 996.576,-116.362 989.864,-108.164 986.217,-114.138"/>
</g>
<!-- Node21 -->
<g id="node49" class="node"><title>Node21</title>
<a xlink:href="line_8cpp.html" target="_top" xlink:title="src/line.cpp">
<polygon fill="white" stroke="black" points="1065.5,-58.5 1065.5,-79.5 1132.5,-79.5 1132.5,-58.5 1065.5,-58.5"/>
<text text-anchor="middle" x="1099" y="-66.5" font-family="Helvetica,sans-Serif" font-size="10.00">src/line.cpp</text>
</a>
</g>
<!-- Node20&#45;&gt;Node21 -->
<g id="edge56" class="edge"><title>Node20&#45;&gt;Node21</title>
<path fill="none" stroke="midnightblue" d="M1038.12,-110.541C1052.69,-100.597 1070.84,-88.2177 1083.51,-79.5707"/>
<polygon fill="midnightblue" stroke="midnightblue" points="1035.88,-107.834 1029.59,-116.362 1039.82,-113.617 1035.88,-107.834"/>
</g>
<!-- Node22&#45;&gt;Node9 -->
<g id="edge68" class="edge"><title>Node22&#45;&gt;Node9</title>
<path fill="none" stroke="midnightblue" d="M1150.14,-106.099C1151.86,-91.1796 1151.45,-71.4513 1141,-58 1128.93,-42.4652 1081.2,-28.7602 1044.59,-20.2176"/>
<polygon fill="midnightblue" stroke="midnightblue" points="1146.62,-105.969 1148.54,-116.388 1153.54,-107.043 1146.62,-105.969"/>
</g>
<!-- Node22&#45;&gt;Node14 -->
<g id="edge64" class="edge"><title>Node22&#45;&gt;Node14</title>
<path fill="none" stroke="midnightblue" d="M1095.16,-114.011C1054.46,-103.611 998.098,-89.2102 960.185,-79.5231"/>
<polygon fill="midnightblue" stroke="midnightblue" points="1094.34,-117.412 1104.89,-116.497 1096.07,-110.63 1094.34,-117.412"/>
</g>
<!-- Node23 -->
<g id="node56" class="node"><title>Node23</title>
<a xlink:href="pyramide_8cpp.html" target="_top" xlink:title="src/pyramide.cpp">
<polygon fill="white" stroke="black" points="1188,-58.5 1188,-79.5 1280,-79.5 1280,-58.5 1188,-58.5"/>
<text text-anchor="middle" x="1234" y="-66.5" font-family="Helvetica,sans-Serif" font-size="10.00">src/pyramide.cpp</text>
</a>
</g>
<!-- Node22&#45;&gt;Node23 -->
<g id="edge66" class="edge"><title>Node22&#45;&gt;Node23</title>
<path fill="none" stroke="midnightblue" d="M1170.55,-110.821C1185.7,-100.831 1204.72,-88.2993 1217.96,-79.5707"/>
<polygon fill="midnightblue" stroke="midnightblue" points="1168.56,-107.936 1162.14,-116.362 1172.42,-113.781 1168.56,-107.936"/>
</g>
<!-- Node24&#45;&gt;Node9 -->
<g id="edge76" class="edge"><title>Node24&#45;&gt;Node9</title>
<path fill="none" stroke="midnightblue" d="M1297.36,-106.359C1299.98,-91.1362 1300.47,-70.91 1289,-58 1272.96,-39.9513 1121.54,-22.8041 1044.52,-15.1622"/>
<polygon fill="midnightblue" stroke="midnightblue" points="1293.89,-105.871 1295.22,-116.382 1300.73,-107.336 1293.89,-105.871"/>
</g>
<!-- Node24&#45;&gt;Node14 -->
<g id="edge72" class="edge"><title>Node24&#45;&gt;Node14</title>
<path fill="none" stroke="midnightblue" d="M1227.47,-116.966C1155.25,-105.735 1039.56,-87.746 972.272,-77.2836"/>
<polygon fill="midnightblue" stroke="midnightblue" points="1226.94,-120.426 1237.36,-118.504 1228.02,-113.509 1226.94,-120.426"/>
</g>
<!-- Node25 -->
<g id="node62" class="node"><title>Node25</title>
<a xlink:href="rectangle_8cpp.html" target="_top" xlink:title="src/rectangle.cpp">
<polygon fill="white" stroke="black" points="1336,-58.5 1336,-79.5 1428,-79.5 1428,-58.5 1336,-58.5"/>
<text text-anchor="middle" x="1382" y="-66.5" font-family="Helvetica,sans-Serif" font-size="10.00">src/rectangle.cpp</text>
</a>
</g>
<!-- Node24&#45;&gt;Node25 -->
<g id="edge74" class="edge"><title>Node24&#45;&gt;Node25</title>
<path fill="none" stroke="midnightblue" d="M1317.1,-110.821C1332.61,-100.831 1352.05,-88.2993 1365.6,-79.5707"/>
<polygon fill="midnightblue" stroke="midnightblue" points="1315.02,-108.003 1308.51,-116.362 1318.81,-113.887 1315.02,-108.003"/>
</g>
<!-- Node26&#45;&gt;Node9 -->
<g id="edge84" class="edge"><title>Node26&#45;&gt;Node9</title>
<path fill="none" stroke="midnightblue" d="M930.723,-112.972C948.935,-105.802 967.95,-95.2591 981,-80 995.375,-63.192 998.945,-36.3989 999.787,-21.6323"/>
<polygon fill="midnightblue" stroke="midnightblue" points="929.494,-109.695 921.309,-116.421 931.902,-116.268 929.494,-109.695"/>
</g>
<!-- Node26&#45;&gt;Node11 -->
<g id="edge82" class="edge"><title>Node26&#45;&gt;Node11</title>
<path fill="none" stroke="midnightblue" d="M856.706,-109.691C845.227,-99.8996 831.244,-87.973 821.393,-79.5707"/>
<polygon fill="midnightblue" stroke="midnightblue" points="854.648,-112.535 864.528,-116.362 859.191,-107.209 854.648,-112.535"/>
</g>
<!-- Node26&#45;&gt;Node14 -->
<g id="edge80" class="edge"><title>Node26&#45;&gt;Node14</title>
<path fill="none" stroke="midnightblue" d="M890.577,-108.25C897.457,-98.75 905.556,-87.5651 911.345,-79.5707"/>
<polygon fill="midnightblue" stroke="midnightblue" points="887.734,-106.21 884.703,-116.362 893.403,-110.315 887.734,-106.21"/>
</g>
</g>
</svg>
