<?xml version="1.0" encoding="UTF-8" standalone="no"?>
<!DOCTYPE svg PUBLIC "-//W3C//DTD SVG 1.1//EN"
 "http://www.w3.org/Graphics/SVG/1.1/DTD/svg11.dtd">
<!-- Generated by graphviz version 2.26.3 (20100126.1600)
 -->
<!-- Title: src/geometry.cpp Pages: 1 -->
<svg width="1415pt" height="392pt"
 viewBox="0.00 0.00 1415.29 392.00" xmlns="http://www.w3.org/2000/svg" xmlns:xlink="http://www.w3.org/1999/xlink">
<g id="graph1" class="graph" transform="scale(1 1) rotate(0) translate(4 388)">
<title>src/geometry.cpp</title>
<polygon fill="white" stroke="white" points="-4,5 -4,-388 1412.29,-388 1412.29,5 -4,5"/>
<!-- Node1 -->
<g id="node1" class="node"><title>Node1</title>
<polygon fill="#bfbfbf" stroke="black" points="532.295,-362.5 532.295,-383.5 624.295,-383.5 624.295,-362.5 532.295,-362.5"/>
<text text-anchor="middle" x="578.295" y="-370.5" font-family="Helvetica,sans-Serif" font-size="10.00">src/geometry.cpp</text>
</g>
<!-- Node2 -->
<g id="node3" class="node"><title>Node2</title>
<a xlink:href="geometry_8hpp.html" target="_top" xlink:title="geometry.hpp">
<polygon fill="white" stroke="black" points="449.295,-174.5 449.295,-195.5 525.295,-195.5 525.295,-174.5 449.295,-174.5"/>
<text text-anchor="middle" x="487.295" y="-182.5" font-family="Helvetica,sans-Serif" font-size="10.00">geometry.hpp</text>
</a>
</g>
<!-- Node1&#45;&gt;Node2 -->
<g id="edge2" class="edge"><title>Node1&#45;&gt;Node2</title>
<path fill="none" stroke="midnightblue" d="M532.256,-363.912C454.823,-347.588 303.946,-310.969 273.295,-268 264.003,-254.974 263.268,-244.468 273.295,-232 293.66,-206.676 382.173,-194.219 438.791,-188.735"/>
<polygon fill="midnightblue" stroke="midnightblue" points="439.335,-192.199 448.969,-187.79 438.688,-185.229 439.335,-192.199"/>
</g>
<!-- Node20 -->
<g id="node46" class="node"><title>Node20</title>
<a xlink:href="viewport_8hpp.html" target="_top" xlink:title="viewport.hpp">
<polygon fill="white" stroke="black" points="866.295,-304.5 866.295,-325.5 938.295,-325.5 938.295,-304.5 866.295,-304.5"/>
<text text-anchor="middle" x="902.295" y="-312.5" font-family="Helvetica,sans-Serif" font-size="10.00">viewport.hpp</text>
</a>
</g>
<!-- Node1&#45;&gt;Node20 -->
<g id="edge52" class="edge"><title>Node1&#45;&gt;Node20</title>
<path fill="none" stroke="midnightblue" d="M624.372,-364.752C685.936,-353.731 794.405,-334.314 856.053,-323.278"/>
<polygon fill="midnightblue" stroke="midnightblue" points="856.67,-326.723 865.897,-321.516 855.437,-319.833 856.67,-326.723"/>
</g>
<!-- Node3 -->
<g id="node5" class="node"><title>Node3</title>
<polygon fill="white" stroke="#bfbfbf" points="937.795,-0.5 937.795,-21.5 990.795,-21.5 990.795,-0.5 937.795,-0.5"/>
<text text-anchor="middle" x="964.295" y="-8.5" font-family="Helvetica,sans-Serif" font-size="10.00">QObject</text>
</g>
<!-- Node2&#45;&gt;Node3 -->
<g id="edge4" class="edge"><title>Node2&#45;&gt;Node3</title>
<path fill="none" stroke="midnightblue" d="M525.652,-174.791C572.287,-162.253 645.426,-142.135 650.295,-138 680.298,-112.52 656.671,-81.4382 688.295,-58 772.753,4.59676 820.886,-43.3168 927.815,-21.9697"/>
<polygon fill="midnightblue" stroke="midnightblue" points="928.624,-25.3756 937.66,-19.8426 927.146,-18.5334 928.624,-25.3756"/>
</g>
<!-- Node4 -->
<g id="node7" class="node"><title>Node4</title>
<polygon fill="white" stroke="#bfbfbf" points="855.795,-0.5 855.795,-21.5 920.795,-21.5 920.795,-0.5 855.795,-0.5"/>
<text text-anchor="middle" x="888.295" y="-8.5" font-family="Helvetica,sans-Serif" font-size="10.00">QVector3D</text>
</g>
<!-- Node2&#45;&gt;Node4 -->
<g id="edge6" class="edge"><title>Node2&#45;&gt;Node4</title>
<path fill="none" stroke="midnightblue" d="M448.975,-182.969C358.6,-177.789 138.08,-162.719 116.295,-138 109.83,-130.664 109.837,-123.342 116.295,-116 222.409,4.63332 669.144,-51.4906 845.739,-21.9816"/>
<polygon fill="midnightblue" stroke="midnightblue" points="846.503,-25.4001 855.714,-20.1643 845.248,-18.5134 846.503,-25.4001"/>
</g>
<!-- Node5 -->
<g id="node9" class="node"><title>Node5</title>
<polygon fill="white" stroke="#bfbfbf" points="696.795,-58.5 696.795,-79.5 799.795,-79.5 799.795,-58.5 696.795,-58.5"/>
<text text-anchor="middle" x="748.295" y="-66.5" font-family="Helvetica,sans-Serif" font-size="10.00">QOpenGLFunctions</text>
</g>
<!-- Node2&#45;&gt;Node5 -->
<g id="edge8" class="edge"><title>Node2&#45;&gt;Node5</title>
<path fill="none" stroke="midnightblue" d="M525.426,-182.342C566.765,-178.041 633.493,-166.866 683.295,-138 704.719,-125.582 723.414,-103.924 735.187,-88.1785"/>
<polygon fill="midnightblue" stroke="midnightblue" points="738.284,-89.866 741.286,-79.7054 732.603,-85.7762 738.284,-89.866"/>
</g>
<!-- Node6 -->
<g id="node11" class="node"><title>Node6</title>
<polygon fill="white" stroke="#bfbfbf" points="125.295,-116.5 125.295,-137.5 253.295,-137.5 253.295,-116.5 125.295,-116.5"/>
<text text-anchor="middle" x="189.295" y="-124.5" font-family="Helvetica,sans-Serif" font-size="10.00">QOpenGLShaderProgram</text>
</g>
<!-- Node2&#45;&gt;Node6 -->
<g id="edge10" class="edge"><title>Node2&#45;&gt;Node6</title>
<path fill="none" stroke="midnightblue" d="M449.25,-177.595C399.931,-167.996 313.196,-151.115 253.571,-139.51"/>
<polygon fill="midnightblue" stroke="midnightblue" points="253.992,-136.027 243.508,-137.552 252.655,-142.898 253.992,-136.027"/>
</g>
<!-- Node7 -->
<g id="node13" class="node"><title>Node7</title>
<polygon fill="white" stroke="#bfbfbf" points="271.295,-116.5 271.295,-137.5 357.295,-137.5 357.295,-116.5 271.295,-116.5"/>
<text text-anchor="middle" x="314.295" y="-124.5" font-family="Helvetica,sans-Serif" font-size="10.00">QOpenGLBuffer</text>
</g>
<!-- Node2&#45;&gt;Node7 -->
<g id="edge12" class="edge"><title>Node2&#45;&gt;Node7</title>
<path fill="none" stroke="midnightblue" d="M455.966,-174.497C427.762,-165.041 386.128,-151.083 355.286,-140.743"/>
<polygon fill="midnightblue" stroke="midnightblue" points="356.276,-137.383 345.682,-137.523 354.051,-144.02 356.276,-137.383"/>
</g>
<!-- Node8 -->
<g id="node15" class="node"><title>Node8</title>
<polygon fill="white" stroke="#bfbfbf" points="375.295,-116.5 375.295,-137.5 515.295,-137.5 515.295,-116.5 375.295,-116.5"/>
<text text-anchor="middle" x="445.295" y="-124.5" font-family="Helvetica,sans-Serif" font-size="10.00">QOpenGLVertexArrayObject</text>
</g>
<!-- Node2&#45;&gt;Node8 -->
<g id="edge14" class="edge"><title>Node2&#45;&gt;Node8</title>
<path fill="none" stroke="midnightblue" d="M479.591,-174.362C473.848,-166.431 465.852,-155.389 459.025,-145.961"/>
<polygon fill="midnightblue" stroke="midnightblue" points="461.649,-143.617 452.949,-137.571 455.98,-147.723 461.649,-143.617"/>
</g>
<!-- Node9 -->
<g id="node17" class="node"><title>Node9</title>
<polygon fill="white" stroke="#bfbfbf" points="860.795,-116.5 860.795,-137.5 907.795,-137.5 907.795,-116.5 860.795,-116.5"/>
<text text-anchor="middle" x="884.295" y="-124.5" font-family="Helvetica,sans-Serif" font-size="10.00">QColor</text>
</g>
<!-- Node2&#45;&gt;Node9 -->
<g id="edge16" class="edge"><title>Node2&#45;&gt;Node9</title>
<path fill="none" stroke="midnightblue" d="M525.618,-180.512C607.027,-170.919 793.844,-148.568 850.627,-137.822"/>
<polygon fill="midnightblue" stroke="midnightblue" points="851.617,-141.191 860.686,-135.714 850.18,-134.34 851.617,-141.191"/>
</g>
<!-- Node10 -->
<g id="node19" class="node"><title>Node10</title>
<a xlink:href="globals_8hpp.html" target="_top" xlink:title="Definitions globales. ">
<polygon fill="white" stroke="black" points="855.295,-58.5 855.295,-79.5 921.295,-79.5 921.295,-58.5 855.295,-58.5"/>
<text text-anchor="middle" x="888.295" y="-66.5" font-family="Helvetica,sans-Serif" font-size="10.00">globals.hpp</text>
</a>
</g>
<!-- Node2&#45;&gt;Node10 -->
<g id="edge18" class="edge"><title>Node2&#45;&gt;Node10</title>
<path fill="none" stroke="midnightblue" d="M525.301,-179.126C570.109,-171.712 646.551,-157.53 710.295,-138 735.073,-130.408 740.176,-125.482 764.295,-116 792.918,-104.747 825.436,-92.4389 849.989,-83.242"/>
<polygon fill="midnightblue" stroke="midnightblue" points="851.512,-86.4093 859.652,-79.6286 849.06,-79.8526 851.512,-86.4093"/>
</g>
<!-- Node13 -->
<g id="node27" class="node"><title>Node13</title>
<a xlink:href="actor_8hpp.html" target="_top" xlink:title="actor.hpp">
<polygon fill="white" stroke="black" points="924.795,-116.5 924.795,-137.5 981.795,-137.5 981.795,-116.5 924.795,-116.5"/>
<text text-anchor="middle" x="953.295" y="-124.5" font-family="Helvetica,sans-Serif" font-size="10.00">actor.hpp</text>
</a>
</g>
<!-- Node2&#45;&gt;Node13 -->
<g id="edge28" class="edge"><title>Node2&#45;&gt;Node13</title>
<path fill="none" stroke="midnightblue" d="M525.523,-183.123C599.22,-179.008 766.093,-167.285 914.538,-138.083"/>
<polygon fill="midnightblue" stroke="midnightblue" points="915.62,-141.436 924.74,-136.042 914.247,-134.572 915.62,-141.436"/>
</g>
<!-- Node16 -->
<g id="node35" class="node"><title>Node16</title>
<a xlink:href="material_8hpp.html" target="_top" xlink:title="material.hpp">
<polygon fill="white" stroke="black" points="773.295,-116.5 773.295,-137.5 843.295,-137.5 843.295,-116.5 773.295,-116.5"/>
<text text-anchor="middle" x="808.295" y="-124.5" font-family="Helvetica,sans-Serif" font-size="10.00">material.hpp</text>
</a>
</g>
<!-- Node2&#45;&gt;Node16 -->
<g id="edge38" class="edge"><title>Node2&#45;&gt;Node16</title>
<path fill="none" stroke="midnightblue" d="M525.694,-178.982C578.473,-170.57 676.331,-154.469 759.295,-138 760.569,-137.747 761.862,-137.486 763.166,-137.219"/>
<polygon fill="midnightblue" stroke="midnightblue" points="764.215,-140.575 773.276,-135.083 762.768,-133.726 764.215,-140.575"/>
</g>
<!-- Node17 -->
<g id="node40" class="node"><title>Node17</title>
<polygon fill="white" stroke="#bfbfbf" points="533.295,-116.5 533.295,-137.5 585.295,-137.5 585.295,-116.5 533.295,-116.5"/>
<text text-anchor="middle" x="559.295" y="-124.5" font-family="Helvetica,sans-Serif" font-size="10.00">memory</text>
</g>
<!-- Node2&#45;&gt;Node17 -->
<g id="edge46" class="edge"><title>Node2&#45;&gt;Node17</title>
<path fill="none" stroke="midnightblue" d="M500.501,-174.362C511.056,-165.859 526.052,-153.779 538.258,-143.947"/>
<polygon fill="midnightblue" stroke="midnightblue" points="540.581,-146.57 546.172,-137.571 536.189,-141.118 540.581,-146.57"/>
</g>
<!-- Node18 -->
<g id="node42" class="node"><title>Node18</title>
<polygon fill="white" stroke="#bfbfbf" points="25.2947,-116.5 25.2947,-137.5 69.2947,-137.5 69.2947,-116.5 25.2947,-116.5"/>
<text text-anchor="middle" x="47.2947" y="-124.5" font-family="Helvetica,sans-Serif" font-size="10.00">vector</text>
</g>
<!-- Node2&#45;&gt;Node18 -->
<g id="edge48" class="edge"><title>Node2&#45;&gt;Node18</title>
<path fill="none" stroke="midnightblue" d="M449.052,-182.86C376.896,-178.315 215.998,-165.755 83.2947,-138 82.0353,-137.737 80.7567,-137.449 79.4693,-137.141"/>
<polygon fill="midnightblue" stroke="midnightblue" points="80.1653,-133.705 69.6003,-134.499 78.3549,-140.466 80.1653,-133.705"/>
</g>
<!-- Node19 -->
<g id="node44" class="node"><title>Node19</title>
<polygon fill="white" stroke="#bfbfbf" points="603.295,-116.5 603.295,-137.5 641.295,-137.5 641.295,-116.5 603.295,-116.5"/>
<text text-anchor="middle" x="622.295" y="-124.5" font-family="Helvetica,sans-Serif" font-size="10.00">tuple</text>
</g>
<!-- Node2&#45;&gt;Node19 -->
<g id="edge50" class="edge"><title>Node2&#45;&gt;Node19</title>
<path fill="none" stroke="midnightblue" d="M511.742,-174.497C534.849,-164.569 569.507,-149.679 593.844,-139.223"/>
<polygon fill="midnightblue" stroke="midnightblue" points="595.451,-142.342 603.258,-135.179 592.688,-135.911 595.451,-142.342"/>
</g>
<!-- Node10&#45;&gt;Node3 -->
<g id="edge20" class="edge"><title>Node10&#45;&gt;Node3</title>
<path fill="none" stroke="midnightblue" d="M902.234,-58.3619C913.483,-49.7773 929.51,-37.5459 942.46,-27.6636"/>
<polygon fill="midnightblue" stroke="midnightblue" points="944.617,-30.4198 950.443,-21.5707 940.371,-24.8551 944.617,-30.4198"/>
</g>
<!-- Node10&#45;&gt;Node4 -->
<g id="edge24" class="edge"><title>Node10&#45;&gt;Node4</title>
<path fill="none" stroke="midnightblue" d="M888.295,-58.3619C888.295,-50.9219 888.295,-40.7427 888.295,-31.7276"/>
<polygon fill="midnightblue" stroke="midnightblue" points="891.795,-31.5706 888.295,-21.5707 884.795,-31.5707 891.795,-31.5706"/>
</g>
<!-- Node11 -->
<g id="node22" class="node"><title>Node11</title>
<polygon fill="white" stroke="#bfbfbf" points="767.795,-0.5 767.795,-21.5 838.795,-21.5 838.795,-0.5 767.795,-0.5"/>
<text text-anchor="middle" x="803.295" y="-8.5" font-family="Helvetica,sans-Serif" font-size="10.00">QQuaternion</text>
</g>
<!-- Node10&#45;&gt;Node11 -->
<g id="edge22" class="edge"><title>Node10&#45;&gt;Node11</title>
<path fill="none" stroke="midnightblue" d="M872.704,-58.3619C860.004,-49.6955 841.856,-37.3126 827.303,-27.3819"/>
<polygon fill="midnightblue" stroke="midnightblue" points="829.019,-24.316 818.786,-21.5707 825.074,-30.0982 829.019,-24.316"/>
</g>
<!-- Node12 -->
<g id="node25" class="node"><title>Node12</title>
<polygon fill="white" stroke="#bfbfbf" points="1306.79,-0.5 1306.79,-21.5 1355.79,-21.5 1355.79,-0.5 1306.79,-0.5"/>
<text text-anchor="middle" x="1331.29" y="-8.5" font-family="Helvetica,sans-Serif" font-size="10.00">QtMath</text>
</g>
<!-- Node10&#45;&gt;Node12 -->
<g id="edge26" class="edge"><title>Node10&#45;&gt;Node12</title>
<path fill="none" stroke="midnightblue" d="M921.67,-59.81C924.576,-59.1465 927.48,-58.5309 930.295,-58 1064.6,-32.6688 1226.95,-18.6588 1296.71,-13.4198"/>
<polygon fill="midnightblue" stroke="midnightblue" points="1296.99,-16.9088 1306.7,-12.6819 1296.47,-9.92779 1296.99,-16.9088"/>
</g>
<!-- Node13&#45;&gt;Node5 -->
<g id="edge34" class="edge"><title>Node13&#45;&gt;Node5</title>
<path fill="none" stroke="midnightblue" d="M924.625,-118.427C921.812,-117.601 918.999,-116.78 916.295,-116 876.078,-104.397 830.321,-91.6241 796.727,-82.326"/>
<polygon fill="midnightblue" stroke="midnightblue" points="797.282,-78.8483 786.711,-79.5571 795.417,-85.5952 797.282,-78.8483"/>
</g>
<!-- Node13&#45;&gt;Node10 -->
<g id="edge30" class="edge"><title>Node13&#45;&gt;Node10</title>
<path fill="none" stroke="midnightblue" d="M941.373,-116.362C931.935,-107.941 918.565,-96.0105 907.605,-86.2308"/>
<polygon fill="midnightblue" stroke="midnightblue" points="909.933,-83.6171 900.141,-79.5707 905.272,-88.8401 909.933,-83.6171"/>
</g>
<!-- Node14 -->
<g id="node30" class="node"><title>Node14</title>
<polygon fill="white" stroke="#bfbfbf" points="1038.79,-58.5 1038.79,-79.5 1105.79,-79.5 1105.79,-58.5 1038.79,-58.5"/>
<text text-anchor="middle" x="1072.29" y="-66.5" font-family="Helvetica,sans-Serif" font-size="10.00">QMatrix4x4</text>
</g>
<!-- Node13&#45;&gt;Node14 -->
<g id="edge32" class="edge"><title>Node13&#45;&gt;Node14</title>
<path fill="none" stroke="midnightblue" d="M974.845,-116.497C993.431,-107.438 1020.5,-94.2462 1041.39,-84.0628"/>
<polygon fill="midnightblue" stroke="midnightblue" points="1043.05,-87.1487 1050.5,-79.6212 1039.98,-80.8563 1043.05,-87.1487"/>
</g>
<!-- Node15 -->
<g id="node33" class="node"><title>Node15</title>
<polygon fill="white" stroke="#bfbfbf" points="938.795,-58.5 938.795,-79.5 1021.79,-79.5 1021.79,-58.5 938.795,-58.5"/>
<text text-anchor="middle" x="980.295" y="-66.5" font-family="Helvetica,sans-Serif" font-size="10.00">QMetaProperty</text>
</g>
<!-- Node13&#45;&gt;Node15 -->
<g id="edge36" class="edge"><title>Node13&#45;&gt;Node15</title>
<path fill="none" stroke="midnightblue" d="M958.247,-116.362C961.825,-108.677 966.763,-98.0686 971.059,-88.8399"/>
<polygon fill="midnightblue" stroke="midnightblue" points="974.327,-90.1136 975.374,-79.5707 967.98,-87.1594 974.327,-90.1136"/>
</g>
<!-- Node16&#45;&gt;Node3 -->
<g id="edge40" class="edge"><title>Node16&#45;&gt;Node3</title>
<path fill="none" stroke="midnightblue" d="M811.559,-116.425C816.676,-101.48 827.943,-74.2006 846.295,-58 858.882,-46.888 898.25,-32.3647 928.082,-22.4207"/>
<polygon fill="midnightblue" stroke="midnightblue" points="929.373,-25.681 937.781,-19.2355 927.188,-19.0304 929.373,-25.681"/>
</g>
<!-- Node16&#45;&gt;Node10 -->
<g id="edge42" class="edge"><title>Node16&#45;&gt;Node10</title>
<path fill="none" stroke="midnightblue" d="M822.968,-116.362C834.809,-107.777 851.68,-95.5459 865.31,-85.6636"/>
<polygon fill="midnightblue" stroke="midnightblue" points="867.673,-88.274 873.714,-79.5707 863.564,-82.6067 867.673,-88.274"/>
</g>
<!-- Node16&#45;&gt;Node15 -->
<g id="edge44" class="edge"><title>Node16&#45;&gt;Node15</title>
<path fill="none" stroke="midnightblue" d="M839.443,-116.497C867.483,-107.041 908.876,-93.0829 939.54,-82.7428"/>
<polygon fill="midnightblue" stroke="midnightblue" points="940.731,-86.035 949.088,-79.5231 938.494,-79.4019 940.731,-86.035"/>
</g>
<!-- Node20&#45;&gt;Node9 -->
<g id="edge66" class="edge"><title>Node20&#45;&gt;Node9</title>
<path fill="none" stroke="midnightblue" d="M938.298,-314.102C1003.82,-311.626 1138.48,-302.376 1167.29,-268 1177.57,-255.738 1176.43,-245.135 1167.29,-232 1163.54,-226.607 991.961,-165.214 917.829,-138.879"/>
<polygon fill="midnightblue" stroke="midnightblue" points="918.637,-135.452 908.043,-135.405 916.296,-142.049 918.637,-135.452"/>
</g>
<!-- Node20&#45;&gt;Node12 -->
<g id="edge70" class="edge"><title>Node20&#45;&gt;Node12</title>
<path fill="none" stroke="midnightblue" d="M938.613,-313.473C1054.4,-307.628 1407.29,-281.869 1407.29,-185 1407.29,-185 1407.29,-185 1407.29,-127 1407.29,-86.5104 1374.5,-49.1585 1351.99,-28.2949"/>
<polygon fill="midnightblue" stroke="midnightblue" points="1354.32,-25.681 1344.53,-21.6247 1349.65,-30.8993 1354.32,-25.681"/>
</g>
<!-- Node21 -->
<g id="node48" class="node"><title>Node21</title>
<polygon fill="white" stroke="#bfbfbf" points="437.795,-239.5 437.795,-260.5 528.795,-260.5 528.795,-239.5 437.795,-239.5"/>
<text text-anchor="middle" x="483.295" y="-247.5" font-family="Helvetica,sans-Serif" font-size="10.00">QOpenGLWidget</text>
</g>
<!-- Node20&#45;&gt;Node21 -->
<g id="edge54" class="edge"><title>Node20&#45;&gt;Node21</title>
<path fill="none" stroke="midnightblue" d="M866.14,-312.675C800.126,-307.916 655.942,-295.144 537.295,-268 532.129,-266.818 526.758,-265.342 521.494,-263.746"/>
<polygon fill="midnightblue" stroke="midnightblue" points="522.177,-260.29 511.586,-260.576 520.044,-266.957 522.177,-260.29"/>
</g>
<!-- Node22 -->
<g id="node50" class="node"><title>Node22</title>
<polygon fill="white" stroke="#bfbfbf" points="545.795,-233 545.795,-267 658.795,-267 658.795,-233 545.795,-233"/>
<text text-anchor="start" x="553.795" y="-254" font-family="Helvetica,sans-Serif" font-size="10.00">QOpenGLFunctions_4</text>
<text text-anchor="middle" x="602.295" y="-241" font-family="Helvetica,sans-Serif" font-size="10.00">_3_Core</text>
</g>
<!-- Node20&#45;&gt;Node22 -->
<g id="edge56" class="edge"><title>Node20&#45;&gt;Node22</title>
<path fill="none" stroke="midnightblue" d="M866.286,-308.64C822.007,-300.635 744.356,-286.002 669.075,-268.347"/>
<polygon fill="midnightblue" stroke="midnightblue" points="669.489,-264.849 658.952,-265.951 667.877,-271.66 669.489,-264.849"/>
</g>
<!-- Node23 -->
<g id="node52" class="node"><title>Node23</title>
<polygon fill="white" stroke="#bfbfbf" points="675.795,-239.5 675.795,-260.5 816.795,-260.5 816.795,-239.5 675.795,-239.5"/>
<text text-anchor="middle" x="746.295" y="-247.5" font-family="Helvetica,sans-Serif" font-size="10.00">QOpenGLFramebufferObject</text>
</g>
<!-- Node20&#45;&gt;Node23 -->
<g id="edge58" class="edge"><title>Node20&#45;&gt;Node23</title>
<path fill="none" stroke="midnightblue" d="M876.883,-304.412C850.82,-293.552 810.095,-276.583 781.057,-264.484"/>
<polygon fill="midnightblue" stroke="midnightblue" points="782.272,-261.199 771.695,-260.584 779.58,-267.66 782.272,-261.199"/>
</g>
<!-- Node24 -->
<g id="node54" class="node"><title>Node24</title>
<polygon fill="white" stroke="#bfbfbf" points="833.795,-239.5 833.795,-260.5 888.795,-260.5 888.795,-239.5 833.795,-239.5"/>
<text text-anchor="middle" x="861.295" y="-247.5" font-family="Helvetica,sans-Serif" font-size="10.00">QPainter</text>
</g>
<!-- Node20&#45;&gt;Node24 -->
<g id="edge60" class="edge"><title>Node20&#45;&gt;Node24</title>
<path fill="none" stroke="midnightblue" d="M895.524,-304.267C889.494,-294.707 880.531,-280.496 873.289,-269.015"/>
<polygon fill="midnightblue" stroke="midnightblue" points="876.234,-267.124 867.939,-260.534 870.314,-270.859 876.234,-267.124"/>
</g>
<!-- Node25 -->
<g id="node56" class="node"><title>Node25</title>
<polygon fill="white" stroke="#bfbfbf" points="905.795,-239.5 905.795,-260.5 982.795,-260.5 982.795,-239.5 905.795,-239.5"/>
<text text-anchor="middle" x="944.295" y="-247.5" font-family="Helvetica,sans-Serif" font-size="10.00">QWheelEvent</text>
</g>
<!-- Node20&#45;&gt;Node25 -->
<g id="edge62" class="edge"><title>Node20&#45;&gt;Node25</title>
<path fill="none" stroke="midnightblue" d="M909.23,-304.267C915.407,-294.707 924.589,-280.496 932.008,-269.015"/>
<polygon fill="midnightblue" stroke="midnightblue" points="935.001,-270.832 937.488,-260.534 929.121,-267.033 935.001,-270.832"/>
</g>
<!-- Node26 -->
<g id="node58" class="node"><title>Node26</title>
<polygon fill="white" stroke="#bfbfbf" points="999.795,-239.5 999.795,-260.5 1066.79,-260.5 1066.79,-239.5 999.795,-239.5"/>
<text text-anchor="middle" x="1033.29" y="-247.5" font-family="Helvetica,sans-Serif" font-size="10.00">QKeyEvent</text>
</g>
<!-- Node20&#45;&gt;Node26 -->
<g id="edge64" class="edge"><title>Node20&#45;&gt;Node26</title>
<path fill="none" stroke="midnightblue" d="M923.634,-304.412C945.139,-293.741 978.533,-277.172 1002.82,-265.12"/>
<polygon fill="midnightblue" stroke="midnightblue" points="1004.56,-268.164 1011.96,-260.584 1001.45,-261.893 1004.56,-268.164"/>
</g>
<!-- Node27 -->
<g id="node61" class="node"><title>Node27</title>
<polygon fill="white" stroke="#bfbfbf" points="1084.29,-239.5 1084.29,-260.5 1158.29,-260.5 1158.29,-239.5 1084.29,-239.5"/>
<text text-anchor="middle" x="1121.29" y="-247.5" font-family="Helvetica,sans-Serif" font-size="10.00">QMetaObject</text>
</g>
<!-- Node20&#45;&gt;Node27 -->
<g id="edge68" class="edge"><title>Node20&#45;&gt;Node27</title>
<path fill="none" stroke="midnightblue" d="M938.414,-306.393C973.647,-297.715 1028.6,-283.428 1075.29,-268 1078.84,-266.828 1082.51,-265.534 1086.17,-264.192"/>
<polygon fill="midnightblue" stroke="midnightblue" points="1087.57,-267.402 1095.68,-260.585 1085.09,-260.856 1087.57,-267.402"/>
</g>
<!-- Node28 -->
<g id="node64" class="node"><title>Node28</title>
<a xlink:href="camera_8hpp.html" target="_top" xlink:title="camera.hpp">
<polygon fill="white" stroke="black" points="1171.29,-116.5 1171.29,-137.5 1239.29,-137.5 1239.29,-116.5 1171.29,-116.5"/>
<text text-anchor="middle" x="1205.29" y="-124.5" font-family="Helvetica,sans-Serif" font-size="10.00">camera.hpp</text>
</a>
</g>
<!-- Node20&#45;&gt;Node28 -->
<g id="edge72" class="edge"><title>Node20&#45;&gt;Node28</title>
<path fill="none" stroke="midnightblue" d="M938.329,-312.243C1017.14,-305.849 1199.25,-288.942 1217.29,-268 1246.42,-234.207 1228.19,-177.41 1215.13,-147.247"/>
<polygon fill="midnightblue" stroke="midnightblue" points="1218.14,-145.42 1210.81,-137.771 1211.77,-148.322 1218.14,-145.42"/>
</g>
<!-- Node30 -->
<g id="node74" class="node"><title>Node30</title>
<a xlink:href="cube_8hpp.html" target="_top" xlink:title="cube.hpp">
<polygon fill="white" stroke="black" points="282.295,-239.5 282.295,-260.5 338.295,-260.5 338.295,-239.5 282.295,-239.5"/>
<text text-anchor="middle" x="310.295" y="-247.5" font-family="Helvetica,sans-Serif" font-size="10.00">cube.hpp</text>
</a>
</g>
<!-- Node20&#45;&gt;Node30 -->
<g id="edge88" class="edge"><title>Node20&#45;&gt;Node30</title>
<path fill="none" stroke="midnightblue" d="M865.994,-313.664C758.906,-309.448 445.653,-295.077 347.295,-268 344.127,-267.128 340.902,-265.988 337.744,-264.705"/>
<polygon fill="midnightblue" stroke="midnightblue" points="339.145,-261.497 328.592,-260.549 336.251,-267.87 339.145,-261.497"/>
</g>
<!-- Node31 -->
<g id="node81" class="node"><title>Node31</title>
<a xlink:href="sphere_8hpp.html" target="_top" xlink:title="sphere.hpp">
<polygon fill="white" stroke="black" points="355.795,-239.5 355.795,-260.5 420.795,-260.5 420.795,-239.5 355.795,-239.5"/>
<text text-anchor="middle" x="388.295" y="-247.5" font-family="Helvetica,sans-Serif" font-size="10.00">sphere.hpp</text>
</a>
</g>
<!-- Node20&#45;&gt;Node31 -->
<g id="edge100" class="edge"><title>Node20&#45;&gt;Node31</title>
<path fill="none" stroke="midnightblue" d="M866.022,-312.874C770.181,-307.02 511.914,-289.657 429.295,-268 425.699,-267.058 422.017,-265.839 418.405,-264.481"/>
<polygon fill="midnightblue" stroke="midnightblue" points="419.698,-261.228 409.118,-260.652 417.029,-267.7 419.698,-261.228"/>
</g>
<!-- Node32 -->
<g id="node86" class="node"><title>Node32</title>
<a xlink:href="world_8hpp.html" target="_top" xlink:title="world.hpp">
<polygon fill="white" stroke="black" points="1112.79,-174.5 1112.79,-195.5 1171.79,-195.5 1171.79,-174.5 1112.79,-174.5"/>
<text text-anchor="middle" x="1142.29" y="-182.5" font-family="Helvetica,sans-Serif" font-size="10.00">world.hpp</text>
</a>
</g>
<!-- Node20&#45;&gt;Node32 -->
<g id="edge108" class="edge"><title>Node20&#45;&gt;Node32</title>
<path fill="none" stroke="midnightblue" d="M938.373,-311.916C1013.97,-305.09 1183.43,-287.734 1200.29,-268 1210.69,-255.837 1207.18,-246.443 1200.29,-232 1194.27,-219.353 1182.99,-209.007 1171.97,-201.272"/>
<polygon fill="midnightblue" stroke="midnightblue" points="1173.58,-198.148 1163.29,-195.636 1169.77,-204.018 1173.58,-198.148"/>
</g>
<!-- Node28&#45;&gt;Node3 -->
<g id="edge74" class="edge"><title>Node28&#45;&gt;Node3</title>
<path fill="none" stroke="midnightblue" d="M1199.3,-116.333C1190.13,-101.019 1171.14,-73.0007 1147.29,-58 1102,-29.4987 1040.1,-18.2359 1001.17,-13.8154"/>
<polygon fill="midnightblue" stroke="midnightblue" points="1001.14,-10.2933 990.829,-12.7413 1000.41,-17.2559 1001.14,-10.2933"/>
</g>
<!-- Node28&#45;&gt;Node4 -->
<g id="edge76" class="edge"><title>Node28&#45;&gt;Node4</title>
<path fill="none" stroke="midnightblue" d="M1191.98,-116.373C1168.85,-97.9903 1122.89,-61.8442 1114.29,-58 1040.66,-25.0768 1012.97,-39.6691 930.68,-22.1464"/>
<polygon fill="midnightblue" stroke="midnightblue" points="931.438,-18.7295 920.917,-19.9728 929.917,-25.5622 931.438,-18.7295"/>
</g>
<!-- Node28&#45;&gt;Node10 -->
<g id="edge80" class="edge"><title>Node28&#45;&gt;Node10</title>
<path fill="none" stroke="midnightblue" d="M1171.1,-117.934C1168.13,-117.244 1165.16,-116.588 1162.29,-116 1063.17,-95.6799 1034.19,-100.896 931.528,-80.1012"/>
<polygon fill="midnightblue" stroke="midnightblue" points="932.193,-76.6648 921.692,-78.0761 930.781,-83.521 932.193,-76.6648"/>
</g>
<!-- Node28&#45;&gt;Node12 -->
<g id="edge86" class="edge"><title>Node28&#45;&gt;Node12</title>
<path fill="none" stroke="midnightblue" d="M1239.35,-120.17C1263.03,-113.703 1293.59,-101.643 1312.29,-80 1323.82,-66.6669 1328.41,-46.9258 1330.21,-31.9711"/>
<polygon fill="midnightblue" stroke="midnightblue" points="1333.72,-31.92 1331.11,-21.6535 1326.75,-31.3112 1333.72,-31.92"/>
</g>
<!-- Node28&#45;&gt;Node14 -->
<g id="edge78" class="edge"><title>Node28&#45;&gt;Node14</title>
<path fill="none" stroke="midnightblue" d="M1181.21,-116.497C1160.16,-107.315 1129.37,-93.8889 1105.89,-83.6516"/>
<polygon fill="midnightblue" stroke="midnightblue" points="1107.22,-80.4104 1096.65,-79.6212 1104.42,-86.8268 1107.22,-80.4104"/>
</g>
<!-- Node28&#45;&gt;Node15 -->
<g id="edge82" class="edge"><title>Node28&#45;&gt;Node15</title>
<path fill="none" stroke="midnightblue" d="M1171.12,-118.191C1133.91,-108.597 1073.99,-93.1515 1031.22,-82.1277"/>
<polygon fill="midnightblue" stroke="midnightblue" points="1031.84,-78.674 1021.29,-79.567 1030.1,-85.4524 1031.84,-78.674"/>
</g>
<!-- Node29 -->
<g id="node71" class="node"><title>Node29</title>
<polygon fill="white" stroke="#bfbfbf" points="1199.29,-58.5 1199.29,-79.5 1303.29,-79.5 1303.29,-58.5 1199.29,-58.5"/>
<text text-anchor="middle" x="1251.29" y="-66.5" font-family="Helvetica,sans-Serif" font-size="10.00">QPropertyAnimation</text>
</g>
<!-- Node28&#45;&gt;Node29 -->
<g id="edge84" class="edge"><title>Node28&#45;&gt;Node29</title>
<path fill="none" stroke="midnightblue" d="M1213.73,-116.362C1220.09,-108.35 1228.96,-97.1605 1236.49,-87.6696"/>
<polygon fill="midnightblue" stroke="midnightblue" points="1239.44,-89.5805 1242.91,-79.5707 1233.95,-85.2308 1239.44,-89.5805"/>
</g>
<!-- Node30&#45;&gt;Node2 -->
<g id="edge90" class="edge"><title>Node30&#45;&gt;Node2</title>
<path fill="none" stroke="midnightblue" d="M330.824,-239.431C336.129,-236.862 341.873,-234.218 347.295,-232 378.362,-219.29 414.269,-207.288 441.94,-198.593"/>
<polygon fill="midnightblue" stroke="midnightblue" points="443.229,-201.858 451.738,-195.545 441.149,-195.174 443.229,-201.858"/>
</g>
<!-- Node30&#45;&gt;Node9 -->
<g id="edge94" class="edge"><title>Node30&#45;&gt;Node9</title>
<path fill="none" stroke="midnightblue" d="M329.479,-239.485C335.095,-236.734 341.331,-233.986 347.295,-232 427.596,-205.257 452.038,-215.934 534.295,-196 568.055,-187.818 575.366,-181.452 609.295,-174 712.807,-151.265 744.381,-163.109 850.827,-138.035"/>
<polygon fill="midnightblue" stroke="midnightblue" points="851.772,-141.408 860.673,-135.662 850.132,-134.603 851.772,-141.408"/>
</g>
<!-- Node30&#45;&gt;Node10 -->
<g id="edge92" class="edge"><title>Node30&#45;&gt;Node10</title>
<path fill="none" stroke="midnightblue" d="M282.145,-247.338C193.918,-238.032 -66.5398,-202.685 16.2947,-116 46.7242,-84.1559 764.432,-84.0041 808.295,-80 820.281,-78.9058 833.225,-77.3084 845.136,-75.6684"/>
<polygon fill="midnightblue" stroke="midnightblue" points="845.879,-79.0981 855.288,-74.2277 844.895,-72.1676 845.879,-79.0981"/>
</g>
<!-- Node30&#45;&gt;Node15 -->
<g id="edge96" class="edge"><title>Node30&#45;&gt;Node15</title>
<path fill="none" stroke="midnightblue" d="M329.041,-239.499C334.754,-236.68 341.151,-233.894 347.295,-232 485.296,-189.467 895.857,-247.248 990.295,-138 1001.85,-124.629 996.973,-104.064 990.646,-88.8605"/>
<polygon fill="midnightblue" stroke="midnightblue" points="993.817,-87.3771 986.438,-79.7738 987.465,-90.3188 993.817,-87.3771"/>
</g>
<!-- Node30&#45;&gt;Node18 -->
<g id="edge98" class="edge"><title>Node30&#45;&gt;Node18</title>
<path fill="none" stroke="midnightblue" d="M287.415,-239.3C240.355,-217.291 132.632,-166.91 78.9331,-141.797"/>
<polygon fill="midnightblue" stroke="midnightblue" points="80.103,-138.48 69.562,-137.414 77.1375,-144.821 80.103,-138.48"/>
</g>
<!-- Node31&#45;&gt;Node2 -->
<g id="edge102" class="edge"><title>Node31&#45;&gt;Node2</title>
<path fill="none" stroke="midnightblue" d="M404.642,-239.267C420.356,-228.949 444.319,-213.216 462.404,-201.342"/>
<polygon fill="midnightblue" stroke="midnightblue" points="464.813,-203.948 471.251,-195.534 460.971,-198.096 464.813,-203.948"/>
</g>
<!-- Node31&#45;&gt;Node9 -->
<g id="edge106" class="edge"><title>Node31&#45;&gt;Node9</title>
<path fill="none" stroke="midnightblue" d="M410.088,-239.39C416.2,-236.702 422.919,-234.011 429.295,-232 507.1,-207.459 529.603,-213.473 609.295,-196 714.574,-172.916 743.963,-169.18 850.728,-138.299"/>
<polygon fill="midnightblue" stroke="midnightblue" points="851.984,-141.578 860.611,-135.427 850.031,-134.856 851.984,-141.578"/>
</g>
<!-- Node31&#45;&gt;Node15 -->
<g id="edge104" class="edge"><title>Node31&#45;&gt;Node15</title>
<path fill="none" stroke="midnightblue" d="M408.656,-239.372C415.092,-236.477 422.343,-233.68 429.295,-232 493.566,-216.468 977.976,-244.148 1023.29,-196 1047.66,-170.109 1036.17,-149.143 1023.29,-116 1018.88,-104.634 1010.29,-94.341 1001.95,-86.3045"/>
<polygon fill="midnightblue" stroke="midnightblue" points="1004.25,-83.6715 994.473,-79.5924 999.574,-88.8789 1004.25,-83.6715"/>
</g>
<!-- Node32&#45;&gt;Node3 -->
<g id="edge114" class="edge"><title>Node32&#45;&gt;Node3</title>
<path fill="none" stroke="midnightblue" d="M1171.91,-176.855C1232.35,-158.859 1360.3,-112.922 1312.29,-58 1291.98,-34.7555 1085.95,-18.8707 1000.81,-13.251"/>
<polygon fill="midnightblue" stroke="midnightblue" points="1001.02,-9.75709 990.811,-12.6016 1000.56,-16.7424 1001.02,-9.75709"/>
</g>
<!-- Node32&#45;&gt;Node10 -->
<g id="edge110" class="edge"><title>Node32&#45;&gt;Node10</title>
<path fill="none" stroke="midnightblue" d="M1118.85,-174.295C1073.28,-153.482 972.656,-107.527 920.719,-83.808"/>
<polygon fill="midnightblue" stroke="midnightblue" points="921.862,-80.4822 911.312,-79.5117 918.954,-86.8496 921.862,-80.4822"/>
</g>
<!-- Node32&#45;&gt;Node13 -->
<g id="edge112" class="edge"><title>Node32&#45;&gt;Node13</title>
<path fill="none" stroke="midnightblue" d="M1112.76,-175.938C1080.12,-165.919 1027.42,-149.749 991.62,-138.761"/>
<polygon fill="midnightblue" stroke="midnightblue" points="992.587,-135.397 982,-135.809 990.533,-142.089 992.587,-135.397"/>
</g>
<!-- Node33 -->
<g id="node91" class="node"><title>Node33</title>
<polygon fill="white" stroke="#bfbfbf" points="1113.29,-116.5 1113.29,-137.5 1153.29,-137.5 1153.29,-116.5 1113.29,-116.5"/>
<text text-anchor="middle" x="1133.29" y="-124.5" font-family="Helvetica,sans-Serif" font-size="10.00">QList</text>
</g>
<!-- Node32&#45;&gt;Node33 -->
<g id="edge116" class="edge"><title>Node32&#45;&gt;Node33</title>
<path fill="none" stroke="midnightblue" d="M1140.64,-174.362C1139.49,-166.922 1137.91,-156.743 1136.51,-147.728"/>
<polygon fill="midnightblue" stroke="midnightblue" points="1139.93,-146.916 1134.93,-137.571 1133.01,-147.989 1139.93,-146.916"/>
</g>
</g>
</svg>
