<?xml version="1.0" encoding="UTF-8" standalone="no"?>
<!DOCTYPE svg PUBLIC "-//W3C//DTD SVG 1.1//EN"
 "http://www.w3.org/Graphics/SVG/1.1/DTD/svg11.dtd">
<!-- Generated by graphviz version 2.26.3 (20100126.1600)
 -->
<!-- Title: include/geometry.hpp Pages: 1 -->
<svg width="1288pt" height="204pt"
 viewBox="0.00 0.00 1288.00 204.00" xmlns="http://www.w3.org/2000/svg" xmlns:xlink="http://www.w3.org/1999/xlink">
<g id="graph1" class="graph" transform="scale(1 1) rotate(0) translate(4 200)">
<title>include/geometry.hpp</title>
<polygon fill="white" stroke="white" points="-4,5 -4,-200 1285,-200 1285,5 -4,5"/>
<!-- Node1 -->
<g id="node1" class="node"><title>Node1</title>
<polygon fill="#bfbfbf" stroke="black" points="576,-174.5 576,-195.5 686,-195.5 686,-174.5 576,-174.5"/>
<text text-anchor="middle" x="631" y="-182.5" font-family="Helvetica,sans-Serif" font-size="10.00">include/geometry.hpp</text>
</g>
<!-- Node2 -->
<g id="node3" class="node"><title>Node2</title>
<a xlink:href="cube_8hpp.html" target="_top" xlink:title="include/cube.hpp">
<polygon fill="white" stroke="black" points="289,-116.5 289,-137.5 379,-137.5 379,-116.5 289,-116.5"/>
<text text-anchor="middle" x="334" y="-124.5" font-family="Helvetica,sans-Serif" font-size="10.00">include/cube.hpp</text>
</a>
</g>
<!-- Node1&#45;&gt;Node2 -->
<g id="edge2" class="edge"><title>Node1&#45;&gt;Node2</title>
<path fill="none" stroke="midnightblue" d="M566.131,-172.634C517.163,-163.255 448.328,-149.978 388,-138 385.091,-137.422 382.094,-136.823 379.075,-136.217"/>
<polygon fill="midnightblue" stroke="midnightblue" points="565.48,-176.073 575.959,-174.515 566.796,-169.198 565.48,-176.073"/>
</g>
<!-- Node6 -->
<g id="node11" class="node"><title>Node6</title>
<a xlink:href="geometry_8cpp.html" target="_top" xlink:title="src/geometry.cpp">
<polygon fill="white" stroke="black" points="0,-0.5 0,-21.5 92,-21.5 92,-0.5 0,-0.5"/>
<text text-anchor="middle" x="46" y="-8.5" font-family="Helvetica,sans-Serif" font-size="10.00">src/geometry.cpp</text>
</a>
</g>
<!-- Node1&#45;&gt;Node6 -->
<g id="edge42" class="edge"><title>Node1&#45;&gt;Node6</title>
<path fill="none" stroke="midnightblue" d="M565.874,-180.178C437.198,-169.45 156.466,-139.708 83,-80 64.013,-64.5687 53.4342,-36.7251 48.8265,-21.553"/>
<polygon fill="midnightblue" stroke="midnightblue" points="565.734,-183.678 575.986,-181.008 566.306,-176.702 565.734,-183.678"/>
</g>
<!-- Node13 -->
<g id="node25" class="node"><title>Node13</title>
<a xlink:href="sphere_8hpp.html" target="_top" xlink:title="include/sphere.hpp">
<polygon fill="white" stroke="black" points="397,-116.5 397,-137.5 495,-137.5 495,-116.5 397,-116.5"/>
<text text-anchor="middle" x="446" y="-124.5" font-family="Helvetica,sans-Serif" font-size="10.00">include/sphere.hpp</text>
</a>
</g>
<!-- Node1&#45;&gt;Node13 -->
<g id="edge24" class="edge"><title>Node1&#45;&gt;Node13</title>
<path fill="none" stroke="midnightblue" d="M587.661,-171.413C554.654,-161.065 509.876,-147.026 479.565,-137.523"/>
<polygon fill="midnightblue" stroke="midnightblue" points="586.909,-174.845 597.498,-174.497 589.003,-168.165 586.909,-174.845"/>
</g>
<!-- Node16 -->
<g id="node33" class="node"><title>Node16</title>
<a xlink:href="cylinder_8hpp.html" target="_top" xlink:title="include/cylinder.hpp">
<polygon fill="white" stroke="black" points="779.5,-116.5 779.5,-137.5 882.5,-137.5 882.5,-116.5 779.5,-116.5"/>
<text text-anchor="middle" x="831" y="-124.5" font-family="Helvetica,sans-Serif" font-size="10.00">include/cylinder.hpp</text>
</a>
</g>
<!-- Node1&#45;&gt;Node16 -->
<g id="edge34" class="edge"><title>Node1&#45;&gt;Node16</title>
<path fill="none" stroke="midnightblue" d="M676.933,-171.68C712.7,-161.307 761.663,-147.108 794.714,-137.523"/>
<polygon fill="midnightblue" stroke="midnightblue" points="675.848,-168.35 667.218,-174.497 677.798,-175.073 675.848,-168.35"/>
</g>
<!-- Node18 -->
<g id="node40" class="node"><title>Node18</title>
<a xlink:href="group_8hpp.html" target="_top" xlink:title="include/group.hpp">
<polygon fill="white" stroke="black" points="525.5,-116.5 525.5,-137.5 618.5,-137.5 618.5,-116.5 525.5,-116.5"/>
<text text-anchor="middle" x="572" y="-124.5" font-family="Helvetica,sans-Serif" font-size="10.00">include/group.hpp</text>
</a>
</g>
<!-- Node1&#45;&gt;Node18 -->
<g id="edge44" class="edge"><title>Node1&#45;&gt;Node18</title>
<path fill="none" stroke="midnightblue" d="M612.81,-167.118C602.963,-157.438 591.134,-145.81 582.753,-137.571"/>
<polygon fill="midnightblue" stroke="midnightblue" points="610.594,-169.847 620.178,-174.362 615.501,-164.856 610.594,-169.847"/>
</g>
<!-- Node20 -->
<g id="node47" class="node"><title>Node20</title>
<a xlink:href="line_8hpp.html" target="_top" xlink:title="include/line.hpp">
<polygon fill="white" stroke="black" points="956,-116.5 956,-137.5 1040,-137.5 1040,-116.5 956,-116.5"/>
<text text-anchor="middle" x="998" y="-124.5" font-family="Helvetica,sans-Serif" font-size="10.00">include/line.hpp</text>
</a>
</g>
<!-- Node1&#45;&gt;Node20 -->
<g id="edge54" class="edge"><title>Node1&#45;&gt;Node20</title>
<path fill="none" stroke="midnightblue" d="M696.623,-174.629C771.718,-162.761 892.48,-143.676 955.937,-133.647"/>
<polygon fill="midnightblue" stroke="midnightblue" points="695.672,-171.236 686.341,-176.254 696.765,-178.15 695.672,-171.236"/>
</g>
<!-- Node22 -->
<g id="node53" class="node"><title>Node22</title>
<a xlink:href="pyramide_8hpp.html" target="_top" xlink:title="include/pyramide.hpp">
<polygon fill="white" stroke="black" points="1089.5,-116.5 1089.5,-137.5 1198.5,-137.5 1198.5,-116.5 1089.5,-116.5"/>
<text text-anchor="middle" x="1144" y="-124.5" font-family="Helvetica,sans-Serif" font-size="10.00">include/pyramide.hpp</text>
</a>
</g>
<!-- Node1&#45;&gt;Node22 -->
<g id="edge62" class="edge"><title>Node1&#45;&gt;Node22</title>
<path fill="none" stroke="midnightblue" d="M696.065,-177.751C778.287,-168.576 924.151,-152.247 1049,-138 1062.11,-136.503 1076.25,-134.876 1089.5,-133.342"/>
<polygon fill="midnightblue" stroke="midnightblue" points="695.666,-174.274 686.116,-178.862 696.442,-181.231 695.666,-174.274"/>
</g>
<!-- Node24 -->
<g id="node59" class="node"><title>Node24</title>
<a xlink:href="trigger_8hpp.html" target="_top" xlink:title="include/trigger.hpp">
<polygon fill="white" stroke="black" points="643,-116.5 643,-137.5 739,-137.5 739,-116.5 643,-116.5"/>
<text text-anchor="middle" x="691" y="-124.5" font-family="Helvetica,sans-Serif" font-size="10.00">include/trigger.hpp</text>
</a>
</g>
<!-- Node1&#45;&gt;Node24 -->
<g id="edge70" class="edge"><title>Node1&#45;&gt;Node24</title>
<path fill="none" stroke="midnightblue" d="M649.202,-167.405C659.274,-157.668 671.457,-145.891 680.065,-137.571"/>
<polygon fill="midnightblue" stroke="midnightblue" points="646.762,-164.895 642.005,-174.362 651.627,-169.928 646.762,-164.895"/>
</g>
<!-- Node3 -->
<g id="node5" class="node"><title>Node3</title>
<a xlink:href="viewport_8hpp.html" target="_top" xlink:title="include/viewport.hpp">
<polygon fill="white" stroke="black" points="182,-58.5 182,-79.5 288,-79.5 288,-58.5 182,-58.5"/>
<text text-anchor="middle" x="235" y="-66.5" font-family="Helvetica,sans-Serif" font-size="10.00">include/viewport.hpp</text>
</a>
</g>
<!-- Node2&#45;&gt;Node3 -->
<g id="edge4" class="edge"><title>Node2&#45;&gt;Node3</title>
<path fill="none" stroke="midnightblue" d="M306.862,-111.101C289.733,-101.066 268.081,-88.3808 253.043,-79.5707"/>
<polygon fill="midnightblue" stroke="midnightblue" points="305.444,-114.327 315.842,-116.362 308.983,-108.287 305.444,-114.327"/>
</g>
<!-- Node10 -->
<g id="node19" class="node"><title>Node10</title>
<a xlink:href="cube_8cpp.html" target="_top" xlink:title="src/cube.cpp">
<polygon fill="white" stroke="black" points="91.5,-58.5 91.5,-79.5 164.5,-79.5 164.5,-58.5 91.5,-58.5"/>
<text text-anchor="middle" x="128" y="-66.5" font-family="Helvetica,sans-Serif" font-size="10.00">src/cube.cpp</text>
</a>
</g>
<!-- Node2&#45;&gt;Node10 -->
<g id="edge18" class="edge"><title>Node2&#45;&gt;Node10</title>
<path fill="none" stroke="midnightblue" d="M286.625,-113.661C249.539,-103.22 198.709,-88.9084 164.681,-79.3277"/>
<polygon fill="midnightblue" stroke="midnightblue" points="286.121,-117.155 296.695,-116.497 288.018,-110.417 286.121,-117.155"/>
</g>
<!-- Node11 -->
<g id="node21" class="node"><title>Node11</title>
<a xlink:href="trigger_8cpp.html" target="_top" xlink:title="src/trigger.cpp">
<polygon fill="white" stroke="black" points="627.5,-58.5 627.5,-79.5 706.5,-79.5 706.5,-58.5 627.5,-58.5"/>
<text text-anchor="middle" x="667" y="-66.5" font-family="Helvetica,sans-Serif" font-size="10.00">src/trigger.cpp</text>
</a>
</g>
<!-- Node2&#45;&gt;Node11 -->
<g id="edge20" class="edge"><title>Node2&#45;&gt;Node11</title>
<path fill="none" stroke="midnightblue" d="M388.924,-115.9C491.954,-97.7258 520.052,-99.0234 619,-80 621.771,-79.4673 624.624,-78.8892 627.494,-78.2862"/>
<polygon fill="midnightblue" stroke="midnightblue" points="388.282,-112.459 379.051,-117.66 389.51,-119.351 388.282,-112.459"/>
</g>
<!-- Node12 -->
<g id="node23" class="node"><title>Node12</title>
<a xlink:href="world_8cpp.html" target="_top" xlink:title="src/world.cpp">
<polygon fill="white" stroke="black" points="305.5,-58.5 305.5,-79.5 380.5,-79.5 380.5,-58.5 305.5,-58.5"/>
<text text-anchor="middle" x="343" y="-66.5" font-family="Helvetica,sans-Serif" font-size="10.00">src/world.cpp</text>
</a>
</g>
<!-- Node2&#45;&gt;Node12 -->
<g id="edge22" class="edge"><title>Node2&#45;&gt;Node12</title>
<path fill="none" stroke="midnightblue" d="M337.229,-106.191C338.629,-97.1684 340.208,-86.9941 341.36,-79.5707"/>
<polygon fill="midnightblue" stroke="midnightblue" points="333.726,-105.943 335.651,-116.362 340.643,-107.017 333.726,-105.943"/>
</g>
<!-- Node4 -->
<g id="node7" class="node"><title>Node4</title>
<a xlink:href="actor_8cpp.html" target="_top" xlink:title="src/actor.cpp">
<polygon fill="white" stroke="black" points="304,-0.5 304,-21.5 378,-21.5 378,-0.5 304,-0.5"/>
<text text-anchor="middle" x="341" y="-8.5" font-family="Helvetica,sans-Serif" font-size="10.00">src/actor.cpp</text>
</a>
</g>
<!-- Node3&#45;&gt;Node4 -->
<g id="edge6" class="edge"><title>Node3&#45;&gt;Node4</title>
<path fill="none" stroke="midnightblue" d="M263.296,-53.5175C281.752,-43.4189 305.356,-30.5032 321.681,-21.5707"/>
<polygon fill="midnightblue" stroke="midnightblue" points="261.535,-50.4913 254.442,-58.3619 264.895,-56.6322 261.535,-50.4913"/>
</g>
<!-- Node5 -->
<g id="node9" class="node"><title>Node5</title>
<a xlink:href="fileloader_8cpp.html" target="_top" xlink:title="src/fileloader.cpp">
<polygon fill="white" stroke="black" points="395.5,-0.5 395.5,-21.5 486.5,-21.5 486.5,-0.5 395.5,-0.5"/>
<text text-anchor="middle" x="441" y="-8.5" font-family="Helvetica,sans-Serif" font-size="10.00">src/fileloader.cpp</text>
</a>
</g>
<!-- Node3&#45;&gt;Node5 -->
<g id="edge8" class="edge"><title>Node3&#45;&gt;Node5</title>
<path fill="none" stroke="midnightblue" d="M282.311,-55.6795C319.151,-45.307 369.583,-31.1078 403.625,-21.5231"/>
<polygon fill="midnightblue" stroke="midnightblue" points="280.982,-52.4174 272.305,-58.4966 282.879,-59.1554 280.982,-52.4174"/>
</g>
<!-- Node3&#45;&gt;Node6 -->
<g id="edge10" class="edge"><title>Node3&#45;&gt;Node6</title>
<path fill="none" stroke="midnightblue" d="M191.16,-55.5464C157.398,-45.1857 111.39,-31.0668 80.2907,-21.5231"/>
<polygon fill="midnightblue" stroke="midnightblue" points="190.187,-58.9088 200.774,-58.4966 192.24,-52.2168 190.187,-58.9088"/>
</g>
<!-- Node7 -->
<g id="node13" class="node"><title>Node7</title>
<a xlink:href="light_8cpp.html" target="_top" xlink:title="src/light.cpp">
<polygon fill="white" stroke="black" points="110,-0.5 110,-21.5 180,-21.5 180,-0.5 110,-0.5"/>
<text text-anchor="middle" x="145" y="-8.5" font-family="Helvetica,sans-Serif" font-size="10.00">src/light.cpp</text>
</a>
</g>
<!-- Node3&#45;&gt;Node7 -->
<g id="edge12" class="edge"><title>Node3&#45;&gt;Node7</title>
<path fill="none" stroke="midnightblue" d="M209.895,-52.8215C194.393,-42.8312 174.947,-30.2993 161.403,-21.5707"/>
<polygon fill="midnightblue" stroke="midnightblue" points="208.191,-55.8869 218.493,-58.3619 211.983,-50.0028 208.191,-55.8869"/>
</g>
<!-- Node8 -->
<g id="node15" class="node"><title>Node8</title>
<a xlink:href="spotlight_8cpp.html" target="_top" xlink:title="src/spotlight.cpp">
<polygon fill="white" stroke="black" points="197.5,-0.5 197.5,-21.5 286.5,-21.5 286.5,-0.5 197.5,-0.5"/>
<text text-anchor="middle" x="242" y="-8.5" font-family="Helvetica,sans-Serif" font-size="10.00">src/spotlight.cpp</text>
</a>
</g>
<!-- Node3&#45;&gt;Node8 -->
<g id="edge14" class="edge"><title>Node3&#45;&gt;Node8</title>
<path fill="none" stroke="midnightblue" d="M237.511,-48.1906C238.6,-39.1684 239.828,-28.9941 240.724,-21.5707"/>
<polygon fill="midnightblue" stroke="midnightblue" points="234.007,-48.0145 236.284,-58.3619 240.957,-48.8533 234.007,-48.0145"/>
</g>
<!-- Node9 -->
<g id="node17" class="node"><title>Node9</title>
<a xlink:href="viewport_8cpp.html" target="_top" xlink:title="src/viewport.cpp">
<polygon fill="white" stroke="black" points="770.5,-0.5 770.5,-21.5 859.5,-21.5 859.5,-0.5 770.5,-0.5"/>
<text text-anchor="middle" x="815" y="-8.5" font-family="Helvetica,sans-Serif" font-size="10.00">src/viewport.cpp</text>
</a>
</g>
<!-- Node3&#45;&gt;Node9 -->
<g id="edge16" class="edge"><title>Node3&#45;&gt;Node9</title>
<path fill="none" stroke="midnightblue" d="M298.01,-57.9568C478.814,-34.1325 681.815,-19.5315 770.166,-13.778"/>
<polygon fill="midnightblue" stroke="midnightblue" points="297.505,-54.493 288.054,-59.2811 298.428,-61.4319 297.505,-54.493"/>
</g>
<!-- Node13&#45;&gt;Node3 -->
<g id="edge26" class="edge"><title>Node13&#45;&gt;Node3</title>
<path fill="none" stroke="midnightblue" d="M398.024,-113.812C360.248,-103.428 308.3,-89.1487 273.282,-79.5231"/>
<polygon fill="midnightblue" stroke="midnightblue" points="397.219,-117.221 407.789,-116.497 399.075,-110.471 397.219,-117.221"/>
</g>
<!-- Node13&#45;&gt;Node12 -->
<g id="edge32" class="edge"><title>Node13&#45;&gt;Node12</title>
<path fill="none" stroke="midnightblue" d="M418.259,-111.379C400.362,-101.301 377.563,-88.4624 361.772,-79.5707"/>
<polygon fill="midnightblue" stroke="midnightblue" points="416.677,-114.505 427.108,-116.362 420.112,-108.405 416.677,-114.505"/>
</g>
<!-- Node14 -->
<g id="node28" class="node"><title>Node14</title>
<a xlink:href="mainwindow_8cpp.html" target="_top" xlink:title="src/mainwindow.cpp">
<polygon fill="white" stroke="black" points="762,-58.5 762,-79.5 868,-79.5 868,-58.5 762,-58.5"/>
<text text-anchor="middle" x="815" y="-66.5" font-family="Helvetica,sans-Serif" font-size="10.00">src/mainwindow.cpp</text>
</a>
</g>
<!-- Node13&#45;&gt;Node14 -->
<g id="edge28" class="edge"><title>Node13&#45;&gt;Node14</title>
<path fill="none" stroke="midnightblue" d="M505.109,-117.709C576.009,-106.565 693.799,-88.0505 761.911,-77.3446"/>
<polygon fill="midnightblue" stroke="midnightblue" points="504.336,-114.288 495,-119.298 505.423,-121.203 504.336,-114.288"/>
</g>
<!-- Node15 -->
<g id="node30" class="node"><title>Node15</title>
<a xlink:href="sphere_8cpp.html" target="_top" xlink:title="src/sphere.cpp">
<polygon fill="white" stroke="black" points="397.5,-58.5 397.5,-79.5 478.5,-79.5 478.5,-58.5 397.5,-58.5"/>
<text text-anchor="middle" x="438" y="-66.5" font-family="Helvetica,sans-Serif" font-size="10.00">src/sphere.cpp</text>
</a>
</g>
<!-- Node13&#45;&gt;Node15 -->
<g id="edge30" class="edge"><title>Node13&#45;&gt;Node15</title>
<path fill="none" stroke="midnightblue" d="M443.13,-106.191C441.885,-97.1684 440.482,-86.9941 439.458,-79.5707"/>
<polygon fill="midnightblue" stroke="midnightblue" points="439.699,-106.934 444.533,-116.362 446.633,-105.977 439.699,-106.934"/>
</g>
<!-- Node16&#45;&gt;Node9 -->
<g id="edge40" class="edge"><title>Node16&#45;&gt;Node9</title>
<path fill="none" stroke="midnightblue" d="M854.759,-109.812C870.348,-96.2856 886.273,-76.6657 877,-58 868.887,-41.6696 852.089,-29.4923 838.022,-21.6293"/>
<polygon fill="midnightblue" stroke="midnightblue" points="852.333,-107.273 846.773,-116.292 856.743,-112.709 852.333,-107.273"/>
</g>
<!-- Node16&#45;&gt;Node14 -->
<g id="edge38" class="edge"><title>Node16&#45;&gt;Node14</title>
<path fill="none" stroke="midnightblue" d="M825.341,-106.488C822.832,-97.3924 819.986,-87.0756 817.916,-79.5707"/>
<polygon fill="midnightblue" stroke="midnightblue" points="822.032,-107.653 828.065,-116.362 828.78,-105.791 822.032,-107.653"/>
</g>
<!-- Node17 -->
<g id="node35" class="node"><title>Node17</title>
<a xlink:href="cylinder_8cpp.html" target="_top" xlink:title="src/cylinder.cpp">
<polygon fill="white" stroke="black" points="924,-58.5 924,-79.5 1010,-79.5 1010,-58.5 924,-58.5"/>
<text text-anchor="middle" x="967" y="-66.5" font-family="Helvetica,sans-Serif" font-size="10.00">src/cylinder.cpp</text>
</a>
</g>
<!-- Node16&#45;&gt;Node17 -->
<g id="edge36" class="edge"><title>Node16&#45;&gt;Node17</title>
<path fill="none" stroke="midnightblue" d="M865.048,-112.479C888.989,-102.269 920.482,-88.8386 942.095,-79.6212"/>
<polygon fill="midnightblue" stroke="midnightblue" points="863.454,-109.354 855.629,-116.497 866.2,-115.793 863.454,-109.354"/>
</g>
<!-- Node18&#45;&gt;Node9 -->
<g id="edge50" class="edge"><title>Node18&#45;&gt;Node9</title>
<path fill="none" stroke="midnightblue" d="M547.877,-110.328C529.907,-95.8901 510.745,-74.7516 525,-58 540.701,-39.5494 692.84,-22.5968 770.243,-15.082"/>
<polygon fill="midnightblue" stroke="midnightblue" points="545.847,-113.181 555.925,-116.45 550.085,-107.61 545.847,-113.181"/>
</g>
<!-- Node18&#45;&gt;Node12 -->
<g id="edge52" class="edge"><title>Node18&#45;&gt;Node12</title>
<path fill="none" stroke="midnightblue" d="M520.667,-113.999C478.224,-103.249 418.928,-88.2307 380.744,-78.5595"/>
<polygon fill="midnightblue" stroke="midnightblue" points="519.977,-117.434 530.53,-116.497 521.695,-110.648 519.977,-117.434"/>
</g>
<!-- Node18&#45;&gt;Node14 -->
<g id="edge48" class="edge"><title>Node18&#45;&gt;Node14</title>
<path fill="none" stroke="midnightblue" d="M625.869,-114.142C669.482,-103.733 730.155,-89.2511 770.912,-79.5231"/>
<polygon fill="midnightblue" stroke="midnightblue" points="624.92,-110.771 616.005,-116.497 626.545,-117.579 624.92,-110.771"/>
</g>
<!-- Node19 -->
<g id="node42" class="node"><title>Node19</title>
<a xlink:href="group_8cpp.html" target="_top" xlink:title="src/group.cpp">
<polygon fill="white" stroke="black" points="534,-58.5 534,-79.5 610,-79.5 610,-58.5 534,-58.5"/>
<text text-anchor="middle" x="572" y="-66.5" font-family="Helvetica,sans-Serif" font-size="10.00">src/group.cpp</text>
</a>
</g>
<!-- Node18&#45;&gt;Node19 -->
<g id="edge46" class="edge"><title>Node18&#45;&gt;Node19</title>
<path fill="none" stroke="midnightblue" d="M572,-106.191C572,-97.1684 572,-86.9941 572,-79.5707"/>
<polygon fill="midnightblue" stroke="midnightblue" points="568.5,-106.362 572,-116.362 575.5,-106.362 568.5,-106.362"/>
</g>
<!-- Node20&#45;&gt;Node9 -->
<g id="edge60" class="edge"><title>Node20&#45;&gt;Node9</title>
<path fill="none" stroke="midnightblue" d="M1012.65,-107.576C1021.98,-92.6659 1030.36,-72.2803 1019,-58 999.48,-33.4719 913.641,-20.6592 859.722,-14.9104"/>
<polygon fill="midnightblue" stroke="midnightblue" points="1009.62,-105.811 1006.89,-116.049 1015.41,-109.748 1009.62,-105.811"/>
</g>
<!-- Node20&#45;&gt;Node14 -->
<g id="edge58" class="edge"><title>Node20&#45;&gt;Node14</title>
<path fill="none" stroke="midnightblue" d="M955.13,-113.413C922.48,-103.065 878.185,-89.0258 848.202,-79.5231"/>
<polygon fill="midnightblue" stroke="midnightblue" points="954.27,-116.812 964.86,-116.497 956.385,-110.139 954.27,-116.812"/>
</g>
<!-- Node21 -->
<g id="node49" class="node"><title>Node21</title>
<a xlink:href="line_8cpp.html" target="_top" xlink:title="src/line.cpp">
<polygon fill="white" stroke="black" points="1065.5,-58.5 1065.5,-79.5 1132.5,-79.5 1132.5,-58.5 1065.5,-58.5"/>
<text text-anchor="middle" x="1099" y="-66.5" font-family="Helvetica,sans-Serif" font-size="10.00">src/line.cpp</text>
</a>
</g>
<!-- Node20&#45;&gt;Node21 -->
<g id="edge56" class="edge"><title>Node20&#45;&gt;Node21</title>
<path fill="none" stroke="midnightblue" d="M1025.2,-111.379C1042.75,-101.301 1065.11,-88.4624 1080.59,-79.5707"/>
<polygon fill="midnightblue" stroke="midnightblue" points="1023.45,-108.347 1016.52,-116.362 1026.94,-114.417 1023.45,-108.347"/>
</g>
<!-- Node22&#45;&gt;Node9 -->
<g id="edge68" class="edge"><title>Node22&#45;&gt;Node9</title>
<path fill="none" stroke="midnightblue" d="M1149.43,-106.299C1152.09,-91.0452 1152.59,-70.806 1141,-58 1122.37,-37.4098 944.313,-21.0061 859.5,-14.2906"/>
<polygon fill="midnightblue" stroke="midnightblue" points="1145.95,-105.833 1147.26,-116.347 1152.79,-107.313 1145.95,-105.833"/>
</g>
<!-- Node22&#45;&gt;Node14 -->
<g id="edge64" class="edge"><title>Node22&#45;&gt;Node14</title>
<path fill="none" stroke="midnightblue" d="M1079.29,-115.592C1017.58,-104.713 925.758,-88.5256 868.191,-78.3771"/>
<polygon fill="midnightblue" stroke="midnightblue" points="1078.85,-119.068 1089.3,-117.357 1080.06,-112.174 1078.85,-119.068"/>
</g>
<!-- Node23 -->
<g id="node56" class="node"><title>Node23</title>
<a xlink:href="pyramide_8cpp.html" target="_top" xlink:title="src/pyramide.cpp">
<polygon fill="white" stroke="black" points="1188,-58.5 1188,-79.5 1280,-79.5 1280,-58.5 1188,-58.5"/>
<text text-anchor="middle" x="1234" y="-66.5" font-family="Helvetica,sans-Serif" font-size="10.00">src/pyramide.cpp</text>
</a>
</g>
<!-- Node22&#45;&gt;Node23 -->
<g id="edge66" class="edge"><title>Node22&#45;&gt;Node23</title>
<path fill="none" stroke="midnightblue" d="M1169.1,-110.821C1184.61,-100.831 1204.05,-88.2993 1217.6,-79.5707"/>
<polygon fill="midnightblue" stroke="midnightblue" points="1167.02,-108.003 1160.51,-116.362 1170.81,-113.887 1167.02,-108.003"/>
</g>
<!-- Node24&#45;&gt;Node9 -->
<g id="edge76" class="edge"><title>Node24&#45;&gt;Node9</title>
<path fill="none" stroke="midnightblue" d="M706.055,-108.384C718.096,-93.9716 735.76,-73.8592 753,-58 767.812,-44.3745 786.385,-30.6882 799.323,-21.6276"/>
<polygon fill="midnightblue" stroke="midnightblue" points="703.324,-106.195 699.661,-116.137 708.724,-110.649 703.324,-106.195"/>
</g>
<!-- Node24&#45;&gt;Node11 -->
<g id="edge74" class="edge"><title>Node24&#45;&gt;Node11</title>
<path fill="none" stroke="midnightblue" d="M682.757,-107.079C678.935,-97.8422 674.547,-87.2388 671.374,-79.5707"/>
<polygon fill="midnightblue" stroke="midnightblue" points="679.54,-108.46 686.598,-116.362 686.009,-105.783 679.54,-108.46"/>
</g>
<!-- Node24&#45;&gt;Node14 -->
<g id="edge72" class="edge"><title>Node24&#45;&gt;Node14</title>
<path fill="none" stroke="midnightblue" d="M722.628,-112.206C744.382,-102.031 772.762,-88.7567 792.293,-79.6212"/>
<polygon fill="midnightblue" stroke="midnightblue" points="721.031,-109.089 713.455,-116.497 723.996,-115.43 721.031,-109.089"/>
</g>
</g>
</svg>
