<?xml version="1.0" encoding="UTF-8" standalone="no"?>
<!DOCTYPE svg PUBLIC "-//W3C//DTD SVG 1.1//EN"
 "http://www.w3.org/Graphics/SVG/1.1/DTD/svg11.dtd">
<!-- Generated by graphviz version 2.26.3 (20100126.1600)
 -->
<!-- Title: include/geometry.hpp Pages: 1 -->
<svg width="832pt" height="146pt"
 viewBox="0.00 0.00 832.00 146.00" xmlns="http://www.w3.org/2000/svg" xmlns:xlink="http://www.w3.org/1999/xlink">
<g id="graph1" class="graph" transform="scale(1 1) rotate(0) translate(4 142)">
<title>include/geometry.hpp</title>
<polygon fill="white" stroke="white" points="-4,5 -4,-142 829,-142 829,5 -4,5"/>
<!-- Node1 -->
<g id="node1" class="node"><title>Node1</title>
<polygon fill="#bfbfbf" stroke="black" points="256,-116.5 256,-137.5 366,-137.5 366,-116.5 256,-116.5"/>
<text text-anchor="middle" x="311" y="-124.5" font-family="Helvetica,sans-Serif" font-size="10.00">include/geometry.hpp</text>
</g>
<!-- Node2 -->
<g id="node3" class="node"><title>Node2</title>
<polygon fill="white" stroke="#bfbfbf" points="-0.5,-58.5 -0.5,-79.5 52.5,-79.5 52.5,-58.5 -0.5,-58.5"/>
<text text-anchor="middle" x="26" y="-66.5" font-family="Helvetica,sans-Serif" font-size="10.00">QObject</text>
</g>
<!-- Node1&#45;&gt;Node2 -->
<g id="edge2" class="edge"><title>Node1&#45;&gt;Node2</title>
<path fill="none" stroke="midnightblue" d="M255.973,-118.584C207.334,-110.71 134.327,-97.8371 62.7481,-80.2502"/>
<polygon fill="midnightblue" stroke="midnightblue" points="63.2096,-76.7583 52.6602,-77.7373 61.5176,-83.5507 63.2096,-76.7583"/>
</g>
<!-- Node3 -->
<g id="node5" class="node"><title>Node3</title>
<polygon fill="white" stroke="#bfbfbf" points="69.5,-58.5 69.5,-79.5 134.5,-79.5 134.5,-58.5 69.5,-58.5"/>
<text text-anchor="middle" x="102" y="-66.5" font-family="Helvetica,sans-Serif" font-size="10.00">QVector3D</text>
</g>
<!-- Node1&#45;&gt;Node3 -->
<g id="edge4" class="edge"><title>Node1&#45;&gt;Node3</title>
<path fill="none" stroke="midnightblue" d="M273.152,-116.497C236.869,-106.428 182.189,-91.2534 144.445,-80.7789"/>
<polygon fill="midnightblue" stroke="midnightblue" points="145.329,-77.392 134.757,-78.0904 143.457,-84.1371 145.329,-77.392"/>
</g>
<!-- Node4 -->
<g id="node7" class="node"><title>Node4</title>
<polygon fill="white" stroke="#bfbfbf" points="74.5,-0.5 74.5,-21.5 177.5,-21.5 177.5,-0.5 74.5,-0.5"/>
<text text-anchor="middle" x="126" y="-8.5" font-family="Helvetica,sans-Serif" font-size="10.00">QOpenGLFunctions</text>
</g>
<!-- Node1&#45;&gt;Node4 -->
<g id="edge6" class="edge"><title>Node1&#45;&gt;Node4</title>
<path fill="none" stroke="midnightblue" d="M283.149,-116.484C262.053,-107.976 232.748,-94.9775 209,-80 185.11,-64.9332 160.579,-43.689 144.444,-28.7646"/>
<polygon fill="midnightblue" stroke="midnightblue" points="146.504,-25.898 136.819,-21.6024 141.711,-31.0001 146.504,-25.898"/>
</g>
<!-- Node5 -->
<g id="node9" class="node"><title>Node5</title>
<polygon fill="white" stroke="#bfbfbf" points="302,-58.5 302,-79.5 430,-79.5 430,-58.5 302,-58.5"/>
<text text-anchor="middle" x="366" y="-66.5" font-family="Helvetica,sans-Serif" font-size="10.00">QOpenGLShaderProgram</text>
</g>
<!-- Node1&#45;&gt;Node5 -->
<g id="edge8" class="edge"><title>Node1&#45;&gt;Node5</title>
<path fill="none" stroke="midnightblue" d="M321.088,-116.362C328.841,-108.186 339.73,-96.7025 348.845,-87.0907"/>
<polygon fill="midnightblue" stroke="midnightblue" points="351.635,-89.2352 355.976,-79.5707 346.555,-84.4186 351.635,-89.2352"/>
</g>
<!-- Node6 -->
<g id="node11" class="node"><title>Node6</title>
<polygon fill="white" stroke="#bfbfbf" points="448,-58.5 448,-79.5 534,-79.5 534,-58.5 448,-58.5"/>
<text text-anchor="middle" x="491" y="-66.5" font-family="Helvetica,sans-Serif" font-size="10.00">QOpenGLBuffer</text>
</g>
<!-- Node1&#45;&gt;Node6 -->
<g id="edge10" class="edge"><title>Node1&#45;&gt;Node6</title>
<path fill="none" stroke="midnightblue" d="M343.597,-116.497C373.069,-107 416.635,-92.9619 448.766,-82.6087"/>
<polygon fill="midnightblue" stroke="midnightblue" points="449.898,-85.9214 458.342,-79.5231 447.751,-79.2587 449.898,-85.9214"/>
</g>
<!-- Node7 -->
<g id="node13" class="node"><title>Node7</title>
<polygon fill="white" stroke="#bfbfbf" points="552,-58.5 552,-79.5 692,-79.5 692,-58.5 552,-58.5"/>
<text text-anchor="middle" x="622" y="-66.5" font-family="Helvetica,sans-Serif" font-size="10.00">QOpenGLVertexArrayObject</text>
</g>
<!-- Node1&#45;&gt;Node7 -->
<g id="edge12" class="edge"><title>Node1&#45;&gt;Node7</title>
<path fill="none" stroke="midnightblue" d="M366.242,-116.698C419.181,-106.825 499.146,-91.9117 555.542,-81.3941"/>
<polygon fill="midnightblue" stroke="midnightblue" points="556.246,-84.8232 565.435,-79.5491 554.963,-77.9419 556.246,-84.8232"/>
</g>
<!-- Node8 -->
<g id="node15" class="node"><title>Node8</title>
<a xlink:href="globals_8hpp.html" target="_top" xlink:title="Definitions globales. ">
<polygon fill="white" stroke="black" points="195,-0.5 195,-21.5 261,-21.5 261,-0.5 195,-0.5"/>
<text text-anchor="middle" x="228" y="-8.5" font-family="Helvetica,sans-Serif" font-size="10.00">globals.hpp</text>
</a>
</g>
<!-- Node1&#45;&gt;Node8 -->
<g id="edge14" class="edge"><title>Node1&#45;&gt;Node8</title>
<path fill="none" stroke="midnightblue" d="M269.252,-116.488C250.458,-109.447 230.049,-98.0514 219,-80 210.068,-65.4072 213.773,-45.8428 218.867,-31.2737"/>
<polygon fill="midnightblue" stroke="midnightblue" points="222.234,-32.2768 222.661,-21.6905 215.726,-29.7003 222.234,-32.2768"/>
</g>
<!-- Node9 -->
<g id="node17" class="node"><title>Node9</title>
<a xlink:href="actor_8hpp.html" target="_top" xlink:title="actor.hpp">
<polygon fill="white" stroke="black" points="227.5,-58.5 227.5,-79.5 284.5,-79.5 284.5,-58.5 227.5,-58.5"/>
<text text-anchor="middle" x="256" y="-66.5" font-family="Helvetica,sans-Serif" font-size="10.00">actor.hpp</text>
</a>
</g>
<!-- Node1&#45;&gt;Node9 -->
<g id="edge16" class="edge"><title>Node1&#45;&gt;Node9</title>
<path fill="none" stroke="midnightblue" d="M300.912,-116.362C293.159,-108.186 282.27,-96.7025 273.155,-87.0907"/>
<polygon fill="midnightblue" stroke="midnightblue" points="275.445,-84.4186 266.024,-79.5707 270.365,-89.2352 275.445,-84.4186"/>
</g>
<!-- Node12 -->
<g id="node25" class="node"><title>Node12</title>
<polygon fill="white" stroke="#bfbfbf" points="710,-58.5 710,-79.5 762,-79.5 762,-58.5 710,-58.5"/>
<text text-anchor="middle" x="736" y="-66.5" font-family="Helvetica,sans-Serif" font-size="10.00">memory</text>
</g>
<!-- Node1&#45;&gt;Node12 -->
<g id="edge26" class="edge"><title>Node1&#45;&gt;Node12</title>
<path fill="none" stroke="midnightblue" d="M366.107,-123.576C440.128,-118.268 575.772,-106.056 699.723,-79.9666"/>
<polygon fill="midnightblue" stroke="midnightblue" points="700.721,-83.3324 709.766,-77.8163 699.255,-76.4876 700.721,-83.3324"/>
</g>
<!-- Node13 -->
<g id="node27" class="node"><title>Node13</title>
<polygon fill="white" stroke="#bfbfbf" points="780,-58.5 780,-79.5 824,-79.5 824,-58.5 780,-58.5"/>
<text text-anchor="middle" x="802" y="-66.5" font-family="Helvetica,sans-Serif" font-size="10.00">vector</text>
</g>
<!-- Node1&#45;&gt;Node13 -->
<g id="edge28" class="edge"><title>Node1&#45;&gt;Node13</title>
<path fill="none" stroke="midnightblue" d="M366.206,-125.61C451.383,-122.538 619.85,-112.78 769.976,-79.7875"/>
<polygon fill="midnightblue" stroke="midnightblue" points="770.842,-83.1801 779.837,-77.5805 769.314,-76.3491 770.842,-83.1801"/>
</g>
<!-- Node9&#45;&gt;Node4 -->
<g id="edge22" class="edge"><title>Node9&#45;&gt;Node4</title>
<path fill="none" stroke="midnightblue" d="M232.458,-58.4966C211.971,-49.3562 182.053,-36.0082 159.146,-25.7883"/>
<polygon fill="midnightblue" stroke="midnightblue" points="160.365,-22.4994 149.806,-21.6212 157.512,-28.892 160.365,-22.4994"/>
</g>
<!-- Node9&#45;&gt;Node8 -->
<g id="edge18" class="edge"><title>Node9&#45;&gt;Node8</title>
<path fill="none" stroke="midnightblue" d="M250.864,-58.3619C247.154,-50.6766 242.033,-40.0686 237.578,-30.8399"/>
<polygon fill="midnightblue" stroke="midnightblue" points="240.603,-29.0545 233.103,-21.5707 234.299,-32.0978 240.603,-29.0545"/>
</g>
<!-- Node10 -->
<g id="node20" class="node"><title>Node10</title>
<polygon fill="white" stroke="#bfbfbf" points="278.5,-0.5 278.5,-21.5 345.5,-21.5 345.5,-0.5 278.5,-0.5"/>
<text text-anchor="middle" x="312" y="-8.5" font-family="Helvetica,sans-Serif" font-size="10.00">QMatrix4x4</text>
</g>
<!-- Node9&#45;&gt;Node10 -->
<g id="edge20" class="edge"><title>Node9&#45;&gt;Node10</title>
<path fill="none" stroke="midnightblue" d="M266.271,-58.3619C274.244,-50.1043 285.475,-38.4725 294.811,-28.8029"/>
<polygon fill="midnightblue" stroke="midnightblue" points="297.366,-31.1958 301.794,-21.5707 292.33,-26.3336 297.366,-31.1958"/>
</g>
<!-- Node11 -->
<g id="node23" class="node"><title>Node11</title>
<polygon fill="white" stroke="#bfbfbf" points="362.5,-0.5 362.5,-21.5 445.5,-21.5 445.5,-0.5 362.5,-0.5"/>
<text text-anchor="middle" x="404" y="-8.5" font-family="Helvetica,sans-Serif" font-size="10.00">QMetaProperty</text>
</g>
<!-- Node9&#45;&gt;Node11 -->
<g id="edge24" class="edge"><title>Node9&#45;&gt;Node11</title>
<path fill="none" stroke="midnightblue" d="M282.802,-58.4966C306.438,-49.2337 341.1,-35.6499 367.308,-25.3793"/>
<polygon fill="midnightblue" stroke="midnightblue" points="368.864,-28.5287 376.898,-21.6212 366.31,-22.0113 368.864,-28.5287"/>
</g>
</g>
</svg>
