<?xml version="1.0" encoding="UTF-8" standalone="no"?>
<!DOCTYPE svg PUBLIC "-//W3C//DTD SVG 1.1//EN"
 "http://www.w3.org/Graphics/SVG/1.1/DTD/svg11.dtd">
<!-- Generated by graphviz version 2.26.3 (20100126.1600)
 -->
<!-- Title: fromEuler Pages: 1 -->
<svg width="212pt" height="70pt"
 viewBox="0.00 0.00 212.00 70.00" xmlns="http://www.w3.org/2000/svg" xmlns:xlink="http://www.w3.org/1999/xlink">
<g id="graph1" class="graph" transform="scale(1 1) rotate(0) translate(4 66)">
<title>fromEuler</title>
<polygon fill="white" stroke="white" points="-4,5 -4,-66 209,-66 209,5 -4,5"/>
<!-- Node1 -->
<g id="node1" class="node"><title>Node1</title>
<polygon fill="#bfbfbf" stroke="black" points="0.5,-20.5 0.5,-41.5 59.5,-41.5 59.5,-20.5 0.5,-20.5"/>
<text text-anchor="middle" x="30" y="-28.5" font-family="Helvetica,sans-Serif" font-size="10.00">fromEuler</text>
</g>
<!-- Node2 -->
<g id="node3" class="node"><title>Node2</title>
<a xlink:href="class_light.html#a30538cefe47541035db096b75133442d" target="_top" xlink:title="Light::Light">
<polygon fill="white" stroke="black" points="117.5,-40.5 117.5,-61.5 182.5,-61.5 182.5,-40.5 117.5,-40.5"/>
<text text-anchor="middle" x="150" y="-48.5" font-family="Helvetica,sans-Serif" font-size="10.00">Light::Light</text>
</a>
</g>
<!-- Node1&#45;&gt;Node2 -->
<g id="edge2" class="edge"><title>Node1&#45;&gt;Node2</title>
<path fill="none" stroke="midnightblue" d="M69.9351,-37.6559C85.3156,-40.2193 102.684,-43.114 117.304,-45.5506"/>
<polygon fill="midnightblue" stroke="midnightblue" points="70.1023,-34.1355 59.6629,-35.9438 68.9514,-41.0403 70.1023,-34.1355"/>
</g>
<!-- Node3 -->
<g id="node5" class="node"><title>Node3</title>
<a xlink:href="class_zone.html#a0b653f0fb1860fd4e1a2c94e3c1f7708" target="_top" xlink:title="Zone::addBaseProps">
<polygon fill="white" stroke="black" points="96,-0.5 96,-21.5 204,-21.5 204,-0.5 96,-0.5"/>
<text text-anchor="middle" x="150" y="-8.5" font-family="Helvetica,sans-Serif" font-size="10.00">Zone::addBaseProps</text>
</a>
</g>
<!-- Node1&#45;&gt;Node3 -->
<g id="edge4" class="edge"><title>Node1&#45;&gt;Node3</title>
<path fill="none" stroke="midnightblue" d="M69.5799,-24.4034C78.0008,-22.9999 87.031,-21.4948 95.8885,-20.0186"/>
<polygon fill="midnightblue" stroke="midnightblue" points="68.9514,-20.9597 59.6629,-26.0562 70.1023,-27.8645 68.9514,-20.9597"/>
</g>
</g>
</svg>
