<?xml version="1.0" encoding="UTF-8" standalone="no"?>
<!DOCTYPE svg PUBLIC "-//W3C//DTD SVG 1.1//EN"
 "http://www.w3.org/Graphics/SVG/1.1/DTD/svg11.dtd">
<!-- Generated by graphviz version 2.26.3 (20100126.1600)
 -->
<!-- Title: include/globals.hpp Pages: 1 -->
<svg width="520pt" height="320pt"
 viewBox="0.00 0.00 520.00 320.00" xmlns="http://www.w3.org/2000/svg" xmlns:xlink="http://www.w3.org/1999/xlink">
<g id="graph1" class="graph" transform="scale(1 1) rotate(0) translate(4 316)">
<title>include/globals.hpp</title>
<polygon fill="white" stroke="white" points="-4,5 -4,-316 517,-316 517,5 -4,5"/>
<!-- Node1 -->
<g id="node1" class="node"><title>Node1</title>
<polygon fill="#bfbfbf" stroke="black" points="311,-290.5 311,-311.5 411,-311.5 411,-290.5 311,-290.5"/>
<text text-anchor="middle" x="361" y="-298.5" font-family="Helvetica,sans-Serif" font-size="10.00">include/globals.hpp</text>
</g>
<!-- Node2 -->
<g id="node3" class="node"><title>Node2</title>
<a xlink:href="actor_8hpp.html" target="_top" xlink:title="include/actor.hpp">
<polygon fill="white" stroke="black" points="203.5,-232.5 203.5,-253.5 294.5,-253.5 294.5,-232.5 203.5,-232.5"/>
<text text-anchor="middle" x="249" y="-240.5" font-family="Helvetica,sans-Serif" font-size="10.00">include/actor.hpp</text>
</a>
</g>
<!-- Node1&#45;&gt;Node2 -->
<g id="edge2" class="edge"><title>Node1&#45;&gt;Node2</title>
<path fill="none" stroke="midnightblue" d="M331.637,-285.794C312.096,-275.675 286.914,-262.634 269.51,-253.621"/>
<polygon fill="midnightblue" stroke="midnightblue" points="330.228,-289.006 340.718,-290.497 333.447,-282.79 330.228,-289.006"/>
</g>
<!-- Node4 -->
<g id="node7" class="node"><title>Node4</title>
<a xlink:href="geometry_8hpp.html" target="_top" xlink:title="include/geometry.hpp">
<polygon fill="white" stroke="black" points="231,-174.5 231,-195.5 341,-195.5 341,-174.5 231,-174.5"/>
<text text-anchor="middle" x="286" y="-182.5" font-family="Helvetica,sans-Serif" font-size="10.00">include/geometry.hpp</text>
</a>
</g>
<!-- Node1&#45;&gt;Node4 -->
<g id="edge38" class="edge"><title>Node1&#45;&gt;Node4</title>
<path fill="none" stroke="midnightblue" d="M348.571,-281.776C332.637,-257.132 305.561,-215.255 292.905,-195.679"/>
<polygon fill="midnightblue" stroke="midnightblue" points="345.71,-283.798 354.079,-290.295 351.588,-279.997 345.71,-283.798"/>
</g>
<!-- Node5 -->
<g id="node9" class="node"><title>Node5</title>
<a xlink:href="cube_8hpp.html" target="_top" xlink:title="include/cube.hpp">
<polygon fill="white" stroke="black" points="414,-116.5 414,-137.5 504,-137.5 504,-116.5 414,-116.5"/>
<text text-anchor="middle" x="459" y="-124.5" font-family="Helvetica,sans-Serif" font-size="10.00">include/cube.hpp</text>
</a>
</g>
<!-- Node1&#45;&gt;Node5 -->
<g id="edge40" class="edge"><title>Node1&#45;&gt;Node5</title>
<path fill="none" stroke="midnightblue" d="M405.289,-286.725C423.545,-279.186 443.91,-268.445 459,-254 486.545,-227.632 500.96,-210.523 490,-174 485.842,-160.144 476.131,-146.6 468.677,-137.639"/>
<polygon fill="midnightblue" stroke="midnightblue" points="404.005,-283.469 395.974,-290.378 406.561,-289.986 404.005,-283.469"/>
</g>
<!-- Node16 -->
<g id="node32" class="node"><title>Node16</title>
<a xlink:href="camera_8hpp.html" target="_top" xlink:title="include/camera.hpp">
<polygon fill="white" stroke="black" points="349.5,-232.5 349.5,-253.5 450.5,-253.5 450.5,-232.5 349.5,-232.5"/>
<text text-anchor="middle" x="400" y="-240.5" font-family="Helvetica,sans-Serif" font-size="10.00">include/camera.hpp</text>
</a>
</g>
<!-- Node1&#45;&gt;Node16 -->
<g id="edge32" class="edge"><title>Node1&#45;&gt;Node16</title>
<path fill="none" stroke="midnightblue" d="M373.803,-281.959C380.149,-272.522 387.571,-261.484 392.892,-253.571"/>
<polygon fill="midnightblue" stroke="midnightblue" points="370.829,-280.11 368.153,-290.362 376.638,-284.016 370.829,-280.11"/>
</g>
<!-- Node3 -->
<g id="node5" class="node"><title>Node3</title>
<a xlink:href="actor_8cpp.html" target="_top" xlink:title="src/actor.cpp">
<polygon fill="white" stroke="black" points="139,-174.5 139,-195.5 213,-195.5 213,-174.5 139,-174.5"/>
<text text-anchor="middle" x="176" y="-182.5" font-family="Helvetica,sans-Serif" font-size="10.00">src/actor.cpp</text>
</a>
</g>
<!-- Node2&#45;&gt;Node3 -->
<g id="edge4" class="edge"><title>Node2&#45;&gt;Node3</title>
<path fill="none" stroke="midnightblue" d="M227.572,-225.975C215.183,-216.132 199.982,-204.055 189.304,-195.571"/>
<polygon fill="midnightblue" stroke="midnightblue" points="225.604,-228.881 235.611,-232.362 229.958,-223.401 225.604,-228.881"/>
</g>
<!-- Node2&#45;&gt;Node4 -->
<g id="edge6" class="edge"><title>Node2&#45;&gt;Node4</title>
<path fill="none" stroke="midnightblue" d="M261.333,-223.667C267.312,-214.295 274.261,-203.402 279.257,-195.571"/>
<polygon fill="midnightblue" stroke="midnightblue" points="258.214,-222.049 255.786,-232.362 264.115,-225.814 258.214,-222.049"/>
</g>
<!-- Node4&#45;&gt;Node5 -->
<g id="edge8" class="edge"><title>Node4&#45;&gt;Node5</title>
<path fill="none" stroke="midnightblue" d="M326.927,-171.279C357.754,-160.944 399.39,-146.985 427.612,-137.523"/>
<polygon fill="midnightblue" stroke="midnightblue" points="325.698,-167.999 317.329,-174.497 327.923,-174.636 325.698,-167.999"/>
</g>
<!-- Node10 -->
<g id="node19" class="node"><title>Node10</title>
<a xlink:href="sphere_8hpp.html" target="_top" xlink:title="include/sphere.hpp">
<polygon fill="white" stroke="black" points="133,-116.5 133,-137.5 231,-137.5 231,-116.5 133,-116.5"/>
<text text-anchor="middle" x="182" y="-124.5" font-family="Helvetica,sans-Serif" font-size="10.00">include/sphere.hpp</text>
</a>
</g>
<!-- Node4&#45;&gt;Node10 -->
<g id="edge18" class="edge"><title>Node4&#45;&gt;Node10</title>
<path fill="none" stroke="midnightblue" d="M257.99,-169.379C239.919,-159.301 216.898,-146.462 200.954,-137.571"/>
<polygon fill="midnightblue" stroke="midnightblue" points="256.486,-172.548 266.925,-174.362 259.896,-166.434 256.486,-172.548"/>
</g>
<!-- Node13 -->
<g id="node26" class="node"><title>Node13</title>
<a xlink:href="geometry_8cpp.html" target="_top" xlink:title="src/geometry.cpp">
<polygon fill="white" stroke="black" points="249,-116.5 249,-137.5 341,-137.5 341,-116.5 249,-116.5"/>
<text text-anchor="middle" x="295" y="-124.5" font-family="Helvetica,sans-Serif" font-size="10.00">src/geometry.cpp</text>
</a>
</g>
<!-- Node4&#45;&gt;Node13 -->
<g id="edge26" class="edge"><title>Node4&#45;&gt;Node13</title>
<path fill="none" stroke="midnightblue" d="M289.229,-164.191C290.629,-155.168 292.208,-144.994 293.36,-137.571"/>
<polygon fill="midnightblue" stroke="midnightblue" points="285.726,-163.943 287.651,-174.362 292.643,-165.017 285.726,-163.943"/>
</g>
<!-- Node14 -->
<g id="node28" class="node"><title>Node14</title>
<a xlink:href="group_8hpp.html" target="_top" xlink:title="include/group.hpp">
<polygon fill="white" stroke="black" points="6.5,-116.5 6.5,-137.5 99.5,-137.5 99.5,-116.5 6.5,-116.5"/>
<text text-anchor="middle" x="53" y="-124.5" font-family="Helvetica,sans-Serif" font-size="10.00">include/group.hpp</text>
</a>
</g>
<!-- Node4&#45;&gt;Node14 -->
<g id="edge28" class="edge"><title>Node4&#45;&gt;Node14</title>
<path fill="none" stroke="midnightblue" d="M234.084,-172.077C192.285,-161.672 134.271,-147.231 95.2737,-137.523"/>
<polygon fill="midnightblue" stroke="midnightblue" points="233.256,-175.477 243.805,-174.497 234.947,-168.685 233.256,-175.477"/>
</g>
<!-- Node6 -->
<g id="node11" class="node"><title>Node6</title>
<a xlink:href="cube_8cpp.html" target="_top" xlink:title="src/cube.cpp">
<polygon fill="white" stroke="black" points="439.5,-58.5 439.5,-79.5 512.5,-79.5 512.5,-58.5 439.5,-58.5"/>
<text text-anchor="middle" x="476" y="-66.5" font-family="Helvetica,sans-Serif" font-size="10.00">src/cube.cpp</text>
</a>
</g>
<!-- Node5&#45;&gt;Node6 -->
<g id="edge10" class="edge"><title>Node5&#45;&gt;Node6</title>
<path fill="none" stroke="midnightblue" d="M465.012,-106.488C467.678,-97.3924 470.702,-87.0756 472.902,-79.5707"/>
<polygon fill="midnightblue" stroke="midnightblue" points="461.572,-105.781 462.118,-116.362 468.29,-107.75 461.572,-105.781"/>
</g>
<!-- Node7 -->
<g id="node13" class="node"><title>Node7</title>
<a xlink:href="viewport_8hpp.html" target="_top" xlink:title="include/viewport.hpp">
<polygon fill="white" stroke="black" points="316,-58.5 316,-79.5 422,-79.5 422,-58.5 316,-58.5"/>
<text text-anchor="middle" x="369" y="-66.5" font-family="Helvetica,sans-Serif" font-size="10.00">include/viewport.hpp</text>
</a>
</g>
<!-- Node5&#45;&gt;Node7 -->
<g id="edge12" class="edge"><title>Node5&#45;&gt;Node7</title>
<path fill="none" stroke="midnightblue" d="M433.895,-110.821C418.393,-100.831 398.947,-88.2993 385.403,-79.5707"/>
<polygon fill="midnightblue" stroke="midnightblue" points="432.191,-113.887 442.493,-116.362 435.983,-108.003 432.191,-113.887"/>
</g>
<!-- Node8 -->
<g id="node15" class="node"><title>Node8</title>
<a xlink:href="fileloader_8cpp.html" target="_top" xlink:title="src/fileloader.cpp">
<polygon fill="white" stroke="black" points="269.5,-0.5 269.5,-21.5 360.5,-21.5 360.5,-0.5 269.5,-0.5"/>
<text text-anchor="middle" x="315" y="-8.5" font-family="Helvetica,sans-Serif" font-size="10.00">src/fileloader.cpp</text>
</a>
</g>
<!-- Node7&#45;&gt;Node8 -->
<g id="edge14" class="edge"><title>Node7&#45;&gt;Node8</title>
<path fill="none" stroke="midnightblue" d="M352.083,-50.8299C343.125,-41.2078 332.437,-29.7282 324.842,-21.5707"/>
<polygon fill="midnightblue" stroke="midnightblue" points="349.72,-53.4279 359.096,-58.3619 354.843,-48.658 349.72,-53.4279"/>
</g>
<!-- Node9 -->
<g id="node17" class="node"><title>Node9</title>
<a xlink:href="viewport_8cpp.html" target="_top" xlink:title="src/viewport.cpp">
<polygon fill="white" stroke="black" points="377.5,-0.5 377.5,-21.5 466.5,-21.5 466.5,-0.5 377.5,-0.5"/>
<text text-anchor="middle" x="422" y="-8.5" font-family="Helvetica,sans-Serif" font-size="10.00">src/viewport.cpp</text>
</a>
</g>
<!-- Node7&#45;&gt;Node9 -->
<g id="edge16" class="edge"><title>Node7&#45;&gt;Node9</title>
<path fill="none" stroke="midnightblue" d="M385.604,-50.8299C394.396,-41.2078 404.886,-29.7282 412.341,-21.5707"/>
<polygon fill="midnightblue" stroke="midnightblue" points="382.883,-48.6188 378.721,-58.3619 388.051,-53.3408 382.883,-48.6188"/>
</g>
<!-- Node10&#45;&gt;Node7 -->
<g id="edge20" class="edge"><title>Node10&#45;&gt;Node7</title>
<path fill="none" stroke="midnightblue" d="M225.807,-113.413C259.171,-103.065 304.434,-89.0258 335.072,-79.5231"/>
<polygon fill="midnightblue" stroke="midnightblue" points="224.379,-110.191 215.864,-116.497 226.452,-116.877 224.379,-110.191"/>
</g>
<!-- Node11 -->
<g id="node22" class="node"><title>Node11</title>
<a xlink:href="mainwindow_8cpp.html" target="_top" xlink:title="src/mainwindow.cpp">
<polygon fill="white" stroke="black" points="94,-58.5 94,-79.5 200,-79.5 200,-58.5 94,-58.5"/>
<text text-anchor="middle" x="147" y="-66.5" font-family="Helvetica,sans-Serif" font-size="10.00">src/mainwindow.cpp</text>
</a>
</g>
<!-- Node10&#45;&gt;Node11 -->
<g id="edge22" class="edge"><title>Node10&#45;&gt;Node11</title>
<path fill="none" stroke="midnightblue" d="M170.333,-107.667C164.678,-98.2948 158.105,-87.4019 153.379,-79.5707"/>
<polygon fill="midnightblue" stroke="midnightblue" points="167.417,-109.608 175.58,-116.362 173.41,-105.992 167.417,-109.608"/>
</g>
<!-- Node12 -->
<g id="node24" class="node"><title>Node12</title>
<a xlink:href="sphere_8cpp.html" target="_top" xlink:title="src/sphere.cpp">
<polygon fill="white" stroke="black" points="217.5,-58.5 217.5,-79.5 298.5,-79.5 298.5,-58.5 217.5,-58.5"/>
<text text-anchor="middle" x="258" y="-66.5" font-family="Helvetica,sans-Serif" font-size="10.00">src/sphere.cpp</text>
</a>
</g>
<!-- Node10&#45;&gt;Node12 -->
<g id="edge24" class="edge"><title>Node10&#45;&gt;Node12</title>
<path fill="none" stroke="midnightblue" d="M203.937,-110.259C216.902,-100.364 232.925,-88.1361 244.149,-79.5707"/>
<polygon fill="midnightblue" stroke="midnightblue" points="201.766,-107.513 195.94,-116.362 206.012,-113.077 201.766,-107.513"/>
</g>
<!-- Node15 -->
<g id="node30" class="node"><title>Node15</title>
<a xlink:href="group_8cpp.html" target="_top" xlink:title="src/group.cpp">
<polygon fill="white" stroke="black" points="0,-58.5 0,-79.5 76,-79.5 76,-58.5 0,-58.5"/>
<text text-anchor="middle" x="38" y="-66.5" font-family="Helvetica,sans-Serif" font-size="10.00">src/group.cpp</text>
</a>
</g>
<!-- Node14&#45;&gt;Node15 -->
<g id="edge30" class="edge"><title>Node14&#45;&gt;Node15</title>
<path fill="none" stroke="midnightblue" d="M47.6951,-106.488C45.3428,-97.3924 42.6747,-87.0756 40.7338,-79.5707"/>
<polygon fill="midnightblue" stroke="midnightblue" points="44.3564,-107.557 50.2488,-116.362 51.1334,-105.804 44.3564,-107.557"/>
</g>
<!-- Node16&#45;&gt;Node7 -->
<g id="edge36" class="edge"><title>Node16&#45;&gt;Node7</title>
<path fill="none" stroke="midnightblue" d="M394.269,-222.441C392.114,-214.256 389.762,-204.724 388,-196 379.351,-153.168 372.809,-101.478 370.217,-79.6003"/>
<polygon fill="midnightblue" stroke="midnightblue" points="390.931,-223.506 396.922,-232.244 397.688,-221.677 390.931,-223.506"/>
</g>
<!-- Node17 -->
<g id="node34" class="node"><title>Node17</title>
<a xlink:href="camera_8cpp.html" target="_top" xlink:title="src/camera.cpp">
<polygon fill="white" stroke="black" points="397,-174.5 397,-195.5 481,-195.5 481,-174.5 397,-174.5"/>
<text text-anchor="middle" x="439" y="-182.5" font-family="Helvetica,sans-Serif" font-size="10.00">src/camera.cpp</text>
</a>
</g>
<!-- Node16&#45;&gt;Node17 -->
<g id="edge34" class="edge"><title>Node16&#45;&gt;Node17</title>
<path fill="none" stroke="midnightblue" d="M412.803,-223.959C419.149,-214.522 426.571,-203.484 431.892,-195.571"/>
<polygon fill="midnightblue" stroke="midnightblue" points="409.829,-222.11 407.153,-232.362 415.638,-226.016 409.829,-222.11"/>
</g>
</g>
</svg>
