<?xml version="1.0" encoding="UTF-8" standalone="no"?>
<!DOCTYPE svg PUBLIC "-//W3C//DTD SVG 1.1//EN"
 "http://www.w3.org/Graphics/SVG/1.1/DTD/svg11.dtd">
<!-- Generated by graphviz version 2.26.3 (20100126.1600)
 -->
<!-- Title: include/globals.hpp Pages: 1 -->
<!--zoomable 320 -->
<svg id="main" version="1.1" xmlns="http://www.w3.org/2000/svg" xmlns:xlink="http://www.w3.org/1999/xlink" xml:space="preserve" onload="init(evt)">
<style type="text/css"><![CDATA[
.edge:hover path { stroke: red; }
.edge:hover polygon { stroke: red; fill: red; }
]]></style>
<script type="text/javascript"><![CDATA[
var edges = document.getElementsByTagName('g');
if (edges && edges.length) {
  for (var i=0;i<edges.length;i++) {
    if (edges[i].id.substr(0,4)=='edge') {
      edges[i].setAttribute('class','edge');
    }
  }
}
]]></script>
        <defs>
                <circle id="rim" cx="0" cy="0" r="7"/>
                <circle id="rim2" cx="0" cy="0" r="3.5"/>
                <g id="zoomPlus">
                        <use xlink:href="#rim" fill="#404040">
                                <set attributeName="fill" to="#808080" begin="zoomplus.mouseover" end="zoomplus.mouseout"/>
                        </use>
                        <path d="M-4,0h8M0,-4v8" fill="none" stroke="white" stroke-width="1.5" pointer-events="none"/>
                </g>
                <g id="zoomMin">
                        <use xlink:href="#rim" fill="#404040">
                                <set attributeName="fill" to="#808080" begin="zoomminus.mouseover" end="zoomminus.mouseout"/>
                        </use>
                        <path d="M-4,0h8" fill="none" stroke="white" stroke-width="1.5" pointer-events="none"/>
                </g>
                <g id="dirArrow">
                        <path fill="none" stroke="white" stroke-width="1.5" d="M0,-3.0v7 M-2.5,-0.5L0,-3.0L2.5,-0.5"/>
                </g>
               <g id="resetDef">
                       <use xlink:href="#rim2" fill="#404040">
                               <set attributeName="fill" to="#808080" begin="reset.mouseover" end="reset.mouseout"/>
                       </use>
               </g>
        </defs>

<script type="text/javascript">
var viewWidth = 1644;
var viewHeight = 320;
var sectionId = 'dynsection-1';
</script>
<script xlink:href="svgpan.js"/>
<svg id="graph" class="graph">
<g id="viewport">
<title>include/globals.hpp</title>
<polygon fill="white" stroke="white" points="-4,5 -4,-316 1641,-316 1641,5 -4,5"/>
<!-- Node1 -->
<g id="node1" class="node"><title>Node1</title>
<polygon fill="#bfbfbf" stroke="black" points="1124,-290.5 1124,-311.5 1224,-311.5 1224,-290.5 1124,-290.5"/>
<text text-anchor="middle" x="1174" y="-298.5" font-family="Helvetica,sans-Serif" font-size="10.00">include/globals.hpp</text>
</g>
<!-- Node2 -->
<g id="node3" class="node"><title>Node2</title>
<a xlink:href="actor_8hpp.html" target="_top" xlink:title="include/actor.hpp">
<polygon fill="white" stroke="black" points="1055.5,-232.5 1055.5,-253.5 1146.5,-253.5 1146.5,-232.5 1055.5,-232.5"/>
<text text-anchor="middle" x="1101" y="-240.5" font-family="Helvetica,sans-Serif" font-size="10.00">include/actor.hpp</text>
</a>
</g>
<!-- Node1&#45;&gt;Node2 -->
<g id="edge2" class="edge"><title>Node1&#45;&gt;Node2</title>
<path fill="none" stroke="midnightblue" d="M1152.57,-283.975C1140.18,-274.132 1124.98,-262.055 1114.3,-253.571"/>
<polygon fill="midnightblue" stroke="midnightblue" points="1150.6,-286.881 1160.61,-290.362 1154.96,-281.401 1150.6,-286.881"/>
</g>
<!-- Node4 -->
<g id="node7" class="node"><title>Node4</title>
<a xlink:href="geometry_8hpp.html" target="_top" xlink:title="include/geometry.hpp">
<polygon fill="white" stroke="black" points="869,-174.5 869,-195.5 979,-195.5 979,-174.5 869,-174.5"/>
<text text-anchor="middle" x="924" y="-182.5" font-family="Helvetica,sans-Serif" font-size="10.00">include/geometry.hpp</text>
</a>
</g>
<!-- Node1&#45;&gt;Node4 -->
<g id="edge122" class="edge"><title>Node1&#45;&gt;Node4</title>
<path fill="none" stroke="midnightblue" d="M1131.76,-287.234C1106.73,-278.617 1074.6,-266.754 1047,-254 1007.88,-235.925 964.414,-210.09 941.067,-195.708"/>
<polygon fill="midnightblue" stroke="midnightblue" points="1130.74,-290.582 1141.33,-290.489 1132.99,-283.955 1130.74,-290.582"/>
</g>
<!-- Node5 -->
<g id="node9" class="node"><title>Node5</title>
<a xlink:href="cube_8hpp.html" target="_top" xlink:title="include/cube.hpp">
<polygon fill="white" stroke="black" points="1189,-116.5 1189,-137.5 1279,-137.5 1279,-116.5 1189,-116.5"/>
<text text-anchor="middle" x="1234" y="-124.5" font-family="Helvetica,sans-Serif" font-size="10.00">include/cube.hpp</text>
</a>
</g>
<!-- Node1&#45;&gt;Node5 -->
<g id="edge130" class="edge"><title>Node1&#45;&gt;Node5</title>
<path fill="none" stroke="midnightblue" d="M1182.54,-280.973C1191.3,-260.011 1205.03,-226.03 1215,-196 1221.73,-175.717 1228,-151.542 1231.38,-137.86"/>
<polygon fill="midnightblue" stroke="midnightblue" points="1179.22,-279.827 1178.56,-290.402 1185.67,-282.547 1179.22,-279.827"/>
</g>
<!-- Node29 -->
<g id="node75" class="node"><title>Node29</title>
<a xlink:href="world_8hpp.html" target="_top" xlink:title="include/world.hpp">
<polygon fill="white" stroke="black" points="1114,-174.5 1114,-195.5 1206,-195.5 1206,-174.5 1114,-174.5"/>
<text text-anchor="middle" x="1160" y="-182.5" font-family="Helvetica,sans-Serif" font-size="10.00">include/world.hpp</text>
</a>
</g>
<!-- Node1&#45;&gt;Node29 -->
<g id="edge132" class="edge"><title>Node1&#45;&gt;Node29</title>
<path fill="none" stroke="midnightblue" d="M1171.48,-280.123C1168.48,-255.298 1163.6,-214.824 1161.29,-195.679"/>
<polygon fill="midnightblue" stroke="midnightblue" points="1168.03,-280.786 1172.71,-290.295 1174.98,-279.948 1168.03,-280.786"/>
</g>
<!-- Node32 -->
<g id="node90" class="node"><title>Node32</title>
<a xlink:href="camera_8hpp.html" target="_top" xlink:title="include/camera.hpp">
<polygon fill="white" stroke="black" points="1307.5,-232.5 1307.5,-253.5 1408.5,-253.5 1408.5,-232.5 1307.5,-232.5"/>
<text text-anchor="middle" x="1358" y="-240.5" font-family="Helvetica,sans-Serif" font-size="10.00">include/camera.hpp</text>
</a>
</g>
<!-- Node1&#45;&gt;Node32 -->
<g id="edge116" class="edge"><title>Node1&#45;&gt;Node32</title>
<path fill="none" stroke="midnightblue" d="M1217.1,-287.413C1249.93,-277.065 1294.47,-263.026 1324.62,-253.523"/>
<polygon fill="midnightblue" stroke="midnightblue" points="1215.81,-284.152 1207.32,-290.497 1217.91,-290.828 1215.81,-284.152"/>
</g>
<!-- Node34 -->
<g id="node96" class="node"><title>Node34</title>
<a xlink:href="material_8hpp.html" target="_top" xlink:title="include/material.hpp">
<polygon fill="white" stroke="black" points="872,-232.5 872,-253.5 976,-253.5 976,-232.5 872,-232.5"/>
<text text-anchor="middle" x="924" y="-240.5" font-family="Helvetica,sans-Serif" font-size="10.00">include/material.hpp</text>
</a>
</g>
<!-- Node1&#45;&gt;Node34 -->
<g id="edge124" class="edge"><title>Node1&#45;&gt;Node34</title>
<path fill="none" stroke="midnightblue" d="M1118.86,-288.208C1073.97,-277.794 1011.38,-263.272 969.358,-253.523"/>
<polygon fill="midnightblue" stroke="midnightblue" points="1118.19,-291.646 1128.73,-290.497 1119.78,-284.827 1118.19,-291.646"/>
</g>
<!-- Node36 -->
<g id="node103" class="node"><title>Node36</title>
<a xlink:href="global_8cpp.html" target="_top" xlink:title="src/global.cpp">
<polygon fill="white" stroke="black" points="1425.5,-232.5 1425.5,-253.5 1502.5,-253.5 1502.5,-232.5 1425.5,-232.5"/>
<text text-anchor="middle" x="1464" y="-240.5" font-family="Helvetica,sans-Serif" font-size="10.00">src/global.cpp</text>
</a>
</g>
<!-- Node1&#45;&gt;Node36 -->
<g id="edge134" class="edge"><title>Node1&#45;&gt;Node36</title>
<path fill="none" stroke="midnightblue" d="M1234.23,-290.023C1283.49,-280.886 1354.89,-267.27 1417,-254 1419.7,-253.422 1422.49,-252.811 1425.3,-252.183"/>
<polygon fill="midnightblue" stroke="midnightblue" points="1233.57,-286.585 1224.38,-291.846 1234.85,-293.469 1233.57,-286.585"/>
</g>
<!-- Node3 -->
<g id="node5" class="node"><title>Node3</title>
<a xlink:href="actor_8cpp.html" target="_top" xlink:title="src/actor.cpp">
<polygon fill="white" stroke="black" points="1487,-0.5 1487,-21.5 1561,-21.5 1561,-0.5 1487,-0.5"/>
<text text-anchor="middle" x="1524" y="-8.5" font-family="Helvetica,sans-Serif" font-size="10.00">src/actor.cpp</text>
</a>
</g>
<!-- Node2&#45;&gt;Node3 -->
<g id="edge4" class="edge"><title>Node2&#45;&gt;Node3</title>
<path fill="none" stroke="midnightblue" d="M1156.66,-232.069C1237.61,-213.606 1388.44,-169.203 1483,-80 1501.04,-62.9802 1513.82,-36.2699 1519.93,-21.5733"/>
<polygon fill="midnightblue" stroke="midnightblue" points="1155.67,-228.704 1146.67,-234.297 1157.19,-235.537 1155.67,-228.704"/>
</g>
<!-- Node2&#45;&gt;Node4 -->
<g id="edge6" class="edge"><title>Node2&#45;&gt;Node4</title>
<path fill="none" stroke="midnightblue" d="M1059.13,-229.279C1027.59,-218.944 984.988,-204.985 956.113,-195.523"/>
<polygon fill="midnightblue" stroke="midnightblue" points="1058.35,-232.709 1068.95,-232.497 1060.53,-226.057 1058.35,-232.709"/>
</g>
<!-- Node2&#45;&gt;Node29 -->
<g id="edge92" class="edge"><title>Node2&#45;&gt;Node29</title>
<path fill="none" stroke="midnightblue" d="M1119.19,-225.118C1129.04,-215.438 1140.87,-203.81 1149.25,-195.571"/>
<polygon fill="midnightblue" stroke="midnightblue" points="1116.5,-222.856 1111.82,-232.362 1121.41,-227.847 1116.5,-222.856"/>
</g>
<!-- Node30 -->
<g id="node79" class="node"><title>Node30</title>
<a xlink:href="light_8hpp.html" target="_top" xlink:title="include/light.hpp">
<polygon fill="white" stroke="black" points="1042.5,-116.5 1042.5,-137.5 1129.5,-137.5 1129.5,-116.5 1042.5,-116.5"/>
<text text-anchor="middle" x="1086" y="-124.5" font-family="Helvetica,sans-Serif" font-size="10.00">include/light.hpp</text>
</a>
</g>
<!-- Node2&#45;&gt;Node30 -->
<g id="edge98" class="edge"><title>Node2&#45;&gt;Node30</title>
<path fill="none" stroke="midnightblue" d="M1098.3,-222.123C1095.09,-197.298 1089.86,-156.824 1087.38,-137.679"/>
<polygon fill="midnightblue" stroke="midnightblue" points="1094.86,-222.826 1099.62,-232.295 1101.8,-221.929 1094.86,-222.826"/>
</g>
<!-- Node4&#45;&gt;Node5 -->
<g id="edge8" class="edge"><title>Node4&#45;&gt;Node5</title>
<path fill="none" stroke="midnightblue" d="M989.153,-172.81C1048.92,-161.627 1135.92,-145.351 1188.52,-135.51"/>
<polygon fill="midnightblue" stroke="midnightblue" points="988.25,-169.418 979.065,-174.698 989.538,-176.299 988.25,-169.418"/>
</g>
<!-- Node8 -->
<g id="node16" class="node"><title>Node8</title>
<a xlink:href="geometry_8cpp.html" target="_top" xlink:title="src/geometry.cpp">
<polygon fill="white" stroke="black" points="1377,-0.5 1377,-21.5 1469,-21.5 1469,-0.5 1377,-0.5"/>
<text text-anchor="middle" x="1423" y="-8.5" font-family="Helvetica,sans-Serif" font-size="10.00">src/geometry.cpp</text>
</a>
</g>
<!-- Node4&#45;&gt;Node8 -->
<g id="edge48" class="edge"><title>Node4&#45;&gt;Node8</title>
<path fill="none" stroke="midnightblue" d="M989.14,-180.244C1062.46,-174.048 1184.83,-161.166 1288,-138 1369.6,-119.678 1417.82,-147.636 1467,-80 1481.54,-60.0062 1455.99,-35.3152 1438.13,-21.5489"/>
<polygon fill="midnightblue" stroke="midnightblue" points="988.803,-176.76 979.127,-181.074 989.382,-183.736 988.803,-176.76"/>
</g>
<!-- Node15 -->
<g id="node30" class="node"><title>Node15</title>
<a xlink:href="sphere_8hpp.html" target="_top" xlink:title="include/sphere.hpp">
<polygon fill="white" stroke="black" points="889,-116.5 889,-137.5 987,-137.5 987,-116.5 889,-116.5"/>
<text text-anchor="middle" x="938" y="-124.5" font-family="Helvetica,sans-Serif" font-size="10.00">include/sphere.hpp</text>
</a>
</g>
<!-- Node4&#45;&gt;Node15 -->
<g id="edge30" class="edge"><title>Node4&#45;&gt;Node15</title>
<path fill="none" stroke="midnightblue" d="M928.951,-164.488C931.147,-155.392 933.637,-145.076 935.448,-137.571"/>
<polygon fill="midnightblue" stroke="midnightblue" points="925.512,-163.82 926.568,-174.362 932.317,-165.462 925.512,-163.82"/>
</g>
<!-- Node18 -->
<g id="node38" class="node"><title>Node18</title>
<a xlink:href="cylinder_8hpp.html" target="_top" xlink:title="include/cylinder.hpp">
<polygon fill="white" stroke="black" points="353.5,-58.5 353.5,-79.5 456.5,-79.5 456.5,-58.5 353.5,-58.5"/>
<text text-anchor="middle" x="405" y="-66.5" font-family="Helvetica,sans-Serif" font-size="10.00">include/cylinder.hpp</text>
</a>
</g>
<!-- Node4&#45;&gt;Node18 -->
<g id="edge40" class="edge"><title>Node4&#45;&gt;Node18</title>
<path fill="none" stroke="midnightblue" d="M858.703,-173.897C725.671,-155.543 686.915,-172.595 561,-138 509.313,-123.799 452.732,-95.1866 424.014,-79.6403"/>
<polygon fill="midnightblue" stroke="midnightblue" points="858.477,-177.4 868.87,-175.343 859.462,-170.47 858.477,-177.4"/>
</g>
<!-- Node20 -->
<g id="node45" class="node"><title>Node20</title>
<a xlink:href="group_8hpp.html" target="_top" xlink:title="include/group.hpp">
<polygon fill="white" stroke="black" points="569.5,-116.5 569.5,-137.5 662.5,-137.5 662.5,-116.5 569.5,-116.5"/>
<text text-anchor="middle" x="616" y="-124.5" font-family="Helvetica,sans-Serif" font-size="10.00">include/group.hpp</text>
</a>
</g>
<!-- Node4&#45;&gt;Node20 -->
<g id="edge50" class="edge"><title>Node4&#45;&gt;Node20</title>
<path fill="none" stroke="midnightblue" d="M858.996,-172.759C800.127,-161.673 714.844,-145.613 662.538,-135.764"/>
<polygon fill="midnightblue" stroke="midnightblue" points="858.461,-176.22 868.936,-174.631 859.756,-169.341 858.461,-176.22"/>
</g>
<!-- Node22 -->
<g id="node52" class="node"><title>Node22</title>
<a xlink:href="line_8hpp.html" target="_top" xlink:title="include/line.hpp">
<polygon fill="white" stroke="black" points="252,-58.5 252,-79.5 336,-79.5 336,-58.5 252,-58.5"/>
<text text-anchor="middle" x="294" y="-66.5" font-family="Helvetica,sans-Serif" font-size="10.00">include/line.hpp</text>
</a>
</g>
<!-- Node4&#45;&gt;Node22 -->
<g id="edge60" class="edge"><title>Node4&#45;&gt;Node22</title>
<path fill="none" stroke="midnightblue" d="M858.58,-173.904C697.044,-153.026 651.605,-171.796 496,-138 430.27,-123.724 356.206,-95.0075 318.665,-79.5026"/>
<polygon fill="midnightblue" stroke="midnightblue" points="858.508,-177.425 868.881,-175.268 859.427,-170.486 858.508,-177.425"/>
</g>
<!-- Node24 -->
<g id="node58" class="node"><title>Node24</title>
<a xlink:href="pyramide_8hpp.html" target="_top" xlink:title="include/pyramide.hpp">
<polygon fill="white" stroke="black" points="125.5,-58.5 125.5,-79.5 234.5,-79.5 234.5,-58.5 125.5,-58.5"/>
<text text-anchor="middle" x="180" y="-66.5" font-family="Helvetica,sans-Serif" font-size="10.00">include/pyramide.hpp</text>
</a>
</g>
<!-- Node4&#45;&gt;Node24 -->
<g id="edge68" class="edge"><title>Node4&#45;&gt;Node24</title>
<path fill="none" stroke="midnightblue" d="M858.723,-173.946C660.443,-149.92 605.688,-173.887 413,-138 337.723,-123.98 252.067,-95.1565 208.588,-79.5676"/>
<polygon fill="midnightblue" stroke="midnightblue" points="858.535,-177.449 868.889,-175.204 859.395,-170.502 858.535,-177.449"/>
</g>
<!-- Node26 -->
<g id="node64" class="node"><title>Node26</title>
<a xlink:href="rectangle_8hpp.html" target="_top" xlink:title="include/rectangle.hpp">
<polygon fill="white" stroke="black" points="-0.5,-58.5 -0.5,-79.5 108.5,-79.5 108.5,-58.5 -0.5,-58.5"/>
<text text-anchor="middle" x="54" y="-66.5" font-family="Helvetica,sans-Serif" font-size="10.00">include/rectangle.hpp</text>
</a>
</g>
<!-- Node4&#45;&gt;Node26 -->
<g id="edge76" class="edge"><title>Node4&#45;&gt;Node26</title>
<path fill="none" stroke="midnightblue" d="M858.818,-173.975C618.931,-146.386 553.624,-176.004 319,-138 233.823,-124.203 136.22,-95.2864 86.6253,-79.6243"/>
<polygon fill="midnightblue" stroke="midnightblue" points="858.556,-177.468 868.895,-175.155 859.37,-170.515 858.556,-177.468"/>
</g>
<!-- Node28 -->
<g id="node70" class="node"><title>Node28</title>
<a xlink:href="trigger_8hpp.html" target="_top" xlink:title="include/trigger.hpp">
<polygon fill="white" stroke="black" points="818,-58.5 818,-79.5 914,-79.5 914,-58.5 818,-58.5"/>
<text text-anchor="middle" x="866" y="-66.5" font-family="Helvetica,sans-Serif" font-size="10.00">include/trigger.hpp</text>
</a>
</g>
<!-- Node4&#45;&gt;Node28 -->
<g id="edge84" class="edge"><title>Node4&#45;&gt;Node28</title>
<path fill="none" stroke="midnightblue" d="M903.295,-167.629C894.844,-159.471 885.729,-149.104 880,-138 870.248,-119.099 867.285,-94.0152 866.387,-79.8852"/>
<polygon fill="midnightblue" stroke="midnightblue" points="901.015,-170.287 910.754,-174.457 905.741,-165.123 901.015,-170.287"/>
</g>
<!-- Node6 -->
<g id="node11" class="node"><title>Node6</title>
<a xlink:href="viewport_8hpp.html" target="_top" xlink:title="include/viewport.hpp">
<polygon fill="white" stroke="black" points="1352,-58.5 1352,-79.5 1458,-79.5 1458,-58.5 1352,-58.5"/>
<text text-anchor="middle" x="1405" y="-66.5" font-family="Helvetica,sans-Serif" font-size="10.00">include/viewport.hpp</text>
</a>
</g>
<!-- Node5&#45;&gt;Node6 -->
<g id="edge10" class="edge"><title>Node5&#45;&gt;Node6</title>
<path fill="none" stroke="midnightblue" d="M1274.45,-113.279C1304.92,-102.944 1346.08,-88.9849 1373.98,-79.5231"/>
<polygon fill="midnightblue" stroke="midnightblue" points="1273.31,-109.97 1264.97,-116.497 1275.56,-116.599 1273.31,-109.97"/>
</g>
<!-- Node12 -->
<g id="node24" class="node"><title>Node12</title>
<a xlink:href="cube_8cpp.html" target="_top" xlink:title="src/cube.cpp">
<polygon fill="white" stroke="black" points="1261.5,-58.5 1261.5,-79.5 1334.5,-79.5 1334.5,-58.5 1261.5,-58.5"/>
<text text-anchor="middle" x="1298" y="-66.5" font-family="Helvetica,sans-Serif" font-size="10.00">src/cube.cpp</text>
</a>
</g>
<!-- Node5&#45;&gt;Node12 -->
<g id="edge24" class="edge"><title>Node5&#45;&gt;Node12</title>
<path fill="none" stroke="midnightblue" d="M1253.42,-109.405C1264.16,-99.6683 1277.15,-87.8914 1286.34,-79.5707"/>
<polygon fill="midnightblue" stroke="midnightblue" points="1250.8,-107.053 1245.74,-116.362 1255.5,-112.24 1250.8,-107.053"/>
</g>
<!-- Node13 -->
<g id="node26" class="node"><title>Node13</title>
<a xlink:href="trigger_8cpp.html" target="_top" xlink:title="src/trigger.cpp">
<polygon fill="white" stroke="black" points="889.5,-0.5 889.5,-21.5 968.5,-21.5 968.5,-0.5 889.5,-0.5"/>
<text text-anchor="middle" x="929" y="-8.5" font-family="Helvetica,sans-Serif" font-size="10.00">src/trigger.cpp</text>
</a>
</g>
<!-- Node5&#45;&gt;Node13 -->
<g id="edge26" class="edge"><title>Node5&#45;&gt;Node13</title>
<path fill="none" stroke="midnightblue" d="M1222.01,-107.839C1211,-91.9183 1193.21,-70 1172,-58 1137.78,-38.6378 1028.31,-22.9404 968.662,-15.5624"/>
<polygon fill="midnightblue" stroke="midnightblue" points="1219.24,-109.997 1227.69,-116.399 1225.08,-106.13 1219.24,-109.997"/>
</g>
<!-- Node14 -->
<g id="node28" class="node"><title>Node14</title>
<a xlink:href="world_8cpp.html" target="_top" xlink:title="src/world.cpp">
<polygon fill="white" stroke="black" points="931.5,-58.5 931.5,-79.5 1006.5,-79.5 1006.5,-58.5 931.5,-58.5"/>
<text text-anchor="middle" x="969" y="-66.5" font-family="Helvetica,sans-Serif" font-size="10.00">src/world.cpp</text>
</a>
</g>
<!-- Node5&#45;&gt;Node14 -->
<g id="edge28" class="edge"><title>Node5&#45;&gt;Node14</title>
<path fill="none" stroke="midnightblue" d="M1178.64,-115.492C1134.32,-106.188 1070.59,-92.6096 1015,-80 1012.28,-79.3824 1009.47,-78.7348 1006.64,-78.0761"/>
<polygon fill="midnightblue" stroke="midnightblue" points="1178.13,-118.96 1188.63,-117.586 1179.56,-112.109 1178.13,-118.96"/>
</g>
<!-- Node6&#45;&gt;Node3 -->
<g id="edge12" class="edge"><title>Node6&#45;&gt;Node3</title>
<path fill="none" stroke="midnightblue" d="M1435.63,-54.0693C1456.47,-43.9121 1483.55,-30.7157 1502.21,-21.6212"/>
<polygon fill="midnightblue" stroke="midnightblue" points="1434.01,-50.9691 1426.55,-58.4966 1437.07,-57.2615 1434.01,-50.9691"/>
</g>
<!-- Node7 -->
<g id="node14" class="node"><title>Node7</title>
<a xlink:href="fileloader_8cpp.html" target="_top" xlink:title="src/fileloader.cpp">
<polygon fill="white" stroke="black" points="1268.5,-0.5 1268.5,-21.5 1359.5,-21.5 1359.5,-0.5 1268.5,-0.5"/>
<text text-anchor="middle" x="1314" y="-8.5" font-family="Helvetica,sans-Serif" font-size="10.00">src/fileloader.cpp</text>
</a>
</g>
<!-- Node6&#45;&gt;Node7 -->
<g id="edge14" class="edge"><title>Node6&#45;&gt;Node7</title>
<path fill="none" stroke="midnightblue" d="M1379.62,-52.8215C1363.94,-42.8312 1344.28,-30.2993 1330.58,-21.5707"/>
<polygon fill="midnightblue" stroke="midnightblue" points="1378,-55.9386 1388.31,-58.3619 1381.76,-50.0356 1378,-55.9386"/>
</g>
<!-- Node6&#45;&gt;Node8 -->
<g id="edge16" class="edge"><title>Node6&#45;&gt;Node8</title>
<path fill="none" stroke="midnightblue" d="M1411.27,-48.7838C1414.12,-39.617 1417.37,-29.1572 1419.72,-21.5707"/>
<polygon fill="midnightblue" stroke="midnightblue" points="1407.92,-47.7738 1408.3,-58.3619 1414.61,-49.8487 1407.92,-47.7738"/>
</g>
<!-- Node9 -->
<g id="node18" class="node"><title>Node9</title>
<a xlink:href="light_8cpp.html" target="_top" xlink:title="src/light.cpp">
<polygon fill="white" stroke="black" points="1171,-0.5 1171,-21.5 1241,-21.5 1241,-0.5 1171,-0.5"/>
<text text-anchor="middle" x="1206" y="-8.5" font-family="Helvetica,sans-Serif" font-size="10.00">src/light.cpp</text>
</a>
</g>
<!-- Node6&#45;&gt;Node9 -->
<g id="edge18" class="edge"><title>Node6&#45;&gt;Node9</title>
<path fill="none" stroke="midnightblue" d="M1359.2,-55.6522C1323.26,-45.1759 1273.96,-30.8087 1241.1,-21.2305"/>
<polygon fill="midnightblue" stroke="midnightblue" points="1358.38,-59.0586 1368.96,-58.4966 1360.34,-52.3382 1358.38,-59.0586"/>
</g>
<!-- Node10 -->
<g id="node20" class="node"><title>Node10</title>
<a xlink:href="spotlight_8cpp.html" target="_top" xlink:title="src/spotlight.cpp">
<polygon fill="white" stroke="black" points="1048.5,-0.5 1048.5,-21.5 1137.5,-21.5 1137.5,-0.5 1048.5,-0.5"/>
<text text-anchor="middle" x="1093" y="-8.5" font-family="Helvetica,sans-Serif" font-size="10.00">src/spotlight.cpp</text>
</a>
</g>
<!-- Node6&#45;&gt;Node10 -->
<g id="edge20" class="edge"><title>Node6&#45;&gt;Node10</title>
<path fill="none" stroke="midnightblue" d="M1341.52,-57.1998C1281.01,-45.9513 1191.43,-29.2972 1137.96,-19.3585"/>
<polygon fill="midnightblue" stroke="midnightblue" points="1341.25,-60.7087 1351.72,-59.0953 1342.53,-53.8266 1341.25,-60.7087"/>
</g>
<!-- Node11 -->
<g id="node22" class="node"><title>Node11</title>
<a xlink:href="viewport_8cpp.html" target="_top" xlink:title="src/viewport.cpp">
<polygon fill="white" stroke="black" points="571.5,-0.5 571.5,-21.5 660.5,-21.5 660.5,-0.5 571.5,-0.5"/>
<text text-anchor="middle" x="616" y="-8.5" font-family="Helvetica,sans-Serif" font-size="10.00">src/viewport.cpp</text>
</a>
</g>
<!-- Node6&#45;&gt;Node11 -->
<g id="edge22" class="edge"><title>Node6&#45;&gt;Node11</title>
<path fill="none" stroke="midnightblue" d="M1341.97,-58.0199C1191.37,-40.953 794.63,-20.0399 660.766,-13.2401"/>
<polygon fill="midnightblue" stroke="midnightblue" points="1341.62,-61.5023 1351.96,-59.19 1342.43,-54.5498 1341.62,-61.5023"/>
</g>
<!-- Node15&#45;&gt;Node6 -->
<g id="edge32" class="edge"><title>Node15&#45;&gt;Node6</title>
<path fill="none" stroke="midnightblue" d="M997.186,-120.178C1107.57,-107.448 1334.53,-81.2414 1343,-80 1345.92,-79.5719 1348.91,-79.1117 1351.93,-78.631"/>
<polygon fill="midnightblue" stroke="midnightblue" points="996.732,-116.707 987.199,-121.33 997.534,-123.661 996.732,-116.707"/>
</g>
<!-- Node15&#45;&gt;Node14 -->
<g id="edge38" class="edge"><title>Node15&#45;&gt;Node14</title>
<path fill="none" stroke="midnightblue" d="M948.49,-107.373C953.464,-98.0682 959.208,-87.3204 963.35,-79.5707"/>
<polygon fill="midnightblue" stroke="midnightblue" points="945.313,-105.893 943.686,-116.362 951.486,-109.192 945.313,-105.893"/>
</g>
<!-- Node16 -->
<g id="node33" class="node"><title>Node16</title>
<a xlink:href="mainwindow_8cpp.html" target="_top" xlink:title="src/mainwindow.cpp">
<polygon fill="white" stroke="black" points="448,-0.5 448,-21.5 554,-21.5 554,-0.5 448,-0.5"/>
<text text-anchor="middle" x="501" y="-8.5" font-family="Helvetica,sans-Serif" font-size="10.00">src/mainwindow.cpp</text>
</a>
</g>
<!-- Node15&#45;&gt;Node16 -->
<g id="edge34" class="edge"><title>Node15&#45;&gt;Node16</title>
<path fill="none" stroke="midnightblue" d="M878.835,-120.059C824.602,-112.864 742.426,-99.8526 673,-80 617.473,-64.1218 555.251,-36.587 523.023,-21.5485"/>
<polygon fill="midnightblue" stroke="midnightblue" points="878.593,-123.557 888.961,-121.378 879.497,-116.616 878.593,-123.557"/>
</g>
<!-- Node17 -->
<g id="node35" class="node"><title>Node17</title>
<a xlink:href="sphere_8cpp.html" target="_top" xlink:title="src/sphere.cpp">
<polygon fill="white" stroke="black" points="681.5,-58.5 681.5,-79.5 762.5,-79.5 762.5,-58.5 681.5,-58.5"/>
<text text-anchor="middle" x="722" y="-66.5" font-family="Helvetica,sans-Serif" font-size="10.00">src/sphere.cpp</text>
</a>
</g>
<!-- Node15&#45;&gt;Node17 -->
<g id="edge36" class="edge"><title>Node15&#45;&gt;Node17</title>
<path fill="none" stroke="midnightblue" d="M888.887,-113.812C850.216,-103.428 797.037,-89.1487 761.189,-79.5231"/>
<polygon fill="midnightblue" stroke="midnightblue" points="888.318,-117.284 898.884,-116.497 890.134,-110.523 888.318,-117.284"/>
</g>
<!-- Node18&#45;&gt;Node11 -->
<g id="edge46" class="edge"><title>Node18&#45;&gt;Node11</title>
<path fill="none" stroke="midnightblue" d="M452.976,-55.8123C490.752,-45.4285 542.7,-31.1487 577.718,-21.5231"/>
<polygon fill="midnightblue" stroke="midnightblue" points="451.925,-52.4712 443.211,-58.4966 453.781,-59.2209 451.925,-52.4712"/>
</g>
<!-- Node18&#45;&gt;Node16 -->
<g id="edge44" class="edge"><title>Node18&#45;&gt;Node16</title>
<path fill="none" stroke="midnightblue" d="M431.316,-53.1009C447.926,-43.0658 468.921,-30.3808 483.504,-21.5707"/>
<polygon fill="midnightblue" stroke="midnightblue" points="429.357,-50.195 422.608,-58.3619 432.977,-56.1864 429.357,-50.195"/>
</g>
<!-- Node19 -->
<g id="node40" class="node"><title>Node19</title>
<a xlink:href="cylinder_8cpp.html" target="_top" xlink:title="src/cylinder.cpp">
<polygon fill="white" stroke="black" points="344,-0.5 344,-21.5 430,-21.5 430,-0.5 344,-0.5"/>
<text text-anchor="middle" x="387" y="-8.5" font-family="Helvetica,sans-Serif" font-size="10.00">src/cylinder.cpp</text>
</a>
</g>
<!-- Node18&#45;&gt;Node19 -->
<g id="edge42" class="edge"><title>Node18&#45;&gt;Node19</title>
<path fill="none" stroke="midnightblue" d="M398.726,-48.7838C395.881,-39.617 392.635,-29.1572 390.281,-21.5707"/>
<polygon fill="midnightblue" stroke="midnightblue" points="395.392,-49.8487 401.699,-58.3619 402.077,-47.7738 395.392,-49.8487"/>
</g>
<!-- Node20&#45;&gt;Node11 -->
<g id="edge56" class="edge"><title>Node20&#45;&gt;Node11</title>
<path fill="none" stroke="midnightblue" d="M616,-106.123C616,-81.2984 616,-40.8235 616,-21.6792"/>
<polygon fill="midnightblue" stroke="midnightblue" points="612.5,-106.295 616,-116.295 619.5,-106.295 612.5,-106.295"/>
</g>
<!-- Node20&#45;&gt;Node14 -->
<g id="edge58" class="edge"><title>Node20&#45;&gt;Node14</title>
<path fill="none" stroke="midnightblue" d="M672.698,-119.752C734.492,-111.519 836.159,-97.0003 923,-80 925.74,-79.4636 928.563,-78.8757 931.4,-78.2594"/>
<polygon fill="midnightblue" stroke="midnightblue" points="672.212,-116.286 662.758,-121.068 673.13,-123.225 672.212,-116.286"/>
</g>
<!-- Node20&#45;&gt;Node16 -->
<g id="edge54" class="edge"><title>Node20&#45;&gt;Node16</title>
<path fill="none" stroke="midnightblue" d="M559.646,-117.065C538.318,-110.305 516.058,-98.9724 503,-80 491.042,-62.6253 494.581,-36.5276 497.96,-21.9132"/>
<polygon fill="midnightblue" stroke="midnightblue" points="558.765,-120.454 569.343,-119.861 560.704,-113.728 558.765,-120.454"/>
</g>
<!-- Node21 -->
<g id="node47" class="node"><title>Node21</title>
<a xlink:href="group_8cpp.html" target="_top" xlink:title="src/group.cpp">
<polygon fill="white" stroke="black" points="512,-58.5 512,-79.5 588,-79.5 588,-58.5 512,-58.5"/>
<text text-anchor="middle" x="550" y="-66.5" font-family="Helvetica,sans-Serif" font-size="10.00">src/group.cpp</text>
</a>
</g>
<!-- Node20&#45;&gt;Node21 -->
<g id="edge52" class="edge"><title>Node20&#45;&gt;Node21</title>
<path fill="none" stroke="midnightblue" d="M596.303,-109.691C585.162,-99.8996 571.59,-87.973 562.029,-79.5707"/>
<polygon fill="midnightblue" stroke="midnightblue" points="594.072,-112.39 603.895,-116.362 598.693,-107.132 594.072,-112.39"/>
</g>
<!-- Node22&#45;&gt;Node11 -->
<g id="edge66" class="edge"><title>Node22&#45;&gt;Node11</title>
<path fill="none" stroke="midnightblue" d="M346.195,-57.8387C443.155,-39.6451 469.57,-39.4023 563,-22 565.772,-21.4838 568.621,-20.9375 571.493,-20.3752"/>
<polygon fill="midnightblue" stroke="midnightblue" points="345.443,-54.4186 336.268,-59.7172 346.745,-61.2966 345.443,-54.4186"/>
</g>
<!-- Node22&#45;&gt;Node16 -->
<g id="edge64" class="edge"><title>Node22&#45;&gt;Node16</title>
<path fill="none" stroke="midnightblue" d="M341.54,-55.6795C378.559,-45.307 429.236,-31.1078 463.444,-21.5231"/>
<polygon fill="midnightblue" stroke="midnightblue" points="340.171,-52.4283 331.486,-58.4966 342.06,-59.1687 340.171,-52.4283"/>
</g>
<!-- Node23 -->
<g id="node54" class="node"><title>Node23</title>
<a xlink:href="line_8cpp.html" target="_top" xlink:title="src/line.cpp">
<polygon fill="white" stroke="black" points="259.5,-0.5 259.5,-21.5 326.5,-21.5 326.5,-0.5 259.5,-0.5"/>
<text text-anchor="middle" x="293" y="-8.5" font-family="Helvetica,sans-Serif" font-size="10.00">src/line.cpp</text>
</a>
</g>
<!-- Node22&#45;&gt;Node23 -->
<g id="edge62" class="edge"><title>Node22&#45;&gt;Node23</title>
<path fill="none" stroke="midnightblue" d="M293.641,-48.1906C293.486,-39.1684 293.31,-28.9941 293.182,-21.5707"/>
<polygon fill="midnightblue" stroke="midnightblue" points="290.145,-48.4238 293.817,-58.3619 297.144,-48.303 290.145,-48.4238"/>
</g>
<!-- Node24&#45;&gt;Node11 -->
<g id="edge74" class="edge"><title>Node24&#45;&gt;Node11</title>
<path fill="none" stroke="midnightblue" d="M244.547,-57.8454C386.385,-37.9766 424.845,-44.0594 563,-22 565.691,-21.5703 568.453,-21.0968 571.234,-20.5949"/>
<polygon fill="midnightblue" stroke="midnightblue" points="244.012,-54.3861 234.603,-59.2568 244.996,-61.3166 244.012,-54.3861"/>
</g>
<!-- Node24&#45;&gt;Node16 -->
<g id="edge70" class="edge"><title>Node24&#45;&gt;Node16</title>
<path fill="none" stroke="midnightblue" d="M244.887,-57.2758C304.582,-46.4898 392.046,-30.6864 447.744,-20.6226"/>
<polygon fill="midnightblue" stroke="midnightblue" points="244.035,-53.873 234.817,-59.0953 245.28,-60.7614 244.035,-53.873"/>
</g>
<!-- Node25 -->
<g id="node61" class="node"><title>Node25</title>
<a xlink:href="pyramide_8cpp.html" target="_top" xlink:title="src/pyramide.cpp">
<polygon fill="white" stroke="black" points="134,-0.5 134,-21.5 226,-21.5 226,-0.5 134,-0.5"/>
<text text-anchor="middle" x="180" y="-8.5" font-family="Helvetica,sans-Serif" font-size="10.00">src/pyramide.cpp</text>
</a>
</g>
<!-- Node24&#45;&gt;Node25 -->
<g id="edge72" class="edge"><title>Node24&#45;&gt;Node25</title>
<path fill="none" stroke="midnightblue" d="M180,-48.1906C180,-39.1684 180,-28.9941 180,-21.5707"/>
<polygon fill="midnightblue" stroke="midnightblue" points="176.5,-48.3619 180,-58.3619 183.5,-48.3619 176.5,-48.3619"/>
</g>
<!-- Node26&#45;&gt;Node11 -->
<g id="edge82" class="edge"><title>Node26&#45;&gt;Node11</title>
<path fill="none" stroke="midnightblue" d="M118.707,-57.8778C316.035,-33.4354 369.419,-49.7917 563,-22 565.698,-21.6127 568.464,-21.172 571.249,-20.695"/>
<polygon fill="midnightblue" stroke="midnightblue" points="118.074,-54.4298 108.589,-59.151 118.948,-61.3751 118.074,-54.4298"/>
</g>
<!-- Node26&#45;&gt;Node16 -->
<g id="edge78" class="edge"><title>Node26&#45;&gt;Node16</title>
<path fill="none" stroke="midnightblue" d="M118.604,-57.8354C261.263,-37.817 299.678,-42.1262 439,-22 441.921,-21.578 444.916,-21.1226 447.936,-20.6457"/>
<polygon fill="midnightblue" stroke="midnightblue" points="118.012,-54.3843 108.603,-59.2545 118.996,-61.3149 118.012,-54.3843"/>
</g>
<!-- Node27 -->
<g id="node67" class="node"><title>Node27</title>
<a xlink:href="rectangle_8cpp.html" target="_top" xlink:title="src/rectangle.cpp">
<polygon fill="white" stroke="black" points="8,-0.5 8,-21.5 100,-21.5 100,-0.5 8,-0.5"/>
<text text-anchor="middle" x="54" y="-8.5" font-family="Helvetica,sans-Serif" font-size="10.00">src/rectangle.cpp</text>
</a>
</g>
<!-- Node26&#45;&gt;Node27 -->
<g id="edge80" class="edge"><title>Node26&#45;&gt;Node27</title>
<path fill="none" stroke="midnightblue" d="M54,-48.1906C54,-39.1684 54,-28.9941 54,-21.5707"/>
<polygon fill="midnightblue" stroke="midnightblue" points="50.5001,-48.3619 54,-58.3619 57.5001,-48.3619 50.5001,-48.3619"/>
</g>
<!-- Node28&#45;&gt;Node11 -->
<g id="edge90" class="edge"><title>Node28&#45;&gt;Node11</title>
<path fill="none" stroke="midnightblue" d="M810.799,-56.1933C765.613,-45.7103 702.518,-31.0722 660.516,-21.3277"/>
<polygon fill="midnightblue" stroke="midnightblue" points="810.195,-59.646 820.727,-58.4966 811.777,-52.8271 810.195,-59.646"/>
</g>
<!-- Node28&#45;&gt;Node13 -->
<g id="edge88" class="edge"><title>Node28&#45;&gt;Node13</title>
<path fill="none" stroke="midnightblue" d="M885.112,-51.405C895.688,-41.6683 908.48,-29.8914 917.518,-21.5707"/>
<polygon fill="midnightblue" stroke="midnightblue" points="882.542,-49.0138 877.555,-58.3619 887.283,-54.1637 882.542,-49.0138"/>
</g>
<!-- Node28&#45;&gt;Node16 -->
<g id="edge86" class="edge"><title>Node28&#45;&gt;Node16</title>
<path fill="none" stroke="midnightblue" d="M807.862,-58.6364C806.563,-58.4206 805.274,-58.2082 804,-58 697.117,-40.5389 669.883,-39.4611 563,-22 560.087,-21.5241 557.099,-21.0262 554.084,-20.5163"/>
<polygon fill="midnightblue" stroke="midnightblue" points="807.515,-62.1272 817.958,-60.343 808.682,-55.2251 807.515,-62.1272"/>
</g>
<!-- Node29&#45;&gt;Node6 -->
<g id="edge94" class="edge"><title>Node29&#45;&gt;Node6</title>
<path fill="none" stroke="midnightblue" d="M1203.46,-171.23C1228.61,-162.723 1260.61,-150.972 1288,-138 1325.72,-120.132 1367.21,-93.9871 1389.23,-79.5524"/>
<polygon fill="midnightblue" stroke="midnightblue" points="1202.21,-167.957 1193.83,-174.442 1204.42,-174.598 1202.21,-167.957"/>
</g>
<!-- Node29&#45;&gt;Node14 -->
<g id="edge96" class="edge"><title>Node29&#45;&gt;Node14</title>
<path fill="none" stroke="midnightblue" d="M1107.88,-171.475C1084.13,-163.871 1056.39,-152.869 1034,-138 1009.6,-121.796 987.704,-94.767 976.629,-79.8005"/>
<polygon fill="midnightblue" stroke="midnightblue" points="1106.85,-174.822 1117.44,-174.427 1108.92,-168.133 1106.85,-174.822"/>
</g>
<!-- Node30&#45;&gt;Node9 -->
<g id="edge100" class="edge"><title>Node30&#45;&gt;Node9</title>
<path fill="none" stroke="midnightblue" d="M1124.5,-112.178C1140.7,-104.476 1158.81,-93.7591 1172,-80 1188.45,-62.8394 1198.46,-36.184 1203.04,-21.534"/>
<polygon fill="midnightblue" stroke="midnightblue" points="1122.9,-109.059 1115.23,-116.366 1125.78,-115.438 1122.9,-109.059"/>
</g>
<!-- Node30&#45;&gt;Node11 -->
<g id="edge112" class="edge"><title>Node30&#45;&gt;Node11</title>
<path fill="none" stroke="midnightblue" d="M1112.71,-110.551C1132.83,-96.1634 1154.52,-74.9739 1139,-58 1122.93,-40.4215 784.51,-20.219 660.788,-13.3934"/>
<polygon fill="midnightblue" stroke="midnightblue" points="1110.59,-107.754 1104.29,-116.268 1114.53,-113.544 1110.59,-107.754"/>
</g>
<!-- Node30&#45;&gt;Node14 -->
<g id="edge114" class="edge"><title>Node30&#45;&gt;Node14</title>
<path fill="none" stroke="midnightblue" d="M1055.6,-111.932C1035.15,-101.793 1008.69,-88.6748 990.426,-79.6212"/>
<polygon fill="midnightblue" stroke="midnightblue" points="1054.3,-115.191 1064.81,-116.497 1057.41,-108.919 1054.3,-115.191"/>
</g>
<!-- Node30&#45;&gt;Node16 -->
<g id="edge102" class="edge"><title>Node30&#45;&gt;Node16</title>
<path fill="none" stroke="midnightblue" d="M1032.15,-120.18C963.555,-111.092 849.094,-94.4736 809,-80 790.644,-73.3737 789.345,-64.6566 771,-58 682.808,-25.9983 655.411,-38.1947 563,-22 560.093,-21.4905 557.109,-20.9661 554.097,-20.4356"/>
<polygon fill="midnightblue" stroke="midnightblue" points="1031.96,-123.685 1042.34,-121.518 1032.88,-116.745 1031.96,-123.685"/>
</g>
<!-- Node31 -->
<g id="node83" class="node"><title>Node31</title>
<a xlink:href="spotlight_8hpp.html" target="_top" xlink:title="include/spotlight.hpp">
<polygon fill="white" stroke="black" points="1024,-58.5 1024,-79.5 1130,-79.5 1130,-58.5 1024,-58.5"/>
<text text-anchor="middle" x="1077" y="-66.5" font-family="Helvetica,sans-Serif" font-size="10.00">include/spotlight.hpp</text>
</a>
</g>
<!-- Node30&#45;&gt;Node31 -->
<g id="edge104" class="edge"><title>Node30&#45;&gt;Node31</title>
<path fill="none" stroke="midnightblue" d="M1082.77,-106.191C1081.37,-97.1684 1079.79,-86.9941 1078.64,-79.5707"/>
<polygon fill="midnightblue" stroke="midnightblue" points="1079.36,-107.017 1084.35,-116.362 1086.27,-105.943 1079.36,-107.017"/>
</g>
<!-- Node31&#45;&gt;Node10 -->
<g id="edge108" class="edge"><title>Node31&#45;&gt;Node10</title>
<path fill="none" stroke="midnightblue" d="M1082.66,-48.4876C1085.17,-39.3924 1088.01,-29.0756 1090.08,-21.5707"/>
<polygon fill="midnightblue" stroke="midnightblue" points="1079.22,-47.7912 1079.93,-58.3619 1085.97,-49.6528 1079.22,-47.7912"/>
</g>
<!-- Node31&#45;&gt;Node11 -->
<g id="edge110" class="edge"><title>Node31&#45;&gt;Node11</title>
<path fill="none" stroke="midnightblue" d="M1013.87,-57.8972C879.44,-38.3105 732.787,-22.6987 660.692,-15.405"/>
<polygon fill="midnightblue" stroke="midnightblue" points="1013.53,-61.3855 1023.93,-59.3751 1014.55,-54.4597 1013.53,-61.3855"/>
</g>
<!-- Node31&#45;&gt;Node16 -->
<g id="edge106" class="edge"><title>Node31&#45;&gt;Node16</title>
<path fill="none" stroke="midnightblue" d="M1013.98,-57.9759C813.39,-32.8494 759.667,-47.2189 563,-22 560.072,-21.6246 557.073,-21.206 554.048,-20.7575"/>
<polygon fill="midnightblue" stroke="midnightblue" points="1013.59,-61.4548 1023.95,-59.2425 1014.47,-54.5105 1013.59,-61.4548"/>
</g>
<!-- Node32&#45;&gt;Node6 -->
<g id="edge118" class="edge"><title>Node32&#45;&gt;Node6</title>
<path fill="none" stroke="midnightblue" d="M1363.49,-222.679C1373.48,-185.674 1394.34,-108.483 1402.05,-79.9277"/>
<polygon fill="midnightblue" stroke="midnightblue" points="1360.1,-221.811 1360.87,-232.377 1366.86,-223.636 1360.1,-221.811"/>
</g>
<!-- Node33 -->
<g id="node93" class="node"><title>Node33</title>
<a xlink:href="camera_8cpp.html" target="_top" xlink:title="src/camera.cpp">
<polygon fill="white" stroke="black" points="1552,-174.5 1552,-195.5 1636,-195.5 1636,-174.5 1552,-174.5"/>
<text text-anchor="middle" x="1594" y="-182.5" font-family="Helvetica,sans-Serif" font-size="10.00">src/camera.cpp</text>
</a>
</g>
<!-- Node32&#45;&gt;Node33 -->
<g id="edge120" class="edge"><title>Node32&#45;&gt;Node33</title>
<path fill="none" stroke="midnightblue" d="M1410.65,-230.061C1453.27,-219.587 1512.49,-205.031 1551.98,-195.328"/>
<polygon fill="midnightblue" stroke="midnightblue" points="1409.61,-226.711 1400.74,-232.497 1411.28,-233.509 1409.61,-226.711"/>
</g>
<!-- Node34&#45;&gt;Node4 -->
<g id="edge126" class="edge"><title>Node34&#45;&gt;Node4</title>
<path fill="none" stroke="midnightblue" d="M924,-222.191C924,-213.168 924,-202.994 924,-195.571"/>
<polygon fill="midnightblue" stroke="midnightblue" points="920.5,-222.362 924,-232.362 927.5,-222.362 920.5,-222.362"/>
</g>
<!-- Node35 -->
<g id="node99" class="node"><title>Node35</title>
<a xlink:href="material_8cpp.html" target="_top" xlink:title="src/material.cpp">
<polygon fill="white" stroke="black" points="765,-174.5 765,-195.5 851,-195.5 851,-174.5 765,-174.5"/>
<text text-anchor="middle" x="808" y="-182.5" font-family="Helvetica,sans-Serif" font-size="10.00">src/material.cpp</text>
</a>
</g>
<!-- Node34&#45;&gt;Node35 -->
<g id="edge128" class="edge"><title>Node34&#45;&gt;Node35</title>
<path fill="none" stroke="midnightblue" d="M893.864,-227.932C873.586,-217.793 847.35,-204.675 829.242,-195.621"/>
<polygon fill="midnightblue" stroke="midnightblue" points="892.484,-231.155 902.993,-232.497 895.614,-224.894 892.484,-231.155"/>
</g>
</g>
</svg>
        <g id="navigator" transform="translate(0 0)" fill="#404254">
                <rect fill="#f2f5e9" fill-opacity="0.5" stroke="#606060" stroke-width=".5" x="0" y="0" width="60" height="60"/>
                <use id="zoomplus" xlink:href="#zoomPlus" x="17" y="9" onmousedown="handleZoom(evt,'in')"/>
                <use id="zoomminus" xlink:href="#zoomMin" x="42" y="9" onmousedown="handleZoom(evt,'out')"/>
                <use id="reset" xlink:href="#resetDef" x="30" y="36" onmousedown="handleReset()"/>
                <g id="arrowUp" xlink:href="#dirArrow" transform="translate(30 24)" onmousedown="handlePan(0,-1)">
                  <use xlink:href="#rim" fill="#404040">
                        <set attributeName="fill" to="#808080" begin="arrowUp.mouseover" end="arrowUp.mouseout"/>
                  </use>
                  <path fill="none" stroke="white" stroke-width="1.5" d="M0,-3.0v7 M-2.5,-0.5L0,-3.0L2.5,-0.5"/>
                </g>
                <g id="arrowRight" xlink:href="#dirArrow" transform="rotate(90) translate(36 -43)" onmousedown="handlePan(1,0)">
                  <use xlink:href="#rim" fill="#404040">
                        <set attributeName="fill" to="#808080" begin="arrowRight.mouseover" end="arrowRight.mouseout"/>
                  </use>
                  <path fill="none" stroke="white" stroke-width="1.5" d="M0,-3.0v7 M-2.5,-0.5L0,-3.0L2.5,-0.5"/>
                </g>
                <g id="arrowDown" xlink:href="#dirArrow" transform="rotate(180) translate(-30 -48)" onmousedown="handlePan(0,1)">
                  <use xlink:href="#rim" fill="#404040">
                        <set attributeName="fill" to="#808080" begin="arrowDown.mouseover" end="arrowDown.mouseout"/>
                  </use>
                  <path fill="none" stroke="white" stroke-width="1.5" d="M0,-3.0v7 M-2.5,-0.5L0,-3.0L2.5,-0.5"/>
                </g>
                <g id="arrowLeft" xlink:href="#dirArrow" transform="rotate(270) translate(-36 17)" onmousedown="handlePan(-1,0)">
                  <use xlink:href="#rim" fill="#404040">
                        <set attributeName="fill" to="#808080" begin="arrowLeft.mouseover" end="arrowLeft.mouseout"/>
                  </use>
                  <path fill="none" stroke="white" stroke-width="1.5" d="M0,-3.0v7 M-2.5,-0.5L0,-3.0L2.5,-0.5"/>
                </g>
        </g>
        <svg viewBox="0 0 15 15" width="100%" height="30px" preserveAspectRatio="xMaxYMin meet">
         <g id="arrow_out" transform="scale(0.3 0.3)">
          <a xlink:href="globals_8hpp__dep__incl_org.svg" target="_base">
           <rect id="button" ry="5" rx="5" y="6" x="6" height="38" width="38"
                fill="#f2f5e9" fill-opacity="0.5" stroke="#606060" stroke-width="1.0"/>
           <path id="arrow"
             d="M 11.500037,31.436501 C 11.940474,20.09759 22.043105,11.32322 32.158766,21.979434 L 37.068811,17.246167 C 37.068811,17.246167 37.088388,32 37.088388,32 L 22.160133,31.978069 C 22.160133,31.978069 26.997745,27.140456 26.997745,27.140456 C 18.528582,18.264221 13.291696,25.230495 11.500037,31.436501 z"
             style="fill:#404040;"/>
          </a>
         </g>
        </svg>
</svg>
