<?xml version="1.0" encoding="UTF-8" standalone="no"?>
<!DOCTYPE svg PUBLIC "-//W3C//DTD SVG 1.1//EN"
 "http://www.w3.org/Graphics/SVG/1.1/DTD/svg11.dtd">
<!-- Generated by graphviz version 2.26.3 (20100126.1600)
 -->
<!-- Title: include/globals.hpp Pages: 1 -->
<!--zoomable 320 -->
<svg id="main" version="1.1" xmlns="http://www.w3.org/2000/svg" xmlns:xlink="http://www.w3.org/1999/xlink" xml:space="preserve" onload="init(evt)">
<style type="text/css"><![CDATA[
.edge:hover path { stroke: red; }
.edge:hover polygon { stroke: red; fill: red; }
]]></style>
<script type="text/javascript"><![CDATA[
var edges = document.getElementsByTagName('g');
if (edges && edges.length) {
  for (var i=0;i<edges.length;i++) {
    if (edges[i].id.substr(0,4)=='edge') {
      edges[i].setAttribute('class','edge');
    }
  }
}
]]></script>
        <defs>
                <circle id="rim" cx="0" cy="0" r="7"/>
                <circle id="rim2" cx="0" cy="0" r="3.5"/>
                <g id="zoomPlus">
                        <use xlink:href="#rim" fill="#404040">
                                <set attributeName="fill" to="#808080" begin="zoomplus.mouseover" end="zoomplus.mouseout"/>
                        </use>
                        <path d="M-4,0h8M0,-4v8" fill="none" stroke="white" stroke-width="1.5" pointer-events="none"/>
                </g>
                <g id="zoomMin">
                        <use xlink:href="#rim" fill="#404040">
                                <set attributeName="fill" to="#808080" begin="zoomminus.mouseover" end="zoomminus.mouseout"/>
                        </use>
                        <path d="M-4,0h8" fill="none" stroke="white" stroke-width="1.5" pointer-events="none"/>
                </g>
                <g id="dirArrow">
                        <path fill="none" stroke="white" stroke-width="1.5" d="M0,-3.0v7 M-2.5,-0.5L0,-3.0L2.5,-0.5"/>
                </g>
               <g id="resetDef">
                       <use xlink:href="#rim2" fill="#404040">
                               <set attributeName="fill" to="#808080" begin="reset.mouseover" end="reset.mouseout"/>
                       </use>
               </g>
        </defs>

<script type="text/javascript">
var viewWidth = 536;
var viewHeight = 320;
var sectionId = 'dynsection-0';
</script>
<script xlink:href="svgpan.js"/>
<svg id="graph" class="graph">
<g id="viewport">
<title>include/globals.hpp</title>
<polygon fill="white" stroke="white" points="-4,5 -4,-316 533,-316 533,5 -4,5"/>
<!-- Node1 -->
<g id="node1" class="node"><title>Node1</title>
<polygon fill="#bfbfbf" stroke="black" points="291,-290.5 291,-311.5 391,-311.5 391,-290.5 291,-290.5"/>
<text text-anchor="middle" x="341" y="-298.5" font-family="Helvetica,sans-Serif" font-size="10.00">include/globals.hpp</text>
</g>
<!-- Node2 -->
<g id="node3" class="node"><title>Node2</title>
<a xlink:href="actor_8hpp.html" target="_top" xlink:title="include/actor.hpp">
<polygon fill="white" stroke="black" points="183.5,-232.5 183.5,-253.5 274.5,-253.5 274.5,-232.5 183.5,-232.5"/>
<text text-anchor="middle" x="229" y="-240.5" font-family="Helvetica,sans-Serif" font-size="10.00">include/actor.hpp</text>
</a>
</g>
<!-- Node1&#45;&gt;Node2 -->
<g id="edge2" class="edge"><title>Node1&#45;&gt;Node2</title>
<path fill="none" stroke="midnightblue" d="M311.637,-285.794C292.096,-275.675 266.914,-262.634 249.51,-253.621"/>
<polygon fill="midnightblue" stroke="midnightblue" points="310.228,-289.006 320.718,-290.497 313.447,-282.79 310.228,-289.006"/>
</g>
<!-- Node4 -->
<g id="node7" class="node"><title>Node4</title>
<a xlink:href="geometry_8hpp.html" target="_top" xlink:title="include/geometry.hpp">
<polygon fill="white" stroke="black" points="211,-174.5 211,-195.5 321,-195.5 321,-174.5 211,-174.5"/>
<text text-anchor="middle" x="266" y="-182.5" font-family="Helvetica,sans-Serif" font-size="10.00">include/geometry.hpp</text>
</a>
</g>
<!-- Node1&#45;&gt;Node4 -->
<g id="edge36" class="edge"><title>Node1&#45;&gt;Node4</title>
<path fill="none" stroke="midnightblue" d="M328.571,-281.776C312.637,-257.132 285.561,-215.255 272.905,-195.679"/>
<polygon fill="midnightblue" stroke="midnightblue" points="325.71,-283.798 334.079,-290.295 331.588,-279.997 325.71,-283.798"/>
</g>
<!-- Node5 -->
<g id="node9" class="node"><title>Node5</title>
<a xlink:href="cube_8hpp.html" target="_top" xlink:title="include/cube.hpp">
<polygon fill="white" stroke="black" points="408,-116.5 408,-137.5 498,-137.5 498,-116.5 408,-116.5"/>
<text text-anchor="middle" x="453" y="-124.5" font-family="Helvetica,sans-Serif" font-size="10.00">include/cube.hpp</text>
</a>
</g>
<!-- Node1&#45;&gt;Node5 -->
<g id="edge38" class="edge"><title>Node1&#45;&gt;Node5</title>
<path fill="none" stroke="midnightblue" d="M385.289,-286.725C403.545,-279.186 423.91,-268.445 439,-254 466.545,-227.632 476.584,-211.559 470,-174 467.723,-161.009 462.157,-146.875 458.01,-137.536"/>
<polygon fill="midnightblue" stroke="midnightblue" points="384.005,-283.469 375.974,-290.378 386.561,-289.986 384.005,-283.469"/>
</g>
<!-- Node15 -->
<g id="node30" class="node"><title>Node15</title>
<a xlink:href="camera_8hpp.html" target="_top" xlink:title="include/camera.hpp">
<polygon fill="white" stroke="black" points="329.5,-232.5 329.5,-253.5 430.5,-253.5 430.5,-232.5 329.5,-232.5"/>
<text text-anchor="middle" x="380" y="-240.5" font-family="Helvetica,sans-Serif" font-size="10.00">include/camera.hpp</text>
</a>
</g>
<!-- Node1&#45;&gt;Node15 -->
<g id="edge30" class="edge"><title>Node1&#45;&gt;Node15</title>
<path fill="none" stroke="midnightblue" d="M353.803,-281.959C360.149,-272.522 367.571,-261.484 372.892,-253.571"/>
<polygon fill="midnightblue" stroke="midnightblue" points="350.829,-280.11 348.153,-290.362 356.638,-284.016 350.829,-280.11"/>
</g>
<!-- Node3 -->
<g id="node5" class="node"><title>Node3</title>
<a xlink:href="actor_8cpp.html" target="_top" xlink:title="src/actor.cpp">
<polygon fill="white" stroke="black" points="119,-174.5 119,-195.5 193,-195.5 193,-174.5 119,-174.5"/>
<text text-anchor="middle" x="156" y="-182.5" font-family="Helvetica,sans-Serif" font-size="10.00">src/actor.cpp</text>
</a>
</g>
<!-- Node2&#45;&gt;Node3 -->
<g id="edge4" class="edge"><title>Node2&#45;&gt;Node3</title>
<path fill="none" stroke="midnightblue" d="M207.572,-225.975C195.183,-216.132 179.982,-204.055 169.304,-195.571"/>
<polygon fill="midnightblue" stroke="midnightblue" points="205.604,-228.881 215.611,-232.362 209.958,-223.401 205.604,-228.881"/>
</g>
<!-- Node2&#45;&gt;Node4 -->
<g id="edge6" class="edge"><title>Node2&#45;&gt;Node4</title>
<path fill="none" stroke="midnightblue" d="M241.333,-223.667C247.312,-214.295 254.261,-203.402 259.257,-195.571"/>
<polygon fill="midnightblue" stroke="midnightblue" points="238.214,-222.049 235.786,-232.362 244.115,-225.814 238.214,-222.049"/>
</g>
<!-- Node4&#45;&gt;Node5 -->
<g id="edge8" class="edge"><title>Node4&#45;&gt;Node5</title>
<path fill="none" stroke="midnightblue" d="M309.807,-171.413C343.171,-161.065 388.434,-147.026 419.072,-137.523"/>
<polygon fill="midnightblue" stroke="midnightblue" points="308.379,-168.191 299.864,-174.497 310.452,-174.877 308.379,-168.191"/>
</g>
<!-- Node9 -->
<g id="node17" class="node"><title>Node9</title>
<a xlink:href="geometry_8cpp.html" target="_top" xlink:title="src/geometry.cpp">
<polygon fill="white" stroke="black" points="110,-116.5 110,-137.5 202,-137.5 202,-116.5 110,-116.5"/>
<text text-anchor="middle" x="156" y="-124.5" font-family="Helvetica,sans-Serif" font-size="10.00">src/geometry.cpp</text>
</a>
</g>
<!-- Node4&#45;&gt;Node9 -->
<g id="edge16" class="edge"><title>Node4&#45;&gt;Node9</title>
<path fill="none" stroke="midnightblue" d="M237.161,-169.794C217.969,-159.675 193.236,-146.634 176.144,-137.621"/>
<polygon fill="midnightblue" stroke="midnightblue" points="235.602,-172.928 246.08,-174.497 238.867,-166.736 235.602,-172.928"/>
</g>
<!-- Node10 -->
<g id="node19" class="node"><title>Node10</title>
<a xlink:href="group_8hpp.html" target="_top" xlink:title="include/group.hpp">
<polygon fill="white" stroke="black" points="-0.5,-116.5 -0.5,-137.5 92.5,-137.5 92.5,-116.5 -0.5,-116.5"/>
<text text-anchor="middle" x="46" y="-124.5" font-family="Helvetica,sans-Serif" font-size="10.00">include/group.hpp</text>
</a>
</g>
<!-- Node4&#45;&gt;Node10 -->
<g id="edge18" class="edge"><title>Node4&#45;&gt;Node10</title>
<path fill="none" stroke="midnightblue" d="M216.48,-171.945C177.052,-161.55 122.582,-147.19 85.9151,-137.523"/>
<polygon fill="midnightblue" stroke="midnightblue" points="215.598,-175.332 226.16,-174.497 217.382,-168.563 215.598,-175.332"/>
</g>
<!-- Node12 -->
<g id="node23" class="node"><title>Node12</title>
<a xlink:href="sphere_8hpp.html" target="_top" xlink:title="include/sphere.hpp">
<polygon fill="white" stroke="black" points="220,-116.5 220,-137.5 318,-137.5 318,-116.5 220,-116.5"/>
<text text-anchor="middle" x="269" y="-124.5" font-family="Helvetica,sans-Serif" font-size="10.00">include/sphere.hpp</text>
</a>
</g>
<!-- Node4&#45;&gt;Node12 -->
<g id="edge22" class="edge"><title>Node4&#45;&gt;Node12</title>
<path fill="none" stroke="midnightblue" d="M267.076,-164.191C267.543,-155.168 268.069,-144.994 268.453,-137.571"/>
<polygon fill="midnightblue" stroke="midnightblue" points="263.572,-164.194 266.55,-174.362 270.562,-164.556 263.572,-164.194"/>
</g>
<!-- Node6 -->
<g id="node11" class="node"><title>Node6</title>
<a xlink:href="cube_8cpp.html" target="_top" xlink:title="src/cube.cpp">
<polygon fill="white" stroke="black" points="455.5,-58.5 455.5,-79.5 528.5,-79.5 528.5,-58.5 455.5,-58.5"/>
<text text-anchor="middle" x="492" y="-66.5" font-family="Helvetica,sans-Serif" font-size="10.00">src/cube.cpp</text>
</a>
</g>
<!-- Node5&#45;&gt;Node6 -->
<g id="edge10" class="edge"><title>Node5&#45;&gt;Node6</title>
<path fill="none" stroke="midnightblue" d="M465.803,-107.959C472.149,-98.522 479.571,-87.4835 484.892,-79.5707"/>
<polygon fill="midnightblue" stroke="midnightblue" points="462.829,-106.11 460.153,-116.362 468.638,-110.016 462.829,-106.11"/>
</g>
<!-- Node7 -->
<g id="node13" class="node"><title>Node7</title>
<a xlink:href="viewport_8hpp.html" target="_top" xlink:title="include/viewport.hpp">
<polygon fill="white" stroke="black" points="332,-58.5 332,-79.5 438,-79.5 438,-58.5 332,-58.5"/>
<text text-anchor="middle" x="385" y="-66.5" font-family="Helvetica,sans-Serif" font-size="10.00">include/viewport.hpp</text>
</a>
</g>
<!-- Node5&#45;&gt;Node7 -->
<g id="edge12" class="edge"><title>Node5&#45;&gt;Node7</title>
<path fill="none" stroke="midnightblue" d="M432.706,-109.691C421.227,-99.8996 407.244,-87.973 397.393,-79.5707"/>
<polygon fill="midnightblue" stroke="midnightblue" points="430.648,-112.535 440.528,-116.362 435.191,-107.209 430.648,-112.535"/>
</g>
<!-- Node8 -->
<g id="node15" class="node"><title>Node8</title>
<a xlink:href="viewport_8cpp.html" target="_top" xlink:title="src/viewport.cpp">
<polygon fill="white" stroke="black" points="340.5,-0.5 340.5,-21.5 429.5,-21.5 429.5,-0.5 340.5,-0.5"/>
<text text-anchor="middle" x="385" y="-8.5" font-family="Helvetica,sans-Serif" font-size="10.00">src/viewport.cpp</text>
</a>
</g>
<!-- Node7&#45;&gt;Node8 -->
<g id="edge14" class="edge"><title>Node7&#45;&gt;Node8</title>
<path fill="none" stroke="midnightblue" d="M385,-48.1906C385,-39.1684 385,-28.9941 385,-21.5707"/>
<polygon fill="midnightblue" stroke="midnightblue" points="381.5,-48.3619 385,-58.3619 388.5,-48.3619 381.5,-48.3619"/>
</g>
<!-- Node11 -->
<g id="node21" class="node"><title>Node11</title>
<a xlink:href="group_8cpp.html" target="_top" xlink:title="src/group.cpp">
<polygon fill="white" stroke="black" points="8,-58.5 8,-79.5 84,-79.5 84,-58.5 8,-58.5"/>
<text text-anchor="middle" x="46" y="-66.5" font-family="Helvetica,sans-Serif" font-size="10.00">src/group.cpp</text>
</a>
</g>
<!-- Node10&#45;&gt;Node11 -->
<g id="edge20" class="edge"><title>Node10&#45;&gt;Node11</title>
<path fill="none" stroke="midnightblue" d="M46,-106.191C46,-97.1684 46,-86.9941 46,-79.5707"/>
<polygon fill="midnightblue" stroke="midnightblue" points="42.5001,-106.362 46,-116.362 49.5001,-106.362 42.5001,-106.362"/>
</g>
<!-- Node12&#45;&gt;Node7 -->
<g id="edge26" class="edge"><title>Node12&#45;&gt;Node7</title>
<path fill="none" stroke="midnightblue" d="M299.136,-111.932C319.414,-101.793 345.65,-88.6748 363.758,-79.6212"/>
<polygon fill="midnightblue" stroke="midnightblue" points="297.386,-108.894 290.007,-116.497 300.516,-115.155 297.386,-108.894"/>
</g>
<!-- Node13 -->
<g id="node25" class="node"><title>Node13</title>
<a xlink:href="mainwindow_8cpp.html" target="_top" xlink:title="src/mainwindow.cpp">
<polygon fill="white" stroke="black" points="208,-58.5 208,-79.5 314,-79.5 314,-58.5 208,-58.5"/>
<text text-anchor="middle" x="261" y="-66.5" font-family="Helvetica,sans-Serif" font-size="10.00">src/mainwindow.cpp</text>
</a>
</g>
<!-- Node12&#45;&gt;Node13 -->
<g id="edge24" class="edge"><title>Node12&#45;&gt;Node13</title>
<path fill="none" stroke="midnightblue" d="M266.13,-106.191C264.885,-97.1684 263.482,-86.9941 262.458,-79.5707"/>
<polygon fill="midnightblue" stroke="midnightblue" points="262.699,-106.934 267.533,-116.362 269.633,-105.977 262.699,-106.934"/>
</g>
<!-- Node14 -->
<g id="node28" class="node"><title>Node14</title>
<a xlink:href="sphere_8cpp.html" target="_top" xlink:title="src/sphere.cpp">
<polygon fill="white" stroke="black" points="109.5,-58.5 109.5,-79.5 190.5,-79.5 190.5,-58.5 109.5,-58.5"/>
<text text-anchor="middle" x="150" y="-66.5" font-family="Helvetica,sans-Serif" font-size="10.00">src/sphere.cpp</text>
</a>
</g>
<!-- Node12&#45;&gt;Node14 -->
<g id="edge28" class="edge"><title>Node12&#45;&gt;Node14</title>
<path fill="none" stroke="midnightblue" d="M238.366,-112.069C217.526,-101.912 190.451,-88.7157 171.792,-79.6212"/>
<polygon fill="midnightblue" stroke="midnightblue" points="236.927,-115.262 247.45,-116.497 239.994,-108.969 236.927,-115.262"/>
</g>
<!-- Node15&#45;&gt;Node7 -->
<g id="edge34" class="edge"><title>Node15&#45;&gt;Node7</title>
<path fill="none" stroke="midnightblue" d="M373.595,-222.551C371.348,-214.381 369.11,-204.831 368,-196 362.565,-152.739 375.417,-101.277 381.74,-79.5297"/>
<polygon fill="midnightblue" stroke="midnightblue" points="370.286,-223.708 376.458,-232.32 377.004,-221.74 370.286,-223.708"/>
</g>
<!-- Node16 -->
<g id="node32" class="node"><title>Node16</title>
<a xlink:href="camera_8cpp.html" target="_top" xlink:title="src/camera.cpp">
<polygon fill="white" stroke="black" points="377,-174.5 377,-195.5 461,-195.5 461,-174.5 377,-174.5"/>
<text text-anchor="middle" x="419" y="-182.5" font-family="Helvetica,sans-Serif" font-size="10.00">src/camera.cpp</text>
</a>
</g>
<!-- Node15&#45;&gt;Node16 -->
<g id="edge32" class="edge"><title>Node15&#45;&gt;Node16</title>
<path fill="none" stroke="midnightblue" d="M392.803,-223.959C399.149,-214.522 406.571,-203.484 411.892,-195.571"/>
<polygon fill="midnightblue" stroke="midnightblue" points="389.829,-222.11 387.153,-232.362 395.638,-226.016 389.829,-222.11"/>
</g>
</g>
</svg>
        <g id="navigator" transform="translate(0 0)" fill="#404254">
                <rect fill="#f2f5e9" fill-opacity="0.5" stroke="#606060" stroke-width=".5" x="0" y="0" width="60" height="60"/>
                <use id="zoomplus" xlink:href="#zoomPlus" x="17" y="9" onmousedown="handleZoom(evt,'in')"/>
                <use id="zoomminus" xlink:href="#zoomMin" x="42" y="9" onmousedown="handleZoom(evt,'out')"/>
                <use id="reset" xlink:href="#resetDef" x="30" y="36" onmousedown="handleReset()"/>
                <g id="arrowUp" xlink:href="#dirArrow" transform="translate(30 24)" onmousedown="handlePan(0,-1)">
                  <use xlink:href="#rim" fill="#404040">
                        <set attributeName="fill" to="#808080" begin="arrowUp.mouseover" end="arrowUp.mouseout"/>
                  </use>
                  <path fill="none" stroke="white" stroke-width="1.5" d="M0,-3.0v7 M-2.5,-0.5L0,-3.0L2.5,-0.5"/>
                </g>
                <g id="arrowRight" xlink:href="#dirArrow" transform="rotate(90) translate(36 -43)" onmousedown="handlePan(1,0)">
                  <use xlink:href="#rim" fill="#404040">
                        <set attributeName="fill" to="#808080" begin="arrowRight.mouseover" end="arrowRight.mouseout"/>
                  </use>
                  <path fill="none" stroke="white" stroke-width="1.5" d="M0,-3.0v7 M-2.5,-0.5L0,-3.0L2.5,-0.5"/>
                </g>
                <g id="arrowDown" xlink:href="#dirArrow" transform="rotate(180) translate(-30 -48)" onmousedown="handlePan(0,1)">
                  <use xlink:href="#rim" fill="#404040">
                        <set attributeName="fill" to="#808080" begin="arrowDown.mouseover" end="arrowDown.mouseout"/>
                  </use>
                  <path fill="none" stroke="white" stroke-width="1.5" d="M0,-3.0v7 M-2.5,-0.5L0,-3.0L2.5,-0.5"/>
                </g>
                <g id="arrowLeft" xlink:href="#dirArrow" transform="rotate(270) translate(-36 17)" onmousedown="handlePan(-1,0)">
                  <use xlink:href="#rim" fill="#404040">
                        <set attributeName="fill" to="#808080" begin="arrowLeft.mouseover" end="arrowLeft.mouseout"/>
                  </use>
                  <path fill="none" stroke="white" stroke-width="1.5" d="M0,-3.0v7 M-2.5,-0.5L0,-3.0L2.5,-0.5"/>
                </g>
        </g>
        <svg viewBox="0 0 15 15" width="100%" height="30px" preserveAspectRatio="xMaxYMin meet">
         <g id="arrow_out" transform="scale(0.3 0.3)">
          <a xlink:href="globals_8hpp__dep__incl_org.svg" target="_base">
           <rect id="button" ry="5" rx="5" y="6" x="6" height="38" width="38"
                fill="#f2f5e9" fill-opacity="0.5" stroke="#606060" stroke-width="1.0"/>
           <path id="arrow"
             d="M 11.500037,31.436501 C 11.940474,20.09759 22.043105,11.32322 32.158766,21.979434 L 37.068811,17.246167 C 37.068811,17.246167 37.088388,32 37.088388,32 L 22.160133,31.978069 C 22.160133,31.978069 26.997745,27.140456 26.997745,27.140456 C 18.528582,18.264221 13.291696,25.230495 11.500037,31.436501 z"
             style="fill:#404040;"/>
          </a>
         </g>
        </svg>
</svg>
