<?xml version="1.0" encoding="UTF-8" standalone="no"?>
<!DOCTYPE svg PUBLIC "-//W3C//DTD SVG 1.1//EN"
 "http://www.w3.org/Graphics/SVG/1.1/DTD/svg11.dtd">
<!-- Generated by graphviz version 2.26.3 (20100126.1600)
 -->
<!-- Title: include/globals.hpp Pages: 1 -->
<svg width="1518pt" height="320pt"
 viewBox="0.00 0.00 1518.00 320.00" xmlns="http://www.w3.org/2000/svg" xmlns:xlink="http://www.w3.org/1999/xlink">
<g id="graph1" class="graph" transform="scale(1 1) rotate(0) translate(4 316)">
<title>include/globals.hpp</title>
<polygon fill="white" stroke="white" points="-4,5 -4,-316 1515,-316 1515,5 -4,5"/>
<!-- Node1 -->
<g id="node1" class="node"><title>Node1</title>
<polygon fill="#bfbfbf" stroke="black" points="1034,-290.5 1034,-311.5 1134,-311.5 1134,-290.5 1034,-290.5"/>
<text text-anchor="middle" x="1084" y="-298.5" font-family="Helvetica,sans-Serif" font-size="10.00">include/globals.hpp</text>
</g>
<!-- Node2 -->
<g id="node3" class="node"><title>Node2</title>
<a xlink:href="actor_8hpp.html" target="_top" xlink:title="include/actor.hpp">
<polygon fill="white" stroke="black" points="965.5,-232.5 965.5,-253.5 1056.5,-253.5 1056.5,-232.5 965.5,-232.5"/>
<text text-anchor="middle" x="1011" y="-240.5" font-family="Helvetica,sans-Serif" font-size="10.00">include/actor.hpp</text>
</a>
</g>
<!-- Node1&#45;&gt;Node2 -->
<g id="edge2" class="edge"><title>Node1&#45;&gt;Node2</title>
<path fill="none" stroke="midnightblue" d="M1062.57,-283.975C1050.18,-274.132 1034.98,-262.055 1024.3,-253.571"/>
<polygon fill="midnightblue" stroke="midnightblue" points="1060.6,-286.881 1070.61,-290.362 1064.96,-281.401 1060.6,-286.881"/>
</g>
<!-- Node4 -->
<g id="node7" class="node"><title>Node4</title>
<a xlink:href="geometry_8hpp.html" target="_top" xlink:title="include/geometry.hpp">
<polygon fill="white" stroke="black" points="625,-174.5 625,-195.5 735,-195.5 735,-174.5 625,-174.5"/>
<text text-anchor="middle" x="680" y="-182.5" font-family="Helvetica,sans-Serif" font-size="10.00">include/geometry.hpp</text>
</a>
</g>
<!-- Node1&#45;&gt;Node4 -->
<g id="edge114" class="edge"><title>Node1&#45;&gt;Node4</title>
<path fill="none" stroke="midnightblue" d="M1037.12,-287.539C955.808,-264.192 790.285,-216.666 716.691,-195.535"/>
<polygon fill="midnightblue" stroke="midnightblue" points="1036.5,-291.002 1047.08,-290.398 1038.43,-284.274 1036.5,-291.002"/>
</g>
<!-- Node5 -->
<g id="node9" class="node"><title>Node5</title>
<a xlink:href="cube_8hpp.html" target="_top" xlink:title="include/cube.hpp">
<polygon fill="white" stroke="black" points="1097,-116.5 1097,-137.5 1187,-137.5 1187,-116.5 1097,-116.5"/>
<text text-anchor="middle" x="1142" y="-124.5" font-family="Helvetica,sans-Serif" font-size="10.00">include/cube.hpp</text>
</a>
</g>
<!-- Node1&#45;&gt;Node5 -->
<g id="edge122" class="edge"><title>Node1&#45;&gt;Node5</title>
<path fill="none" stroke="midnightblue" d="M1091.4,-280.836C1099.06,-259.762 1111.26,-225.692 1121,-196 1127.72,-175.537 1134.89,-151.423 1138.87,-137.802"/>
<polygon fill="midnightblue" stroke="midnightblue" points="1088.08,-279.726 1087.94,-290.32 1094.65,-282.127 1088.08,-279.726"/>
</g>
<!-- Node27 -->
<g id="node69" class="node"><title>Node27</title>
<a xlink:href="world_8hpp.html" target="_top" xlink:title="include/world.hpp">
<polygon fill="white" stroke="black" points="1020,-174.5 1020,-195.5 1112,-195.5 1112,-174.5 1020,-174.5"/>
<text text-anchor="middle" x="1066" y="-182.5" font-family="Helvetica,sans-Serif" font-size="10.00">include/world.hpp</text>
</a>
</g>
<!-- Node1&#45;&gt;Node27 -->
<g id="edge124" class="edge"><title>Node1&#45;&gt;Node27</title>
<path fill="none" stroke="midnightblue" d="M1080.76,-280.123C1076.91,-255.298 1070.63,-214.824 1067.66,-195.679"/>
<polygon fill="midnightblue" stroke="midnightblue" points="1077.35,-280.95 1082.34,-290.295 1084.26,-279.876 1077.35,-280.95"/>
</g>
<!-- Node30 -->
<g id="node84" class="node"><title>Node30</title>
<a xlink:href="camera_8hpp.html" target="_top" xlink:title="include/camera.hpp">
<polygon fill="white" stroke="black" points="1189.5,-232.5 1189.5,-253.5 1290.5,-253.5 1290.5,-232.5 1189.5,-232.5"/>
<text text-anchor="middle" x="1240" y="-240.5" font-family="Helvetica,sans-Serif" font-size="10.00">include/camera.hpp</text>
</a>
</g>
<!-- Node1&#45;&gt;Node30 -->
<g id="edge108" class="edge"><title>Node1&#45;&gt;Node30</title>
<path fill="none" stroke="midnightblue" d="M1121.63,-287.009C1149.35,-276.702 1186.47,-262.903 1211.7,-253.523"/>
<polygon fill="midnightblue" stroke="midnightblue" points="1120.4,-283.731 1112.25,-290.497 1122.84,-290.292 1120.4,-283.731"/>
</g>
<!-- Node32 -->
<g id="node90" class="node"><title>Node32</title>
<a xlink:href="material_8hpp.html" target="_top" xlink:title="include/material.hpp">
<polygon fill="white" stroke="black" points="628,-232.5 628,-253.5 732,-253.5 732,-232.5 628,-232.5"/>
<text text-anchor="middle" x="680" y="-240.5" font-family="Helvetica,sans-Serif" font-size="10.00">include/material.hpp</text>
</a>
</g>
<!-- Node1&#45;&gt;Node32 -->
<g id="edge116" class="edge"><title>Node1&#45;&gt;Node32</title>
<path fill="none" stroke="midnightblue" d="M1023.35,-292.293C944.212,-280.931 807.035,-261.238 732.266,-250.504"/>
<polygon fill="midnightblue" stroke="midnightblue" points="1023.25,-295.815 1033.65,-293.772 1024.25,-288.886 1023.25,-295.815"/>
</g>
<!-- Node34 -->
<g id="node97" class="node"><title>Node34</title>
<a xlink:href="global_8cpp.html" target="_top" xlink:title="src/global.cpp">
<polygon fill="white" stroke="black" points="1307.5,-232.5 1307.5,-253.5 1384.5,-253.5 1384.5,-232.5 1307.5,-232.5"/>
<text text-anchor="middle" x="1346" y="-240.5" font-family="Helvetica,sans-Serif" font-size="10.00">src/global.cpp</text>
</a>
</g>
<!-- Node1&#45;&gt;Node34 -->
<g id="edge126" class="edge"><title>Node1&#45;&gt;Node34</title>
<path fill="none" stroke="midnightblue" d="M1142.93,-288.362C1186.16,-279.03 1246.28,-265.932 1299,-254 1301.7,-253.39 1304.48,-252.754 1307.28,-252.109"/>
<polygon fill="midnightblue" stroke="midnightblue" points="1142.18,-284.942 1133.15,-290.471 1143.66,-291.785 1142.18,-284.942"/>
</g>
<!-- Node3 -->
<g id="node5" class="node"><title>Node3</title>
<a xlink:href="actor_8cpp.html" target="_top" xlink:title="src/actor.cpp">
<polygon fill="white" stroke="black" points="1361,-0.5 1361,-21.5 1435,-21.5 1435,-0.5 1361,-0.5"/>
<text text-anchor="middle" x="1398" y="-8.5" font-family="Helvetica,sans-Serif" font-size="10.00">src/actor.cpp</text>
</a>
</g>
<!-- Node2&#45;&gt;Node3 -->
<g id="edge4" class="edge"><title>Node2&#45;&gt;Node3</title>
<path fill="none" stroke="midnightblue" d="M1066.69,-233.828C1147.6,-217.538 1296.92,-175.789 1379,-80 1393.39,-63.2058 1396.96,-36.4073 1397.79,-21.6361"/>
<polygon fill="midnightblue" stroke="midnightblue" points="1065.84,-230.429 1056.7,-235.781 1067.18,-237.299 1065.84,-230.429"/>
</g>
<!-- Node2&#45;&gt;Node4 -->
<g id="edge6" class="edge"><title>Node2&#45;&gt;Node4</title>
<path fill="none" stroke="midnightblue" d="M955.445,-233.265C894.18,-222.53 796.211,-205.363 735.12,-194.659"/>
<polygon fill="midnightblue" stroke="midnightblue" points="954.869,-236.718 965.323,-234.996 956.078,-229.823 954.869,-236.718"/>
</g>
<!-- Node2&#45;&gt;Node27 -->
<g id="edge84" class="edge"><title>Node2&#45;&gt;Node27</title>
<path fill="none" stroke="midnightblue" d="M1028.23,-224.83C1037.35,-215.208 1048.24,-203.728 1055.98,-195.571"/>
<polygon fill="midnightblue" stroke="midnightblue" points="1025.43,-222.697 1021.09,-232.362 1030.51,-227.514 1025.43,-222.697"/>
</g>
<!-- Node28 -->
<g id="node73" class="node"><title>Node28</title>
<a xlink:href="light_8hpp.html" target="_top" xlink:title="include/light.hpp">
<polygon fill="white" stroke="black" points="945.5,-116.5 945.5,-137.5 1032.5,-137.5 1032.5,-116.5 945.5,-116.5"/>
<text text-anchor="middle" x="989" y="-124.5" font-family="Helvetica,sans-Serif" font-size="10.00">include/light.hpp</text>
</a>
</g>
<!-- Node2&#45;&gt;Node28 -->
<g id="edge90" class="edge"><title>Node2&#45;&gt;Node28</title>
<path fill="none" stroke="midnightblue" d="M1007.1,-222.458C1002.4,-197.663 994.673,-156.91 991.025,-137.679"/>
<polygon fill="midnightblue" stroke="midnightblue" points="1003.67,-223.122 1008.97,-232.295 1010.55,-221.818 1003.67,-223.122"/>
</g>
<!-- Node4&#45;&gt;Node5 -->
<g id="edge8" class="edge"><title>Node4&#45;&gt;Node5</title>
<path fill="none" stroke="midnightblue" d="M745.338,-176.797C840.407,-164.862 1014.47,-143.011 1096.69,-132.688"/>
<polygon fill="midnightblue" stroke="midnightblue" points="744.755,-173.343 735.269,-178.061 745.627,-180.288 744.755,-173.343"/>
</g>
<!-- Node8 -->
<g id="node16" class="node"><title>Node8</title>
<a xlink:href="geometry_8cpp.html" target="_top" xlink:title="src/geometry.cpp">
<polygon fill="white" stroke="black" points="845,-0.5 845,-21.5 937,-21.5 937,-0.5 845,-0.5"/>
<text text-anchor="middle" x="891" y="-8.5" font-family="Helvetica,sans-Serif" font-size="10.00">src/geometry.cpp</text>
</a>
</g>
<!-- Node4&#45;&gt;Node8 -->
<g id="edge48" class="edge"><title>Node4&#45;&gt;Node8</title>
<path fill="none" stroke="midnightblue" d="M676.647,-163.932C673.488,-136.021 672.587,-86.9498 699,-58 718.371,-36.7683 794.59,-23.1993 844.972,-16.3551"/>
<polygon fill="midnightblue" stroke="midnightblue" points="673.22,-164.709 678.016,-174.156 680.158,-163.78 673.22,-164.709"/>
</g>
<!-- Node15 -->
<g id="node30" class="node"><title>Node15</title>
<a xlink:href="sphere_8hpp.html" target="_top" xlink:title="include/sphere.hpp">
<polygon fill="white" stroke="black" points="708,-116.5 708,-137.5 806,-137.5 806,-116.5 708,-116.5"/>
<text text-anchor="middle" x="757" y="-124.5" font-family="Helvetica,sans-Serif" font-size="10.00">include/sphere.hpp</text>
</a>
</g>
<!-- Node4&#45;&gt;Node15 -->
<g id="edge30" class="edge"><title>Node4&#45;&gt;Node15</title>
<path fill="none" stroke="midnightblue" d="M702.226,-168.259C715.361,-158.364 731.595,-146.136 742.967,-137.571"/>
<polygon fill="midnightblue" stroke="midnightblue" points="700.005,-165.55 694.123,-174.362 704.216,-171.141 700.005,-165.55"/>
</g>
<!-- Node18 -->
<g id="node38" class="node"><title>Node18</title>
<a xlink:href="cylinder_8hpp.html" target="_top" xlink:title="include/cylinder.hpp">
<polygon fill="white" stroke="black" points="-0.5,-58.5 -0.5,-79.5 102.5,-79.5 102.5,-58.5 -0.5,-58.5"/>
<text text-anchor="middle" x="51" y="-66.5" font-family="Helvetica,sans-Serif" font-size="10.00">include/cylinder.hpp</text>
</a>
</g>
<!-- Node4&#45;&gt;Node18 -->
<g id="edge40" class="edge"><title>Node4&#45;&gt;Node18</title>
<path fill="none" stroke="midnightblue" d="M614.622,-173.879C474.709,-154.542 436.092,-164.197 301,-138 221.436,-122.571 130.163,-94.7264 82.9816,-79.5536"/>
<polygon fill="midnightblue" stroke="midnightblue" points="614.483,-177.394 624.873,-175.322 615.459,-170.462 614.483,-177.394"/>
</g>
<!-- Node20 -->
<g id="node45" class="node"><title>Node20</title>
<a xlink:href="group_8hpp.html" target="_top" xlink:title="include/group.hpp">
<polygon fill="white" stroke="black" points="443.5,-116.5 443.5,-137.5 536.5,-137.5 536.5,-116.5 443.5,-116.5"/>
<text text-anchor="middle" x="490" y="-124.5" font-family="Helvetica,sans-Serif" font-size="10.00">include/group.hpp</text>
</a>
</g>
<!-- Node4&#45;&gt;Node20 -->
<g id="edge50" class="edge"><title>Node4&#45;&gt;Node20</title>
<path fill="none" stroke="midnightblue" d="M635.928,-171.546C601.988,-161.186 555.736,-147.067 524.472,-137.523"/>
<polygon fill="midnightblue" stroke="midnightblue" points="635.006,-174.924 645.592,-174.497 637.05,-168.229 635.006,-174.924"/>
</g>
<!-- Node22 -->
<g id="node52" class="node"><title>Node22</title>
<a xlink:href="line_8hpp.html" target="_top" xlink:title="include/line.hpp">
<polygon fill="white" stroke="black" points="246,-58.5 246,-79.5 330,-79.5 330,-58.5 246,-58.5"/>
<text text-anchor="middle" x="288" y="-66.5" font-family="Helvetica,sans-Serif" font-size="10.00">include/line.hpp</text>
</a>
</g>
<!-- Node4&#45;&gt;Node22 -->
<g id="edge60" class="edge"><title>Node4&#45;&gt;Node22</title>
<path fill="none" stroke="midnightblue" d="M614.744,-173.348C548.055,-161.301 451.92,-143.498 435,-138 387.006,-122.404 334.259,-94.8834 306.871,-79.739"/>
<polygon fill="midnightblue" stroke="midnightblue" points="614.305,-176.825 624.767,-175.156 615.547,-169.937 614.305,-176.825"/>
</g>
<!-- Node24 -->
<g id="node58" class="node"><title>Node24</title>
<a xlink:href="pyramide_8hpp.html" target="_top" xlink:title="include/pyramide.hpp">
<polygon fill="white" stroke="black" points="119.5,-58.5 119.5,-79.5 228.5,-79.5 228.5,-58.5 119.5,-58.5"/>
<text text-anchor="middle" x="174" y="-66.5" font-family="Helvetica,sans-Serif" font-size="10.00">include/pyramide.hpp</text>
</a>
</g>
<!-- Node4&#45;&gt;Node24 -->
<g id="edge68" class="edge"><title>Node4&#45;&gt;Node24</title>
<path fill="none" stroke="midnightblue" d="M614.69,-173.835C508.598,-157.291 478.815,-162.472 378,-138 312.783,-122.169 238.728,-94.6151 200.292,-79.5612"/>
<polygon fill="midnightblue" stroke="midnightblue" points="614.428,-177.337 624.854,-175.449 615.527,-170.424 614.428,-177.337"/>
</g>
<!-- Node26 -->
<g id="node64" class="node"><title>Node26</title>
<a xlink:href="trigger_8hpp.html" target="_top" xlink:title="include/trigger.hpp">
<polygon fill="white" stroke="black" points="556,-58.5 556,-79.5 652,-79.5 652,-58.5 556,-58.5"/>
<text text-anchor="middle" x="604" y="-66.5" font-family="Helvetica,sans-Serif" font-size="10.00">include/trigger.hpp</text>
</a>
</g>
<!-- Node4&#45;&gt;Node26 -->
<g id="edge76" class="edge"><title>Node4&#45;&gt;Node26</title>
<path fill="none" stroke="midnightblue" d="M667.405,-165.776C651.259,-141.132 623.822,-99.2547 610.997,-79.6792"/>
<polygon fill="midnightblue" stroke="midnightblue" points="664.578,-167.848 672.986,-174.295 670.434,-164.012 664.578,-167.848"/>
</g>
<!-- Node6 -->
<g id="node11" class="node"><title>Node6</title>
<a xlink:href="viewport_8hpp.html" target="_top" xlink:title="include/viewport.hpp">
<polygon fill="white" stroke="black" points="1264,-58.5 1264,-79.5 1370,-79.5 1370,-58.5 1264,-58.5"/>
<text text-anchor="middle" x="1317" y="-66.5" font-family="Helvetica,sans-Serif" font-size="10.00">include/viewport.hpp</text>
</a>
</g>
<!-- Node5&#45;&gt;Node6 -->
<g id="edge10" class="edge"><title>Node5&#45;&gt;Node6</title>
<path fill="none" stroke="midnightblue" d="M1183.4,-113.279C1214.58,-102.944 1256.7,-88.9849 1285.25,-79.5231"/>
<polygon fill="midnightblue" stroke="midnightblue" points="1182.08,-110.028 1173.69,-116.497 1184.28,-116.673 1182.08,-110.028"/>
</g>
<!-- Node12 -->
<g id="node24" class="node"><title>Node12</title>
<a xlink:href="cube_8cpp.html" target="_top" xlink:title="src/cube.cpp">
<polygon fill="white" stroke="black" points="1173.5,-58.5 1173.5,-79.5 1246.5,-79.5 1246.5,-58.5 1173.5,-58.5"/>
<text text-anchor="middle" x="1210" y="-66.5" font-family="Helvetica,sans-Serif" font-size="10.00">src/cube.cpp</text>
</a>
</g>
<!-- Node5&#45;&gt;Node12 -->
<g id="edge24" class="edge"><title>Node5&#45;&gt;Node12</title>
<path fill="none" stroke="midnightblue" d="M1162.29,-109.691C1173.77,-99.8996 1187.76,-87.973 1197.61,-79.5707"/>
<polygon fill="midnightblue" stroke="midnightblue" points="1159.81,-107.209 1154.47,-116.362 1164.35,-112.535 1159.81,-107.209"/>
</g>
<!-- Node13 -->
<g id="node26" class="node"><title>Node13</title>
<a xlink:href="trigger_8cpp.html" target="_top" xlink:title="src/trigger.cpp">
<polygon fill="white" stroke="black" points="699.5,-0.5 699.5,-21.5 778.5,-21.5 778.5,-0.5 699.5,-0.5"/>
<text text-anchor="middle" x="739" y="-8.5" font-family="Helvetica,sans-Serif" font-size="10.00">src/trigger.cpp</text>
</a>
</g>
<!-- Node5&#45;&gt;Node13 -->
<g id="edge26" class="edge"><title>Node5&#45;&gt;Node13</title>
<path fill="none" stroke="midnightblue" d="M1131.4,-107.818C1121.41,-91.6929 1104.85,-69.4896 1084,-58 1070.73,-50.6889 866.621,-25.9998 778.744,-15.6384"/>
<polygon fill="midnightblue" stroke="midnightblue" points="1128.42,-109.648 1136.52,-116.482 1134.45,-106.091 1128.42,-109.648"/>
</g>
<!-- Node14 -->
<g id="node28" class="node"><title>Node14</title>
<a xlink:href="world_8cpp.html" target="_top" xlink:title="src/world.cpp">
<polygon fill="white" stroke="black" points="805.5,-58.5 805.5,-79.5 880.5,-79.5 880.5,-58.5 805.5,-58.5"/>
<text text-anchor="middle" x="843" y="-66.5" font-family="Helvetica,sans-Serif" font-size="10.00">src/world.cpp</text>
</a>
</g>
<!-- Node5&#45;&gt;Node14 -->
<g id="edge28" class="edge"><title>Node5&#45;&gt;Node14</title>
<path fill="none" stroke="midnightblue" d="M1086.88,-116.307C1027,-104.691 932.933,-86.4452 880.861,-76.3442"/>
<polygon fill="midnightblue" stroke="midnightblue" points="1086.43,-119.786 1096.91,-118.254 1087.76,-112.914 1086.43,-119.786"/>
</g>
<!-- Node6&#45;&gt;Node3 -->
<g id="edge12" class="edge"><title>Node6&#45;&gt;Node3</title>
<path fill="none" stroke="midnightblue" d="M1340.38,-52.2587C1354.2,-42.3641 1371.28,-30.1361 1383.24,-21.5707"/>
<polygon fill="midnightblue" stroke="midnightblue" points="1337.95,-49.6943 1331.86,-58.3619 1342.02,-55.3857 1337.95,-49.6943"/>
</g>
<!-- Node7 -->
<g id="node14" class="node"><title>Node7</title>
<a xlink:href="fileloader_8cpp.html" target="_top" xlink:title="src/fileloader.cpp">
<polygon fill="white" stroke="black" points="1252.5,-0.5 1252.5,-21.5 1343.5,-21.5 1343.5,-0.5 1252.5,-0.5"/>
<text text-anchor="middle" x="1298" y="-8.5" font-family="Helvetica,sans-Serif" font-size="10.00">src/fileloader.cpp</text>
</a>
</g>
<!-- Node6&#45;&gt;Node7 -->
<g id="edge14" class="edge"><title>Node6&#45;&gt;Node7</title>
<path fill="none" stroke="midnightblue" d="M1310.38,-48.7838C1307.37,-39.617 1303.95,-29.1572 1301.46,-21.5707"/>
<polygon fill="midnightblue" stroke="midnightblue" points="1307.08,-49.9484 1313.52,-58.3619 1313.73,-47.7692 1307.08,-49.9484"/>
</g>
<!-- Node6&#45;&gt;Node8 -->
<g id="edge16" class="edge"><title>Node6&#45;&gt;Node8</title>
<path fill="none" stroke="midnightblue" d="M1253.83,-57.8773C1127.08,-38.8296 1093.35,-38.3774 970,-22 959.43,-20.5966 948.072,-19.0423 937.355,-17.5548"/>
<polygon fill="midnightblue" stroke="midnightblue" points="1253.52,-61.3699 1263.93,-59.4045 1254.56,-54.4486 1253.52,-61.3699"/>
</g>
<!-- Node9 -->
<g id="node18" class="node"><title>Node9</title>
<a xlink:href="light_8cpp.html" target="_top" xlink:title="src/light.cpp">
<polygon fill="white" stroke="black" points="1119,-0.5 1119,-21.5 1189,-21.5 1189,-0.5 1119,-0.5"/>
<text text-anchor="middle" x="1154" y="-8.5" font-family="Helvetica,sans-Serif" font-size="10.00">src/light.cpp</text>
</a>
</g>
<!-- Node6&#45;&gt;Node9 -->
<g id="edge18" class="edge"><title>Node6&#45;&gt;Node9</title>
<path fill="none" stroke="midnightblue" d="M1277.68,-55.0095C1248.72,-44.7023 1209.93,-30.903 1183.57,-21.5231"/>
<polygon fill="midnightblue" stroke="midnightblue" points="1276.89,-58.4417 1287.48,-58.4966 1279.23,-51.8467 1276.89,-58.4417"/>
</g>
<!-- Node10 -->
<g id="node20" class="node"><title>Node10</title>
<a xlink:href="spotlight_8cpp.html" target="_top" xlink:title="src/spotlight.cpp">
<polygon fill="white" stroke="black" points="978.5,-0.5 978.5,-21.5 1067.5,-21.5 1067.5,-0.5 978.5,-0.5"/>
<text text-anchor="middle" x="1023" y="-8.5" font-family="Helvetica,sans-Serif" font-size="10.00">src/spotlight.cpp</text>
</a>
</g>
<!-- Node6&#45;&gt;Node10 -->
<g id="edge20" class="edge"><title>Node6&#45;&gt;Node10</title>
<path fill="none" stroke="midnightblue" d="M1253.94,-56.5592C1197.88,-45.4998 1117.32,-29.608 1067.67,-19.8131"/>
<polygon fill="midnightblue" stroke="midnightblue" points="1253.27,-59.9949 1263.76,-58.4966 1254.63,-53.1273 1253.27,-59.9949"/>
</g>
<!-- Node11 -->
<g id="node22" class="node"><title>Node11</title>
<a xlink:href="viewport_8cpp.html" target="_top" xlink:title="src/viewport.cpp">
<polygon fill="white" stroke="black" points="534.5,-0.5 534.5,-21.5 623.5,-21.5 623.5,-0.5 534.5,-0.5"/>
<text text-anchor="middle" x="579" y="-8.5" font-family="Helvetica,sans-Serif" font-size="10.00">src/viewport.cpp</text>
</a>
</g>
<!-- Node6&#45;&gt;Node11 -->
<g id="edge22" class="edge"><title>Node6&#45;&gt;Node11</title>
<path fill="none" stroke="midnightblue" d="M1253.84,-57.9777C1003.89,-28.384 938.056,-42.0111 691,-22 668.799,-20.2018 644.161,-17.8238 623.659,-15.7389"/>
<polygon fill="midnightblue" stroke="midnightblue" points="1253.61,-61.4754 1263.96,-59.1872 1254.44,-54.5249 1253.61,-61.4754"/>
</g>
<!-- Node15&#45;&gt;Node6 -->
<g id="edge32" class="edge"><title>Node15&#45;&gt;Node6</title>
<path fill="none" stroke="midnightblue" d="M816.397,-122.967C909.942,-116.263 1097.2,-101.409 1255,-80 1257.92,-79.6032 1260.92,-79.1677 1263.94,-78.7062"/>
<polygon fill="midnightblue" stroke="midnightblue" points="816.005,-119.486 806.278,-123.687 816.501,-126.469 816.005,-119.486"/>
</g>
<!-- Node15&#45;&gt;Node14 -->
<g id="edge38" class="edge"><title>Node15&#45;&gt;Node14</title>
<path fill="none" stroke="midnightblue" d="M781.405,-110.541C796.149,-100.597 814.505,-88.2177 827.326,-79.5707"/>
<polygon fill="midnightblue" stroke="midnightblue" points="779.107,-107.869 772.774,-116.362 783.021,-113.672 779.107,-107.869"/>
</g>
<!-- Node16 -->
<g id="node33" class="node"><title>Node16</title>
<a xlink:href="mainwindow_8cpp.html" target="_top" xlink:title="src/mainwindow.cpp">
<polygon fill="white" stroke="black" points="387,-0.5 387,-21.5 493,-21.5 493,-0.5 387,-0.5"/>
<text text-anchor="middle" x="440" y="-8.5" font-family="Helvetica,sans-Serif" font-size="10.00">src/mainwindow.cpp</text>
</a>
</g>
<!-- Node15&#45;&gt;Node16 -->
<g id="edge34" class="edge"><title>Node15&#45;&gt;Node16</title>
<path fill="none" stroke="midnightblue" d="M697.947,-119.476C654.9,-112.645 595.814,-100.435 547,-80 510.299,-64.6358 472.31,-36.7649 452.988,-21.5708"/>
<polygon fill="midnightblue" stroke="midnightblue" points="697.562,-122.958 707.977,-121.017 698.624,-116.039 697.562,-122.958"/>
</g>
<!-- Node17 -->
<g id="node35" class="node"><title>Node17</title>
<a xlink:href="sphere_8cpp.html" target="_top" xlink:title="src/sphere.cpp">
<polygon fill="white" stroke="black" points="707.5,-58.5 707.5,-79.5 788.5,-79.5 788.5,-58.5 707.5,-58.5"/>
<text text-anchor="middle" x="748" y="-66.5" font-family="Helvetica,sans-Serif" font-size="10.00">src/sphere.cpp</text>
</a>
</g>
<!-- Node15&#45;&gt;Node17 -->
<g id="edge36" class="edge"><title>Node15&#45;&gt;Node17</title>
<path fill="none" stroke="midnightblue" d="M753.771,-106.191C752.371,-97.1684 750.792,-86.9941 749.64,-79.5707"/>
<polygon fill="midnightblue" stroke="midnightblue" points="750.357,-107.017 755.349,-116.362 757.274,-105.943 750.357,-107.017"/>
</g>
<!-- Node18&#45;&gt;Node11 -->
<g id="edge46" class="edge"><title>Node18&#45;&gt;Node11</title>
<path fill="none" stroke="midnightblue" d="M112.612,-57.8682C285.594,-34.5324 331.893,-41.9688 502,-22 512.461,-20.772 523.696,-19.2711 534.261,-17.7776"/>
<polygon fill="midnightblue" stroke="midnightblue" points="112.099,-54.4057 102.663,-59.2251 113.045,-61.3415 112.099,-54.4057"/>
</g>
<!-- Node18&#45;&gt;Node16 -->
<g id="edge44" class="edge"><title>Node18&#45;&gt;Node16</title>
<path fill="none" stroke="midnightblue" d="M112.592,-57.7808C215.152,-41.2031 323.827,-26.3082 386.909,-17.929"/>
<polygon fill="midnightblue" stroke="midnightblue" points="111.997,-54.3315 102.688,-59.3902 113.12,-61.2409 111.997,-54.3315"/>
</g>
<!-- Node19 -->
<g id="node40" class="node"><title>Node19</title>
<a xlink:href="cylinder_8cpp.html" target="_top" xlink:title="src/cylinder.cpp">
<polygon fill="white" stroke="black" points="8,-0.5 8,-21.5 94,-21.5 94,-0.5 8,-0.5"/>
<text text-anchor="middle" x="51" y="-8.5" font-family="Helvetica,sans-Serif" font-size="10.00">src/cylinder.cpp</text>
</a>
</g>
<!-- Node18&#45;&gt;Node19 -->
<g id="edge42" class="edge"><title>Node18&#45;&gt;Node19</title>
<path fill="none" stroke="midnightblue" d="M51,-48.1906C51,-39.1684 51,-28.9941 51,-21.5707"/>
<polygon fill="midnightblue" stroke="midnightblue" points="47.5001,-48.3619 51,-58.3619 54.5001,-48.3619 47.5001,-48.3619"/>
</g>
<!-- Node20&#45;&gt;Node11 -->
<g id="edge56" class="edge"><title>Node20&#45;&gt;Node11</title>
<path fill="none" stroke="midnightblue" d="M504.5,-108.101C523.374,-83.5018 555.721,-41.3409 570.806,-21.6792"/>
<polygon fill="midnightblue" stroke="midnightblue" points="501.524,-106.231 498.213,-116.295 507.077,-110.492 501.524,-106.231"/>
</g>
<!-- Node20&#45;&gt;Node14 -->
<g id="edge58" class="edge"><title>Node20&#45;&gt;Node14</title>
<path fill="none" stroke="midnightblue" d="M546.698,-119.752C608.492,-111.519 710.159,-97.0003 797,-80 799.74,-79.4636 802.563,-78.8757 805.4,-78.2594"/>
<polygon fill="midnightblue" stroke="midnightblue" points="546.212,-116.286 536.758,-121.068 547.13,-123.225 546.212,-116.286"/>
</g>
<!-- Node20&#45;&gt;Node16 -->
<g id="edge54" class="edge"><title>Node20&#45;&gt;Node16</title>
<path fill="none" stroke="midnightblue" d="M433.627,-117.332C412.177,-110.611 389.833,-99.2362 377,-80 361.786,-57.195 394.115,-34.4291 417.846,-21.5892"/>
<polygon fill="midnightblue" stroke="midnightblue" points="432.806,-120.738 443.381,-120.105 434.719,-114.004 432.806,-120.738"/>
</g>
<!-- Node21 -->
<g id="node47" class="node"><title>Node21</title>
<a xlink:href="group_8cpp.html" target="_top" xlink:title="src/group.cpp">
<polygon fill="white" stroke="black" points="386,-58.5 386,-79.5 462,-79.5 462,-58.5 386,-58.5"/>
<text text-anchor="middle" x="424" y="-66.5" font-family="Helvetica,sans-Serif" font-size="10.00">src/group.cpp</text>
</a>
</g>
<!-- Node20&#45;&gt;Node21 -->
<g id="edge52" class="edge"><title>Node20&#45;&gt;Node21</title>
<path fill="none" stroke="midnightblue" d="M470.303,-109.691C459.162,-99.8996 445.59,-87.973 436.029,-79.5707"/>
<polygon fill="midnightblue" stroke="midnightblue" points="468.072,-112.39 477.895,-116.362 472.693,-107.132 468.072,-112.39"/>
</g>
<!-- Node22&#45;&gt;Node11 -->
<g id="edge66" class="edge"><title>Node22&#45;&gt;Node11</title>
<path fill="none" stroke="midnightblue" d="M339.943,-58.647C395.209,-47.6319 481.743,-30.3845 534.141,-19.941"/>
<polygon fill="midnightblue" stroke="midnightblue" points="339.126,-55.241 330.003,-60.6282 340.494,-62.106 339.126,-55.241"/>
</g>
<!-- Node22&#45;&gt;Node16 -->
<g id="edge64" class="edge"><title>Node22&#45;&gt;Node16</title>
<path fill="none" stroke="midnightblue" d="M325.019,-54.8742C351.992,-44.5819 387.948,-30.862 412.422,-21.5231"/>
<polygon fill="midnightblue" stroke="midnightblue" points="323.621,-51.6615 315.526,-58.4966 326.117,-58.2015 323.621,-51.6615"/>
</g>
<!-- Node23 -->
<g id="node54" class="node"><title>Node23</title>
<a xlink:href="line_8cpp.html" target="_top" xlink:title="src/line.cpp">
<polygon fill="white" stroke="black" points="254.5,-0.5 254.5,-21.5 321.5,-21.5 321.5,-0.5 254.5,-0.5"/>
<text text-anchor="middle" x="288" y="-8.5" font-family="Helvetica,sans-Serif" font-size="10.00">src/line.cpp</text>
</a>
</g>
<!-- Node22&#45;&gt;Node23 -->
<g id="edge62" class="edge"><title>Node22&#45;&gt;Node23</title>
<path fill="none" stroke="midnightblue" d="M288,-48.1906C288,-39.1684 288,-28.9941 288,-21.5707"/>
<polygon fill="midnightblue" stroke="midnightblue" points="284.5,-48.3619 288,-58.3619 291.5,-48.3619 284.5,-48.3619"/>
</g>
<!-- Node24&#45;&gt;Node11 -->
<g id="edge74" class="edge"><title>Node24&#45;&gt;Node11</title>
<path fill="none" stroke="midnightblue" d="M238.726,-57.7695C356.151,-39.6886 387.497,-37.9562 502,-22 512.432,-20.5463 523.655,-18.9572 534.219,-17.4503"/>
<polygon fill="midnightblue" stroke="midnightblue" points="237.962,-54.346 228.615,-59.3339 239.032,-61.2637 237.962,-54.346"/>
</g>
<!-- Node24&#45;&gt;Node16 -->
<g id="edge70" class="edge"><title>Node24&#45;&gt;Node16</title>
<path fill="none" stroke="midnightblue" d="M232.065,-56.3391C279.868,-45.9159 346.842,-31.3126 391.739,-21.5231"/>
<polygon fill="midnightblue" stroke="midnightblue" points="231.195,-52.9465 222.171,-58.4966 232.687,-59.7858 231.195,-52.9465"/>
</g>
<!-- Node25 -->
<g id="node61" class="node"><title>Node25</title>
<a xlink:href="pyramide_8cpp.html" target="_top" xlink:title="src/pyramide.cpp">
<polygon fill="white" stroke="black" points="128,-0.5 128,-21.5 220,-21.5 220,-0.5 128,-0.5"/>
<text text-anchor="middle" x="174" y="-8.5" font-family="Helvetica,sans-Serif" font-size="10.00">src/pyramide.cpp</text>
</a>
</g>
<!-- Node24&#45;&gt;Node25 -->
<g id="edge72" class="edge"><title>Node24&#45;&gt;Node25</title>
<path fill="none" stroke="midnightblue" d="M174,-48.1906C174,-39.1684 174,-28.9941 174,-21.5707"/>
<polygon fill="midnightblue" stroke="midnightblue" points="170.5,-48.3619 174,-58.3619 177.5,-48.3619 170.5,-48.3619"/>
</g>
<!-- Node26&#45;&gt;Node11 -->
<g id="edge82" class="edge"><title>Node26&#45;&gt;Node11</title>
<path fill="none" stroke="midnightblue" d="M595.413,-49.079C591.432,-39.8422 586.862,-29.2388 583.556,-21.5707"/>
<polygon fill="midnightblue" stroke="midnightblue" points="592.242,-50.5641 599.415,-58.3619 598.67,-47.7932 592.242,-50.5641"/>
</g>
<!-- Node26&#45;&gt;Node13 -->
<g id="edge80" class="edge"><title>Node26&#45;&gt;Node13</title>
<path fill="none" stroke="midnightblue" d="M637.798,-54.4794C661.562,-44.2695 692.824,-30.8386 714.278,-21.6212"/>
<polygon fill="midnightblue" stroke="midnightblue" points="636.254,-51.3334 628.447,-58.4966 639.017,-57.7649 636.254,-51.3334"/>
</g>
<!-- Node26&#45;&gt;Node16 -->
<g id="edge78" class="edge"><title>Node26&#45;&gt;Node16</title>
<path fill="none" stroke="midnightblue" d="M564.822,-55.1443C535.637,-44.8229 496.393,-30.9439 469.755,-21.5231"/>
<polygon fill="midnightblue" stroke="midnightblue" points="563.706,-58.4621 574.301,-58.4966 566.04,-51.8626 563.706,-58.4621"/>
</g>
<!-- Node27&#45;&gt;Node6 -->
<g id="edge86" class="edge"><title>Node27&#45;&gt;Node6</title>
<path fill="none" stroke="midnightblue" d="M1109.81,-171.248C1135.38,-162.71 1168.01,-150.923 1196,-138 1234.86,-120.056 1277.83,-93.9403 1300.65,-79.5308"/>
<polygon fill="midnightblue" stroke="midnightblue" points="1108.44,-168.017 1100.03,-174.471 1110.63,-174.666 1108.44,-168.017"/>
</g>
<!-- Node27&#45;&gt;Node14 -->
<g id="edge88" class="edge"><title>Node27&#45;&gt;Node14</title>
<path fill="none" stroke="midnightblue" d="M1019.02,-171.441C993.937,-163.332 962.975,-151.898 937,-138 905.228,-121 872.194,-94.2818 855.013,-79.5787"/>
<polygon fill="midnightblue" stroke="midnightblue" points="1018.08,-174.815 1028.67,-174.492 1020.19,-168.14 1018.08,-174.815"/>
</g>
<!-- Node28&#45;&gt;Node9 -->
<g id="edge92" class="edge"><title>Node28&#45;&gt;Node9</title>
<path fill="none" stroke="midnightblue" d="M1025.3,-112.333C1043.68,-104.107 1065.88,-92.9072 1084,-80 1108.46,-62.5786 1132.38,-36.4984 1144.93,-21.8995"/>
<polygon fill="midnightblue" stroke="midnightblue" points="1023.84,-109.15 1016.08,-116.357 1026.64,-115.566 1023.84,-109.15"/>
</g>
<!-- Node28&#45;&gt;Node11 -->
<g id="edge104" class="edge"><title>Node28&#45;&gt;Node11</title>
<path fill="none" stroke="midnightblue" d="M1019.19,-111.275C1042.25,-97.2695 1067.51,-76.2334 1051,-58 1050.55,-57.5058 741.479,-27.0078 623.781,-15.4103"/>
<polygon fill="midnightblue" stroke="midnightblue" points="1017.13,-108.422 1010.22,-116.457 1020.63,-114.483 1017.13,-108.422"/>
</g>
<!-- Node28&#45;&gt;Node14 -->
<g id="edge106" class="edge"><title>Node28&#45;&gt;Node14</title>
<path fill="none" stroke="midnightblue" d="M953.132,-112.751C927.349,-102.509 893.145,-88.9206 869.736,-79.6212"/>
<polygon fill="midnightblue" stroke="midnightblue" points="951.975,-116.057 962.561,-116.497 954.559,-109.552 951.975,-116.057"/>
</g>
<!-- Node28&#45;&gt;Node16 -->
<g id="edge94" class="edge"><title>Node28&#45;&gt;Node16</title>
<path fill="none" stroke="midnightblue" d="M967.329,-110.122C943.25,-91.7229 905.579,-64.0786 889,-58 736.783,-2.19207 687.09,-40.2865 526,-22 515.381,-20.7946 504.037,-19.4117 493.188,-18.0425"/>
<polygon fill="midnightblue" stroke="midnightblue" points="965.462,-113.102 975.522,-116.426 969.731,-107.554 965.462,-113.102"/>
</g>
<!-- Node29 -->
<g id="node77" class="node"><title>Node29</title>
<a xlink:href="spotlight_8hpp.html" target="_top" xlink:title="include/spotlight.hpp">
<polygon fill="white" stroke="black" points="936,-58.5 936,-79.5 1042,-79.5 1042,-58.5 936,-58.5"/>
<text text-anchor="middle" x="989" y="-66.5" font-family="Helvetica,sans-Serif" font-size="10.00">include/spotlight.hpp</text>
</a>
</g>
<!-- Node28&#45;&gt;Node29 -->
<g id="edge96" class="edge"><title>Node28&#45;&gt;Node29</title>
<path fill="none" stroke="midnightblue" d="M989,-106.191C989,-97.1684 989,-86.9941 989,-79.5707"/>
<polygon fill="midnightblue" stroke="midnightblue" points="985.5,-106.362 989,-116.362 992.5,-106.362 985.5,-106.362"/>
</g>
<!-- Node29&#45;&gt;Node10 -->
<g id="edge100" class="edge"><title>Node29&#45;&gt;Node10</title>
<path fill="none" stroke="midnightblue" d="M1000.33,-49.6667C1005.83,-40.2948 1012.21,-29.4019 1016.8,-21.5707"/>
<polygon fill="midnightblue" stroke="midnightblue" points="997.274,-47.9649 995.236,-58.3619 1003.31,-51.5049 997.274,-47.9649"/>
</g>
<!-- Node29&#45;&gt;Node11 -->
<g id="edge102" class="edge"><title>Node29&#45;&gt;Node11</title>
<path fill="none" stroke="midnightblue" d="M925.872,-58.588C924.571,-58.3887 923.279,-58.1925 922,-58 815.165,-41.9133 689.255,-25.2455 623.728,-16.7436"/>
<polygon fill="midnightblue" stroke="midnightblue" points="925.571,-62.0831 935.99,-60.1636 926.648,-55.1665 925.571,-62.0831"/>
</g>
<!-- Node29&#45;&gt;Node16 -->
<g id="edge98" class="edge"><title>Node29&#45;&gt;Node16</title>
<path fill="none" stroke="midnightblue" d="M925.36,-58.4379C924.232,-58.2876 923.111,-58.1415 922,-58 746.691,-35.6698 701.678,-41.2141 526,-22 515.376,-20.8381 504.03,-19.4745 493.18,-18.1106"/>
<polygon fill="midnightblue" stroke="midnightblue" points="925.267,-61.9592 935.657,-59.8864 926.242,-55.0275 925.267,-61.9592"/>
</g>
<!-- Node30&#45;&gt;Node6 -->
<g id="edge110" class="edge"><title>Node30&#45;&gt;Node6</title>
<path fill="none" stroke="midnightblue" d="M1248.78,-223.153C1265.07,-186.338 1299.47,-108.606 1312.16,-79.9277"/>
<polygon fill="midnightblue" stroke="midnightblue" points="1245.55,-221.816 1244.7,-232.377 1251.95,-224.649 1245.55,-221.816"/>
</g>
<!-- Node31 -->
<g id="node87" class="node"><title>Node31</title>
<a xlink:href="camera_8cpp.html" target="_top" xlink:title="src/camera.cpp">
<polygon fill="white" stroke="black" points="1426,-174.5 1426,-195.5 1510,-195.5 1510,-174.5 1426,-174.5"/>
<text text-anchor="middle" x="1468" y="-182.5" font-family="Helvetica,sans-Serif" font-size="10.00">src/camera.cpp</text>
</a>
</g>
<!-- Node30&#45;&gt;Node31 -->
<g id="edge112" class="edge"><title>Node30&#45;&gt;Node31</title>
<path fill="none" stroke="midnightblue" d="M1291.06,-230.011C1331.94,-219.611 1388.55,-205.21 1426.63,-195.523"/>
<polygon fill="midnightblue" stroke="midnightblue" points="1290.12,-226.639 1281.29,-232.497 1291.84,-233.423 1290.12,-226.639"/>
</g>
<!-- Node32&#45;&gt;Node4 -->
<g id="edge118" class="edge"><title>Node32&#45;&gt;Node4</title>
<path fill="none" stroke="midnightblue" d="M680,-222.191C680,-213.168 680,-202.994 680,-195.571"/>
<polygon fill="midnightblue" stroke="midnightblue" points="676.5,-222.362 680,-232.362 683.5,-222.362 676.5,-222.362"/>
</g>
<!-- Node33 -->
<g id="node93" class="node"><title>Node33</title>
<a xlink:href="material_8cpp.html" target="_top" xlink:title="src/material.cpp">
<polygon fill="white" stroke="black" points="521,-174.5 521,-195.5 607,-195.5 607,-174.5 521,-174.5"/>
<text text-anchor="middle" x="564" y="-182.5" font-family="Helvetica,sans-Serif" font-size="10.00">src/material.cpp</text>
</a>
</g>
<!-- Node32&#45;&gt;Node33 -->
<g id="edge120" class="edge"><title>Node32&#45;&gt;Node33</title>
<path fill="none" stroke="midnightblue" d="M649.864,-227.932C629.586,-217.793 603.35,-204.675 585.242,-195.621"/>
<polygon fill="midnightblue" stroke="midnightblue" points="648.484,-231.155 658.993,-232.497 651.614,-224.894 648.484,-231.155"/>
</g>
</g>
</svg>
