<?xml version="1.0" encoding="UTF-8" standalone="no"?>
<!DOCTYPE svg PUBLIC "-//W3C//DTD SVG 1.1//EN"
 "http://www.w3.org/Graphics/SVG/1.1/DTD/svg11.dtd">
<!-- Generated by graphviz version 2.26.3 (20100126.1600)
 -->
<!-- Title: src/global.cpp Pages: 1 -->
<svg width="296pt" height="146pt"
 viewBox="0.00 0.00 296.00 146.00" xmlns="http://www.w3.org/2000/svg" xmlns:xlink="http://www.w3.org/1999/xlink">
<g id="graph1" class="graph" transform="scale(1 1) rotate(0) translate(4 142)">
<title>src/global.cpp</title>
<polygon fill="white" stroke="white" points="-4,5 -4,-142 293,-142 293,5 -4,5"/>
<!-- Node1 -->
<g id="node1" class="node"><title>Node1</title>
<polygon fill="#bfbfbf" stroke="black" points="143.5,-116.5 143.5,-137.5 220.5,-137.5 220.5,-116.5 143.5,-116.5"/>
<text text-anchor="middle" x="182" y="-124.5" font-family="Helvetica,sans-Serif" font-size="10.00">src/global.cpp</text>
</g>
<!-- Node2 -->
<g id="node3" class="node"><title>Node2</title>
<a xlink:href="globals_8hpp.html" target="_top" xlink:title="Definitions globales. ">
<polygon fill="white" stroke="black" points="114,-58.5 114,-79.5 180,-79.5 180,-58.5 114,-58.5"/>
<text text-anchor="middle" x="147" y="-66.5" font-family="Helvetica,sans-Serif" font-size="10.00">globals.hpp</text>
</a>
</g>
<!-- Node1&#45;&gt;Node2 -->
<g id="edge2" class="edge"><title>Node1&#45;&gt;Node2</title>
<path fill="none" stroke="midnightblue" d="M175.58,-116.362C170.844,-108.513 164.268,-97.6159 158.618,-88.2527"/>
<polygon fill="midnightblue" stroke="midnightblue" points="161.542,-86.3242 153.379,-79.5707 155.549,-89.9409 161.542,-86.3242"/>
</g>
<!-- Node7 -->
<g id="node13" class="node"><title>Node7</title>
<polygon fill="white" stroke="#bfbfbf" points="198,-58.5 198,-79.5 238,-79.5 238,-58.5 198,-58.5"/>
<text text-anchor="middle" x="218" y="-66.5" font-family="Helvetica,sans-Serif" font-size="10.00">limits</text>
</g>
<!-- Node1&#45;&gt;Node7 -->
<g id="edge12" class="edge"><title>Node1&#45;&gt;Node7</title>
<path fill="none" stroke="midnightblue" d="M188.603,-116.362C193.475,-108.513 200.238,-97.6159 206.05,-88.2527"/>
<polygon fill="midnightblue" stroke="midnightblue" points="209.139,-89.9129 211.439,-79.5707 203.191,-86.2213 209.139,-89.9129"/>
</g>
<!-- Node3 -->
<g id="node5" class="node"><title>Node3</title>
<polygon fill="white" stroke="#bfbfbf" points="-0.5,-0.5 -0.5,-21.5 52.5,-21.5 52.5,-0.5 -0.5,-0.5"/>
<text text-anchor="middle" x="26" y="-8.5" font-family="Helvetica,sans-Serif" font-size="10.00">QObject</text>
</g>
<!-- Node2&#45;&gt;Node3 -->
<g id="edge4" class="edge"><title>Node2&#45;&gt;Node3</title>
<path fill="none" stroke="midnightblue" d="M125.088,-58.4966C106.189,-49.4378 78.6688,-36.2462 57.424,-26.0628"/>
<polygon fill="midnightblue" stroke="midnightblue" points="58.6885,-22.7876 48.1581,-21.6212 55.6627,-29.0999 58.6885,-22.7876"/>
</g>
<!-- Node4 -->
<g id="node7" class="node"><title>Node4</title>
<polygon fill="white" stroke="#bfbfbf" points="69.5,-0.5 69.5,-21.5 140.5,-21.5 140.5,-0.5 69.5,-0.5"/>
<text text-anchor="middle" x="105" y="-8.5" font-family="Helvetica,sans-Serif" font-size="10.00">QQuaternion</text>
</g>
<!-- Node2&#45;&gt;Node4 -->
<g id="edge6" class="edge"><title>Node2&#45;&gt;Node4</title>
<path fill="none" stroke="midnightblue" d="M139.297,-58.3619C133.554,-50.4313 125.557,-39.3885 118.73,-29.9606"/>
<polygon fill="midnightblue" stroke="midnightblue" points="121.355,-27.6173 112.655,-21.5707 115.685,-31.7229 121.355,-27.6173"/>
</g>
<!-- Node5 -->
<g id="node9" class="node"><title>Node5</title>
<polygon fill="white" stroke="#bfbfbf" points="157.5,-0.5 157.5,-21.5 222.5,-21.5 222.5,-0.5 157.5,-0.5"/>
<text text-anchor="middle" x="190" y="-8.5" font-family="Helvetica,sans-Serif" font-size="10.00">QVector3D</text>
</g>
<!-- Node2&#45;&gt;Node5 -->
<g id="edge8" class="edge"><title>Node2&#45;&gt;Node5</title>
<path fill="none" stroke="midnightblue" d="M154.887,-58.3619C160.827,-50.3496 169.122,-39.1605 176.159,-29.6696"/>
<polygon fill="midnightblue" stroke="midnightblue" points="179.019,-31.6883 182.163,-21.5707 173.396,-27.5193 179.019,-31.6883"/>
</g>
<!-- Node6 -->
<g id="node11" class="node"><title>Node6</title>
<polygon fill="white" stroke="#bfbfbf" points="239.5,-0.5 239.5,-21.5 288.5,-21.5 288.5,-0.5 239.5,-0.5"/>
<text text-anchor="middle" x="264" y="-8.5" font-family="Helvetica,sans-Serif" font-size="10.00">QtMath</text>
</g>
<!-- Node2&#45;&gt;Node6 -->
<g id="edge10" class="edge"><title>Node2&#45;&gt;Node6</title>
<path fill="none" stroke="midnightblue" d="M168.188,-58.4966C186.462,-49.4378 213.072,-36.2462 233.615,-26.0628"/>
<polygon fill="midnightblue" stroke="midnightblue" points="235.169,-29.1986 242.574,-21.6212 232.06,-22.9269 235.169,-29.1986"/>
</g>
</g>
</svg>
