<?xml version="1.0" encoding="UTF-8" standalone="no"?>
<!DOCTYPE svg PUBLIC "-//W3C//DTD SVG 1.1//EN"
 "http://www.w3.org/Graphics/SVG/1.1/DTD/svg11.dtd">
<!-- Generated by graphviz version 2.26.3 (20100126.1600)
 -->
<!-- Title: include/globals.hpp Pages: 1 -->
<svg width="1765pt" height="320pt"
 viewBox="0.00 0.00 1765.00 320.00" xmlns="http://www.w3.org/2000/svg" xmlns:xlink="http://www.w3.org/1999/xlink">
<g id="graph1" class="graph" transform="scale(1 1) rotate(0) translate(4 316)">
<title>include/globals.hpp</title>
<polygon fill="white" stroke="white" points="-4,5 -4,-316 1762,-316 1762,5 -4,5"/>
<!-- Node1 -->
<g id="node1" class="node"><title>Node1</title>
<polygon fill="#bfbfbf" stroke="black" points="1388,-290.5 1388,-311.5 1488,-311.5 1488,-290.5 1388,-290.5"/>
<text text-anchor="middle" x="1438" y="-298.5" font-family="Helvetica,sans-Serif" font-size="10.00">include/globals.hpp</text>
</g>
<!-- Node2 -->
<g id="node3" class="node"><title>Node2</title>
<a xlink:href="actor_8hpp.html" target="_top" xlink:title="include/actor.hpp">
<polygon fill="white" stroke="black" points="1392.5,-232.5 1392.5,-253.5 1483.5,-253.5 1483.5,-232.5 1392.5,-232.5"/>
<text text-anchor="middle" x="1438" y="-240.5" font-family="Helvetica,sans-Serif" font-size="10.00">include/actor.hpp</text>
</a>
</g>
<!-- Node1&#45;&gt;Node2 -->
<g id="edge2" class="edge"><title>Node1&#45;&gt;Node2</title>
<path fill="none" stroke="midnightblue" d="M1438,-280.191C1438,-271.168 1438,-260.994 1438,-253.571"/>
<polygon fill="midnightblue" stroke="midnightblue" points="1434.5,-280.362 1438,-290.362 1441.5,-280.362 1434.5,-280.362"/>
</g>
<!-- Node4 -->
<g id="node7" class="node"><title>Node4</title>
<a xlink:href="geometry_8hpp.html" target="_top" xlink:title="include/geometry.hpp">
<polygon fill="white" stroke="black" points="888,-174.5 888,-195.5 998,-195.5 998,-174.5 888,-174.5"/>
<text text-anchor="middle" x="943" y="-182.5" font-family="Helvetica,sans-Serif" font-size="10.00">include/geometry.hpp</text>
</a>
</g>
<!-- Node1&#45;&gt;Node4 -->
<g id="edge144" class="edge"><title>Node1&#45;&gt;Node4</title>
<path fill="none" stroke="midnightblue" d="M1382.97,-288.105C1284.24,-264.969 1078.86,-216.838 987.956,-195.535"/>
<polygon fill="midnightblue" stroke="midnightblue" points="1382.22,-291.524 1392.76,-290.398 1383.82,-284.709 1382.22,-291.524"/>
</g>
<!-- Node5 -->
<g id="node9" class="node"><title>Node5</title>
<a xlink:href="cube_8hpp.html" target="_top" xlink:title="include/cube.hpp">
<polygon fill="white" stroke="black" points="1317,-116.5 1317,-137.5 1407,-137.5 1407,-116.5 1317,-116.5"/>
<text text-anchor="middle" x="1362" y="-124.5" font-family="Helvetica,sans-Serif" font-size="10.00">include/cube.hpp</text>
</a>
</g>
<!-- Node1&#45;&gt;Node5 -->
<g id="edge152" class="edge"><title>Node1&#45;&gt;Node5</title>
<path fill="none" stroke="midnightblue" d="M1412.15,-284.401C1401.81,-276.44 1390.77,-266.013 1384,-254 1362.25,-215.398 1360.99,-160.536 1361.53,-137.659"/>
<polygon fill="midnightblue" stroke="midnightblue" points="1410.41,-287.461 1420.57,-290.488 1414.52,-281.79 1410.41,-287.461"/>
</g>
<!-- Node30 -->
<g id="node84" class="node"><title>Node30</title>
<a xlink:href="world_8hpp.html" target="_top" xlink:title="include/world.hpp">
<polygon fill="white" stroke="black" points="1466,-174.5 1466,-195.5 1558,-195.5 1558,-174.5 1466,-174.5"/>
<text text-anchor="middle" x="1512" y="-182.5" font-family="Helvetica,sans-Serif" font-size="10.00">include/world.hpp</text>
</a>
</g>
<!-- Node1&#45;&gt;Node30 -->
<g id="edge154" class="edge"><title>Node1&#45;&gt;Node30</title>
<path fill="none" stroke="midnightblue" d="M1463,-284.192C1473.29,-276.142 1484.53,-265.702 1492,-254 1503.82,-235.5 1508.84,-209.824 1510.82,-195.583"/>
<polygon fill="midnightblue" stroke="midnightblue" points="1460.63,-281.596 1454.68,-290.367 1464.8,-287.216 1460.63,-281.596"/>
</g>
<!-- Node33 -->
<g id="node102" class="node"><title>Node33</title>
<a xlink:href="camera_8hpp.html" target="_top" xlink:title="include/camera.hpp">
<polygon fill="white" stroke="black" points="1562.5,-232.5 1562.5,-253.5 1663.5,-253.5 1663.5,-232.5 1562.5,-232.5"/>
<text text-anchor="middle" x="1613" y="-240.5" font-family="Helvetica,sans-Serif" font-size="10.00">include/camera.hpp</text>
</a>
</g>
<!-- Node1&#45;&gt;Node33 -->
<g id="edge138" class="edge"><title>Node1&#45;&gt;Node33</title>
<path fill="none" stroke="midnightblue" d="M1479.4,-287.279C1510.58,-276.944 1552.7,-262.985 1581.25,-253.523"/>
<polygon fill="midnightblue" stroke="midnightblue" points="1478.08,-284.028 1469.69,-290.497 1480.28,-290.673 1478.08,-284.028"/>
</g>
<!-- Node35 -->
<g id="node108" class="node"><title>Node35</title>
<a xlink:href="material_8hpp.html" target="_top" xlink:title="include/material.hpp">
<polygon fill="white" stroke="black" points="891,-232.5 891,-253.5 995,-253.5 995,-232.5 891,-232.5"/>
<text text-anchor="middle" x="943" y="-240.5" font-family="Helvetica,sans-Serif" font-size="10.00">include/material.hpp</text>
</a>
</g>
<!-- Node1&#45;&gt;Node35 -->
<g id="edge146" class="edge"><title>Node1&#45;&gt;Node35</title>
<path fill="none" stroke="midnightblue" d="M1377.78,-293.943C1279.83,-282.467 1087.67,-259.951 995.179,-249.114"/>
<polygon fill="midnightblue" stroke="midnightblue" points="1377.47,-297.432 1387.81,-295.119 1378.29,-290.479 1377.47,-297.432"/>
</g>
<!-- Node37 -->
<g id="node115" class="node"><title>Node37</title>
<a xlink:href="global_8cpp.html" target="_top" xlink:title="src/global.cpp">
<polygon fill="white" stroke="black" points="1680.5,-232.5 1680.5,-253.5 1757.5,-253.5 1757.5,-232.5 1680.5,-232.5"/>
<text text-anchor="middle" x="1719" y="-240.5" font-family="Helvetica,sans-Serif" font-size="10.00">src/global.cpp</text>
</a>
</g>
<!-- Node1&#45;&gt;Node37 -->
<g id="edge156" class="edge"><title>Node1&#45;&gt;Node37</title>
<path fill="none" stroke="midnightblue" d="M1498.39,-289.417C1545.7,-280.209 1613.15,-266.793 1672,-254 1674.7,-253.413 1677.49,-252.794 1680.29,-252.161"/>
<polygon fill="midnightblue" stroke="midnightblue" points="1497.46,-286.032 1488.31,-291.374 1498.79,-292.903 1497.46,-286.032"/>
</g>
<!-- Node3 -->
<g id="node5" class="node"><title>Node3</title>
<a xlink:href="actor_8cpp.html" target="_top" xlink:title="src/actor.cpp">
<polygon fill="white" stroke="black" points="1671,-0.5 1671,-21.5 1745,-21.5 1745,-0.5 1671,-0.5"/>
<text text-anchor="middle" x="1708" y="-8.5" font-family="Helvetica,sans-Serif" font-size="10.00">src/actor.cpp</text>
</a>
</g>
<!-- Node2&#45;&gt;Node3 -->
<g id="edge4" class="edge"><title>Node2&#45;&gt;Node3</title>
<path fill="none" stroke="midnightblue" d="M1493.52,-230.321C1517.66,-222.982 1545.32,-211.957 1567,-196 1635.3,-145.732 1686.43,-53.446 1702.59,-21.9039"/>
<polygon fill="midnightblue" stroke="midnightblue" points="1492.4,-227.003 1483.77,-233.148 1494.34,-233.726 1492.4,-227.003"/>
</g>
<!-- Node2&#45;&gt;Node4 -->
<g id="edge6" class="edge"><title>Node2&#45;&gt;Node4</title>
<path fill="none" stroke="midnightblue" d="M1382.29,-236.473C1286.9,-225.295 1093.38,-202.621 998.282,-191.478"/>
<polygon fill="midnightblue" stroke="midnightblue" points="1381.98,-239.96 1392.32,-237.647 1382.79,-233.007 1381.98,-239.96"/>
</g>
<!-- Node7 -->
<g id="node14" class="node"><title>Node7</title>
<a xlink:href="actorbuilder_8cpp.html" target="_top" xlink:title="src/actorbuilder.cpp">
<polygon fill="white" stroke="black" points="929,-0.5 929,-21.5 1031,-21.5 1031,-0.5 929,-0.5"/>
<text text-anchor="middle" x="980" y="-8.5" font-family="Helvetica,sans-Serif" font-size="10.00">src/actorbuilder.cpp</text>
</a>
</g>
<!-- Node2&#45;&gt;Node7 -->
<g id="edge114" class="edge"><title>Node2&#45;&gt;Node7</title>
<path fill="none" stroke="midnightblue" d="M1437.92,-221.934C1437.03,-195.799 1432.91,-150.477 1416,-116 1400.62,-84.648 1394.04,-74.0049 1363,-58 1246,2.3372 1199.66,-38.0738 1069,-22 1056.79,-20.4982 1043.64,-18.8758 1031.3,-17.3502"/>
<polygon fill="midnightblue" stroke="midnightblue" points="1434.42,-222.253 1438.13,-232.179 1441.42,-222.11 1434.42,-222.253"/>
</g>
<!-- Node2&#45;&gt;Node30 -->
<g id="edge108" class="edge"><title>Node2&#45;&gt;Node30</title>
<path fill="none" stroke="midnightblue" d="M1459.72,-225.975C1472.28,-216.132 1487.69,-204.055 1498.51,-195.571"/>
<polygon fill="midnightblue" stroke="midnightblue" points="1457.28,-223.438 1451.57,-232.362 1461.6,-228.948 1457.28,-223.438"/>
</g>
<!-- Node31 -->
<g id="node89" class="node"><title>Node31</title>
<a xlink:href="light_8hpp.html" target="_top" xlink:title="include/light.hpp">
<polygon fill="white" stroke="black" points="1109.5,-116.5 1109.5,-137.5 1196.5,-137.5 1196.5,-116.5 1109.5,-116.5"/>
<text text-anchor="middle" x="1153" y="-124.5" font-family="Helvetica,sans-Serif" font-size="10.00">include/light.hpp</text>
</a>
</g>
<!-- Node2&#45;&gt;Node31 -->
<g id="edge116" class="edge"><title>Node2&#45;&gt;Node31</title>
<path fill="none" stroke="midnightblue" d="M1402.44,-228.526C1344.25,-204.843 1230.06,-158.365 1178.88,-137.535"/>
<polygon fill="midnightblue" stroke="midnightblue" points="1401.37,-231.87 1411.95,-232.398 1404.01,-225.387 1401.37,-231.87"/>
</g>
<!-- Node4&#45;&gt;Node5 -->
<g id="edge8" class="edge"><title>Node4&#45;&gt;Node5</title>
<path fill="none" stroke="midnightblue" d="M1008.35,-175.953C1094.18,-164.073 1242.65,-143.521 1316.94,-133.238"/>
<polygon fill="midnightblue" stroke="midnightblue" points="1007.63,-172.52 998.208,-177.358 1008.59,-179.454 1007.63,-172.52"/>
</g>
<!-- Node9 -->
<g id="node18" class="node"><title>Node9</title>
<a xlink:href="geometry_8cpp.html" target="_top" xlink:title="src/geometry.cpp">
<polygon fill="white" stroke="black" points="1561,-0.5 1561,-21.5 1653,-21.5 1653,-0.5 1561,-0.5"/>
<text text-anchor="middle" x="1607" y="-8.5" font-family="Helvetica,sans-Serif" font-size="10.00">src/geometry.cpp</text>
</a>
</g>
<!-- Node4&#45;&gt;Node9 -->
<g id="edge96" class="edge"><title>Node4&#45;&gt;Node9</title>
<path fill="none" stroke="midnightblue" d="M1008.33,-182.214C1100.07,-177.464 1272,-165.496 1416,-138 1508.17,-120.401 1562.49,-154.911 1619,-80 1632.03,-62.7214 1621.14,-36.1121 1613.29,-21.5012"/>
<polygon fill="midnightblue" stroke="midnightblue" points="1007.89,-178.731 998.083,-182.732 1008.25,-185.723 1007.89,-178.731"/>
</g>
<!-- Node16 -->
<g id="node33" class="node"><title>Node16</title>
<a xlink:href="sphere_8hpp.html" target="_top" xlink:title="include/sphere.hpp">
<polygon fill="white" stroke="black" points="932,-116.5 932,-137.5 1030,-137.5 1030,-116.5 932,-116.5"/>
<text text-anchor="middle" x="981" y="-124.5" font-family="Helvetica,sans-Serif" font-size="10.00">include/sphere.hpp</text>
</a>
</g>
<!-- Node4&#45;&gt;Node16 -->
<g id="edge34" class="edge"><title>Node4&#45;&gt;Node16</title>
<path fill="none" stroke="midnightblue" d="M955.475,-165.959C961.658,-156.522 968.89,-145.484 974.074,-137.571"/>
<polygon fill="midnightblue" stroke="midnightblue" points="952.522,-164.079 949.97,-174.362 958.378,-167.915 952.522,-164.079"/>
</g>
<!-- Node19 -->
<g id="node42" class="node"><title>Node19</title>
<a xlink:href="pyramide_8hpp.html" target="_top" xlink:title="include/pyramide.hpp">
<polygon fill="white" stroke="black" points="221.5,-58.5 221.5,-79.5 330.5,-79.5 330.5,-58.5 221.5,-58.5"/>
<text text-anchor="middle" x="276" y="-66.5" font-family="Helvetica,sans-Serif" font-size="10.00">include/pyramide.hpp</text>
</a>
</g>
<!-- Node4&#45;&gt;Node19 -->
<g id="edge46" class="edge"><title>Node4&#45;&gt;Node19</title>
<path fill="none" stroke="midnightblue" d="M877.786,-173.963C680.697,-150.407 623.872,-185.257 435,-138 381.871,-124.707 323.921,-95.4402 294.858,-79.631"/>
<polygon fill="midnightblue" stroke="midnightblue" points="877.536,-177.458 887.889,-175.206 878.391,-170.511 877.536,-177.458"/>
</g>
<!-- Node21 -->
<g id="node49" class="node"><title>Node21</title>
<a xlink:href="cylinder_8hpp.html" target="_top" xlink:title="include/cylinder.hpp">
<polygon fill="white" stroke="black" points="-0.5,-58.5 -0.5,-79.5 102.5,-79.5 102.5,-58.5 -0.5,-58.5"/>
<text text-anchor="middle" x="51" y="-66.5" font-family="Helvetica,sans-Serif" font-size="10.00">include/cylinder.hpp</text>
</a>
</g>
<!-- Node4&#45;&gt;Node21 -->
<g id="edge56" class="edge"><title>Node4&#45;&gt;Node21</title>
<path fill="none" stroke="midnightblue" d="M877.632,-173.964C614.001,-144.528 541.607,-183.327 284,-138 208.38,-124.694 122.516,-95.4329 79.1952,-79.6278"/>
<polygon fill="midnightblue" stroke="midnightblue" points="877.565,-177.479 887.897,-175.134 878.358,-170.524 877.565,-177.479"/>
</g>
<!-- Node23 -->
<g id="node56" class="node"><title>Node23</title>
<a xlink:href="line_8hpp.html" target="_top" xlink:title="include/line.hpp">
<polygon fill="white" stroke="black" points="120,-58.5 120,-79.5 204,-79.5 204,-58.5 120,-58.5"/>
<text text-anchor="middle" x="162" y="-66.5" font-family="Helvetica,sans-Serif" font-size="10.00">include/line.hpp</text>
</a>
</g>
<!-- Node4&#45;&gt;Node23 -->
<g id="edge66" class="edge"><title>Node4&#45;&gt;Node23</title>
<path fill="none" stroke="midnightblue" d="M877.699,-173.96C651.575,-147.745 588.61,-181.629 369,-138 301.377,-124.566 225.281,-95.3585 186.938,-79.5956"/>
<polygon fill="midnightblue" stroke="midnightblue" points="877.551,-177.467 887.893,-175.169 878.375,-170.516 877.551,-177.467"/>
</g>
<!-- Node25 -->
<g id="node63" class="node"><title>Node25</title>
<a xlink:href="rectangle_8hpp.html" target="_top" xlink:title="include/rectangle.hpp">
<polygon fill="white" stroke="black" points="691.5,-58.5 691.5,-79.5 800.5,-79.5 800.5,-58.5 691.5,-58.5"/>
<text text-anchor="middle" x="746" y="-66.5" font-family="Helvetica,sans-Serif" font-size="10.00">include/rectangle.hpp</text>
</a>
</g>
<!-- Node4&#45;&gt;Node25 -->
<g id="edge76" class="edge"><title>Node4&#45;&gt;Node25</title>
<path fill="none" stroke="midnightblue" d="M916.2,-169.219C875.342,-145.161 798.567,-99.9533 763.852,-79.5117"/>
<polygon fill="midnightblue" stroke="midnightblue" points="914.427,-172.237 924.82,-174.295 917.979,-166.205 914.427,-172.237"/>
</g>
<!-- Node27 -->
<g id="node70" class="node"><title>Node27</title>
<a xlink:href="trigger_8hpp.html" target="_top" xlink:title="include/trigger.hpp">
<polygon fill="white" stroke="black" points="856,-58.5 856,-79.5 952,-79.5 952,-58.5 856,-58.5"/>
<text text-anchor="middle" x="904" y="-66.5" font-family="Helvetica,sans-Serif" font-size="10.00">include/trigger.hpp</text>
</a>
</g>
<!-- Node4&#45;&gt;Node27 -->
<g id="edge86" class="edge"><title>Node4&#45;&gt;Node27</title>
<path fill="none" stroke="midnightblue" d="M933.843,-165.119C930.21,-156.832 926.155,-147.048 923,-138 915.964,-117.821 909.805,-93.6095 906.522,-79.8937"/>
<polygon fill="midnightblue" stroke="midnightblue" points="930.691,-166.642 937.977,-174.334 937.077,-163.777 930.691,-166.642"/>
</g>
<!-- Node28 -->
<g id="node77" class="node"><title>Node28</title>
<a xlink:href="group_8hpp.html" target="_top" xlink:title="include/group.hpp">
<polygon fill="white" stroke="black" points="443.5,-116.5 443.5,-137.5 536.5,-137.5 536.5,-116.5 443.5,-116.5"/>
<text text-anchor="middle" x="490" y="-124.5" font-family="Helvetica,sans-Serif" font-size="10.00">include/group.hpp</text>
</a>
</g>
<!-- Node4&#45;&gt;Node28 -->
<g id="edge98" class="edge"><title>Node4&#45;&gt;Node28</title>
<path fill="none" stroke="midnightblue" d="M877.773,-173.874C748.284,-155.138 607.717,-139.466 536.506,-131.859"/>
<polygon fill="midnightblue" stroke="midnightblue" points="877.47,-177.367 887.87,-175.345 878.479,-170.44 877.47,-177.367"/>
</g>
<!-- Node6 -->
<g id="node11" class="node"><title>Node6</title>
<a xlink:href="viewport_8hpp.html" target="_top" xlink:title="include/viewport.hpp">
<polygon fill="white" stroke="black" points="1504,-58.5 1504,-79.5 1610,-79.5 1610,-58.5 1504,-58.5"/>
<text text-anchor="middle" x="1557" y="-66.5" font-family="Helvetica,sans-Serif" font-size="10.00">include/viewport.hpp</text>
</a>
</g>
<!-- Node5&#45;&gt;Node6 -->
<g id="edge10" class="edge"><title>Node5&#45;&gt;Node6</title>
<path fill="none" stroke="midnightblue" d="M1407.23,-113.546C1442.07,-103.186 1489.53,-89.0668 1521.62,-79.5231"/>
<polygon fill="midnightblue" stroke="midnightblue" points="1405.9,-110.291 1397.31,-116.497 1407.9,-117 1405.9,-110.291"/>
</g>
<!-- Node5&#45;&gt;Node7 -->
<g id="edge26" class="edge"><title>Node5&#45;&gt;Node7</title>
<path fill="none" stroke="midnightblue" d="M1362.05,-105.947C1360.88,-90.3401 1356.58,-69.8049 1343,-58 1341.54,-56.7283 1131.15,-30.0564 1031.38,-17.4692"/>
<polygon fill="midnightblue" stroke="midnightblue" points="1358.56,-106.384 1362.43,-116.246 1365.56,-106.121 1358.56,-106.384"/>
</g>
<!-- Node13 -->
<g id="node27" class="node"><title>Node13</title>
<a xlink:href="cube_8cpp.html" target="_top" xlink:title="src/cube.cpp">
<polygon fill="white" stroke="black" points="1261.5,-58.5 1261.5,-79.5 1334.5,-79.5 1334.5,-58.5 1261.5,-58.5"/>
<text text-anchor="middle" x="1298" y="-66.5" font-family="Helvetica,sans-Serif" font-size="10.00">src/cube.cpp</text>
</a>
</g>
<!-- Node5&#45;&gt;Node13 -->
<g id="edge28" class="edge"><title>Node5&#45;&gt;Node13</title>
<path fill="none" stroke="midnightblue" d="M1342.58,-109.405C1331.84,-99.6683 1318.85,-87.8914 1309.66,-79.5707"/>
<polygon fill="midnightblue" stroke="midnightblue" points="1340.5,-112.24 1350.26,-116.362 1345.2,-107.053 1340.5,-112.24"/>
</g>
<!-- Node14 -->
<g id="node29" class="node"><title>Node14</title>
<a xlink:href="trigger_8cpp.html" target="_top" xlink:title="src/trigger.cpp">
<polygon fill="white" stroke="black" points="1077.5,-0.5 1077.5,-21.5 1156.5,-21.5 1156.5,-0.5 1077.5,-0.5"/>
<text text-anchor="middle" x="1117" y="-8.5" font-family="Helvetica,sans-Serif" font-size="10.00">src/trigger.cpp</text>
</a>
</g>
<!-- Node5&#45;&gt;Node14 -->
<g id="edge30" class="edge"><title>Node5&#45;&gt;Node14</title>
<path fill="none" stroke="midnightblue" d="M1373.87,-107.322C1381.27,-92.2199 1387.44,-71.7008 1376,-58 1362.07,-41.3146 1225.8,-23.4714 1156.72,-15.4065"/>
<polygon fill="midnightblue" stroke="midnightblue" points="1370.67,-105.877 1368.99,-116.338 1376.83,-109.207 1370.67,-105.877"/>
</g>
<!-- Node15 -->
<g id="node31" class="node"><title>Node15</title>
<a xlink:href="world_8cpp.html" target="_top" xlink:title="src/world.cpp">
<polygon fill="white" stroke="black" points="1007.5,-58.5 1007.5,-79.5 1082.5,-79.5 1082.5,-58.5 1007.5,-58.5"/>
<text text-anchor="middle" x="1045" y="-66.5" font-family="Helvetica,sans-Serif" font-size="10.00">src/world.cpp</text>
</a>
</g>
<!-- Node5&#45;&gt;Node15 -->
<g id="edge32" class="edge"><title>Node5&#45;&gt;Node15</title>
<path fill="none" stroke="midnightblue" d="M1306.55,-118.432C1251.64,-109.701 1165.25,-95.3011 1091,-80 1088.27,-79.4365 1085.45,-78.8287 1082.61,-78.1982"/>
<polygon fill="midnightblue" stroke="midnightblue" points="1306.34,-121.942 1316.76,-120.048 1307.43,-115.028 1306.34,-121.942"/>
</g>
<!-- Node6&#45;&gt;Node3 -->
<g id="edge12" class="edge"><title>Node6&#45;&gt;Node3</title>
<path fill="none" stroke="midnightblue" d="M1593.78,-54.8742C1620.57,-44.5819 1656.29,-30.862 1680.6,-21.5231"/>
<polygon fill="midnightblue" stroke="midnightblue" points="1592.43,-51.6437 1584.34,-58.4966 1594.94,-58.1782 1592.43,-51.6437"/>
</g>
<!-- Node6&#45;&gt;Node7 -->
<g id="edge14" class="edge"><title>Node6&#45;&gt;Node7</title>
<path fill="none" stroke="midnightblue" d="M1493.55,-62.243C1479.85,-60.8146 1465.44,-59.336 1452,-58 1281.87,-41.0928 1238.97,-40.4879 1069,-22 1056.77,-20.67 1043.62,-19.1133 1031.27,-17.5966"/>
<polygon fill="midnightblue" stroke="midnightblue" points="1493.55,-65.7622 1503.86,-63.3222 1494.28,-58.8002 1493.55,-65.7622"/>
</g>
<!-- Node8 -->
<g id="node16" class="node"><title>Node8</title>
<a xlink:href="fileloader_8cpp.html" target="_top" xlink:title="src/fileloader.cpp">
<polygon fill="white" stroke="black" points="1452.5,-0.5 1452.5,-21.5 1543.5,-21.5 1543.5,-0.5 1452.5,-0.5"/>
<text text-anchor="middle" x="1498" y="-8.5" font-family="Helvetica,sans-Serif" font-size="10.00">src/fileloader.cpp</text>
</a>
</g>
<!-- Node6&#45;&gt;Node8 -->
<g id="edge16" class="edge"><title>Node6&#45;&gt;Node8</title>
<path fill="none" stroke="midnightblue" d="M1538.81,-51.118C1528.96,-41.4377 1517.13,-29.8098 1508.75,-21.5707"/>
<polygon fill="midnightblue" stroke="midnightblue" points="1536.59,-53.8474 1546.18,-58.3619 1541.5,-48.8556 1536.59,-53.8474"/>
</g>
<!-- Node6&#45;&gt;Node9 -->
<g id="edge18" class="edge"><title>Node6&#45;&gt;Node9</title>
<path fill="none" stroke="midnightblue" d="M1572.91,-50.5407C1581.16,-40.9786 1590.93,-29.6467 1597.89,-21.5707"/>
<polygon fill="midnightblue" stroke="midnightblue" points="1570.05,-48.5025 1566.17,-58.3619 1575.35,-53.0731 1570.05,-48.5025"/>
</g>
<!-- Node10 -->
<g id="node20" class="node"><title>Node10</title>
<a xlink:href="light_8cpp.html" target="_top" xlink:title="src/light.cpp">
<polygon fill="white" stroke="black" points="1365,-0.5 1365,-21.5 1435,-21.5 1435,-0.5 1365,-0.5"/>
<text text-anchor="middle" x="1400" y="-8.5" font-family="Helvetica,sans-Serif" font-size="10.00">src/light.cpp</text>
</a>
</g>
<!-- Node6&#45;&gt;Node10 -->
<g id="edge20" class="edge"><title>Node6&#45;&gt;Node10</title>
<path fill="none" stroke="midnightblue" d="M1519.13,-55.0095C1491.23,-44.7023 1453.88,-30.903 1428.48,-21.5231"/>
<polygon fill="midnightblue" stroke="midnightblue" points="1517.98,-58.3143 1528.57,-58.4966 1520.4,-51.7481 1517.98,-58.3143"/>
</g>
<!-- Node11 -->
<g id="node22" class="node"><title>Node11</title>
<a xlink:href="spotlight_8cpp.html" target="_top" xlink:title="src/spotlight.cpp">
<polygon fill="white" stroke="black" points="1230.5,-0.5 1230.5,-21.5 1319.5,-21.5 1319.5,-0.5 1230.5,-0.5"/>
<text text-anchor="middle" x="1275" y="-8.5" font-family="Helvetica,sans-Serif" font-size="10.00">src/spotlight.cpp</text>
</a>
</g>
<!-- Node6&#45;&gt;Node11 -->
<g id="edge22" class="edge"><title>Node6&#45;&gt;Node11</title>
<path fill="none" stroke="midnightblue" d="M1495.97,-56.4468C1442.89,-45.5311 1367.24,-29.9711 1319.65,-20.1835"/>
<polygon fill="midnightblue" stroke="midnightblue" points="1495.43,-59.9102 1505.93,-58.4966 1496.84,-53.0537 1495.43,-59.9102"/>
</g>
<!-- Node12 -->
<g id="node24" class="node"><title>Node12</title>
<a xlink:href="viewport_8cpp.html" target="_top" xlink:title="src/viewport.cpp">
<polygon fill="white" stroke="black" points="650.5,-0.5 650.5,-21.5 739.5,-21.5 739.5,-0.5 650.5,-0.5"/>
<text text-anchor="middle" x="695" y="-8.5" font-family="Helvetica,sans-Serif" font-size="10.00">src/viewport.cpp</text>
</a>
</g>
<!-- Node6&#45;&gt;Node12 -->
<g id="edge24" class="edge"><title>Node6&#45;&gt;Node12</title>
<path fill="none" stroke="midnightblue" d="M1493.91,-65.5884C1309.96,-55.6067 784.767,-26.8569 748,-22 745.298,-21.6431 742.528,-21.2259 739.741,-20.7666"/>
<polygon fill="midnightblue" stroke="midnightblue" points="1493.8,-69.0873 1503.98,-66.1341 1494.18,-62.0976 1493.8,-69.0873"/>
</g>
<!-- Node16&#45;&gt;Node6 -->
<g id="edge36" class="edge"><title>Node16&#45;&gt;Node6</title>
<path fill="none" stroke="midnightblue" d="M1040.27,-121.032C1152.89,-109.691 1396.18,-85.1933 1503.87,-74.3501"/>
<polygon fill="midnightblue" stroke="midnightblue" points="1039.71,-117.571 1030.11,-122.055 1040.41,-124.535 1039.71,-117.571"/>
</g>
<!-- Node16&#45;&gt;Node7 -->
<g id="edge38" class="edge"><title>Node16&#45;&gt;Node7</title>
<path fill="none" stroke="midnightblue" d="M980.82,-106.123C980.606,-81.2984 980.257,-40.8235 980.092,-21.6792"/>
<polygon fill="midnightblue" stroke="midnightblue" points="977.322,-106.325 980.908,-116.295 984.321,-106.265 977.322,-106.325"/>
</g>
<!-- Node16&#45;&gt;Node15 -->
<g id="edge44" class="edge"><title>Node16&#45;&gt;Node15</title>
<path fill="none" stroke="midnightblue" d="M1000.42,-109.405C1011.16,-99.6683 1024.15,-87.8914 1033.34,-79.5707"/>
<polygon fill="midnightblue" stroke="midnightblue" points="997.798,-107.053 992.739,-116.362 1002.5,-112.24 997.798,-107.053"/>
</g>
<!-- Node17 -->
<g id="node37" class="node"><title>Node17</title>
<a xlink:href="mainwindow_8cpp.html" target="_top" xlink:title="src/mainwindow.cpp">
<polygon fill="white" stroke="black" points="475,-0.5 475,-21.5 581,-21.5 581,-0.5 475,-0.5"/>
<text text-anchor="middle" x="528" y="-8.5" font-family="Helvetica,sans-Serif" font-size="10.00">src/mainwindow.cpp</text>
</a>
</g>
<!-- Node16&#45;&gt;Node17 -->
<g id="edge40" class="edge"><title>Node16&#45;&gt;Node17</title>
<path fill="none" stroke="midnightblue" d="M921.793,-124.252C809.665,-118.52 574.987,-103.813 547,-80 529.872,-65.4265 527.466,-36.9682 527.526,-21.5443"/>
<polygon fill="midnightblue" stroke="midnightblue" points="921.763,-127.754 931.926,-124.762 922.115,-120.763 921.763,-127.754"/>
</g>
<!-- Node18 -->
<g id="node39" class="node"><title>Node18</title>
<a xlink:href="sphere_8cpp.html" target="_top" xlink:title="src/sphere.cpp">
<polygon fill="white" stroke="black" points="555.5,-58.5 555.5,-79.5 636.5,-79.5 636.5,-58.5 555.5,-58.5"/>
<text text-anchor="middle" x="596" y="-66.5" font-family="Helvetica,sans-Serif" font-size="10.00">src/sphere.cpp</text>
</a>
</g>
<!-- Node16&#45;&gt;Node18 -->
<g id="edge42" class="edge"><title>Node16&#45;&gt;Node18</title>
<path fill="none" stroke="midnightblue" d="M921.519,-119.645C855.133,-111.183 744.602,-96.3367 650,-80 645.663,-79.2511 641.141,-78.4161 636.641,-77.5503"/>
<polygon fill="midnightblue" stroke="midnightblue" points="921.424,-123.161 931.785,-120.948 922.306,-116.217 921.424,-123.161"/>
</g>
<!-- Node19&#45;&gt;Node7 -->
<g id="edge48" class="edge"><title>Node19&#45;&gt;Node7</title>
<path fill="none" stroke="midnightblue" d="M340.734,-61.6218C352.781,-60.3418 365.267,-59.0776 377,-58 590.477,-38.3919 644.35,-39.6259 858,-22 881.314,-20.0766 907.117,-17.7752 928.967,-15.7757"/>
<polygon fill="midnightblue" stroke="midnightblue" points="340.311,-58.147 330.743,-62.697 341.06,-65.1068 340.311,-58.147"/>
</g>
<!-- Node19&#45;&gt;Node12 -->
<g id="edge54" class="edge"><title>Node19&#45;&gt;Node12</title>
<path fill="none" stroke="midnightblue" d="M340.936,-60.0113C426.891,-48.113 576.208,-27.4437 650.445,-17.1675"/>
<polygon fill="midnightblue" stroke="midnightblue" points="340.203,-56.5793 330.777,-61.4175 341.162,-63.5132 340.203,-56.5793"/>
</g>
<!-- Node19&#45;&gt;Node17 -->
<g id="edge50" class="edge"><title>Node19&#45;&gt;Node17</title>
<path fill="none" stroke="midnightblue" d="M331.579,-56.2081C376.827,-45.7938 439.923,-31.2716 482.279,-21.5231"/>
<polygon fill="midnightblue" stroke="midnightblue" points="330.595,-52.8428 321.635,-58.4966 332.166,-59.6644 330.595,-52.8428"/>
</g>
<!-- Node20 -->
<g id="node46" class="node"><title>Node20</title>
<a xlink:href="pyramide_8cpp.html" target="_top" xlink:title="src/pyramide.cpp">
<polygon fill="white" stroke="black" points="230,-0.5 230,-21.5 322,-21.5 322,-0.5 230,-0.5"/>
<text text-anchor="middle" x="276" y="-8.5" font-family="Helvetica,sans-Serif" font-size="10.00">src/pyramide.cpp</text>
</a>
</g>
<!-- Node19&#45;&gt;Node20 -->
<g id="edge52" class="edge"><title>Node19&#45;&gt;Node20</title>
<path fill="none" stroke="midnightblue" d="M276,-48.1906C276,-39.1684 276,-28.9941 276,-21.5707"/>
<polygon fill="midnightblue" stroke="midnightblue" points="272.5,-48.3619 276,-58.3619 279.5,-48.3619 272.5,-48.3619"/>
</g>
<!-- Node21&#45;&gt;Node7 -->
<g id="edge58" class="edge"><title>Node21&#45;&gt;Node7</title>
<path fill="none" stroke="midnightblue" d="M112.98,-57.897C442.973,-20.4538 529.807,-44.6939 858,-22 881.337,-20.3863 907.144,-18.1284 928.99,-16.0779"/>
<polygon fill="midnightblue" stroke="midnightblue" points="112.182,-54.4654 102.645,-59.0807 112.978,-61.42 112.182,-54.4654"/>
</g>
<!-- Node21&#45;&gt;Node12 -->
<g id="edge64" class="edge"><title>Node21&#45;&gt;Node12</title>
<path fill="none" stroke="midnightblue" d="M112.852,-57.8639C324.484,-31.0306 380.691,-40.8252 590,-22 609.807,-20.2186 631.686,-17.9712 650.322,-15.9729"/>
<polygon fill="midnightblue" stroke="midnightblue" points="112.13,-54.4277 102.656,-59.1696 113.02,-61.371 112.13,-54.4277"/>
</g>
<!-- Node21&#45;&gt;Node17 -->
<g id="edge62" class="edge"><title>Node21&#45;&gt;Node17</title>
<path fill="none" stroke="midnightblue" d="M112.851,-57.7964C248.753,-37.9893 397.402,-23.066 474.858,-15.8034"/>
<polygon fill="midnightblue" stroke="midnightblue" points="112.058,-54.3752 102.673,-59.2925 113.076,-61.3008 112.058,-54.3752"/>
</g>
<!-- Node22 -->
<g id="node52" class="node"><title>Node22</title>
<a xlink:href="cylinder_8cpp.html" target="_top" xlink:title="src/cylinder.cpp">
<polygon fill="white" stroke="black" points="8,-0.5 8,-21.5 94,-21.5 94,-0.5 8,-0.5"/>
<text text-anchor="middle" x="51" y="-8.5" font-family="Helvetica,sans-Serif" font-size="10.00">src/cylinder.cpp</text>
</a>
</g>
<!-- Node21&#45;&gt;Node22 -->
<g id="edge60" class="edge"><title>Node21&#45;&gt;Node22</title>
<path fill="none" stroke="midnightblue" d="M51,-48.1906C51,-39.1684 51,-28.9941 51,-21.5707"/>
<polygon fill="midnightblue" stroke="midnightblue" points="47.5001,-48.3619 51,-58.3619 54.5001,-48.3619 47.5001,-48.3619"/>
</g>
<!-- Node23&#45;&gt;Node7 -->
<g id="edge68" class="edge"><title>Node23&#45;&gt;Node7</title>
<path fill="none" stroke="midnightblue" d="M214.433,-57.9911C499.302,-20.1547 575.004,-42.6495 858,-22 881.331,-20.2976 907.137,-18.0272 928.983,-15.9913"/>
<polygon fill="midnightblue" stroke="midnightblue" points="213.657,-54.5639 204.211,-59.3627 214.588,-61.5017 213.657,-54.5639"/>
</g>
<!-- Node23&#45;&gt;Node12 -->
<g id="edge74" class="edge"><title>Node23&#45;&gt;Node12</title>
<path fill="none" stroke="midnightblue" d="M214.34,-57.9325C381.065,-32.4591 425.791,-38.4413 590,-22 609.788,-20.0187 631.664,-17.741 650.303,-15.7739"/>
<polygon fill="midnightblue" stroke="midnightblue" points="213.579,-54.5085 204.23,-59.4927 214.647,-61.4266 213.579,-54.5085"/>
</g>
<!-- Node23&#45;&gt;Node17 -->
<g id="edge72" class="edge"><title>Node23&#45;&gt;Node17</title>
<path fill="none" stroke="midnightblue" d="M214.281,-57.8474C311.746,-40.3013 414.209,-25.9413 474.881,-17.8642"/>
<polygon fill="midnightblue" stroke="midnightblue" points="213.473,-54.4368 204.259,-59.6663 214.723,-61.3243 213.473,-54.4368"/>
</g>
<!-- Node24 -->
<g id="node59" class="node"><title>Node24</title>
<a xlink:href="line_8cpp.html" target="_top" xlink:title="src/line.cpp">
<polygon fill="white" stroke="black" points="128.5,-0.5 128.5,-21.5 195.5,-21.5 195.5,-0.5 128.5,-0.5"/>
<text text-anchor="middle" x="162" y="-8.5" font-family="Helvetica,sans-Serif" font-size="10.00">src/line.cpp</text>
</a>
</g>
<!-- Node23&#45;&gt;Node24 -->
<g id="edge70" class="edge"><title>Node23&#45;&gt;Node24</title>
<path fill="none" stroke="midnightblue" d="M162,-48.1906C162,-39.1684 162,-28.9941 162,-21.5707"/>
<polygon fill="midnightblue" stroke="midnightblue" points="158.5,-48.3619 162,-58.3619 165.5,-48.3619 158.5,-48.3619"/>
</g>
<!-- Node25&#45;&gt;Node7 -->
<g id="edge78" class="edge"><title>Node25&#45;&gt;Node7</title>
<path fill="none" stroke="midnightblue" d="M798.139,-56.0766C840.117,-45.6718 898.38,-31.2306 937.545,-21.5231"/>
<polygon fill="midnightblue" stroke="midnightblue" points="797.24,-52.6935 788.376,-58.4966 798.924,-59.4879 797.24,-52.6935"/>
</g>
<!-- Node25&#45;&gt;Node12 -->
<g id="edge84" class="edge"><title>Node25&#45;&gt;Node12</title>
<path fill="none" stroke="midnightblue" d="M730.023,-50.8299C721.562,-41.2078 711.468,-29.7282 704.295,-21.5707"/>
<polygon fill="midnightblue" stroke="midnightblue" points="727.414,-53.1634 736.646,-58.3619 732.671,-48.541 727.414,-53.1634"/>
</g>
<!-- Node25&#45;&gt;Node17 -->
<g id="edge80" class="edge"><title>Node25&#45;&gt;Node17</title>
<path fill="none" stroke="midnightblue" d="M696.432,-55.8123C657.403,-45.4285 603.731,-31.1487 567.552,-21.5231"/>
<polygon fill="midnightblue" stroke="midnightblue" points="695.958,-59.3078 706.522,-58.4966 697.758,-52.5431 695.958,-59.3078"/>
</g>
<!-- Node26 -->
<g id="node67" class="node"><title>Node26</title>
<a xlink:href="rectangle_8cpp.html" target="_top" xlink:title="src/rectangle.cpp">
<polygon fill="white" stroke="black" points="757,-0.5 757,-21.5 849,-21.5 849,-0.5 757,-0.5"/>
<text text-anchor="middle" x="803" y="-8.5" font-family="Helvetica,sans-Serif" font-size="10.00">src/rectangle.cpp</text>
</a>
</g>
<!-- Node25&#45;&gt;Node26 -->
<g id="edge82" class="edge"><title>Node25&#45;&gt;Node26</title>
<path fill="none" stroke="midnightblue" d="M763.574,-51.118C773.087,-41.4377 784.514,-29.8098 792.612,-21.5707"/>
<polygon fill="midnightblue" stroke="midnightblue" points="760.968,-48.7763 756.455,-58.3619 765.96,-53.6829 760.968,-48.7763"/>
</g>
<!-- Node27&#45;&gt;Node7 -->
<g id="edge88" class="edge"><title>Node27&#45;&gt;Node7</title>
<path fill="none" stroke="midnightblue" d="M925.937,-52.2587C938.902,-42.3641 954.925,-30.1361 966.149,-21.5707"/>
<polygon fill="midnightblue" stroke="midnightblue" points="923.766,-49.5128 917.94,-58.3619 928.012,-55.0775 923.766,-49.5128"/>
</g>
<!-- Node27&#45;&gt;Node12 -->
<g id="edge94" class="edge"><title>Node27&#45;&gt;Node12</title>
<path fill="none" stroke="midnightblue" d="M856.479,-55.8123C819.061,-45.4285 767.605,-31.1487 732.919,-21.5231"/>
<polygon fill="midnightblue" stroke="midnightblue" points="855.58,-59.195 866.152,-58.4966 857.452,-52.45 855.58,-59.195"/>
</g>
<!-- Node27&#45;&gt;Node14 -->
<g id="edge92" class="edge"><title>Node27&#45;&gt;Node14</title>
<path fill="none" stroke="midnightblue" d="M952.431,-55.8123C990.564,-45.4285 1043.01,-31.1487 1078.35,-21.5231"/>
<polygon fill="midnightblue" stroke="midnightblue" points="951.302,-52.4922 942.573,-58.4966 953.141,-59.2463 951.302,-52.4922"/>
</g>
<!-- Node27&#45;&gt;Node17 -->
<g id="edge90" class="edge"><title>Node27&#45;&gt;Node17</title>
<path fill="none" stroke="midnightblue" d="M845.699,-60.0068C773.359,-48.8479 651.039,-29.9794 581.164,-19.2009"/>
<polygon fill="midnightblue" stroke="midnightblue" points="845.581,-63.5298 855.997,-61.5953 846.648,-56.6117 845.581,-63.5298"/>
</g>
<!-- Node28&#45;&gt;Node12 -->
<g id="edge104" class="edge"><title>Node28&#45;&gt;Node12</title>
<path fill="none" stroke="midnightblue" d="M501.651,-107.465C511.818,-91.9867 527.912,-70.8894 547,-58 578.167,-36.9541 619.314,-24.8888 650.31,-18.266"/>
<polygon fill="midnightblue" stroke="midnightblue" points="498.483,-105.926 496.112,-116.252 504.405,-109.659 498.483,-105.926"/>
</g>
<!-- Node28&#45;&gt;Node15 -->
<g id="edge106" class="edge"><title>Node28&#45;&gt;Node15</title>
<path fill="none" stroke="midnightblue" d="M546.605,-121.918C635.109,-113.845 811.603,-97.2318 961,-80 976.195,-78.2473 992.908,-76.1033 1007.4,-74.1751"/>
<polygon fill="midnightblue" stroke="midnightblue" points="546.155,-118.445 536.513,-122.837 546.789,-125.416 546.155,-118.445"/>
</g>
<!-- Node28&#45;&gt;Node17 -->
<g id="edge102" class="edge"><title>Node28&#45;&gt;Node17</title>
<path fill="none" stroke="midnightblue" d="M433.221,-114.376C395.894,-103.306 357.299,-84.7648 377,-58 388.881,-41.8585 436.324,-28.8413 474.902,-20.6349"/>
<polygon fill="midnightblue" stroke="midnightblue" points="432.581,-117.831 443.155,-117.165 434.473,-111.092 432.581,-117.831"/>
</g>
<!-- Node29 -->
<g id="node79" class="node"><title>Node29</title>
<a xlink:href="group_8cpp.html" target="_top" xlink:title="src/group.cpp">
<polygon fill="white" stroke="black" points="386,-58.5 386,-79.5 462,-79.5 462,-58.5 386,-58.5"/>
<text text-anchor="middle" x="424" y="-66.5" font-family="Helvetica,sans-Serif" font-size="10.00">src/group.cpp</text>
</a>
</g>
<!-- Node28&#45;&gt;Node29 -->
<g id="edge100" class="edge"><title>Node28&#45;&gt;Node29</title>
<path fill="none" stroke="midnightblue" d="M470.303,-109.691C459.162,-99.8996 445.59,-87.973 436.029,-79.5707"/>
<polygon fill="midnightblue" stroke="midnightblue" points="468.072,-112.39 477.895,-116.362 472.693,-107.132 468.072,-112.39"/>
</g>
<!-- Node30&#45;&gt;Node6 -->
<g id="edge110" class="edge"><title>Node30&#45;&gt;Node6</title>
<path fill="none" stroke="midnightblue" d="M1519.84,-164.79C1529.45,-140.029 1545.36,-98.996 1552.86,-79.6792"/>
<polygon fill="midnightblue" stroke="midnightblue" points="1516.51,-163.706 1516.15,-174.295 1523.03,-166.238 1516.51,-163.706"/>
</g>
<!-- Node30&#45;&gt;Node15 -->
<g id="edge112" class="edge"><title>Node30&#45;&gt;Node15</title>
<path fill="none" stroke="midnightblue" d="M1455.73,-183.768C1357.8,-180.778 1160.76,-170.759 1101,-138 1076.38,-124.503 1058.46,-95.3221 1050.16,-79.5798"/>
<polygon fill="midnightblue" stroke="midnightblue" points="1455.64,-187.267 1465.74,-184.06 1455.85,-180.27 1455.64,-187.267"/>
</g>
<!-- Node31&#45;&gt;Node7 -->
<g id="edge118" class="edge"><title>Node31&#45;&gt;Node7</title>
<path fill="none" stroke="midnightblue" d="M1183.53,-111.179C1206.09,-97.4225 1230.41,-76.8014 1215,-58 1203.39,-43.8425 1096.67,-26.9367 1031.1,-17.7532"/>
<polygon fill="midnightblue" stroke="midnightblue" points="1181.64,-108.232 1174.74,-116.274 1185.15,-114.289 1181.64,-108.232"/>
</g>
<!-- Node31&#45;&gt;Node10 -->
<g id="edge130" class="edge"><title>Node31&#45;&gt;Node10</title>
<path fill="none" stroke="midnightblue" d="M1206.91,-122.789C1247.02,-117.586 1301.72,-105.962 1343,-80 1366.68,-65.1099 1385.24,-37.0464 1394.17,-21.6961"/>
<polygon fill="midnightblue" stroke="midnightblue" points="1206.29,-119.337 1196.78,-124.007 1207.13,-126.287 1206.29,-119.337"/>
</g>
<!-- Node31&#45;&gt;Node12 -->
<g id="edge134" class="edge"><title>Node31&#45;&gt;Node12</title>
<path fill="none" stroke="midnightblue" d="M1099.31,-121.184C1024.36,-112.649 892.453,-96.0069 847,-80 828.593,-73.5177 826.505,-66.6273 809,-58 780.581,-43.9932 746.919,-30.473 723.575,-21.5583"/>
<polygon fill="midnightblue" stroke="midnightblue" points="1099.17,-124.689 1109.5,-122.333 1099.95,-117.733 1099.17,-124.689"/>
</g>
<!-- Node31&#45;&gt;Node15 -->
<g id="edge136" class="edge"><title>Node31&#45;&gt;Node15</title>
<path fill="none" stroke="midnightblue" d="M1124.43,-111.656C1105.62,-101.556 1081.48,-88.5928 1064.78,-79.6212"/>
<polygon fill="midnightblue" stroke="midnightblue" points="1122.98,-114.849 1133.44,-116.497 1126.29,-108.682 1122.98,-114.849"/>
</g>
<!-- Node31&#45;&gt;Node17 -->
<g id="edge132" class="edge"><title>Node31&#45;&gt;Node17</title>
<path fill="none" stroke="midnightblue" d="M1099.06,-121.754C976.63,-109.828 687.917,-81.5872 683,-80 664.428,-74.0053 662.543,-66.5479 645,-58 616.073,-43.9054 581.788,-30.5004 557.838,-21.6404"/>
<polygon fill="midnightblue" stroke="midnightblue" points="1099.04,-125.268 1109.33,-122.754 1099.71,-118.301 1099.04,-125.268"/>
</g>
<!-- Node32 -->
<g id="node92" class="node"><title>Node32</title>
<a xlink:href="spotlight_8hpp.html" target="_top" xlink:title="include/spotlight.hpp">
<polygon fill="white" stroke="black" points="1100,-58.5 1100,-79.5 1206,-79.5 1206,-58.5 1100,-58.5"/>
<text text-anchor="middle" x="1153" y="-66.5" font-family="Helvetica,sans-Serif" font-size="10.00">include/spotlight.hpp</text>
</a>
</g>
<!-- Node31&#45;&gt;Node32 -->
<g id="edge120" class="edge"><title>Node31&#45;&gt;Node32</title>
<path fill="none" stroke="midnightblue" d="M1153,-106.191C1153,-97.1684 1153,-86.9941 1153,-79.5707"/>
<polygon fill="midnightblue" stroke="midnightblue" points="1149.5,-106.362 1153,-116.362 1156.5,-106.362 1149.5,-106.362"/>
</g>
<!-- Node32&#45;&gt;Node7 -->
<g id="edge122" class="edge"><title>Node32&#45;&gt;Node7</title>
<path fill="none" stroke="midnightblue" d="M1112.07,-55.2787C1081.25,-44.9437 1039.61,-30.9849 1011.39,-21.5231"/>
<polygon fill="midnightblue" stroke="midnightblue" points="1111.08,-58.6363 1121.67,-58.4966 1113.3,-51.9994 1111.08,-58.6363"/>
</g>
<!-- Node32&#45;&gt;Node11 -->
<g id="edge126" class="edge"><title>Node32&#45;&gt;Node11</title>
<path fill="none" stroke="midnightblue" d="M1184.41,-54.0693C1205.77,-43.9121 1233.53,-30.7157 1252.66,-21.6212"/>
<polygon fill="midnightblue" stroke="midnightblue" points="1182.62,-51.042 1175.09,-58.4966 1185.63,-57.364 1182.62,-51.042"/>
</g>
<!-- Node32&#45;&gt;Node12 -->
<g id="edge128" class="edge"><title>Node32&#45;&gt;Node12</title>
<path fill="none" stroke="midnightblue" d="M1089.75,-57.9087C937.459,-36.9699 896.2,-45.0971 748,-22 745.307,-21.5803 742.544,-21.1146 739.762,-20.6186"/>
<polygon fill="midnightblue" stroke="midnightblue" points="1089.55,-61.4155 1099.94,-59.3306 1090.52,-54.4826 1089.55,-61.4155"/>
</g>
<!-- Node32&#45;&gt;Node17 -->
<g id="edge124" class="edge"><title>Node32&#45;&gt;Node17</title>
<path fill="none" stroke="midnightblue" d="M1089.74,-57.9393C890.702,-32.7145 838.109,-39.3221 642,-22 622.094,-20.2418 600.249,-18.1687 581.053,-16.299"/>
<polygon fill="midnightblue" stroke="midnightblue" points="1089.59,-61.4478 1099.95,-59.2443 1090.48,-54.5043 1089.59,-61.4478"/>
</g>
<!-- Node33&#45;&gt;Node6 -->
<g id="edge140" class="edge"><title>Node33&#45;&gt;Node6</title>
<path fill="none" stroke="midnightblue" d="M1606.46,-222.679C1594.55,-185.674 1569.71,-108.483 1560.52,-79.9277"/>
<polygon fill="midnightblue" stroke="midnightblue" points="1603.19,-223.931 1609.58,-232.377 1609.85,-221.786 1603.19,-223.931"/>
</g>
<!-- Node34 -->
<g id="node105" class="node"><title>Node34</title>
<a xlink:href="camera_8cpp.html" target="_top" xlink:title="src/camera.cpp">
<polygon fill="white" stroke="black" points="1666,-174.5 1666,-195.5 1750,-195.5 1750,-174.5 1666,-174.5"/>
<text text-anchor="middle" x="1708" y="-182.5" font-family="Helvetica,sans-Serif" font-size="10.00">src/camera.cpp</text>
</a>
</g>
<!-- Node33&#45;&gt;Node34 -->
<g id="edge142" class="edge"><title>Node33&#45;&gt;Node34</title>
<path fill="none" stroke="midnightblue" d="M1639.04,-227.101C1655.48,-217.066 1676.26,-204.381 1690.69,-195.571"/>
<polygon fill="midnightblue" stroke="midnightblue" points="1637.14,-224.164 1630.42,-232.362 1640.78,-230.138 1637.14,-224.164"/>
</g>
<!-- Node35&#45;&gt;Node4 -->
<g id="edge148" class="edge"><title>Node35&#45;&gt;Node4</title>
<path fill="none" stroke="midnightblue" d="M943,-222.191C943,-213.168 943,-202.994 943,-195.571"/>
<polygon fill="midnightblue" stroke="midnightblue" points="939.5,-222.362 943,-232.362 946.5,-222.362 939.5,-222.362"/>
</g>
<!-- Node36 -->
<g id="node111" class="node"><title>Node36</title>
<a xlink:href="material_8cpp.html" target="_top" xlink:title="src/material.cpp">
<polygon fill="white" stroke="black" points="784,-174.5 784,-195.5 870,-195.5 870,-174.5 784,-174.5"/>
<text text-anchor="middle" x="827" y="-182.5" font-family="Helvetica,sans-Serif" font-size="10.00">src/material.cpp</text>
</a>
</g>
<!-- Node35&#45;&gt;Node36 -->
<g id="edge150" class="edge"><title>Node35&#45;&gt;Node36</title>
<path fill="none" stroke="midnightblue" d="M912.864,-227.932C892.586,-217.793 866.35,-204.675 848.242,-195.621"/>
<polygon fill="midnightblue" stroke="midnightblue" points="911.484,-231.155 921.993,-232.497 914.614,-224.894 911.484,-231.155"/>
</g>
</g>
</svg>
