<?xml version="1.0" encoding="UTF-8" standalone="no"?>
<!DOCTYPE svg PUBLIC "-//W3C//DTD SVG 1.1//EN"
 "http://www.w3.org/Graphics/SVG/1.1/DTD/svg11.dtd">
<!-- Generated by graphviz version 2.26.3 (20100126.1600)
 -->
<!-- Title: include/group.hpp Pages: 1 -->
<svg width="406pt" height="88pt"
 viewBox="0.00 0.00 406.00 88.00" xmlns="http://www.w3.org/2000/svg" xmlns:xlink="http://www.w3.org/1999/xlink">
<g id="graph1" class="graph" transform="scale(1 1) rotate(0) translate(4 84)">
<title>include/group.hpp</title>
<polygon fill="white" stroke="white" points="-4,5 -4,-84 403,-84 403,5 -4,5"/>
<!-- Node1 -->
<g id="node1" class="node"><title>Node1</title>
<polygon fill="#bfbfbf" stroke="black" points="157.5,-58.5 157.5,-79.5 250.5,-79.5 250.5,-58.5 157.5,-58.5"/>
<text text-anchor="middle" x="204" y="-66.5" font-family="Helvetica,sans-Serif" font-size="10.00">include/group.hpp</text>
</g>
<!-- Node2 -->
<g id="node3" class="node"><title>Node2</title>
<a xlink:href="group_8cpp.html" target="_top" xlink:title="src/group.cpp">
<polygon fill="white" stroke="black" points="0,-0.5 0,-21.5 76,-21.5 76,-0.5 0,-0.5"/>
<text text-anchor="middle" x="38" y="-8.5" font-family="Helvetica,sans-Serif" font-size="10.00">src/group.cpp</text>
</a>
</g>
<!-- Node1&#45;&gt;Node2 -->
<g id="edge2" class="edge"><title>Node1&#45;&gt;Node2</title>
<path fill="none" stroke="midnightblue" d="M164.344,-55.1443C134.804,-44.8229 95.0809,-30.9439 68.1177,-21.5231"/>
<polygon fill="midnightblue" stroke="midnightblue" points="163.344,-58.5023 173.939,-58.4966 165.653,-51.894 163.344,-58.5023"/>
</g>
<!-- Node3 -->
<g id="node5" class="node"><title>Node3</title>
<a xlink:href="mainwindow_8cpp.html" target="_top" xlink:title="src/mainwindow.cpp">
<polygon fill="white" stroke="black" points="94,-0.5 94,-21.5 200,-21.5 200,-0.5 94,-0.5"/>
<text text-anchor="middle" x="147" y="-8.5" font-family="Helvetica,sans-Serif" font-size="10.00">src/mainwindow.cpp</text>
</a>
</g>
<!-- Node1&#45;&gt;Node3 -->
<g id="edge4" class="edge"><title>Node1&#45;&gt;Node3</title>
<path fill="none" stroke="midnightblue" d="M186.426,-51.118C176.913,-41.4377 165.486,-29.8098 157.388,-21.5707"/>
<polygon fill="midnightblue" stroke="midnightblue" points="184.04,-53.6829 193.545,-58.3619 189.032,-48.7763 184.04,-53.6829"/>
</g>
<!-- Node4 -->
<g id="node7" class="node"><title>Node4</title>
<a xlink:href="viewport_8cpp.html" target="_top" xlink:title="src/viewport.cpp">
<polygon fill="white" stroke="black" points="217.5,-0.5 217.5,-21.5 306.5,-21.5 306.5,-0.5 217.5,-0.5"/>
<text text-anchor="middle" x="262" y="-8.5" font-family="Helvetica,sans-Serif" font-size="10.00">src/viewport.cpp</text>
</a>
</g>
<!-- Node1&#45;&gt;Node4 -->
<g id="edge6" class="edge"><title>Node1&#45;&gt;Node4</title>
<path fill="none" stroke="midnightblue" d="M221.882,-51.118C231.562,-41.4377 243.19,-29.8098 251.429,-21.5707"/>
<polygon fill="midnightblue" stroke="midnightblue" points="219.234,-48.8159 214.638,-58.3619 224.184,-53.7657 219.234,-48.8159"/>
</g>
<!-- Node5 -->
<g id="node9" class="node"><title>Node5</title>
<a xlink:href="world_8cpp.html" target="_top" xlink:title="src/world.cpp">
<polygon fill="white" stroke="black" points="323.5,-0.5 323.5,-21.5 398.5,-21.5 398.5,-0.5 323.5,-0.5"/>
<text text-anchor="middle" x="361" y="-8.5" font-family="Helvetica,sans-Serif" font-size="10.00">src/world.cpp</text>
</a>
</g>
<!-- Node1&#45;&gt;Node5 -->
<g id="edge8" class="edge"><title>Node1&#45;&gt;Node5</title>
<path fill="none" stroke="midnightblue" d="M241.871,-55.0095C269.771,-44.7023 307.125,-30.903 332.515,-21.5231"/>
<polygon fill="midnightblue" stroke="midnightblue" points="240.599,-51.7481 232.432,-58.4966 243.025,-58.3143 240.599,-51.7481"/>
</g>
</g>
</svg>
