<?xml version="1.0" encoding="UTF-8" standalone="no"?>
<!DOCTYPE svg PUBLIC "-//W3C//DTD SVG 1.1//EN"
 "http://www.w3.org/Graphics/SVG/1.1/DTD/svg11.dtd">
<!-- Generated by graphviz version 2.26.3 (20100126.1600)
 -->
<!-- Title: src/group.cpp Pages: 1 -->
<svg width="945pt" height="320pt"
 viewBox="0.00 0.00 945.40 320.00" xmlns="http://www.w3.org/2000/svg" xmlns:xlink="http://www.w3.org/1999/xlink">
<g id="graph1" class="graph" transform="scale(1 1) rotate(0) translate(4 316)">
<title>src/group.cpp</title>
<polygon fill="white" stroke="white" points="-4,5 -4,-316 942.399,-316 942.399,5 -4,5"/>
<!-- Node1 -->
<g id="node1" class="node"><title>Node1</title>
<polygon fill="#bfbfbf" stroke="black" points="483.399,-290.5 483.399,-311.5 559.399,-311.5 559.399,-290.5 483.399,-290.5"/>
<text text-anchor="middle" x="521.399" y="-298.5" font-family="Helvetica,sans-Serif" font-size="10.00">src/group.cpp</text>
</g>
<!-- Node2 -->
<g id="node3" class="node"><title>Node2</title>
<a xlink:href="group_8hpp.html" target="_top" xlink:title="group.hpp">
<polygon fill="white" stroke="black" points="491.899,-232.5 491.899,-253.5 550.899,-253.5 550.899,-232.5 491.899,-232.5"/>
<text text-anchor="middle" x="521.399" y="-240.5" font-family="Helvetica,sans-Serif" font-size="10.00">group.hpp</text>
</a>
</g>
<!-- Node1&#45;&gt;Node2 -->
<g id="edge2" class="edge"><title>Node1&#45;&gt;Node2</title>
<path fill="none" stroke="midnightblue" d="M521.399,-290.362C521.399,-282.922 521.399,-272.743 521.399,-263.728"/>
<polygon fill="midnightblue" stroke="midnightblue" points="524.9,-263.571 521.399,-253.571 517.9,-263.571 524.9,-263.571"/>
</g>
<!-- Node3 -->
<g id="node5" class="node"><title>Node3</title>
<polygon fill="white" stroke="#bfbfbf" points="453.899,-174.5 453.899,-195.5 506.899,-195.5 506.899,-174.5 453.899,-174.5"/>
<text text-anchor="middle" x="480.399" y="-182.5" font-family="Helvetica,sans-Serif" font-size="10.00">QVector</text>
</g>
<!-- Node2&#45;&gt;Node3 -->
<g id="edge4" class="edge"><title>Node2&#45;&gt;Node3</title>
<path fill="none" stroke="midnightblue" d="M513.879,-232.362C508.273,-224.431 500.467,-213.389 493.803,-203.961"/>
<polygon fill="midnightblue" stroke="midnightblue" points="496.502,-201.716 487.872,-195.571 490.786,-205.757 496.502,-201.716"/>
</g>
<!-- Node4 -->
<g id="node7" class="node"><title>Node4</title>
<a xlink:href="geometry_8hpp.html" target="_top" xlink:title="geometry.hpp">
<polygon fill="white" stroke="black" points="524.399,-174.5 524.399,-195.5 600.399,-195.5 600.399,-174.5 524.399,-174.5"/>
<text text-anchor="middle" x="562.399" y="-182.5" font-family="Helvetica,sans-Serif" font-size="10.00">geometry.hpp</text>
</a>
</g>
<!-- Node2&#45;&gt;Node4 -->
<g id="edge6" class="edge"><title>Node2&#45;&gt;Node4</title>
<path fill="none" stroke="midnightblue" d="M528.919,-232.362C534.526,-224.431 542.332,-213.389 548.996,-203.961"/>
<polygon fill="midnightblue" stroke="midnightblue" points="552.013,-205.757 554.927,-195.571 546.297,-201.716 552.013,-205.757"/>
</g>
<!-- Node5 -->
<g id="node9" class="node"><title>Node5</title>
<polygon fill="white" stroke="#bfbfbf" points="652.899,-0.5 652.899,-21.5 705.899,-21.5 705.899,-0.5 652.899,-0.5"/>
<text text-anchor="middle" x="679.399" y="-8.5" font-family="Helvetica,sans-Serif" font-size="10.00">QObject</text>
</g>
<!-- Node4&#45;&gt;Node5 -->
<g id="edge8" class="edge"><title>Node4&#45;&gt;Node5</title>
<path fill="none" stroke="midnightblue" d="M600.479,-178.988C642.474,-171.489 706.027,-157.27 720.399,-138 745.165,-104.795 715.34,-56.0253 695.097,-29.6276"/>
<polygon fill="midnightblue" stroke="midnightblue" points="697.66,-27.2283 688.692,-21.5878 692.185,-31.5901 697.66,-27.2283"/>
</g>
<!-- Node6 -->
<g id="node11" class="node"><title>Node6</title>
<polygon fill="white" stroke="#bfbfbf" points="188.899,-0.5 188.899,-21.5 253.899,-21.5 253.899,-0.5 188.899,-0.5"/>
<text text-anchor="middle" x="221.399" y="-8.5" font-family="Helvetica,sans-Serif" font-size="10.00">QVector3D</text>
</g>
<!-- Node4&#45;&gt;Node6 -->
<g id="edge10" class="edge"><title>Node4&#45;&gt;Node6</title>
<path fill="none" stroke="midnightblue" d="M524.276,-175.558C521.283,-174.975 518.298,-174.446 515.399,-174 410.334,-157.84 126.243,-197.863 38.3994,-138 7.27007,-116.786 -13.1646,-87.3904 10.3994,-58 31.0756,-32.2114 123.196,-19.6598 178.653,-14.3386"/>
<polygon fill="midnightblue" stroke="midnightblue" points="179.252,-17.7984 188.89,-13.3982 178.612,-10.8277 179.252,-17.7984"/>
</g>
<!-- Node7 -->
<g id="node13" class="node"><title>Node7</title>
<polygon fill="white" stroke="#bfbfbf" points="18.8994,-58.5 18.8994,-79.5 121.899,-79.5 121.899,-58.5 18.8994,-58.5"/>
<text text-anchor="middle" x="70.3994" y="-66.5" font-family="Helvetica,sans-Serif" font-size="10.00">QOpenGLFunctions</text>
</g>
<!-- Node4&#45;&gt;Node7 -->
<g id="edge12" class="edge"><title>Node4&#45;&gt;Node7</title>
<path fill="none" stroke="midnightblue" d="M524.275,-175.563C521.283,-174.98 518.298,-174.448 515.399,-174 463.968,-166.047 83.7568,-176.188 48.3994,-138 35.6889,-124.272 45.1865,-103.192 55.3699,-87.9438"/>
<polygon fill="midnightblue" stroke="midnightblue" points="58.2751,-89.8988 61.2822,-79.7397 52.5961,-85.8062 58.2751,-89.8988"/>
</g>
<!-- Node8 -->
<g id="node15" class="node"><title>Node8</title>
<polygon fill="white" stroke="#bfbfbf" points="131.399,-116.5 131.399,-137.5 259.399,-137.5 259.399,-116.5 131.399,-116.5"/>
<text text-anchor="middle" x="195.399" y="-124.5" font-family="Helvetica,sans-Serif" font-size="10.00">QOpenGLShaderProgram</text>
</g>
<!-- Node4&#45;&gt;Node8 -->
<g id="edge14" class="edge"><title>Node4&#45;&gt;Node8</title>
<path fill="none" stroke="midnightblue" d="M524.238,-175.782C521.254,-175.149 518.281,-174.546 515.399,-174 409.596,-153.946 379.864,-154.229 269.69,-138.175"/>
<polygon fill="midnightblue" stroke="midnightblue" points="269.894,-134.667 259.491,-136.676 268.876,-141.593 269.894,-134.667"/>
</g>
<!-- Node9 -->
<g id="node17" class="node"><title>Node9</title>
<polygon fill="white" stroke="#bfbfbf" points="277.399,-116.5 277.399,-137.5 363.399,-137.5 363.399,-116.5 277.399,-116.5"/>
<text text-anchor="middle" x="320.399" y="-124.5" font-family="Helvetica,sans-Serif" font-size="10.00">QOpenGLBuffer</text>
</g>
<!-- Node4&#45;&gt;Node9 -->
<g id="edge16" class="edge"><title>Node4&#45;&gt;Node9</title>
<path fill="none" stroke="midnightblue" d="M524.321,-175.874C483.732,-166.146 419.156,-150.669 373.564,-139.742"/>
<polygon fill="midnightblue" stroke="midnightblue" points="374.104,-136.272 363.564,-137.345 372.473,-143.08 374.104,-136.272"/>
</g>
<!-- Node10 -->
<g id="node19" class="node"><title>Node10</title>
<polygon fill="white" stroke="#bfbfbf" points="381.399,-116.5 381.399,-137.5 521.399,-137.5 521.399,-116.5 381.399,-116.5"/>
<text text-anchor="middle" x="451.399" y="-124.5" font-family="Helvetica,sans-Serif" font-size="10.00">QOpenGLVertexArrayObject</text>
</g>
<!-- Node4&#45;&gt;Node10 -->
<g id="edge18" class="edge"><title>Node4&#45;&gt;Node10</title>
<path fill="none" stroke="midnightblue" d="M542.298,-174.497C525.118,-165.519 500.17,-152.484 480.755,-142.339"/>
<polygon fill="midnightblue" stroke="midnightblue" points="482.21,-139.15 471.726,-137.621 478.968,-145.354 482.21,-139.15"/>
</g>
<!-- Node11 -->
<g id="node21" class="node"><title>Node11</title>
<polygon fill="white" stroke="#bfbfbf" points="538.899,-116.5 538.899,-137.5 585.899,-137.5 585.899,-116.5 538.899,-116.5"/>
<text text-anchor="middle" x="562.399" y="-124.5" font-family="Helvetica,sans-Serif" font-size="10.00">QColor</text>
</g>
<!-- Node4&#45;&gt;Node11 -->
<g id="edge20" class="edge"><title>Node4&#45;&gt;Node11</title>
<path fill="none" stroke="midnightblue" d="M562.399,-174.362C562.399,-166.922 562.399,-156.743 562.399,-147.728"/>
<polygon fill="midnightblue" stroke="midnightblue" points="565.9,-147.571 562.399,-137.571 558.9,-147.571 565.9,-147.571"/>
</g>
<!-- Node12 -->
<g id="node23" class="node"><title>Node12</title>
<a xlink:href="globals_8hpp.html" target="_top" xlink:title="Definitions globales. ">
<polygon fill="white" stroke="black" points="578.399,-58.5 578.399,-79.5 644.399,-79.5 644.399,-58.5 578.399,-58.5"/>
<text text-anchor="middle" x="611.399" y="-66.5" font-family="Helvetica,sans-Serif" font-size="10.00">globals.hpp</text>
</a>
</g>
<!-- Node4&#45;&gt;Node12 -->
<g id="edge22" class="edge"><title>Node4&#45;&gt;Node12</title>
<path fill="none" stroke="midnightblue" d="M571.212,-174.454C578.417,-165.334 588.366,-151.522 594.399,-138 601.301,-122.531 605.69,-103.808 608.276,-89.7703"/>
<polygon fill="midnightblue" stroke="midnightblue" points="611.767,-90.1111 609.976,-79.6688 604.865,-88.9488 611.767,-90.1111"/>
</g>
<!-- Node15 -->
<g id="node31" class="node"><title>Node15</title>
<a xlink:href="actor_8hpp.html" target="_top" xlink:title="actor.hpp">
<polygon fill="white" stroke="black" points="56.8994,-116.5 56.8994,-137.5 113.899,-137.5 113.899,-116.5 56.8994,-116.5"/>
<text text-anchor="middle" x="85.3994" y="-124.5" font-family="Helvetica,sans-Serif" font-size="10.00">actor.hpp</text>
</a>
</g>
<!-- Node4&#45;&gt;Node15 -->
<g id="edge32" class="edge"><title>Node4&#45;&gt;Node15</title>
<path fill="none" stroke="midnightblue" d="M524.268,-175.609C521.277,-175.016 518.295,-174.469 515.399,-174 345.472,-146.468 296.446,-170.236 123.867,-137.984"/>
<polygon fill="midnightblue" stroke="midnightblue" points="124.423,-134.527 113.944,-136.094 123.113,-141.403 124.423,-134.527"/>
</g>
<!-- Node18 -->
<g id="node39" class="node"><title>Node18</title>
<a xlink:href="material_8hpp.html" target="_top" xlink:title="material.hpp">
<polygon fill="white" stroke="black" points="641.399,-116.5 641.399,-137.5 711.399,-137.5 711.399,-116.5 641.399,-116.5"/>
<text text-anchor="middle" x="676.399" y="-124.5" font-family="Helvetica,sans-Serif" font-size="10.00">material.hpp</text>
</a>
</g>
<!-- Node4&#45;&gt;Node18 -->
<g id="edge42" class="edge"><title>Node4&#45;&gt;Node18</title>
<path fill="none" stroke="midnightblue" d="M583.044,-174.497C600.769,-165.479 626.544,-152.365 646.522,-142.201"/>
<polygon fill="midnightblue" stroke="midnightblue" points="648.198,-145.275 655.523,-137.621 645.023,-139.036 648.198,-145.275"/>
</g>
<!-- Node19 -->
<g id="node44" class="node"><title>Node19</title>
<polygon fill="white" stroke="#bfbfbf" points="767.399,-116.5 767.399,-137.5 819.399,-137.5 819.399,-116.5 767.399,-116.5"/>
<text text-anchor="middle" x="793.399" y="-124.5" font-family="Helvetica,sans-Serif" font-size="10.00">memory</text>
</g>
<!-- Node4&#45;&gt;Node19 -->
<g id="edge50" class="edge"><title>Node4&#45;&gt;Node19</title>
<path fill="none" stroke="midnightblue" d="M600.527,-175.939C639.135,-166.689 700.526,-151.773 753.399,-138 754.654,-137.673 755.93,-137.338 757.218,-136.997"/>
<polygon fill="midnightblue" stroke="midnightblue" points="758.428,-140.296 767.177,-134.321 756.611,-133.536 758.428,-140.296"/>
</g>
<!-- Node20 -->
<g id="node46" class="node"><title>Node20</title>
<polygon fill="white" stroke="#bfbfbf" points="837.399,-116.5 837.399,-137.5 881.399,-137.5 881.399,-116.5 837.399,-116.5"/>
<text text-anchor="middle" x="859.399" y="-124.5" font-family="Helvetica,sans-Serif" font-size="10.00">vector</text>
</g>
<!-- Node4&#45;&gt;Node20 -->
<g id="edge52" class="edge"><title>Node4&#45;&gt;Node20</title>
<path fill="none" stroke="midnightblue" d="M600.713,-180.267C650.861,-173.629 741.543,-160.106 827.297,-137.977"/>
<polygon fill="midnightblue" stroke="midnightblue" points="828.404,-141.305 837.187,-135.38 826.626,-134.534 828.404,-141.305"/>
</g>
<!-- Node21 -->
<g id="node48" class="node"><title>Node21</title>
<polygon fill="white" stroke="#bfbfbf" points="899.399,-116.5 899.399,-137.5 937.399,-137.5 937.399,-116.5 899.399,-116.5"/>
<text text-anchor="middle" x="918.399" y="-124.5" font-family="Helvetica,sans-Serif" font-size="10.00">tuple</text>
</g>
<!-- Node4&#45;&gt;Node21 -->
<g id="edge54" class="edge"><title>Node4&#45;&gt;Node21</title>
<path fill="none" stroke="midnightblue" d="M600.601,-182.414C660.564,-177.733 780.361,-165.873 889.468,-137.763"/>
<polygon fill="midnightblue" stroke="midnightblue" points="890.535,-141.102 899.316,-135.173 888.754,-134.332 890.535,-141.102"/>
</g>
<!-- Node12&#45;&gt;Node5 -->
<g id="edge24" class="edge"><title>Node12&#45;&gt;Node5</title>
<path fill="none" stroke="midnightblue" d="M623.872,-58.3619C633.745,-49.9408 647.732,-38.0105 659.198,-28.2308"/>
<polygon fill="midnightblue" stroke="midnightblue" points="661.669,-30.7231 667.006,-21.5707 657.127,-25.3972 661.669,-30.7231"/>
</g>
<!-- Node12&#45;&gt;Node6 -->
<g id="edge28" class="edge"><title>Node12&#45;&gt;Node6</title>
<path fill="none" stroke="midnightblue" d="M578.148,-64.055C507.456,-53.5417 342.308,-28.9813 264.02,-17.3384"/>
<polygon fill="midnightblue" stroke="midnightblue" points="264.422,-13.8599 254.016,-15.8507 263.393,-20.7837 264.422,-13.8599"/>
</g>
<!-- Node13 -->
<g id="node26" class="node"><title>Node13</title>
<polygon fill="white" stroke="#bfbfbf" points="498.899,-0.5 498.899,-21.5 569.899,-21.5 569.899,-0.5 498.899,-0.5"/>
<text text-anchor="middle" x="534.399" y="-8.5" font-family="Helvetica,sans-Serif" font-size="10.00">QQuaternion</text>
</g>
<!-- Node12&#45;&gt;Node13 -->
<g id="edge26" class="edge"><title>Node12&#45;&gt;Node13</title>
<path fill="none" stroke="midnightblue" d="M597.276,-58.3619C585.88,-49.7773 569.641,-37.5459 556.522,-27.6636"/>
<polygon fill="midnightblue" stroke="midnightblue" points="558.526,-24.7916 548.433,-21.5707 554.315,-30.3829 558.526,-24.7916"/>
</g>
<!-- Node14 -->
<g id="node29" class="node"><title>Node14</title>
<polygon fill="white" stroke="#bfbfbf" points="586.899,-0.5 586.899,-21.5 635.899,-21.5 635.899,-0.5 586.899,-0.5"/>
<text text-anchor="middle" x="611.399" y="-8.5" font-family="Helvetica,sans-Serif" font-size="10.00">QtMath</text>
</g>
<!-- Node12&#45;&gt;Node14 -->
<g id="edge30" class="edge"><title>Node12&#45;&gt;Node14</title>
<path fill="none" stroke="midnightblue" d="M611.399,-58.3619C611.399,-50.9219 611.399,-40.7427 611.399,-31.7276"/>
<polygon fill="midnightblue" stroke="midnightblue" points="614.9,-31.5706 611.399,-21.5707 607.9,-31.5707 614.9,-31.5706"/>
</g>
<!-- Node15&#45;&gt;Node7 -->
<g id="edge38" class="edge"><title>Node15&#45;&gt;Node7</title>
<path fill="none" stroke="midnightblue" d="M82.6482,-116.362C80.7029,-108.84 78.0336,-98.5187 75.6832,-89.4308"/>
<polygon fill="midnightblue" stroke="midnightblue" points="79.0256,-88.3758 73.1332,-79.5707 72.2486,-90.1285 79.0256,-88.3758"/>
</g>
<!-- Node15&#45;&gt;Node12 -->
<g id="edge34" class="edge"><title>Node15&#45;&gt;Node12</title>
<path fill="none" stroke="midnightblue" d="M113.947,-117.919C116.785,-117.196 119.637,-116.538 122.399,-116 207.38,-99.4452 465.134,-79.5873 568.167,-72.0779"/>
<polygon fill="midnightblue" stroke="midnightblue" points="568.501,-75.563 578.222,-71.3486 567.995,-68.5813 568.501,-75.563"/>
</g>
<!-- Node16 -->
<g id="node34" class="node"><title>Node16</title>
<polygon fill="white" stroke="#bfbfbf" points="138.899,-58.5 138.899,-79.5 205.899,-79.5 205.899,-58.5 138.899,-58.5"/>
<text text-anchor="middle" x="172.399" y="-66.5" font-family="Helvetica,sans-Serif" font-size="10.00">QMatrix4x4</text>
</g>
<!-- Node15&#45;&gt;Node16 -->
<g id="edge36" class="edge"><title>Node15&#45;&gt;Node16</title>
<path fill="none" stroke="midnightblue" d="M101.357,-116.362C114.356,-107.696 132.931,-95.3126 147.827,-85.3819"/>
<polygon fill="midnightblue" stroke="midnightblue" points="150.164,-88.0299 156.543,-79.5707 146.281,-82.2055 150.164,-88.0299"/>
</g>
<!-- Node17 -->
<g id="node37" class="node"><title>Node17</title>
<polygon fill="white" stroke="#bfbfbf" points="350.899,-58.5 350.899,-79.5 433.899,-79.5 433.899,-58.5 350.899,-58.5"/>
<text text-anchor="middle" x="392.399" y="-66.5" font-family="Helvetica,sans-Serif" font-size="10.00">QMetaProperty</text>
</g>
<!-- Node15&#45;&gt;Node17 -->
<g id="edge40" class="edge"><title>Node15&#45;&gt;Node17</title>
<path fill="none" stroke="midnightblue" d="M113.994,-118.14C116.822,-117.372 119.659,-116.643 122.399,-116 197.463,-98.3719 285.688,-84.2279 340.331,-76.2209"/>
<polygon fill="midnightblue" stroke="midnightblue" points="341.072,-79.6502 350.465,-74.75 340.066,-72.7228 341.072,-79.6502"/>
</g>
<!-- Node18&#45;&gt;Node5 -->
<g id="edge44" class="edge"><title>Node18&#45;&gt;Node5</title>
<path fill="none" stroke="midnightblue" d="M676.676,-116.295C677.172,-97.1314 678.219,-56.654 678.86,-31.8434"/>
<polygon fill="midnightblue" stroke="midnightblue" points="682.363,-31.7664 679.123,-21.6792 675.366,-31.5853 682.363,-31.7664"/>
</g>
<!-- Node18&#45;&gt;Node12 -->
<g id="edge46" class="edge"><title>Node18&#45;&gt;Node12</title>
<path fill="none" stroke="midnightblue" d="M664.477,-116.362C655.04,-107.941 641.67,-96.0105 630.71,-86.2308"/>
<polygon fill="midnightblue" stroke="midnightblue" points="633.038,-83.6171 623.246,-79.5707 628.377,-88.8401 633.038,-83.6171"/>
</g>
<!-- Node18&#45;&gt;Node17 -->
<g id="edge48" class="edge"><title>Node18&#45;&gt;Node17</title>
<path fill="none" stroke="midnightblue" d="M641.291,-119.83C591.87,-109.737 501.449,-91.2708 444.268,-79.5928"/>
<polygon fill="midnightblue" stroke="midnightblue" points="444.842,-76.1378 434.343,-77.566 443.441,-82.9963 444.842,-76.1378"/>
</g>
</g>
</svg>
