<?xml version="1.0" encoding="UTF-8" standalone="no"?>
<!DOCTYPE svg PUBLIC "-//W3C//DTD SVG 1.1//EN"
 "http://www.w3.org/Graphics/SVG/1.1/DTD/svg11.dtd">
<!-- Generated by graphviz version 2.26.3 (20100126.1600)
 -->
<!-- Title: Graphe hiérarchique des classes Pages: 1 -->
<svg width="594pt" height="500pt"
 viewBox="0.00 0.00 594.00 500.00" xmlns="http://www.w3.org/2000/svg" xmlns:xlink="http://www.w3.org/1999/xlink">
<g id="graph1" class="graph" transform="scale(1 1) rotate(0) translate(4 496)">
<title>Graphe hiérarchique des classes</title>
<polygon fill="white" stroke="white" points="-4,5 -4,-496 591,-496 591,5 -4,5"/>
<!-- Node1 -->
<g id="node1" class="node"><title>Node1</title>
<a xlink:href="class_q_object.html" target="_top" xlink:title="QObject">
<polygon fill="white" stroke="black" points="0.5,-120.5 0.5,-141.5 53.5,-141.5 53.5,-120.5 0.5,-120.5"/>
<text text-anchor="middle" x="27" y="-128.5" font-family="Helvetica,sans-Serif" font-size="10.00">QObject</text>
</a>
</g>
<!-- Node2 -->
<g id="node3" class="node"><title>Node2</title>
<a xlink:href="class_actor.html" target="_top" xlink:title="Base de tous les objets de la scène. ">
<polygon fill="white" stroke="black" points="118,-240.5 118,-261.5 158,-261.5 158,-240.5 118,-240.5"/>
<text text-anchor="middle" x="138" y="-248.5" font-family="Helvetica,sans-Serif" font-size="10.00">Actor</text>
</a>
</g>
<!-- Node1&#45;&gt;Node2 -->
<g id="edge2" class="edge"><title>Node1&#45;&gt;Node2</title>
<path fill="none" stroke="midnightblue" d="M35.1286,-150.99C45.0802,-173.23 63.8893,-208.931 90,-231 97.9981,-237.76 108.603,-242.5 117.811,-245.663"/>
<polygon fill="midnightblue" stroke="midnightblue" points="38.2343,-149.351 31.0731,-141.543 31.802,-152.113 38.2343,-149.351"/>
</g>
<!-- Node22 -->
<g id="node43" class="node"><title>Node22</title>
<a xlink:href="struct_ambient_occlusion.html" target="_top" xlink:title="AmbientOcclusion">
<polygon fill="white" stroke="black" points="90,-200.5 90,-221.5 186,-221.5 186,-200.5 90,-200.5"/>
<text text-anchor="middle" x="138" y="-208.5" font-family="Helvetica,sans-Serif" font-size="10.00">AmbientOcclusion</text>
</a>
</g>
<!-- Node1&#45;&gt;Node22 -->
<g id="edge42" class="edge"><title>Node1&#45;&gt;Node22</title>
<path fill="none" stroke="midnightblue" d="M42.5548,-149.008C54.5089,-161.999 71.9796,-179.248 90,-191 95.5201,-194.6 101.795,-197.773 107.946,-200.47"/>
<polygon fill="midnightblue" stroke="midnightblue" points="45.1526,-146.662 35.869,-141.557 39.9425,-151.337 45.1526,-146.662"/>
</g>
<!-- Node23 -->
<g id="node45" class="node"><title>Node23</title>
<a xlink:href="class_camera.html" target="_top" xlink:title="Gestion de la camera. ">
<polygon fill="white" stroke="black" points="112.5,-160.5 112.5,-181.5 163.5,-181.5 163.5,-160.5 112.5,-160.5"/>
<text text-anchor="middle" x="138" y="-168.5" font-family="Helvetica,sans-Serif" font-size="10.00">Camera</text>
</a>
</g>
<!-- Node1&#45;&gt;Node23 -->
<g id="edge44" class="edge"><title>Node1&#45;&gt;Node23</title>
<path fill="none" stroke="midnightblue" d="M63.2133,-144.05C79.2761,-149.838 97.8002,-156.514 112.394,-161.773"/>
<polygon fill="midnightblue" stroke="midnightblue" points="64.1817,-140.679 53.5873,-140.581 61.8085,-147.264 64.1817,-140.679"/>
</g>
<!-- Node24 -->
<g id="node47" class="node"><title>Node24</title>
<a xlink:href="class_material.html" target="_top" xlink:title="Définit les propriétés d&#39;un materiau. ">
<polygon fill="white" stroke="black" points="112.5,-120.5 112.5,-141.5 163.5,-141.5 163.5,-120.5 112.5,-120.5"/>
<text text-anchor="middle" x="138" y="-128.5" font-family="Helvetica,sans-Serif" font-size="10.00">Material</text>
</a>
</g>
<!-- Node1&#45;&gt;Node24 -->
<g id="edge46" class="edge"><title>Node1&#45;&gt;Node24</title>
<path fill="none" stroke="midnightblue" d="M63.6686,-131C79.6252,-131 97.9379,-131 112.394,-131"/>
<polygon fill="midnightblue" stroke="midnightblue" points="63.5873,-127.5 53.5873,-131 63.5872,-134.5 63.5873,-127.5"/>
</g>
<!-- Node25 -->
<g id="node49" class="node"><title>Node25</title>
<a xlink:href="class_q_widget.html" target="_top" xlink:title="QWidget">
<polygon fill="white" stroke="black" points="110.5,-80.5 110.5,-101.5 165.5,-101.5 165.5,-80.5 110.5,-80.5"/>
<text text-anchor="middle" x="138" y="-88.5" font-family="Helvetica,sans-Serif" font-size="10.00">QWidget</text>
</a>
</g>
<!-- Node1&#45;&gt;Node25 -->
<g id="edge48" class="edge"><title>Node1&#45;&gt;Node25</title>
<path fill="none" stroke="midnightblue" d="M63.2919,-117.922C78.6383,-112.392 96.2199,-106.056 110.47,-100.921"/>
<polygon fill="midnightblue" stroke="midnightblue" points="61.8085,-114.736 53.5873,-121.419 64.1817,-121.321 61.8085,-114.736"/>
</g>
<!-- Node30 -->
<g id="node59" class="node"><title>Node30</title>
<a xlink:href="class_world.html" target="_top" xlink:title="World">
<polygon fill="white" stroke="black" points="117,-40.5 117,-61.5 159,-61.5 159,-40.5 117,-40.5"/>
<text text-anchor="middle" x="138" y="-48.5" font-family="Helvetica,sans-Serif" font-size="10.00">World</text>
</a>
</g>
<!-- Node1&#45;&gt;Node30 -->
<g id="edge58" class="edge"><title>Node1&#45;&gt;Node30</title>
<path fill="none" stroke="midnightblue" d="M42.5548,-112.992C54.5089,-100.001 71.9796,-82.7524 90,-71 98.1667,-65.6739 107.986,-61.2821 116.609,-57.9843"/>
<polygon fill="midnightblue" stroke="midnightblue" points="39.9425,-110.663 35.869,-120.443 45.1526,-115.338 39.9425,-110.663"/>
</g>
<!-- Node31 -->
<g id="node61" class="node"><title>Node31</title>
<a xlink:href="class_zone.html" target="_top" xlink:title="Zone">
<polygon fill="white" stroke="black" points="119,-0.5 119,-21.5 157,-21.5 157,-0.5 119,-0.5"/>
<text text-anchor="middle" x="138" y="-8.5" font-family="Helvetica,sans-Serif" font-size="10.00">Zone</text>
</a>
</g>
<!-- Node1&#45;&gt;Node31 -->
<g id="edge60" class="edge"><title>Node1&#45;&gt;Node31</title>
<path fill="none" stroke="midnightblue" d="M35.1286,-111.01C45.0802,-88.7697 63.8893,-53.0687 90,-31 98.2739,-24.0069 109.338,-19.1753 118.758,-16.0154"/>
<polygon fill="midnightblue" stroke="midnightblue" points="31.802,-109.887 31.0731,-120.457 38.2343,-112.649 31.802,-109.887"/>
</g>
<!-- Node3 -->
<g id="node5" class="node"><title>Node3</title>
<a xlink:href="class_geo_base.html" target="_top" xlink:title="Base pour la classe Geometry. ">
<polygon fill="white" stroke="black" points="250.5,-310.5 250.5,-331.5 307.5,-331.5 307.5,-310.5 250.5,-310.5"/>
<text text-anchor="middle" x="279" y="-318.5" font-family="Helvetica,sans-Serif" font-size="10.00">GeoBase</text>
</a>
</g>
<!-- Node2&#45;&gt;Node3 -->
<g id="edge4" class="edge"><title>Node2&#45;&gt;Node3</title>
<path fill="none" stroke="midnightblue" d="M167.499,-265.645C194.364,-278.982 233.405,-298.364 257.448,-310.301"/>
<polygon fill="midnightblue" stroke="midnightblue" points="168.715,-262.341 158.202,-261.029 165.602,-268.611 168.715,-262.341"/>
</g>
<!-- Node19 -->
<g id="node37" class="node"><title>Node19</title>
<a xlink:href="class_group.html" target="_top" xlink:title="Groupe de geometries. ">
<polygon fill="white" stroke="black" points="257.5,-240.5 257.5,-261.5 300.5,-261.5 300.5,-240.5 257.5,-240.5"/>
<text text-anchor="middle" x="279" y="-248.5" font-family="Helvetica,sans-Serif" font-size="10.00">Group</text>
</a>
</g>
<!-- Node2&#45;&gt;Node19 -->
<g id="edge36" class="edge"><title>Node2&#45;&gt;Node19</title>
<path fill="none" stroke="midnightblue" d="M168.208,-251C195.048,-251 233.616,-251 257.448,-251"/>
<polygon fill="midnightblue" stroke="midnightblue" points="168.202,-247.5 158.202,-251 168.202,-254.5 168.202,-247.5"/>
</g>
<!-- Node20 -->
<g id="node39" class="node"><title>Node20</title>
<a xlink:href="class_light.html" target="_top" xlink:title="Light">
<polygon fill="white" stroke="black" points="260,-160.5 260,-181.5 298,-181.5 298,-160.5 260,-160.5"/>
<text text-anchor="middle" x="279" y="-168.5" font-family="Helvetica,sans-Serif" font-size="10.00">Light</text>
</a>
</g>
<!-- Node2&#45;&gt;Node20 -->
<g id="edge38" class="edge"><title>Node2&#45;&gt;Node20</title>
<path fill="none" stroke="midnightblue" d="M167.78,-239.563C173.899,-236.944 180.231,-234.032 186,-231 214.915,-215.804 246.438,-194.331 264.355,-181.619"/>
<polygon fill="midnightblue" stroke="midnightblue" points="166.36,-236.363 158.452,-243.412 169.031,-242.833 166.36,-236.363"/>
</g>
<!-- Node4 -->
<g id="node7" class="node"><title>Node4</title>
<a xlink:href="class_geometry.html" target="_top" xlink:title="Base de toutes les géometries. ">
<polygon fill="white" stroke="black" points="382,-470.5 382,-491.5 482,-491.5 482,-470.5 382,-470.5"/>
<text text-anchor="middle" x="432" y="-478.5" font-family="Helvetica,sans-Serif" font-size="10.00">Geometry&lt; Child &gt;</text>
</a>
</g>
<!-- Node3&#45;&gt;Node4 -->
<g id="edge6" class="edge"><title>Node3&#45;&gt;Node4</title>
<path fill="none" stroke="midnightblue" d="M287.141,-341C300.455,-371.279 329.71,-428.644 372,-461 376.971,-464.803 382.702,-467.904 388.61,-470.427"/>
<polygon fill="midnightblue" stroke="midnightblue" points="290.237,-339.337 283.101,-331.505 283.796,-342.077 290.237,-339.337"/>
</g>
<!-- Node5 -->
<g id="node9" class="node"><title>Node5</title>
<a xlink:href="class_geometry.html" target="_top" xlink:title="Geometry\&lt; Cube \&gt;">
<polygon fill="white" stroke="black" points="381.5,-430.5 381.5,-451.5 482.5,-451.5 482.5,-430.5 381.5,-430.5"/>
<text text-anchor="middle" x="432" y="-438.5" font-family="Helvetica,sans-Serif" font-size="10.00">Geometry&lt; Cube &gt;</text>
</a>
</g>
<!-- Node3&#45;&gt;Node5 -->
<g id="edge8" class="edge"><title>Node3&#45;&gt;Node5</title>
<path fill="none" stroke="midnightblue" d="M292.066,-340.037C308.346,-362.412 338.179,-399.24 372,-421 377.817,-424.743 384.405,-427.855 391.032,-430.42"/>
<polygon fill="midnightblue" stroke="midnightblue" points="294.779,-337.813 286.133,-331.69 289.073,-341.868 294.779,-337.813"/>
</g>
<!-- Node7 -->
<g id="node13" class="node"><title>Node7</title>
<a xlink:href="class_geometry.html" target="_top" xlink:title="Geometry\&lt; Cylinder \&gt;">
<polygon fill="white" stroke="black" points="375.5,-390.5 375.5,-411.5 488.5,-411.5 488.5,-390.5 375.5,-390.5"/>
<text text-anchor="middle" x="432" y="-398.5" font-family="Helvetica,sans-Serif" font-size="10.00">Geometry&lt; Cylinder &gt;</text>
</a>
</g>
<!-- Node3&#45;&gt;Node7 -->
<g id="edge12" class="edge"><title>Node3&#45;&gt;Node7</title>
<path fill="none" stroke="midnightblue" d="M301.07,-337.508C319.352,-350.613 346.394,-368.714 372,-381 379.425,-384.562 387.649,-387.754 395.567,-390.486"/>
<polygon fill="midnightblue" stroke="midnightblue" points="302.989,-334.575 292.844,-331.523 298.871,-340.236 302.989,-334.575"/>
</g>
<!-- Node9 -->
<g id="node17" class="node"><title>Node9</title>
<a xlink:href="class_geometry.html" target="_top" xlink:title="Geometry\&lt; Line \&gt;">
<polygon fill="white" stroke="black" points="384.5,-350.5 384.5,-371.5 479.5,-371.5 479.5,-350.5 384.5,-350.5"/>
<text text-anchor="middle" x="432" y="-358.5" font-family="Helvetica,sans-Serif" font-size="10.00">Geometry&lt; Line &gt;</text>
</a>
</g>
<!-- Node3&#45;&gt;Node9 -->
<g id="edge16" class="edge"><title>Node3&#45;&gt;Node9</title>
<path fill="none" stroke="midnightblue" d="M317.726,-331.124C340.371,-337.045 368.911,-344.506 391.804,-350.491"/>
<polygon fill="midnightblue" stroke="midnightblue" points="318.338,-327.667 307.778,-328.524 316.568,-334.439 318.338,-327.667"/>
</g>
<!-- Node11 -->
<g id="node21" class="node"><title>Node11</title>
<a xlink:href="class_geometry.html" target="_top" xlink:title="Geometry\&lt; Pyramide \&gt;">
<polygon fill="white" stroke="black" points="372.5,-310.5 372.5,-331.5 491.5,-331.5 491.5,-310.5 372.5,-310.5"/>
<text text-anchor="middle" x="432" y="-318.5" font-family="Helvetica,sans-Serif" font-size="10.00">Geometry&lt; Pyramide &gt;</text>
</a>
</g>
<!-- Node3&#45;&gt;Node11 -->
<g id="edge20" class="edge"><title>Node3&#45;&gt;Node11</title>
<path fill="none" stroke="midnightblue" d="M318.111,-321C334.576,-321 354.106,-321 372.302,-321"/>
<polygon fill="midnightblue" stroke="midnightblue" points="317.778,-317.5 307.778,-321 317.778,-324.5 317.778,-317.5"/>
</g>
<!-- Node13 -->
<g id="node25" class="node"><title>Node13</title>
<a xlink:href="class_geometry.html" target="_top" xlink:title="Geometry\&lt; Rect \&gt;">
<polygon fill="white" stroke="black" points="383,-270.5 383,-291.5 481,-291.5 481,-270.5 383,-270.5"/>
<text text-anchor="middle" x="432" y="-278.5" font-family="Helvetica,sans-Serif" font-size="10.00">Geometry&lt; Rect &gt;</text>
</a>
</g>
<!-- Node3&#45;&gt;Node13 -->
<g id="edge24" class="edge"><title>Node3&#45;&gt;Node13</title>
<path fill="none" stroke="midnightblue" d="M317.726,-310.876C340.371,-304.955 368.911,-297.494 391.804,-291.509"/>
<polygon fill="midnightblue" stroke="midnightblue" points="316.568,-307.561 307.778,-313.476 318.338,-314.333 316.568,-307.561"/>
</g>
<!-- Node15 -->
<g id="node29" class="node"><title>Node15</title>
<a xlink:href="class_geometry.html" target="_top" xlink:title="Geometry\&lt; Sphere \&gt;">
<polygon fill="white" stroke="black" points="378,-230.5 378,-251.5 486,-251.5 486,-230.5 378,-230.5"/>
<text text-anchor="middle" x="432" y="-238.5" font-family="Helvetica,sans-Serif" font-size="10.00">Geometry&lt; Sphere &gt;</text>
</a>
</g>
<!-- Node3&#45;&gt;Node15 -->
<g id="edge28" class="edge"><title>Node3&#45;&gt;Node15</title>
<path fill="none" stroke="midnightblue" d="M301.07,-304.492C319.352,-291.387 346.394,-273.286 372,-261 379.425,-257.438 387.649,-254.246 395.567,-251.514"/>
<polygon fill="midnightblue" stroke="midnightblue" points="298.871,-301.764 292.844,-310.477 302.989,-307.425 298.871,-301.764"/>
</g>
<!-- Node17 -->
<g id="node33" class="node"><title>Node17</title>
<a xlink:href="class_geometry.html" target="_top" xlink:title="Geometry\&lt; Trigger \&gt;">
<polygon fill="white" stroke="black" points="378.5,-190.5 378.5,-211.5 485.5,-211.5 485.5,-190.5 378.5,-190.5"/>
<text text-anchor="middle" x="432" y="-198.5" font-family="Helvetica,sans-Serif" font-size="10.00">Geometry&lt; Trigger &gt;</text>
</a>
</g>
<!-- Node3&#45;&gt;Node17 -->
<g id="edge32" class="edge"><title>Node3&#45;&gt;Node17</title>
<path fill="none" stroke="midnightblue" d="M300.867,-303.816C311.944,-294.63 325.28,-282.803 336,-271 354.411,-250.73 349.943,-237.227 372,-221 377.13,-217.226 383.015,-214.136 389.05,-211.613"/>
<polygon fill="midnightblue" stroke="midnightblue" points="298.467,-301.257 292.918,-310.282 302.884,-306.687 298.467,-301.257"/>
</g>
<!-- Node6 -->
<g id="node11" class="node"><title>Node6</title>
<a xlink:href="class_cube.html" target="_top" xlink:title="Un simple cube. ">
<polygon fill="white" stroke="black" points="537,-430.5 537,-451.5 577,-451.5 577,-430.5 537,-430.5"/>
<text text-anchor="middle" x="557" y="-438.5" font-family="Helvetica,sans-Serif" font-size="10.00">Cube</text>
</a>
</g>
<!-- Node5&#45;&gt;Node6 -->
<g id="edge10" class="edge"><title>Node5&#45;&gt;Node6</title>
<path fill="none" stroke="midnightblue" d="M493.145,-441C508.913,-441 524.797,-441 536.778,-441"/>
<polygon fill="midnightblue" stroke="midnightblue" points="492.842,-437.5 482.842,-441 492.842,-444.5 492.842,-437.5"/>
</g>
<!-- Node8 -->
<g id="node15" class="node"><title>Node8</title>
<a xlink:href="class_cylinder.html" target="_top" xlink:title="Cylinder">
<polygon fill="white" stroke="black" points="530.5,-390.5 530.5,-411.5 583.5,-411.5 583.5,-390.5 530.5,-390.5"/>
<text text-anchor="middle" x="557" y="-398.5" font-family="Helvetica,sans-Serif" font-size="10.00">Cylinder</text>
</a>
</g>
<!-- Node7&#45;&gt;Node8 -->
<g id="edge14" class="edge"><title>Node7&#45;&gt;Node8</title>
<path fill="none" stroke="midnightblue" d="M498.851,-401C509.949,-401 520.863,-401 530.184,-401"/>
<polygon fill="midnightblue" stroke="midnightblue" points="498.648,-397.5 488.648,-401 498.648,-404.5 498.648,-397.5"/>
</g>
<!-- Node10 -->
<g id="node19" class="node"><title>Node10</title>
<a xlink:href="class_line.html" target="_top" xlink:title="Line">
<polygon fill="white" stroke="black" points="539.5,-350.5 539.5,-371.5 574.5,-371.5 574.5,-350.5 539.5,-350.5"/>
<text text-anchor="middle" x="557" y="-358.5" font-family="Helvetica,sans-Serif" font-size="10.00">Line</text>
</a>
</g>
<!-- Node9&#45;&gt;Node10 -->
<g id="edge18" class="edge"><title>Node9&#45;&gt;Node10</title>
<path fill="none" stroke="midnightblue" d="M489.832,-361C507.866,-361 526.421,-361 539.446,-361"/>
<polygon fill="midnightblue" stroke="midnightblue" points="489.614,-357.5 479.614,-361 489.614,-364.5 489.614,-357.5"/>
</g>
<!-- Node12 -->
<g id="node23" class="node"><title>Node12</title>
<a xlink:href="class_pyramide.html" target="_top" xlink:title="Pyramide">
<polygon fill="white" stroke="black" points="528,-310.5 528,-331.5 586,-331.5 586,-310.5 528,-310.5"/>
<text text-anchor="middle" x="557" y="-318.5" font-family="Helvetica,sans-Serif" font-size="10.00">Pyramide</text>
</a>
</g>
<!-- Node11&#45;&gt;Node12 -->
<g id="edge22" class="edge"><title>Node11&#45;&gt;Node12</title>
<path fill="none" stroke="midnightblue" d="M501.588,-321C510.78,-321 519.764,-321 527.733,-321"/>
<polygon fill="midnightblue" stroke="midnightblue" points="501.571,-317.5 491.571,-321 501.571,-324.5 501.571,-317.5"/>
</g>
<!-- Node14 -->
<g id="node27" class="node"><title>Node14</title>
<a xlink:href="class_rect.html" target="_top" xlink:title="Rect">
<polygon fill="white" stroke="black" points="538,-270.5 538,-291.5 576,-291.5 576,-270.5 538,-270.5"/>
<text text-anchor="middle" x="557" y="-278.5" font-family="Helvetica,sans-Serif" font-size="10.00">Rect</text>
</a>
</g>
<!-- Node13&#45;&gt;Node14 -->
<g id="edge26" class="edge"><title>Node13&#45;&gt;Node14</title>
<path fill="none" stroke="midnightblue" d="M491.397,-281C508.155,-281 525.212,-281 537.731,-281"/>
<polygon fill="midnightblue" stroke="midnightblue" points="491.045,-277.5 481.045,-281 491.045,-284.5 491.045,-277.5"/>
</g>
<!-- Node16 -->
<g id="node31" class="node"><title>Node16</title>
<a xlink:href="class_sphere.html" target="_top" xlink:title="Une simple sphere. ">
<polygon fill="white" stroke="black" points="533.5,-230.5 533.5,-251.5 580.5,-251.5 580.5,-230.5 533.5,-230.5"/>
<text text-anchor="middle" x="557" y="-238.5" font-family="Helvetica,sans-Serif" font-size="10.00">Sphere</text>
</a>
</g>
<!-- Node15&#45;&gt;Node16 -->
<g id="edge30" class="edge"><title>Node15&#45;&gt;Node16</title>
<path fill="none" stroke="midnightblue" d="M496.211,-241C509.458,-241 522.603,-241 533.262,-241"/>
<polygon fill="midnightblue" stroke="midnightblue" points="496.1,-237.5 486.1,-241 496.1,-244.5 496.1,-237.5"/>
</g>
<!-- Node18 -->
<g id="node35" class="node"><title>Node18</title>
<a xlink:href="class_trigger.html" target="_top" xlink:title="Trigger">
<polygon fill="white" stroke="black" points="533.5,-190.5 533.5,-211.5 580.5,-211.5 580.5,-190.5 533.5,-190.5"/>
<text text-anchor="middle" x="557" y="-198.5" font-family="Helvetica,sans-Serif" font-size="10.00">Trigger</text>
</a>
</g>
<!-- Node17&#45;&gt;Node18 -->
<g id="edge34" class="edge"><title>Node17&#45;&gt;Node18</title>
<path fill="none" stroke="midnightblue" d="M495.962,-201C509.365,-201 522.677,-201 533.433,-201"/>
<polygon fill="midnightblue" stroke="midnightblue" points="495.737,-197.5 485.737,-201 495.737,-204.5 495.737,-197.5"/>
</g>
<!-- Node21 -->
<g id="node41" class="node"><title>Node21</title>
<a xlink:href="class_spotlight.html" target="_top" xlink:title="Spotlight">
<polygon fill="white" stroke="black" points="404.5,-150.5 404.5,-171.5 459.5,-171.5 459.5,-150.5 404.5,-150.5"/>
<text text-anchor="middle" x="432" y="-158.5" font-family="Helvetica,sans-Serif" font-size="10.00">Spotlight</text>
</a>
</g>
<!-- Node20&#45;&gt;Node21 -->
<g id="edge40" class="edge"><title>Node20&#45;&gt;Node21</title>
<path fill="none" stroke="midnightblue" d="M308.32,-169.084C336.022,-167.273 377.267,-164.577 404.394,-162.804"/>
<polygon fill="midnightblue" stroke="midnightblue" points="307.819,-165.609 298.068,-169.754 308.275,-172.594 307.819,-165.609"/>
</g>
<!-- Node26 -->
<g id="node51" class="node"><title>Node26</title>
<a xlink:href="class_q_main_window.html" target="_top" xlink:title="QMainWindow">
<polygon fill="white" stroke="black" points="239,-100.5 239,-121.5 319,-121.5 319,-100.5 239,-100.5"/>
<text text-anchor="middle" x="279" y="-108.5" font-family="Helvetica,sans-Serif" font-size="10.00">QMainWindow</text>
</a>
</g>
<!-- Node25&#45;&gt;Node26 -->
<g id="edge50" class="edge"><title>Node25&#45;&gt;Node26</title>
<path fill="none" stroke="midnightblue" d="M175.56,-96.3277C195.048,-99.0919 218.867,-102.47 238.734,-105.288"/>
<polygon fill="midnightblue" stroke="midnightblue" points="175.913,-92.8428 165.521,-94.9037 174.93,-99.7735 175.913,-92.8428"/>
</g>
<!-- Node28 -->
<g id="node55" class="node"><title>Node28</title>
<a xlink:href="class_q_open_g_l_widget.html" target="_top" xlink:title="QOpenGLWidget">
<polygon fill="white" stroke="black" points="233.5,-60.5 233.5,-81.5 324.5,-81.5 324.5,-60.5 233.5,-60.5"/>
<text text-anchor="middle" x="279" y="-68.5" font-family="Helvetica,sans-Serif" font-size="10.00">QOpenGLWidget</text>
</a>
</g>
<!-- Node25&#45;&gt;Node28 -->
<g id="edge54" class="edge"><title>Node25&#45;&gt;Node28</title>
<path fill="none" stroke="midnightblue" d="M175.498,-85.6811C193.229,-83.1661 214.557,-80.1408 233.234,-77.4917"/>
<polygon fill="midnightblue" stroke="midnightblue" points="174.93,-82.2265 165.521,-87.0963 175.913,-89.1572 174.93,-82.2265"/>
</g>
<!-- Node27 -->
<g id="node53" class="node"><title>Node27</title>
<a xlink:href="class_main_window.html" target="_top" xlink:title="Fenetre principale. ">
<polygon fill="white" stroke="black" points="395.5,-100.5 395.5,-121.5 468.5,-121.5 468.5,-100.5 395.5,-100.5"/>
<text text-anchor="middle" x="432" y="-108.5" font-family="Helvetica,sans-Serif" font-size="10.00">MainWindow</text>
</a>
</g>
<!-- Node26&#45;&gt;Node27 -->
<g id="edge52" class="edge"><title>Node26&#45;&gt;Node27</title>
<path fill="none" stroke="midnightblue" d="M329.2,-111C350.824,-111 375.639,-111 395.471,-111"/>
<polygon fill="midnightblue" stroke="midnightblue" points="329.199,-107.5 319.199,-111 329.199,-114.5 329.199,-107.5"/>
</g>
<!-- Node29 -->
<g id="node57" class="node"><title>Node29</title>
<a xlink:href="class_viewport.html" target="_top" xlink:title="Cadre de vue 3D. ">
<polygon fill="white" stroke="black" points="404.5,-37.5 404.5,-58.5 459.5,-58.5 459.5,-37.5 404.5,-37.5"/>
<text text-anchor="middle" x="432" y="-45.5" font-family="Helvetica,sans-Serif" font-size="10.00">Viewport</text>
</a>
</g>
<!-- Node28&#45;&gt;Node29 -->
<g id="edge56" class="edge"><title>Node28&#45;&gt;Node29</title>
<path fill="none" stroke="midnightblue" d="M334.842,-62.6054C358.505,-59.0483 385.018,-55.0627 404.362,-52.1547"/>
<polygon fill="midnightblue" stroke="midnightblue" points="334.274,-59.1515 324.905,-64.0992 335.314,-66.0737 334.274,-59.1515"/>
</g>
<!-- Node32 -->
<g id="node62" class="node"><title>Node32</title>
<polygon fill="white" stroke="#bfbfbf" points="222.5,-8 222.5,-42 335.5,-42 335.5,-8 222.5,-8"/>
<text text-anchor="start" x="230.5" y="-29" font-family="Helvetica,sans-Serif" font-size="10.00">QOpenGLFunctions_4</text>
<text text-anchor="middle" x="279" y="-16" font-family="Helvetica,sans-Serif" font-size="10.00">_3_Core</text>
</g>
<!-- Node32&#45;&gt;Node29 -->
<g id="edge62" class="edge"><title>Node32&#45;&gt;Node29</title>
<path fill="none" stroke="darkgreen" d="M345.582,-35.009C366.26,-38.1175 387.921,-41.3737 404.384,-43.8486"/>
<polygon fill="darkgreen" stroke="darkgreen" points="345.946,-31.5245 335.537,-33.499 344.905,-38.4468 345.946,-31.5245"/>
</g>
</g>
</svg>
