<?xml version="1.0" encoding="UTF-8" standalone="no"?>
<!DOCTYPE svg PUBLIC "-//W3C//DTD SVG 1.1//EN"
 "http://www.w3.org/Graphics/SVG/1.1/DTD/svg11.dtd">
<!-- Generated by graphviz version 2.26.3 (20100126.1600)
 -->
<!-- Title: Graphe hiérarchique des classes Pages: 1 -->
<svg width="522pt" height="270pt"
 viewBox="0.00 0.00 522.00 270.00" xmlns="http://www.w3.org/2000/svg" xmlns:xlink="http://www.w3.org/1999/xlink">
<g id="graph1" class="graph" transform="scale(1 1) rotate(0) translate(4 266)">
<title>Graphe hiérarchique des classes</title>
<polygon fill="white" stroke="white" points="-4,5 -4,-266 519,-266 519,5 -4,5"/>
<!-- Node1 -->
<g id="node1" class="node"><title>Node1</title>
<a xlink:href="class_q_object.html" target="_top" xlink:title="QObject">
<polygon fill="white" stroke="black" points="0.5,-120.5 0.5,-141.5 53.5,-141.5 53.5,-120.5 0.5,-120.5"/>
<text text-anchor="middle" x="27" y="-128.5" font-family="Helvetica,sans-Serif" font-size="10.00">QObject</text>
</a>
</g>
<!-- Node2 -->
<g id="node3" class="node"><title>Node2</title>
<a xlink:href="class_actor.html" target="_top" xlink:title="Base de tous les objets de la scène. ">
<polygon fill="white" stroke="black" points="98,-180.5 98,-201.5 138,-201.5 138,-180.5 98,-180.5"/>
<text text-anchor="middle" x="118" y="-188.5" font-family="Helvetica,sans-Serif" font-size="10.00">Actor</text>
</a>
</g>
<!-- Node1&#45;&gt;Node2 -->
<g id="edge2" class="edge"><title>Node1&#45;&gt;Node2</title>
<path fill="none" stroke="midnightblue" d="M51.6211,-147.234C67.5897,-157.762 87.9393,-171.18 101.872,-180.366"/>
<polygon fill="midnightblue" stroke="midnightblue" points="53.5442,-144.309 43.269,-141.727 49.691,-150.153 53.5442,-144.309"/>
</g>
<!-- Node10 -->
<g id="node19" class="node"><title>Node10</title>
<a xlink:href="class_camera.html" target="_top" xlink:title="Gestion de la camera. ">
<polygon fill="white" stroke="black" points="92.5,-140.5 92.5,-161.5 143.5,-161.5 143.5,-140.5 92.5,-140.5"/>
<text text-anchor="middle" x="118" y="-148.5" font-family="Helvetica,sans-Serif" font-size="10.00">Camera</text>
</a>
</g>
<!-- Node1&#45;&gt;Node10 -->
<g id="edge18" class="edge"><title>Node1&#45;&gt;Node10</title>
<path fill="none" stroke="midnightblue" d="M63.8764,-139.105C73.4194,-141.202 83.4877,-143.415 92.3183,-145.356"/>
<polygon fill="midnightblue" stroke="midnightblue" points="64.329,-135.621 53.8108,-136.892 62.8264,-142.458 64.329,-135.621"/>
</g>
<!-- Node11 -->
<g id="node21" class="node"><title>Node11</title>
<a xlink:href="struct_material.html" target="_top" xlink:title="Définit les propriétés d&#39;un materiau. ">
<polygon fill="white" stroke="black" points="92.5,-100.5 92.5,-121.5 143.5,-121.5 143.5,-100.5 92.5,-100.5"/>
<text text-anchor="middle" x="118" y="-108.5" font-family="Helvetica,sans-Serif" font-size="10.00">Material</text>
</a>
</g>
<!-- Node1&#45;&gt;Node11 -->
<g id="edge20" class="edge"><title>Node1&#45;&gt;Node11</title>
<path fill="none" stroke="midnightblue" d="M63.8764,-122.895C73.4194,-120.798 83.4877,-118.585 92.3183,-116.644"/>
<polygon fill="midnightblue" stroke="midnightblue" points="62.8264,-119.542 53.8108,-125.108 64.329,-126.379 62.8264,-119.542"/>
</g>
<!-- Node12 -->
<g id="node23" class="node"><title>Node12</title>
<a xlink:href="class_q_widget.html" target="_top" xlink:title="QWidget">
<polygon fill="white" stroke="black" points="90.5,-60.5 90.5,-81.5 145.5,-81.5 145.5,-60.5 90.5,-60.5"/>
<text text-anchor="middle" x="118" y="-68.5" font-family="Helvetica,sans-Serif" font-size="10.00">QWidget</text>
</a>
</g>
<!-- Node1&#45;&gt;Node12 -->
<g id="edge22" class="edge"><title>Node1&#45;&gt;Node12</title>
<path fill="none" stroke="midnightblue" d="M51.6211,-114.766C67.5897,-104.238 87.9393,-90.8203 101.872,-81.6339"/>
<polygon fill="midnightblue" stroke="midnightblue" points="49.691,-111.847 43.269,-120.273 53.5442,-117.691 49.691,-111.847"/>
</g>
<!-- Node3 -->
<g id="node5" class="node"><title>Node3</title>
<a xlink:href="class_geo_base.html" target="_top" xlink:title="Base pour la classe Geometry. ">
<polygon fill="white" stroke="black" points="205.5,-200.5 205.5,-221.5 262.5,-221.5 262.5,-200.5 205.5,-200.5"/>
<text text-anchor="middle" x="234" y="-208.5" font-family="Helvetica,sans-Serif" font-size="10.00">GeoBase</text>
</a>
</g>
<!-- Node2&#45;&gt;Node3 -->
<g id="edge4" class="edge"><title>Node2&#45;&gt;Node3</title>
<path fill="none" stroke="midnightblue" d="M148.508,-196.26C166.095,-199.292 188.069,-203.081 205.335,-206.058"/>
<polygon fill="midnightblue" stroke="midnightblue" points="148.655,-192.734 138.206,-194.484 147.466,-199.632 148.655,-192.734"/>
</g>
<!-- Node9 -->
<g id="node17" class="node"><title>Node9</title>
<a xlink:href="class_group.html" target="_top" xlink:title="Groupe de geometries. ">
<polygon fill="white" stroke="black" points="212.5,-160.5 212.5,-181.5 255.5,-181.5 255.5,-160.5 212.5,-160.5"/>
<text text-anchor="middle" x="234" y="-168.5" font-family="Helvetica,sans-Serif" font-size="10.00">Group</text>
</a>
</g>
<!-- Node2&#45;&gt;Node9 -->
<g id="edge16" class="edge"><title>Node2&#45;&gt;Node9</title>
<path fill="none" stroke="midnightblue" d="M148.139,-185.804C168.303,-182.327 194.358,-177.835 212.453,-174.715"/>
<polygon fill="midnightblue" stroke="midnightblue" points="147.466,-182.368 138.206,-187.516 148.655,-189.266 147.466,-182.368"/>
</g>
<!-- Node4 -->
<g id="node7" class="node"><title>Node4</title>
<a xlink:href="class_geometry.html" target="_top" xlink:title="Base de toutes les géometries. ">
<polygon fill="white" stroke="black" points="326,-240.5 326,-261.5 426,-261.5 426,-240.5 326,-240.5"/>
<text text-anchor="middle" x="376" y="-248.5" font-family="Helvetica,sans-Serif" font-size="10.00">Geometry&lt; Child &gt;</text>
</a>
</g>
<!-- Node3&#45;&gt;Node4 -->
<g id="edge6" class="edge"><title>Node3&#45;&gt;Node4</title>
<path fill="none" stroke="midnightblue" d="M272.425,-221.824C293.01,-227.622 318.259,-234.735 338.674,-240.486"/>
<polygon fill="midnightblue" stroke="midnightblue" points="273.31,-218.437 262.736,-219.095 271.412,-225.175 273.31,-218.437"/>
</g>
<!-- Node5 -->
<g id="node9" class="node"><title>Node5</title>
<a xlink:href="class_geometry.html" target="_top" xlink:title="Geometry\&lt; Cube \&gt;">
<polygon fill="white" stroke="black" points="325.5,-200.5 325.5,-221.5 426.5,-221.5 426.5,-200.5 325.5,-200.5"/>
<text text-anchor="middle" x="376" y="-208.5" font-family="Helvetica,sans-Serif" font-size="10.00">Geometry&lt; Cube &gt;</text>
</a>
</g>
<!-- Node3&#45;&gt;Node5 -->
<g id="edge8" class="edge"><title>Node3&#45;&gt;Node5</title>
<path fill="none" stroke="midnightblue" d="M272.937,-211C289.153,-211 308.194,-211 325.468,-211"/>
<polygon fill="midnightblue" stroke="midnightblue" points="272.736,-207.5 262.736,-211 272.736,-214.5 272.736,-207.5"/>
</g>
<!-- Node7 -->
<g id="node13" class="node"><title>Node7</title>
<a xlink:href="class_geometry.html" target="_top" xlink:title="Geometry\&lt; Sphere \&gt;">
<polygon fill="white" stroke="black" points="322,-160.5 322,-181.5 430,-181.5 430,-160.5 322,-160.5"/>
<text text-anchor="middle" x="376" y="-168.5" font-family="Helvetica,sans-Serif" font-size="10.00">Geometry&lt; Sphere &gt;</text>
</a>
</g>
<!-- Node3&#45;&gt;Node7 -->
<g id="edge12" class="edge"><title>Node3&#45;&gt;Node7</title>
<path fill="none" stroke="midnightblue" d="M272.425,-200.176C293.01,-194.378 318.259,-187.265 338.674,-181.514"/>
<polygon fill="midnightblue" stroke="midnightblue" points="271.412,-196.825 262.736,-202.905 273.31,-203.563 271.412,-196.825"/>
</g>
<!-- Node6 -->
<g id="node11" class="node"><title>Node6</title>
<a xlink:href="class_cube.html" target="_top" xlink:title="Un simple cube. ">
<polygon fill="white" stroke="black" points="470,-200.5 470,-221.5 510,-221.5 510,-200.5 470,-200.5"/>
<text text-anchor="middle" x="490" y="-208.5" font-family="Helvetica,sans-Serif" font-size="10.00">Cube</text>
</a>
</g>
<!-- Node5&#45;&gt;Node6 -->
<g id="edge10" class="edge"><title>Node5&#45;&gt;Node6</title>
<path fill="none" stroke="midnightblue" d="M436.698,-211C448.634,-211 460.354,-211 469.75,-211"/>
<polygon fill="midnightblue" stroke="midnightblue" points="436.666,-207.5 426.666,-211 436.666,-214.5 436.666,-207.5"/>
</g>
<!-- Node8 -->
<g id="node15" class="node"><title>Node8</title>
<a xlink:href="class_sphere.html" target="_top" xlink:title="Une simple sphere. ">
<polygon fill="white" stroke="black" points="466.5,-160.5 466.5,-181.5 513.5,-181.5 513.5,-160.5 466.5,-160.5"/>
<text text-anchor="middle" x="490" y="-168.5" font-family="Helvetica,sans-Serif" font-size="10.00">Sphere</text>
</a>
</g>
<!-- Node7&#45;&gt;Node8 -->
<g id="edge14" class="edge"><title>Node7&#45;&gt;Node8</title>
<path fill="none" stroke="midnightblue" d="M440.373,-171C449.578,-171 458.522,-171 466.223,-171"/>
<polygon fill="midnightblue" stroke="midnightblue" points="440.329,-167.5 430.329,-171 440.329,-174.5 440.329,-167.5"/>
</g>
<!-- Node13 -->
<g id="node25" class="node"><title>Node13</title>
<a xlink:href="class_q_main_window.html" target="_top" xlink:title="QMainWindow">
<polygon fill="white" stroke="black" points="194,-80.5 194,-101.5 274,-101.5 274,-80.5 194,-80.5"/>
<text text-anchor="middle" x="234" y="-88.5" font-family="Helvetica,sans-Serif" font-size="10.00">QMainWindow</text>
</a>
</g>
<!-- Node12&#45;&gt;Node13 -->
<g id="edge24" class="edge"><title>Node12&#45;&gt;Node13</title>
<path fill="none" stroke="midnightblue" d="M155.998,-77.5515C168.078,-79.6342 181.477,-81.9443 193.712,-84.0539"/>
<polygon fill="midnightblue" stroke="midnightblue" points="156.234,-74.0405 145.785,-75.7905 155.045,-80.9388 156.234,-74.0405"/>
</g>
<!-- Node15 -->
<g id="node29" class="node"><title>Node15</title>
<a xlink:href="class_q_open_g_l_widget.html" target="_top" xlink:title="QOpenGLWidget">
<polygon fill="white" stroke="black" points="188.5,-40.5 188.5,-61.5 279.5,-61.5 279.5,-40.5 188.5,-40.5"/>
<text text-anchor="middle" x="234" y="-48.5" font-family="Helvetica,sans-Serif" font-size="10.00">QOpenGLWidget</text>
</a>
</g>
<!-- Node12&#45;&gt;Node15 -->
<g id="edge28" class="edge"><title>Node12&#45;&gt;Node15</title>
<path fill="none" stroke="midnightblue" d="M155.783,-64.4857C166.169,-62.6949 177.545,-60.7337 188.324,-58.8751"/>
<polygon fill="midnightblue" stroke="midnightblue" points="155.045,-61.0612 145.785,-66.2095 156.234,-67.9595 155.045,-61.0612"/>
</g>
<!-- Node14 -->
<g id="node27" class="node"><title>Node14</title>
<a xlink:href="class_main_window.html" target="_top" xlink:title="Fenetre principale. ">
<polygon fill="white" stroke="black" points="339.5,-80.5 339.5,-101.5 412.5,-101.5 412.5,-80.5 339.5,-80.5"/>
<text text-anchor="middle" x="376" y="-88.5" font-family="Helvetica,sans-Serif" font-size="10.00">MainWindow</text>
</a>
</g>
<!-- Node13&#45;&gt;Node14 -->
<g id="edge26" class="edge"><title>Node13&#45;&gt;Node14</title>
<path fill="none" stroke="midnightblue" d="M284.449,-91C302.607,-91 322.728,-91 339.472,-91"/>
<polygon fill="midnightblue" stroke="midnightblue" points="284.312,-87.5001 274.312,-91 284.312,-94.5001 284.312,-87.5001"/>
</g>
<!-- Node16 -->
<g id="node31" class="node"><title>Node16</title>
<a xlink:href="class_viewport.html" target="_top" xlink:title="Cadre de vue 3D. ">
<polygon fill="white" stroke="black" points="348.5,-20.5 348.5,-41.5 403.5,-41.5 403.5,-20.5 348.5,-20.5"/>
<text text-anchor="middle" x="376" y="-28.5" font-family="Helvetica,sans-Serif" font-size="10.00">Viewport</text>
</a>
</g>
<!-- Node15&#45;&gt;Node16 -->
<g id="edge30" class="edge"><title>Node15&#45;&gt;Node16</title>
<path fill="none" stroke="midnightblue" d="M289.696,-43.1554C309.751,-40.3309 331.515,-37.2655 348.17,-34.9197"/>
<polygon fill="midnightblue" stroke="midnightblue" points="289.125,-39.7012 279.711,-44.5618 290.102,-46.6328 289.125,-39.7012"/>
</g>
<!-- Node17 -->
<g id="node32" class="node"><title>Node17</title>
<polygon fill="white" stroke="#bfbfbf" points="182.5,-0.5 182.5,-21.5 285.5,-21.5 285.5,-0.5 182.5,-0.5"/>
<text text-anchor="middle" x="234" y="-8.5" font-family="Helvetica,sans-Serif" font-size="10.00">QOpenGLFunctions</text>
</g>
<!-- Node17&#45;&gt;Node16 -->
<g id="edge32" class="edge"><title>Node17&#45;&gt;Node16</title>
<path fill="none" stroke="darkgreen" d="M295.78,-19.7014C314.197,-22.2954 333.456,-25.008 348.487,-27.1249"/>
<polygon fill="darkgreen" stroke="darkgreen" points="296.057,-16.206 285.667,-18.277 295.081,-23.1376 296.057,-16.206"/>
</g>
</g>
</svg>
