<?xml version="1.0" encoding="UTF-8" standalone="no"?>
<!DOCTYPE svg PUBLIC "-//W3C//DTD SVG 1.1//EN"
 "http://www.w3.org/Graphics/SVG/1.1/DTD/svg11.dtd">
<!-- Generated by graphviz version 2.26.3 (20100126.1600)
 -->
<!-- Title: include/light.hpp Pages: 1 -->
<svg width="533pt" height="146pt"
 viewBox="0.00 0.00 533.00 146.00" xmlns="http://www.w3.org/2000/svg" xmlns:xlink="http://www.w3.org/1999/xlink">
<g id="graph1" class="graph" transform="scale(1 1) rotate(0) translate(4 142)">
<title>include/light.hpp</title>
<polygon fill="white" stroke="white" points="-4,5 -4,-142 530,-142 530,5 -4,5"/>
<!-- Node1 -->
<g id="node1" class="node"><title>Node1</title>
<polygon fill="#bfbfbf" stroke="black" points="250.5,-116.5 250.5,-137.5 337.5,-137.5 337.5,-116.5 250.5,-116.5"/>
<text text-anchor="middle" x="294" y="-124.5" font-family="Helvetica,sans-Serif" font-size="10.00">include/light.hpp</text>
</g>
<!-- Node2 -->
<g id="node3" class="node"><title>Node2</title>
<a xlink:href="actorbuilder_8cpp.html" target="_top" xlink:title="src/actorbuilder.cpp">
<polygon fill="white" stroke="black" points="0,-0.5 0,-21.5 102,-21.5 102,-0.5 0,-0.5"/>
<text text-anchor="middle" x="51" y="-8.5" font-family="Helvetica,sans-Serif" font-size="10.00">src/actorbuilder.cpp</text>
</a>
</g>
<!-- Node1&#45;&gt;Node2 -->
<g id="edge2" class="edge"><title>Node1&#45;&gt;Node2</title>
<path fill="none" stroke="midnightblue" d="M254.948,-112.855C231.709,-104.091 201.816,-92.2075 176,-80 136.56,-61.35 92.2681,-35.7305 68.4371,-21.5396"/>
<polygon fill="midnightblue" stroke="midnightblue" points="253.876,-116.191 264.469,-116.412 256.326,-109.634 253.876,-116.191"/>
</g>
<!-- Node3 -->
<g id="node5" class="node"><title>Node3</title>
<a xlink:href="spotlight_8hpp.html" target="_top" xlink:title="include/spotlight.hpp">
<polygon fill="white" stroke="black" points="201,-58.5 201,-79.5 307,-79.5 307,-58.5 201,-58.5"/>
<text text-anchor="middle" x="254" y="-66.5" font-family="Helvetica,sans-Serif" font-size="10.00">include/spotlight.hpp</text>
</a>
</g>
<!-- Node1&#45;&gt;Node3 -->
<g id="edge4" class="edge"><title>Node1&#45;&gt;Node3</title>
<path fill="none" stroke="midnightblue" d="M280.868,-107.959C274.36,-98.522 266.747,-87.4835 261.29,-79.5707"/>
<polygon fill="midnightblue" stroke="midnightblue" points="278.105,-110.117 286.663,-116.362 283.867,-106.143 278.105,-110.117"/>
</g>
<!-- Node4 -->
<g id="node8" class="node"><title>Node4</title>
<a xlink:href="mainwindow_8cpp.html" target="_top" xlink:title="src/mainwindow.cpp">
<polygon fill="white" stroke="black" points="120,-0.5 120,-21.5 226,-21.5 226,-0.5 120,-0.5"/>
<text text-anchor="middle" x="173" y="-8.5" font-family="Helvetica,sans-Serif" font-size="10.00">src/mainwindow.cpp</text>
</a>
</g>
<!-- Node1&#45;&gt;Node4 -->
<g id="edge16" class="edge"><title>Node1&#45;&gt;Node4</title>
<path fill="none" stroke="midnightblue" d="M241.474,-112.829C223.557,-105.635 204.829,-95.1127 192,-80 177.687,-63.1394 174.092,-36.3669 173.23,-21.6176"/>
<polygon fill="midnightblue" stroke="midnightblue" points="240.709,-116.279 251.302,-116.491 243.154,-109.719 240.709,-116.279"/>
</g>
<!-- Node6 -->
<g id="node12" class="node"><title>Node6</title>
<a xlink:href="viewport_8cpp.html" target="_top" xlink:title="src/viewport.cpp">
<polygon fill="white" stroke="black" points="349.5,-0.5 349.5,-21.5 438.5,-21.5 438.5,-0.5 349.5,-0.5"/>
<text text-anchor="middle" x="394" y="-8.5" font-family="Helvetica,sans-Serif" font-size="10.00">src/viewport.cpp</text>
</a>
</g>
<!-- Node1&#45;&gt;Node6 -->
<g id="edge18" class="edge"><title>Node1&#45;&gt;Node6</title>
<path fill="none" stroke="midnightblue" d="M310.014,-108.424C331.179,-83.8721 367.77,-41.4272 384.794,-21.6792"/>
<polygon fill="midnightblue" stroke="midnightblue" points="307.107,-106.435 303.229,-116.295 312.409,-111.006 307.107,-106.435"/>
</g>
<!-- Node7 -->
<g id="node14" class="node"><title>Node7</title>
<a xlink:href="light_8cpp.html" target="_top" xlink:title="src/light.cpp">
<polygon fill="white" stroke="black" points="363,-58.5 363,-79.5 433,-79.5 433,-58.5 363,-58.5"/>
<text text-anchor="middle" x="398" y="-66.5" font-family="Helvetica,sans-Serif" font-size="10.00">src/light.cpp</text>
</a>
</g>
<!-- Node1&#45;&gt;Node7 -->
<g id="edge14" class="edge"><title>Node1&#45;&gt;Node7</title>
<path fill="none" stroke="midnightblue" d="M322.01,-111.379C340.081,-101.301 363.102,-88.4624 379.046,-79.5707"/>
<polygon fill="midnightblue" stroke="midnightblue" points="320.104,-108.434 313.075,-116.362 323.514,-114.548 320.104,-108.434"/>
</g>
<!-- Node8 -->
<g id="node18" class="node"><title>Node8</title>
<a xlink:href="world_8cpp.html" target="_top" xlink:title="src/world.cpp">
<polygon fill="white" stroke="black" points="450.5,-58.5 450.5,-79.5 525.5,-79.5 525.5,-58.5 450.5,-58.5"/>
<text text-anchor="middle" x="488" y="-66.5" font-family="Helvetica,sans-Serif" font-size="10.00">src/world.cpp</text>
</a>
</g>
<!-- Node1&#45;&gt;Node8 -->
<g id="edge20" class="edge"><title>Node1&#45;&gt;Node8</title>
<path fill="none" stroke="midnightblue" d="M339,-113.546C373.655,-103.186 420.88,-89.0668 452.802,-79.5231"/>
<polygon fill="midnightblue" stroke="midnightblue" points="337.71,-110.279 329.132,-116.497 339.715,-116.985 337.71,-110.279"/>
</g>
<!-- Node3&#45;&gt;Node2 -->
<g id="edge6" class="edge"><title>Node3&#45;&gt;Node2</title>
<path fill="none" stroke="midnightblue" d="M207.378,-55.6795C171.075,-45.307 121.377,-31.1078 87.8307,-21.5231"/>
<polygon fill="midnightblue" stroke="midnightblue" points="206.661,-59.1147 217.238,-58.4966 208.585,-52.384 206.661,-59.1147"/>
</g>
<!-- Node3&#45;&gt;Node4 -->
<g id="edge8" class="edge"><title>Node3&#45;&gt;Node4</title>
<path fill="none" stroke="midnightblue" d="M230.62,-52.2587C216.802,-42.3641 199.725,-30.1361 187.762,-21.5707"/>
<polygon fill="midnightblue" stroke="midnightblue" points="228.975,-55.3857 239.143,-58.3619 233.05,-49.6943 228.975,-55.3857"/>
</g>
<!-- Node5 -->
<g id="node10" class="node"><title>Node5</title>
<a xlink:href="spotlight_8cpp.html" target="_top" xlink:title="src/spotlight.cpp">
<polygon fill="white" stroke="black" points="243.5,-0.5 243.5,-21.5 332.5,-21.5 332.5,-0.5 243.5,-0.5"/>
<text text-anchor="middle" x="288" y="-8.5" font-family="Helvetica,sans-Serif" font-size="10.00">src/spotlight.cpp</text>
</a>
</g>
<!-- Node3&#45;&gt;Node5 -->
<g id="edge10" class="edge"><title>Node3&#45;&gt;Node5</title>
<path fill="none" stroke="midnightblue" d="M265.333,-49.6667C270.827,-40.2948 277.213,-29.4019 281.803,-21.5707"/>
<polygon fill="midnightblue" stroke="midnightblue" points="262.274,-47.9649 260.236,-58.3619 268.313,-51.5049 262.274,-47.9649"/>
</g>
<!-- Node3&#45;&gt;Node6 -->
<g id="edge12" class="edge"><title>Node3&#45;&gt;Node6</title>
<path fill="none" stroke="midnightblue" d="M288.722,-54.6153C313.406,-44.3889 346.015,-30.8796 368.363,-21.6212"/>
<polygon fill="midnightblue" stroke="midnightblue" points="287.252,-51.4357 279.353,-58.4966 289.931,-57.9027 287.252,-51.4357"/>
</g>
</g>
</svg>
