<?xml version="1.0" encoding="UTF-8" standalone="no"?>
<!DOCTYPE svg PUBLIC "-//W3C//DTD SVG 1.1//EN"
 "http://www.w3.org/Graphics/SVG/1.1/DTD/svg11.dtd">
<!-- Generated by graphviz version 2.26.3 (20100126.1600)
 -->
<!-- Title: include/light.hpp Pages: 1 -->
<svg width="370pt" height="146pt"
 viewBox="0.00 0.00 370.00 146.00" xmlns="http://www.w3.org/2000/svg" xmlns:xlink="http://www.w3.org/1999/xlink">
<g id="graph1" class="graph" transform="scale(1 1) rotate(0) translate(4 142)">
<title>include/light.hpp</title>
<polygon fill="white" stroke="white" points="-4,5 -4,-142 367,-142 367,5 -4,5"/>
<!-- Node1 -->
<g id="node1" class="node"><title>Node1</title>
<polygon fill="#bfbfbf" stroke="black" points="135.5,-116.5 135.5,-137.5 222.5,-137.5 222.5,-116.5 135.5,-116.5"/>
<text text-anchor="middle" x="179" y="-124.5" font-family="Helvetica,sans-Serif" font-size="10.00">include/light.hpp</text>
</g>
<!-- Node2 -->
<g id="node3" class="node"><title>Node2</title>
<a xlink:href="light_8cpp.html" target="_top" xlink:title="src/light.cpp">
<polygon fill="white" stroke="black" points="0,-58.5 0,-79.5 70,-79.5 70,-58.5 0,-58.5"/>
<text text-anchor="middle" x="35" y="-66.5" font-family="Helvetica,sans-Serif" font-size="10.00">src/light.cpp</text>
</a>
</g>
<!-- Node1&#45;&gt;Node2 -->
<g id="edge2" class="edge"><title>Node1&#45;&gt;Node2</title>
<path fill="none" stroke="midnightblue" d="M143.623,-112.751C118.194,-102.509 84.4579,-88.9206 61.3699,-79.6212"/>
<polygon fill="midnightblue" stroke="midnightblue" points="142.339,-116.007 152.923,-116.497 144.954,-109.514 142.339,-116.007"/>
</g>
<!-- Node3 -->
<g id="node5" class="node"><title>Node3</title>
<a xlink:href="mainwindow_8cpp.html" target="_top" xlink:title="src/mainwindow.cpp">
<polygon fill="white" stroke="black" points="11,-0.5 11,-21.5 117,-21.5 117,-0.5 11,-0.5"/>
<text text-anchor="middle" x="64" y="-8.5" font-family="Helvetica,sans-Serif" font-size="10.00">src/mainwindow.cpp</text>
</a>
</g>
<!-- Node1&#45;&gt;Node3 -->
<g id="edge4" class="edge"><title>Node1&#45;&gt;Node3</title>
<path fill="none" stroke="midnightblue" d="M154.56,-110.78C142.623,-102.299 128.411,-91.3384 117,-80 98.1419,-61.2613 80.1629,-35.675 70.7676,-21.5136"/>
<polygon fill="midnightblue" stroke="midnightblue" points="152.568,-113.657 162.778,-116.486 156.561,-107.908 152.568,-113.657"/>
</g>
<!-- Node4 -->
<g id="node7" class="node"><title>Node4</title>
<a xlink:href="spotlight_8hpp.html" target="_top" xlink:title="include/spotlight.hpp">
<polygon fill="white" stroke="black" points="126,-58.5 126,-79.5 232,-79.5 232,-58.5 126,-58.5"/>
<text text-anchor="middle" x="179" y="-66.5" font-family="Helvetica,sans-Serif" font-size="10.00">include/spotlight.hpp</text>
</a>
</g>
<!-- Node1&#45;&gt;Node4 -->
<g id="edge6" class="edge"><title>Node1&#45;&gt;Node4</title>
<path fill="none" stroke="midnightblue" d="M179,-106.191C179,-97.1684 179,-86.9941 179,-79.5707"/>
<polygon fill="midnightblue" stroke="midnightblue" points="175.5,-106.362 179,-116.362 182.5,-106.362 175.5,-106.362"/>
</g>
<!-- Node6 -->
<g id="node12" class="node"><title>Node6</title>
<a xlink:href="viewport_8cpp.html" target="_top" xlink:title="src/viewport.cpp">
<polygon fill="white" stroke="black" points="240.5,-0.5 240.5,-21.5 329.5,-21.5 329.5,-0.5 240.5,-0.5"/>
<text text-anchor="middle" x="285" y="-8.5" font-family="Helvetica,sans-Serif" font-size="10.00">src/viewport.cpp</text>
</a>
</g>
<!-- Node1&#45;&gt;Node6 -->
<g id="edge14" class="edge"><title>Node1&#45;&gt;Node6</title>
<path fill="none" stroke="midnightblue" d="M204.712,-110.613C216.571,-102.312 230.347,-91.5526 241,-80 257.951,-61.6175 272.391,-35.8976 279.761,-21.6179"/>
<polygon fill="midnightblue" stroke="midnightblue" points="202.411,-107.945 196.099,-116.454 206.34,-113.738 202.411,-107.945"/>
</g>
<!-- Node7 -->
<g id="node15" class="node"><title>Node7</title>
<a xlink:href="world_8cpp.html" target="_top" xlink:title="src/world.cpp">
<polygon fill="white" stroke="black" points="287.5,-58.5 287.5,-79.5 362.5,-79.5 362.5,-58.5 287.5,-58.5"/>
<text text-anchor="middle" x="325" y="-66.5" font-family="Helvetica,sans-Serif" font-size="10.00">src/world.cpp</text>
</a>
</g>
<!-- Node1&#45;&gt;Node7 -->
<g id="edge16" class="edge"><title>Node1&#45;&gt;Node7</title>
<path fill="none" stroke="midnightblue" d="M214.868,-112.751C240.651,-102.509 274.855,-88.9206 298.264,-79.6212"/>
<polygon fill="midnightblue" stroke="midnightblue" points="213.441,-109.552 205.439,-116.497 216.025,-116.057 213.441,-109.552"/>
</g>
<!-- Node4&#45;&gt;Node3 -->
<g id="edge8" class="edge"><title>Node4&#45;&gt;Node3</title>
<path fill="none" stroke="midnightblue" d="M149.124,-53.9319C129.021,-43.7932 103.01,-30.6748 85.0593,-21.6212"/>
<polygon fill="midnightblue" stroke="midnightblue" points="147.67,-57.1185 158.174,-58.4966 150.822,-50.8684 147.67,-57.1185"/>
</g>
<!-- Node5 -->
<g id="node10" class="node"><title>Node5</title>
<a xlink:href="spotlight_8cpp.html" target="_top" xlink:title="src/spotlight.cpp">
<polygon fill="white" stroke="black" points="134.5,-0.5 134.5,-21.5 223.5,-21.5 223.5,-0.5 134.5,-0.5"/>
<text text-anchor="middle" x="179" y="-8.5" font-family="Helvetica,sans-Serif" font-size="10.00">src/spotlight.cpp</text>
</a>
</g>
<!-- Node4&#45;&gt;Node5 -->
<g id="edge10" class="edge"><title>Node4&#45;&gt;Node5</title>
<path fill="none" stroke="midnightblue" d="M179,-48.1906C179,-39.1684 179,-28.9941 179,-21.5707"/>
<polygon fill="midnightblue" stroke="midnightblue" points="175.5,-48.3619 179,-58.3619 182.5,-48.3619 175.5,-48.3619"/>
</g>
<!-- Node4&#45;&gt;Node6 -->
<g id="edge12" class="edge"><title>Node4&#45;&gt;Node6</title>
<path fill="none" stroke="midnightblue" d="M207.296,-53.5175C225.752,-43.4189 249.356,-30.5032 265.681,-21.5707"/>
<polygon fill="midnightblue" stroke="midnightblue" points="205.535,-50.4913 198.442,-58.3619 208.895,-56.6322 205.535,-50.4913"/>
</g>
</g>
</svg>
