<?xml version="1.0" encoding="UTF-8" standalone="no"?>
<!DOCTYPE svg PUBLIC "-//W3C//DTD SVG 1.1//EN"
 "http://www.w3.org/Graphics/SVG/1.1/DTD/svg11.dtd">
<!-- Generated by graphviz version 2.26.3 (20100126.1600)
 -->
<!-- Title: src/mainwindow.cpp Pages: 1 -->
<svg width="4522pt" height="230pt"
 viewBox="0.00 0.00 4522.00 230.00" xmlns="http://www.w3.org/2000/svg" xmlns:xlink="http://www.w3.org/1999/xlink">
<g id="graph1" class="graph" transform="scale(1 1) rotate(0) translate(4 226)">
<title>src/mainwindow.cpp</title>
<polygon fill="white" stroke="white" points="-4,5 -4,-226 4519,-226 4519,5 -4,5"/>
<!-- Node1 -->
<g id="node1" class="node"><title>Node1</title>
<polygon fill="#bfbfbf" stroke="black" points="1890,-200.5 1890,-221.5 1996,-221.5 1996,-200.5 1890,-200.5"/>
<text text-anchor="middle" x="1943" y="-208.5" font-family="Helvetica,sans-Serif" font-size="10.00">src/mainwindow.cpp</text>
</g>
<!-- Node2 -->
<g id="node3" class="node"><title>Node2</title>
<a xlink:href="mainwindow_8hpp.html" target="_top" xlink:title="mainwindow.hpp">
<polygon fill="white" stroke="black" points="411.5,-129.5 411.5,-150.5 500.5,-150.5 500.5,-129.5 411.5,-129.5"/>
<text text-anchor="middle" x="456" y="-137.5" font-family="Helvetica,sans-Serif" font-size="10.00">mainwindow.hpp</text>
</a>
</g>
<!-- Node1&#45;&gt;Node2 -->
<g id="edge2" class="edge"><title>Node1&#45;&gt;Node2</title>
<path fill="none" stroke="midnightblue" d="M1889.89,-210.1C1649.18,-205.906 666.566,-187.479 531,-164 518.161,-161.776 504.486,-157.882 492.377,-153.868"/>
<polygon fill="midnightblue" stroke="midnightblue" points="493.221,-150.457 482.626,-150.504 490.938,-157.074 493.221,-150.457"/>
</g>
<!-- Node12 -->
<g id="node23" class="node"><title>Node12</title>
<a xlink:href="sphere_8hpp.html" target="_top" xlink:title="sphere.hpp">
<polygon fill="white" stroke="red" points="539.5,-129.5 539.5,-150.5 604.5,-150.5 604.5,-129.5 539.5,-129.5"/>
<text text-anchor="middle" x="572" y="-137.5" font-family="Helvetica,sans-Serif" font-size="10.00">sphere.hpp</text>
</a>
</g>
<!-- Node1&#45;&gt;Node12 -->
<g id="edge22" class="edge"><title>Node1&#45;&gt;Node12</title>
<path fill="none" stroke="midnightblue" d="M1889.74,-210.657C1657.19,-208.95 736.912,-199.961 613,-164 606.658,-162.16 600.273,-159.123 594.492,-155.818"/>
<polygon fill="midnightblue" stroke="midnightblue" points="596.338,-152.845 585.997,-150.538 592.642,-158.79 596.338,-152.845"/>
</g>
<!-- Node14 -->
<g id="node28" class="node"><title>Node14</title>
<a xlink:href="pyramide_8hpp.html" target="_top" xlink:title="pyramide.hpp">
<polygon fill="white" stroke="black" points="621.5,-129.5 621.5,-150.5 696.5,-150.5 696.5,-129.5 621.5,-129.5"/>
<text text-anchor="middle" x="659" y="-137.5" font-family="Helvetica,sans-Serif" font-size="10.00">pyramide.hpp</text>
</a>
</g>
<!-- Node1&#45;&gt;Node14 -->
<g id="edge28" class="edge"><title>Node1&#45;&gt;Node14</title>
<path fill="none" stroke="midnightblue" d="M1889.77,-210.358C1667.59,-207.493 820.443,-194.638 705,-164 697.864,-162.106 690.581,-158.964 683.978,-155.568"/>
<polygon fill="midnightblue" stroke="midnightblue" points="685.328,-152.315 674.885,-150.526 681.933,-158.437 685.328,-152.315"/>
</g>
<!-- Node15 -->
<g id="node31" class="node"><title>Node15</title>
<a xlink:href="line_8hpp.html" target="_top" xlink:title="line.hpp">
<polygon fill="white" stroke="black" points="714,-129.5 714,-150.5 764,-150.5 764,-129.5 714,-129.5"/>
<text text-anchor="middle" x="739" y="-137.5" font-family="Helvetica,sans-Serif" font-size="10.00">line.hpp</text>
</a>
</g>
<!-- Node1&#45;&gt;Node15 -->
<g id="edge32" class="edge"><title>Node1&#45;&gt;Node15</title>
<path fill="none" stroke="midnightblue" d="M1889.7,-210.633C1674.93,-208.913 879.411,-200.14 773,-164 767.914,-162.273 762.914,-159.524 758.38,-156.494"/>
<polygon fill="midnightblue" stroke="midnightblue" points="760.448,-153.67 750.334,-150.513 756.272,-159.288 760.448,-153.67"/>
</g>
<!-- Node16 -->
<g id="node34" class="node"><title>Node16</title>
<a xlink:href="cylinder_8hpp.html" target="_top" xlink:title="cylinder.hpp">
<polygon fill="white" stroke="black" points="781.5,-129.5 781.5,-150.5 850.5,-150.5 850.5,-129.5 781.5,-129.5"/>
<text text-anchor="middle" x="816" y="-137.5" font-family="Helvetica,sans-Serif" font-size="10.00">cylinder.hpp</text>
</a>
</g>
<!-- Node1&#45;&gt;Node16 -->
<g id="edge36" class="edge"><title>Node1&#45;&gt;Node16</title>
<path fill="none" stroke="midnightblue" d="M1889.94,-210.137C1685.94,-206.624 958.564,-192.221 859,-164 852.415,-162.133 845.743,-159.087 839.682,-155.781"/>
<polygon fill="midnightblue" stroke="midnightblue" points="841.151,-152.584 830.762,-150.505 837.588,-158.609 841.151,-152.584"/>
</g>
<!-- Node17 -->
<g id="node37" class="node"><title>Node17</title>
<a xlink:href="light_8hpp.html" target="_top" xlink:title="light.hpp">
<polygon fill="white" stroke="red" points="1039.5,-58.5 1039.5,-79.5 1092.5,-79.5 1092.5,-58.5 1039.5,-58.5"/>
<text text-anchor="middle" x="1066" y="-66.5" font-family="Helvetica,sans-Serif" font-size="10.00">light.hpp</text>
</a>
</g>
<!-- Node1&#45;&gt;Node17 -->
<g id="edge40" class="edge"><title>Node1&#45;&gt;Node17</title>
<path fill="none" stroke="midnightblue" d="M1889.99,-210.191C1702.71,-207.077 1081.92,-194.485 1053,-164 1034.11,-144.086 1044.95,-110.414 1055.05,-88.968"/>
<polygon fill="midnightblue" stroke="midnightblue" points="1058.3,-90.3064 1059.68,-79.8019 1052.05,-87.1525 1058.3,-90.3064"/>
</g>
<!-- Node18 -->
<g id="node39" class="node"><title>Node18</title>
<a xlink:href="spotlight_8hpp.html" target="_top" xlink:title="spotlight.hpp">
<polygon fill="white" stroke="black" points="1062,-129.5 1062,-150.5 1134,-150.5 1134,-129.5 1062,-129.5"/>
<text text-anchor="middle" x="1098" y="-137.5" font-family="Helvetica,sans-Serif" font-size="10.00">spotlight.hpp</text>
</a>
</g>
<!-- Node1&#45;&gt;Node18 -->
<g id="edge42" class="edge"><title>Node1&#45;&gt;Node18</title>
<path fill="none" stroke="midnightblue" d="M1889.79,-209.197C1722.56,-203.347 1214.44,-184.105 1143,-164 1136.13,-162.066 1129.12,-158.97 1122.75,-155.635"/>
<polygon fill="midnightblue" stroke="midnightblue" points="1124.38,-152.538 1113.95,-150.687 1120.95,-158.639 1124.38,-152.538"/>
</g>
<!-- Node19 -->
<g id="node42" class="node"><title>Node19</title>
<a xlink:href="group_8hpp.html" target="_top" xlink:title="group.hpp">
<polygon fill="white" stroke="red" points="867.5,-129.5 867.5,-150.5 926.5,-150.5 926.5,-129.5 867.5,-129.5"/>
<text text-anchor="middle" x="897" y="-137.5" font-family="Helvetica,sans-Serif" font-size="10.00">group.hpp</text>
</a>
</g>
<!-- Node1&#45;&gt;Node19 -->
<g id="edge46" class="edge"><title>Node1&#45;&gt;Node19</title>
<path fill="none" stroke="midnightblue" d="M1889.99,-210.114C1695.29,-206.641 1026.23,-192.717 935,-164 929.418,-162.243 923.845,-159.455 918.755,-156.392"/>
<polygon fill="midnightblue" stroke="midnightblue" points="920.488,-153.342 910.217,-150.743 916.626,-159.18 920.488,-153.342"/>
</g>
<!-- Node20 -->
<g id="node45" class="node"><title>Node20</title>
<a xlink:href="trigger_8hpp.html" target="_top" xlink:title="trigger.hpp">
<polygon fill="white" stroke="black" points="944,-129.5 944,-150.5 1006,-150.5 1006,-129.5 944,-129.5"/>
<text text-anchor="middle" x="975" y="-137.5" font-family="Helvetica,sans-Serif" font-size="10.00">trigger.hpp</text>
</a>
</g>
<!-- Node1&#45;&gt;Node20 -->
<g id="edge50" class="edge"><title>Node1&#45;&gt;Node20</title>
<path fill="none" stroke="midnightblue" d="M1889.84,-209.645C1705.97,-204.774 1103.69,-187.199 1020,-164 1013.12,-162.093 1006.11,-159.007 999.736,-155.673"/>
<polygon fill="midnightblue" stroke="midnightblue" points="1001.37,-152.576 990.938,-150.72 997.935,-158.676 1001.37,-152.576"/>
</g>
<!-- Node21 -->
<g id="node48" class="node"><title>Node21</title>
<polygon fill="white" stroke="#bfbfbf" points="1151.5,-129.5 1151.5,-150.5 1206.5,-150.5 1206.5,-129.5 1151.5,-129.5"/>
<text text-anchor="middle" x="1179" y="-137.5" font-family="Helvetica,sans-Serif" font-size="10.00">QVariant</text>
</g>
<!-- Node1&#45;&gt;Node21 -->
<g id="edge54" class="edge"><title>Node1&#45;&gt;Node21</title>
<path fill="none" stroke="midnightblue" d="M1889.85,-209.159C1732.88,-203.499 1278.36,-185.436 1215,-164 1209.8,-162.24 1204.63,-159.527 1199.9,-156.549"/>
<polygon fill="midnightblue" stroke="midnightblue" points="1201.66,-153.513 1191.46,-150.678 1197.67,-159.26 1201.66,-153.513"/>
</g>
<!-- Node22 -->
<g id="node50" class="node"><title>Node22</title>
<polygon fill="white" stroke="#bfbfbf" points="1224,-129.5 1224,-150.5 1292,-150.5 1292,-129.5 1224,-129.5"/>
<text text-anchor="middle" x="1258" y="-137.5" font-family="Helvetica,sans-Serif" font-size="10.00">QFileDialog</text>
</g>
<!-- Node1&#45;&gt;Node22 -->
<g id="edge56" class="edge"><title>Node1&#45;&gt;Node22</title>
<path fill="none" stroke="midnightblue" d="M1889.78,-210.061C1756.4,-207.237 1410.73,-196.874 1301,-164 1294.55,-162.068 1288,-159.053 1282.02,-155.805"/>
<polygon fill="midnightblue" stroke="midnightblue" points="1283.59,-152.668 1273.19,-150.631 1280.05,-158.707 1283.59,-152.668"/>
</g>
<!-- Node23 -->
<g id="node52" class="node"><title>Node23</title>
<polygon fill="white" stroke="#bfbfbf" points="1309.5,-129.5 1309.5,-150.5 1370.5,-150.5 1370.5,-129.5 1309.5,-129.5"/>
<text text-anchor="middle" x="1340" y="-137.5" font-family="Helvetica,sans-Serif" font-size="10.00">QSpinBox</text>
</g>
<!-- Node1&#45;&gt;Node23 -->
<g id="edge58" class="edge"><title>Node1&#45;&gt;Node23</title>
<path fill="none" stroke="midnightblue" d="M1889.99,-209.717C1768.47,-206.273 1473.05,-194.895 1379,-164 1373.34,-162.139 1367.64,-159.309 1362.42,-156.236"/>
<polygon fill="midnightblue" stroke="midnightblue" points="1363.96,-153.062 1353.65,-150.603 1360.17,-158.952 1363.96,-153.062"/>
</g>
<!-- Node24 -->
<g id="node54" class="node"><title>Node24</title>
<polygon fill="white" stroke="#bfbfbf" points="1387.5,-129.5 1387.5,-150.5 1434.5,-150.5 1434.5,-129.5 1387.5,-129.5"/>
<text text-anchor="middle" x="1411" y="-137.5" font-family="Helvetica,sans-Serif" font-size="10.00">QLabel</text>
</g>
<!-- Node1&#45;&gt;Node24 -->
<g id="edge60" class="edge"><title>Node1&#45;&gt;Node24</title>
<path fill="none" stroke="midnightblue" d="M1889.61,-209.632C1777.94,-206.181 1523.42,-195.062 1443,-164 1438.51,-162.264 1434.1,-159.706 1430.06,-156.9"/>
<polygon fill="midnightblue" stroke="midnightblue" points="1431.96,-153.947 1421.92,-150.581 1427.67,-159.477 1431.96,-153.947"/>
</g>
<!-- Node25 -->
<g id="node56" class="node"><title>Node25</title>
<polygon fill="white" stroke="#bfbfbf" points="1451.5,-129.5 1451.5,-150.5 1510.5,-150.5 1510.5,-129.5 1451.5,-129.5"/>
<text text-anchor="middle" x="1481" y="-137.5" font-family="Helvetica,sans-Serif" font-size="10.00">QLineEdit</text>
</g>
<!-- Node1&#45;&gt;Node25 -->
<g id="edge62" class="edge"><title>Node1&#45;&gt;Node25</title>
<path fill="none" stroke="midnightblue" d="M1889.72,-208.085C1791.59,-202.226 1586.19,-187.531 1519,-164 1513.48,-162.066 1507.93,-159.205 1502.84,-156.126"/>
<polygon fill="midnightblue" stroke="midnightblue" points="1504.57,-153.076 1494.3,-150.503 1500.73,-158.924 1504.57,-153.076"/>
</g>
<!-- Node26 -->
<g id="node58" class="node"><title>Node26</title>
<polygon fill="white" stroke="#bfbfbf" points="1527.5,-129.5 1527.5,-150.5 1602.5,-150.5 1602.5,-129.5 1527.5,-129.5"/>
<text text-anchor="middle" x="1565" y="-137.5" font-family="Helvetica,sans-Serif" font-size="10.00">QColorDialog</text>
</g>
<!-- Node1&#45;&gt;Node26 -->
<g id="edge64" class="edge"><title>Node1&#45;&gt;Node26</title>
<path fill="none" stroke="midnightblue" d="M1889.72,-209.013C1823.09,-205.278 1706.19,-194.573 1611,-164 1604.2,-161.816 1597.2,-158.683 1590.78,-155.398"/>
<polygon fill="midnightblue" stroke="midnightblue" points="1592.33,-152.258 1581.87,-150.57 1588.99,-158.412 1592.33,-152.258"/>
</g>
<!-- Node27 -->
<g id="node60" class="node"><title>Node27</title>
<polygon fill="white" stroke="#bfbfbf" points="1619.5,-129.5 1619.5,-150.5 1694.5,-150.5 1694.5,-129.5 1619.5,-129.5"/>
<text text-anchor="middle" x="1657" y="-137.5" font-family="Helvetica,sans-Serif" font-size="10.00">QPushButton</text>
</g>
<!-- Node1&#45;&gt;Node27 -->
<g id="edge66" class="edge"><title>Node1&#45;&gt;Node27</title>
<path fill="none" stroke="midnightblue" d="M1889.88,-205.054C1840.47,-198.488 1765.31,-185.839 1703,-164 1696.37,-161.678 1689.52,-158.545 1683.19,-155.311"/>
<polygon fill="midnightblue" stroke="midnightblue" points="1684.84,-152.226 1674.38,-150.581 1681.53,-158.394 1684.84,-152.226"/>
</g>
<!-- Node28 -->
<g id="node62" class="node"><title>Node28</title>
<polygon fill="white" stroke="#bfbfbf" points="1712,-129.5 1712,-150.5 1752,-150.5 1752,-129.5 1712,-129.5"/>
<text text-anchor="middle" x="1732" y="-137.5" font-family="Helvetica,sans-Serif" font-size="10.00">QList</text>
</g>
<!-- Node1&#45;&gt;Node28 -->
<g id="edge68" class="edge"><title>Node1&#45;&gt;Node28</title>
<path fill="none" stroke="midnightblue" d="M1889.82,-203.591C1852.31,-196.883 1801.69,-184.774 1761,-164 1757.31,-162.115 1753.66,-159.69 1750.27,-157.109"/>
<polygon fill="midnightblue" stroke="midnightblue" points="1752.39,-154.319 1742.48,-150.59 1747.9,-159.689 1752.39,-154.319"/>
</g>
<!-- Node29 -->
<g id="node64" class="node"><title>Node29</title>
<polygon fill="white" stroke="#bfbfbf" points="1769.5,-129.5 1769.5,-150.5 1818.5,-150.5 1818.5,-129.5 1769.5,-129.5"/>
<text text-anchor="middle" x="1794" y="-137.5" font-family="Helvetica,sans-Serif" font-size="10.00">QtMath</text>
</g>
<!-- Node1&#45;&gt;Node29 -->
<g id="edge70" class="edge"><title>Node1&#45;&gt;Node29</title>
<path fill="none" stroke="midnightblue" d="M1911.03,-200.429C1887.18,-191.982 1854.17,-179.084 1827,-164 1823.1,-161.833 1819.12,-159.28 1815.33,-156.661"/>
<polygon fill="midnightblue" stroke="midnightblue" points="1817.14,-153.643 1806.99,-150.582 1813.01,-159.3 1817.14,-153.643"/>
</g>
<!-- Node30 -->
<g id="node66" class="node"><title>Node30</title>
<polygon fill="white" stroke="#bfbfbf" points="1836,-129.5 1836,-150.5 1876,-150.5 1876,-129.5 1836,-129.5"/>
<text text-anchor="middle" x="1856" y="-137.5" font-family="Helvetica,sans-Serif" font-size="10.00">limits</text>
</g>
<!-- Node1&#45;&gt;Node30 -->
<g id="edge72" class="edge"><title>Node1&#45;&gt;Node30</title>
<path fill="none" stroke="midnightblue" d="M1929.61,-200.212C1917.83,-190.711 1900.24,-176.482 1885,-164 1882.24,-161.737 1879.33,-159.346 1876.47,-156.985"/>
<polygon fill="midnightblue" stroke="midnightblue" points="1878.62,-154.219 1868.68,-150.543 1874.16,-159.613 1878.62,-154.219"/>
</g>
<!-- Node31 -->
<g id="node68" class="node"><title>Node31</title>
<polygon fill="white" stroke="#bfbfbf" points="1894,-129.5 1894,-150.5 1992,-150.5 1992,-129.5 1894,-129.5"/>
<text text-anchor="middle" x="1943" y="-137.5" font-family="Helvetica,sans-Serif" font-size="10.00">./ui_mainwindow.h</text>
</g>
<!-- Node1&#45;&gt;Node31 -->
<g id="edge74" class="edge"><title>Node1&#45;&gt;Node31</title>
<path fill="none" stroke="midnightblue" d="M1943,-200.217C1943,-189.895 1943,-174.04 1943,-161.19"/>
<polygon fill="midnightblue" stroke="midnightblue" points="1946.5,-160.885 1943,-150.885 1939.5,-160.885 1946.5,-160.885"/>
</g>
<!-- Node32 -->
<g id="node70" class="node"><title>Node32</title>
<polygon fill="white" stroke="#bfbfbf" points="2009.5,-129.5 2009.5,-150.5 2098.5,-150.5 2098.5,-129.5 2009.5,-129.5"/>
<text text-anchor="middle" x="2054" y="-137.5" font-family="Helvetica,sans-Serif" font-size="10.00">QtCore/QVariant</text>
</g>
<!-- Node1&#45;&gt;Node32 -->
<g id="edge76" class="edge"><title>Node1&#45;&gt;Node32</title>
<path fill="none" stroke="midnightblue" d="M1959.86,-200.217C1978.22,-188.472 2007.78,-169.562 2028.88,-156.068"/>
<polygon fill="midnightblue" stroke="midnightblue" points="2030.81,-158.989 2037.35,-150.652 2027.04,-153.092 2030.81,-158.989"/>
</g>
<!-- Node33 -->
<g id="node72" class="node"><title>Node33</title>
<polygon fill="white" stroke="#bfbfbf" points="2115.5,-129.5 2115.5,-150.5 2216.5,-150.5 2216.5,-129.5 2115.5,-129.5"/>
<text text-anchor="middle" x="2166" y="-137.5" font-family="Helvetica,sans-Serif" font-size="10.00">QtWidgets/QAction</text>
</g>
<!-- Node1&#45;&gt;Node33 -->
<g id="edge78" class="edge"><title>Node1&#45;&gt;Node33</title>
<path fill="none" stroke="midnightblue" d="M1984.5,-200.428C2017.88,-191.607 2065.85,-178.221 2107,-164 2115.34,-161.119 2124.21,-157.702 2132.47,-154.364"/>
<polygon fill="midnightblue" stroke="midnightblue" points="2133.91,-157.559 2141.82,-150.518 2131.24,-151.085 2133.91,-157.559"/>
</g>
<!-- Node34 -->
<g id="node74" class="node"><title>Node34</title>
<polygon fill="white" stroke="#bfbfbf" points="2234,-129.5 2234,-150.5 2356,-150.5 2356,-129.5 2234,-129.5"/>
<text text-anchor="middle" x="2295" y="-137.5" font-family="Helvetica,sans-Serif" font-size="10.00">QtWidgets/QApplication</text>
</g>
<!-- Node1&#45;&gt;Node34 -->
<g id="edge80" class="edge"><title>Node1&#45;&gt;Node34</title>
<path fill="none" stroke="midnightblue" d="M1996.03,-204.819C2053.12,-197.551 2146.33,-183.898 2225,-164 2235.85,-161.255 2247.43,-157.597 2257.98,-153.967"/>
<polygon fill="midnightblue" stroke="midnightblue" points="2259.46,-157.156 2267.72,-150.525 2257.13,-150.556 2259.46,-157.156"/>
</g>
<!-- Node35 -->
<g id="node76" class="node"><title>Node35</title>
<polygon fill="white" stroke="#bfbfbf" points="2374,-129.5 2374,-150.5 2502,-150.5 2502,-129.5 2374,-129.5"/>
<text text-anchor="middle" x="2438" y="-137.5" font-family="Helvetica,sans-Serif" font-size="10.00">QtWidgets/QButtonGroup</text>
</g>
<!-- Node1&#45;&gt;Node35 -->
<g id="edge82" class="edge"><title>Node1&#45;&gt;Node35</title>
<path fill="none" stroke="midnightblue" d="M1996.2,-208.604C2076.79,-204.184 2234.26,-192.45 2365,-164 2376.8,-161.433 2389.37,-157.682 2400.71,-153.905"/>
<polygon fill="midnightblue" stroke="midnightblue" points="2401.98,-157.169 2410.3,-150.608 2399.7,-150.55 2401.98,-157.169"/>
</g>
<!-- Node36 -->
<g id="node78" class="node"><title>Node36</title>
<polygon fill="white" stroke="#bfbfbf" points="2520,-129.5 2520,-150.5 2648,-150.5 2648,-129.5 2520,-129.5"/>
<text text-anchor="middle" x="2584" y="-137.5" font-family="Helvetica,sans-Serif" font-size="10.00">QtWidgets/QDockWidget</text>
</g>
<!-- Node1&#45;&gt;Node36 -->
<g id="edge84" class="edge"><title>Node1&#45;&gt;Node36</title>
<path fill="none" stroke="midnightblue" d="M1996.44,-208.186C2118.23,-201.511 2413.42,-183.79 2511,-164 2523.03,-161.559 2535.85,-157.771 2547.33,-153.921"/>
<polygon fill="midnightblue" stroke="midnightblue" points="2548.73,-157.141 2557.02,-150.552 2546.43,-150.529 2548.73,-157.141"/>
</g>
<!-- Node37 -->
<g id="node80" class="node"><title>Node37</title>
<polygon fill="white" stroke="#bfbfbf" points="2665.5,-129.5 2665.5,-150.5 2786.5,-150.5 2786.5,-129.5 2665.5,-129.5"/>
<text text-anchor="middle" x="2726" y="-137.5" font-family="Helvetica,sans-Serif" font-size="10.00">QtWidgets/QGridLayout</text>
</g>
<!-- Node1&#45;&gt;Node37 -->
<g id="edge86" class="edge"><title>Node1&#45;&gt;Node37</title>
<path fill="none" stroke="midnightblue" d="M1996.05,-209.356C2139.11,-204.628 2530.54,-189.666 2657,-164 2668.42,-161.682 2680.53,-157.937 2691.36,-154.087"/>
<polygon fill="midnightblue" stroke="midnightblue" points="2692.73,-157.312 2700.9,-150.56 2690.31,-150.747 2692.73,-157.312"/>
</g>
<!-- Node38 -->
<g id="node82" class="node"><title>Node38</title>
<polygon fill="white" stroke="#bfbfbf" points="2804,-129.5 2804,-150.5 2932,-150.5 2932,-129.5 2804,-129.5"/>
<text text-anchor="middle" x="2868" y="-137.5" font-family="Helvetica,sans-Serif" font-size="10.00">QtWidgets/QHBoxLayout</text>
</g>
<!-- Node1&#45;&gt;Node38 -->
<g id="edge88" class="edge"><title>Node1&#45;&gt;Node38</title>
<path fill="none" stroke="midnightblue" d="M1996.18,-209.891C2157.66,-206.234 2640.69,-193.097 2795,-164 2807.17,-161.706 2820.11,-157.92 2831.66,-154.027"/>
<polygon fill="midnightblue" stroke="midnightblue" points="2833.12,-157.223 2841.4,-150.612 2830.81,-150.617 2833.12,-157.223"/>
</g>
<!-- Node39 -->
<g id="node84" class="node"><title>Node39</title>
<polygon fill="white" stroke="#bfbfbf" points="2949.5,-129.5 2949.5,-150.5 3076.5,-150.5 3076.5,-129.5 2949.5,-129.5"/>
<text text-anchor="middle" x="3013" y="-137.5" font-family="Helvetica,sans-Serif" font-size="10.00">QtWidgets/QHeaderView</text>
</g>
<!-- Node1&#45;&gt;Node39 -->
<g id="edge90" class="edge"><title>Node1&#45;&gt;Node39</title>
<path fill="none" stroke="midnightblue" d="M1996.24,-210.416C2175.66,-208.148 2757.27,-198.27 2941,-164 2953.12,-161.739 2966,-157.924 2977.47,-153.993"/>
<polygon fill="midnightblue" stroke="midnightblue" points="2978.88,-157.204 2987.13,-150.545 2976.53,-150.611 2978.88,-157.204"/>
</g>
<!-- Node40 -->
<g id="node86" class="node"><title>Node40</title>
<polygon fill="white" stroke="#bfbfbf" points="3093.5,-129.5 3093.5,-150.5 3190.5,-150.5 3190.5,-129.5 3093.5,-129.5"/>
<text text-anchor="middle" x="3142" y="-137.5" font-family="Helvetica,sans-Serif" font-size="10.00">QtWidgets/QLabel</text>
</g>
<!-- Node1&#45;&gt;Node40 -->
<g id="edge92" class="edge"><title>Node1&#45;&gt;Node40</title>
<path fill="none" stroke="midnightblue" d="M1996.27,-209.923C2207.29,-205.504 2978.19,-187.866 3085,-164 3094.21,-161.942 3103.82,-158.467 3112.46,-154.791"/>
<polygon fill="midnightblue" stroke="midnightblue" points="3114.06,-157.912 3121.74,-150.62 3111.19,-151.528 3114.06,-157.912"/>
</g>
<!-- Node41 -->
<g id="node88" class="node"><title>Node41</title>
<polygon fill="white" stroke="#bfbfbf" points="3208,-129.5 3208,-150.5 3338,-150.5 3338,-129.5 3208,-129.5"/>
<text text-anchor="middle" x="3273" y="-137.5" font-family="Helvetica,sans-Serif" font-size="10.00">QtWidgets/QMainWindow</text>
</g>
<!-- Node1&#45;&gt;Node41 -->
<g id="edge94" class="edge"><title>Node1&#45;&gt;Node41</title>
<path fill="none" stroke="midnightblue" d="M1996.13,-209.877C2219.9,-205.029 3079.55,-185.182 3199,-164 3211.57,-161.771 3224.95,-157.915 3236.82,-153.939"/>
<polygon fill="midnightblue" stroke="midnightblue" points="3238.1,-157.199 3246.39,-150.603 3235.8,-150.589 3238.1,-157.199"/>
</g>
<!-- Node42 -->
<g id="node90" class="node"><title>Node42</title>
<polygon fill="white" stroke="#bfbfbf" points="3356,-129.5 3356,-150.5 3454,-150.5 3454,-129.5 3356,-129.5"/>
<text text-anchor="middle" x="3405" y="-137.5" font-family="Helvetica,sans-Serif" font-size="10.00">QtWidgets/QMenu</text>
</g>
<!-- Node1&#45;&gt;Node42 -->
<g id="edge96" class="edge"><title>Node1&#45;&gt;Node42</title>
<path fill="none" stroke="midnightblue" d="M1996.26,-210.344C2236.51,-207.231 3213.36,-192.89 3347,-164 3356.54,-161.937 3366.51,-158.378 3375.44,-154.624"/>
<polygon fill="midnightblue" stroke="midnightblue" points="3376.93,-157.792 3384.64,-150.534 3374.08,-151.395 3376.93,-157.792"/>
</g>
<!-- Node43 -->
<g id="node92" class="node"><title>Node43</title>
<polygon fill="white" stroke="#bfbfbf" points="3471.5,-129.5 3471.5,-150.5 3584.5,-150.5 3584.5,-129.5 3471.5,-129.5"/>
<text text-anchor="middle" x="3528" y="-137.5" font-family="Helvetica,sans-Serif" font-size="10.00">QtWidgets/QMenuBar</text>
</g>
<!-- Node1&#45;&gt;Node43 -->
<g id="edge98" class="edge"><title>Node1&#45;&gt;Node43</title>
<path fill="none" stroke="midnightblue" d="M1996.36,-210.369C2248.8,-207.246 3316.91,-192.447 3463,-164 3473.92,-161.874 3485.43,-158.154 3495.68,-154.268"/>
<polygon fill="midnightblue" stroke="midnightblue" points="3497.06,-157.485 3505.06,-150.538 3494.47,-150.98 3497.06,-157.485"/>
</g>
<!-- Node44 -->
<g id="node94" class="node"><title>Node44</title>
<polygon fill="white" stroke="#bfbfbf" points="3601.5,-129.5 3601.5,-150.5 3718.5,-150.5 3718.5,-129.5 3601.5,-129.5"/>
<text text-anchor="middle" x="3660" y="-137.5" font-family="Helvetica,sans-Serif" font-size="10.00">QtWidgets/QStatusBar</text>
</g>
<!-- Node1&#45;&gt;Node44 -->
<g id="edge100" class="edge"><title>Node1&#45;&gt;Node44</title>
<path fill="none" stroke="midnightblue" d="M1996.01,-210.482C2260.74,-207.762 3433.27,-194.094 3593,-164 3604.34,-161.863 3616.33,-158.091 3626.98,-154.16"/>
<polygon fill="midnightblue" stroke="midnightblue" points="3628.26,-157.418 3636.32,-150.549 3625.73,-150.888 3628.26,-157.418"/>
</g>
<!-- Node45 -->
<g id="node96" class="node"><title>Node45</title>
<polygon fill="white" stroke="#bfbfbf" points="3735.5,-129.5 3735.5,-150.5 3840.5,-150.5 3840.5,-129.5 3735.5,-129.5"/>
<text text-anchor="middle" x="3788" y="-137.5" font-family="Helvetica,sans-Serif" font-size="10.00">QtWidgets/QTabBar</text>
</g>
<!-- Node1&#45;&gt;Node45 -->
<g id="edge102" class="edge"><title>Node1&#45;&gt;Node45</title>
<path fill="none" stroke="midnightblue" d="M1996.15,-210.699C2274.05,-208.978 3553.94,-199.188 3727,-164 3737.1,-161.947 3747.68,-158.344 3757.15,-154.544"/>
<polygon fill="midnightblue" stroke="midnightblue" points="3758.7,-157.69 3766.54,-150.569 3755.97,-151.244 3758.7,-157.69"/>
</g>
<!-- Node46 -->
<g id="node98" class="node"><title>Node46</title>
<polygon fill="white" stroke="#bfbfbf" points="3857.5,-129.5 3857.5,-150.5 3964.5,-150.5 3964.5,-129.5 3857.5,-129.5"/>
<text text-anchor="middle" x="3911" y="-137.5" font-family="Helvetica,sans-Serif" font-size="10.00">QtWidgets/QToolBar</text>
</g>
<!-- Node1&#45;&gt;Node46 -->
<g id="edge104" class="edge"><title>Node1&#45;&gt;Node46</title>
<path fill="none" stroke="midnightblue" d="M1996.41,-210.777C2286.15,-209.423 3663.27,-201.069 3849,-164 3859.36,-161.933 3870.23,-158.278 3879.93,-154.433"/>
<polygon fill="midnightblue" stroke="midnightblue" points="3881.29,-157.658 3889.17,-150.578 3878.6,-151.197 3881.29,-157.658"/>
</g>
<!-- Node47 -->
<g id="node100" class="node"><title>Node47</title>
<polygon fill="white" stroke="#bfbfbf" points="3982,-129.5 3982,-150.5 4106,-150.5 4106,-129.5 3982,-129.5"/>
<text text-anchor="middle" x="4044" y="-137.5" font-family="Helvetica,sans-Serif" font-size="10.00">QtWidgets/QTreeWidget</text>
</g>
<!-- Node1&#45;&gt;Node47 -->
<g id="edge106" class="edge"><title>Node1&#45;&gt;Node47</title>
<path fill="none" stroke="midnightblue" d="M1996.36,-210.728C2297.07,-209.067 3773.6,-199.166 3973,-164 3985.09,-161.868 3997.91,-158.047 4009.29,-154.071"/>
<polygon fill="midnightblue" stroke="midnightblue" points="4010.66,-157.296 4018.86,-150.577 4008.26,-150.72 4010.66,-157.296"/>
</g>
<!-- Node48 -->
<g id="node102" class="node"><title>Node48</title>
<polygon fill="white" stroke="#bfbfbf" points="4123.5,-129.5 4123.5,-150.5 4250.5,-150.5 4250.5,-129.5 4123.5,-129.5"/>
<text text-anchor="middle" x="4187" y="-137.5" font-family="Helvetica,sans-Serif" font-size="10.00">QtWidgets/QVBoxLayout</text>
</g>
<!-- Node1&#45;&gt;Node48 -->
<g id="edge108" class="edge"><title>Node1&#45;&gt;Node48</title>
<path fill="none" stroke="midnightblue" d="M1996.22,-210.802C2308.9,-209.514 3900.68,-201.164 4115,-164 4127.25,-161.876 4140.25,-158.057 4151.79,-154.081"/>
<polygon fill="midnightblue" stroke="midnightblue" points="4153.27,-157.268 4161.49,-150.586 4150.89,-150.682 4153.27,-157.268"/>
</g>
<!-- Node49 -->
<g id="node104" class="node"><title>Node49</title>
<polygon fill="white" stroke="#bfbfbf" points="4268,-129.5 4268,-150.5 4372,-150.5 4372,-129.5 4268,-129.5"/>
<text text-anchor="middle" x="4320" y="-137.5" font-family="Helvetica,sans-Serif" font-size="10.00">QtWidgets/QWidget</text>
</g>
<!-- Node1&#45;&gt;Node49 -->
<g id="edge110" class="edge"><title>Node1&#45;&gt;Node49</title>
<path fill="none" stroke="midnightblue" d="M1996.15,-210.453C2331.55,-206.936 4144.52,-186.917 4259,-164 4269.1,-161.977 4279.69,-158.383 4289.16,-154.582"/>
<polygon fill="midnightblue" stroke="midnightblue" points="4290.71,-157.727 4298.55,-150.603 4287.97,-151.282 4290.71,-157.727"/>
</g>
<!-- Node50 -->
<g id="node106" class="node"><title>Node50</title>
<polygon fill="white" stroke="#bfbfbf" points="4390,-116.5 4390,-163.5 4514,-163.5 4514,-116.5 4390,-116.5"/>
<text text-anchor="start" x="4398" y="-150.5" font-family="Helvetica,sans-Serif" font-size="10.00">/home/travis/build</text>
<text text-anchor="start" x="4398" y="-137.5" font-family="Helvetica,sans-Serif" font-size="10.00">/sup3asc2/sickle/include</text>
<text text-anchor="middle" x="4452" y="-124.5" font-family="Helvetica,sans-Serif" font-size="10.00">/viewport.hpp</text>
</g>
<!-- Node1&#45;&gt;Node50 -->
<g id="edge112" class="edge"><title>Node1&#45;&gt;Node50</title>
<path fill="none" stroke="midnightblue" d="M1996.07,-210.951C2326.34,-210.521 4094.98,-206.314 4380.06,-163.771"/>
<polygon fill="midnightblue" stroke="midnightblue" points="4380.63,-167.225 4389.94,-162.176 4379.51,-160.314 4380.63,-167.225"/>
</g>
<!-- Node3 -->
<g id="node5" class="node"><title>Node3</title>
<a xlink:href="fileloader_8hpp.html" target="_top" xlink:title="fileloader.hpp">
<polygon fill="white" stroke="red" points="0,-58.5 0,-79.5 74,-79.5 74,-58.5 0,-58.5"/>
<text text-anchor="middle" x="37" y="-66.5" font-family="Helvetica,sans-Serif" font-size="10.00">fileloader.hpp</text>
</a>
</g>
<!-- Node2&#45;&gt;Node3 -->
<g id="edge4" class="edge"><title>Node2&#45;&gt;Node3</title>
<path fill="none" stroke="midnightblue" d="M411.308,-133.92C342.965,-124.38 208.213,-104.616 84.1579,-80.1259"/>
<polygon fill="midnightblue" stroke="midnightblue" points="84.595,-76.6444 74.1043,-78.126 83.2292,-83.5099 84.595,-76.6444"/>
</g>
<!-- Node4 -->
<g id="node7" class="node"><title>Node4</title>
<polygon fill="white" stroke="#bfbfbf" points="92,-58.5 92,-79.5 172,-79.5 172,-58.5 92,-58.5"/>
<text text-anchor="middle" x="132" y="-66.5" font-family="Helvetica,sans-Serif" font-size="10.00">QMainWindow</text>
</g>
<!-- Node2&#45;&gt;Node4 -->
<g id="edge6" class="edge"><title>Node2&#45;&gt;Node4</title>
<path fill="none" stroke="midnightblue" d="M411.208,-130.314C358.732,-118.947 268.897,-99.4272 181.879,-80.1864"/>
<polygon fill="midnightblue" stroke="midnightblue" points="182.627,-76.7673 172.107,-78.0242 181.115,-83.602 182.627,-76.7673"/>
</g>
<!-- Node5 -->
<g id="node9" class="node"><title>Node5</title>
<polygon fill="white" stroke="#bfbfbf" points="190,-58.5 190,-79.5 284,-79.5 284,-58.5 190,-58.5"/>
<text text-anchor="middle" x="237" y="-66.5" font-family="Helvetica,sans-Serif" font-size="10.00">QTreeWidgetItem</text>
</g>
<!-- Node2&#45;&gt;Node5 -->
<g id="edge8" class="edge"><title>Node2&#45;&gt;Node5</title>
<path fill="none" stroke="midnightblue" d="M423.213,-129.371C384.881,-116.943 321.344,-96.3443 279.32,-82.7203"/>
<polygon fill="midnightblue" stroke="midnightblue" points="280.244,-79.3406 269.652,-79.586 278.086,-85.9994 280.244,-79.3406"/>
</g>
<!-- Node6 -->
<g id="node11" class="node"><title>Node6</title>
<polygon fill="white" stroke="#bfbfbf" points="302,-58.5 302,-79.5 382,-79.5 382,-58.5 302,-58.5"/>
<text text-anchor="middle" x="342" y="-66.5" font-family="Helvetica,sans-Serif" font-size="10.00">QPluginLoader</text>
</g>
<!-- Node2&#45;&gt;Node6 -->
<g id="edge10" class="edge"><title>Node2&#45;&gt;Node6</title>
<path fill="none" stroke="midnightblue" d="M438.686,-129.217C419.828,-117.472 389.466,-98.5623 367.799,-85.0675"/>
<polygon fill="midnightblue" stroke="midnightblue" points="369.442,-81.9679 359.104,-79.6522 365.742,-87.9098 369.442,-81.9679"/>
</g>
<!-- Node7 -->
<g id="node13" class="node"><title>Node7</title>
<polygon fill="white" stroke="#bfbfbf" points="400,-58.5 400,-79.5 468,-79.5 468,-58.5 400,-58.5"/>
<text text-anchor="middle" x="434" y="-66.5" font-family="Helvetica,sans-Serif" font-size="10.00">QJsonArray</text>
</g>
<!-- Node2&#45;&gt;Node7 -->
<g id="edge12" class="edge"><title>Node2&#45;&gt;Node7</title>
<path fill="none" stroke="midnightblue" d="M452.659,-129.217C449.428,-118.791 444.448,-102.719 440.445,-89.8011"/>
<polygon fill="midnightblue" stroke="midnightblue" points="443.676,-88.4009 437.373,-79.8849 436.989,-90.4728 443.676,-88.4009"/>
</g>
<!-- Node8 -->
<g id="node15" class="node"><title>Node8</title>
<polygon fill="white" stroke="#bfbfbf" points="486,-58.5 486,-79.5 556,-79.5 556,-58.5 486,-58.5"/>
<text text-anchor="middle" x="521" y="-66.5" font-family="Helvetica,sans-Serif" font-size="10.00">QCheckBox</text>
</g>
<!-- Node2&#45;&gt;Node8 -->
<g id="edge14" class="edge"><title>Node2&#45;&gt;Node8</title>
<path fill="none" stroke="midnightblue" d="M465.872,-129.217C475.989,-118.165 491.915,-100.77 504.053,-87.5118"/>
<polygon fill="midnightblue" stroke="midnightblue" points="506.864,-89.6241 511.035,-79.8849 501.701,-84.8973 506.864,-89.6241"/>
</g>
<!-- Node9 -->
<g id="node17" class="node"><title>Node9</title>
<polygon fill="white" stroke="#bfbfbf" points="573.5,-58.5 573.5,-79.5 646.5,-79.5 646.5,-58.5 573.5,-58.5"/>
<text text-anchor="middle" x="610" y="-66.5" font-family="Helvetica,sans-Serif" font-size="10.00">QComboBox</text>
</g>
<!-- Node2&#45;&gt;Node9 -->
<g id="edge16" class="edge"><title>Node2&#45;&gt;Node9</title>
<path fill="none" stroke="midnightblue" d="M479.055,-129.371C505.214,-117.31 548.066,-97.554 577.583,-83.9454"/>
<polygon fill="midnightblue" stroke="midnightblue" points="579.423,-86.9513 587.039,-79.586 576.492,-80.5944 579.423,-86.9513"/>
</g>
<!-- Node10 -->
<g id="node19" class="node"><title>Node10</title>
<polygon fill="white" stroke="#bfbfbf" points="663.5,-58.5 663.5,-79.5 722.5,-79.5 722.5,-58.5 663.5,-58.5"/>
<text text-anchor="middle" x="693" y="-66.5" font-family="Helvetica,sans-Serif" font-size="10.00">functional</text>
</g>
<!-- Node2&#45;&gt;Node10 -->
<g id="edge18" class="edge"><title>Node2&#45;&gt;Node10</title>
<path fill="none" stroke="midnightblue" d="M488.426,-129.41C501.61,-125.16 517.008,-120.268 531,-116 537.002,-114.169 607.605,-93.7162 653.601,-80.4013"/>
<polygon fill="midnightblue" stroke="midnightblue" points="654.661,-83.7382 663.294,-77.5958 652.715,-77.0143 654.661,-83.7382"/>
</g>
<!-- Node11 -->
<g id="node21" class="node"><title>Node11</title>
<polygon fill="white" stroke="#bfbfbf" points="764,-0.5 764,-21.5 802,-21.5 802,-0.5 764,-0.5"/>
<text text-anchor="middle" x="783" y="-8.5" font-family="Helvetica,sans-Serif" font-size="10.00">tuple</text>
</g>
<!-- Node2&#45;&gt;Node11 -->
<g id="edge20" class="edge"><title>Node2&#45;&gt;Node11</title>
<path fill="none" stroke="midnightblue" d="M486.029,-129.392C499.639,-124.844 516.009,-119.731 531,-116 618.644,-94.1895 654.075,-127.326 731,-80 750.15,-68.2186 764.702,-46.5788 773.475,-30.6638"/>
<polygon fill="midnightblue" stroke="midnightblue" points="776.663,-32.1193 778.18,-21.6336 770.455,-28.8846 776.663,-32.1193"/>
</g>
<!-- Node13 -->
<g id="node25" class="node"><title>Node13</title>
<a xlink:href="geometry_8hpp.html" target="_top" xlink:title="geometry.hpp">
<polygon fill="white" stroke="red" points="778,-58.5 778,-79.5 854,-79.5 854,-58.5 778,-58.5"/>
<text text-anchor="middle" x="816" y="-66.5" font-family="Helvetica,sans-Serif" font-size="10.00">geometry.hpp</text>
</a>
</g>
<!-- Node12&#45;&gt;Node13 -->
<g id="edge24" class="edge"><title>Node12&#45;&gt;Node13</title>
<path fill="none" stroke="midnightblue" d="M587.398,-129.49C594.858,-124.795 604.11,-119.536 613,-116 627.319,-110.305 712.511,-91.3687 767.886,-79.3413"/>
<polygon fill="midnightblue" stroke="midnightblue" points="768.823,-82.7195 777.855,-77.1807 767.34,-75.8784 768.823,-82.7195"/>
</g>
<!-- Node13&#45;&gt;Node11 -->
<g id="edge26" class="edge"><title>Node13&#45;&gt;Node11</title>
<path fill="none" stroke="midnightblue" d="M809.947,-58.3619C805.528,-50.5949 799.41,-39.8426 794.121,-30.5458"/>
<polygon fill="midnightblue" stroke="midnightblue" points="797.002,-28.5315 789.014,-21.5707 790.918,-31.9932 797.002,-28.5315"/>
</g>
<!-- Node14&#45;&gt;Node13 -->
<g id="edge30" class="edge"><title>Node14&#45;&gt;Node13</title>
<path fill="none" stroke="midnightblue" d="M678.524,-129.371C686.639,-125.07 696.201,-120.15 705,-116 729.621,-104.388 757.879,-92.4416 779.722,-83.499"/>
<polygon fill="midnightblue" stroke="midnightblue" points="781.327,-86.6247 789.271,-79.6136 778.689,-80.1409 781.327,-86.6247"/>
</g>
<!-- Node15&#45;&gt;Node13 -->
<g id="edge34" class="edge"><title>Node15&#45;&gt;Node13</title>
<path fill="none" stroke="midnightblue" d="M750.695,-129.217C762.977,-117.891 782.485,-99.9039 796.985,-86.5335"/>
<polygon fill="midnightblue" stroke="midnightblue" points="799.468,-89.0042 804.448,-79.6522 794.723,-83.858 799.468,-89.0042"/>
</g>
<!-- Node16&#45;&gt;Node13 -->
<g id="edge38" class="edge"><title>Node16&#45;&gt;Node13</title>
<path fill="none" stroke="midnightblue" d="M816,-129.217C816,-118.895 816,-103.04 816,-90.1896"/>
<polygon fill="midnightblue" stroke="midnightblue" points="819.5,-89.8848 816,-79.8849 812.5,-89.8849 819.5,-89.8848"/>
</g>
<!-- Node18&#45;&gt;Node17 -->
<g id="edge44" class="edge"><title>Node18&#45;&gt;Node17</title>
<path fill="none" stroke="midnightblue" d="M1093.14,-129.217C1088.35,-118.582 1080.91,-102.074 1075.03,-89.0299"/>
<polygon fill="midnightblue" stroke="midnightblue" points="1078.21,-87.5635 1070.91,-79.8849 1071.82,-90.4398 1078.21,-87.5635"/>
</g>
<!-- Node19&#45;&gt;Node13 -->
<g id="edge48" class="edge"><title>Node19&#45;&gt;Node13</title>
<path fill="none" stroke="midnightblue" d="M884.698,-129.217C871.778,-117.891 851.257,-99.9039 836.003,-86.5335"/>
<polygon fill="midnightblue" stroke="midnightblue" points="837.98,-83.6119 828.153,-79.6522 833.365,-88.8759 837.98,-83.6119"/>
</g>
<!-- Node20&#45;&gt;Node13 -->
<g id="edge52" class="edge"><title>Node20&#45;&gt;Node13</title>
<path fill="none" stroke="midnightblue" d="M958.605,-129.331C951.498,-124.927 942.989,-119.941 935,-116 909.551,-103.446 879.868,-91.7171 856.513,-83.1164"/>
<polygon fill="midnightblue" stroke="midnightblue" points="857.516,-79.757 846.922,-79.6286 855.124,-86.3355 857.516,-79.757"/>
</g>
</g>
</svg>
