<?xml version="1.0" encoding="UTF-8" standalone="no"?>
<!DOCTYPE svg PUBLIC "-//W3C//DTD SVG 1.1//EN"
 "http://www.w3.org/Graphics/SVG/1.1/DTD/svg11.dtd">
<!-- Generated by graphviz version 2.26.3 (20100126.1600)
 -->
<!-- Title: include/mainwindow.hpp Pages: 1 -->
<svg width="276pt" height="88pt"
 viewBox="0.00 0.00 276.00 88.00" xmlns="http://www.w3.org/2000/svg" xmlns:xlink="http://www.w3.org/1999/xlink">
<g id="graph1" class="graph" transform="scale(1 1) rotate(0) translate(4 84)">
<title>include/mainwindow.hpp</title>
<polygon fill="white" stroke="white" points="-4,5 -4,-84 273,-84 273,5 -4,5"/>
<!-- Node1 -->
<g id="node1" class="node"><title>Node1</title>
<polygon fill="#bfbfbf" stroke="black" points="83.5,-58.5 83.5,-79.5 206.5,-79.5 206.5,-58.5 83.5,-58.5"/>
<text text-anchor="middle" x="145" y="-66.5" font-family="Helvetica,sans-Serif" font-size="10.00">include/mainwindow.hpp</text>
</g>
<!-- Node2 -->
<g id="node3" class="node"><title>Node2</title>
<polygon fill="white" stroke="#bfbfbf" points="0,-0.5 0,-21.5 80,-21.5 80,-0.5 0,-0.5"/>
<text text-anchor="middle" x="40" y="-8.5" font-family="Helvetica,sans-Serif" font-size="10.00">QMainWindow</text>
</g>
<!-- Node1&#45;&gt;Node2 -->
<g id="edge2" class="edge"><title>Node1&#45;&gt;Node2</title>
<path fill="none" stroke="midnightblue" d="M125.741,-58.3619C109.534,-49.4094 86.1471,-36.4908 67.8909,-26.4064"/>
<polygon fill="midnightblue" stroke="midnightblue" points="69.5822,-23.3422 59.1365,-21.5707 66.1976,-29.4696 69.5822,-23.3422"/>
</g>
<!-- Node3 -->
<g id="node5" class="node"><title>Node3</title>
<polygon fill="white" stroke="#bfbfbf" points="98,-0.5 98,-21.5 192,-21.5 192,-0.5 98,-0.5"/>
<text text-anchor="middle" x="145" y="-8.5" font-family="Helvetica,sans-Serif" font-size="10.00">QTreeWidgetItem</text>
</g>
<!-- Node1&#45;&gt;Node3 -->
<g id="edge4" class="edge"><title>Node1&#45;&gt;Node3</title>
<path fill="none" stroke="midnightblue" d="M145,-58.3619C145,-50.9219 145,-40.7427 145,-31.7276"/>
<polygon fill="midnightblue" stroke="midnightblue" points="148.5,-31.5706 145,-21.5707 141.5,-31.5707 148.5,-31.5706"/>
</g>
<!-- Node4 -->
<g id="node7" class="node"><title>Node4</title>
<polygon fill="white" stroke="#bfbfbf" points="209.5,-0.5 209.5,-21.5 268.5,-21.5 268.5,-0.5 209.5,-0.5"/>
<text text-anchor="middle" x="239" y="-8.5" font-family="Helvetica,sans-Serif" font-size="10.00">functional</text>
</g>
<!-- Node1&#45;&gt;Node4 -->
<g id="edge6" class="edge"><title>Node1&#45;&gt;Node4</title>
<path fill="none" stroke="midnightblue" d="M162.241,-58.3619C176.552,-49.532 197.115,-36.844 213.357,-26.8224"/>
<polygon fill="midnightblue" stroke="midnightblue" points="215.196,-29.8004 221.868,-21.5707 211.52,-23.8431 215.196,-29.8004"/>
</g>
</g>
</svg>
