<?xml version="1.0" encoding="UTF-8" standalone="no"?>
<!DOCTYPE svg PUBLIC "-//W3C//DTD SVG 1.1//EN"
 "http://www.w3.org/Graphics/SVG/1.1/DTD/svg11.dtd">
<!-- Generated by graphviz version 2.26.3 (20100126.1600)
 -->
<!-- Title: include/mainwindow.hpp Pages: 1 -->
<svg width="659pt" height="146pt"
 viewBox="0.00 0.00 659.00 146.00" xmlns="http://www.w3.org/2000/svg" xmlns:xlink="http://www.w3.org/1999/xlink">
<g id="graph1" class="graph" transform="scale(1 1) rotate(0) translate(4 142)">
<title>include/mainwindow.hpp</title>
<polygon fill="white" stroke="white" points="-4,5 -4,-142 656,-142 656,5 -4,5"/>
<!-- Node1 -->
<g id="node1" class="node"><title>Node1</title>
<polygon fill="#bfbfbf" stroke="black" points="331.5,-116.5 331.5,-137.5 454.5,-137.5 454.5,-116.5 331.5,-116.5"/>
<text text-anchor="middle" x="393" y="-124.5" font-family="Helvetica,sans-Serif" font-size="10.00">include/mainwindow.hpp</text>
</g>
<!-- Node2 -->
<g id="node3" class="node"><title>Node2</title>
<a xlink:href="fileloader_8hpp.html" target="_top" xlink:title="fileloader.hpp">
<polygon fill="white" stroke="black" points="51,-58.5 51,-79.5 125,-79.5 125,-58.5 51,-58.5"/>
<text text-anchor="middle" x="88" y="-66.5" font-family="Helvetica,sans-Serif" font-size="10.00">fileloader.hpp</text>
</a>
</g>
<!-- Node1&#45;&gt;Node2 -->
<g id="edge2" class="edge"><title>Node1&#45;&gt;Node2</title>
<path fill="none" stroke="midnightblue" d="M331.325,-116.794C280.993,-108.24 207.813,-95.2916 134.93,-80.1187"/>
<polygon fill="midnightblue" stroke="midnightblue" points="135.623,-76.6879 125.117,-78.0618 134.187,-83.539 135.623,-76.6879"/>
</g>
<!-- Node6 -->
<g id="node11" class="node"><title>Node6</title>
<polygon fill="white" stroke="#bfbfbf" points="143,-58.5 143,-79.5 223,-79.5 223,-58.5 143,-58.5"/>
<text text-anchor="middle" x="183" y="-66.5" font-family="Helvetica,sans-Serif" font-size="10.00">QMainWindow</text>
</g>
<!-- Node1&#45;&gt;Node6 -->
<g id="edge10" class="edge"><title>Node1&#45;&gt;Node6</title>
<path fill="none" stroke="midnightblue" d="M354.971,-116.497C320.142,-106.877 268.441,-92.5981 230.826,-82.209"/>
<polygon fill="midnightblue" stroke="midnightblue" points="231.672,-78.8117 221.101,-79.5231 229.808,-85.5591 231.672,-78.8117"/>
</g>
<!-- Node7 -->
<g id="node13" class="node"><title>Node7</title>
<polygon fill="white" stroke="#bfbfbf" points="241,-58.5 241,-79.5 335,-79.5 335,-58.5 241,-58.5"/>
<text text-anchor="middle" x="288" y="-66.5" font-family="Helvetica,sans-Serif" font-size="10.00">QTreeWidgetItem</text>
</g>
<!-- Node1&#45;&gt;Node7 -->
<g id="edge12" class="edge"><title>Node1&#45;&gt;Node7</title>
<path fill="none" stroke="midnightblue" d="M373.741,-116.362C357.534,-107.409 334.147,-94.4908 315.891,-84.4064"/>
<polygon fill="midnightblue" stroke="midnightblue" points="317.582,-81.3422 307.137,-79.5707 314.198,-87.4696 317.582,-81.3422"/>
</g>
<!-- Node8 -->
<g id="node15" class="node"><title>Node8</title>
<polygon fill="white" stroke="#bfbfbf" points="353,-58.5 353,-79.5 433,-79.5 433,-58.5 353,-58.5"/>
<text text-anchor="middle" x="393" y="-66.5" font-family="Helvetica,sans-Serif" font-size="10.00">QPluginLoader</text>
</g>
<!-- Node1&#45;&gt;Node8 -->
<g id="edge14" class="edge"><title>Node1&#45;&gt;Node8</title>
<path fill="none" stroke="midnightblue" d="M393,-116.362C393,-108.922 393,-98.7427 393,-89.7276"/>
<polygon fill="midnightblue" stroke="midnightblue" points="396.5,-89.5706 393,-79.5707 389.5,-89.5707 396.5,-89.5706"/>
</g>
<!-- Node9 -->
<g id="node17" class="node"><title>Node9</title>
<polygon fill="white" stroke="#bfbfbf" points="451,-58.5 451,-79.5 519,-79.5 519,-58.5 451,-58.5"/>
<text text-anchor="middle" x="485" y="-66.5" font-family="Helvetica,sans-Serif" font-size="10.00">QJsonArray</text>
</g>
<!-- Node1&#45;&gt;Node9 -->
<g id="edge16" class="edge"><title>Node1&#45;&gt;Node9</title>
<path fill="none" stroke="midnightblue" d="M409.874,-116.362C423.751,-107.614 443.634,-95.0786 459.46,-85.1015"/>
<polygon fill="midnightblue" stroke="midnightblue" points="461.64,-87.8645 468.233,-79.5707 457.907,-81.943 461.64,-87.8645"/>
</g>
<!-- Node10 -->
<g id="node19" class="node"><title>Node10</title>
<polygon fill="white" stroke="#bfbfbf" points="536.5,-58.5 536.5,-79.5 595.5,-79.5 595.5,-58.5 536.5,-58.5"/>
<text text-anchor="middle" x="566" y="-66.5" font-family="Helvetica,sans-Serif" font-size="10.00">functional</text>
</g>
<!-- Node1&#45;&gt;Node10 -->
<g id="edge18" class="edge"><title>Node1&#45;&gt;Node10</title>
<path fill="none" stroke="midnightblue" d="M424.329,-116.497C453.06,-106.864 495.728,-92.5595 526.727,-82.1668"/>
<polygon fill="midnightblue" stroke="midnightblue" points="527.98,-85.4382 536.349,-78.9409 525.755,-78.8012 527.98,-85.4382"/>
</g>
<!-- Node11 -->
<g id="node21" class="node"><title>Node11</title>
<polygon fill="white" stroke="#bfbfbf" points="613,-58.5 613,-79.5 651,-79.5 651,-58.5 613,-58.5"/>
<text text-anchor="middle" x="632" y="-66.5" font-family="Helvetica,sans-Serif" font-size="10.00">tuple</text>
</g>
<!-- Node1&#45;&gt;Node11 -->
<g id="edge20" class="edge"><title>Node1&#45;&gt;Node11</title>
<path fill="none" stroke="midnightblue" d="M451.848,-116.435C492.193,-108.613 547.006,-96.8481 603.111,-79.9557"/>
<polygon fill="midnightblue" stroke="midnightblue" points="604.321,-83.2457 612.859,-76.9723 602.273,-76.5522 604.321,-83.2457"/>
</g>
<!-- Node3 -->
<g id="node5" class="node"><title>Node3</title>
<polygon fill="white" stroke="#bfbfbf" points="0,-0.5 0,-21.5 50,-21.5 50,-0.5 0,-0.5"/>
<text text-anchor="middle" x="25" y="-8.5" font-family="Helvetica,sans-Serif" font-size="10.00">QString</text>
</g>
<!-- Node2&#45;&gt;Node3 -->
<g id="edge4" class="edge"><title>Node2&#45;&gt;Node3</title>
<path fill="none" stroke="midnightblue" d="M76.4448,-58.3619C67.3866,-50.0226 54.5903,-38.2418 44.0263,-28.5162"/>
<polygon fill="midnightblue" stroke="midnightblue" points="46.2095,-25.7688 36.4819,-21.5707 41.4683,-30.9187 46.2095,-25.7688"/>
</g>
<!-- Node4 -->
<g id="node7" class="node"><title>Node4</title>
<polygon fill="white" stroke="#bfbfbf" points="68,-0.5 68,-21.5 108,-21.5 108,-0.5 68,-0.5"/>
<text text-anchor="middle" x="88" y="-8.5" font-family="Helvetica,sans-Serif" font-size="10.00">QFile</text>
</g>
<!-- Node2&#45;&gt;Node4 -->
<g id="edge6" class="edge"><title>Node2&#45;&gt;Node4</title>
<path fill="none" stroke="midnightblue" d="M88,-58.3619C88,-50.9219 88,-40.7427 88,-31.7276"/>
<polygon fill="midnightblue" stroke="midnightblue" points="91.5001,-31.5706 88,-21.5707 84.5001,-31.5707 91.5001,-31.5706"/>
</g>
<!-- Node5 -->
<g id="node9" class="node"><title>Node5</title>
<polygon fill="white" stroke="#bfbfbf" points="126,-0.5 126,-21.5 200,-21.5 200,-0.5 126,-0.5"/>
<text text-anchor="middle" x="163" y="-8.5" font-family="Helvetica,sans-Serif" font-size="10.00">QMetaObject</text>
</g>
<!-- Node2&#45;&gt;Node5 -->
<g id="edge8" class="edge"><title>Node2&#45;&gt;Node5</title>
<path fill="none" stroke="midnightblue" d="M101.756,-58.3619C112.751,-49.859 128.373,-37.7785 141.086,-27.9466"/>
<polygon fill="midnightblue" stroke="midnightblue" points="143.562,-30.4569 149.331,-21.5707 139.279,-24.9195 143.562,-30.4569"/>
</g>
</g>
</svg>
