<?xml version="1.0" encoding="UTF-8" standalone="no"?>
<!DOCTYPE svg PUBLIC "-//W3C//DTD SVG 1.1//EN"
 "http://www.w3.org/Graphics/SVG/1.1/DTD/svg11.dtd">
<!-- Generated by graphviz version 2.26.3 (20100126.1600)
 -->
<!-- Title: src/mainwindow.cpp Pages: 1 -->
<svg width="3909pt" height="230pt"
 viewBox="0.00 0.00 3909.00 230.00" xmlns="http://www.w3.org/2000/svg" xmlns:xlink="http://www.w3.org/1999/xlink">
<g id="graph1" class="graph" transform="scale(1 1) rotate(0) translate(4 226)">
<title>src/mainwindow.cpp</title>
<polygon fill="white" stroke="white" points="-4,5 -4,-226 3906,-226 3906,5 -4,5"/>
<!-- Node1 -->
<g id="node1" class="node"><title>Node1</title>
<polygon fill="#bfbfbf" stroke="black" points="1830,-200.5 1830,-221.5 1936,-221.5 1936,-200.5 1830,-200.5"/>
<text text-anchor="middle" x="1883" y="-208.5" font-family="Helvetica,sans-Serif" font-size="10.00">src/mainwindow.cpp</text>
</g>
<!-- Node2 -->
<g id="node3" class="node"><title>Node2</title>
<a xlink:href="mainwindow_8hpp.html" target="_top" xlink:title="mainwindow.hpp">
<polygon fill="white" stroke="black" points="394.5,-129.5 394.5,-150.5 483.5,-150.5 483.5,-129.5 394.5,-129.5"/>
<text text-anchor="middle" x="439" y="-137.5" font-family="Helvetica,sans-Serif" font-size="10.00">mainwindow.hpp</text>
</a>
</g>
<!-- Node1&#45;&gt;Node2 -->
<g id="edge2" class="edge"><title>Node1&#45;&gt;Node2</title>
<path fill="none" stroke="midnightblue" d="M1829.94,-209.753C1664.64,-205.676 1144.24,-191.408 714,-164 637.457,-159.124 549.142,-150.965 493.687,-145.533"/>
<polygon fill="midnightblue" stroke="midnightblue" points="494.021,-142.049 483.726,-144.552 493.334,-149.015 494.021,-142.049"/>
</g>
<!-- Node13 -->
<g id="node25" class="node"><title>Node13</title>
<a xlink:href="sphere_8hpp.html" target="_top" xlink:title="sphere.hpp">
<polygon fill="white" stroke="black" points="722.5,-129.5 722.5,-150.5 787.5,-150.5 787.5,-129.5 722.5,-129.5"/>
<text text-anchor="middle" x="755" y="-137.5" font-family="Helvetica,sans-Serif" font-size="10.00">sphere.hpp</text>
</a>
</g>
<!-- Node1&#45;&gt;Node13 -->
<g id="edge24" class="edge"><title>Node1&#45;&gt;Node13</title>
<path fill="none" stroke="midnightblue" d="M1829.77,-210.203C1625.15,-206.934 895.545,-193.316 796,-164 789.666,-162.135 783.283,-159.088 777.502,-155.783"/>
<polygon fill="midnightblue" stroke="midnightblue" points="779.348,-152.809 769.006,-150.507 775.655,-158.756 779.348,-152.809"/>
</g>
<!-- Node23 -->
<g id="node45" class="node"><title>Node23</title>
<polygon fill="white" stroke="#bfbfbf" points="804.5,-129.5 804.5,-150.5 859.5,-150.5 859.5,-129.5 804.5,-129.5"/>
<text text-anchor="middle" x="832" y="-137.5" font-family="Helvetica,sans-Serif" font-size="10.00">QVariant</text>
</g>
<!-- Node1&#45;&gt;Node23 -->
<g id="edge44" class="edge"><title>Node1&#45;&gt;Node23</title>
<path fill="none" stroke="midnightblue" d="M1829.94,-210.204C1634.24,-207.043 959.555,-194.05 868,-164 862.781,-162.287 857.606,-159.594 852.876,-156.622"/>
<polygon fill="midnightblue" stroke="midnightblue" points="854.641,-153.585 844.434,-150.744 850.641,-159.33 854.641,-153.585"/>
</g>
<!-- Node24 -->
<g id="node47" class="node"><title>Node24</title>
<polygon fill="white" stroke="#bfbfbf" points="877,-129.5 877,-150.5 945,-150.5 945,-129.5 877,-129.5"/>
<text text-anchor="middle" x="911" y="-137.5" font-family="Helvetica,sans-Serif" font-size="10.00">QFileDialog</text>
</g>
<!-- Node1&#45;&gt;Node24 -->
<g id="edge46" class="edge"><title>Node1&#45;&gt;Node24</title>
<path fill="none" stroke="midnightblue" d="M1829.79,-209.721C1645.06,-205.084 1038.06,-188.153 954,-164 947.529,-162.141 940.97,-159.154 934.99,-155.91"/>
<polygon fill="midnightblue" stroke="midnightblue" points="936.56,-152.773 926.165,-150.725 933.014,-158.808 936.56,-152.773"/>
</g>
<!-- Node25 -->
<g id="node49" class="node"><title>Node25</title>
<polygon fill="white" stroke="#bfbfbf" points="962.5,-129.5 962.5,-150.5 1023.5,-150.5 1023.5,-129.5 962.5,-129.5"/>
<text text-anchor="middle" x="993" y="-137.5" font-family="Helvetica,sans-Serif" font-size="10.00">QSpinBox</text>
</g>
<!-- Node1&#45;&gt;Node25 -->
<g id="edge48" class="edge"><title>Node1&#45;&gt;Node25</title>
<path fill="none" stroke="midnightblue" d="M1829.74,-209.581C1655.28,-204.723 1107.81,-187.735 1032,-164 1026.31,-162.218 1020.61,-159.421 1015.39,-156.355"/>
<polygon fill="midnightblue" stroke="midnightblue" points="1016.92,-153.181 1006.62,-150.71 1013.13,-159.066 1016.92,-153.181"/>
</g>
<!-- Node26 -->
<g id="node51" class="node"><title>Node26</title>
<polygon fill="white" stroke="#bfbfbf" points="1040.5,-129.5 1040.5,-150.5 1087.5,-150.5 1087.5,-129.5 1040.5,-129.5"/>
<text text-anchor="middle" x="1064" y="-137.5" font-family="Helvetica,sans-Serif" font-size="10.00">QLabel</text>
</g>
<!-- Node1&#45;&gt;Node26 -->
<g id="edge50" class="edge"><title>Node1&#45;&gt;Node26</title>
<path fill="none" stroke="midnightblue" d="M1829.93,-209.6C1664.39,-204.988 1164.47,-189.115 1096,-164 1091.48,-162.341 1087.06,-159.818 1083.01,-157.022"/>
<polygon fill="midnightblue" stroke="midnightblue" points="1084.92,-154.07 1074.87,-150.694 1080.62,-159.595 1084.92,-154.07"/>
</g>
<!-- Node27 -->
<g id="node53" class="node"><title>Node27</title>
<polygon fill="white" stroke="#bfbfbf" points="1104.5,-129.5 1104.5,-150.5 1163.5,-150.5 1163.5,-129.5 1104.5,-129.5"/>
<text text-anchor="middle" x="1134" y="-137.5" font-family="Helvetica,sans-Serif" font-size="10.00">QLineEdit</text>
</g>
<!-- Node1&#45;&gt;Node27 -->
<g id="edge52" class="edge"><title>Node1&#45;&gt;Node27</title>
<path fill="none" stroke="midnightblue" d="M1829.75,-208.994C1675.25,-202.962 1233.94,-184.16 1172,-164 1166.44,-162.189 1160.87,-159.379 1155.78,-156.311"/>
<polygon fill="midnightblue" stroke="midnightblue" points="1157.51,-153.261 1147.24,-150.67 1153.66,-159.102 1157.51,-153.261"/>
</g>
<!-- Node28 -->
<g id="node55" class="node"><title>Node28</title>
<polygon fill="white" stroke="#bfbfbf" points="1180.5,-129.5 1180.5,-150.5 1255.5,-150.5 1255.5,-129.5 1180.5,-129.5"/>
<text text-anchor="middle" x="1218" y="-137.5" font-family="Helvetica,sans-Serif" font-size="10.00">QColorDialog</text>
</g>
<!-- Node1&#45;&gt;Node28 -->
<g id="edge54" class="edge"><title>Node1&#45;&gt;Node28</title>
<path fill="none" stroke="midnightblue" d="M1829.84,-209.709C1700.01,-206.116 1369.7,-194.204 1264,-164 1257.02,-162.005 1249.87,-158.886 1243.35,-155.549"/>
<polygon fill="midnightblue" stroke="midnightblue" points="1244.8,-152.352 1234.35,-150.609 1241.44,-158.488 1244.8,-152.352"/>
</g>
<!-- Node29 -->
<g id="node57" class="node"><title>Node29</title>
<polygon fill="white" stroke="#bfbfbf" points="1272.5,-129.5 1272.5,-150.5 1347.5,-150.5 1347.5,-129.5 1272.5,-129.5"/>
<text text-anchor="middle" x="1310" y="-137.5" font-family="Helvetica,sans-Serif" font-size="10.00">QPushButton</text>
</g>
<!-- Node1&#45;&gt;Node29 -->
<g id="edge56" class="edge"><title>Node1&#45;&gt;Node29</title>
<path fill="none" stroke="midnightblue" d="M1829.74,-208.887C1714.18,-203.876 1443.82,-189.722 1356,-164 1349.03,-161.959 1341.89,-158.823 1335.37,-155.484"/>
<polygon fill="midnightblue" stroke="midnightblue" points="1336.82,-152.287 1326.37,-150.551 1333.46,-158.426 1336.82,-152.287"/>
</g>
<!-- Node30 -->
<g id="node59" class="node"><title>Node30</title>
<polygon fill="white" stroke="#bfbfbf" points="1365,-129.5 1365,-150.5 1405,-150.5 1405,-129.5 1365,-129.5"/>
<text text-anchor="middle" x="1385" y="-137.5" font-family="Helvetica,sans-Serif" font-size="10.00">QList</text>
</g>
<!-- Node1&#45;&gt;Node30 -->
<g id="edge58" class="edge"><title>Node1&#45;&gt;Node30</title>
<path fill="none" stroke="midnightblue" d="M1829.98,-209.558C1723.61,-206.037 1488,-194.905 1414,-164 1409.93,-162.3 1405.99,-159.828 1402.39,-157.109"/>
<polygon fill="midnightblue" stroke="midnightblue" points="1404.61,-154.397 1394.73,-150.565 1400.06,-159.72 1404.61,-154.397"/>
</g>
<!-- Node31 -->
<g id="node61" class="node"><title>Node31</title>
<polygon fill="white" stroke="#bfbfbf" points="1422.5,-129.5 1422.5,-150.5 1471.5,-150.5 1471.5,-129.5 1422.5,-129.5"/>
<text text-anchor="middle" x="1447" y="-137.5" font-family="Helvetica,sans-Serif" font-size="10.00">QtMath</text>
</g>
<!-- Node1&#45;&gt;Node31 -->
<g id="edge60" class="edge"><title>Node1&#45;&gt;Node31</title>
<path fill="none" stroke="midnightblue" d="M1830,-208.161C1735.64,-202.557 1542.58,-188.447 1480,-164 1475.3,-162.163 1470.66,-159.49 1466.41,-156.588"/>
<polygon fill="midnightblue" stroke="midnightblue" points="1468.43,-153.73 1458.34,-150.504 1464.22,-159.32 1468.43,-153.73"/>
</g>
<!-- Node32 -->
<g id="node63" class="node"><title>Node32</title>
<polygon fill="white" stroke="#bfbfbf" points="1489,-129.5 1489,-150.5 1529,-150.5 1529,-129.5 1489,-129.5"/>
<text text-anchor="middle" x="1509" y="-137.5" font-family="Helvetica,sans-Serif" font-size="10.00">limits</text>
</g>
<!-- Node1&#45;&gt;Node32 -->
<g id="edge62" class="edge"><title>Node1&#45;&gt;Node32</title>
<path fill="none" stroke="midnightblue" d="M1829.92,-207.343C1746.57,-201.004 1589.21,-186.461 1538,-164 1534.14,-162.306 1530.38,-159.941 1526.92,-157.351"/>
<polygon fill="midnightblue" stroke="midnightblue" points="1528.94,-154.476 1519.04,-150.703 1524.43,-159.826 1528.94,-154.476"/>
</g>
<!-- Node33 -->
<g id="node65" class="node"><title>Node33</title>
<polygon fill="white" stroke="#bfbfbf" points="1547,-129.5 1547,-150.5 1645,-150.5 1645,-129.5 1547,-129.5"/>
<text text-anchor="middle" x="1596" y="-137.5" font-family="Helvetica,sans-Serif" font-size="10.00">./ui_mainwindow.h</text>
</g>
<!-- Node1&#45;&gt;Node33 -->
<g id="edge64" class="edge"><title>Node1&#45;&gt;Node33</title>
<path fill="none" stroke="midnightblue" d="M1829.99,-203.058C1783.11,-195.343 1713.18,-182.136 1654,-164 1645.46,-161.384 1636.45,-157.983 1628.14,-154.569"/>
<polygon fill="midnightblue" stroke="midnightblue" points="1629.35,-151.281 1618.78,-150.601 1626.62,-157.726 1629.35,-151.281"/>
</g>
<!-- Node34 -->
<g id="node67" class="node"><title>Node34</title>
<polygon fill="white" stroke="#bfbfbf" points="1662.5,-129.5 1662.5,-150.5 1751.5,-150.5 1751.5,-129.5 1662.5,-129.5"/>
<text text-anchor="middle" x="1707" y="-137.5" font-family="Helvetica,sans-Serif" font-size="10.00">QtCore/QVariant</text>
</g>
<!-- Node1&#45;&gt;Node34 -->
<g id="edge66" class="edge"><title>Node1&#45;&gt;Node34</title>
<path fill="none" stroke="midnightblue" d="M1853.98,-200.471C1828.93,-191.251 1791.86,-177.286 1760,-164 1753.08,-161.113 1745.71,-157.882 1738.74,-154.749"/>
<polygon fill="midnightblue" stroke="midnightblue" points="1740.12,-151.529 1729.56,-150.58 1737.22,-157.902 1740.12,-151.529"/>
</g>
<!-- Node35 -->
<g id="node69" class="node"><title>Node35</title>
<polygon fill="white" stroke="#bfbfbf" points="1768.5,-129.5 1768.5,-150.5 1869.5,-150.5 1869.5,-129.5 1768.5,-129.5"/>
<text text-anchor="middle" x="1819" y="-137.5" font-family="Helvetica,sans-Serif" font-size="10.00">QtWidgets/QAction</text>
</g>
<!-- Node1&#45;&gt;Node35 -->
<g id="edge68" class="edge"><title>Node1&#45;&gt;Node35</title>
<path fill="none" stroke="midnightblue" d="M1873.28,-200.217C1863.32,-189.165 1847.64,-171.77 1835.69,-158.512"/>
<polygon fill="midnightblue" stroke="midnightblue" points="1838.11,-155.969 1828.81,-150.885 1832.91,-160.656 1838.11,-155.969"/>
</g>
<!-- Node36 -->
<g id="node71" class="node"><title>Node36</title>
<polygon fill="white" stroke="#bfbfbf" points="1887,-129.5 1887,-150.5 2009,-150.5 2009,-129.5 1887,-129.5"/>
<text text-anchor="middle" x="1948" y="-137.5" font-family="Helvetica,sans-Serif" font-size="10.00">QtWidgets/QApplication</text>
</g>
<!-- Node1&#45;&gt;Node36 -->
<g id="edge70" class="edge"><title>Node1&#45;&gt;Node36</title>
<path fill="none" stroke="midnightblue" d="M1892.87,-200.217C1902.99,-189.165 1918.91,-171.77 1931.05,-158.512"/>
<polygon fill="midnightblue" stroke="midnightblue" points="1933.86,-160.624 1938.03,-150.885 1928.7,-155.897 1933.86,-160.624"/>
</g>
<!-- Node37 -->
<g id="node73" class="node"><title>Node37</title>
<polygon fill="white" stroke="#bfbfbf" points="2027,-129.5 2027,-150.5 2155,-150.5 2155,-129.5 2027,-129.5"/>
<text text-anchor="middle" x="2091" y="-137.5" font-family="Helvetica,sans-Serif" font-size="10.00">QtWidgets/QButtonGroup</text>
</g>
<!-- Node1&#45;&gt;Node37 -->
<g id="edge72" class="edge"><title>Node1&#45;&gt;Node37</title>
<path fill="none" stroke="midnightblue" d="M1914.14,-200.371C1950.39,-187.996 2010.38,-167.518 2050.3,-153.893"/>
<polygon fill="midnightblue" stroke="midnightblue" points="2051.65,-157.129 2059.99,-150.586 2049.39,-150.504 2051.65,-157.129"/>
</g>
<!-- Node38 -->
<g id="node75" class="node"><title>Node38</title>
<polygon fill="white" stroke="#bfbfbf" points="2173,-129.5 2173,-150.5 2301,-150.5 2301,-129.5 2173,-129.5"/>
<text text-anchor="middle" x="2237" y="-137.5" font-family="Helvetica,sans-Serif" font-size="10.00">QtWidgets/QDockWidget</text>
</g>
<!-- Node1&#45;&gt;Node38 -->
<g id="edge74" class="edge"><title>Node1&#45;&gt;Node38</title>
<path fill="none" stroke="midnightblue" d="M1936.05,-204.572C1992.92,-197.116 2085.6,-183.326 2164,-164 2175.31,-161.213 2187.39,-157.537 2198.4,-153.901"/>
<polygon fill="midnightblue" stroke="midnightblue" points="2199.81,-157.119 2208.17,-150.601 2197.57,-150.488 2199.81,-157.119"/>
</g>
<!-- Node39 -->
<g id="node77" class="node"><title>Node39</title>
<polygon fill="white" stroke="#bfbfbf" points="2318.5,-129.5 2318.5,-150.5 2439.5,-150.5 2439.5,-129.5 2318.5,-129.5"/>
<text text-anchor="middle" x="2379" y="-137.5" font-family="Helvetica,sans-Serif" font-size="10.00">QtWidgets/QGridLayout</text>
</g>
<!-- Node1&#45;&gt;Node39 -->
<g id="edge76" class="edge"><title>Node1&#45;&gt;Node39</title>
<path fill="none" stroke="midnightblue" d="M1936.22,-208.987C2017.64,-205.047 2177.6,-193.91 2310,-164 2321.18,-161.475 2333.06,-157.743 2343.76,-153.971"/>
<polygon fill="midnightblue" stroke="midnightblue" points="2345,-157.244 2353.19,-150.528 2342.6,-150.667 2345,-157.244"/>
</g>
<!-- Node40 -->
<g id="node79" class="node"><title>Node40</title>
<polygon fill="white" stroke="#bfbfbf" points="2457,-129.5 2457,-150.5 2585,-150.5 2585,-129.5 2457,-129.5"/>
<text text-anchor="middle" x="2521" y="-137.5" font-family="Helvetica,sans-Serif" font-size="10.00">QtWidgets/QHBoxLayout</text>
</g>
<!-- Node1&#45;&gt;Node40 -->
<g id="edge78" class="edge"><title>Node1&#45;&gt;Node40</title>
<path fill="none" stroke="midnightblue" d="M1936.16,-208.175C2057.31,-201.476 2350.94,-183.708 2448,-164 2460.03,-161.557 2472.85,-157.768 2484.33,-153.917"/>
<polygon fill="midnightblue" stroke="midnightblue" points="2485.73,-157.138 2494.02,-150.549 2483.43,-150.526 2485.73,-157.138"/>
</g>
<!-- Node41 -->
<g id="node81" class="node"><title>Node41</title>
<polygon fill="white" stroke="#bfbfbf" points="2602.5,-129.5 2602.5,-150.5 2729.5,-150.5 2729.5,-129.5 2602.5,-129.5"/>
<text text-anchor="middle" x="2666" y="-137.5" font-family="Helvetica,sans-Serif" font-size="10.00">QtWidgets/QHeaderView</text>
</g>
<!-- Node1&#45;&gt;Node41 -->
<g id="edge80" class="edge"><title>Node1&#45;&gt;Node41</title>
<path fill="none" stroke="midnightblue" d="M1936.07,-209.25C2078.69,-204.267 2467.98,-188.743 2594,-164 2606,-161.644 2618.76,-157.842 2630.16,-153.951"/>
<polygon fill="midnightblue" stroke="midnightblue" points="2631.51,-157.185 2639.77,-150.544 2629.17,-150.588 2631.51,-157.185"/>
</g>
<!-- Node42 -->
<g id="node83" class="node"><title>Node42</title>
<polygon fill="white" stroke="#bfbfbf" points="2746.5,-129.5 2746.5,-150.5 2843.5,-150.5 2843.5,-129.5 2746.5,-129.5"/>
<text text-anchor="middle" x="2795" y="-137.5" font-family="Helvetica,sans-Serif" font-size="10.00">QtWidgets/QLabel</text>
</g>
<!-- Node1&#45;&gt;Node42 -->
<g id="edge82" class="edge"><title>Node1&#45;&gt;Node42</title>
<path fill="none" stroke="midnightblue" d="M1936.2,-210.455C2098.29,-208.419 2584.36,-199.442 2738,-164 2747.2,-161.878 2756.8,-158.383 2765.45,-154.709"/>
<polygon fill="midnightblue" stroke="midnightblue" points="2767.03,-157.832 2774.73,-150.547 2764.17,-151.445 2767.03,-157.832"/>
</g>
<!-- Node43 -->
<g id="node85" class="node"><title>Node43</title>
<polygon fill="white" stroke="#bfbfbf" points="2861,-129.5 2861,-150.5 2991,-150.5 2991,-129.5 2861,-129.5"/>
<text text-anchor="middle" x="2926" y="-137.5" font-family="Helvetica,sans-Serif" font-size="10.00">QtWidgets/QMainWindow</text>
</g>
<!-- Node1&#45;&gt;Node43 -->
<g id="edge84" class="edge"><title>Node1&#45;&gt;Node43</title>
<path fill="none" stroke="midnightblue" d="M1936.21,-210.273C2112.13,-207.58 2674,-196.582 2852,-164 2864.56,-161.701 2877.93,-157.828 2889.81,-153.856"/>
<polygon fill="midnightblue" stroke="midnightblue" points="2891.08,-157.118 2899.38,-150.529 2888.78,-150.506 2891.08,-157.118"/>
</g>
<!-- Node44 -->
<g id="node87" class="node"><title>Node44</title>
<polygon fill="white" stroke="#bfbfbf" points="3009,-129.5 3009,-150.5 3107,-150.5 3107,-129.5 3009,-129.5"/>
<text text-anchor="middle" x="3058" y="-137.5" font-family="Helvetica,sans-Serif" font-size="10.00">QtWidgets/QMenu</text>
</g>
<!-- Node1&#45;&gt;Node44 -->
<g id="edge86" class="edge"><title>Node1&#45;&gt;Node44</title>
<path fill="none" stroke="midnightblue" d="M1936.16,-209.854C2144.04,-205.222 2895.64,-187.03 3000,-164 3009.46,-161.913 3019.34,-158.384 3028.21,-154.664"/>
<polygon fill="midnightblue" stroke="midnightblue" points="3029.64,-157.858 3037.37,-150.613 3026.8,-151.457 3029.64,-157.858"/>
</g>
<!-- Node45 -->
<g id="node89" class="node"><title>Node45</title>
<polygon fill="white" stroke="#bfbfbf" points="3124.5,-129.5 3124.5,-150.5 3237.5,-150.5 3237.5,-129.5 3124.5,-129.5"/>
<text text-anchor="middle" x="3181" y="-137.5" font-family="Helvetica,sans-Serif" font-size="10.00">QtWidgets/QMenuBar</text>
</g>
<!-- Node1&#45;&gt;Node45 -->
<g id="edge88" class="edge"><title>Node1&#45;&gt;Node45</title>
<path fill="none" stroke="midnightblue" d="M1936.3,-209.958C2157.79,-205.492 2999.38,-187.142 3116,-164 3126.82,-161.853 3138.23,-158.165 3148.41,-154.315"/>
<polygon fill="midnightblue" stroke="midnightblue" points="3149.74,-157.555 3157.75,-150.62 3147.16,-151.047 3149.74,-157.555"/>
</g>
<!-- Node46 -->
<g id="node91" class="node"><title>Node46</title>
<polygon fill="white" stroke="#bfbfbf" points="3254.5,-129.5 3254.5,-150.5 3371.5,-150.5 3371.5,-129.5 3254.5,-129.5"/>
<text text-anchor="middle" x="3313" y="-137.5" font-family="Helvetica,sans-Serif" font-size="10.00">QtWidgets/QStatusBar</text>
</g>
<!-- Node1&#45;&gt;Node46 -->
<g id="edge90" class="edge"><title>Node1&#45;&gt;Node46</title>
<path fill="none" stroke="midnightblue" d="M1936.25,-210.136C2172.01,-206.181 3115.92,-188.912 3246,-164 3257.34,-161.829 3269.32,-158.047 3279.97,-154.119"/>
<polygon fill="midnightblue" stroke="midnightblue" points="3281.25,-157.378 3289.32,-150.513 3278.73,-150.847 3281.25,-157.378"/>
</g>
<!-- Node47 -->
<g id="node93" class="node"><title>Node47</title>
<polygon fill="white" stroke="#bfbfbf" points="3388.5,-129.5 3388.5,-150.5 3495.5,-150.5 3495.5,-129.5 3388.5,-129.5"/>
<text text-anchor="middle" x="3442" y="-137.5" font-family="Helvetica,sans-Serif" font-size="10.00">QtWidgets/QToolBar</text>
</g>
<!-- Node1&#45;&gt;Node47 -->
<g id="edge92" class="edge"><title>Node1&#45;&gt;Node47</title>
<path fill="none" stroke="midnightblue" d="M1936.4,-210.39C2186.56,-207.388 3236.5,-193.142 3380,-164 3390.35,-161.898 3401.22,-158.233 3410.92,-154.39"/>
<polygon fill="midnightblue" stroke="midnightblue" points="3412.28,-157.616 3420.16,-150.54 3409.59,-151.154 3412.28,-157.616"/>
</g>
<!-- Node48 -->
<g id="node95" class="node"><title>Node48</title>
<polygon fill="white" stroke="#bfbfbf" points="3513,-129.5 3513,-150.5 3637,-150.5 3637,-129.5 3513,-129.5"/>
<text text-anchor="middle" x="3575" y="-137.5" font-family="Helvetica,sans-Serif" font-size="10.00">QtWidgets/QTreeWidget</text>
</g>
<!-- Node1&#45;&gt;Node48 -->
<g id="edge94" class="edge"><title>Node1&#45;&gt;Node48</title>
<path fill="none" stroke="midnightblue" d="M1936.36,-210.393C2198.9,-207.279 3347.08,-192.146 3504,-164 3516.08,-161.832 3528.91,-158.002 3540.28,-154.029"/>
<polygon fill="midnightblue" stroke="midnightblue" points="3541.65,-157.254 3549.85,-150.54 3539.25,-150.678 3541.65,-157.254"/>
</g>
<!-- Node49 -->
<g id="node97" class="node"><title>Node49</title>
<polygon fill="white" stroke="#bfbfbf" points="3655,-129.5 3655,-150.5 3759,-150.5 3759,-129.5 3655,-129.5"/>
<text text-anchor="middle" x="3707" y="-137.5" font-family="Helvetica,sans-Serif" font-size="10.00">QtWidgets/QWidget</text>
</g>
<!-- Node1&#45;&gt;Node49 -->
<g id="edge96" class="edge"><title>Node1&#45;&gt;Node49</title>
<path fill="none" stroke="midnightblue" d="M1936.43,-210.679C2212.93,-208.871 3475.17,-198.762 3646,-164 3656.1,-161.945 3666.68,-158.342 3676.15,-154.542"/>
<polygon fill="midnightblue" stroke="midnightblue" points="3677.69,-157.688 3685.54,-150.568 3674.97,-151.242 3677.69,-157.688"/>
</g>
<!-- Node50 -->
<g id="node99" class="node"><title>Node50</title>
<polygon fill="white" stroke="#bfbfbf" points="3777,-116.5 3777,-163.5 3901,-163.5 3901,-116.5 3777,-116.5"/>
<text text-anchor="start" x="3785" y="-150.5" font-family="Helvetica,sans-Serif" font-size="10.00">/home/travis/build</text>
<text text-anchor="start" x="3785" y="-137.5" font-family="Helvetica,sans-Serif" font-size="10.00">/sup3asc2/sickle/include</text>
<text text-anchor="middle" x="3839" y="-124.5" font-family="Helvetica,sans-Serif" font-size="10.00">/viewport.hpp</text>
</g>
<!-- Node1&#45;&gt;Node50 -->
<g id="edge98" class="edge"><title>Node1&#45;&gt;Node50</title>
<path fill="none" stroke="midnightblue" d="M1936.26,-210.627C2219.21,-208.517 3541.43,-197.044 3767.03,-163.757"/>
<polygon fill="midnightblue" stroke="midnightblue" points="3767.63,-167.207 3776.94,-162.155 3766.51,-160.297 3767.63,-167.207"/>
</g>
<!-- Node3 -->
<g id="node5" class="node"><title>Node3</title>
<a xlink:href="fileloader_8hpp.html" target="_top" xlink:title="fileloader.hpp">
<polygon fill="white" stroke="black" points="51,-58.5 51,-79.5 125,-79.5 125,-58.5 51,-58.5"/>
<text text-anchor="middle" x="88" y="-66.5" font-family="Helvetica,sans-Serif" font-size="10.00">fileloader.hpp</text>
</a>
</g>
<!-- Node2&#45;&gt;Node3 -->
<g id="edge4" class="edge"><title>Node2&#45;&gt;Node3</title>
<path fill="none" stroke="midnightblue" d="M394.434,-131.818C336.839,-121.115 233.228,-101.422 134.928,-80.1452"/>
<polygon fill="midnightblue" stroke="midnightblue" points="135.643,-76.7189 125.128,-78.0146 134.156,-83.5591 135.643,-76.7189"/>
</g>
<!-- Node7 -->
<g id="node13" class="node"><title>Node7</title>
<polygon fill="white" stroke="#bfbfbf" points="143,-58.5 143,-79.5 223,-79.5 223,-58.5 143,-58.5"/>
<text text-anchor="middle" x="183" y="-66.5" font-family="Helvetica,sans-Serif" font-size="10.00">QMainWindow</text>
</g>
<!-- Node2&#45;&gt;Node7 -->
<g id="edge12" class="edge"><title>Node2&#45;&gt;Node7</title>
<path fill="none" stroke="midnightblue" d="M400.951,-129.447C355.734,-116.907 280.236,-95.9677 231.034,-82.322"/>
<polygon fill="midnightblue" stroke="midnightblue" points="231.83,-78.9106 221.258,-79.6107 229.959,-85.656 231.83,-78.9106"/>
</g>
<!-- Node8 -->
<g id="node15" class="node"><title>Node8</title>
<polygon fill="white" stroke="#bfbfbf" points="241,-58.5 241,-79.5 335,-79.5 335,-58.5 241,-58.5"/>
<text text-anchor="middle" x="288" y="-66.5" font-family="Helvetica,sans-Serif" font-size="10.00">QTreeWidgetItem</text>
</g>
<!-- Node2&#45;&gt;Node8 -->
<g id="edge14" class="edge"><title>Node2&#45;&gt;Node8</title>
<path fill="none" stroke="midnightblue" d="M416.394,-129.371C390.818,-117.345 348.97,-97.6678 320.036,-84.0632"/>
<polygon fill="midnightblue" stroke="midnightblue" points="321.3,-80.7899 310.761,-79.7021 318.321,-87.1246 321.3,-80.7899"/>
</g>
<!-- Node9 -->
<g id="node17" class="node"><title>Node9</title>
<polygon fill="white" stroke="#bfbfbf" points="353,-58.5 353,-79.5 433,-79.5 433,-58.5 353,-58.5"/>
<text text-anchor="middle" x="393" y="-66.5" font-family="Helvetica,sans-Serif" font-size="10.00">QPluginLoader</text>
</g>
<!-- Node2&#45;&gt;Node9 -->
<g id="edge16" class="edge"><title>Node2&#45;&gt;Node9</title>
<path fill="none" stroke="midnightblue" d="M432.014,-129.217C425.056,-118.478 414.218,-101.75 405.729,-88.6472"/>
<polygon fill="midnightblue" stroke="midnightblue" points="408.427,-86.3743 400.052,-79.8849 402.552,-90.1805 408.427,-86.3743"/>
</g>
<!-- Node10 -->
<g id="node19" class="node"><title>Node10</title>
<polygon fill="white" stroke="#bfbfbf" points="451,-58.5 451,-79.5 519,-79.5 519,-58.5 451,-58.5"/>
<text text-anchor="middle" x="485" y="-66.5" font-family="Helvetica,sans-Serif" font-size="10.00">QJsonArray</text>
</g>
<!-- Node2&#45;&gt;Node10 -->
<g id="edge18" class="edge"><title>Node2&#45;&gt;Node10</title>
<path fill="none" stroke="midnightblue" d="M445.986,-129.217C452.944,-118.478 463.782,-101.75 472.271,-88.6472"/>
<polygon fill="midnightblue" stroke="midnightblue" points="475.448,-90.1805 477.948,-79.8849 469.573,-86.3743 475.448,-90.1805"/>
</g>
<!-- Node11 -->
<g id="node21" class="node"><title>Node11</title>
<polygon fill="white" stroke="#bfbfbf" points="536.5,-58.5 536.5,-79.5 595.5,-79.5 595.5,-58.5 536.5,-58.5"/>
<text text-anchor="middle" x="566" y="-66.5" font-family="Helvetica,sans-Serif" font-size="10.00">functional</text>
</g>
<!-- Node2&#45;&gt;Node11 -->
<g id="edge20" class="edge"><title>Node2&#45;&gt;Node11</title>
<path fill="none" stroke="midnightblue" d="M458.013,-129.371C479.243,-117.502 513.805,-98.1798 538.098,-84.5986"/>
<polygon fill="midnightblue" stroke="midnightblue" points="539.836,-87.6369 546.857,-79.7021 536.42,-81.5269 539.836,-87.6369"/>
</g>
<!-- Node12 -->
<g id="node23" class="node"><title>Node12</title>
<polygon fill="white" stroke="#bfbfbf" points="613,-58.5 613,-79.5 651,-79.5 651,-58.5 613,-58.5"/>
<text text-anchor="middle" x="632" y="-66.5" font-family="Helvetica,sans-Serif" font-size="10.00">tuple</text>
</g>
<!-- Node2&#45;&gt;Node12 -->
<g id="edge22" class="edge"><title>Node2&#45;&gt;Node12</title>
<path fill="none" stroke="midnightblue" d="M468.592,-129.497C499.804,-118.361 550.64,-100.067 603.253,-80.2279"/>
<polygon fill="midnightblue" stroke="midnightblue" points="604.629,-83.4494 612.745,-76.639 602.154,-76.9018 604.629,-83.4494"/>
</g>
<!-- Node4 -->
<g id="node7" class="node"><title>Node4</title>
<polygon fill="white" stroke="#bfbfbf" points="0,-0.5 0,-21.5 50,-21.5 50,-0.5 0,-0.5"/>
<text text-anchor="middle" x="25" y="-8.5" font-family="Helvetica,sans-Serif" font-size="10.00">QString</text>
</g>
<!-- Node3&#45;&gt;Node4 -->
<g id="edge6" class="edge"><title>Node3&#45;&gt;Node4</title>
<path fill="none" stroke="midnightblue" d="M76.4448,-58.3619C67.3866,-50.0226 54.5903,-38.2418 44.0263,-28.5162"/>
<polygon fill="midnightblue" stroke="midnightblue" points="46.2095,-25.7688 36.4819,-21.5707 41.4683,-30.9187 46.2095,-25.7688"/>
</g>
<!-- Node5 -->
<g id="node9" class="node"><title>Node5</title>
<polygon fill="white" stroke="#bfbfbf" points="68,-0.5 68,-21.5 108,-21.5 108,-0.5 68,-0.5"/>
<text text-anchor="middle" x="88" y="-8.5" font-family="Helvetica,sans-Serif" font-size="10.00">QFile</text>
</g>
<!-- Node3&#45;&gt;Node5 -->
<g id="edge8" class="edge"><title>Node3&#45;&gt;Node5</title>
<path fill="none" stroke="midnightblue" d="M88,-58.3619C88,-50.9219 88,-40.7427 88,-31.7276"/>
<polygon fill="midnightblue" stroke="midnightblue" points="91.5001,-31.5706 88,-21.5707 84.5001,-31.5707 91.5001,-31.5706"/>
</g>
<!-- Node6 -->
<g id="node11" class="node"><title>Node6</title>
<polygon fill="white" stroke="#bfbfbf" points="126,-0.5 126,-21.5 200,-21.5 200,-0.5 126,-0.5"/>
<text text-anchor="middle" x="163" y="-8.5" font-family="Helvetica,sans-Serif" font-size="10.00">QMetaObject</text>
</g>
<!-- Node3&#45;&gt;Node6 -->
<g id="edge10" class="edge"><title>Node3&#45;&gt;Node6</title>
<path fill="none" stroke="midnightblue" d="M101.756,-58.3619C112.751,-49.859 128.373,-37.7785 141.086,-27.9466"/>
<polygon fill="midnightblue" stroke="midnightblue" points="143.562,-30.4569 149.331,-21.5707 139.279,-24.9195 143.562,-30.4569"/>
</g>
<!-- Node14 -->
<g id="node27" class="node"><title>Node14</title>
<a xlink:href="geometry_8hpp.html" target="_top" xlink:title="geometry.hpp">
<polygon fill="white" stroke="red" points="669,-58.5 669,-79.5 745,-79.5 745,-58.5 669,-58.5"/>
<text text-anchor="middle" x="707" y="-66.5" font-family="Helvetica,sans-Serif" font-size="10.00">geometry.hpp</text>
</a>
</g>
<!-- Node13&#45;&gt;Node14 -->
<g id="edge26" class="edge"><title>Node13&#45;&gt;Node14</title>
<path fill="none" stroke="midnightblue" d="M747.71,-129.217C740.38,-118.374 728.921,-101.424 720.025,-88.2667"/>
<polygon fill="midnightblue" stroke="midnightblue" points="722.859,-86.209 714.359,-79.8849 717.06,-90.1296 722.859,-86.209"/>
</g>
<!-- Node21 -->
<g id="node41" class="node"><title>Node21</title>
<polygon fill="white" stroke="#bfbfbf" points="762.5,-58.5 762.5,-79.5 845.5,-79.5 845.5,-58.5 762.5,-58.5"/>
<text text-anchor="middle" x="804" y="-66.5" font-family="Helvetica,sans-Serif" font-size="10.00">QMetaProperty</text>
</g>
<!-- Node13&#45;&gt;Node21 -->
<g id="edge40" class="edge"><title>Node13&#45;&gt;Node21</title>
<path fill="none" stroke="midnightblue" d="M762.442,-129.217C769.925,-118.374 781.623,-101.424 790.703,-88.2667"/>
<polygon fill="midnightblue" stroke="midnightblue" points="793.688,-90.1032 796.488,-79.8849 787.927,-86.1271 793.688,-90.1032"/>
</g>
<!-- Node22 -->
<g id="node43" class="node"><title>Node22</title>
<polygon fill="white" stroke="#bfbfbf" points="862.5,-58.5 862.5,-79.5 909.5,-79.5 909.5,-58.5 862.5,-58.5"/>
<text text-anchor="middle" x="886" y="-66.5" font-family="Helvetica,sans-Serif" font-size="10.00">QColor</text>
</g>
<!-- Node13&#45;&gt;Node22 -->
<g id="edge42" class="edge"><title>Node13&#45;&gt;Node22</title>
<path fill="none" stroke="midnightblue" d="M772.854,-129.297C780.006,-125.075 788.35,-120.233 796,-116 815.78,-105.054 838.33,-93.2795 855.909,-84.2538"/>
<polygon fill="midnightblue" stroke="midnightblue" points="857.806,-87.2149 865.115,-79.545 854.618,-80.9828 857.806,-87.2149"/>
</g>
<!-- Node15 -->
<g id="node29" class="node"><title>Node15</title>
<polygon fill="white" stroke="#bfbfbf" points="436.5,-0.5 436.5,-21.5 489.5,-21.5 489.5,-0.5 436.5,-0.5"/>
<text text-anchor="middle" x="463" y="-8.5" font-family="Helvetica,sans-Serif" font-size="10.00">QObject</text>
</g>
<!-- Node14&#45;&gt;Node15 -->
<g id="edge28" class="edge"><title>Node14&#45;&gt;Node15</title>
<path fill="none" stroke="midnightblue" d="M668.789,-60.0191C665.816,-59.3319 662.86,-58.6523 660,-58 591.181,-42.3006 570.965,-41.1487 499.613,-22.2951"/>
<polygon fill="midnightblue" stroke="midnightblue" points="500.248,-18.8423 489.684,-19.6457 498.443,-25.6056 500.248,-18.8423"/>
</g>
<!-- Node16 -->
<g id="node31" class="node"><title>Node16</title>
<polygon fill="white" stroke="#bfbfbf" points="506.5,-0.5 506.5,-21.5 571.5,-21.5 571.5,-0.5 506.5,-0.5"/>
<text text-anchor="middle" x="539" y="-8.5" font-family="Helvetica,sans-Serif" font-size="10.00">QVector3D</text>
</g>
<!-- Node14&#45;&gt;Node16 -->
<g id="edge30" class="edge"><title>Node14&#45;&gt;Node16</title>
<path fill="none" stroke="midnightblue" d="M676.576,-58.4966C649.306,-49.082 609.107,-35.2036 579.196,-24.8773"/>
<polygon fill="midnightblue" stroke="midnightblue" points="580.075,-21.4781 569.481,-21.5231 577.791,-28.0949 580.075,-21.4781"/>
</g>
<!-- Node17 -->
<g id="node33" class="node"><title>Node17</title>
<polygon fill="white" stroke="#bfbfbf" points="588.5,-0.5 588.5,-21.5 691.5,-21.5 691.5,-0.5 588.5,-0.5"/>
<text text-anchor="middle" x="640" y="-8.5" font-family="Helvetica,sans-Serif" font-size="10.00">QOpenGLFunctions</text>
</g>
<!-- Node14&#45;&gt;Node17 -->
<g id="edge32" class="edge"><title>Node14&#45;&gt;Node17</title>
<path fill="none" stroke="midnightblue" d="M694.711,-58.3619C684.983,-49.9408 671.202,-38.0105 659.905,-28.2308"/>
<polygon fill="midnightblue" stroke="midnightblue" points="662.062,-25.4695 652.211,-21.5707 657.481,-30.7619 662.062,-25.4695"/>
</g>
<!-- Node18 -->
<g id="node35" class="node"><title>Node18</title>
<polygon fill="white" stroke="#bfbfbf" points="709,-0.5 709,-21.5 837,-21.5 837,-0.5 709,-0.5"/>
<text text-anchor="middle" x="773" y="-8.5" font-family="Helvetica,sans-Serif" font-size="10.00">QOpenGLShaderProgram</text>
</g>
<!-- Node14&#45;&gt;Node18 -->
<g id="edge34" class="edge"><title>Node14&#45;&gt;Node18</title>
<path fill="none" stroke="midnightblue" d="M719.105,-58.3619C728.688,-49.9408 742.264,-38.0105 753.393,-28.2308"/>
<polygon fill="midnightblue" stroke="midnightblue" points="755.77,-30.8009 760.971,-21.5707 751.149,-25.5427 755.77,-30.8009"/>
</g>
<!-- Node19 -->
<g id="node37" class="node"><title>Node19</title>
<polygon fill="white" stroke="#bfbfbf" points="855,-0.5 855,-21.5 941,-21.5 941,-0.5 855,-0.5"/>
<text text-anchor="middle" x="898" y="-8.5" font-family="Helvetica,sans-Serif" font-size="10.00">QOpenGLBuffer</text>
</g>
<!-- Node14&#45;&gt;Node19 -->
<g id="edge36" class="edge"><title>Node14&#45;&gt;Node19</title>
<path fill="none" stroke="midnightblue" d="M741.589,-58.4966C772.996,-48.9592 819.49,-34.8408 853.625,-24.475"/>
<polygon fill="midnightblue" stroke="midnightblue" points="854.795,-27.7778 863.346,-21.5231 852.761,-21.0798 854.795,-27.7778"/>
</g>
<!-- Node20 -->
<g id="node39" class="node"><title>Node20</title>
<polygon fill="white" stroke="#bfbfbf" points="959,-0.5 959,-21.5 1099,-21.5 1099,-0.5 959,-0.5"/>
<text text-anchor="middle" x="1029" y="-8.5" font-family="Helvetica,sans-Serif" font-size="10.00">QOpenGLVertexArrayObject</text>
</g>
<!-- Node14&#45;&gt;Node20 -->
<g id="edge38" class="edge"><title>Node14&#45;&gt;Node20</title>
<path fill="none" stroke="midnightblue" d="M745.177,-59.8608C748.158,-59.2097 751.125,-58.5815 754,-58 819.921,-44.6654 895.237,-31.9686 950.362,-23.1409"/>
<polygon fill="midnightblue" stroke="midnightblue" points="951.089,-26.5692 960.413,-21.5383 949.987,-19.6565 951.089,-26.5692"/>
</g>
</g>
</svg>
