<?xml version="1.0" encoding="UTF-8" standalone="no"?>
<!DOCTYPE svg PUBLIC "-//W3C//DTD SVG 1.1//EN"
 "http://www.w3.org/Graphics/SVG/1.1/DTD/svg11.dtd">
<!-- Generated by graphviz version 2.26.3 (20100126.1600)
 -->
<!-- Title: src/mainwindow.cpp Pages: 1 -->
<!--zoomable 172 -->
<svg id="main" version="1.1" xmlns="http://www.w3.org/2000/svg" xmlns:xlink="http://www.w3.org/1999/xlink" xml:space="preserve" onload="init(evt)">
<style type="text/css"><![CDATA[
.edge:hover path { stroke: red; }
.edge:hover polygon { stroke: red; fill: red; }
]]></style>
<script type="text/javascript"><![CDATA[
var edges = document.getElementsByTagName('g');
if (edges && edges.length) {
  for (var i=0;i<edges.length;i++) {
    if (edges[i].id.substr(0,4)=='edge') {
      edges[i].setAttribute('class','edge');
    }
  }
}
]]></script>
        <defs>
                <circle id="rim" cx="0" cy="0" r="7"/>
                <circle id="rim2" cx="0" cy="0" r="3.5"/>
                <g id="zoomPlus">
                        <use xlink:href="#rim" fill="#404040">
                                <set attributeName="fill" to="#808080" begin="zoomplus.mouseover" end="zoomplus.mouseout"/>
                        </use>
                        <path d="M-4,0h8M0,-4v8" fill="none" stroke="white" stroke-width="1.5" pointer-events="none"/>
                </g>
                <g id="zoomMin">
                        <use xlink:href="#rim" fill="#404040">
                                <set attributeName="fill" to="#808080" begin="zoomminus.mouseover" end="zoomminus.mouseout"/>
                        </use>
                        <path d="M-4,0h8" fill="none" stroke="white" stroke-width="1.5" pointer-events="none"/>
                </g>
                <g id="dirArrow">
                        <path fill="none" stroke="white" stroke-width="1.5" d="M0,-3.0v7 M-2.5,-0.5L0,-3.0L2.5,-0.5"/>
                </g>
               <g id="resetDef">
                       <use xlink:href="#rim2" fill="#404040">
                               <set attributeName="fill" to="#808080" begin="reset.mouseover" end="reset.mouseout"/>
                       </use>
               </g>
        </defs>

<script type="text/javascript">
var viewWidth = 4570;
var viewHeight = 172;
var sectionId = 'dynsection-0';
</script>
<script xlink:href="svgpan.js"/>
<svg id="graph" class="graph">
<g id="viewport">
<title>src/mainwindow.cpp</title>
<polygon fill="white" stroke="white" points="-4,5 -4,-168 4567,-168 4567,5 -4,5"/>
<!-- Node1 -->
<g id="node1" class="node"><title>Node1</title>
<polygon fill="#bfbfbf" stroke="black" points="1894,-142.5 1894,-163.5 2000,-163.5 2000,-142.5 1894,-142.5"/>
<text text-anchor="middle" x="1947" y="-150.5" font-family="Helvetica,sans-Serif" font-size="10.00">src/mainwindow.cpp</text>
</g>
<!-- Node2 -->
<g id="node3" class="node"><title>Node2</title>
<a xlink:href="mainwindow_8hpp.html" target="_top" xlink:title="mainwindow.hpp">
<polygon fill="white" stroke="black" points="389.5,-71.5 389.5,-92.5 478.5,-92.5 478.5,-71.5 389.5,-71.5"/>
<text text-anchor="middle" x="434" y="-79.5" font-family="Helvetica,sans-Serif" font-size="10.00">mainwindow.hpp</text>
</a>
</g>
<!-- Node1&#45;&gt;Node2 -->
<g id="edge2" class="edge"><title>Node1&#45;&gt;Node2</title>
<path fill="none" stroke="midnightblue" d="M1893.66,-152.518C1647.33,-150.126 625.861,-138.322 487,-106 478.467,-104.014 469.633,-100.619 461.68,-96.9971"/>
<polygon fill="midnightblue" stroke="midnightblue" points="463.022,-93.7581 452.497,-92.5468 459.969,-100.057 463.022,-93.7581"/>
</g>
<!-- Node12 -->
<g id="node23" class="node"><title>Node12</title>
<a xlink:href="sphere_8hpp.html" target="_top" xlink:title="sphere.hpp">
<polygon fill="white" stroke="red" points="495.5,-71.5 495.5,-92.5 560.5,-92.5 560.5,-71.5 495.5,-71.5"/>
<text text-anchor="middle" x="528" y="-79.5" font-family="Helvetica,sans-Serif" font-size="10.00">sphere.hpp</text>
</a>
</g>
<!-- Node1&#45;&gt;Node12 -->
<g id="edge22" class="edge"><title>Node1&#45;&gt;Node12</title>
<path fill="none" stroke="midnightblue" d="M1893.82,-152.728C1656.22,-151.305 697.761,-143.283 569,-106 562.657,-104.163 556.271,-101.128 550.49,-97.8237"/>
<polygon fill="midnightblue" stroke="midnightblue" points="552.336,-94.8502 541.996,-92.5428 548.64,-100.795 552.336,-94.8502"/>
</g>
<!-- Node13 -->
<g id="node25" class="node"><title>Node13</title>
<a xlink:href="pyramide_8hpp.html" target="_top" xlink:title="pyramide.hpp">
<polygon fill="white" stroke="red" points="577.5,-71.5 577.5,-92.5 652.5,-92.5 652.5,-71.5 577.5,-71.5"/>
<text text-anchor="middle" x="615" y="-79.5" font-family="Helvetica,sans-Serif" font-size="10.00">pyramide.hpp</text>
</a>
</g>
<!-- Node1&#45;&gt;Node13 -->
<g id="edge24" class="edge"><title>Node1&#45;&gt;Node13</title>
<path fill="none" stroke="midnightblue" d="M1893.64,-152.438C1665.88,-149.852 781.273,-137.829 661,-106 653.862,-104.111 646.579,-100.971 639.976,-97.5752"/>
<polygon fill="midnightblue" stroke="midnightblue" points="641.326,-94.3219 630.884,-92.5322 637.931,-100.443 641.326,-94.3219"/>
</g>
<!-- Node14 -->
<g id="node27" class="node"><title>Node14</title>
<a xlink:href="rectangle_8hpp.html" target="_top" xlink:title="rectangle.hpp">
<polygon fill="white" stroke="red" points="669.5,-71.5 669.5,-92.5 744.5,-92.5 744.5,-71.5 669.5,-71.5"/>
<text text-anchor="middle" x="707" y="-79.5" font-family="Helvetica,sans-Serif" font-size="10.00">rectangle.hpp</text>
</a>
</g>
<!-- Node1&#45;&gt;Node14 -->
<g id="edge26" class="edge"><title>Node1&#45;&gt;Node14</title>
<path fill="none" stroke="midnightblue" d="M1893.84,-152.279C1676.79,-149.149 864.012,-135.545 753,-106 745.865,-104.101 738.583,-100.958 731.98,-97.5613"/>
<polygon fill="midnightblue" stroke="midnightblue" points="733.33,-94.308 722.887,-92.52 729.936,-100.43 733.33,-94.308"/>
</g>
<!-- Node15 -->
<g id="node29" class="node"><title>Node15</title>
<a xlink:href="line_8hpp.html" target="_top" xlink:title="line.hpp">
<polygon fill="white" stroke="red" points="762,-71.5 762,-92.5 812,-92.5 812,-71.5 762,-71.5"/>
<text text-anchor="middle" x="787" y="-79.5" font-family="Helvetica,sans-Serif" font-size="10.00">line.hpp</text>
</a>
</g>
<!-- Node1&#45;&gt;Node15 -->
<g id="edge28" class="edge"><title>Node1&#45;&gt;Node15</title>
<path fill="none" stroke="midnightblue" d="M1893.94,-152.545C1684.68,-150.511 923.099,-140.765 821,-106 815.915,-104.269 810.916,-101.519 806.382,-98.488"/>
<polygon fill="midnightblue" stroke="midnightblue" points="808.45,-95.6638 798.336,-92.5077 804.274,-101.282 808.45,-95.6638"/>
</g>
<!-- Node16 -->
<g id="node31" class="node"><title>Node16</title>
<a xlink:href="cylinder_8hpp.html" target="_top" xlink:title="cylinder.hpp">
<polygon fill="white" stroke="red" points="829.5,-71.5 829.5,-92.5 898.5,-92.5 898.5,-71.5 829.5,-71.5"/>
<text text-anchor="middle" x="864" y="-79.5" font-family="Helvetica,sans-Serif" font-size="10.00">cylinder.hpp</text>
</a>
</g>
<!-- Node1&#45;&gt;Node16 -->
<g id="edge30" class="edge"><title>Node1&#45;&gt;Node16</title>
<path fill="none" stroke="midnightblue" d="M1893.68,-151.877C1695.42,-147.525 1007.2,-130.767 912,-106 904.561,-104.065 896.932,-100.884 890.007,-97.4622"/>
<polygon fill="midnightblue" stroke="midnightblue" points="891.562,-94.3248 881.086,-92.7402 888.287,-100.512 891.562,-94.3248"/>
</g>
<!-- Node17 -->
<g id="node33" class="node"><title>Node17</title>
<a xlink:href="light_8hpp.html" target="_top" xlink:title="light.hpp">
<polygon fill="white" stroke="red" points="931.5,-0.5 931.5,-21.5 984.5,-21.5 984.5,-0.5 931.5,-0.5"/>
<text text-anchor="middle" x="958" y="-8.5" font-family="Helvetica,sans-Serif" font-size="10.00">light.hpp</text>
</a>
</g>
<!-- Node1&#45;&gt;Node17 -->
<g id="edge32" class="edge"><title>Node1&#45;&gt;Node17</title>
<path fill="none" stroke="midnightblue" d="M1893.71,-152.514C1691.05,-150.411 977.986,-140.57 945,-106 925.952,-86.0377 937.019,-52.1005 947.19,-30.6531"/>
<polygon fill="midnightblue" stroke="midnightblue" points="950.427,-32.0093 951.832,-21.508 944.185,-28.8411 950.427,-32.0093"/>
</g>
<!-- Node18 -->
<g id="node35" class="node"><title>Node18</title>
<a xlink:href="spotlight_8hpp.html" target="_top" xlink:title="spotlight.hpp">
<polygon fill="white" stroke="black" points="954,-71.5 954,-92.5 1026,-92.5 1026,-71.5 954,-71.5"/>
<text text-anchor="middle" x="990" y="-79.5" font-family="Helvetica,sans-Serif" font-size="10.00">spotlight.hpp</text>
</a>
</g>
<!-- Node1&#45;&gt;Node18 -->
<g id="edge34" class="edge"><title>Node1&#45;&gt;Node18</title>
<path fill="none" stroke="midnightblue" d="M1893.84,-151.61C1711.42,-146.656 1117.59,-128.922 1035,-106 1028.12,-104.091 1021.11,-101.004 1014.74,-97.6701"/>
<polygon fill="midnightblue" stroke="midnightblue" points="1016.37,-94.5729 1005.94,-92.7178 1012.94,-100.673 1016.37,-94.5729"/>
</g>
<!-- Node19 -->
<g id="node38" class="node"><title>Node19</title>
<a xlink:href="group_8hpp.html" target="_top" xlink:title="group.hpp">
<polygon fill="white" stroke="red" points="1043.5,-71.5 1043.5,-92.5 1102.5,-92.5 1102.5,-71.5 1043.5,-71.5"/>
<text text-anchor="middle" x="1073" y="-79.5" font-family="Helvetica,sans-Serif" font-size="10.00">group.hpp</text>
</a>
</g>
<!-- Node1&#45;&gt;Node19 -->
<g id="edge38" class="edge"><title>Node1&#45;&gt;Node19</title>
<path fill="none" stroke="midnightblue" d="M1893.77,-151.56C1721.37,-146.681 1185.2,-129.747 1111,-106 1105.43,-104.216 1099.86,-101.418 1094.77,-98.3521"/>
<polygon fill="midnightblue" stroke="midnightblue" points="1096.5,-95.302 1086.23,-92.7071 1092.64,-101.141 1096.5,-95.302"/>
</g>
<!-- Node20 -->
<g id="node40" class="node"><title>Node20</title>
<a xlink:href="trigger_8hpp.html" target="_top" xlink:title="trigger.hpp">
<polygon fill="white" stroke="red" points="1120,-71.5 1120,-92.5 1182,-92.5 1182,-71.5 1120,-71.5"/>
<text text-anchor="middle" x="1151" y="-79.5" font-family="Helvetica,sans-Serif" font-size="10.00">trigger.hpp</text>
</a>
</g>
<!-- Node1&#45;&gt;Node20 -->
<g id="edge40" class="edge"><title>Node1&#45;&gt;Node20</title>
<path fill="none" stroke="midnightblue" d="M1893.86,-151.155C1732.9,-145.363 1257.6,-126.693 1191,-106 1185.05,-104.153 1179.07,-101.251 1173.61,-98.0939"/>
<polygon fill="midnightblue" stroke="midnightblue" points="1175.34,-95.0469 1165.01,-92.6821 1171.61,-100.971 1175.34,-95.0469"/>
</g>
<!-- Node21 -->
<g id="node42" class="node"><title>Node21</title>
<polygon fill="white" stroke="#bfbfbf" points="1199.5,-71.5 1199.5,-92.5 1254.5,-92.5 1254.5,-71.5 1199.5,-71.5"/>
<text text-anchor="middle" x="1227" y="-79.5" font-family="Helvetica,sans-Serif" font-size="10.00">QVariant</text>
</g>
<!-- Node1&#45;&gt;Node21 -->
<g id="edge42" class="edge"><title>Node1&#45;&gt;Node21</title>
<path fill="none" stroke="midnightblue" d="M1893.88,-150.923C1743.53,-144.824 1322.08,-126.125 1263,-106 1257.8,-104.229 1252.63,-101.511 1247.91,-98.5326"/>
<polygon fill="midnightblue" stroke="midnightblue" points="1249.67,-95.4962 1239.46,-92.6627 1245.67,-101.244 1249.67,-95.4962"/>
</g>
<!-- Node22 -->
<g id="node44" class="node"><title>Node22</title>
<polygon fill="white" stroke="#bfbfbf" points="1272,-71.5 1272,-92.5 1340,-92.5 1340,-71.5 1272,-71.5"/>
<text text-anchor="middle" x="1306" y="-79.5" font-family="Helvetica,sans-Serif" font-size="10.00">QFileDialog</text>
</g>
<!-- Node1&#45;&gt;Node22 -->
<g id="edge44" class="edge"><title>Node1&#45;&gt;Node22</title>
<path fill="none" stroke="midnightblue" d="M1893.73,-151.726C1766.91,-148.226 1450.17,-136.606 1349,-106 1342.56,-104.051 1336.01,-101.029 1330.03,-97.7804"/>
<polygon fill="midnightblue" stroke="midnightblue" points="1331.6,-94.6427 1321.2,-92.6085 1328.06,-100.683 1331.6,-94.6427"/>
</g>
<!-- Node23 -->
<g id="node46" class="node"><title>Node23</title>
<polygon fill="white" stroke="#bfbfbf" points="1357.5,-71.5 1357.5,-92.5 1418.5,-92.5 1418.5,-71.5 1357.5,-71.5"/>
<text text-anchor="middle" x="1388" y="-79.5" font-family="Helvetica,sans-Serif" font-size="10.00">QSpinBox</text>
</g>
<!-- Node1&#45;&gt;Node23 -->
<g id="edge46" class="edge"><title>Node1&#45;&gt;Node23</title>
<path fill="none" stroke="midnightblue" d="M1893.87,-151.278C1779.33,-147.069 1512.59,-134.448 1427,-106 1421.34,-104.119 1415.65,-101.281 1410.43,-98.2067"/>
<polygon fill="midnightblue" stroke="midnightblue" points="1411.97,-95.0319 1401.66,-92.5757 1408.19,-100.923 1411.97,-95.0319"/>
</g>
<!-- Node24 -->
<g id="node48" class="node"><title>Node24</title>
<polygon fill="white" stroke="#bfbfbf" points="1435.5,-71.5 1435.5,-92.5 1482.5,-92.5 1482.5,-71.5 1435.5,-71.5"/>
<text text-anchor="middle" x="1459" y="-79.5" font-family="Helvetica,sans-Serif" font-size="10.00">QLabel</text>
</g>
<!-- Node1&#45;&gt;Node24 -->
<g id="edge48" class="edge"><title>Node1&#45;&gt;Node24</title>
<path fill="none" stroke="midnightblue" d="M1893.97,-151.084C1790.01,-146.749 1563.26,-134.285 1491,-106 1486.51,-104.244 1482.11,-101.677 1478.07,-98.8679"/>
<polygon fill="midnightblue" stroke="midnightblue" points="1479.97,-95.915 1469.93,-92.5517 1475.68,-101.446 1479.97,-95.915"/>
</g>
<!-- Node25 -->
<g id="node50" class="node"><title>Node25</title>
<polygon fill="white" stroke="#bfbfbf" points="1499.5,-71.5 1499.5,-92.5 1558.5,-92.5 1558.5,-71.5 1499.5,-71.5"/>
<text text-anchor="middle" x="1529" y="-79.5" font-family="Helvetica,sans-Serif" font-size="10.00">QLineEdit</text>
</g>
<!-- Node1&#45;&gt;Node25 -->
<g id="edge50" class="edge"><title>Node1&#45;&gt;Node25</title>
<path fill="none" stroke="midnightblue" d="M1893.98,-149.317C1804.14,-142.6 1626,-127.082 1567,-106 1561.58,-104.064 1556.13,-101.251 1551.12,-98.2279"/>
<polygon fill="midnightblue" stroke="midnightblue" points="1552.95,-95.2444 1542.66,-92.7025 1549.12,-101.104 1552.95,-95.2444"/>
</g>
<!-- Node26 -->
<g id="node52" class="node"><title>Node26</title>
<polygon fill="white" stroke="#bfbfbf" points="1575.5,-71.5 1575.5,-92.5 1650.5,-92.5 1650.5,-71.5 1575.5,-71.5"/>
<text text-anchor="middle" x="1613" y="-79.5" font-family="Helvetica,sans-Serif" font-size="10.00">QColorDialog</text>
</g>
<!-- Node1&#45;&gt;Node26 -->
<g id="edge52" class="edge"><title>Node1&#45;&gt;Node26</title>
<path fill="none" stroke="midnightblue" d="M1893.76,-149.413C1835.03,-144.294 1738.31,-132.4 1659,-106 1652.34,-103.783 1645.47,-100.691 1639.14,-97.463"/>
<polygon fill="midnightblue" stroke="midnightblue" points="1640.79,-94.3798 1630.33,-92.7217 1637.48,-100.544 1640.79,-94.3798"/>
</g>
<!-- Node27 -->
<g id="node54" class="node"><title>Node27</title>
<polygon fill="white" stroke="#bfbfbf" points="1667.5,-71.5 1667.5,-92.5 1742.5,-92.5 1742.5,-71.5 1667.5,-71.5"/>
<text text-anchor="middle" x="1705" y="-79.5" font-family="Helvetica,sans-Serif" font-size="10.00">QPushButton</text>
</g>
<!-- Node1&#45;&gt;Node27 -->
<g id="edge54" class="edge"><title>Node1&#45;&gt;Node27</title>
<path fill="none" stroke="midnightblue" d="M1893.96,-143.945C1853.92,-136.237 1798.03,-123.601 1751,-106 1744.69,-103.638 1738.14,-100.607 1732.03,-97.4993"/>
<polygon fill="midnightblue" stroke="midnightblue" points="1733.35,-94.2416 1722.88,-92.6386 1730.07,-100.423 1733.35,-94.2416"/>
</g>
<!-- Node28 -->
<g id="node56" class="node"><title>Node28</title>
<polygon fill="white" stroke="#bfbfbf" points="1760,-71.5 1760,-92.5 1800,-92.5 1800,-71.5 1760,-71.5"/>
<text text-anchor="middle" x="1780" y="-79.5" font-family="Helvetica,sans-Serif" font-size="10.00">QList</text>
</g>
<!-- Node1&#45;&gt;Node28 -->
<g id="edge56" class="edge"><title>Node1&#45;&gt;Node28</title>
<path fill="none" stroke="midnightblue" d="M1903.02,-142.428C1875.03,-134.652 1838.6,-122.551 1809,-106 1805.44,-104.012 1801.9,-101.568 1798.57,-99.0098"/>
<polygon fill="midnightblue" stroke="midnightblue" points="1800.79,-96.3054 1790.87,-92.605 1796.32,-101.689 1800.79,-96.3054"/>
</g>
<!-- Node29 -->
<g id="node58" class="node"><title>Node29</title>
<polygon fill="white" stroke="#bfbfbf" points="1817.5,-71.5 1817.5,-92.5 1866.5,-92.5 1866.5,-71.5 1817.5,-71.5"/>
<text text-anchor="middle" x="1842" y="-79.5" font-family="Helvetica,sans-Serif" font-size="10.00">QtMath</text>
</g>
<!-- Node1&#45;&gt;Node29 -->
<g id="edge58" class="edge"><title>Node1&#45;&gt;Node29</title>
<path fill="none" stroke="midnightblue" d="M1930.26,-142.408C1915.56,-133.033 1893.68,-118.878 1875,-106 1871.62,-103.669 1868.08,-101.163 1864.62,-98.6813"/>
<polygon fill="midnightblue" stroke="midnightblue" points="1866.49,-95.7156 1856.34,-92.6735 1862.38,-101.38 1866.49,-95.7156"/>
</g>
<!-- Node30 -->
<g id="node60" class="node"><title>Node30</title>
<polygon fill="white" stroke="#bfbfbf" points="1884,-71.5 1884,-92.5 1924,-92.5 1924,-71.5 1884,-71.5"/>
<text text-anchor="middle" x="1904" y="-79.5" font-family="Helvetica,sans-Serif" font-size="10.00">limits</text>
</g>
<!-- Node1&#45;&gt;Node30 -->
<g id="edge60" class="edge"><title>Node1&#45;&gt;Node30</title>
<path fill="none" stroke="midnightblue" d="M1940.47,-142.217C1933.97,-131.478 1923.83,-114.75 1915.9,-101.647"/>
<polygon fill="midnightblue" stroke="midnightblue" points="1918.77,-99.6253 1910.59,-92.8849 1912.78,-103.252 1918.77,-99.6253"/>
</g>
<!-- Node31 -->
<g id="node62" class="node"><title>Node31</title>
<polygon fill="white" stroke="#bfbfbf" points="1942,-71.5 1942,-92.5 2040,-92.5 2040,-71.5 1942,-71.5"/>
<text text-anchor="middle" x="1991" y="-79.5" font-family="Helvetica,sans-Serif" font-size="10.00">./ui_mainwindow.h</text>
</g>
<!-- Node1&#45;&gt;Node31 -->
<g id="edge62" class="edge"><title>Node1&#45;&gt;Node31</title>
<path fill="none" stroke="midnightblue" d="M1953.68,-142.217C1960.34,-131.478 1970.7,-114.75 1978.82,-101.647"/>
<polygon fill="midnightblue" stroke="midnightblue" points="1981.96,-103.229 1984.25,-92.8849 1976.01,-99.5413 1981.96,-103.229"/>
</g>
<!-- Node32 -->
<g id="node64" class="node"><title>Node32</title>
<polygon fill="white" stroke="#bfbfbf" points="2057.5,-71.5 2057.5,-92.5 2146.5,-92.5 2146.5,-71.5 2057.5,-71.5"/>
<text text-anchor="middle" x="2102" y="-79.5" font-family="Helvetica,sans-Serif" font-size="10.00">QtCore/QVariant</text>
</g>
<!-- Node1&#45;&gt;Node32 -->
<g id="edge64" class="edge"><title>Node1&#45;&gt;Node32</title>
<path fill="none" stroke="midnightblue" d="M1970.21,-142.371C1996.65,-130.258 2040.04,-110.382 2069.76,-96.7682"/>
<polygon fill="midnightblue" stroke="midnightblue" points="2071.26,-99.9326 2078.89,-92.586 2068.34,-93.5685 2071.26,-99.9326"/>
</g>
<!-- Node33 -->
<g id="node66" class="node"><title>Node33</title>
<polygon fill="white" stroke="#bfbfbf" points="2163.5,-71.5 2163.5,-92.5 2264.5,-92.5 2264.5,-71.5 2163.5,-71.5"/>
<text text-anchor="middle" x="2214" y="-79.5" font-family="Helvetica,sans-Serif" font-size="10.00">QtWidgets/QAction</text>
</g>
<!-- Node1&#45;&gt;Node33 -->
<g id="edge66" class="edge"><title>Node1&#45;&gt;Node33</title>
<path fill="none" stroke="midnightblue" d="M2000.21,-143.478C2042.62,-135.293 2103.25,-122.25 2155,-106 2163.57,-103.309 2172.64,-99.91 2181.03,-96.5228"/>
<polygon fill="midnightblue" stroke="midnightblue" points="2182.6,-99.6599 2190.5,-92.5952 2179.92,-93.1942 2182.6,-99.6599"/>
</g>
<!-- Node34 -->
<g id="node68" class="node"><title>Node34</title>
<polygon fill="white" stroke="#bfbfbf" points="2282,-71.5 2282,-92.5 2404,-92.5 2404,-71.5 2282,-71.5"/>
<text text-anchor="middle" x="2343" y="-79.5" font-family="Helvetica,sans-Serif" font-size="10.00">QtWidgets/QApplication</text>
</g>
<!-- Node1&#45;&gt;Node34 -->
<g id="edge68" class="edge"><title>Node1&#45;&gt;Node34</title>
<path fill="none" stroke="midnightblue" d="M2000.09,-148.426C2065.09,-142.122 2178.22,-128.866 2273,-106 2284.09,-103.324 2295.91,-99.6161 2306.62,-95.9145"/>
<polygon fill="midnightblue" stroke="midnightblue" points="2307.84,-99.1953 2316.09,-92.5466 2305.5,-92.6 2307.84,-99.1953"/>
</g>
<!-- Node35 -->
<g id="node70" class="node"><title>Node35</title>
<polygon fill="white" stroke="#bfbfbf" points="2422,-71.5 2422,-92.5 2550,-92.5 2550,-71.5 2422,-71.5"/>
<text text-anchor="middle" x="2486" y="-79.5" font-family="Helvetica,sans-Serif" font-size="10.00">QtWidgets/QButtonGroup</text>
</g>
<!-- Node1&#45;&gt;Node35 -->
<g id="edge70" class="edge"><title>Node1&#45;&gt;Node35</title>
<path fill="none" stroke="midnightblue" d="M2000.34,-151.379C2087.53,-147.892 2265.65,-137.265 2413,-106 2424.91,-103.473 2437.61,-99.6973 2449.01,-95.8846"/>
<polygon fill="midnightblue" stroke="midnightblue" points="2450.35,-99.1276 2458.66,-92.555 2448.06,-92.511 2450.35,-99.1276"/>
</g>
<!-- Node36 -->
<g id="node72" class="node"><title>Node36</title>
<polygon fill="white" stroke="#bfbfbf" points="2568,-71.5 2568,-92.5 2696,-92.5 2696,-71.5 2568,-71.5"/>
<text text-anchor="middle" x="2632" y="-79.5" font-family="Helvetica,sans-Serif" font-size="10.00">QtWidgets/QDockWidget</text>
</g>
<!-- Node1&#45;&gt;Node36 -->
<g id="edge72" class="edge"><title>Node1&#45;&gt;Node36</title>
<path fill="none" stroke="midnightblue" d="M2000.24,-150.56C2128.67,-144.41 2452.67,-127.237 2559,-106 2571.04,-103.595 2583.86,-99.817 2595.34,-95.9643"/>
<polygon fill="midnightblue" stroke="midnightblue" points="2596.74,-99.1839 2605.03,-92.5919 2594.44,-92.5728 2596.74,-99.1839"/>
</g>
<!-- Node37 -->
<g id="node74" class="node"><title>Node37</title>
<polygon fill="white" stroke="#bfbfbf" points="2713.5,-71.5 2713.5,-92.5 2834.5,-92.5 2834.5,-71.5 2713.5,-71.5"/>
<text text-anchor="middle" x="2774" y="-79.5" font-family="Helvetica,sans-Serif" font-size="10.00">QtWidgets/QGridLayout</text>
</g>
<!-- Node1&#45;&gt;Node37 -->
<g id="edge74" class="edge"><title>Node1&#45;&gt;Node37</title>
<path fill="none" stroke="midnightblue" d="M2000.07,-151.59C2149.17,-147.329 2569.76,-133.18 2705,-106 2716.42,-103.704 2728.54,-99.9649 2739.37,-96.1141"/>
<polygon fill="midnightblue" stroke="midnightblue" points="2740.74,-99.3387 2748.9,-92.5845 2738.31,-92.7741 2740.74,-99.3387"/>
</g>
<!-- Node38 -->
<g id="node76" class="node"><title>Node38</title>
<polygon fill="white" stroke="#bfbfbf" points="2852,-71.5 2852,-92.5 2980,-92.5 2980,-71.5 2852,-71.5"/>
<text text-anchor="middle" x="2916" y="-79.5" font-family="Helvetica,sans-Serif" font-size="10.00">QtWidgets/QHBoxLayout</text>
</g>
<!-- Node1&#45;&gt;Node38 -->
<g id="edge76" class="edge"><title>Node1&#45;&gt;Node38</title>
<path fill="none" stroke="midnightblue" d="M2000.25,-152.056C2167.34,-148.804 2679.84,-136.537 2843,-106 2855.4,-103.68 2868.59,-99.8008 2880.31,-95.8303"/>
<polygon fill="midnightblue" stroke="midnightblue" points="2881.48,-99.1286 2889.75,-92.5058 2879.15,-92.5259 2881.48,-99.1286"/>
</g>
<!-- Node39 -->
<g id="node78" class="node"><title>Node39</title>
<polygon fill="white" stroke="#bfbfbf" points="2997.5,-71.5 2997.5,-92.5 3124.5,-92.5 3124.5,-71.5 2997.5,-71.5"/>
<text text-anchor="middle" x="3061" y="-79.5" font-family="Helvetica,sans-Serif" font-size="10.00">QtWidgets/QHeaderView</text>
</g>
<!-- Node1&#45;&gt;Node39 -->
<g id="edge78" class="edge"><title>Node1&#45;&gt;Node39</title>
<path fill="none" stroke="midnightblue" d="M2000,-152.542C2184.27,-150.648 2796.26,-141.752 2989,-106 3001.12,-103.751 3014.01,-99.9389 3025.47,-96.0072"/>
<polygon fill="midnightblue" stroke="midnightblue" points="3026.89,-99.2178 3035.13,-92.5575 3024.53,-92.6258 3026.89,-99.2178"/>
</g>
<!-- Node40 -->
<g id="node80" class="node"><title>Node40</title>
<polygon fill="white" stroke="#bfbfbf" points="3141.5,-71.5 3141.5,-92.5 3238.5,-92.5 3238.5,-71.5 3141.5,-71.5"/>
<text text-anchor="middle" x="3190" y="-79.5" font-family="Helvetica,sans-Serif" font-size="10.00">QtWidgets/QLabel</text>
</g>
<!-- Node1&#45;&gt;Node40 -->
<g id="edge80" class="edge"><title>Node1&#45;&gt;Node40</title>
<path fill="none" stroke="midnightblue" d="M2000.11,-152.013C2216.01,-147.85 3021.68,-130.784 3133,-106 3142.29,-103.932 3151.98,-100.418 3160.68,-96.7085"/>
<polygon fill="midnightblue" stroke="midnightblue" points="3162.33,-99.8042 3170.01,-92.5032 3159.45,-93.4228 3162.33,-99.8042"/>
</g>
<!-- Node41 -->
<g id="node82" class="node"><title>Node41</title>
<polygon fill="white" stroke="#bfbfbf" points="3256,-71.5 3256,-92.5 3386,-92.5 3386,-71.5 3256,-71.5"/>
<text text-anchor="middle" x="3321" y="-79.5" font-family="Helvetica,sans-Serif" font-size="10.00">QtWidgets/QMainWindow</text>
</g>
<!-- Node1&#45;&gt;Node41 -->
<g id="edge82" class="edge"><title>Node1&#45;&gt;Node41</title>
<path fill="none" stroke="midnightblue" d="M2000.06,-151.95C2228.59,-147.312 3123.01,-127.906 3247,-106 3259.57,-103.779 3272.95,-99.9253 3284.82,-95.9481"/>
<polygon fill="midnightblue" stroke="midnightblue" points="3286.1,-99.2086 3294.39,-92.6112 3283.8,-92.5989 3286.1,-99.2086"/>
</g>
<!-- Node42 -->
<g id="node84" class="node"><title>Node42</title>
<polygon fill="white" stroke="#bfbfbf" points="3404,-71.5 3404,-92.5 3502,-92.5 3502,-71.5 3404,-71.5"/>
<text text-anchor="middle" x="3453" y="-79.5" font-family="Helvetica,sans-Serif" font-size="10.00">QtWidgets/QMenu</text>
</g>
<!-- Node1&#45;&gt;Node42 -->
<g id="edge84" class="edge"><title>Node1&#45;&gt;Node42</title>
<path fill="none" stroke="midnightblue" d="M2000.29,-152.402C2245.21,-149.499 3256.85,-135.791 3395,-106 3404.54,-103.942 3414.51,-100.385 3423.44,-96.6299"/>
<polygon fill="midnightblue" stroke="midnightblue" points="3424.93,-99.7981 3432.64,-92.5395 3422.09,-93.401 3424.93,-99.7981"/>
</g>
<!-- Node43 -->
<g id="node86" class="node"><title>Node43</title>
<polygon fill="white" stroke="#bfbfbf" points="3519.5,-71.5 3519.5,-92.5 3632.5,-92.5 3632.5,-71.5 3519.5,-71.5"/>
<text text-anchor="middle" x="3576" y="-79.5" font-family="Helvetica,sans-Serif" font-size="10.00">QtWidgets/QMenuBar</text>
</g>
<!-- Node1&#45;&gt;Node43 -->
<g id="edge86" class="edge"><title>Node1&#45;&gt;Node43</title>
<path fill="none" stroke="midnightblue" d="M2000.19,-152.421C2256.77,-149.49 3360.33,-135.269 3511,-106 3521.92,-103.879 3533.43,-100.16 3543.68,-96.2735"/>
<polygon fill="midnightblue" stroke="midnightblue" points="3545.06,-99.4905 3553.06,-92.5428 3542.47,-92.9859 3545.06,-99.4905"/>
</g>
<!-- Node44 -->
<g id="node88" class="node"><title>Node44</title>
<polygon fill="white" stroke="#bfbfbf" points="3649.5,-71.5 3649.5,-92.5 3766.5,-92.5 3766.5,-71.5 3649.5,-71.5"/>
<text text-anchor="middle" x="3708" y="-79.5" font-family="Helvetica,sans-Serif" font-size="10.00">QtWidgets/QStatusBar</text>
</g>
<!-- Node1&#45;&gt;Node44 -->
<g id="edge88" class="edge"><title>Node1&#45;&gt;Node44</title>
<path fill="none" stroke="midnightblue" d="M2000.08,-152.523C2269.23,-149.974 3476.73,-136.887 3641,-106 3652.34,-103.867 3664.33,-100.096 3674.98,-96.1655"/>
<polygon fill="midnightblue" stroke="midnightblue" points="3676.26,-99.4228 3684.32,-92.5536 3673.73,-92.8934 3676.26,-99.4228"/>
</g>
<!-- Node45 -->
<g id="node90" class="node"><title>Node45</title>
<polygon fill="white" stroke="#bfbfbf" points="3783.5,-71.5 3783.5,-92.5 3888.5,-92.5 3888.5,-71.5 3783.5,-71.5"/>
<text text-anchor="middle" x="3836" y="-79.5" font-family="Helvetica,sans-Serif" font-size="10.00">QtWidgets/QTabBar</text>
</g>
<!-- Node1&#45;&gt;Node45 -->
<g id="edge90" class="edge"><title>Node1&#45;&gt;Node45</title>
<path fill="none" stroke="midnightblue" d="M2000.06,-152.736C2281.9,-151.186 3597.37,-142.058 3775,-106 3785.1,-103.95 3795.68,-100.348 3805.15,-96.5477"/>
<polygon fill="midnightblue" stroke="midnightblue" points="3806.7,-99.6939 3814.54,-92.5728 3803.97,-93.2476 3806.7,-99.6939"/>
</g>
<!-- Node46 -->
<g id="node92" class="node"><title>Node46</title>
<polygon fill="white" stroke="#bfbfbf" points="3905.5,-71.5 3905.5,-92.5 4012.5,-92.5 4012.5,-71.5 3905.5,-71.5"/>
<text text-anchor="middle" x="3959" y="-79.5" font-family="Helvetica,sans-Serif" font-size="10.00">QtWidgets/QToolBar</text>
</g>
<!-- Node1&#45;&gt;Node46 -->
<g id="edge92" class="edge"><title>Node1&#45;&gt;Node46</title>
<path fill="none" stroke="midnightblue" d="M2000.19,-152.81C2293.45,-151.618 3706.66,-143.933 3897,-106 3907.36,-103.936 3918.23,-100.281 3927.93,-96.4368"/>
<polygon fill="midnightblue" stroke="midnightblue" points="3929.29,-99.6611 3937.17,-92.5809 3926.6,-93.2006 3929.29,-99.6611"/>
</g>
<!-- Node47 -->
<g id="node94" class="node"><title>Node47</title>
<polygon fill="white" stroke="#bfbfbf" points="4030,-71.5 4030,-92.5 4154,-92.5 4154,-71.5 4030,-71.5"/>
<text text-anchor="middle" x="4092" y="-79.5" font-family="Helvetica,sans-Serif" font-size="10.00">QtWidgets/QTreeWidget</text>
</g>
<!-- Node1&#45;&gt;Node47 -->
<g id="edge94" class="edge"><title>Node1&#45;&gt;Node47</title>
<path fill="none" stroke="midnightblue" d="M2000.03,-152.758C2303.82,-151.244 3816.93,-141.936 4021,-106 4033.09,-103.871 4045.92,-100.05 4057.29,-96.075"/>
<polygon fill="midnightblue" stroke="midnightblue" points="4058.66,-99.2991 4066.86,-92.5802 4056.26,-92.7241 4058.66,-99.2991"/>
</g>
<!-- Node48 -->
<g id="node96" class="node"><title>Node48</title>
<polygon fill="white" stroke="#bfbfbf" points="4171.5,-71.5 4171.5,-92.5 4298.5,-92.5 4298.5,-71.5 4171.5,-71.5"/>
<text text-anchor="middle" x="4235" y="-79.5" font-family="Helvetica,sans-Serif" font-size="10.00">QtWidgets/QVBoxLayout</text>
</g>
<!-- Node1&#45;&gt;Node48 -->
<g id="edge96" class="edge"><title>Node1&#45;&gt;Node48</title>
<path fill="none" stroke="midnightblue" d="M2000.01,-152.828C2315.91,-151.675 3944.03,-143.921 4163,-106 4175.25,-103.878 4188.25,-100.06 4199.79,-96.0844"/>
<polygon fill="midnightblue" stroke="midnightblue" points="4201.27,-99.2709 4209.49,-92.5885 4198.9,-92.6853 4201.27,-99.2709"/>
</g>
<!-- Node49 -->
<g id="node98" class="node"><title>Node49</title>
<polygon fill="white" stroke="#bfbfbf" points="4316,-71.5 4316,-92.5 4420,-92.5 4420,-71.5 4316,-71.5"/>
<text text-anchor="middle" x="4368" y="-79.5" font-family="Helvetica,sans-Serif" font-size="10.00">QtWidgets/QWidget</text>
</g>
<!-- Node1&#45;&gt;Node49 -->
<g id="edge98" class="edge"><title>Node1&#45;&gt;Node49</title>
<path fill="none" stroke="midnightblue" d="M2000.06,-152.475C2338.95,-149.055 4190.21,-129.355 4307,-106 4317.1,-103.979 4327.69,-100.386 4337.16,-96.5843"/>
<polygon fill="midnightblue" stroke="midnightblue" points="4338.71,-99.7296 4346.55,-92.6052 4335.97,-93.2844 4338.71,-99.7296"/>
</g>
<!-- Node50 -->
<g id="node100" class="node"><title>Node50</title>
<polygon fill="white" stroke="#bfbfbf" points="4438,-58.5 4438,-105.5 4562,-105.5 4562,-58.5 4438,-58.5"/>
<text text-anchor="start" x="4446" y="-92.5" font-family="Helvetica,sans-Serif" font-size="10.00">/home/travis/build</text>
<text text-anchor="start" x="4446" y="-79.5" font-family="Helvetica,sans-Serif" font-size="10.00">/sup3asc2/sickle/include</text>
<text text-anchor="middle" x="4500" y="-66.5" font-family="Helvetica,sans-Serif" font-size="10.00">/viewport.hpp</text>
</g>
<!-- Node1&#45;&gt;Node50 -->
<g id="edge100" class="edge"><title>Node1&#45;&gt;Node50</title>
<path fill="none" stroke="midnightblue" d="M2000.23,-152.455C2342.68,-148.889 4227.65,-128.39 4427.81,-105.578"/>
<polygon fill="midnightblue" stroke="midnightblue" points="4428.52,-109.014 4437.94,-104.177 4427.56,-102.08 4428.52,-109.014"/>
</g>
<!-- Node3 -->
<g id="node5" class="node"><title>Node3</title>
<a xlink:href="fileloader_8hpp.html" target="_top" xlink:title="fileloader.hpp">
<polygon fill="white" stroke="red" points="0,-0.5 0,-21.5 74,-21.5 74,-0.5 0,-0.5"/>
<text text-anchor="middle" x="37" y="-8.5" font-family="Helvetica,sans-Serif" font-size="10.00">fileloader.hpp</text>
</a>
</g>
<!-- Node2&#45;&gt;Node3 -->
<g id="edge4" class="edge"><title>Node2&#45;&gt;Node3</title>
<path fill="none" stroke="midnightblue" d="M389.499,-75.349C324.586,-65.4375 199.938,-45.6151 84.2055,-22.1549"/>
<polygon fill="midnightblue" stroke="midnightblue" points="84.6086,-18.6651 74.1107,-20.0945 83.2087,-25.5237 84.6086,-18.6651"/>
</g>
<!-- Node4 -->
<g id="node7" class="node"><title>Node4</title>
<polygon fill="white" stroke="#bfbfbf" points="92,-0.5 92,-21.5 172,-21.5 172,-0.5 92,-0.5"/>
<text text-anchor="middle" x="132" y="-8.5" font-family="Helvetica,sans-Serif" font-size="10.00">QMainWindow</text>
</g>
<!-- Node2&#45;&gt;Node4 -->
<g id="edge6" class="edge"><title>Node2&#45;&gt;Node4</title>
<path fill="none" stroke="midnightblue" d="M389.439,-71.5237C334.182,-58.5328 240.233,-36.4456 182.401,-22.8493"/>
<polygon fill="midnightblue" stroke="midnightblue" points="182.927,-19.3775 172.391,-20.496 181.325,-26.1917 182.927,-19.3775"/>
</g>
<!-- Node5 -->
<g id="node9" class="node"><title>Node5</title>
<polygon fill="white" stroke="#bfbfbf" points="190,-0.5 190,-21.5 284,-21.5 284,-0.5 190,-0.5"/>
<text text-anchor="middle" x="237" y="-8.5" font-family="Helvetica,sans-Serif" font-size="10.00">QTreeWidgetItem</text>
</g>
<!-- Node2&#45;&gt;Node5 -->
<g id="edge8" class="edge"><title>Node2&#45;&gt;Node5</title>
<path fill="none" stroke="midnightblue" d="M404.507,-71.3706C370.317,-59.0481 313.834,-38.6914 276.03,-25.0667"/>
<polygon fill="midnightblue" stroke="midnightblue" points="276.967,-21.6839 266.372,-21.586 274.593,-28.2693 276.967,-21.6839"/>
</g>
<!-- Node6 -->
<g id="node11" class="node"><title>Node6</title>
<polygon fill="white" stroke="#bfbfbf" points="302,-0.5 302,-21.5 382,-21.5 382,-0.5 302,-0.5"/>
<text text-anchor="middle" x="342" y="-8.5" font-family="Helvetica,sans-Serif" font-size="10.00">QPluginLoader</text>
</g>
<!-- Node2&#45;&gt;Node6 -->
<g id="edge10" class="edge"><title>Node2&#45;&gt;Node6</title>
<path fill="none" stroke="midnightblue" d="M420.027,-71.2166C405.081,-59.6818 381.178,-41.2354 363.763,-27.7955"/>
<polygon fill="midnightblue" stroke="midnightblue" points="365.858,-24.991 355.803,-21.6522 361.581,-30.5327 365.858,-24.991"/>
</g>
<!-- Node7 -->
<g id="node13" class="node"><title>Node7</title>
<polygon fill="white" stroke="#bfbfbf" points="400,-0.5 400,-21.5 468,-21.5 468,-0.5 400,-0.5"/>
<text text-anchor="middle" x="434" y="-8.5" font-family="Helvetica,sans-Serif" font-size="10.00">QJsonArray</text>
</g>
<!-- Node2&#45;&gt;Node7 -->
<g id="edge12" class="edge"><title>Node2&#45;&gt;Node7</title>
<path fill="none" stroke="midnightblue" d="M434,-71.2166C434,-60.8953 434,-45.0401 434,-32.1896"/>
<polygon fill="midnightblue" stroke="midnightblue" points="437.5,-31.8848 434,-21.8849 430.5,-31.8849 437.5,-31.8848"/>
</g>
<!-- Node8 -->
<g id="node15" class="node"><title>Node8</title>
<polygon fill="white" stroke="#bfbfbf" points="486,-0.5 486,-21.5 556,-21.5 556,-0.5 486,-0.5"/>
<text text-anchor="middle" x="521" y="-8.5" font-family="Helvetica,sans-Serif" font-size="10.00">QCheckBox</text>
</g>
<!-- Node2&#45;&gt;Node8 -->
<g id="edge14" class="edge"><title>Node2&#45;&gt;Node8</title>
<path fill="none" stroke="midnightblue" d="M447.213,-71.2166C461.219,-59.7866 483.541,-41.5702 499.969,-28.1633"/>
<polygon fill="midnightblue" stroke="midnightblue" points="502.413,-30.6866 507.947,-21.6522 497.987,-25.2633 502.413,-30.6866"/>
</g>
<!-- Node9 -->
<g id="node17" class="node"><title>Node9</title>
<polygon fill="white" stroke="#bfbfbf" points="573.5,-0.5 573.5,-21.5 646.5,-21.5 646.5,-0.5 573.5,-0.5"/>
<text text-anchor="middle" x="610" y="-8.5" font-family="Helvetica,sans-Serif" font-size="10.00">QComboBox</text>
</g>
<!-- Node2&#45;&gt;Node9 -->
<g id="edge16" class="edge"><title>Node2&#45;&gt;Node9</title>
<path fill="none" stroke="midnightblue" d="M456.565,-71.4205C465.925,-67.1264 476.932,-62.1988 487,-58 515.001,-46.3227 547.027,-34.1212 571.379,-25.0775"/>
<polygon fill="midnightblue" stroke="midnightblue" points="572.811,-28.2796 580.977,-21.5288 570.383,-21.714 572.811,-28.2796"/>
</g>
<!-- Node10 -->
<g id="node19" class="node"><title>Node10</title>
<polygon fill="white" stroke="#bfbfbf" points="663.5,-0.5 663.5,-21.5 722.5,-21.5 722.5,-0.5 663.5,-0.5"/>
<text text-anchor="middle" x="693" y="-8.5" font-family="Helvetica,sans-Serif" font-size="10.00">functional</text>
</g>
<!-- Node2&#45;&gt;Node10 -->
<g id="edge18" class="edge"><title>Node2&#45;&gt;Node10</title>
<path fill="none" stroke="midnightblue" d="M454.482,-71.485C464.151,-66.8457 475.967,-61.6336 487,-58 556.555,-35.0931 579.103,-40.1449 653.363,-22.2702"/>
<polygon fill="midnightblue" stroke="midnightblue" points="654.313,-25.6409 663.183,-19.8469 652.636,-18.8448 654.313,-25.6409"/>
</g>
<!-- Node11 -->
<g id="node21" class="node"><title>Node11</title>
<polygon fill="white" stroke="#bfbfbf" points="740,-0.5 740,-21.5 778,-21.5 778,-0.5 740,-0.5"/>
<text text-anchor="middle" x="759" y="-8.5" font-family="Helvetica,sans-Serif" font-size="10.00">tuple</text>
</g>
<!-- Node2&#45;&gt;Node11 -->
<g id="edge20" class="edge"><title>Node2&#45;&gt;Node11</title>
<path fill="none" stroke="midnightblue" d="M454.13,-71.2817C463.822,-66.5413 475.758,-61.3038 487,-58 589.089,-27.9967 623.087,-48.915 730.028,-21.7555"/>
<polygon fill="midnightblue" stroke="midnightblue" points="731.129,-25.0851 739.914,-19.1622 729.353,-18.3141 731.129,-25.0851"/>
</g>
<!-- Node18&#45;&gt;Node17 -->
<g id="edge36" class="edge"><title>Node18&#45;&gt;Node17</title>
<path fill="none" stroke="midnightblue" d="M985.14,-71.2166C980.347,-60.5825 972.907,-44.0741 967.028,-31.0299"/>
<polygon fill="midnightblue" stroke="midnightblue" points="970.206,-29.5635 962.906,-21.8849 963.824,-32.4398 970.206,-29.5635"/>
</g>
</g>
</svg>
        <g id="navigator" transform="translate(0 0)" fill="#404254">
                <rect fill="#f2f5e9" fill-opacity="0.5" stroke="#606060" stroke-width=".5" x="0" y="0" width="60" height="60"/>
                <use id="zoomplus" xlink:href="#zoomPlus" x="17" y="9" onmousedown="handleZoom(evt,'in')"/>
                <use id="zoomminus" xlink:href="#zoomMin" x="42" y="9" onmousedown="handleZoom(evt,'out')"/>
                <use id="reset" xlink:href="#resetDef" x="30" y="36" onmousedown="handleReset()"/>
                <g id="arrowUp" xlink:href="#dirArrow" transform="translate(30 24)" onmousedown="handlePan(0,-1)">
                  <use xlink:href="#rim" fill="#404040">
                        <set attributeName="fill" to="#808080" begin="arrowUp.mouseover" end="arrowUp.mouseout"/>
                  </use>
                  <path fill="none" stroke="white" stroke-width="1.5" d="M0,-3.0v7 M-2.5,-0.5L0,-3.0L2.5,-0.5"/>
                </g>
                <g id="arrowRight" xlink:href="#dirArrow" transform="rotate(90) translate(36 -43)" onmousedown="handlePan(1,0)">
                  <use xlink:href="#rim" fill="#404040">
                        <set attributeName="fill" to="#808080" begin="arrowRight.mouseover" end="arrowRight.mouseout"/>
                  </use>
                  <path fill="none" stroke="white" stroke-width="1.5" d="M0,-3.0v7 M-2.5,-0.5L0,-3.0L2.5,-0.5"/>
                </g>
                <g id="arrowDown" xlink:href="#dirArrow" transform="rotate(180) translate(-30 -48)" onmousedown="handlePan(0,1)">
                  <use xlink:href="#rim" fill="#404040">
                        <set attributeName="fill" to="#808080" begin="arrowDown.mouseover" end="arrowDown.mouseout"/>
                  </use>
                  <path fill="none" stroke="white" stroke-width="1.5" d="M0,-3.0v7 M-2.5,-0.5L0,-3.0L2.5,-0.5"/>
                </g>
                <g id="arrowLeft" xlink:href="#dirArrow" transform="rotate(270) translate(-36 17)" onmousedown="handlePan(-1,0)">
                  <use xlink:href="#rim" fill="#404040">
                        <set attributeName="fill" to="#808080" begin="arrowLeft.mouseover" end="arrowLeft.mouseout"/>
                  </use>
                  <path fill="none" stroke="white" stroke-width="1.5" d="M0,-3.0v7 M-2.5,-0.5L0,-3.0L2.5,-0.5"/>
                </g>
        </g>
        <svg viewBox="0 0 15 15" width="100%" height="30px" preserveAspectRatio="xMaxYMin meet">
         <g id="arrow_out" transform="scale(0.3 0.3)">
          <a xlink:href="mainwindow_8cpp__incl_org.svg" target="_base">
           <rect id="button" ry="5" rx="5" y="6" x="6" height="38" width="38"
                fill="#f2f5e9" fill-opacity="0.5" stroke="#606060" stroke-width="1.0"/>
           <path id="arrow"
             d="M 11.500037,31.436501 C 11.940474,20.09759 22.043105,11.32322 32.158766,21.979434 L 37.068811,17.246167 C 37.068811,17.246167 37.088388,32 37.088388,32 L 22.160133,31.978069 C 22.160133,31.978069 26.997745,27.140456 26.997745,27.140456 C 18.528582,18.264221 13.291696,25.230495 11.500037,31.436501 z"
             style="fill:#404040;"/>
          </a>
         </g>
        </svg>
</svg>
