<?xml version="1.0" encoding="UTF-8" standalone="no"?>
<!DOCTYPE svg PUBLIC "-//W3C//DTD SVG 1.1//EN"
 "http://www.w3.org/Graphics/SVG/1.1/DTD/svg11.dtd">
<!-- Generated by graphviz version 2.26.3 (20100126.1600)
 -->
<!-- Title: src/mainwindow.cpp Pages: 1 -->
<!--zoomable 288 -->
<svg id="main" version="1.1" xmlns="http://www.w3.org/2000/svg" xmlns:xlink="http://www.w3.org/1999/xlink" xml:space="preserve" onload="init(evt)">
<style type="text/css"><![CDATA[
.edge:hover path { stroke: red; }
.edge:hover polygon { stroke: red; fill: red; }
]]></style>
<script type="text/javascript"><![CDATA[
var edges = document.getElementsByTagName('g');
if (edges && edges.length) {
  for (var i=0;i<edges.length;i++) {
    if (edges[i].id.substr(0,4)=='edge') {
      edges[i].setAttribute('class','edge');
    }
  }
}
]]></script>
        <defs>
                <circle id="rim" cx="0" cy="0" r="7"/>
                <circle id="rim2" cx="0" cy="0" r="3.5"/>
                <g id="zoomPlus">
                        <use xlink:href="#rim" fill="#404040">
                                <set attributeName="fill" to="#808080" begin="zoomplus.mouseover" end="zoomplus.mouseout"/>
                        </use>
                        <path d="M-4,0h8M0,-4v8" fill="none" stroke="white" stroke-width="1.5" pointer-events="none"/>
                </g>
                <g id="zoomMin">
                        <use xlink:href="#rim" fill="#404040">
                                <set attributeName="fill" to="#808080" begin="zoomminus.mouseover" end="zoomminus.mouseout"/>
                        </use>
                        <path d="M-4,0h8" fill="none" stroke="white" stroke-width="1.5" pointer-events="none"/>
                </g>
                <g id="dirArrow">
                        <path fill="none" stroke="white" stroke-width="1.5" d="M0,-3.0v7 M-2.5,-0.5L0,-3.0L2.5,-0.5"/>
                </g>
               <g id="resetDef">
                       <use xlink:href="#rim2" fill="#404040">
                               <set attributeName="fill" to="#808080" begin="reset.mouseover" end="reset.mouseout"/>
                       </use>
               </g>
        </defs>

<script type="text/javascript">
var viewWidth = 3909;
var viewHeight = 288;
var sectionId = 'dynsection-0';
</script>
<script xlink:href="svgpan.js"/>
<svg id="graph" class="graph">
<g id="viewport">
<title>src/mainwindow.cpp</title>
<polygon fill="white" stroke="white" points="-4,5 -4,-284 3906,-284 3906,5 -4,5"/>
<!-- Node1 -->
<g id="node1" class="node"><title>Node1</title>
<polygon fill="#bfbfbf" stroke="black" points="1830,-258.5 1830,-279.5 1936,-279.5 1936,-258.5 1830,-258.5"/>
<text text-anchor="middle" x="1883" y="-266.5" font-family="Helvetica,sans-Serif" font-size="10.00">src/mainwindow.cpp</text>
</g>
<!-- Node2 -->
<g id="node3" class="node"><title>Node2</title>
<a xlink:href="mainwindow_8hpp.html" target="_top" xlink:title="mainwindow.hpp">
<polygon fill="white" stroke="black" points="425.5,-187.5 425.5,-208.5 514.5,-208.5 514.5,-187.5 425.5,-187.5"/>
<text text-anchor="middle" x="470" y="-195.5" font-family="Helvetica,sans-Serif" font-size="10.00">mainwindow.hpp</text>
</a>
</g>
<!-- Node1&#45;&gt;Node2 -->
<g id="edge2" class="edge"><title>Node1&#45;&gt;Node2</title>
<path fill="none" stroke="midnightblue" d="M1829.93,-267.96C1664.58,-264.484 1144.08,-251.772 714,-222 648.984,-217.499 574.458,-209.797 525.054,-204.333"/>
<polygon fill="midnightblue" stroke="midnightblue" points="525.232,-200.831 514.906,-203.203 524.457,-207.788 525.232,-200.831"/>
</g>
<!-- Node6 -->
<g id="node11" class="node"><title>Node6</title>
<a xlink:href="sphere_8hpp.html" target="_top" xlink:title="sphere.hpp">
<polygon fill="white" stroke="black" points="722.5,-187.5 722.5,-208.5 787.5,-208.5 787.5,-187.5 722.5,-187.5"/>
<text text-anchor="middle" x="755" y="-195.5" font-family="Helvetica,sans-Serif" font-size="10.00">sphere.hpp</text>
</a>
</g>
<!-- Node1&#45;&gt;Node6 -->
<g id="edge10" class="edge"><title>Node1&#45;&gt;Node6</title>
<path fill="none" stroke="midnightblue" d="M1829.77,-268.203C1625.15,-264.934 895.545,-251.316 796,-222 789.666,-220.135 783.283,-217.088 777.502,-213.783"/>
<polygon fill="midnightblue" stroke="midnightblue" points="779.348,-210.809 769.006,-208.507 775.655,-216.756 779.348,-210.809"/>
</g>
<!-- Node21 -->
<g id="node44" class="node"><title>Node21</title>
<polygon fill="white" stroke="#bfbfbf" points="804.5,-187.5 804.5,-208.5 859.5,-208.5 859.5,-187.5 804.5,-187.5"/>
<text text-anchor="middle" x="832" y="-195.5" font-family="Helvetica,sans-Serif" font-size="10.00">QVariant</text>
</g>
<!-- Node1&#45;&gt;Node21 -->
<g id="edge46" class="edge"><title>Node1&#45;&gt;Node21</title>
<path fill="none" stroke="midnightblue" d="M1829.94,-268.204C1634.24,-265.043 959.555,-252.05 868,-222 862.781,-220.287 857.606,-217.594 852.876,-214.622"/>
<polygon fill="midnightblue" stroke="midnightblue" points="854.641,-211.585 844.434,-208.744 850.641,-217.33 854.641,-211.585"/>
</g>
<!-- Node22 -->
<g id="node46" class="node"><title>Node22</title>
<polygon fill="white" stroke="#bfbfbf" points="877,-187.5 877,-208.5 945,-208.5 945,-187.5 877,-187.5"/>
<text text-anchor="middle" x="911" y="-195.5" font-family="Helvetica,sans-Serif" font-size="10.00">QFileDialog</text>
</g>
<!-- Node1&#45;&gt;Node22 -->
<g id="edge48" class="edge"><title>Node1&#45;&gt;Node22</title>
<path fill="none" stroke="midnightblue" d="M1829.79,-267.721C1645.06,-263.084 1038.06,-246.153 954,-222 947.529,-220.141 940.97,-217.154 934.99,-213.91"/>
<polygon fill="midnightblue" stroke="midnightblue" points="936.56,-210.773 926.165,-208.725 933.014,-216.808 936.56,-210.773"/>
</g>
<!-- Node23 -->
<g id="node48" class="node"><title>Node23</title>
<polygon fill="white" stroke="#bfbfbf" points="962.5,-187.5 962.5,-208.5 1023.5,-208.5 1023.5,-187.5 962.5,-187.5"/>
<text text-anchor="middle" x="993" y="-195.5" font-family="Helvetica,sans-Serif" font-size="10.00">QSpinBox</text>
</g>
<!-- Node1&#45;&gt;Node23 -->
<g id="edge50" class="edge"><title>Node1&#45;&gt;Node23</title>
<path fill="none" stroke="midnightblue" d="M1829.74,-267.581C1655.28,-262.723 1107.81,-245.735 1032,-222 1026.31,-220.218 1020.61,-217.421 1015.39,-214.355"/>
<polygon fill="midnightblue" stroke="midnightblue" points="1016.92,-211.181 1006.62,-208.71 1013.13,-217.066 1016.92,-211.181"/>
</g>
<!-- Node24 -->
<g id="node50" class="node"><title>Node24</title>
<polygon fill="white" stroke="#bfbfbf" points="1040.5,-187.5 1040.5,-208.5 1087.5,-208.5 1087.5,-187.5 1040.5,-187.5"/>
<text text-anchor="middle" x="1064" y="-195.5" font-family="Helvetica,sans-Serif" font-size="10.00">QLabel</text>
</g>
<!-- Node1&#45;&gt;Node24 -->
<g id="edge52" class="edge"><title>Node1&#45;&gt;Node24</title>
<path fill="none" stroke="midnightblue" d="M1829.93,-267.6C1664.39,-262.988 1164.47,-247.115 1096,-222 1091.48,-220.341 1087.06,-217.818 1083.01,-215.022"/>
<polygon fill="midnightblue" stroke="midnightblue" points="1084.92,-212.07 1074.87,-208.694 1080.62,-217.595 1084.92,-212.07"/>
</g>
<!-- Node25 -->
<g id="node52" class="node"><title>Node25</title>
<polygon fill="white" stroke="#bfbfbf" points="1104.5,-187.5 1104.5,-208.5 1163.5,-208.5 1163.5,-187.5 1104.5,-187.5"/>
<text text-anchor="middle" x="1134" y="-195.5" font-family="Helvetica,sans-Serif" font-size="10.00">QLineEdit</text>
</g>
<!-- Node1&#45;&gt;Node25 -->
<g id="edge54" class="edge"><title>Node1&#45;&gt;Node25</title>
<path fill="none" stroke="midnightblue" d="M1829.75,-266.994C1675.25,-260.962 1233.94,-242.16 1172,-222 1166.44,-220.189 1160.87,-217.379 1155.78,-214.311"/>
<polygon fill="midnightblue" stroke="midnightblue" points="1157.51,-211.261 1147.24,-208.67 1153.66,-217.102 1157.51,-211.261"/>
</g>
<!-- Node26 -->
<g id="node54" class="node"><title>Node26</title>
<polygon fill="white" stroke="#bfbfbf" points="1180.5,-187.5 1180.5,-208.5 1255.5,-208.5 1255.5,-187.5 1180.5,-187.5"/>
<text text-anchor="middle" x="1218" y="-195.5" font-family="Helvetica,sans-Serif" font-size="10.00">QColorDialog</text>
</g>
<!-- Node1&#45;&gt;Node26 -->
<g id="edge56" class="edge"><title>Node1&#45;&gt;Node26</title>
<path fill="none" stroke="midnightblue" d="M1829.84,-267.709C1700.01,-264.116 1369.7,-252.204 1264,-222 1257.02,-220.005 1249.87,-216.886 1243.35,-213.549"/>
<polygon fill="midnightblue" stroke="midnightblue" points="1244.8,-210.352 1234.35,-208.609 1241.44,-216.488 1244.8,-210.352"/>
</g>
<!-- Node27 -->
<g id="node56" class="node"><title>Node27</title>
<polygon fill="white" stroke="#bfbfbf" points="1272.5,-187.5 1272.5,-208.5 1347.5,-208.5 1347.5,-187.5 1272.5,-187.5"/>
<text text-anchor="middle" x="1310" y="-195.5" font-family="Helvetica,sans-Serif" font-size="10.00">QPushButton</text>
</g>
<!-- Node1&#45;&gt;Node27 -->
<g id="edge58" class="edge"><title>Node1&#45;&gt;Node27</title>
<path fill="none" stroke="midnightblue" d="M1829.74,-266.887C1714.18,-261.876 1443.82,-247.722 1356,-222 1349.03,-219.959 1341.89,-216.823 1335.37,-213.484"/>
<polygon fill="midnightblue" stroke="midnightblue" points="1336.82,-210.287 1326.37,-208.551 1333.46,-216.426 1336.82,-210.287"/>
</g>
<!-- Node28 -->
<g id="node58" class="node"><title>Node28</title>
<polygon fill="white" stroke="#bfbfbf" points="1365,-187.5 1365,-208.5 1405,-208.5 1405,-187.5 1365,-187.5"/>
<text text-anchor="middle" x="1385" y="-195.5" font-family="Helvetica,sans-Serif" font-size="10.00">QList</text>
</g>
<!-- Node1&#45;&gt;Node28 -->
<g id="edge60" class="edge"><title>Node1&#45;&gt;Node28</title>
<path fill="none" stroke="midnightblue" d="M1829.98,-267.558C1723.61,-264.037 1488,-252.905 1414,-222 1409.93,-220.3 1405.99,-217.828 1402.39,-215.109"/>
<polygon fill="midnightblue" stroke="midnightblue" points="1404.61,-212.397 1394.73,-208.565 1400.06,-217.72 1404.61,-212.397"/>
</g>
<!-- Node29 -->
<g id="node60" class="node"><title>Node29</title>
<polygon fill="white" stroke="#bfbfbf" points="1422.5,-187.5 1422.5,-208.5 1471.5,-208.5 1471.5,-187.5 1422.5,-187.5"/>
<text text-anchor="middle" x="1447" y="-195.5" font-family="Helvetica,sans-Serif" font-size="10.00">QtMath</text>
</g>
<!-- Node1&#45;&gt;Node29 -->
<g id="edge62" class="edge"><title>Node1&#45;&gt;Node29</title>
<path fill="none" stroke="midnightblue" d="M1830,-266.161C1735.64,-260.557 1542.58,-246.447 1480,-222 1475.3,-220.163 1470.66,-217.49 1466.41,-214.588"/>
<polygon fill="midnightblue" stroke="midnightblue" points="1468.43,-211.73 1458.34,-208.504 1464.22,-217.32 1468.43,-211.73"/>
</g>
<!-- Node30 -->
<g id="node62" class="node"><title>Node30</title>
<polygon fill="white" stroke="#bfbfbf" points="1489,-187.5 1489,-208.5 1529,-208.5 1529,-187.5 1489,-187.5"/>
<text text-anchor="middle" x="1509" y="-195.5" font-family="Helvetica,sans-Serif" font-size="10.00">limits</text>
</g>
<!-- Node1&#45;&gt;Node30 -->
<g id="edge64" class="edge"><title>Node1&#45;&gt;Node30</title>
<path fill="none" stroke="midnightblue" d="M1829.92,-265.343C1746.57,-259.004 1589.21,-244.461 1538,-222 1534.14,-220.306 1530.38,-217.941 1526.92,-215.351"/>
<polygon fill="midnightblue" stroke="midnightblue" points="1528.94,-212.476 1519.04,-208.703 1524.43,-217.826 1528.94,-212.476"/>
</g>
<!-- Node31 -->
<g id="node64" class="node"><title>Node31</title>
<polygon fill="white" stroke="#bfbfbf" points="1547,-187.5 1547,-208.5 1645,-208.5 1645,-187.5 1547,-187.5"/>
<text text-anchor="middle" x="1596" y="-195.5" font-family="Helvetica,sans-Serif" font-size="10.00">./ui_mainwindow.h</text>
</g>
<!-- Node1&#45;&gt;Node31 -->
<g id="edge66" class="edge"><title>Node1&#45;&gt;Node31</title>
<path fill="none" stroke="midnightblue" d="M1829.99,-261.058C1783.11,-253.343 1713.18,-240.136 1654,-222 1645.46,-219.384 1636.45,-215.983 1628.14,-212.569"/>
<polygon fill="midnightblue" stroke="midnightblue" points="1629.35,-209.281 1618.78,-208.601 1626.62,-215.726 1629.35,-209.281"/>
</g>
<!-- Node32 -->
<g id="node66" class="node"><title>Node32</title>
<polygon fill="white" stroke="#bfbfbf" points="1662.5,-187.5 1662.5,-208.5 1751.5,-208.5 1751.5,-187.5 1662.5,-187.5"/>
<text text-anchor="middle" x="1707" y="-195.5" font-family="Helvetica,sans-Serif" font-size="10.00">QtCore/QVariant</text>
</g>
<!-- Node1&#45;&gt;Node32 -->
<g id="edge68" class="edge"><title>Node1&#45;&gt;Node32</title>
<path fill="none" stroke="midnightblue" d="M1853.98,-258.471C1828.93,-249.251 1791.86,-235.286 1760,-222 1753.08,-219.113 1745.71,-215.882 1738.74,-212.749"/>
<polygon fill="midnightblue" stroke="midnightblue" points="1740.12,-209.529 1729.56,-208.58 1737.22,-215.902 1740.12,-209.529"/>
</g>
<!-- Node33 -->
<g id="node68" class="node"><title>Node33</title>
<polygon fill="white" stroke="#bfbfbf" points="1768.5,-187.5 1768.5,-208.5 1869.5,-208.5 1869.5,-187.5 1768.5,-187.5"/>
<text text-anchor="middle" x="1819" y="-195.5" font-family="Helvetica,sans-Serif" font-size="10.00">QtWidgets/QAction</text>
</g>
<!-- Node1&#45;&gt;Node33 -->
<g id="edge70" class="edge"><title>Node1&#45;&gt;Node33</title>
<path fill="none" stroke="midnightblue" d="M1873.28,-258.217C1863.32,-247.165 1847.64,-229.77 1835.69,-216.512"/>
<polygon fill="midnightblue" stroke="midnightblue" points="1838.11,-213.969 1828.81,-208.885 1832.91,-218.656 1838.11,-213.969"/>
</g>
<!-- Node34 -->
<g id="node70" class="node"><title>Node34</title>
<polygon fill="white" stroke="#bfbfbf" points="1887,-187.5 1887,-208.5 2009,-208.5 2009,-187.5 1887,-187.5"/>
<text text-anchor="middle" x="1948" y="-195.5" font-family="Helvetica,sans-Serif" font-size="10.00">QtWidgets/QApplication</text>
</g>
<!-- Node1&#45;&gt;Node34 -->
<g id="edge72" class="edge"><title>Node1&#45;&gt;Node34</title>
<path fill="none" stroke="midnightblue" d="M1892.87,-258.217C1902.99,-247.165 1918.91,-229.77 1931.05,-216.512"/>
<polygon fill="midnightblue" stroke="midnightblue" points="1933.86,-218.624 1938.03,-208.885 1928.7,-213.897 1933.86,-218.624"/>
</g>
<!-- Node35 -->
<g id="node72" class="node"><title>Node35</title>
<polygon fill="white" stroke="#bfbfbf" points="2027,-187.5 2027,-208.5 2155,-208.5 2155,-187.5 2027,-187.5"/>
<text text-anchor="middle" x="2091" y="-195.5" font-family="Helvetica,sans-Serif" font-size="10.00">QtWidgets/QButtonGroup</text>
</g>
<!-- Node1&#45;&gt;Node35 -->
<g id="edge74" class="edge"><title>Node1&#45;&gt;Node35</title>
<path fill="none" stroke="midnightblue" d="M1914.14,-258.371C1950.39,-245.996 2010.38,-225.518 2050.3,-211.893"/>
<polygon fill="midnightblue" stroke="midnightblue" points="2051.65,-215.129 2059.99,-208.586 2049.39,-208.504 2051.65,-215.129"/>
</g>
<!-- Node36 -->
<g id="node74" class="node"><title>Node36</title>
<polygon fill="white" stroke="#bfbfbf" points="2173,-187.5 2173,-208.5 2301,-208.5 2301,-187.5 2173,-187.5"/>
<text text-anchor="middle" x="2237" y="-195.5" font-family="Helvetica,sans-Serif" font-size="10.00">QtWidgets/QDockWidget</text>
</g>
<!-- Node1&#45;&gt;Node36 -->
<g id="edge76" class="edge"><title>Node1&#45;&gt;Node36</title>
<path fill="none" stroke="midnightblue" d="M1936.05,-262.572C1992.92,-255.116 2085.6,-241.326 2164,-222 2175.31,-219.213 2187.39,-215.537 2198.4,-211.901"/>
<polygon fill="midnightblue" stroke="midnightblue" points="2199.81,-215.119 2208.17,-208.601 2197.57,-208.488 2199.81,-215.119"/>
</g>
<!-- Node37 -->
<g id="node76" class="node"><title>Node37</title>
<polygon fill="white" stroke="#bfbfbf" points="2318.5,-187.5 2318.5,-208.5 2439.5,-208.5 2439.5,-187.5 2318.5,-187.5"/>
<text text-anchor="middle" x="2379" y="-195.5" font-family="Helvetica,sans-Serif" font-size="10.00">QtWidgets/QGridLayout</text>
</g>
<!-- Node1&#45;&gt;Node37 -->
<g id="edge78" class="edge"><title>Node1&#45;&gt;Node37</title>
<path fill="none" stroke="midnightblue" d="M1936.22,-266.987C2017.64,-263.047 2177.6,-251.91 2310,-222 2321.18,-219.475 2333.06,-215.743 2343.76,-211.971"/>
<polygon fill="midnightblue" stroke="midnightblue" points="2345,-215.244 2353.19,-208.528 2342.6,-208.667 2345,-215.244"/>
</g>
<!-- Node38 -->
<g id="node78" class="node"><title>Node38</title>
<polygon fill="white" stroke="#bfbfbf" points="2457,-187.5 2457,-208.5 2585,-208.5 2585,-187.5 2457,-187.5"/>
<text text-anchor="middle" x="2521" y="-195.5" font-family="Helvetica,sans-Serif" font-size="10.00">QtWidgets/QHBoxLayout</text>
</g>
<!-- Node1&#45;&gt;Node38 -->
<g id="edge80" class="edge"><title>Node1&#45;&gt;Node38</title>
<path fill="none" stroke="midnightblue" d="M1936.16,-266.175C2057.31,-259.476 2350.94,-241.708 2448,-222 2460.03,-219.557 2472.85,-215.768 2484.33,-211.917"/>
<polygon fill="midnightblue" stroke="midnightblue" points="2485.73,-215.138 2494.02,-208.549 2483.43,-208.526 2485.73,-215.138"/>
</g>
<!-- Node39 -->
<g id="node80" class="node"><title>Node39</title>
<polygon fill="white" stroke="#bfbfbf" points="2602.5,-187.5 2602.5,-208.5 2729.5,-208.5 2729.5,-187.5 2602.5,-187.5"/>
<text text-anchor="middle" x="2666" y="-195.5" font-family="Helvetica,sans-Serif" font-size="10.00">QtWidgets/QHeaderView</text>
</g>
<!-- Node1&#45;&gt;Node39 -->
<g id="edge82" class="edge"><title>Node1&#45;&gt;Node39</title>
<path fill="none" stroke="midnightblue" d="M1936.07,-267.25C2078.69,-262.267 2467.98,-246.743 2594,-222 2606,-219.644 2618.76,-215.842 2630.16,-211.951"/>
<polygon fill="midnightblue" stroke="midnightblue" points="2631.51,-215.185 2639.77,-208.544 2629.17,-208.588 2631.51,-215.185"/>
</g>
<!-- Node40 -->
<g id="node82" class="node"><title>Node40</title>
<polygon fill="white" stroke="#bfbfbf" points="2746.5,-187.5 2746.5,-208.5 2843.5,-208.5 2843.5,-187.5 2746.5,-187.5"/>
<text text-anchor="middle" x="2795" y="-195.5" font-family="Helvetica,sans-Serif" font-size="10.00">QtWidgets/QLabel</text>
</g>
<!-- Node1&#45;&gt;Node40 -->
<g id="edge84" class="edge"><title>Node1&#45;&gt;Node40</title>
<path fill="none" stroke="midnightblue" d="M1936.2,-268.455C2098.29,-266.419 2584.36,-257.442 2738,-222 2747.2,-219.878 2756.8,-216.383 2765.45,-212.709"/>
<polygon fill="midnightblue" stroke="midnightblue" points="2767.03,-215.832 2774.73,-208.547 2764.17,-209.445 2767.03,-215.832"/>
</g>
<!-- Node41 -->
<g id="node84" class="node"><title>Node41</title>
<polygon fill="white" stroke="#bfbfbf" points="2861,-187.5 2861,-208.5 2991,-208.5 2991,-187.5 2861,-187.5"/>
<text text-anchor="middle" x="2926" y="-195.5" font-family="Helvetica,sans-Serif" font-size="10.00">QtWidgets/QMainWindow</text>
</g>
<!-- Node1&#45;&gt;Node41 -->
<g id="edge86" class="edge"><title>Node1&#45;&gt;Node41</title>
<path fill="none" stroke="midnightblue" d="M1936.21,-268.273C2112.13,-265.58 2674,-254.582 2852,-222 2864.56,-219.701 2877.93,-215.828 2889.81,-211.856"/>
<polygon fill="midnightblue" stroke="midnightblue" points="2891.08,-215.118 2899.38,-208.529 2888.78,-208.506 2891.08,-215.118"/>
</g>
<!-- Node42 -->
<g id="node86" class="node"><title>Node42</title>
<polygon fill="white" stroke="#bfbfbf" points="3009,-187.5 3009,-208.5 3107,-208.5 3107,-187.5 3009,-187.5"/>
<text text-anchor="middle" x="3058" y="-195.5" font-family="Helvetica,sans-Serif" font-size="10.00">QtWidgets/QMenu</text>
</g>
<!-- Node1&#45;&gt;Node42 -->
<g id="edge88" class="edge"><title>Node1&#45;&gt;Node42</title>
<path fill="none" stroke="midnightblue" d="M1936.16,-267.854C2144.04,-263.222 2895.64,-245.03 3000,-222 3009.46,-219.913 3019.34,-216.384 3028.21,-212.664"/>
<polygon fill="midnightblue" stroke="midnightblue" points="3029.64,-215.858 3037.37,-208.613 3026.8,-209.457 3029.64,-215.858"/>
</g>
<!-- Node43 -->
<g id="node88" class="node"><title>Node43</title>
<polygon fill="white" stroke="#bfbfbf" points="3124.5,-187.5 3124.5,-208.5 3237.5,-208.5 3237.5,-187.5 3124.5,-187.5"/>
<text text-anchor="middle" x="3181" y="-195.5" font-family="Helvetica,sans-Serif" font-size="10.00">QtWidgets/QMenuBar</text>
</g>
<!-- Node1&#45;&gt;Node43 -->
<g id="edge90" class="edge"><title>Node1&#45;&gt;Node43</title>
<path fill="none" stroke="midnightblue" d="M1936.3,-267.958C2157.79,-263.492 2999.38,-245.142 3116,-222 3126.82,-219.853 3138.23,-216.165 3148.41,-212.315"/>
<polygon fill="midnightblue" stroke="midnightblue" points="3149.74,-215.555 3157.75,-208.62 3147.16,-209.047 3149.74,-215.555"/>
</g>
<!-- Node44 -->
<g id="node90" class="node"><title>Node44</title>
<polygon fill="white" stroke="#bfbfbf" points="3254.5,-187.5 3254.5,-208.5 3371.5,-208.5 3371.5,-187.5 3254.5,-187.5"/>
<text text-anchor="middle" x="3313" y="-195.5" font-family="Helvetica,sans-Serif" font-size="10.00">QtWidgets/QStatusBar</text>
</g>
<!-- Node1&#45;&gt;Node44 -->
<g id="edge92" class="edge"><title>Node1&#45;&gt;Node44</title>
<path fill="none" stroke="midnightblue" d="M1936.25,-268.136C2172.01,-264.181 3115.92,-246.912 3246,-222 3257.34,-219.829 3269.32,-216.047 3279.97,-212.119"/>
<polygon fill="midnightblue" stroke="midnightblue" points="3281.25,-215.378 3289.32,-208.513 3278.73,-208.847 3281.25,-215.378"/>
</g>
<!-- Node45 -->
<g id="node92" class="node"><title>Node45</title>
<polygon fill="white" stroke="#bfbfbf" points="3388.5,-187.5 3388.5,-208.5 3495.5,-208.5 3495.5,-187.5 3388.5,-187.5"/>
<text text-anchor="middle" x="3442" y="-195.5" font-family="Helvetica,sans-Serif" font-size="10.00">QtWidgets/QToolBar</text>
</g>
<!-- Node1&#45;&gt;Node45 -->
<g id="edge94" class="edge"><title>Node1&#45;&gt;Node45</title>
<path fill="none" stroke="midnightblue" d="M1936.4,-268.39C2186.56,-265.388 3236.5,-251.142 3380,-222 3390.35,-219.898 3401.22,-216.233 3410.92,-212.39"/>
<polygon fill="midnightblue" stroke="midnightblue" points="3412.28,-215.616 3420.16,-208.54 3409.59,-209.154 3412.28,-215.616"/>
</g>
<!-- Node46 -->
<g id="node94" class="node"><title>Node46</title>
<polygon fill="white" stroke="#bfbfbf" points="3513,-187.5 3513,-208.5 3637,-208.5 3637,-187.5 3513,-187.5"/>
<text text-anchor="middle" x="3575" y="-195.5" font-family="Helvetica,sans-Serif" font-size="10.00">QtWidgets/QTreeWidget</text>
</g>
<!-- Node1&#45;&gt;Node46 -->
<g id="edge96" class="edge"><title>Node1&#45;&gt;Node46</title>
<path fill="none" stroke="midnightblue" d="M1936.36,-268.393C2198.9,-265.279 3347.08,-250.146 3504,-222 3516.08,-219.832 3528.91,-216.002 3540.28,-212.029"/>
<polygon fill="midnightblue" stroke="midnightblue" points="3541.65,-215.254 3549.85,-208.54 3539.25,-208.678 3541.65,-215.254"/>
</g>
<!-- Node47 -->
<g id="node96" class="node"><title>Node47</title>
<polygon fill="white" stroke="#bfbfbf" points="3655,-187.5 3655,-208.5 3759,-208.5 3759,-187.5 3655,-187.5"/>
<text text-anchor="middle" x="3707" y="-195.5" font-family="Helvetica,sans-Serif" font-size="10.00">QtWidgets/QWidget</text>
</g>
<!-- Node1&#45;&gt;Node47 -->
<g id="edge98" class="edge"><title>Node1&#45;&gt;Node47</title>
<path fill="none" stroke="midnightblue" d="M1936.43,-268.679C2212.93,-266.871 3475.17,-256.762 3646,-222 3656.1,-219.945 3666.68,-216.342 3676.15,-212.542"/>
<polygon fill="midnightblue" stroke="midnightblue" points="3677.69,-215.688 3685.54,-208.568 3674.97,-209.242 3677.69,-215.688"/>
</g>
<!-- Node48 -->
<g id="node98" class="node"><title>Node48</title>
<polygon fill="white" stroke="#bfbfbf" points="3777,-174.5 3777,-221.5 3901,-221.5 3901,-174.5 3777,-174.5"/>
<text text-anchor="start" x="3785" y="-208.5" font-family="Helvetica,sans-Serif" font-size="10.00">/home/travis/build</text>
<text text-anchor="start" x="3785" y="-195.5" font-family="Helvetica,sans-Serif" font-size="10.00">/sup3asc2/sickle/include</text>
<text text-anchor="middle" x="3839" y="-182.5" font-family="Helvetica,sans-Serif" font-size="10.00">/viewport.hpp</text>
</g>
<!-- Node1&#45;&gt;Node48 -->
<g id="edge100" class="edge"><title>Node1&#45;&gt;Node48</title>
<path fill="none" stroke="midnightblue" d="M1936.26,-268.627C2219.21,-266.517 3541.43,-255.044 3767.03,-221.757"/>
<polygon fill="midnightblue" stroke="midnightblue" points="3767.63,-225.207 3776.94,-220.155 3766.51,-218.297 3767.63,-225.207"/>
</g>
<!-- Node3 -->
<g id="node5" class="node"><title>Node3</title>
<polygon fill="white" stroke="#bfbfbf" points="278,-116.5 278,-137.5 358,-137.5 358,-116.5 278,-116.5"/>
<text text-anchor="middle" x="318" y="-124.5" font-family="Helvetica,sans-Serif" font-size="10.00">QMainWindow</text>
</g>
<!-- Node2&#45;&gt;Node3 -->
<g id="edge4" class="edge"><title>Node2&#45;&gt;Node3</title>
<path fill="none" stroke="midnightblue" d="M447.244,-187.371C421.499,-175.345 379.373,-155.668 350.248,-142.063"/>
<polygon fill="midnightblue" stroke="midnightblue" points="351.453,-138.763 340.911,-137.702 348.491,-145.105 351.453,-138.763"/>
</g>
<!-- Node4 -->
<g id="node7" class="node"><title>Node4</title>
<polygon fill="white" stroke="#bfbfbf" points="376,-116.5 376,-137.5 470,-137.5 470,-116.5 376,-116.5"/>
<text text-anchor="middle" x="423" y="-124.5" font-family="Helvetica,sans-Serif" font-size="10.00">QTreeWidgetItem</text>
</g>
<!-- Node2&#45;&gt;Node4 -->
<g id="edge6" class="edge"><title>Node2&#45;&gt;Node4</title>
<path fill="none" stroke="midnightblue" d="M462.862,-187.217C455.684,-176.374 444.464,-159.424 435.754,-146.267"/>
<polygon fill="midnightblue" stroke="midnightblue" points="438.644,-144.291 430.205,-137.885 432.807,-148.155 438.644,-144.291"/>
</g>
<!-- Node5 -->
<g id="node9" class="node"><title>Node5</title>
<polygon fill="white" stroke="#bfbfbf" points="487.5,-116.5 487.5,-137.5 546.5,-137.5 546.5,-116.5 487.5,-116.5"/>
<text text-anchor="middle" x="517" y="-124.5" font-family="Helvetica,sans-Serif" font-size="10.00">functional</text>
</g>
<!-- Node2&#45;&gt;Node5 -->
<g id="edge8" class="edge"><title>Node2&#45;&gt;Node5</title>
<path fill="none" stroke="midnightblue" d="M477.138,-187.217C484.316,-176.374 495.536,-159.424 504.246,-146.267"/>
<polygon fill="midnightblue" stroke="midnightblue" points="507.193,-148.155 509.795,-137.885 501.356,-144.291 507.193,-148.155"/>
</g>
<!-- Node7 -->
<g id="node13" class="node"><title>Node7</title>
<a xlink:href="geometry_8hpp.html" target="_top" xlink:title="geometry.hpp">
<polygon fill="white" stroke="black" points="564,-116.5 564,-137.5 640,-137.5 640,-116.5 564,-116.5"/>
<text text-anchor="middle" x="602" y="-124.5" font-family="Helvetica,sans-Serif" font-size="10.00">geometry.hpp</text>
</a>
</g>
<!-- Node6&#45;&gt;Node7 -->
<g id="edge12" class="edge"><title>Node6&#45;&gt;Node7</title>
<path fill="none" stroke="midnightblue" d="M732.094,-187.371C706.18,-175.345 663.777,-155.668 634.46,-142.063"/>
<polygon fill="midnightblue" stroke="midnightblue" points="635.606,-138.737 625.062,-137.702 632.66,-145.086 635.606,-138.737"/>
</g>
<!-- Node17 -->
<g id="node35" class="node"><title>Node17</title>
<polygon fill="white" stroke="#bfbfbf" points="696.5,-0.5 696.5,-21.5 779.5,-21.5 779.5,-0.5 696.5,-0.5"/>
<text text-anchor="middle" x="738" y="-8.5" font-family="Helvetica,sans-Serif" font-size="10.00">QMetaProperty</text>
</g>
<!-- Node6&#45;&gt;Node17 -->
<g id="edge42" class="edge"><title>Node6&#45;&gt;Node17</title>
<path fill="none" stroke="midnightblue" d="M769.377,-187.277C799.353,-163.58 863.395,-105.12 834,-58 823.89,-41.793 806.388,-31.0205 789.075,-23.9325"/>
<polygon fill="midnightblue" stroke="midnightblue" points="790.116,-20.5852 779.523,-20.3627 787.665,-27.1422 790.116,-20.5852"/>
</g>
<!-- Node20 -->
<g id="node42" class="node"><title>Node20</title>
<polygon fill="white" stroke="#bfbfbf" points="902.5,-116.5 902.5,-137.5 949.5,-137.5 949.5,-116.5 902.5,-116.5"/>
<text text-anchor="middle" x="926" y="-124.5" font-family="Helvetica,sans-Serif" font-size="10.00">QColor</text>
</g>
<!-- Node6&#45;&gt;Node20 -->
<g id="edge44" class="edge"><title>Node6&#45;&gt;Node20</title>
<path fill="none" stroke="midnightblue" d="M771.384,-187.483C778.742,-183.004 787.635,-177.92 796,-174 827.987,-159.009 866.169,-145.719 892.846,-137.13"/>
<polygon fill="midnightblue" stroke="midnightblue" points="893.999,-140.436 902.471,-134.074 891.88,-133.764 893.999,-140.436"/>
</g>
<!-- Node8 -->
<g id="node15" class="node"><title>Node8</title>
<polygon fill="white" stroke="#bfbfbf" points="674.5,-58.5 674.5,-79.5 727.5,-79.5 727.5,-58.5 674.5,-58.5"/>
<text text-anchor="middle" x="701" y="-66.5" font-family="Helvetica,sans-Serif" font-size="10.00">QObject</text>
</g>
<!-- Node7&#45;&gt;Node8 -->
<g id="edge14" class="edge"><title>Node7&#45;&gt;Node8</title>
<path fill="none" stroke="midnightblue" d="M620.158,-116.362C635.23,-107.532 656.887,-94.844 673.993,-84.8224"/>
<polygon fill="midnightblue" stroke="midnightblue" points="676.098,-87.6456 682.957,-79.5707 672.559,-81.6058 676.098,-87.6456"/>
</g>
<!-- Node9 -->
<g id="node17" class="node"><title>Node9</title>
<polygon fill="white" stroke="#bfbfbf" points="744.5,-58.5 744.5,-79.5 809.5,-79.5 809.5,-58.5 744.5,-58.5"/>
<text text-anchor="middle" x="777" y="-66.5" font-family="Helvetica,sans-Serif" font-size="10.00">QVector3D</text>
</g>
<!-- Node7&#45;&gt;Node9 -->
<g id="edge16" class="edge"><title>Node7&#45;&gt;Node9</title>
<path fill="none" stroke="midnightblue" d="M633.691,-116.497C662.221,-107.041 704.336,-93.0829 735.535,-82.7428"/>
<polygon fill="midnightblue" stroke="midnightblue" points="736.858,-85.9914 745.249,-79.5231 734.656,-79.3468 736.858,-85.9914"/>
</g>
<!-- Node10 -->
<g id="node19" class="node"><title>Node10</title>
<polygon fill="white" stroke="#bfbfbf" points="440.5,-0.5 440.5,-21.5 543.5,-21.5 543.5,-0.5 440.5,-0.5"/>
<text text-anchor="middle" x="492" y="-8.5" font-family="Helvetica,sans-Serif" font-size="10.00">QOpenGLFunctions</text>
</g>
<!-- Node7&#45;&gt;Node10 -->
<g id="edge18" class="edge"><title>Node7&#45;&gt;Node10</title>
<path fill="none" stroke="midnightblue" d="M640.218,-124.305C696.158,-119.477 796.087,-107.193 818,-80 824.135,-72.3865 824.402,-65.3908 818,-58 800.967,-38.3351 643.405,-22.8774 553.721,-15.583"/>
<polygon fill="midnightblue" stroke="midnightblue" points="553.914,-12.0873 543.666,-14.7762 553.354,-19.0649 553.914,-12.0873"/>
</g>
<!-- Node11 -->
<g id="node21" class="node"><title>Node11</title>
<polygon fill="white" stroke="#bfbfbf" points="135,-58.5 135,-79.5 263,-79.5 263,-58.5 135,-58.5"/>
<text text-anchor="middle" x="199" y="-66.5" font-family="Helvetica,sans-Serif" font-size="10.00">QOpenGLShaderProgram</text>
</g>
<!-- Node7&#45;&gt;Node11 -->
<g id="edge20" class="edge"><title>Node7&#45;&gt;Node11</title>
<path fill="none" stroke="midnightblue" d="M563.849,-117.723C560.862,-117.103 557.887,-116.52 555,-116 433.385,-94.0938 399.302,-97.265 273.134,-80.1234"/>
<polygon fill="midnightblue" stroke="midnightblue" points="273.466,-76.6362 263.082,-78.7415 272.512,-83.571 273.466,-76.6362"/>
</g>
<!-- Node12 -->
<g id="node23" class="node"><title>Node12</title>
<polygon fill="white" stroke="#bfbfbf" points="281,-58.5 281,-79.5 367,-79.5 367,-58.5 281,-58.5"/>
<text text-anchor="middle" x="324" y="-66.5" font-family="Helvetica,sans-Serif" font-size="10.00">QOpenGLBuffer</text>
</g>
<!-- Node7&#45;&gt;Node12 -->
<g id="edge22" class="edge"><title>Node7&#45;&gt;Node12</title>
<path fill="none" stroke="midnightblue" d="M563.803,-117.954C560.827,-117.282 557.866,-116.623 555,-116 478.803,-99.4254 457.145,-96.604 377.173,-80.2236"/>
<polygon fill="midnightblue" stroke="midnightblue" points="377.623,-76.7431 367.123,-78.1569 376.213,-83.5996 377.623,-76.7431"/>
</g>
<!-- Node13 -->
<g id="node25" class="node"><title>Node13</title>
<polygon fill="white" stroke="#bfbfbf" points="385,-58.5 385,-79.5 525,-79.5 525,-58.5 385,-58.5"/>
<text text-anchor="middle" x="455" y="-66.5" font-family="Helvetica,sans-Serif" font-size="10.00">QOpenGLVertexArrayObject</text>
</g>
<!-- Node7&#45;&gt;Node13 -->
<g id="edge24" class="edge"><title>Node7&#45;&gt;Node13</title>
<path fill="none" stroke="midnightblue" d="M575.379,-116.497C551.903,-107.234 517.475,-93.6499 491.444,-83.3793"/>
<polygon fill="midnightblue" stroke="midnightblue" points="492.506,-80.0358 481.919,-79.6212 489.937,-86.5473 492.506,-80.0358"/>
</g>
<!-- Node14 -->
<g id="node27" class="node"><title>Node14</title>
<a xlink:href="globals_8hpp.html" target="_top" xlink:title="Definitions globales. ">
<polygon fill="white" stroke="black" points="0,-0.5 0,-21.5 66,-21.5 66,-0.5 0,-0.5"/>
<text text-anchor="middle" x="33" y="-8.5" font-family="Helvetica,sans-Serif" font-size="10.00">globals.hpp</text>
</a>
</g>
<!-- Node7&#45;&gt;Node14 -->
<g id="edge26" class="edge"><title>Node7&#45;&gt;Node14</title>
<path fill="none" stroke="midnightblue" d="M563.879,-117.545C560.885,-116.966 557.9,-116.44 555,-116 499.603,-107.589 95.3293,-115.527 52,-80 38.0057,-68.5258 33.7851,-47.7731 32.7467,-32.0138"/>
<polygon fill="midnightblue" stroke="midnightblue" points="36.2346,-31.5244 32.4588,-21.6252 29.2373,-31.7184 36.2346,-31.5244"/>
</g>
<!-- Node15 -->
<g id="node29" class="node"><title>Node15</title>
<a xlink:href="actor_8hpp.html" target="_top" xlink:title="actor.hpp">
<polygon fill="white" stroke="black" points="60.5,-58.5 60.5,-79.5 117.5,-79.5 117.5,-58.5 60.5,-58.5"/>
<text text-anchor="middle" x="89" y="-66.5" font-family="Helvetica,sans-Serif" font-size="10.00">actor.hpp</text>
</a>
</g>
<!-- Node7&#45;&gt;Node15 -->
<g id="edge28" class="edge"><title>Node7&#45;&gt;Node15</title>
<path fill="none" stroke="midnightblue" d="M563.873,-117.585C560.881,-116.996 557.897,-116.458 555,-116 369.241,-86.6295 315.841,-114.464 127.489,-79.972"/>
<polygon fill="midnightblue" stroke="midnightblue" points="128.013,-76.5094 117.541,-78.1157 126.729,-83.3907 128.013,-76.5094"/>
</g>
<!-- Node18 -->
<g id="node37" class="node"><title>Node18</title>
<polygon fill="white" stroke="#bfbfbf" points="543,-58.5 543,-79.5 595,-79.5 595,-58.5 543,-58.5"/>
<text text-anchor="middle" x="569" y="-66.5" font-family="Helvetica,sans-Serif" font-size="10.00">memory</text>
</g>
<!-- Node7&#45;&gt;Node18 -->
<g id="edge38" class="edge"><title>Node7&#45;&gt;Node18</title>
<path fill="none" stroke="midnightblue" d="M595.947,-116.362C591.528,-108.595 585.41,-97.8426 580.121,-88.5458"/>
<polygon fill="midnightblue" stroke="midnightblue" points="583.002,-86.5315 575.014,-79.5707 576.918,-89.9932 583.002,-86.5315"/>
</g>
<!-- Node19 -->
<g id="node39" class="node"><title>Node19</title>
<polygon fill="white" stroke="#bfbfbf" points="613,-58.5 613,-79.5 657,-79.5 657,-58.5 613,-58.5"/>
<text text-anchor="middle" x="635" y="-66.5" font-family="Helvetica,sans-Serif" font-size="10.00">vector</text>
</g>
<!-- Node7&#45;&gt;Node19 -->
<g id="edge40" class="edge"><title>Node7&#45;&gt;Node19</title>
<path fill="none" stroke="midnightblue" d="M608.053,-116.362C612.472,-108.595 618.59,-97.8426 623.879,-88.5458"/>
<polygon fill="midnightblue" stroke="midnightblue" points="627.082,-89.9932 628.986,-79.5707 620.998,-86.5315 627.082,-89.9932"/>
</g>
<!-- Node15&#45;&gt;Node10 -->
<g id="edge34" class="edge"><title>Node15&#45;&gt;Node10</title>
<path fill="none" stroke="midnightblue" d="M117.566,-60.0116C120.4,-59.2694 123.246,-58.5822 126,-58 231.807,-35.631 357.219,-22.326 430.373,-15.8578"/>
<polygon fill="midnightblue" stroke="midnightblue" points="430.683,-19.3442 440.341,-14.9902 430.076,-12.3706 430.683,-19.3442"/>
</g>
<!-- Node15&#45;&gt;Node14 -->
<g id="edge30" class="edge"><title>Node15&#45;&gt;Node14</title>
<path fill="none" stroke="midnightblue" d="M78.7287,-58.3619C70.7559,-50.1043 59.5252,-38.4725 50.189,-28.8029"/>
<polygon fill="midnightblue" stroke="midnightblue" points="52.67,-26.3336 43.2061,-21.5707 47.6342,-31.1958 52.67,-26.3336"/>
</g>
<!-- Node16 -->
<g id="node32" class="node"><title>Node16</title>
<polygon fill="white" stroke="#bfbfbf" points="83.5,-0.5 83.5,-21.5 150.5,-21.5 150.5,-0.5 83.5,-0.5"/>
<text text-anchor="middle" x="117" y="-8.5" font-family="Helvetica,sans-Serif" font-size="10.00">QMatrix4x4</text>
</g>
<!-- Node15&#45;&gt;Node16 -->
<g id="edge32" class="edge"><title>Node15&#45;&gt;Node16</title>
<path fill="none" stroke="midnightblue" d="M94.1356,-58.3619C97.8458,-50.6766 102.967,-40.0686 107.422,-30.8399"/>
<polygon fill="midnightblue" stroke="midnightblue" points="110.701,-32.0978 111.897,-21.5707 104.397,-29.0545 110.701,-32.0978"/>
</g>
<!-- Node15&#45;&gt;Node17 -->
<g id="edge36" class="edge"><title>Node15&#45;&gt;Node17</title>
<path fill="none" stroke="midnightblue" d="M117.537,-59.8638C120.377,-59.1516 123.232,-58.5117 126,-58 180.319,-47.9578 548.133,-23.3499 685.975,-14.3593"/>
<polygon fill="midnightblue" stroke="midnightblue" points="686.519,-17.8314 696.271,-13.6889 686.064,-10.8461 686.519,-17.8314"/>
</g>
</g>
</svg>
        <g id="navigator" transform="translate(0 0)" fill="#404254">
                <rect fill="#f2f5e9" fill-opacity="0.5" stroke="#606060" stroke-width=".5" x="0" y="0" width="60" height="60"/>
                <use id="zoomplus" xlink:href="#zoomPlus" x="17" y="9" onmousedown="handleZoom(evt,'in')"/>
                <use id="zoomminus" xlink:href="#zoomMin" x="42" y="9" onmousedown="handleZoom(evt,'out')"/>
                <use id="reset" xlink:href="#resetDef" x="30" y="36" onmousedown="handleReset()"/>
                <g id="arrowUp" xlink:href="#dirArrow" transform="translate(30 24)" onmousedown="handlePan(0,-1)">
                  <use xlink:href="#rim" fill="#404040">
                        <set attributeName="fill" to="#808080" begin="arrowUp.mouseover" end="arrowUp.mouseout"/>
                  </use>
                  <path fill="none" stroke="white" stroke-width="1.5" d="M0,-3.0v7 M-2.5,-0.5L0,-3.0L2.5,-0.5"/>
                </g>
                <g id="arrowRight" xlink:href="#dirArrow" transform="rotate(90) translate(36 -43)" onmousedown="handlePan(1,0)">
                  <use xlink:href="#rim" fill="#404040">
                        <set attributeName="fill" to="#808080" begin="arrowRight.mouseover" end="arrowRight.mouseout"/>
                  </use>
                  <path fill="none" stroke="white" stroke-width="1.5" d="M0,-3.0v7 M-2.5,-0.5L0,-3.0L2.5,-0.5"/>
                </g>
                <g id="arrowDown" xlink:href="#dirArrow" transform="rotate(180) translate(-30 -48)" onmousedown="handlePan(0,1)">
                  <use xlink:href="#rim" fill="#404040">
                        <set attributeName="fill" to="#808080" begin="arrowDown.mouseover" end="arrowDown.mouseout"/>
                  </use>
                  <path fill="none" stroke="white" stroke-width="1.5" d="M0,-3.0v7 M-2.5,-0.5L0,-3.0L2.5,-0.5"/>
                </g>
                <g id="arrowLeft" xlink:href="#dirArrow" transform="rotate(270) translate(-36 17)" onmousedown="handlePan(-1,0)">
                  <use xlink:href="#rim" fill="#404040">
                        <set attributeName="fill" to="#808080" begin="arrowLeft.mouseover" end="arrowLeft.mouseout"/>
                  </use>
                  <path fill="none" stroke="white" stroke-width="1.5" d="M0,-3.0v7 M-2.5,-0.5L0,-3.0L2.5,-0.5"/>
                </g>
        </g>
        <svg viewBox="0 0 15 15" width="100%" height="30px" preserveAspectRatio="xMaxYMin meet">
         <g id="arrow_out" transform="scale(0.3 0.3)">
          <a xlink:href="mainwindow_8cpp__incl_org.svg" target="_base">
           <rect id="button" ry="5" rx="5" y="6" x="6" height="38" width="38"
                fill="#f2f5e9" fill-opacity="0.5" stroke="#606060" stroke-width="1.0"/>
           <path id="arrow"
             d="M 11.500037,31.436501 C 11.940474,20.09759 22.043105,11.32322 32.158766,21.979434 L 37.068811,17.246167 C 37.068811,17.246167 37.088388,32 37.088388,32 L 22.160133,31.978069 C 22.160133,31.978069 26.997745,27.140456 26.997745,27.140456 C 18.528582,18.264221 13.291696,25.230495 11.500037,31.436501 z"
             style="fill:#404040;"/>
          </a>
         </g>
        </svg>
</svg>
