<?xml version="1.0" encoding="UTF-8" standalone="no"?>
<!DOCTYPE svg PUBLIC "-//W3C//DTD SVG 1.1//EN"
 "http://www.w3.org/Graphics/SVG/1.1/DTD/svg11.dtd">
<!-- Generated by graphviz version 2.26.3 (20100126.1600)
 -->
<!-- Title: src/main.cpp Pages: 1 -->
<svg width="956pt" height="204pt"
 viewBox="0.00 0.00 956.00 204.00" xmlns="http://www.w3.org/2000/svg" xmlns:xlink="http://www.w3.org/1999/xlink">
<g id="graph1" class="graph" transform="scale(1 1) rotate(0) translate(4 200)">
<title>src/main.cpp</title>
<polygon fill="white" stroke="white" points="-4,5 -4,-200 953,-200 953,5 -4,5"/>
<!-- Node1 -->
<g id="node1" class="node"><title>Node1</title>
<polygon fill="#bfbfbf" stroke="black" points="683.5,-174.5 683.5,-195.5 756.5,-195.5 756.5,-174.5 683.5,-174.5"/>
<text text-anchor="middle" x="720" y="-182.5" font-family="Helvetica,sans-Serif" font-size="10.00">src/main.cpp</text>
</g>
<!-- Node2 -->
<g id="node3" class="node"><title>Node2</title>
<a xlink:href="mainwindow_8hpp.html" target="_top" xlink:title="mainwindow.hpp">
<polygon fill="white" stroke="black" points="371.5,-116.5 371.5,-137.5 460.5,-137.5 460.5,-116.5 371.5,-116.5"/>
<text text-anchor="middle" x="416" y="-124.5" font-family="Helvetica,sans-Serif" font-size="10.00">mainwindow.hpp</text>
</a>
</g>
<!-- Node1&#45;&gt;Node2 -->
<g id="edge2" class="edge"><title>Node1&#45;&gt;Node2</title>
<path fill="none" stroke="midnightblue" d="M683.33,-178.004C630.375,-167.901 532.113,-149.153 470.607,-137.418"/>
<polygon fill="midnightblue" stroke="midnightblue" points="471.169,-133.963 460.69,-135.526 469.857,-140.839 471.169,-133.963"/>
</g>
<!-- Node5 -->
<g id="node9" class="node"><title>Node5</title>
<polygon fill="white" stroke="#bfbfbf" points="398,-0.5 398,-21.5 438,-21.5 438,-0.5 398,-0.5"/>
<text text-anchor="middle" x="418" y="-8.5" font-family="Helvetica,sans-Serif" font-size="10.00">QFile</text>
</g>
<!-- Node1&#45;&gt;Node5 -->
<g id="edge30" class="edge"><title>Node1&#45;&gt;Node5</title>
<path fill="none" stroke="midnightblue" d="M707.797,-174.313C698.047,-165.323 684.489,-151.765 675,-138 652.659,-105.592 667.869,-82.4245 637,-58 608.042,-35.0876 501.522,-20.304 448.457,-14.1984"/>
<polygon fill="midnightblue" stroke="midnightblue" points="448.621,-10.695 438.294,-13.0602 447.842,-17.6515 448.621,-10.695"/>
</g>
<!-- Node13 -->
<g id="node25" class="node"><title>Node13</title>
<polygon fill="white" stroke="#bfbfbf" points="684,-116.5 684,-137.5 756,-137.5 756,-116.5 684,-116.5"/>
<text text-anchor="middle" x="720" y="-124.5" font-family="Helvetica,sans-Serif" font-size="10.00">QApplication</text>
</g>
<!-- Node1&#45;&gt;Node13 -->
<g id="edge24" class="edge"><title>Node1&#45;&gt;Node13</title>
<path fill="none" stroke="midnightblue" d="M720,-174.362C720,-166.922 720,-156.743 720,-147.728"/>
<polygon fill="midnightblue" stroke="midnightblue" points="723.5,-147.571 720,-137.571 716.5,-147.571 723.5,-147.571"/>
</g>
<!-- Node14 -->
<g id="node27" class="node"><title>Node14</title>
<polygon fill="white" stroke="#bfbfbf" points="773.5,-116.5 773.5,-137.5 862.5,-137.5 862.5,-116.5 773.5,-116.5"/>
<text text-anchor="middle" x="818" y="-124.5" font-family="Helvetica,sans-Serif" font-size="10.00">QSurfaceFormat</text>
</g>
<!-- Node1&#45;&gt;Node14 -->
<g id="edge26" class="edge"><title>Node1&#45;&gt;Node14</title>
<path fill="none" stroke="midnightblue" d="M737.975,-174.362C752.894,-165.532 774.333,-152.844 791.266,-142.822"/>
<polygon fill="midnightblue" stroke="midnightblue" points="793.316,-145.676 800.139,-137.571 789.751,-139.652 793.316,-145.676"/>
</g>
<!-- Node15 -->
<g id="node29" class="node"><title>Node15</title>
<polygon fill="white" stroke="#bfbfbf" points="880,-116.5 880,-137.5 948,-137.5 948,-116.5 880,-116.5"/>
<text text-anchor="middle" x="914" y="-124.5" font-family="Helvetica,sans-Serif" font-size="10.00">QTranslator</text>
</g>
<!-- Node1&#45;&gt;Node15 -->
<g id="edge28" class="edge"><title>Node1&#45;&gt;Node15</title>
<path fill="none" stroke="midnightblue" d="M755.132,-174.497C787.331,-164.87 835.141,-150.577 869.897,-140.185"/>
<polygon fill="midnightblue" stroke="midnightblue" points="871.202,-143.448 879.781,-137.231 869.197,-136.742 871.202,-143.448"/>
</g>
<!-- Node3 -->
<g id="node5" class="node"><title>Node3</title>
<a xlink:href="fileloader_8hpp.html" target="_top" xlink:title="fileloader.hpp">
<polygon fill="white" stroke="black" points="28,-58.5 28,-79.5 102,-79.5 102,-58.5 28,-58.5"/>
<text text-anchor="middle" x="65" y="-66.5" font-family="Helvetica,sans-Serif" font-size="10.00">fileloader.hpp</text>
</a>
</g>
<!-- Node2&#45;&gt;Node3 -->
<g id="edge4" class="edge"><title>Node2&#45;&gt;Node3</title>
<path fill="none" stroke="midnightblue" d="M371.351,-121.285C313.727,-113.652 210.17,-99.0677 112.175,-80.1152"/>
<polygon fill="midnightblue" stroke="midnightblue" points="112.586,-76.6294 102.1,-78.1472 111.244,-83.4995 112.586,-76.6294"/>
</g>
<!-- Node7 -->
<g id="node13" class="node"><title>Node7</title>
<polygon fill="white" stroke="#bfbfbf" points="120,-58.5 120,-79.5 200,-79.5 200,-58.5 120,-58.5"/>
<text text-anchor="middle" x="160" y="-66.5" font-family="Helvetica,sans-Serif" font-size="10.00">QMainWindow</text>
</g>
<!-- Node2&#45;&gt;Node7 -->
<g id="edge12" class="edge"><title>Node2&#45;&gt;Node7</title>
<path fill="none" stroke="midnightblue" d="M371.408,-116.897C326.432,-106.707 257.121,-91.0039 210.231,-80.3805"/>
<polygon fill="midnightblue" stroke="midnightblue" points="210.817,-76.9245 200.29,-78.1283 209.27,-83.7515 210.817,-76.9245"/>
</g>
<!-- Node8 -->
<g id="node15" class="node"><title>Node8</title>
<polygon fill="white" stroke="#bfbfbf" points="218,-58.5 218,-79.5 312,-79.5 312,-58.5 218,-58.5"/>
<text text-anchor="middle" x="265" y="-66.5" font-family="Helvetica,sans-Serif" font-size="10.00">QTreeWidgetItem</text>
</g>
<!-- Node2&#45;&gt;Node8 -->
<g id="edge14" class="edge"><title>Node2&#45;&gt;Node8</title>
<path fill="none" stroke="midnightblue" d="M388.655,-116.497C364.358,-107.164 328.64,-93.4447 301.832,-83.1475"/>
<polygon fill="midnightblue" stroke="midnightblue" points="302.986,-79.8415 292.396,-79.5231 300.476,-86.376 302.986,-79.8415"/>
</g>
<!-- Node9 -->
<g id="node17" class="node"><title>Node9</title>
<polygon fill="white" stroke="#bfbfbf" points="330,-58.5 330,-79.5 410,-79.5 410,-58.5 330,-58.5"/>
<text text-anchor="middle" x="370" y="-66.5" font-family="Helvetica,sans-Serif" font-size="10.00">QPluginLoader</text>
</g>
<!-- Node2&#45;&gt;Node9 -->
<g id="edge16" class="edge"><title>Node2&#45;&gt;Node9</title>
<path fill="none" stroke="midnightblue" d="M407.563,-116.362C401.208,-108.35 392.334,-97.1605 384.807,-87.6696"/>
<polygon fill="midnightblue" stroke="midnightblue" points="387.34,-85.2308 378.384,-79.5707 381.855,-89.5805 387.34,-85.2308"/>
</g>
<!-- Node10 -->
<g id="node19" class="node"><title>Node10</title>
<polygon fill="white" stroke="#bfbfbf" points="428,-58.5 428,-79.5 496,-79.5 496,-58.5 428,-58.5"/>
<text text-anchor="middle" x="462" y="-66.5" font-family="Helvetica,sans-Serif" font-size="10.00">QJsonArray</text>
</g>
<!-- Node2&#45;&gt;Node10 -->
<g id="edge18" class="edge"><title>Node2&#45;&gt;Node10</title>
<path fill="none" stroke="midnightblue" d="M424.437,-116.362C430.792,-108.35 439.666,-97.1605 447.193,-87.6696"/>
<polygon fill="midnightblue" stroke="midnightblue" points="450.145,-89.5805 453.616,-79.5707 444.66,-85.2308 450.145,-89.5805"/>
</g>
<!-- Node11 -->
<g id="node21" class="node"><title>Node11</title>
<polygon fill="white" stroke="#bfbfbf" points="513.5,-58.5 513.5,-79.5 572.5,-79.5 572.5,-58.5 513.5,-58.5"/>
<text text-anchor="middle" x="543" y="-66.5" font-family="Helvetica,sans-Serif" font-size="10.00">functional</text>
</g>
<!-- Node2&#45;&gt;Node11 -->
<g id="edge20" class="edge"><title>Node2&#45;&gt;Node11</title>
<path fill="none" stroke="midnightblue" d="M438.999,-116.497C459.013,-107.356 488.241,-94.0082 510.619,-83.7883"/>
<polygon fill="midnightblue" stroke="midnightblue" points="512.101,-86.9592 519.743,-79.6212 509.193,-80.5918 512.101,-86.9592"/>
</g>
<!-- Node12 -->
<g id="node23" class="node"><title>Node12</title>
<polygon fill="white" stroke="#bfbfbf" points="590,-58.5 590,-79.5 628,-79.5 628,-58.5 590,-58.5"/>
<text text-anchor="middle" x="609" y="-66.5" font-family="Helvetica,sans-Serif" font-size="10.00">tuple</text>
</g>
<!-- Node2&#45;&gt;Node12 -->
<g id="edge22" class="edge"><title>Node2&#45;&gt;Node12</title>
<path fill="none" stroke="midnightblue" d="M457.023,-116.499C488.451,-108.19 533.033,-95.8356 580.06,-80.1176"/>
<polygon fill="midnightblue" stroke="midnightblue" points="581.458,-83.3396 589.811,-76.8214 579.216,-76.7082 581.458,-83.3396"/>
</g>
<!-- Node4 -->
<g id="node7" class="node"><title>Node4</title>
<polygon fill="white" stroke="#bfbfbf" points="0,-0.5 0,-21.5 50,-21.5 50,-0.5 0,-0.5"/>
<text text-anchor="middle" x="25" y="-8.5" font-family="Helvetica,sans-Serif" font-size="10.00">QString</text>
</g>
<!-- Node3&#45;&gt;Node4 -->
<g id="edge6" class="edge"><title>Node3&#45;&gt;Node4</title>
<path fill="none" stroke="midnightblue" d="M57.6634,-58.3619C52.194,-50.4313 44.5783,-39.3885 38.0763,-29.9606"/>
<polygon fill="midnightblue" stroke="midnightblue" points="40.8487,-27.8157 32.2901,-21.5707 35.0862,-31.7899 40.8487,-27.8157"/>
</g>
<!-- Node3&#45;&gt;Node5 -->
<g id="edge8" class="edge"><title>Node3&#45;&gt;Node5</title>
<path fill="none" stroke="midnightblue" d="M102.099,-59.8497C105.104,-59.1936 108.099,-58.5679 111,-58 211.704,-38.2858 332.345,-21.9082 387.626,-14.8014"/>
<polygon fill="midnightblue" stroke="midnightblue" points="388.308,-18.2428 397.785,-13.5054 387.423,-11.299 388.308,-18.2428"/>
</g>
<!-- Node6 -->
<g id="node11" class="node"><title>Node6</title>
<polygon fill="white" stroke="#bfbfbf" points="68,-0.5 68,-21.5 142,-21.5 142,-0.5 68,-0.5"/>
<text text-anchor="middle" x="105" y="-8.5" font-family="Helvetica,sans-Serif" font-size="10.00">QMetaObject</text>
</g>
<!-- Node3&#45;&gt;Node6 -->
<g id="edge10" class="edge"><title>Node3&#45;&gt;Node6</title>
<path fill="none" stroke="midnightblue" d="M72.3366,-58.3619C77.806,-50.4313 85.4217,-39.3885 91.9237,-29.9606"/>
<polygon fill="midnightblue" stroke="midnightblue" points="94.9138,-31.7899 97.7099,-21.5707 89.1513,-27.8157 94.9138,-31.7899"/>
</g>
</g>
</svg>
