<?xml version="1.0" encoding="UTF-8" standalone="no"?>
<!DOCTYPE svg PUBLIC "-//W3C//DTD SVG 1.1//EN"
 "http://www.w3.org/Graphics/SVG/1.1/DTD/svg11.dtd">
<!-- Generated by graphviz version 2.26.3 (20100126.1600)
 -->
<!-- Title: src/main.cpp Pages: 1 -->
<svg width="1134pt" height="204pt"
 viewBox="0.00 0.00 1134.00 204.00" xmlns="http://www.w3.org/2000/svg" xmlns:xlink="http://www.w3.org/1999/xlink">
<g id="graph1" class="graph" transform="scale(1 1) rotate(0) translate(4 200)">
<title>src/main.cpp</title>
<polygon fill="white" stroke="white" points="-4,5 -4,-200 1131,-200 1131,5 -4,5"/>
<!-- Node1 -->
<g id="node1" class="node"><title>Node1</title>
<polygon fill="#bfbfbf" stroke="black" points="861.5,-174.5 861.5,-195.5 934.5,-195.5 934.5,-174.5 861.5,-174.5"/>
<text text-anchor="middle" x="898" y="-182.5" font-family="Helvetica,sans-Serif" font-size="10.00">src/main.cpp</text>
</g>
<!-- Node2 -->
<g id="node3" class="node"><title>Node2</title>
<a xlink:href="mainwindow_8hpp.html" target="_top" xlink:title="mainwindow.hpp">
<polygon fill="white" stroke="black" points="460.5,-116.5 460.5,-137.5 549.5,-137.5 549.5,-116.5 460.5,-116.5"/>
<text text-anchor="middle" x="505" y="-124.5" font-family="Helvetica,sans-Serif" font-size="10.00">mainwindow.hpp</text>
</a>
</g>
<!-- Node1&#45;&gt;Node2 -->
<g id="edge2" class="edge"><title>Node1&#45;&gt;Node2</title>
<path fill="none" stroke="midnightblue" d="M861.38,-179.596C792.032,-169.361 641.209,-147.102 559.776,-135.084"/>
<polygon fill="midnightblue" stroke="midnightblue" points="560.124,-131.597 549.72,-133.6 559.102,-138.522 560.124,-131.597"/>
</g>
<!-- Node5 -->
<g id="node9" class="node"><title>Node5</title>
<polygon fill="white" stroke="#bfbfbf" points="487,-0.5 487,-21.5 527,-21.5 527,-0.5 487,-0.5"/>
<text text-anchor="middle" x="507" y="-8.5" font-family="Helvetica,sans-Serif" font-size="10.00">QFile</text>
</g>
<!-- Node1&#45;&gt;Node5 -->
<g id="edge34" class="edge"><title>Node1&#45;&gt;Node5</title>
<path fill="none" stroke="midnightblue" d="M885.797,-174.313C876.047,-165.323 862.489,-151.765 853,-138 830.659,-105.592 846.587,-81.488 815,-58 771.326,-25.5243 605.998,-15.0633 537.26,-12.0738"/>
<polygon fill="midnightblue" stroke="midnightblue" points="537.226,-8.56956 527.091,-11.6559 536.938,-15.5637 537.226,-8.56956"/>
</g>
<!-- Node15 -->
<g id="node29" class="node"><title>Node15</title>
<polygon fill="white" stroke="#bfbfbf" points="862,-116.5 862,-137.5 934,-137.5 934,-116.5 862,-116.5"/>
<text text-anchor="middle" x="898" y="-124.5" font-family="Helvetica,sans-Serif" font-size="10.00">QApplication</text>
</g>
<!-- Node1&#45;&gt;Node15 -->
<g id="edge28" class="edge"><title>Node1&#45;&gt;Node15</title>
<path fill="none" stroke="midnightblue" d="M898,-174.362C898,-166.922 898,-156.743 898,-147.728"/>
<polygon fill="midnightblue" stroke="midnightblue" points="901.5,-147.571 898,-137.571 894.5,-147.571 901.5,-147.571"/>
</g>
<!-- Node16 -->
<g id="node31" class="node"><title>Node16</title>
<polygon fill="white" stroke="#bfbfbf" points="951.5,-116.5 951.5,-137.5 1040.5,-137.5 1040.5,-116.5 951.5,-116.5"/>
<text text-anchor="middle" x="996" y="-124.5" font-family="Helvetica,sans-Serif" font-size="10.00">QSurfaceFormat</text>
</g>
<!-- Node1&#45;&gt;Node16 -->
<g id="edge30" class="edge"><title>Node1&#45;&gt;Node16</title>
<path fill="none" stroke="midnightblue" d="M915.975,-174.362C930.894,-165.532 952.333,-152.844 969.266,-142.822"/>
<polygon fill="midnightblue" stroke="midnightblue" points="971.316,-145.676 978.139,-137.571 967.751,-139.652 971.316,-145.676"/>
</g>
<!-- Node17 -->
<g id="node33" class="node"><title>Node17</title>
<polygon fill="white" stroke="#bfbfbf" points="1058,-116.5 1058,-137.5 1126,-137.5 1126,-116.5 1058,-116.5"/>
<text text-anchor="middle" x="1092" y="-124.5" font-family="Helvetica,sans-Serif" font-size="10.00">QTranslator</text>
</g>
<!-- Node1&#45;&gt;Node17 -->
<g id="edge32" class="edge"><title>Node1&#45;&gt;Node17</title>
<path fill="none" stroke="midnightblue" d="M933.132,-174.497C965.331,-164.87 1013.14,-150.577 1047.9,-140.185"/>
<polygon fill="midnightblue" stroke="midnightblue" points="1049.2,-143.448 1057.78,-137.231 1047.2,-136.742 1049.2,-143.448"/>
</g>
<!-- Node3 -->
<g id="node5" class="node"><title>Node3</title>
<a xlink:href="fileloader_8hpp.html" target="_top" xlink:title="fileloader.hpp">
<polygon fill="white" stroke="black" points="28,-58.5 28,-79.5 102,-79.5 102,-58.5 28,-58.5"/>
<text text-anchor="middle" x="65" y="-66.5" font-family="Helvetica,sans-Serif" font-size="10.00">fileloader.hpp</text>
</a>
</g>
<!-- Node2&#45;&gt;Node3 -->
<g id="edge4" class="edge"><title>Node2&#45;&gt;Node3</title>
<path fill="none" stroke="midnightblue" d="M460.436,-123.381C388.948,-117.206 244.092,-103.173 111.973,-80.0131"/>
<polygon fill="midnightblue" stroke="midnightblue" points="112.537,-76.5586 102.079,-78.2572 111.314,-83.4509 112.537,-76.5586"/>
</g>
<!-- Node7 -->
<g id="node13" class="node"><title>Node7</title>
<polygon fill="white" stroke="#bfbfbf" points="120,-58.5 120,-79.5 200,-79.5 200,-58.5 120,-58.5"/>
<text text-anchor="middle" x="160" y="-66.5" font-family="Helvetica,sans-Serif" font-size="10.00">QMainWindow</text>
</g>
<!-- Node2&#45;&gt;Node7 -->
<g id="edge12" class="edge"><title>Node2&#45;&gt;Node7</title>
<path fill="none" stroke="midnightblue" d="M460.467,-120.827C404.394,-112.855 304.891,-98.0547 210.111,-80.1269"/>
<polygon fill="midnightblue" stroke="midnightblue" points="210.547,-76.6471 200.068,-78.212 209.236,-83.5232 210.547,-76.6471"/>
</g>
<!-- Node8 -->
<g id="node15" class="node"><title>Node8</title>
<polygon fill="white" stroke="#bfbfbf" points="218,-58.5 218,-79.5 312,-79.5 312,-58.5 218,-58.5"/>
<text text-anchor="middle" x="265" y="-66.5" font-family="Helvetica,sans-Serif" font-size="10.00">QTreeWidgetItem</text>
</g>
<!-- Node2&#45;&gt;Node8 -->
<g id="edge14" class="edge"><title>Node2&#45;&gt;Node8</title>
<path fill="none" stroke="midnightblue" d="M461.538,-116.497C421.31,-106.775 361.388,-92.2938 318.291,-81.8787"/>
<polygon fill="midnightblue" stroke="midnightblue" points="319.086,-78.4701 308.544,-79.5231 317.442,-85.2742 319.086,-78.4701"/>
</g>
<!-- Node9 -->
<g id="node17" class="node"><title>Node9</title>
<polygon fill="white" stroke="#bfbfbf" points="330,-58.5 330,-79.5 410,-79.5 410,-58.5 330,-58.5"/>
<text text-anchor="middle" x="370" y="-66.5" font-family="Helvetica,sans-Serif" font-size="10.00">QPluginLoader</text>
</g>
<!-- Node2&#45;&gt;Node9 -->
<g id="edge16" class="edge"><title>Node2&#45;&gt;Node9</title>
<path fill="none" stroke="midnightblue" d="M480.553,-116.497C459.182,-107.315 427.931,-93.8889 404.103,-83.6516"/>
<polygon fill="midnightblue" stroke="midnightblue" points="405.291,-80.3529 394.722,-79.6212 402.528,-86.7845 405.291,-80.3529"/>
</g>
<!-- Node10 -->
<g id="node19" class="node"><title>Node10</title>
<polygon fill="white" stroke="#bfbfbf" points="428,-58.5 428,-79.5 496,-79.5 496,-58.5 428,-58.5"/>
<text text-anchor="middle" x="462" y="-66.5" font-family="Helvetica,sans-Serif" font-size="10.00">QJsonArray</text>
</g>
<!-- Node2&#45;&gt;Node10 -->
<g id="edge18" class="edge"><title>Node2&#45;&gt;Node10</title>
<path fill="none" stroke="midnightblue" d="M497.113,-116.362C491.173,-108.35 482.878,-97.1605 475.841,-87.6696"/>
<polygon fill="midnightblue" stroke="midnightblue" points="478.604,-85.5193 469.837,-79.5707 472.981,-89.6883 478.604,-85.5193"/>
</g>
<!-- Node11 -->
<g id="node21" class="node"><title>Node11</title>
<polygon fill="white" stroke="#bfbfbf" points="514,-58.5 514,-79.5 584,-79.5 584,-58.5 514,-58.5"/>
<text text-anchor="middle" x="549" y="-66.5" font-family="Helvetica,sans-Serif" font-size="10.00">QCheckBox</text>
</g>
<!-- Node2&#45;&gt;Node11 -->
<g id="edge20" class="edge"><title>Node2&#45;&gt;Node11</title>
<path fill="none" stroke="midnightblue" d="M513.07,-116.362C519.149,-108.35 527.637,-97.1605 534.837,-87.6696"/>
<polygon fill="midnightblue" stroke="midnightblue" points="537.725,-89.653 540.981,-79.5707 532.149,-85.4222 537.725,-89.653"/>
</g>
<!-- Node12 -->
<g id="node23" class="node"><title>Node12</title>
<polygon fill="white" stroke="#bfbfbf" points="601.5,-58.5 601.5,-79.5 674.5,-79.5 674.5,-58.5 601.5,-58.5"/>
<text text-anchor="middle" x="638" y="-66.5" font-family="Helvetica,sans-Serif" font-size="10.00">QComboBox</text>
</g>
<!-- Node2&#45;&gt;Node12 -->
<g id="edge22" class="edge"><title>Node2&#45;&gt;Node12</title>
<path fill="none" stroke="midnightblue" d="M529.085,-116.497C550.139,-107.315 580.927,-93.8889 604.402,-83.6516"/>
<polygon fill="midnightblue" stroke="midnightblue" points="605.877,-86.8268 613.644,-79.6212 603.079,-80.4104 605.877,-86.8268"/>
</g>
<!-- Node13 -->
<g id="node25" class="node"><title>Node13</title>
<polygon fill="white" stroke="#bfbfbf" points="691.5,-58.5 691.5,-79.5 750.5,-79.5 750.5,-58.5 691.5,-58.5"/>
<text text-anchor="middle" x="721" y="-66.5" font-family="Helvetica,sans-Serif" font-size="10.00">functional</text>
</g>
<!-- Node2&#45;&gt;Node13 -->
<g id="edge24" class="edge"><title>Node2&#45;&gt;Node13</title>
<path fill="none" stroke="midnightblue" d="M546.079,-116.447C580.088,-107.644 629.914,-94.5972 681.499,-80.3808"/>
<polygon fill="midnightblue" stroke="midnightblue" points="682.442,-83.7514 691.148,-77.7135 680.577,-77.0045 682.442,-83.7514"/>
</g>
<!-- Node14 -->
<g id="node27" class="node"><title>Node14</title>
<polygon fill="white" stroke="#bfbfbf" points="768,-58.5 768,-79.5 806,-79.5 806,-58.5 768,-58.5"/>
<text text-anchor="middle" x="787" y="-66.5" font-family="Helvetica,sans-Serif" font-size="10.00">tuple</text>
</g>
<!-- Node2&#45;&gt;Node14 -->
<g id="edge26" class="edge"><title>Node2&#45;&gt;Node14</title>
<path fill="none" stroke="midnightblue" d="M549.645,-121.377C598.745,-114.614 679.988,-101.715 757.91,-79.913"/>
<polygon fill="midnightblue" stroke="midnightblue" points="759.231,-83.1759 767.887,-77.0666 757.311,-76.4445 759.231,-83.1759"/>
</g>
<!-- Node4 -->
<g id="node7" class="node"><title>Node4</title>
<polygon fill="white" stroke="#bfbfbf" points="0,-0.5 0,-21.5 50,-21.5 50,-0.5 0,-0.5"/>
<text text-anchor="middle" x="25" y="-8.5" font-family="Helvetica,sans-Serif" font-size="10.00">QString</text>
</g>
<!-- Node3&#45;&gt;Node4 -->
<g id="edge6" class="edge"><title>Node3&#45;&gt;Node4</title>
<path fill="none" stroke="midnightblue" d="M57.6634,-58.3619C52.194,-50.4313 44.5783,-39.3885 38.0763,-29.9606"/>
<polygon fill="midnightblue" stroke="midnightblue" points="40.8487,-27.8157 32.2901,-21.5707 35.0862,-31.7899 40.8487,-27.8157"/>
</g>
<!-- Node3&#45;&gt;Node5 -->
<g id="edge8" class="edge"><title>Node3&#45;&gt;Node5</title>
<path fill="none" stroke="midnightblue" d="M102.079,-59.7409C105.088,-59.1093 108.09,-58.5188 111,-58 246.261,-33.8854 409.785,-18.9141 476.469,-13.4016"/>
<polygon fill="midnightblue" stroke="midnightblue" points="477.001,-16.8699 486.684,-12.569 476.432,-9.89307 477.001,-16.8699"/>
</g>
<!-- Node6 -->
<g id="node11" class="node"><title>Node6</title>
<polygon fill="white" stroke="#bfbfbf" points="68,-0.5 68,-21.5 142,-21.5 142,-0.5 68,-0.5"/>
<text text-anchor="middle" x="105" y="-8.5" font-family="Helvetica,sans-Serif" font-size="10.00">QMetaObject</text>
</g>
<!-- Node3&#45;&gt;Node6 -->
<g id="edge10" class="edge"><title>Node3&#45;&gt;Node6</title>
<path fill="none" stroke="midnightblue" d="M72.3366,-58.3619C77.806,-50.4313 85.4217,-39.3885 91.9237,-29.9606"/>
<polygon fill="midnightblue" stroke="midnightblue" points="94.9138,-31.7899 97.7099,-21.5707 89.1513,-27.8157 94.9138,-31.7899"/>
</g>
</g>
</svg>
