<?xml version="1.0" encoding="UTF-8" standalone="no"?>
<!DOCTYPE svg PUBLIC "-//W3C//DTD SVG 1.1//EN"
 "http://www.w3.org/Graphics/SVG/1.1/DTD/svg11.dtd">
<!-- Generated by graphviz version 2.26.3 (20100126.1600)
 -->
<!-- Title: include/mainwindow.hpp Pages: 1 -->
<svg width="837pt" height="146pt"
 viewBox="0.00 0.00 837.00 146.00" xmlns="http://www.w3.org/2000/svg" xmlns:xlink="http://www.w3.org/1999/xlink">
<g id="graph1" class="graph" transform="scale(1 1) rotate(0) translate(4 142)">
<title>include/mainwindow.hpp</title>
<polygon fill="white" stroke="white" points="-4,5 -4,-142 834,-142 834,5 -4,5"/>
<!-- Node1 -->
<g id="node1" class="node"><title>Node1</title>
<polygon fill="#bfbfbf" stroke="black" points="423.5,-116.5 423.5,-137.5 546.5,-137.5 546.5,-116.5 423.5,-116.5"/>
<text text-anchor="middle" x="485" y="-124.5" font-family="Helvetica,sans-Serif" font-size="10.00">include/mainwindow.hpp</text>
</g>
<!-- Node2 -->
<g id="node3" class="node"><title>Node2</title>
<a xlink:href="fileloader_8hpp.html" target="_top" xlink:title="fileloader.hpp">
<polygon fill="white" stroke="black" points="51,-58.5 51,-79.5 125,-79.5 125,-58.5 51,-58.5"/>
<text text-anchor="middle" x="88" y="-66.5" font-family="Helvetica,sans-Serif" font-size="10.00">fileloader.hpp</text>
</a>
</g>
<!-- Node1&#45;&gt;Node2 -->
<g id="edge2" class="edge"><title>Node1&#45;&gt;Node2</title>
<path fill="none" stroke="midnightblue" d="M423.196,-120.647C354.975,-113.204 241.753,-99.5778 135.06,-80.0563"/>
<polygon fill="midnightblue" stroke="midnightblue" points="135.558,-76.5892 125.088,-78.2108 134.284,-83.4723 135.558,-76.5892"/>
</g>
<!-- Node6 -->
<g id="node11" class="node"><title>Node6</title>
<polygon fill="white" stroke="#bfbfbf" points="143,-58.5 143,-79.5 223,-79.5 223,-58.5 143,-58.5"/>
<text text-anchor="middle" x="183" y="-66.5" font-family="Helvetica,sans-Serif" font-size="10.00">QMainWindow</text>
</g>
<!-- Node1&#45;&gt;Node6 -->
<g id="edge10" class="edge"><title>Node1&#45;&gt;Node6</title>
<path fill="none" stroke="midnightblue" d="M424.814,-116.468C375.782,-107.74 304.51,-94.7182 233.152,-80.1863"/>
<polygon fill="midnightblue" stroke="midnightblue" points="233.584,-76.7021 223.085,-78.126 232.18,-83.56 233.584,-76.7021"/>
</g>
<!-- Node7 -->
<g id="node13" class="node"><title>Node7</title>
<polygon fill="white" stroke="#bfbfbf" points="241,-58.5 241,-79.5 335,-79.5 335,-58.5 241,-58.5"/>
<text text-anchor="middle" x="288" y="-66.5" font-family="Helvetica,sans-Serif" font-size="10.00">QTreeWidgetItem</text>
</g>
<!-- Node1&#45;&gt;Node7 -->
<g id="edge12" class="edge"><title>Node1&#45;&gt;Node7</title>
<path fill="none" stroke="midnightblue" d="M449.325,-116.497C416.93,-106.959 368.977,-92.8408 333.769,-82.475"/>
<polygon fill="midnightblue" stroke="midnightblue" points="334.324,-78.9899 323.742,-79.5231 332.346,-85.7049 334.324,-78.9899"/>
</g>
<!-- Node8 -->
<g id="node15" class="node"><title>Node8</title>
<polygon fill="white" stroke="#bfbfbf" points="353,-58.5 353,-79.5 433,-79.5 433,-58.5 353,-58.5"/>
<text text-anchor="middle" x="393" y="-66.5" font-family="Helvetica,sans-Serif" font-size="10.00">QPluginLoader</text>
</g>
<!-- Node1&#45;&gt;Node8 -->
<g id="edge14" class="edge"><title>Node1&#45;&gt;Node8</title>
<path fill="none" stroke="midnightblue" d="M468.126,-116.362C454.249,-107.614 434.366,-95.0786 418.54,-85.1015"/>
<polygon fill="midnightblue" stroke="midnightblue" points="420.093,-81.943 409.767,-79.5707 416.36,-87.8645 420.093,-81.943"/>
</g>
<!-- Node9 -->
<g id="node17" class="node"><title>Node9</title>
<polygon fill="white" stroke="#bfbfbf" points="451,-58.5 451,-79.5 519,-79.5 519,-58.5 451,-58.5"/>
<text text-anchor="middle" x="485" y="-66.5" font-family="Helvetica,sans-Serif" font-size="10.00">QJsonArray</text>
</g>
<!-- Node1&#45;&gt;Node9 -->
<g id="edge16" class="edge"><title>Node1&#45;&gt;Node9</title>
<path fill="none" stroke="midnightblue" d="M485,-116.362C485,-108.922 485,-98.7427 485,-89.7276"/>
<polygon fill="midnightblue" stroke="midnightblue" points="488.5,-89.5706 485,-79.5707 481.5,-89.5707 488.5,-89.5706"/>
</g>
<!-- Node10 -->
<g id="node19" class="node"><title>Node10</title>
<polygon fill="white" stroke="#bfbfbf" points="537,-58.5 537,-79.5 607,-79.5 607,-58.5 537,-58.5"/>
<text text-anchor="middle" x="572" y="-66.5" font-family="Helvetica,sans-Serif" font-size="10.00">QCheckBox</text>
</g>
<!-- Node1&#45;&gt;Node10 -->
<g id="edge18" class="edge"><title>Node1&#45;&gt;Node10</title>
<path fill="none" stroke="midnightblue" d="M500.957,-116.362C513.957,-107.696 532.531,-95.3126 547.427,-85.3819"/>
<polygon fill="midnightblue" stroke="midnightblue" points="549.765,-88.0299 556.144,-79.5707 545.882,-82.2055 549.765,-88.0299"/>
</g>
<!-- Node11 -->
<g id="node21" class="node"><title>Node11</title>
<polygon fill="white" stroke="#bfbfbf" points="624.5,-58.5 624.5,-79.5 697.5,-79.5 697.5,-58.5 624.5,-58.5"/>
<text text-anchor="middle" x="661" y="-66.5" font-family="Helvetica,sans-Serif" font-size="10.00">QComboBox</text>
</g>
<!-- Node1&#45;&gt;Node11 -->
<g id="edge20" class="edge"><title>Node1&#45;&gt;Node11</title>
<path fill="none" stroke="midnightblue" d="M516.872,-116.497C545.565,-107.041 587.921,-93.0829 619.298,-82.7428"/>
<polygon fill="midnightblue" stroke="midnightblue" points="620.666,-85.9772 629.068,-79.5231 618.475,-79.3289 620.666,-85.9772"/>
</g>
<!-- Node12 -->
<g id="node23" class="node"><title>Node12</title>
<polygon fill="white" stroke="#bfbfbf" points="714.5,-58.5 714.5,-79.5 773.5,-79.5 773.5,-58.5 714.5,-58.5"/>
<text text-anchor="middle" x="744" y="-66.5" font-family="Helvetica,sans-Serif" font-size="10.00">functional</text>
</g>
<!-- Node1&#45;&gt;Node12 -->
<g id="edge22" class="edge"><title>Node1&#45;&gt;Node12</title>
<path fill="none" stroke="midnightblue" d="M540.201,-116.411C582.784,-107.981 643.347,-95.4261 704.387,-80.3007"/>
<polygon fill="midnightblue" stroke="midnightblue" points="705.332,-83.6722 714.185,-77.8513 703.634,-76.8812 705.332,-83.6722"/>
</g>
<!-- Node13 -->
<g id="node25" class="node"><title>Node13</title>
<polygon fill="white" stroke="#bfbfbf" points="791,-58.5 791,-79.5 829,-79.5 829,-58.5 791,-58.5"/>
<text text-anchor="middle" x="810" y="-66.5" font-family="Helvetica,sans-Serif" font-size="10.00">tuple</text>
</g>
<!-- Node1&#45;&gt;Node13 -->
<g id="edge24" class="edge"><title>Node1&#45;&gt;Node13</title>
<path fill="none" stroke="midnightblue" d="M546.684,-121.193C605.082,-114.809 695.168,-102.667 781.003,-79.8238"/>
<polygon fill="midnightblue" stroke="midnightblue" points="782.173,-83.133 790.906,-77.1348 780.338,-76.3776 782.173,-83.133"/>
</g>
<!-- Node3 -->
<g id="node5" class="node"><title>Node3</title>
<polygon fill="white" stroke="#bfbfbf" points="0,-0.5 0,-21.5 50,-21.5 50,-0.5 0,-0.5"/>
<text text-anchor="middle" x="25" y="-8.5" font-family="Helvetica,sans-Serif" font-size="10.00">QString</text>
</g>
<!-- Node2&#45;&gt;Node3 -->
<g id="edge4" class="edge"><title>Node2&#45;&gt;Node3</title>
<path fill="none" stroke="midnightblue" d="M76.4448,-58.3619C67.3866,-50.0226 54.5903,-38.2418 44.0263,-28.5162"/>
<polygon fill="midnightblue" stroke="midnightblue" points="46.2095,-25.7688 36.4819,-21.5707 41.4683,-30.9187 46.2095,-25.7688"/>
</g>
<!-- Node4 -->
<g id="node7" class="node"><title>Node4</title>
<polygon fill="white" stroke="#bfbfbf" points="68,-0.5 68,-21.5 108,-21.5 108,-0.5 68,-0.5"/>
<text text-anchor="middle" x="88" y="-8.5" font-family="Helvetica,sans-Serif" font-size="10.00">QFile</text>
</g>
<!-- Node2&#45;&gt;Node4 -->
<g id="edge6" class="edge"><title>Node2&#45;&gt;Node4</title>
<path fill="none" stroke="midnightblue" d="M88,-58.3619C88,-50.9219 88,-40.7427 88,-31.7276"/>
<polygon fill="midnightblue" stroke="midnightblue" points="91.5001,-31.5706 88,-21.5707 84.5001,-31.5707 91.5001,-31.5706"/>
</g>
<!-- Node5 -->
<g id="node9" class="node"><title>Node5</title>
<polygon fill="white" stroke="#bfbfbf" points="126,-0.5 126,-21.5 200,-21.5 200,-0.5 126,-0.5"/>
<text text-anchor="middle" x="163" y="-8.5" font-family="Helvetica,sans-Serif" font-size="10.00">QMetaObject</text>
</g>
<!-- Node2&#45;&gt;Node5 -->
<g id="edge8" class="edge"><title>Node2&#45;&gt;Node5</title>
<path fill="none" stroke="midnightblue" d="M101.756,-58.3619C112.751,-49.859 128.373,-37.7785 141.086,-27.9466"/>
<polygon fill="midnightblue" stroke="midnightblue" points="143.562,-30.4569 149.331,-21.5707 139.279,-24.9195 143.562,-30.4569"/>
</g>
</g>
</svg>
