<?xml version="1.0" encoding="UTF-8" standalone="no"?>
<!DOCTYPE svg PUBLIC "-//W3C//DTD SVG 1.1//EN"
 "http://www.w3.org/Graphics/SVG/1.1/DTD/svg11.dtd">
<!-- Generated by graphviz version 2.26.3 (20100126.1600)
 -->
<!-- Title: src/mainwindow.cpp Pages: 1 -->
<svg width="4804pt" height="172pt"
 viewBox="0.00 0.00 4804.00 172.00" xmlns="http://www.w3.org/2000/svg" xmlns:xlink="http://www.w3.org/1999/xlink">
<g id="graph1" class="graph" transform="scale(1 1) rotate(0) translate(4 168)">
<title>src/mainwindow.cpp</title>
<polygon fill="white" stroke="white" points="-4,5 -4,-168 4801,-168 4801,5 -4,5"/>
<!-- Node1 -->
<g id="node1" class="node"><title>Node1</title>
<polygon fill="#bfbfbf" stroke="black" points="2085,-142.5 2085,-163.5 2191,-163.5 2191,-142.5 2085,-142.5"/>
<text text-anchor="middle" x="2138" y="-150.5" font-family="Helvetica,sans-Serif" font-size="10.00">src/mainwindow.cpp</text>
</g>
<!-- Node2 -->
<g id="node3" class="node"><title>Node2</title>
<a xlink:href="mainwindow_8hpp.html" target="_top" xlink:title="mainwindow.hpp">
<polygon fill="white" stroke="red" points="389.5,-71.5 389.5,-92.5 478.5,-92.5 478.5,-71.5 389.5,-71.5"/>
<text text-anchor="middle" x="434" y="-79.5" font-family="Helvetica,sans-Serif" font-size="10.00">mainwindow.hpp</text>
</a>
</g>
<!-- Node1&#45;&gt;Node2 -->
<g id="edge2" class="edge"><title>Node1&#45;&gt;Node2</title>
<path fill="none" stroke="midnightblue" d="M2084.84,-151.953C1852.78,-147.285 927.219,-127.659 637,-106 586.594,-102.238 529.439,-95.2333 488.648,-89.7583"/>
<polygon fill="midnightblue" stroke="midnightblue" points="489.023,-86.2773 478.644,-88.4023 488.083,-93.2139 489.023,-86.2773"/>
</g>
<!-- Node11 -->
<g id="node21" class="node"><title>Node11</title>
<a xlink:href="actorbuilder_8hpp.html" target="_top" xlink:title="actorbuilder.hpp">
<polygon fill="white" stroke="red" points="646,-71.5 646,-92.5 732,-92.5 732,-71.5 646,-71.5"/>
<text text-anchor="middle" x="689" y="-79.5" font-family="Helvetica,sans-Serif" font-size="10.00">actorbuilder.hpp</text>
</a>
</g>
<!-- Node1&#45;&gt;Node11 -->
<g id="edge20" class="edge"><title>Node1&#45;&gt;Node11</title>
<path fill="none" stroke="midnightblue" d="M2084.79,-152.347C1845.89,-149.26 878.334,-135.056 746,-106 736.704,-103.959 727.012,-100.454 718.312,-96.7434"/>
<polygon fill="midnightblue" stroke="midnightblue" points="719.54,-93.4578 708.986,-92.534 716.66,-99.8381 719.54,-93.4578"/>
</g>
<!-- Node12 -->
<g id="node23" class="node"><title>Node12</title>
<polygon fill="white" stroke="#bfbfbf" points="740,-0.5 740,-21.5 780,-21.5 780,-0.5 740,-0.5"/>
<text text-anchor="middle" x="760" y="-8.5" font-family="Helvetica,sans-Serif" font-size="10.00">QList</text>
</g>
<!-- Node1&#45;&gt;Node12 -->
<g id="edge58" class="edge"><title>Node1&#45;&gt;Node12</title>
<path fill="none" stroke="midnightblue" d="M2084.98,-152.06C1837.22,-147.555 804.334,-127.512 779,-106 757.832,-88.0254 756.065,-53.7206 757.479,-31.6262"/>
<polygon fill="midnightblue" stroke="midnightblue" points="760.97,-31.8869 758.39,-21.611 753.998,-31.2528 760.97,-31.8869"/>
</g>
<!-- Node13 -->
<g id="node25" class="node"><title>Node13</title>
<a xlink:href="sphere_8hpp.html" target="_top" xlink:title="sphere.hpp">
<polygon fill="white" stroke="red" points="787.5,-71.5 787.5,-92.5 852.5,-92.5 852.5,-71.5 787.5,-71.5"/>
<text text-anchor="middle" x="820" y="-79.5" font-family="Helvetica,sans-Serif" font-size="10.00">sphere.hpp</text>
</a>
</g>
<!-- Node1&#45;&gt;Node13 -->
<g id="edge24" class="edge"><title>Node1&#45;&gt;Node13</title>
<path fill="none" stroke="midnightblue" d="M2084.97,-152.574C1858.64,-150.551 979.623,-140.52 861,-106 854.66,-104.155 848.275,-101.116 842.494,-97.8116"/>
<polygon fill="midnightblue" stroke="midnightblue" points="844.34,-94.838 833.999,-92.5321 840.645,-100.783 844.34,-94.838"/>
</g>
<!-- Node14 -->
<g id="node27" class="node"><title>Node14</title>
<a xlink:href="pyramide_8hpp.html" target="_top" xlink:title="pyramide.hpp">
<polygon fill="white" stroke="red" points="869.5,-71.5 869.5,-92.5 944.5,-92.5 944.5,-71.5 869.5,-71.5"/>
<text text-anchor="middle" x="907" y="-79.5" font-family="Helvetica,sans-Serif" font-size="10.00">pyramide.hpp</text>
</a>
</g>
<!-- Node1&#45;&gt;Node14 -->
<g id="edge26" class="edge"><title>Node1&#45;&gt;Node14</title>
<path fill="none" stroke="midnightblue" d="M2084.87,-152.262C1868.91,-149.078 1063.11,-135.323 953,-106 945.865,-104.1 938.583,-100.956 931.98,-97.5598"/>
<polygon fill="midnightblue" stroke="midnightblue" points="933.33,-94.3065 922.887,-92.5186 929.936,-100.429 933.33,-94.3065"/>
</g>
<!-- Node15 -->
<g id="node29" class="node"><title>Node15</title>
<a xlink:href="rectangle_8hpp.html" target="_top" xlink:title="rectangle.hpp">
<polygon fill="white" stroke="red" points="961.5,-71.5 961.5,-92.5 1036.5,-92.5 1036.5,-71.5 961.5,-71.5"/>
<text text-anchor="middle" x="999" y="-79.5" font-family="Helvetica,sans-Serif" font-size="10.00">rectangle.hpp</text>
</a>
</g>
<!-- Node1&#45;&gt;Node15 -->
<g id="edge28" class="edge"><title>Node1&#45;&gt;Node15</title>
<path fill="none" stroke="midnightblue" d="M2084.87,-152.071C1879.75,-148.301 1145.84,-133.035 1045,-106 1037.87,-104.088 1030.59,-100.94 1023.98,-97.5433"/>
<polygon fill="midnightblue" stroke="midnightblue" points="1025.33,-94.29 1014.89,-92.5041 1021.94,-100.413 1025.33,-94.29"/>
</g>
<!-- Node16 -->
<g id="node31" class="node"><title>Node16</title>
<a xlink:href="line_8hpp.html" target="_top" xlink:title="line.hpp">
<polygon fill="white" stroke="red" points="1054,-71.5 1054,-92.5 1104,-92.5 1104,-71.5 1054,-71.5"/>
<text text-anchor="middle" x="1079" y="-79.5" font-family="Helvetica,sans-Serif" font-size="10.00">line.hpp</text>
</a>
</g>
<!-- Node1&#45;&gt;Node16 -->
<g id="edge30" class="edge"><title>Node1&#45;&gt;Node16</title>
<path fill="none" stroke="midnightblue" d="M2084.73,-152.306C1887.45,-149.497 1205.1,-137.572 1113,-106 1108.13,-104.331 1103.34,-101.731 1098.96,-98.8493"/>
<polygon fill="midnightblue" stroke="midnightblue" points="1100.78,-95.8448 1090.65,-92.7431 1096.63,-101.485 1100.78,-95.8448"/>
</g>
<!-- Node17 -->
<g id="node33" class="node"><title>Node17</title>
<a xlink:href="cylinder_8hpp.html" target="_top" xlink:title="cylinder.hpp">
<polygon fill="white" stroke="red" points="1121.5,-71.5 1121.5,-92.5 1190.5,-92.5 1190.5,-71.5 1121.5,-71.5"/>
<text text-anchor="middle" x="1156" y="-79.5" font-family="Helvetica,sans-Serif" font-size="10.00">cylinder.hpp</text>
</a>
</g>
<!-- Node1&#45;&gt;Node17 -->
<g id="edge32" class="edge"><title>Node1&#45;&gt;Node17</title>
<path fill="none" stroke="midnightblue" d="M2084.87,-151.601C1899.65,-146.549 1289.09,-128.359 1204,-106 1196.57,-104.047 1188.94,-100.86 1182.01,-97.4371"/>
<polygon fill="midnightblue" stroke="midnightblue" points="1183.57,-94.2996 1173.09,-92.7178 1180.29,-100.487 1183.57,-94.2996"/>
</g>
<!-- Node18 -->
<g id="node35" class="node"><title>Node18</title>
<a xlink:href="light_8hpp.html" target="_top" xlink:title="light.hpp">
<polygon fill="white" stroke="red" points="1223.5,-0.5 1223.5,-21.5 1276.5,-21.5 1276.5,-0.5 1223.5,-0.5"/>
<text text-anchor="middle" x="1250" y="-8.5" font-family="Helvetica,sans-Serif" font-size="10.00">light.hpp</text>
</a>
</g>
<!-- Node1&#45;&gt;Node18 -->
<g id="edge34" class="edge"><title>Node1&#45;&gt;Node18</title>
<path fill="none" stroke="midnightblue" d="M2084.98,-152.226C1896.19,-149.216 1266.32,-136.887 1237,-106 1218.1,-86.092 1228.94,-52.4183 1239.05,-30.9703"/>
<polygon fill="midnightblue" stroke="midnightblue" points="1242.3,-32.3077 1243.68,-21.8033 1236.05,-29.1535 1242.3,-32.3077"/>
</g>
<!-- Node19 -->
<g id="node37" class="node"><title>Node19</title>
<a xlink:href="spotlight_8hpp.html" target="_top" xlink:title="spotlight.hpp">
<polygon fill="white" stroke="black" points="1246,-71.5 1246,-92.5 1318,-92.5 1318,-71.5 1246,-71.5"/>
<text text-anchor="middle" x="1282" y="-79.5" font-family="Helvetica,sans-Serif" font-size="10.00">spotlight.hpp</text>
</a>
</g>
<!-- Node1&#45;&gt;Node19 -->
<g id="edge36" class="edge"><title>Node1&#45;&gt;Node19</title>
<path fill="none" stroke="midnightblue" d="M2084.95,-151.248C1916.35,-145.496 1399.56,-126.387 1327,-106 1320.13,-104.069 1313.12,-100.974 1306.75,-97.6391"/>
<polygon fill="midnightblue" stroke="midnightblue" points="1308.38,-94.5418 1297.95,-92.69 1304.95,-100.643 1308.38,-94.5418"/>
</g>
<!-- Node20 -->
<g id="node40" class="node"><title>Node20</title>
<a xlink:href="group_8hpp.html" target="_top" xlink:title="group.hpp">
<polygon fill="white" stroke="red" points="1335.5,-71.5 1335.5,-92.5 1394.5,-92.5 1394.5,-71.5 1335.5,-71.5"/>
<text text-anchor="middle" x="1365" y="-79.5" font-family="Helvetica,sans-Serif" font-size="10.00">group.hpp</text>
</a>
</g>
<!-- Node1&#45;&gt;Node20 -->
<g id="edge40" class="edge"><title>Node1&#45;&gt;Node20</title>
<path fill="none" stroke="midnightblue" d="M2084.92,-151.124C1927.04,-145.331 1467.31,-126.855 1403,-106 1397.43,-104.195 1391.87,-101.387 1386.78,-98.3199"/>
<polygon fill="midnightblue" stroke="midnightblue" points="1388.51,-95.2698 1378.24,-92.678 1384.65,-101.11 1388.51,-95.2698"/>
</g>
<!-- Node21 -->
<g id="node42" class="node"><title>Node21</title>
<a xlink:href="trigger_8hpp.html" target="_top" xlink:title="trigger.hpp">
<polygon fill="white" stroke="red" points="1412,-71.5 1412,-92.5 1474,-92.5 1474,-71.5 1412,-71.5"/>
<text text-anchor="middle" x="1443" y="-79.5" font-family="Helvetica,sans-Serif" font-size="10.00">trigger.hpp</text>
</a>
</g>
<!-- Node1&#45;&gt;Node21 -->
<g id="edge42" class="edge"><title>Node1&#45;&gt;Node21</title>
<path fill="none" stroke="midnightblue" d="M2084.63,-152.355C1949.14,-150.21 1594.7,-141.292 1483,-106 1477.06,-104.124 1471.09,-101.211 1465.63,-98.0522"/>
<polygon fill="midnightblue" stroke="midnightblue" points="1467.36,-95.0052 1457.03,-92.6446 1463.63,-100.931 1467.36,-95.0052"/>
</g>
<!-- Node22 -->
<g id="node44" class="node"><title>Node22</title>
<polygon fill="white" stroke="#bfbfbf" points="1491.5,-71.5 1491.5,-92.5 1546.5,-92.5 1546.5,-71.5 1491.5,-71.5"/>
<text text-anchor="middle" x="1519" y="-79.5" font-family="Helvetica,sans-Serif" font-size="10.00">QVariant</text>
</g>
<!-- Node1&#45;&gt;Node22 -->
<g id="edge44" class="edge"><title>Node1&#45;&gt;Node22</title>
<path fill="none" stroke="midnightblue" d="M2084.98,-152.119C1960.38,-149.505 1652.12,-139.726 1555,-106 1549.81,-104.198 1544.65,-101.467 1539.92,-98.4856"/>
<polygon fill="midnightblue" stroke="midnightblue" points="1541.69,-95.4491 1531.48,-92.62 1537.69,-101.199 1541.69,-95.4491"/>
</g>
<!-- Node23 -->
<g id="node46" class="node"><title>Node23</title>
<polygon fill="white" stroke="#bfbfbf" points="1564,-71.5 1564,-92.5 1632,-92.5 1632,-71.5 1564,-71.5"/>
<text text-anchor="middle" x="1598" y="-79.5" font-family="Helvetica,sans-Serif" font-size="10.00">QFileDialog</text>
</g>
<!-- Node1&#45;&gt;Node23 -->
<g id="edge46" class="edge"><title>Node1&#45;&gt;Node23</title>
<path fill="none" stroke="midnightblue" d="M2084.8,-150.743C1974.16,-145.596 1722.72,-131.43 1641,-106 1634.57,-104 1628.03,-100.959 1622.05,-97.707"/>
<polygon fill="midnightblue" stroke="midnightblue" points="1623.62,-94.5691 1613.22,-92.5426 1620.08,-100.612 1623.62,-94.5691"/>
</g>
<!-- Node24 -->
<g id="node48" class="node"><title>Node24</title>
<polygon fill="white" stroke="#bfbfbf" points="1649.5,-71.5 1649.5,-92.5 1710.5,-92.5 1710.5,-71.5 1649.5,-71.5"/>
<text text-anchor="middle" x="1680" y="-79.5" font-family="Helvetica,sans-Serif" font-size="10.00">QSpinBox</text>
</g>
<!-- Node1&#45;&gt;Node24 -->
<g id="edge48" class="edge"><title>Node1&#45;&gt;Node24</title>
<path fill="none" stroke="midnightblue" d="M2084.99,-149.947C1987.91,-143.879 1785.44,-128.883 1719,-106 1713.46,-104.091 1707.87,-101.29 1702.73,-98.2691"/>
<polygon fill="midnightblue" stroke="midnightblue" points="1704.36,-95.1619 1694.05,-92.7403 1700.6,-101.066 1704.36,-95.1619"/>
</g>
<!-- Node25 -->
<g id="node50" class="node"><title>Node25</title>
<polygon fill="white" stroke="#bfbfbf" points="1727.5,-71.5 1727.5,-92.5 1774.5,-92.5 1774.5,-71.5 1727.5,-71.5"/>
<text text-anchor="middle" x="1751" y="-79.5" font-family="Helvetica,sans-Serif" font-size="10.00">QLabel</text>
</g>
<!-- Node1&#45;&gt;Node25 -->
<g id="edge50" class="edge"><title>Node1&#45;&gt;Node25</title>
<path fill="none" stroke="midnightblue" d="M2084.89,-149.281C1999.68,-142.761 1836.53,-127.851 1783,-106 1778.61,-104.21 1774.29,-101.669 1770.31,-98.9054"/>
<polygon fill="midnightblue" stroke="midnightblue" points="1772.32,-96.0299 1762.26,-92.7036 1768.05,-101.577 1772.32,-96.0299"/>
</g>
<!-- Node26 -->
<g id="node52" class="node"><title>Node26</title>
<polygon fill="white" stroke="#bfbfbf" points="1791.5,-71.5 1791.5,-92.5 1850.5,-92.5 1850.5,-71.5 1791.5,-71.5"/>
<text text-anchor="middle" x="1821" y="-79.5" font-family="Helvetica,sans-Serif" font-size="10.00">QLineEdit</text>
</g>
<!-- Node1&#45;&gt;Node26 -->
<g id="edge52" class="edge"><title>Node1&#45;&gt;Node26</title>
<path fill="none" stroke="midnightblue" d="M2084.95,-150.297C2027.59,-145.962 1934.25,-134.763 1859,-106 1853.62,-103.945 1848.19,-101.083 1843.18,-98.0481"/>
<polygon fill="midnightblue" stroke="midnightblue" points="1845.01,-95.0636 1834.72,-92.5375 1841.19,-100.929 1845.01,-95.0636"/>
</g>
<!-- Node27 -->
<g id="node54" class="node"><title>Node27</title>
<polygon fill="white" stroke="#bfbfbf" points="1867.5,-71.5 1867.5,-92.5 1942.5,-92.5 1942.5,-71.5 1867.5,-71.5"/>
<text text-anchor="middle" x="1905" y="-79.5" font-family="Helvetica,sans-Serif" font-size="10.00">QColorDialog</text>
</g>
<!-- Node1&#45;&gt;Node27 -->
<g id="edge54" class="edge"><title>Node1&#45;&gt;Node27</title>
<path fill="none" stroke="midnightblue" d="M2085,-143.145C2046.99,-135.249 1994.96,-122.725 1951,-106 1944.7,-103.604 1938.16,-100.558 1932.05,-97.4477"/>
<polygon fill="midnightblue" stroke="midnightblue" points="1933.37,-94.1898 1922.9,-92.5903 1930.09,-100.372 1933.37,-94.1898"/>
</g>
<!-- Node28 -->
<g id="node56" class="node"><title>Node28</title>
<polygon fill="white" stroke="#bfbfbf" points="1959.5,-71.5 1959.5,-92.5 2034.5,-92.5 2034.5,-71.5 1959.5,-71.5"/>
<text text-anchor="middle" x="1997" y="-79.5" font-family="Helvetica,sans-Serif" font-size="10.00">QPushButton</text>
</g>
<!-- Node1&#45;&gt;Node28 -->
<g id="edge56" class="edge"><title>Node1&#45;&gt;Node28</title>
<path fill="none" stroke="midnightblue" d="M2116.43,-142.491C2097.13,-133.051 2068.1,-118.754 2043,-106 2037.55,-103.229 2031.75,-100.239 2026.18,-97.3419"/>
<polygon fill="midnightblue" stroke="midnightblue" points="2027.59,-94.1315 2017.1,-92.6081 2024.35,-100.337 2027.59,-94.1315"/>
</g>
<!-- Node29 -->
<g id="node59" class="node"><title>Node29</title>
<polygon fill="white" stroke="#bfbfbf" points="2051.5,-71.5 2051.5,-92.5 2100.5,-92.5 2100.5,-71.5 2051.5,-71.5"/>
<text text-anchor="middle" x="2076" y="-79.5" font-family="Helvetica,sans-Serif" font-size="10.00">QtMath</text>
</g>
<!-- Node1&#45;&gt;Node29 -->
<g id="edge60" class="edge"><title>Node1&#45;&gt;Node29</title>
<path fill="none" stroke="midnightblue" d="M2128.58,-142.217C2118.93,-131.165 2103.74,-113.77 2092.17,-100.512"/>
<polygon fill="midnightblue" stroke="midnightblue" points="2094.72,-98.1151 2085.51,-92.8849 2089.45,-102.719 2094.72,-98.1151"/>
</g>
<!-- Node30 -->
<g id="node61" class="node"><title>Node30</title>
<polygon fill="white" stroke="#bfbfbf" points="2118,-71.5 2118,-92.5 2158,-92.5 2158,-71.5 2118,-71.5"/>
<text text-anchor="middle" x="2138" y="-79.5" font-family="Helvetica,sans-Serif" font-size="10.00">limits</text>
</g>
<!-- Node1&#45;&gt;Node30 -->
<g id="edge62" class="edge"><title>Node1&#45;&gt;Node30</title>
<path fill="none" stroke="midnightblue" d="M2138,-142.217C2138,-131.895 2138,-116.04 2138,-103.19"/>
<polygon fill="midnightblue" stroke="midnightblue" points="2141.5,-102.885 2138,-92.8849 2134.5,-102.885 2141.5,-102.885"/>
</g>
<!-- Node31 -->
<g id="node63" class="node"><title>Node31</title>
<polygon fill="white" stroke="#bfbfbf" points="2176,-71.5 2176,-92.5 2274,-92.5 2274,-71.5 2176,-71.5"/>
<text text-anchor="middle" x="2225" y="-79.5" font-family="Helvetica,sans-Serif" font-size="10.00">./ui_mainwindow.h</text>
</g>
<!-- Node1&#45;&gt;Node31 -->
<g id="edge64" class="edge"><title>Node1&#45;&gt;Node31</title>
<path fill="none" stroke="midnightblue" d="M2151.21,-142.217C2165.22,-130.787 2187.54,-112.57 2203.97,-99.1633"/>
<polygon fill="midnightblue" stroke="midnightblue" points="2206.41,-101.687 2211.95,-92.6522 2201.99,-96.2633 2206.41,-101.687"/>
</g>
<!-- Node32 -->
<g id="node65" class="node"><title>Node32</title>
<polygon fill="white" stroke="#bfbfbf" points="2291.5,-71.5 2291.5,-92.5 2380.5,-92.5 2380.5,-71.5 2291.5,-71.5"/>
<text text-anchor="middle" x="2336" y="-79.5" font-family="Helvetica,sans-Serif" font-size="10.00">QtCore/QVariant</text>
</g>
<!-- Node1&#45;&gt;Node32 -->
<g id="edge66" class="edge"><title>Node1&#45;&gt;Node32</title>
<path fill="none" stroke="midnightblue" d="M2174.44,-142.422C2204.01,-133.547 2246.6,-120.09 2283,-106 2290.12,-103.242 2297.66,-100.02 2304.75,-96.8473"/>
<polygon fill="midnightblue" stroke="midnightblue" points="2306.41,-99.9367 2314.06,-92.6008 2303.51,-93.5684 2306.41,-99.9367"/>
</g>
<!-- Node33 -->
<g id="node67" class="node"><title>Node33</title>
<polygon fill="white" stroke="#bfbfbf" points="2397.5,-71.5 2397.5,-92.5 2498.5,-92.5 2498.5,-71.5 2397.5,-71.5"/>
<text text-anchor="middle" x="2448" y="-79.5" font-family="Helvetica,sans-Serif" font-size="10.00">QtWidgets/QAction</text>
</g>
<!-- Node1&#45;&gt;Node33 -->
<g id="edge68" class="edge"><title>Node1&#45;&gt;Node33</title>
<path fill="none" stroke="midnightblue" d="M2191.13,-146.221C2242.44,-138.935 2322.01,-125.68 2389,-106 2397.86,-103.396 2407.23,-99.9349 2415.82,-96.454"/>
<polygon fill="midnightblue" stroke="midnightblue" points="2417.25,-99.6491 2425.13,-92.5599 2414.55,-93.1917 2417.25,-99.6491"/>
</g>
<!-- Node34 -->
<g id="node69" class="node"><title>Node34</title>
<polygon fill="white" stroke="#bfbfbf" points="2516,-71.5 2516,-92.5 2638,-92.5 2638,-71.5 2516,-71.5"/>
<text text-anchor="middle" x="2577" y="-79.5" font-family="Helvetica,sans-Serif" font-size="10.00">QtWidgets/QApplication</text>
</g>
<!-- Node1&#45;&gt;Node34 -->
<g id="edge70" class="edge"><title>Node1&#45;&gt;Node34</title>
<path fill="none" stroke="midnightblue" d="M2191.15,-149.642C2263.4,-144.306 2396.29,-131.745 2507,-106 2518.21,-103.393 2530.14,-99.6722 2540.93,-95.9359"/>
<polygon fill="midnightblue" stroke="midnightblue" points="2542.21,-99.1938 2550.45,-92.5318 2539.85,-92.6023 2542.21,-99.1938"/>
</g>
<!-- Node35 -->
<g id="node71" class="node"><title>Node35</title>
<polygon fill="white" stroke="#bfbfbf" points="2656,-71.5 2656,-92.5 2784,-92.5 2784,-71.5 2656,-71.5"/>
<text text-anchor="middle" x="2720" y="-79.5" font-family="Helvetica,sans-Serif" font-size="10.00">QtWidgets/QButtonGroup</text>
</g>
<!-- Node1&#45;&gt;Node35 -->
<g id="edge72" class="edge"><title>Node1&#45;&gt;Node35</title>
<path fill="none" stroke="midnightblue" d="M2191.34,-152.018C2284.66,-149.428 2483.22,-140.03 2647,-106 2658.92,-103.523 2671.62,-99.762 2683.03,-95.9471"/>
<polygon fill="midnightblue" stroke="midnightblue" points="2684.36,-99.1891 2692.67,-92.6116 2682.07,-92.5738 2684.36,-99.1891"/>
</g>
<!-- Node36 -->
<g id="node73" class="node"><title>Node36</title>
<polygon fill="white" stroke="#bfbfbf" points="2802,-71.5 2802,-92.5 2930,-92.5 2930,-71.5 2802,-71.5"/>
<text text-anchor="middle" x="2866" y="-79.5" font-family="Helvetica,sans-Serif" font-size="10.00">QtWidgets/QDockWidget</text>
</g>
<!-- Node1&#45;&gt;Node36 -->
<g id="edge74" class="edge"><title>Node1&#45;&gt;Node36</title>
<path fill="none" stroke="midnightblue" d="M2191.48,-150.859C2326.44,-145.184 2678.21,-128.629 2793,-106 2805.15,-103.605 2818.08,-99.7923 2829.64,-95.9043"/>
<polygon fill="midnightblue" stroke="midnightblue" points="2831.09,-99.1029 2839.38,-92.502 2828.79,-92.4942 2831.09,-99.1029"/>
</g>
<!-- Node37 -->
<g id="node75" class="node"><title>Node37</title>
<polygon fill="white" stroke="#bfbfbf" points="2947.5,-71.5 2947.5,-92.5 3068.5,-92.5 3068.5,-71.5 2947.5,-71.5"/>
<text text-anchor="middle" x="3008" y="-79.5" font-family="Helvetica,sans-Serif" font-size="10.00">QtWidgets/QGridLayout</text>
</g>
<!-- Node1&#45;&gt;Node37 -->
<g id="edge76" class="edge"><title>Node1&#45;&gt;Node37</title>
<path fill="none" stroke="midnightblue" d="M2191.01,-151.796C2345.78,-147.978 2795.13,-134.667 2939,-106 2950.43,-103.723 2962.54,-99.9892 2973.37,-96.1375"/>
<polygon fill="midnightblue" stroke="midnightblue" points="2974.75,-99.3616 2982.91,-92.6055 2972.31,-92.7976 2974.75,-99.3616"/>
</g>
<!-- Node38 -->
<g id="node77" class="node"><title>Node38</title>
<polygon fill="white" stroke="#bfbfbf" points="3086,-71.5 3086,-92.5 3214,-92.5 3214,-71.5 3086,-71.5"/>
<text text-anchor="middle" x="3150" y="-79.5" font-family="Helvetica,sans-Serif" font-size="10.00">QtWidgets/QHBoxLayout</text>
</g>
<!-- Node1&#45;&gt;Node38 -->
<g id="edge78" class="edge"><title>Node1&#45;&gt;Node38</title>
<path fill="none" stroke="midnightblue" d="M2191.06,-152.208C2363.23,-149.345 2905.09,-137.962 3077,-106 3089.4,-103.695 3102.59,-99.8195 3114.31,-95.848"/>
<polygon fill="midnightblue" stroke="midnightblue" points="3115.48,-99.146 3123.75,-92.5217 3113.15,-92.5438 3115.48,-99.146"/>
</g>
<!-- Node39 -->
<g id="node79" class="node"><title>Node39</title>
<polygon fill="white" stroke="#bfbfbf" points="3231.5,-71.5 3231.5,-92.5 3358.5,-92.5 3358.5,-71.5 3231.5,-71.5"/>
<text text-anchor="middle" x="3295" y="-79.5" font-family="Helvetica,sans-Serif" font-size="10.00">QtWidgets/QHeaderView</text>
</g>
<!-- Node1&#45;&gt;Node39 -->
<g id="edge80" class="edge"><title>Node1&#45;&gt;Node39</title>
<path fill="none" stroke="midnightblue" d="M2191.21,-152.651C2380.64,-151.102 3021.6,-143.174 3223,-106 3235.13,-103.762 3248.01,-99.9527 3259.47,-96.0202"/>
<polygon fill="midnightblue" stroke="midnightblue" points="3260.89,-99.2306 3269.13,-92.5691 3258.54,-92.6389 3260.89,-99.2306"/>
</g>
<!-- Node40 -->
<g id="node81" class="node"><title>Node40</title>
<polygon fill="white" stroke="#bfbfbf" points="3375.5,-71.5 3375.5,-92.5 3472.5,-92.5 3472.5,-71.5 3375.5,-71.5"/>
<text text-anchor="middle" x="3424" y="-79.5" font-family="Helvetica,sans-Serif" font-size="10.00">QtWidgets/QLabel</text>
</g>
<!-- Node1&#45;&gt;Node40 -->
<g id="edge82" class="edge"><title>Node1&#45;&gt;Node40</title>
<path fill="none" stroke="midnightblue" d="M2191.16,-152.092C2412.04,-148.164 3251.31,-131.673 3367,-106 3376.29,-103.938 3385.98,-100.427 3394.68,-96.7168"/>
<polygon fill="midnightblue" stroke="midnightblue" points="3396.33,-99.8122 3404.01,-92.5105 3393.45,-93.4311 3396.33,-99.8122"/>
</g>
<!-- Node41 -->
<g id="node83" class="node"><title>Node41</title>
<polygon fill="white" stroke="#bfbfbf" points="3490,-71.5 3490,-92.5 3620,-92.5 3620,-71.5 3490,-71.5"/>
<text text-anchor="middle" x="3555" y="-79.5" font-family="Helvetica,sans-Serif" font-size="10.00">QtWidgets/QMainWindow</text>
</g>
<!-- Node1&#45;&gt;Node41 -->
<g id="edge84" class="edge"><title>Node1&#45;&gt;Node41</title>
<path fill="none" stroke="midnightblue" d="M2191.23,-152.013C2424.75,-147.564 3352.62,-128.607 3481,-106 3493.57,-103.786 3506.95,-99.9344 3518.83,-95.9568"/>
<polygon fill="midnightblue" stroke="midnightblue" points="3520.11,-99.2171 3528.4,-92.619 3517.8,-92.6077 3520.11,-99.2171"/>
</g>
<!-- Node42 -->
<g id="node85" class="node"><title>Node42</title>
<polygon fill="white" stroke="#bfbfbf" points="3638,-71.5 3638,-92.5 3736,-92.5 3736,-71.5 3638,-71.5"/>
<text text-anchor="middle" x="3687" y="-79.5" font-family="Helvetica,sans-Serif" font-size="10.00">QtWidgets/QMenu</text>
</g>
<!-- Node1&#45;&gt;Node42 -->
<g id="edge86" class="edge"><title>Node1&#45;&gt;Node42</title>
<path fill="none" stroke="midnightblue" d="M2191.2,-152.456C2440.43,-149.757 3486.42,-136.676 3629,-106 3638.55,-103.946 3648.51,-100.391 3657.44,-96.6356"/>
<polygon fill="midnightblue" stroke="midnightblue" points="3658.93,-99.8036 3666.65,-92.5445 3656.09,-93.4067 3658.93,-99.8036"/>
</g>
<!-- Node43 -->
<g id="node87" class="node"><title>Node43</title>
<polygon fill="white" stroke="#bfbfbf" points="3753.5,-71.5 3753.5,-92.5 3866.5,-92.5 3866.5,-71.5 3753.5,-71.5"/>
<text text-anchor="middle" x="3810" y="-79.5" font-family="Helvetica,sans-Serif" font-size="10.00">QtWidgets/QMenuBar</text>
</g>
<!-- Node1&#45;&gt;Node43 -->
<g id="edge88" class="edge"><title>Node1&#45;&gt;Node43</title>
<path fill="none" stroke="midnightblue" d="M2191.35,-152.465C2452.52,-149.709 3589.93,-136.06 3745,-106 3755.92,-103.884 3767.43,-100.166 3777.68,-96.2789"/>
<polygon fill="midnightblue" stroke="midnightblue" points="3779.06,-99.4957 3787.06,-92.5475 3776.47,-92.9913 3779.06,-99.4957"/>
</g>
<!-- Node44 -->
<g id="node89" class="node"><title>Node44</title>
<polygon fill="white" stroke="#bfbfbf" points="3883.5,-71.5 3883.5,-92.5 4000.5,-92.5 4000.5,-71.5 3883.5,-71.5"/>
<text text-anchor="middle" x="3942" y="-79.5" font-family="Helvetica,sans-Serif" font-size="10.00">QtWidgets/QStatusBar</text>
</g>
<!-- Node1&#45;&gt;Node44 -->
<g id="edge90" class="edge"><title>Node1&#45;&gt;Node44</title>
<path fill="none" stroke="midnightblue" d="M2191.07,-152.563C2464.31,-150.178 3706.27,-137.664 3875,-106 3886.34,-103.871 3898.33,-100.101 3908.98,-96.1702"/>
<polygon fill="midnightblue" stroke="midnightblue" points="3910.26,-99.4274 3918.32,-92.5578 3907.73,-92.8981 3910.26,-99.4274"/>
</g>
<!-- Node45 -->
<g id="node91" class="node"><title>Node45</title>
<polygon fill="white" stroke="#bfbfbf" points="4017.5,-71.5 4017.5,-92.5 4122.5,-92.5 4122.5,-71.5 4017.5,-71.5"/>
<text text-anchor="middle" x="4070" y="-79.5" font-family="Helvetica,sans-Serif" font-size="10.00">QtWidgets/QTabBar</text>
</g>
<!-- Node1&#45;&gt;Node45 -->
<g id="edge92" class="edge"><title>Node1&#45;&gt;Node45</title>
<path fill="none" stroke="midnightblue" d="M2191.36,-152.768C2477.82,-151.376 3826.98,-142.892 4009,-106 4019.1,-103.953 4029.69,-100.352 4039.15,-96.5514"/>
<polygon fill="midnightblue" stroke="midnightblue" points="4040.7,-99.6976 4048.54,-92.5761 4037.97,-93.2514 4040.7,-99.6976"/>
</g>
<!-- Node46 -->
<g id="node93" class="node"><title>Node46</title>
<polygon fill="white" stroke="#bfbfbf" points="4139.5,-71.5 4139.5,-92.5 4246.5,-92.5 4246.5,-71.5 4139.5,-71.5"/>
<text text-anchor="middle" x="4193" y="-79.5" font-family="Helvetica,sans-Serif" font-size="10.00">QtWidgets/QToolBar</text>
</g>
<!-- Node1&#45;&gt;Node46 -->
<g id="edge94" class="edge"><title>Node1&#45;&gt;Node46</title>
<path fill="none" stroke="midnightblue" d="M2191.39,-152.839C2488.94,-151.798 3936.24,-144.761 4131,-106 4141.36,-103.939 4152.23,-100.285 4161.93,-96.4401"/>
<polygon fill="midnightblue" stroke="midnightblue" points="4163.29,-99.6643 4171.17,-92.5839 4160.6,-93.204 4163.29,-99.6643"/>
</g>
<!-- Node47 -->
<g id="node95" class="node"><title>Node47</title>
<polygon fill="white" stroke="#bfbfbf" points="4264,-71.5 4264,-92.5 4388,-92.5 4388,-71.5 4264,-71.5"/>
<text text-anchor="middle" x="4326" y="-79.5" font-family="Helvetica,sans-Serif" font-size="10.00">QtWidgets/QTreeWidget</text>
</g>
<!-- Node1&#45;&gt;Node47 -->
<g id="edge96" class="edge"><title>Node1&#45;&gt;Node47</title>
<path fill="none" stroke="midnightblue" d="M2191.12,-152.784C2498.86,-151.403 4046.47,-142.673 4255,-106 4267.09,-103.873 4279.92,-100.054 4291.29,-96.0784"/>
<polygon fill="midnightblue" stroke="midnightblue" points="4292.66,-99.3023 4300.86,-92.5832 4290.26,-92.7274 4292.66,-99.3023"/>
</g>
<!-- Node48 -->
<g id="node97" class="node"><title>Node48</title>
<polygon fill="white" stroke="#bfbfbf" points="4405.5,-71.5 4405.5,-92.5 4532.5,-92.5 4532.5,-71.5 4405.5,-71.5"/>
<text text-anchor="middle" x="4469" y="-79.5" font-family="Helvetica,sans-Serif" font-size="10.00">QtWidgets/QVBoxLayout</text>
</g>
<!-- Node1&#45;&gt;Node48 -->
<g id="edge98" class="edge"><title>Node1&#45;&gt;Node48</title>
<path fill="none" stroke="midnightblue" d="M2191.25,-152.85C2511.37,-151.821 4173.6,-144.642 4397,-106 4409.25,-103.881 4422.25,-100.063 4433.79,-96.0873"/>
<polygon fill="midnightblue" stroke="midnightblue" points="4435.27,-99.2738 4443.49,-92.5911 4432.9,-92.6883 4435.27,-99.2738"/>
</g>
<!-- Node49 -->
<g id="node99" class="node"><title>Node49</title>
<polygon fill="white" stroke="#bfbfbf" points="4550,-71.5 4550,-92.5 4654,-92.5 4654,-71.5 4550,-71.5"/>
<text text-anchor="middle" x="4602" y="-79.5" font-family="Helvetica,sans-Serif" font-size="10.00">QtWidgets/QWidget</text>
</g>
<!-- Node1&#45;&gt;Node49 -->
<g id="edge100" class="edge"><title>Node1&#45;&gt;Node49</title>
<path fill="none" stroke="midnightblue" d="M2191.19,-152.493C2534.05,-149.16 4421.99,-129.778 4541,-106 4551.1,-103.981 4561.69,-100.388 4571.16,-96.5866"/>
<polygon fill="midnightblue" stroke="midnightblue" points="4572.71,-99.7318 4580.55,-92.6072 4569.98,-93.2867 4572.71,-99.7318"/>
</g>
<!-- Node50 -->
<g id="node101" class="node"><title>Node50</title>
<polygon fill="white" stroke="#bfbfbf" points="4672,-58.5 4672,-105.5 4796,-105.5 4796,-58.5 4672,-58.5"/>
<text text-anchor="start" x="4680" y="-92.5" font-family="Helvetica,sans-Serif" font-size="10.00">/home/travis/build</text>
<text text-anchor="start" x="4680" y="-79.5" font-family="Helvetica,sans-Serif" font-size="10.00">/sup3asc2/sickle/include</text>
<text text-anchor="middle" x="4734" y="-66.5" font-family="Helvetica,sans-Serif" font-size="10.00">/viewport.hpp</text>
</g>
<!-- Node1&#45;&gt;Node50 -->
<g id="edge102" class="edge"><title>Node1&#45;&gt;Node50</title>
<path fill="none" stroke="midnightblue" d="M2191.01,-152.475C2536.5,-148.993 4459.77,-128.735 4661.94,-105.567"/>
<polygon fill="midnightblue" stroke="midnightblue" points="4662.52,-109.019 4671.94,-104.179 4661.56,-102.086 4662.52,-109.019"/>
</g>
<!-- Node3 -->
<g id="node5" class="node"><title>Node3</title>
<a xlink:href="fileloader_8hpp.html" target="_top" xlink:title="fileloader.hpp">
<polygon fill="white" stroke="red" points="0,-0.5 0,-21.5 74,-21.5 74,-0.5 0,-0.5"/>
<text text-anchor="middle" x="37" y="-8.5" font-family="Helvetica,sans-Serif" font-size="10.00">fileloader.hpp</text>
</a>
</g>
<!-- Node2&#45;&gt;Node3 -->
<g id="edge4" class="edge"><title>Node2&#45;&gt;Node3</title>
<path fill="none" stroke="midnightblue" d="M389.499,-75.349C324.586,-65.4375 199.938,-45.6151 84.2055,-22.1549"/>
<polygon fill="midnightblue" stroke="midnightblue" points="84.6086,-18.6651 74.1107,-20.0945 83.2087,-25.5237 84.6086,-18.6651"/>
</g>
<!-- Node4 -->
<g id="node7" class="node"><title>Node4</title>
<polygon fill="white" stroke="#bfbfbf" points="92,-0.5 92,-21.5 172,-21.5 172,-0.5 92,-0.5"/>
<text text-anchor="middle" x="132" y="-8.5" font-family="Helvetica,sans-Serif" font-size="10.00">QMainWindow</text>
</g>
<!-- Node2&#45;&gt;Node4 -->
<g id="edge6" class="edge"><title>Node2&#45;&gt;Node4</title>
<path fill="none" stroke="midnightblue" d="M389.439,-71.5237C334.182,-58.5328 240.233,-36.4456 182.401,-22.8493"/>
<polygon fill="midnightblue" stroke="midnightblue" points="182.927,-19.3775 172.391,-20.496 181.325,-26.1917 182.927,-19.3775"/>
</g>
<!-- Node5 -->
<g id="node9" class="node"><title>Node5</title>
<polygon fill="white" stroke="#bfbfbf" points="190,-0.5 190,-21.5 284,-21.5 284,-0.5 190,-0.5"/>
<text text-anchor="middle" x="237" y="-8.5" font-family="Helvetica,sans-Serif" font-size="10.00">QTreeWidgetItem</text>
</g>
<!-- Node2&#45;&gt;Node5 -->
<g id="edge8" class="edge"><title>Node2&#45;&gt;Node5</title>
<path fill="none" stroke="midnightblue" d="M404.507,-71.3706C370.317,-59.0481 313.834,-38.6914 276.03,-25.0667"/>
<polygon fill="midnightblue" stroke="midnightblue" points="276.967,-21.6839 266.372,-21.586 274.593,-28.2693 276.967,-21.6839"/>
</g>
<!-- Node6 -->
<g id="node11" class="node"><title>Node6</title>
<polygon fill="white" stroke="#bfbfbf" points="302,-0.5 302,-21.5 382,-21.5 382,-0.5 302,-0.5"/>
<text text-anchor="middle" x="342" y="-8.5" font-family="Helvetica,sans-Serif" font-size="10.00">QPluginLoader</text>
</g>
<!-- Node2&#45;&gt;Node6 -->
<g id="edge10" class="edge"><title>Node2&#45;&gt;Node6</title>
<path fill="none" stroke="midnightblue" d="M420.027,-71.2166C405.081,-59.6818 381.178,-41.2354 363.763,-27.7955"/>
<polygon fill="midnightblue" stroke="midnightblue" points="365.858,-24.991 355.803,-21.6522 361.581,-30.5327 365.858,-24.991"/>
</g>
<!-- Node7 -->
<g id="node13" class="node"><title>Node7</title>
<polygon fill="white" stroke="#bfbfbf" points="400,-0.5 400,-21.5 468,-21.5 468,-0.5 400,-0.5"/>
<text text-anchor="middle" x="434" y="-8.5" font-family="Helvetica,sans-Serif" font-size="10.00">QJsonArray</text>
</g>
<!-- Node2&#45;&gt;Node7 -->
<g id="edge12" class="edge"><title>Node2&#45;&gt;Node7</title>
<path fill="none" stroke="midnightblue" d="M434,-71.2166C434,-60.8953 434,-45.0401 434,-32.1896"/>
<polygon fill="midnightblue" stroke="midnightblue" points="437.5,-31.8848 434,-21.8849 430.5,-31.8849 437.5,-31.8848"/>
</g>
<!-- Node8 -->
<g id="node15" class="node"><title>Node8</title>
<polygon fill="white" stroke="#bfbfbf" points="486,-0.5 486,-21.5 556,-21.5 556,-0.5 486,-0.5"/>
<text text-anchor="middle" x="521" y="-8.5" font-family="Helvetica,sans-Serif" font-size="10.00">QCheckBox</text>
</g>
<!-- Node2&#45;&gt;Node8 -->
<g id="edge14" class="edge"><title>Node2&#45;&gt;Node8</title>
<path fill="none" stroke="midnightblue" d="M447.213,-71.2166C461.219,-59.7866 483.541,-41.5702 499.969,-28.1633"/>
<polygon fill="midnightblue" stroke="midnightblue" points="502.413,-30.6866 507.947,-21.6522 497.987,-25.2633 502.413,-30.6866"/>
</g>
<!-- Node9 -->
<g id="node17" class="node"><title>Node9</title>
<polygon fill="white" stroke="#bfbfbf" points="573.5,-0.5 573.5,-21.5 646.5,-21.5 646.5,-0.5 573.5,-0.5"/>
<text text-anchor="middle" x="610" y="-8.5" font-family="Helvetica,sans-Serif" font-size="10.00">QComboBox</text>
</g>
<!-- Node2&#45;&gt;Node9 -->
<g id="edge16" class="edge"><title>Node2&#45;&gt;Node9</title>
<path fill="none" stroke="midnightblue" d="M460.349,-71.3706C490.635,-59.153 540.499,-39.0373 574.264,-25.416"/>
<polygon fill="midnightblue" stroke="midnightblue" points="575.794,-28.573 583.759,-21.586 573.175,-22.0813 575.794,-28.573"/>
</g>
<!-- Node10 -->
<g id="node19" class="node"><title>Node10</title>
<polygon fill="white" stroke="#bfbfbf" points="663.5,-0.5 663.5,-21.5 722.5,-21.5 722.5,-0.5 663.5,-0.5"/>
<text text-anchor="middle" x="693" y="-8.5" font-family="Helvetica,sans-Serif" font-size="10.00">functional</text>
</g>
<!-- Node2&#45;&gt;Node10 -->
<g id="edge18" class="edge"><title>Node2&#45;&gt;Node10</title>
<path fill="none" stroke="midnightblue" d="M473.577,-71.4681C515.854,-60.1706 585.075,-41.5373 653.496,-22.3972"/>
<polygon fill="midnightblue" stroke="midnightblue" points="654.458,-25.7626 663.143,-19.6938 652.569,-19.0223 654.458,-25.7626"/>
</g>
<!-- Node11&#45;&gt;Node12 -->
<g id="edge22" class="edge"><title>Node11&#45;&gt;Node12</title>
<path fill="none" stroke="midnightblue" d="M699.783,-71.2166C710.939,-60.0612 728.559,-42.4415 741.862,-29.1377"/>
<polygon fill="midnightblue" stroke="midnightblue" points="744.519,-31.4308 749.115,-21.8849 739.569,-26.4811 744.519,-31.4308"/>
</g>
<!-- Node19&#45;&gt;Node18 -->
<g id="edge38" class="edge"><title>Node19&#45;&gt;Node18</title>
<path fill="none" stroke="midnightblue" d="M1277.14,-71.2166C1272.35,-60.5825 1264.91,-44.0741 1259.03,-31.0299"/>
<polygon fill="midnightblue" stroke="midnightblue" points="1262.21,-29.5635 1254.91,-21.8849 1255.82,-32.4398 1262.21,-29.5635"/>
</g>
</g>
</svg>
