<?xml version="1.0" encoding="UTF-8" standalone="no"?>
<!DOCTYPE svg PUBLIC "-//W3C//DTD SVG 1.1//EN"
 "http://www.w3.org/Graphics/SVG/1.1/DTD/svg11.dtd">
<!-- Generated by graphviz version 2.26.3 (20100126.1600)
 -->
<!-- Title: include/material.hpp Pages: 1 -->
<!--zoomable 262 -->
<svg id="main" version="1.1" xmlns="http://www.w3.org/2000/svg" xmlns:xlink="http://www.w3.org/1999/xlink" xml:space="preserve" onload="init(evt)">
<style type="text/css"><![CDATA[
.edge:hover path { stroke: red; }
.edge:hover polygon { stroke: red; fill: red; }
]]></style>
<script type="text/javascript"><![CDATA[
var edges = document.getElementsByTagName('g');
if (edges && edges.length) {
  for (var i=0;i<edges.length;i++) {
    if (edges[i].id.substr(0,4)=='edge') {
      edges[i].setAttribute('class','edge');
    }
  }
}
]]></script>
        <defs>
                <circle id="rim" cx="0" cy="0" r="7"/>
                <circle id="rim2" cx="0" cy="0" r="3.5"/>
                <g id="zoomPlus">
                        <use xlink:href="#rim" fill="#404040">
                                <set attributeName="fill" to="#808080" begin="zoomplus.mouseover" end="zoomplus.mouseout"/>
                        </use>
                        <path d="M-4,0h8M0,-4v8" fill="none" stroke="white" stroke-width="1.5" pointer-events="none"/>
                </g>
                <g id="zoomMin">
                        <use xlink:href="#rim" fill="#404040">
                                <set attributeName="fill" to="#808080" begin="zoomminus.mouseover" end="zoomminus.mouseout"/>
                        </use>
                        <path d="M-4,0h8" fill="none" stroke="white" stroke-width="1.5" pointer-events="none"/>
                </g>
                <g id="dirArrow">
                        <path fill="none" stroke="white" stroke-width="1.5" d="M0,-3.0v7 M-2.5,-0.5L0,-3.0L2.5,-0.5"/>
                </g>
               <g id="resetDef">
                       <use xlink:href="#rim2" fill="#404040">
                               <set attributeName="fill" to="#808080" begin="reset.mouseover" end="reset.mouseout"/>
                       </use>
               </g>
        </defs>

<script type="text/javascript">
var viewWidth = 1472;
var viewHeight = 262;
var sectionId = 'dynsection-1';
</script>
<script xlink:href="svgpan.js"/>
<svg id="graph" class="graph">
<g id="viewport">
<title>include/material.hpp</title>
<polygon fill="white" stroke="white" points="-4,5 -4,-258 1469,-258 1469,5 -4,5"/>
<!-- Node1 -->
<g id="node1" class="node"><title>Node1</title>
<polygon fill="#bfbfbf" stroke="black" points="694,-232.5 694,-253.5 798,-253.5 798,-232.5 694,-232.5"/>
<text text-anchor="middle" x="746" y="-240.5" font-family="Helvetica,sans-Serif" font-size="10.00">include/material.hpp</text>
</g>
<!-- Node2 -->
<g id="node3" class="node"><title>Node2</title>
<a xlink:href="geometry_8hpp.html" target="_top" xlink:title="include/geometry.hpp">
<polygon fill="white" stroke="black" points="633,-174.5 633,-195.5 743,-195.5 743,-174.5 633,-174.5"/>
<text text-anchor="middle" x="688" y="-182.5" font-family="Helvetica,sans-Serif" font-size="10.00">include/geometry.hpp</text>
</a>
</g>
<!-- Node1&#45;&gt;Node2 -->
<g id="edge2" class="edge"><title>Node1&#45;&gt;Node2</title>
<path fill="none" stroke="midnightblue" d="M728.118,-225.118C718.438,-215.438 706.81,-203.81 698.571,-195.571"/>
<polygon fill="midnightblue" stroke="midnightblue" points="725.816,-227.766 735.362,-232.362 730.766,-222.816 725.816,-227.766"/>
</g>
<!-- Node29 -->
<g id="node81" class="node"><title>Node29</title>
<a xlink:href="material_8cpp.html" target="_top" xlink:title="src/material.cpp">
<polygon fill="white" stroke="black" points="761,-174.5 761,-195.5 847,-195.5 847,-174.5 761,-174.5"/>
<text text-anchor="middle" x="804" y="-182.5" font-family="Helvetica,sans-Serif" font-size="10.00">src/material.cpp</text>
</a>
</g>
<!-- Node1&#45;&gt;Node29 -->
<g id="edge104" class="edge"><title>Node1&#45;&gt;Node29</title>
<path fill="none" stroke="midnightblue" d="M763.882,-225.118C773.562,-215.438 785.19,-203.81 793.429,-195.571"/>
<polygon fill="midnightblue" stroke="midnightblue" points="761.234,-222.816 756.638,-232.362 766.184,-227.766 761.234,-222.816"/>
</g>
<!-- Node3 -->
<g id="node5" class="node"><title>Node3</title>
<a xlink:href="cube_8hpp.html" target="_top" xlink:title="include/cube.hpp">
<polygon fill="white" stroke="black" points="1008,-116.5 1008,-137.5 1098,-137.5 1098,-116.5 1008,-116.5"/>
<text text-anchor="middle" x="1053" y="-124.5" font-family="Helvetica,sans-Serif" font-size="10.00">include/cube.hpp</text>
</a>
</g>
<!-- Node2&#45;&gt;Node3 -->
<g id="edge4" class="edge"><title>Node2&#45;&gt;Node3</title>
<path fill="none" stroke="midnightblue" d="M753.084,-173.839C849.688,-158.051 950.883,-142.495 1007.84,-133.832"/>
<polygon fill="midnightblue" stroke="midnightblue" points="752.452,-170.396 743.149,-175.466 753.583,-177.304 752.452,-170.396"/>
</g>
<!-- Node8 -->
<g id="node15" class="node"><title>Node8</title>
<a xlink:href="geometry_8cpp.html" target="_top" xlink:title="src/geometry.cpp">
<polygon fill="white" stroke="black" points="1372,-0.5 1372,-21.5 1464,-21.5 1464,-0.5 1372,-0.5"/>
<text text-anchor="middle" x="1418" y="-8.5" font-family="Helvetica,sans-Serif" font-size="10.00">src/geometry.cpp</text>
</a>
</g>
<!-- Node2&#45;&gt;Node8 -->
<g id="edge92" class="edge"><title>Node2&#45;&gt;Node8</title>
<path fill="none" stroke="midnightblue" d="M753.149,-173.932C1001.1,-141.334 1080.02,-179.546 1305,-80 1342.42,-63.4443 1382.43,-36.5527 1403.34,-21.7025"/>
<polygon fill="midnightblue" stroke="midnightblue" points="752.567,-170.479 743.121,-175.277 753.497,-177.417 752.567,-170.479"/>
</g>
<!-- Node15 -->
<g id="node30" class="node"><title>Node15</title>
<a xlink:href="sphere_8hpp.html" target="_top" xlink:title="include/sphere.hpp">
<polygon fill="white" stroke="black" points="639,-116.5 639,-137.5 737,-137.5 737,-116.5 639,-116.5"/>
<text text-anchor="middle" x="688" y="-124.5" font-family="Helvetica,sans-Serif" font-size="10.00">include/sphere.hpp</text>
</a>
</g>
<!-- Node2&#45;&gt;Node15 -->
<g id="edge30" class="edge"><title>Node2&#45;&gt;Node15</title>
<path fill="none" stroke="midnightblue" d="M688,-164.191C688,-155.168 688,-144.994 688,-137.571"/>
<polygon fill="midnightblue" stroke="midnightblue" points="684.5,-164.362 688,-174.362 691.5,-164.362 684.5,-164.362"/>
</g>
<!-- Node18 -->
<g id="node39" class="node"><title>Node18</title>
<a xlink:href="pyramide_8hpp.html" target="_top" xlink:title="include/pyramide.hpp">
<polygon fill="white" stroke="black" points="429.5,-58.5 429.5,-79.5 538.5,-79.5 538.5,-58.5 429.5,-58.5"/>
<text text-anchor="middle" x="484" y="-66.5" font-family="Helvetica,sans-Serif" font-size="10.00">include/pyramide.hpp</text>
</a>
</g>
<!-- Node2&#45;&gt;Node18 -->
<g id="edge42" class="edge"><title>Node2&#45;&gt;Node18</title>
<path fill="none" stroke="midnightblue" d="M660.247,-169.219C617.938,-145.161 538.435,-99.9533 502.486,-79.5117"/>
<polygon fill="midnightblue" stroke="midnightblue" points="658.751,-172.394 669.174,-174.295 662.211,-166.309 658.751,-172.394"/>
</g>
<!-- Node20 -->
<g id="node46" class="node"><title>Node20</title>
<a xlink:href="cylinder_8hpp.html" target="_top" xlink:title="include/cylinder.hpp">
<polygon fill="white" stroke="black" points="101.5,-58.5 101.5,-79.5 204.5,-79.5 204.5,-58.5 101.5,-58.5"/>
<text text-anchor="middle" x="153" y="-66.5" font-family="Helvetica,sans-Serif" font-size="10.00">include/cylinder.hpp</text>
</a>
</g>
<!-- Node2&#45;&gt;Node20 -->
<g id="edge52" class="edge"><title>Node2&#45;&gt;Node20</title>
<path fill="none" stroke="midnightblue" d="M622.295,-182.675C545.805,-178.642 416.263,-167.675 309,-138 257.339,-123.707 200.746,-95.1328 172.021,-79.6166"/>
<polygon fill="midnightblue" stroke="midnightblue" points="622.565,-186.193 632.728,-183.2 622.917,-179.202 622.565,-186.193"/>
</g>
<!-- Node22 -->
<g id="node53" class="node"><title>Node22</title>
<a xlink:href="line_8hpp.html" target="_top" xlink:title="include/line.hpp">
<polygon fill="white" stroke="black" points="0,-58.5 0,-79.5 84,-79.5 84,-58.5 0,-58.5"/>
<text text-anchor="middle" x="42" y="-66.5" font-family="Helvetica,sans-Serif" font-size="10.00">include/line.hpp</text>
</a>
</g>
<!-- Node2&#45;&gt;Node22 -->
<g id="edge62" class="edge"><title>Node2&#45;&gt;Node22</title>
<path fill="none" stroke="midnightblue" d="M622.657,-182.442C536.104,-178.052 379.089,-166.6 248,-138 181.302,-123.448 105.941,-94.9808 67.509,-79.5498"/>
<polygon fill="midnightblue" stroke="midnightblue" points="622.697,-185.948 632.857,-182.943 623.04,-178.957 622.697,-185.948"/>
</g>
<!-- Node24 -->
<g id="node60" class="node"><title>Node24</title>
<a xlink:href="rectangle_8hpp.html" target="_top" xlink:title="include/rectangle.hpp">
<polygon fill="white" stroke="black" points="745.5,-58.5 745.5,-79.5 854.5,-79.5 854.5,-58.5 745.5,-58.5"/>
<text text-anchor="middle" x="800" y="-66.5" font-family="Helvetica,sans-Serif" font-size="10.00">include/rectangle.hpp</text>
</a>
</g>
<!-- Node2&#45;&gt;Node24 -->
<g id="edge72" class="edge"><title>Node2&#45;&gt;Node24</title>
<path fill="none" stroke="midnightblue" d="M711.388,-167.994C722.389,-159.519 735.389,-148.793 746,-138 764.556,-119.126 782.834,-94.0326 792.64,-79.8936"/>
<polygon fill="midnightblue" stroke="midnightblue" points="708.951,-165.448 703.078,-174.266 713.168,-171.036 708.951,-165.448"/>
</g>
<!-- Node26 -->
<g id="node67" class="node"><title>Node26</title>
<a xlink:href="trigger_8hpp.html" target="_top" xlink:title="include/trigger.hpp">
<polygon fill="white" stroke="black" points="872,-58.5 872,-79.5 968,-79.5 968,-58.5 872,-58.5"/>
<text text-anchor="middle" x="920" y="-66.5" font-family="Helvetica,sans-Serif" font-size="10.00">include/trigger.hpp</text>
</a>
</g>
<!-- Node2&#45;&gt;Node26 -->
<g id="edge82" class="edge"><title>Node2&#45;&gt;Node26</title>
<path fill="none" stroke="midnightblue" d="M718.358,-169.821C766.156,-145.922 857.75,-100.125 898.977,-79.5117"/>
<polygon fill="midnightblue" stroke="midnightblue" points="716.789,-166.692 709.41,-174.295 719.92,-172.953 716.789,-166.692"/>
</g>
<!-- Node27 -->
<g id="node74" class="node"><title>Node27</title>
<a xlink:href="group_8hpp.html" target="_top" xlink:title="include/group.hpp">
<polygon fill="white" stroke="black" points="317.5,-116.5 317.5,-137.5 410.5,-137.5 410.5,-116.5 317.5,-116.5"/>
<text text-anchor="middle" x="364" y="-124.5" font-family="Helvetica,sans-Serif" font-size="10.00">include/group.hpp</text>
</a>
</g>
<!-- Node2&#45;&gt;Node27 -->
<g id="edge94" class="edge"><title>Node2&#45;&gt;Node27</title>
<path fill="none" stroke="midnightblue" d="M622.47,-173.269C559.63,-162.02 466.326,-145.318 410.692,-135.358"/>
<polygon fill="midnightblue" stroke="midnightblue" points="622.21,-176.778 632.671,-175.095 623.444,-169.888 622.21,-176.778"/>
</g>
<!-- Node4 -->
<g id="node7" class="node"><title>Node4</title>
<a xlink:href="viewport_8hpp.html" target="_top" xlink:title="include/viewport.hpp">
<polygon fill="white" stroke="black" points="1100,-58.5 1100,-79.5 1206,-79.5 1206,-58.5 1100,-58.5"/>
<text text-anchor="middle" x="1153" y="-66.5" font-family="Helvetica,sans-Serif" font-size="10.00">include/viewport.hpp</text>
</a>
</g>
<!-- Node3&#45;&gt;Node4 -->
<g id="edge6" class="edge"><title>Node3&#45;&gt;Node4</title>
<path fill="none" stroke="midnightblue" d="M1080.41,-111.101C1097.71,-101.066 1119.58,-88.3808 1134.77,-79.5707"/>
<polygon fill="midnightblue" stroke="midnightblue" points="1078.24,-108.317 1071.34,-116.362 1081.75,-114.372 1078.24,-108.317"/>
</g>
<!-- Node6 -->
<g id="node11" class="node"><title>Node6</title>
<a xlink:href="actorbuilder_8cpp.html" target="_top" xlink:title="src/actorbuilder.cpp">
<polygon fill="white" stroke="black" points="762,-0.5 762,-21.5 864,-21.5 864,-0.5 762,-0.5"/>
<text text-anchor="middle" x="813" y="-8.5" font-family="Helvetica,sans-Serif" font-size="10.00">src/actorbuilder.cpp</text>
</a>
</g>
<!-- Node3&#45;&gt;Node6 -->
<g id="edge22" class="edge"><title>Node3&#45;&gt;Node6</title>
<path fill="none" stroke="midnightblue" d="M1041.17,-107.91C1030.46,-92.2188 1013.3,-70.5915 993,-58 971.592,-44.7202 909.434,-30.1723 864.14,-20.833"/>
<polygon fill="midnightblue" stroke="midnightblue" points="1038.29,-109.903 1046.7,-116.35 1044.14,-106.067 1038.29,-109.903"/>
</g>
<!-- Node12 -->
<g id="node24" class="node"><title>Node12</title>
<a xlink:href="cube_8cpp.html" target="_top" xlink:title="src/cube.cpp">
<polygon fill="white" stroke="black" points="1223.5,-58.5 1223.5,-79.5 1296.5,-79.5 1296.5,-58.5 1223.5,-58.5"/>
<text text-anchor="middle" x="1260" y="-66.5" font-family="Helvetica,sans-Serif" font-size="10.00">src/cube.cpp</text>
</a>
</g>
<!-- Node3&#45;&gt;Node12 -->
<g id="edge24" class="edge"><title>Node3&#45;&gt;Node12</title>
<path fill="none" stroke="midnightblue" d="M1100.16,-113.786C1137.59,-103.299 1189.16,-88.8496 1223.49,-79.2305"/>
<polygon fill="midnightblue" stroke="midnightblue" points="1099.17,-110.428 1090.49,-116.497 1101.06,-117.169 1099.17,-110.428"/>
</g>
<!-- Node13 -->
<g id="node26" class="node"><title>Node13</title>
<a xlink:href="trigger_8cpp.html" target="_top" xlink:title="src/trigger.cpp">
<polygon fill="white" stroke="black" points="881.5,-0.5 881.5,-21.5 960.5,-21.5 960.5,-0.5 881.5,-0.5"/>
<text text-anchor="middle" x="921" y="-8.5" font-family="Helvetica,sans-Serif" font-size="10.00">src/trigger.cpp</text>
</a>
</g>
<!-- Node3&#45;&gt;Node13 -->
<g id="edge26" class="edge"><title>Node3&#45;&gt;Node13</title>
<path fill="none" stroke="midnightblue" d="M1057.01,-106.2C1058.66,-91.3304 1058.23,-71.6204 1048,-58 1037.16,-43.5739 993.66,-29.5499 960.563,-20.6324"/>
<polygon fill="midnightblue" stroke="midnightblue" points="1053.49,-106.037 1055.47,-116.447 1060.42,-107.079 1053.49,-106.037"/>
</g>
<!-- Node14 -->
<g id="node28" class="node"><title>Node14</title>
<a xlink:href="world_8cpp.html" target="_top" xlink:title="src/world.cpp">
<polygon fill="white" stroke="black" points="555.5,-58.5 555.5,-79.5 630.5,-79.5 630.5,-58.5 555.5,-58.5"/>
<text text-anchor="middle" x="593" y="-66.5" font-family="Helvetica,sans-Serif" font-size="10.00">src/world.cpp</text>
</a>
</g>
<!-- Node3&#45;&gt;Node14 -->
<g id="edge28" class="edge"><title>Node3&#45;&gt;Node14</title>
<path fill="none" stroke="midnightblue" d="M997.414,-122.852C917.66,-116.411 766.335,-102.367 639,-80 636.25,-79.517 633.42,-78.9683 630.578,-78.3798"/>
<polygon fill="midnightblue" stroke="midnightblue" points="997.468,-126.367 1007.71,-123.674 998.025,-119.39 997.468,-126.367"/>
</g>
<!-- Node5 -->
<g id="node9" class="node"><title>Node5</title>
<a xlink:href="actor_8cpp.html" target="_top" xlink:title="src/actor.cpp">
<polygon fill="white" stroke="black" points="1084,-0.5 1084,-21.5 1158,-21.5 1158,-0.5 1084,-0.5"/>
<text text-anchor="middle" x="1121" y="-8.5" font-family="Helvetica,sans-Serif" font-size="10.00">src/actor.cpp</text>
</a>
</g>
<!-- Node4&#45;&gt;Node5 -->
<g id="edge8" class="edge"><title>Node4&#45;&gt;Node5</title>
<path fill="none" stroke="midnightblue" d="M1142.17,-49.3733C1137.04,-40.0682 1131.11,-29.3204 1126.83,-21.5707"/>
<polygon fill="midnightblue" stroke="midnightblue" points="1139.24,-51.2969 1147.13,-58.3619 1145.36,-47.9153 1139.24,-51.2969"/>
</g>
<!-- Node4&#45;&gt;Node6 -->
<g id="edge10" class="edge"><title>Node4&#45;&gt;Node6</title>
<path fill="none" stroke="midnightblue" d="M1089.9,-58.6853C1033.12,-49.3381 947.423,-35.0675 873,-22 870.079,-21.4872 867.08,-20.955 864.054,-20.4137"/>
<polygon fill="midnightblue" stroke="midnightblue" points="1089.37,-62.1452 1099.8,-60.3144 1090.5,-55.2379 1089.37,-62.1452"/>
</g>
<!-- Node7 -->
<g id="node13" class="node"><title>Node7</title>
<a xlink:href="fileloader_8cpp.html" target="_top" xlink:title="src/fileloader.cpp">
<polygon fill="white" stroke="black" points="1175.5,-0.5 1175.5,-21.5 1266.5,-21.5 1266.5,-0.5 1175.5,-0.5"/>
<text text-anchor="middle" x="1221" y="-8.5" font-family="Helvetica,sans-Serif" font-size="10.00">src/fileloader.cpp</text>
</a>
</g>
<!-- Node4&#45;&gt;Node7 -->
<g id="edge12" class="edge"><title>Node4&#45;&gt;Node7</title>
<path fill="none" stroke="midnightblue" d="M1173.29,-51.6908C1184.77,-41.8996 1198.76,-29.973 1208.61,-21.5707"/>
<polygon fill="midnightblue" stroke="midnightblue" points="1170.81,-49.2095 1165.47,-58.3619 1175.35,-54.5353 1170.81,-49.2095"/>
</g>
<!-- Node4&#45;&gt;Node8 -->
<g id="edge14" class="edge"><title>Node4&#45;&gt;Node8</title>
<path fill="none" stroke="midnightblue" d="M1210.97,-56.3114C1259.22,-45.7508 1327.02,-30.9134 1371.7,-21.1337"/>
<polygon fill="midnightblue" stroke="midnightblue" points="1210.01,-52.9394 1200.99,-58.4966 1211.51,-59.7776 1210.01,-52.9394"/>
</g>
<!-- Node9 -->
<g id="node17" class="node"><title>Node9</title>
<a xlink:href="light_8cpp.html" target="_top" xlink:title="src/light.cpp">
<polygon fill="white" stroke="black" points="1284,-0.5 1284,-21.5 1354,-21.5 1354,-0.5 1284,-0.5"/>
<text text-anchor="middle" x="1319" y="-8.5" font-family="Helvetica,sans-Serif" font-size="10.00">src/light.cpp</text>
</a>
</g>
<!-- Node4&#45;&gt;Node9 -->
<g id="edge16" class="edge"><title>Node4&#45;&gt;Node9</title>
<path fill="none" stroke="midnightblue" d="M1192.66,-55.1443C1222.2,-44.8229 1261.92,-30.9439 1288.88,-21.5231"/>
<polygon fill="midnightblue" stroke="midnightblue" points="1191.35,-51.894 1183.06,-58.4966 1193.66,-58.5023 1191.35,-51.894"/>
</g>
<!-- Node10 -->
<g id="node19" class="node"><title>Node10</title>
<a xlink:href="spotlight_8cpp.html" target="_top" xlink:title="src/spotlight.cpp">
<polygon fill="white" stroke="black" points="977.5,-0.5 977.5,-21.5 1066.5,-21.5 1066.5,-0.5 977.5,-0.5"/>
<text text-anchor="middle" x="1022" y="-8.5" font-family="Helvetica,sans-Serif" font-size="10.00">src/spotlight.cpp</text>
</a>
</g>
<!-- Node4&#45;&gt;Node10 -->
<g id="edge18" class="edge"><title>Node4&#45;&gt;Node10</title>
<path fill="none" stroke="midnightblue" d="M1119.9,-54.3431C1096.87,-44.1502 1066.72,-30.7977 1045.99,-21.6212"/>
<polygon fill="midnightblue" stroke="midnightblue" points="1118.72,-57.6485 1129.28,-58.4966 1121.55,-51.2478 1118.72,-57.6485"/>
</g>
<!-- Node11 -->
<g id="node21" class="node"><title>Node11</title>
<a xlink:href="viewport_8cpp.html" target="_top" xlink:title="src/viewport.cpp">
<polygon fill="white" stroke="black" points="545.5,-0.5 545.5,-21.5 634.5,-21.5 634.5,-0.5 545.5,-0.5"/>
<text text-anchor="middle" x="590" y="-8.5" font-family="Helvetica,sans-Serif" font-size="10.00">src/viewport.cpp</text>
</a>
</g>
<!-- Node4&#45;&gt;Node11 -->
<g id="edge20" class="edge"><title>Node4&#45;&gt;Node11</title>
<path fill="none" stroke="midnightblue" d="M1089.71,-65.4691C993.036,-59.5571 802.941,-45.8898 643,-22 640.305,-21.5974 637.54,-21.1449 634.756,-20.6589"/>
<polygon fill="midnightblue" stroke="midnightblue" points="1089.71,-68.9752 1099.9,-66.0846 1090.13,-61.988 1089.71,-68.9752"/>
</g>
<!-- Node15&#45;&gt;Node4 -->
<g id="edge32" class="edge"><title>Node15&#45;&gt;Node4</title>
<path fill="none" stroke="midnightblue" d="M747.518,-119.576C838.949,-108.172 1012.53,-86.5208 1099.92,-75.6206"/>
<polygon fill="midnightblue" stroke="midnightblue" points="746.813,-116.137 737.323,-120.848 747.679,-123.083 746.813,-116.137"/>
</g>
<!-- Node15&#45;&gt;Node6 -->
<g id="edge34" class="edge"><title>Node15&#45;&gt;Node6</title>
<path fill="none" stroke="midnightblue" d="M747.232,-121.452C827.429,-113.333 962.294,-97.2903 977,-80 983.335,-72.5518 982.885,-65.8084 977,-58 969.803,-48.4501 906.417,-32.2443 860.601,-21.5811"/>
<polygon fill="midnightblue" stroke="midnightblue" points="746.858,-117.972 737.256,-122.449 747.555,-124.937 746.858,-117.972"/>
</g>
<!-- Node15&#45;&gt;Node14 -->
<g id="edge40" class="edge"><title>Node15&#45;&gt;Node14</title>
<path fill="none" stroke="midnightblue" d="M661.958,-111.101C645.522,-101.066 624.744,-88.3808 610.314,-79.5707"/>
<polygon fill="midnightblue" stroke="midnightblue" points="660.217,-114.138 670.576,-116.362 663.864,-108.164 660.217,-114.138"/>
</g>
<!-- Node16 -->
<g id="node34" class="node"><title>Node16</title>
<a xlink:href="mainwindow_8cpp.html" target="_top" xlink:title="src/mainwindow.cpp">
<polygon fill="white" stroke="black" points="312,-0.5 312,-21.5 418,-21.5 418,-0.5 312,-0.5"/>
<text text-anchor="middle" x="365" y="-8.5" font-family="Helvetica,sans-Serif" font-size="10.00">src/mainwindow.cpp</text>
</a>
</g>
<!-- Node15&#45;&gt;Node16 -->
<g id="edge36" class="edge"><title>Node15&#45;&gt;Node16</title>
<path fill="none" stroke="midnightblue" d="M628.697,-121.43C561.047,-114.238 455.345,-100.199 421,-80 396.93,-65.8438 378.902,-37.2127 370.405,-21.6517"/>
<polygon fill="midnightblue" stroke="midnightblue" points="628.491,-124.927 638.8,-122.483 629.217,-117.965 628.491,-124.927"/>
</g>
<!-- Node17 -->
<g id="node36" class="node"><title>Node17</title>
<a xlink:href="sphere_8cpp.html" target="_top" xlink:title="src/sphere.cpp">
<polygon fill="white" stroke="black" points="647.5,-58.5 647.5,-79.5 728.5,-79.5 728.5,-58.5 647.5,-58.5"/>
<text text-anchor="middle" x="688" y="-66.5" font-family="Helvetica,sans-Serif" font-size="10.00">src/sphere.cpp</text>
</a>
</g>
<!-- Node15&#45;&gt;Node17 -->
<g id="edge38" class="edge"><title>Node15&#45;&gt;Node17</title>
<path fill="none" stroke="midnightblue" d="M688,-106.191C688,-97.1684 688,-86.9941 688,-79.5707"/>
<polygon fill="midnightblue" stroke="midnightblue" points="684.5,-106.362 688,-116.362 691.5,-106.362 684.5,-106.362"/>
</g>
<!-- Node18&#45;&gt;Node6 -->
<g id="edge44" class="edge"><title>Node18&#45;&gt;Node6</title>
<path fill="none" stroke="midnightblue" d="M548.926,-57.663C626.904,-44.0457 747.955,-22.9032 753,-22 755.919,-21.4775 758.917,-20.9376 761.942,-20.3905"/>
<polygon fill="midnightblue" stroke="midnightblue" points="547.946,-54.281 538.697,-59.4491 549.15,-61.1766 547.946,-54.281"/>
</g>
<!-- Node18&#45;&gt;Node11 -->
<g id="edge50" class="edge"><title>Node18&#45;&gt;Node11</title>
<path fill="none" stroke="midnightblue" d="M512.296,-53.5175C530.752,-43.4189 554.356,-30.5032 570.681,-21.5707"/>
<polygon fill="midnightblue" stroke="midnightblue" points="510.535,-50.4913 503.442,-58.3619 513.895,-56.6322 510.535,-50.4913"/>
</g>
<!-- Node18&#45;&gt;Node16 -->
<g id="edge46" class="edge"><title>Node18&#45;&gt;Node16</title>
<path fill="none" stroke="midnightblue" d="M453.366,-54.0693C432.526,-43.9121 405.451,-30.7157 386.792,-21.6212"/>
<polygon fill="midnightblue" stroke="midnightblue" points="451.927,-57.2615 462.45,-58.4966 454.994,-50.9691 451.927,-57.2615"/>
</g>
<!-- Node19 -->
<g id="node43" class="node"><title>Node19</title>
<a xlink:href="pyramide_8cpp.html" target="_top" xlink:title="src/pyramide.cpp">
<polygon fill="white" stroke="black" points="436,-0.5 436,-21.5 528,-21.5 528,-0.5 436,-0.5"/>
<text text-anchor="middle" x="482" y="-8.5" font-family="Helvetica,sans-Serif" font-size="10.00">src/pyramide.cpp</text>
</a>
</g>
<!-- Node18&#45;&gt;Node19 -->
<g id="edge48" class="edge"><title>Node18&#45;&gt;Node19</title>
<path fill="none" stroke="midnightblue" d="M483.282,-48.1906C482.971,-39.1684 482.62,-28.9941 482.365,-21.5707"/>
<polygon fill="midnightblue" stroke="midnightblue" points="479.791,-48.4885 483.633,-58.3619 486.786,-48.2472 479.791,-48.4885"/>
</g>
<!-- Node20&#45;&gt;Node6 -->
<g id="edge54" class="edge"><title>Node20&#45;&gt;Node6</title>
<path fill="none" stroke="midnightblue" d="M214.575,-61.706C226.643,-60.3845 239.212,-59.0838 251,-58 473.745,-37.5205 531.102,-50.2107 753,-22 755.942,-21.626 758.957,-21.2023 761.996,-20.7441"/>
<polygon fill="midnightblue" stroke="midnightblue" points="214.136,-58.2332 204.584,-62.8166 214.909,-65.1903 214.136,-58.2332"/>
</g>
<!-- Node20&#45;&gt;Node11 -->
<g id="edge60" class="edge"><title>Node20&#45;&gt;Node11</title>
<path fill="none" stroke="midnightblue" d="M214.599,-62.0908C306.838,-51.6374 476.477,-31.9671 537,-22 539.689,-21.5572 542.449,-21.0735 545.229,-20.5639"/>
<polygon fill="midnightblue" stroke="midnightblue" points="214.105,-58.6243 204.562,-63.2266 214.892,-65.5799 214.105,-58.6243"/>
</g>
<!-- Node20&#45;&gt;Node16 -->
<g id="edge58" class="edge"><title>Node20&#45;&gt;Node16</title>
<path fill="none" stroke="midnightblue" d="M201.203,-55.8123C239.158,-45.4285 291.353,-31.1487 326.536,-21.5231"/>
<polygon fill="midnightblue" stroke="midnightblue" points="200.114,-52.4818 191.392,-58.4966 201.961,-59.2336 200.114,-52.4818"/>
</g>
<!-- Node21 -->
<g id="node49" class="node"><title>Node21</title>
<a xlink:href="cylinder_8cpp.html" target="_top" xlink:title="src/cylinder.cpp">
<polygon fill="white" stroke="black" points="110,-0.5 110,-21.5 196,-21.5 196,-0.5 110,-0.5"/>
<text text-anchor="middle" x="153" y="-8.5" font-family="Helvetica,sans-Serif" font-size="10.00">src/cylinder.cpp</text>
</a>
</g>
<!-- Node20&#45;&gt;Node21 -->
<g id="edge56" class="edge"><title>Node20&#45;&gt;Node21</title>
<path fill="none" stroke="midnightblue" d="M153,-48.1906C153,-39.1684 153,-28.9941 153,-21.5707"/>
<polygon fill="midnightblue" stroke="midnightblue" points="149.5,-48.3619 153,-58.3619 156.5,-48.3619 149.5,-48.3619"/>
</g>
<!-- Node22&#45;&gt;Node6 -->
<g id="edge64" class="edge"><title>Node22&#45;&gt;Node6</title>
<path fill="none" stroke="midnightblue" d="M94.2323,-58.0251C385.916,-19.7458 464.546,-56.1688 753,-22 755.84,-21.6636 758.748,-21.2759 761.678,-20.8513"/>
<polygon fill="midnightblue" stroke="midnightblue" points="93.6613,-54.5701 84.2103,-59.3585 94.5846,-61.509 93.6613,-54.5701"/>
</g>
<!-- Node22&#45;&gt;Node11 -->
<g id="edge70" class="edge"><title>Node22&#45;&gt;Node11</title>
<path fill="none" stroke="midnightblue" d="M94.2896,-57.9747C290.627,-29.7537 344.287,-49.7027 537,-22 539.698,-21.6122 542.464,-21.1711 545.249,-20.6938"/>
<polygon fill="midnightblue" stroke="midnightblue" points="93.6115,-54.5365 84.2226,-59.4456 94.6236,-61.463 93.6115,-54.5365"/>
</g>
<!-- Node22&#45;&gt;Node16 -->
<g id="edge68" class="edge"><title>Node22&#45;&gt;Node16</title>
<path fill="none" stroke="midnightblue" d="M94.1998,-57.8193C175.698,-42.1229 259.214,-28.1006 311.975,-19.4966"/>
<polygon fill="midnightblue" stroke="midnightblue" points="93.4254,-54.4042 84.2732,-59.7415 94.7562,-61.2765 93.4254,-54.4042"/>
</g>
<!-- Node23 -->
<g id="node56" class="node"><title>Node23</title>
<a xlink:href="line_8cpp.html" target="_top" xlink:title="src/line.cpp">
<polygon fill="white" stroke="black" points="8.5,-0.5 8.5,-21.5 75.5,-21.5 75.5,-0.5 8.5,-0.5"/>
<text text-anchor="middle" x="42" y="-8.5" font-family="Helvetica,sans-Serif" font-size="10.00">src/line.cpp</text>
</a>
</g>
<!-- Node22&#45;&gt;Node23 -->
<g id="edge66" class="edge"><title>Node22&#45;&gt;Node23</title>
<path fill="none" stroke="midnightblue" d="M42,-48.1906C42,-39.1684 42,-28.9941 42,-21.5707"/>
<polygon fill="midnightblue" stroke="midnightblue" points="38.5001,-48.3619 42,-58.3619 45.5001,-48.3619 38.5001,-48.3619"/>
</g>
<!-- Node24&#45;&gt;Node6 -->
<g id="edge74" class="edge"><title>Node24&#45;&gt;Node6</title>
<path fill="none" stroke="midnightblue" d="M804.598,-48.4876C806.636,-39.3924 808.949,-29.0756 810.631,-21.5707"/>
<polygon fill="midnightblue" stroke="midnightblue" points="801.156,-47.8385 802.384,-58.3619 807.987,-49.3695 801.156,-47.8385"/>
</g>
<!-- Node24&#45;&gt;Node11 -->
<g id="edge80" class="edge"><title>Node24&#45;&gt;Node11</title>
<path fill="none" stroke="midnightblue" d="M752.251,-55.8123C714.655,-45.4285 662.952,-31.1487 628.101,-21.5231"/>
<polygon fill="midnightblue" stroke="midnightblue" points="751.4,-59.208 761.971,-58.4966 753.263,-52.4606 751.4,-59.208"/>
</g>
<!-- Node24&#45;&gt;Node16 -->
<g id="edge76" class="edge"><title>Node24&#45;&gt;Node16</title>
<path fill="none" stroke="midnightblue" d="M735.332,-57.8188C598.017,-38.2403 561.02,-41.6525 427,-22 424.08,-21.5718 421.086,-21.1115 418.066,-20.6307"/>
<polygon fill="midnightblue" stroke="midnightblue" points="734.998,-61.3067 745.395,-59.2688 735.996,-54.3783 734.998,-61.3067"/>
</g>
<!-- Node25 -->
<g id="node64" class="node"><title>Node25</title>
<a xlink:href="rectangle_8cpp.html" target="_top" xlink:title="src/rectangle.cpp">
<polygon fill="white" stroke="black" points="652,-0.5 652,-21.5 744,-21.5 744,-0.5 652,-0.5"/>
<text text-anchor="middle" x="698" y="-8.5" font-family="Helvetica,sans-Serif" font-size="10.00">src/rectangle.cpp</text>
</a>
</g>
<!-- Node24&#45;&gt;Node25 -->
<g id="edge78" class="edge"><title>Node24&#45;&gt;Node25</title>
<path fill="none" stroke="midnightblue" d="M772.529,-53.379C754.805,-43.3011 732.227,-30.4624 716.59,-21.5707"/>
<polygon fill="midnightblue" stroke="midnightblue" points="770.869,-56.4614 781.292,-58.3619 774.329,-50.3763 770.869,-56.4614"/>
</g>
<!-- Node26&#45;&gt;Node6 -->
<g id="edge84" class="edge"><title>Node26&#45;&gt;Node6</title>
<path fill="none" stroke="midnightblue" d="M891.437,-53.5175C872.807,-43.4189 848.98,-30.5032 832.501,-21.5707"/>
<polygon fill="midnightblue" stroke="midnightblue" points="889.915,-56.6734 900.375,-58.3619 893.251,-50.5194 889.915,-56.6734"/>
</g>
<!-- Node26&#45;&gt;Node11 -->
<g id="edge90" class="edge"><title>Node26&#45;&gt;Node11</title>
<path fill="none" stroke="midnightblue" d="M861.782,-57.8218C763.77,-40.5582 737.277,-39.4889 643,-22 640.228,-21.4858 637.378,-20.941 634.506,-20.38"/>
<polygon fill="midnightblue" stroke="midnightblue" points="861.358,-61.3012 871.816,-59.6015 862.581,-54.4088 861.358,-61.3012"/>
</g>
<!-- Node26&#45;&gt;Node13 -->
<g id="edge88" class="edge"><title>Node26&#45;&gt;Node13</title>
<path fill="none" stroke="midnightblue" d="M920.359,-48.1906C920.514,-39.1684 920.69,-28.9941 920.818,-21.5707"/>
<polygon fill="midnightblue" stroke="midnightblue" points="916.856,-48.303 920.183,-58.3619 923.855,-48.4238 916.856,-48.303"/>
</g>
<!-- Node26&#45;&gt;Node16 -->
<g id="edge86" class="edge"><title>Node26&#45;&gt;Node16</title>
<path fill="none" stroke="midnightblue" d="M861.947,-57.981C668.654,-32.0422 616.621,-46.5952 427,-22 424.073,-21.6203 421.074,-21.1984 418.05,-20.7473"/>
<polygon fill="midnightblue" stroke="midnightblue" points="861.478,-61.4494 871.859,-59.3297 862.422,-54.5133 861.478,-61.4494"/>
</g>
<!-- Node27&#45;&gt;Node11 -->
<g id="edge100" class="edge"><title>Node27&#45;&gt;Node11</title>
<path fill="none" stroke="midnightblue" d="M375.359,-107.541C385.444,-91.9303 401.573,-70.6115 421,-58 441.435,-44.7342 502.342,-29.6913 545.148,-20.2746"/>
<polygon fill="midnightblue" stroke="midnightblue" points="372.168,-106.047 369.886,-116.393 378.122,-109.729 372.168,-106.047"/>
</g>
<!-- Node27&#45;&gt;Node14 -->
<g id="edge102" class="edge"><title>Node27&#45;&gt;Node14</title>
<path fill="none" stroke="midnightblue" d="M415.333,-113.999C457.776,-103.249 517.072,-88.2307 555.256,-78.5595"/>
<polygon fill="midnightblue" stroke="midnightblue" points="414.305,-110.648 405.47,-116.497 416.023,-117.434 414.305,-110.648"/>
</g>
<!-- Node27&#45;&gt;Node16 -->
<g id="edge98" class="edge"><title>Node27&#45;&gt;Node16</title>
<path fill="none" stroke="midnightblue" d="M307.559,-114.757C270.707,-103.931 232.572,-85.5298 251,-58 264.694,-37.5414 289.09,-25.9791 311.809,-19.4488"/>
<polygon fill="midnightblue" stroke="midnightblue" points="306.794,-118.177 317.366,-117.479 308.666,-111.432 306.794,-118.177"/>
</g>
<!-- Node28 -->
<g id="node76" class="node"><title>Node28</title>
<a xlink:href="group_8cpp.html" target="_top" xlink:title="src/group.cpp">
<polygon fill="white" stroke="black" points="260,-58.5 260,-79.5 336,-79.5 336,-58.5 260,-58.5"/>
<text text-anchor="middle" x="298" y="-66.5" font-family="Helvetica,sans-Serif" font-size="10.00">src/group.cpp</text>
</a>
</g>
<!-- Node27&#45;&gt;Node28 -->
<g id="edge96" class="edge"><title>Node27&#45;&gt;Node28</title>
<path fill="none" stroke="midnightblue" d="M344.303,-109.691C333.162,-99.8996 319.59,-87.973 310.029,-79.5707"/>
<polygon fill="midnightblue" stroke="midnightblue" points="342.072,-112.39 351.895,-116.362 346.693,-107.132 342.072,-112.39"/>
</g>
</g>
</svg>
        <g id="navigator" transform="translate(0 0)" fill="#404254">
                <rect fill="#f2f5e9" fill-opacity="0.5" stroke="#606060" stroke-width=".5" x="0" y="0" width="60" height="60"/>
                <use id="zoomplus" xlink:href="#zoomPlus" x="17" y="9" onmousedown="handleZoom(evt,'in')"/>
                <use id="zoomminus" xlink:href="#zoomMin" x="42" y="9" onmousedown="handleZoom(evt,'out')"/>
                <use id="reset" xlink:href="#resetDef" x="30" y="36" onmousedown="handleReset()"/>
                <g id="arrowUp" xlink:href="#dirArrow" transform="translate(30 24)" onmousedown="handlePan(0,-1)">
                  <use xlink:href="#rim" fill="#404040">
                        <set attributeName="fill" to="#808080" begin="arrowUp.mouseover" end="arrowUp.mouseout"/>
                  </use>
                  <path fill="none" stroke="white" stroke-width="1.5" d="M0,-3.0v7 M-2.5,-0.5L0,-3.0L2.5,-0.5"/>
                </g>
                <g id="arrowRight" xlink:href="#dirArrow" transform="rotate(90) translate(36 -43)" onmousedown="handlePan(1,0)">
                  <use xlink:href="#rim" fill="#404040">
                        <set attributeName="fill" to="#808080" begin="arrowRight.mouseover" end="arrowRight.mouseout"/>
                  </use>
                  <path fill="none" stroke="white" stroke-width="1.5" d="M0,-3.0v7 M-2.5,-0.5L0,-3.0L2.5,-0.5"/>
                </g>
                <g id="arrowDown" xlink:href="#dirArrow" transform="rotate(180) translate(-30 -48)" onmousedown="handlePan(0,1)">
                  <use xlink:href="#rim" fill="#404040">
                        <set attributeName="fill" to="#808080" begin="arrowDown.mouseover" end="arrowDown.mouseout"/>
                  </use>
                  <path fill="none" stroke="white" stroke-width="1.5" d="M0,-3.0v7 M-2.5,-0.5L0,-3.0L2.5,-0.5"/>
                </g>
                <g id="arrowLeft" xlink:href="#dirArrow" transform="rotate(270) translate(-36 17)" onmousedown="handlePan(-1,0)">
                  <use xlink:href="#rim" fill="#404040">
                        <set attributeName="fill" to="#808080" begin="arrowLeft.mouseover" end="arrowLeft.mouseout"/>
                  </use>
                  <path fill="none" stroke="white" stroke-width="1.5" d="M0,-3.0v7 M-2.5,-0.5L0,-3.0L2.5,-0.5"/>
                </g>
        </g>
        <svg viewBox="0 0 15 15" width="100%" height="30px" preserveAspectRatio="xMaxYMin meet">
         <g id="arrow_out" transform="scale(0.3 0.3)">
          <a xlink:href="material_8hpp__dep__incl_org.svg" target="_base">
           <rect id="button" ry="5" rx="5" y="6" x="6" height="38" width="38"
                fill="#f2f5e9" fill-opacity="0.5" stroke="#606060" stroke-width="1.0"/>
           <path id="arrow"
             d="M 11.500037,31.436501 C 11.940474,20.09759 22.043105,11.32322 32.158766,21.979434 L 37.068811,17.246167 C 37.068811,17.246167 37.088388,32 37.088388,32 L 22.160133,31.978069 C 22.160133,31.978069 26.997745,27.140456 26.997745,27.140456 C 18.528582,18.264221 13.291696,25.230495 11.500037,31.436501 z"
             style="fill:#404040;"/>
          </a>
         </g>
        </svg>
</svg>
