<?xml version="1.0" encoding="UTF-8" standalone="no"?>
<!DOCTYPE svg PUBLIC "-//W3C//DTD SVG 1.1//EN"
 "http://www.w3.org/Graphics/SVG/1.1/DTD/svg11.dtd">
<!-- Generated by graphviz version 2.26.3 (20100126.1600)
 -->
<!-- Title: src/material.cpp Pages: 1 -->
<svg width="296pt" height="204pt"
 viewBox="0.00 0.00 296.00 204.00" xmlns="http://www.w3.org/2000/svg" xmlns:xlink="http://www.w3.org/1999/xlink">
<g id="graph1" class="graph" transform="scale(1 1) rotate(0) translate(4 200)">
<title>src/material.cpp</title>
<polygon fill="white" stroke="white" points="-4,5 -4,-200 293,-200 293,5 -4,5"/>
<!-- Node1 -->
<g id="node1" class="node"><title>Node1</title>
<polygon fill="#bfbfbf" stroke="black" points="62,-174.5 62,-195.5 148,-195.5 148,-174.5 62,-174.5"/>
<text text-anchor="middle" x="105" y="-182.5" font-family="Helvetica,sans-Serif" font-size="10.00">src/material.cpp</text>
</g>
<!-- Node2 -->
<g id="node3" class="node"><title>Node2</title>
<a xlink:href="material_8hpp.html" target="_top" xlink:title="material.hpp">
<polygon fill="white" stroke="black" points="70,-116.5 70,-137.5 140,-137.5 140,-116.5 70,-116.5"/>
<text text-anchor="middle" x="105" y="-124.5" font-family="Helvetica,sans-Serif" font-size="10.00">material.hpp</text>
</a>
</g>
<!-- Node1&#45;&gt;Node2 -->
<g id="edge2" class="edge"><title>Node1&#45;&gt;Node2</title>
<path fill="none" stroke="midnightblue" d="M105,-174.362C105,-166.922 105,-156.743 105,-147.728"/>
<polygon fill="midnightblue" stroke="midnightblue" points="108.5,-147.571 105,-137.571 101.5,-147.571 108.5,-147.571"/>
</g>
<!-- Node3 -->
<g id="node5" class="node"><title>Node3</title>
<polygon fill="white" stroke="#bfbfbf" points="-0.5,-0.5 -0.5,-21.5 52.5,-21.5 52.5,-0.5 -0.5,-0.5"/>
<text text-anchor="middle" x="26" y="-8.5" font-family="Helvetica,sans-Serif" font-size="10.00">QObject</text>
</g>
<!-- Node2&#45;&gt;Node3 -->
<g id="edge4" class="edge"><title>Node2&#45;&gt;Node3</title>
<path fill="none" stroke="midnightblue" d="M94.2024,-116.415C85.215,-107.272 72.4134,-93.4471 63,-80 52.0856,-64.4086 42.042,-45.2316 35.1816,-31.0552"/>
<polygon fill="midnightblue" stroke="midnightblue" points="38.2172,-29.2867 30.7818,-21.7391 31.8875,-32.2761 38.2172,-29.2867"/>
</g>
<!-- Node4 -->
<g id="node7" class="node"><title>Node4</title>
<a xlink:href="globals_8hpp.html" target="_top" xlink:title="Definitions globales. ">
<polygon fill="white" stroke="black" points="72,-58.5 72,-79.5 138,-79.5 138,-58.5 72,-58.5"/>
<text text-anchor="middle" x="105" y="-66.5" font-family="Helvetica,sans-Serif" font-size="10.00">globals.hpp</text>
</a>
</g>
<!-- Node2&#45;&gt;Node4 -->
<g id="edge6" class="edge"><title>Node2&#45;&gt;Node4</title>
<path fill="none" stroke="midnightblue" d="M105,-116.362C105,-108.922 105,-98.7427 105,-89.7276"/>
<polygon fill="midnightblue" stroke="midnightblue" points="108.5,-89.5706 105,-79.5707 101.5,-89.5707 108.5,-89.5706"/>
</g>
<!-- Node8 -->
<g id="node16" class="node"><title>Node8</title>
<polygon fill="white" stroke="#bfbfbf" points="155.5,-58.5 155.5,-79.5 238.5,-79.5 238.5,-58.5 155.5,-58.5"/>
<text text-anchor="middle" x="197" y="-66.5" font-family="Helvetica,sans-Serif" font-size="10.00">QMetaProperty</text>
</g>
<!-- Node2&#45;&gt;Node8 -->
<g id="edge16" class="edge"><title>Node2&#45;&gt;Node8</title>
<path fill="none" stroke="midnightblue" d="M121.874,-116.362C135.751,-107.614 155.634,-95.0786 171.46,-85.1015"/>
<polygon fill="midnightblue" stroke="midnightblue" points="173.64,-87.8645 180.233,-79.5707 169.907,-81.943 173.64,-87.8645"/>
</g>
<!-- Node4&#45;&gt;Node3 -->
<g id="edge8" class="edge"><title>Node4&#45;&gt;Node3</title>
<path fill="none" stroke="midnightblue" d="M90.5102,-58.3619C78.8173,-49.7773 62.1573,-37.5459 48.6969,-27.6636"/>
<polygon fill="midnightblue" stroke="midnightblue" points="50.5301,-24.6675 40.398,-21.5707 46.3874,-30.31 50.5301,-24.6675"/>
</g>
<!-- Node5 -->
<g id="node10" class="node"><title>Node5</title>
<polygon fill="white" stroke="#bfbfbf" points="69.5,-0.5 69.5,-21.5 140.5,-21.5 140.5,-0.5 69.5,-0.5"/>
<text text-anchor="middle" x="105" y="-8.5" font-family="Helvetica,sans-Serif" font-size="10.00">QQuaternion</text>
</g>
<!-- Node4&#45;&gt;Node5 -->
<g id="edge10" class="edge"><title>Node4&#45;&gt;Node5</title>
<path fill="none" stroke="midnightblue" d="M105,-58.3619C105,-50.9219 105,-40.7427 105,-31.7276"/>
<polygon fill="midnightblue" stroke="midnightblue" points="108.5,-31.5706 105,-21.5707 101.5,-31.5707 108.5,-31.5706"/>
</g>
<!-- Node6 -->
<g id="node12" class="node"><title>Node6</title>
<polygon fill="white" stroke="#bfbfbf" points="157.5,-0.5 157.5,-21.5 222.5,-21.5 222.5,-0.5 157.5,-0.5"/>
<text text-anchor="middle" x="190" y="-8.5" font-family="Helvetica,sans-Serif" font-size="10.00">QVector3D</text>
</g>
<!-- Node4&#45;&gt;Node6 -->
<g id="edge12" class="edge"><title>Node4&#45;&gt;Node6</title>
<path fill="none" stroke="midnightblue" d="M120.59,-58.3619C133.291,-49.6955 151.438,-37.3126 165.992,-27.3819"/>
<polygon fill="midnightblue" stroke="midnightblue" points="168.221,-30.0982 174.509,-21.5707 164.276,-24.316 168.221,-30.0982"/>
</g>
<!-- Node7 -->
<g id="node14" class="node"><title>Node7</title>
<polygon fill="white" stroke="#bfbfbf" points="239.5,-0.5 239.5,-21.5 288.5,-21.5 288.5,-0.5 239.5,-0.5"/>
<text text-anchor="middle" x="264" y="-8.5" font-family="Helvetica,sans-Serif" font-size="10.00">QtMath</text>
</g>
<!-- Node4&#45;&gt;Node7 -->
<g id="edge14" class="edge"><title>Node4&#45;&gt;Node7</title>
<path fill="none" stroke="midnightblue" d="M133.794,-58.4966C160.771,-48.6557 201.119,-33.9377 229.741,-23.4972"/>
<polygon fill="midnightblue" stroke="midnightblue" points="231.139,-26.7127 239.334,-19.9976 228.74,-20.1365 231.139,-26.7127"/>
</g>
</g>
</svg>
