<?xml version="1.0" encoding="UTF-8" standalone="no"?>
<!DOCTYPE svg PUBLIC "-//W3C//DTD SVG 1.1//EN"
 "http://www.w3.org/Graphics/SVG/1.1/DTD/svg11.dtd">
<!-- Generated by graphviz version 2.26.3 (20100126.1600)
 -->
<!-- Title: include/rectangle.hpp Pages: 1 -->
<svg width="330pt" height="88pt"
 viewBox="0.00 0.00 330.00 88.00" xmlns="http://www.w3.org/2000/svg" xmlns:xlink="http://www.w3.org/1999/xlink">
<g id="graph1" class="graph" transform="scale(1 1) rotate(0) translate(4 84)">
<title>include/rectangle.hpp</title>
<polygon fill="white" stroke="white" points="-4,5 -4,-84 327,-84 327,5 -4,5"/>
<!-- Node1 -->
<g id="node1" class="node"><title>Node1</title>
<polygon fill="#bfbfbf" stroke="black" points="115.5,-58.5 115.5,-79.5 224.5,-79.5 224.5,-58.5 115.5,-58.5"/>
<text text-anchor="middle" x="170" y="-66.5" font-family="Helvetica,sans-Serif" font-size="10.00">include/rectangle.hpp</text>
</g>
<!-- Node2 -->
<g id="node3" class="node"><title>Node2</title>
<a xlink:href="mainwindow_8cpp.html" target="_top" xlink:title="src/mainwindow.cpp">
<polygon fill="white" stroke="black" points="0,-0.5 0,-21.5 106,-21.5 106,-0.5 0,-0.5"/>
<text text-anchor="middle" x="53" y="-8.5" font-family="Helvetica,sans-Serif" font-size="10.00">src/mainwindow.cpp</text>
</a>
</g>
<!-- Node1&#45;&gt;Node2 -->
<g id="edge2" class="edge"><title>Node1&#45;&gt;Node2</title>
<path fill="none" stroke="midnightblue" d="M139.604,-53.9319C119.152,-43.7932 92.6887,-30.6748 74.4256,-21.6212"/>
<polygon fill="midnightblue" stroke="midnightblue" points="138.298,-57.1909 148.812,-58.4966 141.407,-50.9193 138.298,-57.1909"/>
</g>
<!-- Node3 -->
<g id="node5" class="node"><title>Node3</title>
<a xlink:href="rectangle_8cpp.html" target="_top" xlink:title="src/rectangle.cpp">
<polygon fill="white" stroke="black" points="124,-0.5 124,-21.5 216,-21.5 216,-0.5 124,-0.5"/>
<text text-anchor="middle" x="170" y="-8.5" font-family="Helvetica,sans-Serif" font-size="10.00">src/rectangle.cpp</text>
</a>
</g>
<!-- Node1&#45;&gt;Node3 -->
<g id="edge4" class="edge"><title>Node1&#45;&gt;Node3</title>
<path fill="none" stroke="midnightblue" d="M170,-48.1906C170,-39.1684 170,-28.9941 170,-21.5707"/>
<polygon fill="midnightblue" stroke="midnightblue" points="166.5,-48.3619 170,-58.3619 173.5,-48.3619 166.5,-48.3619"/>
</g>
<!-- Node4 -->
<g id="node7" class="node"><title>Node4</title>
<a xlink:href="viewport_8cpp.html" target="_top" xlink:title="src/viewport.cpp">
<polygon fill="white" stroke="black" points="233.5,-0.5 233.5,-21.5 322.5,-21.5 322.5,-0.5 233.5,-0.5"/>
<text text-anchor="middle" x="278" y="-8.5" font-family="Helvetica,sans-Serif" font-size="10.00">src/viewport.cpp</text>
</a>
</g>
<!-- Node1&#45;&gt;Node4 -->
<g id="edge6" class="edge"><title>Node1&#45;&gt;Node4</title>
<path fill="none" stroke="midnightblue" d="M198.572,-53.6559C217.378,-43.5561 241.517,-30.5928 258.223,-21.6212"/>
<polygon fill="midnightblue" stroke="midnightblue" points="196.712,-50.6818 189.558,-58.4966 200.024,-56.8488 196.712,-50.6818"/>
</g>
</g>
</svg>
