<?xml version="1.0" encoding="UTF-8" standalone="no"?>
<!DOCTYPE svg PUBLIC "-//W3C//DTD SVG 1.1//EN"
 "http://www.w3.org/Graphics/SVG/1.1/DTD/svg11.dtd">
<!-- Generated by graphviz version 2.26.3 (20100126.1600)
 -->
<!-- Title: src/rectangle.cpp Pages: 1 -->
<!--zoomable 320 -->
<svg id="main" version="1.1" xmlns="http://www.w3.org/2000/svg" xmlns:xlink="http://www.w3.org/1999/xlink" xml:space="preserve" onload="init(evt)">
<style type="text/css"><![CDATA[
.edge:hover path { stroke: red; }
.edge:hover polygon { stroke: red; fill: red; }
]]></style>
<script type="text/javascript"><![CDATA[
var edges = document.getElementsByTagName('g');
if (edges && edges.length) {
  for (var i=0;i<edges.length;i++) {
    if (edges[i].id.substr(0,4)=='edge') {
      edges[i].setAttribute('class','edge');
    }
  }
}
]]></script>
        <defs>
                <circle id="rim" cx="0" cy="0" r="7"/>
                <circle id="rim2" cx="0" cy="0" r="3.5"/>
                <g id="zoomPlus">
                        <use xlink:href="#rim" fill="#404040">
                                <set attributeName="fill" to="#808080" begin="zoomplus.mouseover" end="zoomplus.mouseout"/>
                        </use>
                        <path d="M-4,0h8M0,-4v8" fill="none" stroke="white" stroke-width="1.5" pointer-events="none"/>
                </g>
                <g id="zoomMin">
                        <use xlink:href="#rim" fill="#404040">
                                <set attributeName="fill" to="#808080" begin="zoomminus.mouseover" end="zoomminus.mouseout"/>
                        </use>
                        <path d="M-4,0h8" fill="none" stroke="white" stroke-width="1.5" pointer-events="none"/>
                </g>
                <g id="dirArrow">
                        <path fill="none" stroke="white" stroke-width="1.5" d="M0,-3.0v7 M-2.5,-0.5L0,-3.0L2.5,-0.5"/>
                </g>
               <g id="resetDef">
                       <use xlink:href="#rim2" fill="#404040">
                               <set attributeName="fill" to="#808080" begin="reset.mouseover" end="reset.mouseout"/>
                       </use>
               </g>
        </defs>

<script type="text/javascript">
var viewWidth = 920;
var viewHeight = 320;
var sectionId = 'dynsection-0';
</script>
<script xlink:href="svgpan.js"/>
<svg id="graph" class="graph">
<g id="viewport">
<title>src/rectangle.cpp</title>
<polygon fill="white" stroke="white" points="-4,5 -4,-316 916.872,-316 916.872,5 -4,5"/>
<!-- Node1 -->
<g id="node1" class="node"><title>Node1</title>
<polygon fill="#bfbfbf" stroke="black" points="541.872,-290.5 541.872,-311.5 633.872,-311.5 633.872,-290.5 541.872,-290.5"/>
<text text-anchor="middle" x="587.872" y="-298.5" font-family="Helvetica,sans-Serif" font-size="10.00">src/rectangle.cpp</text>
</g>
<!-- Node2 -->
<g id="node3" class="node"><title>Node2</title>
<a xlink:href="rectangle_8hpp.html" target="_top" xlink:title="rectangle.hpp">
<polygon fill="white" stroke="black" points="517.372,-232.5 517.372,-253.5 592.372,-253.5 592.372,-232.5 517.372,-232.5"/>
<text text-anchor="middle" x="554.872" y="-240.5" font-family="Helvetica,sans-Serif" font-size="10.00">rectangle.hpp</text>
</a>
</g>
<!-- Node1&#45;&gt;Node2 -->
<g id="edge2" class="edge"><title>Node1&#45;&gt;Node2</title>
<path fill="none" stroke="midnightblue" d="M581.819,-290.362C577.4,-282.595 571.283,-271.843 565.993,-262.546"/>
<polygon fill="midnightblue" stroke="midnightblue" points="568.874,-260.531 560.886,-253.571 562.79,-263.993 568.874,-260.531"/>
</g>
<!-- Node10 -->
<g id="node19" class="node"><title>Node10</title>
<polygon fill="white" stroke="#bfbfbf" points="865.372,-116.5 865.372,-137.5 912.372,-137.5 912.372,-116.5 865.372,-116.5"/>
<text text-anchor="middle" x="888.872" y="-124.5" font-family="Helvetica,sans-Serif" font-size="10.00">QColor</text>
</g>
<!-- Node1&#45;&gt;Node10 -->
<g id="edge54" class="edge"><title>Node1&#45;&gt;Node10</title>
<path fill="none" stroke="midnightblue" d="M606.248,-290.377C657.255,-260.891 800.813,-177.905 861.374,-142.896"/>
<polygon fill="midnightblue" stroke="midnightblue" points="863.448,-145.74 870.354,-137.705 859.945,-139.679 863.448,-145.74"/>
</g>
<!-- Node3 -->
<g id="node5" class="node"><title>Node3</title>
<a xlink:href="geometry_8hpp.html" target="_top" xlink:title="geometry.hpp">
<polygon fill="white" stroke="black" points="516.872,-174.5 516.872,-195.5 592.872,-195.5 592.872,-174.5 516.872,-174.5"/>
<text text-anchor="middle" x="554.872" y="-182.5" font-family="Helvetica,sans-Serif" font-size="10.00">geometry.hpp</text>
</a>
</g>
<!-- Node2&#45;&gt;Node3 -->
<g id="edge4" class="edge"><title>Node2&#45;&gt;Node3</title>
<path fill="none" stroke="midnightblue" d="M554.872,-232.362C554.872,-224.922 554.872,-214.743 554.872,-205.728"/>
<polygon fill="midnightblue" stroke="midnightblue" points="558.372,-205.571 554.872,-195.571 551.372,-205.571 558.372,-205.571"/>
</g>
<!-- Node4 -->
<g id="node7" class="node"><title>Node4</title>
<polygon fill="white" stroke="#bfbfbf" points="612.372,-0.5 612.372,-21.5 665.372,-21.5 665.372,-0.5 612.372,-0.5"/>
<text text-anchor="middle" x="638.872" y="-8.5" font-family="Helvetica,sans-Serif" font-size="10.00">QObject</text>
</g>
<!-- Node3&#45;&gt;Node4 -->
<g id="edge6" class="edge"><title>Node3&#45;&gt;Node4</title>
<path fill="none" stroke="midnightblue" d="M593.064,-183.989C659.152,-181.346 790.509,-171.858 818.872,-138 866.079,-81.6461 740.917,-38.3196 675.617,-20.228"/>
<polygon fill="midnightblue" stroke="midnightblue" points="676.254,-16.7744 665.687,-17.5429 674.427,-23.5318 676.254,-16.7744"/>
</g>
<!-- Node5 -->
<g id="node9" class="node"><title>Node5</title>
<polygon fill="white" stroke="#bfbfbf" points="155.372,-0.5 155.372,-21.5 220.372,-21.5 220.372,-0.5 155.372,-0.5"/>
<text text-anchor="middle" x="187.872" y="-8.5" font-family="Helvetica,sans-Serif" font-size="10.00">QVector3D</text>
</g>
<!-- Node3&#45;&gt;Node5 -->
<g id="edge8" class="edge"><title>Node3&#45;&gt;Node5</title>
<path fill="none" stroke="midnightblue" d="M516.526,-184.605C398.391,-182.993 45.8903,-175.09 11.8721,-138 -35.6098,-86.2306 79.4038,-42.5099 145.422,-22.5702"/>
<polygon fill="midnightblue" stroke="midnightblue" points="146.575,-25.8793 155.174,-19.6895 144.592,-19.1661 146.575,-25.8793"/>
</g>
<!-- Node6 -->
<g id="node11" class="node"><title>Node6</title>
<polygon fill="white" stroke="#bfbfbf" points="108.372,-58.5 108.372,-79.5 211.372,-79.5 211.372,-58.5 108.372,-58.5"/>
<text text-anchor="middle" x="159.872" y="-66.5" font-family="Helvetica,sans-Serif" font-size="10.00">QOpenGLFunctions</text>
</g>
<!-- Node3&#45;&gt;Node6 -->
<g id="edge10" class="edge"><title>Node3&#45;&gt;Node6</title>
<path fill="none" stroke="midnightblue" d="M516.481,-184.531C399.93,-182.711 56.0958,-174.288 22.8721,-138 -4.71962,-107.863 49.9727,-89.0655 98.2287,-78.8403"/>
<polygon fill="midnightblue" stroke="midnightblue" points="98.9737,-82.2606 108.082,-76.8481 97.5863,-75.3994 98.9737,-82.2606"/>
</g>
<!-- Node7 -->
<g id="node13" class="node"><title>Node7</title>
<polygon fill="white" stroke="#bfbfbf" points="31.8721,-116.5 31.8721,-137.5 159.872,-137.5 159.872,-116.5 31.8721,-116.5"/>
<text text-anchor="middle" x="95.8721" y="-124.5" font-family="Helvetica,sans-Serif" font-size="10.00">QOpenGLShaderProgram</text>
</g>
<!-- Node3&#45;&gt;Node7 -->
<g id="edge12" class="edge"><title>Node3&#45;&gt;Node7</title>
<path fill="none" stroke="midnightblue" d="M516.748,-180.721C449.12,-173.053 303.471,-156.182 169.951,-138.119"/>
<polygon fill="midnightblue" stroke="midnightblue" points="170.332,-134.639 159.951,-136.761 169.389,-141.575 170.332,-134.639"/>
</g>
<!-- Node8 -->
<g id="node15" class="node"><title>Node8</title>
<polygon fill="white" stroke="#bfbfbf" points="177.872,-116.5 177.872,-137.5 263.872,-137.5 263.872,-116.5 177.872,-116.5"/>
<text text-anchor="middle" x="220.872" y="-124.5" font-family="Helvetica,sans-Serif" font-size="10.00">QOpenGLBuffer</text>
</g>
<!-- Node3&#45;&gt;Node8 -->
<g id="edge14" class="edge"><title>Node3&#45;&gt;Node8</title>
<path fill="none" stroke="midnightblue" d="M516.464,-179.139C463.966,-171.009 366.629,-155.514 273.809,-138.121"/>
<polygon fill="midnightblue" stroke="midnightblue" points="274.449,-134.68 263.974,-136.268 273.152,-141.559 274.449,-134.68"/>
</g>
<!-- Node9 -->
<g id="node17" class="node"><title>Node9</title>
<polygon fill="white" stroke="#bfbfbf" points="281.872,-116.5 281.872,-137.5 421.872,-137.5 421.872,-116.5 281.872,-116.5"/>
<text text-anchor="middle" x="351.872" y="-124.5" font-family="Helvetica,sans-Serif" font-size="10.00">QOpenGLVertexArrayObject</text>
</g>
<!-- Node3&#45;&gt;Node9 -->
<g id="edge16" class="edge"><title>Node3&#45;&gt;Node9</title>
<path fill="none" stroke="midnightblue" d="M518.11,-174.497C484.586,-164.918 434.891,-150.72 398.568,-140.342"/>
<polygon fill="midnightblue" stroke="midnightblue" points="399.28,-136.905 388.703,-137.523 397.357,-143.636 399.28,-136.905"/>
</g>
<!-- Node3&#45;&gt;Node10 -->
<g id="edge18" class="edge"><title>Node3&#45;&gt;Node10</title>
<path fill="none" stroke="midnightblue" d="M593.154,-180.584C650.019,-173.655 759.976,-158.836 851.872,-138 852.951,-137.755 854.044,-137.497 855.145,-137.227"/>
<polygon fill="midnightblue" stroke="midnightblue" points="856.351,-140.528 865.11,-134.567 854.546,-133.764 856.351,-140.528"/>
</g>
<!-- Node11 -->
<g id="node21" class="node"><title>Node11</title>
<a xlink:href="globals_8hpp.html" target="_top" xlink:title="Definitions globales. ">
<polygon fill="white" stroke="black" points="526.872,-58.5 526.872,-79.5 592.872,-79.5 592.872,-58.5 526.872,-58.5"/>
<text text-anchor="middle" x="559.872" y="-66.5" font-family="Helvetica,sans-Serif" font-size="10.00">globals.hpp</text>
</a>
</g>
<!-- Node3&#45;&gt;Node11 -->
<g id="edge20" class="edge"><title>Node3&#45;&gt;Node11</title>
<path fill="none" stroke="midnightblue" d="M550.678,-174.242C545.919,-160.666 539.261,-136.599 542.872,-116 544.473,-106.866 547.701,-97.1665 550.917,-88.9662"/>
<polygon fill="midnightblue" stroke="midnightblue" points="554.232,-90.112 554.862,-79.536 547.774,-87.4103 554.232,-90.112"/>
</g>
<!-- Node14 -->
<g id="node29" class="node"><title>Node14</title>
<a xlink:href="actor_8hpp.html" target="_top" xlink:title="actor.hpp">
<polygon fill="white" stroke="black" points="439.372,-116.5 439.372,-137.5 496.372,-137.5 496.372,-116.5 439.372,-116.5"/>
<text text-anchor="middle" x="467.872" y="-124.5" font-family="Helvetica,sans-Serif" font-size="10.00">actor.hpp</text>
</a>
</g>
<!-- Node3&#45;&gt;Node14 -->
<g id="edge30" class="edge"><title>Node3&#45;&gt;Node14</title>
<path fill="none" stroke="midnightblue" d="M538.915,-174.362C525.915,-165.696 507.341,-153.313 492.445,-143.382"/>
<polygon fill="midnightblue" stroke="midnightblue" points="493.99,-140.206 483.728,-137.571 490.107,-146.03 493.99,-140.206"/>
</g>
<!-- Node17 -->
<g id="node37" class="node"><title>Node17</title>
<a xlink:href="material_8hpp.html" target="_top" xlink:title="material.hpp">
<polygon fill="white" stroke="black" points="551.872,-116.5 551.872,-137.5 621.872,-137.5 621.872,-116.5 551.872,-116.5"/>
<text text-anchor="middle" x="586.872" y="-124.5" font-family="Helvetica,sans-Serif" font-size="10.00">material.hpp</text>
</a>
</g>
<!-- Node3&#45;&gt;Node17 -->
<g id="edge40" class="edge"><title>Node3&#45;&gt;Node17</title>
<path fill="none" stroke="midnightblue" d="M560.741,-174.362C565.027,-166.595 570.959,-155.843 576.088,-146.546"/>
<polygon fill="midnightblue" stroke="midnightblue" points="579.274,-148.017 581.04,-137.571 573.145,-144.636 579.274,-148.017"/>
</g>
<!-- Node18 -->
<g id="node42" class="node"><title>Node18</title>
<polygon fill="white" stroke="#bfbfbf" points="639.872,-116.5 639.872,-137.5 691.872,-137.5 691.872,-116.5 639.872,-116.5"/>
<text text-anchor="middle" x="665.872" y="-124.5" font-family="Helvetica,sans-Serif" font-size="10.00">memory</text>
</g>
<!-- Node3&#45;&gt;Node18 -->
<g id="edge48" class="edge"><title>Node3&#45;&gt;Node18</title>
<path fill="none" stroke="midnightblue" d="M574.973,-174.497C592.154,-165.519 617.102,-152.484 636.517,-142.339"/>
<polygon fill="midnightblue" stroke="midnightblue" points="638.303,-145.354 645.545,-137.621 635.061,-139.15 638.303,-145.354"/>
</g>
<!-- Node19 -->
<g id="node44" class="node"><title>Node19</title>
<polygon fill="white" stroke="#bfbfbf" points="709.872,-116.5 709.872,-137.5 753.872,-137.5 753.872,-116.5 709.872,-116.5"/>
<text text-anchor="middle" x="731.872" y="-124.5" font-family="Helvetica,sans-Serif" font-size="10.00">vector</text>
</g>
<!-- Node3&#45;&gt;Node19 -->
<g id="edge50" class="edge"><title>Node3&#45;&gt;Node19</title>
<path fill="none" stroke="midnightblue" d="M588.599,-174.454C616.223,-165.747 656.546,-152.881 699.949,-138.257"/>
<polygon fill="midnightblue" stroke="midnightblue" points="701.197,-141.529 709.548,-135.01 698.954,-134.898 701.197,-141.529"/>
</g>
<!-- Node20 -->
<g id="node46" class="node"><title>Node20</title>
<polygon fill="white" stroke="#bfbfbf" points="771.872,-116.5 771.872,-137.5 809.872,-137.5 809.872,-116.5 771.872,-116.5"/>
<text text-anchor="middle" x="790.872" y="-124.5" font-family="Helvetica,sans-Serif" font-size="10.00">tuple</text>
</g>
<!-- Node3&#45;&gt;Node20 -->
<g id="edge52" class="edge"><title>Node3&#45;&gt;Node20</title>
<path fill="none" stroke="midnightblue" d="M592.901,-178.211C632.901,-170.674 697.759,-157.336 761.866,-137.991"/>
<polygon fill="midnightblue" stroke="midnightblue" points="763.196,-141.244 771.729,-134.964 761.142,-134.552 763.196,-141.244"/>
</g>
<!-- Node11&#45;&gt;Node4 -->
<g id="edge22" class="edge"><title>Node11&#45;&gt;Node4</title>
<path fill="none" stroke="midnightblue" d="M574.362,-58.3619C586.055,-49.7773 602.715,-37.5459 616.175,-27.6636"/>
<polygon fill="midnightblue" stroke="midnightblue" points="618.485,-30.31 624.474,-21.5707 614.342,-24.6675 618.485,-30.31"/>
</g>
<!-- Node11&#45;&gt;Node5 -->
<g id="edge26" class="edge"><title>Node11&#45;&gt;Node5</title>
<path fill="none" stroke="midnightblue" d="M526.482,-59.8858C523.58,-59.2058 520.68,-58.5657 517.872,-58 415.501,-37.3749 293.481,-22.4735 230.38,-15.4749"/>
<polygon fill="midnightblue" stroke="midnightblue" points="230.725,-11.9918 220.403,-14.3799 229.961,-18.95 230.725,-11.9918"/>
</g>
<!-- Node12 -->
<g id="node24" class="node"><title>Node12</title>
<polygon fill="white" stroke="#bfbfbf" points="524.372,-0.5 524.372,-21.5 595.372,-21.5 595.372,-0.5 524.372,-0.5"/>
<text text-anchor="middle" x="559.872" y="-8.5" font-family="Helvetica,sans-Serif" font-size="10.00">QQuaternion</text>
</g>
<!-- Node11&#45;&gt;Node12 -->
<g id="edge24" class="edge"><title>Node11&#45;&gt;Node12</title>
<path fill="none" stroke="midnightblue" d="M559.872,-58.3619C559.872,-50.9219 559.872,-40.7427 559.872,-31.7276"/>
<polygon fill="midnightblue" stroke="midnightblue" points="563.372,-31.5706 559.872,-21.5707 556.372,-31.5707 563.372,-31.5706"/>
</g>
<!-- Node13 -->
<g id="node27" class="node"><title>Node13</title>
<polygon fill="white" stroke="#bfbfbf" points="458.372,-0.5 458.372,-21.5 507.372,-21.5 507.372,-0.5 458.372,-0.5"/>
<text text-anchor="middle" x="482.872" y="-8.5" font-family="Helvetica,sans-Serif" font-size="10.00">QtMath</text>
</g>
<!-- Node11&#45;&gt;Node13 -->
<g id="edge28" class="edge"><title>Node11&#45;&gt;Node13</title>
<path fill="none" stroke="midnightblue" d="M545.749,-58.3619C534.352,-49.7773 518.114,-37.5459 504.994,-27.6636"/>
<polygon fill="midnightblue" stroke="midnightblue" points="506.999,-24.7916 496.906,-21.5707 502.787,-30.3829 506.999,-24.7916"/>
</g>
<!-- Node14&#45;&gt;Node6 -->
<g id="edge36" class="edge"><title>Node14&#45;&gt;Node6</title>
<path fill="none" stroke="midnightblue" d="M439.278,-118.138C436.449,-117.37 433.612,-116.643 430.872,-116 359.644,-99.296 276.604,-85.7514 221.405,-77.5677"/>
<polygon fill="midnightblue" stroke="midnightblue" points="221.834,-74.0932 211.431,-76.1024 220.816,-81.0188 221.834,-74.0932"/>
</g>
<!-- Node14&#45;&gt;Node11 -->
<g id="edge32" class="edge"><title>Node14&#45;&gt;Node11</title>
<path fill="none" stroke="midnightblue" d="M484.746,-116.362C498.623,-107.614 518.506,-95.0786 534.332,-85.1015"/>
<polygon fill="midnightblue" stroke="midnightblue" points="536.512,-87.8645 543.105,-79.5707 532.779,-81.943 536.512,-87.8645"/>
</g>
<!-- Node15 -->
<g id="node32" class="node"><title>Node15</title>
<polygon fill="white" stroke="#bfbfbf" points="342.372,-58.5 342.372,-79.5 409.372,-79.5 409.372,-58.5 342.372,-58.5"/>
<text text-anchor="middle" x="375.872" y="-66.5" font-family="Helvetica,sans-Serif" font-size="10.00">QMatrix4x4</text>
</g>
<!-- Node14&#45;&gt;Node15 -->
<g id="edge34" class="edge"><title>Node14&#45;&gt;Node15</title>
<path fill="none" stroke="midnightblue" d="M450.998,-116.362C437.122,-107.614 417.238,-95.0786 401.412,-85.1015"/>
<polygon fill="midnightblue" stroke="midnightblue" points="402.965,-81.943 392.639,-79.5707 399.232,-87.8645 402.965,-81.943"/>
</g>
<!-- Node16 -->
<g id="node35" class="node"><title>Node16</title>
<polygon fill="white" stroke="#bfbfbf" points="426.372,-58.5 426.372,-79.5 509.372,-79.5 509.372,-58.5 426.372,-58.5"/>
<text text-anchor="middle" x="467.872" y="-66.5" font-family="Helvetica,sans-Serif" font-size="10.00">QMetaProperty</text>
</g>
<!-- Node14&#45;&gt;Node16 -->
<g id="edge38" class="edge"><title>Node14&#45;&gt;Node16</title>
<path fill="none" stroke="midnightblue" d="M467.872,-116.362C467.872,-108.922 467.872,-98.7427 467.872,-89.7276"/>
<polygon fill="midnightblue" stroke="midnightblue" points="471.372,-89.5706 467.872,-79.5707 464.372,-89.5707 471.372,-89.5706"/>
</g>
<!-- Node17&#45;&gt;Node4 -->
<g id="edge42" class="edge"><title>Node17&#45;&gt;Node4</title>
<path fill="none" stroke="midnightblue" d="M591.671,-116.295C600.378,-96.8724 618.899,-55.5561 629.976,-30.8462"/>
<polygon fill="midnightblue" stroke="midnightblue" points="633.188,-32.236 634.085,-21.6792 626.801,-29.3726 633.188,-32.236"/>
</g>
<!-- Node17&#45;&gt;Node11 -->
<g id="edge44" class="edge"><title>Node17&#45;&gt;Node11</title>
<path fill="none" stroke="midnightblue" d="M581.92,-116.362C578.342,-108.677 573.404,-98.0686 569.108,-88.8399"/>
<polygon fill="midnightblue" stroke="midnightblue" points="572.186,-87.1594 564.793,-79.5707 565.84,-90.1136 572.186,-87.1594"/>
</g>
<!-- Node17&#45;&gt;Node16 -->
<g id="edge46" class="edge"><title>Node17&#45;&gt;Node16</title>
<path fill="none" stroke="midnightblue" d="M565.322,-116.497C546.736,-107.438 519.67,-94.2462 498.777,-84.0628"/>
<polygon fill="midnightblue" stroke="midnightblue" points="500.187,-80.8563 489.664,-79.6212 497.12,-87.1487 500.187,-80.8563"/>
</g>
</g>
</svg>
        <g id="navigator" transform="translate(0 0)" fill="#404254">
                <rect fill="#f2f5e9" fill-opacity="0.5" stroke="#606060" stroke-width=".5" x="0" y="0" width="60" height="60"/>
                <use id="zoomplus" xlink:href="#zoomPlus" x="17" y="9" onmousedown="handleZoom(evt,'in')"/>
                <use id="zoomminus" xlink:href="#zoomMin" x="42" y="9" onmousedown="handleZoom(evt,'out')"/>
                <use id="reset" xlink:href="#resetDef" x="30" y="36" onmousedown="handleReset()"/>
                <g id="arrowUp" xlink:href="#dirArrow" transform="translate(30 24)" onmousedown="handlePan(0,-1)">
                  <use xlink:href="#rim" fill="#404040">
                        <set attributeName="fill" to="#808080" begin="arrowUp.mouseover" end="arrowUp.mouseout"/>
                  </use>
                  <path fill="none" stroke="white" stroke-width="1.5" d="M0,-3.0v7 M-2.5,-0.5L0,-3.0L2.5,-0.5"/>
                </g>
                <g id="arrowRight" xlink:href="#dirArrow" transform="rotate(90) translate(36 -43)" onmousedown="handlePan(1,0)">
                  <use xlink:href="#rim" fill="#404040">
                        <set attributeName="fill" to="#808080" begin="arrowRight.mouseover" end="arrowRight.mouseout"/>
                  </use>
                  <path fill="none" stroke="white" stroke-width="1.5" d="M0,-3.0v7 M-2.5,-0.5L0,-3.0L2.5,-0.5"/>
                </g>
                <g id="arrowDown" xlink:href="#dirArrow" transform="rotate(180) translate(-30 -48)" onmousedown="handlePan(0,1)">
                  <use xlink:href="#rim" fill="#404040">
                        <set attributeName="fill" to="#808080" begin="arrowDown.mouseover" end="arrowDown.mouseout"/>
                  </use>
                  <path fill="none" stroke="white" stroke-width="1.5" d="M0,-3.0v7 M-2.5,-0.5L0,-3.0L2.5,-0.5"/>
                </g>
                <g id="arrowLeft" xlink:href="#dirArrow" transform="rotate(270) translate(-36 17)" onmousedown="handlePan(-1,0)">
                  <use xlink:href="#rim" fill="#404040">
                        <set attributeName="fill" to="#808080" begin="arrowLeft.mouseover" end="arrowLeft.mouseout"/>
                  </use>
                  <path fill="none" stroke="white" stroke-width="1.5" d="M0,-3.0v7 M-2.5,-0.5L0,-3.0L2.5,-0.5"/>
                </g>
        </g>
        <svg viewBox="0 0 15 15" width="100%" height="30px" preserveAspectRatio="xMaxYMin meet">
         <g id="arrow_out" transform="scale(0.3 0.3)">
          <a xlink:href="rectangle_8cpp__incl_org.svg" target="_base">
           <rect id="button" ry="5" rx="5" y="6" x="6" height="38" width="38"
                fill="#f2f5e9" fill-opacity="0.5" stroke="#606060" stroke-width="1.0"/>
           <path id="arrow"
             d="M 11.500037,31.436501 C 11.940474,20.09759 22.043105,11.32322 32.158766,21.979434 L 37.068811,17.246167 C 37.068811,17.246167 37.088388,32 37.088388,32 L 22.160133,31.978069 C 22.160133,31.978069 26.997745,27.140456 26.997745,27.140456 C 18.528582,18.264221 13.291696,25.230495 11.500037,31.436501 z"
             style="fill:#404040;"/>
          </a>
         </g>
        </svg>
</svg>
