<?xml version="1.0" encoding="UTF-8" standalone="no"?>
<!DOCTYPE svg PUBLIC "-//W3C//DTD SVG 1.1//EN"
 "http://www.w3.org/Graphics/SVG/1.1/DTD/svg11.dtd">
<!-- Generated by graphviz version 2.26.3 (20100126.1600)
 -->
<!-- Title: include/sphere.hpp Pages: 1 -->
<svg width="957pt" height="204pt"
 viewBox="0.00 0.00 957.00 204.00" xmlns="http://www.w3.org/2000/svg" xmlns:xlink="http://www.w3.org/1999/xlink">
<g id="graph1" class="graph" transform="scale(1 1) rotate(0) translate(4 200)">
<title>include/sphere.hpp</title>
<polygon fill="white" stroke="white" points="-4,5 -4,-200 954,-200 954,5 -4,5"/>
<!-- Node1 -->
<g id="node1" class="node"><title>Node1</title>
<polygon fill="#bfbfbf" stroke="black" points="826,-174.5 826,-195.5 924,-195.5 924,-174.5 826,-174.5"/>
<text text-anchor="middle" x="875" y="-182.5" font-family="Helvetica,sans-Serif" font-size="10.00">include/sphere.hpp</text>
</g>
<!-- Node2 -->
<g id="node3" class="node"><title>Node2</title>
<a xlink:href="geometry_8hpp.html" target="_top" xlink:title="geometry.hpp">
<polygon fill="white" stroke="black" points="531,-116.5 531,-137.5 607,-137.5 607,-116.5 531,-116.5"/>
<text text-anchor="middle" x="569" y="-124.5" font-family="Helvetica,sans-Serif" font-size="10.00">geometry.hpp</text>
</a>
</g>
<!-- Node1&#45;&gt;Node2 -->
<g id="edge2" class="edge"><title>Node1&#45;&gt;Node2</title>
<path fill="none" stroke="midnightblue" d="M825.836,-175.681C768.461,-164.806 674.2,-146.94 617.23,-136.142"/>
<polygon fill="midnightblue" stroke="midnightblue" points="617.864,-132.7 607.387,-134.276 616.561,-139.577 617.864,-132.7"/>
</g>
<!-- Node12 -->
<g id="node25" class="node"><title>Node12</title>
<polygon fill="white" stroke="#bfbfbf" points="696.5,-0.5 696.5,-21.5 779.5,-21.5 779.5,-0.5 696.5,-0.5"/>
<text text-anchor="middle" x="738" y="-8.5" font-family="Helvetica,sans-Serif" font-size="10.00">QMetaProperty</text>
</g>
<!-- Node1&#45;&gt;Node12 -->
<g id="edge32" class="edge"><title>Node1&#45;&gt;Node12</title>
<path fill="none" stroke="midnightblue" d="M874.328,-174.455C872.299,-150.837 864.341,-93.0233 834,-58 821.185,-43.2073 802.635,-32.626 785.25,-25.2967"/>
<polygon fill="midnightblue" stroke="midnightblue" points="786.342,-21.9653 775.756,-21.5534 783.775,-28.4774 786.342,-21.9653"/>
</g>
<!-- Node15 -->
<g id="node32" class="node"><title>Node15</title>
<polygon fill="white" stroke="#bfbfbf" points="902.5,-116.5 902.5,-137.5 949.5,-137.5 949.5,-116.5 902.5,-116.5"/>
<text text-anchor="middle" x="926" y="-124.5" font-family="Helvetica,sans-Serif" font-size="10.00">QColor</text>
</g>
<!-- Node1&#45;&gt;Node15 -->
<g id="edge34" class="edge"><title>Node1&#45;&gt;Node15</title>
<path fill="none" stroke="midnightblue" d="M884.354,-174.362C891.543,-166.186 901.641,-154.702 910.093,-145.091"/>
<polygon fill="midnightblue" stroke="midnightblue" points="912.73,-147.392 916.705,-137.571 907.473,-142.769 912.73,-147.392"/>
</g>
<!-- Node3 -->
<g id="node5" class="node"><title>Node3</title>
<polygon fill="white" stroke="#bfbfbf" points="674.5,-58.5 674.5,-79.5 727.5,-79.5 727.5,-58.5 674.5,-58.5"/>
<text text-anchor="middle" x="701" y="-66.5" font-family="Helvetica,sans-Serif" font-size="10.00">QObject</text>
</g>
<!-- Node2&#45;&gt;Node3 -->
<g id="edge4" class="edge"><title>Node2&#45;&gt;Node3</title>
<path fill="none" stroke="midnightblue" d="M592.904,-116.497C613.8,-107.315 644.356,-93.8889 667.655,-83.6516"/>
<polygon fill="midnightblue" stroke="midnightblue" points="669.08,-86.8483 676.828,-79.6212 666.264,-80.4397 669.08,-86.8483"/>
</g>
<!-- Node4 -->
<g id="node7" class="node"><title>Node4</title>
<polygon fill="white" stroke="#bfbfbf" points="744.5,-58.5 744.5,-79.5 809.5,-79.5 809.5,-58.5 744.5,-58.5"/>
<text text-anchor="middle" x="777" y="-66.5" font-family="Helvetica,sans-Serif" font-size="10.00">QVector3D</text>
</g>
<!-- Node2&#45;&gt;Node4 -->
<g id="edge6" class="edge"><title>Node2&#45;&gt;Node4</title>
<path fill="none" stroke="midnightblue" d="M606.667,-116.497C642.776,-106.428 697.195,-91.2534 734.759,-80.7789"/>
<polygon fill="midnightblue" stroke="midnightblue" points="735.708,-84.1478 744.4,-78.0904 733.827,-77.4051 735.708,-84.1478"/>
</g>
<!-- Node5 -->
<g id="node9" class="node"><title>Node5</title>
<polygon fill="white" stroke="#bfbfbf" points="440.5,-0.5 440.5,-21.5 543.5,-21.5 543.5,-0.5 440.5,-0.5"/>
<text text-anchor="middle" x="492" y="-8.5" font-family="Helvetica,sans-Serif" font-size="10.00">QOpenGLFunctions</text>
</g>
<!-- Node2&#45;&gt;Node5 -->
<g id="edge8" class="edge"><title>Node2&#45;&gt;Node5</title>
<path fill="none" stroke="midnightblue" d="M607.038,-125.539C670.017,-122.233 791.645,-111.795 818,-80 824.24,-72.4721 824.402,-65.3908 818,-58 800.967,-38.3351 643.405,-22.8774 553.721,-15.583"/>
<polygon fill="midnightblue" stroke="midnightblue" points="553.914,-12.0873 543.666,-14.7762 553.354,-19.0649 553.914,-12.0873"/>
</g>
<!-- Node6 -->
<g id="node11" class="node"><title>Node6</title>
<polygon fill="white" stroke="#bfbfbf" points="135,-58.5 135,-79.5 263,-79.5 263,-58.5 135,-58.5"/>
<text text-anchor="middle" x="199" y="-66.5" font-family="Helvetica,sans-Serif" font-size="10.00">QOpenGLShaderProgram</text>
</g>
<!-- Node2&#45;&gt;Node6 -->
<g id="edge10" class="edge"><title>Node2&#45;&gt;Node6</title>
<path fill="none" stroke="midnightblue" d="M530.797,-121.011C470.276,-111.524 351.257,-92.8673 273.445,-80.6698"/>
<polygon fill="midnightblue" stroke="midnightblue" points="273.644,-77.1583 263.223,-79.0674 272.56,-84.0739 273.644,-77.1583"/>
</g>
<!-- Node7 -->
<g id="node13" class="node"><title>Node7</title>
<polygon fill="white" stroke="#bfbfbf" points="281,-58.5 281,-79.5 367,-79.5 367,-58.5 281,-58.5"/>
<text text-anchor="middle" x="324" y="-66.5" font-family="Helvetica,sans-Serif" font-size="10.00">QOpenGLBuffer</text>
</g>
<!-- Node2&#45;&gt;Node7 -->
<g id="edge12" class="edge"><title>Node2&#45;&gt;Node7</title>
<path fill="none" stroke="midnightblue" d="M530.988,-118.001C489.666,-108.219 423.336,-92.5163 376.931,-81.5307"/>
<polygon fill="midnightblue" stroke="midnightblue" points="377.593,-78.0907 367.056,-79.1928 375.981,-84.9024 377.593,-78.0907"/>
</g>
<!-- Node8 -->
<g id="node15" class="node"><title>Node8</title>
<polygon fill="white" stroke="#bfbfbf" points="385,-58.5 385,-79.5 525,-79.5 525,-58.5 385,-58.5"/>
<text text-anchor="middle" x="455" y="-66.5" font-family="Helvetica,sans-Serif" font-size="10.00">QOpenGLVertexArrayObject</text>
</g>
<!-- Node2&#45;&gt;Node8 -->
<g id="edge14" class="edge"><title>Node2&#45;&gt;Node8</title>
<path fill="none" stroke="midnightblue" d="M548.355,-116.497C530.63,-107.479 504.855,-94.3649 484.877,-84.2006"/>
<polygon fill="midnightblue" stroke="midnightblue" points="486.376,-81.0364 475.876,-79.6212 483.202,-87.2753 486.376,-81.0364"/>
</g>
<!-- Node9 -->
<g id="node17" class="node"><title>Node9</title>
<a xlink:href="globals_8hpp.html" target="_top" xlink:title="Definitions globales. ">
<polygon fill="white" stroke="black" points="0,-0.5 0,-21.5 66,-21.5 66,-0.5 0,-0.5"/>
<text text-anchor="middle" x="33" y="-8.5" font-family="Helvetica,sans-Serif" font-size="10.00">globals.hpp</text>
</a>
</g>
<!-- Node2&#45;&gt;Node9 -->
<g id="edge16" class="edge"><title>Node2&#45;&gt;Node9</title>
<path fill="none" stroke="midnightblue" d="M530.88,-126.004C417.594,-122.707 88.5593,-110.568 52,-80 38.1166,-68.3919 33.8807,-47.6577 32.8085,-31.9392"/>
<polygon fill="midnightblue" stroke="midnightblue" points="36.296,-31.4716 32.4943,-21.5824 29.2993,-31.684 36.296,-31.4716"/>
</g>
<!-- Node10 -->
<g id="node19" class="node"><title>Node10</title>
<a xlink:href="actor_8hpp.html" target="_top" xlink:title="actor.hpp">
<polygon fill="white" stroke="black" points="60.5,-58.5 60.5,-79.5 117.5,-79.5 117.5,-58.5 60.5,-58.5"/>
<text text-anchor="middle" x="89" y="-66.5" font-family="Helvetica,sans-Serif" font-size="10.00">actor.hpp</text>
</a>
</g>
<!-- Node2&#45;&gt;Node10 -->
<g id="edge18" class="edge"><title>Node2&#45;&gt;Node10</title>
<path fill="none" stroke="midnightblue" d="M530.719,-125.303C455.172,-121.446 281.56,-110.072 127.66,-80.0562"/>
<polygon fill="midnightblue" stroke="midnightblue" points="128.043,-76.564 117.553,-78.0521 126.681,-83.4303 128.043,-76.564"/>
</g>
<!-- Node13 -->
<g id="node27" class="node"><title>Node13</title>
<polygon fill="white" stroke="#bfbfbf" points="543,-58.5 543,-79.5 595,-79.5 595,-58.5 543,-58.5"/>
<text text-anchor="middle" x="569" y="-66.5" font-family="Helvetica,sans-Serif" font-size="10.00">memory</text>
</g>
<!-- Node2&#45;&gt;Node13 -->
<g id="edge28" class="edge"><title>Node2&#45;&gt;Node13</title>
<path fill="none" stroke="midnightblue" d="M569,-116.362C569,-108.922 569,-98.7427 569,-89.7276"/>
<polygon fill="midnightblue" stroke="midnightblue" points="572.5,-89.5706 569,-79.5707 565.5,-89.5707 572.5,-89.5706"/>
</g>
<!-- Node14 -->
<g id="node29" class="node"><title>Node14</title>
<polygon fill="white" stroke="#bfbfbf" points="613,-58.5 613,-79.5 657,-79.5 657,-58.5 613,-58.5"/>
<text text-anchor="middle" x="635" y="-66.5" font-family="Helvetica,sans-Serif" font-size="10.00">vector</text>
</g>
<!-- Node2&#45;&gt;Node14 -->
<g id="edge30" class="edge"><title>Node2&#45;&gt;Node14</title>
<path fill="none" stroke="midnightblue" d="M581.105,-116.362C590.688,-107.941 604.264,-96.0105 615.393,-86.2308"/>
<polygon fill="midnightblue" stroke="midnightblue" points="617.77,-88.8009 622.971,-79.5707 613.149,-83.5427 617.77,-88.8009"/>
</g>
<!-- Node10&#45;&gt;Node5 -->
<g id="edge24" class="edge"><title>Node10&#45;&gt;Node5</title>
<path fill="none" stroke="midnightblue" d="M117.566,-60.0116C120.4,-59.2694 123.246,-58.5822 126,-58 231.807,-35.631 357.219,-22.326 430.373,-15.8578"/>
<polygon fill="midnightblue" stroke="midnightblue" points="430.683,-19.3442 440.341,-14.9902 430.076,-12.3706 430.683,-19.3442"/>
</g>
<!-- Node10&#45;&gt;Node9 -->
<g id="edge20" class="edge"><title>Node10&#45;&gt;Node9</title>
<path fill="none" stroke="midnightblue" d="M78.7287,-58.3619C70.7559,-50.1043 59.5252,-38.4725 50.189,-28.8029"/>
<polygon fill="midnightblue" stroke="midnightblue" points="52.67,-26.3336 43.2061,-21.5707 47.6342,-31.1958 52.67,-26.3336"/>
</g>
<!-- Node11 -->
<g id="node22" class="node"><title>Node11</title>
<polygon fill="white" stroke="#bfbfbf" points="83.5,-0.5 83.5,-21.5 150.5,-21.5 150.5,-0.5 83.5,-0.5"/>
<text text-anchor="middle" x="117" y="-8.5" font-family="Helvetica,sans-Serif" font-size="10.00">QMatrix4x4</text>
</g>
<!-- Node10&#45;&gt;Node11 -->
<g id="edge22" class="edge"><title>Node10&#45;&gt;Node11</title>
<path fill="none" stroke="midnightblue" d="M94.1356,-58.3619C97.8458,-50.6766 102.967,-40.0686 107.422,-30.8399"/>
<polygon fill="midnightblue" stroke="midnightblue" points="110.701,-32.0978 111.897,-21.5707 104.397,-29.0545 110.701,-32.0978"/>
</g>
<!-- Node10&#45;&gt;Node12 -->
<g id="edge26" class="edge"><title>Node10&#45;&gt;Node12</title>
<path fill="none" stroke="midnightblue" d="M117.537,-59.8638C120.377,-59.1516 123.232,-58.5117 126,-58 180.319,-47.9578 548.133,-23.3499 685.975,-14.3593"/>
<polygon fill="midnightblue" stroke="midnightblue" points="686.519,-17.8314 696.271,-13.6889 686.064,-10.8461 686.519,-17.8314"/>
</g>
</g>
</svg>
