<?xml version="1.0" encoding="UTF-8" standalone="no"?>
<!DOCTYPE svg PUBLIC "-//W3C//DTD SVG 1.1//EN"
 "http://www.w3.org/Graphics/SVG/1.1/DTD/svg11.dtd">
<!-- Generated by graphviz version 2.26.3 (20100126.1600)
 -->
<!-- Title: include/sphere.hpp Pages: 1 -->
<svg width="720pt" height="146pt"
 viewBox="0.00 0.00 720.00 146.00" xmlns="http://www.w3.org/2000/svg" xmlns:xlink="http://www.w3.org/1999/xlink">
<g id="graph1" class="graph" transform="scale(1 1) rotate(0) translate(4 142)">
<title>include/sphere.hpp</title>
<polygon fill="white" stroke="white" points="-4,5 -4,-142 717,-142 717,5 -4,5"/>
<!-- Node1 -->
<g id="node1" class="node"><title>Node1</title>
<polygon fill="#bfbfbf" stroke="black" points="386,-116.5 386,-137.5 484,-137.5 484,-116.5 386,-116.5"/>
<text text-anchor="middle" x="435" y="-124.5" font-family="Helvetica,sans-Serif" font-size="10.00">include/sphere.hpp</text>
</g>
<!-- Node2 -->
<g id="node3" class="node"><title>Node2</title>
<a xlink:href="viewport_8hpp.html" target="_top" xlink:title="include/viewport.hpp">
<polygon fill="white" stroke="black" points="258,-58.5 258,-79.5 364,-79.5 364,-58.5 258,-58.5"/>
<text text-anchor="middle" x="311" y="-66.5" font-family="Helvetica,sans-Serif" font-size="10.00">include/viewport.hpp</text>
</a>
</g>
<!-- Node1&#45;&gt;Node2 -->
<g id="edge2" class="edge"><title>Node1&#45;&gt;Node2</title>
<path fill="none" stroke="midnightblue" d="M403.372,-112.206C381.618,-102.031 353.238,-88.7567 333.707,-79.6212"/>
<polygon fill="midnightblue" stroke="midnightblue" points="402.004,-115.43 412.545,-116.497 404.969,-109.089 402.004,-115.43"/>
</g>
<!-- Node4 -->
<g id="node7" class="node"><title>Node4</title>
<a xlink:href="actorbuilder_8cpp.html" target="_top" xlink:title="src/actorbuilder.cpp">
<polygon fill="white" stroke="black" points="0,-0.5 0,-21.5 102,-21.5 102,-0.5 0,-0.5"/>
<text text-anchor="middle" x="51" y="-8.5" font-family="Helvetica,sans-Serif" font-size="10.00">src/actorbuilder.cpp</text>
</a>
</g>
<!-- Node1&#45;&gt;Node4 -->
<g id="edge18" class="edge"><title>Node1&#45;&gt;Node4</title>
<path fill="none" stroke="midnightblue" d="M378.341,-114.05C341.309,-105.25 292.012,-92.9017 249,-80 187.633,-61.5926 117.06,-35.8821 78.9442,-21.6106"/>
<polygon fill="midnightblue" stroke="midnightblue" points="377.909,-117.544 388.446,-116.435 379.517,-110.731 377.909,-117.544"/>
</g>
<!-- Node10 -->
<g id="node20" class="node"><title>Node10</title>
<a xlink:href="mainwindow_8cpp.html" target="_top" xlink:title="src/mainwindow.cpp">
<polygon fill="white" stroke="black" points="382,-58.5 382,-79.5 488,-79.5 488,-58.5 382,-58.5"/>
<text text-anchor="middle" x="435" y="-66.5" font-family="Helvetica,sans-Serif" font-size="10.00">src/mainwindow.cpp</text>
</a>
</g>
<!-- Node1&#45;&gt;Node10 -->
<g id="edge20" class="edge"><title>Node1&#45;&gt;Node10</title>
<path fill="none" stroke="midnightblue" d="M435,-106.191C435,-97.1684 435,-86.9941 435,-79.5707"/>
<polygon fill="midnightblue" stroke="midnightblue" points="431.5,-106.362 435,-116.362 438.5,-106.362 431.5,-106.362"/>
</g>
<!-- Node11 -->
<g id="node22" class="node"><title>Node11</title>
<a xlink:href="sphere_8cpp.html" target="_top" xlink:title="src/sphere.cpp">
<polygon fill="white" stroke="black" points="505.5,-58.5 505.5,-79.5 586.5,-79.5 586.5,-58.5 505.5,-58.5"/>
<text text-anchor="middle" x="546" y="-66.5" font-family="Helvetica,sans-Serif" font-size="10.00">src/sphere.cpp</text>
</a>
</g>
<!-- Node1&#45;&gt;Node11 -->
<g id="edge22" class="edge"><title>Node1&#45;&gt;Node11</title>
<path fill="none" stroke="midnightblue" d="M464.101,-111.794C483.468,-101.675 508.425,-88.6338 525.673,-79.6212"/>
<polygon fill="midnightblue" stroke="midnightblue" points="462.343,-108.763 455.101,-116.497 465.585,-114.968 462.343,-108.763"/>
</g>
<!-- Node12 -->
<g id="node24" class="node"><title>Node12</title>
<a xlink:href="world_8cpp.html" target="_top" xlink:title="src/world.cpp">
<polygon fill="white" stroke="black" points="603.5,-58.5 603.5,-79.5 678.5,-79.5 678.5,-58.5 603.5,-58.5"/>
<text text-anchor="middle" x="641" y="-66.5" font-family="Helvetica,sans-Serif" font-size="10.00">src/world.cpp</text>
</a>
</g>
<!-- Node1&#45;&gt;Node12 -->
<g id="edge24" class="edge"><title>Node1&#45;&gt;Node12</title>
<path fill="none" stroke="midnightblue" d="M482.311,-113.68C519.151,-103.307 569.583,-89.1078 603.625,-79.5231"/>
<polygon fill="midnightblue" stroke="midnightblue" points="480.982,-110.417 472.305,-116.497 482.879,-117.155 480.982,-110.417"/>
</g>
<!-- Node3 -->
<g id="node5" class="node"><title>Node3</title>
<a xlink:href="actor_8cpp.html" target="_top" xlink:title="src/actor.cpp">
<polygon fill="white" stroke="black" points="120,-0.5 120,-21.5 194,-21.5 194,-0.5 120,-0.5"/>
<text text-anchor="middle" x="157" y="-8.5" font-family="Helvetica,sans-Serif" font-size="10.00">src/actor.cpp</text>
</a>
</g>
<!-- Node2&#45;&gt;Node3 -->
<g id="edge4" class="edge"><title>Node2&#45;&gt;Node3</title>
<path fill="none" stroke="midnightblue" d="M273.494,-54.8742C246.166,-44.5819 209.737,-30.862 184.941,-21.5231"/>
<polygon fill="midnightblue" stroke="midnightblue" points="272.52,-58.2474 283.112,-58.4966 274.987,-51.6966 272.52,-58.2474"/>
</g>
<!-- Node2&#45;&gt;Node4 -->
<g id="edge6" class="edge"><title>Node2&#45;&gt;Node4</title>
<path fill="none" stroke="midnightblue" d="M253.951,-56.2737C207.246,-45.8548 141.964,-31.2921 98.1723,-21.5231"/>
<polygon fill="midnightblue" stroke="midnightblue" points="253.394,-59.7353 263.916,-58.4966 254.918,-52.9033 253.394,-59.7353"/>
</g>
<!-- Node5 -->
<g id="node9" class="node"><title>Node5</title>
<a xlink:href="fileloader_8cpp.html" target="_top" xlink:title="src/fileloader.cpp">
<polygon fill="white" stroke="black" points="211.5,-0.5 211.5,-21.5 302.5,-21.5 302.5,-0.5 211.5,-0.5"/>
<text text-anchor="middle" x="257" y="-8.5" font-family="Helvetica,sans-Serif" font-size="10.00">src/fileloader.cpp</text>
</a>
</g>
<!-- Node2&#45;&gt;Node5 -->
<g id="edge8" class="edge"><title>Node2&#45;&gt;Node5</title>
<path fill="none" stroke="midnightblue" d="M294.083,-50.8299C285.125,-41.2078 274.437,-29.7282 266.842,-21.5707"/>
<polygon fill="midnightblue" stroke="midnightblue" points="291.72,-53.4279 301.096,-58.3619 296.843,-48.658 291.72,-53.4279"/>
</g>
<!-- Node6 -->
<g id="node11" class="node"><title>Node6</title>
<a xlink:href="geometry_8cpp.html" target="_top" xlink:title="src/geometry.cpp">
<polygon fill="white" stroke="black" points="320,-0.5 320,-21.5 412,-21.5 412,-0.5 320,-0.5"/>
<text text-anchor="middle" x="366" y="-8.5" font-family="Helvetica,sans-Serif" font-size="10.00">src/geometry.cpp</text>
</a>
</g>
<!-- Node2&#45;&gt;Node6 -->
<g id="edge10" class="edge"><title>Node2&#45;&gt;Node6</title>
<path fill="none" stroke="midnightblue" d="M328.23,-50.8299C337.355,-41.2078 348.24,-29.7282 355.976,-21.5707"/>
<polygon fill="midnightblue" stroke="midnightblue" points="325.429,-48.6973 321.088,-58.3619 330.508,-53.514 325.429,-48.6973"/>
</g>
<!-- Node7 -->
<g id="node13" class="node"><title>Node7</title>
<a xlink:href="light_8cpp.html" target="_top" xlink:title="src/light.cpp">
<polygon fill="white" stroke="black" points="430,-0.5 430,-21.5 500,-21.5 500,-0.5 430,-0.5"/>
<text text-anchor="middle" x="465" y="-8.5" font-family="Helvetica,sans-Serif" font-size="10.00">src/light.cpp</text>
</a>
</g>
<!-- Node2&#45;&gt;Node7 -->
<g id="edge12" class="edge"><title>Node2&#45;&gt;Node7</title>
<path fill="none" stroke="midnightblue" d="M348.506,-54.8742C375.834,-44.5819 412.263,-30.862 437.059,-21.5231"/>
<polygon fill="midnightblue" stroke="midnightblue" points="347.013,-51.6966 338.888,-58.4966 349.48,-58.2474 347.013,-51.6966"/>
</g>
<!-- Node8 -->
<g id="node15" class="node"><title>Node8</title>
<a xlink:href="spotlight_8cpp.html" target="_top" xlink:title="src/spotlight.cpp">
<polygon fill="white" stroke="black" points="517.5,-0.5 517.5,-21.5 606.5,-21.5 606.5,-0.5 517.5,-0.5"/>
<text text-anchor="middle" x="562" y="-8.5" font-family="Helvetica,sans-Serif" font-size="10.00">src/spotlight.cpp</text>
</a>
</g>
<!-- Node2&#45;&gt;Node8 -->
<g id="edge14" class="edge"><title>Node2&#45;&gt;Node8</title>
<path fill="none" stroke="midnightblue" d="M366.422,-56.1933C411.788,-45.7103 475.136,-31.0722 517.306,-21.3277"/>
<polygon fill="midnightblue" stroke="midnightblue" points="365.409,-52.835 356.454,-58.4966 366.985,-59.6553 365.409,-52.835"/>
</g>
<!-- Node9 -->
<g id="node17" class="node"><title>Node9</title>
<a xlink:href="viewport_8cpp.html" target="_top" xlink:title="src/viewport.cpp">
<polygon fill="white" stroke="black" points="623.5,-0.5 623.5,-21.5 712.5,-21.5 712.5,-0.5 623.5,-0.5"/>
<text text-anchor="middle" x="668" y="-8.5" font-family="Helvetica,sans-Serif" font-size="10.00">src/viewport.cpp</text>
</a>
</g>
<!-- Node2&#45;&gt;Node9 -->
<g id="edge16" class="edge"><title>Node2&#45;&gt;Node9</title>
<path fill="none" stroke="midnightblue" d="M374.076,-57.8626C482.008,-40.5162 511.08,-40.4982 615,-22 617.683,-21.5224 620.438,-21.0118 623.215,-20.4819"/>
<polygon fill="midnightblue" stroke="midnightblue" points="373.395,-54.4272 364.083,-59.4816 374.514,-61.3371 373.395,-54.4272"/>
</g>
</g>
</svg>
