<?xml version="1.0" encoding="UTF-8" standalone="no"?>
<!DOCTYPE svg PUBLIC "-//W3C//DTD SVG 1.1//EN"
 "http://www.w3.org/Graphics/SVG/1.1/DTD/svg11.dtd">
<!-- Generated by graphviz version 2.26.3 (20100126.1600)
 -->
<!-- Title: include/sphere.hpp Pages: 1 -->
<!--zoomable 262 -->
<svg id="main" version="1.1" xmlns="http://www.w3.org/2000/svg" xmlns:xlink="http://www.w3.org/1999/xlink" xml:space="preserve" onload="init(evt)">
<style type="text/css"><![CDATA[
.edge:hover path { stroke: red; }
.edge:hover polygon { stroke: red; fill: red; }
]]></style>
<script type="text/javascript"><![CDATA[
var edges = document.getElementsByTagName('g');
if (edges && edges.length) {
  for (var i=0;i<edges.length;i++) {
    if (edges[i].id.substr(0,4)=='edge') {
      edges[i].setAttribute('class','edge');
    }
  }
}
]]></script>
        <defs>
                <circle id="rim" cx="0" cy="0" r="7"/>
                <circle id="rim2" cx="0" cy="0" r="3.5"/>
                <g id="zoomPlus">
                        <use xlink:href="#rim" fill="#404040">
                                <set attributeName="fill" to="#808080" begin="zoomplus.mouseover" end="zoomplus.mouseout"/>
                        </use>
                        <path d="M-4,0h8M0,-4v8" fill="none" stroke="white" stroke-width="1.5" pointer-events="none"/>
                </g>
                <g id="zoomMin">
                        <use xlink:href="#rim" fill="#404040">
                                <set attributeName="fill" to="#808080" begin="zoomminus.mouseover" end="zoomminus.mouseout"/>
                        </use>
                        <path d="M-4,0h8" fill="none" stroke="white" stroke-width="1.5" pointer-events="none"/>
                </g>
                <g id="dirArrow">
                        <path fill="none" stroke="white" stroke-width="1.5" d="M0,-3.0v7 M-2.5,-0.5L0,-3.0L2.5,-0.5"/>
                </g>
               <g id="resetDef">
                       <use xlink:href="#rim2" fill="#404040">
                               <set attributeName="fill" to="#808080" begin="reset.mouseover" end="reset.mouseout"/>
                       </use>
               </g>
        </defs>

<script type="text/javascript">
var viewWidth = 989;
var viewHeight = 262;
var sectionId = 'dynsection-0';
</script>
<script xlink:href="svgpan.js"/>
<svg id="graph" class="graph">
<g id="viewport">
<title>include/sphere.hpp</title>
<polygon fill="white" stroke="white" points="-4,5 -4,-258 986,-258 986,5 -4,5"/>
<!-- Node1 -->
<g id="node1" class="node"><title>Node1</title>
<polygon fill="#bfbfbf" stroke="black" points="534,-232.5 534,-253.5 632,-253.5 632,-232.5 534,-232.5"/>
<text text-anchor="middle" x="583" y="-240.5" font-family="Helvetica,sans-Serif" font-size="10.00">include/sphere.hpp</text>
</g>
<!-- Node2 -->
<g id="node3" class="node"><title>Node2</title>
<a xlink:href="geometry_8hpp.html" target="_top" xlink:title="geometry.hpp">
<polygon fill="white" stroke="black" points="545,-174.5 545,-195.5 621,-195.5 621,-174.5 545,-174.5"/>
<text text-anchor="middle" x="583" y="-182.5" font-family="Helvetica,sans-Serif" font-size="10.00">geometry.hpp</text>
</a>
</g>
<!-- Node1&#45;&gt;Node2 -->
<g id="edge2" class="edge"><title>Node1&#45;&gt;Node2</title>
<path fill="none" stroke="midnightblue" d="M583,-232.362C583,-224.922 583,-214.743 583,-205.728"/>
<polygon fill="midnightblue" stroke="midnightblue" points="586.5,-205.571 583,-195.571 579.5,-205.571 586.5,-205.571"/>
</g>
<!-- Node9 -->
<g id="node17" class="node"><title>Node9</title>
<polygon fill="white" stroke="#bfbfbf" points="934.5,-116.5 934.5,-137.5 981.5,-137.5 981.5,-116.5 934.5,-116.5"/>
<text text-anchor="middle" x="958" y="-124.5" font-family="Helvetica,sans-Serif" font-size="10.00">QColor</text>
</g>
<!-- Node1&#45;&gt;Node9 -->
<g id="edge54" class="edge"><title>Node1&#45;&gt;Node9</title>
<path fill="none" stroke="midnightblue" d="M617.273,-232.398C688.963,-210.222 853.957,-159.184 924.75,-137.285"/>
<polygon fill="midnightblue" stroke="midnightblue" points="925.97,-140.572 934.489,-134.273 923.901,-133.884 925.97,-140.572"/>
</g>
<!-- Node15 -->
<g id="node33" class="node"><title>Node15</title>
<polygon fill="white" stroke="#bfbfbf" points="59.5,-58.5 59.5,-79.5 142.5,-79.5 142.5,-58.5 59.5,-58.5"/>
<text text-anchor="middle" x="101" y="-66.5" font-family="Helvetica,sans-Serif" font-size="10.00">QMetaProperty</text>
</g>
<!-- Node1&#45;&gt;Node15 -->
<g id="edge52" class="edge"><title>Node1&#45;&gt;Node15</title>
<path fill="none" stroke="midnightblue" d="M533.889,-240.9C414.54,-234.663 114.603,-211.814 54,-138 40.1221,-121.097 58.9323,-100.148 76.7181,-85.7955"/>
<polygon fill="midnightblue" stroke="midnightblue" points="78.8728,-88.5539 84.6968,-79.7033 74.6247,-82.9903 78.8728,-88.5539"/>
</g>
<!-- Node3 -->
<g id="node5" class="node"><title>Node3</title>
<polygon fill="white" stroke="#bfbfbf" points="235.5,-0.5 235.5,-21.5 288.5,-21.5 288.5,-0.5 235.5,-0.5"/>
<text text-anchor="middle" x="262" y="-8.5" font-family="Helvetica,sans-Serif" font-size="10.00">QObject</text>
</g>
<!-- Node2&#45;&gt;Node3 -->
<g id="edge4" class="edge"><title>Node2&#45;&gt;Node3</title>
<path fill="none" stroke="midnightblue" d="M621.156,-181.393C694.717,-174.052 850.321,-156.498 866,-138 872.322,-130.541 871.776,-123.89 866,-116 815.6,-47.156 766.463,-75.7068 683,-58 543.116,-28.3234 372.858,-16.6138 299.061,-12.6982"/>
<polygon fill="midnightblue" stroke="midnightblue" points="299.054,-9.19332 288.888,-12.1758 298.695,-16.1841 299.054,-9.19332"/>
</g>
<!-- Node4 -->
<g id="node7" class="node"><title>Node4</title>
<polygon fill="white" stroke="#bfbfbf" points="-0.5,-0.5 -0.5,-21.5 64.5,-21.5 64.5,-0.5 -0.5,-0.5"/>
<text text-anchor="middle" x="32" y="-8.5" font-family="Helvetica,sans-Serif" font-size="10.00">QVector3D</text>
</g>
<!-- Node2&#45;&gt;Node4 -->
<g id="edge6" class="edge"><title>Node2&#45;&gt;Node4</title>
<path fill="none" stroke="midnightblue" d="M544.677,-184.245C429.144,-181.608 89.9566,-171.092 54,-138 24.7835,-111.111 25.4996,-60.4805 28.6902,-31.9403"/>
<polygon fill="midnightblue" stroke="midnightblue" points="32.1833,-32.2227 30.0273,-21.8496 25.2439,-31.3031 32.1833,-32.2227"/>
</g>
<!-- Node5 -->
<g id="node9" class="node"><title>Node5</title>
<polygon fill="white" stroke="#bfbfbf" points="571.5,-58.5 571.5,-79.5 674.5,-79.5 674.5,-58.5 571.5,-58.5"/>
<text text-anchor="middle" x="623" y="-66.5" font-family="Helvetica,sans-Serif" font-size="10.00">QOpenGLFunctions</text>
</g>
<!-- Node2&#45;&gt;Node5 -->
<g id="edge8" class="edge"><title>Node2&#45;&gt;Node5</title>
<path fill="none" stroke="midnightblue" d="M621.094,-184.078C687.752,-181.573 821.216,-172.293 850,-138 856.286,-130.511 856.173,-123.583 850,-116 829.493,-90.8118 744.602,-78.7019 684.67,-73.1917"/>
<polygon fill="midnightblue" stroke="midnightblue" points="684.805,-69.6901 674.536,-72.3003 684.191,-76.6632 684.805,-69.6901"/>
</g>
<!-- Node6 -->
<g id="node11" class="node"><title>Node6</title>
<polygon fill="white" stroke="#bfbfbf" points="263,-116.5 263,-137.5 391,-137.5 391,-116.5 263,-116.5"/>
<text text-anchor="middle" x="327" y="-124.5" font-family="Helvetica,sans-Serif" font-size="10.00">QOpenGLShaderProgram</text>
</g>
<!-- Node2&#45;&gt;Node6 -->
<g id="edge10" class="edge"><title>Node2&#45;&gt;Node6</title>
<path fill="none" stroke="midnightblue" d="M544.951,-176.379C502.21,-166.696 432.413,-150.883 383.344,-139.765"/>
<polygon fill="midnightblue" stroke="midnightblue" points="384.039,-136.334 373.513,-137.538 382.492,-143.161 384.039,-136.334"/>
</g>
<!-- Node7 -->
<g id="node13" class="node"><title>Node7</title>
<polygon fill="white" stroke="#bfbfbf" points="409,-116.5 409,-137.5 495,-137.5 495,-116.5 409,-116.5"/>
<text text-anchor="middle" x="452" y="-124.5" font-family="Helvetica,sans-Serif" font-size="10.00">QOpenGLBuffer</text>
</g>
<!-- Node2&#45;&gt;Node7 -->
<g id="edge12" class="edge"><title>Node2&#45;&gt;Node7</title>
<path fill="none" stroke="midnightblue" d="M559.277,-174.497C538.632,-165.356 508.484,-152.008 485.401,-141.788"/>
<polygon fill="midnightblue" stroke="midnightblue" points="486.55,-138.469 475.989,-137.621 483.716,-144.87 486.55,-138.469"/>
</g>
<!-- Node8 -->
<g id="node15" class="node"><title>Node8</title>
<polygon fill="white" stroke="#bfbfbf" points="513,-116.5 513,-137.5 653,-137.5 653,-116.5 513,-116.5"/>
<text text-anchor="middle" x="583" y="-124.5" font-family="Helvetica,sans-Serif" font-size="10.00">QOpenGLVertexArrayObject</text>
</g>
<!-- Node2&#45;&gt;Node8 -->
<g id="edge14" class="edge"><title>Node2&#45;&gt;Node8</title>
<path fill="none" stroke="midnightblue" d="M583,-174.362C583,-166.922 583,-156.743 583,-147.728"/>
<polygon fill="midnightblue" stroke="midnightblue" points="586.5,-147.571 583,-137.571 579.5,-147.571 586.5,-147.571"/>
</g>
<!-- Node2&#45;&gt;Node9 -->
<g id="edge16" class="edge"><title>Node2&#45;&gt;Node9</title>
<path fill="none" stroke="midnightblue" d="M621.092,-181.594C684.026,-175.546 813.452,-161.325 921,-138 922.081,-137.766 923.176,-137.516 924.279,-137.253"/>
<polygon fill="midnightblue" stroke="midnightblue" points="925.47,-140.559 934.253,-134.634 923.692,-133.789 925.47,-140.559"/>
</g>
<!-- Node10 -->
<g id="node19" class="node"><title>Node10</title>
<a xlink:href="globals_8hpp.html" target="_top" xlink:title="Definitions globales. ">
<polygon fill="white" stroke="black" points="160,-58.5 160,-79.5 226,-79.5 226,-58.5 160,-58.5"/>
<text text-anchor="middle" x="193" y="-66.5" font-family="Helvetica,sans-Serif" font-size="10.00">globals.hpp</text>
</a>
</g>
<!-- Node2&#45;&gt;Node10 -->
<g id="edge18" class="edge"><title>Node2&#45;&gt;Node10</title>
<path fill="none" stroke="midnightblue" d="M544.949,-183.39C449.179,-178.95 204.061,-165.03 180,-138 168.165,-124.705 174.06,-104.129 181.31,-88.9025"/>
<polygon fill="midnightblue" stroke="midnightblue" points="184.54,-90.2795 186.097,-79.7996 178.345,-87.0214 184.54,-90.2795"/>
</g>
<!-- Node13 -->
<g id="node27" class="node"><title>Node13</title>
<a xlink:href="actor_8hpp.html" target="_top" xlink:title="actor.hpp">
<polygon fill="white" stroke="black" points="188.5,-116.5 188.5,-137.5 245.5,-137.5 245.5,-116.5 188.5,-116.5"/>
<text text-anchor="middle" x="217" y="-124.5" font-family="Helvetica,sans-Serif" font-size="10.00">actor.hpp</text>
</a>
</g>
<!-- Node2&#45;&gt;Node13 -->
<g id="edge28" class="edge"><title>Node2&#45;&gt;Node13</title>
<path fill="none" stroke="midnightblue" d="M544.93,-181.4C485.12,-175.346 365.413,-161.623 255.498,-138.104"/>
<polygon fill="midnightblue" stroke="midnightblue" points="256.09,-134.651 245.575,-135.948 254.604,-141.491 256.09,-134.651"/>
</g>
<!-- Node16 -->
<g id="node35" class="node"><title>Node16</title>
<a xlink:href="material_8hpp.html" target="_top" xlink:title="material.hpp">
<polygon fill="white" stroke="black" points="63,-116.5 63,-137.5 133,-137.5 133,-116.5 63,-116.5"/>
<text text-anchor="middle" x="98" y="-124.5" font-family="Helvetica,sans-Serif" font-size="10.00">material.hpp</text>
</a>
</g>
<!-- Node2&#45;&gt;Node16 -->
<g id="edge38" class="edge"><title>Node2&#45;&gt;Node16</title>
<path fill="none" stroke="midnightblue" d="M544.895,-182.354C468.87,-176.754 293.089,-162.192 147,-138 145.742,-137.792 144.468,-137.571 143.183,-137.341"/>
<polygon fill="midnightblue" stroke="midnightblue" points="143.719,-133.88 133.235,-135.412 142.386,-140.751 143.719,-133.88"/>
</g>
<!-- Node17 -->
<g id="node40" class="node"><title>Node17</title>
<polygon fill="white" stroke="#bfbfbf" points="671,-116.5 671,-137.5 723,-137.5 723,-116.5 671,-116.5"/>
<text text-anchor="middle" x="697" y="-124.5" font-family="Helvetica,sans-Serif" font-size="10.00">memory</text>
</g>
<!-- Node2&#45;&gt;Node17 -->
<g id="edge46" class="edge"><title>Node2&#45;&gt;Node17</title>
<path fill="none" stroke="midnightblue" d="M603.645,-174.497C621.37,-165.479 647.145,-152.365 667.123,-142.201"/>
<polygon fill="midnightblue" stroke="midnightblue" points="668.798,-145.275 676.124,-137.621 665.624,-139.036 668.798,-145.275"/>
</g>
<!-- Node18 -->
<g id="node42" class="node"><title>Node18</title>
<polygon fill="white" stroke="#bfbfbf" points="741,-116.5 741,-137.5 785,-137.5 785,-116.5 741,-116.5"/>
<text text-anchor="middle" x="763" y="-124.5" font-family="Helvetica,sans-Serif" font-size="10.00">vector</text>
</g>
<!-- Node2&#45;&gt;Node18 -->
<g id="edge48" class="edge"><title>Node2&#45;&gt;Node18</title>
<path fill="none" stroke="midnightblue" d="M617.736,-174.425C645.936,-165.754 686.948,-152.955 730.951,-138.284"/>
<polygon fill="midnightblue" stroke="midnightblue" points="732.311,-141.52 740.682,-135.026 730.088,-134.882 732.311,-141.52"/>
</g>
<!-- Node19 -->
<g id="node44" class="node"><title>Node19</title>
<polygon fill="white" stroke="#bfbfbf" points="803,-116.5 803,-137.5 841,-137.5 841,-116.5 803,-116.5"/>
<text text-anchor="middle" x="822" y="-124.5" font-family="Helvetica,sans-Serif" font-size="10.00">tuple</text>
</g>
<!-- Node2&#45;&gt;Node19 -->
<g id="edge50" class="edge"><title>Node2&#45;&gt;Node19</title>
<path fill="none" stroke="midnightblue" d="M621.195,-178.341C661.821,-170.853 728.029,-157.491 793.247,-137.907"/>
<polygon fill="midnightblue" stroke="midnightblue" points="794.317,-141.24 802.859,-134.972 792.273,-134.545 794.317,-141.24"/>
</g>
<!-- Node10&#45;&gt;Node3 -->
<g id="edge20" class="edge"><title>Node10&#45;&gt;Node3</title>
<path fill="none" stroke="midnightblue" d="M205.656,-58.3619C215.674,-49.9408 229.867,-38.0105 241.501,-28.2308"/>
<polygon fill="midnightblue" stroke="midnightblue" points="244.022,-30.6844 249.425,-21.5707 239.518,-25.326 244.022,-30.6844"/>
</g>
<!-- Node10&#45;&gt;Node4 -->
<g id="edge24" class="edge"><title>Node10&#45;&gt;Node4</title>
<path fill="none" stroke="midnightblue" d="M163.844,-58.4966C137.824,-49.1229 99.5207,-35.3242 70.8959,-25.0122"/>
<polygon fill="midnightblue" stroke="midnightblue" points="71.805,-21.6195 61.2106,-21.5231 69.4324,-28.2052 71.805,-21.6195"/>
</g>
<!-- Node11 -->
<g id="node22" class="node"><title>Node11</title>
<polygon fill="white" stroke="#bfbfbf" points="81.5,-0.5 81.5,-21.5 152.5,-21.5 152.5,-0.5 81.5,-0.5"/>
<text text-anchor="middle" x="117" y="-8.5" font-family="Helvetica,sans-Serif" font-size="10.00">QQuaternion</text>
</g>
<!-- Node10&#45;&gt;Node11 -->
<g id="edge22" class="edge"><title>Node10&#45;&gt;Node11</title>
<path fill="none" stroke="midnightblue" d="M179.06,-58.3619C167.812,-49.7773 151.784,-37.5459 138.835,-27.6636"/>
<polygon fill="midnightblue" stroke="midnightblue" points="140.924,-24.8551 130.851,-21.5707 136.677,-30.4198 140.924,-24.8551"/>
</g>
<!-- Node12 -->
<g id="node25" class="node"><title>Node12</title>
<polygon fill="white" stroke="#bfbfbf" points="169.5,-0.5 169.5,-21.5 218.5,-21.5 218.5,-0.5 169.5,-0.5"/>
<text text-anchor="middle" x="194" y="-8.5" font-family="Helvetica,sans-Serif" font-size="10.00">QtMath</text>
</g>
<!-- Node10&#45;&gt;Node12 -->
<g id="edge26" class="edge"><title>Node10&#45;&gt;Node12</title>
<path fill="none" stroke="midnightblue" d="M193.183,-58.3619C193.312,-50.9219 193.487,-40.7427 193.643,-31.7276"/>
<polygon fill="midnightblue" stroke="midnightblue" points="197.145,-31.6295 193.818,-21.5707 190.146,-31.5088 197.145,-31.6295"/>
</g>
<!-- Node13&#45;&gt;Node5 -->
<g id="edge34" class="edge"><title>Node13&#45;&gt;Node5</title>
<path fill="none" stroke="midnightblue" d="M245.566,-118.009C248.4,-117.267 251.246,-116.581 254,-116 360.823,-93.4736 487.471,-80.2029 561.18,-73.7868"/>
<polygon fill="midnightblue" stroke="midnightblue" points="561.557,-77.2675 571.222,-72.9267 560.96,-70.293 561.557,-77.2675"/>
</g>
<!-- Node13&#45;&gt;Node10 -->
<g id="edge30" class="edge"><title>Node13&#45;&gt;Node10</title>
<path fill="none" stroke="midnightblue" d="M212.598,-116.362C209.418,-108.677 205.028,-98.0686 201.21,-88.8399"/>
<polygon fill="midnightblue" stroke="midnightblue" points="204.432,-87.4726 197.374,-79.5707 197.964,-90.1491 204.432,-87.4726"/>
</g>
<!-- Node14 -->
<g id="node30" class="node"><title>Node14</title>
<polygon fill="white" stroke="#bfbfbf" points="281.5,-58.5 281.5,-79.5 348.5,-79.5 348.5,-58.5 281.5,-58.5"/>
<text text-anchor="middle" x="315" y="-66.5" font-family="Helvetica,sans-Serif" font-size="10.00">QMatrix4x4</text>
</g>
<!-- Node13&#45;&gt;Node14 -->
<g id="edge32" class="edge"><title>Node13&#45;&gt;Node14</title>
<path fill="none" stroke="midnightblue" d="M234.975,-116.362C249.894,-107.532 271.333,-94.844 288.266,-84.8224"/>
<polygon fill="midnightblue" stroke="midnightblue" points="290.316,-87.6759 297.139,-79.5707 286.751,-81.6519 290.316,-87.6759"/>
</g>
<!-- Node13&#45;&gt;Node15 -->
<g id="edge36" class="edge"><title>Node13&#45;&gt;Node15</title>
<path fill="none" stroke="midnightblue" d="M195.993,-116.497C177.957,-107.479 151.73,-94.3649 131.401,-84.2006"/>
<polygon fill="midnightblue" stroke="midnightblue" points="132.752,-80.9629 122.242,-79.6212 129.621,-87.2239 132.752,-80.9629"/>
</g>
<!-- Node16&#45;&gt;Node3 -->
<g id="edge40" class="edge"><title>Node16&#45;&gt;Node3</title>
<path fill="none" stroke="midnightblue" d="M133.198,-123.225C163.713,-118.209 207.224,-106.62 235,-80 248.377,-67.1796 255.249,-46.9422 258.7,-31.6928"/>
<polygon fill="midnightblue" stroke="midnightblue" points="262.18,-32.1321 260.653,-21.6479 255.309,-30.796 262.18,-32.1321"/>
</g>
<!-- Node16&#45;&gt;Node10 -->
<g id="edge42" class="edge"><title>Node16&#45;&gt;Node10</title>
<path fill="none" stroke="midnightblue" d="M115.424,-116.362C129.887,-107.532 150.669,-94.844 167.084,-84.8224"/>
<polygon fill="midnightblue" stroke="midnightblue" points="168.975,-87.7688 175.686,-79.5707 165.327,-81.7943 168.975,-87.7688"/>
</g>
<!-- Node16&#45;&gt;Node15 -->
<g id="edge44" class="edge"><title>Node16&#45;&gt;Node15</title>
<path fill="none" stroke="midnightblue" d="M98.5502,-116.362C98.9351,-108.922 99.4616,-98.7427 99.9279,-89.7276"/>
<polygon fill="midnightblue" stroke="midnightblue" points="103.432,-89.7381 100.453,-79.5707 96.4413,-89.3765 103.432,-89.7381"/>
</g>
</g>
</svg>
        <g id="navigator" transform="translate(0 0)" fill="#404254">
                <rect fill="#f2f5e9" fill-opacity="0.5" stroke="#606060" stroke-width=".5" x="0" y="0" width="60" height="60"/>
                <use id="zoomplus" xlink:href="#zoomPlus" x="17" y="9" onmousedown="handleZoom(evt,'in')"/>
                <use id="zoomminus" xlink:href="#zoomMin" x="42" y="9" onmousedown="handleZoom(evt,'out')"/>
                <use id="reset" xlink:href="#resetDef" x="30" y="36" onmousedown="handleReset()"/>
                <g id="arrowUp" xlink:href="#dirArrow" transform="translate(30 24)" onmousedown="handlePan(0,-1)">
                  <use xlink:href="#rim" fill="#404040">
                        <set attributeName="fill" to="#808080" begin="arrowUp.mouseover" end="arrowUp.mouseout"/>
                  </use>
                  <path fill="none" stroke="white" stroke-width="1.5" d="M0,-3.0v7 M-2.5,-0.5L0,-3.0L2.5,-0.5"/>
                </g>
                <g id="arrowRight" xlink:href="#dirArrow" transform="rotate(90) translate(36 -43)" onmousedown="handlePan(1,0)">
                  <use xlink:href="#rim" fill="#404040">
                        <set attributeName="fill" to="#808080" begin="arrowRight.mouseover" end="arrowRight.mouseout"/>
                  </use>
                  <path fill="none" stroke="white" stroke-width="1.5" d="M0,-3.0v7 M-2.5,-0.5L0,-3.0L2.5,-0.5"/>
                </g>
                <g id="arrowDown" xlink:href="#dirArrow" transform="rotate(180) translate(-30 -48)" onmousedown="handlePan(0,1)">
                  <use xlink:href="#rim" fill="#404040">
                        <set attributeName="fill" to="#808080" begin="arrowDown.mouseover" end="arrowDown.mouseout"/>
                  </use>
                  <path fill="none" stroke="white" stroke-width="1.5" d="M0,-3.0v7 M-2.5,-0.5L0,-3.0L2.5,-0.5"/>
                </g>
                <g id="arrowLeft" xlink:href="#dirArrow" transform="rotate(270) translate(-36 17)" onmousedown="handlePan(-1,0)">
                  <use xlink:href="#rim" fill="#404040">
                        <set attributeName="fill" to="#808080" begin="arrowLeft.mouseover" end="arrowLeft.mouseout"/>
                  </use>
                  <path fill="none" stroke="white" stroke-width="1.5" d="M0,-3.0v7 M-2.5,-0.5L0,-3.0L2.5,-0.5"/>
                </g>
        </g>
        <svg viewBox="0 0 15 15" width="100%" height="30px" preserveAspectRatio="xMaxYMin meet">
         <g id="arrow_out" transform="scale(0.3 0.3)">
          <a xlink:href="sphere_8hpp__incl_org.svg" target="_base">
           <rect id="button" ry="5" rx="5" y="6" x="6" height="38" width="38"
                fill="#f2f5e9" fill-opacity="0.5" stroke="#606060" stroke-width="1.0"/>
           <path id="arrow"
             d="M 11.500037,31.436501 C 11.940474,20.09759 22.043105,11.32322 32.158766,21.979434 L 37.068811,17.246167 C 37.068811,17.246167 37.088388,32 37.088388,32 L 22.160133,31.978069 C 22.160133,31.978069 26.997745,27.140456 26.997745,27.140456 C 18.528582,18.264221 13.291696,25.230495 11.500037,31.436501 z"
             style="fill:#404040;"/>
          </a>
         </g>
        </svg>
</svg>
