<?xml version="1.0" encoding="UTF-8" standalone="no"?>
<!DOCTYPE svg PUBLIC "-//W3C//DTD SVG 1.1//EN"
 "http://www.w3.org/Graphics/SVG/1.1/DTD/svg11.dtd">
<!-- Generated by graphviz version 2.26.3 (20100126.1600)
 -->
<!-- Title: include/sphere.hpp Pages: 1 -->
<svg width="336pt" height="146pt"
 viewBox="0.00 0.00 336.00 146.00" xmlns="http://www.w3.org/2000/svg" xmlns:xlink="http://www.w3.org/1999/xlink">
<g id="graph1" class="graph" transform="scale(1 1) rotate(0) translate(4 142)">
<title>include/sphere.hpp</title>
<polygon fill="white" stroke="white" points="-4,5 -4,-142 333,-142 333,5 -4,5"/>
<!-- Node1 -->
<g id="node1" class="node"><title>Node1</title>
<polygon fill="#bfbfbf" stroke="black" points="128,-116.5 128,-137.5 226,-137.5 226,-116.5 128,-116.5"/>
<text text-anchor="middle" x="177" y="-124.5" font-family="Helvetica,sans-Serif" font-size="10.00">include/sphere.hpp</text>
</g>
<!-- Node2 -->
<g id="node3" class="node"><title>Node2</title>
<a xlink:href="mainwindow_8cpp.html" target="_top" xlink:title="src/mainwindow.cpp">
<polygon fill="white" stroke="black" points="0,-58.5 0,-79.5 106,-79.5 106,-58.5 0,-58.5"/>
<text text-anchor="middle" x="53" y="-66.5" font-family="Helvetica,sans-Serif" font-size="10.00">src/mainwindow.cpp</text>
</a>
</g>
<!-- Node1&#45;&gt;Node2 -->
<g id="edge2" class="edge"><title>Node1&#45;&gt;Node2</title>
<path fill="none" stroke="midnightblue" d="M145.372,-112.206C123.618,-102.031 95.2384,-88.7567 75.7074,-79.6212"/>
<polygon fill="midnightblue" stroke="midnightblue" points="144.004,-115.43 154.545,-116.497 146.969,-109.089 144.004,-115.43"/>
</g>
<!-- Node3 -->
<g id="node5" class="node"><title>Node3</title>
<a xlink:href="viewport_8hpp.html" target="_top" xlink:title="include/viewport.hpp">
<polygon fill="white" stroke="black" points="124,-58.5 124,-79.5 230,-79.5 230,-58.5 124,-58.5"/>
<text text-anchor="middle" x="177" y="-66.5" font-family="Helvetica,sans-Serif" font-size="10.00">include/viewport.hpp</text>
</a>
</g>
<!-- Node1&#45;&gt;Node3 -->
<g id="edge4" class="edge"><title>Node1&#45;&gt;Node3</title>
<path fill="none" stroke="midnightblue" d="M177,-106.191C177,-97.1684 177,-86.9941 177,-79.5707"/>
<polygon fill="midnightblue" stroke="midnightblue" points="173.5,-106.362 177,-116.362 180.5,-106.362 173.5,-106.362"/>
</g>
<!-- Node5 -->
<g id="node9" class="node"><title>Node5</title>
<a xlink:href="sphere_8cpp.html" target="_top" xlink:title="src/sphere.cpp">
<polygon fill="white" stroke="black" points="247.5,-58.5 247.5,-79.5 328.5,-79.5 328.5,-58.5 247.5,-58.5"/>
<text text-anchor="middle" x="288" y="-66.5" font-family="Helvetica,sans-Serif" font-size="10.00">src/sphere.cpp</text>
</a>
</g>
<!-- Node1&#45;&gt;Node5 -->
<g id="edge8" class="edge"><title>Node1&#45;&gt;Node5</title>
<path fill="none" stroke="midnightblue" d="M206.101,-111.794C225.468,-101.675 250.425,-88.6338 267.673,-79.6212"/>
<polygon fill="midnightblue" stroke="midnightblue" points="204.343,-108.763 197.101,-116.497 207.585,-114.968 204.343,-108.763"/>
</g>
<!-- Node4 -->
<g id="node7" class="node"><title>Node4</title>
<a xlink:href="viewport_8cpp.html" target="_top" xlink:title="src/viewport.cpp">
<polygon fill="white" stroke="black" points="132.5,-0.5 132.5,-21.5 221.5,-21.5 221.5,-0.5 132.5,-0.5"/>
<text text-anchor="middle" x="177" y="-8.5" font-family="Helvetica,sans-Serif" font-size="10.00">src/viewport.cpp</text>
</a>
</g>
<!-- Node3&#45;&gt;Node4 -->
<g id="edge6" class="edge"><title>Node3&#45;&gt;Node4</title>
<path fill="none" stroke="midnightblue" d="M177,-48.1906C177,-39.1684 177,-28.9941 177,-21.5707"/>
<polygon fill="midnightblue" stroke="midnightblue" points="173.5,-48.3619 177,-58.3619 180.5,-48.3619 173.5,-48.3619"/>
</g>
</g>
</svg>
