<?xml version="1.0" encoding="UTF-8" standalone="no"?>
<!DOCTYPE svg PUBLIC "-//W3C//DTD SVG 1.1//EN"
 "http://www.w3.org/Graphics/SVG/1.1/DTD/svg11.dtd">
<!-- Generated by graphviz version 2.26.3 (20100126.1600)
 -->
<!-- Title: src/sphere.cpp Pages: 1 -->
<svg width="979pt" height="320pt"
 viewBox="0.00 0.00 978.80 320.00" xmlns="http://www.w3.org/2000/svg" xmlns:xlink="http://www.w3.org/1999/xlink">
<g id="graph1" class="graph" transform="scale(1 1) rotate(0) translate(4 316)">
<title>src/sphere.cpp</title>
<polygon fill="white" stroke="white" points="-4,5 -4,-316 975.796,-316 975.796,5 -4,5"/>
<!-- Node1 -->
<g id="node1" class="node"><title>Node1</title>
<polygon fill="#bfbfbf" stroke="black" points="880.296,-290.5 880.296,-311.5 961.296,-311.5 961.296,-290.5 880.296,-290.5"/>
<text text-anchor="middle" x="920.796" y="-298.5" font-family="Helvetica,sans-Serif" font-size="10.00">src/sphere.cpp</text>
</g>
<!-- Node2 -->
<g id="node3" class="node"><title>Node2</title>
<a xlink:href="sphere_8hpp.html" target="_top" xlink:title="sphere.hpp">
<polygon fill="white" stroke="black" points="575.296,-232.5 575.296,-253.5 640.296,-253.5 640.296,-232.5 575.296,-232.5"/>
<text text-anchor="middle" x="607.796" y="-240.5" font-family="Helvetica,sans-Serif" font-size="10.00">sphere.hpp</text>
</a>
</g>
<!-- Node1&#45;&gt;Node2 -->
<g id="edge2" class="edge"><title>Node1&#45;&gt;Node2</title>
<path fill="none" stroke="midnightblue" d="M880.198,-293.477C820.936,-282.495 711.229,-262.166 650.693,-250.949"/>
<polygon fill="midnightblue" stroke="midnightblue" points="651.17,-247.478 640.699,-249.097 649.894,-254.361 651.17,-247.478"/>
</g>
<!-- Node13 -->
<g id="node27" class="node"><title>Node13</title>
<polygon fill="white" stroke="#bfbfbf" points="785.296,-0.5 785.296,-21.5 834.296,-21.5 834.296,-0.5 785.296,-0.5"/>
<text text-anchor="middle" x="809.796" y="-8.5" font-family="Helvetica,sans-Serif" font-size="10.00">QtMath</text>
</g>
<!-- Node1&#45;&gt;Node13 -->
<g id="edge58" class="edge"><title>Node1&#45;&gt;Node13</title>
<path fill="none" stroke="midnightblue" d="M928.829,-290.464C942.963,-270.843 970.796,-226.886 970.796,-185 970.796,-185 970.796,-185 970.796,-127 970.796,-65.2157 891.782,-33.068 844.461,-19.355"/>
<polygon fill="midnightblue" stroke="midnightblue" points="845.171,-15.9201 834.599,-16.6297 843.306,-22.6672 845.171,-15.9201"/>
</g>
<!-- Node19 -->
<g id="node44" class="node"><title>Node19</title>
<polygon fill="white" stroke="#bfbfbf" points="898.796,-116.5 898.796,-137.5 942.796,-137.5 942.796,-116.5 898.796,-116.5"/>
<text text-anchor="middle" x="920.796" y="-124.5" font-family="Helvetica,sans-Serif" font-size="10.00">vector</text>
</g>
<!-- Node1&#45;&gt;Node19 -->
<g id="edge60" class="edge"><title>Node1&#45;&gt;Node19</title>
<path fill="none" stroke="midnightblue" d="M920.796,-290.377C920.796,-262.293 920.796,-185.673 920.796,-148.203"/>
<polygon fill="midnightblue" stroke="midnightblue" points="924.296,-147.928 920.796,-137.928 917.296,-147.928 924.296,-147.928"/>
</g>
<!-- Node3 -->
<g id="node5" class="node"><title>Node3</title>
<a xlink:href="geometry_8hpp.html" target="_top" xlink:title="geometry.hpp">
<polygon fill="white" stroke="black" points="495.796,-174.5 495.796,-195.5 571.796,-195.5 571.796,-174.5 495.796,-174.5"/>
<text text-anchor="middle" x="533.796" y="-182.5" font-family="Helvetica,sans-Serif" font-size="10.00">geometry.hpp</text>
</a>
</g>
<!-- Node2&#45;&gt;Node3 -->
<g id="edge4" class="edge"><title>Node2&#45;&gt;Node3</title>
<path fill="none" stroke="midnightblue" d="M594.223,-232.362C583.375,-223.859 567.962,-211.779 555.418,-201.947"/>
<polygon fill="midnightblue" stroke="midnightblue" points="557.312,-198.985 547.283,-195.571 552.994,-204.494 557.312,-198.985"/>
</g>
<!-- Node10 -->
<g id="node19" class="node"><title>Node10</title>
<polygon fill="white" stroke="#bfbfbf" points="834.296,-116.5 834.296,-137.5 881.296,-137.5 881.296,-116.5 834.296,-116.5"/>
<text text-anchor="middle" x="857.796" y="-124.5" font-family="Helvetica,sans-Serif" font-size="10.00">QColor</text>
</g>
<!-- Node2&#45;&gt;Node10 -->
<g id="edge56" class="edge"><title>Node2&#45;&gt;Node10</title>
<path fill="none" stroke="midnightblue" d="M630.867,-232.295C675.723,-211.482 774.763,-165.527 825.882,-141.808"/>
<polygon fill="midnightblue" stroke="midnightblue" points="827.544,-144.896 835.142,-137.512 824.597,-138.546 827.544,-144.896"/>
</g>
<!-- Node16 -->
<g id="node35" class="node"><title>Node16</title>
<polygon fill="white" stroke="#bfbfbf" points="211.296,-58.5 211.296,-79.5 294.296,-79.5 294.296,-58.5 211.296,-58.5"/>
<text text-anchor="middle" x="252.796" y="-66.5" font-family="Helvetica,sans-Serif" font-size="10.00">QMetaProperty</text>
</g>
<!-- Node2&#45;&gt;Node16 -->
<g id="edge54" class="edge"><title>Node2&#45;&gt;Node16</title>
<path fill="none" stroke="midnightblue" d="M575.048,-242.457C461.603,-239.82 88.3832,-224.594 15.7961,-138 9.51481,-130.507 9.59093,-123.557 15.7961,-116 38.7746,-88.017 138.543,-76.4014 201.082,-71.8037"/>
<polygon fill="midnightblue" stroke="midnightblue" points="201.429,-75.2881 211.16,-71.0995 200.941,-68.3051 201.429,-75.2881"/>
</g>
<!-- Node4 -->
<g id="node7" class="node"><title>Node4</title>
<polygon fill="white" stroke="#bfbfbf" points="292.296,-0.5 292.296,-21.5 345.296,-21.5 345.296,-0.5 292.296,-0.5"/>
<text text-anchor="middle" x="318.796" y="-8.5" font-family="Helvetica,sans-Serif" font-size="10.00">QObject</text>
</g>
<!-- Node3&#45;&gt;Node4 -->
<g id="edge6" class="edge"><title>Node3&#45;&gt;Node4</title>
<path fill="none" stroke="midnightblue" d="M495.606,-184.436C381.343,-182.358 48.0342,-173.296 15.7961,-138 -64.1042,-50.5218 185.131,-21.3909 281.995,-13.5138"/>
<polygon fill="midnightblue" stroke="midnightblue" points="282.523,-16.9832 292.221,-12.7155 281.979,-10.0045 282.523,-16.9832"/>
</g>
<!-- Node5 -->
<g id="node9" class="node"><title>Node5</title>
<polygon fill="white" stroke="#bfbfbf" points="540.296,-0.5 540.296,-21.5 605.296,-21.5 605.296,-0.5 540.296,-0.5"/>
<text text-anchor="middle" x="572.796" y="-8.5" font-family="Helvetica,sans-Serif" font-size="10.00">QVector3D</text>
</g>
<!-- Node3&#45;&gt;Node5 -->
<g id="edge8" class="edge"><title>Node3&#45;&gt;Node5</title>
<path fill="none" stroke="midnightblue" d="M564.813,-174.348C582.98,-166.721 605.156,-154.807 619.796,-138 637.904,-117.211 636.826,-107.118 641.796,-80 643.559,-70.3824 646.367,-66.6437 641.796,-58 634.584,-44.3621 621.442,-33.94 608.547,-26.4171"/>
<polygon fill="midnightblue" stroke="midnightblue" points="610.198,-23.3314 599.735,-21.6683 606.878,-29.4935 610.198,-23.3314"/>
</g>
<!-- Node6 -->
<g id="node11" class="node"><title>Node6</title>
<polygon fill="white" stroke="#bfbfbf" points="530.296,-58.5 530.296,-79.5 633.296,-79.5 633.296,-58.5 530.296,-58.5"/>
<text text-anchor="middle" x="581.796" y="-66.5" font-family="Helvetica,sans-Serif" font-size="10.00">QOpenGLFunctions</text>
</g>
<!-- Node3&#45;&gt;Node6 -->
<g id="edge10" class="edge"><title>Node3&#45;&gt;Node6</title>
<path fill="none" stroke="midnightblue" d="M561.114,-174.429C576.657,-166.832 594.776,-154.922 603.796,-138 612.238,-122.163 604.427,-102.536 595.863,-88.2688"/>
<polygon fill="midnightblue" stroke="midnightblue" points="598.697,-86.2076 590.289,-79.7606 592.841,-90.0435 598.697,-86.2076"/>
</g>
<!-- Node7 -->
<g id="node13" class="node"><title>Node7</title>
<polygon fill="white" stroke="#bfbfbf" points="688.796,-116.5 688.796,-137.5 816.796,-137.5 816.796,-116.5 688.796,-116.5"/>
<text text-anchor="middle" x="752.796" y="-124.5" font-family="Helvetica,sans-Serif" font-size="10.00">QOpenGLShaderProgram</text>
</g>
<!-- Node3&#45;&gt;Node7 -->
<g id="edge12" class="edge"><title>Node3&#45;&gt;Node7</title>
<path fill="none" stroke="midnightblue" d="M571.943,-174.897C608.321,-165.263 663.308,-150.7 703.099,-140.162"/>
<polygon fill="midnightblue" stroke="midnightblue" points="704.096,-143.518 712.867,-137.575 702.304,-136.752 704.096,-143.518"/>
</g>
<!-- Node8 -->
<g id="node15" class="node"><title>Node8</title>
<polygon fill="white" stroke="#bfbfbf" points="24.7961,-116.5 24.7961,-137.5 110.796,-137.5 110.796,-116.5 24.7961,-116.5"/>
<text text-anchor="middle" x="67.7961" y="-124.5" font-family="Helvetica,sans-Serif" font-size="10.00">QOpenGLBuffer</text>
</g>
<!-- Node3&#45;&gt;Node8 -->
<g id="edge14" class="edge"><title>Node3&#45;&gt;Node8</title>
<path fill="none" stroke="midnightblue" d="M495.672,-181.898C424.147,-175.812 264.797,-161.003 120.769,-138.038"/>
<polygon fill="midnightblue" stroke="midnightblue" points="121.296,-134.578 110.867,-136.442 120.183,-141.488 121.296,-134.578"/>
</g>
<!-- Node9 -->
<g id="node17" class="node"><title>Node9</title>
<polygon fill="white" stroke="#bfbfbf" points="128.796,-116.5 128.796,-137.5 268.796,-137.5 268.796,-116.5 128.796,-116.5"/>
<text text-anchor="middle" x="198.796" y="-124.5" font-family="Helvetica,sans-Serif" font-size="10.00">QOpenGLVertexArrayObject</text>
</g>
<!-- Node3&#45;&gt;Node9 -->
<g id="edge16" class="edge"><title>Node3&#45;&gt;Node9</title>
<path fill="none" stroke="midnightblue" d="M495.693,-178.403C440.774,-168.895 338.4,-151.17 269.423,-139.228"/>
<polygon fill="midnightblue" stroke="midnightblue" points="269.949,-135.767 259.498,-137.51 268.755,-142.664 269.949,-135.767"/>
</g>
<!-- Node3&#45;&gt;Node10 -->
<g id="edge18" class="edge"><title>Node3&#45;&gt;Node10</title>
<path fill="none" stroke="midnightblue" d="M572.016,-180.968C626.336,-174.778 729.029,-161.378 824.372,-138.065"/>
<polygon fill="midnightblue" stroke="midnightblue" points="825.307,-141.439 834.167,-135.628 823.617,-134.647 825.307,-141.439"/>
</g>
<!-- Node11 -->
<g id="node21" class="node"><title>Node11</title>
<a xlink:href="globals_8hpp.html" target="_top" xlink:title="Definitions globales. ">
<polygon fill="white" stroke="black" points="362.796,-58.5 362.796,-79.5 428.796,-79.5 428.796,-58.5 362.796,-58.5"/>
<text text-anchor="middle" x="395.796" y="-66.5" font-family="Helvetica,sans-Serif" font-size="10.00">globals.hpp</text>
</a>
</g>
<!-- Node3&#45;&gt;Node11 -->
<g id="edge20" class="edge"><title>Node3&#45;&gt;Node11</title>
<path fill="none" stroke="midnightblue" d="M495.754,-175.977C461.735,-167.102 415.49,-152.771 403.796,-138 393.178,-124.589 391.871,-104.856 392.816,-89.9244"/>
<polygon fill="midnightblue" stroke="midnightblue" points="396.333,-89.9284 393.861,-79.6261 389.369,-89.2217 396.333,-89.9284"/>
</g>
<!-- Node14 -->
<g id="node29" class="node"><title>Node14</title>
<a xlink:href="actor_8hpp.html" target="_top" xlink:title="actor.hpp">
<polygon fill="white" stroke="black" points="538.296,-116.5 538.296,-137.5 595.296,-137.5 595.296,-116.5 538.296,-116.5"/>
<text text-anchor="middle" x="566.796" y="-124.5" font-family="Helvetica,sans-Serif" font-size="10.00">actor.hpp</text>
</a>
</g>
<!-- Node3&#45;&gt;Node14 -->
<g id="edge30" class="edge"><title>Node3&#45;&gt;Node14</title>
<path fill="none" stroke="midnightblue" d="M539.849,-174.362C544.268,-166.595 550.386,-155.843 555.675,-146.546"/>
<polygon fill="midnightblue" stroke="midnightblue" points="558.879,-147.993 560.782,-137.571 552.794,-144.531 558.879,-147.993"/>
</g>
<!-- Node17 -->
<g id="node37" class="node"><title>Node17</title>
<a xlink:href="material_8hpp.html" target="_top" xlink:title="material.hpp">
<polygon fill="white" stroke="black" points="286.796,-116.5 286.796,-137.5 356.796,-137.5 356.796,-116.5 286.796,-116.5"/>
<text text-anchor="middle" x="321.796" y="-124.5" font-family="Helvetica,sans-Serif" font-size="10.00">material.hpp</text>
</a>
</g>
<!-- Node3&#45;&gt;Node17 -->
<g id="edge40" class="edge"><title>Node3&#45;&gt;Node17</title>
<path fill="none" stroke="midnightblue" d="M495.404,-174.497C459.258,-164.608 405.111,-149.794 366.917,-139.344"/>
<polygon fill="midnightblue" stroke="midnightblue" points="367.654,-135.917 357.084,-136.654 365.806,-142.669 367.654,-135.917"/>
</g>
<!-- Node18 -->
<g id="node42" class="node"><title>Node18</title>
<polygon fill="white" stroke="#bfbfbf" points="412.796,-116.5 412.796,-137.5 464.796,-137.5 464.796,-116.5 412.796,-116.5"/>
<text text-anchor="middle" x="438.796" y="-124.5" font-family="Helvetica,sans-Serif" font-size="10.00">memory</text>
</g>
<!-- Node3&#45;&gt;Node18 -->
<g id="edge48" class="edge"><title>Node3&#45;&gt;Node18</title>
<path fill="none" stroke="midnightblue" d="M516.372,-174.362C501.909,-165.532 481.127,-152.844 464.712,-142.822"/>
<polygon fill="midnightblue" stroke="midnightblue" points="466.469,-139.794 456.11,-137.571 462.821,-145.769 466.469,-139.794"/>
</g>
<!-- Node3&#45;&gt;Node19 -->
<g id="edge50" class="edge"><title>Node3&#45;&gt;Node19</title>
<path fill="none" stroke="midnightblue" d="M571.949,-182.598C635.903,-178.004 768.751,-166.035 888.883,-137.827"/>
<polygon fill="midnightblue" stroke="midnightblue" points="889.702,-141.23 898.614,-135.499 888.074,-134.422 889.702,-141.23"/>
</g>
<!-- Node20 -->
<g id="node46" class="node"><title>Node20</title>
<polygon fill="white" stroke="#bfbfbf" points="482.796,-116.5 482.796,-137.5 520.796,-137.5 520.796,-116.5 482.796,-116.5"/>
<text text-anchor="middle" x="501.796" y="-124.5" font-family="Helvetica,sans-Serif" font-size="10.00">tuple</text>
</g>
<!-- Node3&#45;&gt;Node20 -->
<g id="edge52" class="edge"><title>Node3&#45;&gt;Node20</title>
<path fill="none" stroke="midnightblue" d="M527.927,-174.362C523.642,-166.595 517.709,-155.843 512.58,-146.546"/>
<polygon fill="midnightblue" stroke="midnightblue" points="515.524,-144.636 507.628,-137.571 509.394,-148.017 515.524,-144.636"/>
</g>
<!-- Node11&#45;&gt;Node4 -->
<g id="edge22" class="edge"><title>Node11&#45;&gt;Node4</title>
<path fill="none" stroke="midnightblue" d="M381.673,-58.3619C370.276,-49.7773 354.038,-37.5459 340.918,-27.6636"/>
<polygon fill="midnightblue" stroke="midnightblue" points="342.923,-24.7916 332.83,-21.5707 338.711,-30.3829 342.923,-24.7916"/>
</g>
<!-- Node11&#45;&gt;Node5 -->
<g id="edge26" class="edge"><title>Node11&#45;&gt;Node5</title>
<path fill="none" stroke="midnightblue" d="M427.849,-58.4966C456.705,-49.0411 499.302,-35.0829 530.857,-24.7428"/>
<polygon fill="midnightblue" stroke="midnightblue" points="532.27,-27.963 540.683,-21.5231 530.09,-21.3111 532.27,-27.963"/>
</g>
<!-- Node12 -->
<g id="node24" class="node"><title>Node12</title>
<polygon fill="white" stroke="#bfbfbf" points="362.296,-0.5 362.296,-21.5 433.296,-21.5 433.296,-0.5 362.296,-0.5"/>
<text text-anchor="middle" x="397.796" y="-8.5" font-family="Helvetica,sans-Serif" font-size="10.00">QQuaternion</text>
</g>
<!-- Node11&#45;&gt;Node12 -->
<g id="edge24" class="edge"><title>Node11&#45;&gt;Node12</title>
<path fill="none" stroke="midnightblue" d="M396.163,-58.3619C396.419,-50.9219 396.77,-40.7427 397.081,-31.7276"/>
<polygon fill="midnightblue" stroke="midnightblue" points="400.585,-31.6854 397.432,-21.5707 393.589,-31.4441 400.585,-31.6854"/>
</g>
<!-- Node11&#45;&gt;Node13 -->
<g id="edge28" class="edge"><title>Node11&#45;&gt;Node13</title>
<path fill="none" stroke="midnightblue" d="M429.177,-59.8376C432.081,-59.1681 434.984,-58.5435 437.796,-58 560.699,-34.2466 708.858,-19.6593 774.985,-13.8701"/>
<polygon fill="midnightblue" stroke="midnightblue" points="775.585,-17.3314 785.248,-12.985 774.984,-10.3573 775.585,-17.3314"/>
</g>
<!-- Node14&#45;&gt;Node6 -->
<g id="edge36" class="edge"><title>Node14&#45;&gt;Node6</title>
<path fill="none" stroke="midnightblue" d="M569.547,-116.362C571.493,-108.84 574.162,-98.5187 576.512,-89.4308"/>
<polygon fill="midnightblue" stroke="midnightblue" points="579.947,-90.1285 579.062,-79.5707 573.17,-88.3758 579.947,-90.1285"/>
</g>
<!-- Node14&#45;&gt;Node11 -->
<g id="edge32" class="edge"><title>Node14&#45;&gt;Node11</title>
<path fill="none" stroke="midnightblue" d="M538.175,-117.292C510.378,-107.864 467.902,-93.457 436.575,-82.8314"/>
<polygon fill="midnightblue" stroke="midnightblue" points="437.422,-79.423 426.828,-79.5254 435.174,-86.0521 437.422,-79.423"/>
</g>
<!-- Node15 -->
<g id="node32" class="node"><title>Node15</title>
<polygon fill="white" stroke="#bfbfbf" points="446.296,-58.5 446.296,-79.5 513.296,-79.5 513.296,-58.5 446.296,-58.5"/>
<text text-anchor="middle" x="479.796" y="-66.5" font-family="Helvetica,sans-Serif" font-size="10.00">QMatrix4x4</text>
</g>
<!-- Node14&#45;&gt;Node15 -->
<g id="edge34" class="edge"><title>Node14&#45;&gt;Node15</title>
<path fill="none" stroke="midnightblue" d="M550.839,-116.362C537.839,-107.696 519.265,-95.3126 504.369,-85.3819"/>
<polygon fill="midnightblue" stroke="midnightblue" points="505.914,-82.2055 495.652,-79.5707 502.031,-88.0299 505.914,-82.2055"/>
</g>
<!-- Node14&#45;&gt;Node16 -->
<g id="edge38" class="edge"><title>Node14&#45;&gt;Node16</title>
<path fill="none" stroke="midnightblue" d="M538.204,-118.128C535.375,-117.362 532.538,-116.638 529.796,-116 451.973,-97.8994 360.332,-83.7196 304.418,-75.854"/>
<polygon fill="midnightblue" stroke="midnightblue" points="304.793,-72.3724 294.405,-74.4592 303.827,-79.3055 304.793,-72.3724"/>
</g>
<!-- Node17&#45;&gt;Node4 -->
<g id="edge42" class="edge"><title>Node17&#45;&gt;Node4</title>
<path fill="none" stroke="midnightblue" d="M321.519,-116.295C321.024,-97.1314 319.977,-56.654 319.335,-31.8434"/>
<polygon fill="midnightblue" stroke="midnightblue" points="322.83,-31.5853 319.072,-21.6792 315.832,-31.7664 322.83,-31.5853"/>
</g>
<!-- Node17&#45;&gt;Node11 -->
<g id="edge44" class="edge"><title>Node17&#45;&gt;Node11</title>
<path fill="none" stroke="midnightblue" d="M335.369,-116.362C346.217,-107.859 361.63,-95.7785 374.175,-85.9466"/>
<polygon fill="midnightblue" stroke="midnightblue" points="376.598,-88.4942 382.309,-79.5707 372.28,-82.9848 376.598,-88.4942"/>
</g>
<!-- Node17&#45;&gt;Node16 -->
<g id="edge46" class="edge"><title>Node17&#45;&gt;Node16</title>
<path fill="none" stroke="midnightblue" d="M309.14,-116.362C299.122,-107.941 284.929,-96.0105 273.295,-86.2308"/>
<polygon fill="midnightblue" stroke="midnightblue" points="275.278,-83.326 265.372,-79.5707 270.774,-88.6844 275.278,-83.326"/>
</g>
</g>
</svg>
