<?xml version="1.0" encoding="UTF-8" standalone="no"?>
<!DOCTYPE svg PUBLIC "-//W3C//DTD SVG 1.1//EN"
 "http://www.w3.org/Graphics/SVG/1.1/DTD/svg11.dtd">
<!-- Generated by graphviz version 2.26.3 (20100126.1600)
 -->
<!-- Title: src/sphere.cpp Pages: 1 -->
<svg width="973pt" height="262pt"
 viewBox="0.00 0.00 973.00 262.00" xmlns="http://www.w3.org/2000/svg" xmlns:xlink="http://www.w3.org/1999/xlink">
<g id="graph1" class="graph" transform="scale(1 1) rotate(0) translate(4 258)">
<title>src/sphere.cpp</title>
<polygon fill="white" stroke="white" points="-4,5 -4,-258 970,-258 970,5 -4,5"/>
<!-- Node1 -->
<g id="node1" class="node"><title>Node1</title>
<polygon fill="#bfbfbf" stroke="black" points="768.5,-232.5 768.5,-253.5 849.5,-253.5 849.5,-232.5 768.5,-232.5"/>
<text text-anchor="middle" x="809" y="-240.5" font-family="Helvetica,sans-Serif" font-size="10.00">src/sphere.cpp</text>
</g>
<!-- Node2 -->
<g id="node3" class="node"><title>Node2</title>
<a xlink:href="sphere_8hpp.html" target="_top" xlink:title="sphere.hpp">
<polygon fill="white" stroke="black" points="473.5,-174.5 473.5,-195.5 538.5,-195.5 538.5,-174.5 473.5,-174.5"/>
<text text-anchor="middle" x="506" y="-182.5" font-family="Helvetica,sans-Serif" font-size="10.00">sphere.hpp</text>
</a>
</g>
<!-- Node1&#45;&gt;Node2 -->
<g id="edge2" class="edge"><title>Node1&#45;&gt;Node2</title>
<path fill="none" stroke="midnightblue" d="M768.45,-235.238C711.251,-224.289 607.344,-204.399 548.897,-193.211"/>
<polygon fill="midnightblue" stroke="midnightblue" points="549.361,-189.737 538.881,-191.294 548.045,-196.612 549.361,-189.737"/>
</g>
<!-- Node15 -->
<g id="node31" class="node"><title>Node15</title>
<polygon fill="white" stroke="#bfbfbf" points="921,-58.5 921,-79.5 965,-79.5 965,-58.5 921,-58.5"/>
<text text-anchor="middle" x="943" y="-66.5" font-family="Helvetica,sans-Serif" font-size="10.00">vector</text>
</g>
<!-- Node1&#45;&gt;Node15 -->
<g id="edge40" class="edge"><title>Node1&#45;&gt;Node15</title>
<path fill="none" stroke="midnightblue" d="M810.059,-232.459C811.878,-218.267 816.574,-192.646 828,-174 851.098,-136.307 891.606,-103.928 917.861,-85.4518"/>
<polygon fill="midnightblue" stroke="midnightblue" points="919.919,-88.2842 926.172,-79.7316 915.951,-82.5179 919.919,-88.2842"/>
</g>
<!-- Node17 -->
<g id="node36" class="node"><title>Node17</title>
<polygon fill="white" stroke="#bfbfbf" points="836.5,-174.5 836.5,-195.5 885.5,-195.5 885.5,-174.5 836.5,-174.5"/>
<text text-anchor="middle" x="861" y="-182.5" font-family="Helvetica,sans-Serif" font-size="10.00">QtMath</text>
</g>
<!-- Node1&#45;&gt;Node17 -->
<g id="edge38" class="edge"><title>Node1&#45;&gt;Node17</title>
<path fill="none" stroke="midnightblue" d="M818.538,-232.362C825.868,-224.186 836.163,-212.702 844.781,-203.091"/>
<polygon fill="midnightblue" stroke="midnightblue" points="847.453,-205.353 851.523,-195.571 842.241,-200.68 847.453,-205.353"/>
</g>
<!-- Node3 -->
<g id="node5" class="node"><title>Node3</title>
<a xlink:href="geometry_8hpp.html" target="_top" xlink:title="geometry.hpp">
<polygon fill="white" stroke="black" points="507,-116.5 507,-137.5 583,-137.5 583,-116.5 507,-116.5"/>
<text text-anchor="middle" x="545" y="-124.5" font-family="Helvetica,sans-Serif" font-size="10.00">geometry.hpp</text>
</a>
</g>
<!-- Node2&#45;&gt;Node3 -->
<g id="edge4" class="edge"><title>Node2&#45;&gt;Node3</title>
<path fill="none" stroke="midnightblue" d="M513.153,-174.362C518.486,-166.431 525.911,-155.389 532.251,-145.961"/>
<polygon fill="midnightblue" stroke="midnightblue" points="535.217,-147.822 537.892,-137.571 529.408,-143.916 535.217,-147.822"/>
</g>
<!-- Node13 -->
<g id="node27" class="node"><title>Node13</title>
<polygon fill="white" stroke="#bfbfbf" points="-0.5,-0.5 -0.5,-21.5 82.5,-21.5 82.5,-0.5 -0.5,-0.5"/>
<text text-anchor="middle" x="41" y="-8.5" font-family="Helvetica,sans-Serif" font-size="10.00">QMetaProperty</text>
</g>
<!-- Node2&#45;&gt;Node13 -->
<g id="edge34" class="edge"><title>Node2&#45;&gt;Node13</title>
<path fill="none" stroke="midnightblue" d="M473.347,-178.314C409.822,-164.657 265.936,-130.52 153,-80 120.385,-65.4103 85.8055,-42.8837 63.8428,-27.5697"/>
<polygon fill="midnightblue" stroke="midnightblue" points="65.7084,-24.6023 55.5216,-21.6902 61.669,-30.3193 65.7084,-24.6023"/>
</g>
<!-- Node16 -->
<g id="node34" class="node"><title>Node16</title>
<polygon fill="white" stroke="#bfbfbf" points="442.5,-116.5 442.5,-137.5 489.5,-137.5 489.5,-116.5 442.5,-116.5"/>
<text text-anchor="middle" x="466" y="-124.5" font-family="Helvetica,sans-Serif" font-size="10.00">QColor</text>
</g>
<!-- Node2&#45;&gt;Node16 -->
<g id="edge36" class="edge"><title>Node2&#45;&gt;Node16</title>
<path fill="none" stroke="midnightblue" d="M498.663,-174.362C493.194,-166.431 485.578,-155.389 479.076,-145.961"/>
<polygon fill="midnightblue" stroke="midnightblue" points="481.849,-143.816 473.29,-137.571 476.086,-147.79 481.849,-143.816"/>
</g>
<!-- Node4 -->
<g id="node7" class="node"><title>Node4</title>
<polygon fill="white" stroke="#bfbfbf" points="768.5,-58.5 768.5,-79.5 821.5,-79.5 821.5,-58.5 768.5,-58.5"/>
<text text-anchor="middle" x="795" y="-66.5" font-family="Helvetica,sans-Serif" font-size="10.00">QObject</text>
</g>
<!-- Node3&#45;&gt;Node4 -->
<g id="edge6" class="edge"><title>Node3&#45;&gt;Node4</title>
<path fill="none" stroke="midnightblue" d="M583.308,-119.7C624.476,-111.618 691.999,-97.682 758.515,-80.252"/>
<polygon fill="midnightblue" stroke="midnightblue" points="759.548,-83.5992 768.319,-77.6553 757.756,-76.8326 759.548,-83.5992"/>
</g>
<!-- Node5 -->
<g id="node9" class="node"><title>Node5</title>
<polygon fill="white" stroke="#bfbfbf" points="838.5,-58.5 838.5,-79.5 903.5,-79.5 903.5,-58.5 838.5,-58.5"/>
<text text-anchor="middle" x="871" y="-66.5" font-family="Helvetica,sans-Serif" font-size="10.00">QVector3D</text>
</g>
<!-- Node3&#45;&gt;Node5 -->
<g id="edge8" class="edge"><title>Node3&#45;&gt;Node5</title>
<path fill="none" stroke="midnightblue" d="M583.028,-121.947C636.006,-114.641 735.183,-100.002 828.513,-80.1818"/>
<polygon fill="midnightblue" stroke="midnightblue" points="829.355,-83.5807 838.397,-78.0582 827.885,-76.7369 829.355,-83.5807"/>
</g>
<!-- Node6 -->
<g id="node11" class="node"><title>Node6</title>
<polygon fill="white" stroke="#bfbfbf" points="99.5,-0.5 99.5,-21.5 202.5,-21.5 202.5,-0.5 99.5,-0.5"/>
<text text-anchor="middle" x="151" y="-8.5" font-family="Helvetica,sans-Serif" font-size="10.00">QOpenGLFunctions</text>
</g>
<!-- Node3&#45;&gt;Node6 -->
<g id="edge10" class="edge"><title>Node3&#45;&gt;Node6</title>
<path fill="none" stroke="midnightblue" d="M506.859,-117.668C503.87,-117.06 500.891,-116.495 498,-116 425.726,-103.623 225.813,-127.558 170,-80 156.226,-68.2629 151.975,-47.5465 150.869,-31.8673"/>
<polygon fill="midnightblue" stroke="midnightblue" points="154.357,-31.4204 150.529,-21.5411 147.36,-31.6509 154.357,-31.4204"/>
</g>
<!-- Node7 -->
<g id="node13" class="node"><title>Node7</title>
<polygon fill="white" stroke="#bfbfbf" points="291,-58.5 291,-79.5 419,-79.5 419,-58.5 291,-58.5"/>
<text text-anchor="middle" x="355" y="-66.5" font-family="Helvetica,sans-Serif" font-size="10.00">QOpenGLShaderProgram</text>
</g>
<!-- Node3&#45;&gt;Node7 -->
<g id="edge12" class="edge"><title>Node3&#45;&gt;Node7</title>
<path fill="none" stroke="midnightblue" d="M510.592,-116.497C479.349,-106.959 433.099,-92.8408 399.142,-82.475"/>
<polygon fill="midnightblue" stroke="midnightblue" points="400.058,-79.0953 389.472,-79.5231 398.015,-85.7903 400.058,-79.0953"/>
</g>
<!-- Node8 -->
<g id="node15" class="node"><title>Node8</title>
<polygon fill="white" stroke="#bfbfbf" points="437,-58.5 437,-79.5 523,-79.5 523,-58.5 437,-58.5"/>
<text text-anchor="middle" x="480" y="-66.5" font-family="Helvetica,sans-Serif" font-size="10.00">QOpenGLBuffer</text>
</g>
<!-- Node3&#45;&gt;Node8 -->
<g id="edge14" class="edge"><title>Node3&#45;&gt;Node8</title>
<path fill="none" stroke="midnightblue" d="M533.078,-116.362C523.641,-107.941 510.27,-96.0105 499.31,-86.2308"/>
<polygon fill="midnightblue" stroke="midnightblue" points="501.638,-83.6171 491.846,-79.5707 496.978,-88.8401 501.638,-83.6171"/>
</g>
<!-- Node9 -->
<g id="node17" class="node"><title>Node9</title>
<polygon fill="white" stroke="#bfbfbf" points="541,-58.5 541,-79.5 681,-79.5 681,-58.5 541,-58.5"/>
<text text-anchor="middle" x="611" y="-66.5" font-family="Helvetica,sans-Serif" font-size="10.00">QOpenGLVertexArrayObject</text>
</g>
<!-- Node3&#45;&gt;Node9 -->
<g id="edge16" class="edge"><title>Node3&#45;&gt;Node9</title>
<path fill="none" stroke="midnightblue" d="M557.105,-116.362C566.688,-107.941 580.264,-96.0105 591.393,-86.2308"/>
<polygon fill="midnightblue" stroke="midnightblue" points="593.77,-88.8009 598.971,-79.5707 589.149,-83.5427 593.77,-88.8009"/>
</g>
<!-- Node10 -->
<g id="node19" class="node"><title>Node10</title>
<a xlink:href="globals_8hpp.html" target="_top" xlink:title="Definitions globales. ">
<polygon fill="white" stroke="black" points="304,-0.5 304,-21.5 370,-21.5 370,-0.5 304,-0.5"/>
<text text-anchor="middle" x="337" y="-8.5" font-family="Helvetica,sans-Serif" font-size="10.00">globals.hpp</text>
</a>
</g>
<!-- Node3&#45;&gt;Node10 -->
<g id="edge18" class="edge"><title>Node3&#45;&gt;Node10</title>
<path fill="none" stroke="midnightblue" d="M506.826,-117.848C503.844,-117.199 500.876,-116.576 498,-116 450.284,-106.45 313.454,-117.13 282,-80 267.011,-62.3061 288.979,-41.4117 309.438,-27.2884"/>
<polygon fill="midnightblue" stroke="midnightblue" points="311.555,-30.0863 318.002,-21.6792 307.719,-24.2305 311.555,-30.0863"/>
</g>
<!-- Node11 -->
<g id="node21" class="node"><title>Node11</title>
<a xlink:href="actor_8hpp.html" target="_top" xlink:title="actor.hpp">
<polygon fill="white" stroke="black" points="178.5,-58.5 178.5,-79.5 235.5,-79.5 235.5,-58.5 178.5,-58.5"/>
<text text-anchor="middle" x="207" y="-66.5" font-family="Helvetica,sans-Serif" font-size="10.00">actor.hpp</text>
</a>
</g>
<!-- Node3&#45;&gt;Node11 -->
<g id="edge20" class="edge"><title>Node3&#45;&gt;Node11</title>
<path fill="none" stroke="midnightblue" d="M506.839,-117.778C503.855,-117.146 500.882,-116.545 498,-116 388.127,-95.24 358.591,-102.2 249,-80 247.929,-79.783 246.844,-79.5553 245.751,-79.3188"/>
<polygon fill="midnightblue" stroke="midnightblue" points="246.353,-75.8654 235.82,-77.0043 244.764,-82.6827 246.353,-75.8654"/>
</g>
<!-- Node14 -->
<g id="node29" class="node"><title>Node14</title>
<polygon fill="white" stroke="#bfbfbf" points="699,-58.5 699,-79.5 751,-79.5 751,-58.5 699,-58.5"/>
<text text-anchor="middle" x="725" y="-66.5" font-family="Helvetica,sans-Serif" font-size="10.00">memory</text>
</g>
<!-- Node3&#45;&gt;Node14 -->
<g id="edge30" class="edge"><title>Node3&#45;&gt;Node14</title>
<path fill="none" stroke="midnightblue" d="M577.597,-116.497C609.088,-106.349 656.673,-91.0164 689.203,-80.5346"/>
<polygon fill="midnightblue" stroke="midnightblue" points="690.336,-83.8468 698.781,-77.4485 688.189,-77.1842 690.336,-83.8468"/>
</g>
<!-- Node3&#45;&gt;Node15 -->
<g id="edge32" class="edge"><title>Node3&#45;&gt;Node15</title>
<path fill="none" stroke="midnightblue" d="M583.257,-124.798C648.756,-120.449 786.548,-108.772 910.76,-79.8943"/>
<polygon fill="midnightblue" stroke="midnightblue" points="911.897,-83.2219 920.82,-77.5101 910.283,-76.4106 911.897,-83.2219"/>
</g>
<!-- Node11&#45;&gt;Node6 -->
<g id="edge26" class="edge"><title>Node11&#45;&gt;Node6</title>
<path fill="none" stroke="midnightblue" d="M196.729,-58.3619C188.756,-50.1043 177.525,-38.4725 168.189,-28.8029"/>
<polygon fill="midnightblue" stroke="midnightblue" points="170.67,-26.3336 161.206,-21.5707 165.634,-31.1958 170.67,-26.3336"/>
</g>
<!-- Node11&#45;&gt;Node10 -->
<g id="edge22" class="edge"><title>Node11&#45;&gt;Node10</title>
<path fill="none" stroke="midnightblue" d="M230.542,-58.4966C251.029,-49.3562 280.947,-36.0082 303.854,-25.7883"/>
<polygon fill="midnightblue" stroke="midnightblue" points="305.488,-28.892 313.194,-21.6212 302.635,-22.4994 305.488,-28.892"/>
</g>
<!-- Node12 -->
<g id="node24" class="node"><title>Node12</title>
<polygon fill="white" stroke="#bfbfbf" points="219.5,-0.5 219.5,-21.5 286.5,-21.5 286.5,-0.5 219.5,-0.5"/>
<text text-anchor="middle" x="253" y="-8.5" font-family="Helvetica,sans-Serif" font-size="10.00">QMatrix4x4</text>
</g>
<!-- Node11&#45;&gt;Node12 -->
<g id="edge24" class="edge"><title>Node11&#45;&gt;Node12</title>
<path fill="none" stroke="midnightblue" d="M215.437,-58.3619C221.792,-50.3496 230.666,-39.1605 238.193,-29.6696"/>
<polygon fill="midnightblue" stroke="midnightblue" points="241.145,-31.5805 244.616,-21.5707 235.66,-27.2308 241.145,-31.5805"/>
</g>
<!-- Node11&#45;&gt;Node13 -->
<g id="edge28" class="edge"><title>Node11&#45;&gt;Node13</title>
<path fill="none" stroke="midnightblue" d="M178.464,-59.0294C151.563,-49.6304 110.996,-35.4565 80.8967,-24.9398"/>
<polygon fill="midnightblue" stroke="midnightblue" points="81.7201,-21.5201 71.1252,-21.5257 79.4111,-28.1283 81.7201,-21.5201"/>
</g>
</g>
</svg>
