<?xml version="1.0" encoding="UTF-8" standalone="no"?>
<!DOCTYPE svg PUBLIC "-//W3C//DTD SVG 1.1//EN"
 "http://www.w3.org/Graphics/SVG/1.1/DTD/svg11.dtd">
<!-- Generated by graphviz version 2.26.3 (20100126.1600)
 -->
<!-- Title: include/spotlight.hpp Pages: 1 -->
<svg width="326pt" height="88pt"
 viewBox="0.00 0.00 326.00 88.00" xmlns="http://www.w3.org/2000/svg" xmlns:xlink="http://www.w3.org/1999/xlink">
<g id="graph1" class="graph" transform="scale(1 1) rotate(0) translate(4 84)">
<title>include/spotlight.hpp</title>
<polygon fill="white" stroke="white" points="-4,5 -4,-84 323,-84 323,5 -4,5"/>
<!-- Node1 -->
<g id="node1" class="node"><title>Node1</title>
<polygon fill="#bfbfbf" stroke="black" points="115,-58.5 115,-79.5 221,-79.5 221,-58.5 115,-58.5"/>
<text text-anchor="middle" x="168" y="-66.5" font-family="Helvetica,sans-Serif" font-size="10.00">include/spotlight.hpp</text>
</g>
<!-- Node2 -->
<g id="node3" class="node"><title>Node2</title>
<a xlink:href="mainwindow_8cpp.html" target="_top" xlink:title="src/mainwindow.cpp">
<polygon fill="white" stroke="black" points="0,-0.5 0,-21.5 106,-21.5 106,-0.5 0,-0.5"/>
<text text-anchor="middle" x="53" y="-8.5" font-family="Helvetica,sans-Serif" font-size="10.00">src/mainwindow.cpp</text>
</a>
</g>
<!-- Node1&#45;&gt;Node2 -->
<g id="edge2" class="edge"><title>Node1&#45;&gt;Node2</title>
<path fill="none" stroke="midnightblue" d="M138.124,-53.9319C118.021,-43.7932 92.0103,-30.6748 74.0593,-21.6212"/>
<polygon fill="midnightblue" stroke="midnightblue" points="136.67,-57.1185 147.174,-58.4966 139.822,-50.8684 136.67,-57.1185"/>
</g>
<!-- Node3 -->
<g id="node5" class="node"><title>Node3</title>
<a xlink:href="spotlight_8cpp.html" target="_top" xlink:title="src/spotlight.cpp">
<polygon fill="white" stroke="black" points="123.5,-0.5 123.5,-21.5 212.5,-21.5 212.5,-0.5 123.5,-0.5"/>
<text text-anchor="middle" x="168" y="-8.5" font-family="Helvetica,sans-Serif" font-size="10.00">src/spotlight.cpp</text>
</a>
</g>
<!-- Node1&#45;&gt;Node3 -->
<g id="edge4" class="edge"><title>Node1&#45;&gt;Node3</title>
<path fill="none" stroke="midnightblue" d="M168,-48.1906C168,-39.1684 168,-28.9941 168,-21.5707"/>
<polygon fill="midnightblue" stroke="midnightblue" points="164.5,-48.3619 168,-58.3619 171.5,-48.3619 164.5,-48.3619"/>
</g>
<!-- Node4 -->
<g id="node7" class="node"><title>Node4</title>
<a xlink:href="viewport_8cpp.html" target="_top" xlink:title="src/viewport.cpp">
<polygon fill="white" stroke="black" points="229.5,-0.5 229.5,-21.5 318.5,-21.5 318.5,-0.5 229.5,-0.5"/>
<text text-anchor="middle" x="274" y="-8.5" font-family="Helvetica,sans-Serif" font-size="10.00">src/viewport.cpp</text>
</a>
</g>
<!-- Node1&#45;&gt;Node4 -->
<g id="edge6" class="edge"><title>Node1&#45;&gt;Node4</title>
<path fill="none" stroke="midnightblue" d="M196.296,-53.5175C214.752,-43.4189 238.356,-30.5032 254.681,-21.5707"/>
<polygon fill="midnightblue" stroke="midnightblue" points="194.535,-50.4913 187.442,-58.3619 197.895,-56.6322 194.535,-50.4913"/>
</g>
</g>
</svg>
