<?xml version="1.0" encoding="UTF-8" standalone="no"?>
<!DOCTYPE svg PUBLIC "-//W3C//DTD SVG 1.1//EN"
 "http://www.w3.org/Graphics/SVG/1.1/DTD/svg11.dtd">
<!-- Generated by graphviz version 2.26.3 (20100126.1600)
 -->
<!-- Title: src/spotlight.cpp Pages: 1 -->
<svg width="1364pt" height="392pt"
 viewBox="0.00 0.00 1364.00 392.00" xmlns="http://www.w3.org/2000/svg" xmlns:xlink="http://www.w3.org/1999/xlink">
<g id="graph1" class="graph" transform="scale(1 1) rotate(0) translate(4 388)">
<title>src/spotlight.cpp</title>
<polygon fill="white" stroke="white" points="-4,5 -4,-388 1361,-388 1361,5 -4,5"/>
<!-- Node1 -->
<g id="node1" class="node"><title>Node1</title>
<polygon fill="#bfbfbf" stroke="black" points="818.5,-362.5 818.5,-383.5 907.5,-383.5 907.5,-362.5 818.5,-362.5"/>
<text text-anchor="middle" x="863" y="-370.5" font-family="Helvetica,sans-Serif" font-size="10.00">src/spotlight.cpp</text>
</g>
<!-- Node2 -->
<g id="node3" class="node"><title>Node2</title>
<a xlink:href="spotlight_8hpp.html" target="_top" xlink:title="spotlight.hpp">
<polygon fill="white" stroke="black" points="969,-304.5 969,-325.5 1041,-325.5 1041,-304.5 969,-304.5"/>
<text text-anchor="middle" x="1005" y="-312.5" font-family="Helvetica,sans-Serif" font-size="10.00">spotlight.hpp</text>
</a>
</g>
<!-- Node1&#45;&gt;Node2 -->
<g id="edge2" class="edge"><title>Node1&#45;&gt;Node2</title>
<path fill="none" stroke="midnightblue" d="M888.715,-362.497C911.293,-353.275 944.358,-339.769 969.463,-329.515"/>
<polygon fill="midnightblue" stroke="midnightblue" points="971.062,-332.643 978.996,-325.621 968.415,-326.162 971.062,-332.643"/>
</g>
<!-- Node14 -->
<g id="node27" class="node"><title>Node14</title>
<a xlink:href="viewport_8hpp.html" target="_top" xlink:title="viewport.hpp">
<polygon fill="white" stroke="black" points="685,-304.5 685,-325.5 757,-325.5 757,-304.5 685,-304.5"/>
<text text-anchor="middle" x="721" y="-312.5" font-family="Helvetica,sans-Serif" font-size="10.00">viewport.hpp</text>
</a>
</g>
<!-- Node1&#45;&gt;Node14 -->
<g id="edge26" class="edge"><title>Node1&#45;&gt;Node14</title>
<path fill="none" stroke="midnightblue" d="M837.285,-362.497C814.707,-353.275 781.642,-339.769 756.537,-329.515"/>
<polygon fill="midnightblue" stroke="midnightblue" points="757.585,-326.162 747.004,-325.621 754.938,-332.643 757.585,-326.162"/>
</g>
<!-- Node3 -->
<g id="node5" class="node"><title>Node3</title>
<a xlink:href="light_8hpp.html" target="_top" xlink:title="light.hpp">
<polygon fill="white" stroke="black" points="1129.5,-174.5 1129.5,-195.5 1182.5,-195.5 1182.5,-174.5 1129.5,-174.5"/>
<text text-anchor="middle" x="1156" y="-182.5" font-family="Helvetica,sans-Serif" font-size="10.00">light.hpp</text>
</a>
</g>
<!-- Node2&#45;&gt;Node3 -->
<g id="edge4" class="edge"><title>Node2&#45;&gt;Node3</title>
<path fill="none" stroke="midnightblue" d="M1035.26,-304.441C1054.93,-296.54 1080.28,-284.294 1099,-268 1119.67,-250 1136.41,-222.908 1146.27,-204.617"/>
<polygon fill="midnightblue" stroke="midnightblue" points="1149.39,-206.198 1150.91,-195.712 1143.19,-202.966 1149.39,-206.198"/>
</g>
<!-- Node4 -->
<g id="node7" class="node"><title>Node4</title>
<polygon fill="white" stroke="#bfbfbf" points="1025.5,-116.5 1025.5,-137.5 1072.5,-137.5 1072.5,-116.5 1025.5,-116.5"/>
<text text-anchor="middle" x="1049" y="-124.5" font-family="Helvetica,sans-Serif" font-size="10.00">QColor</text>
</g>
<!-- Node3&#45;&gt;Node4 -->
<g id="edge6" class="edge"><title>Node3&#45;&gt;Node4</title>
<path fill="none" stroke="midnightblue" d="M1136.37,-174.362C1119.86,-165.409 1096.03,-152.491 1077.42,-142.406"/>
<polygon fill="midnightblue" stroke="midnightblue" points="1078.96,-139.259 1068.5,-137.571 1075.62,-145.413 1078.96,-139.259"/>
</g>
<!-- Node5 -->
<g id="node9" class="node"><title>Node5</title>
<a xlink:href="actor_8hpp.html" target="_top" xlink:title="actor.hpp">
<polygon fill="white" stroke="black" points="1127.5,-116.5 1127.5,-137.5 1184.5,-137.5 1184.5,-116.5 1127.5,-116.5"/>
<text text-anchor="middle" x="1156" y="-124.5" font-family="Helvetica,sans-Serif" font-size="10.00">actor.hpp</text>
</a>
</g>
<!-- Node3&#45;&gt;Node5 -->
<g id="edge8" class="edge"><title>Node3&#45;&gt;Node5</title>
<path fill="none" stroke="midnightblue" d="M1156,-174.362C1156,-166.922 1156,-156.743 1156,-147.728"/>
<polygon fill="midnightblue" stroke="midnightblue" points="1159.5,-147.571 1156,-137.571 1152.5,-147.571 1159.5,-147.571"/>
</g>
<!-- Node6 -->
<g id="node11" class="node"><title>Node6</title>
<a xlink:href="globals_8hpp.html" target="_top" xlink:title="Definitions globales. ">
<polygon fill="white" stroke="black" points="524,-58.5 524,-79.5 590,-79.5 590,-58.5 524,-58.5"/>
<text text-anchor="middle" x="557" y="-66.5" font-family="Helvetica,sans-Serif" font-size="10.00">globals.hpp</text>
</a>
</g>
<!-- Node5&#45;&gt;Node6 -->
<g id="edge10" class="edge"><title>Node5&#45;&gt;Node6</title>
<path fill="none" stroke="midnightblue" d="M1127.22,-118.767C1122.82,-117.71 1118.31,-116.74 1114,-116 924.516,-83.4414 694.723,-73.1278 600.492,-70.1284"/>
<polygon fill="midnightblue" stroke="midnightblue" points="600.314,-66.6213 590.211,-69.8133 600.099,-73.6181 600.314,-66.6213"/>
</g>
<!-- Node11 -->
<g id="node21" class="node"><title>Node11</title>
<polygon fill="white" stroke="#bfbfbf" points="439.5,-58.5 439.5,-79.5 506.5,-79.5 506.5,-58.5 439.5,-58.5"/>
<text text-anchor="middle" x="473" y="-66.5" font-family="Helvetica,sans-Serif" font-size="10.00">QMatrix4x4</text>
</g>
<!-- Node5&#45;&gt;Node11 -->
<g id="edge20" class="edge"><title>Node5&#45;&gt;Node11</title>
<path fill="none" stroke="midnightblue" d="M1127.24,-118.673C1122.83,-117.629 1118.32,-116.688 1114,-116 853.967,-74.5455 780.242,-120.784 517.052,-80.0759"/>
<polygon fill="midnightblue" stroke="midnightblue" points="517.228,-76.5605 506.805,-78.4621 516.139,-83.4753 517.228,-76.5605"/>
</g>
<!-- Node12 -->
<g id="node23" class="node"><title>Node12</title>
<polygon fill="white" stroke="#bfbfbf" points="1015.5,-58.5 1015.5,-79.5 1118.5,-79.5 1118.5,-58.5 1015.5,-58.5"/>
<text text-anchor="middle" x="1067" y="-66.5" font-family="Helvetica,sans-Serif" font-size="10.00">QOpenGLFunctions</text>
</g>
<!-- Node5&#45;&gt;Node12 -->
<g id="edge22" class="edge"><title>Node5&#45;&gt;Node12</title>
<path fill="none" stroke="midnightblue" d="M1139.68,-116.362C1126.25,-107.614 1107.02,-95.0786 1091.71,-85.1015"/>
<polygon fill="midnightblue" stroke="midnightblue" points="1093.51,-82.0982 1083.22,-79.5707 1089.69,-87.9628 1093.51,-82.0982"/>
</g>
<!-- Node13 -->
<g id="node25" class="node"><title>Node13</title>
<polygon fill="white" stroke="#bfbfbf" points="301.5,-58.5 301.5,-79.5 384.5,-79.5 384.5,-58.5 301.5,-58.5"/>
<text text-anchor="middle" x="343" y="-66.5" font-family="Helvetica,sans-Serif" font-size="10.00">QMetaProperty</text>
</g>
<!-- Node5&#45;&gt;Node13 -->
<g id="edge24" class="edge"><title>Node5&#45;&gt;Node13</title>
<path fill="none" stroke="midnightblue" d="M1127.24,-118.645C1122.84,-117.605 1118.32,-116.672 1114,-116 813.639,-69.2505 733.787,-106.869 431,-80 419.257,-78.9579 406.666,-77.5551 394.785,-76.1006"/>
<polygon fill="midnightblue" stroke="midnightblue" points="394.924,-72.5907 384.566,-74.8169 394.051,-79.5361 394.924,-72.5907"/>
</g>
<!-- Node7 -->
<g id="node13" class="node"><title>Node7</title>
<polygon fill="white" stroke="#bfbfbf" points="569.5,-0.5 569.5,-21.5 622.5,-21.5 622.5,-0.5 569.5,-0.5"/>
<text text-anchor="middle" x="596" y="-8.5" font-family="Helvetica,sans-Serif" font-size="10.00">QObject</text>
</g>
<!-- Node6&#45;&gt;Node7 -->
<g id="edge12" class="edge"><title>Node6&#45;&gt;Node7</title>
<path fill="none" stroke="midnightblue" d="M564.153,-58.3619C569.486,-50.4313 576.911,-39.3885 583.251,-29.9606"/>
<polygon fill="midnightblue" stroke="midnightblue" points="586.217,-31.8221 588.892,-21.5707 580.408,-27.9161 586.217,-31.8221"/>
</g>
<!-- Node8 -->
<g id="node15" class="node"><title>Node8</title>
<polygon fill="white" stroke="#bfbfbf" points="481.5,-0.5 481.5,-21.5 552.5,-21.5 552.5,-0.5 481.5,-0.5"/>
<text text-anchor="middle" x="517" y="-8.5" font-family="Helvetica,sans-Serif" font-size="10.00">QQuaternion</text>
</g>
<!-- Node6&#45;&gt;Node8 -->
<g id="edge14" class="edge"><title>Node6&#45;&gt;Node8</title>
<path fill="none" stroke="midnightblue" d="M549.663,-58.3619C544.194,-50.4313 536.578,-39.3885 530.076,-29.9606"/>
<polygon fill="midnightblue" stroke="midnightblue" points="532.849,-27.8157 524.29,-21.5707 527.086,-31.7899 532.849,-27.8157"/>
</g>
<!-- Node9 -->
<g id="node17" class="node"><title>Node9</title>
<polygon fill="white" stroke="#bfbfbf" points="203.5,-0.5 203.5,-21.5 268.5,-21.5 268.5,-0.5 203.5,-0.5"/>
<text text-anchor="middle" x="236" y="-8.5" font-family="Helvetica,sans-Serif" font-size="10.00">QVector3D</text>
</g>
<!-- Node6&#45;&gt;Node9 -->
<g id="edge16" class="edge"><title>Node6&#45;&gt;Node9</title>
<path fill="none" stroke="midnightblue" d="M523.594,-59.9634C520.695,-59.2665 517.8,-58.6014 515,-58 431.984,-40.1736 333.871,-24.992 278.9,-17.0113"/>
<polygon fill="midnightblue" stroke="midnightblue" points="279.221,-13.5215 268.824,-15.5592 278.223,-20.4499 279.221,-13.5215"/>
</g>
<!-- Node10 -->
<g id="node19" class="node"><title>Node10</title>
<polygon fill="white" stroke="#bfbfbf" points="13.5,-0.5 13.5,-21.5 62.5,-21.5 62.5,-0.5 13.5,-0.5"/>
<text text-anchor="middle" x="38" y="-8.5" font-family="Helvetica,sans-Serif" font-size="10.00">QtMath</text>
</g>
<!-- Node6&#45;&gt;Node10 -->
<g id="edge18" class="edge"><title>Node6&#45;&gt;Node10</title>
<path fill="none" stroke="midnightblue" d="M523.635,-59.7535C520.727,-59.1022 517.819,-58.5049 515,-58 429.721,-42.7298 167.594,-21.206 72.7272,-13.7042"/>
<polygon fill="midnightblue" stroke="midnightblue" points="72.7678,-10.1967 62.5238,-12.9005 72.2181,-17.1751 72.7678,-10.1967"/>
</g>
<!-- Node14&#45;&gt;Node4 -->
<g id="edge40" class="edge"><title>Node14&#45;&gt;Node4</title>
<path fill="none" stroke="midnightblue" d="M757.17,-312.536C820.313,-307.587 947.251,-294.564 982,-268 1021.31,-237.948 1038.63,-179.043 1045.33,-147.726"/>
<polygon fill="midnightblue" stroke="midnightblue" points="1048.84,-148.029 1047.34,-137.541 1041.97,-146.674 1048.84,-148.029"/>
</g>
<!-- Node14&#45;&gt;Node10 -->
<g id="edge44" class="edge"><title>Node14&#45;&gt;Node10</title>
<path fill="none" stroke="midnightblue" d="M684.986,-314.287C574.074,-311.75 238.963,-301.444 136,-268 68.6518,-246.124 0,-255.812 0,-185 0,-185 0,-185 0,-127 0,-91.7411 16.0509,-53.3154 27.2892,-30.7323"/>
<polygon fill="midnightblue" stroke="midnightblue" points="30.4185,-32.3005 31.8946,-21.809 24.1981,-29.0901 30.4185,-32.3005"/>
</g>
<!-- Node15 -->
<g id="node29" class="node"><title>Node15</title>
<polygon fill="white" stroke="#bfbfbf" points="170.5,-239.5 170.5,-260.5 261.5,-260.5 261.5,-239.5 170.5,-239.5"/>
<text text-anchor="middle" x="216" y="-247.5" font-family="Helvetica,sans-Serif" font-size="10.00">QOpenGLWidget</text>
</g>
<!-- Node14&#45;&gt;Node15 -->
<g id="edge28" class="edge"><title>Node14&#45;&gt;Node15</title>
<path fill="none" stroke="midnightblue" d="M684.918,-313.903C607.885,-310.981 421.97,-300.836 270,-268 264.567,-266.826 258.914,-265.299 253.401,-263.631"/>
<polygon fill="midnightblue" stroke="midnightblue" points="254.296,-260.242 243.704,-260.521 252.158,-266.908 254.296,-260.242"/>
</g>
<!-- Node16 -->
<g id="node31" class="node"><title>Node16</title>
<polygon fill="white" stroke="#bfbfbf" points="278.5,-233 278.5,-267 391.5,-267 391.5,-233 278.5,-233"/>
<text text-anchor="start" x="286.5" y="-254" font-family="Helvetica,sans-Serif" font-size="10.00">QOpenGLFunctions_4</text>
<text text-anchor="middle" x="335" y="-241" font-family="Helvetica,sans-Serif" font-size="10.00">_3_Core</text>
</g>
<!-- Node14&#45;&gt;Node16 -->
<g id="edge30" class="edge"><title>Node14&#45;&gt;Node16</title>
<path fill="none" stroke="midnightblue" d="M684.635,-311.173C626.662,-304.749 509.599,-290.452 401.695,-268.231"/>
<polygon fill="midnightblue" stroke="midnightblue" points="402.122,-264.745 391.618,-266.127 400.691,-271.597 402.122,-264.745"/>
</g>
<!-- Node17 -->
<g id="node33" class="node"><title>Node17</title>
<polygon fill="white" stroke="#bfbfbf" points="408.5,-239.5 408.5,-260.5 549.5,-260.5 549.5,-239.5 408.5,-239.5"/>
<text text-anchor="middle" x="479" y="-247.5" font-family="Helvetica,sans-Serif" font-size="10.00">QOpenGLFramebufferObject</text>
</g>
<!-- Node14&#45;&gt;Node17 -->
<g id="edge32" class="edge"><title>Node14&#45;&gt;Node17</title>
<path fill="none" stroke="midnightblue" d="M684.77,-305.269C643.127,-294.084 574.563,-275.668 528.135,-263.198"/>
<polygon fill="midnightblue" stroke="midnightblue" points="528.858,-259.768 518.293,-260.554 527.042,-266.528 528.858,-259.768"/>
</g>
<!-- Node18 -->
<g id="node35" class="node"><title>Node18</title>
<polygon fill="white" stroke="#bfbfbf" points="566.5,-239.5 566.5,-260.5 621.5,-260.5 621.5,-239.5 566.5,-239.5"/>
<text text-anchor="middle" x="594" y="-247.5" font-family="Helvetica,sans-Serif" font-size="10.00">QPainter</text>
</g>
<!-- Node14&#45;&gt;Node18 -->
<g id="edge34" class="edge"><title>Node14&#45;&gt;Node18</title>
<path fill="none" stroke="midnightblue" d="M700.313,-304.412C679.556,-293.788 647.376,-277.318 623.855,-265.28"/>
<polygon fill="midnightblue" stroke="midnightblue" points="625.175,-262.024 614.679,-260.584 621.986,-268.255 625.175,-262.024"/>
</g>
<!-- Node19 -->
<g id="node37" class="node"><title>Node19</title>
<polygon fill="white" stroke="#bfbfbf" points="638.5,-239.5 638.5,-260.5 715.5,-260.5 715.5,-239.5 638.5,-239.5"/>
<text text-anchor="middle" x="677" y="-247.5" font-family="Helvetica,sans-Serif" font-size="10.00">QWheelEvent</text>
</g>
<!-- Node14&#45;&gt;Node19 -->
<g id="edge36" class="edge"><title>Node14&#45;&gt;Node19</title>
<path fill="none" stroke="midnightblue" d="M713.734,-304.267C707.263,-294.707 697.644,-280.496 689.872,-269.015"/>
<polygon fill="midnightblue" stroke="midnightblue" points="692.635,-266.853 684.131,-260.534 686.838,-270.777 692.635,-266.853"/>
</g>
<!-- Node20 -->
<g id="node39" class="node"><title>Node20</title>
<polygon fill="white" stroke="#bfbfbf" points="732.5,-239.5 732.5,-260.5 799.5,-260.5 799.5,-239.5 732.5,-239.5"/>
<text text-anchor="middle" x="766" y="-247.5" font-family="Helvetica,sans-Serif" font-size="10.00">QKeyEvent</text>
</g>
<!-- Node14&#45;&gt;Node20 -->
<g id="edge38" class="edge"><title>Node14&#45;&gt;Node20</title>
<path fill="none" stroke="midnightblue" d="M728.431,-304.267C735.049,-294.707 744.887,-280.496 752.836,-269.015"/>
<polygon fill="midnightblue" stroke="midnightblue" points="755.893,-270.748 758.707,-260.534 750.138,-266.763 755.893,-270.748"/>
</g>
<!-- Node21 -->
<g id="node42" class="node"><title>Node21</title>
<polygon fill="white" stroke="#bfbfbf" points="817,-239.5 817,-260.5 891,-260.5 891,-239.5 817,-239.5"/>
<text text-anchor="middle" x="854" y="-247.5" font-family="Helvetica,sans-Serif" font-size="10.00">QMetaObject</text>
</g>
<!-- Node14&#45;&gt;Node21 -->
<g id="edge42" class="edge"><title>Node14&#45;&gt;Node21</title>
<path fill="none" stroke="midnightblue" d="M742.665,-304.412C764.499,-293.741 798.403,-277.172 823.063,-265.12"/>
<polygon fill="midnightblue" stroke="midnightblue" points="824.897,-268.119 832.345,-260.584 821.823,-261.83 824.897,-268.119"/>
</g>
<!-- Node22 -->
<g id="node45" class="node"><title>Node22</title>
<a xlink:href="camera_8hpp.html" target="_top" xlink:title="camera.hpp">
<polygon fill="white" stroke="black" points="104,-116.5 104,-137.5 172,-137.5 172,-116.5 104,-116.5"/>
<text text-anchor="middle" x="138" y="-124.5" font-family="Helvetica,sans-Serif" font-size="10.00">camera.hpp</text>
</a>
</g>
<!-- Node14&#45;&gt;Node22 -->
<g id="edge46" class="edge"><title>Node14&#45;&gt;Node22</title>
<path fill="none" stroke="midnightblue" d="M684.724,-314.481C566.921,-312.452 200.46,-303.332 162,-268 128.776,-237.478 130.623,-179.259 134.494,-148.03"/>
<polygon fill="midnightblue" stroke="midnightblue" points="137.999,-148.242 135.951,-137.848 131.07,-147.251 137.999,-148.242"/>
</g>
<!-- Node24 -->
<g id="node55" class="node"><title>Node24</title>
<a xlink:href="cube_8hpp.html" target="_top" xlink:title="cube.hpp">
<polygon fill="white" stroke="black" points="1034,-239.5 1034,-260.5 1090,-260.5 1090,-239.5 1034,-239.5"/>
<text text-anchor="middle" x="1062" y="-247.5" font-family="Helvetica,sans-Serif" font-size="10.00">cube.hpp</text>
</a>
</g>
<!-- Node14&#45;&gt;Node24 -->
<g id="edge62" class="edge"><title>Node14&#45;&gt;Node24</title>
<path fill="none" stroke="midnightblue" d="M757.065,-312.247C813.892,-307.263 927.342,-294.685 1020,-268 1023.56,-266.974 1027.23,-265.722 1030.83,-264.361"/>
<polygon fill="midnightblue" stroke="midnightblue" points="1032.19,-267.587 1040.14,-260.585 1029.56,-261.1 1032.19,-267.587"/>
</g>
<!-- Node33 -->
<g id="node86" class="node"><title>Node33</title>
<a xlink:href="sphere_8hpp.html" target="_top" xlink:title="sphere.hpp">
<polygon fill="white" stroke="black" points="908.5,-239.5 908.5,-260.5 973.5,-260.5 973.5,-239.5 908.5,-239.5"/>
<text text-anchor="middle" x="941" y="-247.5" font-family="Helvetica,sans-Serif" font-size="10.00">sphere.hpp</text>
</a>
</g>
<!-- Node14&#45;&gt;Node33 -->
<g id="edge106" class="edge"><title>Node14&#45;&gt;Node33</title>
<path fill="none" stroke="midnightblue" d="M757.156,-307.264C793.669,-299.044 851.454,-284.912 900,-268 903.083,-266.926 906.258,-265.72 909.412,-264.454"/>
<polygon fill="midnightblue" stroke="midnightblue" points="910.836,-267.652 918.697,-260.549 908.122,-261.199 910.836,-267.652"/>
</g>
<!-- Node34 -->
<g id="node91" class="node"><title>Node34</title>
<a xlink:href="world_8hpp.html" target="_top" xlink:title="world.hpp">
<polygon fill="white" stroke="black" points="1239.5,-174.5 1239.5,-195.5 1298.5,-195.5 1298.5,-174.5 1239.5,-174.5"/>
<text text-anchor="middle" x="1269" y="-182.5" font-family="Helvetica,sans-Serif" font-size="10.00">world.hpp</text>
</a>
</g>
<!-- Node14&#45;&gt;Node34 -->
<g id="edge114" class="edge"><title>Node14&#45;&gt;Node34</title>
<path fill="none" stroke="midnightblue" d="M757.024,-312.046C838.601,-305.111 1035.29,-286.938 1099,-268 1152.87,-251.987 1210.67,-220.299 1243.09,-201.045"/>
<polygon fill="midnightblue" stroke="midnightblue" points="1245.15,-203.888 1251.92,-195.733 1241.54,-197.89 1245.15,-203.888"/>
</g>
<!-- Node22&#45;&gt;Node6 -->
<g id="edge54" class="edge"><title>Node22&#45;&gt;Node6</title>
<path fill="none" stroke="midnightblue" d="M172.275,-122.238C186.696,-120.262 203.658,-117.975 219,-116 347.232,-99.4958 383.088,-104.577 513.64,-80.0727"/>
<polygon fill="midnightblue" stroke="midnightblue" points="514.451,-83.4814 523.622,-78.1767 513.145,-76.6043 514.451,-83.4814"/>
</g>
<!-- Node22&#45;&gt;Node7 -->
<g id="edge48" class="edge"><title>Node22&#45;&gt;Node7</title>
<path fill="none" stroke="midnightblue" d="M159.647,-116.44C195.633,-99.0442 266.432,-65.5299 293,-58 405.465,-26.1253 441.712,-46.9023 559.264,-22.0872"/>
<polygon fill="midnightblue" stroke="midnightblue" points="560.349,-25.433 569.375,-19.8841 558.859,-18.5935 560.349,-25.433"/>
</g>
<!-- Node22&#45;&gt;Node9 -->
<g id="edge50" class="edge"><title>Node22&#45;&gt;Node9</title>
<path fill="none" stroke="midnightblue" d="M166.659,-116.392C183.623,-108.725 204.228,-96.7523 217,-80 227.566,-66.1422 232.257,-46.7587 234.34,-32.0633"/>
<polygon fill="midnightblue" stroke="midnightblue" points="237.842,-32.2363 235.478,-21.9086 230.886,-31.4566 237.842,-32.2363"/>
</g>
<!-- Node22&#45;&gt;Node10 -->
<g id="edge60" class="edge"><title>Node22&#45;&gt;Node10</title>
<path fill="none" stroke="midnightblue" d="M127.937,-116.313C119.121,-106.876 106.03,-92.6855 95,-80 80.478,-63.2987 64.4701,-43.8217 53.1255,-29.8281"/>
<polygon fill="midnightblue" stroke="midnightblue" points="55.7259,-27.4774 46.7194,-21.8975 50.2805,-31.876 55.7259,-27.4774"/>
</g>
<!-- Node22&#45;&gt;Node11 -->
<g id="edge52" class="edge"><title>Node22&#45;&gt;Node11</title>
<path fill="none" stroke="midnightblue" d="M172.277,-121.066C233.502,-110.465 361.558,-88.2944 429.113,-76.5983"/>
<polygon fill="midnightblue" stroke="midnightblue" points="429.765,-80.0376 439.021,-74.8828 428.571,-73.1402 429.765,-80.0376"/>
</g>
<!-- Node22&#45;&gt;Node13 -->
<g id="edge56" class="edge"><title>Node22&#45;&gt;Node13</title>
<path fill="none" stroke="midnightblue" d="M172.312,-117.292C206.213,-107.701 258.326,-92.9566 296.052,-82.2828"/>
<polygon fill="midnightblue" stroke="midnightblue" points="297.129,-85.6157 305.798,-79.5254 295.223,-78.8801 297.129,-85.6157"/>
</g>
<!-- Node23 -->
<g id="node52" class="node"><title>Node23</title>
<polygon fill="white" stroke="#bfbfbf" points="104,-58.5 104,-79.5 208,-79.5 208,-58.5 104,-58.5"/>
<text text-anchor="middle" x="156" y="-66.5" font-family="Helvetica,sans-Serif" font-size="10.00">QPropertyAnimation</text>
</g>
<!-- Node22&#45;&gt;Node23 -->
<g id="edge58" class="edge"><title>Node22&#45;&gt;Node23</title>
<path fill="none" stroke="midnightblue" d="M141.301,-116.362C143.661,-108.758 146.909,-98.294 149.751,-89.1349"/>
<polygon fill="midnightblue" stroke="midnightblue" points="153.098,-90.1587 152.719,-79.5707 146.413,-88.0839 153.098,-90.1587"/>
</g>
<!-- Node24&#45;&gt;Node4 -->
<g id="edge100" class="edge"><title>Node24&#45;&gt;Node4</title>
<path fill="none" stroke="midnightblue" d="M1060.85,-239.085C1058.68,-218.609 1053.98,-174.133 1051.2,-147.778"/>
<polygon fill="midnightblue" stroke="midnightblue" points="1054.66,-147.292 1050.13,-137.715 1047.7,-148.028 1054.66,-147.292"/>
</g>
<!-- Node24&#45;&gt;Node6 -->
<g id="edge98" class="edge"><title>Node24&#45;&gt;Node6</title>
<path fill="none" stroke="midnightblue" d="M1080.27,-239.443C1085,-236.873 1090.13,-234.226 1095,-232 1136.44,-213.043 1164.4,-233.001 1191,-196 1211.76,-167.12 1217.2,-142.06 1193,-116 1172.83,-94.2823 741.268,-76.0073 600.776,-70.6149"/>
<polygon fill="midnightblue" stroke="midnightblue" points="600.527,-67.103 590.401,-70.2199 600.26,-74.0979 600.527,-67.103"/>
</g>
<!-- Node24&#45;&gt;Node13 -->
<g id="edge102" class="edge"><title>Node24&#45;&gt;Node13</title>
<path fill="none" stroke="midnightblue" d="M1068.53,-239.231C1082.93,-213.976 1113.62,-150.477 1081,-116 1031.29,-63.4577 503.041,-86.4898 431,-80 419.258,-78.9423 406.668,-77.5332 394.787,-76.0776"/>
<polygon fill="midnightblue" stroke="midnightblue" points="394.926,-72.5676 384.568,-74.7941 394.054,-79.513 394.926,-72.5676"/>
</g>
<!-- Node25 -->
<g id="node57" class="node"><title>Node25</title>
<a xlink:href="geometry_8hpp.html" target="_top" xlink:title="geometry.hpp">
<polygon fill="white" stroke="black" points="762,-174.5 762,-195.5 838,-195.5 838,-174.5 762,-174.5"/>
<text text-anchor="middle" x="800" y="-182.5" font-family="Helvetica,sans-Serif" font-size="10.00">geometry.hpp</text>
</a>
</g>
<!-- Node24&#45;&gt;Node25 -->
<g id="edge64" class="edge"><title>Node24&#45;&gt;Node25</title>
<path fill="none" stroke="midnightblue" d="M1033.96,-243.044C989.595,-232.037 902.666,-210.471 848.168,-196.95"/>
<polygon fill="midnightblue" stroke="midnightblue" points="848.935,-193.534 838.386,-194.523 847.249,-200.328 848.935,-193.534"/>
</g>
<!-- Node31 -->
<g id="node78" class="node"><title>Node31</title>
<polygon fill="white" stroke="#bfbfbf" points="964,-116.5 964,-137.5 1008,-137.5 1008,-116.5 964,-116.5"/>
<text text-anchor="middle" x="986" y="-124.5" font-family="Helvetica,sans-Serif" font-size="10.00">vector</text>
</g>
<!-- Node24&#45;&gt;Node31 -->
<g id="edge104" class="edge"><title>Node24&#45;&gt;Node31</title>
<path fill="none" stroke="midnightblue" d="M1055.26,-239.085C1042.38,-218.244 1014.14,-172.537 997.977,-146.384"/>
<polygon fill="midnightblue" stroke="midnightblue" points="1000.85,-144.383 992.621,-137.715 994.9,-148.062 1000.85,-144.383"/>
</g>
<!-- Node25&#45;&gt;Node4 -->
<g id="edge78" class="edge"><title>Node25&#45;&gt;Node4</title>
<path fill="none" stroke="midnightblue" d="M838.357,-178.11C879.938,-170.329 948.385,-156.618 1015.45,-138.23"/>
<polygon fill="midnightblue" stroke="midnightblue" points="1016.63,-141.534 1025.33,-135.483 1014.76,-134.789 1016.63,-141.534"/>
</g>
<!-- Node25&#45;&gt;Node5 -->
<g id="edge82" class="edge"><title>Node25&#45;&gt;Node5</title>
<path fill="none" stroke="midnightblue" d="M838.098,-178.793C906.344,-167.674 1048.71,-144.48 1117.35,-133.297"/>
<polygon fill="midnightblue" stroke="midnightblue" points="1118.01,-136.735 1127.32,-131.673 1116.89,-129.826 1118.01,-136.735"/>
</g>
<!-- Node25&#45;&gt;Node6 -->
<g id="edge80" class="edge"><title>Node25&#45;&gt;Node6</title>
<path fill="none" stroke="midnightblue" d="M761.752,-182.319C679.125,-176.139 489.855,-159.74 471,-138 452.075,-116.18 485.337,-96.1105 515.841,-83.3087"/>
<polygon fill="midnightblue" stroke="midnightblue" points="517.178,-86.5437 525.158,-79.5752 514.574,-80.046 517.178,-86.5437"/>
</g>
<!-- Node25&#45;&gt;Node7 -->
<g id="edge66" class="edge"><title>Node25&#45;&gt;Node7</title>
<path fill="none" stroke="midnightblue" d="M829.354,-174.393C858.38,-162.2 896.158,-140.666 879,-116 849.967,-74.2616 702.36,-35.472 632.608,-19.1403"/>
<polygon fill="midnightblue" stroke="midnightblue" points="633.039,-15.6478 622.508,-16.8053 631.462,-22.4679 633.039,-15.6478"/>
</g>
<!-- Node25&#45;&gt;Node9 -->
<g id="edge68" class="edge"><title>Node25&#45;&gt;Node9</title>
<path fill="none" stroke="midnightblue" d="M761.514,-183.875C617.569,-179.484 117.941,-162.522 95,-138 70.709,-112.036 74.2103,-86.8442 95,-58 106.722,-41.7362 156.164,-27.8997 193.216,-19.536"/>
<polygon fill="midnightblue" stroke="midnightblue" points="194.278,-22.8863 203.296,-17.3247 192.778,-16.0489 194.278,-22.8863"/>
</g>
<!-- Node25&#45;&gt;Node12 -->
<g id="edge70" class="edge"><title>Node25&#45;&gt;Node12</title>
<path fill="none" stroke="midnightblue" d="M826.952,-174.357C849.794,-165.177 883.317,-151.333 912,-138 931.467,-128.951 935.533,-125.049 955,-116 979.986,-104.386 1008.64,-92.3834 1030.72,-83.4147"/>
<polygon fill="midnightblue" stroke="midnightblue" points="1032.09,-86.6351 1040.05,-79.6434 1029.47,-80.1449 1032.09,-86.6351"/>
</g>
<!-- Node26 -->
<g id="node62" class="node"><title>Node26</title>
<polygon fill="white" stroke="#bfbfbf" points="480,-116.5 480,-137.5 608,-137.5 608,-116.5 480,-116.5"/>
<text text-anchor="middle" x="544" y="-124.5" font-family="Helvetica,sans-Serif" font-size="10.00">QOpenGLShaderProgram</text>
</g>
<!-- Node25&#45;&gt;Node26 -->
<g id="edge72" class="edge"><title>Node25&#45;&gt;Node26</title>
<path fill="none" stroke="midnightblue" d="M761.951,-176.379C719.21,-166.696 649.413,-150.883 600.344,-139.765"/>
<polygon fill="midnightblue" stroke="midnightblue" points="601.039,-136.334 590.513,-137.538 599.492,-143.161 601.039,-136.334"/>
</g>
<!-- Node27 -->
<g id="node64" class="node"><title>Node27</title>
<polygon fill="white" stroke="#bfbfbf" points="626,-116.5 626,-137.5 712,-137.5 712,-116.5 626,-116.5"/>
<text text-anchor="middle" x="669" y="-124.5" font-family="Helvetica,sans-Serif" font-size="10.00">QOpenGLBuffer</text>
</g>
<!-- Node25&#45;&gt;Node27 -->
<g id="edge74" class="edge"><title>Node25&#45;&gt;Node27</title>
<path fill="none" stroke="midnightblue" d="M776.277,-174.497C755.632,-165.356 725.484,-152.008 702.401,-141.788"/>
<polygon fill="midnightblue" stroke="midnightblue" points="703.55,-138.469 692.989,-137.621 700.716,-144.87 703.55,-138.469"/>
</g>
<!-- Node28 -->
<g id="node66" class="node"><title>Node28</title>
<polygon fill="white" stroke="#bfbfbf" points="730,-116.5 730,-137.5 870,-137.5 870,-116.5 730,-116.5"/>
<text text-anchor="middle" x="800" y="-124.5" font-family="Helvetica,sans-Serif" font-size="10.00">QOpenGLVertexArrayObject</text>
</g>
<!-- Node25&#45;&gt;Node28 -->
<g id="edge76" class="edge"><title>Node25&#45;&gt;Node28</title>
<path fill="none" stroke="midnightblue" d="M800,-174.362C800,-166.922 800,-156.743 800,-147.728"/>
<polygon fill="midnightblue" stroke="midnightblue" points="803.5,-147.571 800,-137.571 796.5,-147.571 803.5,-147.571"/>
</g>
<!-- Node29 -->
<g id="node71" class="node"><title>Node29</title>
<a xlink:href="material_8hpp.html" target="_top" xlink:title="material.hpp">
<polygon fill="white" stroke="black" points="354,-116.5 354,-137.5 424,-137.5 424,-116.5 354,-116.5"/>
<text text-anchor="middle" x="389" y="-124.5" font-family="Helvetica,sans-Serif" font-size="10.00">material.hpp</text>
</a>
</g>
<!-- Node25&#45;&gt;Node29 -->
<g id="edge84" class="edge"><title>Node25&#45;&gt;Node29</title>
<path fill="none" stroke="midnightblue" d="M761.779,-181.203C695.558,-174.366 555.325,-158.741 438,-138 436.744,-137.778 435.472,-137.546 434.19,-137.304"/>
<polygon fill="midnightblue" stroke="midnightblue" points="434.743,-133.846 424.251,-135.319 433.372,-140.71 434.743,-133.846"/>
</g>
<!-- Node30 -->
<g id="node76" class="node"><title>Node30</title>
<polygon fill="white" stroke="#bfbfbf" points="228,-116.5 228,-137.5 280,-137.5 280,-116.5 228,-116.5"/>
<text text-anchor="middle" x="254" y="-124.5" font-family="Helvetica,sans-Serif" font-size="10.00">memory</text>
</g>
<!-- Node25&#45;&gt;Node30 -->
<g id="edge92" class="edge"><title>Node25&#45;&gt;Node30</title>
<path fill="none" stroke="midnightblue" d="M761.779,-184.254C677.796,-182.025 470.912,-173.305 290.166,-137.881"/>
<polygon fill="midnightblue" stroke="midnightblue" points="290.708,-134.42 280.217,-135.898 289.34,-141.285 290.708,-134.42"/>
</g>
<!-- Node25&#45;&gt;Node31 -->
<g id="edge94" class="edge"><title>Node25&#45;&gt;Node31</title>
<path fill="none" stroke="midnightblue" d="M833.683,-174.497C867.932,-163.817 920.602,-147.393 954.169,-136.926"/>
<polygon fill="midnightblue" stroke="midnightblue" points="955.426,-140.2 963.931,-133.882 953.342,-133.517 955.426,-140.2"/>
</g>
<!-- Node32 -->
<g id="node80" class="node"><title>Node32</title>
<polygon fill="white" stroke="#bfbfbf" points="298,-116.5 298,-137.5 336,-137.5 336,-116.5 298,-116.5"/>
<text text-anchor="middle" x="317" y="-124.5" font-family="Helvetica,sans-Serif" font-size="10.00">tuple</text>
</g>
<!-- Node25&#45;&gt;Node32 -->
<g id="edge96" class="edge"><title>Node25&#45;&gt;Node32</title>
<path fill="none" stroke="midnightblue" d="M761.746,-182.389C670.42,-175.949 440.815,-158.481 345.885,-137.576"/>
<polygon fill="midnightblue" stroke="midnightblue" points="346.592,-134.146 336.057,-135.277 344.997,-140.963 346.592,-134.146"/>
</g>
<!-- Node29&#45;&gt;Node6 -->
<g id="edge88" class="edge"><title>Node29&#45;&gt;Node6</title>
<path fill="none" stroke="midnightblue" d="M419.424,-116.497C446.694,-107.082 486.893,-93.2036 516.804,-82.8773"/>
<polygon fill="midnightblue" stroke="midnightblue" points="518.209,-86.0949 526.519,-79.5231 515.925,-79.4781 518.209,-86.0949"/>
</g>
<!-- Node29&#45;&gt;Node7 -->
<g id="edge86" class="edge"><title>Node29&#45;&gt;Node7</title>
<path fill="none" stroke="midnightblue" d="M392.582,-116.391C398.278,-101.148 410.86,-73.218 431,-58 476.404,-23.6926 500.94,-37.3875 559.566,-22.2001"/>
<polygon fill="midnightblue" stroke="midnightblue" points="560.577,-25.5516 569.276,-19.5028 558.704,-18.807 560.577,-25.5516"/>
</g>
<!-- Node29&#45;&gt;Node13 -->
<g id="edge90" class="edge"><title>Node29&#45;&gt;Node13</title>
<path fill="none" stroke="midnightblue" d="M380.563,-116.362C374.208,-108.35 365.334,-97.1605 357.807,-87.6696"/>
<polygon fill="midnightblue" stroke="midnightblue" points="360.34,-85.2308 351.384,-79.5707 354.855,-89.5805 360.34,-85.2308"/>
</g>
<!-- Node33&#45;&gt;Node4 -->
<g id="edge112" class="edge"><title>Node33&#45;&gt;Node4</title>
<path fill="none" stroke="midnightblue" d="M949.134,-239.426C960.716,-224.513 982.799,-196.597 1003,-174 1011.86,-164.094 1022.17,-153.482 1030.78,-144.852"/>
<polygon fill="midnightblue" stroke="midnightblue" points="1033.49,-147.092 1038.12,-137.562 1028.56,-142.125 1033.49,-147.092"/>
</g>
<!-- Node33&#45;&gt;Node13 -->
<g id="edge110" class="edge"><title>Node33&#45;&gt;Node13</title>
<path fill="none" stroke="midnightblue" d="M919.709,-239.322C913.485,-236.569 906.583,-233.86 900,-232 752.99,-190.453 319.367,-253.172 219,-138 193.419,-108.645 246.686,-89.2371 291.194,-78.6823"/>
<polygon fill="midnightblue" stroke="midnightblue" points="292.124,-82.0604 301.105,-76.439 290.579,-75.2332 292.124,-82.0604"/>
</g>
<!-- Node33&#45;&gt;Node25 -->
<g id="edge108" class="edge"><title>Node33&#45;&gt;Node25</title>
<path fill="none" stroke="midnightblue" d="M918.032,-239.412C894.68,-228.647 858.305,-211.878 832.107,-199.801"/>
<polygon fill="midnightblue" stroke="midnightblue" points="833.505,-196.592 822.958,-195.584 830.574,-202.949 833.505,-196.592"/>
</g>
<!-- Node34&#45;&gt;Node5 -->
<g id="edge118" class="edge"><title>Node34&#45;&gt;Node5</title>
<path fill="none" stroke="midnightblue" d="M1248.54,-174.497C1230.97,-165.479 1205.42,-152.365 1185.61,-142.201"/>
<polygon fill="midnightblue" stroke="midnightblue" points="1187.19,-139.074 1176.69,-137.621 1183.99,-145.301 1187.19,-139.074"/>
</g>
<!-- Node34&#45;&gt;Node6 -->
<g id="edge116" class="edge"><title>Node34&#45;&gt;Node6</title>
<path fill="none" stroke="midnightblue" d="M1265.82,-174.358C1260.46,-158.534 1248.01,-129.248 1226,-116 1172.59,-83.8511 740.309,-72.5984 600.469,-69.7794"/>
<polygon fill="midnightblue" stroke="midnightblue" points="600.214,-66.2738 590.147,-69.5761 600.076,-73.2725 600.214,-66.2738"/>
</g>
<!-- Node34&#45;&gt;Node7 -->
<g id="edge120" class="edge"><title>Node34&#45;&gt;Node7</title>
<path fill="none" stroke="midnightblue" d="M1268.75,-174.4C1267.86,-159.672 1264.24,-132.924 1250,-116 1211.09,-69.7514 1185.34,-73.7978 1127,-58 1033.4,-32.6542 737.239,-17.3104 632.852,-12.577"/>
<polygon fill="midnightblue" stroke="midnightblue" points="632.938,-9.07746 622.792,-12.1269 632.625,-16.0705 632.938,-9.07746"/>
</g>
<!-- Node35 -->
<g id="node96" class="node"><title>Node35</title>
<polygon fill="white" stroke="#bfbfbf" points="1316,-116.5 1316,-137.5 1356,-137.5 1356,-116.5 1316,-116.5"/>
<text text-anchor="middle" x="1336" y="-124.5" font-family="Helvetica,sans-Serif" font-size="10.00">QList</text>
</g>
<!-- Node34&#45;&gt;Node35 -->
<g id="edge122" class="edge"><title>Node34&#45;&gt;Node35</title>
<path fill="none" stroke="midnightblue" d="M1281.29,-174.362C1291.02,-165.941 1304.8,-154.011 1316.1,-144.231"/>
<polygon fill="midnightblue" stroke="midnightblue" points="1318.52,-146.762 1323.79,-137.571 1313.94,-141.469 1318.52,-146.762"/>
</g>
</g>
</svg>
