<?xml version="1.0" encoding="UTF-8" standalone="no"?>
<!DOCTYPE svg PUBLIC "-//W3C//DTD SVG 1.1//EN"
 "http://www.w3.org/Graphics/SVG/1.1/DTD/svg11.dtd">
<!-- Generated by graphviz version 2.26.3 (20100126.1600)
 -->
<!-- Title: Material::Material Pages: 1 -->
<svg width="258pt" height="150pt"
 viewBox="0.00 0.00 258.00 150.00" xmlns="http://www.w3.org/2000/svg" xmlns:xlink="http://www.w3.org/1999/xlink">
<g id="graph1" class="graph" transform="scale(1 1) rotate(0) translate(4 146)">
<title>Material::Material</title>
<polygon fill="white" stroke="white" points="-4,5 -4,-146 255,-146 255,5 -4,5"/>
<!-- Node1 -->
<g id="node1" class="node"><title>Node1</title>
<polygon fill="#bfbfbf" stroke="black" points="0,-60.5 0,-81.5 92,-81.5 92,-60.5 0,-60.5"/>
<text text-anchor="middle" x="46" y="-68.5" font-family="Helvetica,sans-Serif" font-size="10.00">Material::Material</text>
</g>
<!-- Node2 -->
<g id="node3" class="node"><title>Node2</title>
<a xlink:href="struct_material.html#a8830760a0824b92e2a5151642a5e011c" target="_top" xlink:title="Material::specular">
<polygon fill="white" stroke="black" points="142,-120.5 142,-141.5 236,-141.5 236,-120.5 142,-120.5"/>
<text text-anchor="middle" x="189" y="-128.5" font-family="Helvetica,sans-Serif" font-size="10.00">Material::specular</text>
</a>
</g>
<!-- Node1&#45;&gt;Node2 -->
<g id="edge2" class="edge"><title>Node1&#45;&gt;Node2</title>
<path fill="none" stroke="midnightblue" d="M65.8698,-81.646C82.264,-90.1963 106.276,-102.189 128,-111 133.228,-113.121 138.774,-115.185 144.308,-117.132"/>
<polygon fill="midnightblue" stroke="midnightblue" points="143.589,-120.584 154.184,-120.497 145.847,-113.958 143.589,-120.584"/>
</g>
<!-- Node3 -->
<g id="node5" class="node"><title>Node3</title>
<a xlink:href="struct_material.html#a051abec46a2846d2a1797c1bc38f8fff" target="_top" xlink:title="Material::roughness">
<polygon fill="white" stroke="black" points="138,-80.5 138,-101.5 240,-101.5 240,-80.5 138,-80.5"/>
<text text-anchor="middle" x="189" y="-88.5" font-family="Helvetica,sans-Serif" font-size="10.00">Material::roughness</text>
</a>
</g>
<!-- Node1&#45;&gt;Node3 -->
<g id="edge4" class="edge"><title>Node1&#45;&gt;Node3</title>
<path fill="none" stroke="midnightblue" d="M92.0332,-77.4382C103.451,-79.0351 115.866,-80.7714 127.881,-82.4518"/>
<polygon fill="midnightblue" stroke="midnightblue" points="127.46,-85.927 137.849,-83.846 128.43,-78.9945 127.46,-85.927"/>
</g>
<!-- Node4 -->
<g id="node7" class="node"><title>Node4</title>
<a xlink:href="struct_material.html#af58edf39cd7d361dd313198c5cff895e" target="_top" xlink:title="Material::sheenTint">
<polygon fill="white" stroke="black" points="139,-40.5 139,-61.5 239,-61.5 239,-40.5 139,-40.5"/>
<text text-anchor="middle" x="189" y="-48.5" font-family="Helvetica,sans-Serif" font-size="10.00">Material::sheenTint</text>
</a>
</g>
<!-- Node1&#45;&gt;Node4 -->
<g id="edge6" class="edge"><title>Node1&#45;&gt;Node4</title>
<path fill="none" stroke="midnightblue" d="M92.0332,-64.5618C103.706,-62.9292 116.421,-61.1509 128.685,-59.4356"/>
<polygon fill="midnightblue" stroke="midnightblue" points="129.43,-62.8656 138.849,-58.0141 128.461,-55.9331 129.43,-62.8656"/>
</g>
<!-- Node5 -->
<g id="node9" class="node"><title>Node5</title>
<a xlink:href="struct_material.html#af681093095dfcf0d30b7c167b65bec68" target="_top" xlink:title="Material::clearcoatGloss">
<polygon fill="white" stroke="black" points="128,-0.5 128,-21.5 250,-21.5 250,-0.5 128,-0.5"/>
<text text-anchor="middle" x="189" y="-8.5" font-family="Helvetica,sans-Serif" font-size="10.00">Material::clearcoatGloss</text>
</a>
</g>
<!-- Node1&#45;&gt;Node5 -->
<g id="edge8" class="edge"><title>Node1&#45;&gt;Node5</title>
<path fill="none" stroke="midnightblue" d="M65.8698,-60.354C82.264,-51.8037 106.276,-39.8113 128,-31 133.228,-28.8793 138.774,-26.8152 144.308,-24.8683"/>
<polygon fill="midnightblue" stroke="midnightblue" points="145.847,-28.0416 154.184,-21.5034 143.589,-21.4157 145.847,-28.0416"/>
</g>
</g>
</svg>
