<?xml version="1.0" encoding="UTF-8" standalone="no"?>
<!DOCTYPE svg PUBLIC "-//W3C//DTD SVG 1.1//EN"
 "http://www.w3.org/Graphics/SVG/1.1/DTD/svg11.dtd">
<!-- Generated by graphviz version 2.26.3 (20100126.1600)
 -->
<!-- Title: AmbientOcclusion::AmbientOcclusion Pages: 1 -->
<svg width="330pt" height="110pt"
 viewBox="0.00 0.00 330.00 110.00" xmlns="http://www.w3.org/2000/svg" xmlns:xlink="http://www.w3.org/1999/xlink">
<g id="graph1" class="graph" transform="scale(1 1) rotate(0) translate(4 106)">
<title>AmbientOcclusion::AmbientOcclusion</title>
<polygon fill="white" stroke="white" points="-4,5 -4,-106 327,-106 327,5 -4,5"/>
<!-- Node1 -->
<g id="node1" class="node"><title>Node1</title>
<polygon fill="#bfbfbf" stroke="black" points="0,-34 0,-68 138,-68 138,-34 0,-34"/>
<text text-anchor="start" x="8" y="-55" font-family="Helvetica,sans-Serif" font-size="10.00">AmbientOcclusion::Ambient</text>
<text text-anchor="middle" x="69" y="-42" font-family="Helvetica,sans-Serif" font-size="10.00">Occlusion</text>
</g>
<!-- Node2 -->
<g id="node3" class="node"><title>Node2</title>
<a xlink:href="struct_ambient_occlusion.html#a32cac87cc3781cb3d0ea99274214d0d3" target="_top" xlink:title="AmbientOcclusion::kernelSize">
<polygon fill="white" stroke="black" points="174,-80.5 174,-101.5 322,-101.5 322,-80.5 174,-80.5"/>
<text text-anchor="middle" x="248" y="-88.5" font-family="Helvetica,sans-Serif" font-size="10.00">AmbientOcclusion::kernelSize</text>
</a>
</g>
<!-- Node1&#45;&gt;Node2 -->
<g id="edge2" class="edge"><title>Node1&#45;&gt;Node2</title>
<path fill="none" stroke="midnightblue" d="M138.206,-66.465C155.559,-70.3429 173.987,-74.4608 190.689,-78.1932"/>
<polygon fill="midnightblue" stroke="midnightblue" points="190.318,-81.6965 200.841,-80.4617 191.845,-74.865 190.318,-81.6965"/>
</g>
<!-- Node3 -->
<g id="node5" class="node"><title>Node3</title>
<a xlink:href="struct_ambient_occlusion.html#a8edce8016c299bd51201efd607ede70a" target="_top" xlink:title="AmbientOcclusion::maxDist">
<polygon fill="white" stroke="black" points="178.5,-40.5 178.5,-61.5 317.5,-61.5 317.5,-40.5 178.5,-40.5"/>
<text text-anchor="middle" x="248" y="-48.5" font-family="Helvetica,sans-Serif" font-size="10.00">AmbientOcclusion::maxDist</text>
</a>
</g>
<!-- Node1&#45;&gt;Node3 -->
<g id="edge4" class="edge"><title>Node1&#45;&gt;Node3</title>
<path fill="none" stroke="midnightblue" d="M138.206,-51C147.99,-51 158.116,-51 168.082,-51"/>
<polygon fill="midnightblue" stroke="midnightblue" points="168.388,-54.5001 178.388,-51 168.388,-47.5001 168.388,-54.5001"/>
</g>
<!-- Node4 -->
<g id="node7" class="node"><title>Node4</title>
<a xlink:href="struct_ambient_occlusion.html#a570aad87dce4c95dceb896210574a288" target="_top" xlink:title="AmbientOcclusion::threshold">
<polygon fill="white" stroke="black" points="177,-0.5 177,-21.5 319,-21.5 319,-0.5 177,-0.5"/>
<text text-anchor="middle" x="248" y="-8.5" font-family="Helvetica,sans-Serif" font-size="10.00">AmbientOcclusion::threshold</text>
</a>
</g>
<!-- Node1&#45;&gt;Node4 -->
<g id="edge6" class="edge"><title>Node1&#45;&gt;Node4</title>
<path fill="none" stroke="midnightblue" d="M138.206,-35.535C155.559,-31.6571 173.987,-27.5392 190.689,-23.8068"/>
<polygon fill="midnightblue" stroke="midnightblue" points="191.845,-27.135 200.841,-21.5383 190.318,-20.3035 191.845,-27.135"/>
</g>
</g>
</svg>
