<?xml version="1.0" encoding="UTF-8" standalone="no"?>
<!DOCTYPE svg PUBLIC "-//W3C//DTD SVG 1.1//EN"
 "http://www.w3.org/Graphics/SVG/1.1/DTD/svg11.dtd">
<!-- Generated by graphviz version 2.26.3 (20100126.1600)
 -->
<!-- Title: src/trigger.cpp Pages: 1 -->
<svg width="1005pt" height="320pt"
 viewBox="0.00 0.00 1004.68 320.00" xmlns="http://www.w3.org/2000/svg" xmlns:xlink="http://www.w3.org/1999/xlink">
<g id="graph1" class="graph" transform="scale(1 1) rotate(0) translate(4 316)">
<title>src/trigger.cpp</title>
<polygon fill="white" stroke="white" points="-4,5 -4,-316 1001.68,-316 1001.68,5 -4,5"/>
<!-- Node1 -->
<g id="node1" class="node"><title>Node1</title>
<polygon fill="#bfbfbf" stroke="black" points="663.166,-290.5 663.166,-311.5 742.166,-311.5 742.166,-290.5 663.166,-290.5"/>
<text text-anchor="middle" x="702.666" y="-298.5" font-family="Helvetica,sans-Serif" font-size="10.00">src/trigger.cpp</text>
</g>
<!-- Node2 -->
<g id="node3" class="node"><title>Node2</title>
<a xlink:href="trigger_8hpp.html" target="_top" xlink:title="trigger.hpp">
<polygon fill="white" stroke="black" points="621.666,-232.5 621.666,-253.5 683.666,-253.5 683.666,-232.5 621.666,-232.5"/>
<text text-anchor="middle" x="652.666" y="-240.5" font-family="Helvetica,sans-Serif" font-size="10.00">trigger.hpp</text>
</a>
</g>
<!-- Node1&#45;&gt;Node2 -->
<g id="edge2" class="edge"><title>Node1&#45;&gt;Node2</title>
<path fill="none" stroke="midnightblue" d="M693.495,-290.362C686.518,-282.268 676.745,-270.932 668.511,-261.38"/>
<polygon fill="midnightblue" stroke="midnightblue" points="670.959,-258.859 661.779,-253.571 665.657,-263.43 670.959,-258.859"/>
</g>
<!-- Node21 -->
<g id="node48" class="node"><title>Node21</title>
<a xlink:href="cube_8hpp.html" target="_top" xlink:title="cube.hpp">
<polygon fill="white" stroke="black" points="724.666,-232.5 724.666,-253.5 780.666,-253.5 780.666,-232.5 724.666,-232.5"/>
<text text-anchor="middle" x="752.666" y="-240.5" font-family="Helvetica,sans-Serif" font-size="10.00">cube.hpp</text>
</a>
</g>
<!-- Node1&#45;&gt;Node21 -->
<g id="edge54" class="edge"><title>Node1&#45;&gt;Node21</title>
<path fill="none" stroke="midnightblue" d="M711.837,-290.362C718.815,-282.268 728.587,-270.932 736.822,-261.38"/>
<polygon fill="midnightblue" stroke="midnightblue" points="739.675,-263.43 743.553,-253.571 734.373,-258.859 739.675,-263.43"/>
</g>
<!-- Node3 -->
<g id="node5" class="node"><title>Node3</title>
<a xlink:href="geometry_8hpp.html" target="_top" xlink:title="geometry.hpp">
<polygon fill="white" stroke="black" points="590.666,-174.5 590.666,-195.5 666.666,-195.5 666.666,-174.5 590.666,-174.5"/>
<text text-anchor="middle" x="628.666" y="-182.5" font-family="Helvetica,sans-Serif" font-size="10.00">geometry.hpp</text>
</a>
</g>
<!-- Node2&#45;&gt;Node3 -->
<g id="edge4" class="edge"><title>Node2&#45;&gt;Node3</title>
<path fill="none" stroke="midnightblue" d="M648.264,-232.362C645.084,-224.677 640.695,-214.069 636.876,-204.84"/>
<polygon fill="midnightblue" stroke="midnightblue" points="640.098,-203.473 633.04,-195.571 633.63,-206.149 640.098,-203.473"/>
</g>
<!-- Node4 -->
<g id="node7" class="node"><title>Node4</title>
<polygon fill="white" stroke="#bfbfbf" points="775.166,-0.5 775.166,-21.5 828.166,-21.5 828.166,-0.5 775.166,-0.5"/>
<text text-anchor="middle" x="801.666" y="-8.5" font-family="Helvetica,sans-Serif" font-size="10.00">QObject</text>
</g>
<!-- Node3&#45;&gt;Node4 -->
<g id="edge6" class="edge"><title>Node3&#45;&gt;Node4</title>
<path fill="none" stroke="midnightblue" d="M666.877,-181.161C717.31,-175.214 801.917,-161.893 820.666,-138 845.182,-106.76 826.383,-57.5077 812.677,-30.4339"/>
<polygon fill="midnightblue" stroke="midnightblue" points="815.732,-28.7242 807.947,-21.5372 809.551,-32.01 815.732,-28.7242"/>
</g>
<!-- Node5 -->
<g id="node9" class="node"><title>Node5</title>
<polygon fill="white" stroke="#bfbfbf" points="241.166,-0.5 241.166,-21.5 306.166,-21.5 306.166,-0.5 241.166,-0.5"/>
<text text-anchor="middle" x="273.666" y="-8.5" font-family="Helvetica,sans-Serif" font-size="10.00">QVector3D</text>
</g>
<!-- Node3&#45;&gt;Node5 -->
<g id="edge8" class="edge"><title>Node3&#45;&gt;Node5</title>
<path fill="none" stroke="midnightblue" d="M590.332,-184.138C466.731,-181.06 84.0828,-169.089 38.6661,-138 7.58099,-116.721 -13.5147,-86.8851 10.6661,-58 38.2211,-25.0842 163.422,-15.1963 230.659,-12.2441"/>
<polygon fill="midnightblue" stroke="midnightblue" points="231.079,-15.73 240.929,-11.8273 230.796,-8.73575 231.079,-15.73"/>
</g>
<!-- Node6 -->
<g id="node11" class="node"><title>Node6</title>
<polygon fill="white" stroke="#bfbfbf" points="19.1661,-58.5 19.1661,-79.5 122.166,-79.5 122.166,-58.5 19.1661,-58.5"/>
<text text-anchor="middle" x="70.6661" y="-66.5" font-family="Helvetica,sans-Serif" font-size="10.00">QOpenGLFunctions</text>
</g>
<!-- Node3&#45;&gt;Node6 -->
<g id="edge10" class="edge"><title>Node3&#45;&gt;Node6</title>
<path fill="none" stroke="midnightblue" d="M590.657,-183.325C464.581,-177.589 67.0941,-157.982 48.6661,-138 35.9825,-124.247 45.4757,-103.171 55.6507,-87.9307"/>
<polygon fill="midnightblue" stroke="midnightblue" points="58.5522,-89.8909 61.5579,-79.7314 52.8726,-85.7991 58.5522,-89.8909"/>
</g>
<!-- Node7 -->
<g id="node13" class="node"><title>Node7</title>
<polygon fill="white" stroke="#bfbfbf" points="131.666,-116.5 131.666,-137.5 259.666,-137.5 259.666,-116.5 131.666,-116.5"/>
<text text-anchor="middle" x="195.666" y="-124.5" font-family="Helvetica,sans-Serif" font-size="10.00">QOpenGLShaderProgram</text>
</g>
<!-- Node3&#45;&gt;Node7 -->
<g id="edge12" class="edge"><title>Node3&#45;&gt;Node7</title>
<path fill="none" stroke="midnightblue" d="M590.535,-180.273C526.519,-172.282 393.129,-155.398 269.75,-138.133"/>
<polygon fill="midnightblue" stroke="midnightblue" points="270.139,-134.653 259.75,-136.73 269.166,-141.585 270.139,-134.653"/>
</g>
<!-- Node8 -->
<g id="node15" class="node"><title>Node8</title>
<polygon fill="white" stroke="#bfbfbf" points="277.666,-116.5 277.666,-137.5 363.666,-137.5 363.666,-116.5 277.666,-116.5"/>
<text text-anchor="middle" x="320.666" y="-124.5" font-family="Helvetica,sans-Serif" font-size="10.00">QOpenGLBuffer</text>
</g>
<!-- Node3&#45;&gt;Node8 -->
<g id="edge14" class="edge"><title>Node3&#45;&gt;Node8</title>
<path fill="none" stroke="midnightblue" d="M590.438,-178.312C542.254,-169.81 456.64,-154.463 373.624,-138.154"/>
<polygon fill="midnightblue" stroke="midnightblue" points="374.266,-134.714 363.778,-136.213 372.912,-141.581 374.266,-134.714"/>
</g>
<!-- Node9 -->
<g id="node17" class="node"><title>Node9</title>
<polygon fill="white" stroke="#bfbfbf" points="381.666,-116.5 381.666,-137.5 521.666,-137.5 521.666,-116.5 381.666,-116.5"/>
<text text-anchor="middle" x="451.666" y="-124.5" font-family="Helvetica,sans-Serif" font-size="10.00">QOpenGLVertexArrayObject</text>
</g>
<!-- Node3&#45;&gt;Node9 -->
<g id="edge16" class="edge"><title>Node3&#45;&gt;Node9</title>
<path fill="none" stroke="midnightblue" d="M596.613,-174.497C567.757,-165.041 525.16,-151.083 493.605,-140.743"/>
<polygon fill="midnightblue" stroke="midnightblue" points="494.372,-137.311 483.78,-137.523 492.193,-143.963 494.372,-137.311"/>
</g>
<!-- Node10 -->
<g id="node19" class="node"><title>Node10</title>
<polygon fill="white" stroke="#bfbfbf" points="867.166,-116.5 867.166,-137.5 914.166,-137.5 914.166,-116.5 867.166,-116.5"/>
<text text-anchor="middle" x="890.666" y="-124.5" font-family="Helvetica,sans-Serif" font-size="10.00">QColor</text>
</g>
<!-- Node3&#45;&gt;Node10 -->
<g id="edge18" class="edge"><title>Node3&#45;&gt;Node10</title>
<path fill="none" stroke="midnightblue" d="M666.706,-178.053C711.624,-169.62 788.473,-154.47 853.666,-138 854.738,-137.729 855.826,-137.448 856.922,-137.158"/>
<polygon fill="midnightblue" stroke="midnightblue" points="858.166,-140.445 866.862,-134.393 856.29,-133.701 858.166,-140.445"/>
</g>
<!-- Node11 -->
<g id="node21" class="node"><title>Node11</title>
<a xlink:href="globals_8hpp.html" target="_top" xlink:title="Definitions globales. ">
<polygon fill="white" stroke="black" points="607.666,-58.5 607.666,-79.5 673.666,-79.5 673.666,-58.5 607.666,-58.5"/>
<text text-anchor="middle" x="640.666" y="-66.5" font-family="Helvetica,sans-Serif" font-size="10.00">globals.hpp</text>
</a>
</g>
<!-- Node3&#45;&gt;Node11 -->
<g id="edge20" class="edge"><title>Node3&#45;&gt;Node11</title>
<path fill="none" stroke="midnightblue" d="M637.419,-174.199C644.16,-165.144 652.935,-151.553 656.666,-138 661.14,-121.75 656.237,-103.121 650.715,-89.3193"/>
<polygon fill="midnightblue" stroke="midnightblue" points="653.762,-87.5555 646.517,-79.825 647.36,-90.3862 653.762,-87.5555"/>
</g>
<!-- Node14 -->
<g id="node29" class="node"><title>Node14</title>
<a xlink:href="actor_8hpp.html" target="_top" xlink:title="actor.hpp">
<polygon fill="white" stroke="black" points="57.1661,-116.5 57.1661,-137.5 114.166,-137.5 114.166,-116.5 57.1661,-116.5"/>
<text text-anchor="middle" x="85.6661" y="-124.5" font-family="Helvetica,sans-Serif" font-size="10.00">actor.hpp</text>
</a>
</g>
<!-- Node3&#45;&gt;Node14 -->
<g id="edge30" class="edge"><title>Node3&#45;&gt;Node14</title>
<path fill="none" stroke="midnightblue" d="M590.539,-184.01C507.248,-181.302 302.828,-171.693 124.053,-137.976"/>
<polygon fill="midnightblue" stroke="midnightblue" points="124.692,-134.534 114.212,-136.09 123.374,-141.409 124.692,-134.534"/>
</g>
<!-- Node17 -->
<g id="node37" class="node"><title>Node17</title>
<a xlink:href="material_8hpp.html" target="_top" xlink:title="material.hpp">
<polygon fill="white" stroke="black" points="741.666,-116.5 741.666,-137.5 811.666,-137.5 811.666,-116.5 741.666,-116.5"/>
<text text-anchor="middle" x="776.666" y="-124.5" font-family="Helvetica,sans-Serif" font-size="10.00">material.hpp</text>
</a>
</g>
<!-- Node3&#45;&gt;Node17 -->
<g id="edge40" class="edge"><title>Node3&#45;&gt;Node17</title>
<path fill="none" stroke="midnightblue" d="M655.468,-174.497C679.104,-165.234 713.766,-151.65 739.974,-141.379"/>
<polygon fill="midnightblue" stroke="midnightblue" points="741.53,-144.529 749.564,-137.621 738.976,-138.011 741.53,-144.529"/>
</g>
<!-- Node18 -->
<g id="node42" class="node"><title>Node18</title>
<polygon fill="white" stroke="#bfbfbf" points="539.666,-116.5 539.666,-137.5 591.666,-137.5 591.666,-116.5 539.666,-116.5"/>
<text text-anchor="middle" x="565.666" y="-124.5" font-family="Helvetica,sans-Serif" font-size="10.00">memory</text>
</g>
<!-- Node3&#45;&gt;Node18 -->
<g id="edge48" class="edge"><title>Node3&#45;&gt;Node18</title>
<path fill="none" stroke="midnightblue" d="M617.111,-174.362C608.053,-166.023 595.256,-154.242 584.692,-144.516"/>
<polygon fill="midnightblue" stroke="midnightblue" points="586.876,-141.769 577.148,-137.571 582.134,-146.919 586.876,-141.769"/>
</g>
<!-- Node19 -->
<g id="node44" class="node"><title>Node19</title>
<polygon fill="white" stroke="#bfbfbf" points="931.666,-116.5 931.666,-137.5 975.666,-137.5 975.666,-116.5 931.666,-116.5"/>
<text text-anchor="middle" x="953.666" y="-124.5" font-family="Helvetica,sans-Serif" font-size="10.00">vector</text>
</g>
<!-- Node3&#45;&gt;Node19 -->
<g id="edge50" class="edge"><title>Node3&#45;&gt;Node19</title>
<path fill="none" stroke="midnightblue" d="M666.708,-181.165C721.308,-175.173 825.075,-161.975 921.553,-137.939"/>
<polygon fill="midnightblue" stroke="midnightblue" points="922.633,-141.276 931.465,-135.425 920.912,-134.491 922.633,-141.276"/>
</g>
<!-- Node20 -->
<g id="node46" class="node"><title>Node20</title>
<polygon fill="white" stroke="#bfbfbf" points="609.666,-116.5 609.666,-137.5 647.666,-137.5 647.666,-116.5 609.666,-116.5"/>
<text text-anchor="middle" x="628.666" y="-124.5" font-family="Helvetica,sans-Serif" font-size="10.00">tuple</text>
</g>
<!-- Node3&#45;&gt;Node20 -->
<g id="edge52" class="edge"><title>Node3&#45;&gt;Node20</title>
<path fill="none" stroke="midnightblue" d="M628.666,-174.362C628.666,-166.922 628.666,-156.743 628.666,-147.728"/>
<polygon fill="midnightblue" stroke="midnightblue" points="632.166,-147.571 628.666,-137.571 625.166,-147.571 632.166,-147.571"/>
</g>
<!-- Node11&#45;&gt;Node4 -->
<g id="edge22" class="edge"><title>Node11&#45;&gt;Node4</title>
<path fill="none" stroke="midnightblue" d="M669.822,-58.4966C696.653,-48.8309 736.544,-34.4602 765.417,-24.0588"/>
<polygon fill="midnightblue" stroke="midnightblue" points="766.908,-27.2417 775.13,-20.5595 764.536,-20.656 766.908,-27.2417"/>
</g>
<!-- Node11&#45;&gt;Node5 -->
<g id="edge26" class="edge"><title>Node11&#45;&gt;Node5</title>
<path fill="none" stroke="midnightblue" d="M607.45,-63.7506C540.632,-53.1908 390.059,-29.3946 316.179,-17.7186"/>
<polygon fill="midnightblue" stroke="midnightblue" points="316.703,-14.2582 306.28,-16.1542 315.611,-21.1724 316.703,-14.2582"/>
</g>
<!-- Node12 -->
<g id="node24" class="node"><title>Node12</title>
<polygon fill="white" stroke="#bfbfbf" points="566.166,-0.5 566.166,-21.5 637.166,-21.5 637.166,-0.5 566.166,-0.5"/>
<text text-anchor="middle" x="601.666" y="-8.5" font-family="Helvetica,sans-Serif" font-size="10.00">QQuaternion</text>
</g>
<!-- Node11&#45;&gt;Node12 -->
<g id="edge24" class="edge"><title>Node11&#45;&gt;Node12</title>
<path fill="none" stroke="midnightblue" d="M633.513,-58.3619C628.18,-50.4313 620.755,-39.3885 614.416,-29.9606"/>
<polygon fill="midnightblue" stroke="midnightblue" points="617.258,-27.9161 608.774,-21.5707 611.45,-31.8221 617.258,-27.9161"/>
</g>
<!-- Node13 -->
<g id="node27" class="node"><title>Node13</title>
<polygon fill="white" stroke="#bfbfbf" points="654.166,-0.5 654.166,-21.5 703.166,-21.5 703.166,-0.5 654.166,-0.5"/>
<text text-anchor="middle" x="678.666" y="-8.5" font-family="Helvetica,sans-Serif" font-size="10.00">QtMath</text>
</g>
<!-- Node11&#45;&gt;Node13 -->
<g id="edge28" class="edge"><title>Node11&#45;&gt;Node13</title>
<path fill="none" stroke="midnightblue" d="M647.636,-58.3619C652.832,-50.4313 660.067,-39.3885 666.244,-29.9606"/>
<polygon fill="midnightblue" stroke="midnightblue" points="669.188,-31.8534 671.741,-21.5707 663.333,-28.0172 669.188,-31.8534"/>
</g>
<!-- Node14&#45;&gt;Node6 -->
<g id="edge36" class="edge"><title>Node14&#45;&gt;Node6</title>
<path fill="none" stroke="midnightblue" d="M82.9149,-116.362C80.9696,-108.84 78.3003,-98.5187 75.9499,-89.4308"/>
<polygon fill="midnightblue" stroke="midnightblue" points="79.2923,-88.3758 73.3999,-79.5707 72.5153,-90.1285 79.2923,-88.3758"/>
</g>
<!-- Node14&#45;&gt;Node11 -->
<g id="edge32" class="edge"><title>Node14&#45;&gt;Node11</title>
<path fill="none" stroke="midnightblue" d="M114.211,-117.904C117.049,-117.184 119.902,-116.531 122.666,-116 296.682,-82.5818 508.28,-72.78 597.599,-70.0247"/>
<polygon fill="midnightblue" stroke="midnightblue" points="597.731,-73.5225 607.623,-69.7296 597.525,-66.5255 597.731,-73.5225"/>
</g>
<!-- Node15 -->
<g id="node32" class="node"><title>Node15</title>
<polygon fill="white" stroke="#bfbfbf" points="139.166,-58.5 139.166,-79.5 206.166,-79.5 206.166,-58.5 139.166,-58.5"/>
<text text-anchor="middle" x="172.666" y="-66.5" font-family="Helvetica,sans-Serif" font-size="10.00">QMatrix4x4</text>
</g>
<!-- Node14&#45;&gt;Node15 -->
<g id="edge34" class="edge"><title>Node14&#45;&gt;Node15</title>
<path fill="none" stroke="midnightblue" d="M101.623,-116.362C114.623,-107.696 133.197,-95.3126 148.093,-85.3819"/>
<polygon fill="midnightblue" stroke="midnightblue" points="150.431,-88.0299 156.81,-79.5707 146.548,-82.2055 150.431,-88.0299"/>
</g>
<!-- Node16 -->
<g id="node35" class="node"><title>Node16</title>
<polygon fill="white" stroke="#bfbfbf" points="691.166,-58.5 691.166,-79.5 774.166,-79.5 774.166,-58.5 691.166,-58.5"/>
<text text-anchor="middle" x="732.666" y="-66.5" font-family="Helvetica,sans-Serif" font-size="10.00">QMetaProperty</text>
</g>
<!-- Node14&#45;&gt;Node16 -->
<g id="edge38" class="edge"><title>Node14&#45;&gt;Node16</title>
<path fill="none" stroke="midnightblue" d="M114.196,-117.828C117.038,-117.123 119.895,-116.494 122.666,-116 364.953,-72.765 433.905,-113.784 681.011,-80.054"/>
<polygon fill="midnightblue" stroke="midnightblue" points="681.589,-83.5074 691.011,-78.6618 680.623,-76.5743 681.589,-83.5074"/>
</g>
<!-- Node17&#45;&gt;Node4 -->
<g id="edge42" class="edge"><title>Node17&#45;&gt;Node4</title>
<path fill="none" stroke="midnightblue" d="M778.973,-116.295C783.122,-97.0451 791.906,-56.2889 797.246,-31.5091"/>
<polygon fill="midnightblue" stroke="midnightblue" points="800.679,-32.1922 799.365,-21.6792 793.836,-30.7174 800.679,-32.1922"/>
</g>
<!-- Node17&#45;&gt;Node11 -->
<g id="edge44" class="edge"><title>Node17&#45;&gt;Node11</title>
<path fill="none" stroke="midnightblue" d="M752.038,-116.497C730.509,-107.315 699.026,-93.8889 675.022,-83.6516"/>
<polygon fill="midnightblue" stroke="midnightblue" points="676.143,-80.3247 665.571,-79.6212 673.396,-86.7636 676.143,-80.3247"/>
</g>
<!-- Node17&#45;&gt;Node16 -->
<g id="edge46" class="edge"><title>Node17&#45;&gt;Node16</title>
<path fill="none" stroke="midnightblue" d="M768.596,-116.362C762.518,-108.35 754.029,-97.1605 746.829,-87.6696"/>
<polygon fill="midnightblue" stroke="midnightblue" points="749.518,-85.4222 740.685,-79.5707 743.941,-89.653 749.518,-85.4222"/>
</g>
<!-- Node21&#45;&gt;Node3 -->
<g id="edge56" class="edge"><title>Node21&#45;&gt;Node3</title>
<path fill="none" stroke="midnightblue" d="M730.211,-232.497C710.756,-223.397 682.386,-210.127 660.575,-199.925"/>
<polygon fill="midnightblue" stroke="midnightblue" points="661.915,-196.688 651.374,-195.621 658.949,-203.028 661.915,-196.688"/>
</g>
<!-- Node21&#45;&gt;Node10 -->
<g id="edge60" class="edge"><title>Node21&#45;&gt;Node10</title>
<path fill="none" stroke="midnightblue" d="M765.401,-232.295C789.329,-212.182 841.188,-168.59 870.115,-144.275"/>
<polygon fill="midnightblue" stroke="midnightblue" points="872.559,-146.793 877.962,-137.679 868.055,-141.435 872.559,-146.793"/>
</g>
<!-- Node21&#45;&gt;Node11 -->
<g id="edge58" class="edge"><title>Node21&#45;&gt;Node11</title>
<path fill="none" stroke="midnightblue" d="M746,-232.428C732.222,-210.603 699.559,-159.003 671.666,-116 665.729,-106.846 659.075,-96.7389 653.459,-88.2504"/>
<polygon fill="midnightblue" stroke="midnightblue" points="656.297,-86.1976 647.855,-79.7964 650.463,-90.0652 656.297,-86.1976"/>
</g>
<!-- Node21&#45;&gt;Node16 -->
<g id="edge62" class="edge"><title>Node21&#45;&gt;Node16</title>
<path fill="none" stroke="midnightblue" d="M780.78,-238.986C854.856,-227.298 1045.62,-189.377 984.666,-116 959.73,-85.9832 850.702,-75.0357 784.496,-71.1173"/>
<polygon fill="midnightblue" stroke="midnightblue" points="784.436,-67.6086 774.257,-70.5469 784.047,-74.5978 784.436,-67.6086"/>
</g>
<!-- Node21&#45;&gt;Node19 -->
<g id="edge64" class="edge"><title>Node21&#45;&gt;Node19</title>
<path fill="none" stroke="midnightblue" d="M771.244,-232.387C787.874,-222.878 812.916,-208.539 834.666,-196 866.265,-177.784 902.515,-156.744 926.62,-142.734"/>
<polygon fill="midnightblue" stroke="midnightblue" points="928.652,-145.601 935.538,-137.549 925.134,-139.549 928.652,-145.601"/>
</g>
</g>
</svg>
