<?xml version="1.0" encoding="UTF-8" standalone="no"?>
<!DOCTYPE svg PUBLIC "-//W3C//DTD SVG 1.1//EN"
 "http://www.w3.org/Graphics/SVG/1.1/DTD/svg11.dtd">
<!-- Generated by graphviz version 2.26.3 (20100126.1600)
 -->
<!-- Title: include/viewport.hpp Pages: 1 -->
<!--zoomable 88 -->
<svg id="main" version="1.1" xmlns="http://www.w3.org/2000/svg" xmlns:xlink="http://www.w3.org/1999/xlink" xml:space="preserve" onload="init(evt)">
<style type="text/css"><![CDATA[
.edge:hover path { stroke: red; }
.edge:hover polygon { stroke: red; fill: red; }
]]></style>
<script type="text/javascript"><![CDATA[
var edges = document.getElementsByTagName('g');
if (edges && edges.length) {
  for (var i=0;i<edges.length;i++) {
    if (edges[i].id.substr(0,4)=='edge') {
      edges[i].setAttribute('class','edge');
    }
  }
}
]]></script>
        <defs>
                <circle id="rim" cx="0" cy="0" r="7"/>
                <circle id="rim2" cx="0" cy="0" r="3.5"/>
                <g id="zoomPlus">
                        <use xlink:href="#rim" fill="#404040">
                                <set attributeName="fill" to="#808080" begin="zoomplus.mouseover" end="zoomplus.mouseout"/>
                        </use>
                        <path d="M-4,0h8M0,-4v8" fill="none" stroke="white" stroke-width="1.5" pointer-events="none"/>
                </g>
                <g id="zoomMin">
                        <use xlink:href="#rim" fill="#404040">
                                <set attributeName="fill" to="#808080" begin="zoomminus.mouseover" end="zoomminus.mouseout"/>
                        </use>
                        <path d="M-4,0h8" fill="none" stroke="white" stroke-width="1.5" pointer-events="none"/>
                </g>
                <g id="dirArrow">
                        <path fill="none" stroke="white" stroke-width="1.5" d="M0,-3.0v7 M-2.5,-0.5L0,-3.0L2.5,-0.5"/>
                </g>
               <g id="resetDef">
                       <use xlink:href="#rim2" fill="#404040">
                               <set attributeName="fill" to="#808080" begin="reset.mouseover" end="reset.mouseout"/>
                       </use>
               </g>
        </defs>

<script type="text/javascript">
var viewWidth = 720;
var viewHeight = 88;
var sectionId = 'dynsection-1';
</script>
<script xlink:href="svgpan.js"/>
<svg id="graph" class="graph">
<g id="viewport">
<title>include/viewport.hpp</title>
<polygon fill="white" stroke="white" points="-4,5 -4,-84 717,-84 717,5 -4,5"/>
<!-- Node1 -->
<g id="node1" class="node"><title>Node1</title>
<polygon fill="#bfbfbf" stroke="black" points="313,-58.5 313,-79.5 419,-79.5 419,-58.5 313,-58.5"/>
<text text-anchor="middle" x="366" y="-66.5" font-family="Helvetica,sans-Serif" font-size="10.00">include/viewport.hpp</text>
</g>
<!-- Node2 -->
<g id="node3" class="node"><title>Node2</title>
<a xlink:href="actor_8cpp.html" target="_top" xlink:title="src/actor.cpp">
<polygon fill="white" stroke="black" points="0,-0.5 0,-21.5 74,-21.5 74,-0.5 0,-0.5"/>
<text text-anchor="middle" x="37" y="-8.5" font-family="Helvetica,sans-Serif" font-size="10.00">src/actor.cpp</text>
</a>
</g>
<!-- Node1&#45;&gt;Node2 -->
<g id="edge2" class="edge"><title>Node1&#45;&gt;Node2</title>
<path fill="none" stroke="midnightblue" d="M302.827,-59.8068C245.321,-51.1305 158.178,-37.2118 83,-22 80.1027,-21.4137 77.1105,-20.7748 74.1076,-20.1097"/>
<polygon fill="midnightblue" stroke="midnightblue" points="302.447,-63.2889 312.856,-61.3121 303.486,-56.3665 302.447,-63.2889"/>
</g>
<!-- Node3 -->
<g id="node5" class="node"><title>Node3</title>
<a xlink:href="actorbuilder_8cpp.html" target="_top" xlink:title="src/actorbuilder.cpp">
<polygon fill="white" stroke="black" points="92,-0.5 92,-21.5 194,-21.5 194,-0.5 92,-0.5"/>
<text text-anchor="middle" x="143" y="-8.5" font-family="Helvetica,sans-Serif" font-size="10.00">src/actorbuilder.cpp</text>
</a>
</g>
<!-- Node1&#45;&gt;Node3 -->
<g id="edge4" class="edge"><title>Node1&#45;&gt;Node3</title>
<path fill="none" stroke="midnightblue" d="M315.804,-55.9447C275.839,-45.5501 220.626,-31.1897 183.459,-21.5231"/>
<polygon fill="midnightblue" stroke="midnightblue" points="315.057,-59.3667 325.616,-58.4966 316.819,-52.5921 315.057,-59.3667"/>
</g>
<!-- Node4 -->
<g id="node7" class="node"><title>Node4</title>
<a xlink:href="fileloader_8cpp.html" target="_top" xlink:title="src/fileloader.cpp">
<polygon fill="white" stroke="black" points="211.5,-0.5 211.5,-21.5 302.5,-21.5 302.5,-0.5 211.5,-0.5"/>
<text text-anchor="middle" x="257" y="-8.5" font-family="Helvetica,sans-Serif" font-size="10.00">src/fileloader.cpp</text>
</a>
</g>
<!-- Node1&#45;&gt;Node4 -->
<g id="edge6" class="edge"><title>Node1&#45;&gt;Node4</title>
<path fill="none" stroke="midnightblue" d="M337.423,-53.794C318.406,-43.6746 293.898,-30.6338 276.961,-21.6212"/>
<polygon fill="midnightblue" stroke="midnightblue" points="335.789,-56.8889 346.261,-58.4966 339.077,-50.7093 335.789,-56.8889"/>
</g>
<!-- Node5 -->
<g id="node9" class="node"><title>Node5</title>
<a xlink:href="geometry_8cpp.html" target="_top" xlink:title="src/geometry.cpp">
<polygon fill="white" stroke="black" points="320,-0.5 320,-21.5 412,-21.5 412,-0.5 320,-0.5"/>
<text text-anchor="middle" x="366" y="-8.5" font-family="Helvetica,sans-Serif" font-size="10.00">src/geometry.cpp</text>
</a>
</g>
<!-- Node1&#45;&gt;Node5 -->
<g id="edge8" class="edge"><title>Node1&#45;&gt;Node5</title>
<path fill="none" stroke="midnightblue" d="M366,-48.1906C366,-39.1684 366,-28.9941 366,-21.5707"/>
<polygon fill="midnightblue" stroke="midnightblue" points="362.5,-48.3619 366,-58.3619 369.5,-48.3619 362.5,-48.3619"/>
</g>
<!-- Node6 -->
<g id="node11" class="node"><title>Node6</title>
<a xlink:href="light_8cpp.html" target="_top" xlink:title="src/light.cpp">
<polygon fill="white" stroke="black" points="430,-0.5 430,-21.5 500,-21.5 500,-0.5 430,-0.5"/>
<text text-anchor="middle" x="465" y="-8.5" font-family="Helvetica,sans-Serif" font-size="10.00">src/light.cpp</text>
</a>
</g>
<!-- Node1&#45;&gt;Node6 -->
<g id="edge10" class="edge"><title>Node1&#45;&gt;Node6</title>
<path fill="none" stroke="midnightblue" d="M393.138,-53.1009C410.267,-43.0658 431.919,-30.3808 446.957,-21.5707"/>
<polygon fill="midnightblue" stroke="midnightblue" points="391.017,-50.287 384.158,-58.3619 394.556,-56.3268 391.017,-50.287"/>
</g>
<!-- Node7 -->
<g id="node13" class="node"><title>Node7</title>
<a xlink:href="spotlight_8cpp.html" target="_top" xlink:title="src/spotlight.cpp">
<polygon fill="white" stroke="black" points="517.5,-0.5 517.5,-21.5 606.5,-21.5 606.5,-0.5 517.5,-0.5"/>
<text text-anchor="middle" x="562" y="-8.5" font-family="Helvetica,sans-Serif" font-size="10.00">src/spotlight.cpp</text>
</a>
</g>
<!-- Node1&#45;&gt;Node7 -->
<g id="edge12" class="edge"><title>Node1&#45;&gt;Node7</title>
<path fill="none" stroke="midnightblue" d="M411.464,-55.5464C446.476,-45.1857 494.188,-31.0668 526.439,-21.5231"/>
<polygon fill="midnightblue" stroke="midnightblue" points="410.09,-52.3029 401.494,-58.4966 412.076,-59.0152 410.09,-52.3029"/>
</g>
<!-- Node8 -->
<g id="node15" class="node"><title>Node8</title>
<a xlink:href="viewport_8cpp.html" target="_top" xlink:title="src/viewport.cpp">
<polygon fill="white" stroke="black" points="623.5,-0.5 623.5,-21.5 712.5,-21.5 712.5,-0.5 623.5,-0.5"/>
<text text-anchor="middle" x="668" y="-8.5" font-family="Helvetica,sans-Serif" font-size="10.00">src/viewport.cpp</text>
</a>
</g>
<!-- Node1&#45;&gt;Node8 -->
<g id="edge14" class="edge"><title>Node1&#45;&gt;Node8</title>
<path fill="none" stroke="midnightblue" d="M429.57,-57.3283C479.921,-48.0048 552.019,-34.4786 615,-22 617.765,-21.4521 620.611,-20.8815 623.479,-20.3011"/>
<polygon fill="midnightblue" stroke="midnightblue" points="428.68,-53.9335 419.484,-59.1937 429.953,-60.8167 428.68,-53.9335"/>
</g>
</g>
</svg>
        <g id="navigator" transform="translate(0 0)" fill="#404254">
                <rect fill="#f2f5e9" fill-opacity="0.5" stroke="#606060" stroke-width=".5" x="0" y="0" width="60" height="60"/>
                <use id="zoomplus" xlink:href="#zoomPlus" x="17" y="9" onmousedown="handleZoom(evt,'in')"/>
                <use id="zoomminus" xlink:href="#zoomMin" x="42" y="9" onmousedown="handleZoom(evt,'out')"/>
                <use id="reset" xlink:href="#resetDef" x="30" y="36" onmousedown="handleReset()"/>
                <g id="arrowUp" xlink:href="#dirArrow" transform="translate(30 24)" onmousedown="handlePan(0,-1)">
                  <use xlink:href="#rim" fill="#404040">
                        <set attributeName="fill" to="#808080" begin="arrowUp.mouseover" end="arrowUp.mouseout"/>
                  </use>
                  <path fill="none" stroke="white" stroke-width="1.5" d="M0,-3.0v7 M-2.5,-0.5L0,-3.0L2.5,-0.5"/>
                </g>
                <g id="arrowRight" xlink:href="#dirArrow" transform="rotate(90) translate(36 -43)" onmousedown="handlePan(1,0)">
                  <use xlink:href="#rim" fill="#404040">
                        <set attributeName="fill" to="#808080" begin="arrowRight.mouseover" end="arrowRight.mouseout"/>
                  </use>
                  <path fill="none" stroke="white" stroke-width="1.5" d="M0,-3.0v7 M-2.5,-0.5L0,-3.0L2.5,-0.5"/>
                </g>
                <g id="arrowDown" xlink:href="#dirArrow" transform="rotate(180) translate(-30 -48)" onmousedown="handlePan(0,1)">
                  <use xlink:href="#rim" fill="#404040">
                        <set attributeName="fill" to="#808080" begin="arrowDown.mouseover" end="arrowDown.mouseout"/>
                  </use>
                  <path fill="none" stroke="white" stroke-width="1.5" d="M0,-3.0v7 M-2.5,-0.5L0,-3.0L2.5,-0.5"/>
                </g>
                <g id="arrowLeft" xlink:href="#dirArrow" transform="rotate(270) translate(-36 17)" onmousedown="handlePan(-1,0)">
                  <use xlink:href="#rim" fill="#404040">
                        <set attributeName="fill" to="#808080" begin="arrowLeft.mouseover" end="arrowLeft.mouseout"/>
                  </use>
                  <path fill="none" stroke="white" stroke-width="1.5" d="M0,-3.0v7 M-2.5,-0.5L0,-3.0L2.5,-0.5"/>
                </g>
        </g>
        <svg viewBox="0 0 15 15" width="100%" height="30px" preserveAspectRatio="xMaxYMin meet">
         <g id="arrow_out" transform="scale(0.3 0.3)">
          <a xlink:href="viewport_8hpp__dep__incl_org.svg" target="_base">
           <rect id="button" ry="5" rx="5" y="6" x="6" height="38" width="38"
                fill="#f2f5e9" fill-opacity="0.5" stroke="#606060" stroke-width="1.0"/>
           <path id="arrow"
             d="M 11.500037,31.436501 C 11.940474,20.09759 22.043105,11.32322 32.158766,21.979434 L 37.068811,17.246167 C 37.068811,17.246167 37.088388,32 37.088388,32 L 22.160133,31.978069 C 22.160133,31.978069 26.997745,27.140456 26.997745,27.140456 C 18.528582,18.264221 13.291696,25.230495 11.500037,31.436501 z"
             style="fill:#404040;"/>
          </a>
         </g>
        </svg>
</svg>
