<?xml version="1.0" encoding="UTF-8" standalone="no"?>
<!DOCTYPE svg PUBLIC "-//W3C//DTD SVG 1.1//EN"
 "http://www.w3.org/Graphics/SVG/1.1/DTD/svg11.dtd">
<!-- Generated by graphviz version 2.26.3 (20100126.1600)
 -->
<!-- Title: src/viewport.cpp Pages: 1 -->
<!--zoomable 392 -->
<svg id="main" version="1.1" xmlns="http://www.w3.org/2000/svg" xmlns:xlink="http://www.w3.org/1999/xlink" xml:space="preserve" onload="init(evt)">
<style type="text/css"><![CDATA[
.edge:hover path { stroke: red; }
.edge:hover polygon { stroke: red; fill: red; }
]]></style>
<script type="text/javascript"><![CDATA[
var edges = document.getElementsByTagName('g');
if (edges && edges.length) {
  for (var i=0;i<edges.length;i++) {
    if (edges[i].id.substr(0,4)=='edge') {
      edges[i].setAttribute('class','edge');
    }
  }
}
]]></script>
        <defs>
                <circle id="rim" cx="0" cy="0" r="7"/>
                <circle id="rim2" cx="0" cy="0" r="3.5"/>
                <g id="zoomPlus">
                        <use xlink:href="#rim" fill="#404040">
                                <set attributeName="fill" to="#808080" begin="zoomplus.mouseover" end="zoomplus.mouseout"/>
                        </use>
                        <path d="M-4,0h8M0,-4v8" fill="none" stroke="white" stroke-width="1.5" pointer-events="none"/>
                </g>
                <g id="zoomMin">
                        <use xlink:href="#rim" fill="#404040">
                                <set attributeName="fill" to="#808080" begin="zoomminus.mouseover" end="zoomminus.mouseout"/>
                        </use>
                        <path d="M-4,0h8" fill="none" stroke="white" stroke-width="1.5" pointer-events="none"/>
                </g>
                <g id="dirArrow">
                        <path fill="none" stroke="white" stroke-width="1.5" d="M0,-3.0v7 M-2.5,-0.5L0,-3.0L2.5,-0.5"/>
                </g>
               <g id="resetDef">
                       <use xlink:href="#rim2" fill="#404040">
                               <set attributeName="fill" to="#808080" begin="reset.mouseover" end="reset.mouseout"/>
                       </use>
               </g>
        </defs>

<script type="text/javascript">
var viewWidth = 1920;
var viewHeight = 392;
var sectionId = 'dynsection-0';
</script>
<script xlink:href="svgpan.js"/>
<svg id="graph" class="graph">
<g id="viewport">
<title>src/viewport.cpp</title>
<polygon fill="white" stroke="white" points="-4,5 -4,-388 1917,-388 1917,5 -4,5"/>
<!-- Node1 -->
<g id="node1" class="node"><title>Node1</title>
<polygon fill="#bfbfbf" stroke="black" points="1196.5,-362.5 1196.5,-383.5 1285.5,-383.5 1285.5,-362.5 1196.5,-362.5"/>
<text text-anchor="middle" x="1241" y="-370.5" font-family="Helvetica,sans-Serif" font-size="10.00">src/viewport.cpp</text>
</g>
<!-- Node2 -->
<g id="node3" class="node"><title>Node2</title>
<a xlink:href="viewport_8hpp.html" target="_top" xlink:title="viewport.hpp">
<polygon fill="white" stroke="black" points="639,-304.5 639,-325.5 711,-325.5 711,-304.5 639,-304.5"/>
<text text-anchor="middle" x="675" y="-312.5" font-family="Helvetica,sans-Serif" font-size="10.00">viewport.hpp</text>
</a>
</g>
<!-- Node1&#45;&gt;Node2 -->
<g id="edge2" class="edge"><title>Node1&#45;&gt;Node2</title>
<path fill="none" stroke="midnightblue" d="M1196.11,-368.4C1090.72,-357.601 828.296,-330.709 721.409,-319.756"/>
<polygon fill="midnightblue" stroke="midnightblue" points="721.565,-316.253 711.261,-318.716 720.852,-323.217 721.565,-316.253"/>
</g>
<!-- Node34 -->
<g id="node92" class="node"><title>Node34</title>
<polygon fill="white" stroke="#bfbfbf" points="1593.5,-304.5 1593.5,-325.5 1640.5,-325.5 1640.5,-304.5 1593.5,-304.5"/>
<text text-anchor="middle" x="1617" y="-312.5" font-family="Helvetica,sans-Serif" font-size="10.00">QStyle</text>
</g>
<!-- Node1&#45;&gt;Node34 -->
<g id="edge116" class="edge"><title>Node1&#45;&gt;Node34</title>
<path fill="none" stroke="midnightblue" d="M1285.77,-369.692C1349.97,-364.336 1471.89,-351.891 1583.33,-326.068"/>
<polygon fill="midnightblue" stroke="midnightblue" points="1584.46,-329.397 1593.39,-323.693 1582.85,-322.584 1584.46,-329.397"/>
</g>
<!-- Node35 -->
<g id="node94" class="node"><title>Node35</title>
<a xlink:href="light_8hpp.html" target="_top" xlink:title="light.hpp">
<polygon fill="white" stroke="black" points="955.5,-174.5 955.5,-195.5 1008.5,-195.5 1008.5,-174.5 955.5,-174.5"/>
<text text-anchor="middle" x="982" y="-182.5" font-family="Helvetica,sans-Serif" font-size="10.00">light.hpp</text>
</a>
</g>
<!-- Node1&#45;&gt;Node35 -->
<g id="edge118" class="edge"><title>Node1&#45;&gt;Node35</title>
<path fill="none" stroke="midnightblue" d="M1196.26,-370.328C1134.31,-365.649 1027.1,-353.695 1001,-326 970.224,-293.338 973.562,-236.016 978.094,-205.489"/>
<polygon fill="midnightblue" stroke="midnightblue" points="981.558,-205.99 979.756,-195.55 974.654,-204.836 981.558,-205.99"/>
</g>
<!-- Node36 -->
<g id="node98" class="node"><title>Node36</title>
<a xlink:href="spotlight_8hpp.html" target="_top" xlink:title="spotlight.hpp">
<polygon fill="white" stroke="black" points="1010,-304.5 1010,-325.5 1082,-325.5 1082,-304.5 1010,-304.5"/>
<text text-anchor="middle" x="1046" y="-312.5" font-family="Helvetica,sans-Serif" font-size="10.00">spotlight.hpp</text>
</a>
</g>
<!-- Node1&#45;&gt;Node36 -->
<g id="edge124" class="edge"><title>Node1&#45;&gt;Node36</title>
<path fill="none" stroke="midnightblue" d="M1205.69,-362.497C1173.62,-352.959 1126.15,-338.841 1091.3,-328.475"/>
<polygon fill="midnightblue" stroke="midnightblue" points="1091.96,-325.019 1081.38,-325.523 1089.97,-331.729 1091.96,-325.019"/>
</g>
<!-- Node37 -->
<g id="node101" class="node"><title>Node37</title>
<a xlink:href="group_8hpp.html" target="_top" xlink:title="group.hpp">
<polygon fill="white" stroke="black" points="1099.5,-304.5 1099.5,-325.5 1158.5,-325.5 1158.5,-304.5 1099.5,-304.5"/>
<text text-anchor="middle" x="1129" y="-312.5" font-family="Helvetica,sans-Serif" font-size="10.00">group.hpp</text>
</a>
</g>
<!-- Node1&#45;&gt;Node37 -->
<g id="edge128" class="edge"><title>Node1&#45;&gt;Node37</title>
<path fill="none" stroke="midnightblue" d="M1220.72,-362.497C1203.38,-353.519 1178.21,-340.484 1158.62,-330.339"/>
<polygon fill="midnightblue" stroke="midnightblue" points="1160,-327.112 1149.51,-325.621 1156.78,-333.328 1160,-327.112"/>
</g>
<!-- Node39 -->
<g id="node106" class="node"><title>Node39</title>
<a xlink:href="pyramide_8hpp.html" target="_top" xlink:title="pyramide.hpp">
<polygon fill="white" stroke="black" points="1335.5,-304.5 1335.5,-325.5 1410.5,-325.5 1410.5,-304.5 1335.5,-304.5"/>
<text text-anchor="middle" x="1373" y="-312.5" font-family="Helvetica,sans-Serif" font-size="10.00">pyramide.hpp</text>
</a>
</g>
<!-- Node1&#45;&gt;Node39 -->
<g id="edge134" class="edge"><title>Node1&#45;&gt;Node39</title>
<path fill="none" stroke="midnightblue" d="M1264.9,-362.497C1285.8,-353.315 1316.36,-339.889 1339.66,-329.652"/>
<polygon fill="midnightblue" stroke="midnightblue" points="1341.08,-332.848 1348.83,-325.621 1338.26,-326.44 1341.08,-332.848"/>
</g>
<!-- Node40 -->
<g id="node109" class="node"><title>Node40</title>
<a xlink:href="cylinder_8hpp.html" target="_top" xlink:title="cylinder.hpp">
<polygon fill="white" stroke="black" points="1427.5,-304.5 1427.5,-325.5 1496.5,-325.5 1496.5,-304.5 1427.5,-304.5"/>
<text text-anchor="middle" x="1462" y="-312.5" font-family="Helvetica,sans-Serif" font-size="10.00">cylinder.hpp</text>
</a>
</g>
<!-- Node1&#45;&gt;Node40 -->
<g id="edge138" class="edge"><title>Node1&#45;&gt;Node40</title>
<path fill="none" stroke="midnightblue" d="M1281.02,-362.497C1319.55,-352.385 1377.7,-337.124 1417.63,-326.645"/>
<polygon fill="midnightblue" stroke="midnightblue" points="1418.58,-330.014 1427.36,-324.09 1416.8,-323.244 1418.58,-330.014"/>
</g>
<!-- Node41 -->
<g id="node112" class="node"><title>Node41</title>
<a xlink:href="trigger_8hpp.html" target="_top" xlink:title="trigger.hpp">
<polygon fill="white" stroke="black" points="1514,-304.5 1514,-325.5 1576,-325.5 1576,-304.5 1514,-304.5"/>
<text text-anchor="middle" x="1545" y="-312.5" font-family="Helvetica,sans-Serif" font-size="10.00">trigger.hpp</text>
</a>
</g>
<!-- Node1&#45;&gt;Node41 -->
<g id="edge142" class="edge"><title>Node1&#45;&gt;Node41</title>
<path fill="none" stroke="midnightblue" d="M1285.63,-366.342C1336.26,-358.502 1421.5,-344.446 1503.63,-326.171"/>
<polygon fill="midnightblue" stroke="midnightblue" points="1504.64,-329.532 1513.63,-323.922 1503.1,-322.702 1504.64,-329.532"/>
</g>
<!-- Node42 -->
<g id="node115" class="node"><title>Node42</title>
<a xlink:href="line_8hpp.html" target="_top" xlink:title="line.hpp">
<polygon fill="white" stroke="black" points="1176,-304.5 1176,-325.5 1226,-325.5 1226,-304.5 1176,-304.5"/>
<text text-anchor="middle" x="1201" y="-312.5" font-family="Helvetica,sans-Serif" font-size="10.00">line.hpp</text>
</a>
</g>
<!-- Node1&#45;&gt;Node42 -->
<g id="edge146" class="edge"><title>Node1&#45;&gt;Node42</title>
<path fill="none" stroke="midnightblue" d="M1233.66,-362.362C1228.19,-354.431 1220.58,-343.389 1214.08,-333.961"/>
<polygon fill="midnightblue" stroke="midnightblue" points="1216.85,-331.816 1208.29,-325.571 1211.09,-335.79 1216.85,-331.816"/>
</g>
<!-- Node43 -->
<g id="node118" class="node"><title>Node43</title>
<a xlink:href="rectangle_8hpp.html" target="_top" xlink:title="rectangle.hpp">
<polygon fill="white" stroke="black" points="1243.5,-304.5 1243.5,-325.5 1318.5,-325.5 1318.5,-304.5 1243.5,-304.5"/>
<text text-anchor="middle" x="1281" y="-312.5" font-family="Helvetica,sans-Serif" font-size="10.00">rectangle.hpp</text>
</a>
</g>
<!-- Node1&#45;&gt;Node43 -->
<g id="edge150" class="edge"><title>Node1&#45;&gt;Node43</title>
<path fill="none" stroke="midnightblue" d="M1248.34,-362.362C1253.81,-354.431 1261.42,-343.389 1267.92,-333.961"/>
<polygon fill="midnightblue" stroke="midnightblue" points="1270.91,-335.79 1273.71,-325.571 1265.15,-331.816 1270.91,-335.79"/>
</g>
<!-- Node3 -->
<g id="node5" class="node"><title>Node3</title>
<polygon fill="white" stroke="#bfbfbf" points="-0.5,-239.5 -0.5,-260.5 90.5,-260.5 90.5,-239.5 -0.5,-239.5"/>
<text text-anchor="middle" x="45" y="-247.5" font-family="Helvetica,sans-Serif" font-size="10.00">QOpenGLWidget</text>
</g>
<!-- Node2&#45;&gt;Node3 -->
<g id="edge4" class="edge"><title>Node2&#45;&gt;Node3</title>
<path fill="none" stroke="midnightblue" d="M638.649,-313.179C529.064,-307.509 203.076,-289.269 99,-268 93.4934,-266.875 87.7681,-265.361 82.1933,-263.687"/>
<polygon fill="midnightblue" stroke="midnightblue" points="82.9917,-260.267 72.4006,-260.55 80.8561,-266.934 82.9917,-260.267"/>
</g>
<!-- Node4 -->
<g id="node7" class="node"><title>Node4</title>
<polygon fill="white" stroke="#bfbfbf" points="107.5,-233 107.5,-267 220.5,-267 220.5,-233 107.5,-233"/>
<text text-anchor="start" x="115.5" y="-254" font-family="Helvetica,sans-Serif" font-size="10.00">QOpenGLFunctions_4</text>
<text text-anchor="middle" x="164" y="-241" font-family="Helvetica,sans-Serif" font-size="10.00">_3_Core</text>
</g>
<!-- Node2&#45;&gt;Node4 -->
<g id="edge6" class="edge"><title>Node2&#45;&gt;Node4</title>
<path fill="none" stroke="midnightblue" d="M638.863,-313.219C564.21,-309.106 387.501,-297.132 230.877,-268.195"/>
<polygon fill="midnightblue" stroke="midnightblue" points="231.065,-264.669 220.591,-266.264 229.773,-271.549 231.065,-264.669"/>
</g>
<!-- Node5 -->
<g id="node9" class="node"><title>Node5</title>
<polygon fill="white" stroke="#bfbfbf" points="237.5,-239.5 237.5,-260.5 378.5,-260.5 378.5,-239.5 237.5,-239.5"/>
<text text-anchor="middle" x="308" y="-247.5" font-family="Helvetica,sans-Serif" font-size="10.00">QOpenGLFramebufferObject</text>
</g>
<!-- Node2&#45;&gt;Node5 -->
<g id="edge8" class="edge"><title>Node2&#45;&gt;Node5</title>
<path fill="none" stroke="midnightblue" d="M638.953,-309.854C584.291,-301.884 477.245,-285.627 387,-268 378.952,-266.428 370.472,-264.638 362.175,-262.812"/>
<polygon fill="midnightblue" stroke="midnightblue" points="362.709,-259.345 352.186,-260.578 361.181,-266.176 362.709,-259.345"/>
</g>
<!-- Node6 -->
<g id="node11" class="node"><title>Node6</title>
<polygon fill="white" stroke="#bfbfbf" points="395.5,-239.5 395.5,-260.5 450.5,-260.5 450.5,-239.5 395.5,-239.5"/>
<text text-anchor="middle" x="423" y="-247.5" font-family="Helvetica,sans-Serif" font-size="10.00">QPainter</text>
</g>
<!-- Node2&#45;&gt;Node6 -->
<g id="edge10" class="edge"><title>Node2&#45;&gt;Node6</title>
<path fill="none" stroke="midnightblue" d="M638.696,-309.936C595.15,-303.221 520.349,-289.629 459,-268 456.432,-267.095 453.811,-266.048 451.214,-264.924"/>
<polygon fill="midnightblue" stroke="midnightblue" points="452.584,-261.7 442.044,-260.627 449.614,-268.039 452.584,-261.7"/>
</g>
<!-- Node7 -->
<g id="node13" class="node"><title>Node7</title>
<polygon fill="white" stroke="#bfbfbf" points="467.5,-239.5 467.5,-260.5 544.5,-260.5 544.5,-239.5 467.5,-239.5"/>
<text text-anchor="middle" x="506" y="-247.5" font-family="Helvetica,sans-Serif" font-size="10.00">QWheelEvent</text>
</g>
<!-- Node2&#45;&gt;Node7 -->
<g id="edge12" class="edge"><title>Node2&#45;&gt;Node7</title>
<path fill="none" stroke="midnightblue" d="M647.471,-304.412C619.114,-293.505 574.733,-276.436 543.249,-264.327"/>
<polygon fill="midnightblue" stroke="midnightblue" points="544.107,-260.907 533.517,-260.584 541.594,-267.44 544.107,-260.907"/>
</g>
<!-- Node8 -->
<g id="node15" class="node"><title>Node8</title>
<polygon fill="white" stroke="#bfbfbf" points="561.5,-239.5 561.5,-260.5 628.5,-260.5 628.5,-239.5 561.5,-239.5"/>
<text text-anchor="middle" x="595" y="-247.5" font-family="Helvetica,sans-Serif" font-size="10.00">QKeyEvent</text>
</g>
<!-- Node2&#45;&gt;Node8 -->
<g id="edge14" class="edge"><title>Node2&#45;&gt;Node8</title>
<path fill="none" stroke="midnightblue" d="M661.79,-304.267C649.325,-294.139 630.436,-278.792 615.923,-267"/>
<polygon fill="midnightblue" stroke="midnightblue" points="617.933,-264.123 607.965,-260.534 613.519,-269.556 617.933,-264.123"/>
</g>
<!-- Node9 -->
<g id="node17" class="node"><title>Node9</title>
<polygon fill="white" stroke="#bfbfbf" points="991.5,-116.5 991.5,-137.5 1038.5,-137.5 1038.5,-116.5 991.5,-116.5"/>
<text text-anchor="middle" x="1015" y="-124.5" font-family="Helvetica,sans-Serif" font-size="10.00">QColor</text>
</g>
<!-- Node2&#45;&gt;Node9 -->
<g id="edge16" class="edge"><title>Node2&#45;&gt;Node9</title>
<path fill="none" stroke="midnightblue" d="M711.115,-309.247C744.447,-302.816 794.464,-290.257 833,-268 853.146,-256.365 853.283,-247.078 871,-232 903.358,-204.461 912.625,-198.975 947,-174 961.339,-163.582 977.668,-152.278 990.731,-143.366"/>
<polygon fill="midnightblue" stroke="midnightblue" points="992.884,-146.135 999.188,-137.62 988.95,-140.345 992.884,-146.135"/>
</g>
<!-- Node10 -->
<g id="node19" class="node"><title>Node10</title>
<polygon fill="white" stroke="#bfbfbf" points="880,-239.5 880,-260.5 954,-260.5 954,-239.5 880,-239.5"/>
<text text-anchor="middle" x="917" y="-247.5" font-family="Helvetica,sans-Serif" font-size="10.00">QMetaObject</text>
</g>
<!-- Node2&#45;&gt;Node10 -->
<g id="edge18" class="edge"><title>Node2&#45;&gt;Node10</title>
<path fill="none" stroke="midnightblue" d="M711.19,-307.206C749.816,-298.63 812.666,-283.932 866,-268 870.265,-266.726 874.699,-265.307 879.094,-263.839"/>
<polygon fill="midnightblue" stroke="midnightblue" points="880.247,-267.144 888.57,-260.588 877.975,-260.523 880.247,-267.144"/>
</g>
<!-- Node11 -->
<g id="node21" class="node"><title>Node11</title>
<polygon fill="white" stroke="#bfbfbf" points="542.5,-0.5 542.5,-21.5 591.5,-21.5 591.5,-0.5 542.5,-0.5"/>
<text text-anchor="middle" x="567" y="-8.5" font-family="Helvetica,sans-Serif" font-size="10.00">QtMath</text>
</g>
<!-- Node2&#45;&gt;Node11 -->
<g id="edge20" class="edge"><title>Node2&#45;&gt;Node11</title>
<path fill="none" stroke="midnightblue" d="M671.156,-304.18C655.344,-259.671 595.165,-90.2804 574.23,-31.3525"/>
<polygon fill="midnightblue" stroke="midnightblue" points="577.443,-29.9412 570.798,-21.6899 570.847,-32.2846 577.443,-29.9412"/>
</g>
<!-- Node12 -->
<g id="node23" class="node"><title>Node12</title>
<a xlink:href="camera_8hpp.html" target="_top" xlink:title="camera.hpp">
<polygon fill="white" stroke="black" points="660,-116.5 660,-137.5 728,-137.5 728,-116.5 660,-116.5"/>
<text text-anchor="middle" x="694" y="-124.5" font-family="Helvetica,sans-Serif" font-size="10.00">camera.hpp</text>
</a>
</g>
<!-- Node2&#45;&gt;Node12 -->
<g id="edge22" class="edge"><title>Node2&#45;&gt;Node12</title>
<path fill="none" stroke="midnightblue" d="M676.076,-304.354C679.126,-274.172 687.87,-187.656 691.909,-147.693"/>
<polygon fill="midnightblue" stroke="midnightblue" points="695.412,-147.831 692.936,-137.53 688.448,-147.127 695.412,-147.831"/>
</g>
<!-- Node20 -->
<g id="node43" class="node"><title>Node20</title>
<a xlink:href="cube_8hpp.html" target="_top" xlink:title="cube.hpp">
<polygon fill="white" stroke="black" points="1048,-239.5 1048,-260.5 1104,-260.5 1104,-239.5 1048,-239.5"/>
<text text-anchor="middle" x="1076" y="-247.5" font-family="Helvetica,sans-Serif" font-size="10.00">cube.hpp</text>
</a>
</g>
<!-- Node2&#45;&gt;Node20 -->
<g id="edge46" class="edge"><title>Node2&#45;&gt;Node20</title>
<path fill="none" stroke="midnightblue" d="M711.293,-309.117C786.787,-296.88 960.133,-268.781 1037.5,-256.241"/>
<polygon fill="midnightblue" stroke="midnightblue" points="1038.44,-259.633 1047.76,-254.578 1037.32,-252.724 1038.44,-259.633"/>
</g>
<!-- Node31 -->
<g id="node80" class="node"><title>Node31</title>
<a xlink:href="sphere_8hpp.html" target="_top" xlink:title="sphere.hpp">
<polygon fill="white" stroke="black" points="759.5,-239.5 759.5,-260.5 824.5,-260.5 824.5,-239.5 759.5,-239.5"/>
<text text-anchor="middle" x="792" y="-247.5" font-family="Helvetica,sans-Serif" font-size="10.00">sphere.hpp</text>
</a>
</g>
<!-- Node2&#45;&gt;Node31 -->
<g id="edge98" class="edge"><title>Node2&#45;&gt;Node31</title>
<path fill="none" stroke="midnightblue" d="M694.058,-304.412C713.096,-293.836 742.564,-277.465 764.207,-265.441"/>
<polygon fill="midnightblue" stroke="midnightblue" points="765.908,-268.5 772.95,-260.584 762.508,-262.38 765.908,-268.5"/>
</g>
<!-- Node32 -->
<g id="node85" class="node"><title>Node32</title>
<a xlink:href="world_8hpp.html" target="_top" xlink:title="world.hpp">
<polygon fill="white" stroke="black" points="727.5,-174.5 727.5,-195.5 786.5,-195.5 786.5,-174.5 727.5,-174.5"/>
<text text-anchor="middle" x="757" y="-182.5" font-family="Helvetica,sans-Serif" font-size="10.00">world.hpp</text>
</a>
</g>
<!-- Node2&#45;&gt;Node32 -->
<g id="edge106" class="edge"><title>Node2&#45;&gt;Node32</title>
<path fill="none" stroke="midnightblue" d="M682.848,-304.338C689.693,-294.918 699.787,-280.736 708,-268 721.721,-246.722 736.339,-221.602 746.002,-204.615"/>
<polygon fill="midnightblue" stroke="midnightblue" points="749.199,-206.071 751.074,-195.643 743.105,-202.626 749.199,-206.071"/>
</g>
<!-- Node12&#45;&gt;Node11 -->
<g id="edge44" class="edge"><title>Node12&#45;&gt;Node11</title>
<path fill="none" stroke="midnightblue" d="M675.109,-116.37C660.382,-107.614 639.842,-94.3445 624,-80 607.213,-64.7997 591.064,-44.5417 580.269,-29.9121"/>
<polygon fill="midnightblue" stroke="midnightblue" points="582.975,-27.6812 574.281,-21.626 577.301,-31.7812 582.975,-27.6812"/>
</g>
<!-- Node13 -->
<g id="node25" class="node"><title>Node13</title>
<polygon fill="white" stroke="#bfbfbf" points="945.5,-0.5 945.5,-21.5 998.5,-21.5 998.5,-0.5 945.5,-0.5"/>
<text text-anchor="middle" x="972" y="-8.5" font-family="Helvetica,sans-Serif" font-size="10.00">QObject</text>
</g>
<!-- Node12&#45;&gt;Node13 -->
<g id="edge24" class="edge"><title>Node12&#45;&gt;Node13</title>
<path fill="none" stroke="midnightblue" d="M705.369,-116.497C722.321,-101.388 755.8,-73.6213 789,-58 837.02,-35.4058 897.436,-22.5979 935.4,-16.231"/>
<polygon fill="midnightblue" stroke="midnightblue" points="936.169,-19.6522 945.483,-14.6032 935.053,-12.7417 936.169,-19.6522"/>
</g>
<!-- Node14 -->
<g id="node27" class="node"><title>Node14</title>
<polygon fill="white" stroke="#bfbfbf" points="1015.5,-0.5 1015.5,-21.5 1080.5,-21.5 1080.5,-0.5 1015.5,-0.5"/>
<text text-anchor="middle" x="1048" y="-8.5" font-family="Helvetica,sans-Serif" font-size="10.00">QVector3D</text>
</g>
<!-- Node12&#45;&gt;Node14 -->
<g id="edge26" class="edge"><title>Node12&#45;&gt;Node14</title>
<path fill="none" stroke="midnightblue" d="M714.869,-116.427C733.198,-107.064 760.526,-92.9167 784,-80 801.098,-70.5921 803.726,-64.8472 822,-58 897.452,-29.7293 923.409,-39.9914 1005.37,-22.2197"/>
<polygon fill="midnightblue" stroke="midnightblue" points="1006.39,-25.5789 1015.38,-19.9728 1004.85,-18.749 1006.39,-25.5789"/>
</g>
<!-- Node15 -->
<g id="node29" class="node"><title>Node15</title>
<polygon fill="white" stroke="#bfbfbf" points="830.5,-58.5 830.5,-79.5 897.5,-79.5 897.5,-58.5 830.5,-58.5"/>
<text text-anchor="middle" x="864" y="-66.5" font-family="Helvetica,sans-Serif" font-size="10.00">QMatrix4x4</text>
</g>
<!-- Node12&#45;&gt;Node15 -->
<g id="edge28" class="edge"><title>Node12&#45;&gt;Node15</title>
<path fill="none" stroke="midnightblue" d="M724.786,-116.497C752.38,-107.082 793.058,-93.2036 823.325,-82.8773"/>
<polygon fill="midnightblue" stroke="midnightblue" points="824.822,-86.0646 833.157,-79.5231 822.562,-79.4396 824.822,-86.0646"/>
</g>
<!-- Node16 -->
<g id="node31" class="node"><title>Node16</title>
<a xlink:href="globals_8hpp.html" target="_top" xlink:title="Definitions globales. ">
<polygon fill="white" stroke="black" points="1015,-58.5 1015,-79.5 1081,-79.5 1081,-58.5 1015,-58.5"/>
<text text-anchor="middle" x="1048" y="-66.5" font-family="Helvetica,sans-Serif" font-size="10.00">globals.hpp</text>
</a>
</g>
<!-- Node12&#45;&gt;Node16 -->
<g id="edge30" class="edge"><title>Node12&#45;&gt;Node16</title>
<path fill="none" stroke="midnightblue" d="M728.186,-117.869C731.157,-117.193 734.126,-116.558 737,-116 852.289,-93.6195 885.895,-102.804 1004.77,-80.0593"/>
<polygon fill="midnightblue" stroke="midnightblue" points="1005.47,-83.4883 1014.62,-78.1399 1004.13,-76.6175 1005.47,-83.4883"/>
</g>
<!-- Node18 -->
<g id="node38" class="node"><title>Node18</title>
<polygon fill="white" stroke="#bfbfbf" points="914.5,-58.5 914.5,-79.5 997.5,-79.5 997.5,-58.5 914.5,-58.5"/>
<text text-anchor="middle" x="956" y="-66.5" font-family="Helvetica,sans-Serif" font-size="10.00">QMetaProperty</text>
</g>
<!-- Node12&#45;&gt;Node18 -->
<g id="edge40" class="edge"><title>Node12&#45;&gt;Node18</title>
<path fill="none" stroke="midnightblue" d="M728.237,-118.108C731.197,-117.38 734.149,-116.668 737,-116 808.704,-99.1986 829.276,-96.459 904.326,-80.3469"/>
<polygon fill="midnightblue" stroke="midnightblue" points="905.225,-83.7335 914.263,-78.204 903.75,-76.8908 905.225,-83.7335"/>
</g>
<!-- Node19 -->
<g id="node40" class="node"><title>Node19</title>
<polygon fill="white" stroke="#bfbfbf" points="633,-58.5 633,-79.5 737,-79.5 737,-58.5 633,-58.5"/>
<text text-anchor="middle" x="685" y="-66.5" font-family="Helvetica,sans-Serif" font-size="10.00">QPropertyAnimation</text>
</g>
<!-- Node12&#45;&gt;Node19 -->
<g id="edge42" class="edge"><title>Node12&#45;&gt;Node19</title>
<path fill="none" stroke="midnightblue" d="M692.349,-116.362C691.195,-108.922 689.615,-98.7427 688.216,-89.7276"/>
<polygon fill="midnightblue" stroke="midnightblue" points="691.632,-88.9157 686.64,-79.5707 684.715,-89.9891 691.632,-88.9157"/>
</g>
<!-- Node16&#45;&gt;Node11 -->
<g id="edge38" class="edge"><title>Node16&#45;&gt;Node11</title>
<path fill="none" stroke="midnightblue" d="M1014.63,-59.7793C1011.72,-59.1225 1008.82,-58.5167 1006,-58 857.252,-30.7166 677.031,-17.571 602.2,-12.9768"/>
<polygon fill="midnightblue" stroke="midnightblue" points="602.132,-9.46655 591.94,-12.3604 601.712,-16.4539 602.132,-9.46655"/>
</g>
<!-- Node16&#45;&gt;Node13 -->
<g id="edge32" class="edge"><title>Node16&#45;&gt;Node13</title>
<path fill="none" stroke="midnightblue" d="M1034.06,-58.3619C1022.81,-49.7773 1006.78,-37.5459 993.835,-27.6636"/>
<polygon fill="midnightblue" stroke="midnightblue" points="995.924,-24.8551 985.851,-21.5707 991.677,-30.4198 995.924,-24.8551"/>
</g>
<!-- Node16&#45;&gt;Node14 -->
<g id="edge36" class="edge"><title>Node16&#45;&gt;Node14</title>
<path fill="none" stroke="midnightblue" d="M1048,-58.3619C1048,-50.9219 1048,-40.7427 1048,-31.7276"/>
<polygon fill="midnightblue" stroke="midnightblue" points="1051.5,-31.5706 1048,-21.5707 1044.5,-31.5707 1051.5,-31.5706"/>
</g>
<!-- Node17 -->
<g id="node34" class="node"><title>Node17</title>
<polygon fill="white" stroke="#bfbfbf" points="1097.5,-0.5 1097.5,-21.5 1168.5,-21.5 1168.5,-0.5 1097.5,-0.5"/>
<text text-anchor="middle" x="1133" y="-8.5" font-family="Helvetica,sans-Serif" font-size="10.00">QQuaternion</text>
</g>
<!-- Node16&#45;&gt;Node17 -->
<g id="edge34" class="edge"><title>Node16&#45;&gt;Node17</title>
<path fill="none" stroke="midnightblue" d="M1063.59,-58.3619C1076.29,-49.6955 1094.44,-37.3126 1108.99,-27.3819"/>
<polygon fill="midnightblue" stroke="midnightblue" points="1111.22,-30.0982 1117.51,-21.5707 1107.28,-24.316 1111.22,-30.0982"/>
</g>
<!-- Node20&#45;&gt;Node9 -->
<g id="edge92" class="edge"><title>Node20&#45;&gt;Node9</title>
<path fill="none" stroke="midnightblue" d="M1070.59,-239.085C1060.3,-218.335 1037.78,-172.937 1024.78,-146.729"/>
<polygon fill="midnightblue" stroke="midnightblue" points="1027.89,-145.119 1020.31,-137.715 1021.62,-148.229 1027.89,-145.119"/>
</g>
<!-- Node20&#45;&gt;Node16 -->
<g id="edge90" class="edge"><title>Node20&#45;&gt;Node16</title>
<path fill="none" stroke="midnightblue" d="M1074.37,-239.486C1069.87,-210.37 1057.17,-128.292 1051.19,-89.6301"/>
<polygon fill="midnightblue" stroke="midnightblue" points="1054.62,-88.89 1049.63,-79.5427 1047.7,-89.9602 1054.62,-88.89"/>
</g>
<!-- Node20&#45;&gt;Node18 -->
<g id="edge94" class="edge"><title>Node20&#45;&gt;Node18</title>
<path fill="none" stroke="midnightblue" d="M1047.79,-243.391C1019.79,-235.72 976.87,-220.835 947,-196 916.732,-170.834 893.936,-152.367 909,-116 913.85,-104.291 923.189,-93.9781 932.273,-86.0186"/>
<polygon fill="midnightblue" stroke="midnightblue" points="934.537,-88.6885 940.071,-79.6536 930.11,-83.2657 934.537,-88.6885"/>
</g>
<!-- Node21 -->
<g id="node45" class="node"><title>Node21</title>
<a xlink:href="geometry_8hpp.html" target="_top" xlink:title="geometry.hpp">
<polygon fill="white" stroke="black" points="1243,-174.5 1243,-195.5 1319,-195.5 1319,-174.5 1243,-174.5"/>
<text text-anchor="middle" x="1281" y="-182.5" font-family="Helvetica,sans-Serif" font-size="10.00">geometry.hpp</text>
</a>
</g>
<!-- Node20&#45;&gt;Node21 -->
<g id="edge48" class="edge"><title>Node20&#45;&gt;Node21</title>
<path fill="none" stroke="midnightblue" d="M1096.07,-239.426C1101.48,-236.799 1107.39,-234.129 1113,-232 1152.39,-217.048 1198.58,-204.468 1232.54,-196.097"/>
<polygon fill="midnightblue" stroke="midnightblue" points="1233.78,-199.398 1242.67,-193.636 1232.13,-192.596 1233.78,-199.398"/>
</g>
<!-- Node29 -->
<g id="node72" class="node"><title>Node29</title>
<polygon fill="white" stroke="#bfbfbf" points="1094,-116.5 1094,-137.5 1138,-137.5 1138,-116.5 1094,-116.5"/>
<text text-anchor="middle" x="1116" y="-124.5" font-family="Helvetica,sans-Serif" font-size="10.00">vector</text>
</g>
<!-- Node20&#45;&gt;Node29 -->
<g id="edge96" class="edge"><title>Node20&#45;&gt;Node29</title>
<path fill="none" stroke="midnightblue" d="M1079.55,-239.085C1086.24,-218.518 1100.8,-173.735 1109.36,-147.426"/>
<polygon fill="midnightblue" stroke="midnightblue" points="1112.75,-148.308 1112.52,-137.715 1106.09,-146.143 1112.75,-148.308"/>
</g>
<!-- Node21&#45;&gt;Node9 -->
<g id="edge62" class="edge"><title>Node21&#45;&gt;Node9</title>
<path fill="none" stroke="midnightblue" d="M1242.89,-176.69C1190.85,-165.344 1098.38,-145.18 1048.73,-134.355"/>
<polygon fill="midnightblue" stroke="midnightblue" points="1049.33,-130.904 1038.82,-132.193 1047.84,-137.743 1049.33,-130.904"/>
</g>
<!-- Node21&#45;&gt;Node13 -->
<g id="edge50" class="edge"><title>Node21&#45;&gt;Node13</title>
<path fill="none" stroke="midnightblue" d="M1242.92,-176.771C1221.95,-170.086 1197.67,-158.31 1185,-138 1165.28,-106.394 1233.93,-86.5479 1210,-58 1182.29,-24.9465 1066.28,-31.8737 1008.69,-21.8488"/>
<polygon fill="midnightblue" stroke="midnightblue" points="1009.16,-18.3704 998.653,-19.7662 1007.73,-25.2245 1009.16,-18.3704"/>
</g>
<!-- Node21&#45;&gt;Node14 -->
<g id="edge52" class="edge"><title>Node21&#45;&gt;Node14</title>
<path fill="none" stroke="midnightblue" d="M1319.06,-176.015C1355.01,-165.532 1400.94,-145.748 1383,-116 1313.8,-1.28697 1226.83,-50.5058 1090.52,-22.1488"/>
<polygon fill="midnightblue" stroke="midnightblue" points="1091.14,-18.7014 1080.62,-19.9697 1089.64,-25.5377 1091.14,-18.7014"/>
</g>
<!-- Node21&#45;&gt;Node16 -->
<g id="edge64" class="edge"><title>Node21&#45;&gt;Node16</title>
<path fill="none" stroke="midnightblue" d="M1277.8,-174.301C1272.65,-158.947 1261,-130.879 1241,-116 1188.14,-76.6631 1159.56,-94.8982 1091.35,-80.1432"/>
<polygon fill="midnightblue" stroke="midnightblue" points="1091.99,-76.6983 1081.45,-77.8328 1090.4,-83.5149 1091.99,-76.6983"/>
</g>
<!-- Node22 -->
<g id="node49" class="node"><title>Node22</title>
<polygon fill="white" stroke="#bfbfbf" points="1098.5,-58.5 1098.5,-79.5 1201.5,-79.5 1201.5,-58.5 1098.5,-58.5"/>
<text text-anchor="middle" x="1150" y="-66.5" font-family="Helvetica,sans-Serif" font-size="10.00">QOpenGLFunctions</text>
</g>
<!-- Node21&#45;&gt;Node22 -->
<g id="edge54" class="edge"><title>Node21&#45;&gt;Node22</title>
<path fill="none" stroke="midnightblue" d="M1313.1,-174.472C1345.12,-162.272 1386.89,-140.659 1367,-116 1347.77,-92.1538 1268.75,-79.8003 1211.62,-73.8611"/>
<polygon fill="midnightblue" stroke="midnightblue" points="1211.88,-70.3698 1201.58,-72.8596 1211.18,-77.3352 1211.88,-70.3698"/>
</g>
<!-- Node23 -->
<g id="node51" class="node"><title>Node23</title>
<polygon fill="white" stroke="#bfbfbf" points="1452,-116.5 1452,-137.5 1580,-137.5 1580,-116.5 1452,-116.5"/>
<text text-anchor="middle" x="1516" y="-124.5" font-family="Helvetica,sans-Serif" font-size="10.00">QOpenGLShaderProgram</text>
</g>
<!-- Node21&#45;&gt;Node23 -->
<g id="edge56" class="edge"><title>Node21&#45;&gt;Node23</title>
<path fill="none" stroke="midnightblue" d="M1319.02,-175.617C1358.19,-165.95 1419.53,-150.809 1463.36,-139.993"/>
<polygon fill="midnightblue" stroke="midnightblue" points="1464.39,-143.343 1473.26,-137.549 1462.71,-136.547 1464.39,-143.343"/>
</g>
<!-- Node24 -->
<g id="node53" class="node"><title>Node24</title>
<polygon fill="white" stroke="#bfbfbf" points="1598,-116.5 1598,-137.5 1684,-137.5 1684,-116.5 1598,-116.5"/>
<text text-anchor="middle" x="1641" y="-124.5" font-family="Helvetica,sans-Serif" font-size="10.00">QOpenGLBuffer</text>
</g>
<!-- Node21&#45;&gt;Node24 -->
<g id="edge58" class="edge"><title>Node21&#45;&gt;Node24</title>
<path fill="none" stroke="midnightblue" d="M1319.05,-179.906C1375.51,-172.191 1485.02,-156.632 1587.97,-138.115"/>
<polygon fill="midnightblue" stroke="midnightblue" points="1588.69,-141.54 1597.91,-136.313 1587.44,-134.653 1588.69,-141.54"/>
</g>
<!-- Node25 -->
<g id="node55" class="node"><title>Node25</title>
<polygon fill="white" stroke="#bfbfbf" points="1702,-116.5 1702,-137.5 1842,-137.5 1842,-116.5 1702,-116.5"/>
<text text-anchor="middle" x="1772" y="-124.5" font-family="Helvetica,sans-Serif" font-size="10.00">QOpenGLVertexArrayObject</text>
</g>
<!-- Node21&#45;&gt;Node25 -->
<g id="edge60" class="edge"><title>Node21&#45;&gt;Node25</title>
<path fill="none" stroke="midnightblue" d="M1319.09,-180.973C1390.13,-173.395 1547.89,-156.24 1691.49,-138.169"/>
<polygon fill="midnightblue" stroke="midnightblue" points="1692.32,-141.592 1701.8,-136.866 1691.44,-134.647 1692.32,-141.592"/>
</g>
<!-- Node26 -->
<g id="node59" class="node"><title>Node26</title>
<a xlink:href="actor_8hpp.html" target="_top" xlink:title="actor.hpp">
<polygon fill="white" stroke="black" points="917.5,-116.5 917.5,-137.5 974.5,-137.5 974.5,-116.5 917.5,-116.5"/>
<text text-anchor="middle" x="946" y="-124.5" font-family="Helvetica,sans-Serif" font-size="10.00">actor.hpp</text>
</a>
</g>
<!-- Node21&#45;&gt;Node26 -->
<g id="edge66" class="edge"><title>Node21&#45;&gt;Node26</title>
<path fill="none" stroke="midnightblue" d="M1242.59,-180.596C1187.43,-173.911 1082.47,-159.854 984.637,-138.167"/>
<polygon fill="midnightblue" stroke="midnightblue" points="985.109,-134.686 974.584,-135.906 983.572,-141.515 985.109,-134.686"/>
</g>
<!-- Node27 -->
<g id="node65" class="node"><title>Node27</title>
<a xlink:href="material_8hpp.html" target="_top" xlink:title="material.hpp">
<polygon fill="white" stroke="black" points="1288,-116.5 1288,-137.5 1358,-137.5 1358,-116.5 1288,-116.5"/>
<text text-anchor="middle" x="1323" y="-124.5" font-family="Helvetica,sans-Serif" font-size="10.00">material.hpp</text>
</a>
</g>
<!-- Node21&#45;&gt;Node27 -->
<g id="edge76" class="edge"><title>Node21&#45;&gt;Node27</title>
<path fill="none" stroke="midnightblue" d="M1288.7,-174.362C1294.45,-166.431 1302.44,-155.389 1309.27,-145.961"/>
<polygon fill="midnightblue" stroke="midnightblue" points="1312.32,-147.723 1315.35,-137.571 1306.65,-143.617 1312.32,-147.723"/>
</g>
<!-- Node28 -->
<g id="node70" class="node"><title>Node28</title>
<polygon fill="white" stroke="#bfbfbf" points="1860,-116.5 1860,-137.5 1912,-137.5 1912,-116.5 1860,-116.5"/>
<text text-anchor="middle" x="1886" y="-124.5" font-family="Helvetica,sans-Serif" font-size="10.00">memory</text>
</g>
<!-- Node21&#45;&gt;Node28 -->
<g id="edge84" class="edge"><title>Node21&#45;&gt;Node28</title>
<path fill="none" stroke="midnightblue" d="M1319.29,-182.955C1426.78,-177.045 1730.68,-159.116 1849.85,-137.798"/>
<polygon fill="midnightblue" stroke="midnightblue" points="1850.61,-141.216 1859.79,-135.925 1849.31,-134.337 1850.61,-141.216"/>
</g>
<!-- Node21&#45;&gt;Node29 -->
<g id="edge86" class="edge"><title>Node21&#45;&gt;Node29</title>
<path fill="none" stroke="midnightblue" d="M1251.12,-174.497C1221.83,-164.202 1177.36,-148.571 1147.53,-138.082"/>
<polygon fill="midnightblue" stroke="midnightblue" points="1148.6,-134.751 1138.01,-134.737 1146.28,-141.355 1148.6,-134.751"/>
</g>
<!-- Node30 -->
<g id="node74" class="node"><title>Node30</title>
<polygon fill="white" stroke="#bfbfbf" points="1194,-116.5 1194,-137.5 1232,-137.5 1232,-116.5 1194,-116.5"/>
<text text-anchor="middle" x="1213" y="-124.5" font-family="Helvetica,sans-Serif" font-size="10.00">tuple</text>
</g>
<!-- Node21&#45;&gt;Node30 -->
<g id="edge88" class="edge"><title>Node21&#45;&gt;Node30</title>
<path fill="none" stroke="midnightblue" d="M1268.53,-174.362C1258.65,-165.941 1244.67,-154.011 1233.2,-144.231"/>
<polygon fill="midnightblue" stroke="midnightblue" points="1235.27,-141.397 1225.39,-137.571 1230.73,-146.723 1235.27,-141.397"/>
</g>
<!-- Node26&#45;&gt;Node15 -->
<g id="edge70" class="edge"><title>Node26&#45;&gt;Node15</title>
<path fill="none" stroke="midnightblue" d="M930.96,-116.362C918.707,-107.696 901.201,-95.3126 887.161,-85.3819"/>
<polygon fill="midnightblue" stroke="midnightblue" points="889.13,-82.4879 878.945,-79.5707 885.088,-88.2028 889.13,-82.4879"/>
</g>
<!-- Node26&#45;&gt;Node16 -->
<g id="edge68" class="edge"><title>Node26&#45;&gt;Node16</title>
<path fill="none" stroke="midnightblue" d="M964.708,-116.362C980.381,-107.45 1002.96,-94.6087 1020.66,-84.5447"/>
<polygon fill="midnightblue" stroke="midnightblue" points="1022.45,-87.5562 1029.41,-79.5707 1018.99,-81.4712 1022.45,-87.5562"/>
</g>
<!-- Node26&#45;&gt;Node18 -->
<g id="edge74" class="edge"><title>Node26&#45;&gt;Node18</title>
<path fill="none" stroke="midnightblue" d="M947.834,-116.362C949.131,-108.84 950.911,-98.5187 952.477,-89.4308"/>
<polygon fill="midnightblue" stroke="midnightblue" points="955.927,-90.02 954.177,-79.5707 949.029,-88.8306 955.927,-90.02"/>
</g>
<!-- Node26&#45;&gt;Node22 -->
<g id="edge72" class="edge"><title>Node26&#45;&gt;Node22</title>
<path fill="none" stroke="midnightblue" d="M974.671,-118.431C977.484,-117.604 980.296,-116.782 983,-116 1022.99,-104.43 1068.47,-91.6545 1101.86,-82.3469"/>
<polygon fill="midnightblue" stroke="midnightblue" points="1103.12,-85.6291 1111.82,-79.5749 1101.24,-78.8857 1103.12,-85.6291"/>
</g>
<!-- Node27&#45;&gt;Node13 -->
<g id="edge78" class="edge"><title>Node27&#45;&gt;Node13</title>
<path fill="none" stroke="midnightblue" d="M1314.19,-116.279C1300.66,-100.629 1273.15,-71.8856 1243,-58 1149.54,-14.964 1112.61,-44.0877 1008.58,-22.0511"/>
<polygon fill="midnightblue" stroke="midnightblue" points="1009.16,-18.5944 998.637,-19.8339 1007.64,-25.4266 1009.16,-18.5944"/>
</g>
<!-- Node27&#45;&gt;Node16 -->
<g id="edge80" class="edge"><title>Node27&#45;&gt;Node16</title>
<path fill="none" stroke="midnightblue" d="M1287.96,-119.011C1283.27,-117.978 1278.52,-116.95 1274,-116 1195.64,-99.5414 1172.98,-98.6149 1091.64,-80.2809"/>
<polygon fill="midnightblue" stroke="midnightblue" points="1091.95,-76.7619 1081.42,-77.9566 1090.4,-83.5875 1091.95,-76.7619"/>
</g>
<!-- Node27&#45;&gt;Node18 -->
<g id="edge82" class="edge"><title>Node27&#45;&gt;Node18</title>
<path fill="none" stroke="midnightblue" d="M1287.76,-122.09C1220.55,-112.677 1075.38,-92.0958 1007.85,-80.2272"/>
<polygon fill="midnightblue" stroke="midnightblue" points="1008.16,-76.7275 997.698,-78.4003 1006.92,-83.6168 1008.16,-76.7275"/>
</g>
<!-- Node31&#45;&gt;Node9 -->
<g id="edge104" class="edge"><title>Node31&#45;&gt;Node9</title>
<path fill="none" stroke="midnightblue" d="M807.812,-239.282C830.725,-223.953 874.722,-195.271 914,-174 936.215,-161.97 962.056,-149.979 982.038,-141.121"/>
<polygon fill="midnightblue" stroke="midnightblue" points="983.587,-144.263 991.335,-137.037 980.772,-137.854 983.587,-144.263"/>
</g>
<!-- Node31&#45;&gt;Node18 -->
<g id="edge102" class="edge"><title>Node31&#45;&gt;Node18</title>
<path fill="none" stroke="midnightblue" d="M799.488,-239.344C816.204,-215.879 858.375,-158.46 900,-116 910.517,-105.272 923.279,-94.4175 933.963,-85.8464"/>
<polygon fill="midnightblue" stroke="midnightblue" points="936.317,-88.4479 942.003,-79.5082 931.983,-82.9507 936.317,-88.4479"/>
</g>
<!-- Node31&#45;&gt;Node21 -->
<g id="edge100" class="edge"><title>Node31&#45;&gt;Node21</title>
<path fill="none" stroke="midnightblue" d="M824.509,-241.746C838.712,-238.36 855.609,-234.627 871,-232 1000.85,-209.834 1155.66,-195.265 1232.6,-188.813"/>
<polygon fill="midnightblue" stroke="midnightblue" points="1233.25,-192.271 1242.93,-187.957 1232.68,-185.295 1233.25,-192.271"/>
</g>
<!-- Node32&#45;&gt;Node13 -->
<g id="edge112" class="edge"><title>Node32&#45;&gt;Node13</title>
<path fill="none" stroke="midnightblue" d="M727.198,-177.97C703.932,-171.152 672.116,-158.732 651,-138 624.223,-111.709 599.305,-86.2549 624,-58 644.316,-34.7555 850.34,-18.8707 935.483,-13.251"/>
<polygon fill="midnightblue" stroke="midnightblue" points="935.731,-16.7424 945.483,-12.6016 935.278,-9.75709 935.731,-16.7424"/>
</g>
<!-- Node32&#45;&gt;Node16 -->
<g id="edge108" class="edge"><title>Node32&#45;&gt;Node16</title>
<path fill="none" stroke="midnightblue" d="M778.355,-174.485C807.506,-160.322 861.559,-134.734 909,-116 940.759,-103.459 977.367,-91.1655 1005.04,-82.2988"/>
<polygon fill="midnightblue" stroke="midnightblue" points="1006.34,-85.5592 1014.8,-79.193 1004.21,-78.8885 1006.34,-85.5592"/>
</g>
<!-- Node32&#45;&gt;Node26 -->
<g id="edge110" class="edge"><title>Node32&#45;&gt;Node26</title>
<path fill="none" stroke="midnightblue" d="M786.531,-175.938C819.176,-165.919 871.87,-149.749 907.675,-138.761"/>
<polygon fill="midnightblue" stroke="midnightblue" points="908.762,-142.089 917.295,-135.809 906.708,-135.397 908.762,-142.089"/>
</g>
<!-- Node33 -->
<g id="node90" class="node"><title>Node33</title>
<polygon fill="white" stroke="#bfbfbf" points="746,-116.5 746,-137.5 786,-137.5 786,-116.5 746,-116.5"/>
<text text-anchor="middle" x="766" y="-124.5" font-family="Helvetica,sans-Serif" font-size="10.00">QList</text>
</g>
<!-- Node32&#45;&gt;Node33 -->
<g id="edge114" class="edge"><title>Node32&#45;&gt;Node33</title>
<path fill="none" stroke="midnightblue" d="M758.651,-174.362C759.805,-166.922 761.385,-156.743 762.784,-147.728"/>
<polygon fill="midnightblue" stroke="midnightblue" points="766.285,-147.989 764.36,-137.571 759.368,-146.916 766.285,-147.989"/>
</g>
<!-- Node35&#45;&gt;Node9 -->
<g id="edge120" class="edge"><title>Node35&#45;&gt;Node9</title>
<path fill="none" stroke="midnightblue" d="M988.053,-174.362C992.472,-166.595 998.59,-155.843 1003.88,-146.546"/>
<polygon fill="midnightblue" stroke="midnightblue" points="1007.08,-147.993 1008.99,-137.571 1001,-144.531 1007.08,-147.993"/>
</g>
<!-- Node35&#45;&gt;Node26 -->
<g id="edge122" class="edge"><title>Node35&#45;&gt;Node26</title>
<path fill="none" stroke="midnightblue" d="M975.397,-174.362C970.525,-166.513 963.762,-155.616 957.95,-146.253"/>
<polygon fill="midnightblue" stroke="midnightblue" points="960.809,-144.221 952.561,-137.571 954.861,-147.913 960.809,-144.221"/>
</g>
<!-- Node36&#45;&gt;Node35 -->
<g id="edge126" class="edge"><title>Node36&#45;&gt;Node35</title>
<path fill="none" stroke="midnightblue" d="M1040.76,-304.362C1030.07,-282.65 1005.6,-232.937 991.846,-205"/>
<polygon fill="midnightblue" stroke="midnightblue" points="994.867,-203.211 987.31,-195.785 988.587,-206.303 994.867,-203.211"/>
</g>
<!-- Node37&#45;&gt;Node21 -->
<g id="edge132" class="edge"><title>Node37&#45;&gt;Node21</title>
<path fill="none" stroke="midnightblue" d="M1141.44,-304.362C1167.6,-281.984 1228.55,-229.858 1260.55,-202.49"/>
<polygon fill="midnightblue" stroke="midnightblue" points="1263.06,-204.945 1268.39,-195.785 1258.51,-199.625 1263.06,-204.945"/>
</g>
<!-- Node38 -->
<g id="node103" class="node"><title>Node38</title>
<polygon fill="white" stroke="#bfbfbf" points="1121.5,-239.5 1121.5,-260.5 1174.5,-260.5 1174.5,-239.5 1121.5,-239.5"/>
<text text-anchor="middle" x="1148" y="-247.5" font-family="Helvetica,sans-Serif" font-size="10.00">QVector</text>
</g>
<!-- Node37&#45;&gt;Node38 -->
<g id="edge130" class="edge"><title>Node37&#45;&gt;Node38</title>
<path fill="none" stroke="midnightblue" d="M1132.14,-304.267C1134.82,-295.085 1138.76,-281.615 1142.04,-270.392"/>
<polygon fill="midnightblue" stroke="midnightblue" points="1145.47,-271.114 1144.92,-260.534 1138.76,-269.15 1145.47,-271.114"/>
</g>
<!-- Node39&#45;&gt;Node21 -->
<g id="edge136" class="edge"><title>Node39&#45;&gt;Node21</title>
<path fill="none" stroke="midnightblue" d="M1365.47,-304.362C1349.97,-282.46 1314.31,-232.062 1294.64,-204.27"/>
<polygon fill="midnightblue" stroke="midnightblue" points="1297.27,-201.926 1288.63,-195.785 1291.55,-205.97 1297.27,-201.926"/>
</g>
<!-- Node40&#45;&gt;Node21 -->
<g id="edge140" class="edge"><title>Node40&#45;&gt;Node21</title>
<path fill="none" stroke="midnightblue" d="M1447.19,-304.362C1415.69,-281.737 1341.85,-228.705 1304.1,-201.595"/>
<polygon fill="midnightblue" stroke="midnightblue" points="1305.93,-198.594 1295.76,-195.603 1301.84,-204.28 1305.93,-198.594"/>
</g>
<!-- Node41&#45;&gt;Node21 -->
<g id="edge144" class="edge"><title>Node41&#45;&gt;Node21</title>
<path fill="none" stroke="midnightblue" d="M1525.47,-304.433C1495.5,-288.317 1436.25,-256.849 1385,-232 1361.76,-220.731 1335.22,-208.752 1314.77,-199.708"/>
<polygon fill="midnightblue" stroke="midnightblue" points="1316.11,-196.474 1305.55,-195.646 1313.29,-202.88 1316.11,-196.474"/>
</g>
<!-- Node42&#45;&gt;Node21 -->
<g id="edge148" class="edge"><title>Node42&#45;&gt;Node21</title>
<path fill="none" stroke="midnightblue" d="M1207.55,-304.362C1220.97,-282.555 1251.77,-232.5 1268.92,-204.634"/>
<polygon fill="midnightblue" stroke="midnightblue" points="1272.1,-206.136 1274.36,-195.785 1266.14,-202.468 1272.1,-206.136"/>
</g>
<!-- Node43&#45;&gt;Node21 -->
<g id="edge152" class="edge"><title>Node43&#45;&gt;Node21</title>
<path fill="none" stroke="midnightblue" d="M1281,-304.362C1281,-282.936 1281,-234.24 1281,-206.114"/>
<polygon fill="midnightblue" stroke="midnightblue" points="1284.5,-205.785 1281,-195.785 1277.5,-205.785 1284.5,-205.785"/>
</g>
</g>
</svg>
        <g id="navigator" transform="translate(0 0)" fill="#404254">
                <rect fill="#f2f5e9" fill-opacity="0.5" stroke="#606060" stroke-width=".5" x="0" y="0" width="60" height="60"/>
                <use id="zoomplus" xlink:href="#zoomPlus" x="17" y="9" onmousedown="handleZoom(evt,'in')"/>
                <use id="zoomminus" xlink:href="#zoomMin" x="42" y="9" onmousedown="handleZoom(evt,'out')"/>
                <use id="reset" xlink:href="#resetDef" x="30" y="36" onmousedown="handleReset()"/>
                <g id="arrowUp" xlink:href="#dirArrow" transform="translate(30 24)" onmousedown="handlePan(0,-1)">
                  <use xlink:href="#rim" fill="#404040">
                        <set attributeName="fill" to="#808080" begin="arrowUp.mouseover" end="arrowUp.mouseout"/>
                  </use>
                  <path fill="none" stroke="white" stroke-width="1.5" d="M0,-3.0v7 M-2.5,-0.5L0,-3.0L2.5,-0.5"/>
                </g>
                <g id="arrowRight" xlink:href="#dirArrow" transform="rotate(90) translate(36 -43)" onmousedown="handlePan(1,0)">
                  <use xlink:href="#rim" fill="#404040">
                        <set attributeName="fill" to="#808080" begin="arrowRight.mouseover" end="arrowRight.mouseout"/>
                  </use>
                  <path fill="none" stroke="white" stroke-width="1.5" d="M0,-3.0v7 M-2.5,-0.5L0,-3.0L2.5,-0.5"/>
                </g>
                <g id="arrowDown" xlink:href="#dirArrow" transform="rotate(180) translate(-30 -48)" onmousedown="handlePan(0,1)">
                  <use xlink:href="#rim" fill="#404040">
                        <set attributeName="fill" to="#808080" begin="arrowDown.mouseover" end="arrowDown.mouseout"/>
                  </use>
                  <path fill="none" stroke="white" stroke-width="1.5" d="M0,-3.0v7 M-2.5,-0.5L0,-3.0L2.5,-0.5"/>
                </g>
                <g id="arrowLeft" xlink:href="#dirArrow" transform="rotate(270) translate(-36 17)" onmousedown="handlePan(-1,0)">
                  <use xlink:href="#rim" fill="#404040">
                        <set attributeName="fill" to="#808080" begin="arrowLeft.mouseover" end="arrowLeft.mouseout"/>
                  </use>
                  <path fill="none" stroke="white" stroke-width="1.5" d="M0,-3.0v7 M-2.5,-0.5L0,-3.0L2.5,-0.5"/>
                </g>
        </g>
        <svg viewBox="0 0 15 15" width="100%" height="30px" preserveAspectRatio="xMaxYMin meet">
         <g id="arrow_out" transform="scale(0.3 0.3)">
          <a xlink:href="viewport_8cpp__incl_org.svg" target="_base">
           <rect id="button" ry="5" rx="5" y="6" x="6" height="38" width="38"
                fill="#f2f5e9" fill-opacity="0.5" stroke="#606060" stroke-width="1.0"/>
           <path id="arrow"
             d="M 11.500037,31.436501 C 11.940474,20.09759 22.043105,11.32322 32.158766,21.979434 L 37.068811,17.246167 C 37.068811,17.246167 37.088388,32 37.088388,32 L 22.160133,31.978069 C 22.160133,31.978069 26.997745,27.140456 26.997745,27.140456 C 18.528582,18.264221 13.291696,25.230495 11.500037,31.436501 z"
             style="fill:#404040;"/>
          </a>
         </g>
        </svg>
</svg>
