<?xml version="1.0" encoding="UTF-8" standalone="no"?>
<!DOCTYPE svg PUBLIC "-//W3C//DTD SVG 1.1//EN"
 "http://www.w3.org/Graphics/SVG/1.1/DTD/svg11.dtd">
<!-- Generated by graphviz version 2.26.3 (20100126.1600)
 -->
<!-- Title: include/viewport.hpp Pages: 1 -->
<svg width="204pt" height="88pt"
 viewBox="0.00 0.00 204.00 88.00" xmlns="http://www.w3.org/2000/svg" xmlns:xlink="http://www.w3.org/1999/xlink">
<g id="graph1" class="graph" transform="scale(1 1) rotate(0) translate(4 84)">
<title>include/viewport.hpp</title>
<polygon fill="white" stroke="white" points="-4,5 -4,-84 201,-84 201,5 -4,5"/>
<!-- Node1 -->
<g id="node1" class="node"><title>Node1</title>
<polygon fill="#bfbfbf" stroke="black" points="45,-58.5 45,-79.5 151,-79.5 151,-58.5 45,-58.5"/>
<text text-anchor="middle" x="98" y="-66.5" font-family="Helvetica,sans-Serif" font-size="10.00">include/viewport.hpp</text>
</g>
<!-- Node2 -->
<g id="node3" class="node"><title>Node2</title>
<a xlink:href="fileloader_8cpp.html" target="_top" xlink:title="src/fileloader.cpp">
<polygon fill="white" stroke="black" points="-0.5,-0.5 -0.5,-21.5 90.5,-21.5 90.5,-0.5 -0.5,-0.5"/>
<text text-anchor="middle" x="45" y="-8.5" font-family="Helvetica,sans-Serif" font-size="10.00">src/fileloader.cpp</text>
</a>
</g>
<!-- Node1&#45;&gt;Node2 -->
<g id="edge2" class="edge"><title>Node1&#45;&gt;Node2</title>
<path fill="none" stroke="midnightblue" d="M81.3963,-50.8299C72.6037,-41.2078 62.1137,-29.7282 54.6594,-21.5707"/>
<polygon fill="midnightblue" stroke="midnightblue" points="78.9495,-53.3408 88.279,-58.3619 84.117,-48.6188 78.9495,-53.3408"/>
</g>
<!-- Node3 -->
<g id="node5" class="node"><title>Node3</title>
<a xlink:href="viewport_8cpp.html" target="_top" xlink:title="src/viewport.cpp">
<polygon fill="white" stroke="black" points="107.5,-0.5 107.5,-21.5 196.5,-21.5 196.5,-0.5 107.5,-0.5"/>
<text text-anchor="middle" x="152" y="-8.5" font-family="Helvetica,sans-Serif" font-size="10.00">src/viewport.cpp</text>
</a>
</g>
<!-- Node1&#45;&gt;Node3 -->
<g id="edge4" class="edge"><title>Node1&#45;&gt;Node3</title>
<path fill="none" stroke="midnightblue" d="M114.917,-50.8299C123.875,-41.2078 134.563,-29.7282 142.158,-21.5707"/>
<polygon fill="midnightblue" stroke="midnightblue" points="112.157,-48.658 107.904,-58.3619 117.28,-53.4279 112.157,-48.658"/>
</g>
</g>
</svg>
