<?xml version="1.0" encoding="UTF-8" standalone="no"?>
<!DOCTYPE svg PUBLIC "-//W3C//DTD SVG 1.1//EN"
 "http://www.w3.org/Graphics/SVG/1.1/DTD/svg11.dtd">
<!-- Generated by graphviz version 2.26.3 (20100126.1600)
 -->
<!-- Title: include/viewport.hpp Pages: 1 -->
<svg width="1168pt" height="262pt"
 viewBox="0.00 0.00 1168.32 262.00" xmlns="http://www.w3.org/2000/svg" xmlns:xlink="http://www.w3.org/1999/xlink">
<g id="graph1" class="graph" transform="scale(1 1) rotate(0) translate(4 258)">
<title>include/viewport.hpp</title>
<polygon fill="white" stroke="white" points="-4,5 -4,-258 1165.32,-258 1165.32,5 -4,5"/>
<!-- Node1 -->
<g id="node1" class="node"><title>Node1</title>
<polygon fill="#bfbfbf" stroke="black" points="342.32,-232.5 342.32,-253.5 448.32,-253.5 448.32,-232.5 342.32,-232.5"/>
<text text-anchor="middle" x="395.32" y="-240.5" font-family="Helvetica,sans-Serif" font-size="10.00">include/viewport.hpp</text>
</g>
<!-- Node2 -->
<g id="node3" class="node"><title>Node2</title>
<polygon fill="white" stroke="#bfbfbf" points="121.82,-174.5 121.82,-195.5 212.82,-195.5 212.82,-174.5 121.82,-174.5"/>
<text text-anchor="middle" x="167.32" y="-182.5" font-family="Helvetica,sans-Serif" font-size="10.00">QOpenGLWidget</text>
</g>
<!-- Node1&#45;&gt;Node2 -->
<g id="edge2" class="edge"><title>Node1&#45;&gt;Node2</title>
<path fill="none" stroke="midnightblue" d="M354.031,-232.497C315.976,-222.816 259.368,-208.416 218.465,-198.01"/>
<polygon fill="midnightblue" stroke="midnightblue" points="219.241,-194.597 208.686,-195.523 217.515,-201.38 219.241,-194.597"/>
</g>
<!-- Node3 -->
<g id="node5" class="node"><title>Node3</title>
<polygon fill="white" stroke="#bfbfbf" points="1057.82,-0.5 1057.82,-21.5 1160.82,-21.5 1160.82,-0.5 1057.82,-0.5"/>
<text text-anchor="middle" x="1109.32" y="-8.5" font-family="Helvetica,sans-Serif" font-size="10.00">QOpenGLFunctions</text>
</g>
<!-- Node1&#45;&gt;Node3 -->
<g id="edge4" class="edge"><title>Node1&#45;&gt;Node3</title>
<path fill="none" stroke="midnightblue" d="M448.356,-238.896C551.587,-229.706 785.667,-202.958 971.32,-138 1022.75,-120.006 1042.42,-120.086 1079.32,-80 1091.99,-66.2345 1099.87,-46.2723 1104.36,-31.357"/>
<polygon fill="midnightblue" stroke="midnightblue" points="1107.78,-32.1184 1107.05,-21.5491 1101.03,-30.2693 1107.78,-32.1184"/>
</g>
<!-- Node4 -->
<g id="node7" class="node"><title>Node4</title>
<polygon fill="white" stroke="#bfbfbf" points="267.82,-174.5 267.82,-195.5 344.82,-195.5 344.82,-174.5 267.82,-174.5"/>
<text text-anchor="middle" x="306.32" y="-182.5" font-family="Helvetica,sans-Serif" font-size="10.00">QWheelEvent</text>
</g>
<!-- Node1&#45;&gt;Node4 -->
<g id="edge6" class="edge"><title>Node1&#45;&gt;Node4</title>
<path fill="none" stroke="midnightblue" d="M378.996,-232.362C365.572,-223.614 346.337,-211.079 331.027,-201.101"/>
<polygon fill="midnightblue" stroke="midnightblue" points="332.829,-198.098 322.54,-195.571 329.007,-203.963 332.829,-198.098"/>
</g>
<!-- Node5 -->
<g id="node9" class="node"><title>Node5</title>
<polygon fill="white" stroke="#bfbfbf" points="361.82,-174.5 361.82,-195.5 428.82,-195.5 428.82,-174.5 361.82,-174.5"/>
<text text-anchor="middle" x="395.32" y="-182.5" font-family="Helvetica,sans-Serif" font-size="10.00">QKeyEvent</text>
</g>
<!-- Node1&#45;&gt;Node5 -->
<g id="edge8" class="edge"><title>Node1&#45;&gt;Node5</title>
<path fill="none" stroke="midnightblue" d="M395.32,-232.362C395.32,-224.922 395.32,-214.743 395.32,-205.728"/>
<polygon fill="midnightblue" stroke="midnightblue" points="398.82,-205.571 395.32,-195.571 391.82,-205.571 398.82,-205.571"/>
</g>
<!-- Node6 -->
<g id="node11" class="node"><title>Node6</title>
<a xlink:href="camera_8hpp.html" target="_top" xlink:title="camera.hpp">
<polygon fill="white" stroke="black" points="157.32,-116.5 157.32,-137.5 225.32,-137.5 225.32,-116.5 157.32,-116.5"/>
<text text-anchor="middle" x="191.32" y="-124.5" font-family="Helvetica,sans-Serif" font-size="10.00">camera.hpp</text>
</a>
</g>
<!-- Node1&#45;&gt;Node6 -->
<g id="edge10" class="edge"><title>Node1&#45;&gt;Node6</title>
<path fill="none" stroke="midnightblue" d="M348.241,-232.469C320.897,-224.992 286.577,-213.192 259.32,-196 237.835,-182.449 218.033,-160.871 205.406,-145.454"/>
<polygon fill="midnightblue" stroke="midnightblue" points="208.13,-143.257 199.164,-137.613 202.654,-147.616 208.13,-143.257"/>
</g>
<!-- Node13 -->
<g id="node25" class="node"><title>Node13</title>
<a xlink:href="cube_8hpp.html" target="_top" xlink:title="cube.hpp">
<polygon fill="white" stroke="black" points="446.32,-174.5 446.32,-195.5 502.32,-195.5 502.32,-174.5 446.32,-174.5"/>
<text text-anchor="middle" x="474.32" y="-182.5" font-family="Helvetica,sans-Serif" font-size="10.00">cube.hpp</text>
</a>
</g>
<!-- Node1&#45;&gt;Node13 -->
<g id="edge24" class="edge"><title>Node1&#45;&gt;Node13</title>
<path fill="none" stroke="midnightblue" d="M409.81,-232.362C421.503,-223.777 438.163,-211.546 451.623,-201.664"/>
<polygon fill="midnightblue" stroke="midnightblue" points="453.933,-204.31 459.922,-195.571 449.79,-198.667 453.933,-204.31"/>
</g>
<!-- Node22 -->
<g id="node54" class="node"><title>Node22</title>
<a xlink:href="sphere_8hpp.html" target="_top" xlink:title="sphere.hpp">
<polygon fill="white" stroke="black" points="563.82,-174.5 563.82,-195.5 628.82,-195.5 628.82,-174.5 563.82,-174.5"/>
<text text-anchor="middle" x="596.32" y="-182.5" font-family="Helvetica,sans-Serif" font-size="10.00">sphere.hpp</text>
</a>
</g>
<!-- Node1&#45;&gt;Node22 -->
<g id="edge64" class="edge"><title>Node1&#45;&gt;Node22</title>
<path fill="none" stroke="midnightblue" d="M431.72,-232.497C466.051,-222.59 517.511,-207.741 553.733,-197.289"/>
<polygon fill="midnightblue" stroke="midnightblue" points="554.881,-200.6 563.519,-194.465 552.941,-193.875 554.881,-200.6"/>
</g>
<!-- Node7 -->
<g id="node13" class="node"><title>Node7</title>
<polygon fill="white" stroke="#bfbfbf" points="300.82,-58.5 300.82,-79.5 353.82,-79.5 353.82,-58.5 300.82,-58.5"/>
<text text-anchor="middle" x="327.32" y="-66.5" font-family="Helvetica,sans-Serif" font-size="10.00">QObject</text>
</g>
<!-- Node6&#45;&gt;Node7 -->
<g id="edge12" class="edge"><title>Node6&#45;&gt;Node7</title>
<path fill="none" stroke="midnightblue" d="M215.949,-116.497C237.477,-107.315 268.96,-93.8889 292.965,-83.6516"/>
<polygon fill="midnightblue" stroke="midnightblue" points="294.59,-86.7636 302.415,-79.6212 291.844,-80.3247 294.59,-86.7636"/>
</g>
<!-- Node8 -->
<g id="node15" class="node"><title>Node8</title>
<polygon fill="white" stroke="#bfbfbf" points="218.82,-58.5 218.82,-79.5 283.82,-79.5 283.82,-58.5 218.82,-58.5"/>
<text text-anchor="middle" x="251.32" y="-66.5" font-family="Helvetica,sans-Serif" font-size="10.00">QVector3D</text>
</g>
<!-- Node6&#45;&gt;Node8 -->
<g id="edge14" class="edge"><title>Node6&#45;&gt;Node8</title>
<path fill="none" stroke="midnightblue" d="M202.325,-116.362C210.867,-108.104 222.9,-96.4725 232.903,-86.8029"/>
<polygon fill="midnightblue" stroke="midnightblue" points="235.627,-89.0374 240.385,-79.5707 230.762,-84.0044 235.627,-89.0374"/>
</g>
<!-- Node9 -->
<g id="node17" class="node"><title>Node9</title>
<polygon fill="white" stroke="#bfbfbf" points="226.82,-0.5 226.82,-21.5 293.82,-21.5 293.82,-0.5 226.82,-0.5"/>
<text text-anchor="middle" x="260.32" y="-8.5" font-family="Helvetica,sans-Serif" font-size="10.00">QMatrix4x4</text>
</g>
<!-- Node6&#45;&gt;Node9 -->
<g id="edge16" class="edge"><title>Node6&#45;&gt;Node9</title>
<path fill="none" stroke="midnightblue" d="M184.899,-116.442C177.166,-102.229 166.486,-76.5857 177.32,-58 186.091,-42.9537 201.664,-32.3377 216.97,-25.0512"/>
<polygon fill="midnightblue" stroke="midnightblue" points="218.637,-28.1426 226.402,-20.9348 215.837,-21.727 218.637,-28.1426"/>
</g>
<!-- Node10 -->
<g id="node19" class="node"><title>Node10</title>
<a xlink:href="globals_8hpp.html" target="_top" xlink:title="Definitions globales. ">
<polygon fill="white" stroke="black" points="51.32,-0.5 51.32,-21.5 117.32,-21.5 117.32,-0.5 51.32,-0.5"/>
<text text-anchor="middle" x="84.32" y="-8.5" font-family="Helvetica,sans-Serif" font-size="10.00">globals.hpp</text>
</a>
</g>
<!-- Node6&#45;&gt;Node10 -->
<g id="edge18" class="edge"><title>Node6&#45;&gt;Node10</title>
<path fill="none" stroke="midnightblue" d="M157.246,-122.982C110.399,-116.676 29.8829,-102.77 12.32,-80 -3.50161,-59.4879 23.7672,-39.3823 49.1608,-26.2152"/>
<polygon fill="midnightblue" stroke="midnightblue" points="50.9237,-29.2485 58.3482,-21.6902 47.8308,-22.9688 50.9237,-29.2485"/>
</g>
<!-- Node11 -->
<g id="node21" class="node"><title>Node11</title>
<polygon fill="white" stroke="#bfbfbf" points="417.82,-0.5 417.82,-21.5 500.82,-21.5 500.82,-0.5 417.82,-0.5"/>
<text text-anchor="middle" x="459.32" y="-8.5" font-family="Helvetica,sans-Serif" font-size="10.00">QMetaProperty</text>
</g>
<!-- Node6&#45;&gt;Node11 -->
<g id="edge20" class="edge"><title>Node6&#45;&gt;Node11</title>
<path fill="none" stroke="midnightblue" d="M191,-116.373C191.159,-101.109 193.869,-73.1518 210.32,-58 238.405,-32.1322 342.888,-19.7351 407.25,-14.4341"/>
<polygon fill="midnightblue" stroke="midnightblue" points="407.913,-17.8926 417.606,-13.6136 407.361,-10.9144 407.913,-17.8926"/>
</g>
<!-- Node12 -->
<g id="node23" class="node"><title>Node12</title>
<polygon fill="white" stroke="#bfbfbf" points="21.32,-58.5 21.32,-79.5 125.32,-79.5 125.32,-58.5 21.32,-58.5"/>
<text text-anchor="middle" x="73.32" y="-66.5" font-family="Helvetica,sans-Serif" font-size="10.00">QPropertyAnimation</text>
</g>
<!-- Node6&#45;&gt;Node12 -->
<g id="edge22" class="edge"><title>Node6&#45;&gt;Node12</title>
<path fill="none" stroke="midnightblue" d="M169.951,-116.497C151.521,-107.438 124.683,-94.2462 103.965,-84.0628"/>
<polygon fill="midnightblue" stroke="midnightblue" points="105.447,-80.8914 94.9287,-79.6212 102.359,-87.1735 105.447,-80.8914"/>
</g>
<!-- Node13&#45;&gt;Node10 -->
<g id="edge56" class="edge"><title>Node13&#45;&gt;Node10</title>
<path fill="none" stroke="midnightblue" d="M446.161,-176.107C443.193,-175.326 440.206,-174.604 437.32,-174 244.575,-133.632 114.528,-243.201 4.31996,-80 -10.7842,-57.633 17.9077,-38.1816 45.0377,-25.6842"/>
<polygon fill="midnightblue" stroke="midnightblue" points="46.7271,-28.7658 54.4944,-21.5603 43.929,-22.3494 46.7271,-28.7658"/>
</g>
<!-- Node13&#45;&gt;Node11 -->
<g id="edge60" class="edge"><title>Node13&#45;&gt;Node11</title>
<path fill="none" stroke="midnightblue" d="M463.278,-174.326C445.88,-156.65 412.786,-119.329 400.32,-80 397.366,-70.6793 396.075,-66.8084 400.32,-58 406.527,-45.1205 418.169,-34.6785 429.483,-26.9373"/>
<polygon fill="midnightblue" stroke="midnightblue" points="431.407,-29.8617 437.975,-21.5484 427.656,-23.9513 431.407,-29.8617"/>
</g>
<!-- Node14 -->
<g id="node27" class="node"><title>Node14</title>
<a xlink:href="geometry_8hpp.html" target="_top" xlink:title="geometry.hpp">
<polygon fill="white" stroke="black" points="479.32,-116.5 479.32,-137.5 555.32,-137.5 555.32,-116.5 479.32,-116.5"/>
<text text-anchor="middle" x="517.32" y="-124.5" font-family="Helvetica,sans-Serif" font-size="10.00">geometry.hpp</text>
</a>
</g>
<!-- Node13&#45;&gt;Node14 -->
<g id="edge26" class="edge"><title>Node13&#45;&gt;Node14</title>
<path fill="none" stroke="midnightblue" d="M482.207,-174.362C488.147,-166.35 496.442,-155.161 503.479,-145.67"/>
<polygon fill="midnightblue" stroke="midnightblue" points="506.339,-147.688 509.483,-137.571 500.716,-143.519 506.339,-147.688"/>
</g>
<!-- Node20 -->
<g id="node47" class="node"><title>Node20</title>
<polygon fill="white" stroke="#bfbfbf" points="409.32,-58.5 409.32,-79.5 453.32,-79.5 453.32,-58.5 409.32,-58.5"/>
<text text-anchor="middle" x="431.32" y="-66.5" font-family="Helvetica,sans-Serif" font-size="10.00">vector</text>
</g>
<!-- Node13&#45;&gt;Node20 -->
<g id="edge62" class="edge"><title>Node13&#45;&gt;Node20</title>
<path fill="none" stroke="midnightblue" d="M470.352,-174.295C463.184,-154.959 447.972,-113.923 438.799,-89.1767"/>
<polygon fill="midnightblue" stroke="midnightblue" points="442.036,-87.8392 435.279,-79.6792 435.473,-90.2723 442.036,-87.8392"/>
</g>
<!-- Node21 -->
<g id="node50" class="node"><title>Node21</title>
<polygon fill="white" stroke="#bfbfbf" points="572.82,-116.5 572.82,-137.5 619.82,-137.5 619.82,-116.5 572.82,-116.5"/>
<text text-anchor="middle" x="596.32" y="-124.5" font-family="Helvetica,sans-Serif" font-size="10.00">QColor</text>
</g>
<!-- Node13&#45;&gt;Node21 -->
<g id="edge58" class="edge"><title>Node13&#45;&gt;Node21</title>
<path fill="none" stroke="midnightblue" d="M496.413,-174.497C515.554,-165.397 543.466,-152.127 564.925,-141.925"/>
<polygon fill="midnightblue" stroke="midnightblue" points="566.45,-145.076 573.979,-137.621 563.445,-138.754 566.45,-145.076"/>
</g>
<!-- Node14&#45;&gt;Node3 -->
<g id="edge32" class="edge"><title>Node14&#45;&gt;Node3</title>
<path fill="none" stroke="midnightblue" d="M555.442,-117.552C558.436,-116.971 561.421,-116.443 564.32,-116 671.809,-99.5599 955.718,-129.923 1052.32,-80 1073.32,-69.1468 1089.49,-46.8235 1099.16,-30.4967"/>
<polygon fill="midnightblue" stroke="midnightblue" points="1102.25,-32.1431 1104.08,-21.7087 1096.14,-28.7204 1102.25,-32.1431"/>
</g>
<!-- Node14&#45;&gt;Node7 -->
<g id="edge28" class="edge"><title>Node14&#45;&gt;Node7</title>
<path fill="none" stroke="midnightblue" d="M482.912,-116.497C449.138,-106.187 397.829,-90.5237 363.468,-80.0345"/>
<polygon fill="midnightblue" stroke="midnightblue" points="364.407,-76.6619 353.821,-77.0897 362.363,-83.3569 364.407,-76.6619"/>
</g>
<!-- Node14&#45;&gt;Node8 -->
<g id="edge30" class="edge"><title>Node14&#45;&gt;Node8</title>
<path fill="none" stroke="midnightblue" d="M478.956,-119.668C436.071,-111.322 364.345,-96.9151 293.883,-80.292"/>
<polygon fill="midnightblue" stroke="midnightblue" points="294.49,-76.8389 283.952,-77.932 292.872,-83.6492 294.49,-76.8389"/>
</g>
<!-- Node14&#45;&gt;Node10 -->
<g id="edge40" class="edge"><title>Node14&#45;&gt;Node10</title>
<path fill="none" stroke="midnightblue" d="M512.287,-116.453C504.18,-100.754 486.642,-71.6294 462.32,-58 433.608,-41.9108 220.962,-22.4225 127.816,-14.5514"/>
<polygon fill="midnightblue" stroke="midnightblue" points="127.854,-11.0424 117.597,-13.694 127.269,-18.0179 127.854,-11.0424"/>
</g>
<!-- Node15 -->
<g id="node32" class="node"><title>Node15</title>
<polygon fill="white" stroke="#bfbfbf" points="583.32,-58.5 583.32,-79.5 711.32,-79.5 711.32,-58.5 583.32,-58.5"/>
<text text-anchor="middle" x="647.32" y="-66.5" font-family="Helvetica,sans-Serif" font-size="10.00">QOpenGLShaderProgram</text>
</g>
<!-- Node14&#45;&gt;Node15 -->
<g id="edge34" class="edge"><title>Node14&#45;&gt;Node15</title>
<path fill="none" stroke="midnightblue" d="M540.862,-116.497C561.349,-107.356 591.267,-94.0082 614.174,-83.7883"/>
<polygon fill="midnightblue" stroke="midnightblue" points="615.808,-86.892 623.514,-79.6212 612.955,-80.4994 615.808,-86.892"/>
</g>
<!-- Node16 -->
<g id="node34" class="node"><title>Node16</title>
<polygon fill="white" stroke="#bfbfbf" points="729.32,-58.5 729.32,-79.5 815.32,-79.5 815.32,-58.5 729.32,-58.5"/>
<text text-anchor="middle" x="772.32" y="-66.5" font-family="Helvetica,sans-Serif" font-size="10.00">QOpenGLBuffer</text>
</g>
<!-- Node14&#45;&gt;Node16 -->
<g id="edge36" class="edge"><title>Node14&#45;&gt;Node16</title>
<path fill="none" stroke="midnightblue" d="M555.534,-118.03C558.506,-117.341 561.462,-116.657 564.32,-116 616.983,-103.887 677.213,-90.3078 719.259,-80.8718"/>
<polygon fill="midnightblue" stroke="midnightblue" points="720.283,-84.2292 729.275,-78.6254 718.751,-77.3989 720.283,-84.2292"/>
</g>
<!-- Node17 -->
<g id="node36" class="node"><title>Node17</title>
<polygon fill="white" stroke="#bfbfbf" points="833.32,-58.5 833.32,-79.5 973.32,-79.5 973.32,-58.5 833.32,-58.5"/>
<text text-anchor="middle" x="903.32" y="-66.5" font-family="Helvetica,sans-Serif" font-size="10.00">QOpenGLVertexArrayObject</text>
</g>
<!-- Node14&#45;&gt;Node17 -->
<g id="edge38" class="edge"><title>Node14&#45;&gt;Node17</title>
<path fill="none" stroke="midnightblue" d="M555.477,-117.759C558.463,-117.131 561.436,-116.536 564.32,-116 675.878,-95.2679 707.08,-95.9868 823.118,-80.1544"/>
<polygon fill="midnightblue" stroke="midnightblue" points="823.68,-83.6101 833.109,-78.779 822.725,-76.6755 823.68,-83.6101"/>
</g>
<!-- Node18 -->
<g id="node39" class="node"><title>Node18</title>
<a xlink:href="actor_8hpp.html" target="_top" xlink:title="actor.hpp">
<polygon fill="white" stroke="black" points="508.82,-58.5 508.82,-79.5 565.82,-79.5 565.82,-58.5 508.82,-58.5"/>
<text text-anchor="middle" x="537.32" y="-66.5" font-family="Helvetica,sans-Serif" font-size="10.00">actor.hpp</text>
</a>
</g>
<!-- Node14&#45;&gt;Node18 -->
<g id="edge42" class="edge"><title>Node14&#45;&gt;Node18</title>
<path fill="none" stroke="midnightblue" d="M520.988,-116.362C523.61,-108.758 527.219,-98.294 530.377,-89.1349"/>
<polygon fill="midnightblue" stroke="midnightblue" points="533.724,-90.1654 533.675,-79.5707 527.106,-87.8834 533.724,-90.1654"/>
</g>
<!-- Node19 -->
<g id="node45" class="node"><title>Node19</title>
<polygon fill="white" stroke="#bfbfbf" points="991.32,-58.5 991.32,-79.5 1043.32,-79.5 1043.32,-58.5 991.32,-58.5"/>
<text text-anchor="middle" x="1017.32" y="-66.5" font-family="Helvetica,sans-Serif" font-size="10.00">memory</text>
</g>
<!-- Node14&#45;&gt;Node19 -->
<g id="edge52" class="edge"><title>Node14&#45;&gt;Node19</title>
<path fill="none" stroke="midnightblue" d="M555.449,-117.592C558.44,-117.002 561.423,-116.461 564.32,-116 745.229,-87.1932 797.564,-115.151 981.126,-79.8701"/>
<polygon fill="midnightblue" stroke="midnightblue" points="981.966,-83.2721 991.106,-77.9148 980.62,-76.4027 981.966,-83.2721"/>
</g>
<!-- Node14&#45;&gt;Node20 -->
<g id="edge54" class="edge"><title>Node14&#45;&gt;Node20</title>
<path fill="none" stroke="midnightblue" d="M501.546,-116.362C488.696,-107.696 470.335,-95.3126 455.61,-85.3819"/>
<polygon fill="midnightblue" stroke="midnightblue" points="457.241,-82.2604 446.994,-79.5707 453.327,-88.0639 457.241,-82.2604"/>
</g>
<!-- Node18&#45;&gt;Node3 -->
<g id="edge48" class="edge"><title>Node18&#45;&gt;Node3</title>
<path fill="none" stroke="midnightblue" d="M565.863,-59.8956C568.702,-59.1769 571.555,-58.5269 574.32,-58 743.502,-25.7611 947.07,-15.5764 1047.32,-12.4041"/>
<polygon fill="midnightblue" stroke="midnightblue" points="1047.69,-15.8949 1057.57,-12.093 1047.47,-8.8981 1047.69,-15.8949"/>
</g>
<!-- Node18&#45;&gt;Node9 -->
<g id="edge46" class="edge"><title>Node18&#45;&gt;Node9</title>
<path fill="none" stroke="midnightblue" d="M508.456,-61.202C504.065,-60.0851 499.58,-58.9829 495.32,-58 428.845,-42.6614 351.117,-27.6901 303.823,-18.9083"/>
<polygon fill="midnightblue" stroke="midnightblue" points="304.39,-15.4538 293.92,-17.0774 303.117,-22.3372 304.39,-15.4538"/>
</g>
<!-- Node18&#45;&gt;Node10 -->
<g id="edge44" class="edge"><title>Node18&#45;&gt;Node10</title>
<path fill="none" stroke="midnightblue" d="M508.523,-60.8813C504.123,-59.8086 499.617,-58.8042 495.32,-58 425.548,-44.9424 218.474,-24.027 127.738,-15.1741"/>
<polygon fill="midnightblue" stroke="midnightblue" points="127.815,-11.6652 117.523,-14.1805 127.137,-18.6323 127.815,-11.6652"/>
</g>
<!-- Node18&#45;&gt;Node11 -->
<g id="edge50" class="edge"><title>Node18&#45;&gt;Node11</title>
<path fill="none" stroke="midnightblue" d="M523.014,-58.3619C511.469,-49.7773 495.02,-37.5459 481.73,-27.6636"/>
<polygon fill="midnightblue" stroke="midnightblue" points="483.649,-24.7291 473.536,-21.5707 479.472,-30.3463 483.649,-24.7291"/>
</g>
<!-- Node22&#45;&gt;Node11 -->
<g id="edge68" class="edge"><title>Node22&#45;&gt;Node11</title>
<path fill="none" stroke="midnightblue" d="M629.058,-181.616C743.11,-169.207 1112.83,-123.493 1052.32,-58 1034.05,-38.227 652.07,-19.4811 511.04,-13.2091"/>
<polygon fill="midnightblue" stroke="midnightblue" points="511.059,-9.70661 500.915,-12.7618 510.75,-16.6998 511.059,-9.70661"/>
</g>
<!-- Node22&#45;&gt;Node14 -->
<g id="edge66" class="edge"><title>Node22&#45;&gt;Node14</title>
<path fill="none" stroke="midnightblue" d="M581.83,-174.362C570.137,-165.777 553.477,-153.546 540.017,-143.664"/>
<polygon fill="midnightblue" stroke="midnightblue" points="541.85,-140.667 531.718,-137.571 537.707,-146.31 541.85,-140.667"/>
</g>
<!-- Node22&#45;&gt;Node21 -->
<g id="edge70" class="edge"><title>Node22&#45;&gt;Node21</title>
<path fill="none" stroke="midnightblue" d="M596.32,-174.362C596.32,-166.922 596.32,-156.743 596.32,-147.728"/>
<polygon fill="midnightblue" stroke="midnightblue" points="599.82,-147.571 596.32,-137.571 592.82,-147.571 599.82,-147.571"/>
</g>
</g>
</svg>
