<?xml version="1.0" encoding="UTF-8" standalone="no"?>
<!DOCTYPE svg PUBLIC "-//W3C//DTD SVG 1.1//EN"
 "http://www.w3.org/Graphics/SVG/1.1/DTD/svg11.dtd">
<!-- Generated by graphviz version 2.26.3 (20100126.1600)
 -->
<!-- Title: src/viewport.cpp Pages: 1 -->
<svg width="1230pt" height="320pt"
 viewBox="0.00 0.00 1230.49 320.00" xmlns="http://www.w3.org/2000/svg" xmlns:xlink="http://www.w3.org/1999/xlink">
<g id="graph1" class="graph" transform="scale(1 1) rotate(0) translate(4 316)">
<title>src/viewport.cpp</title>
<polygon fill="white" stroke="white" points="-4,5 -4,-316 1227.49,-316 1227.49,5 -4,5"/>
<!-- Node1 -->
<g id="node1" class="node"><title>Node1</title>
<polygon fill="#bfbfbf" stroke="black" points="465.99,-290.5 465.99,-311.5 554.99,-311.5 554.99,-290.5 465.99,-290.5"/>
<text text-anchor="middle" x="510.49" y="-298.5" font-family="Helvetica,sans-Serif" font-size="10.00">src/viewport.cpp</text>
</g>
<!-- Node2 -->
<g id="node3" class="node"><title>Node2</title>
<a xlink:href="viewport_8hpp.html" target="_top" xlink:title="viewport.hpp">
<polygon fill="white" stroke="black" points="436.49,-232.5 436.49,-253.5 508.49,-253.5 508.49,-232.5 436.49,-232.5"/>
<text text-anchor="middle" x="472.49" y="-240.5" font-family="Helvetica,sans-Serif" font-size="10.00">viewport.hpp</text>
</a>
</g>
<!-- Node1&#45;&gt;Node2 -->
<g id="edge2" class="edge"><title>Node1&#45;&gt;Node2</title>
<path fill="none" stroke="midnightblue" d="M503.521,-290.362C498.325,-282.431 491.09,-271.389 484.913,-261.961"/>
<polygon fill="midnightblue" stroke="midnightblue" points="487.824,-260.017 479.416,-253.571 481.969,-263.853 487.824,-260.017"/>
</g>
<!-- Node25 -->
<g id="node63" class="node"><title>Node25</title>
<polygon fill="white" stroke="#bfbfbf" points="525.99,-232.5 525.99,-253.5 572.99,-253.5 572.99,-232.5 525.99,-232.5"/>
<text text-anchor="middle" x="549.49" y="-240.5" font-family="Helvetica,sans-Serif" font-size="10.00">QStyle</text>
</g>
<!-- Node1&#45;&gt;Node25 -->
<g id="edge76" class="edge"><title>Node1&#45;&gt;Node25</title>
<path fill="none" stroke="midnightblue" d="M517.644,-290.362C522.976,-282.431 530.402,-271.389 536.741,-261.961"/>
<polygon fill="midnightblue" stroke="midnightblue" points="539.707,-263.822 542.383,-253.571 533.898,-259.916 539.707,-263.822"/>
</g>
<!-- Node3 -->
<g id="node5" class="node"><title>Node3</title>
<polygon fill="white" stroke="#bfbfbf" points="198.99,-174.5 198.99,-195.5 289.99,-195.5 289.99,-174.5 198.99,-174.5"/>
<text text-anchor="middle" x="244.49" y="-182.5" font-family="Helvetica,sans-Serif" font-size="10.00">QOpenGLWidget</text>
</g>
<!-- Node2&#45;&gt;Node3 -->
<g id="edge4" class="edge"><title>Node2&#45;&gt;Node3</title>
<path fill="none" stroke="midnightblue" d="M436.363,-233.81C398.467,-224.169 338.578,-208.935 295.792,-198.05"/>
<polygon fill="midnightblue" stroke="midnightblue" points="296.406,-194.595 285.852,-195.522 294.68,-201.379 296.406,-194.595"/>
</g>
<!-- Node4 -->
<g id="node7" class="node"><title>Node4</title>
<polygon fill="white" stroke="#bfbfbf" points="1119.99,-0.5 1119.99,-21.5 1222.99,-21.5 1222.99,-0.5 1119.99,-0.5"/>
<text text-anchor="middle" x="1171.49" y="-8.5" font-family="Helvetica,sans-Serif" font-size="10.00">QOpenGLFunctions</text>
</g>
<!-- Node2&#45;&gt;Node4 -->
<g id="edge6" class="edge"><title>Node2&#45;&gt;Node4</title>
<path fill="none" stroke="midnightblue" d="M508.789,-233.889C511.727,-233.225 514.655,-232.586 517.49,-232 762.495,-181.375 837.766,-224.57 1072.49,-138 1119.62,-120.619 1144.08,-123.328 1169.49,-80 1177.99,-65.5018 1177.78,-46.1796 1175.85,-31.6705"/>
<polygon fill="midnightblue" stroke="midnightblue" points="1179.28,-30.9469 1174.15,-21.6732 1172.37,-32.1177 1179.28,-30.9469"/>
</g>
<!-- Node5 -->
<g id="node9" class="node"><title>Node5</title>
<polygon fill="white" stroke="#bfbfbf" points="344.99,-174.5 344.99,-195.5 421.99,-195.5 421.99,-174.5 344.99,-174.5"/>
<text text-anchor="middle" x="383.49" y="-182.5" font-family="Helvetica,sans-Serif" font-size="10.00">QWheelEvent</text>
</g>
<!-- Node2&#45;&gt;Node5 -->
<g id="edge8" class="edge"><title>Node2&#45;&gt;Node5</title>
<path fill="none" stroke="midnightblue" d="M456.167,-232.362C442.743,-223.614 423.508,-211.079 408.198,-201.101"/>
<polygon fill="midnightblue" stroke="midnightblue" points="410,-198.098 399.711,-195.571 406.178,-203.963 410,-198.098"/>
</g>
<!-- Node6 -->
<g id="node11" class="node"><title>Node6</title>
<polygon fill="white" stroke="#bfbfbf" points="438.99,-174.5 438.99,-195.5 505.99,-195.5 505.99,-174.5 438.99,-174.5"/>
<text text-anchor="middle" x="472.49" y="-182.5" font-family="Helvetica,sans-Serif" font-size="10.00">QKeyEvent</text>
</g>
<!-- Node2&#45;&gt;Node6 -->
<g id="edge10" class="edge"><title>Node2&#45;&gt;Node6</title>
<path fill="none" stroke="midnightblue" d="M472.49,-232.362C472.49,-224.922 472.49,-214.743 472.49,-205.728"/>
<polygon fill="midnightblue" stroke="midnightblue" points="475.991,-205.571 472.49,-195.571 468.991,-205.571 475.991,-205.571"/>
</g>
<!-- Node7 -->
<g id="node13" class="node"><title>Node7</title>
<a xlink:href="camera_8hpp.html" target="_top" xlink:title="camera.hpp">
<polygon fill="white" stroke="black" points="200.49,-116.5 200.49,-137.5 268.49,-137.5 268.49,-116.5 200.49,-116.5"/>
<text text-anchor="middle" x="234.49" y="-124.5" font-family="Helvetica,sans-Serif" font-size="10.00">camera.hpp</text>
</a>
</g>
<!-- Node2&#45;&gt;Node7 -->
<g id="edge12" class="edge"><title>Node2&#45;&gt;Node7</title>
<path fill="none" stroke="midnightblue" d="M436.23,-233.293C408.216,-225.129 368.888,-212.203 336.49,-196 306.842,-181.172 275.69,-158.993 255.732,-143.808"/>
<polygon fill="midnightblue" stroke="midnightblue" points="257.704,-140.909 247.648,-137.573 253.429,-146.452 257.704,-140.909"/>
</g>
<!-- Node15 -->
<g id="node29" class="node"><title>Node15</title>
<a xlink:href="cube_8hpp.html" target="_top" xlink:title="cube.hpp">
<polygon fill="white" stroke="black" points="523.49,-174.5 523.49,-195.5 579.49,-195.5 579.49,-174.5 523.49,-174.5"/>
<text text-anchor="middle" x="551.49" y="-182.5" font-family="Helvetica,sans-Serif" font-size="10.00">cube.hpp</text>
</a>
</g>
<!-- Node2&#45;&gt;Node15 -->
<g id="edge28" class="edge"><title>Node2&#45;&gt;Node15</title>
<path fill="none" stroke="midnightblue" d="M486.98,-232.362C498.673,-223.777 515.333,-211.546 528.794,-201.664"/>
<polygon fill="midnightblue" stroke="midnightblue" points="531.103,-204.31 537.093,-195.571 526.96,-198.667 531.103,-204.31"/>
</g>
<!-- Node24 -->
<g id="node58" class="node"><title>Node24</title>
<a xlink:href="sphere_8hpp.html" target="_top" xlink:title="sphere.hpp">
<polygon fill="white" stroke="black" points="622.99,-174.5 622.99,-195.5 687.99,-195.5 687.99,-174.5 622.99,-174.5"/>
<text text-anchor="middle" x="655.49" y="-182.5" font-family="Helvetica,sans-Serif" font-size="10.00">sphere.hpp</text>
</a>
</g>
<!-- Node2&#45;&gt;Node24 -->
<g id="edge68" class="edge"><title>Node2&#45;&gt;Node24</title>
<path fill="none" stroke="midnightblue" d="M505.63,-232.497C535.78,-222.941 580.439,-208.787 613.162,-198.416"/>
<polygon fill="midnightblue" stroke="midnightblue" points="614.43,-201.685 622.905,-195.328 612.315,-195.013 614.43,-201.685"/>
</g>
<!-- Node8 -->
<g id="node15" class="node"><title>Node8</title>
<polygon fill="white" stroke="#bfbfbf" points="280.99,-58.5 280.99,-79.5 333.99,-79.5 333.99,-58.5 280.99,-58.5"/>
<text text-anchor="middle" x="307.49" y="-66.5" font-family="Helvetica,sans-Serif" font-size="10.00">QObject</text>
</g>
<!-- Node7&#45;&gt;Node8 -->
<g id="edge14" class="edge"><title>Node7&#45;&gt;Node8</title>
<path fill="none" stroke="midnightblue" d="M247.88,-116.362C258.582,-107.859 273.786,-95.7785 286.161,-85.9466"/>
<polygon fill="midnightblue" stroke="midnightblue" points="288.534,-88.5318 294.186,-79.5707 284.179,-83.0511 288.534,-88.5318"/>
</g>
<!-- Node9 -->
<g id="node17" class="node"><title>Node9</title>
<polygon fill="white" stroke="#bfbfbf" points="388.99,-58.5 388.99,-79.5 453.99,-79.5 453.99,-58.5 388.99,-58.5"/>
<text text-anchor="middle" x="421.49" y="-66.5" font-family="Helvetica,sans-Serif" font-size="10.00">QVector3D</text>
</g>
<!-- Node7&#45;&gt;Node9 -->
<g id="edge16" class="edge"><title>Node7&#45;&gt;Node9</title>
<path fill="none" stroke="midnightblue" d="M268.355,-116.497C299.354,-106.882 345.364,-92.6114 378.856,-82.2234"/>
<polygon fill="midnightblue" stroke="midnightblue" points="380.304,-85.439 388.818,-79.1337 378.23,-78.7532 380.304,-85.439"/>
</g>
<!-- Node10 -->
<g id="node19" class="node"><title>Node10</title>
<polygon fill="white" stroke="#bfbfbf" points="152.99,-0.5 152.99,-21.5 219.99,-21.5 219.99,-0.5 152.99,-0.5"/>
<text text-anchor="middle" x="186.49" y="-8.5" font-family="Helvetica,sans-Serif" font-size="10.00">QMatrix4x4</text>
</g>
<!-- Node7&#45;&gt;Node10 -->
<g id="edge18" class="edge"><title>Node7&#45;&gt;Node10</title>
<path fill="none" stroke="midnightblue" d="M200.156,-124.999C143.002,-120.873 32.262,-109.224 8.49048,-80 -29.8447,-32.8722 77.9687,-17.8582 142.299,-13.1313"/>
<polygon fill="midnightblue" stroke="midnightblue" points="142.865,-16.6011 152.606,-12.4338 142.392,-9.61708 142.865,-16.6011"/>
</g>
<!-- Node11 -->
<g id="node21" class="node"><title>Node11</title>
<a xlink:href="globals_8hpp.html" target="_top" xlink:title="Definitions globales. ">
<polygon fill="white" stroke="black" points="381.49,-0.5 381.49,-21.5 447.49,-21.5 447.49,-0.5 381.49,-0.5"/>
<text text-anchor="middle" x="414.49" y="-8.5" font-family="Helvetica,sans-Serif" font-size="10.00">globals.hpp</text>
</a>
</g>
<!-- Node7&#45;&gt;Node11 -->
<g id="edge20" class="edge"><title>Node7&#45;&gt;Node11</title>
<path fill="none" stroke="midnightblue" d="M231.808,-116.277C228.777,-101.403 225.876,-74.4832 239.49,-58 256.16,-37.8183 325.107,-24.0142 371.321,-16.8243"/>
<polygon fill="midnightblue" stroke="midnightblue" points="372.018,-20.2589 381.384,-15.3066 370.974,-13.3371 372.018,-20.2589"/>
</g>
<!-- Node12 -->
<g id="node23" class="node"><title>Node12</title>
<polygon fill="white" stroke="#bfbfbf" points="517.99,-0.5 517.99,-21.5 600.99,-21.5 600.99,-0.5 517.99,-0.5"/>
<text text-anchor="middle" x="559.49" y="-8.5" font-family="Helvetica,sans-Serif" font-size="10.00">QMetaProperty</text>
</g>
<!-- Node7&#45;&gt;Node12 -->
<g id="edge22" class="edge"><title>Node7&#45;&gt;Node12</title>
<path fill="none" stroke="midnightblue" d="M237.158,-116.38C241.647,-100.859 252.271,-72.2786 272.49,-58 291.387,-44.6556 430.32,-26.3294 507.736,-16.9937"/>
<polygon fill="midnightblue" stroke="midnightblue" points="508.262,-20.4558 517.775,-15.7919 507.43,-13.5055 508.262,-20.4558"/>
</g>
<!-- Node13 -->
<g id="node25" class="node"><title>Node13</title>
<polygon fill="white" stroke="#bfbfbf" points="83.4905,-58.5 83.4905,-79.5 187.49,-79.5 187.49,-58.5 83.4905,-58.5"/>
<text text-anchor="middle" x="135.49" y="-66.5" font-family="Helvetica,sans-Serif" font-size="10.00">QPropertyAnimation</text>
</g>
<!-- Node7&#45;&gt;Node13 -->
<g id="edge24" class="edge"><title>Node7&#45;&gt;Node13</title>
<path fill="none" stroke="midnightblue" d="M216.332,-116.362C201.261,-107.532 179.603,-94.844 162.498,-84.8224"/>
<polygon fill="midnightblue" stroke="midnightblue" points="163.931,-81.6058 153.533,-79.5707 160.393,-87.6456 163.931,-81.6058"/>
</g>
<!-- Node14 -->
<g id="node27" class="node"><title>Node14</title>
<polygon fill="white" stroke="#bfbfbf" points="16.9905,-58.5 16.9905,-79.5 65.9905,-79.5 65.9905,-58.5 16.9905,-58.5"/>
<text text-anchor="middle" x="41.4905" y="-66.5" font-family="Helvetica,sans-Serif" font-size="10.00">QtMath</text>
</g>
<!-- Node7&#45;&gt;Node14 -->
<g id="edge26" class="edge"><title>Node7&#45;&gt;Node14</title>
<path fill="none" stroke="midnightblue" d="M200.362,-117.36C169.924,-108.678 123.928,-95.349 75.9447,-80.3962"/>
<polygon fill="midnightblue" stroke="midnightblue" points="76.9146,-77.0324 66.3256,-77.3849 74.8232,-83.7127 76.9146,-77.0324"/>
</g>
<!-- Node15&#45;&gt;Node11 -->
<g id="edge60" class="edge"><title>Node15&#45;&gt;Node11</title>
<path fill="none" stroke="midnightblue" d="M528.501,-174.383C485.761,-154.12 396.904,-109.339 380.49,-80 371.116,-63.2427 382.997,-43.543 395.214,-29.4921"/>
<polygon fill="midnightblue" stroke="midnightblue" points="398.009,-31.6286 402.289,-21.9368 392.899,-26.8442 398.009,-31.6286"/>
</g>
<!-- Node15&#45;&gt;Node12 -->
<g id="edge64" class="edge"><title>Node15&#45;&gt;Node12</title>
<path fill="none" stroke="midnightblue" d="M541.068,-174.255C520.909,-152.11 480.274,-99.9524 500.49,-58 506.697,-45.1205 518.34,-34.6785 529.654,-26.9373"/>
<polygon fill="midnightblue" stroke="midnightblue" points="531.578,-29.8617 538.146,-21.5484 527.827,-23.9513 531.578,-29.8617"/>
</g>
<!-- Node16 -->
<g id="node31" class="node"><title>Node16</title>
<a xlink:href="geometry_8hpp.html" target="_top" xlink:title="geometry.hpp">
<polygon fill="white" stroke="black" points="617.49,-116.5 617.49,-137.5 693.49,-137.5 693.49,-116.5 617.49,-116.5"/>
<text text-anchor="middle" x="655.49" y="-124.5" font-family="Helvetica,sans-Serif" font-size="10.00">geometry.hpp</text>
</a>
</g>
<!-- Node15&#45;&gt;Node16 -->
<g id="edge30" class="edge"><title>Node15&#45;&gt;Node16</title>
<path fill="none" stroke="midnightblue" d="M570.566,-174.362C586.545,-165.45 609.572,-152.609 627.617,-142.545"/>
<polygon fill="midnightblue" stroke="midnightblue" points="629.507,-145.498 636.536,-137.571 626.098,-139.385 629.507,-145.498"/>
</g>
<!-- Node22 -->
<g id="node51" class="node"><title>Node22</title>
<polygon fill="white" stroke="#bfbfbf" points="509.49,-58.5 509.49,-79.5 553.49,-79.5 553.49,-58.5 509.49,-58.5"/>
<text text-anchor="middle" x="531.49" y="-66.5" font-family="Helvetica,sans-Serif" font-size="10.00">vector</text>
</g>
<!-- Node15&#45;&gt;Node22 -->
<g id="edge66" class="edge"><title>Node15&#45;&gt;Node22</title>
<path fill="none" stroke="midnightblue" d="M549.645,-174.295C546.341,-155.131 539.362,-114.654 535.084,-89.8434"/>
<polygon fill="midnightblue" stroke="midnightblue" points="538.48,-88.9391 533.332,-79.6792 531.582,-90.1285 538.48,-88.9391"/>
</g>
<!-- Node23 -->
<g id="node54" class="node"><title>Node23</title>
<polygon fill="white" stroke="#bfbfbf" points="552.99,-116.5 552.99,-137.5 599.99,-137.5 599.99,-116.5 552.99,-116.5"/>
<text text-anchor="middle" x="576.49" y="-124.5" font-family="Helvetica,sans-Serif" font-size="10.00">QColor</text>
</g>
<!-- Node15&#45;&gt;Node23 -->
<g id="edge62" class="edge"><title>Node15&#45;&gt;Node23</title>
<path fill="none" stroke="midnightblue" d="M556.076,-174.362C559.388,-166.677 563.961,-156.069 567.939,-146.84"/>
<polygon fill="midnightblue" stroke="midnightblue" points="571.19,-148.139 571.934,-137.571 564.762,-145.368 571.19,-148.139"/>
</g>
<!-- Node16&#45;&gt;Node4 -->
<g id="edge36" class="edge"><title>Node16&#45;&gt;Node4</title>
<path fill="none" stroke="midnightblue" d="M693.699,-125.852C804.039,-122.2 1117.55,-109.32 1152.49,-80 1166.35,-68.3668 1170.59,-47.636 1171.67,-31.9252"/>
<polygon fill="midnightblue" stroke="midnightblue" points="1175.18,-31.6775 1171.99,-21.5743 1168.18,-31.4616 1175.18,-31.6775"/>
</g>
<!-- Node16&#45;&gt;Node8 -->
<g id="edge32" class="edge"><title>Node16&#45;&gt;Node8</title>
<path fill="none" stroke="midnightblue" d="M617.323,-117.815C614.34,-117.174 611.369,-116.561 608.49,-116 582.956,-111.026 418.883,-85.9365 344.299,-74.5888"/>
<polygon fill="midnightblue" stroke="midnightblue" points="344.805,-71.1256 334.392,-73.0823 343.752,-78.046 344.805,-71.1256"/>
</g>
<!-- Node16&#45;&gt;Node9 -->
<g id="edge34" class="edge"><title>Node16&#45;&gt;Node9</title>
<path fill="none" stroke="midnightblue" d="M617.374,-117.552C575.322,-107.129 507.824,-90.3989 464.068,-79.5535"/>
<polygon fill="midnightblue" stroke="midnightblue" points="464.847,-76.1406 454.299,-77.1319 463.163,-82.935 464.847,-76.1406"/>
</g>
<!-- Node16&#45;&gt;Node11 -->
<g id="edge44" class="edge"><title>Node16&#45;&gt;Node11</title>
<path fill="none" stroke="midnightblue" d="M644.006,-116.477C627.231,-101.595 594.528,-74.3912 562.49,-58 528.961,-40.8451 487.95,-28.4165 457.609,-20.6647"/>
<polygon fill="midnightblue" stroke="midnightblue" points="458.304,-17.231 447.755,-18.2151 456.615,-24.0242 458.304,-17.231"/>
</g>
<!-- Node17 -->
<g id="node36" class="node"><title>Node17</title>
<polygon fill="white" stroke="#bfbfbf" points="1015.49,-58.5 1015.49,-79.5 1143.49,-79.5 1143.49,-58.5 1015.49,-58.5"/>
<text text-anchor="middle" x="1079.49" y="-66.5" font-family="Helvetica,sans-Serif" font-size="10.00">QOpenGLShaderProgram</text>
</g>
<!-- Node16&#45;&gt;Node17 -->
<g id="edge38" class="edge"><title>Node16&#45;&gt;Node17</title>
<path fill="none" stroke="midnightblue" d="M693.694,-122.094C756.441,-113.99 885.51,-97.1286 1005.32,-80.1497"/>
<polygon fill="midnightblue" stroke="midnightblue" points="1006,-83.5893 1015.41,-78.7176 1005.01,-76.6589 1006,-83.5893"/>
</g>
<!-- Node18 -->
<g id="node38" class="node"><title>Node18</title>
<polygon fill="white" stroke="#bfbfbf" points="683.49,-58.5 683.49,-79.5 769.49,-79.5 769.49,-58.5 683.49,-58.5"/>
<text text-anchor="middle" x="726.49" y="-66.5" font-family="Helvetica,sans-Serif" font-size="10.00">QOpenGLBuffer</text>
</g>
<!-- Node16&#45;&gt;Node18 -->
<g id="edge40" class="edge"><title>Node16&#45;&gt;Node18</title>
<path fill="none" stroke="midnightblue" d="M668.513,-116.362C678.922,-107.859 693.71,-95.7785 705.746,-85.9466"/>
<polygon fill="midnightblue" stroke="midnightblue" points="708.02,-88.6077 713.551,-79.5707 703.592,-83.1866 708.02,-88.6077"/>
</g>
<!-- Node19 -->
<g id="node40" class="node"><title>Node19</title>
<polygon fill="white" stroke="#bfbfbf" points="787.49,-58.5 787.49,-79.5 927.49,-79.5 927.49,-58.5 787.49,-58.5"/>
<text text-anchor="middle" x="857.49" y="-66.5" font-family="Helvetica,sans-Serif" font-size="10.00">QOpenGLVertexArrayObject</text>
</g>
<!-- Node16&#45;&gt;Node19 -->
<g id="edge42" class="edge"><title>Node16&#45;&gt;Node19</title>
<path fill="none" stroke="midnightblue" d="M692.071,-116.497C725.43,-106.918 774.881,-92.7196 811.024,-82.3418"/>
<polygon fill="midnightblue" stroke="midnightblue" points="812.196,-85.647 820.841,-79.5231 810.264,-78.9188 812.196,-85.647"/>
</g>
<!-- Node20 -->
<g id="node43" class="node"><title>Node20</title>
<a xlink:href="actor_8hpp.html" target="_top" xlink:title="actor.hpp">
<polygon fill="white" stroke="black" points="608.99,-58.5 608.99,-79.5 665.99,-79.5 665.99,-58.5 608.99,-58.5"/>
<text text-anchor="middle" x="637.49" y="-66.5" font-family="Helvetica,sans-Serif" font-size="10.00">actor.hpp</text>
</a>
</g>
<!-- Node16&#45;&gt;Node20 -->
<g id="edge46" class="edge"><title>Node16&#45;&gt;Node20</title>
<path fill="none" stroke="midnightblue" d="M652.189,-116.362C649.829,-108.758 646.582,-98.294 643.739,-89.1349"/>
<polygon fill="midnightblue" stroke="midnightblue" points="647.078,-88.0839 640.771,-79.5707 640.392,-90.1587 647.078,-88.0839"/>
</g>
<!-- Node21 -->
<g id="node49" class="node"><title>Node21</title>
<polygon fill="white" stroke="#bfbfbf" points="945.49,-58.5 945.49,-79.5 997.49,-79.5 997.49,-58.5 945.49,-58.5"/>
<text text-anchor="middle" x="971.49" y="-66.5" font-family="Helvetica,sans-Serif" font-size="10.00">memory</text>
</g>
<!-- Node16&#45;&gt;Node21 -->
<g id="edge56" class="edge"><title>Node16&#45;&gt;Node21</title>
<path fill="none" stroke="midnightblue" d="M693.55,-122.341C745.977,-115.551 843.465,-101.595 935.222,-80.0676"/>
<polygon fill="midnightblue" stroke="midnightblue" points="936.31,-83.4064 945.227,-77.6843 934.688,-76.5969 936.31,-83.4064"/>
</g>
<!-- Node16&#45;&gt;Node22 -->
<g id="edge58" class="edge"><title>Node16&#45;&gt;Node22</title>
<path fill="none" stroke="midnightblue" d="M633.035,-116.497C613.459,-107.34 584.856,-93.9612 562.992,-83.7344"/>
<polygon fill="midnightblue" stroke="midnightblue" points="564.32,-80.4918 553.779,-79.4252 561.354,-86.8325 564.32,-80.4918"/>
</g>
<!-- Node20&#45;&gt;Node4 -->
<g id="edge52" class="edge"><title>Node20&#45;&gt;Node4</title>
<path fill="none" stroke="midnightblue" d="M666.037,-59.9149C668.875,-59.1923 671.727,-58.5361 674.49,-58 829.282,-27.9686 1015.07,-16.8846 1109.62,-12.9847"/>
<polygon fill="midnightblue" stroke="midnightblue" points="1110.01,-16.472 1119.87,-12.5758 1109.73,-9.47761 1110.01,-16.472"/>
</g>
<!-- Node20&#45;&gt;Node10 -->
<g id="edge50" class="edge"><title>Node20&#45;&gt;Node10</title>
<path fill="none" stroke="midnightblue" d="M608.663,-64.6255C594.725,-62.5479 577.748,-60.0722 562.49,-58 442.512,-41.7048 300.7,-24.5466 230.464,-16.1892"/>
<polygon fill="midnightblue" stroke="midnightblue" points="230.569,-12.6771 220.226,-14.973 229.744,-19.6283 230.569,-12.6771"/>
</g>
<!-- Node20&#45;&gt;Node11 -->
<g id="edge48" class="edge"><title>Node20&#45;&gt;Node11</title>
<path fill="none" stroke="midnightblue" d="M608.573,-61.4179C604.19,-60.2712 599.721,-59.1032 595.49,-58 548.254,-45.6813 494.064,-31.6191 457.385,-22.1113"/>
<polygon fill="midnightblue" stroke="midnightblue" points="458.082,-18.6766 447.524,-19.5557 456.326,-25.4527 458.082,-18.6766"/>
</g>
<!-- Node20&#45;&gt;Node12 -->
<g id="edge54" class="edge"><title>Node20&#45;&gt;Node12</title>
<path fill="none" stroke="midnightblue" d="M623.184,-58.3619C611.639,-49.7773 595.19,-37.5459 581.9,-27.6636"/>
<polygon fill="midnightblue" stroke="midnightblue" points="583.819,-24.7291 573.706,-21.5707 579.642,-30.3463 583.819,-24.7291"/>
</g>
<!-- Node24&#45;&gt;Node12 -->
<g id="edge72" class="edge"><title>Node24&#45;&gt;Node12</title>
<path fill="none" stroke="midnightblue" d="M688.195,-182.26C808.839,-171.551 1218.59,-129.546 1152.49,-58 1134.22,-38.227 752.24,-19.4811 611.211,-13.2091"/>
<polygon fill="midnightblue" stroke="midnightblue" points="611.23,-9.70661 601.085,-12.7618 610.921,-16.6998 611.23,-9.70661"/>
</g>
<!-- Node24&#45;&gt;Node16 -->
<g id="edge70" class="edge"><title>Node24&#45;&gt;Node16</title>
<path fill="none" stroke="midnightblue" d="M655.49,-174.362C655.49,-166.922 655.49,-156.743 655.49,-147.728"/>
<polygon fill="midnightblue" stroke="midnightblue" points="658.991,-147.571 655.49,-137.571 651.991,-147.571 658.991,-147.571"/>
</g>
<!-- Node24&#45;&gt;Node23 -->
<g id="edge74" class="edge"><title>Node24&#45;&gt;Node23</title>
<path fill="none" stroke="midnightblue" d="M641.001,-174.362C629.308,-165.777 612.648,-153.546 599.187,-143.664"/>
<polygon fill="midnightblue" stroke="midnightblue" points="601.021,-140.667 590.888,-137.571 596.878,-146.31 601.021,-140.667"/>
</g>
</g>
</svg>
