<?xml version="1.0" encoding="UTF-8" standalone="no"?>
<!DOCTYPE svg PUBLIC "-//W3C//DTD SVG 1.1//EN"
 "http://www.w3.org/Graphics/SVG/1.1/DTD/svg11.dtd">
<!-- Generated by graphviz version 2.26.3 (20100126.1600)
 -->
<!-- Title: src/viewport.cpp Pages: 1 -->
<svg width="1889pt" height="392pt"
 viewBox="0.00 0.00 1889.43 392.00" xmlns="http://www.w3.org/2000/svg" xmlns:xlink="http://www.w3.org/1999/xlink">
<g id="graph1" class="graph" transform="scale(1 1) rotate(0) translate(4 388)">
<title>src/viewport.cpp</title>
<polygon fill="white" stroke="white" points="-4,5 -4,-388 1886.43,-388 1886.43,5 -4,5"/>
<!-- Node1 -->
<g id="node1" class="node"><title>Node1</title>
<polygon fill="#bfbfbf" stroke="black" points="1116.93,-362.5 1116.93,-383.5 1205.93,-383.5 1205.93,-362.5 1116.93,-362.5"/>
<text text-anchor="middle" x="1161.43" y="-370.5" font-family="Helvetica,sans-Serif" font-size="10.00">src/viewport.cpp</text>
</g>
<!-- Node2 -->
<g id="node3" class="node"><title>Node2</title>
<a xlink:href="viewport_8hpp.html" target="_top" xlink:title="viewport.hpp">
<polygon fill="white" stroke="black" points="620.426,-304.5 620.426,-325.5 692.426,-325.5 692.426,-304.5 620.426,-304.5"/>
<text text-anchor="middle" x="656.426" y="-312.5" font-family="Helvetica,sans-Serif" font-size="10.00">viewport.hpp</text>
</a>
</g>
<!-- Node1&#45;&gt;Node2 -->
<g id="edge2" class="edge"><title>Node1&#45;&gt;Node2</title>
<path fill="none" stroke="midnightblue" d="M1116.61,-367.853C1021.24,-356.899 799.02,-331.377 702.522,-320.294"/>
<polygon fill="midnightblue" stroke="midnightblue" points="702.82,-316.806 692.486,-319.142 702.021,-323.76 702.82,-316.806"/>
</g>
<!-- Node34 -->
<g id="node92" class="node"><title>Node34</title>
<polygon fill="white" stroke="#bfbfbf" points="1441.93,-304.5 1441.93,-325.5 1488.93,-325.5 1488.93,-304.5 1441.93,-304.5"/>
<text text-anchor="middle" x="1465.43" y="-312.5" font-family="Helvetica,sans-Serif" font-size="10.00">QStyle</text>
</g>
<!-- Node1&#45;&gt;Node34 -->
<g id="edge116" class="edge"><title>Node1&#45;&gt;Node34</title>
<path fill="none" stroke="midnightblue" d="M1206.17,-367.505C1258.45,-360.593 1347.59,-347.278 1432.05,-326.083"/>
<polygon fill="midnightblue" stroke="midnightblue" points="1432.96,-329.461 1441.79,-323.597 1431.23,-322.678 1432.96,-329.461"/>
</g>
<!-- Node35 -->
<g id="node94" class="node"><title>Node35</title>
<a xlink:href="light_8hpp.html" target="_top" xlink:title="light.hpp">
<polygon fill="white" stroke="black" points="930.926,-174.5 930.926,-195.5 983.926,-195.5 983.926,-174.5 930.926,-174.5"/>
<text text-anchor="middle" x="957.426" y="-182.5" font-family="Helvetica,sans-Serif" font-size="10.00">light.hpp</text>
</a>
</g>
<!-- Node1&#45;&gt;Node35 -->
<g id="edge118" class="edge"><title>Node1&#45;&gt;Node35</title>
<path fill="none" stroke="midnightblue" d="M1116.89,-365.406C1089.63,-358.846 1055.48,-346.98 1031.43,-326 993.571,-292.986 972.175,-235.812 962.943,-205.4"/>
<polygon fill="midnightblue" stroke="midnightblue" points="966.221,-204.137 960.084,-195.501 959.496,-206.08 966.221,-204.137"/>
</g>
<!-- Node36 -->
<g id="node98" class="node"><title>Node36</title>
<a xlink:href="spotlight_8hpp.html" target="_top" xlink:title="spotlight.hpp">
<polygon fill="white" stroke="black" points="912.426,-304.5 912.426,-325.5 984.426,-325.5 984.426,-304.5 912.426,-304.5"/>
<text text-anchor="middle" x="948.426" y="-312.5" font-family="Helvetica,sans-Serif" font-size="10.00">spotlight.hpp</text>
</a>
</g>
<!-- Node1&#45;&gt;Node36 -->
<g id="edge124" class="edge"><title>Node1&#45;&gt;Node36</title>
<path fill="none" stroke="midnightblue" d="M1122.85,-362.497C1086.76,-352.668 1032.79,-337.973 994.459,-327.535"/>
<polygon fill="midnightblue" stroke="midnightblue" points="995.149,-324.095 984.581,-324.845 993.31,-330.85 995.149,-324.095"/>
</g>
<!-- Node37 -->
<g id="node101" class="node"><title>Node37</title>
<a xlink:href="group_8hpp.html" target="_top" xlink:title="group.hpp">
<polygon fill="white" stroke="black" points="1131.93,-304.5 1131.93,-325.5 1190.93,-325.5 1190.93,-304.5 1131.93,-304.5"/>
<text text-anchor="middle" x="1161.43" y="-312.5" font-family="Helvetica,sans-Serif" font-size="10.00">group.hpp</text>
</a>
</g>
<!-- Node1&#45;&gt;Node37 -->
<g id="edge128" class="edge"><title>Node1&#45;&gt;Node37</title>
<path fill="none" stroke="midnightblue" d="M1161.43,-362.362C1161.43,-354.922 1161.43,-344.743 1161.43,-335.728"/>
<polygon fill="midnightblue" stroke="midnightblue" points="1164.93,-335.571 1161.43,-325.571 1157.93,-335.571 1164.93,-335.571"/>
</g>
<!-- Node39 -->
<g id="node106" class="node"><title>Node39</title>
<a xlink:href="pyramide_8hpp.html" target="_top" xlink:title="pyramide.hpp">
<polygon fill="white" stroke="black" points="1039.93,-304.5 1039.93,-325.5 1114.93,-325.5 1114.93,-304.5 1039.93,-304.5"/>
<text text-anchor="middle" x="1077.43" y="-312.5" font-family="Helvetica,sans-Serif" font-size="10.00">pyramide.hpp</text>
</a>
</g>
<!-- Node1&#45;&gt;Node39 -->
<g id="edge134" class="edge"><title>Node1&#45;&gt;Node39</title>
<path fill="none" stroke="midnightblue" d="M1146.02,-362.362C1133.47,-353.696 1115.53,-341.313 1101.15,-331.382"/>
<polygon fill="midnightblue" stroke="midnightblue" points="1102.95,-328.372 1092.74,-325.571 1098.98,-334.133 1102.95,-328.372"/>
</g>
<!-- Node40 -->
<g id="node109" class="node"><title>Node40</title>
<a xlink:href="cylinder_8hpp.html" target="_top" xlink:title="cylinder.hpp">
<polygon fill="white" stroke="black" points="1207.93,-304.5 1207.93,-325.5 1276.93,-325.5 1276.93,-304.5 1207.93,-304.5"/>
<text text-anchor="middle" x="1242.43" y="-312.5" font-family="Helvetica,sans-Serif" font-size="10.00">cylinder.hpp</text>
</a>
</g>
<!-- Node1&#45;&gt;Node40 -->
<g id="edge138" class="edge"><title>Node1&#45;&gt;Node40</title>
<path fill="none" stroke="midnightblue" d="M1176.28,-362.362C1188.27,-353.777 1205.35,-341.546 1219.15,-331.664"/>
<polygon fill="midnightblue" stroke="midnightblue" points="1221.57,-334.238 1227.66,-325.571 1217.5,-328.547 1221.57,-334.238"/>
</g>
<!-- Node41 -->
<g id="node112" class="node"><title>Node41</title>
<a xlink:href="trigger_8hpp.html" target="_top" xlink:title="trigger.hpp">
<polygon fill="white" stroke="black" points="1294.43,-304.5 1294.43,-325.5 1356.43,-325.5 1356.43,-304.5 1294.43,-304.5"/>
<text text-anchor="middle" x="1325.43" y="-312.5" font-family="Helvetica,sans-Serif" font-size="10.00">trigger.hpp</text>
</a>
</g>
<!-- Node1&#45;&gt;Node41 -->
<g id="edge142" class="edge"><title>Node1&#45;&gt;Node41</title>
<path fill="none" stroke="midnightblue" d="M1191.12,-362.497C1217.75,-353.082 1256.99,-339.204 1286.19,-328.877"/>
<polygon fill="midnightblue" stroke="midnightblue" points="1287.41,-332.157 1295.67,-325.523 1285.08,-325.558 1287.41,-332.157"/>
</g>
<!-- Node42 -->
<g id="node115" class="node"><title>Node42</title>
<a xlink:href="line_8hpp.html" target="_top" xlink:title="line.hpp">
<polygon fill="white" stroke="black" points="1374.43,-304.5 1374.43,-325.5 1424.43,-325.5 1424.43,-304.5 1374.43,-304.5"/>
<text text-anchor="middle" x="1399.43" y="-312.5" font-family="Helvetica,sans-Serif" font-size="10.00">line.hpp</text>
</a>
</g>
<!-- Node1&#45;&gt;Node42 -->
<g id="edge146" class="edge"><title>Node1&#45;&gt;Node42</title>
<path fill="none" stroke="midnightblue" d="M1206.28,-363.834C1245.61,-355.534 1304.51,-342.477 1364.26,-326.167"/>
<polygon fill="midnightblue" stroke="midnightblue" points="1365.54,-329.447 1374.25,-323.414 1363.68,-322.699 1365.54,-329.447"/>
</g>
<!-- Node3 -->
<g id="node5" class="node"><title>Node3</title>
<polygon fill="white" stroke="#bfbfbf" points="29.9258,-239.5 29.9258,-260.5 120.926,-260.5 120.926,-239.5 29.9258,-239.5"/>
<text text-anchor="middle" x="75.4258" y="-247.5" font-family="Helvetica,sans-Serif" font-size="10.00">QOpenGLWidget</text>
</g>
<!-- Node2&#45;&gt;Node3 -->
<g id="edge4" class="edge"><title>Node2&#45;&gt;Node3</title>
<path fill="none" stroke="midnightblue" d="M620.273,-312.876C517.284,-306.649 223.736,-287.643 129.426,-268 123.923,-266.854 118.201,-265.329 112.627,-263.649"/>
<polygon fill="midnightblue" stroke="midnightblue" points="113.426,-260.23 102.835,-260.508 111.288,-266.896 113.426,-260.23"/>
</g>
<!-- Node4 -->
<g id="node7" class="node"><title>Node4</title>
<polygon fill="white" stroke="#bfbfbf" points="137.926,-233 137.926,-267 250.926,-267 250.926,-233 137.926,-233"/>
<text text-anchor="start" x="145.926" y="-254" font-family="Helvetica,sans-Serif" font-size="10.00">QOpenGLFunctions_4</text>
<text text-anchor="middle" x="194.426" y="-241" font-family="Helvetica,sans-Serif" font-size="10.00">_3_Core</text>
</g>
<!-- Node2&#45;&gt;Node4 -->
<g id="edge6" class="edge"><title>Node2&#45;&gt;Node4</title>
<path fill="none" stroke="midnightblue" d="M620.283,-312.573C551.818,-307.579 398.446,-294.49 260.899,-268.14"/>
<polygon fill="midnightblue" stroke="midnightblue" points="261.509,-264.693 251.025,-266.22 260.173,-271.565 261.509,-264.693"/>
</g>
<!-- Node5 -->
<g id="node9" class="node"><title>Node5</title>
<polygon fill="white" stroke="#bfbfbf" points="267.926,-239.5 267.926,-260.5 408.926,-260.5 408.926,-239.5 267.926,-239.5"/>
<text text-anchor="middle" x="338.426" y="-247.5" font-family="Helvetica,sans-Serif" font-size="10.00">QOpenGLFramebufferObject</text>
</g>
<!-- Node2&#45;&gt;Node5 -->
<g id="edge8" class="edge"><title>Node2&#45;&gt;Node5</title>
<path fill="none" stroke="midnightblue" d="M620.321,-308.248C573.463,-299.404 489.197,-283.23 417.426,-268 409.6,-266.339 401.352,-264.528 393.255,-262.715"/>
<polygon fill="midnightblue" stroke="midnightblue" points="394.019,-259.299 383.494,-260.513 392.478,-266.128 394.019,-259.299"/>
</g>
<!-- Node6 -->
<g id="node11" class="node"><title>Node6</title>
<polygon fill="white" stroke="#bfbfbf" points="425.926,-239.5 425.926,-260.5 480.926,-260.5 480.926,-239.5 425.926,-239.5"/>
<text text-anchor="middle" x="453.426" y="-247.5" font-family="Helvetica,sans-Serif" font-size="10.00">QPainter</text>
</g>
<!-- Node2&#45;&gt;Node6 -->
<g id="edge10" class="edge"><title>Node2&#45;&gt;Node6</title>
<path fill="none" stroke="midnightblue" d="M620.277,-306.924C586.013,-298.781 533.39,-285.001 489.426,-268 487.031,-267.074 484.581,-266.043 482.143,-264.956"/>
<polygon fill="midnightblue" stroke="midnightblue" points="483.463,-261.708 472.928,-260.591 480.467,-268.035 483.463,-261.708"/>
</g>
<!-- Node7 -->
<g id="node13" class="node"><title>Node7</title>
<polygon fill="white" stroke="#bfbfbf" points="497.926,-239.5 497.926,-260.5 574.926,-260.5 574.926,-239.5 497.926,-239.5"/>
<text text-anchor="middle" x="536.426" y="-247.5" font-family="Helvetica,sans-Serif" font-size="10.00">QWheelEvent</text>
</g>
<!-- Node2&#45;&gt;Node7 -->
<g id="edge12" class="edge"><title>Node2&#45;&gt;Node7</title>
<path fill="none" stroke="midnightblue" d="M636.879,-304.412C617.353,-293.836 587.13,-277.465 564.932,-265.441"/>
<polygon fill="midnightblue" stroke="midnightblue" points="566.425,-262.269 555.965,-260.584 563.091,-268.424 566.425,-262.269"/>
</g>
<!-- Node8 -->
<g id="node15" class="node"><title>Node8</title>
<polygon fill="white" stroke="#bfbfbf" points="591.926,-239.5 591.926,-260.5 658.926,-260.5 658.926,-239.5 591.926,-239.5"/>
<text text-anchor="middle" x="625.426" y="-247.5" font-family="Helvetica,sans-Serif" font-size="10.00">QKeyEvent</text>
</g>
<!-- Node2&#45;&gt;Node8 -->
<g id="edge14" class="edge"><title>Node2&#45;&gt;Node8</title>
<path fill="none" stroke="midnightblue" d="M651.307,-304.267C646.838,-294.896 640.238,-281.057 634.821,-269.7"/>
<polygon fill="midnightblue" stroke="midnightblue" points="637.913,-268.053 630.45,-260.534 631.595,-271.066 637.913,-268.053"/>
</g>
<!-- Node9 -->
<g id="node17" class="node"><title>Node9</title>
<polygon fill="white" stroke="#bfbfbf" points="960.926,-116.5 960.926,-137.5 1007.93,-137.5 1007.93,-116.5 960.926,-116.5"/>
<text text-anchor="middle" x="984.426" y="-124.5" font-family="Helvetica,sans-Serif" font-size="10.00">QColor</text>
</g>
<!-- Node2&#45;&gt;Node9 -->
<g id="edge16" class="edge"><title>Node2&#45;&gt;Node9</title>
<path fill="none" stroke="midnightblue" d="M672.781,-304.445C687.411,-294.975 709.416,-280.659 728.426,-268 752.127,-252.217 757.044,-246.709 781.426,-232 828.413,-203.653 841.658,-199.162 890.426,-174 911.414,-163.171 935.209,-151.278 953.607,-142.164"/>
<polygon fill="midnightblue" stroke="midnightblue" points="955.279,-145.242 962.692,-137.672 952.177,-138.967 955.279,-145.242"/>
</g>
<!-- Node10 -->
<g id="node19" class="node"><title>Node10</title>
<polygon fill="white" stroke="#bfbfbf" points="872.426,-239.5 872.426,-260.5 946.426,-260.5 946.426,-239.5 872.426,-239.5"/>
<text text-anchor="middle" x="909.426" y="-247.5" font-family="Helvetica,sans-Serif" font-size="10.00">QMetaObject</text>
</g>
<!-- Node2&#45;&gt;Node10 -->
<g id="edge18" class="edge"><title>Node2&#45;&gt;Node10</title>
<path fill="none" stroke="midnightblue" d="M692.756,-308.463C734.432,-300.57 804.597,-286.077 863.426,-268 867.192,-266.843 871.087,-265.521 874.944,-264.132"/>
<polygon fill="midnightblue" stroke="midnightblue" points="876.23,-267.388 884.359,-260.592 873.767,-260.835 876.23,-267.388"/>
</g>
<!-- Node11 -->
<g id="node21" class="node"><title>Node11</title>
<polygon fill="white" stroke="#bfbfbf" points="485.926,-0.5 485.926,-21.5 534.926,-21.5 534.926,-0.5 485.926,-0.5"/>
<text text-anchor="middle" x="510.426" y="-8.5" font-family="Helvetica,sans-Serif" font-size="10.00">QtMath</text>
</g>
<!-- Node2&#45;&gt;Node11 -->
<g id="edge20" class="edge"><title>Node2&#45;&gt;Node11</title>
<path fill="none" stroke="midnightblue" d="M620.313,-314.785C492.525,-313.694 66.9646,-307.128 21.4258,-268 -7.2774,-243.338 2.4258,-222.843 2.4258,-185 2.4258,-185 2.4258,-185 2.4258,-127 2.4258,-78.3121 361.669,-29.479 475.955,-15.1756"/>
<polygon fill="midnightblue" stroke="midnightblue" points="476.431,-18.6435 485.924,-13.938 475.569,-11.6968 476.431,-18.6435"/>
</g>
<!-- Node12 -->
<g id="node23" class="node"><title>Node12</title>
<a xlink:href="camera_8hpp.html" target="_top" xlink:title="camera.hpp">
<polygon fill="white" stroke="black" points="628.426,-116.5 628.426,-137.5 696.426,-137.5 696.426,-116.5 628.426,-116.5"/>
<text text-anchor="middle" x="662.426" y="-124.5" font-family="Helvetica,sans-Serif" font-size="10.00">camera.hpp</text>
</a>
</g>
<!-- Node2&#45;&gt;Node12 -->
<g id="edge22" class="edge"><title>Node2&#45;&gt;Node12</title>
<path fill="none" stroke="midnightblue" d="M659.674,-304.297C662.361,-294.851 665.965,-280.654 667.426,-268 672.34,-225.441 668.205,-175.22 665.093,-147.672"/>
<polygon fill="midnightblue" stroke="midnightblue" points="668.557,-147.168 663.891,-137.656 661.607,-148.002 668.557,-147.168"/>
</g>
<!-- Node20 -->
<g id="node43" class="node"><title>Node20</title>
<a xlink:href="cube_8hpp.html" target="_top" xlink:title="cube.hpp">
<polygon fill="white" stroke="black" points="1040.43,-239.5 1040.43,-260.5 1096.43,-260.5 1096.43,-239.5 1040.43,-239.5"/>
<text text-anchor="middle" x="1068.43" y="-247.5" font-family="Helvetica,sans-Serif" font-size="10.00">cube.hpp</text>
</a>
</g>
<!-- Node2&#45;&gt;Node20 -->
<g id="edge46" class="edge"><title>Node2&#45;&gt;Node20</title>
<path fill="none" stroke="midnightblue" d="M692.79,-309.308C749.08,-300.493 860.706,-282.989 955.426,-268 980.326,-264.06 1008.31,-259.603 1030.2,-256.11"/>
<polygon fill="midnightblue" stroke="midnightblue" points="1030.78,-259.561 1040.1,-254.528 1029.67,-252.649 1030.78,-259.561"/>
</g>
<!-- Node31 -->
<g id="node80" class="node"><title>Node31</title>
<a xlink:href="sphere_8hpp.html" target="_top" xlink:title="sphere.hpp">
<polygon fill="white" stroke="black" points="789.926,-239.5 789.926,-260.5 854.926,-260.5 854.926,-239.5 789.926,-239.5"/>
<text text-anchor="middle" x="822.426" y="-247.5" font-family="Helvetica,sans-Serif" font-size="10.00">sphere.hpp</text>
</a>
</g>
<!-- Node2&#45;&gt;Node31 -->
<g id="edge98" class="edge"><title>Node2&#45;&gt;Node31</title>
<path fill="none" stroke="midnightblue" d="M683.466,-304.412C711.32,-293.505 754.913,-276.436 785.838,-264.327"/>
<polygon fill="midnightblue" stroke="midnightblue" points="787.362,-267.489 795.397,-260.584 784.809,-260.971 787.362,-267.489"/>
</g>
<!-- Node32 -->
<g id="node85" class="node"><title>Node32</title>
<a xlink:href="world_8hpp.html" target="_top" xlink:title="world.hpp">
<polygon fill="white" stroke="black" points="740.926,-174.5 740.926,-195.5 799.926,-195.5 799.926,-174.5 740.926,-174.5"/>
<text text-anchor="middle" x="770.426" y="-182.5" font-family="Helvetica,sans-Serif" font-size="10.00">world.hpp</text>
</a>
</g>
<!-- Node2&#45;&gt;Node32 -->
<g id="edge106" class="edge"><title>Node2&#45;&gt;Node32</title>
<path fill="none" stroke="midnightblue" d="M666.723,-304.32C675.744,-294.888 689.14,-280.699 700.426,-268 719.726,-246.283 741.161,-220.629 755.163,-203.651"/>
<polygon fill="midnightblue" stroke="midnightblue" points="758.11,-205.578 761.758,-195.631 752.703,-201.132 758.11,-205.578"/>
</g>
<!-- Node12&#45;&gt;Node11 -->
<g id="edge44" class="edge"><title>Node12&#45;&gt;Node11</title>
<path fill="none" stroke="midnightblue" d="M633.598,-116.473C613.76,-108.373 587.476,-95.8811 567.426,-80 549.472,-65.779 533.295,-45.058 522.802,-30.0374"/>
<polygon fill="midnightblue" stroke="midnightblue" points="525.545,-27.8459 517.038,-21.5307 519.75,-31.7726 525.545,-27.8459"/>
</g>
<!-- Node13 -->
<g id="node25" class="node"><title>Node13</title>
<polygon fill="white" stroke="#bfbfbf" points="888.926,-0.5 888.926,-21.5 941.926,-21.5 941.926,-0.5 888.926,-0.5"/>
<text text-anchor="middle" x="915.426" y="-8.5" font-family="Helvetica,sans-Serif" font-size="10.00">QObject</text>
</g>
<!-- Node12&#45;&gt;Node13 -->
<g id="edge24" class="edge"><title>Node12&#45;&gt;Node13</title>
<path fill="none" stroke="midnightblue" d="M670.202,-116.366C681.945,-101.092 705.691,-73.1232 732.426,-58 778.748,-31.7966 839.86,-19.9288 878.409,-14.7507"/>
<polygon fill="midnightblue" stroke="midnightblue" points="879.168,-18.1828 888.652,-13.4612 878.293,-11.2376 879.168,-18.1828"/>
</g>
<!-- Node14 -->
<g id="node27" class="node"><title>Node14</title>
<polygon fill="white" stroke="#bfbfbf" points="958.926,-0.5 958.926,-21.5 1023.93,-21.5 1023.93,-0.5 958.926,-0.5"/>
<text text-anchor="middle" x="991.426" y="-8.5" font-family="Helvetica,sans-Serif" font-size="10.00">QVector3D</text>
</g>
<!-- Node12&#45;&gt;Node14 -->
<g id="edge26" class="edge"><title>Node12&#45;&gt;Node14</title>
<path fill="none" stroke="midnightblue" d="M678.408,-116.265C707.19,-96.9356 764.829,-58.2462 765.426,-58 839.988,-27.2448 866.816,-39.83 949.044,-22.1553"/>
<polygon fill="midnightblue" stroke="midnightblue" points="949.809,-25.5709 958.804,-19.9728 948.281,-18.7396 949.809,-25.5709"/>
</g>
<!-- Node15 -->
<g id="node29" class="node"><title>Node15</title>
<polygon fill="white" stroke="#bfbfbf" points="773.926,-58.5 773.926,-79.5 840.926,-79.5 840.926,-58.5 773.926,-58.5"/>
<text text-anchor="middle" x="807.426" y="-66.5" font-family="Helvetica,sans-Serif" font-size="10.00">QMatrix4x4</text>
</g>
<!-- Node12&#45;&gt;Node15 -->
<g id="edge28" class="edge"><title>Node12&#45;&gt;Node15</title>
<path fill="none" stroke="midnightblue" d="M688.684,-116.497C711.841,-107.234 745.801,-93.6499 771.477,-83.3793"/>
<polygon fill="midnightblue" stroke="midnightblue" points="772.888,-86.5849 780.873,-79.6212 770.288,-80.0855 772.888,-86.5849"/>
</g>
<!-- Node16 -->
<g id="node31" class="node"><title>Node16</title>
<a xlink:href="globals_8hpp.html" target="_top" xlink:title="Definitions globales. ">
<polygon fill="white" stroke="black" points="958.426,-58.5 958.426,-79.5 1024.43,-79.5 1024.43,-58.5 958.426,-58.5"/>
<text text-anchor="middle" x="991.426" y="-66.5" font-family="Helvetica,sans-Serif" font-size="10.00">globals.hpp</text>
</a>
</g>
<!-- Node12&#45;&gt;Node16 -->
<g id="edge30" class="edge"><title>Node12&#45;&gt;Node16</title>
<path fill="none" stroke="midnightblue" d="M696.637,-122.457C748.84,-115.295 851.674,-100.285 948.112,-80.1437"/>
<polygon fill="midnightblue" stroke="midnightblue" points="948.962,-83.5415 958.023,-78.0505 947.515,-76.6925 948.962,-83.5415"/>
</g>
<!-- Node18 -->
<g id="node38" class="node"><title>Node18</title>
<polygon fill="white" stroke="#bfbfbf" points="857.926,-58.5 857.926,-79.5 940.926,-79.5 940.926,-58.5 857.926,-58.5"/>
<text text-anchor="middle" x="899.426" y="-66.5" font-family="Helvetica,sans-Serif" font-size="10.00">QMetaProperty</text>
</g>
<!-- Node12&#45;&gt;Node18 -->
<g id="edge40" class="edge"><title>Node12&#45;&gt;Node18</title>
<path fill="none" stroke="midnightblue" d="M696.635,-118.628C736.284,-108.925 802.037,-92.8336 847.884,-81.6136"/>
<polygon fill="midnightblue" stroke="midnightblue" points="848.755,-85.0037 857.637,-79.2269 847.091,-78.2044 848.755,-85.0037"/>
</g>
<!-- Node19 -->
<g id="node40" class="node"><title>Node19</title>
<polygon fill="white" stroke="#bfbfbf" points="576.426,-58.5 576.426,-79.5 680.426,-79.5 680.426,-58.5 576.426,-58.5"/>
<text text-anchor="middle" x="628.426" y="-66.5" font-family="Helvetica,sans-Serif" font-size="10.00">QPropertyAnimation</text>
</g>
<!-- Node12&#45;&gt;Node19 -->
<g id="edge42" class="edge"><title>Node12&#45;&gt;Node19</title>
<path fill="none" stroke="midnightblue" d="M656.19,-116.362C651.589,-108.513 645.201,-97.6159 639.712,-88.2527"/>
<polygon fill="midnightblue" stroke="midnightblue" points="642.699,-86.4276 634.622,-79.5707 636.66,-89.9677 642.699,-86.4276"/>
</g>
<!-- Node16&#45;&gt;Node11 -->
<g id="edge38" class="edge"><title>Node16&#45;&gt;Node11</title>
<path fill="none" stroke="midnightblue" d="M958.056,-59.7793C955.149,-59.1225 952.243,-58.5167 949.426,-58 800.678,-30.7166 620.457,-17.571 545.626,-12.9768"/>
<polygon fill="midnightblue" stroke="midnightblue" points="545.558,-9.46655 535.366,-12.3604 545.138,-16.4539 545.558,-9.46655"/>
</g>
<!-- Node16&#45;&gt;Node13 -->
<g id="edge32" class="edge"><title>Node16&#45;&gt;Node13</title>
<path fill="none" stroke="midnightblue" d="M977.486,-58.3619C966.237,-49.7773 950.21,-37.5459 937.261,-27.6636"/>
<polygon fill="midnightblue" stroke="midnightblue" points="939.35,-24.8551 929.277,-21.5707 935.103,-30.4198 939.35,-24.8551"/>
</g>
<!-- Node16&#45;&gt;Node14 -->
<g id="edge36" class="edge"><title>Node16&#45;&gt;Node14</title>
<path fill="none" stroke="midnightblue" d="M991.426,-58.3619C991.426,-50.9219 991.426,-40.7427 991.426,-31.7276"/>
<polygon fill="midnightblue" stroke="midnightblue" points="994.926,-31.5706 991.426,-21.5707 987.926,-31.5707 994.926,-31.5706"/>
</g>
<!-- Node17 -->
<g id="node34" class="node"><title>Node17</title>
<polygon fill="white" stroke="#bfbfbf" points="1040.93,-0.5 1040.93,-21.5 1111.93,-21.5 1111.93,-0.5 1040.93,-0.5"/>
<text text-anchor="middle" x="1076.43" y="-8.5" font-family="Helvetica,sans-Serif" font-size="10.00">QQuaternion</text>
</g>
<!-- Node16&#45;&gt;Node17 -->
<g id="edge34" class="edge"><title>Node16&#45;&gt;Node17</title>
<path fill="none" stroke="midnightblue" d="M1007.02,-58.3619C1019.72,-49.6955 1037.86,-37.3126 1052.42,-27.3819"/>
<polygon fill="midnightblue" stroke="midnightblue" points="1054.65,-30.0982 1060.93,-21.5707 1050.7,-24.316 1054.65,-30.0982"/>
</g>
<!-- Node20&#45;&gt;Node9 -->
<g id="edge92" class="edge"><title>Node20&#45;&gt;Node9</title>
<path fill="none" stroke="midnightblue" d="M1060.97,-239.085C1046.68,-218.152 1015.25,-172.135 997.429,-146.041"/>
<polygon fill="midnightblue" stroke="midnightblue" points="1000.27,-143.999 991.744,-137.715 994.493,-147.947 1000.27,-143.999"/>
</g>
<!-- Node20&#45;&gt;Node16 -->
<g id="edge90" class="edge"><title>Node20&#45;&gt;Node16</title>
<path fill="none" stroke="midnightblue" d="M1064.8,-239.399C1056.86,-216.515 1037,-160.921 1016.43,-116 1012.22,-106.82 1007.05,-96.9155 1002.51,-88.5768"/>
<polygon fill="midnightblue" stroke="midnightblue" points="1005.47,-86.6928 997.555,-79.6443 999.343,-90.0872 1005.47,-86.6928"/>
</g>
<!-- Node20&#45;&gt;Node18 -->
<g id="edge94" class="edge"><title>Node20&#45;&gt;Node18</title>
<path fill="none" stroke="midnightblue" d="M1040.34,-244.578C1009.15,-237.493 958.462,-222.721 922.426,-196 896.435,-176.728 888.742,-168.667 878.426,-138 872.847,-121.414 879.617,-102.374 886.916,-88.5025"/>
<polygon fill="midnightblue" stroke="midnightblue" points="889.959,-90.2321 891.909,-79.8182 883.89,-86.7432 889.959,-90.2321"/>
</g>
<!-- Node21 -->
<g id="node45" class="node"><title>Node21</title>
<a xlink:href="geometry_8hpp.html" target="_top" xlink:title="geometry.hpp">
<polygon fill="white" stroke="black" points="1232.43,-174.5 1232.43,-195.5 1308.43,-195.5 1308.43,-174.5 1232.43,-174.5"/>
<text text-anchor="middle" x="1270.43" y="-182.5" font-family="Helvetica,sans-Serif" font-size="10.00">geometry.hpp</text>
</a>
</g>
<!-- Node20&#45;&gt;Node21 -->
<g id="edge48" class="edge"><title>Node20&#45;&gt;Node21</title>
<path fill="none" stroke="midnightblue" d="M1091.78,-239.409C1097.8,-236.84 1104.3,-234.202 1110.43,-232 1147.42,-218.692 1190.19,-206.277 1222.2,-197.553"/>
<polygon fill="midnightblue" stroke="midnightblue" points="1223.45,-200.84 1232.19,-194.853 1221.63,-194.082 1223.45,-200.84"/>
</g>
<!-- Node29 -->
<g id="node72" class="node"><title>Node29</title>
<polygon fill="white" stroke="#bfbfbf" points="1063.43,-116.5 1063.43,-137.5 1107.43,-137.5 1107.43,-116.5 1063.43,-116.5"/>
<text text-anchor="middle" x="1085.43" y="-124.5" font-family="Helvetica,sans-Serif" font-size="10.00">vector</text>
</g>
<!-- Node20&#45;&gt;Node29 -->
<g id="edge96" class="edge"><title>Node20&#45;&gt;Node29</title>
<path fill="none" stroke="midnightblue" d="M1069.93,-239.085C1072.76,-218.609 1078.91,-174.133 1082.55,-147.778"/>
<polygon fill="midnightblue" stroke="midnightblue" points="1086.04,-148.1 1083.94,-137.715 1079.11,-147.142 1086.04,-148.1"/>
</g>
<!-- Node21&#45;&gt;Node9 -->
<g id="edge62" class="edge"><title>Node21&#45;&gt;Node9</title>
<path fill="none" stroke="midnightblue" d="M1232.15,-177.238C1175.93,-165.836 1071.89,-144.738 1018.3,-133.869"/>
<polygon fill="midnightblue" stroke="midnightblue" points="1018.78,-130.395 1008.28,-131.837 1017.38,-137.255 1018.78,-130.395"/>
</g>
<!-- Node21&#45;&gt;Node13 -->
<g id="edge50" class="edge"><title>Node21&#45;&gt;Node13</title>
<path fill="none" stroke="midnightblue" d="M1263.75,-174.444C1245.98,-146.682 1197.19,-72.7498 1172.43,-58 1089.32,-8.50028 1050.24,-42.6753 952.076,-22.0549"/>
<polygon fill="midnightblue" stroke="midnightblue" points="952.593,-18.5839 942.069,-19.8076 951.059,-25.4138 952.593,-18.5839"/>
</g>
<!-- Node21&#45;&gt;Node14 -->
<g id="edge52" class="edge"><title>Node21&#45;&gt;Node14</title>
<path fill="none" stroke="midnightblue" d="M1299,-174.437C1326.75,-162.435 1362.63,-141.207 1347.43,-116 1273.66,6.29218 1179.41,-50.8735 1034.13,-22.1467"/>
<polygon fill="midnightblue" stroke="midnightblue" points="1034.54,-18.6566 1024.04,-20.0273 1033.1,-25.5073 1034.54,-18.6566"/>
</g>
<!-- Node21&#45;&gt;Node16 -->
<g id="edge64" class="edge"><title>Node21&#45;&gt;Node16</title>
<path fill="none" stroke="midnightblue" d="M1281.3,-174.017C1294.55,-159.324 1313.39,-133.138 1298.43,-116 1261.17,-73.3359 1107.15,-89.7885 1034.86,-79.8083"/>
<polygon fill="midnightblue" stroke="midnightblue" points="1035.25,-76.3251 1024.81,-78.1339 1034.1,-83.2299 1035.25,-76.3251"/>
</g>
<!-- Node22 -->
<g id="node49" class="node"><title>Node22</title>
<polygon fill="white" stroke="#bfbfbf" points="1041.93,-58.5 1041.93,-79.5 1144.93,-79.5 1144.93,-58.5 1041.93,-58.5"/>
<text text-anchor="middle" x="1093.43" y="-66.5" font-family="Helvetica,sans-Serif" font-size="10.00">QOpenGLFunctions</text>
</g>
<!-- Node21&#45;&gt;Node22 -->
<g id="edge54" class="edge"><title>Node21&#45;&gt;Node22</title>
<path fill="none" stroke="midnightblue" d="M1291.46,-174.451C1315.35,-161.091 1348.89,-137.247 1331.43,-116 1309.51,-89.3382 1218.13,-77.5513 1155.19,-72.5208"/>
<polygon fill="midnightblue" stroke="midnightblue" points="1155.2,-69.0113 1144.96,-71.742 1154.67,-75.9911 1155.2,-69.0113"/>
</g>
<!-- Node23 -->
<g id="node51" class="node"><title>Node23</title>
<polygon fill="white" stroke="#bfbfbf" points="1421.43,-116.5 1421.43,-137.5 1549.43,-137.5 1549.43,-116.5 1421.43,-116.5"/>
<text text-anchor="middle" x="1485.43" y="-124.5" font-family="Helvetica,sans-Serif" font-size="10.00">QOpenGLShaderProgram</text>
</g>
<!-- Node21&#45;&gt;Node23 -->
<g id="edge56" class="edge"><title>Node21&#45;&gt;Node23</title>
<path fill="none" stroke="midnightblue" d="M1308.86,-174.631C1344.45,-165.029 1397.56,-150.703 1436.23,-140.271"/>
<polygon fill="midnightblue" stroke="midnightblue" points="1437.49,-143.557 1446.23,-137.573 1435.67,-136.799 1437.49,-143.557"/>
</g>
<!-- Node24 -->
<g id="node53" class="node"><title>Node24</title>
<polygon fill="white" stroke="#bfbfbf" points="1567.43,-116.5 1567.43,-137.5 1653.43,-137.5 1653.43,-116.5 1567.43,-116.5"/>
<text text-anchor="middle" x="1610.43" y="-124.5" font-family="Helvetica,sans-Serif" font-size="10.00">QOpenGLBuffer</text>
</g>
<!-- Node21&#45;&gt;Node24 -->
<g id="edge58" class="edge"><title>Node21&#45;&gt;Node24</title>
<path fill="none" stroke="midnightblue" d="M1308.73,-179.332C1362.11,-171.304 1462.15,-155.798 1557.25,-138.159"/>
<polygon fill="midnightblue" stroke="midnightblue" points="1558.14,-141.554 1567.33,-136.279 1556.85,-134.673 1558.14,-141.554"/>
</g>
<!-- Node25 -->
<g id="node55" class="node"><title>Node25</title>
<polygon fill="white" stroke="#bfbfbf" points="1671.43,-116.5 1671.43,-137.5 1811.43,-137.5 1811.43,-116.5 1671.43,-116.5"/>
<text text-anchor="middle" x="1741.43" y="-124.5" font-family="Helvetica,sans-Serif" font-size="10.00">QOpenGLVertexArrayObject</text>
</g>
<!-- Node21&#45;&gt;Node25 -->
<g id="edge60" class="edge"><title>Node21&#45;&gt;Node25</title>
<path fill="none" stroke="midnightblue" d="M1308.57,-180.67C1376.98,-172.853 1525.29,-155.665 1661.06,-138.16"/>
<polygon fill="midnightblue" stroke="midnightblue" points="1661.76,-141.599 1671.22,-136.846 1660.86,-134.657 1661.76,-141.599"/>
</g>
<!-- Node26 -->
<g id="node59" class="node"><title>Node26</title>
<a xlink:href="actor_8hpp.html" target="_top" xlink:title="actor.hpp">
<polygon fill="white" stroke="black" points="886.926,-116.5 886.926,-137.5 943.926,-137.5 943.926,-116.5 886.926,-116.5"/>
<text text-anchor="middle" x="915.426" y="-124.5" font-family="Helvetica,sans-Serif" font-size="10.00">actor.hpp</text>
</a>
</g>
<!-- Node21&#45;&gt;Node26 -->
<g id="edge66" class="edge"><title>Node21&#45;&gt;Node26</title>
<path fill="none" stroke="midnightblue" d="M1232.42,-181.152C1174.26,-174.881 1059.63,-161.008 953.88,-138.105"/>
<polygon fill="midnightblue" stroke="midnightblue" points="954.522,-134.663 944.004,-135.934 953.019,-141.499 954.522,-134.663"/>
</g>
<!-- Node27 -->
<g id="node65" class="node"><title>Node27</title>
<a xlink:href="material_8hpp.html" target="_top" xlink:title="material.hpp">
<polygon fill="white" stroke="black" points="1125.43,-116.5 1125.43,-137.5 1195.43,-137.5 1195.43,-116.5 1125.43,-116.5"/>
<text text-anchor="middle" x="1160.43" y="-124.5" font-family="Helvetica,sans-Serif" font-size="10.00">material.hpp</text>
</a>
</g>
<!-- Node21&#45;&gt;Node27 -->
<g id="edge76" class="edge"><title>Node21&#45;&gt;Node27</title>
<path fill="none" stroke="midnightblue" d="M1250.51,-174.497C1233.48,-165.519 1208.76,-152.484 1189.52,-142.339"/>
<polygon fill="midnightblue" stroke="midnightblue" points="1191.05,-139.189 1180.57,-137.621 1187.78,-145.381 1191.05,-139.189"/>
</g>
<!-- Node28 -->
<g id="node70" class="node"><title>Node28</title>
<polygon fill="white" stroke="#bfbfbf" points="1829.43,-116.5 1829.43,-137.5 1881.43,-137.5 1881.43,-116.5 1829.43,-116.5"/>
<text text-anchor="middle" x="1855.43" y="-124.5" font-family="Helvetica,sans-Serif" font-size="10.00">memory</text>
</g>
<!-- Node21&#45;&gt;Node28 -->
<g id="edge84" class="edge"><title>Node21&#45;&gt;Node28</title>
<path fill="none" stroke="midnightblue" d="M1308.52,-182.835C1413.15,-176.723 1704.2,-158.548 1819.28,-137.802"/>
<polygon fill="midnightblue" stroke="midnightblue" points="1820.04,-141.221 1829.21,-135.917 1818.74,-134.344 1820.04,-141.221"/>
</g>
<!-- Node21&#45;&gt;Node29 -->
<g id="edge86" class="edge"><title>Node21&#45;&gt;Node29</title>
<path fill="none" stroke="midnightblue" d="M1234.19,-174.439C1204.97,-165.812 1162.6,-153.057 1117.42,-138.243"/>
<polygon fill="midnightblue" stroke="midnightblue" points="1118.33,-134.858 1107.74,-135.051 1116.14,-141.506 1118.33,-134.858"/>
</g>
<!-- Node30 -->
<g id="node74" class="node"><title>Node30</title>
<polygon fill="white" stroke="#bfbfbf" points="1251.43,-116.5 1251.43,-137.5 1289.43,-137.5 1289.43,-116.5 1251.43,-116.5"/>
<text text-anchor="middle" x="1270.43" y="-124.5" font-family="Helvetica,sans-Serif" font-size="10.00">tuple</text>
</g>
<!-- Node21&#45;&gt;Node30 -->
<g id="edge88" class="edge"><title>Node21&#45;&gt;Node30</title>
<path fill="none" stroke="midnightblue" d="M1270.43,-174.362C1270.43,-166.922 1270.43,-156.743 1270.43,-147.728"/>
<polygon fill="midnightblue" stroke="midnightblue" points="1273.93,-147.571 1270.43,-137.571 1266.93,-147.571 1273.93,-147.571"/>
</g>
<!-- Node26&#45;&gt;Node15 -->
<g id="edge70" class="edge"><title>Node26&#45;&gt;Node15</title>
<path fill="none" stroke="midnightblue" d="M895.868,-116.497C879.228,-107.56 855.098,-94.602 836.245,-84.4772"/>
<polygon fill="midnightblue" stroke="midnightblue" points="837.669,-81.2691 827.203,-79.6212 834.357,-87.436 837.669,-81.2691"/>
</g>
<!-- Node26&#45;&gt;Node16 -->
<g id="edge68" class="edge"><title>Node26&#45;&gt;Node16</title>
<path fill="none" stroke="midnightblue" d="M929.365,-116.362C940.614,-107.777 956.642,-95.5459 969.591,-85.6636"/>
<polygon fill="midnightblue" stroke="midnightblue" points="971.748,-88.4198 977.575,-79.5707 967.502,-82.8551 971.748,-88.4198"/>
</g>
<!-- Node26&#45;&gt;Node18 -->
<g id="edge74" class="edge"><title>Node26&#45;&gt;Node18</title>
<path fill="none" stroke="midnightblue" d="M912.491,-116.362C910.416,-108.84 907.569,-98.5187 905.062,-89.4308"/>
<polygon fill="midnightblue" stroke="midnightblue" points="908.375,-88.2798 902.342,-79.5707 901.627,-90.1414 908.375,-88.2798"/>
</g>
<!-- Node26&#45;&gt;Node22 -->
<g id="edge72" class="edge"><title>Node26&#45;&gt;Node22</title>
<path fill="none" stroke="midnightblue" d="M944.025,-117.681C972.969,-108.25 1018.05,-93.5598 1051.13,-82.7823"/>
<polygon fill="midnightblue" stroke="midnightblue" points="1052.55,-85.9993 1060.98,-79.5733 1050.38,-79.3437 1052.55,-85.9993"/>
</g>
<!-- Node27&#45;&gt;Node13 -->
<g id="edge78" class="edge"><title>Node27&#45;&gt;Node13</title>
<path fill="none" stroke="midnightblue" d="M1162.89,-116.315C1165.67,-101.237 1168.09,-73.7965 1153.43,-58 1093.22,6.862 1042.97,-40.3032 951.903,-21.9669"/>
<polygon fill="midnightblue" stroke="midnightblue" points="952.602,-18.5368 942.079,-19.7662 951.072,-25.3675 952.602,-18.5368"/>
</g>
<!-- Node27&#45;&gt;Node16 -->
<g id="edge80" class="edge"><title>Node27&#45;&gt;Node16</title>
<path fill="none" stroke="midnightblue" d="M1129.82,-116.497C1102.39,-107.082 1061.95,-93.2036 1031.86,-82.8773"/>
<polygon fill="midnightblue" stroke="midnightblue" points="1032.68,-79.4588 1022.09,-79.5231 1030.41,-86.0797 1032.68,-79.4588"/>
</g>
<!-- Node27&#45;&gt;Node18 -->
<g id="edge82" class="edge"><title>Node27&#45;&gt;Node18</title>
<path fill="none" stroke="midnightblue" d="M1125.39,-118.131C1122.36,-117.397 1119.34,-116.678 1116.43,-116 1045.51,-99.4961 1025.25,-96.3975 950.997,-80.3311"/>
<polygon fill="midnightblue" stroke="midnightblue" points="951.68,-76.8978 941.165,-78.1964 950.195,-83.7385 951.68,-76.8978"/>
</g>
<!-- Node31&#45;&gt;Node9 -->
<g id="edge104" class="edge"><title>Node31&#45;&gt;Node9</title>
<path fill="none" stroke="midnightblue" d="M836.334,-239.421C855.647,-224.733 891.682,-197.335 922.426,-174 935.585,-164.012 950.323,-152.839 962.127,-143.893"/>
<polygon fill="midnightblue" stroke="midnightblue" points="964.283,-146.651 970.139,-137.822 960.055,-141.072 964.283,-146.651"/>
</g>
<!-- Node31&#45;&gt;Node18 -->
<g id="edge102" class="edge"><title>Node31&#45;&gt;Node18</title>
<path fill="none" stroke="midnightblue" d="M789.688,-239.743C769.273,-231.457 744.636,-217.565 732.426,-196 722,-177.586 731.938,-128.765 743.426,-116 750.689,-107.93 805.356,-92.6331 847.952,-81.6815"/>
<polygon fill="midnightblue" stroke="midnightblue" points="848.832,-85.069 857.658,-79.2068 847.103,-78.286 848.832,-85.069"/>
</g>
<!-- Node31&#45;&gt;Node21 -->
<g id="edge100" class="edge"><title>Node31&#45;&gt;Node21</title>
<path fill="none" stroke="midnightblue" d="M843.268,-239.416C849.6,-236.595 856.672,-233.828 863.426,-232 930.033,-213.972 1129.46,-196.273 1222.12,-188.76"/>
<polygon fill="midnightblue" stroke="midnightblue" points="1222.66,-192.229 1232.35,-187.938 1222.1,-185.251 1222.66,-192.229"/>
</g>
<!-- Node32&#45;&gt;Node13 -->
<g id="edge112" class="edge"><title>Node32&#45;&gt;Node13</title>
<path fill="none" stroke="midnightblue" d="M740.784,-179.094C672.077,-164.168 511.889,-121.541 567.426,-58 587.742,-34.7555 793.766,-18.8707 878.909,-13.251"/>
<polygon fill="midnightblue" stroke="midnightblue" points="879.157,-16.7424 888.909,-12.6016 878.703,-9.75709 879.157,-16.7424"/>
</g>
<!-- Node32&#45;&gt;Node16 -->
<g id="edge108" class="edge"><title>Node32&#45;&gt;Node16</title>
<path fill="none" stroke="midnightblue" d="M785.306,-174.308C805.685,-159.944 843.715,-134.13 878.426,-116 902.378,-103.489 930.42,-91.8094 952.578,-83.2224"/>
<polygon fill="midnightblue" stroke="midnightblue" points="953.905,-86.4619 961.995,-79.6207 951.405,-79.9237 953.905,-86.4619"/>
</g>
<!-- Node32&#45;&gt;Node26 -->
<g id="edge110" class="edge"><title>Node32&#45;&gt;Node26</title>
<path fill="none" stroke="midnightblue" d="M796.684,-174.497C819.841,-165.234 853.801,-151.65 879.477,-141.379"/>
<polygon fill="midnightblue" stroke="midnightblue" points="880.888,-144.585 888.873,-137.621 878.288,-138.086 880.888,-144.585"/>
</g>
<!-- Node33 -->
<g id="node90" class="node"><title>Node33</title>
<polygon fill="white" stroke="#bfbfbf" points="752.426,-116.5 752.426,-137.5 792.426,-137.5 792.426,-116.5 752.426,-116.5"/>
<text text-anchor="middle" x="772.426" y="-124.5" font-family="Helvetica,sans-Serif" font-size="10.00">QList</text>
</g>
<!-- Node32&#45;&gt;Node33 -->
<g id="edge114" class="edge"><title>Node32&#45;&gt;Node33</title>
<path fill="none" stroke="midnightblue" d="M770.793,-174.362C771.049,-166.922 771.4,-156.743 771.711,-147.728"/>
<polygon fill="midnightblue" stroke="midnightblue" points="775.214,-147.685 772.061,-137.571 768.219,-147.444 775.214,-147.685"/>
</g>
<!-- Node35&#45;&gt;Node9 -->
<g id="edge120" class="edge"><title>Node35&#45;&gt;Node9</title>
<path fill="none" stroke="midnightblue" d="M962.378,-174.362C965.956,-166.677 970.894,-156.069 975.19,-146.84"/>
<polygon fill="midnightblue" stroke="midnightblue" points="978.458,-148.114 979.505,-137.571 972.112,-145.159 978.458,-148.114"/>
</g>
<!-- Node35&#45;&gt;Node26 -->
<g id="edge122" class="edge"><title>Node35&#45;&gt;Node26</title>
<path fill="none" stroke="midnightblue" d="M949.722,-174.362C943.98,-166.431 935.983,-155.389 929.156,-145.961"/>
<polygon fill="midnightblue" stroke="midnightblue" points="931.78,-143.617 923.08,-137.571 926.111,-147.723 931.78,-143.617"/>
</g>
<!-- Node36&#45;&gt;Node35 -->
<g id="edge126" class="edge"><title>Node36&#45;&gt;Node35</title>
<path fill="none" stroke="midnightblue" d="M950.42,-304.218C952.083,-294.72 954.349,-280.493 955.426,-268 957.246,-246.881 957.635,-222.635 957.636,-205.825"/>
<polygon fill="midnightblue" stroke="midnightblue" points="961.135,-205.488 957.588,-195.505 954.135,-205.521 961.135,-205.488"/>
</g>
<!-- Node37&#45;&gt;Node21 -->
<g id="edge132" class="edge"><title>Node37&#45;&gt;Node21</title>
<path fill="none" stroke="midnightblue" d="M1175.05,-304.2C1186.04,-295.145 1201.57,-281.554 1213.43,-268 1231.2,-247.687 1248.27,-221.683 1259.02,-204.243"/>
<polygon fill="midnightblue" stroke="midnightblue" points="1262.11,-205.891 1264.3,-195.525 1256.13,-202.262 1262.11,-205.891"/>
</g>
<!-- Node38 -->
<g id="node103" class="node"><title>Node38</title>
<polygon fill="white" stroke="#bfbfbf" points="1151.93,-239.5 1151.93,-260.5 1204.93,-260.5 1204.93,-239.5 1151.93,-239.5"/>
<text text-anchor="middle" x="1178.43" y="-247.5" font-family="Helvetica,sans-Serif" font-size="10.00">QVector</text>
</g>
<!-- Node37&#45;&gt;Node38 -->
<g id="edge130" class="edge"><title>Node37&#45;&gt;Node38</title>
<path fill="none" stroke="midnightblue" d="M1164.23,-304.267C1166.63,-295.085 1170.16,-281.615 1173.09,-270.392"/>
<polygon fill="midnightblue" stroke="midnightblue" points="1176.53,-271.094 1175.67,-260.534 1169.75,-269.323 1176.53,-271.094"/>
</g>
<!-- Node39&#45;&gt;Node21 -->
<g id="edge136" class="edge"><title>Node39&#45;&gt;Node21</title>
<path fill="none" stroke="midnightblue" d="M1083.31,-304.281C1093.42,-286.798 1115.69,-252.083 1143.43,-232 1166.96,-214.958 1197.37,-203.417 1222.54,-196.037"/>
<polygon fill="midnightblue" stroke="midnightblue" points="1223.57,-199.383 1232.25,-193.314 1221.68,-192.642 1223.57,-199.383"/>
</g>
<!-- Node40&#45;&gt;Node21 -->
<g id="edge140" class="edge"><title>Node40&#45;&gt;Node21</title>
<path fill="none" stroke="midnightblue" d="M1244.72,-304.362C1249.35,-282.841 1259.91,-233.807 1265.96,-205.74"/>
<polygon fill="midnightblue" stroke="midnightblue" points="1269.42,-206.298 1268.1,-195.785 1262.58,-204.824 1269.42,-206.298"/>
</g>
<!-- Node41&#45;&gt;Node21 -->
<g id="edge144" class="edge"><title>Node41&#45;&gt;Node21</title>
<path fill="none" stroke="midnightblue" d="M1320.92,-304.362C1311.74,-282.65 1290.71,-232.937 1278.89,-205"/>
<polygon fill="midnightblue" stroke="midnightblue" points="1282.11,-203.631 1274.99,-195.785 1275.66,-206.359 1282.11,-203.631"/>
</g>
<!-- Node42&#45;&gt;Node21 -->
<g id="edge148" class="edge"><title>Node42&#45;&gt;Node21</title>
<path fill="none" stroke="midnightblue" d="M1388.87,-304.362C1366.85,-282.174 1315.82,-230.743 1288.48,-203.194"/>
<polygon fill="midnightblue" stroke="midnightblue" points="1290.66,-200.418 1281.13,-195.785 1285.69,-205.349 1290.66,-200.418"/>
</g>
</g>
</svg>
