<?xml version="1.0" encoding="UTF-8" standalone="no"?>
<!DOCTYPE svg PUBLIC "-//W3C//DTD SVG 1.1//EN"
 "http://www.w3.org/Graphics/SVG/1.1/DTD/svg11.dtd">
<!-- Generated by graphviz version 2.26.3 (20100126.1600)
 -->
<!-- Title: toVector Pages: 1 -->
<svg width="342pt" height="30pt"
 viewBox="0.00 0.00 342.00 30.00" xmlns="http://www.w3.org/2000/svg" xmlns:xlink="http://www.w3.org/1999/xlink">
<g id="graph1" class="graph" transform="scale(1 1) rotate(0) translate(4 26)">
<title>toVector</title>
<polygon fill="white" stroke="white" points="-4,5 -4,-26 339,-26 339,5 -4,5"/>
<!-- Node1 -->
<g id="node1" class="node"><title>Node1</title>
<polygon fill="#bfbfbf" stroke="black" points="0.5,-0.5 0.5,-21.5 53.5,-21.5 53.5,-0.5 0.5,-0.5"/>
<text text-anchor="middle" x="27" y="-8.5" font-family="Helvetica,sans-Serif" font-size="10.00">toVector</text>
</g>
<!-- Node2 -->
<g id="node3" class="node"><title>Node2</title>
<a xlink:href="class_viewport.html#aeb07f85bbe4f10ca8d8c7b46c8ebd23b" target="_top" xlink:title="Viewport::renderQuad">
<polygon fill="white" stroke="black" points="90.5,-0.5 90.5,-21.5 201.5,-21.5 201.5,-0.5 90.5,-0.5"/>
<text text-anchor="middle" x="146" y="-8.5" font-family="Helvetica,sans-Serif" font-size="10.00">Viewport::renderQuad</text>
</a>
</g>
<!-- Node1&#45;&gt;Node2 -->
<g id="edge2" class="edge"><title>Node1&#45;&gt;Node2</title>
<path fill="none" stroke="midnightblue" d="M63.8448,-11C72.1927,-11 81.24,-11 90.1763,-11"/>
<polygon fill="midnightblue" stroke="midnightblue" points="63.706,-7.5001 53.7059,-11 63.7059,-14.5001 63.706,-7.5001"/>
</g>
<!-- Node3 -->
<g id="node5" class="node"><title>Node3</title>
<a xlink:href="class_viewport.html#a3c2c4661eac1f6351392b8fe133423f5" target="_top" xlink:title="Viewport::paintGL">
<polygon fill="white" stroke="black" points="238.5,-0.5 238.5,-21.5 333.5,-21.5 333.5,-0.5 238.5,-0.5"/>
<text text-anchor="middle" x="286" y="-8.5" font-family="Helvetica,sans-Serif" font-size="10.00">Viewport::paintGL</text>
</a>
</g>
<!-- Node2&#45;&gt;Node3 -->
<g id="edge4" class="edge"><title>Node2&#45;&gt;Node3</title>
<path fill="none" stroke="midnightblue" d="M212.006,-11C220.817,-11 229.714,-11 238.134,-11"/>
<polygon fill="midnightblue" stroke="midnightblue" points="211.734,-7.5001 201.734,-11 211.734,-14.5001 211.734,-7.5001"/>
</g>
</g>
</svg>
