<?xml version="1.0" encoding="UTF-8" standalone="no"?>
<!DOCTYPE svg PUBLIC "-//W3C//DTD SVG 1.1//EN"
 "http://www.w3.org/Graphics/SVG/1.1/DTD/svg11.dtd">
<!-- Generated by graphviz version 2.26.3 (20100126.1600)
 -->
<!-- Title: include/viewport.hpp Pages: 1 -->
<svg width="1990pt" height="334pt"
 viewBox="0.00 0.00 1990.00 334.00" xmlns="http://www.w3.org/2000/svg" xmlns:xlink="http://www.w3.org/1999/xlink">
<g id="graph1" class="graph" transform="scale(1 1) rotate(0) translate(4 330)">
<title>include/viewport.hpp</title>
<polygon fill="white" stroke="white" points="-4,5 -4,-330 1987,-330 1987,5 -4,5"/>
<!-- Node1 -->
<g id="node1" class="node"><title>Node1</title>
<polygon fill="#bfbfbf" stroke="black" points="603,-304.5 603,-325.5 709,-325.5 709,-304.5 603,-304.5"/>
<text text-anchor="middle" x="656" y="-312.5" font-family="Helvetica,sans-Serif" font-size="10.00">include/viewport.hpp</text>
</g>
<!-- Node2 -->
<g id="node3" class="node"><title>Node2</title>
<polygon fill="white" stroke="#bfbfbf" points="-0.5,-239.5 -0.5,-260.5 90.5,-260.5 90.5,-239.5 -0.5,-239.5"/>
<text text-anchor="middle" x="45" y="-247.5" font-family="Helvetica,sans-Serif" font-size="10.00">QOpenGLWidget</text>
</g>
<!-- Node1&#45;&gt;Node2 -->
<g id="edge2" class="edge"><title>Node1&#45;&gt;Node2</title>
<path fill="none" stroke="midnightblue" d="M602.698,-312.121C482.703,-305.377 194.409,-287.635 99,-268 93.4949,-266.867 87.7706,-265.349 82.1961,-263.673"/>
<polygon fill="midnightblue" stroke="midnightblue" points="82.9948,-260.254 72.4037,-260.535 80.8583,-266.92 82.9948,-260.254"/>
</g>
<!-- Node3 -->
<g id="node5" class="node"><title>Node3</title>
<polygon fill="white" stroke="#bfbfbf" points="107.5,-233 107.5,-267 220.5,-267 220.5,-233 107.5,-233"/>
<text text-anchor="start" x="115.5" y="-254" font-family="Helvetica,sans-Serif" font-size="10.00">QOpenGLFunctions_4</text>
<text text-anchor="middle" x="164" y="-241" font-family="Helvetica,sans-Serif" font-size="10.00">_3_Core</text>
</g>
<!-- Node1&#45;&gt;Node3 -->
<g id="edge4" class="edge"><title>Node1&#45;&gt;Node3</title>
<path fill="none" stroke="midnightblue" d="M602.669,-311.889C523.346,-306.657 369.538,-294.188 230.572,-268.147"/>
<polygon fill="midnightblue" stroke="midnightblue" points="231.072,-264.679 220.594,-266.248 229.763,-271.556 231.072,-264.679"/>
</g>
<!-- Node4 -->
<g id="node7" class="node"><title>Node4</title>
<polygon fill="white" stroke="#bfbfbf" points="237.5,-239.5 237.5,-260.5 378.5,-260.5 378.5,-239.5 237.5,-239.5"/>
<text text-anchor="middle" x="308" y="-247.5" font-family="Helvetica,sans-Serif" font-size="10.00">QOpenGLFramebufferObject</text>
</g>
<!-- Node1&#45;&gt;Node4 -->
<g id="edge6" class="edge"><title>Node1&#45;&gt;Node4</title>
<path fill="none" stroke="midnightblue" d="M602.768,-306.522C548.392,-297.669 461.597,-283.005 387,-268 379.059,-266.403 370.692,-264.613 362.495,-262.799"/>
<polygon fill="midnightblue" stroke="midnightblue" points="363.142,-259.357 352.618,-260.584 361.61,-266.187 363.142,-259.357"/>
</g>
<!-- Node5 -->
<g id="node9" class="node"><title>Node5</title>
<polygon fill="white" stroke="#bfbfbf" points="395.5,-239.5 395.5,-260.5 450.5,-260.5 450.5,-239.5 395.5,-239.5"/>
<text text-anchor="middle" x="423" y="-247.5" font-family="Helvetica,sans-Serif" font-size="10.00">QPainter</text>
</g>
<!-- Node1&#45;&gt;Node5 -->
<g id="edge8" class="edge"><title>Node1&#45;&gt;Node5</title>
<path fill="none" stroke="midnightblue" d="M602.775,-305.742C562.574,-297.929 506.416,-285.25 459,-268 456.441,-267.069 453.827,-266.004 451.234,-264.868"/>
<polygon fill="midnightblue" stroke="midnightblue" points="452.609,-261.647 442.07,-260.553 449.626,-267.98 452.609,-261.647"/>
</g>
<!-- Node6 -->
<g id="node11" class="node"><title>Node6</title>
<polygon fill="white" stroke="#bfbfbf" points="467.5,-239.5 467.5,-260.5 544.5,-260.5 544.5,-239.5 467.5,-239.5"/>
<text text-anchor="middle" x="506" y="-247.5" font-family="Helvetica,sans-Serif" font-size="10.00">QWheelEvent</text>
</g>
<!-- Node1&#45;&gt;Node6 -->
<g id="edge10" class="edge"><title>Node1&#45;&gt;Node6</title>
<path fill="none" stroke="midnightblue" d="M631.566,-304.412C606.615,-293.6 567.686,-276.731 539.79,-264.642"/>
<polygon fill="midnightblue" stroke="midnightblue" points="540.991,-261.348 530.423,-260.584 538.207,-267.771 540.991,-261.348"/>
</g>
<!-- Node7 -->
<g id="node13" class="node"><title>Node7</title>
<polygon fill="white" stroke="#bfbfbf" points="561.5,-239.5 561.5,-260.5 628.5,-260.5 628.5,-239.5 561.5,-239.5"/>
<text text-anchor="middle" x="595" y="-247.5" font-family="Helvetica,sans-Serif" font-size="10.00">QKeyEvent</text>
</g>
<!-- Node1&#45;&gt;Node7 -->
<g id="edge12" class="edge"><title>Node1&#45;&gt;Node7</title>
<path fill="none" stroke="midnightblue" d="M645.927,-304.267C636.689,-294.423 622.824,-279.648 611.892,-268"/>
<polygon fill="midnightblue" stroke="midnightblue" points="614.281,-265.43 604.885,-260.534 609.176,-270.221 614.281,-265.43"/>
</g>
<!-- Node8 -->
<g id="node15" class="node"><title>Node8</title>
<polygon fill="white" stroke="#bfbfbf" points="814.5,-116.5 814.5,-137.5 861.5,-137.5 861.5,-116.5 814.5,-116.5"/>
<text text-anchor="middle" x="838" y="-124.5" font-family="Helvetica,sans-Serif" font-size="10.00">QColor</text>
</g>
<!-- Node1&#45;&gt;Node8 -->
<g id="edge14" class="edge"><title>Node1&#45;&gt;Node8</title>
<path fill="none" stroke="midnightblue" d="M709.006,-306.42C734.81,-299.804 764.587,-288.206 785,-268 818.602,-234.738 831.177,-178.131 835.665,-147.743"/>
<polygon fill="midnightblue" stroke="midnightblue" points="839.135,-148.198 836.977,-137.826 832.196,-147.281 839.135,-148.198"/>
</g>
<!-- Node9 -->
<g id="node17" class="node"><title>Node9</title>
<polygon fill="white" stroke="#bfbfbf" points="684,-239.5 684,-260.5 758,-260.5 758,-239.5 684,-239.5"/>
<text text-anchor="middle" x="721" y="-247.5" font-family="Helvetica,sans-Serif" font-size="10.00">QMetaObject</text>
</g>
<!-- Node1&#45;&gt;Node9 -->
<g id="edge16" class="edge"><title>Node1&#45;&gt;Node9</title>
<path fill="none" stroke="midnightblue" d="M666.733,-304.267C676.672,-294.328 691.637,-279.363 703.336,-267.664"/>
<polygon fill="midnightblue" stroke="midnightblue" points="705.87,-270.08 710.466,-260.534 700.92,-265.13 705.87,-270.08"/>
</g>
<!-- Node10 -->
<g id="node19" class="node"><title>Node10</title>
<polygon fill="white" stroke="#bfbfbf" points="669.5,-0.5 669.5,-21.5 718.5,-21.5 718.5,-0.5 669.5,-0.5"/>
<text text-anchor="middle" x="694" y="-8.5" font-family="Helvetica,sans-Serif" font-size="10.00">QtMath</text>
</g>
<!-- Node1&#45;&gt;Node10 -->
<g id="edge18" class="edge"><title>Node1&#45;&gt;Node10</title>
<path fill="none" stroke="midnightblue" d="M656,-304.214C656,-281.939 656,-229.236 656,-185 656,-185 656,-185 656,-127 656,-91.7411 672.051,-53.3154 683.289,-30.7323"/>
<polygon fill="midnightblue" stroke="midnightblue" points="686.418,-32.3005 687.895,-21.809 680.198,-29.0901 686.418,-32.3005"/>
</g>
<!-- Node11 -->
<g id="node21" class="node"><title>Node11</title>
<a xlink:href="camera_8hpp.html" target="_top" xlink:title="camera.hpp">
<polygon fill="white" stroke="black" points="691,-116.5 691,-137.5 759,-137.5 759,-116.5 691,-116.5"/>
<text text-anchor="middle" x="725" y="-124.5" font-family="Helvetica,sans-Serif" font-size="10.00">camera.hpp</text>
</a>
</g>
<!-- Node1&#45;&gt;Node11 -->
<g id="edge20" class="edge"><title>Node1&#45;&gt;Node11</title>
<path fill="none" stroke="midnightblue" d="M709.275,-305.753C730.986,-299.08 753.997,-287.626 767,-268 792.586,-229.381 760.836,-174.709 740.15,-146.116"/>
<polygon fill="midnightblue" stroke="midnightblue" points="742.712,-143.698 733.909,-137.802 737.113,-147.9 742.712,-143.698"/>
</g>
<!-- Node19 -->
<g id="node41" class="node"><title>Node19</title>
<a xlink:href="cube_8hpp.html" target="_top" xlink:title="cube.hpp">
<polygon fill="white" stroke="black" points="882,-239.5 882,-260.5 938,-260.5 938,-239.5 882,-239.5"/>
<text text-anchor="middle" x="910" y="-247.5" font-family="Helvetica,sans-Serif" font-size="10.00">cube.hpp</text>
</a>
</g>
<!-- Node1&#45;&gt;Node19 -->
<g id="edge44" class="edge"><title>Node1&#45;&gt;Node19</title>
<path fill="none" stroke="midnightblue" d="M697.092,-304.484C745.49,-292.099 825.225,-271.694 872.164,-259.682"/>
<polygon fill="midnightblue" stroke="midnightblue" points="873.121,-263.05 881.941,-257.18 871.386,-256.269 873.121,-263.05"/>
</g>
<!-- Node30 -->
<g id="node78" class="node"><title>Node30</title>
<a xlink:href="sphere_8hpp.html" target="_top" xlink:title="sphere.hpp">
<polygon fill="white" stroke="black" points="1035.5,-239.5 1035.5,-260.5 1100.5,-260.5 1100.5,-239.5 1035.5,-239.5"/>
<text text-anchor="middle" x="1068" y="-247.5" font-family="Helvetica,sans-Serif" font-size="10.00">sphere.hpp</text>
</a>
</g>
<!-- Node1&#45;&gt;Node30 -->
<g id="edge96" class="edge"><title>Node1&#45;&gt;Node30</title>
<path fill="none" stroke="midnightblue" d="M709.018,-306.635C791.631,-293.602 949.445,-268.704 1025.26,-256.743"/>
<polygon fill="midnightblue" stroke="midnightblue" points="1026.07,-260.159 1035.4,-255.143 1024.98,-253.245 1026.07,-260.159"/>
</g>
<!-- Node31 -->
<g id="node83" class="node"><title>Node31</title>
<a xlink:href="world_8hpp.html" target="_top" xlink:title="world.hpp">
<polygon fill="white" stroke="black" points="1893.5,-174.5 1893.5,-195.5 1952.5,-195.5 1952.5,-174.5 1893.5,-174.5"/>
<text text-anchor="middle" x="1923" y="-182.5" font-family="Helvetica,sans-Serif" font-size="10.00">world.hpp</text>
</a>
</g>
<!-- Node1&#45;&gt;Node31 -->
<g id="edge104" class="edge"><title>Node1&#45;&gt;Node31</title>
<path fill="none" stroke="midnightblue" d="M709.182,-312.749C880.245,-304.887 1431.29,-274.725 1880,-196 1881.06,-195.814 1882.14,-195.615 1883.22,-195.405"/>
<polygon fill="midnightblue" stroke="midnightblue" points="1884.02,-198.814 1893.06,-193.286 1882.54,-191.971 1884.02,-198.814"/>
</g>
<!-- Node11&#45;&gt;Node10 -->
<g id="edge42" class="edge"><title>Node11&#45;&gt;Node10</title>
<path fill="none" stroke="midnightblue" d="M722.139,-116.295C716.995,-97.0451 706.103,-56.2889 699.481,-31.5091"/>
<polygon fill="midnightblue" stroke="midnightblue" points="702.817,-30.4365 696.854,-21.6792 696.054,-32.2438 702.817,-30.4365"/>
</g>
<!-- Node12 -->
<g id="node23" class="node"><title>Node12</title>
<polygon fill="white" stroke="#bfbfbf" points="1036.5,-0.5 1036.5,-21.5 1089.5,-21.5 1089.5,-0.5 1036.5,-0.5"/>
<text text-anchor="middle" x="1063" y="-8.5" font-family="Helvetica,sans-Serif" font-size="10.00">QObject</text>
</g>
<!-- Node11&#45;&gt;Node12 -->
<g id="edge22" class="edge"><title>Node11&#45;&gt;Node12</title>
<path fill="none" stroke="midnightblue" d="M755.891,-116.398C818.36,-94.9592 959.431,-46.5445 1026.39,-23.5632"/>
<polygon fill="midnightblue" stroke="midnightblue" points="1027.78,-26.7888 1036.1,-20.2321 1025.5,-20.1678 1027.78,-26.7888"/>
</g>
<!-- Node13 -->
<g id="node25" class="node"><title>Node13</title>
<polygon fill="white" stroke="#bfbfbf" points="859.5,-0.5 859.5,-21.5 924.5,-21.5 924.5,-0.5 859.5,-0.5"/>
<text text-anchor="middle" x="892" y="-8.5" font-family="Helvetica,sans-Serif" font-size="10.00">QVector3D</text>
</g>
<!-- Node11&#45;&gt;Node13 -->
<g id="edge24" class="edge"><title>Node11&#45;&gt;Node13</title>
<path fill="none" stroke="midnightblue" d="M759.438,-117.019C782.314,-109.301 812.215,-97.0383 835,-80 853.343,-66.2839 869.46,-45.4863 879.834,-30.3099"/>
<polygon fill="midnightblue" stroke="midnightblue" points="882.929,-31.974 885.519,-21.7005 877.088,-28.1167 882.929,-31.974"/>
</g>
<!-- Node14 -->
<g id="node27" class="node"><title>Node14</title>
<polygon fill="white" stroke="#bfbfbf" points="1200.5,-58.5 1200.5,-79.5 1267.5,-79.5 1267.5,-58.5 1200.5,-58.5"/>
<text text-anchor="middle" x="1234" y="-66.5" font-family="Helvetica,sans-Serif" font-size="10.00">QMatrix4x4</text>
</g>
<!-- Node11&#45;&gt;Node14 -->
<g id="edge26" class="edge"><title>Node11&#45;&gt;Node14</title>
<path fill="none" stroke="midnightblue" d="M759.264,-122.149C773.683,-120.159 790.646,-117.885 806,-116 946.13,-98.7938 1112.45,-81.3941 1190.05,-73.4515"/>
<polygon fill="midnightblue" stroke="midnightblue" points="1190.8,-76.8926 1200.4,-72.3946 1190.09,-69.9289 1190.8,-76.8926"/>
</g>
<!-- Node15 -->
<g id="node29" class="node"><title>Node15</title>
<a xlink:href="globals_8hpp.html" target="_top" xlink:title="Definitions globales. ">
<polygon fill="white" stroke="black" points="958,-58.5 958,-79.5 1024,-79.5 1024,-58.5 958,-58.5"/>
<text text-anchor="middle" x="991" y="-66.5" font-family="Helvetica,sans-Serif" font-size="10.00">globals.hpp</text>
</a>
</g>
<!-- Node11&#45;&gt;Node15 -->
<g id="edge28" class="edge"><title>Node11&#45;&gt;Node15</title>
<path fill="none" stroke="midnightblue" d="M759.072,-119.113C763.749,-118.054 768.491,-116.991 773,-116 848.855,-99.325 868.184,-96.8505 944,-80 945.265,-79.7187 946.55,-79.4313 947.845,-79.1395"/>
<polygon fill="midnightblue" stroke="midnightblue" points="948.927,-82.4828 957.897,-76.8455 947.369,-75.6583 948.927,-82.4828"/>
</g>
<!-- Node17 -->
<g id="node36" class="node"><title>Node17</title>
<polygon fill="white" stroke="#bfbfbf" points="1683.5,-58.5 1683.5,-79.5 1766.5,-79.5 1766.5,-58.5 1683.5,-58.5"/>
<text text-anchor="middle" x="1725" y="-66.5" font-family="Helvetica,sans-Serif" font-size="10.00">QMetaProperty</text>
</g>
<!-- Node11&#45;&gt;Node17 -->
<g id="edge38" class="edge"><title>Node11&#45;&gt;Node17</title>
<path fill="none" stroke="midnightblue" d="M759.216,-121.706C773.627,-119.645 790.598,-117.437 806,-116 1135.38,-85.267 1533.17,-73.5014 1673.21,-70.1265"/>
<polygon fill="midnightblue" stroke="midnightblue" points="1673.32,-73.625 1683.23,-69.8887 1673.15,-66.627 1673.32,-73.625"/>
</g>
<!-- Node18 -->
<g id="node38" class="node"><title>Node18</title>
<polygon fill="white" stroke="#bfbfbf" points="722,-58.5 722,-79.5 826,-79.5 826,-58.5 722,-58.5"/>
<text text-anchor="middle" x="774" y="-66.5" font-family="Helvetica,sans-Serif" font-size="10.00">QPropertyAnimation</text>
</g>
<!-- Node11&#45;&gt;Node18 -->
<g id="edge40" class="edge"><title>Node11&#45;&gt;Node18</title>
<path fill="none" stroke="midnightblue" d="M733.987,-116.362C740.825,-108.268 750.402,-96.9318 758.472,-87.3796"/>
<polygon fill="midnightblue" stroke="midnightblue" points="761.29,-89.4683 765.07,-79.5707 755.942,-84.9508 761.29,-89.4683"/>
</g>
<!-- Node15&#45;&gt;Node10 -->
<g id="edge36" class="edge"><title>Node15&#45;&gt;Node10</title>
<path fill="none" stroke="midnightblue" d="M957.795,-62.5155C901.222,-51.4677 786.681,-29.0993 728.944,-17.8241"/>
<polygon fill="midnightblue" stroke="midnightblue" points="729.337,-14.3348 718.851,-15.8531 727.995,-21.205 729.337,-14.3348"/>
</g>
<!-- Node15&#45;&gt;Node12 -->
<g id="edge30" class="edge"><title>Node15&#45;&gt;Node12</title>
<path fill="none" stroke="midnightblue" d="M1004.21,-58.3619C1014.76,-49.859 1029.76,-37.7785 1041.96,-27.9466"/>
<polygon fill="midnightblue" stroke="midnightblue" points="1044.29,-30.5696 1049.88,-21.5707 1039.89,-25.1183 1044.29,-30.5696"/>
</g>
<!-- Node15&#45;&gt;Node13 -->
<g id="edge34" class="edge"><title>Node15&#45;&gt;Node13</title>
<path fill="none" stroke="midnightblue" d="M972.842,-58.3619C957.77,-49.532 936.113,-36.844 919.007,-26.8224"/>
<polygon fill="midnightblue" stroke="midnightblue" points="920.441,-23.6058 910.043,-21.5707 916.902,-29.6456 920.441,-23.6058"/>
</g>
<!-- Node16 -->
<g id="node32" class="node"><title>Node16</title>
<polygon fill="white" stroke="#bfbfbf" points="948.5,-0.5 948.5,-21.5 1019.5,-21.5 1019.5,-0.5 948.5,-0.5"/>
<text text-anchor="middle" x="984" y="-8.5" font-family="Helvetica,sans-Serif" font-size="10.00">QQuaternion</text>
</g>
<!-- Node15&#45;&gt;Node16 -->
<g id="edge32" class="edge"><title>Node15&#45;&gt;Node16</title>
<path fill="none" stroke="midnightblue" d="M989.716,-58.3619C988.818,-50.9219 987.59,-40.7427 986.502,-31.7276"/>
<polygon fill="midnightblue" stroke="midnightblue" points="989.949,-31.0792 985.276,-21.5707 982.999,-31.918 989.949,-31.0792"/>
</g>
<!-- Node19&#45;&gt;Node8 -->
<g id="edge90" class="edge"><title>Node19&#45;&gt;Node8</title>
<path fill="none" stroke="midnightblue" d="M903.61,-239.085C891.411,-218.244 864.656,-172.537 849.347,-146.384"/>
<polygon fill="midnightblue" stroke="midnightblue" points="852.345,-144.577 844.272,-137.715 846.304,-148.114 852.345,-144.577"/>
</g>
<!-- Node19&#45;&gt;Node15 -->
<g id="edge88" class="edge"><title>Node19&#45;&gt;Node15</title>
<path fill="none" stroke="midnightblue" d="M890.596,-239.398C851.581,-216.738 770.295,-161.911 806,-116 814.797,-104.688 896.162,-87.2062 948.016,-77.0557"/>
<polygon fill="midnightblue" stroke="midnightblue" points="948.812,-80.4666 957.963,-75.1274 947.48,-73.5946 948.812,-80.4666"/>
</g>
<!-- Node19&#45;&gt;Node17 -->
<g id="edge92" class="edge"><title>Node19&#45;&gt;Node17</title>
<path fill="none" stroke="midnightblue" d="M938.338,-245.409C962.012,-241.63 996.671,-236.225 1027,-232 1194.02,-208.732 1668.39,-264.411 1780,-138 1795.44,-120.516 1773.06,-99.4233 1752.38,-85.1981"/>
<polygon fill="midnightblue" stroke="midnightblue" points="1754.03,-82.0923 1743.74,-79.5527 1750.2,-87.9524 1754.03,-82.0923"/>
</g>
<!-- Node20 -->
<g id="node43" class="node"><title>Node20</title>
<a xlink:href="geometry_8hpp.html" target="_top" xlink:title="geometry.hpp">
<polygon fill="white" stroke="black" points="1081,-174.5 1081,-195.5 1157,-195.5 1157,-174.5 1081,-174.5"/>
<text text-anchor="middle" x="1119" y="-182.5" font-family="Helvetica,sans-Serif" font-size="10.00">geometry.hpp</text>
</a>
</g>
<!-- Node19&#45;&gt;Node20 -->
<g id="edge46" class="edge"><title>Node19&#45;&gt;Node20</title>
<path fill="none" stroke="midnightblue" d="M938.187,-241.234C973.39,-230.285 1034,-211.435 1075.25,-198.605"/>
<polygon fill="midnightblue" stroke="midnightblue" points="1076.53,-201.874 1085.04,-195.562 1074.45,-195.19 1076.53,-201.874"/>
</g>
<!-- Node28 -->
<g id="node70" class="node"><title>Node28</title>
<polygon fill="white" stroke="#bfbfbf" points="879,-116.5 879,-137.5 923,-137.5 923,-116.5 879,-116.5"/>
<text text-anchor="middle" x="901" y="-124.5" font-family="Helvetica,sans-Serif" font-size="10.00">vector</text>
</g>
<!-- Node19&#45;&gt;Node28 -->
<g id="edge94" class="edge"><title>Node19&#45;&gt;Node28</title>
<path fill="none" stroke="midnightblue" d="M909.201,-239.085C907.703,-218.609 904.449,-174.133 902.52,-147.778"/>
<polygon fill="midnightblue" stroke="midnightblue" points="906.005,-147.433 901.784,-137.715 899.023,-147.944 906.005,-147.433"/>
</g>
<!-- Node20&#45;&gt;Node8 -->
<g id="edge60" class="edge"><title>Node20&#45;&gt;Node8</title>
<path fill="none" stroke="midnightblue" d="M1080.65,-179.525C1033.44,-172.4 950.713,-158.666 871.756,-138.216"/>
<polygon fill="midnightblue" stroke="midnightblue" points="872.21,-134.717 861.648,-135.556 870.428,-141.486 872.21,-134.717"/>
</g>
<!-- Node20&#45;&gt;Node12 -->
<g id="edge48" class="edge"><title>Node20&#45;&gt;Node12</title>
<path fill="none" stroke="midnightblue" d="M1089.8,-174.379C1073.78,-166.871 1055.31,-155.07 1046,-138 1027.38,-103.865 1042.11,-57.135 1053.33,-30.9244"/>
<polygon fill="midnightblue" stroke="midnightblue" points="1056.6,-32.2024 1057.53,-21.6487 1050.22,-29.317 1056.6,-32.2024"/>
</g>
<!-- Node20&#45;&gt;Node13 -->
<g id="edge50" class="edge"><title>Node20&#45;&gt;Node13</title>
<path fill="none" stroke="midnightblue" d="M1080.72,-175.93C1055.09,-168.581 1021.49,-156.386 996,-138 954.648,-108.176 920.301,-58.0113 903.364,-30.5017"/>
<polygon fill="midnightblue" stroke="midnightblue" points="906.273,-28.5481 898.116,-21.7866 900.276,-32.1589 906.273,-28.5481"/>
</g>
<!-- Node20&#45;&gt;Node15 -->
<g id="edge62" class="edge"><title>Node20&#45;&gt;Node15</title>
<path fill="none" stroke="midnightblue" d="M1080.97,-176.525C1058.37,-169.66 1030.74,-157.783 1013,-138 1001.09,-124.723 995.627,-104.976 993.119,-90.0044"/>
<polygon fill="midnightblue" stroke="midnightblue" points="996.531,-89.1132 991.721,-79.673 989.594,-90.0521 996.531,-89.1132"/>
</g>
<!-- Node21 -->
<g id="node47" class="node"><title>Node21</title>
<polygon fill="white" stroke="#bfbfbf" points="1783.5,-58.5 1783.5,-79.5 1886.5,-79.5 1886.5,-58.5 1783.5,-58.5"/>
<text text-anchor="middle" x="1835" y="-66.5" font-family="Helvetica,sans-Serif" font-size="10.00">QOpenGLFunctions</text>
</g>
<!-- Node20&#45;&gt;Node21 -->
<g id="edge52" class="edge"><title>Node20&#45;&gt;Node21</title>
<path fill="none" stroke="midnightblue" d="M1157.42,-184.06C1290.24,-180.564 1724.89,-166.998 1780,-138 1800.43,-127.248 1815.87,-105.239 1825.11,-88.9558"/>
<polygon fill="midnightblue" stroke="midnightblue" points="1828.43,-90.1777 1830.05,-79.7086 1822.25,-86.8778 1828.43,-90.1777"/>
</g>
<!-- Node22 -->
<g id="node49" class="node"><title>Node22</title>
<polygon fill="white" stroke="#bfbfbf" points="1055,-116.5 1055,-137.5 1183,-137.5 1183,-116.5 1055,-116.5"/>
<text text-anchor="middle" x="1119" y="-124.5" font-family="Helvetica,sans-Serif" font-size="10.00">QOpenGLShaderProgram</text>
</g>
<!-- Node20&#45;&gt;Node22 -->
<g id="edge54" class="edge"><title>Node20&#45;&gt;Node22</title>
<path fill="none" stroke="midnightblue" d="M1119,-174.362C1119,-166.922 1119,-156.743 1119,-147.728"/>
<polygon fill="midnightblue" stroke="midnightblue" points="1122.5,-147.571 1119,-137.571 1115.5,-147.571 1122.5,-147.571"/>
</g>
<!-- Node23 -->
<g id="node51" class="node"><title>Node23</title>
<polygon fill="white" stroke="#bfbfbf" points="1201,-116.5 1201,-137.5 1287,-137.5 1287,-116.5 1201,-116.5"/>
<text text-anchor="middle" x="1244" y="-124.5" font-family="Helvetica,sans-Serif" font-size="10.00">QOpenGLBuffer</text>
</g>
<!-- Node20&#45;&gt;Node23 -->
<g id="edge56" class="edge"><title>Node20&#45;&gt;Node23</title>
<path fill="none" stroke="midnightblue" d="M1141.64,-174.497C1161.25,-165.397 1189.85,-152.127 1211.83,-141.925"/>
<polygon fill="midnightblue" stroke="midnightblue" points="1213.51,-145.005 1221.11,-137.621 1210.57,-138.655 1213.51,-145.005"/>
</g>
<!-- Node24 -->
<g id="node53" class="node"><title>Node24</title>
<polygon fill="white" stroke="#bfbfbf" points="1305,-116.5 1305,-137.5 1445,-137.5 1445,-116.5 1305,-116.5"/>
<text text-anchor="middle" x="1375" y="-124.5" font-family="Helvetica,sans-Serif" font-size="10.00">QOpenGLVertexArrayObject</text>
</g>
<!-- Node20&#45;&gt;Node24 -->
<g id="edge58" class="edge"><title>Node20&#45;&gt;Node24</title>
<path fill="none" stroke="midnightblue" d="M1157.05,-176.379C1199.79,-166.696 1269.59,-150.883 1318.66,-139.765"/>
<polygon fill="midnightblue" stroke="midnightblue" points="1319.51,-143.161 1328.49,-137.538 1317.96,-136.334 1319.51,-143.161"/>
</g>
<!-- Node25 -->
<g id="node57" class="node"><title>Node25</title>
<a xlink:href="actor_8hpp.html" target="_top" xlink:title="actor.hpp">
<polygon fill="white" stroke="black" points="1714.5,-116.5 1714.5,-137.5 1771.5,-137.5 1771.5,-116.5 1714.5,-116.5"/>
<text text-anchor="middle" x="1743" y="-124.5" font-family="Helvetica,sans-Serif" font-size="10.00">actor.hpp</text>
</a>
</g>
<!-- Node20&#45;&gt;Node25 -->
<g id="edge64" class="edge"><title>Node20&#45;&gt;Node25</title>
<path fill="none" stroke="midnightblue" d="M1157.21,-182.987C1266.87,-177.05 1582.09,-158.815 1704.59,-137.897"/>
<polygon fill="midnightblue" stroke="midnightblue" points="1705.24,-141.338 1714.46,-136.127 1704,-134.448 1705.24,-141.338"/>
</g>
<!-- Node26 -->
<g id="node63" class="node"><title>Node26</title>
<a xlink:href="material_8hpp.html" target="_top" xlink:title="material.hpp">
<polygon fill="white" stroke="black" points="1627,-116.5 1627,-137.5 1697,-137.5 1697,-116.5 1627,-116.5"/>
<text text-anchor="middle" x="1662" y="-124.5" font-family="Helvetica,sans-Serif" font-size="10.00">material.hpp</text>
</a>
</g>
<!-- Node20&#45;&gt;Node26 -->
<g id="edge74" class="edge"><title>Node20&#45;&gt;Node26</title>
<path fill="none" stroke="midnightblue" d="M1157.29,-181.51C1236.37,-174.214 1423.41,-156.481 1580,-138 1591.92,-136.594 1604.79,-134.934 1616.72,-133.336"/>
<polygon fill="midnightblue" stroke="midnightblue" points="1617.48,-136.765 1626.92,-131.956 1616.54,-129.829 1617.48,-136.765"/>
</g>
<!-- Node27 -->
<g id="node68" class="node"><title>Node27</title>
<polygon fill="white" stroke="#bfbfbf" points="1463,-116.5 1463,-137.5 1515,-137.5 1515,-116.5 1463,-116.5"/>
<text text-anchor="middle" x="1489" y="-124.5" font-family="Helvetica,sans-Serif" font-size="10.00">memory</text>
</g>
<!-- Node20&#45;&gt;Node27 -->
<g id="edge82" class="edge"><title>Node20&#45;&gt;Node27</title>
<path fill="none" stroke="midnightblue" d="M1157.05,-181.726C1217.8,-176.052 1340.52,-162.763 1452.95,-137.958"/>
<polygon fill="midnightblue" stroke="midnightblue" points="1453.76,-141.364 1462.75,-135.76 1452.23,-134.533 1453.76,-141.364"/>
</g>
<!-- Node20&#45;&gt;Node28 -->
<g id="edge84" class="edge"><title>Node20&#45;&gt;Node28</title>
<path fill="none" stroke="midnightblue" d="M1080.87,-175.671C1043.96,-166.517 986.472,-151.939 937,-138 935.585,-137.601 934.14,-137.188 932.682,-136.765"/>
<polygon fill="midnightblue" stroke="midnightblue" points="933.622,-133.393 923.04,-133.901 931.63,-140.103 933.622,-133.393"/>
</g>
<!-- Node29 -->
<g id="node72" class="node"><title>Node29</title>
<polygon fill="white" stroke="#bfbfbf" points="1533,-116.5 1533,-137.5 1571,-137.5 1571,-116.5 1533,-116.5"/>
<text text-anchor="middle" x="1552" y="-124.5" font-family="Helvetica,sans-Serif" font-size="10.00">tuple</text>
</g>
<!-- Node20&#45;&gt;Node29 -->
<g id="edge86" class="edge"><title>Node20&#45;&gt;Node29</title>
<path fill="none" stroke="midnightblue" d="M1157.28,-183.847C1228.14,-181.01 1384.43,-171.461 1522.99,-137.715"/>
<polygon fill="midnightblue" stroke="midnightblue" points="1524.07,-141.053 1532.93,-135.244 1522.39,-134.259 1524.07,-141.053"/>
</g>
<!-- Node25&#45;&gt;Node14 -->
<g id="edge68" class="edge"><title>Node25&#45;&gt;Node14</title>
<path fill="none" stroke="midnightblue" d="M1714.45,-117.929C1711.61,-117.204 1708.76,-116.543 1706,-116 1550.25,-85.3809 1361.45,-74.2252 1277.67,-70.582"/>
<polygon fill="midnightblue" stroke="midnightblue" points="1277.65,-67.078 1267.51,-70.1548 1277.35,-74.0718 1277.65,-67.078"/>
</g>
<!-- Node25&#45;&gt;Node15 -->
<g id="edge66" class="edge"><title>Node25&#45;&gt;Node15</title>
<path fill="none" stroke="midnightblue" d="M1714.47,-117.832C1711.63,-117.126 1708.77,-116.496 1706,-116 1672.85,-110.061 1184.16,-80.5382 1034.34,-71.5809"/>
<polygon fill="midnightblue" stroke="midnightblue" points="1034.34,-68.0748 1024.15,-70.9721 1033.92,-75.0623 1034.34,-68.0748"/>
</g>
<!-- Node25&#45;&gt;Node17 -->
<g id="edge72" class="edge"><title>Node25&#45;&gt;Node17</title>
<path fill="none" stroke="midnightblue" d="M1739.7,-116.362C1737.34,-108.758 1734.09,-98.294 1731.25,-89.1349"/>
<polygon fill="midnightblue" stroke="midnightblue" points="1734.59,-88.0839 1728.28,-79.5707 1727.9,-90.1587 1734.59,-88.0839"/>
</g>
<!-- Node25&#45;&gt;Node21 -->
<g id="edge70" class="edge"><title>Node25&#45;&gt;Node21</title>
<path fill="none" stroke="midnightblue" d="M1759.87,-116.362C1773.75,-107.614 1793.63,-95.0786 1809.46,-85.1015"/>
<polygon fill="midnightblue" stroke="midnightblue" points="1811.64,-87.8645 1818.23,-79.5707 1807.91,-81.943 1811.64,-87.8645"/>
</g>
<!-- Node26&#45;&gt;Node12 -->
<g id="edge76" class="edge"><title>Node26&#45;&gt;Node12</title>
<path fill="none" stroke="midnightblue" d="M1626.97,-118.991C1622.28,-117.961 1617.52,-116.939 1613,-116 1420.24,-75.9753 1188.26,-33.5659 1099.75,-17.5929"/>
<polygon fill="midnightblue" stroke="midnightblue" points="1100.14,-14.107 1089.68,-15.7779 1098.9,-20.9961 1100.14,-14.107"/>
</g>
<!-- Node26&#45;&gt;Node15 -->
<g id="edge78" class="edge"><title>Node26&#45;&gt;Node15</title>
<path fill="none" stroke="midnightblue" d="M1626.79,-118.452C1622.17,-117.52 1617.48,-116.669 1613,-116 1500.86,-99.2667 1156.02,-78.4621 1034.18,-71.442"/>
<polygon fill="midnightblue" stroke="midnightblue" points="1034.3,-67.9427 1024.11,-70.8638 1033.89,-74.9312 1034.3,-67.9427"/>
</g>
<!-- Node26&#45;&gt;Node17 -->
<g id="edge80" class="edge"><title>Node26&#45;&gt;Node17</title>
<path fill="none" stroke="midnightblue" d="M1673.56,-116.362C1682.61,-108.023 1695.41,-96.2418 1705.97,-86.5162"/>
<polygon fill="midnightblue" stroke="midnightblue" points="1708.53,-88.9187 1713.52,-79.5707 1703.79,-83.7688 1708.53,-88.9187"/>
</g>
<!-- Node30&#45;&gt;Node8 -->
<g id="edge102" class="edge"><title>Node30&#45;&gt;Node8</title>
<path fill="none" stroke="midnightblue" d="M1047.99,-239.3C1007.19,-217.482 914.266,-167.786 866.906,-142.459"/>
<polygon fill="midnightblue" stroke="midnightblue" points="868.267,-139.217 857.799,-137.588 864.966,-145.39 868.267,-139.217"/>
</g>
<!-- Node30&#45;&gt;Node17 -->
<g id="edge100" class="edge"><title>Node30&#45;&gt;Node17</title>
<path fill="none" stroke="midnightblue" d="M1100.82,-247.77C1244.37,-238.001 1809.92,-199.316 1813,-196 1837.22,-169.965 1831.28,-146.494 1813,-116 1804.15,-101.238 1788.91,-90.8547 1773.57,-83.6748"/>
<polygon fill="midnightblue" stroke="midnightblue" points="1774.64,-80.3242 1764.07,-79.6077 1771.89,-86.7597 1774.64,-80.3242"/>
</g>
<!-- Node30&#45;&gt;Node20 -->
<g id="edge98" class="edge"><title>Node30&#45;&gt;Node20</title>
<path fill="none" stroke="midnightblue" d="M1076.42,-239.267C1084,-229.612 1095.29,-215.215 1104.35,-203.675"/>
<polygon fill="midnightblue" stroke="midnightblue" points="1107.32,-205.562 1110.74,-195.534 1101.81,-201.241 1107.32,-205.562"/>
</g>
<!-- Node31&#45;&gt;Node12 -->
<g id="edge110" class="edge"><title>Node31&#45;&gt;Node12</title>
<path fill="none" stroke="midnightblue" d="M1924.42,-174.377C1927.09,-149.543 1929.73,-87.5593 1895,-58 1864.31,-31.8768 1256.42,-15.6153 1099.64,-11.8448"/>
<polygon fill="midnightblue" stroke="midnightblue" points="1099.64,-8.34391 1089.56,-11.6047 1099.47,-15.3419 1099.64,-8.34391"/>
</g>
<!-- Node31&#45;&gt;Node15 -->
<g id="edge106" class="edge"><title>Node31&#45;&gt;Node15</title>
<path fill="none" stroke="midnightblue" d="M1893.1,-184.047C1837.43,-181.485 1714.76,-172.104 1618,-138 1599.59,-131.513 1598.63,-121.808 1580,-116 1528.32,-99.8894 1161.48,-78.3956 1034.29,-71.3466"/>
<polygon fill="midnightblue" stroke="midnightblue" points="1034.32,-67.8431 1024.15,-70.7868 1033.94,-74.8325 1034.32,-67.8431"/>
</g>
<!-- Node31&#45;&gt;Node25 -->
<g id="edge108" class="edge"><title>Node31&#45;&gt;Node25</title>
<path fill="none" stroke="midnightblue" d="M1893.28,-175.422C1862.69,-165.567 1814.91,-150.172 1781.46,-139.394"/>
<polygon fill="midnightblue" stroke="midnightblue" points="1782.17,-135.944 1771.58,-136.208 1780.02,-142.607 1782.17,-135.944"/>
</g>
<!-- Node32 -->
<g id="node88" class="node"><title>Node32</title>
<polygon fill="white" stroke="#bfbfbf" points="1942,-116.5 1942,-137.5 1982,-137.5 1982,-116.5 1942,-116.5"/>
<text text-anchor="middle" x="1962" y="-124.5" font-family="Helvetica,sans-Serif" font-size="10.00">QList</text>
</g>
<!-- Node31&#45;&gt;Node32 -->
<g id="edge112" class="edge"><title>Node31&#45;&gt;Node32</title>
<path fill="none" stroke="midnightblue" d="M1930.15,-174.362C1935.49,-166.431 1942.91,-155.389 1949.25,-145.961"/>
<polygon fill="midnightblue" stroke="midnightblue" points="1952.22,-147.822 1954.89,-137.571 1946.41,-143.916 1952.22,-147.822"/>
</g>
</g>
</svg>
