<?xml version="1.0" encoding="UTF-8" standalone="no"?>
<!DOCTYPE svg PUBLIC "-//W3C//DTD SVG 1.1//EN"
 "http://www.w3.org/Graphics/SVG/1.1/DTD/svg11.dtd">
<!-- Generated by graphviz version 2.26.3 (20100126.1600)
 -->
<!-- Title: include/world.hpp Pages: 1 -->
<svg width="450pt" height="204pt"
 viewBox="0.00 0.00 450.00 204.00" xmlns="http://www.w3.org/2000/svg" xmlns:xlink="http://www.w3.org/1999/xlink">
<g id="graph1" class="graph" transform="scale(1 1) rotate(0) translate(4 200)">
<title>include/world.hpp</title>
<polygon fill="white" stroke="white" points="-4,5 -4,-200 447,-200 447,5 -4,5"/>
<!-- Node1 -->
<g id="node1" class="node"><title>Node1</title>
<polygon fill="#bfbfbf" stroke="black" points="101,-174.5 101,-195.5 193,-195.5 193,-174.5 101,-174.5"/>
<text text-anchor="middle" x="147" y="-182.5" font-family="Helvetica,sans-Serif" font-size="10.00">include/world.hpp</text>
</g>
<!-- Node2 -->
<g id="node3" class="node"><title>Node2</title>
<a xlink:href="globals_8hpp.html" target="_top" xlink:title="Definitions globales. ">
<polygon fill="white" stroke="black" points="72,-58.5 72,-79.5 138,-79.5 138,-58.5 72,-58.5"/>
<text text-anchor="middle" x="105" y="-66.5" font-family="Helvetica,sans-Serif" font-size="10.00">globals.hpp</text>
</a>
</g>
<!-- Node1&#45;&gt;Node2 -->
<g id="edge2" class="edge"><title>Node1&#45;&gt;Node2</title>
<path fill="none" stroke="midnightblue" d="M143.124,-174.295C136.123,-154.959 121.265,-113.923 112.305,-89.1767"/>
<polygon fill="midnightblue" stroke="midnightblue" points="115.562,-87.8903 108.867,-79.6792 108.98,-90.2734 115.562,-87.8903"/>
</g>
<!-- Node3 -->
<g id="node5" class="node"><title>Node3</title>
<polygon fill="white" stroke="#bfbfbf" points="-0.5,-0.5 -0.5,-21.5 52.5,-21.5 52.5,-0.5 -0.5,-0.5"/>
<text text-anchor="middle" x="26" y="-8.5" font-family="Helvetica,sans-Serif" font-size="10.00">QObject</text>
</g>
<!-- Node1&#45;&gt;Node3 -->
<g id="edge22" class="edge"><title>Node1&#45;&gt;Node3</title>
<path fill="none" stroke="midnightblue" d="M137.486,-174.463C121.147,-156.085 87.1792,-116.627 63,-80 52.5147,-64.1168 42.4309,-44.9672 35.4459,-30.8755"/>
<polygon fill="midnightblue" stroke="midnightblue" points="38.4686,-29.0881 30.946,-21.6275 32.1742,-32.1509 38.4686,-29.0881"/>
</g>
<!-- Node7 -->
<g id="node13" class="node"><title>Node7</title>
<a xlink:href="actor_8hpp.html" target="_top" xlink:title="actor.hpp">
<polygon fill="white" stroke="black" points="153.5,-116.5 153.5,-137.5 210.5,-137.5 210.5,-116.5 153.5,-116.5"/>
<text text-anchor="middle" x="182" y="-124.5" font-family="Helvetica,sans-Serif" font-size="10.00">actor.hpp</text>
</a>
</g>
<!-- Node1&#45;&gt;Node7 -->
<g id="edge12" class="edge"><title>Node1&#45;&gt;Node7</title>
<path fill="none" stroke="midnightblue" d="M153.42,-174.362C158.156,-166.513 164.732,-155.616 170.382,-146.253"/>
<polygon fill="midnightblue" stroke="midnightblue" points="173.451,-147.941 175.621,-137.571 167.458,-144.324 173.451,-147.941"/>
</g>
<!-- Node11 -->
<g id="node23" class="node"><title>Node11</title>
<polygon fill="white" stroke="#bfbfbf" points="228,-116.5 228,-137.5 268,-137.5 268,-116.5 228,-116.5"/>
<text text-anchor="middle" x="248" y="-124.5" font-family="Helvetica,sans-Serif" font-size="10.00">QList</text>
</g>
<!-- Node1&#45;&gt;Node11 -->
<g id="edge24" class="edge"><title>Node1&#45;&gt;Node11</title>
<path fill="none" stroke="midnightblue" d="M165.525,-174.362C180.901,-165.532 202.996,-152.844 220.447,-142.822"/>
<polygon fill="midnightblue" stroke="midnightblue" points="222.664,-145.586 229.592,-137.571 219.178,-139.515 222.664,-145.586"/>
</g>
<!-- Node2&#45;&gt;Node3 -->
<g id="edge4" class="edge"><title>Node2&#45;&gt;Node3</title>
<path fill="none" stroke="midnightblue" d="M90.5102,-58.3619C78.8173,-49.7773 62.1573,-37.5459 48.6969,-27.6636"/>
<polygon fill="midnightblue" stroke="midnightblue" points="50.5301,-24.6675 40.398,-21.5707 46.3874,-30.31 50.5301,-24.6675"/>
</g>
<!-- Node4 -->
<g id="node7" class="node"><title>Node4</title>
<polygon fill="white" stroke="#bfbfbf" points="69.5,-0.5 69.5,-21.5 140.5,-21.5 140.5,-0.5 69.5,-0.5"/>
<text text-anchor="middle" x="105" y="-8.5" font-family="Helvetica,sans-Serif" font-size="10.00">QQuaternion</text>
</g>
<!-- Node2&#45;&gt;Node4 -->
<g id="edge6" class="edge"><title>Node2&#45;&gt;Node4</title>
<path fill="none" stroke="midnightblue" d="M105,-58.3619C105,-50.9219 105,-40.7427 105,-31.7276"/>
<polygon fill="midnightblue" stroke="midnightblue" points="108.5,-31.5706 105,-21.5707 101.5,-31.5707 108.5,-31.5706"/>
</g>
<!-- Node5 -->
<g id="node9" class="node"><title>Node5</title>
<polygon fill="white" stroke="#bfbfbf" points="157.5,-0.5 157.5,-21.5 222.5,-21.5 222.5,-0.5 157.5,-0.5"/>
<text text-anchor="middle" x="190" y="-8.5" font-family="Helvetica,sans-Serif" font-size="10.00">QVector3D</text>
</g>
<!-- Node2&#45;&gt;Node5 -->
<g id="edge8" class="edge"><title>Node2&#45;&gt;Node5</title>
<path fill="none" stroke="midnightblue" d="M120.59,-58.3619C133.291,-49.6955 151.438,-37.3126 165.992,-27.3819"/>
<polygon fill="midnightblue" stroke="midnightblue" points="168.221,-30.0982 174.509,-21.5707 164.276,-24.316 168.221,-30.0982"/>
</g>
<!-- Node6 -->
<g id="node11" class="node"><title>Node6</title>
<polygon fill="white" stroke="#bfbfbf" points="239.5,-0.5 239.5,-21.5 288.5,-21.5 288.5,-0.5 239.5,-0.5"/>
<text text-anchor="middle" x="264" y="-8.5" font-family="Helvetica,sans-Serif" font-size="10.00">QtMath</text>
</g>
<!-- Node2&#45;&gt;Node6 -->
<g id="edge10" class="edge"><title>Node2&#45;&gt;Node6</title>
<path fill="none" stroke="midnightblue" d="M133.794,-58.4966C160.771,-48.6557 201.119,-33.9377 229.741,-23.4972"/>
<polygon fill="midnightblue" stroke="midnightblue" points="231.139,-26.7127 239.334,-19.9976 228.74,-20.1365 231.139,-26.7127"/>
</g>
<!-- Node7&#45;&gt;Node2 -->
<g id="edge14" class="edge"><title>Node7&#45;&gt;Node2</title>
<path fill="none" stroke="midnightblue" d="M167.877,-116.362C156.48,-107.777 140.242,-95.5459 127.122,-85.6636"/>
<polygon fill="midnightblue" stroke="midnightblue" points="129.127,-82.7916 119.033,-79.5707 124.915,-88.3829 129.127,-82.7916"/>
</g>
<!-- Node8 -->
<g id="node16" class="node"><title>Node8</title>
<polygon fill="white" stroke="#bfbfbf" points="155.5,-58.5 155.5,-79.5 222.5,-79.5 222.5,-58.5 155.5,-58.5"/>
<text text-anchor="middle" x="189" y="-66.5" font-family="Helvetica,sans-Serif" font-size="10.00">QMatrix4x4</text>
</g>
<!-- Node7&#45;&gt;Node8 -->
<g id="edge16" class="edge"><title>Node7&#45;&gt;Node8</title>
<path fill="none" stroke="midnightblue" d="M183.284,-116.362C184.182,-108.922 185.41,-98.7427 186.498,-89.7276"/>
<polygon fill="midnightblue" stroke="midnightblue" points="190.001,-89.918 187.724,-79.5707 183.051,-89.0792 190.001,-89.918"/>
</g>
<!-- Node9 -->
<g id="node18" class="node"><title>Node9</title>
<polygon fill="white" stroke="#bfbfbf" points="239.5,-58.5 239.5,-79.5 342.5,-79.5 342.5,-58.5 239.5,-58.5"/>
<text text-anchor="middle" x="291" y="-66.5" font-family="Helvetica,sans-Serif" font-size="10.00">QOpenGLFunctions</text>
</g>
<!-- Node7&#45;&gt;Node9 -->
<g id="edge18" class="edge"><title>Node7&#45;&gt;Node9</title>
<path fill="none" stroke="midnightblue" d="M201.739,-116.497C218.61,-107.519 243.109,-94.4835 262.174,-84.3387"/>
<polygon fill="midnightblue" stroke="midnightblue" points="263.856,-87.4086 271.039,-79.6212 260.567,-81.2289 263.856,-87.4086"/>
</g>
<!-- Node10 -->
<g id="node20" class="node"><title>Node10</title>
<polygon fill="white" stroke="#bfbfbf" points="359.5,-58.5 359.5,-79.5 442.5,-79.5 442.5,-58.5 359.5,-58.5"/>
<text text-anchor="middle" x="401" y="-66.5" font-family="Helvetica,sans-Serif" font-size="10.00">QMetaProperty</text>
</g>
<!-- Node7&#45;&gt;Node10 -->
<g id="edge20" class="edge"><title>Node7&#45;&gt;Node10</title>
<path fill="none" stroke="midnightblue" d="M210.654,-118.37C213.47,-117.555 216.288,-116.753 219,-116 262.831,-103.829 312.891,-90.9776 349.4,-81.7951"/>
<polygon fill="midnightblue" stroke="midnightblue" points="350.474,-85.1342 359.322,-79.3061 348.771,-78.3446 350.474,-85.1342"/>
</g>
</g>
</svg>
