<?xml version="1.0" encoding="UTF-8" standalone="no"?>
<!DOCTYPE svg PUBLIC "-//W3C//DTD SVG 1.1//EN"
 "http://www.w3.org/Graphics/SVG/1.1/DTD/svg11.dtd">
<!-- Generated by graphviz version 2.26.3 (20100126.1600)
 -->
<!-- Title: include/world.hpp Pages: 1 -->
<svg width="600pt" height="146pt"
 viewBox="0.00 0.00 600.00 146.00" xmlns="http://www.w3.org/2000/svg" xmlns:xlink="http://www.w3.org/1999/xlink">
<g id="graph1" class="graph" transform="scale(1 1) rotate(0) translate(4 142)">
<title>include/world.hpp</title>
<polygon fill="white" stroke="white" points="-4,5 -4,-142 597,-142 597,5 -4,5"/>
<!-- Node1 -->
<g id="node1" class="node"><title>Node1</title>
<polygon fill="#bfbfbf" stroke="black" points="303,-116.5 303,-137.5 395,-137.5 395,-116.5 303,-116.5"/>
<text text-anchor="middle" x="349" y="-124.5" font-family="Helvetica,sans-Serif" font-size="10.00">include/world.hpp</text>
</g>
<!-- Node2 -->
<g id="node3" class="node"><title>Node2</title>
<a xlink:href="viewport_8hpp.html" target="_top" xlink:title="include/viewport.hpp">
<polygon fill="white" stroke="black" points="242,-58.5 242,-79.5 348,-79.5 348,-58.5 242,-58.5"/>
<text text-anchor="middle" x="295" y="-66.5" font-family="Helvetica,sans-Serif" font-size="10.00">include/viewport.hpp</text>
</a>
</g>
<!-- Node1&#45;&gt;Node2 -->
<g id="edge2" class="edge"><title>Node1&#45;&gt;Node2</title>
<path fill="none" stroke="midnightblue" d="M332.083,-108.83C323.125,-99.2078 312.437,-87.7282 304.842,-79.5707"/>
<polygon fill="midnightblue" stroke="midnightblue" points="329.72,-111.428 339.096,-116.362 334.843,-106.658 329.72,-111.428"/>
</g>
<!-- Node9 -->
<g id="node17" class="node"><title>Node9</title>
<a xlink:href="world_8cpp.html" target="_top" xlink:title="src/world.cpp">
<polygon fill="white" stroke="black" points="365.5,-58.5 365.5,-79.5 440.5,-79.5 440.5,-58.5 365.5,-58.5"/>
<text text-anchor="middle" x="403" y="-66.5" font-family="Helvetica,sans-Serif" font-size="10.00">src/world.cpp</text>
</a>
</g>
<!-- Node1&#45;&gt;Node9 -->
<g id="edge16" class="edge"><title>Node1&#45;&gt;Node9</title>
<path fill="none" stroke="midnightblue" d="M365.917,-108.83C374.875,-99.2078 385.563,-87.7282 393.158,-79.5707"/>
<polygon fill="midnightblue" stroke="midnightblue" points="363.157,-106.658 358.904,-116.362 368.28,-111.428 363.157,-106.658"/>
</g>
<!-- Node3 -->
<g id="node5" class="node"><title>Node3</title>
<a xlink:href="actor_8cpp.html" target="_top" xlink:title="src/actor.cpp">
<polygon fill="white" stroke="black" points="0,-0.5 0,-21.5 74,-21.5 74,-0.5 0,-0.5"/>
<text text-anchor="middle" x="37" y="-8.5" font-family="Helvetica,sans-Serif" font-size="10.00">src/actor.cpp</text>
</a>
</g>
<!-- Node2&#45;&gt;Node3 -->
<g id="edge4" class="edge"><title>Node2&#45;&gt;Node3</title>
<path fill="none" stroke="midnightblue" d="M236.616,-56.3287C194.002,-47.0138 134.866,-33.9497 83,-22 80.1194,-21.3363 77.1393,-20.6418 74.1447,-19.9382"/>
<polygon fill="midnightblue" stroke="midnightblue" points="236.018,-59.7804 246.534,-58.4942 237.511,-52.9415 236.018,-59.7804"/>
</g>
<!-- Node4 -->
<g id="node7" class="node"><title>Node4</title>
<a xlink:href="fileloader_8cpp.html" target="_top" xlink:title="src/fileloader.cpp">
<polygon fill="white" stroke="black" points="91.5,-0.5 91.5,-21.5 182.5,-21.5 182.5,-0.5 91.5,-0.5"/>
<text text-anchor="middle" x="137" y="-8.5" font-family="Helvetica,sans-Serif" font-size="10.00">src/fileloader.cpp</text>
</a>
</g>
<!-- Node2&#45;&gt;Node4 -->
<g id="edge6" class="edge"><title>Node2&#45;&gt;Node4</title>
<path fill="none" stroke="midnightblue" d="M256.888,-55.0095C228.81,-44.7023 191.218,-30.903 165.666,-21.5231"/>
<polygon fill="midnightblue" stroke="midnightblue" points="255.794,-58.3362 266.387,-58.4966 258.206,-51.7649 255.794,-58.3362"/>
</g>
<!-- Node5 -->
<g id="node9" class="node"><title>Node5</title>
<a xlink:href="geometry_8cpp.html" target="_top" xlink:title="src/geometry.cpp">
<polygon fill="white" stroke="black" points="200,-0.5 200,-21.5 292,-21.5 292,-0.5 200,-0.5"/>
<text text-anchor="middle" x="246" y="-8.5" font-family="Helvetica,sans-Serif" font-size="10.00">src/geometry.cpp</text>
</a>
</g>
<!-- Node2&#45;&gt;Node5 -->
<g id="edge8" class="edge"><title>Node2&#45;&gt;Node5</title>
<path fill="none" stroke="midnightblue" d="M279.405,-50.5407C271.327,-40.9786 261.753,-29.6467 254.93,-21.5707"/>
<polygon fill="midnightblue" stroke="midnightblue" points="276.885,-52.9818 286.013,-58.3619 282.233,-48.4643 276.885,-52.9818"/>
</g>
<!-- Node6 -->
<g id="node11" class="node"><title>Node6</title>
<a xlink:href="light_8cpp.html" target="_top" xlink:title="src/light.cpp">
<polygon fill="white" stroke="black" points="310,-0.5 310,-21.5 380,-21.5 380,-0.5 310,-0.5"/>
<text text-anchor="middle" x="345" y="-8.5" font-family="Helvetica,sans-Serif" font-size="10.00">src/light.cpp</text>
</a>
</g>
<!-- Node2&#45;&gt;Node6 -->
<g id="edge10" class="edge"><title>Node2&#45;&gt;Node6</title>
<path fill="none" stroke="midnightblue" d="M310.913,-50.5407C319.156,-40.9786 328.925,-29.6467 335.887,-21.5707"/>
<polygon fill="midnightblue" stroke="midnightblue" points="308.049,-48.5025 304.171,-58.3619 313.351,-53.0731 308.049,-48.5025"/>
</g>
<!-- Node7 -->
<g id="node13" class="node"><title>Node7</title>
<a xlink:href="spotlight_8cpp.html" target="_top" xlink:title="src/spotlight.cpp">
<polygon fill="white" stroke="black" points="397.5,-0.5 397.5,-21.5 486.5,-21.5 486.5,-0.5 397.5,-0.5"/>
<text text-anchor="middle" x="442" y="-8.5" font-family="Helvetica,sans-Serif" font-size="10.00">src/spotlight.cpp</text>
</a>
</g>
<!-- Node2&#45;&gt;Node7 -->
<g id="edge12" class="edge"><title>Node2&#45;&gt;Node7</title>
<path fill="none" stroke="midnightblue" d="M331.114,-54.7509C357.073,-44.5086 391.512,-30.9206 415.081,-21.6212"/>
<polygon fill="midnightblue" stroke="midnightblue" points="329.638,-51.5706 321.621,-58.4966 332.207,-58.0821 329.638,-51.5706"/>
</g>
<!-- Node8 -->
<g id="node15" class="node"><title>Node8</title>
<a xlink:href="viewport_8cpp.html" target="_top" xlink:title="src/viewport.cpp">
<polygon fill="white" stroke="black" points="503.5,-0.5 503.5,-21.5 592.5,-21.5 592.5,-0.5 503.5,-0.5"/>
<text text-anchor="middle" x="548" y="-8.5" font-family="Helvetica,sans-Serif" font-size="10.00">src/viewport.cpp</text>
</a>
</g>
<!-- Node2&#45;&gt;Node8 -->
<g id="edge14" class="edge"><title>Node2&#45;&gt;Node8</title>
<path fill="none" stroke="midnightblue" d="M350.607,-56.2522C396.504,-45.7303 460.79,-30.9929 503.374,-21.2305"/>
<polygon fill="midnightblue" stroke="midnightblue" points="349.781,-52.8505 340.816,-58.4966 351.346,-59.6735 349.781,-52.8505"/>
</g>
</g>
</svg>
