<?xml version="1.0" encoding="UTF-8" standalone="no"?>
<!DOCTYPE svg PUBLIC "-//W3C//DTD SVG 1.1//EN"
 "http://www.w3.org/Graphics/SVG/1.1/DTD/svg11.dtd">
<!-- Generated by graphviz version 2.26.3 (20100126.1600)
 -->
<!-- Title: src/world.cpp Pages: 1 -->
<!--zoomable 320 -->
<svg id="main" version="1.1" xmlns="http://www.w3.org/2000/svg" xmlns:xlink="http://www.w3.org/1999/xlink" xml:space="preserve" onload="init(evt)">
<style type="text/css"><![CDATA[
.edge:hover path { stroke: red; }
.edge:hover polygon { stroke: red; fill: red; }
]]></style>
<script type="text/javascript"><![CDATA[
var edges = document.getElementsByTagName('g');
if (edges && edges.length) {
  for (var i=0;i<edges.length;i++) {
    if (edges[i].id.substr(0,4)=='edge') {
      edges[i].setAttribute('class','edge');
    }
  }
}
]]></script>
        <defs>
                <circle id="rim" cx="0" cy="0" r="7"/>
                <circle id="rim2" cx="0" cy="0" r="3.5"/>
                <g id="zoomPlus">
                        <use xlink:href="#rim" fill="#404040">
                                <set attributeName="fill" to="#808080" begin="zoomplus.mouseover" end="zoomplus.mouseout"/>
                        </use>
                        <path d="M-4,0h8M0,-4v8" fill="none" stroke="white" stroke-width="1.5" pointer-events="none"/>
                </g>
                <g id="zoomMin">
                        <use xlink:href="#rim" fill="#404040">
                                <set attributeName="fill" to="#808080" begin="zoomminus.mouseover" end="zoomminus.mouseout"/>
                        </use>
                        <path d="M-4,0h8" fill="none" stroke="white" stroke-width="1.5" pointer-events="none"/>
                </g>
                <g id="dirArrow">
                        <path fill="none" stroke="white" stroke-width="1.5" d="M0,-3.0v7 M-2.5,-0.5L0,-3.0L2.5,-0.5"/>
                </g>
               <g id="resetDef">
                       <use xlink:href="#rim2" fill="#404040">
                               <set attributeName="fill" to="#808080" begin="reset.mouseover" end="reset.mouseout"/>
                       </use>
               </g>
        </defs>

<script type="text/javascript">
var viewWidth = 1157;
var viewHeight = 320;
var sectionId = 'dynsection-0';
</script>
<script xlink:href="svgpan.js"/>
<svg id="graph" class="graph">
<g id="viewport">
<title>src/world.cpp</title>
<polygon fill="white" stroke="white" points="-4,5 -4,-316 1153.84,-316 1153.84,5 -4,5"/>
<!-- Node1 -->
<g id="node1" class="node"><title>Node1</title>
<polygon fill="#bfbfbf" stroke="black" points="165.338,-290.5 165.338,-311.5 240.338,-311.5 240.338,-290.5 165.338,-290.5"/>
<text text-anchor="middle" x="202.838" y="-298.5" font-family="Helvetica,sans-Serif" font-size="10.00">src/world.cpp</text>
</g>
<!-- Node2 -->
<g id="node3" class="node"><title>Node2</title>
<a xlink:href="world_8hpp.html" target="_top" xlink:title="world.hpp">
<polygon fill="white" stroke="black" points="8.33805,-174.5 8.33805,-195.5 67.3381,-195.5 67.3381,-174.5 8.33805,-174.5"/>
<text text-anchor="middle" x="37.8381" y="-182.5" font-family="Helvetica,sans-Serif" font-size="10.00">world.hpp</text>
</a>
</g>
<!-- Node1&#45;&gt;Node2 -->
<g id="edge2" class="edge"><title>Node1&#45;&gt;Node2</title>
<path fill="none" stroke="midnightblue" d="M187.611,-290.295C158.756,-270.009 95.9298,-225.84 61.526,-201.653"/>
<polygon fill="midnightblue" stroke="midnightblue" points="63.2219,-198.567 53.0283,-195.679 59.196,-204.294 63.2219,-198.567"/>
</g>
<!-- Node13 -->
<g id="node27" class="node"><title>Node13</title>
<a xlink:href="sphere_8hpp.html" target="_top" xlink:title="sphere.hpp">
<polygon fill="white" stroke="black" points="170.338,-232.5 170.338,-253.5 235.338,-253.5 235.338,-232.5 170.338,-232.5"/>
<text text-anchor="middle" x="202.838" y="-240.5" font-family="Helvetica,sans-Serif" font-size="10.00">sphere.hpp</text>
</a>
</g>
<!-- Node1&#45;&gt;Node13 -->
<g id="edge28" class="edge"><title>Node1&#45;&gt;Node13</title>
<path fill="none" stroke="midnightblue" d="M202.838,-290.362C202.838,-282.922 202.838,-272.743 202.838,-263.728"/>
<polygon fill="midnightblue" stroke="midnightblue" points="206.338,-263.571 202.838,-253.571 199.338,-263.571 206.338,-263.571"/>
</g>
<!-- Node23 -->
<g id="node57" class="node"><title>Node23</title>
<a xlink:href="cube_8hpp.html" target="_top" xlink:title="cube.hpp">
<polygon fill="white" stroke="black" points="270.838,-232.5 270.838,-253.5 326.838,-253.5 326.838,-232.5 270.838,-232.5"/>
<text text-anchor="middle" x="298.838" y="-240.5" font-family="Helvetica,sans-Serif" font-size="10.00">cube.hpp</text>
</a>
</g>
<!-- Node1&#45;&gt;Node23 -->
<g id="edge68" class="edge"><title>Node1&#45;&gt;Node23</title>
<path fill="none" stroke="midnightblue" d="M220.446,-290.362C235.061,-281.532 256.062,-268.844 272.649,-258.822"/>
<polygon fill="midnightblue" stroke="midnightblue" points="274.593,-261.738 281.342,-253.571 270.973,-255.746 274.593,-261.738"/>
</g>
<!-- Node24 -->
<g id="node64" class="node"><title>Node24</title>
<a xlink:href="light_8hpp.html" target="_top" xlink:title="light.hpp">
<polygon fill="white" stroke="black" points="84.3381,-174.5 84.3381,-195.5 137.338,-195.5 137.338,-174.5 84.3381,-174.5"/>
<text text-anchor="middle" x="110.838" y="-182.5" font-family="Helvetica,sans-Serif" font-size="10.00">light.hpp</text>
</a>
</g>
<!-- Node1&#45;&gt;Node24 -->
<g id="edge80" class="edge"><title>Node1&#45;&gt;Node24</title>
<path fill="none" stroke="midnightblue" d="M193.141,-290.384C184.669,-280.993 172.148,-266.83 161.838,-254 148.673,-237.617 134.528,-218.333 124.482,-204.322"/>
<polygon fill="midnightblue" stroke="midnightblue" points="127.177,-202.074 118.524,-195.961 121.476,-206.136 127.177,-202.074"/>
</g>
<!-- Node25 -->
<g id="node68" class="node"><title>Node25</title>
<a xlink:href="group_8hpp.html" target="_top" xlink:title="group.hpp">
<polygon fill="white" stroke="black" points="480.338,-232.5 480.338,-253.5 539.338,-253.5 539.338,-232.5 480.338,-232.5"/>
<text text-anchor="middle" x="509.838" y="-240.5" font-family="Helvetica,sans-Serif" font-size="10.00">group.hpp</text>
</a>
</g>
<!-- Node1&#45;&gt;Node25 -->
<g id="edge86" class="edge"><title>Node1&#45;&gt;Node25</title>
<path fill="none" stroke="midnightblue" d="M240.482,-293.888C298.785,-282.873 410.401,-261.786 470.006,-250.525"/>
<polygon fill="midnightblue" stroke="midnightblue" points="470.981,-253.903 480.158,-248.607 469.682,-247.025 470.981,-253.903"/>
</g>
<!-- Node3 -->
<g id="node5" class="node"><title>Node3</title>
<a xlink:href="globals_8hpp.html" target="_top" xlink:title="Definitions globales. ">
<polygon fill="white" stroke="black" points="177.838,-58.5 177.838,-79.5 243.838,-79.5 243.838,-58.5 177.838,-58.5"/>
<text text-anchor="middle" x="210.838" y="-66.5" font-family="Helvetica,sans-Serif" font-size="10.00">globals.hpp</text>
</a>
</g>
<!-- Node2&#45;&gt;Node3 -->
<g id="edge4" class="edge"><title>Node2&#45;&gt;Node3</title>
<path fill="none" stroke="midnightblue" d="M27.7118,-174.173C15.3889,-159.656 -2.14302,-133.668 11.8381,-116 16.7346,-109.812 110.846,-89.5433 167.869,-77.741"/>
<polygon fill="midnightblue" stroke="midnightblue" points="168.624,-81.1589 177.711,-75.7115 167.211,-74.3031 168.624,-81.1589"/>
</g>
<!-- Node4 -->
<g id="node7" class="node"><title>Node4</title>
<polygon fill="white" stroke="#bfbfbf" points="368.338,-0.5 368.338,-21.5 421.338,-21.5 421.338,-0.5 368.338,-0.5"/>
<text text-anchor="middle" x="394.838" y="-8.5" font-family="Helvetica,sans-Serif" font-size="10.00">QObject</text>
</g>
<!-- Node2&#45;&gt;Node4 -->
<g id="edge24" class="edge"><title>Node2&#45;&gt;Node4</title>
<path fill="none" stroke="midnightblue" d="M26.0359,-174.434C12.603,-161.057 -6.35757,-137.194 2.83805,-116 17.8567,-81.3844 30.8084,-74.303 64.8381,-58 90.9354,-45.4972 277.707,-23.8398 358.143,-14.9659"/>
<polygon fill="midnightblue" stroke="midnightblue" points="358.752,-18.4202 368.31,-13.8499 357.988,-11.462 358.752,-18.4202"/>
</g>
<!-- Node8 -->
<g id="node15" class="node"><title>Node8</title>
<a xlink:href="actor_8hpp.html" target="_top" xlink:title="actor.hpp">
<polygon fill="white" stroke="black" points="78.3381,-116.5 78.3381,-137.5 135.338,-137.5 135.338,-116.5 78.3381,-116.5"/>
<text text-anchor="middle" x="106.838" y="-124.5" font-family="Helvetica,sans-Serif" font-size="10.00">actor.hpp</text>
</a>
</g>
<!-- Node2&#45;&gt;Node8 -->
<g id="edge14" class="edge"><title>Node2&#45;&gt;Node8</title>
<path fill="none" stroke="midnightblue" d="M50.4937,-174.362C60.5119,-165.941 74.7049,-154.011 86.3394,-144.231"/>
<polygon fill="midnightblue" stroke="midnightblue" points="88.8598,-146.684 94.2626,-137.571 84.3556,-141.326 88.8598,-146.684"/>
</g>
<!-- Node12 -->
<g id="node25" class="node"><title>Node12</title>
<polygon fill="white" stroke="#bfbfbf" points="20.8381,-116.5 20.8381,-137.5 60.8381,-137.5 60.8381,-116.5 20.8381,-116.5"/>
<text text-anchor="middle" x="40.8381" y="-124.5" font-family="Helvetica,sans-Serif" font-size="10.00">QList</text>
</g>
<!-- Node2&#45;&gt;Node12 -->
<g id="edge26" class="edge"><title>Node2&#45;&gt;Node12</title>
<path fill="none" stroke="midnightblue" d="M38.3883,-174.362C38.7731,-166.922 39.2996,-156.743 39.7659,-147.728"/>
<polygon fill="midnightblue" stroke="midnightblue" points="43.27,-147.738 40.2913,-137.571 36.2793,-147.376 43.27,-147.738"/>
</g>
<!-- Node3&#45;&gt;Node4 -->
<g id="edge6" class="edge"><title>Node3&#45;&gt;Node4</title>
<path fill="none" stroke="midnightblue" d="M244.159,-58.4966C276.445,-48.3197 325.277,-32.9269 358.536,-22.443"/>
<polygon fill="midnightblue" stroke="midnightblue" points="359.837,-25.7027 368.322,-19.3582 357.733,-19.0266 359.837,-25.7027"/>
</g>
<!-- Node5 -->
<g id="node9" class="node"><title>Node5</title>
<polygon fill="white" stroke="#bfbfbf" points="136.338,-0.5 136.338,-21.5 207.338,-21.5 207.338,-0.5 136.338,-0.5"/>
<text text-anchor="middle" x="171.838" y="-8.5" font-family="Helvetica,sans-Serif" font-size="10.00">QQuaternion</text>
</g>
<!-- Node3&#45;&gt;Node5 -->
<g id="edge8" class="edge"><title>Node3&#45;&gt;Node5</title>
<path fill="none" stroke="midnightblue" d="M203.685,-58.3619C198.352,-50.4313 190.927,-39.3885 184.587,-29.9606"/>
<polygon fill="midnightblue" stroke="midnightblue" points="187.43,-27.9161 178.946,-21.5707 181.621,-31.8221 187.43,-27.9161"/>
</g>
<!-- Node6 -->
<g id="node11" class="node"><title>Node6</title>
<polygon fill="white" stroke="#bfbfbf" points="595.338,-0.5 595.338,-21.5 660.338,-21.5 660.338,-0.5 595.338,-0.5"/>
<text text-anchor="middle" x="627.838" y="-8.5" font-family="Helvetica,sans-Serif" font-size="10.00">QVector3D</text>
</g>
<!-- Node3&#45;&gt;Node6 -->
<g id="edge10" class="edge"><title>Node3&#45;&gt;Node6</title>
<path fill="none" stroke="midnightblue" d="M244.218,-59.8345C247.123,-59.1657 250.026,-58.5421 252.838,-58 372.184,-34.9957 515.16,-20.6743 585.081,-14.5147"/>
<polygon fill="midnightblue" stroke="midnightblue" points="585.599,-17.983 595.258,-13.6306 584.993,-11.0093 585.599,-17.983"/>
</g>
<!-- Node7 -->
<g id="node13" class="node"><title>Node7</title>
<polygon fill="white" stroke="#bfbfbf" points="224.338,-0.5 224.338,-21.5 273.338,-21.5 273.338,-0.5 224.338,-0.5"/>
<text text-anchor="middle" x="248.838" y="-8.5" font-family="Helvetica,sans-Serif" font-size="10.00">QtMath</text>
</g>
<!-- Node3&#45;&gt;Node7 -->
<g id="edge12" class="edge"><title>Node3&#45;&gt;Node7</title>
<path fill="none" stroke="midnightblue" d="M217.808,-58.3619C223.004,-50.4313 230.239,-39.3885 236.416,-29.9606"/>
<polygon fill="midnightblue" stroke="midnightblue" points="239.36,-31.8534 241.912,-21.5707 233.505,-28.0172 239.36,-31.8534"/>
</g>
<!-- Node8&#45;&gt;Node3 -->
<g id="edge16" class="edge"><title>Node8&#45;&gt;Node3</title>
<path fill="none" stroke="midnightblue" d="M125.913,-116.362C141.893,-107.45 164.919,-94.6087 182.965,-84.5447"/>
<polygon fill="midnightblue" stroke="midnightblue" points="184.855,-87.4982 191.884,-79.5707 181.445,-81.3846 184.855,-87.4982"/>
</g>
<!-- Node9 -->
<g id="node18" class="node"><title>Node9</title>
<polygon fill="white" stroke="#bfbfbf" points="73.3381,-58.5 73.3381,-79.5 140.338,-79.5 140.338,-58.5 73.3381,-58.5"/>
<text text-anchor="middle" x="106.838" y="-66.5" font-family="Helvetica,sans-Serif" font-size="10.00">QMatrix4x4</text>
</g>
<!-- Node8&#45;&gt;Node9 -->
<g id="edge18" class="edge"><title>Node8&#45;&gt;Node9</title>
<path fill="none" stroke="midnightblue" d="M106.838,-116.362C106.838,-108.922 106.838,-98.7427 106.838,-89.7276"/>
<polygon fill="midnightblue" stroke="midnightblue" points="110.338,-89.5706 106.838,-79.5707 103.338,-89.5707 110.338,-89.5706"/>
</g>
<!-- Node10 -->
<g id="node20" class="node"><title>Node10</title>
<polygon fill="white" stroke="#bfbfbf" points="361.338,-58.5 361.338,-79.5 464.338,-79.5 464.338,-58.5 361.338,-58.5"/>
<text text-anchor="middle" x="412.838" y="-66.5" font-family="Helvetica,sans-Serif" font-size="10.00">QOpenGLFunctions</text>
</g>
<!-- Node8&#45;&gt;Node10 -->
<g id="edge20" class="edge"><title>Node8&#45;&gt;Node10</title>
<path fill="none" stroke="midnightblue" d="M135.432,-118.135C138.26,-117.368 141.097,-116.641 143.838,-116 232.481,-95.266 258.289,-96.3917 351.03,-80.2913"/>
<polygon fill="midnightblue" stroke="midnightblue" points="351.891,-83.6939 361.134,-78.5155 350.679,-76.7995 351.891,-83.6939"/>
</g>
<!-- Node11 -->
<g id="node22" class="node"><title>Node11</title>
<polygon fill="white" stroke="#bfbfbf" points="261.338,-58.5 261.338,-79.5 344.338,-79.5 344.338,-58.5 261.338,-58.5"/>
<text text-anchor="middle" x="302.838" y="-66.5" font-family="Helvetica,sans-Serif" font-size="10.00">QMetaProperty</text>
</g>
<!-- Node8&#45;&gt;Node11 -->
<g id="edge22" class="edge"><title>Node8&#45;&gt;Node11</title>
<path fill="none" stroke="midnightblue" d="M135.52,-118.468C138.331,-117.634 141.14,-116.8 143.838,-116 182.064,-104.668 225.471,-91.8398 257.262,-82.4517"/>
<polygon fill="midnightblue" stroke="midnightblue" points="258.555,-85.7193 267.154,-79.5307 256.573,-79.0059 258.555,-85.7193"/>
</g>
<!-- Node13&#45;&gt;Node11 -->
<g id="edge64" class="edge"><title>Node13&#45;&gt;Node11</title>
<path fill="none" stroke="midnightblue" d="M208.943,-232.377C225.292,-203.93 270.261,-125.684 291.477,-88.7689"/>
<polygon fill="midnightblue" stroke="midnightblue" points="294.609,-90.3419 296.558,-79.9277 288.54,-86.8539 294.609,-90.3419"/>
</g>
<!-- Node14 -->
<g id="node29" class="node"><title>Node14</title>
<a xlink:href="geometry_8hpp.html" target="_top" xlink:title="geometry.hpp">
<polygon fill="white" stroke="black" points="471.838,-174.5 471.838,-195.5 547.838,-195.5 547.838,-174.5 471.838,-174.5"/>
<text text-anchor="middle" x="509.838" y="-182.5" font-family="Helvetica,sans-Serif" font-size="10.00">geometry.hpp</text>
</a>
</g>
<!-- Node13&#45;&gt;Node14 -->
<g id="edge30" class="edge"><title>Node13&#45;&gt;Node14</title>
<path fill="none" stroke="midnightblue" d="M235.402,-236.848C289.488,-226.63 398.127,-206.105 461.286,-194.173"/>
<polygon fill="midnightblue" stroke="midnightblue" points="462.218,-197.559 471.394,-192.263 460.918,-190.68 462.218,-197.559"/>
</g>
<!-- Node18 -->
<g id="node40" class="node"><title>Node18</title>
<polygon fill="white" stroke="#bfbfbf" points="152.338,-116.5 152.338,-137.5 199.338,-137.5 199.338,-116.5 152.338,-116.5"/>
<text text-anchor="middle" x="175.838" y="-124.5" font-family="Helvetica,sans-Serif" font-size="10.00">QColor</text>
</g>
<!-- Node13&#45;&gt;Node18 -->
<g id="edge66" class="edge"><title>Node13&#45;&gt;Node18</title>
<path fill="none" stroke="midnightblue" d="M199.294,-232.259C196.251,-222.788 191.887,-208.577 188.838,-196 184.94,-179.922 181.521,-161.498 179.169,-147.735"/>
<polygon fill="midnightblue" stroke="midnightblue" points="182.615,-147.121 177.523,-137.83 175.71,-148.269 182.615,-147.121"/>
</g>
<!-- Node14&#45;&gt;Node3 -->
<g id="edge46" class="edge"><title>Node14&#45;&gt;Node3</title>
<path fill="none" stroke="midnightblue" d="M491.903,-174.47C459.214,-155.285 393.158,-116.544 391.838,-116 335.725,-92.8509 316.473,-95.721 253.849,-80.1974"/>
<polygon fill="midnightblue" stroke="midnightblue" points="254.405,-76.7275 243.851,-77.6553 252.68,-83.5116 254.405,-76.7275"/>
</g>
<!-- Node14&#45;&gt;Node4 -->
<g id="edge32" class="edge"><title>Node14&#45;&gt;Node4</title>
<path fill="none" stroke="midnightblue" d="M540.011,-174.446C568.471,-162.667 604.715,-141.826 589.838,-116 556.383,-57.9216 478.076,-30.2531 431.51,-18.5094"/>
<polygon fill="midnightblue" stroke="midnightblue" points="432.063,-15.0428 421.522,-16.1118 430.429,-21.8494 432.063,-15.0428"/>
</g>
<!-- Node14&#45;&gt;Node6 -->
<g id="edge34" class="edge"><title>Node14&#45;&gt;Node6</title>
<path fill="none" stroke="midnightblue" d="M548.141,-175.11C568.031,-168.013 591.005,-156.377 604.838,-138 628.303,-106.828 630.488,-59.3057 629.486,-32.0967"/>
<polygon fill="midnightblue" stroke="midnightblue" points="632.962,-31.5769 628.914,-21.7862 625.973,-31.9648 632.962,-31.5769"/>
</g>
<!-- Node14&#45;&gt;Node8 -->
<g id="edge48" class="edge"><title>Node14&#45;&gt;Node8</title>
<path fill="none" stroke="midnightblue" d="M471.828,-182.152C406.722,-176.835 269.621,-163.727 145.461,-138.098"/>
<polygon fill="midnightblue" stroke="midnightblue" points="145.91,-134.616 135.404,-135.988 144.473,-141.467 145.91,-134.616"/>
</g>
<!-- Node14&#45;&gt;Node10 -->
<g id="edge36" class="edge"><title>Node14&#45;&gt;Node10</title>
<path fill="none" stroke="midnightblue" d="M532.295,-174.395C556.811,-161.358 590.501,-138.223 573.838,-116 561.599,-99.6779 514.522,-87.1425 474.412,-79.1386"/>
<polygon fill="midnightblue" stroke="midnightblue" points="474.872,-75.6629 464.39,-77.2018 473.544,-82.5358 474.872,-75.6629"/>
</g>
<!-- Node15 -->
<g id="node34" class="node"><title>Node15</title>
<polygon fill="white" stroke="#bfbfbf" points="696.838,-116.5 696.838,-137.5 824.838,-137.5 824.838,-116.5 696.838,-116.5"/>
<text text-anchor="middle" x="760.838" y="-124.5" font-family="Helvetica,sans-Serif" font-size="10.00">QOpenGLShaderProgram</text>
</g>
<!-- Node14&#45;&gt;Node15 -->
<g id="edge38" class="edge"><title>Node14&#45;&gt;Node15</title>
<path fill="none" stroke="midnightblue" d="M547.96,-176.191C589.827,-166.517 657.45,-150.89 705.23,-139.85"/>
<polygon fill="midnightblue" stroke="midnightblue" points="706.153,-143.229 715.109,-137.567 704.577,-136.408 706.153,-143.229"/>
</g>
<!-- Node16 -->
<g id="node36" class="node"><title>Node16</title>
<polygon fill="white" stroke="#bfbfbf" points="842.838,-116.5 842.838,-137.5 928.838,-137.5 928.838,-116.5 842.838,-116.5"/>
<text text-anchor="middle" x="885.838" y="-124.5" font-family="Helvetica,sans-Serif" font-size="10.00">QOpenGLBuffer</text>
</g>
<!-- Node14&#45;&gt;Node16 -->
<g id="edge40" class="edge"><title>Node14&#45;&gt;Node16</title>
<path fill="none" stroke="midnightblue" d="M548.111,-176.555C552.726,-175.64 557.382,-174.765 561.838,-174 678.854,-153.91 711.924,-158.374 832.744,-138.084"/>
<polygon fill="midnightblue" stroke="midnightblue" points="833.486,-141.508 842.757,-136.38 832.311,-134.607 833.486,-141.508"/>
</g>
<!-- Node17 -->
<g id="node38" class="node"><title>Node17</title>
<polygon fill="white" stroke="#bfbfbf" points="946.838,-116.5 946.838,-137.5 1086.84,-137.5 1086.84,-116.5 946.838,-116.5"/>
<text text-anchor="middle" x="1016.84" y="-124.5" font-family="Helvetica,sans-Serif" font-size="10.00">QOpenGLVertexArrayObject</text>
</g>
<!-- Node14&#45;&gt;Node17 -->
<g id="edge42" class="edge"><title>Node14&#45;&gt;Node17</title>
<path fill="none" stroke="midnightblue" d="M548.085,-176.397C552.705,-175.51 557.369,-174.684 561.838,-174 724.538,-149.084 769.369,-157.242 936.511,-138.109"/>
<polygon fill="midnightblue" stroke="midnightblue" points="937.117,-141.562 946.647,-136.933 936.31,-134.609 937.117,-141.562"/>
</g>
<!-- Node14&#45;&gt;Node18 -->
<g id="edge44" class="edge"><title>Node14&#45;&gt;Node18</title>
<path fill="none" stroke="midnightblue" d="M471.524,-178.347C405.761,-166.927 272.443,-143.776 209.801,-132.898"/>
<polygon fill="midnightblue" stroke="midnightblue" points="210.117,-129.4 199.666,-131.138 208.92,-136.297 210.117,-129.4"/>
</g>
<!-- Node19 -->
<g id="node44" class="node"><title>Node19</title>
<a xlink:href="material_8hpp.html" target="_top" xlink:title="material.hpp">
<polygon fill="white" stroke="black" points="438.838,-116.5 438.838,-137.5 508.838,-137.5 508.838,-116.5 438.838,-116.5"/>
<text text-anchor="middle" x="473.838" y="-124.5" font-family="Helvetica,sans-Serif" font-size="10.00">material.hpp</text>
</a>
</g>
<!-- Node14&#45;&gt;Node19 -->
<g id="edge50" class="edge"><title>Node14&#45;&gt;Node19</title>
<path fill="none" stroke="midnightblue" d="M503.235,-174.362C498.363,-166.513 491.6,-155.616 485.788,-146.253"/>
<polygon fill="midnightblue" stroke="midnightblue" points="488.647,-144.221 480.399,-137.571 482.699,-147.913 488.647,-144.221"/>
</g>
<!-- Node20 -->
<g id="node49" class="node"><title>Node20</title>
<polygon fill="white" stroke="#bfbfbf" points="330.838,-116.5 330.838,-137.5 382.838,-137.5 382.838,-116.5 330.838,-116.5"/>
<text text-anchor="middle" x="356.838" y="-124.5" font-family="Helvetica,sans-Serif" font-size="10.00">memory</text>
</g>
<!-- Node14&#45;&gt;Node20 -->
<g id="edge58" class="edge"><title>Node14&#45;&gt;Node20</title>
<path fill="none" stroke="midnightblue" d="M482.131,-174.497C457.052,-164.989 419.964,-150.93 392.645,-140.574"/>
<polygon fill="midnightblue" stroke="midnightblue" points="393.653,-137.213 383.062,-136.941 391.172,-143.758 393.653,-137.213"/>
</g>
<!-- Node21 -->
<g id="node51" class="node"><title>Node21</title>
<polygon fill="white" stroke="#bfbfbf" points="1104.84,-116.5 1104.84,-137.5 1148.84,-137.5 1148.84,-116.5 1104.84,-116.5"/>
<text text-anchor="middle" x="1126.84" y="-124.5" font-family="Helvetica,sans-Serif" font-size="10.00">vector</text>
</g>
<!-- Node14&#45;&gt;Node21 -->
<g id="edge60" class="edge"><title>Node14&#45;&gt;Node21</title>
<path fill="none" stroke="midnightblue" d="M548.067,-176.274C552.69,-175.408 557.359,-174.621 561.838,-174 794.231,-141.751 861.084,-185.01 1094.88,-137.696"/>
<polygon fill="midnightblue" stroke="midnightblue" points="1095.61,-141.119 1104.7,-135.676 1094.2,-134.263 1095.61,-141.119"/>
</g>
<!-- Node22 -->
<g id="node53" class="node"><title>Node22</title>
<polygon fill="white" stroke="#bfbfbf" points="526.838,-116.5 526.838,-137.5 564.838,-137.5 564.838,-116.5 526.838,-116.5"/>
<text text-anchor="middle" x="545.838" y="-124.5" font-family="Helvetica,sans-Serif" font-size="10.00">tuple</text>
</g>
<!-- Node14&#45;&gt;Node22 -->
<g id="edge62" class="edge"><title>Node14&#45;&gt;Node22</title>
<path fill="none" stroke="midnightblue" d="M516.441,-174.362C521.313,-166.513 528.076,-155.616 533.888,-146.253"/>
<polygon fill="midnightblue" stroke="midnightblue" points="536.977,-147.913 539.277,-137.571 531.03,-144.221 536.977,-147.913"/>
</g>
<!-- Node19&#45;&gt;Node3 -->
<g id="edge54" class="edge"><title>Node19&#45;&gt;Node3</title>
<path fill="none" stroke="midnightblue" d="M438.788,-119.067C434.1,-118.025 429.354,-116.979 424.838,-116 351.642,-100.125 330.568,-98.0515 254.36,-80.2848"/>
<polygon fill="midnightblue" stroke="midnightblue" points="254.806,-76.7945 244.271,-77.9168 253.207,-83.6093 254.806,-76.7945"/>
</g>
<!-- Node19&#45;&gt;Node4 -->
<g id="edge52" class="edge"><title>Node19&#45;&gt;Node4</title>
<path fill="none" stroke="midnightblue" d="M476.684,-116.353C479.876,-102.04 483.342,-76.2828 472.838,-58 463.707,-42.1067 446.848,-30.9692 431.134,-23.5396"/>
<polygon fill="midnightblue" stroke="midnightblue" points="432.144,-20.162 421.578,-19.3834 429.352,-26.5812 432.144,-20.162"/>
</g>
<!-- Node19&#45;&gt;Node11 -->
<g id="edge56" class="edge"><title>Node19&#45;&gt;Node11</title>
<path fill="none" stroke="midnightblue" d="M442.871,-116.497C414.994,-107.041 373.841,-93.0829 343.356,-82.7428"/>
<polygon fill="midnightblue" stroke="midnightblue" points="344.457,-79.4207 333.863,-79.5231 342.209,-86.0497 344.457,-79.4207"/>
</g>
<!-- Node23&#45;&gt;Node3 -->
<g id="edge72" class="edge"><title>Node23&#45;&gt;Node3</title>
<path fill="none" stroke="midnightblue" d="M293.466,-232.377C279.14,-204.051 239.842,-126.349 221.076,-89.2424"/>
<polygon fill="midnightblue" stroke="midnightblue" points="224.001,-87.2718 216.365,-79.9277 217.755,-90.431 224.001,-87.2718"/>
</g>
<!-- Node23&#45;&gt;Node11 -->
<g id="edge76" class="edge"><title>Node23&#45;&gt;Node11</title>
<path fill="none" stroke="midnightblue" d="M299.082,-232.377C299.728,-204.293 301.489,-127.673 302.351,-90.2027"/>
<polygon fill="midnightblue" stroke="midnightblue" points="305.856,-90.0055 302.587,-79.9277 298.858,-89.8446 305.856,-90.0055"/>
</g>
<!-- Node23&#45;&gt;Node14 -->
<g id="edge70" class="edge"><title>Node23&#45;&gt;Node14</title>
<path fill="none" stroke="midnightblue" d="M326.857,-235.298C361.313,-225.827 420.342,-209.601 462.024,-198.143"/>
<polygon fill="midnightblue" stroke="midnightblue" points="462.978,-201.511 471.692,-195.486 461.122,-194.761 462.978,-201.511"/>
</g>
<!-- Node23&#45;&gt;Node18 -->
<g id="edge74" class="edge"><title>Node23&#45;&gt;Node18</title>
<path fill="none" stroke="midnightblue" d="M287.487,-232.295C266.252,-212.268 220.334,-168.964 194.489,-144.589"/>
<polygon fill="midnightblue" stroke="midnightblue" points="196.838,-141.994 187.162,-137.679 192.035,-147.087 196.838,-141.994"/>
</g>
<!-- Node23&#45;&gt;Node21 -->
<g id="edge78" class="edge"><title>Node23&#45;&gt;Node21</title>
<path fill="none" stroke="midnightblue" d="M327.161,-241.036C375.561,-236.985 476.72,-225.472 556.838,-196 575.153,-189.263 576.185,-179.735 594.838,-174 805.097,-109.359 875.278,-181.564 1094.8,-137.698"/>
<polygon fill="midnightblue" stroke="midnightblue" points="1095.6,-141.107 1104.69,-135.664 1094.19,-134.25 1095.6,-141.107"/>
</g>
<!-- Node24&#45;&gt;Node8 -->
<g id="edge84" class="edge"><title>Node24&#45;&gt;Node8</title>
<path fill="none" stroke="midnightblue" d="M110.104,-174.362C109.591,-166.922 108.889,-156.743 108.268,-147.728"/>
<polygon fill="midnightblue" stroke="midnightblue" points="111.747,-147.306 107.567,-137.571 104.763,-147.788 111.747,-147.306"/>
</g>
<!-- Node24&#45;&gt;Node18 -->
<g id="edge82" class="edge"><title>Node24&#45;&gt;Node18</title>
<path fill="none" stroke="midnightblue" d="M122.76,-174.362C132.198,-165.941 145.568,-154.011 156.528,-144.231"/>
<polygon fill="midnightblue" stroke="midnightblue" points="158.86,-146.84 163.992,-137.571 154.2,-141.617 158.86,-146.84"/>
</g>
<!-- Node25&#45;&gt;Node14 -->
<g id="edge90" class="edge"><title>Node25&#45;&gt;Node14</title>
<path fill="none" stroke="midnightblue" d="M509.838,-232.362C509.838,-224.922 509.838,-214.743 509.838,-205.728"/>
<polygon fill="midnightblue" stroke="midnightblue" points="513.338,-205.571 509.838,-195.571 506.338,-205.571 513.338,-205.571"/>
</g>
<!-- Node26 -->
<g id="node70" class="node"><title>Node26</title>
<polygon fill="white" stroke="#bfbfbf" points="603.338,-174.5 603.338,-195.5 656.338,-195.5 656.338,-174.5 603.338,-174.5"/>
<text text-anchor="middle" x="629.838" y="-182.5" font-family="Helvetica,sans-Serif" font-size="10.00">QVector</text>
</g>
<!-- Node25&#45;&gt;Node26 -->
<g id="edge88" class="edge"><title>Node25&#45;&gt;Node26</title>
<path fill="none" stroke="midnightblue" d="M531.569,-232.497C550.312,-223.438 577.605,-210.246 598.674,-200.063"/>
<polygon fill="midnightblue" stroke="midnightblue" points="600.383,-203.124 607.863,-195.621 597.337,-196.822 600.383,-203.124"/>
</g>
</g>
</svg>
        <g id="navigator" transform="translate(0 0)" fill="#404254">
                <rect fill="#f2f5e9" fill-opacity="0.5" stroke="#606060" stroke-width=".5" x="0" y="0" width="60" height="60"/>
                <use id="zoomplus" xlink:href="#zoomPlus" x="17" y="9" onmousedown="handleZoom(evt,'in')"/>
                <use id="zoomminus" xlink:href="#zoomMin" x="42" y="9" onmousedown="handleZoom(evt,'out')"/>
                <use id="reset" xlink:href="#resetDef" x="30" y="36" onmousedown="handleReset()"/>
                <g id="arrowUp" xlink:href="#dirArrow" transform="translate(30 24)" onmousedown="handlePan(0,-1)">
                  <use xlink:href="#rim" fill="#404040">
                        <set attributeName="fill" to="#808080" begin="arrowUp.mouseover" end="arrowUp.mouseout"/>
                  </use>
                  <path fill="none" stroke="white" stroke-width="1.5" d="M0,-3.0v7 M-2.5,-0.5L0,-3.0L2.5,-0.5"/>
                </g>
                <g id="arrowRight" xlink:href="#dirArrow" transform="rotate(90) translate(36 -43)" onmousedown="handlePan(1,0)">
                  <use xlink:href="#rim" fill="#404040">
                        <set attributeName="fill" to="#808080" begin="arrowRight.mouseover" end="arrowRight.mouseout"/>
                  </use>
                  <path fill="none" stroke="white" stroke-width="1.5" d="M0,-3.0v7 M-2.5,-0.5L0,-3.0L2.5,-0.5"/>
                </g>
                <g id="arrowDown" xlink:href="#dirArrow" transform="rotate(180) translate(-30 -48)" onmousedown="handlePan(0,1)">
                  <use xlink:href="#rim" fill="#404040">
                        <set attributeName="fill" to="#808080" begin="arrowDown.mouseover" end="arrowDown.mouseout"/>
                  </use>
                  <path fill="none" stroke="white" stroke-width="1.5" d="M0,-3.0v7 M-2.5,-0.5L0,-3.0L2.5,-0.5"/>
                </g>
                <g id="arrowLeft" xlink:href="#dirArrow" transform="rotate(270) translate(-36 17)" onmousedown="handlePan(-1,0)">
                  <use xlink:href="#rim" fill="#404040">
                        <set attributeName="fill" to="#808080" begin="arrowLeft.mouseover" end="arrowLeft.mouseout"/>
                  </use>
                  <path fill="none" stroke="white" stroke-width="1.5" d="M0,-3.0v7 M-2.5,-0.5L0,-3.0L2.5,-0.5"/>
                </g>
        </g>
        <svg viewBox="0 0 15 15" width="100%" height="30px" preserveAspectRatio="xMaxYMin meet">
         <g id="arrow_out" transform="scale(0.3 0.3)">
          <a xlink:href="world_8cpp__incl_org.svg" target="_base">
           <rect id="button" ry="5" rx="5" y="6" x="6" height="38" width="38"
                fill="#f2f5e9" fill-opacity="0.5" stroke="#606060" stroke-width="1.0"/>
           <path id="arrow"
             d="M 11.500037,31.436501 C 11.940474,20.09759 22.043105,11.32322 32.158766,21.979434 L 37.068811,17.246167 C 37.068811,17.246167 37.088388,32 37.088388,32 L 22.160133,31.978069 C 22.160133,31.978069 26.997745,27.140456 26.997745,27.140456 C 18.528582,18.264221 13.291696,25.230495 11.500037,31.436501 z"
             style="fill:#404040;"/>
          </a>
         </g>
        </svg>
</svg>
